<?xml version="1.0" encoding="UTF-8" standalone="no"?>
<svg
   xmlns:dc="http://purl.org/dc/elements/1.1/"
   xmlns:cc="http://creativecommons.org/ns#"
   xmlns:rdf="http://www.w3.org/1999/02/22-rdf-syntax-ns#"
   xmlns:svg="http://www.w3.org/2000/svg"
   xmlns="http://www.w3.org/2000/svg"
   xmlns:sodipodi="http://sodipodi.sourceforge.net/DTD/sodipodi-0.dtd"
   xmlns:inkscape="http://www.inkscape.org/namespaces/inkscape"
   width="210mm"
   height="297mm"
   viewBox="0 0 210 297"
   version="1.1"
   id="svg8"
   inkscape:version="1.0beta1 (32d4812, 2019-09-19)"
   sodipodi:docname="icon.svg"
   inkscape:export-filename="/Users/alex/Documents/code/chinesenotes.com/web-resources/images/icon16.png"
   inkscape:export-xdpi="4.7811766"
   inkscape:export-ydpi="4.7811766">
  <defs
     id="defs2">
    <rect
       x="58.208333"
       y="103.56548"
       width="83.910714"
       height="70.303571"
       id="rect835" />
  </defs>
  <sodipodi:namedview
     id="base"
     pagecolor="#ffffff"
     bordercolor="#666666"
     borderopacity="1.0"
     inkscape:pageopacity="0.0"
     inkscape:pageshadow="2"
     inkscape:zoom="0.70710678"
     inkscape:cx="400"
     inkscape:cy="359.33002"
     inkscape:document-units="mm"
     inkscape:current-layer="layer4"
     inkscape:document-rotation="0"
     showgrid="false"
     inkscape:window-width="1440"
     inkscape:window-height="763"
     inkscape:window-x="0"
     inkscape:window-y="25"
     inkscape:window-maximized="0" />
  <metadata
     id="metadata5">
    <rdf:RDF>
      <cc:Work
         rdf:about="">
        <dc:format>image/svg+xml</dc:format>
        <dc:type
           rdf:resource="http://purl.org/dc/dcmitype/StillImage" />
        <dc:title />
      </cc:Work>
    </rdf:RDF>
  </metadata>
  <g
     inkscape:label="bae"
     id="layer4"
     inkscape:groupmode="layer">
    <circle
       r="42.5"
       cy="92.5"
       cx="92.5"
       id="path919"
       style="fill:#ffffff;stroke-width:0.805567" />
  </g>
  <g
     inkscape:label="text"
     id="layer3"
     inkscape:groupmode="layer">
    <path
       inkscape:connector-curvature="0"
       id="path912"
       d="m 93.122209,119.02208 c -0.647614,-0.71561 -1.157211,-4.92466 -1.174081,-9.69749 l -0.006,-1.63496 -0.485067,0.10997 c -2.530418,0.57368 -6.662294,1.94367 -7.688868,2.54937 -1.150174,0.67862 -2.160348,0.89843 -2.922362,0.6359 -0.924997,-0.31869 -1.877271,-1.08413 -2.141068,-1.72098 -0.34401,-0.83052 0.241987,-1.28917 2.473495,-1.93596 4.186866,-1.21353 8.940279,-3.32875 10.047353,-4.47096 0.332307,-0.34287 0.560637,-0.66697 0.507377,-0.72022 -0.15643,-0.15643 -1.705001,0.24568 -3.105022,0.80628 -0.900114,0.36043 -1.603381,0.51998 -2.291898,0.51998 -0.990844,0 -0.996114,-0.003 -2.118978,-1.15368 -1.305591,-1.3381 -1.282801,-1.49275 0.27056,-1.83612 2.615025,-0.578037 5.518687,-1.747331 6.881211,-2.771035 0.424877,-0.31922 0.573267,-0.568437 0.573267,-0.962784 0,-0.42527 -0.062,-0.513037 -0.30868,-0.43724 -0.169777,0.0521 -1.261171,0.34022 -2.425335,0.640147 -2.320058,0.597727 -3.096652,0.593027 -4.415176,-0.0267 -0.875924,-0.411737 -2.105628,-1.625761 -1.979548,-1.954318 0.0535,-0.13941 0.986044,-0.432857 2.272588,-0.715107 1.200031,-0.263277 3.253422,-0.782984 4.563103,-1.154901 l 2.381238,-0.676217 0.153887,-1.186544 c 0.0846,-0.652597 0.12297,-1.217464 0.0852,-1.255274 -0.1098,-0.109787 -4.006966,0.718067 -6.549684,1.391314 -2.286285,0.605357 -3.576979,1.025284 -7.070668,2.300445 -3.595009,1.312144 -5.36871,1.204254 -7.212041,-0.438677 -1.022624,-0.911444 -1.273791,-1.509181 -0.793694,-1.888798 0.12127,-0.0959 0.815794,-0.21989 1.543391,-0.27557 0.727607,-0.0557 3.108842,-0.496707 5.29164,-0.980084 4.065436,-0.900274 12.198401,-2.529005 13.934642,-2.790582 l 0.970134,-0.14616 0.0531,-1.125394 0.0531,-1.125394 -0.687207,0.10989 c -0.377957,0.0604 -1.314674,0.363817 -2.081588,0.674177 -0.861004,0.348427 -1.698021,0.563237 -2.188138,0.561567 -1.689931,-0.006 -4.451136,-2.078901 -3.219082,-2.416888 0.16977,-0.0466 0.744367,-0.18345 1.276874,-0.304177 0.532497,-0.12072 1.564371,-0.43432 2.293035,-0.696877 0.728667,-0.26256 1.900321,-0.615827 2.603665,-0.785037 0.703347,-0.169207 1.278814,-0.374747 1.278814,-0.456737 0,-0.082 -0.314477,-0.401797 -0.698847,-0.710674 -0.802284,-0.644737 -0.753124,-1.006274 0.20412,-1.501294 0.743227,-0.384337 1.886368,-0.257767 3.265792,0.36159 l 1.095394,0.491827 2.172848,-1.050374 c 2.136088,-1.032594 3.485645,-1.976038 3.485645,-2.436728 0,-0.381247 -0.51284,-0.782944 -0.84295,-0.660274 -0.16697,0.062 -0.714297,0.383427 -1.216284,0.714174 -1.227834,0.809017 -1.513101,0.696557 -2.277118,-0.897684 -0.984684,-2.054688 -0.839954,-2.633885 1.127374,-4.511713 1.669961,-1.593991 1.900281,-2.617875 0.789357,-3.509082 -0.559067,-0.448507 -0.622077,-0.566607 -0.42742,-0.801164 0.12558,-0.15131 0.667537,-0.36629 1.204344,-0.477727 1.389987,-0.28857 2.352167,0.0907 2.989607,1.178401 0.41717,0.711827 0.45381,0.917677 0.37685,2.116838 -0.058,0.903287 -0.0209,1.353044 0.11597,1.405554 0.11066,0.0425 1.03184,-0.16238 2.04706,-0.455207 2.17581,-0.627587 2.93412,-0.661477 3.88994,-0.17385 0.79179,0.403937 0.95488,0.673527 0.79435,1.313101 -0.16375,0.652457 -0.7967,0.972257 -2.6252,1.326384 -1.49687,0.289897 -3.35967,0.936854 -4.18929,1.454961 -0.29211,0.18242 -0.23823,0.25934 0.55671,0.794687 1.63861,1.103494 2.06714,2.603665 1.01759,3.562269 -0.64163,0.586037 -1.41915,0.819344 -3.57788,1.073584 -0.86345,0.10169 -1.776264,0.297057 -2.028474,0.434147 -0.438057,0.23813 -0.410707,0.24959 0.611857,0.25633 2.792097,0.0184 4.608487,1.437911 5.256737,4.108086 0.13523,0.557047 0.0153,0.543987 2.7742,0.301917 3.92348,-0.344257 6.67396,0.33736 7.78958,1.930401 0.64527,0.921414 0.78414,1.634081 0.38324,1.966768 -0.42185,0.350087 -2.74117,0.303327 -4.66237,-0.094 -0.93539,-0.19345 -2.66579,-0.343417 -4.60065,-0.398747 l -3.10135,-0.0887 -1.48476,1.097974 c -0.81663,0.603877 -1.51251,1.124004 -1.54641,1.155844 -0.0339,0.0318 0.3353,0.259017 0.82045,0.504857 1.49882,0.759504 2.02627,1.861148 1.31288,2.742145 -0.17192,0.212307 -0.88915,0.572127 -1.61313,0.809264 -1.081297,0.354177 -3.545355,1.713671 -3.545355,1.956068 0,0.0377 0.672667,0.0168 1.494814,-0.0464 1.191161,-0.0916 1.655291,-0.0536 2.284831,0.186807 0.72388,0.27646 1.86479,1.306417 1.86479,1.683454 0,0.448927 -0.89756,0.900714 -2.82071,1.419791 l -0.792244,0.21384 1.022404,0.95165 c 1.36316,1.26883 1.99709,1.56053 4.11622,1.89406 2.82733,0.44498 4.30439,1.07151 4.89894,2.07801 0.36742,0.62199 0.35105,0.89359 -0.0874,1.45101 -0.43619,0.55453 -0.77037,0.57437 -3.02983,0.17988 -1.3225,-0.2309 -2.35028,-0.26409 -5.42404,-0.17517 -2.085791,0.0603 -4.081692,0.15656 -4.435339,0.21383 l -0.642987,0.10412 -0.119217,2.14362 c -0.14576,2.62113 -0.47061,4.93995 -1.073394,7.66221 -0.528277,2.38572 -0.896417,2.90784 -1.544984,2.19117 z m 5.65517,-15.67293 c 1.801651,-0.14184 1.978201,-0.30505 1.468641,-1.35767 -0.20632,-0.4262 -0.534897,-0.9195 -0.730187,-1.09623 -0.344997,-0.31222 -0.383647,-0.30735 -1.362561,0.17173 -1.635011,0.80018 -2.683165,1.64828 -2.683165,2.17104 0,0.44017 0.0213,0.44794 0.926034,0.33811 0.509317,-0.0618 1.580871,-0.16397 2.381238,-0.22698 z M 97.558525,89.372173 c 0.26056,-0.39244 0.25577,-0.3956 -0.515837,-0.34046 l -0.778834,0.0557 -0.0558,0.781267 -0.0558,0.781264 0.571617,-0.440817 c 0.314387,-0.24245 0.689964,-0.619067 0.834624,-0.836924 z m 0.444707,-3.104755 c 1.750641,-0.286927 1.952811,-0.399067 2.229158,-1.236411 0.41863,-1.268434 -0.329217,-2.310398 -1.533081,-2.136038 -1.010774,0.1464 -2.159938,0.760844 -2.347978,1.255431 -0.204457,0.537757 -0.238107,2.380808 -0.0434,2.376278 0.0728,-0.002 0.835647,-0.11836 1.695291,-0.25926 z m -11.222287,-4.86818 c -0.384057,-0.22364 -1.041854,-1.504564 -1.464101,-2.851035 -0.174927,-0.557827 -0.365227,-1.014224 -0.422887,-1.014224 -0.0577,0 -0.896444,0.642137 -1.863958,1.426961 -2.734225,2.217958 -3.300042,2.394988 -4.036509,1.262954 -0.626757,-0.963394 -0.864054,-2.014798 -0.636947,-2.822215 0.25151,-0.894204 0.41384,-1.073804 1.944201,-2.151048 1.519191,-1.069374 3.262452,-2.700755 3.629329,-3.396409 0.337227,-0.639417 0.316877,-0.993864 -0.10191,-1.775251 -0.249927,-0.466307 -0.288587,-0.664547 -0.1323,-0.678367 1.165374,-0.103037 3.004685,0.729827 3.684609,1.668441 0.590197,0.814737 0.616647,1.263994 0.15218,2.584395 -0.461297,1.311354 -0.426457,1.593361 0.26808,2.170058 0.588374,0.488557 0.602234,0.490827 1.177881,0.1933 0.986224,-0.509757 2.661255,-1.821421 6.486154,-5.079113 0.540657,-0.460487 0.486597,-0.383437 -1.781751,2.539368 -2.425095,3.124782 -2.909972,3.817086 -4.104386,5.860147 -1.263711,2.161595 -1.865268,2.604975 -2.797685,2.062038 z"
       style="fill:#000000;stroke-width:0.176389" />
  </g>
</svg>
