<?xml version="1.0" encoding="UTF-8" standalone="no"?>
<svg
   xmlns:dc="http://purl.org/dc/elements/1.1/"
   xmlns:cc="http://creativecommons.org/ns#"
   xmlns:rdf="http://www.w3.org/1999/02/22-rdf-syntax-ns#"
   xmlns:svg="http://www.w3.org/2000/svg"
   xmlns="http://www.w3.org/2000/svg"
   xmlns:sodipodi="http://sodipodi.sourceforge.net/DTD/sodipodi-0.dtd"
   xmlns:inkscape="http://www.inkscape.org/namespaces/inkscape"
   width="256"
   height="256"
   viewBox="0 0 67.73333 67.733335"
   version="1.1"
   id="svg8"
   inkscape:version="1.0beta1 (32d4812, 2019-09-19)"
   sodipodi:docname="icon.svg"
   inkscape:export-filename="/Users/alex/Documents/code/chinesenotes.com/web-resources/images/icon512.png"
   inkscape:export-xdpi="192.00002"
   inkscape:export-ydpi="192.00002">
  <defs
     id="defs2">
    <rect
       x="58.208332"
       y="103.56548"
       width="83.910713"
       height="70.303574"
       id="rect835" />
  </defs>
  <sodipodi:namedview
     units="px"
     id="base"
     pagecolor="#ffffff"
     bordercolor="#666666"
     borderopacity="1.0"
     inkscape:pageopacity="0.0"
     inkscape:pageshadow="2"
     inkscape:zoom="1"
     inkscape:cx="195.45536"
     inkscape:cy="86.199416"
     inkscape:document-units="mm"
     inkscape:current-layer="layer4"
     inkscape:document-rotation="0"
     showgrid="false"
     inkscape:window-width="1440"
     inkscape:window-height="763"
     inkscape:window-x="0"
     inkscape:window-y="25"
     inkscape:window-maximized="0" />
  <metadata
     id="metadata5">
    <rdf:RDF>
      <cc:Work
         rdf:about="">
        <dc:format>image/svg+xml</dc:format>
        <dc:type
           rdf:resource="http://purl.org/dc/dcmitype/StillImage" />
        <dc:title></dc:title>
      </cc:Work>
    </rdf:RDF>
  </metadata>
  <g
     inkscape:label="bae"
     id="layer4"
     inkscape:groupmode="layer">
    <circle
       r="33.866665"
       cy="33.866665"
       cx="33.866665"
       id="path919"
       style="fill:#ffffff;stroke-width:0.641927" />
  </g>
  <g
     inkscape:label="text"
     id="layer3"
     inkscape:groupmode="layer" />
  <g
     inkscape:label="dark"
     id="layer1"
     inkscape:groupmode="layer">
    <g
       transform="matrix(1.1972281,0,0,1.1818182,-6.4323627,-6.8469831)"
       id="g862">
      <path
         style="fill:#b3b3b3;stroke-width:0.195336"
         d="m 33.773549,63.524539 c -0.720716,-0.78859 -1.287834,-5.426882 -1.306608,-10.68645 l -0.0066,-1.801695 -0.539821,0.121186 c -2.816043,0.632184 -7.414315,2.141886 -8.556765,2.809356 -1.280003,0.747827 -2.404202,0.990052 -3.25223,0.70075 -1.029407,-0.351192 -2.089172,-1.19469 -2.382746,-1.896488 -0.382841,-0.915215 0.269303,-1.420642 2.752697,-2.133389 4.659467,-1.337288 9.949432,-3.66822 11.181469,-4.926915 0.369817,-0.377835 0.623919,-0.734989 0.564649,-0.793669 -0.174088,-0.172381 -1.897458,0.270736 -3.455509,0.888506 -1.001716,0.397186 -1.784365,0.573008 -2.5506,0.573008 -1.102688,0 -1.108553,-0.0033 -2.358162,-1.271333 -1.452964,-1.47456 -1.427601,-1.644982 0.301099,-2.023368 2.910201,-0.636989 6.141622,-1.925536 7.657942,-3.053645 0.472837,-0.351776 0.637977,-0.62641 0.637977,-1.060976 0,-0.468642 -0.069,-0.56536 -0.343523,-0.481832 -0.188941,0.05741 -1.403528,0.374918 -2.6991,0.705433 -2.581941,0.658688 -3.446194,0.653509 -4.913548,-0.02942 -0.974796,-0.453729 -2.343306,-1.791567 -2.202994,-2.153633 0.05954,-0.153628 1.097345,-0.477003 2.529111,-0.788039 1.335487,-0.290128 3.620659,-0.862838 5.078173,-1.272686 l 2.650025,-0.745182 0.171257,-1.307557 c 0.09415,-0.719153 0.136851,-1.341629 0.09481,-1.383295 -0.122193,-0.120984 -4.45926,0.7913 -7.288995,1.53321 -2.544353,0.667095 -3.980738,1.12985 -7.868784,2.535061 -4.000803,1.445966 -5.974714,1.327072 -8.0261137,-0.483417 -1.1380564,-1.004399 -1.4175741,-1.663098 -0.8832854,-2.081431 0.134959,-0.10568 0.9078794,-0.242316 1.7176041,-0.303675 0.809737,-0.06138 3.45976,-0.547364 5.888946,-1.080039 4.524331,-0.992091 13.575321,-2.786932 15.507544,-3.075186 l 1.07964,-0.161066 0.0591,-1.24017 0.0591,-1.24017 -0.764778,0.121097 c -0.420618,0.06656 -1.463071,0.400922 -2.316551,0.742935 -0.958191,0.383962 -1.889689,0.62068 -2.435129,0.618839 -1.880685,-0.0066 -4.953568,-2.290922 -3.582442,-2.663379 0.188933,-0.05135 0.828388,-0.20216 1.421004,-0.335199 0.592603,-0.133032 1.740952,-0.478615 2.551866,-0.76795 0.810916,-0.289338 2.114823,-0.678633 2.897559,-0.8651 0.782739,-0.186464 1.423162,-0.412967 1.423162,-0.503319 0,-0.09036 -0.349973,-0.442775 -0.77773,-0.783153 -0.892845,-0.710492 -0.838135,-1.108901 0.227161,-1.654407 0.82712,-0.423535 2.099296,-0.284056 3.634424,0.398467 l 1.219039,0.541987 2.418114,-1.157498 c 2.377203,-1.137906 3.879087,-2.177569 3.879087,-2.685243 0,-0.420129 -0.570723,-0.862794 -0.938093,-0.727614 -0.185816,0.06832 -0.794925,0.422532 -1.353575,0.787011 -1.366427,0.891526 -1.683895,0.767597 -2.534151,-0.989236 -1.095834,-2.26424 -0.934767,-2.902508 1.254627,-4.97185 1.858463,-1.7565574 2.114781,-2.8848638 0.878459,-3.8669616 -0.622174,-0.4942486 -0.692296,-0.6243933 -0.475667,-0.8828718 0.139755,-0.1667417 0.742886,-0.4036469 1.340288,-0.5264487 1.54688,-0.3180004 2.617661,0.09995 3.327051,1.2985818 0.464255,0.7844238 0.505033,1.0112675 0.419384,2.3327269 -0.06456,0.9954104 -0.02326,1.4910364 0.129062,1.5489024 0.123147,0.04683 1.148303,-0.178941 2.278112,-0.501633 2.421395,-0.6915917 3.265296,-0.7289387 4.328999,-0.19158 0.881161,0.445133 1.06266,0.742218 0.88401,1.44702 -0.182233,0.719 -0.886626,1.071415 -2.921508,1.461658 -1.665822,0.319463 -3.738881,1.032402 -4.662138,1.603349 -0.325082,0.201024 -0.265121,0.285789 0.619547,0.875735 1.82356,1.216036 2.300458,2.869205 1.132445,3.925574 -0.714052,0.645806 -1.579333,0.902907 -3.981717,1.183076 -0.960911,0.112061 -1.976761,0.327353 -2.25744,0.478425 -0.487503,0.262416 -0.457065,0.275045 0.680923,0.282472 3.107246,0.02028 5.128651,1.584559 5.850072,4.527058 0.150495,0.613859 0.01703,0.599467 3.087327,0.332709 4.366328,-0.379367 7.427253,0.371766 8.668796,2.127277 0.718103,1.015386 0.872648,1.800736 0.426498,2.167353 -0.469467,0.385791 -3.05057,0.334262 -5.188618,-0.103587 -1.040968,-0.213179 -2.966681,-0.378441 -5.119928,-0.439414 l -3.451403,-0.09775 -1.652343,1.209953 c -0.908807,0.665465 -1.683229,1.238638 -1.720956,1.273725 -0.03773,0.03504 0.373145,0.285434 0.913054,0.556346 1.667992,0.836964 2.254975,2.050961 1.461066,3.021809 -0.191325,0.233959 -0.98951,0.630476 -1.795205,0.891798 -1.203347,0.390299 -3.94554,1.888444 -3.94554,2.155562 0,0.04154 0.748596,0.01851 1.663544,-0.05113 1.325615,-0.100942 1.842131,-0.05907 2.542728,0.205859 0.805587,0.304655 2.075273,1.439655 2.075273,1.855145 0,0.494711 -0.99887,0.992575 -3.139086,1.564591 l -0.88167,0.235649 1.13781,1.048699 c 1.517019,1.398228 2.222501,1.719675 4.580819,2.08722 3.146455,0.490359 4.790231,1.180781 5.451888,2.289927 0.408891,0.685419 0.390673,0.984719 -0.09727,1.598985 -0.485422,0.611082 -0.857324,0.632945 -3.371813,0.198222 -1.471769,-0.254445 -2.615555,-0.29102 -6.036254,-0.193032 -2.321224,0.06645 -4.542417,0.172527 -4.935983,0.235635 l -0.715566,0.114739 -0.132674,2.362228 c -0.162213,2.888435 -0.52373,5.443732 -1.194554,8.443611 -0.587908,2.629016 -0.997603,3.204383 -1.719378,2.414628 z m 6.29351,-17.271272 c 2.005011,-0.156306 2.201491,-0.336158 1.634416,-1.496125 -0.229609,-0.469663 -0.595274,-1.013274 -0.812608,-1.208025 -0.38394,-0.344062 -0.426953,-0.338695 -1.516364,0.189241 -1.819566,0.881785 -2.986032,1.816374 -2.986032,2.392445 0,0.485062 0.0237,0.493625 1.030561,0.372593 0.566808,-0.0681 1.759316,-0.180693 2.650027,-0.250129 z M 38.710624,30.850838 c 0.28997,-0.432464 0.284639,-0.435946 -0.574064,-0.375183 l -0.866746,0.06138 -0.06209,0.860946 -0.06209,0.860943 0.636139,-0.485775 c 0.349874,-0.267176 0.767845,-0.682203 0.928835,-0.922279 z m 0.494904,-3.4214 c 1.948248,-0.31619 2.173237,-0.439767 2.480778,-1.362509 0.465882,-1.397798 -0.366377,-2.546029 -1.70613,-2.353887 -1.124868,0.161331 -2.403746,0.83844 -2.613011,1.383469 -0.227536,0.592601 -0.264984,2.62362 -0.0483,2.618628 0.08101,-0.0022 0.929973,-0.130431 1.88665,-0.285701 z M 26.716501,22.064766 C 26.289092,21.818317 25.557046,20.406756 25.087136,18.922962 24.892463,18.308244 24.680683,17.8053 24.616515,17.8053 c -0.0642,0 -0.997632,0.707627 -2.074356,1.572493 -3.042857,2.444161 -3.672542,2.639246 -4.492139,1.391759 -0.697503,-1.061648 -0.961586,-2.220282 -0.708843,-3.110045 0.279899,-0.985401 0.460552,-1.183318 2.163657,-2.370427 1.690672,-1.178437 3.630708,-2.976198 4.038996,-3.742799 0.375293,-0.70463 0.352646,-1.095226 -0.113413,-1.9563037 -0.278137,-0.5138637 -0.321161,-0.7323214 -0.147233,-0.7475514 1.296917,-0.113545 3.343845,0.8042594 4.100517,1.8386001 0.656816,0.897829 0.686253,1.392905 0.169357,2.84797 -0.513366,1.445095 -0.474593,1.755863 0.29834,2.391376 0.654789,0.538383 0.670213,0.540885 1.310838,0.213014 1.097545,-0.561746 2.961649,-2.007183 7.218292,-5.597117 0.601685,-0.507451 0.541522,-0.422543 -1.98287,2.798351 -2.698833,3.443469 -3.238442,4.206379 -4.567678,6.457806 -1.406354,2.38205 -2.075814,2.870649 -3.113479,2.27234 z"
         id="path912"
         inkscape:connector-curvature="0" />
      <path
         inkscape:connector-curvature="0"
         id="path912-4"
         d="m 32.431138,51.213415 -0.539821,0.121187 c -2.816043,0.632185 -7.414315,2.141887 -8.556765,2.809356 -1.280003,0.747827 -2.404202,0.990053 -3.25223,0.700749 -1.029407,-0.351192 -2.089172,-1.194689 -2.382746,-1.896488 -0.382841,-0.915215 0.269303,-1.420641 2.752697,-2.133388 4.659467,-1.337289 9.949432,-3.668221 11.181469,-4.926915 0.369817,-0.377836 0.623919,-0.734989 0.564649,-0.793671 -0.174088,-0.172378 -1.897458,0.270738 -3.455509,0.888508 -1.001716,0.397185 -1.784365,0.573008 -2.5506,0.573008 -1.102688,0 -1.108553,-0.0033 -2.358162,-1.271333 -1.452964,-1.47456 -1.427601,-1.644984 0.301099,-2.02337 10.801122,-3.502573 16.825306,-14.045414 1.371135,-10.037621 -2.544353,0.667097 -3.980738,1.12985 -7.868784,2.535063 -4.000805,1.445966 -5.974716,1.32707 -8.0261157,-0.483418 -1.1380554,-1.004398 -1.4175731,-1.6631 -0.8832844,-2.081433 0.134959,-0.105679 0.9078784,-0.242316 1.7176031,-0.303672 0.809737,-0.06138 3.45976,-0.547365 5.888946,-1.080041 4.524331,-0.992091 13.575321,-2.786932 15.507544,-3.075186 l 1.07964,-0.161066 c 6.25441,-0.967225 6.254423,-0.967225 13.91168,-2.378869 0.15049,0.613859 0.017,0.599467 3.087322,0.332709 4.366326,-0.379367 7.427258,0.371766 8.668802,2.127277 0.718104,1.015386 0.872644,1.800736 0.426497,2.167353 -0.469467,0.385791 -3.050572,0.334262 -5.18862,-0.103587 -1.040964,-0.213179 -2.966685,-0.378441 -5.119933,-0.439414 l -3.451399,-0.09775 c -12.460903,1.508825 -13.057861,14.912842 -6.739924,9.109194 0,0.04154 0.748596,0.01852 1.663544,-0.05113 1.325615,-0.100941 1.842132,-0.05907 2.542728,0.205859 0.805587,0.304654 2.075275,1.439656 2.075275,1.855145 0,0.494712 -0.998871,0.992576 -3.139088,1.564592 l -0.881668,0.235648 1.137808,1.0487 c 1.517018,1.398228 2.222503,1.719676 4.580819,2.087219 3.146452,0.49036 4.790233,1.180782 5.451887,2.289929 0.40889,0.685419 0.39067,0.984718 -0.0973,1.598983 -0.485427,0.611081 -0.857324,0.632947 -3.371819,0.198223 -1.471761,-0.254445 -2.615547,-0.291021 -6.036247,-0.193032 -2.321224,0.06645 -4.542417,0.172527 -4.935982,0.235635 -5.244463,1.10581 -5.075147,0.847047 -5.075147,0.847047 z m 7.606719,-4.783127 c 2.00501,-0.156305 2.201489,-0.336158 1.634416,-1.496124 -0.229611,-0.469664 -0.595276,-1.013274 -0.81261,-1.208026 -0.383939,-0.344062 -0.426953,-0.338693 -1.516364,0.18924 -1.819566,0.881788 -2.986032,1.816376 -2.986032,2.392448 0,0.48506 0.02371,0.493625 1.030563,0.372591 0.566806,-0.0681 1.759315,-0.180692 2.650027,-0.250129 z M 39.176326,27.606459 c 10.744579,-1.078935 -10.083421,1.181821 -1.3e-5,0 z"
         style="fill:#000000;stroke-width:0.195336"
         sodipodi:nodetypes="cscccscccscccsccccccccscscccccsccccccccccscccscsccc" />
    </g>
  </g>
</svg>
