<?xml version="1.0" encoding="UTF-8" standalone="no"?>
<!-- Created with Inkscape (http://www.inkscape.org/) -->

<svg
   xmlns:dc="http://purl.org/dc/elements/1.1/"
   xmlns:cc="http://creativecommons.org/ns#"
   xmlns:rdf="http://www.w3.org/1999/02/22-rdf-syntax-ns#"
   xmlns:svg="http://www.w3.org/2000/svg"
   xmlns="http://www.w3.org/2000/svg"
   xmlns:sodipodi="http://sodipodi.sourceforge.net/DTD/sodipodi-0.dtd"
   xmlns:inkscape="http://www.inkscape.org/namespaces/inkscape"
   width="1000"
   height="1000"
   id="svg3173"
   version="1.1"
   inkscape:version="0.47 r22583"
   sodipodi:docname="chang_horizontal_gap.svg"
   inkscape:export-filename="E:\chinese\images\yan_chang_not_solid.png"
   inkscape:export-xdpi="17.903368"
   inkscape:export-ydpi="17.903368">
  <title
     id="title4408">Chang</title>
  <defs
     id="defs3175">
    <inkscape:perspective
       sodipodi:type="inkscape:persp3d"
       inkscape:vp_x="0 : 526.18109 : 1"
       inkscape:vp_y="0 : 1000 : 0"
       inkscape:vp_z="744.09448 : 526.18109 : 1"
       inkscape:persp3d-origin="372.04724 : 350.78739 : 1"
       id="perspective3181" />
    <inkscape:perspective
       id="perspective3191"
       inkscape:persp3d-origin="0.5 : 0.33333333 : 1"
       inkscape:vp_z="1 : 0.5 : 1"
       inkscape:vp_y="0 : 1000 : 0"
       inkscape:vp_x="0 : 0.5 : 1"
       sodipodi:type="inkscape:persp3d" />
    <inkscape:perspective
       id="perspective4006"
       inkscape:persp3d-origin="0.5 : 0.33333333 : 1"
       inkscape:vp_z="1 : 0.5 : 1"
       inkscape:vp_y="0 : 1000 : 0"
       inkscape:vp_x="0 : 0.5 : 1"
       sodipodi:type="inkscape:persp3d" />
    <inkscape:perspective
       id="perspective4034"
       inkscape:persp3d-origin="0.5 : 0.33333333 : 1"
       inkscape:vp_z="1 : 0.5 : 1"
       inkscape:vp_y="0 : 1000 : 0"
       inkscape:vp_x="0 : 0.5 : 1"
       sodipodi:type="inkscape:persp3d" />
    <inkscape:perspective
       id="perspective4081"
       inkscape:persp3d-origin="0.5 : 0.33333333 : 1"
       inkscape:vp_z="1 : 0.5 : 1"
       inkscape:vp_y="0 : 1000 : 0"
       inkscape:vp_x="0 : 0.5 : 1"
       sodipodi:type="inkscape:persp3d" />
    <inkscape:perspective
       id="perspective4147"
       inkscape:persp3d-origin="0.5 : 0.33333333 : 1"
       inkscape:vp_z="1 : 0.5 : 1"
       inkscape:vp_y="0 : 1000 : 0"
       inkscape:vp_x="0 : 0.5 : 1"
       sodipodi:type="inkscape:persp3d" />
    <inkscape:perspective
       id="perspective3858"
       inkscape:persp3d-origin="0.5 : 0.33333333 : 1"
       inkscape:vp_z="1 : 0.5 : 1"
       inkscape:vp_y="0 : 1000 : 0"
       inkscape:vp_x="0 : 0.5 : 1"
       sodipodi:type="inkscape:persp3d" />
    <inkscape:perspective
       id="perspective3876"
       inkscape:persp3d-origin="0.5 : 0.33333333 : 1"
       inkscape:vp_z="1 : 0.5 : 1"
       inkscape:vp_y="0 : 1000 : 0"
       inkscape:vp_x="0 : 0.5 : 1"
       sodipodi:type="inkscape:persp3d" />
    <inkscape:perspective
       id="perspective3901"
       inkscape:persp3d-origin="0.5 : 0.33333333 : 1"
       inkscape:vp_z="1 : 0.5 : 1"
       inkscape:vp_y="0 : 1000 : 0"
       inkscape:vp_x="0 : 0.5 : 1"
       sodipodi:type="inkscape:persp3d" />
    <inkscape:perspective
       id="perspective5282"
       inkscape:persp3d-origin="0.5 : 0.33333333 : 1"
       inkscape:vp_z="1 : 0.5 : 1"
       inkscape:vp_y="0 : 1000 : 0"
       inkscape:vp_x="0 : 0.5 : 1"
       sodipodi:type="inkscape:persp3d" />
    <inkscape:perspective
       id="perspective3615"
       inkscape:persp3d-origin="0.5 : 0.33333333 : 1"
       inkscape:vp_z="1 : 0.5 : 1"
       inkscape:vp_y="0 : 1000 : 0"
       inkscape:vp_x="0 : 0.5 : 1"
       sodipodi:type="inkscape:persp3d" />
    <inkscape:perspective
       id="perspective3615-7"
       inkscape:persp3d-origin="0.5 : 0.33333333 : 1"
       inkscape:vp_z="1 : 0.5 : 1"
       inkscape:vp_y="0 : 1000 : 0"
       inkscape:vp_x="0 : 0.5 : 1"
       sodipodi:type="inkscape:persp3d" />
    <inkscape:perspective
       id="perspective3615-0"
       inkscape:persp3d-origin="0.5 : 0.33333333 : 1"
       inkscape:vp_z="1 : 0.5 : 1"
       inkscape:vp_y="0 : 1000 : 0"
       inkscape:vp_x="0 : 0.5 : 1"
       sodipodi:type="inkscape:persp3d" />
    <inkscape:perspective
       id="perspective3659"
       inkscape:persp3d-origin="0.5 : 0.33333333 : 1"
       inkscape:vp_z="1 : 0.5 : 1"
       inkscape:vp_y="0 : 1000 : 0"
       inkscape:vp_x="0 : 0.5 : 1"
       sodipodi:type="inkscape:persp3d" />
  </defs>
  <sodipodi:namedview
     id="base"
     pagecolor="#ffffff"
     bordercolor="#666666"
     borderopacity="1.0"
     inkscape:pageopacity="0.0"
     inkscape:pageshadow="2"
     inkscape:zoom="0.49497475"
     inkscape:cx="223.92826"
     inkscape:cy="625.19944"
     inkscape:document-units="px"
     inkscape:current-layer="layer1"
     showgrid="false"
     inkscape:window-width="1440"
     inkscape:window-height="840"
     inkscape:window-x="-4"
     inkscape:window-y="-4"
     inkscape:window-maximized="1" />
  <metadata
     id="metadata3178">
    <rdf:RDF>
      <cc:Work
         rdf:about="">
        <dc:format>image/svg+xml</dc:format>
        <dc:type
           rdf:resource="http://purl.org/dc/dcmitype/StillImage" />
        <dc:title>Chang</dc:title>
        <dc:date>2010-07-13</dc:date>
        <dc:creator>
          <cc:Agent>
            <dc:title>Alex Amies</dc:title>
          </cc:Agent>
        </dc:creator>
        <dc:rights>
          <cc:Agent>
            <dc:title>@ Alex Amies 2010</dc:title>
          </cc:Agent>
        </dc:rights>
        <dc:publisher>
          <cc:Agent>
            <dc:title>chinesenotes.com</dc:title>
          </cc:Agent>
        </dc:publisher>
        <dc:source>Yan Qin Ceremonial Inscription</dc:source>
        <dc:language>Chinese 中文</dc:language>
        <dc:description>Tracing from Tang Dynasty Ceremonial Inscription by Yan Zhenqing 颜真卿 (709－785)</dc:description>
        <cc:license
           rdf:resource="http://creativecommons.org/licenses/by/3.0/" />
      </cc:Work>
      <cc:License
         rdf:about="http://creativecommons.org/licenses/by/3.0/">
        <cc:permits
           rdf:resource="http://creativecommons.org/ns#Reproduction" />
        <cc:permits
           rdf:resource="http://creativecommons.org/ns#Distribution" />
        <cc:requires
           rdf:resource="http://creativecommons.org/ns#Notice" />
        <cc:requires
           rdf:resource="http://creativecommons.org/ns#Attribution" />
        <cc:permits
           rdf:resource="http://creativecommons.org/ns#DerivativeWorks" />
      </cc:License>
    </rdf:RDF>
  </metadata>
  <g
     inkscape:label="Layer 1"
     inkscape:groupmode="layer"
     id="layer1"
     transform="translate(0,-52.362183)">
    <path
       style="fill:none;stroke:#000000;stroke-width:4.76239491px;stroke-linecap:butt;stroke-linejoin:miter;stroke-opacity:1"
       d="m 217.00683,166.67314 0,0 z"
       id="path3846" />
    <g
       transform="matrix(4.762395,0,0,4.762395,-2361.49,-4023.578)"
       id="g3885"
       style="fill:#000000;fill-opacity:1">
      <path
         sodipodi:nodetypes="cccccccccccccc"
         id="path3848"
         d="m 543.57143,888.79075 c 2.37415,6.71451 4.99406,13.35901 7.2116,20.11835 1.40566,9.72245 3.16845,18.01634 4.57411,27.7388 1.50446,4.43252 4.37923,8.01997 5.5856,11.92137 0.70009,2.41394 3.34987,4.21161 5.72942,4.43352 1.22833,-0.0945 2.45665,-0.18897 3.68498,-0.28346 0.83333,-1.54762 1.66667,-3.09524 2.5,-4.64286 -1.64582,-3.48433 -3.08728,-7.06279 -3.82928,-10.85786 -3.70792,-14.32697 -7.23247,-28.70478 -11.35485,-42.92002 -0.37723,-2.31652 -0.0768,-4.71937 -0.17301,-7.07169 -1.24812,-1.52648 -3.31711,-2.73725 -5.36693,-3.11655 -3.14319,-0.93752 -6.25543,-1.98364 -9.43457,-2.79694 -1.95092,-0.2364 -2.59092,0.73484 -1.48706,2.23294 0.78666,1.74813 1.57333,3.49627 2.35999,5.2444 z"
         style="fill:none;fill-opacity:1;stroke:#000000;stroke-width:1px;stroke-linecap:butt;stroke-linejoin:miter;stroke-opacity:1" />
      <path
         id="path3850"
         d="m 576.78572,877.71933 c -6.99664,-0.0786 -7.44573,10.77205 -7.30598,16.20076 4.83752,5.18467 10.33674,-0.12057 15.0134,-2.34997 5.91273,-4.04709 13.15332,-4.52935 19.90461,-6.2953 6.45279,-1.29192 13.09542,-3.44501 19.68212,-2.47818 0.72791,2.46224 -0.96727,5.26382 -1.28703,7.86967 -4.02618,16.51767 -8.05237,33.03535 -12.07855,49.55302 1.33542,5.49079 6.05955,10.28068 11.92955,9.85384 5.46763,0.61209 9.08587,-5.04608 9.95438,-9.84122 5.57532,-17.85606 10.54195,-35.91157 16.6875,-53.58405 -0.87039,-5.29674 -4.30881,-9.16489 -7.98972,-12.80293 -3.37489,-3.70428 -8.66582,-6.11349 -13.62802,-6.48279 -2.46369,-0.48024 -4.21467,0.23274 -4.87485,2.77195 -2.85132,4.67861 -10.83776,2.10765 -15.55806,4.16158 -8.55027,1.15186 -17.06383,3.11067 -25.65067,3.69021 -1.59956,-0.0889 -3.19912,-0.17773 -4.79868,-0.26659 z"
         style="fill:none;fill-opacity:1;stroke:#000000;stroke-width:1px;stroke-linecap:butt;stroke-linejoin:miter;stroke-opacity:1" />
      <path
         id="path3852"
         d="m 563.92857,912.36218 c -1.07191,1.1163 -2.20462,2.79587 -1.78571,4.28572 12.28971,1.98469 25.09753,-0.43063 35.65711,-2.42872 3.62988,-0.79462 7.57901,-3.66029 7.91432,-7.21414 0.16774,-1.77782 -1.57658,-3.5739 -3.21429,-4.28571 -7.13778,-3.10237 -14.2163,-1.3856 -23.21428,2.5 -5.18306,2.2382 -11.44684,3.07062 -15.35715,7.14285 z"
         style="fill:#000000;fill-opacity:1;stroke:#000000;stroke-width:1px;stroke-linecap:butt;stroke-linejoin:miter;stroke-opacity:1"
         sodipodi:nodetypes="cccaasa" />
      <path
         id="path3854"
         d="m 567.14286,938.43361 c -0.35714,1.66667 -0.71429,3.33333 -1.07143,5 2.2939,2.22009 5.45054,3.09643 8.37986,4.10854 1.93616,0.29082 3.88508,-0.16179 5.82818,-0.2238 7.64494,-0.58062 15.28988,-1.16125 22.93482,-1.74188 2.2619,-1.19048 4.52381,-2.38095 6.78571,-3.57143 -0.11905,-3.09524 -0.23809,-6.19047 -0.35714,-9.28571 -1.42857,-0.83333 -2.85715,-1.66667 -4.28572,-2.5 -11.66667,1.90476 -23.33333,3.80952 -35,5.71428 -1.07143,0.83333 -2.14285,1.66667 -3.21428,2.5 z"
         style="fill:#000000;fill-opacity:1;stroke:#000000;stroke-width:1px;stroke-linecap:butt;stroke-linejoin:miter;stroke-opacity:1" />
      <path
         id="path3856"
         d="m 533.92857,957.71933 c -1.83707,4.5613 0.87335,9.01756 3.01147,12.90433 3.12602,16.00922 5.65378,32.19484 8.54628,48.27254 1.27413,7.9828 3.11804,15.898 3.55897,23.9787 1.75565,2.6673 5.42478,7.6137 8.72495,4.7833 1.57659,-1.051 3.15317,-2.1021 4.72976,-3.1532 1.45315,-5.2493 1.06335,-10.7082 -0.66344,-15.8359 -3.58609,-13.7526 -6.32898,-27.7627 -11.37191,-41.08891 -1.57185,-4.72392 -3.94835,-9.7753 -1.93084,-14.74802 4.56597,-5.48945 -2.89713,-12.2294 -8.26497,-14.37798 -1.92891,-0.81976 -4.26499,-0.44418 -6.34027,-0.73486 z"
         style="fill:none;fill-opacity:1;stroke:#000000;stroke-width:1px;stroke-linecap:butt;stroke-linejoin:miter;stroke-opacity:1" />
      <path
         id="path3858"
         d="m 572.14286,974.86218 c -1.30952,1.19048 -2.61905,2.38095 -3.92857,3.57143 0.0311,3.012 -0.68633,6.4006 1.97205,8.49857 1.46358,1.57319 2.39857,4.08034 5.01426,3.56326 5.0731,1.63634 8.66957,-3.27073 13.01287,-5.01096 10.57424,-4.78976 21.2881,-9.29467 31.96295,-13.86545 9.33635,-1.47759 18.63542,-3.23429 28.03787,-4.25685 0.47619,-1.54762 0.95238,-3.09523 1.42857,-4.64285 -1.88741,-4.34722 -6.82133,-5.79948 -11.21796,-4.99966 -10.47556,1.49506 -21.09492,2.25722 -31.30155,5.20613 -9.0309,1.99176 -17.5053,5.7921 -26.23343,8.76557 -2.91568,1.05694 -5.83137,2.11387 -8.74706,3.17081 z"
         style="fill:#000000;fill-opacity:1;stroke:#000000;stroke-width:1px;stroke-linecap:butt;stroke-linejoin:miter;stroke-opacity:1" />
      <path
         id="path3860"
         d="m 557.85714,1006.2908 c -1.19047,1.0714 -2.38095,2.1428 -3.57142,3.2142 -0.13884,3.5078 2.08107,6.6438 5.90443,5.1832 7.31301,-0.4598 14.69409,-0.3403 21.95952,-1.2441 7.90296,-1.6296 15.93093,-2.7817 23.75115,-4.7382 3.98544,-1.4003 7.97088,-2.8006 11.95632,-4.2009 0.83333,-1.3095 1.66667,-2.619 2.5,-3.9285 -2.40722,-3.73834 -6.97811,-3.57655 -10.85136,-4.61375 -3.72005,-1.44915 -7.43869,0.28148 -11.15043,0.86796 -12.30353,2.69002 -24.68819,4.97999 -37.04713,7.38939 -1.15037,0.6902 -2.30071,1.3805 -3.45108,2.0707 z"
         style="fill:#000000;fill-opacity:1;stroke:#000000;stroke-width:1px;stroke-linecap:butt;stroke-linejoin:miter;stroke-opacity:1" />
      <path
         id="path3862"
         d="m 554.28572,1039.8622 c -1.94735,3.8285 -0.27076,7.8923 3.8323,9.1874 3.46709,1.6582 7.24782,-0.461 10.8453,-0.6571 14.54029,-2.3169 28.98841,-5.6262 43.72641,-6.3211 4.09944,-0.017 8.32766,1.0189 12.3548,0.2928 2.24706,-0.715 4.49413,-1.4299 6.74119,-2.1449 1.2982,-5.161 -1.20762,-11.6744 -6.39978,-13.1869 -5.69998,-2.3004 -11.62948,0.9094 -17.43985,1.3634 -18.06461,2.9708 -35.77473,7.6238 -53.66037,11.4664 z"
         style="fill:#000000;fill-opacity:1;stroke:#000000;stroke-width:1px;stroke-linecap:butt;stroke-linejoin:miter;stroke-opacity:1" />
      <path
         id="path3864"
         d="m 647.5,940.93361 c -5.67614,2.80006 -1.83267,9.8723 -2.97549,14.86377 -0.47407,7.83406 -0.002,15.75004 -1.04544,23.52485 -3.93758,13.69743 -6.68302,27.76327 -11.16748,41.28607 -3.69657,10.1498 -9.08819,19.985 -9.77694,30.9463 3.99563,3.0123 11.31025,1.7177 15.83929,2.0194 3.66986,-4.254 8.44368,-7.8437 9.86155,-13.5535 3.47009,-7.9339 6.95945,-15.8887 8.36826,-24.49 3.984,-17.21226 8.02643,-34.41101 11.98413,-51.62939 1.22287,-3.90791 -0.62458,-7.2332 -2.6147,-10.399 -1.27676,-2.28474 -2.55353,-4.56947 -3.83029,-6.85421 -4.7885,-2.20524 -9.22534,-5.44632 -14.64289,-5.71429 z"
         style="fill:none;fill-opacity:1;stroke:#000000;stroke-width:1px;stroke-linecap:butt;stroke-linejoin:miter;stroke-opacity:1" />
      <text
         xml:space="preserve"
         style="font-size:11.75878906px;font-style:normal;font-variant:normal;font-weight:normal;font-stretch:normal;fill:#000000;fill-opacity:1;stroke:none;font-family:Arial;-inkscape-font-specification:Arial"
         x="532.76904"
         y="870.27209"
         id="text3647"><tspan
           sodipodi:role="line"
           id="tspan3649"
           x="532.76904"
           y="870.27209">gap</tspan></text>
      <text
         xml:space="preserve"
         style="font-size:11.75878906px;font-style:normal;font-variant:normal;font-weight:normal;font-stretch:normal;fill:#000000;fill-opacity:1;stroke:none;font-family:Arial;-inkscape-font-specification:Arial"
         x="553.54358"
         y="963.78406"
         id="text3647-4"><tspan
           sodipodi:role="line"
           id="tspan3649-8"
           x="553.54358"
           y="963.78406">gap</tspan></text>
    </g>
    <path
       sodipodi:type="arc"
       style="fill:none;fill-rule:evenodd;stroke:#ff0000;stroke-width:4;stroke-linecap:butt;stroke-linejoin:miter;stroke-opacity:1;stroke-miterlimit:4;stroke-dasharray:none"
       id="path2833"
       sodipodi:cx="318.19806"
       sodipodi:cy="158.54294"
       sodipodi:rx="71.720833"
       sodipodi:ry="71.720833"
       d="m 389.91889,158.54294 a 71.720833,71.720833 0 1 1 -143.44166,0 71.720833,71.720833 0 1 1 143.44166,0 z"
       transform="translate(0,52.362183)" />
    <path
       transform="translate(225.26401,128.12362)"
       sodipodi:type="arc"
       style="fill:none;stroke:#ff0000;stroke-width:4;stroke-linecap:butt;stroke-linejoin:miter;stroke-miterlimit:4;stroke-opacity:1;stroke-dasharray:none"
       id="path2833-1"
       sodipodi:cx="318.19806"
       sodipodi:cy="158.54294"
       sodipodi:rx="71.720833"
       sodipodi:ry="71.720833"
       d="m 389.91889,158.54294 a 71.720833,71.720833 0 1 1 -143.44166,0 71.720833,71.720833 0 1 1 143.44166,0 z" />
    <path
       transform="translate(-9.0913826,503.90036)"
       sodipodi:type="arc"
       style="fill:none;stroke:#ff0000;stroke-width:4;stroke-linecap:butt;stroke-linejoin:miter;stroke-miterlimit:4;stroke-opacity:1;stroke-dasharray:none"
       id="path2833-4"
       sodipodi:cx="318.19806"
       sodipodi:cy="158.54294"
       sodipodi:rx="71.720833"
       sodipodi:ry="71.720833"
       d="m 389.91889,158.54294 a 71.720833,71.720833 0 1 1 -143.44166,0 71.720833,71.720833 0 1 1 143.44166,0 z" />
    <path
       transform="translate(302.0356,572.59074)"
       sodipodi:type="arc"
       style="fill:none;stroke:#ff0000;stroke-width:4;stroke-linecap:butt;stroke-linejoin:miter;stroke-miterlimit:4;stroke-opacity:1;stroke-dasharray:none"
       id="path2833-9"
       sodipodi:cx="318.19806"
       sodipodi:cy="158.54294"
       sodipodi:rx="71.720833"
       sodipodi:ry="71.720833"
       d="m 389.91889,158.54294 a 71.720833,71.720833 0 1 1 -143.44166,0 71.720833,71.720833 0 1 1 143.44166,0 z" />
  </g>
</svg>
