<?xml version="1.0" encoding="UTF-8" standalone="no"?>
<!-- Created with Inkscape (http://www.inkscape.org/) -->

<svg
   xmlns:dc="http://purl.org/dc/elements/1.1/"
   xmlns:cc="http://creativecommons.org/ns#"
   xmlns:rdf="http://www.w3.org/1999/02/22-rdf-syntax-ns#"
   xmlns:svg="http://www.w3.org/2000/svg"
   xmlns="http://www.w3.org/2000/svg"
   xmlns:sodipodi="http://sodipodi.sourceforge.net/DTD/sodipodi-0.dtd"
   xmlns:inkscape="http://www.inkscape.org/namespaces/inkscape"
   width="1000"
   height="1000"
   id="svg3173"
   version="1.1"
   inkscape:version="0.47 r22583"
   sodipodi:docname="guo_with_leftright.svg"
   inkscape:export-filename="E:\chinese\images\guo_with_leftright.png"
   inkscape:export-xdpi="17.872889"
   inkscape:export-ydpi="17.872889">
  <title
     id="title2821">Guo</title>
  <defs
     id="defs3175">
    <inkscape:perspective
       sodipodi:type="inkscape:persp3d"
       inkscape:vp_x="0 : 526.18109 : 1"
       inkscape:vp_y="0 : 1000 : 0"
       inkscape:vp_z="744.09448 : 526.18109 : 1"
       inkscape:persp3d-origin="372.04724 : 350.78739 : 1"
       id="perspective3181" />
    <inkscape:perspective
       id="perspective3191"
       inkscape:persp3d-origin="0.5 : 0.33333333 : 1"
       inkscape:vp_z="1 : 0.5 : 1"
       inkscape:vp_y="0 : 1000 : 0"
       inkscape:vp_x="0 : 0.5 : 1"
       sodipodi:type="inkscape:persp3d" />
    <inkscape:perspective
       id="perspective4006"
       inkscape:persp3d-origin="0.5 : 0.33333333 : 1"
       inkscape:vp_z="1 : 0.5 : 1"
       inkscape:vp_y="0 : 1000 : 0"
       inkscape:vp_x="0 : 0.5 : 1"
       sodipodi:type="inkscape:persp3d" />
    <inkscape:perspective
       id="perspective4034"
       inkscape:persp3d-origin="0.5 : 0.33333333 : 1"
       inkscape:vp_z="1 : 0.5 : 1"
       inkscape:vp_y="0 : 1000 : 0"
       inkscape:vp_x="0 : 0.5 : 1"
       sodipodi:type="inkscape:persp3d" />
    <inkscape:perspective
       id="perspective4081"
       inkscape:persp3d-origin="0.5 : 0.33333333 : 1"
       inkscape:vp_z="1 : 0.5 : 1"
       inkscape:vp_y="0 : 1000 : 0"
       inkscape:vp_x="0 : 0.5 : 1"
       sodipodi:type="inkscape:persp3d" />
    <inkscape:perspective
       id="perspective4147"
       inkscape:persp3d-origin="0.5 : 0.33333333 : 1"
       inkscape:vp_z="1 : 0.5 : 1"
       inkscape:vp_y="0 : 1000 : 0"
       inkscape:vp_x="0 : 0.5 : 1"
       sodipodi:type="inkscape:persp3d" />
    <inkscape:perspective
       id="perspective3774"
       inkscape:persp3d-origin="0.5 : 0.33333333 : 1"
       inkscape:vp_z="1 : 0.5 : 1"
       inkscape:vp_y="0 : 1000 : 0"
       inkscape:vp_x="0 : 0.5 : 1"
       sodipodi:type="inkscape:persp3d" />
  </defs>
  <sodipodi:namedview
     id="base"
     pagecolor="#ffffff"
     bordercolor="#666666"
     borderopacity="1.0"
     inkscape:pageopacity="0.0"
     inkscape:pageshadow="2"
     inkscape:zoom="0.49497475"
     inkscape:cx="415.17244"
     inkscape:cy="513.18635"
     inkscape:document-units="px"
     inkscape:current-layer="layer1"
     showgrid="false"
     inkscape:window-width="1440"
     inkscape:window-height="840"
     inkscape:window-x="-4"
     inkscape:window-y="-4"
     inkscape:window-maximized="1" />
  <metadata
     id="metadata3178">
    <rdf:RDF>
      <cc:Work
         rdf:about="">
        <dc:format>image/svg+xml</dc:format>
        <dc:type
           rdf:resource="http://purl.org/dc/dcmitype/StillImage" />
        <dc:title>Guo</dc:title>
        <dc:date>2010-07-18</dc:date>
        <dc:creator>
          <cc:Agent>
            <dc:title>Alex Amies</dc:title>
          </cc:Agent>
        </dc:creator>
        <dc:rights>
          <cc:Agent>
            <dc:title>@ Alex Amies 2010</dc:title>
          </cc:Agent>
        </dc:rights>
        <dc:publisher>
          <cc:Agent>
            <dc:title>chinesenotes.com</dc:title>
          </cc:Agent>
        </dc:publisher>
        <dc:source>Yan Qin Ceremonial Inscription</dc:source>
        <dc:language>Chinese 中文</dc:language>
        <dc:description>Tracing from Tang Dynasty Ceremonial Inscription by Yan Zhenqing 颜真卿 (709－785)</dc:description>
        <cc:license
           rdf:resource="http://creativecommons.org/licenses/by/3.0/" />
      </cc:Work>
      <cc:License
         rdf:about="http://creativecommons.org/licenses/by/3.0/">
        <cc:permits
           rdf:resource="http://creativecommons.org/ns#Reproduction" />
        <cc:permits
           rdf:resource="http://creativecommons.org/ns#Distribution" />
        <cc:requires
           rdf:resource="http://creativecommons.org/ns#Notice" />
        <cc:requires
           rdf:resource="http://creativecommons.org/ns#Attribution" />
        <cc:permits
           rdf:resource="http://creativecommons.org/ns#DerivativeWorks" />
      </cc:License>
    </rdf:RDF>
  </metadata>
  <g
     inkscape:label="Layer 1"
     inkscape:groupmode="layer"
     id="layer1"
     transform="translate(0,-52.362183)">
    <path
       style="fill:none;stroke:#000000;stroke-width:4.7705164px;stroke-linecap:butt;stroke-linejoin:miter;stroke-opacity:1"
       d="m 274.34092,430.74447 -5.11128,13.63003"
       id="path4236" />
    <g
       transform="matrix(4.7705163,0,0,4.7705163,-487.23792,-1989.6351)"
       id="g4277"
       style="fill:#000000;fill-opacity:1">
      <path
         id="path4226"
         d="m 164.64286,439.50504 c 3.40121,8.07241 7.88489,14.27294 14.28571,20 7.02159,-1.73943 7.63524,-9.78621 7.85714,-16.07143 -4.93363,-5.45514 -9.58735,-9.72831 -16.42857,-12.14286 -3.83519,2.60369 -5.33944,3.71613 -5.71428,8.21429 z"
         style="fill:#000000;fill-opacity:1;stroke:#000000;stroke-width:1px;stroke-linecap:butt;stroke-linejoin:miter;stroke-opacity:1"
         sodipodi:nodetypes="ccccc" />
      <path
         id="path4228"
         d="m 133.21429,465.21932 c -1.5444,2.5854 -1.03397,7.11738 2.79846,6.88664 2.99225,1.36376 5.6687,-0.458 8.36798,-1.5652 17.43943,-8.90049 36.8298,-11.69351 55.80612,-15.67858 3.7363,-0.0966 7.50158,-0.0869 11.10233,1.05735 2.03437,0.80303 4.07854,0.7598 5.92726,-0.37459 6.76734,-3.31287 -0.90373,-9.00003 -4.00215,-11.75419 -2.83785,0.29634 -5.98981,-0.70169 -8.57941,0.7315 -2.93448,1.88477 -6.19374,3.10105 -9.62531,3.70545 -13.56297,3.38367 -27.21526,6.44786 -40.71218,10.07371 -7.02769,2.30597 -14.05544,4.61191 -21.0831,6.91791 z"
         style="fill:#000000;fill-opacity:1;stroke:#000000;stroke-width:1px;stroke-linecap:butt;stroke-linejoin:miter;stroke-opacity:1"
         sodipodi:nodetypes="ccccccccccc" />
      <path
         id="path4230"
         d="m 149.28571,470.93361 c 0.76013,2.65289 1.72575,5.29709 1.57097,8.10363 0.38255,20.03199 0.21475,40.07428 0.21475,60.11066 0.59524,1.30952 1.19047,2.61905 1.78571,3.92857 2.78148,-0.92991 2.45472,-4.29662 3.28392,-6.60573 4.24578,-15.2939 5.33281,-30.87326 5.93703,-46.64995 -0.0635,-8.15857 -1.07031,-13.90828 -8.01913,-18.74196 -1.97393,-1.75285 -2.65332,-1.35661 -4.77325,-0.14522 z"
         style="fill:#000000;fill-opacity:1;stroke:#000000;stroke-width:1px;stroke-linecap:butt;stroke-linejoin:miter;stroke-opacity:1"
         sodipodi:nodetypes="cccccccc" />
      <path
         id="path4232"
         d="m 193.21429,458.07647 c -2.33806,1.38627 -4.05269,3.38142 -4.58703,6.08707 -1.51803,20.75373 -3.0779,41.5078 -4.34155,62.27922 0,1.02076 0,2.04152 0,3.06228 4.49325,2.73251 10.76965,-0.33441 12.04719,-5.24122 2.18998,-12.30703 5.32224,-24.53274 6.86944,-36.95189 -0.11506,-7.3642 -0.23013,-14.72841 -0.3452,-22.09261 -2.3055,-5.78326 -3.77978,-6.79796 -9.64285,-7.14285 z"
         style="fill:#000000;fill-opacity:1;stroke:#000000;stroke-width:1px;stroke-linecap:butt;stroke-linejoin:miter;stroke-opacity:1"
         sodipodi:nodetypes="cccccccc" />
      <path
         id="path4234"
         d="m 159.64286,480.93361 c -0.2381,1.07143 -0.47619,2.14286 -0.71429,3.21429 1.01154,2.18503 3.20268,2.64109 5.3686,2.20177 9.17327,-3.21391 19.53094,-3.55734 27.48854,-9.34468 -0.4656,-1.23901 -0.606,-2.65616 -1.28322,-3.78323 -3.87279,-3.26582 -12.03247,0.12865 -16.93106,0.92609 -4.64286,2.2619 -9.28571,4.52381 -13.92857,6.78571 l 0,5e-5 z"
         style="fill:#000000;fill-opacity:1;stroke:#000000;stroke-width:1px;stroke-linecap:butt;stroke-linejoin:miter;stroke-opacity:1"
         sodipodi:nodetypes="cccccccc" />
      <path
         id="path4238"
         d="m 176.26156,510.8721 c 3.98425,-1.28902 7.96849,-2.57804 11.95273,-3.86706 0,-1.54762 0,-3.09524 0,-4.64286 -4.73899,-3.75045 -9.30153,-2.29639 -14.89563,-1.34432 -5.4317,1.40686 -10.10101,3.19221 -14.39009,6.70146 0,1.19048 0,2.38095 0,3.57143 5.69956,1.75112 11.54439,0.34803 17.33299,-0.41865 z"
         style="fill:#000000;fill-opacity:1;stroke:#000000;stroke-width:1px;stroke-linecap:butt;stroke-linejoin:miter;stroke-opacity:1"
         sodipodi:nodetypes="ccccccc" />
      <path
         id="path4240"
         d="m 142.85714,544.86218 c -3.66058,5.42558 -6.13888,12.89652 1.42857,14.64286 3.39687,-3.46 6.67846,-7.03304 10.14687,-10.42267 7.80839,-3.54676 15.72435,-6.88848 23.46455,-10.56551 3.32,-2.28965 6.64001,-4.57931 9.96001,-6.86896 1.2604,1.18752 1.6012,2.66263 0.19695,3.83193 -3.75613,5.15126 -7.51225,10.30252 -11.26838,15.45378 0.35714,1.07143 0.71429,2.14286 1.07143,3.21429 2.71209,-0.93697 5.89232,-0.88949 8.24318,-2.61758 8.01799,-5.60104 15.11505,-12.63296 23.89968,-17.02528 -0.11905,-1.30952 -0.23809,-2.61905 -0.35714,-3.92857 -3.50905,-1.94488 -6.81357,-4.31867 -10.46379,-5.97089 -2.76332,-1.86394 -5.47548,-0.45368 -8.07713,0.87821 -15.64197,7.52982 -32.00445,13.31271 -48.2448,19.37839 z"
         style="fill:#000000;fill-opacity:1;stroke:#000000;stroke-width:1px;stroke-linecap:butt;stroke-linejoin:miter;stroke-opacity:1"
         sodipodi:nodetypes="cccccccccccccc" />
      <path
         id="path4242"
         d="m 128.92857,591.29075 c -0.4769,2.94669 -1.13479,6.0976 -0.15111,8.98559 2.66737,2.59038 6.06735,2.54055 9.43381,1.34554 4.375,-0.13729 7.55957,-2.86716 10.6697,-5.6303 16.68048,-13.06209 33.86448,-25.47913 50.76189,-38.27226 -0.59524,-0.95238 -1.19048,-1.90476 -1.78572,-2.85714 -23.57961,10.90472 -46.24465,23.77886 -68.92857,36.42857 z"
         style="fill:#000000;fill-opacity:1;stroke:#000000;stroke-width:1px;stroke-linecap:butt;stroke-linejoin:miter;stroke-opacity:1"
         sodipodi:nodetypes="ccccccc" />
      <path
         id="path4244"
         d="m 175.71429,549.1479 c -3.02107,1.82485 -4.78299,4.75408 -1.70502,7.66946 6.94063,5.79925 4.78792,15.07599 4.34759,23.45451 -1.554,7.94211 -2.87145,15.94828 -4.59221,23.84671 -1.73107,3.46215 -3.46215,6.92431 -5.19322,10.38646 -3.93258,0.6999 -7.89416,-2.01629 -11.42857,-3.57143 -2.0437,1.18559 0.4008,3.11982 0.94325,4.56355 2.89987,5.02643 5.79973,10.05287 8.6996,15.07931 1.42857,0.47619 2.85715,0.95238 4.28572,1.42857 3.48535,-5.07624 7.42016,-9.87334 10.59991,-15.14089 8.20527,-13.14266 9.03365,-28.38783 10.39153,-43.49022 -0.66172,-7.42668 -1.73631,-14.97925 -7.36039,-20.24761 -2.24008,-2.99508 -5.60529,-3.22666 -8.98819,-3.97842 z"
         style="fill:#000000;fill-opacity:1;stroke:#000000;stroke-width:1px;stroke-linecap:butt;stroke-linejoin:miter;stroke-opacity:1"
         sodipodi:nodetypes="ccccccccccccc" />
      <path
         id="path4246"
         d="m 220.09758,477.88131 c -0.98041,1.87444 0.50907,4.07964 0.58243,6.0952 1.79256,35.22232 0.67377,70.8087 1.17152,106.14721 1.24361,11.06988 2.23095,22.20966 3.63434,33.23595 0.94553,1.57072 1.05807,4.43507 3.5235,3.64537 2.43524,0.59344 1.20364,-2.88621 1.8037,-4.33127 3.22572,-13.66542 5.18885,-27.27444 6.21917,-41.23875 0.54649,-32.6742 1.22659,-70.72183 -0.73764,-102.31196 -3.98515,-4.04752 -13.06674,-8.39234 -16.19702,-1.24175 z"
         style="fill:#000000;fill-opacity:1;stroke:#000000;stroke-width:1px;stroke-linecap:butt;stroke-linejoin:miter;stroke-opacity:1"
         sodipodi:nodetypes="ccccccccc" />
      <path
         id="path4248"
         d="m 240,470.93361 c 0,1.54762 0,3.09524 0,4.64286 6.68242,5.33964 14.97541,0.23457 21.92515,-2.24615 3.16781,-2.34652 6.33561,-4.69305 9.50342,-7.03957 3.61542,0.72303 1.91564,4.24483 1.47554,6.7446 -7.64828,15.54129 -15.79603,30.84332 -23.65739,46.2815 -0.34414,1.4913 -0.68829,2.9826 -1.03243,4.4739 1.30952,0.47619 2.61905,0.95238 3.92857,1.42857 13.71754,-16.62407 26.56427,-33.9447 39.64285,-51.07142 -0.5955,-2.95682 0.14442,-6.38409 -1.48882,-8.9962 -2.73076,-5.18282 -7.90302,-7.54272 -13.64628,-7.51572 -3.75968,1.98057 -7.29099,4.47629 -11.22313,6.08173 -8.47583,2.4053 -16.95165,4.8106 -25.42748,7.2159 z"
         style="fill:#000000;fill-opacity:1;stroke:#000000;stroke-width:1px;stroke-linecap:butt;stroke-linejoin:miter;stroke-opacity:1"
         sodipodi:nodetypes="ccccccccccccc" />
      <path
         id="path4250"
         d="m 258.21429,526.6479 c -2.15841,2.64587 0.71405,5.57719 1.7195,8.04836 1.47073,3.09348 2.84456,6.38032 5.63422,8.5377 4.06778,4.03573 8.62332,7.69958 11.79105,12.53198 0.59689,0.95133 1.49281,1.82218 1.91126,2.82154 -0.11391,1.13919 -0.22783,2.27837 -0.34175,3.41756 -9.16667,0.83333 -18.33333,1.66667 -27.5,2.5 -0.71429,1.19048 -1.42857,2.38095 -2.14286,3.57143 6.66667,2.38095 13.33333,4.7619 20,7.14285 1.96436,5.64244 5.16543,8.76411 10,11.78572 6.14521,-1.25869 11.96272,-5.34142 13.57165,-11.73946 2.1795,-7.07378 3.74891,-14.68177 -0.66834,-21.25465 -4.30179,-5.75702 -9.645,-10.59701 -14.53537,-15.83366 -5.27216,-7.39056 -11.0924,-9.37532 -19.43936,-11.52937 z"
         style="fill:#000000;fill-opacity:1;stroke:#000000;stroke-width:1px;stroke-linecap:butt;stroke-linejoin:miter;stroke-opacity:1"
         sodipodi:nodetypes="cccccccccccccc" />
    </g>
    <path
       style="fill:none;stroke:#000000;stroke-width:2;stroke-linecap:butt;stroke-linejoin:miter;stroke-opacity:1;stroke-miterlimit:4;stroke-dasharray:6,6;stroke-dashoffset:0"
       d="M 109.09647,961.6142 155.56349,14.091123 581.84786,10.050513 454.56864,977.77664 109.09647,961.6142 z"
       id="path2833"
       transform="translate(0,52.362183)" />
    <path
       style="fill:none;stroke:#000000;stroke-width:2;stroke-linecap:butt;stroke-linejoin:miter;stroke-opacity:1;stroke-miterlimit:4;stroke-dasharray:6,6;stroke-dashoffset:0"
       d="M 573.76664,139.35004 472.75139,955.55329 935.40125,949.49237 907.11698,133.28912 573.76664,139.35004 z"
       id="path3607"
       transform="translate(0,52.362183)"
       sodipodi:nodetypes="ccccc" />
  </g>
</svg>
