<?xml version="1.0" encoding="UTF-8" standalone="no"?>
<!-- Created with Inkscape (http://www.inkscape.org/) -->

<svg
   xmlns:dc="http://purl.org/dc/elements/1.1/"
   xmlns:cc="http://creativecommons.org/ns#"
   xmlns:rdf="http://www.w3.org/1999/02/22-rdf-syntax-ns#"
   xmlns:svg="http://www.w3.org/2000/svg"
   xmlns="http://www.w3.org/2000/svg"
   xmlns:sodipodi="http://sodipodi.sourceforge.net/DTD/sodipodi-0.dtd"
   xmlns:inkscape="http://www.inkscape.org/namespaces/inkscape"
   width="1000"
   height="1000"
   id="svg3173"
   version="1.1"
   inkscape:version="0.47 r22583"
   sodipodi:docname="hai_shangzhongxia.svg"
   inkscape:export-filename="E:\chinese\images\yan_hai_shangzhongxia.png"
   inkscape:export-xdpi="18.005705"
   inkscape:export-ydpi="18.005705">
  <title
     id="title3637">Hai with Top-Middle-Bottom Structure</title>
  <defs
     id="defs3175">
    <inkscape:perspective
       sodipodi:type="inkscape:persp3d"
       inkscape:vp_x="0 : 526.18109 : 1"
       inkscape:vp_y="0 : 1000 : 0"
       inkscape:vp_z="744.09448 : 526.18109 : 1"
       inkscape:persp3d-origin="372.04724 : 350.78739 : 1"
       id="perspective3181" />
    <inkscape:perspective
       id="perspective3191"
       inkscape:persp3d-origin="0.5 : 0.33333333 : 1"
       inkscape:vp_z="1 : 0.5 : 1"
       inkscape:vp_y="0 : 1000 : 0"
       inkscape:vp_x="0 : 0.5 : 1"
       sodipodi:type="inkscape:persp3d" />
    <inkscape:perspective
       id="perspective4006"
       inkscape:persp3d-origin="0.5 : 0.33333333 : 1"
       inkscape:vp_z="1 : 0.5 : 1"
       inkscape:vp_y="0 : 1000 : 0"
       inkscape:vp_x="0 : 0.5 : 1"
       sodipodi:type="inkscape:persp3d" />
    <inkscape:perspective
       id="perspective4034"
       inkscape:persp3d-origin="0.5 : 0.33333333 : 1"
       inkscape:vp_z="1 : 0.5 : 1"
       inkscape:vp_y="0 : 1000 : 0"
       inkscape:vp_x="0 : 0.5 : 1"
       sodipodi:type="inkscape:persp3d" />
    <inkscape:perspective
       id="perspective4081"
       inkscape:persp3d-origin="0.5 : 0.33333333 : 1"
       inkscape:vp_z="1 : 0.5 : 1"
       inkscape:vp_y="0 : 1000 : 0"
       inkscape:vp_x="0 : 0.5 : 1"
       sodipodi:type="inkscape:persp3d" />
    <inkscape:perspective
       id="perspective4147"
       inkscape:persp3d-origin="0.5 : 0.33333333 : 1"
       inkscape:vp_z="1 : 0.5 : 1"
       inkscape:vp_y="0 : 1000 : 0"
       inkscape:vp_x="0 : 0.5 : 1"
       sodipodi:type="inkscape:persp3d" />
    <inkscape:perspective
       id="perspective3858"
       inkscape:persp3d-origin="0.5 : 0.33333333 : 1"
       inkscape:vp_z="1 : 0.5 : 1"
       inkscape:vp_y="0 : 1000 : 0"
       inkscape:vp_x="0 : 0.5 : 1"
       sodipodi:type="inkscape:persp3d" />
    <inkscape:perspective
       id="perspective3876"
       inkscape:persp3d-origin="0.5 : 0.33333333 : 1"
       inkscape:vp_z="1 : 0.5 : 1"
       inkscape:vp_y="0 : 1000 : 0"
       inkscape:vp_x="0 : 0.5 : 1"
       sodipodi:type="inkscape:persp3d" />
    <inkscape:perspective
       id="perspective3901"
       inkscape:persp3d-origin="0.5 : 0.33333333 : 1"
       inkscape:vp_z="1 : 0.5 : 1"
       inkscape:vp_y="0 : 1000 : 0"
       inkscape:vp_x="0 : 0.5 : 1"
       sodipodi:type="inkscape:persp3d" />
    <inkscape:perspective
       id="perspective4392"
       inkscape:persp3d-origin="0.5 : 0.33333333 : 1"
       inkscape:vp_z="1 : 0.5 : 1"
       inkscape:vp_y="0 : 1000 : 0"
       inkscape:vp_x="0 : 0.5 : 1"
       sodipodi:type="inkscape:persp3d" />
    <inkscape:perspective
       id="perspective4888"
       inkscape:persp3d-origin="0.5 : 0.33333333 : 1"
       inkscape:vp_z="1 : 0.5 : 1"
       inkscape:vp_y="0 : 1000 : 0"
       inkscape:vp_x="0 : 0.5 : 1"
       sodipodi:type="inkscape:persp3d" />
    <inkscape:perspective
       id="perspective3670"
       inkscape:persp3d-origin="0.5 : 0.33333333 : 1"
       inkscape:vp_z="1 : 0.5 : 1"
       inkscape:vp_y="0 : 1000 : 0"
       inkscape:vp_x="0 : 0.5 : 1"
       sodipodi:type="inkscape:persp3d" />
    <inkscape:perspective
       id="perspective3670-1"
       inkscape:persp3d-origin="0.5 : 0.33333333 : 1"
       inkscape:vp_z="1 : 0.5 : 1"
       inkscape:vp_y="0 : 1000 : 0"
       inkscape:vp_x="0 : 0.5 : 1"
       sodipodi:type="inkscape:persp3d" />
    <inkscape:perspective
       id="perspective3670-4"
       inkscape:persp3d-origin="0.5 : 0.33333333 : 1"
       inkscape:vp_z="1 : 0.5 : 1"
       inkscape:vp_y="0 : 1000 : 0"
       inkscape:vp_x="0 : 0.5 : 1"
       sodipodi:type="inkscape:persp3d" />
    <inkscape:perspective
       id="perspective3810"
       inkscape:persp3d-origin="0.5 : 0.33333333 : 1"
       inkscape:vp_z="1 : 0.5 : 1"
       inkscape:vp_y="0 : 1000 : 0"
       inkscape:vp_x="0 : 0.5 : 1"
       sodipodi:type="inkscape:persp3d" />
    <inkscape:perspective
       id="perspective2852"
       inkscape:persp3d-origin="0.5 : 0.33333333 : 1"
       inkscape:vp_z="1 : 0.5 : 1"
       inkscape:vp_y="0 : 1000 : 0"
       inkscape:vp_x="0 : 0.5 : 1"
       sodipodi:type="inkscape:persp3d" />
    <inkscape:perspective
       id="perspective2852-9"
       inkscape:persp3d-origin="0.5 : 0.33333333 : 1"
       inkscape:vp_z="1 : 0.5 : 1"
       inkscape:vp_y="0 : 1000 : 0"
       inkscape:vp_x="0 : 0.5 : 1"
       sodipodi:type="inkscape:persp3d" />
    <inkscape:perspective
       id="perspective2865"
       inkscape:persp3d-origin="0.5 : 0.33333333 : 1"
       inkscape:vp_z="1 : 0.5 : 1"
       inkscape:vp_y="0 : 1000 : 0"
       inkscape:vp_x="0 : 0.5 : 1"
       sodipodi:type="inkscape:persp3d" />
  </defs>
  <sodipodi:namedview
     id="base"
     pagecolor="#ffffff"
     bordercolor="#666666"
     borderopacity="1.0"
     inkscape:pageopacity="0.0"
     inkscape:pageshadow="2"
     inkscape:zoom="0.49497475"
     inkscape:cx="140.87229"
     inkscape:cy="514.50449"
     inkscape:document-units="px"
     inkscape:current-layer="layer1"
     showgrid="false"
     inkscape:window-width="1440"
     inkscape:window-height="840"
     inkscape:window-x="-4"
     inkscape:window-y="-4"
     inkscape:window-maximized="1" />
  <metadata
     id="metadata3178">
    <rdf:RDF>
      <cc:Work
         rdf:about="">
        <dc:format>image/svg+xml</dc:format>
        <dc:type
           rdf:resource="http://purl.org/dc/dcmitype/StillImage" />
        <dc:title>Hai with Top-Middle-Bottom Structure</dc:title>
        <dc:date>2010-07-26</dc:date>
        <dc:creator>
          <cc:Agent>
            <dc:title>Alex Amies</dc:title>
          </cc:Agent>
        </dc:creator>
        <dc:rights>
          <cc:Agent>
            <dc:title>@ Alex Amies 2010</dc:title>
          </cc:Agent>
        </dc:rights>
        <dc:publisher>
          <cc:Agent>
            <dc:title>chinesenotes.com</dc:title>
          </cc:Agent>
        </dc:publisher>
        <dc:source>Yan Qin Ceremonial Inscription</dc:source>
        <dc:language>Chinese 中文</dc:language>
        <dc:description>Tracing from Tang Dynasty Ceremonial Inscription by Yan Zhenqing 颜真卿 (709－785)</dc:description>
        <cc:license
           rdf:resource="http://creativecommons.org/licenses/by/3.0/" />
      </cc:Work>
      <cc:License
         rdf:about="http://creativecommons.org/licenses/by/3.0/">
        <cc:permits
           rdf:resource="http://creativecommons.org/ns#Reproduction" />
        <cc:permits
           rdf:resource="http://creativecommons.org/ns#Distribution" />
        <cc:requires
           rdf:resource="http://creativecommons.org/ns#Notice" />
        <cc:requires
           rdf:resource="http://creativecommons.org/ns#Attribution" />
        <cc:permits
           rdf:resource="http://creativecommons.org/ns#DerivativeWorks" />
      </cc:License>
    </rdf:RDF>
  </metadata>
  <g
     inkscape:label="Layer 1"
     inkscape:groupmode="layer"
     id="layer1"
     transform="translate(0,-52.362183)">
    <g
       transform="matrix(4.7609464,0,0,4.7609464,-2486.923,-3933.6916)"
       id="g10703"
       style="fill:#000000;fill-opacity:1">
      <path
         id="path10654"
         d="m 606.07143,855.21933 c 0.19734,1.67899 0.61244,4.26526 2.82989,4.16489 1.96549,-0.46655 4.02943,-0.26795 5.10243,1.64375 4.57033,5.16796 7.1134,11.73065 9.2062,18.21024 0.73056,3.70049 4.31638,3.51424 7.27703,3.48117 1.72207,-1.00791 2.80052,-3.63811 3.79873,-5.49541 0.73995,-10.47015 -1.67474,-20.42386 -10.49773,-27.03941 -3.7917,-2.69599 -8.00204,-1.94033 -12.35938,-1.7509 -1.78573,2.2619 -3.57141,4.52384 -5.35717,6.78572 l 0,-5e-5 z"
         style="fill:#000000;fill-opacity:1;stroke:#000000;stroke-width:1px;stroke-linecap:butt;stroke-linejoin:miter;stroke-opacity:1"
         sodipodi:nodetypes="cccccccccc" />
      <path
         sodipodi:nodetypes="ccccccccc"
         id="path10662"
         d="m 578.03571,873.79075 c -2.88006,0.48577 -1.85435,4.1493 -2.06783,6.21428 0.46159,7.93164 -1.51902,13.60628 -5.88857,19.90993 -2.76454,1.4705 -5.52909,2.94101 -8.29363,4.41151 -2.56742,6.62018 1.27879,12.62888 5.56705,17.68421 3.78422,3.33731 8.08039,-2.02568 9.90013,-5.19463 2.62059,-5.82464 4.98786,-11.74731 5.92565,-18.09175 0.0866,-6.06607 3.78799,-14.94917 0.41915,-20.66352 -0.79193,-3.29989 -2.58208,-3.93892 -5.56195,-4.27003 z"
         style="fill:#000000;fill-opacity:1;stroke:#000000;stroke-width:1px;stroke-linecap:butt;stroke-linejoin:miter;stroke-opacity:1" />
      <path
         sodipodi:nodetypes="ccccccccccccccc"
         id="path10671"
         d="m 583.92857,885.93361 c -3.75517,1.64275 -4.69348,9.86951 0.30699,9.9765 7.93335,0.56423 15.91605,0.74647 23.79974,-0.47261 16.39555,-2.95729 32.62179,-7.48244 48.54531,-12.46263 3.78339,-0.88343 8.06638,-0.70733 11.33745,1.59194 -3.4815,5.43439 -7.55023,10.51156 -11.3018,15.78342 -1.47463,1.20239 -2.86558,10.36031 -0.34352,8.37296 7.61146,-5.03701 19.50864,-14.71687 22.8344,-15.11101 5.16005,-0.21171 8.62441,4.15627 12.88369,4.89427 7.23779,-4.24112 4.65902,-12.93925 1.57998,-19.06171 -3.32166,-6.72189 -10.64946,-10.20927 -17.98439,-8.53029 -2.07881,0.84388 -2.53381,3.70325 -3.80071,5.55488 -5.44515,-0.6722 -11.02274,-1.2909 -16.31934,0.55742 -15.57966,3.24426 -31.09074,6.92649 -46.6887,10.01061 -8.34433,0.97875 -16.59605,-0.0117 -24.8491,-1.10375 z"
         style="fill:#000000;fill-opacity:1;stroke:#000000;stroke-width:1px;stroke-linecap:butt;stroke-linejoin:miter;stroke-opacity:1" />
      <path
         id="path10676"
         d="m 601.60714,901.46933 c -1.49657,0.1471 -3.62186,-1.07822 -4.53484,0.71688 -0.52309,1.71805 -1.1467,3.60638 -0.68136,5.4073 0.76758,2.06431 3.65797,2.9682 5.43005,1.58546 1.65738,-0.96098 2.95251,-2.46181 4.84603,-3.02721 8.52114,-3.70921 17.77935,-5.29465 26.95626,-6.35283 2.01027,-0.054 4.01335,0.10678 6.00186,0.35445 2.03669,-0.0653 2.83116,-2.58607 2.41525,-4.28415 -0.57723,-2.78307 -3.79377,-4.93397 -6.53202,-3.7177 -1.88005,0.39279 -2.69291,2.32331 -4.41157,2.96866 -9.16977,4.44488 -19.51763,5.23458 -29.48966,6.34914 z"
         style="fill:#000000;fill-opacity:1;stroke:#000000;stroke-width:1px;stroke-linecap:butt;stroke-linejoin:miter;stroke-opacity:1" />
      <path
         id="path10679"
         d="m 609.64286,901.6479 c 3.67116,8.15084 7.83252,15.99591 7.67857,25.26501 0,6.10214 0,12.20428 0,18.30642 1.36766,4.51149 3.03109,8.64291 5.71428,12.5 3.03611,0.0338 6.57736,0.36612 8.99733,-1.83551 1.81138,-2.32719 1.44022,-5.48877 2.03082,-8.22759 0.66787,-11.10447 2.9319,-21.9469 5.22185,-32.794 -1.49779,-7.93987 -6.48023,-11.9767 -12.5,-16.42857 -5.88347,-0.15135 -11.58987,1.44737 -17.14285,3.21424 z"
         style="fill:#000000;fill-opacity:1;stroke:#000000;stroke-width:1px;stroke-linecap:butt;stroke-linejoin:miter;stroke-opacity:1"
         sodipodi:nodetypes="ccccccccc" />
      <path
         id="path10684"
         d="m 596.33913,925.70805 c -1.41194,3.191 0.80026,6.41647 2.89889,8.7004 2.52472,2.7251 6.60255,3.41966 10.12149,2.72928 8.05377,-3.55819 16.04208,-7.55855 24.9704,-8.25569 2.30208,-0.30167 3.83244,1.14988 5.61938,2.27185 4.89578,1.3045 10.99649,-3.51448 12.86563,-7.96235 1.69861,-8.9428 -11.67504,-6.54473 -16.75179,-5.49098 -8.59522,2.10272 -16.71642,5.92573 -25.4971,7.3149 -2.80335,1.33191 -4.82927,-1.25007 -6.48292,-3.00388 -3.09395,-2.28277 -5.99622,1.25566 -7.74398,3.69647 z"
         style="fill:#000000;fill-opacity:1;stroke:#000000;stroke-width:1px;stroke-linecap:butt;stroke-linejoin:miter;stroke-opacity:1"
         sodipodi:nodetypes="cccccccccc" />
      <path
         id="path10688"
         d="m 561.25,967.71933 c -5.412,2.31673 -7.43311,14.78032 -0.15911,14.72874 4.76739,0.79219 9.14893,-0.95515 12.65427,-4.18829 9.41216,-4.88262 20.24091,-5.78045 30.51511,-7.78107 11.84941,-1.63259 22.77787,-6.70206 34.26269,-9.72335 14.48597,-3.12862 29.31804,-5.75815 44.19213,-5.14076 5.35519,-0.0226 10.5229,1.58413 15.67777,2.46187 5.33843,-1.30184 9.51293,-8.5075 4.77346,-12.90846 -3.5375,-4.14569 -8.48722,-8.31641 -14.17764,-8.44687 -7.18071,-0.64365 -9.89372,6.12085 -14.81046,9.30561 -13.03679,6.57869 -28.18976,3.64038 -41.99208,7.17702 -17.94008,3.43045 -35.88154,6.91279 -53.51735,11.70674 -5.69524,1.65835 -11.62496,2.18164 -17.41879,2.80882 l 0,0 z"
         style="fill:#000000;fill-opacity:1;stroke:#000000;stroke-width:1px;stroke-linecap:butt;stroke-linejoin:miter;stroke-opacity:1" />
      <path
         id="path10691"
         d="m 595.23239,980.89389 c -4.17005,1.73215 -7.37397,6.56811 -6.01234,11.12314 1.15019,3.91676 3.2359,7.47834 4.6023,11.32047 3.87605,9.68 6.75381,19.7229 10.55441,29.429 0.83538,2.2963 3.7691,1.5014 5.43095,0.7036 1.97315,-0.809 3.72572,-2.7111 3.32344,-4.9847 -2.5471,-10.7497 -5.06647,-21.4679 -9.2711,-31.7307 -2.01206,-4.03156 -5.35852,-7.52439 -6.15682,-12.07601 0.64929,-1.75142 0.55785,-4.85105 -2.15989,-3.88939 l -0.31095,0.10459 0,0 z"
         style="fill:#000000;fill-opacity:1;stroke:#000000;stroke-width:1px;stroke-linecap:butt;stroke-linejoin:miter;stroke-opacity:1"
         sodipodi:nodetypes="ccccccccccc" />
      <path
         id="path10696"
         d="m 616.95067,987.20734 c -3.15401,2.1516 -1.97309,7.32594 1.16022,8.95322 6.92344,4.35954 12.60416,1.34645 18.71947,-2.22757 4.00517,-2.35804 7.92269,-5.45416 12.72379,-5.79726 5.83601,5.47502 -6.19236,30.73287 -8.4114,37.50607 -0.89924,3.2724 -0.452,7.2541 2.57696,9.2953 2.905,0.8921 6.78345,2.1644 9.5365,0.2754 8.36984,-8.5566 11.53991,-21.0494 14.92131,-32.2313 1.0963,-5.76415 2.3917,-11.93613 0.43409,-17.66228 -2.14386,-5.16827 -5.51684,-10.0113 -10.18783,-13.17869 -3.44839,-1.59911 -6.62432,1.94883 -6.41407,5.31097 0.10882,2.24948 1.29953,5.44379 -1.51442,6.56858 -7.76755,3.00893 -16.2477,3.57883 -24.50092,3.64485 -2.98075,-0.25371 -6.13085,-1.87359 -9.0437,-0.45729 z"
         style="fill:#000000;fill-opacity:1;stroke:#000000;stroke-width:1px;stroke-linecap:butt;stroke-linejoin:miter;stroke-opacity:1"
         sodipodi:nodetypes="cccccccccccccc" />
      <path
         id="path10699"
         d="m 606.34407,1021.3 c -1.60432,2.693 -0.0535,6.1616 2.30785,7.8516 1.5234,1.3028 3.61833,1.5063 5.50967,1.0878 4.40064,-0.6398 8.43122,-2.7293 12.82356,-3.4181 4.75447,-1.0976 9.66039,-0.8551 14.48467,-0.5262 2.12931,-0.1014 4.23181,-1.2094 5.59777,-2.8452 1.69596,-1.9198 0.72093,-4.8514 -0.95502,-6.4401 -2.54567,-2.4207 -6.24627,-2.9973 -9.6241,-3.1566 -6.0608,-0.1336 -12.20802,0.3499 -17.98209,2.3102 -3.31328,1.0172 -6.29585,2.9578 -9.73453,3.5914 -0.92182,0.2873 -1.8651,0.7238 -2.42778,1.5452 z"
         style="fill:#000000;fill-opacity:1;stroke:#000000;stroke-width:1px;stroke-linecap:butt;stroke-linejoin:miter;stroke-opacity:1" />
    </g>
    <path
       style="fill:none;stroke:#000000;stroke-width:1.95660388;stroke-linecap:butt;stroke-linejoin:miter;stroke-miterlimit:4;stroke-opacity:1;stroke-dasharray:5.86981186, 5.86981186;stroke-dashoffset:0"
       d="m 181.80327,103.20783 0,360.4642 648.56631,0 0,-362.09215 -648.56631,1.62795 z"
       id="path2853"
       sodipodi:nodetypes="ccccc" />
    <path
       style="fill:none;stroke:#000000;stroke-width:1.40962434;stroke-linecap:butt;stroke-linejoin:miter;stroke-miterlimit:4;stroke-opacity:1;stroke-dasharray:4.22887325, 4.22887325;stroke-dashoffset:0"
       d="m 312.84961,690.61849 0,310.72821 390.51424,0 0,-312.13154 -390.51424,1.40333 z"
       id="path2853-4"
       sodipodi:nodetypes="ccccc" />
    <path
       style="fill:none;stroke:#000000;stroke-width:1.72128892;stroke-linecap:butt;stroke-linejoin:miter;stroke-miterlimit:4;stroke-opacity:1;stroke-dasharray:5.1638668, 5.1638668;stroke-dashoffset:0"
       d="m 160.78493,309.8263 0,438.51387 710.80603,0 0,-440.4943 -710.80603,1.98043 z"
       id="path2853-0"
       sodipodi:nodetypes="ccccc" />
  </g>
</svg>
