<?xml version="1.0" encoding="UTF-8" standalone="no"?>
<!-- Created with Inkscape (http://www.inkscape.org/) -->

<svg
   xmlns:dc="http://purl.org/dc/elements/1.1/"
   xmlns:cc="http://creativecommons.org/ns#"
   xmlns:rdf="http://www.w3.org/1999/02/22-rdf-syntax-ns#"
   xmlns:svg="http://www.w3.org/2000/svg"
   xmlns="http://www.w3.org/2000/svg"
   xmlns:sodipodi="http://sodipodi.sourceforge.net/DTD/sodipodi-0.dtd"
   xmlns:inkscape="http://www.inkscape.org/namespaces/inkscape"
   width="1000"
   height="1000"
   id="svg3173"
   version="1.1"
   inkscape:version="0.47 r22583"
   sodipodi:docname="ling_leftright.svg"
   inkscape:export-filename="E:\chinese\images\ling_leftright.png"
   inkscape:export-xdpi="18.005705"
   inkscape:export-ydpi="18.005705">
  <title
     id="title2821">Ling Left and Right Structure</title>
  <defs
     id="defs3175">
    <inkscape:perspective
       sodipodi:type="inkscape:persp3d"
       inkscape:vp_x="0 : 526.18109 : 1"
       inkscape:vp_y="0 : 1000 : 0"
       inkscape:vp_z="744.09448 : 526.18109 : 1"
       inkscape:persp3d-origin="372.04724 : 350.78739 : 1"
       id="perspective3181" />
    <inkscape:perspective
       id="perspective3191"
       inkscape:persp3d-origin="0.5 : 0.33333333 : 1"
       inkscape:vp_z="1 : 0.5 : 1"
       inkscape:vp_y="0 : 1000 : 0"
       inkscape:vp_x="0 : 0.5 : 1"
       sodipodi:type="inkscape:persp3d" />
    <inkscape:perspective
       id="perspective4006"
       inkscape:persp3d-origin="0.5 : 0.33333333 : 1"
       inkscape:vp_z="1 : 0.5 : 1"
       inkscape:vp_y="0 : 1000 : 0"
       inkscape:vp_x="0 : 0.5 : 1"
       sodipodi:type="inkscape:persp3d" />
    <inkscape:perspective
       id="perspective4034"
       inkscape:persp3d-origin="0.5 : 0.33333333 : 1"
       inkscape:vp_z="1 : 0.5 : 1"
       inkscape:vp_y="0 : 1000 : 0"
       inkscape:vp_x="0 : 0.5 : 1"
       sodipodi:type="inkscape:persp3d" />
    <inkscape:perspective
       id="perspective4081"
       inkscape:persp3d-origin="0.5 : 0.33333333 : 1"
       inkscape:vp_z="1 : 0.5 : 1"
       inkscape:vp_y="0 : 1000 : 0"
       inkscape:vp_x="0 : 0.5 : 1"
       sodipodi:type="inkscape:persp3d" />
    <inkscape:perspective
       id="perspective4147"
       inkscape:persp3d-origin="0.5 : 0.33333333 : 1"
       inkscape:vp_z="1 : 0.5 : 1"
       inkscape:vp_y="0 : 1000 : 0"
       inkscape:vp_x="0 : 0.5 : 1"
       sodipodi:type="inkscape:persp3d" />
    <inkscape:perspective
       id="perspective3737"
       inkscape:persp3d-origin="0.5 : 0.33333333 : 1"
       inkscape:vp_z="1 : 0.5 : 1"
       inkscape:vp_y="0 : 1000 : 0"
       inkscape:vp_x="0 : 0.5 : 1"
       sodipodi:type="inkscape:persp3d" />
  </defs>
  <sodipodi:namedview
     id="base"
     pagecolor="#ffffff"
     bordercolor="#666666"
     borderopacity="1.0"
     inkscape:pageopacity="0.0"
     inkscape:pageshadow="2"
     inkscape:zoom="0.49497475"
     inkscape:cx="333.28551"
     inkscape:cy="482.30746"
     inkscape:document-units="px"
     inkscape:current-layer="layer1"
     showgrid="false"
     inkscape:window-width="1440"
     inkscape:window-height="840"
     inkscape:window-x="-4"
     inkscape:window-y="-4"
     inkscape:window-maximized="1" />
  <metadata
     id="metadata3178">
    <rdf:RDF>
      <cc:Work
         rdf:about="">
        <dc:format>image/svg+xml</dc:format>
        <dc:type
           rdf:resource="http://purl.org/dc/dcmitype/StillImage" />
        <dc:title>Ling Left and Right Structure</dc:title>
        <dc:date>2010-07-22</dc:date>
        <dc:creator>
          <cc:Agent>
            <dc:title>Alex Amies</dc:title>
          </cc:Agent>
        </dc:creator>
        <dc:rights>
          <cc:Agent>
            <dc:title>@ Alex Amies 2010</dc:title>
          </cc:Agent>
        </dc:rights>
        <dc:publisher>
          <cc:Agent>
            <dc:title>chinesenotes.com</dc:title>
          </cc:Agent>
        </dc:publisher>
        <dc:source>Yan Qin Ceremonial Inscription</dc:source>
        <dc:language>Chinese 中文</dc:language>
        <dc:description>Tracing from Tang Dynasty Ceremonial Inscription by Yan Zhenqing 颜真卿 (709－785)</dc:description>
        <cc:license
           rdf:resource="http://creativecommons.org/licenses/by/3.0/" />
      </cc:Work>
      <cc:License
         rdf:about="http://creativecommons.org/licenses/by/3.0/">
        <cc:permits
           rdf:resource="http://creativecommons.org/ns#Reproduction" />
        <cc:permits
           rdf:resource="http://creativecommons.org/ns#Distribution" />
        <cc:requires
           rdf:resource="http://creativecommons.org/ns#Notice" />
        <cc:requires
           rdf:resource="http://creativecommons.org/ns#Attribution" />
        <cc:permits
           rdf:resource="http://creativecommons.org/ns#DerivativeWorks" />
      </cc:License>
    </rdf:RDF>
  </metadata>
  <g
     inkscape:label="Layer 1"
     inkscape:groupmode="layer"
     id="layer1"
     transform="translate(0,-52.362183)">
    <g
       transform="matrix(4.7609464,0,0,4.7609464,-2586.1706,-2925.1727)"
       id="g3766"
       style="fill:#000000;fill-opacity:1">
      <path
         id="path3719"
         d="m 572.85714,654.1479 c -6.07502,4.27695 -2.98647,12.82991 -4.59609,19.05762 -2.02038,26.01527 -3.57775,52.09978 -3.81458,78.19184 0.6205,16.69407 1.27903,33.3898 1.44983,50.09604 1.82132,4.06398 5.81787,11.09277 9.90131,10.79144 6.17871,-2.03682 5.36107,-8.3779 4.20394,-13.47041 -2.23686,-16.02853 -1.96739,-32.23039 -2.39119,-48.36983 -0.4547,-25.9423 0.95389,-51.85969 2.58434,-77.73873 -0.25857,-4.62816 1.90657,-10.35406 -2.64357,-13.42997 -1.56131,-1.7124 -3.1264,-3.42135 -4.69399,-5.128 z"
         style="fill:#000000;fill-opacity:1;stroke:#000000;stroke-width:1px;stroke-linecap:butt;stroke-linejoin:miter;stroke-opacity:1" />
      <path
         id="path3721"
         d="m 575.5116,661.9183 c -0.0177,4.04595 5.9784,3.94838 9.13126,4.7296 8.68978,-2.92384 14.13332,-11.14442 21.78571,-16.07143 0.70778,1.51672 0.72271,3.25415 -0.0808,4.72622 -3.3064,9.25793 -6.61281,18.51585 -9.91921,27.77378 3.05372,3.72162 6.01336,1.09252 8.2046,-2.52547 3.6937,-6.30104 7.38741,-12.60207 11.08112,-18.9031 3.06244,-1.48397 6.62653,-3.03166 8.01181,-6.38631 1.50178,-5.00094 -2.00245,-7.96147 -5.15467,-11.11369 -3.43028,0.094 -7.04516,-1.04597 -10.30214,0.54051 -10.80976,3.98252 -21.59432,8.04767 -32.555,11.60234 2.6994,-0.23683 -0.35822,3.4875 -0.20268,5.62755 z"
         style="fill:#000000;fill-opacity:1;stroke:#000000;stroke-width:1px;stroke-linecap:butt;stroke-linejoin:miter;stroke-opacity:1"
         sodipodi:nodetypes="cccccccccccc" />
      <path
         id="path3723"
         d="m 596.42857,685.93361 c 0.51757,7.01013 2.67015,13.73293 5.24881,20.23162 1.15935,1.78921 -0.73113,0.85826 -1.88654,0.56744 -2.46242,-0.61285 -4.89585,-1.46244 -7.39241,-1.86608 -4.7721,-0.60967 -8.77698,1.60205 -13.11271,3.20985 0.35714,0.95238 0.71428,1.90476 1.07142,2.85714 5.37583,1.6627 10.82684,3.20206 16.00555,5.3934 3.59217,4.78474 6.51869,10.8511 11.63627,14.24946 0.78606,0 1.57212,0 2.35818,0 0.27692,-1.99953 -0.0239,-4.13203 0.64827,-6.04665 2.16486,-5.12731 4.32973,-10.25461 6.49459,-15.38192 -1.23612,-2.22386 -2.60761,-4.37504 -4.46601,-6.13505 -3.86653,-5.6866 -7.10422,-11.82319 -10.53399,-17.79353 -3.16422,-2.28892 -3.65079,-2.05213 -6.07143,0.71432 z"
         style="fill:#000000;fill-opacity:1;stroke:#000000;stroke-width:1px;stroke-linecap:butt;stroke-linejoin:miter;stroke-opacity:1"
         sodipodi:nodetypes="ccsccccccccccc" />
      <path
         id="path3725"
         d="m 637.5,662.00504 c -0.17414,2.87506 1.16854,5.7493 3.64691,7.27506 2.31756,1.66885 5.54092,1.13448 7.88491,-0.20065 9.79335,-5.6817 20.75713,-8.35543 31.58071,-11.36013 4.31963,0 8.63927,0 12.9589,0 0.35714,-1.54762 0.71429,-3.09523 1.07143,-4.64285 -2.18676,-3.26277 -6.21366,-8.31751 -10.60184,-7.7226 -3.21161,1.86045 -6.81744,2.99209 -10.24929,4.41419 -9.85294,4.82853 -20.19397,6.77898 -30.79388,8.80082 -1.83262,1.14539 -3.66523,2.29077 -5.49785,3.43616 z"
         style="fill:#000000;fill-opacity:1;stroke:#000000;stroke-width:1px;stroke-linecap:butt;stroke-linejoin:miter;stroke-opacity:1"
         sodipodi:nodetypes="cccccccccc" />
      <path
         id="path3727"
         d="m 662.14286,637.36218 c 1.79194,15.27349 0.13256,30.6683 0.43149,45.98458 1.38352,0.18565 2.88334,1.50997 4.31545,1.48737 1.51547,-0.072 3.02608,-1.64536 4.5388,-1.75766 -0.21639,-14.46475 4.19039,-28.44743 4.99997,-42.85715 -4.33594,-5.19458 -8.31483,-6.1723 -14.28571,-2.85714 z"
         style="fill:#000000;fill-opacity:1;stroke:#000000;stroke-width:1px;stroke-linecap:butt;stroke-linejoin:miter;stroke-opacity:1"
         sodipodi:nodetypes="cccccc" />
      <path
         id="path3729"
         d="m 627.14286,689.1479 c -1.16815,2.92514 -1.66535,7.78933 1.84324,9.138 2.91845,2.10978 6.64224,0.81385 9.72255,-0.19634 12.36436,-3.86263 24.62803,-8.0818 37.23176,-11.12277 9.42738,-3.34971 19.311,-2.23649 29.13059,-1.9972 2.74108,0.59045 5.64425,2.42391 8.4499,1.37456 3.16455,-1.82957 2.29579,-5.72627 2.45161,-8.7897 -1.79072,-3.51352 -5.11728,-6.76878 -8.72905,-8.02831 -2.58566,-0.0201 -5.32674,-0.38579 -7.63259,1.07184 -5.29691,2.16859 -10.36142,5.08535 -16.05471,6.08761 -16.98103,4.0017 -33.92062,8.24465 -50.91715,12.139 -1.83205,0.10777 -3.6641,0.21554 -5.49615,0.32331 z"
         style="fill:#000000;fill-opacity:1;stroke:#000000;stroke-width:1px;stroke-linecap:butt;stroke-linejoin:miter;stroke-opacity:1"
         sodipodi:nodetypes="cccccccccccc" />
      <path
         id="path3731"
         d="m 645.47586,700.63243 c -0.32026,6.88729 -1.2552,13.2502 -7.04611,17.55362 -8.55358,5.16759 -18.14507,9.51589 -27.7861,12.33754 -3.9132,0.67035 -0.81585,2.21932 1.14207,3.98145 11.60727,-0.56942 22.91137,-3.82334 34.28571,-6.07143 8.24687,-4.44444 12.39122,-10.45749 10.77804,-20.13841 -0.11932,-6.19468 -4.04208,-10.79678 -6.16189,-16.34382 -0.71736,-1.25538 -1.88157,0.5403 -2.83044,0.76794 -2.0916,2.22167 -2.39313,5.00428 -2.38128,7.91311 z"
         style="fill:#000000;fill-opacity:1;stroke:#000000;stroke-width:1px;stroke-linecap:butt;stroke-linejoin:miter;stroke-opacity:1"
         sodipodi:nodetypes="ccccccccc" />
      <path
         id="path3733"
         d="m 677.85714,684.50504 c -3.18896,5.57874 -4.09171,12.73289 -3.6377,19.12775 -0.12023,6.33732 1.39218,12.1639 4.35199,17.65796 4.68252,1.10487 9.344,2.49808 14.19068,2.61125 8.92952,1.14919 17.68075,-2.01104 26.52361,-3.32553 1.84686,-3.07317 0.89102,-3.75184 -1.42858,-6.07143 -8.05879,0.70566 -15.60305,-0.47775 -23.31906,-2.56981 -4.91206,-2.34767 -7.16724,-6.59485 -9.89522,-11.00158 0.0656,-3.53066 0.0605,-7.08237 -0.67218,-10.55263 -0.019,-3.56739 -3.32213,-4.30572 -6.11354,-5.87598 z"
         style="fill:#000000;fill-opacity:1;stroke:#000000;stroke-width:1px;stroke-linecap:butt;stroke-linejoin:miter;stroke-opacity:1"
         sodipodi:nodetypes="cccccccccc" />
      <path
         sodipodi:nodetypes="cccccccccccc"
         id="path3735"
         d="m 625.4374,739.79931 c 5.22324,16.22594 15.68968,30.16721 25.93007,43.56087 12.09112,12.12651 24.34179,24.16427 38.38661,34.03967 3.9747,1.72762 7.85127,4.42143 12.27144,4.47952 6.66398,-1.46656 13.41676,-2.69789 20.02574,-4.31013 2.76435,-1.44779 5.06647,-2.93792 9.68233,-4.13563 4.89832,-0.71428 7.6538,-0.35714 12.19498,-0.35714 0.46946,-2.06898 0.67765,-3.94832 -2.0322,-3.70964 -9.05151,-1.9212 -18.15695,-3.67516 -27.17496,-5.70027 -21.12715,-7.43044 -33.86683,-16.4489 -50.47705,-30.69484 -12.62682,-13.11844 -22.52751,-28.13835 -31.03007,-44.18097 -6.70463,0.35591 -7.12929,4.99122 -7.77689,11.00856 z"
         style="fill:#000000;fill-opacity:1;stroke:#000000;stroke-width:1px;stroke-linecap:butt;stroke-linejoin:miter;stroke-opacity:1" />
      <path
         id="path3737"
         d="m 653.21429,730.93361 c -0.57226,3.53908 -0.75872,7.19852 -2.39717,10.46073 -10.90681,21.78492 -30.96207,37.48078 -47.73125,54.62939 2.70713,2.54304 7.02406,2.90306 10.32254,1.32543 20.60517,-14.2875 36.58514,-33.53312 52.66302,-52.48698 1.50443,-3.72218 1.0813,-7.96393 -2.3792,-10.43504 -2.37615,-3.24807 -6.76996,-3.51498 -10.47794,-3.49353 z"
         style="fill:#000000;fill-opacity:1;stroke:#000000;stroke-width:1px;stroke-linecap:butt;stroke-linejoin:miter;stroke-opacity:1"
         sodipodi:nodetypes="ccccccc" />
      <path
         id="path3739"
         d="m 673.21429,739.1479 c -3.54619,3.71125 3.36182,4.32943 5.29844,6.49608 3.99165,2.07798 2.7995,7.32405 0.75877,10.37818 -7.23044,14.04178 -16.73851,26.9267 -25.56811,40.04306 -7.77832,9.70379 -17.96966,15.91185 -28.34625,22.36839 0.6709,4.40389 5.7769,1.66532 8.77418,2.2469 9.91689,-2.07197 19.8935,-9.94101 26.74797,-17.23023 14.67344,-16.49744 31.08452,-33.78316 37.24496,-55.46492 1.12418,-4.17584 -0.57689,-8.8229 -4.45341,-10.87315 -4.06481,-0.91604 -8.06427,1.55546 -12.17293,1.67214 -2.75269,0.24224 -5.52397,0.20614 -8.28362,0.36355 z"
         style="fill:#000000;fill-opacity:1;stroke:#000000;stroke-width:1px;stroke-linecap:butt;stroke-linejoin:miter;stroke-opacity:1"
         sodipodi:nodetypes="ccccccccccc" />
    </g>
    <path
       style="fill:none;stroke:#000000;stroke-width:2;stroke-linecap:butt;stroke-linejoin:miter;stroke-miterlimit:4;stroke-opacity:1;stroke-dasharray:6,6;stroke-dashoffset:0"
       d="M 44.441204,939.36357 127.27612,139.09014 422.24927,135.13817 248.49797,945.29153 44.441204,939.36357 z"
       id="path2831" />
    <path
       style="fill:none;stroke:#000000;stroke-width:2;stroke-linecap:butt;stroke-linejoin:miter;stroke-opacity:1;stroke-miterlimit:4;stroke-dasharray:6,6;stroke-dashoffset:0"
       d="m 434.36559,46.416004 -197.9899,894.995146 741.45197,-2.0203 -197.9899,-892.974846 -345.47217,0 z"
       id="path3605"
       transform="translate(0,52.362183)" />
  </g>
</svg>
