<?xml version="1.0" encoding="UTF-8" standalone="no"?>
<!-- Created with Inkscape (http://www.inkscape.org/) -->

<svg
   xmlns:dc="http://purl.org/dc/elements/1.1/"
   xmlns:cc="http://creativecommons.org/ns#"
   xmlns:rdf="http://www.w3.org/1999/02/22-rdf-syntax-ns#"
   xmlns:svg="http://www.w3.org/2000/svg"
   xmlns="http://www.w3.org/2000/svg"
   xmlns:sodipodi="http://sodipodi.sourceforge.net/DTD/sodipodi-0.dtd"
   xmlns:inkscape="http://www.inkscape.org/namespaces/inkscape"
   width="1000"
   height="1000"
   id="svg3173"
   version="1.1"
   inkscape:version="0.47 r22583"
   sodipodi:docname="ma_dot_spacing.svg"
   inkscape:export-filename="E:\chinese\images\yan_ma_dian_group.png"
   inkscape:export-xdpi="18.005705"
   inkscape:export-ydpi="18.005705">
  <title
     id="title2820">Ma</title>
  <defs
     id="defs3175">
    <inkscape:perspective
       sodipodi:type="inkscape:persp3d"
       inkscape:vp_x="0 : 526.18109 : 1"
       inkscape:vp_y="0 : 1000 : 0"
       inkscape:vp_z="744.09448 : 526.18109 : 1"
       inkscape:persp3d-origin="372.04724 : 350.78739 : 1"
       id="perspective3181" />
    <inkscape:perspective
       id="perspective3191"
       inkscape:persp3d-origin="0.5 : 0.33333333 : 1"
       inkscape:vp_z="1 : 0.5 : 1"
       inkscape:vp_y="0 : 1000 : 0"
       inkscape:vp_x="0 : 0.5 : 1"
       sodipodi:type="inkscape:persp3d" />
    <inkscape:perspective
       id="perspective4006"
       inkscape:persp3d-origin="0.5 : 0.33333333 : 1"
       inkscape:vp_z="1 : 0.5 : 1"
       inkscape:vp_y="0 : 1000 : 0"
       inkscape:vp_x="0 : 0.5 : 1"
       sodipodi:type="inkscape:persp3d" />
    <inkscape:perspective
       id="perspective4034"
       inkscape:persp3d-origin="0.5 : 0.33333333 : 1"
       inkscape:vp_z="1 : 0.5 : 1"
       inkscape:vp_y="0 : 1000 : 0"
       inkscape:vp_x="0 : 0.5 : 1"
       sodipodi:type="inkscape:persp3d" />
    <inkscape:perspective
       id="perspective4081"
       inkscape:persp3d-origin="0.5 : 0.33333333 : 1"
       inkscape:vp_z="1 : 0.5 : 1"
       inkscape:vp_y="0 : 1000 : 0"
       inkscape:vp_x="0 : 0.5 : 1"
       sodipodi:type="inkscape:persp3d" />
    <inkscape:perspective
       id="perspective4147"
       inkscape:persp3d-origin="0.5 : 0.33333333 : 1"
       inkscape:vp_z="1 : 0.5 : 1"
       inkscape:vp_y="0 : 1000 : 0"
       inkscape:vp_x="0 : 0.5 : 1"
       sodipodi:type="inkscape:persp3d" />
    <inkscape:perspective
       id="perspective3777"
       inkscape:persp3d-origin="0.5 : 0.33333333 : 1"
       inkscape:vp_z="1 : 0.5 : 1"
       inkscape:vp_y="0 : 1000 : 0"
       inkscape:vp_x="0 : 0.5 : 1"
       sodipodi:type="inkscape:persp3d" />
  </defs>
  <sodipodi:namedview
     id="base"
     pagecolor="#ffffff"
     bordercolor="#666666"
     borderopacity="1.0"
     inkscape:pageopacity="0.0"
     inkscape:pageshadow="2"
     inkscape:zoom="0.49497475"
     inkscape:cx="512.30086"
     inkscape:cy="511.42857"
     inkscape:document-units="px"
     inkscape:current-layer="layer1"
     showgrid="false"
     inkscape:window-width="1440"
     inkscape:window-height="840"
     inkscape:window-x="-4"
     inkscape:window-y="-4"
     inkscape:window-maximized="1" />
  <metadata
     id="metadata3178">
    <rdf:RDF>
      <cc:Work
         rdf:about="">
        <dc:format>image/svg+xml</dc:format>
        <dc:type
           rdf:resource="http://purl.org/dc/dcmitype/StillImage" />
        <dc:title>Ma</dc:title>
        <dc:date>2010-07-15</dc:date>
        <dc:creator>
          <cc:Agent>
            <dc:title>Alex Amies</dc:title>
          </cc:Agent>
        </dc:creator>
        <dc:rights>
          <cc:Agent>
            <dc:title>@ Alex Amies 2010</dc:title>
          </cc:Agent>
        </dc:rights>
        <dc:publisher>
          <cc:Agent>
            <dc:title>chinesenotes.com</dc:title>
          </cc:Agent>
        </dc:publisher>
        <dc:source>Yan Qin Ceremonial Inscription</dc:source>
        <dc:language>Chinese 中文</dc:language>
        <dc:description>Tracing from Tang Dynasty Ceremonial Inscription by Yan Zhenqing 颜真卿 (709－785)</dc:description>
        <cc:license
           rdf:resource="http://creativecommons.org/licenses/by/3.0/" />
      </cc:Work>
      <cc:License
         rdf:about="http://creativecommons.org/licenses/by/3.0/">
        <cc:permits
           rdf:resource="http://creativecommons.org/ns#Reproduction" />
        <cc:permits
           rdf:resource="http://creativecommons.org/ns#Distribution" />
        <cc:requires
           rdf:resource="http://creativecommons.org/ns#Notice" />
        <cc:requires
           rdf:resource="http://creativecommons.org/ns#Attribution" />
        <cc:permits
           rdf:resource="http://creativecommons.org/ns#DerivativeWorks" />
      </cc:License>
    </rdf:RDF>
  </metadata>
  <g
     inkscape:label="Layer 1"
     inkscape:groupmode="layer"
     id="layer1"
     transform="translate(0,-52.362183)">
    <g
       transform="matrix(4.7488612,0,0,4.7488612,-715.08836,-970.64946)"
       id="g4135"
       style="fill:none;fill-opacity:1">
      <path
         id="path4081"
         d="m 215.35714,237.00504 c -1.56038,2.85375 -1.16157,4.90759 -0.35714,7.85714 18.99925,-1.5954 38.3263,-7.15533 57.14286,-11.07143 7.49983,-0.59754 14.99016,-1.32162 22.5,-1.78571 0.95559,-4.21213 -0.67125,-7.05678 -2.5,-10.71429 -6.88218,-0.62934 -13.8404,0.4069 -20.68829,1.1628 -10.80812,2.94225 -21.57824,6.03204 -32.41063,8.88002 -7.8956,1.8905 -15.7912,3.78099 -23.6868,5.67149 l 0,-2e-5 z"
         style="fill:none;fill-opacity:1;stroke:#000000;stroke-width:1px;stroke-linecap:butt;stroke-linejoin:miter;stroke-opacity:1"
         sodipodi:nodetypes="ccccccccc" />
      <path
         id="path4083"
         d="m 205.71429,229.50504 c -4.31464,3.0552 -1.45084,8.60732 -2.1306,12.98295 0.0671,30.1121 -2.70094,60.3279 -0.84775,90.42704 0.94863,6.72892 2.52404,8.85521 8.3355,11.59001 11.78318,-5.46121 9.48851,-11.11106 8.40668,-23.65786 -3.59258,-26.50519 -0.69247,-53.14082 -1.7086,-79.70917 -1.69472,-7.0073 -4.67576,-11.11122 -12.05523,-11.63297 z"
         style="fill:none;fill-opacity:1;stroke:#000000;stroke-width:1px;stroke-linecap:butt;stroke-linejoin:miter;stroke-opacity:1"
         sodipodi:nodetypes="ccccccc" />
      <path
         id="path4085"
         d="m 215,267.36218 c -0.16849,2.07116 -0.0956,4.13282 1.35775,5.74383 1.5997,1.50619 4.89338,0.0574 7.05157,-0.16153 11.77669,-3.12489 23.53163,-6.38903 35.53606,-8.54353 7.40775,-1.6544 15.00087,-2.62864 22.22247,-5.0061 3.87799,-2.46171 2.03723,-6.67406 -2.16916,-7.16367 -3.60776,-0.0454 -7.32798,1.18599 -10.98081,1.62894 -9.53761,1.34922 -18.62464,4.64438 -27.90066,7.11549 -8.27943,2.52006 -16.67871,4.49458 -25.11722,6.38657 z"
         style="fill:none;fill-opacity:1;stroke:#000000;stroke-width:1px;stroke-linecap:butt;stroke-linejoin:miter;stroke-opacity:1" />
      <path
         id="path4087"
         d="m 216.07143,300.57647 c -0.15761,1.79371 -2.13793,4.04566 0.16768,5.20665 4.41397,1.69515 9.34177,-0.66079 13.81969,-1.46536 16.28829,-3.73977 32.43498,-8.1445 48.84704,-11.31355 3.34317,-0.63607 6.62768,1.29966 10.0319,0.78654 4.35553,1.20219 8.22644,-3.08796 4.32437,-6.47937 -1.20642,-1.29259 -2.41283,-2.58518 -3.61925,-3.87777 -4.29213,-0.11819 -8.68858,-1.37694 -12.84791,0.17527 -7.01107,1.05888 -12.74932,5.85256 -19.75292,6.87767 -10.58868,2.49189 -21.33126,4.39479 -31.79897,7.36322 -3.05721,0.9089 -6.11442,1.8178 -9.17163,2.7267 z"
         style="fill:none;fill-opacity:1;stroke:#000000;stroke-width:1px;stroke-linecap:butt;stroke-linejoin:miter;stroke-opacity:1" />
      <path
         id="path4089"
         d="m 246.07143,235.57647 c -4.1894,2.46639 -3.51066,7.2829 -3.52734,11.47903 0.48924,13.58862 0.48772,27.21072 1.2382,40.78067 0.52826,12.05759 4.23123,23.20942 8.00342,34.52601 1.78572,0.47619 3.57143,0.95238 5.35715,1.42857 3.43806,-2.63074 2.16192,-7.24402 2.68879,-10.98721 0.751,-19.27628 1.53097,-38.55283 1.48883,-57.84789 -0.35061,-4.88466 1.33656,-10.22547 -1.71631,-14.49345 -2.9951,-5.46557 -8.22267,-5.15127 -13.53274,-4.88573 z"
         style="fill:none;fill-opacity:1;stroke:#000000;stroke-width:1px;stroke-linecap:butt;stroke-linejoin:miter;stroke-opacity:1"
         sodipodi:nodetypes="ccccccccc" />
      <path
         id="path4091"
         d="m 217.5,330.93361 c 2.54433,11.79792 20.12157,1.64837 28.26874,0.97122 18.31799,-2.80551 36.62859,-5.65904 54.94555,-8.47122 11.16762,4.53257 6.6314,20.31801 7.50886,29.85233 -2.33527,15.2345 -5.47941,31.36573 -14.60656,44.10226 -6.9317,10.76572 -19.87722,-7.62737 -24.51443,-2.40411 3.68681,6.66624 13.85524,13.32795 3.96232,19.75806 1.35175,13.29342 21.50752,10.23699 29.09882,3.84067 13.76789,-7.02193 21.29672,-21.57329 27.25222,-35.1335 5.67692,-18.64272 5.10258,-38.66905 1.96894,-57.68823 -2.96378,-10.91641 -13.59867,-23.40439 -26.01973,-19.19974 -7.99811,5.82781 -16.86117,9.8896 -26.88831,10.58774 -20.39415,4.15964 -41.81594,5.03036 -60.97642,13.78452 z"
         style="fill:none;fill-opacity:1;stroke:#000000;stroke-width:1px;stroke-linecap:butt;stroke-linejoin:miter;stroke-opacity:1"
         sodipodi:nodetypes="ccccccccccccc" />
      <path
         id="path4093"
         d="m 156.42857,351.6479 c -3.63116,5.9601 5.3061,9.72093 7.92639,14.3213 3.67345,7.76253 9.33221,22.15992 20.43095,16.81935 4.20314,-4.19638 3.72444,-10.63825 2.95802,-16.00978 -5.05889,-13.98093 -18.41746,-14.89906 -31.31536,-15.13087 z"
         style="fill:#000000;fill-opacity:1;stroke:#000000;stroke-width:1px;stroke-linecap:butt;stroke-linejoin:miter;stroke-opacity:1"
         sodipodi:nodetypes="ccccc" />
      <path
         id="path4095"
         d="m 208.57143,344.86218 c -3.93535,1.35375 -5.43508,6.14699 -6.77693,9.62114 1.00049,9.661 6.90269,19.74107 16.73665,21.97084 6.62432,-0.14113 5.75456,-9.3549 5.75456,-14.09198 -3.93902,-7.39148 -8.74645,-13.09925 -15.71428,-17.5 z"
         style="fill:#000000;fill-opacity:1;stroke:#000000;stroke-width:1px;stroke-linecap:butt;stroke-linejoin:miter;stroke-opacity:1"
         sodipodi:nodetypes="ccccc" />
      <path
         id="path4097"
         d="m 230.35714,342.71932 c -1.4308,4.70604 4.28412,5.5138 6.50435,8.54162 3.62054,4.27448 6.55897,9.12268 10.44727,13.1839 3.44708,3.58011 11.22259,5.04907 10.70839,-2.09305 0.67298,-11.92365 -8.08484,-19.47692 -18.60677,-22.76627 -3.01775,1.0446 -6.03549,2.0892 -9.05324,3.1338 z"
         style="fill:#000000;fill-opacity:1;stroke:#000000;stroke-width:1px;stroke-linecap:butt;stroke-linejoin:miter;stroke-opacity:1"
         sodipodi:nodetypes="cccccc" />
      <path
         id="path4099"
         d="m 269.64286,345.57647 c 5.65404,3.74433 10.46875,8.60358 14.62806,13.93193 3.90534,4.87903 11.358,3.66842 14.02862,-1.66854 1.54599,-6.63029 -0.68622,-10.3757 -4.37099,-15.47768 -8.57902,-2.52887 -16.49675,-3.55498 -24.64286,0.35714 0.11908,0.95235 0.23812,1.90477 0.35717,2.85715 z"
         style="fill:#000000;fill-opacity:1;stroke:#000000;stroke-width:1px;stroke-linecap:butt;stroke-linejoin:miter;stroke-opacity:1"
         sodipodi:nodetypes="cccccc" />
    </g>
    <path
       style="fill:none;stroke:#000000;stroke-width:1px;stroke-linecap:butt;stroke-linejoin:miter;stroke-opacity:1"
       d="m 133.34014,826.25376 531.34023,0"
       id="path2830"
       transform="translate(0,52.362183)" />
    <path
       style="fill:none;stroke:#000000;stroke-width:1.17144501px;stroke-linecap:butt;stroke-linejoin:miter;stroke-opacity:1"
       d="m 662.66007,771.62549 0,123.06717"
       id="path2832" />
    <path
       style="fill:none;stroke:#000000;stroke-width:1.10809612px;stroke-linecap:butt;stroke-linejoin:miter;stroke-opacity:1"
       d="m 464.67017,795.89737 0,96.74677"
       id="path2834" />
    <path
       style="fill:none;stroke:#000000;stroke-width:1px;stroke-linecap:butt;stroke-linejoin:miter;stroke-opacity:1"
       d="m 321.22851,777.76644 0,64.64976"
       id="path2836"
       transform="translate(0,52.362183)" />
    <path
       style="fill:none;stroke:#000000;stroke-width:1px;stroke-linecap:butt;stroke-linejoin:miter;stroke-opacity:1"
       d="m 133.34014,810.09132 0,32.32488"
       id="path2838"
       transform="translate(0,52.362183)" />
    <text
       xml:space="preserve"
       style="font-size:56;font-style:normal;font-variant:normal;font-weight:normal;font-stretch:normal;fill:#000000;fill-opacity:1;stroke:none;font-family:Arial;-inkscape-font-specification:Arial"
       x="185.86807"
       y="917.29474"
       id="text2840"><tspan
         sodipodi:role="line"
         id="tspan2842"
         x="185.86807"
         y="917.29474">far</tspan></text>
    <text
       xml:space="preserve"
       style="font-size:56;font-style:normal;font-variant:normal;font-weight:normal;font-stretch:normal;fill:#000000;fill-opacity:1;stroke:none;font-family:Arial;-inkscape-font-specification:Arial"
       x="331.33005"
       y="919.02209"
       id="text2844"><tspan
         sodipodi:role="line"
         id="tspan2846"
         x="331.33005"
         y="919.02209">close</tspan></text>
    <text
       xml:space="preserve"
       style="font-size:56;font-style:normal;font-variant:normal;font-weight:normal;font-stretch:normal;fill:#000000;fill-opacity:1;stroke:none;font-family:Arial;-inkscape-font-specification:Arial"
       x="503.05597"
       y="917.29474"
       id="text2848"><tspan
         sodipodi:role="line"
         id="tspan2850"
         x="503.05597"
         y="917.29474">far</tspan></text>
  </g>
</svg>
