<?xml version="1.0" encoding="UTF-8" standalone="no"?>
<!-- Created with Inkscape (http://www.inkscape.org/) -->

<svg
   xmlns:dc="http://purl.org/dc/elements/1.1/"
   xmlns:cc="http://creativecommons.org/ns#"
   xmlns:rdf="http://www.w3.org/1999/02/22-rdf-syntax-ns#"
   xmlns:svg="http://www.w3.org/2000/svg"
   xmlns="http://www.w3.org/2000/svg"
   xmlns:sodipodi="http://sodipodi.sourceforge.net/DTD/sodipodi-0.dtd"
   xmlns:inkscape="http://www.inkscape.org/namespaces/inkscape"
   width="1000"
   height="1000"
   id="svg3173"
   version="1.1"
   inkscape:version="0.47 r22583"
   sodipodi:docname="meng_shangzhongxia.svg"
   inkscape:export-filename="E:\chinese\images\yan_ren_short_horizontal.png"
   inkscape:export-xdpi="18.005705"
   inkscape:export-ydpi="18.005705">
  <title
     id="title3790">Meng Showing Top-Middle-Bottom Structure</title>
  <defs
     id="defs3175">
    <inkscape:perspective
       sodipodi:type="inkscape:persp3d"
       inkscape:vp_x="0 : 526.18109 : 1"
       inkscape:vp_y="0 : 1000 : 0"
       inkscape:vp_z="744.09448 : 526.18109 : 1"
       inkscape:persp3d-origin="372.04724 : 350.78739 : 1"
       id="perspective3181" />
    <inkscape:perspective
       id="perspective3191"
       inkscape:persp3d-origin="0.5 : 0.33333333 : 1"
       inkscape:vp_z="1 : 0.5 : 1"
       inkscape:vp_y="0 : 1000 : 0"
       inkscape:vp_x="0 : 0.5 : 1"
       sodipodi:type="inkscape:persp3d" />
    <inkscape:perspective
       id="perspective4006"
       inkscape:persp3d-origin="0.5 : 0.33333333 : 1"
       inkscape:vp_z="1 : 0.5 : 1"
       inkscape:vp_y="0 : 1000 : 0"
       inkscape:vp_x="0 : 0.5 : 1"
       sodipodi:type="inkscape:persp3d" />
    <inkscape:perspective
       id="perspective4034"
       inkscape:persp3d-origin="0.5 : 0.33333333 : 1"
       inkscape:vp_z="1 : 0.5 : 1"
       inkscape:vp_y="0 : 1000 : 0"
       inkscape:vp_x="0 : 0.5 : 1"
       sodipodi:type="inkscape:persp3d" />
    <inkscape:perspective
       id="perspective4081"
       inkscape:persp3d-origin="0.5 : 0.33333333 : 1"
       inkscape:vp_z="1 : 0.5 : 1"
       inkscape:vp_y="0 : 1000 : 0"
       inkscape:vp_x="0 : 0.5 : 1"
       sodipodi:type="inkscape:persp3d" />
    <inkscape:perspective
       id="perspective4147"
       inkscape:persp3d-origin="0.5 : 0.33333333 : 1"
       inkscape:vp_z="1 : 0.5 : 1"
       inkscape:vp_y="0 : 1000 : 0"
       inkscape:vp_x="0 : 0.5 : 1"
       sodipodi:type="inkscape:persp3d" />
    <inkscape:perspective
       id="perspective3858"
       inkscape:persp3d-origin="0.5 : 0.33333333 : 1"
       inkscape:vp_z="1 : 0.5 : 1"
       inkscape:vp_y="0 : 1000 : 0"
       inkscape:vp_x="0 : 0.5 : 1"
       sodipodi:type="inkscape:persp3d" />
    <inkscape:perspective
       id="perspective3876"
       inkscape:persp3d-origin="0.5 : 0.33333333 : 1"
       inkscape:vp_z="1 : 0.5 : 1"
       inkscape:vp_y="0 : 1000 : 0"
       inkscape:vp_x="0 : 0.5 : 1"
       sodipodi:type="inkscape:persp3d" />
    <inkscape:perspective
       id="perspective3901"
       inkscape:persp3d-origin="0.5 : 0.33333333 : 1"
       inkscape:vp_z="1 : 0.5 : 1"
       inkscape:vp_y="0 : 1000 : 0"
       inkscape:vp_x="0 : 0.5 : 1"
       sodipodi:type="inkscape:persp3d" />
    <inkscape:perspective
       id="perspective4392"
       inkscape:persp3d-origin="0.5 : 0.33333333 : 1"
       inkscape:vp_z="1 : 0.5 : 1"
       inkscape:vp_y="0 : 1000 : 0"
       inkscape:vp_x="0 : 0.5 : 1"
       sodipodi:type="inkscape:persp3d" />
    <inkscape:perspective
       id="perspective4888"
       inkscape:persp3d-origin="0.5 : 0.33333333 : 1"
       inkscape:vp_z="1 : 0.5 : 1"
       inkscape:vp_y="0 : 1000 : 0"
       inkscape:vp_x="0 : 0.5 : 1"
       sodipodi:type="inkscape:persp3d" />
    <inkscape:perspective
       id="perspective3670"
       inkscape:persp3d-origin="0.5 : 0.33333333 : 1"
       inkscape:vp_z="1 : 0.5 : 1"
       inkscape:vp_y="0 : 1000 : 0"
       inkscape:vp_x="0 : 0.5 : 1"
       sodipodi:type="inkscape:persp3d" />
    <inkscape:perspective
       id="perspective3670-1"
       inkscape:persp3d-origin="0.5 : 0.33333333 : 1"
       inkscape:vp_z="1 : 0.5 : 1"
       inkscape:vp_y="0 : 1000 : 0"
       inkscape:vp_x="0 : 0.5 : 1"
       sodipodi:type="inkscape:persp3d" />
    <inkscape:perspective
       id="perspective3670-4"
       inkscape:persp3d-origin="0.5 : 0.33333333 : 1"
       inkscape:vp_z="1 : 0.5 : 1"
       inkscape:vp_y="0 : 1000 : 0"
       inkscape:vp_x="0 : 0.5 : 1"
       sodipodi:type="inkscape:persp3d" />
  </defs>
  <sodipodi:namedview
     id="base"
     pagecolor="#ffffff"
     bordercolor="#666666"
     borderopacity="1.0"
     inkscape:pageopacity="0.0"
     inkscape:pageshadow="2"
     inkscape:zoom="0.49497475"
     inkscape:cx="140.87229"
     inkscape:cy="514.50449"
     inkscape:document-units="px"
     inkscape:current-layer="layer1"
     showgrid="false"
     inkscape:window-width="1440"
     inkscape:window-height="840"
     inkscape:window-x="-4"
     inkscape:window-y="-4"
     inkscape:window-maximized="1" />
  <metadata
     id="metadata3178">
    <rdf:RDF>
      <cc:Work
         rdf:about="">
        <dc:format>image/svg+xml</dc:format>
        <dc:type
           rdf:resource="http://purl.org/dc/dcmitype/StillImage" />
        <dc:title>Meng Showing Top-Middle-Bottom Structure</dc:title>
        <dc:date>2010-07-13</dc:date>
        <dc:creator>
          <cc:Agent>
            <dc:title>Alex Amies</dc:title>
          </cc:Agent>
        </dc:creator>
        <dc:rights>
          <cc:Agent>
            <dc:title>@ Alex Amies 2010</dc:title>
          </cc:Agent>
        </dc:rights>
        <dc:publisher>
          <cc:Agent>
            <dc:title>chinesenotes.com</dc:title>
          </cc:Agent>
        </dc:publisher>
        <dc:source>Yan Qin Ceremonial Inscription</dc:source>
        <dc:language>Chinese 中文</dc:language>
        <dc:description>Tracing from Tang Dynasty Ceremonial Inscription by Yan Zhenqing 颜真卿 (709－785)</dc:description>
        <cc:license
           rdf:resource="http://creativecommons.org/licenses/by/3.0/" />
      </cc:Work>
      <cc:License
         rdf:about="http://creativecommons.org/licenses/by/3.0/">
        <cc:permits
           rdf:resource="http://creativecommons.org/ns#Reproduction" />
        <cc:permits
           rdf:resource="http://creativecommons.org/ns#Distribution" />
        <cc:requires
           rdf:resource="http://creativecommons.org/ns#Notice" />
        <cc:requires
           rdf:resource="http://creativecommons.org/ns#Attribution" />
        <cc:permits
           rdf:resource="http://creativecommons.org/ns#DerivativeWorks" />
      </cc:License>
    </rdf:RDF>
  </metadata>
  <g
     inkscape:label="Layer 1"
     inkscape:groupmode="layer"
     id="layer1"
     transform="translate(0,-52.362183)">
    <g
       transform="matrix(4.5165186,0,0,4.5165186,-1484.7249,-997.58926)"
       id="g10806"
       style="fill:#000000;fill-opacity:1">
      <path
         id="path10759"
         d="m 366.78571,264.50504 c -3.88212,0.44931 -6.48976,4.65336 -5.67907,8.38484 0.43794,4.43198 4.19541,7.28023 6.67376,10.63644 1.66141,2.27428 4.69247,3.57761 7.38265,2.30059 4.95952,-2.10642 7.80402,-7.39452 13.03822,-9.05803 10.15342,-3.9689 21.57849,-3.91709 31.23859,-9.28605 2.46347,-0.72613 5.6244,-3.40223 3.38385,-6.04497 -3.46082,-4.08487 -9.39496,-6.3742 -14.58571,-4.44709 -6.21654,1.58693 -12.23748,3.80387 -18.24673,6.03199 -5.47782,1.86817 -11.16365,3.79143 -17.02169,3.5981 -2.37432,0.0519 -4.1436,-1.35264 -6.18387,-2.11582 z"
         style="fill:#000000;fill-opacity:1;stroke:#000000;stroke-width:1px;stroke-linecap:butt;stroke-linejoin:miter;stroke-opacity:1" />
      <path
         id="path10762"
         d="m 385.71429,241.29075 c -2.03719,1.13762 -2.24885,3.77939 -2.72729,5.82702 -0.62959,4.48838 1.12092,8.78937 2.9977,12.75834 3.29165,8.11338 6.48884,16.2817 10.49781,24.077 1.71366,3.84059 3.62716,8.32578 7.92653,9.82648 2.63854,0.8134 5.93841,0.29067 7.85367,-1.79884 1.787,-2.46297 0.0792,-5.49015 -0.24786,-8.14075 -1.12994,-4.88654 -3.25575,-9.47292 -4.48832,-14.33495 -1.66721,-5.95176 -3.47562,-11.88449 -6.10121,-17.49506 -1.46083,-3.53427 -3.52184,-7.41767 -7.48968,-8.54509 -2.32734,-0.6115 -4.54272,-1.54474 -6.80774,-2.31426 -0.47137,-0.0849 -0.97347,-0.0632 -1.41361,0.14011 z"
         style="fill:#000000;fill-opacity:1;stroke:#000000;stroke-width:1px;stroke-linecap:butt;stroke-linejoin:miter;stroke-opacity:1" />
      <path
         sodipodi:nodetypes="cccccccsccccc"
         id="path10765"
         d="m 440.35714,252.36218 c -1.68118,1.98925 -0.3195,4.91644 1.50778,6.2866 2.006,1.67763 4.71389,1.94174 7.22249,1.92924 8.15674,0.67997 16.29355,1.74762 24.48918,1.81383 2.80311,0.16027 6.04018,0.8326 8.36445,-1.21046 1.62579,-1.68702 2.91852,-3.76205 3.8742,-5.90045 0.88705,-2.68119 -1.03915,-5.30645 -3.00527,-6.94476 -1.50766,-1.33473 -3.34598,-2.34905 -5.40256,-2.39604 -4.77319,-0.11369 -9.55003,0.43001 -14.25259,1.22636 -5.54999,1.00836 -11.06612,2.28775 -16.46203,3.92226 -1.78233,0.76829 -3.39416,0.78312 -5.74329,1.22327 -0.19218,-0.0594 -0.41778,-0.0669 -0.59236,0.0502 l 0,-5e-5 z"
         style="fill:#000000;fill-opacity:1;stroke:#000000;stroke-width:1px;stroke-linecap:butt;stroke-linejoin:miter;stroke-opacity:1" />
      <path
         id="path10770"
         d="m 453.57143,236.29075 c -1.07993,1.383 -0.62137,3.28606 -0.68152,4.9117 0.656,3.82651 0.13728,7.7254 -0.0656,11.5714 -0.51178,5.46943 -1.16792,10.97628 -2.6867,16.26718 -1.25683,3.4467 -2.95673,6.78665 -3.30465,10.49517 -0.53497,2.15307 0.15415,4.45235 1.8091,5.9286 2.87561,3.01165 8.08232,3.77654 11.43978,1.15043 2.38072,-1.9597 0.32481,-5.06303 0.65404,-7.55866 0.004,-4.23739 0.83891,-8.44487 2.54923,-12.32714 3.03845,-7.42111 7.84127,-14.47192 8.06966,-22.73907 0.30846,-4.23196 -2.95147,-8.42594 -7.22941,-8.85264 -2.94888,-0.37197 -5.92733,0.0621 -8.86671,0.31028 -0.62206,0.12359 -1.24753,0.36836 -1.68726,0.84275 z"
         style="fill:#000000;fill-opacity:1;stroke:#000000;stroke-width:1px;stroke-linecap:butt;stroke-linejoin:miter;stroke-opacity:1" />
      <path
         id="path10773"
         d="m 376.07143,300.57647 c -1.48602,-0.57237 -3.62197,-0.63887 -4.50614,0.94767 -1.22533,1.94202 -1.10245,4.36571 -0.60322,6.51585 0.30237,2.43629 -0.0574,4.94187 -0.82168,7.26188 -0.46494,1.62986 -2.06299,2.28015 -3.29242,3.20487 -1.26523,1.06365 -1.27268,2.88469 -1.34635,4.40246 0.0501,2.63724 1.05046,5.58536 3.49177,6.91515 2.44403,1.48363 5.74616,1.45216 8.06679,-0.27038 2.94699,-2.02049 4.17487,-5.63258 4.79782,-8.99485 0.54685,-2.95236 1.14667,-5.90722 1.43107,-8.898 0.18094,-2.47438 -0.42953,-5.14302 -2.30786,-6.88144 -1.3498,-1.39079 -2.67665,-2.86103 -4.29824,-3.93618 -0.19593,-0.10579 -0.40015,-0.19675 -0.61154,-0.26703 z"
         style="fill:#000000;fill-opacity:1;stroke:#000000;stroke-width:1px;stroke-linecap:butt;stroke-linejoin:miter;stroke-opacity:1" />
      <path
         sodipodi:nodetypes="cccccccccccccccc"
         id="path10775"
         d="m 388.21429,298.79075 c -4.67171,1.06001 -3.26418,6.55043 1.30168,5.9414 16.71808,-3.95553 31.75191,-6.51442 47.65422,-9.63564 10.07013,-2.2531 20.37878,-3.44208 30.69934,-3.172 4.22309,-1.39157 10.67097,2.05757 6.94755,6.92166 -2.27931,3.4789 -5.68812,6.02465 -8.11271,9.38955 -2.93521,4.05972 1.23335,2.02418 4.13943,1.19773 4.86815,-3.15439 10.13024,-5.65574 15.43482,-8.02333 4.2635,-2.69799 5.5037,2.01934 6.93567,4.88063 3.63105,2.20329 8.38782,0.82541 11.90866,-0.96881 4.91252,-3.37202 1.60795,-9.94098 -0.72315,-13.89599 -2.60531,-5.54437 -7.89448,-10.97665 -14.39013,-10.95432 -11.58722,2.04757 -23.26608,3.69562 -34.91396,5.43074 -12.25874,1.59511 -24.66177,2.05073 -36.79376,4.59278 -9.52764,1.83712 -19.16443,3.71843 -28.22204,7.26173 -0.64099,0.30842 -1.26604,0.65083 -1.86562,1.03387 z"
         style="fill:#000000;fill-opacity:1;stroke:#000000;stroke-width:1px;stroke-linecap:butt;stroke-linejoin:miter;stroke-opacity:1" />
      <path
         id="path10780"
         d="m 403.21429,311.6479 c -3.2148,0.75969 -5.52996,4.84332 -3.64975,7.82794 2.35018,4.39026 7.78452,7.31329 12.71989,5.8363 10.06361,-1.94119 19.48818,-6.10122 29.30732,-8.91145 2.83935,-0.864 5.81252,-2.09779 8.81295,-1.25665 2.02505,0.53595 3.51984,-1.31944 3.90494,-3.1003 0.67659,-2.21284 1.72533,-4.94275 -0.009,-6.95496 -1.3017,-1.94934 -4.01209,-2.1328 -5.92096,-1.01854 -2.3116,1.22048 -4.44534,2.84741 -7.04883,3.41997 -9.5527,3.07776 -19.07755,7.33849 -29.30902,7.15787 -2.41276,0.21972 -4.58988,-0.8034 -6.3801,-2.36504 -0.71183,-0.45465 -1.56652,-0.82384 -2.42793,-0.63514 z"
         style="fill:#000000;fill-opacity:1;stroke:#000000;stroke-width:1px;stroke-linecap:butt;stroke-linejoin:miter;stroke-opacity:1" />
      <path
         id="path10783"
         d="m 391.07143,338.79075 c -2.6172,0.76966 -4.05471,3.49694 -6.70537,4.2493 -3.58529,1.20236 -1.18894,5.17366 1.05497,6.35547 2.03799,1.61605 5.4817,3.12961 7.61787,0.88021 1.57565,-2.56081 4.08954,-4.13734 6.88062,-5.1274 10.47395,-4.36367 21.90742,-5.25272 32.95909,-7.31331 6.11662,-0.89158 12.30503,-1.60909 18.49075,-1.47794 2.4052,0.63053 5.29846,0.7801 7.07355,-1.3264 1.61838,-2.37795 -0.28536,-5.37898 -2.11012,-7.03972 -4.64005,-3.46058 -11.57473,-3.02225 -16.09498,0.44604 -7.56651,4.72612 -16.35245,6.87359 -24.89448,9.11164 -5.39902,1.23998 -10.91111,2.30578 -16.4674,2.27661 -2.6098,-0.25323 -5.14405,-1.65905 -7.8045,-1.0345 z"
         style="fill:#000000;fill-opacity:1;stroke:#000000;stroke-width:1px;stroke-linecap:butt;stroke-linejoin:miter;stroke-opacity:1" />
      <path
         sodipodi:nodetypes="cccccccccccccc"
         id="path10786"
         d="m 420.35714,338.07647 c -2.42188,1.01642 -3.49117,3.88624 -4.08947,6.25499 -1.37149,4.01696 -4.04723,7.47366 -6.69439,10.74628 -7.40157,8.60619 -17.37444,14.31038 -26.39073,21.00153 -3.25288,2.09271 -6.26003,3.2294 -8.66972,6.49592 -2.02908,2.66552 0.15029,4.10238 2.57758,3.39865 3.87115,-2.80583 6.63904,-4.34553 10.07385,-6.06547 5.6748,-3.59793 11.00535,-7.10935 16.68601,-10.70795 5.35388,-3.63374 10.54605,-7.49727 15.80123,-11.2686 4.01398,-3.08219 7.70086,-7.61509 7.59752,-12.92516 -0.29426,-3.31808 -3.2383,-5.79792 -6.14698,-6.94489 l -0.37297,-0.032 -0.37193,0.0467 0,0 z"
         style="fill:#000000;fill-opacity:1;stroke:#000000;stroke-width:1px;stroke-linecap:butt;stroke-linejoin:miter;stroke-opacity:1" />
      <path
         sodipodi:nodetypes="cccccccccc"
         id="path10789"
         d="m 416.42857,355.93361 c -5.77976,3.89776 3.7536,7.82583 5.93369,11.12065 12.74966,10.91604 23.21327,24.5796 37.7636,33.30673 9.79108,6.25368 18.81949,13.59147 28.08843,20.57262 13.32568,-1.19535 24.9745,-11.00851 38.4945,-11.06183 8.06176,0.55078 6.54808,-4.27901 0.37566,-5.0703 -9.06143,-1.85513 -15.82041,-2.31733 -24.97909,-3.54117 -16.82216,-1.34352 -32.58645,-8.72866 -46.38609,-18.10676 -8.02015,-6.03786 -14.38199,-13.9426 -22.2524,-20.16757 -4.4705,-4.19554 -10.46913,-9.1947 -17.0383,-7.05237 z"
         style="fill:#000000;fill-opacity:1;stroke:#000000;stroke-width:1px;stroke-linecap:butt;stroke-linejoin:miter;stroke-opacity:1" />
      <path
         sodipodi:nodetypes="cccccccccccc"
         id="path10792"
         d="m 420.71429,361.29075 c -3.51206,-0.63173 -5.4127,3.28068 -7.5938,5.33211 -2.53512,3.59083 -4.28738,7.70551 -7.25279,10.99666 -4.8696,6.49771 -9.76113,12.57712 -16.64803,16.97267 -2.73637,2.02818 -5.7739,5.29781 -8.68105,7.10078 -3.97588,3.93071 -6.34536,6.13221 -10.32911,8.49535 -2.53276,2.29271 0.1973,3.99421 3.03843,2.55741 5.27739,-3.02674 9.9692,-5.64756 15.31377,-8.61446 6.32196,-6.69557 15.64345,-10.2224 20.54379,-18.31227 4.21613,-3.59113 6.8323,-8.87808 9.51673,-12.08483 2.81629,-2.71312 4.20737,-6.91945 3.44029,-10.75531 -0.21756,-0.70543 -0.6893,-1.33928 -1.34823,-1.68811 z"
         style="fill:#000000;fill-opacity:1;stroke:#000000;stroke-width:1px;stroke-linecap:butt;stroke-linejoin:miter;stroke-opacity:1" />
      <path
         sodipodi:nodetypes="cccccccccccc"
         id="path10796"
         d="m 432.14286,370.21933 c -3.10973,-0.0276 -4.99397,3.3424 -6.15195,5.86392 -4.12824,7.45292 -6.86661,15.80787 -12.64466,22.24113 -9.61606,10.93871 -21.98844,18.8925 -34.07618,26.79833 -3.54059,2.21672 -7.11173,4.38436 -10.69864,6.52519 4.17963,1.10174 7.63399,0.74629 11.75861,-0.99843 6.69785,-2.39635 13.33155,-6.89924 18.94784,-11.18087 4.87483,-4.27939 9.56998,-7.70579 14.56081,-11.86241 6.34131,-5.25962 10.25589,-12.86221 14.01845,-19.88683 2.50567,-3.38865 4.91253,-7.62713 6.31233,-10.8601 -0.12059,-2.19548 0.0259,-5.32839 -2.02661,-6.6399 l 0,-3e-5 z"
         style="fill:#000000;fill-opacity:1;stroke:#000000;stroke-width:1px;stroke-linecap:butt;stroke-linejoin:miter;stroke-opacity:1" />
      <path
         id="path10799"
         d="m 437.14286,378.07647 c -4.36983,0.58179 -4.32723,5.55668 -1.86011,8.20486 1.75422,3.5482 0.27069,7.6371 -0.66967,11.21595 -1.9804,5.36954 -3.06372,11.00288 -4.84389,16.4302 -3.21156,8.77475 -10.89399,14.7325 -17.76231,20.60306 -2.94009,3.18969 -7.06616,3.28799 -10.92726,3.34319 -2.73476,1.1948 -5.1288,4.36941 -3.68998,7.40559 1.75,4.84235 7.72304,5.74905 12.18941,4.99476 5.54625,-0.83154 9.39465,-5.34613 13.38963,-8.85696 5.4101,-5.54492 10.33236,-11.57194 14.92815,-17.80355 4.42076,-6.65363 7.68371,-14.4534 7.38458,-22.57419 -0.19708,-4.21298 0.49503,-8.3693 0.86525,-12.54598 0.14892,-4.6858 -3.32052,-9.55478 -7.98761,-10.4722 l -0.51197,-0.009 -0.50422,0.0641 0,0 z"
         style="fill:#000000;fill-opacity:1;stroke:#000000;stroke-width:1px;stroke-linecap:butt;stroke-linejoin:miter;stroke-opacity:1" />
      <path
         id="path10802"
         d="m 481.07143,344.50504 c -2.32889,0.27308 -3.74986,2.43279 -5.28591,3.96583 -2.03468,2.63571 -3.79325,5.513 -6.30649,7.74223 -4.21985,4.32059 -9.16851,7.81749 -14.138,11.20833 -2.76502,2.05939 -5.29725,4.40559 -7.84103,6.72647 2.02381,0.35714 4.04762,0.71429 6.07143,1.07143 4.39041,-0.81117 8.92457,-1.96162 12.36773,-4.9753 3.80212,-2.83728 8.01028,-5.04505 12.2956,-7.04696 2.65368,-1.42943 5.56784,-2.74862 8.65606,-2.45155 2.45318,0.002 5.1933,-0.72167 6.67667,-2.80117 1.09911,-1.96977 -0.35608,-3.9925 -1.67402,-5.40795 -1.94793,-1.9949 -3.80136,-4.09727 -5.90791,-5.92711 -1.39254,-1.1404 -3.07015,-2.07774 -4.91413,-2.10425 z"
         style="fill:#000000;fill-opacity:1;stroke:#000000;stroke-width:1px;stroke-linecap:butt;stroke-linejoin:miter;stroke-opacity:1" />
    </g>
    <path
       style="fill:none;stroke:#000000;stroke-width:1.56535113;stroke-linecap:butt;stroke-linejoin:miter;stroke-miterlimit:4;stroke-opacity:1;stroke-dasharray:4.69605363, 4.69605363;stroke-dashoffset:0"
       d="m 144.23199,61.161705 0,264.315045 566.12506,0 0,-265.508763 -566.12506,1.193718 z"
       id="path2853"
       sodipodi:nodetypes="ccccc" />
    <path
       style="fill:none;stroke:#000000;stroke-width:1.55699992;stroke-linecap:butt;stroke-linejoin:miter;stroke-miterlimit:4;stroke-opacity:1;stroke-dasharray:4.67099975, 4.67099975;stroke-dashoffset:0"
       d="m 162.41057,269.08549 0,228.12138 648.96591,0 0,-229.15163 -648.96591,1.03025 z"
       id="path2853-7"
       sodipodi:nodetypes="ccccc" />
    <path
       style="fill:none;stroke:#000000;stroke-width:2;stroke-linecap:butt;stroke-linejoin:miter;stroke-miterlimit:4;stroke-opacity:1;stroke-dasharray:6,6;stroke-dashoffset:0"
       d="m 177.08673,473.1712 0,564.9434 744.87251,0 0,-567.49482 -744.87251,2.55142 z"
       id="path2853-0"
       sodipodi:nodetypes="ccccc" />
  </g>
</svg>
