<?xml version="1.0" encoding="UTF-8" standalone="no"?>
<!-- Created with Inkscape (http://www.inkscape.org/) -->

<svg
   xmlns:dc="http://purl.org/dc/elements/1.1/"
   xmlns:cc="http://creativecommons.org/ns#"
   xmlns:rdf="http://www.w3.org/1999/02/22-rdf-syntax-ns#"
   xmlns:svg="http://www.w3.org/2000/svg"
   xmlns="http://www.w3.org/2000/svg"
   xmlns:sodipodi="http://sodipodi.sourceforge.net/DTD/sodipodi-0.dtd"
   xmlns:inkscape="http://www.inkscape.org/namespaces/inkscape"
   width="1000"
   height="1000"
   id="svg3173"
   version="1.1"
   inkscape:version="0.47 r22583"
   sodipodi:docname="qing_zuozhongyou.svg"
   inkscape:export-filename="E:\chinese\images\yan_qing_zuozhongyou.png"
   inkscape:export-xdpi="18.005705"
   inkscape:export-ydpi="18.005705">
  <title
     id="title2820">Qing</title>
  <defs
     id="defs3175">
    <inkscape:perspective
       sodipodi:type="inkscape:persp3d"
       inkscape:vp_x="0 : 526.18109 : 1"
       inkscape:vp_y="0 : 1000 : 0"
       inkscape:vp_z="744.09448 : 526.18109 : 1"
       inkscape:persp3d-origin="372.04724 : 350.78739 : 1"
       id="perspective3181" />
    <inkscape:perspective
       id="perspective3191"
       inkscape:persp3d-origin="0.5 : 0.33333333 : 1"
       inkscape:vp_z="1 : 0.5 : 1"
       inkscape:vp_y="0 : 1000 : 0"
       inkscape:vp_x="0 : 0.5 : 1"
       sodipodi:type="inkscape:persp3d" />
    <inkscape:perspective
       id="perspective4006"
       inkscape:persp3d-origin="0.5 : 0.33333333 : 1"
       inkscape:vp_z="1 : 0.5 : 1"
       inkscape:vp_y="0 : 1000 : 0"
       inkscape:vp_x="0 : 0.5 : 1"
       sodipodi:type="inkscape:persp3d" />
    <inkscape:perspective
       id="perspective4034"
       inkscape:persp3d-origin="0.5 : 0.33333333 : 1"
       inkscape:vp_z="1 : 0.5 : 1"
       inkscape:vp_y="0 : 1000 : 0"
       inkscape:vp_x="0 : 0.5 : 1"
       sodipodi:type="inkscape:persp3d" />
    <inkscape:perspective
       id="perspective4081"
       inkscape:persp3d-origin="0.5 : 0.33333333 : 1"
       inkscape:vp_z="1 : 0.5 : 1"
       inkscape:vp_y="0 : 1000 : 0"
       inkscape:vp_x="0 : 0.5 : 1"
       sodipodi:type="inkscape:persp3d" />
    <inkscape:perspective
       id="perspective4147"
       inkscape:persp3d-origin="0.5 : 0.33333333 : 1"
       inkscape:vp_z="1 : 0.5 : 1"
       inkscape:vp_y="0 : 1000 : 0"
       inkscape:vp_x="0 : 0.5 : 1"
       sodipodi:type="inkscape:persp3d" />
    <inkscape:perspective
       id="perspective3737"
       inkscape:persp3d-origin="0.5 : 0.33333333 : 1"
       inkscape:vp_z="1 : 0.5 : 1"
       inkscape:vp_y="0 : 1000 : 0"
       inkscape:vp_x="0 : 0.5 : 1"
       sodipodi:type="inkscape:persp3d" />
    <inkscape:perspective
       id="perspective2856"
       inkscape:persp3d-origin="0.5 : 0.33333333 : 1"
       inkscape:vp_z="1 : 0.5 : 1"
       inkscape:vp_y="0 : 1000 : 0"
       inkscape:vp_x="0 : 0.5 : 1"
       sodipodi:type="inkscape:persp3d" />
    <inkscape:perspective
       id="perspective2856-9"
       inkscape:persp3d-origin="0.5 : 0.33333333 : 1"
       inkscape:vp_z="1 : 0.5 : 1"
       inkscape:vp_y="0 : 1000 : 0"
       inkscape:vp_x="0 : 0.5 : 1"
       sodipodi:type="inkscape:persp3d" />
    <inkscape:perspective
       id="perspective2856-8"
       inkscape:persp3d-origin="0.5 : 0.33333333 : 1"
       inkscape:vp_z="1 : 0.5 : 1"
       inkscape:vp_y="0 : 1000 : 0"
       inkscape:vp_x="0 : 0.5 : 1"
       sodipodi:type="inkscape:persp3d" />
  </defs>
  <sodipodi:namedview
     id="base"
     pagecolor="#ffffff"
     bordercolor="#666666"
     borderopacity="1.0"
     inkscape:pageopacity="0.0"
     inkscape:pageshadow="2"
     inkscape:zoom="0.49497475"
     inkscape:cx="718.01515"
     inkscape:cy="482.85714"
     inkscape:document-units="px"
     inkscape:current-layer="layer1"
     showgrid="false"
     inkscape:window-width="1440"
     inkscape:window-height="840"
     inkscape:window-x="-4"
     inkscape:window-y="-4"
     inkscape:window-maximized="1" />
  <metadata
     id="metadata3178">
    <rdf:RDF>
      <cc:Work
         rdf:about="">
        <dc:format>image/svg+xml</dc:format>
        <dc:type
           rdf:resource="http://purl.org/dc/dcmitype/StillImage" />
        <dc:title>Qing</dc:title>
        <dc:date>2010-07-27</dc:date>
        <dc:creator>
          <cc:Agent>
            <dc:title>Alex Amies</dc:title>
          </cc:Agent>
        </dc:creator>
        <dc:rights>
          <cc:Agent>
            <dc:title>@ Alex Amies 2010</dc:title>
          </cc:Agent>
        </dc:rights>
        <dc:publisher>
          <cc:Agent>
            <dc:title>chinesenotes.com</dc:title>
          </cc:Agent>
        </dc:publisher>
        <dc:source>Yan Qin Ceremonial Inscription</dc:source>
        <dc:language>Chinese 中文</dc:language>
        <dc:description>Tracing from Tang Dynasty Ceremonial Inscription by Yan Zhenqing 颜真卿 (709－785)</dc:description>
        <cc:license
           rdf:resource="http://creativecommons.org/licenses/by/3.0/" />
      </cc:Work>
      <cc:License
         rdf:about="http://creativecommons.org/licenses/by/3.0/">
        <cc:permits
           rdf:resource="http://creativecommons.org/ns#Reproduction" />
        <cc:permits
           rdf:resource="http://creativecommons.org/ns#Distribution" />
        <cc:requires
           rdf:resource="http://creativecommons.org/ns#Notice" />
        <cc:requires
           rdf:resource="http://creativecommons.org/ns#Attribution" />
        <cc:permits
           rdf:resource="http://creativecommons.org/ns#DerivativeWorks" />
      </cc:License>
    </rdf:RDF>
  </metadata>
  <g
     inkscape:label="Layer 1"
     inkscape:groupmode="layer"
     id="layer1"
     transform="translate(0,-52.362183)">
    <g
       transform="matrix(4.7609464,0,0,4.7609464,-696.12274,-2965.6673)"
       id="g4264"
       style="fill:#000000;fill-opacity:1">
      <path
         id="path4194"
         d="m 204.28571,643.79075 c -3.15395,1.6947 -2.26402,4.87779 -2.23456,7.8259 -0.0636,3.52851 -1.37856,6.79348 -2.99076,9.88039 -6.79332,15.18491 -13.66532,30.33608 -20.48894,45.508 -2.85714,2.02381 -5.71429,4.04762 -8.57143,6.07143 -0.67142,3.71619 -3.01007,6.93225 -3.61002,10.59691 -1.45743,3.89248 3.24456,6.07166 6.20931,4.27066 4.78081,-0.85581 6.88987,-3.74887 9.54357,-7.36757 4.90866,-0.52307 9.88078,-0.74046 14.78585,-0.82813 1.70579,-3.67991 -2.5354,-5.2889 -4.94459,-7.04187 -2.56142,-1.30565 -3.37184,-4.16253 -4.84126,-6.41572 4.38689,-8.89942 9.22963,-17.55462 14.30667,-26.07555 4.24051,-7.47802 8.78336,-14.81927 13.98036,-21.66889 1.7726,-1.36358 4.11826,-4.52168 1.69422,-6.30199 -3.74655,-5.13186 -6.84035,-7.39509 -12.83842,-8.45357 z"
         style="fill:#000000;fill-opacity:1;stroke:#000000;stroke-width:1px;stroke-linecap:butt;stroke-linejoin:miter;stroke-opacity:1"
         sodipodi:nodetypes="ccccccccccccccc" />
      <path
         id="path4196"
         d="m 203.92857,679.1479 c -6.87012,-1.94448 -5.97489,6.72098 -2.92747,10.18275 3.26679,3.37506 1.9968,8.50537 2.91674,12.83011 -1.601,38.99967 -24.96659,76.68814 -45.29728,109.64511 -2.27002,5.09084 -3.09529,9.25292 8.4664,-1.46822 28.07726,-33.80602 41.17708,-67.21724 47.5578,-107.53149 0.52058,-7.09109 0.16364,-14.79509 -3.53157,-21.03224 -1.64233,-2.18856 -4.52209,-3.19938 -7.18462,-2.62602 z"
         style="fill:#000000;fill-opacity:1;stroke:#000000;stroke-width:1px;stroke-linecap:butt;stroke-linejoin:miter;stroke-opacity:1"
         sodipodi:nodetypes="cccccccc" />
      <path
         id="path4198"
         d="m 224.64286,656.6479 c -3.01514,4.06762 0.87618,9.31179 -0.005,14.00382 -0.44708,24.11852 -0.58464,48.25027 -1.85994,72.34714 -0.43928,4.3108 -0.21513,8.57102 0.90014,12.75499 0.0739,2.16808 0.94197,3.81432 2.98916,4.68583 4.3853,4.40764 5.48033,-4.59112 5.89257,-7.70144 0.47967,-19.15635 1.34523,-38.30596 2.66158,-57.42595 0.3845,-9.37971 0.34902,-18.77231 0.4406,-28.15831 -0.47571,-7.28297 -4.65883,-9.71102 -11.01938,-10.50608 l 2.7e-4,0 z"
         style="fill:#000000;fill-opacity:1;stroke:#000000;stroke-width:1px;stroke-linecap:butt;stroke-linejoin:miter;stroke-opacity:1"
         sodipodi:nodetypes="cccccccccc" />
      <path
         id="path4202"
         d="m 232.5,684.86218 c -3.37866,3.70267 1.29074,9.87674 5.79853,7.33728 3.75064,-1.39749 7.62939,-2.7055 11.13777,-4.60422 3.23523,-2.22648 3.42919,-8.60318 -1.46468,-8.66024 -5.66434,0.13178 -10.46006,3.58903 -15.47162,5.92718 z"
         style="fill:#000000;fill-opacity:1;stroke:#000000;stroke-width:1px;stroke-linecap:butt;stroke-linejoin:miter;stroke-opacity:1"
         sodipodi:nodetypes="ccccc" />
      <path
         id="path4204"
         d="m 230.71429,658.43361 c -2.23221,4.3125 0.66097,9.39078 5.75772,8.48378 8.86443,-3.45225 16.97613,-8.59358 25.36196,-13.05217 6.68035,-2.22883 4.77837,6.54555 4.17137,10.38498 -0.92979,15.99841 -3.62013,33.02036 -4.1172,49.10888 0.76074,2.70738 -0.70286,7.08871 3.34609,6.65863 3.52182,1.72736 5.43987,-2.08626 7.6654,-4.26468 2.4813,-8.92087 2.01559,-18.28535 3.23747,-27.40596 0.83257,-6.0558 1.87497,-12.08328 2.79147,-18.12775 2.06684,-3.07646 5.59701,-5.61846 5.40257,-9.64908 1.09673,-2.75779 -1.32033,-4.7086 -2.62521,-6.89486 -2.46764,-2.59376 -5.34465,-7.29717 -9.35678,-5.787 -13.7451,3.97128 -27.51112,7.98273 -41.63486,10.54523 z"
         style="fill:#000000;fill-opacity:1;stroke:#000000;stroke-width:1px;stroke-linecap:butt;stroke-linejoin:miter;stroke-opacity:1"
         sodipodi:nodetypes="ccccccccccccc" />
      <path
         id="path4206"
         d="m 231.78571,717.00504 c -0.11905,1.19048 -0.23809,2.38095 -0.35714,3.57143 1.07143,0.71428 2.14286,1.42857 3.21429,2.14285 6.19716,-2.65668 13.01916,-3.27983 19.56435,-4.53546 3.25218,0.5989 6.61862,3.21904 9.75579,0.61168 4.84373,-0.71137 2.13862,-7.81255 -1.32633,-8.81868 -6.26852,-1.07863 -12.20823,2.01082 -18.1707,3.44111 -4.22154,1.21407 -8.45273,2.39416 -12.68026,3.58707 z"
         style="fill:#000000;fill-opacity:1;stroke:#000000;stroke-width:1px;stroke-linecap:butt;stroke-linejoin:miter;stroke-opacity:1" />
      <path
         id="path4208"
         d="m 211.07143,769.1479 c -4.63971,4.45139 -0.81781,13.81916 5.40257,14.02666 5.23347,-1.20334 7.77669,-6.68399 12.37791,-9.16684 11.56417,-8.93273 23.40398,-17.49956 35.07666,-26.2884 -4.81621,-5.89035 -12.72441,1.84991 -18.37367,3.05021 -11.60884,5.91014 -22.74779,12.71563 -34.48347,18.37837 z"
         style="fill:#000000;fill-opacity:1;stroke:#000000;stroke-width:1px;stroke-linecap:butt;stroke-linejoin:miter;stroke-opacity:1" />
      <path
         id="path4210"
         d="m 265,725.93361 c -5.29393,6.86835 2.43352,14.83492 4.94333,21.32874 4.26864,7.68586 18.10594,4.35703 13.59,-5.20973 C 280.80948,732.90385 274.65029,726.42913 265,725.93361 z"
         style="fill:#000000;fill-opacity:1;stroke:#000000;stroke-width:1px;stroke-linecap:butt;stroke-linejoin:miter;stroke-opacity:1"
         sodipodi:nodetypes="cccc" />
      <path
         id="path4212"
         d="m 287.5,705.57647 c -4.68359,5.48795 1.93431,12.3933 1.02202,19.06254 1.06001,14.12164 0.58479,28.33405 1.01956,42.49303 0.1453,16.39717 0.47936,32.79015 1.80807,49.13902 0.2644,4.05418 0.52881,8.10837 0.79321,12.16255 2.30502,9.2734 2.8434,8.90753 7.419,-2.12669 3.19341,-10.7196 2.98669,-21.99653 3.90084,-33.05097 -0.32457,-25.30322 -0.0723,-50.59731 0.46587,-75.89377 -2.37716,-7.28309 -6.9424,-14.25459 -15.64715,-11.83455 l -0.78142,0.0488 0,4e-5 z"
         style="fill:#000000;fill-opacity:1;stroke:#000000;stroke-width:1px;stroke-linecap:butt;stroke-linejoin:miter;stroke-opacity:1"
         sodipodi:nodetypes="ccccccccccc" />
      <path
         id="path4218"
         d="m 295.35714,707.36218 c -3.40439,4.57176 1.03001,11.8157 6.73868,9.4163 7.21419,-2.09762 14.30911,-4.63564 21.47561,-6.9163 2.82432,0.76111 6.10219,1.13246 4.64799,5.06911 0.77788,8.02709 -3.06265,15.3678 -4.94084,22.9725 -0.64155,7.87175 -9.61241,4.09917 -14.6651,4.4976 -4.3154,-1.85488 -6.8354,2.5412 -2.05253,4.17461 5.2855,1.69312 9.7912,5.47107 10.28638,11.31047 1.98059,6.43344 9.77898,2.7081 13.57964,0.079 9.80147,-12.49829 14.01326,-29.70363 16.96791,-45.12167 -2.56926,-4.31867 -3.05111,-10.43612 -7.91969,-12.85593 -3.12699,-3.28127 -8.84647,-4.57968 -10.88427,0.26091 -1.67991,4.04502 -6.22382,3.10436 -9.84034,3.68236 -7.8448,0.77147 -15.73291,1.48235 -23.39344,3.43107 l 0,-3e-5 z"
         style="fill:#000000;fill-opacity:1;stroke:#000000;stroke-width:1px;stroke-linecap:butt;stroke-linejoin:miter;stroke-opacity:1"
         sodipodi:nodetypes="ccccccccccccccc" />
    </g>
    <path
       style="fill:none;stroke:#000000;stroke-width:2;stroke-linecap:butt;stroke-linejoin:miter;stroke-miterlimit:4;stroke-opacity:1;stroke-dasharray:6,6;stroke-dashoffset:0"
       d="m 47.475225,100.2955 0,829.03461 294.968425,0 0,-832.778764 -294.968425,3.744154 z"
       id="path2853-1"
       sodipodi:nodetypes="ccccc" />
    <path
       style="fill:none;stroke:#000000;stroke-width:2;stroke-linecap:butt;stroke-linejoin:miter;stroke-miterlimit:4;stroke-opacity:1;stroke-dasharray:6,6;stroke-dashoffset:0"
       d="m 295.95146,117.62148 0,644.04458 363.7014,0 0,-646.95326 -363.7014,2.90868 z"
       id="path2853-1-4"
       sodipodi:nodetypes="ccccc" />
    <path
       style="fill:none;stroke:#000000;stroke-width:2;stroke-linecap:butt;stroke-linejoin:miter;stroke-miterlimit:4;stroke-opacity:1;stroke-dasharray:6,6;stroke-dashoffset:0"
       d="m 663.56132,353.96678 0,656.28242 297.20269,0 0,-659.24637 -297.20269,2.96395 z"
       id="path2853-1-8"
       sodipodi:nodetypes="ccccc" />
  </g>
</svg>
