<?xml version="1.0" encoding="UTF-8" standalone="no"?>
<!-- Created with Inkscape (http://www.inkscape.org/) -->

<svg
   xmlns:dc="http://purl.org/dc/elements/1.1/"
   xmlns:cc="http://creativecommons.org/ns#"
   xmlns:rdf="http://www.w3.org/1999/02/22-rdf-syntax-ns#"
   xmlns:svg="http://www.w3.org/2000/svg"
   xmlns="http://www.w3.org/2000/svg"
   xmlns:sodipodi="http://sodipodi.sourceforge.net/DTD/sodipodi-0.dtd"
   xmlns:inkscape="http://www.inkscape.org/namespaces/inkscape"
   width="1000"
   height="1000"
   id="svg3173"
   version="1.1"
   inkscape:version="0.47 r22583"
   sodipodi:docname="wei_group_of_turns.svg"
   inkscape:export-filename="E:\chinese\images\wei_group_of_turns.png"
   inkscape:export-xdpi="18.005705"
   inkscape:export-ydpi="18.005705">
  <title
     id="title2821">Wei</title>
  <defs
     id="defs3175">
    <inkscape:perspective
       sodipodi:type="inkscape:persp3d"
       inkscape:vp_x="0 : 526.18109 : 1"
       inkscape:vp_y="0 : 1000 : 0"
       inkscape:vp_z="744.09448 : 526.18109 : 1"
       inkscape:persp3d-origin="372.04724 : 350.78739 : 1"
       id="perspective3181" />
    <inkscape:perspective
       id="perspective3191"
       inkscape:persp3d-origin="0.5 : 0.33333333 : 1"
       inkscape:vp_z="1 : 0.5 : 1"
       inkscape:vp_y="0 : 1000 : 0"
       inkscape:vp_x="0 : 0.5 : 1"
       sodipodi:type="inkscape:persp3d" />
    <inkscape:perspective
       id="perspective4006"
       inkscape:persp3d-origin="0.5 : 0.33333333 : 1"
       inkscape:vp_z="1 : 0.5 : 1"
       inkscape:vp_y="0 : 1000 : 0"
       inkscape:vp_x="0 : 0.5 : 1"
       sodipodi:type="inkscape:persp3d" />
    <inkscape:perspective
       id="perspective4034"
       inkscape:persp3d-origin="0.5 : 0.33333333 : 1"
       inkscape:vp_z="1 : 0.5 : 1"
       inkscape:vp_y="0 : 1000 : 0"
       inkscape:vp_x="0 : 0.5 : 1"
       sodipodi:type="inkscape:persp3d" />
    <inkscape:perspective
       id="perspective4081"
       inkscape:persp3d-origin="0.5 : 0.33333333 : 1"
       inkscape:vp_z="1 : 0.5 : 1"
       inkscape:vp_y="0 : 1000 : 0"
       inkscape:vp_x="0 : 0.5 : 1"
       sodipodi:type="inkscape:persp3d" />
    <inkscape:perspective
       id="perspective4147"
       inkscape:persp3d-origin="0.5 : 0.33333333 : 1"
       inkscape:vp_z="1 : 0.5 : 1"
       inkscape:vp_y="0 : 1000 : 0"
       inkscape:vp_x="0 : 0.5 : 1"
       sodipodi:type="inkscape:persp3d" />
    <inkscape:perspective
       id="perspective3064"
       inkscape:persp3d-origin="0.5 : 0.33333333 : 1"
       inkscape:vp_z="1 : 0.5 : 1"
       inkscape:vp_y="0 : 1000 : 0"
       inkscape:vp_x="0 : 0.5 : 1"
       sodipodi:type="inkscape:persp3d" />
    <inkscape:perspective
       id="perspective3817"
       inkscape:persp3d-origin="0.5 : 0.33333333 : 1"
       inkscape:vp_z="1 : 0.5 : 1"
       inkscape:vp_y="0 : 1000 : 0"
       inkscape:vp_x="0 : 0.5 : 1"
       sodipodi:type="inkscape:persp3d" />
    <inkscape:perspective
       id="perspective2848"
       inkscape:persp3d-origin="0.5 : 0.33333333 : 1"
       inkscape:vp_z="1 : 0.5 : 1"
       inkscape:vp_y="0 : 1000 : 0"
       inkscape:vp_x="0 : 0.5 : 1"
       sodipodi:type="inkscape:persp3d" />
    <inkscape:perspective
       id="perspective2873"
       inkscape:persp3d-origin="0.5 : 0.33333333 : 1"
       inkscape:vp_z="1 : 0.5 : 1"
       inkscape:vp_y="0 : 1000 : 0"
       inkscape:vp_x="0 : 0.5 : 1"
       sodipodi:type="inkscape:persp3d" />
  </defs>
  <sodipodi:namedview
     id="base"
     pagecolor="#ffffff"
     bordercolor="#666666"
     borderopacity="1.0"
     inkscape:pageopacity="0.0"
     inkscape:pageshadow="2"
     inkscape:zoom="0.49497475"
     inkscape:cx="597.0101"
     inkscape:cy="536.30602"
     inkscape:document-units="px"
     inkscape:current-layer="g5655"
     showgrid="false"
     inkscape:window-width="1440"
     inkscape:window-height="840"
     inkscape:window-x="-4"
     inkscape:window-y="-4"
     inkscape:window-maximized="1" />
  <metadata
     id="metadata3178">
    <rdf:RDF>
      <cc:Work
         rdf:about="">
        <dc:format>image/svg+xml</dc:format>
        <dc:type
           rdf:resource="http://purl.org/dc/dcmitype/StillImage" />
        <dc:title>Wei</dc:title>
        <dc:date>2010-07-16</dc:date>
        <dc:creator>
          <cc:Agent>
            <dc:title>Alex Amies</dc:title>
          </cc:Agent>
        </dc:creator>
        <dc:rights>
          <cc:Agent>
            <dc:title>@ Alex Amies 2010</dc:title>
          </cc:Agent>
        </dc:rights>
        <dc:publisher>
          <cc:Agent>
            <dc:title>chinesenotes.com</dc:title>
          </cc:Agent>
        </dc:publisher>
        <dc:source>Yan Qin Ceremonial Inscription</dc:source>
        <dc:language>Chinese 中文</dc:language>
        <dc:description>Tracing from Tang Dynasty Ceremonial Inscription by Yan Zhenqing 颜真卿 (709－785)</dc:description>
        <cc:license
           rdf:resource="http://creativecommons.org/licenses/by/3.0/" />
      </cc:Work>
      <cc:License
         rdf:about="http://creativecommons.org/licenses/by/3.0/">
        <cc:permits
           rdf:resource="http://creativecommons.org/ns#Reproduction" />
        <cc:permits
           rdf:resource="http://creativecommons.org/ns#Distribution" />
        <cc:requires
           rdf:resource="http://creativecommons.org/ns#Notice" />
        <cc:requires
           rdf:resource="http://creativecommons.org/ns#Attribution" />
        <cc:permits
           rdf:resource="http://creativecommons.org/ns#DerivativeWorks" />
      </cc:License>
    </rdf:RDF>
  </metadata>
  <g
     inkscape:label="Layer 1"
     inkscape:groupmode="layer"
     id="layer1"
     transform="translate(0,-52.362183)">
    <g
       transform="matrix(4.5415106,0,0,4.5415106,-494.50922,-916.79329)"
       id="g5655"
       style="fill:none;fill-opacity:1">
      <path
         id="path5592"
         d="m 169.64286,262.00504 c -0.35714,1.07143 -0.71429,2.14286 -1.07143,3.21429 0.35714,1.19048 0.71429,2.38095 1.07143,3.57143 5.18435,2.55064 10.29003,5.27033 15.32703,8.09498 1.20051,0.8731 2.40103,1.7462 3.60154,2.6193 4.4202,-1.24073 4.1926,-1.2734 6.42857,-5 -2.3192,-6.1025 -5.87946,-9.09374 -10.35714,-13.57142 -5.079,-0.35203 -10.01481,0.2406 -15,1.07147 l 0,-5e-5 z"
         style="fill:none;fill-opacity:1;stroke:#000000;stroke-width:1px;stroke-linecap:butt;stroke-linejoin:miter;stroke-opacity:1"
         sodipodi:nodetypes="ccccccccc" />
      <path
         sodipodi:nodetypes="ccccccccccc"
         id="path5588"
         d="m 223.21428,215.57647 c -1.20676,0.0645 -2.52539,-0.12913 -3.66221,0.0968 -2.60077,2.71522 -5.02943,5.60698 -7.94262,8.00175 -9.65635,8.52524 -19.31818,17.04112 -28.39517,26.18712 0.47619,0.83333 0.95239,1.66667 1.42858,2.5 4.73787,-2.13876 9.55955,-4.10203 14.13379,-6.58341 7.52653,-4.5157 14.92514,-6.93525 23.30279,-9.26105 4.5534,-0.66 8.90938,-2.06178 13.2777,-3.44126 2.04264,-2.35598 1.91274,-3.69993 1.42857,-6.78571 -4.46887,-5.08266 -7.6893,-7.77322 -13.57143,-10.71429 l 0,5e-5 z"
         style="fill:none;fill-opacity:1;stroke:#000000;stroke-width:1px;stroke-linecap:butt;stroke-linejoin:miter;stroke-opacity:1" />
      <path
         id="path5590"
         d="m 197.98138,250.39399 c -0.39856,0.29893 -0.79711,0.59785 -1.19567,0.89677 3.71656,5.86635 8.84906,9.2351 13.27214,15.02479 1.64738,0.70602 3.29477,1.41205 4.94215,2.11807 4.87635,-2.70827 2.98264,-4.69092 2.5,-10 -2.33599,-5.67567 -5.10863,-8.44718 -10.35714,-11.07143 -3.13472,0.78567 -6.53399,1.01383 -9.16148,3.0318 z"
         style="fill:none;fill-opacity:1;stroke:#000000;stroke-width:1px;stroke-linecap:butt;stroke-linejoin:miter;stroke-opacity:1"
         sodipodi:nodetypes="ccccccc" />
      <path
         id="path5594"
         d="m 245,234.86219 c -6.07314,-0.035 -11.86641,5.07472 -8.55087,11.24832 -0.24917,5.78488 -6.2924,9.34176 -9.08729,14.13734 -19.24307,24.74439 -40.09965,48.17398 -59.30538,72.94958 -5.43239,6.85748 -10.84368,13.73164 -16.27075,20.59333 1.48584,5.93241 7.46285,-2.46355 10.68961,-3.27597 9.73235,-7.579 17.62738,-17.14458 25.67338,-26.42598 17.74257,-23.17156 41.25342,-41.7735 59.38359,-64.44199 4.19383,-4.29495 12.24688,-4.37008 13.91693,-11.10571 0.73598,-9.57569 -8.5583,-13.30116 -16.44922,-13.67892 z"
         style="fill:none;fill-opacity:1;stroke:#000000;stroke-width:1px;stroke-linecap:butt;stroke-linejoin:miter;stroke-opacity:1"
         sodipodi:nodetypes="cccccccccc" />
      <path
         id="path5598"
         d="m 147.14286,293.07647 c -3.35952,3.66081 -5.48259,8.24084 -6.46653,13.08087 -0.96806,5.11321 2.34158,11.15689 8.06952,10.58965 3.27787,-1.71214 4.44576,-6.05579 7.49056,-8.30057 4.21073,-3.19616 8.01453,-7.16887 13.2393,-8.68513 12.88295,-6.04648 26.65778,-9.76282 40.17381,-14.07821 9.48703,-2.53824 19.01316,-5.18557 28.76786,-6.48849 5.33913,-1.21411 5.4931,4.95918 2.28963,7.63682 -2.86961,4.43559 -3.69256,9.75336 -5.39475,14.67507 -1.85189,5.16559 4.09371,6.40158 4.83911,1.03925 1.94327,-4.24863 4.29484,-8.29886 7.90035,-11.36341 4.47773,-3.364 7.50708,-10.41023 13.81119,-9.84765 4.65992,0.54758 8.2331,-2.4622 6.986,-7.25872 -1.99991,-3.47594 -4.88942,-6.49243 -7.28316,-9.76289 -3.82191,-5.84607 -6.35768,2.41916 -8.94559,4.77821 -4.3883,3.93746 -10.39901,3.86464 -15.83338,5.19469 -17.35749,3.39076 -34.54629,7.70265 -52.01489,10.48455 -12.9375,0.97789 -25.2585,4.70726 -37.62903,8.30596 z"
         style="fill:#000000;fill-opacity:1;stroke:#000000;stroke-width:1px;stroke-linecap:butt;stroke-linejoin:miter;stroke-opacity:1"
         sodipodi:nodetypes="cccccccccccccccccc" />
      <path
         id="path5600"
         d="m 216.07143,307.00504 c -5.12609,3.76197 -5.47204,5.7865 -5.37372,12.27325 0.37913,2.09846 3.1963,3.87738 5.38528,3.29788 4.93026,0.0743 8.09468,-4.45346 12.04227,-6.85669 5.64744,-1.94949 11.3235,-4.02723 17.10937,-5.41216 1.16215,6.4046 -8.95637,15.08895 -12.88678,20.02834 -1.66606,3.09913 -0.49775,8.47797 3.19884,3.98593 9.04962,-9.28591 17.21854,-16.25124 28.25027,-22.71851 2.16163,-1.16893 3.70706,-3.16417 5.56482,-4.74048 0.78189,-0.53454 1.22764,-1.2565 1.25225,-2.21327 0.89664,-2.96359 -0.94969,-4.00701 -2.75685,-6.21576 -7.82683,-0.62313 -11.1425,-0.17164 -17.43194,4.68857 -2.61261,0.83277 -5.53184,0.52707 -8.26593,0.90212 -8.87251,0.78193 -17.46062,0.67984 -26.08788,2.98078 z"
         style="fill:#000000;fill-opacity:1;stroke:#000000;stroke-width:1px;stroke-linecap:butt;stroke-linejoin:miter;stroke-opacity:1"
         sodipodi:nodetypes="cccccccccccccc" />
      <path
         id="path5602"
         d="m 191.42857,339.50504 c -7.85226,0.27978 -9.01824,13.72351 -0.35548,12.95272 9.6203,-3.63244 19.74769,-5.58337 29.64119,-8.30986 16.4197,-2.48204 32.8186,-5.15264 49.08046,-8.52011 3.98338,-1.38692 7.93227,0.59859 6.99351,5.22392 -0.64066,14.53765 -5.24868,27.35601 -9.95622,40.98758 -4.04927,8.5894 -10.21824,15.69938 -16.11775,23.0229 -4.8199,0.43245 -9.14227,-4.61066 -12.85714,-7.5 -2.44773,1.20212 -0.41887,3.09113 0.32126,4.78241 0.91394,2.31778 3.24155,4.39872 2.20854,7.0427 0.22786,5.93933 -4.93421,9.07437 -2.46961,14.33144 3.18164,7.81738 9.94313,7.2167 17.31599,7.05773 5.49768,-3.37656 10.78726,-7.5002 14.95748,-12.462 9.78212,-9.61667 15.45878,-19.85118 21.59488,-31.82371 5.20849,-13.86983 8.90597,-26.5232 7.61981,-41.2726 -1.50285,-6.88587 -2.83934,-10.93517 -8.20046,-15.75878 -4.11569,-1.51978 -7.95473,-4.08507 -12.46202,-4.1249 -2.173,-0.95617 -3.42955,0.72749 -4.76646,2.1797 -25.6192,7.36598 -55.93211,10.21246 -82.54801,12.19086 l 3e-5,0 z"
         style="fill:#000000;fill-opacity:1;stroke:#000000;stroke-width:1px;stroke-linecap:butt;stroke-linejoin:miter;stroke-opacity:1"
         sodipodi:nodetypes="cccccccccccccccccccc" />
      <path
         id="path5604"
         d="m 142.85714,364.86219 c -0.47619,1.66667 -0.95238,3.33333 -1.42857,5 2.96279,4.22467 6.36266,8.17535 8.74928,12.77648 4.22406,8.27738 9.70704,15.00661 19.82215,15.4378 3.09127,-3.80002 3.84231,-6.16259 2.23364,-11.11957 -1.41249,-6.31226 -4.8659,-11.4935 -8.38216,-16.79366 -6.38047,-6.50724 -12.54971,-5.27614 -20.99434,-5.30105 z"
         style="fill:none;fill-opacity:1;stroke:#000000;stroke-width:1px;stroke-linecap:butt;stroke-linejoin:miter;stroke-opacity:1"
         sodipodi:nodetypes="ccccccc" />
      <path
         sodipodi:nodetypes="cccccc"
         id="path5606"
         d="m 170.71428,355.21933 c -0.35714,0.83333 -0.71428,1.66667 -1.07142,2.5 5.79264,8.94235 11.66562,23.07779 22.14285,27.14286 4.22883,-0.61144 5.44332,-0.53303 8.57143,-3.21429 0.0853,-7.57229 -1.12342,-11.85326 -6.07143,-17.85714 -7.92446,-7.56438 -13.48428,-7.38471 -23.57143,-8.57143 z"
         style="fill:none;fill-opacity:1;stroke:#000000;stroke-width:1px;stroke-linecap:butt;stroke-linejoin:miter;stroke-opacity:1" />
      <path
         id="path5608"
         d="m 209.64286,356.29076 c 4.74004,7.58395 6.10812,15.96165 15.81217,17.80138 5.00218,1.03125 6.37247,1.37174 10.97354,-0.30138 1.34094,-4.91432 -0.45917,-7.51273 -2.14286,-12.14286 -4.58825,-6.25378 -10.17597,-7.77799 -17.51451,-8.48568 -4.4478,0.56417 -4.61649,-0.38805 -7.12834,3.12854 z"
         style="fill:none;fill-opacity:1;stroke:#000000;stroke-width:1px;stroke-linecap:butt;stroke-linejoin:miter;stroke-opacity:1"
         sodipodi:nodetypes="cccccc" />
      <path
         id="path5610"
         d="m 248.57143,343.07647 c -0.83333,1.07143 -1.66667,2.14286 -2.5,3.21429 0.96232,2.77537 1.83469,5.6956 3.81952,7.9426 4.60297,2.82682 6.07756,16.27522 11.79851,16.21339 5.45999,0.89724 4.7284,0.10894 8.31054,-3.79885 0.19409,-7.18972 0.34428,-11.98811 -5.10259,-17.49148 -4.66952,-5.19259 -9.45683,-5.59242 -16.32598,-6.07995 z"
         style="fill:none;fill-opacity:1;stroke:#000000;stroke-width:1px;stroke-linecap:butt;stroke-linejoin:miter;stroke-opacity:1"
         sodipodi:nodetypes="ccccccc" />
    </g>
    <path
       style="fill:none;stroke:#000000;stroke-width:0.81780607px;stroke-linecap:butt;stroke-linejoin:miter;stroke-opacity:1"
       d="m 832.27459,569.60037 52.71014,-97.15684"
       id="path2832" />
    <path
       style="fill:none;stroke:#000000;stroke-width:1px;stroke-linecap:butt;stroke-linejoin:miter;stroke-opacity:1"
       d="m 729.33013,240.36529 72.73099,-22.22335"
       id="path2834"
       transform="translate(0,52.362183)" />
    <text
       xml:space="preserve"
       style="font-size:56px;font-style:normal;font-variant:normal;font-weight:normal;font-stretch:normal;fill:#000000;fill-opacity:1;stroke:none;font-family:Arial;-inkscape-font-specification:Arial"
       x="834.38599"
       y="276.56503"
       id="text2836"><tspan
         sodipodi:role="line"
         id="tspan2838"
         x="834.38599"
         y="276.56503">thin</tspan></text>
    <text
       xml:space="preserve"
       style="font-size:56px;font-style:normal;font-variant:normal;font-weight:normal;font-stretch:normal;fill:#000000;fill-opacity:1;stroke:none;font-family:Arial;-inkscape-font-specification:Arial"
       x="851.27252"
       y="464.10193"
       id="text2836-1"><tspan
         sodipodi:role="line"
         id="tspan2838-7"
         x="851.27252"
         y="464.10193">thick</tspan></text>
    <path
       style="fill:none;stroke:#000000;stroke-width:1.16055024px;stroke-linecap:butt;stroke-linejoin:miter;stroke-opacity:1"
       d="M 753.65406,428.00764 832.28542,296.84836"
       id="path2832-4" />
  </g>
</svg>
