<?xml version="1.0" encoding="UTF-8" standalone="no"?>
<!-- Created with Inkscape (http://www.inkscape.org/) -->

<svg
   xmlns:dc="http://purl.org/dc/elements/1.1/"
   xmlns:cc="http://creativecommons.org/ns#"
   xmlns:rdf="http://www.w3.org/1999/02/22-rdf-syntax-ns#"
   xmlns:svg="http://www.w3.org/2000/svg"
   xmlns="http://www.w3.org/2000/svg"
   xmlns:sodipodi="http://sodipodi.sourceforge.net/DTD/sodipodi-0.dtd"
   xmlns:inkscape="http://www.inkscape.org/namespaces/inkscape"
   width="1000"
   height="1000"
   id="svg3173"
   version="1.1"
   inkscape:version="0.47 r22583"
   sodipodi:docname="wen_varied_endings.svg"
   inkscape:export-filename="E:\chinese\images\yan_wen_vertical_group.png"
   inkscape:export-xdpi="17.961918"
   inkscape:export-ydpi="17.961918">
  <title
     id="title3657">Wen</title>
  <defs
     id="defs3175">
    <inkscape:perspective
       sodipodi:type="inkscape:persp3d"
       inkscape:vp_x="0 : 526.18109 : 1"
       inkscape:vp_y="0 : 1000 : 0"
       inkscape:vp_z="744.09448 : 526.18109 : 1"
       inkscape:persp3d-origin="372.04724 : 350.78739 : 1"
       id="perspective3181" />
    <inkscape:perspective
       id="perspective3191"
       inkscape:persp3d-origin="0.5 : 0.33333333 : 1"
       inkscape:vp_z="1 : 0.5 : 1"
       inkscape:vp_y="0 : 1000 : 0"
       inkscape:vp_x="0 : 0.5 : 1"
       sodipodi:type="inkscape:persp3d" />
    <inkscape:perspective
       id="perspective4006"
       inkscape:persp3d-origin="0.5 : 0.33333333 : 1"
       inkscape:vp_z="1 : 0.5 : 1"
       inkscape:vp_y="0 : 1000 : 0"
       inkscape:vp_x="0 : 0.5 : 1"
       sodipodi:type="inkscape:persp3d" />
    <inkscape:perspective
       id="perspective4034"
       inkscape:persp3d-origin="0.5 : 0.33333333 : 1"
       inkscape:vp_z="1 : 0.5 : 1"
       inkscape:vp_y="0 : 1000 : 0"
       inkscape:vp_x="0 : 0.5 : 1"
       sodipodi:type="inkscape:persp3d" />
    <inkscape:perspective
       id="perspective4081"
       inkscape:persp3d-origin="0.5 : 0.33333333 : 1"
       inkscape:vp_z="1 : 0.5 : 1"
       inkscape:vp_y="0 : 1000 : 0"
       inkscape:vp_x="0 : 0.5 : 1"
       sodipodi:type="inkscape:persp3d" />
    <inkscape:perspective
       id="perspective4147"
       inkscape:persp3d-origin="0.5 : 0.33333333 : 1"
       inkscape:vp_z="1 : 0.5 : 1"
       inkscape:vp_y="0 : 1000 : 0"
       inkscape:vp_x="0 : 0.5 : 1"
       sodipodi:type="inkscape:persp3d" />
    <inkscape:perspective
       id="perspective3858"
       inkscape:persp3d-origin="0.5 : 0.33333333 : 1"
       inkscape:vp_z="1 : 0.5 : 1"
       inkscape:vp_y="0 : 1000 : 0"
       inkscape:vp_x="0 : 0.5 : 1"
       sodipodi:type="inkscape:persp3d" />
    <inkscape:perspective
       id="perspective3876"
       inkscape:persp3d-origin="0.5 : 0.33333333 : 1"
       inkscape:vp_z="1 : 0.5 : 1"
       inkscape:vp_y="0 : 1000 : 0"
       inkscape:vp_x="0 : 0.5 : 1"
       sodipodi:type="inkscape:persp3d" />
    <inkscape:perspective
       id="perspective3901"
       inkscape:persp3d-origin="0.5 : 0.33333333 : 1"
       inkscape:vp_z="1 : 0.5 : 1"
       inkscape:vp_y="0 : 1000 : 0"
       inkscape:vp_x="0 : 0.5 : 1"
       sodipodi:type="inkscape:persp3d" />
    <inkscape:perspective
       id="perspective5282"
       inkscape:persp3d-origin="0.5 : 0.33333333 : 1"
       inkscape:vp_z="1 : 0.5 : 1"
       inkscape:vp_y="0 : 1000 : 0"
       inkscape:vp_x="0 : 0.5 : 1"
       sodipodi:type="inkscape:persp3d" />
    <inkscape:perspective
       id="perspective6657"
       inkscape:persp3d-origin="0.5 : 0.33333333 : 1"
       inkscape:vp_z="1 : 0.5 : 1"
       inkscape:vp_y="0 : 1000 : 0"
       inkscape:vp_x="0 : 0.5 : 1"
       sodipodi:type="inkscape:persp3d" />
    <inkscape:perspective
       id="perspective7221"
       inkscape:persp3d-origin="0.5 : 0.33333333 : 1"
       inkscape:vp_z="1 : 0.5 : 1"
       inkscape:vp_y="0 : 1000 : 0"
       inkscape:vp_x="0 : 0.5 : 1"
       sodipodi:type="inkscape:persp3d" />
    <inkscape:perspective
       id="perspective3026"
       inkscape:persp3d-origin="0.5 : 0.33333333 : 1"
       inkscape:vp_z="1 : 0.5 : 1"
       inkscape:vp_y="0 : 1000 : 0"
       inkscape:vp_x="0 : 0.5 : 1"
       sodipodi:type="inkscape:persp3d" />
    <inkscape:perspective
       id="perspective3843"
       inkscape:persp3d-origin="0.5 : 0.33333333 : 1"
       inkscape:vp_z="1 : 0.5 : 1"
       inkscape:vp_y="0 : 1000 : 0"
       inkscape:vp_x="0 : 0.5 : 1"
       sodipodi:type="inkscape:persp3d" />
    <inkscape:perspective
       id="perspective3794"
       inkscape:persp3d-origin="0.5 : 0.33333333 : 1"
       inkscape:vp_z="1 : 0.5 : 1"
       inkscape:vp_y="0 : 1000 : 0"
       inkscape:vp_x="0 : 0.5 : 1"
       sodipodi:type="inkscape:persp3d" />
    <inkscape:perspective
       id="perspective3684"
       inkscape:persp3d-origin="0.5 : 0.33333333 : 1"
       inkscape:vp_z="1 : 0.5 : 1"
       inkscape:vp_y="0 : 1000 : 0"
       inkscape:vp_x="0 : 0.5 : 1"
       sodipodi:type="inkscape:persp3d" />
    <inkscape:perspective
       id="perspective3684-1"
       inkscape:persp3d-origin="0.5 : 0.33333333 : 1"
       inkscape:vp_z="1 : 0.5 : 1"
       inkscape:vp_y="0 : 1000 : 0"
       inkscape:vp_x="0 : 0.5 : 1"
       sodipodi:type="inkscape:persp3d" />
    <inkscape:perspective
       id="perspective3684-4"
       inkscape:persp3d-origin="0.5 : 0.33333333 : 1"
       inkscape:vp_z="1 : 0.5 : 1"
       inkscape:vp_y="0 : 1000 : 0"
       inkscape:vp_x="0 : 0.5 : 1"
       sodipodi:type="inkscape:persp3d" />
  </defs>
  <sodipodi:namedview
     id="base"
     pagecolor="#ffffff"
     bordercolor="#666666"
     borderopacity="1.0"
     inkscape:pageopacity="0.0"
     inkscape:pageshadow="2"
     inkscape:zoom="0.49497475"
     inkscape:cx="387.57298"
     inkscape:cy="454.68351"
     inkscape:document-units="px"
     inkscape:current-layer="layer1"
     showgrid="false"
     inkscape:window-width="1440"
     inkscape:window-height="840"
     inkscape:window-x="-4"
     inkscape:window-y="-4"
     inkscape:window-maximized="1" />
  <metadata
     id="metadata3178">
    <rdf:RDF>
      <cc:Work
         rdf:about="">
        <dc:format>image/svg+xml</dc:format>
        <dc:type
           rdf:resource="http://purl.org/dc/dcmitype/StillImage" />
        <dc:title>Wen</dc:title>
        <dc:date>2010-07-14</dc:date>
        <dc:creator>
          <cc:Agent>
            <dc:title>Alex Amies</dc:title>
          </cc:Agent>
        </dc:creator>
        <dc:rights>
          <cc:Agent>
            <dc:title>Copyright Alex Amies 2010</dc:title>
          </cc:Agent>
        </dc:rights>
        <dc:publisher>
          <cc:Agent>
            <dc:title>chinesenotes.com</dc:title>
          </cc:Agent>
        </dc:publisher>
        <dc:source>Yan Qin Ceremonial Inscription</dc:source>
        <dc:language>Chinese 中文</dc:language>
        <dc:description>Tracing from Tang Dynasty Ceremonial Inscription by Yan Zhenqing 颜真卿 (709－785)</dc:description>
        <cc:license
           rdf:resource="http://creativecommons.org/licenses/by/3.0/" />
      </cc:Work>
      <cc:License
         rdf:about="http://creativecommons.org/licenses/by/3.0/">
        <cc:permits
           rdf:resource="http://creativecommons.org/ns#Reproduction" />
        <cc:permits
           rdf:resource="http://creativecommons.org/ns#Distribution" />
        <cc:requires
           rdf:resource="http://creativecommons.org/ns#Notice" />
        <cc:requires
           rdf:resource="http://creativecommons.org/ns#Attribution" />
        <cc:permits
           rdf:resource="http://creativecommons.org/ns#DerivativeWorks" />
      </cc:License>
    </rdf:RDF>
  </metadata>
  <g
     inkscape:label="Layer 1"
     inkscape:groupmode="layer"
     id="layer1"
     transform="translate(0,-52.362183)">
    <g
       transform="matrix(4.7418067,0,0,4.7418067,-2414.6579,-998.95331)"
       id="g3771"
       style="fill:none;fill-opacity:1">
      <path
         sodipodi:nodetypes="ccccccccccc"
         id="path4886"
         d="m 533.74944,260.03457 c 0.666,22.30045 4.88044,45.00601 2.8337,67.34382 -2.02419,26.27902 -3.76432,52.58745 -5.58036,78.87564 -2.81387,8.53916 5.55134,9.69192 12.46821,9.80661 5.02677,-2.27516 5.86465,-12.9794 5.88044,-17.958 0.0625,-12.87586 0.51554,-25.73886 1.28337,-38.59149 1.17152,-18.65957 1.09201,-37.36318 1.50079,-56.048 -0.026,-6.64676 -0.57295,-13.37123 -0.21409,-19.97071 1.0726,-2.63849 2.61314,-5.1998 3.40322,-7.88489 -1.12515,-8.54404 -6.05624,-14.43438 -13.53882,-18.95965 -3.43357,-1.08659 -8.05843,-1.51689 -8.03646,3.38667 z"
         style="fill:#000000;fill-opacity:1;stroke:#000000;stroke-width:1px;stroke-linecap:butt;stroke-linejoin:miter;stroke-opacity:1" />
      <path
         sodipodi:nodetypes="cccccccccccccc"
         id="path4888"
         d="m 552.5,236.6479 c 0.12159,2.14055 -0.63176,4.70301 1.31617,6.19834 3.49355,5.42199 8.78069,2.99056 13.60813,0.32907 2.954,-1.11136 6.00777,-1.95442 9.00427,-2.95598 2.60769,3.0847 0.60651,7.18185 0.68595,10.77877 -0.71698,14.55033 -1.96274,29.24294 -1.29259,43.8291 1.35678,6.10163 2.67411,6.07094 8.46404,5.74927 2.79669,-4.46003 4.8044,-10.05741 5.41748,-15.32346 0.22408,-11.33443 0.34947,-22.68021 0.75176,-34.00842 1.44805,-7.42947 1.6879,-14.92115 1.6879,-22.45383 -9.18736,-2.75508 -20.06041,2.98994 -28.92857,5.71428 -3.01301,0.46077 -6.27819,0.0976 -9.13659,1.09107 -0.5259,0.35059 -1.05179,0.70119 -1.57769,1.05179 l -2.6e-4,0 z"
         style="fill:none;fill-opacity:1;stroke:#000000;stroke-width:1px;stroke-linecap:butt;stroke-linejoin:miter;stroke-opacity:1" />
      <path
         sodipodi:nodetypes="cccccc"
         id="path4890"
         d="m 557.85714,262.36219 c 5.715,12.20404 8.99677,7.78489 21.05173,9.65349 1.5814,-1.85134 2.12494,-4.31829 3.53991,-6.27591 0.1263,-3.00527 -0.95731,-5.82959 -4.1688,-5.87137 -4.26164,0.0717 -8.63222,0.19365 -12.73204,-1.16437 -4.16372,-1.45279 -6.39668,-0.75789 -7.6908,3.65816 z"
         style="fill:none;fill-opacity:1;stroke:#000000;stroke-width:1px;stroke-linecap:butt;stroke-linejoin:miter;stroke-opacity:1" />
      <path
         id="path4892"
         d="m 631.07143,229.50504 c -1.4107,1.56901 -3.82545,2.55475 -4.00403,4.89583 -0.65061,2.99962 -2.032,5.93795 -1.62122,9.06103 0.58417,14.52217 0.16286,29.05589 -0.089,43.57983 0,2.84492 0,5.68983 0,8.53474 3.70891,1.6946 7.70807,2.59133 11.57208,3.84493 1.51218,-2.21334 2.36338,-5.25361 1.81605,-8.0442 -0.89659,-12.18092 -0.57615,-24.40525 -0.04,-36.59434 -2.9e-4,-4.94346 0.7697,-9.8296 1.22167,-14.73606 -1.02056,-2.33264 -2.33222,-4.7903 -3.84986,-6.87092 -1.66856,-1.22361 -3.33712,-2.44723 -5.00568,-3.67084 z"
         style="fill:none;fill-opacity:1;stroke:#000000;stroke-width:1px;stroke-linecap:butt;stroke-linejoin:miter;stroke-opacity:1" />
      <path
         id="path4894"
         d="m 633.92857,233.07647 c -5.2123,7.71681 5.69182,11.79243 11.80422,8.72375 7.62725,-0.78287 15.21379,-2.07024 22.03779,-5.74663 6.25192,0.57885 6.31379,10.732 5.949,16.00632 -1.71275,47.74226 -3.74267,95.49385 -4.88215,143.25703 -0.42576,12.07705 -15.66627,-3.24591 -17.54613,1.92618 2.27145,5.47029 8.37705,8.67687 10.09527,14.74359 2.30102,7.34632 5.46943,15.19642 13.30752,18.0965 7.26939,-0.59313 7.42889,-9.05383 10.74604,-13.99816 3.04129,-8.15863 3.43641,-17.05359 5.11834,-25.56286 3.3728,-28.99489 3.78859,-58.24588 3.97158,-87.4105 -0.79367,-21.43381 -0.32323,-42.90872 -1.67289,-64.32093 -3.49132,-4.8668 -6.15603,-12.83452 -13.10755,-13.02907 -8.05222,0.36182 -16.06979,1.91761 -23.94161,3.6244 -6.63337,2.93721 -14.31304,0.66747 -20.77849,2.90401 -0.36698,0.26211 -0.73395,0.52427 -1.10094,0.78637 z"
         style="fill:#000000;fill-opacity:1;stroke:#000000;stroke-width:1px;stroke-linecap:butt;stroke-linejoin:miter;stroke-opacity:1" />
      <path
         sodipodi:nodetypes="ccccccc"
         id="path4896"
         d="m 637.14285,254.86219 c -2.13938,3.73401 -2.41186,6.64433 -1.78571,10.71428 3.33115,2.16018 5.96354,2.01433 9.7024,1.39582 4.90257,-2.69294 10.52836,-2.87332 15.33256,-5.7398 1.61983,-2.58449 1.2042,-6.86247 -3.01079,-7.73025 -6.31069,-1.20415 -12.43235,0.59562 -19.25272,1.16237 -0.32857,0.0659 -0.65736,0.13104 -0.98574,0.19758 z"
         style="fill:none;fill-opacity:1;stroke:#000000;stroke-width:1px;stroke-linecap:butt;stroke-linejoin:miter;stroke-opacity:1" />
      <path
         sodipodi:nodetypes="cccc"
         id="path4898"
         d="m 635.35714,290.21933 c -2.71799,7.72314 3.1788,10.47814 10.35714,10.35714 5.14036,-5.81775 12.51474,-8.29886 17.14286,-14.64285 -7.50494,-3.38299 -19.48506,2.02522 -27.5,4.28571 z"
         style="fill:none;fill-opacity:1;stroke:#000000;stroke-width:1px;stroke-linecap:butt;stroke-linejoin:miter;stroke-opacity:1" />
      <path
         sodipodi:nodetypes="cccccc"
         id="path4900"
         d="m 558.21428,302.00504 c -3.13536,5.96638 3.96714,10.72993 7.51198,15.22475 3.05843,2.33861 6.88219,-0.066 9.44171,-2.03115 12.92075,-15.29314 28.41375,-20.53723 37.76043,-44.54439 -16.31505,9.40145 -21.18001,19.7201 -42.28768,28.21649 -4.16797,0.92796 -8.44543,1.52092 -12.42644,3.1343 z"
         style="fill:none;fill-opacity:1;stroke:#000000;stroke-width:1px;stroke-linecap:butt;stroke-linejoin:miter;stroke-opacity:1" />
      <path
         sodipodi:nodetypes="cccccccc"
         id="path4902"
         d="m 586.07143,307.36219 c -1.96248,2.35173 -5.36708,3.84216 -6.13001,6.94509 -2.07583,14.92938 -1.15468,30.5175 -0.88168,45.63849 0.48459,11.79547 3.09236,23.10972 5.37,34.57767 3.74306,3.5171 5.72955,1.88604 9.49886,-0.37554 -0.28378,-24.36651 -0.19714,-48.72598 -0.28544,-73.09246 -0.35929,-2.91987 1.15717,-6.29013 -0.4882,-8.88783 -2.04971,-3.99468 -2.77023,-5.19753 -7.08353,-4.80542 z"
         style="fill:none;fill-opacity:1;stroke:#000000;stroke-width:1px;stroke-linecap:butt;stroke-linejoin:miter;stroke-opacity:1" />
      <path
         sodipodi:nodetypes="ccccccccccccccc"
         id="path4904"
         d="m 587.5,311.29076 c 0.39127,5.6911 6.78492,5.75831 11.05075,4.77685 5.09431,-0.29611 10.2628,-0.2939 15.28802,0.5337 3.97648,2.57134 2.12226,7.6179 2.32781,11.51019 -0.66456,18.16218 -1.44831,36.32842 -0.96621,54.50616 -0.0442,7.75826 0.19404,15.50652 1.59556,23.15371 0.7892,6.48592 2.24122,12.85955 3.68725,19.21512 3.50496,3.87102 4.39484,-5.11305 6.23228,-7.19552 2.87762,-4.83011 3.56534,-10.31024 3.95812,-15.80857 1.77278,-16.94766 4.20883,-33.8357 5.63289,-50.81262 0.91723,-12.26721 0.0856,-24.8956 3.89865,-36.74569 2.91205,-6.01957 4.03639,-12.42768 -3.62418,-14.1342 -5.2416,-1.48409 -10.7791,-0.6234 -16.15129,-0.67289 -7.69349,1.26813 -15.45312,2.44089 -23.078,4.05449 -4.45476,1.35949 -6.93848,4.22056 -9.85165,7.61927 z"
         style="fill:#000000;fill-opacity:1;stroke:#000000;stroke-width:1px;stroke-linecap:butt;stroke-linejoin:miter;stroke-opacity:1" />
      <path
         sodipodi:nodetypes="ccccccc"
         id="path4906"
         d="m 586.78571,329.86219 c 0.38234,3.0919 2.06237,5.16725 3.92857,7.5 7.66459,0.60621 13.56395,1.81894 19.64286,-2.85715 0.71429,-1.66667 1.42857,-3.33333 2.14286,-5 -1.56623,-2.45953 -2.48281,-1.91049 -5,-1.07143 -3.6023,-1.17822 -7.13486,-2.59182 -10.78345,-3.61405 -6.13314,-1.31752 -7.07021,-0.0429 -9.93084,5.04263 z"
         style="fill:none;fill-opacity:1;stroke:#000000;stroke-width:1px;stroke-linecap:butt;stroke-linejoin:miter;stroke-opacity:1" />
      <path
         sodipodi:nodetypes="ccc"
         id="path4908"
         d="m 588.77296,363.66826 c 14.8855,0.3705 22.61738,-0.53588 23.03994,-9.71358 -6.45194,-3.5837 -11.61272,-3.91197 -23.03994,9.71358 z"
         style="fill:none;fill-opacity:1;stroke:#000000;stroke-width:1px;stroke-linecap:butt;stroke-linejoin:miter;stroke-opacity:1" />
      <path
         sodipodi:nodetypes="ccccccccc"
         id="path4910"
         d="m 568.21428,404.50504 c 0.4614,2.42523 1.07096,5.08251 3.38319,6.41089 3.12427,2.38654 9.02142,6.19632 12.70816,2.95318 2.53464,-3.59632 5.19252,-7.15645 8.61297,-9.96738 6.26377,-7.00758 12.44317,-13.25499 19.94398,-18.81151 4.2551,-1.56378 0.10955,-7.12456 -2.96106,-4.91395 -7.83148,3.36712 -15.02869,8.01851 -22.4254,12.22173 -4.27593,2.42175 -8.47203,5.02682 -12.89867,7.15591 -3.29347,0.6356 -4.54919,2.35973 -6.36317,4.95113 z"
         style="fill:none;fill-opacity:1;stroke:#000000;stroke-width:1px;stroke-linecap:butt;stroke-linejoin:miter;stroke-opacity:1" />
    </g>
    <path
       transform="translate(-170.71579,774.62124)"
       sodipodi:type="arc"
       style="fill:none;stroke:#ff0000;stroke-width:4;stroke-linecap:butt;stroke-linejoin:miter;stroke-miterlimit:4;stroke-opacity:1;stroke-dasharray:none"
       id="path2833"
       sodipodi:cx="318.19806"
       sodipodi:cy="158.54294"
       sodipodi:rx="71.720833"
       sodipodi:ry="71.720833"
       d="m 389.91889,158.54294 a 71.720833,71.720833 0 1 1 -143.44166,0 71.720833,71.720833 0 1 1 143.44166,0 z" />
    <path
       transform="translate(221.2234,810.98674)"
       sodipodi:type="arc"
       style="fill:none;stroke:#ff0000;stroke-width:4;stroke-linecap:butt;stroke-linejoin:miter;stroke-miterlimit:4;stroke-opacity:1;stroke-dasharray:none"
       id="path2833-7"
       sodipodi:cx="318.19806"
       sodipodi:cy="158.54294"
       sodipodi:rx="71.720833"
       sodipodi:ry="71.720833"
       d="m 389.91889,158.54294 a 71.720833,71.720833 0 1 1 -143.44166,0 71.720833,71.720833 0 1 1 143.44166,0 z" />
    <path
       transform="translate(467.70061,823.10857)"
       sodipodi:type="arc"
       style="fill:none;stroke:#ff0000;stroke-width:4;stroke-linecap:butt;stroke-linejoin:miter;stroke-miterlimit:4;stroke-opacity:1;stroke-dasharray:none"
       id="path2833-0"
       sodipodi:cx="318.19806"
       sodipodi:cy="158.54294"
       sodipodi:rx="71.720833"
       sodipodi:ry="71.720833"
       d="m 389.91889,158.54294 a 71.720833,71.720833 0 1 1 -143.44166,0 71.720833,71.720833 0 1 1 143.44166,0 z" />
    <text
       xml:space="preserve"
       style="font-size:56px;font-style:normal;font-variant:normal;font-weight:normal;font-stretch:normal;fill:#000000;fill-opacity:1;stroke:none;font-family:Arial;-inkscape-font-specification:Arial"
       x="858.62964"
       y="1032.1592"
       id="text3640"><tspan
         sodipodi:role="line"
         id="tspan3642"
         x="858.62964"
         y="1032.1592">long</tspan></text>
    <text
       xml:space="preserve"
       style="font-size:56px;font-style:normal;font-variant:normal;font-weight:normal;font-stretch:normal;fill:#000000;fill-opacity:1;stroke:none;font-family:Arial;-inkscape-font-specification:Arial"
       x="272.74118"
       y="1038.2201"
       id="text3644"><tspan
         sodipodi:role="line"
         id="tspan3646"
         x="272.74118"
         y="1038.2201">medium</tspan></text>
    <text
       xml:space="preserve"
       style="font-size:56px;font-style:normal;font-variant:normal;font-weight:normal;font-stretch:normal;fill:#000000;fill-opacity:1;stroke:none;font-family:Arial;-inkscape-font-specification:Arial"
       x="76.771591"
       y="1044.281"
       id="text3648"><tspan
         sodipodi:role="line"
         id="tspan3650"
         x="76.771591"
         y="1044.281">short</tspan></text>
  </g>
</svg>
