<?xml version="1.0" encoding="UTF-8" standalone="no"?>
<!-- Created with Inkscape (http://www.inkscape.org/) -->

<svg
   xmlns:dc="http://purl.org/dc/elements/1.1/"
   xmlns:cc="http://creativecommons.org/ns#"
   xmlns:rdf="http://www.w3.org/1999/02/22-rdf-syntax-ns#"
   xmlns:svg="http://www.w3.org/2000/svg"
   xmlns="http://www.w3.org/2000/svg"
   xmlns:sodipodi="http://sodipodi.sourceforge.net/DTD/sodipodi-0.dtd"
   xmlns:inkscape="http://www.inkscape.org/namespaces/inkscape"
   width="1000"
   height="1000"
   id="svg3173"
   version="1.1"
   inkscape:version="0.47 r22583"
   sodipodi:docname="yan_quan_shangxia.svg"
   inkscape:export-filename="E:\chinese\images\yan_quan_topbottom.png"
   inkscape:export-xdpi="18.005705"
   inkscape:export-ydpi="18.005705">
  <title
     id="title3623">Quan showing Top and Bottom Structure</title>
  <defs
     id="defs3175">
    <inkscape:perspective
       sodipodi:type="inkscape:persp3d"
       inkscape:vp_x="0 : 526.18109 : 1"
       inkscape:vp_y="0 : 1000 : 0"
       inkscape:vp_z="744.09448 : 526.18109 : 1"
       inkscape:persp3d-origin="372.04724 : 350.78739 : 1"
       id="perspective3181" />
    <inkscape:perspective
       id="perspective3191"
       inkscape:persp3d-origin="0.5 : 0.33333333 : 1"
       inkscape:vp_z="1 : 0.5 : 1"
       inkscape:vp_y="0 : 1000 : 0"
       inkscape:vp_x="0 : 0.5 : 1"
       sodipodi:type="inkscape:persp3d" />
    <inkscape:perspective
       id="perspective4006"
       inkscape:persp3d-origin="0.5 : 0.33333333 : 1"
       inkscape:vp_z="1 : 0.5 : 1"
       inkscape:vp_y="0 : 1000 : 0"
       inkscape:vp_x="0 : 0.5 : 1"
       sodipodi:type="inkscape:persp3d" />
    <inkscape:perspective
       id="perspective4034"
       inkscape:persp3d-origin="0.5 : 0.33333333 : 1"
       inkscape:vp_z="1 : 0.5 : 1"
       inkscape:vp_y="0 : 1000 : 0"
       inkscape:vp_x="0 : 0.5 : 1"
       sodipodi:type="inkscape:persp3d" />
    <inkscape:perspective
       id="perspective4081"
       inkscape:persp3d-origin="0.5 : 0.33333333 : 1"
       inkscape:vp_z="1 : 0.5 : 1"
       inkscape:vp_y="0 : 1000 : 0"
       inkscape:vp_x="0 : 0.5 : 1"
       sodipodi:type="inkscape:persp3d" />
    <inkscape:perspective
       id="perspective4147"
       inkscape:persp3d-origin="0.5 : 0.33333333 : 1"
       inkscape:vp_z="1 : 0.5 : 1"
       inkscape:vp_y="0 : 1000 : 0"
       inkscape:vp_x="0 : 0.5 : 1"
       sodipodi:type="inkscape:persp3d" />
    <inkscape:perspective
       id="perspective3765"
       inkscape:persp3d-origin="0.5 : 0.33333333 : 1"
       inkscape:vp_z="1 : 0.5 : 1"
       inkscape:vp_y="0 : 1000 : 0"
       inkscape:vp_x="0 : 0.5 : 1"
       sodipodi:type="inkscape:persp3d" />
    <inkscape:perspective
       id="perspective3793"
       inkscape:persp3d-origin="0.5 : 0.33333333 : 1"
       inkscape:vp_z="1 : 0.5 : 1"
       inkscape:vp_y="0 : 1000 : 0"
       inkscape:vp_x="0 : 0.5 : 1"
       sodipodi:type="inkscape:persp3d" />
    <inkscape:perspective
       id="perspective3780"
       inkscape:persp3d-origin="0.5 : 0.33333333 : 1"
       inkscape:vp_z="1 : 0.5 : 1"
       inkscape:vp_y="0 : 1000 : 0"
       inkscape:vp_x="0 : 0.5 : 1"
       sodipodi:type="inkscape:persp3d" />
    <inkscape:perspective
       id="perspective2993"
       inkscape:persp3d-origin="0.5 : 0.33333333 : 1"
       inkscape:vp_z="1 : 0.5 : 1"
       inkscape:vp_y="0 : 1000 : 0"
       inkscape:vp_x="0 : 0.5 : 1"
       sodipodi:type="inkscape:persp3d" />
    <inkscape:perspective
       id="perspective3767"
       inkscape:persp3d-origin="0.5 : 0.33333333 : 1"
       inkscape:vp_z="1 : 0.5 : 1"
       inkscape:vp_y="0 : 1000 : 0"
       inkscape:vp_x="0 : 0.5 : 1"
       sodipodi:type="inkscape:persp3d" />
    <inkscape:perspective
       id="perspective3014"
       inkscape:persp3d-origin="0.5 : 0.33333333 : 1"
       inkscape:vp_z="1 : 0.5 : 1"
       inkscape:vp_y="0 : 1000 : 0"
       inkscape:vp_x="0 : 0.5 : 1"
       sodipodi:type="inkscape:persp3d" />
    <inkscape:perspective
       id="perspective2863"
       inkscape:persp3d-origin="0.5 : 0.33333333 : 1"
       inkscape:vp_z="1 : 0.5 : 1"
       inkscape:vp_y="0 : 1000 : 0"
       inkscape:vp_x="0 : 0.5 : 1"
       sodipodi:type="inkscape:persp3d" />
  </defs>
  <sodipodi:namedview
     id="base"
     pagecolor="#ffffff"
     bordercolor="#666666"
     borderopacity="1.0"
     inkscape:pageopacity="0.0"
     inkscape:pageshadow="2"
     inkscape:zoom="0.49497475"
     inkscape:cx="666.41836"
     inkscape:cy="523.20378"
     inkscape:document-units="px"
     inkscape:current-layer="layer1"
     showgrid="false"
     inkscape:window-width="1440"
     inkscape:window-height="840"
     inkscape:window-x="-4"
     inkscape:window-y="-4"
     inkscape:window-maximized="1" />
  <metadata
     id="metadata3178">
    <rdf:RDF>
      <cc:Work
         rdf:about="">
        <dc:format>image/svg+xml</dc:format>
        <dc:type
           rdf:resource="http://purl.org/dc/dcmitype/StillImage" />
        <dc:title>Quan showing Top and Bottom Structure</dc:title>
        <dc:date>2010-07-26</dc:date>
        <dc:creator>
          <cc:Agent>
            <dc:title>Alex Amies</dc:title>
          </cc:Agent>
        </dc:creator>
        <dc:rights>
          <cc:Agent>
            <dc:title>@ Alex Amies 2010</dc:title>
          </cc:Agent>
        </dc:rights>
        <dc:publisher>
          <cc:Agent>
            <dc:title>chinesenotes.com</dc:title>
          </cc:Agent>
        </dc:publisher>
        <dc:source>Yan Qin Ceremonial Inscription</dc:source>
        <dc:language>Chinese 中文</dc:language>
        <dc:description>Tracing from Tang Dynasty Ceremonial Inscription by Yan Zhenqing 颜真卿 (709－785)</dc:description>
        <cc:license
           rdf:resource="http://creativecommons.org/licenses/by/3.0/" />
      </cc:Work>
      <cc:License
         rdf:about="http://creativecommons.org/licenses/by/3.0/">
        <cc:permits
           rdf:resource="http://creativecommons.org/ns#Reproduction" />
        <cc:permits
           rdf:resource="http://creativecommons.org/ns#Distribution" />
        <cc:requires
           rdf:resource="http://creativecommons.org/ns#Notice" />
        <cc:requires
           rdf:resource="http://creativecommons.org/ns#Attribution" />
        <cc:permits
           rdf:resource="http://creativecommons.org/ns#DerivativeWorks" />
      </cc:License>
    </rdf:RDF>
  </metadata>
  <g
     inkscape:label="Layer 1"
     inkscape:groupmode="layer"
     id="layer1"
     transform="translate(0,-52.362183)">
    <g
       transform="matrix(4.7513766,0,0,4.7513766,-2223.1254,31.218808)"
       id="g5443"
       style="fill:#000000;fill-opacity:1">
      <path
         id="path5405"
         d="m 551.12276,9.0463855 c -4.004,11.8743455 -10.60596,22.4310755 -17.42838,33.2221185 -4.99224,3.93127 1.13247,3.632298 4.85359,2.967541 11.73829,-3.070322 21.56356,-10.559014 31.80917,-16.802432 4.53072,-5.473942 -1.39693,-11.312222 -4.28571,-16.785714 -4.46747,-3.101824 -10.3152,-7.722681 -14.94867,-2.6015135 z"
         style="fill:#000000;fill-opacity:1;stroke:#000000;stroke-width:1px;stroke-linecap:butt;stroke-linejoin:miter;stroke-opacity:1"
         sodipodi:nodetypes="cccccc" />
      <path
         id="path5407"
         d="m 545.35714,32.719325 c -3.01692,1.359817 -3.81403,6.152894 0.45216,6.010608 5.00136,0.93522 10.13275,1.251475 15.20889,1.363338 15.51318,-0.02715 29.97291,-4.1709 44.6961,-8.445374 5.67828,0.257134 -0.29529,6.470049 -0.43533,9.564528 -4.52317,12.120108 -9.10083,24.220205 -13.51746,36.37977 -0.79639,4.510755 -1.28042,10.449994 3.34452,13.083979 3.72005,1.625346 8.27548,-0.105477 9.49451,-4.151003 7.68384,-14.212304 14.87495,-28.684665 22.18518,-43.09156 3.27625,-2.227229 5.32572,-7.922029 2.83831,-11.216027 -4.34314,-4.426644 -9.11018,-8.469715 -13.86457,-12.46593 -1.33583,-1.349377 -1.86771,1.886915 -2.81712,2.739955 -1.91421,3.05599 -6.97167,1.05218 -10.08962,2.197528 -14.95927,1.617855 -29.78893,4.243545 -44.73629,5.978166 -4.22304,0.772427 -8.69973,0.592446 -12.75928,2.052022 z"
         style="fill:#000000;fill-opacity:1;stroke:#000000;stroke-width:1px;stroke-linecap:butt;stroke-linejoin:miter;stroke-opacity:1"
         sodipodi:nodetypes="ccccccccccccccc" />
      <path
         id="path5409"
         d="m 518.92857,35.576468 c -2.20771,0.39213 -2.54634,2.338887 -2.44411,4.265614 2.82046,10.407031 8.17429,19.863373 12.52062,29.678832 0.92687,4.518518 1.85375,9.037036 2.78062,13.555554 2.98158,5.914111 7.52293,7.940696 13.57143,6.428572 -0.87051,-7.081936 -1.77897,-14.175283 -3.00911,-21.198688 -1.8541,-5.909961 -5.49392,-16.105637 -7.34803,-22.015598 -5.53021,-3.27761 -11.04099,-6.560081 -16.07142,-10.714286 z"
         style="fill:#000000;fill-opacity:1;stroke:#000000;stroke-width:1px;stroke-linecap:butt;stroke-linejoin:miter;stroke-opacity:1"
         sodipodi:nodetypes="cccccccc" />
      <path
         id="path5411"
         d="m 536.18933,65.256329 c 0.79657,2.474572 3.91434,2.050091 6.05302,1.735038 12.10823,-2.383782 24.20682,-4.817211 36.32908,-7.129184 1.19048,-1.071429 2.38095,-2.142857 3.57143,-3.214286 -0.88023,-2.291773 -2.36911,-3.630995 -4.28572,-5 -13.23512,2.681329 -26.4352,5.612595 -39.49371,9.062401 -2.51903,0.386995 -2.67397,2.327692 -2.1741,4.546031 z"
         style="fill:#000000;fill-opacity:1;stroke:#000000;stroke-width:1px;stroke-linecap:butt;stroke-linejoin:miter;stroke-opacity:1"
         sodipodi:nodetypes="ccccccc" />
      <path
         id="path5413"
         d="m 529.64286,90.576468 c -1.55414,2.296462 -3.28815,5.770356 -0.87506,8.054697 15.87599,-3.166192 45.94618,-7.135808 62.94739,-10.297871 2.28541,-0.799894 4.57083,-1.599789 6.85624,-2.399683 0.73668,-6.703015 -5.079,-9.538721 -10.86868,-8.17354 -19.01449,5.06049 -38.24267,6.482125 -58.05989,12.816397 z"
         style="fill:#000000;fill-opacity:1;stroke:#000000;stroke-width:1px;stroke-linecap:butt;stroke-linejoin:miter;stroke-opacity:1"
         sodipodi:nodetypes="cccccc" />
      <path
         id="path5415"
         d="m 562.14286,89.147897 c -3.50264,1.970331 -5.70634,4.438084 -4.71756,8.455381 0.86247,3.995802 2.20843,7.927012 2.00919,12.064632 0.7779,23.16018 1.84223,46.31165 2.35122,69.47999 -1.21287,1.21613 -2.44268,2.31059 -4.01349,0.95432 -3.30891,-1.37952 -6.48441,-3.10303 -9.91508,-4.16861 0.51177,1.92719 0.0824,4.33869 1.98085,5.55228 2.6777,2.77079 5.57726,5.3924 8.11845,8.25498 3.56772,5.67663 1.98019,10.9089 1.39133,17.15527 0.8349,7.31464 8.38682,5.42377 12.88783,2.01327 1.19213,-3.18724 2.79261,-6.27069 2.8609,-9.74362 1.2498,-10.17789 2.6961,-20.34495 3.82347,-30.52959 -0.31097,-14.76127 -0.36956,-29.53208 -0.84092,-44.28728 -0.83469,-9.9785 -0.057,-20.16833 -3.62252,-29.662111 -3.83428,-4.683956 -6.60496,-5.538912 -12.31367,-5.538912 z"
         style="fill:#000000;fill-opacity:1;stroke:#000000;stroke-width:1px;stroke-linecap:butt;stroke-linejoin:miter;stroke-opacity:1"
         sodipodi:nodetypes="ccccccccccccccc" />
      <path
         id="path5417"
         d="m 495.71429,129.50504 c -4.36102,3.76038 -3.92858,7.48042 -3.92858,12.85714 1.88957,3.77928 3.96319,3.66897 7.85715,3.92857 13.29515,-5.82323 24.41908,-14.92505 36.78571,-22.14285 0.25623,-2.75846 -0.0701,-3.37241 -2.60353,-4.26073 -12.71766,3.16352 -25.55481,5.85109 -38.11075,9.61787 z"
         style="fill:#000000;fill-opacity:1;stroke:#000000;stroke-width:1px;stroke-linecap:butt;stroke-linejoin:miter;stroke-opacity:1"
         sodipodi:nodetypes="cccccc" />
      <path
         id="path5419"
         d="m 543.92857,105.57647 c -1.42857,0 -2.85714,0 -4.28571,0 -3.55093,8.96713 -5.91079,18.3864 -9.31695,27.37752 -5.73298,8.63012 -11.18342,17.46193 -17.10942,25.95509 -9.72882,11.53533 -19.90463,22.70267 -29.28792,34.52453 3.60919,1.8676 6.39493,-1.53725 9.44302,-2.9684 3.34995,-2.09526 7.00572,-3.82452 10.09291,-6.26615 6.92798,-7.4712 14.10589,-14.74089 20.09797,-23.01375 5.03916,-6.67113 10.75192,-12.89681 14.68707,-20.32253 3.69655,-6.25517 7.66492,-12.39687 10.09135,-19.28931 1.03828,-3.01517 3.58876,-7.04457 1.57976,-10.00497 -1.99735,-1.99732 -3.99478,-3.99482 -5.99208,-5.99203 z"
         style="fill:#000000;fill-opacity:1;stroke:#000000;stroke-width:1px;stroke-linecap:butt;stroke-linejoin:miter;stroke-opacity:1" />
      <path
         id="path5421"
         d="m 571.07143,106.18657 c -0.34187,3.45786 0.7166,6.762 1.42857,10.10418 8.48969,9.48002 17.19117,18.77654 25.54294,28.37607 10.68126,10.6242 17.84554,25.85585 30.86312,34.03293 1.23729,1.30656 2.70885,1.16148 4.25836,0.53334 12.0757,-2.85701 23.99798,-6.16313 35.76415,-10.08519 0.24099,-1.31088 2.47378,-3.33635 0.2973,-3.77993 -4.05667,-2.04893 -8.06508,-4.21241 -12.45929,-5.46004 -14.04455,-3.73717 -26.54608,-10.02747 -38.78613,-17.66467 -14.3739,-10.77342 -26.87902,-23.63081 -38.33759,-37.38108 -3.5643,-1.25955 -5.61167,-0.91801 -8.57143,1.32439 z"
         style="fill:#000000;fill-opacity:1;stroke:#000000;stroke-width:1px;stroke-linecap:butt;stroke-linejoin:miter;stroke-opacity:1"
         sodipodi:nodetypes="ccccccccccc" />
      <path
         id="path5423"
         d="M 625.2656,79.609507 C 615.17706,91.122304 605.08853,102.6351 595,114.1479 c -2.36031,3.60649 -2.39639,5.22794 -0.71429,8.92857 13.56837,-9.58048 27.71062,-18.29025 41.6445,-27.317651 7.24304,-4.913548 7.28408,-6.222365 7.28408,-14.468065 -5.64062,-3.951342 -11.83107,-4.131797 -17.94869,-1.681247 z"
         style="fill:#000000;fill-opacity:1;stroke:#000000;stroke-width:1px;stroke-linecap:butt;stroke-linejoin:miter;stroke-opacity:1"
         sodipodi:nodetypes="cccccc" />
    </g>
    <path
       style="fill:none;stroke:#000000;stroke-width:2;stroke-linecap:butt;stroke-linejoin:miter;stroke-opacity:1;stroke-miterlimit:4;stroke-dasharray:6,6;stroke-dashoffset:0"
       d="m 226.27167,61.980884 0,442.881116 551.54828,0 0,-444.881283 -551.54828,2.000167 z"
       id="path2853"
       sodipodi:nodetypes="ccccc" />
    <path
       style="fill:none;stroke:#000000;stroke-width:2;stroke-linecap:butt;stroke-linejoin:miter;stroke-opacity:1;stroke-miterlimit:4;stroke-dasharray:6,6;stroke-dashoffset:0"
       d="m 76.017766,402.72521 0,635.44299 888.421594,0 0,-638.31282 -888.421594,2.86983 z"
       id="path2853-1"
       sodipodi:nodetypes="ccccc" />
  </g>
</svg>
