<?xml version="1.0" encoding="UTF-8" standalone="no"?>
<!-- Created with Inkscape (http://www.inkscape.org/) -->

<svg
   xmlns:dc="http://purl.org/dc/elements/1.1/"
   xmlns:cc="http://creativecommons.org/ns#"
   xmlns:rdf="http://www.w3.org/1999/02/22-rdf-syntax-ns#"
   xmlns:svg="http://www.w3.org/2000/svg"
   xmlns="http://www.w3.org/2000/svg"
   xmlns:sodipodi="http://sodipodi.sourceforge.net/DTD/sodipodi-0.dtd"
   xmlns:inkscape="http://www.inkscape.org/namespaces/inkscape"
   width="1000"
   height="1000"
   id="svg3173"
   version="1.1"
   inkscape:version="0.47 r22583"
   sodipodi:docname="yan_sheng_shangxia.svg"
   inkscape:export-filename="E:\chinese\images\yan_sheng_topbottom.png"
   inkscape:export-xdpi="18.005705"
   inkscape:export-ydpi="18.005705">
  <title
     id="title3684">Sheng</title>
  <defs
     id="defs3175">
    <inkscape:perspective
       sodipodi:type="inkscape:persp3d"
       inkscape:vp_x="0 : 526.18109 : 1"
       inkscape:vp_y="0 : 1000 : 0"
       inkscape:vp_z="744.09448 : 526.18109 : 1"
       inkscape:persp3d-origin="372.04724 : 350.78739 : 1"
       id="perspective3181" />
    <inkscape:perspective
       id="perspective3191"
       inkscape:persp3d-origin="0.5 : 0.33333333 : 1"
       inkscape:vp_z="1 : 0.5 : 1"
       inkscape:vp_y="0 : 1000 : 0"
       inkscape:vp_x="0 : 0.5 : 1"
       sodipodi:type="inkscape:persp3d" />
    <inkscape:perspective
       id="perspective4006"
       inkscape:persp3d-origin="0.5 : 0.33333333 : 1"
       inkscape:vp_z="1 : 0.5 : 1"
       inkscape:vp_y="0 : 1000 : 0"
       inkscape:vp_x="0 : 0.5 : 1"
       sodipodi:type="inkscape:persp3d" />
    <inkscape:perspective
       id="perspective4034"
       inkscape:persp3d-origin="0.5 : 0.33333333 : 1"
       inkscape:vp_z="1 : 0.5 : 1"
       inkscape:vp_y="0 : 1000 : 0"
       inkscape:vp_x="0 : 0.5 : 1"
       sodipodi:type="inkscape:persp3d" />
    <inkscape:perspective
       id="perspective4081"
       inkscape:persp3d-origin="0.5 : 0.33333333 : 1"
       inkscape:vp_z="1 : 0.5 : 1"
       inkscape:vp_y="0 : 1000 : 0"
       inkscape:vp_x="0 : 0.5 : 1"
       sodipodi:type="inkscape:persp3d" />
    <inkscape:perspective
       id="perspective4147"
       inkscape:persp3d-origin="0.5 : 0.33333333 : 1"
       inkscape:vp_z="1 : 0.5 : 1"
       inkscape:vp_y="0 : 1000 : 0"
       inkscape:vp_x="0 : 0.5 : 1"
       sodipodi:type="inkscape:persp3d" />
    <inkscape:perspective
       id="perspective3765"
       inkscape:persp3d-origin="0.5 : 0.33333333 : 1"
       inkscape:vp_z="1 : 0.5 : 1"
       inkscape:vp_y="0 : 1000 : 0"
       inkscape:vp_x="0 : 0.5 : 1"
       sodipodi:type="inkscape:persp3d" />
    <inkscape:perspective
       id="perspective3793"
       inkscape:persp3d-origin="0.5 : 0.33333333 : 1"
       inkscape:vp_z="1 : 0.5 : 1"
       inkscape:vp_y="0 : 1000 : 0"
       inkscape:vp_x="0 : 0.5 : 1"
       sodipodi:type="inkscape:persp3d" />
    <inkscape:perspective
       id="perspective3764"
       inkscape:persp3d-origin="0.5 : 0.33333333 : 1"
       inkscape:vp_z="1 : 0.5 : 1"
       inkscape:vp_y="0 : 1000 : 0"
       inkscape:vp_x="0 : 0.5 : 1"
       sodipodi:type="inkscape:persp3d" />
    <inkscape:perspective
       id="perspective3657"
       inkscape:persp3d-origin="0.5 : 0.33333333 : 1"
       inkscape:vp_z="1 : 0.5 : 1"
       inkscape:vp_y="0 : 1000 : 0"
       inkscape:vp_x="0 : 0.5 : 1"
       sodipodi:type="inkscape:persp3d" />
    <inkscape:perspective
       id="perspective2848"
       inkscape:persp3d-origin="0.5 : 0.33333333 : 1"
       inkscape:vp_z="1 : 0.5 : 1"
       inkscape:vp_y="0 : 1000 : 0"
       inkscape:vp_x="0 : 0.5 : 1"
       sodipodi:type="inkscape:persp3d" />
  </defs>
  <sodipodi:namedview
     id="base"
     pagecolor="#ffffff"
     bordercolor="#666666"
     borderopacity="1.0"
     inkscape:pageopacity="0.0"
     inkscape:pageshadow="2"
     inkscape:zoom="0.49497475"
     inkscape:cx="286.60101"
     inkscape:cy="517.14286"
     inkscape:document-units="px"
     inkscape:current-layer="layer1"
     showgrid="false"
     inkscape:window-width="1440"
     inkscape:window-height="840"
     inkscape:window-x="-4"
     inkscape:window-y="-4"
     inkscape:window-maximized="1" />
  <metadata
     id="metadata3178">
    <rdf:RDF>
      <cc:Work
         rdf:about="">
        <dc:format>image/svg+xml</dc:format>
        <dc:type
           rdf:resource="http://purl.org/dc/dcmitype/StillImage" />
        <dc:title>Sheng</dc:title>
        <dc:date>2010-07-19</dc:date>
        <dc:creator>
          <cc:Agent>
            <dc:title>Alex Amies</dc:title>
          </cc:Agent>
        </dc:creator>
        <dc:rights>
          <cc:Agent>
            <dc:title>@ Alex Amies 2010</dc:title>
          </cc:Agent>
        </dc:rights>
        <dc:publisher>
          <cc:Agent>
            <dc:title>chinesenotes.com</dc:title>
          </cc:Agent>
        </dc:publisher>
        <dc:source>Yan Qin Ceremonial Inscription</dc:source>
        <dc:language>Chinese 中文</dc:language>
        <dc:description>Tracing from Tang Dynasty Ceremonial Inscription by Yan Zhenqing 颜真卿 (709－785)</dc:description>
        <cc:license
           rdf:resource="http://creativecommons.org/licenses/by/3.0/" />
      </cc:Work>
      <cc:License
         rdf:about="http://creativecommons.org/licenses/by/3.0/">
        <cc:permits
           rdf:resource="http://creativecommons.org/ns#Reproduction" />
        <cc:permits
           rdf:resource="http://creativecommons.org/ns#Distribution" />
        <cc:requires
           rdf:resource="http://creativecommons.org/ns#Notice" />
        <cc:requires
           rdf:resource="http://creativecommons.org/ns#Attribution" />
        <cc:permits
           rdf:resource="http://creativecommons.org/ns#DerivativeWorks" />
      </cc:License>
    </rdf:RDF>
  </metadata>
  <g
     inkscape:label="Layer 1"
     inkscape:groupmode="layer"
     id="layer1"
     transform="translate(0,-52.362183)">
    <g
       transform="matrix(4.7513766,0,0,4.7513766,-1438.7404,-2863.5829)"
       id="g5429"
       style="fill:#000000;fill-opacity:1">
      <path
         sodipodi:nodetypes="ccccc"
         id="path5370"
         d="m 366.07142,663.07648 c -6.85234,4.56096 -14.01058,5.63737 -20.03566,3.16982 -8.92457,8.10657 0.98338,20.88042 10.32963,23.52474 7.72593,-0.31743 9.60377,-5.27215 6.97638,-10.86412 -3.65948,-6.54765 -2.73175,-6.61774 2.72965,-15.83044 z"
         style="fill:#000000;fill-opacity:1;stroke:#000000;stroke-width:1px;stroke-linecap:butt;stroke-linejoin:miter;stroke-opacity:1" />
      <path
         id="path5372"
         d="m 387.85714,635.93361 c 1.42573,2.66689 2.94102,5.28584 4.3108,7.98257 3.42626,12.65438 2.17002,25.75365 3.49512,38.6826 2.27887,6.86007 12.20026,6.67336 13.33785,-0.38337 2.04593,-11.487 2.23622,-22.82461 4.68396,-34.25153 1.4664,-3.8045 1.01169,-6.33004 -0.47056,-9.88741 -8.86776,-4.99879 -16.85242,-9.69772 -25.35717,-2.14286 z"
         style="fill:#000000;fill-opacity:1;stroke:#000000;stroke-width:1px;stroke-linecap:butt;stroke-linejoin:miter;stroke-opacity:1"
         sodipodi:nodetypes="ccccccc" />
      <path
         style="fill:#000000;fill-opacity:1;stroke:#000000;stroke-width:1px;stroke-linecap:butt;stroke-linejoin:miter;stroke-opacity:1"
         d="m 459.64285,665.57647 c 2.37243,11.28617 11.60006,14.20876 14.64286,-2.5 -0.66437,-6.64872 -3.25359,-10.33304 -6.55575,-16.63639 -4.22592,-4.68597 -9.26786,-6.51777 -14.51568,-4.79218 -2.71703,3.06809 -0.76542,8.72225 -5.55246,12.36138 9.86025,1.25638 6.65991,4.50439 11.98103,11.56719 z"
         id="path5374"
         sodipodi:nodetypes="cccccc" />
      <path
         id="path5376"
         d="m 424.28571,655.93361 c -6.21554,-0.60636 -4.87297,6.48668 -8.87593,9.35656 -22.03834,26.84561 -48.33231,49.72384 -72.72007,74.3486 -8.63887,10.04327 -16.71662,20.64472 -26.61828,29.50913 2.74278,6.64925 8.84833,-2.87182 12.73319,-4.42764 34.67064,-27.9421 66.93927,-58.69507 100.52809,-87.93081 3.63183,-3.99545 12.97637,-4.64999 8.35867,-11.35212 -1.63099,-5.17468 -7.84625,-7.00511 -12.39215,-9.08639 -0.33784,-0.13911 -0.67568,-0.27822 -1.01352,-0.41733 z"
         style="fill:#000000;fill-opacity:1;stroke:#000000;stroke-width:1px;stroke-linecap:butt;stroke-linejoin:miter;stroke-opacity:1"
         sodipodi:nodetypes="ccccccccc" />
      <path
         id="path5378"
         d="m 392.85714,713.07647 c -3.72768,1.36786 -4.08725,5.84379 -3.88157,9.24723 0.161,25.21211 0.39266,50.42641 0.71941,75.63789 -1.59687,10.82865 9.94827,16.65968 11.31637,2.76811 -0.19433,-12.92267 -1.19556,-25.88075 0.16323,-38.77447 0.44801,-15.51107 3.15292,-31.59941 0.62498,-47.06661 -1.93921,-2.35511 -4.88493,-3.99324 -7.74931,-2.17926 -0.3977,0.12237 -0.79541,0.24474 -1.19311,0.36711 z"
         style="fill:#000000;fill-opacity:1;stroke:#000000;stroke-width:1px;stroke-linecap:butt;stroke-linejoin:miter;stroke-opacity:1"
         sodipodi:nodetypes="cccccccc" />
      <path
         id="path5380"
         d="m 396.42857,709.86218 c -1.78571,1.07143 -3.57143,2.14286 -5.35714,3.21429 -0.38301,7.60555 9.02864,3.95348 12.40374,1.22937 11.76761,-3.04412 24.36133,-3.26063 35.409,-8.75179 6.42362,0.89425 6.10136,8.76018 6.26234,13.68269 1.21775,21.50505 1.32988,43.08271 0.50125,64.60266 -0.37366,6.0611 -0.95638,12.10682 -1.36205,18.16564 4.16678,10.95207 12.81811,4.84269 15.94321,-7.24208 1.70815,-24.98221 2.83678,-50.35016 1.4397,-75.4113 -0.95418,-5.56572 -3.22352,-10.92202 -6.17334,-15.71846 -2.36446,-3.84922 -6.58405,-5.81319 -10.61432,-7.31878 -5.55804,-0.59166 -9.95015,3.94062 -15.37009,4.50693 -11.08878,2.78268 -22.1222,5.78754 -33.0823,9.04083 z"
         style="fill:#000000;fill-opacity:1;stroke:#000000;stroke-width:1px;stroke-linecap:butt;stroke-linejoin:miter;stroke-opacity:1"
         sodipodi:nodetypes="ccccccccccccc" />
      <path
         id="path5382"
         d="m 397.5,740.21933 c 10.96415,2.9079 16.87345,0.3279 25,-1.07143 3.40078,-2.82535 5.93181,-5.01618 6.78571,-9.28572 -2.13198,-3.9377 -8.04318,-0.7607 -11.74134,0.12044 -6.6929,3.50868 -11.50466,2.10058 -20.04437,10.23671 z"
         style="fill:#000000;fill-opacity:1;stroke:#000000;stroke-width:1px;stroke-linecap:butt;stroke-linejoin:miter;stroke-opacity:1"
         sodipodi:nodetypes="ccccc" />
      <path
         id="path5384"
         d="m 397.5,764.86218 c -2.56552,4.44214 2.44296,5.80739 6.15569,6.41306 9.27773,-1.39059 18.34326,-3.72963 27.41574,-6.05591 4.25389,-2.87846 4.81333,-3.30354 2.14285,-7.5 -12.82283,-1.45203 -23.46384,4.9905 -35.71428,7.14285 z"
         style="fill:#000000;fill-opacity:1;stroke:#000000;stroke-width:1px;stroke-linecap:butt;stroke-linejoin:miter;stroke-opacity:1"
         sodipodi:nodetypes="ccccc" />
      <path
         id="path5386"
         d="m 384.28571,798.07647 c -2.30613,4.24569 1.84396,6.10094 5.49609,7.48575 9.52798,-0.0461 18.2947,-2.93287 27.33031,-5.48596 9.74026,-2.59371 19.68084,-3.5481 29.6736,-4.49979 3.47349,-3.96642 1.15545,-6.73007 -2.5,-9.64286 -5.56339,0.51608 -11.14901,0.905 -16.69857,1.5002 -14.31618,4.01961 -28.8241,7.27123 -43.30143,10.64266 z"
         style="fill:#000000;fill-opacity:1;stroke:#000000;stroke-width:1px;stroke-linecap:butt;stroke-linejoin:miter;stroke-opacity:1"
         sodipodi:nodetypes="ccccccc" />
    </g>
    <path
       style="fill:none;stroke:#000000;stroke-width:2.13268423;stroke-linecap:butt;stroke-linejoin:miter;stroke-miterlimit:4;stroke-opacity:1;stroke-dasharray:6.39805305, 6.39805305;stroke-dashoffset:0"
       d="M 233.40908,141.03405 61.683145,808.04601 817.14956,367.6195 l 0,-228.57596 -583.74048,1.99051 z"
       id="path2853"
       sodipodi:nodetypes="ccccc" />
    <path
       style="fill:none;stroke:#000000;stroke-width:1.82070804;stroke-linecap:butt;stroke-linejoin:miter;stroke-miterlimit:4;stroke-opacity:1;stroke-dasharray:5.46212401, 5.46212401;stroke-dashoffset:0"
       d="m 382.75567,446.37243 0,535.5758 377.98134,0 0,-537.99461 -377.98134,2.41881 z"
       id="path2853-1"
       sodipodi:nodetypes="ccccc" />
  </g>
</svg>
