<?xml version="1.0" encoding="UTF-8" standalone="no"?>
<!-- Created with Inkscape (http://www.inkscape.org/) -->

<svg
   xmlns:dc="http://purl.org/dc/elements/1.1/"
   xmlns:cc="http://creativecommons.org/ns#"
   xmlns:rdf="http://www.w3.org/1999/02/22-rdf-syntax-ns#"
   xmlns:svg="http://www.w3.org/2000/svg"
   xmlns="http://www.w3.org/2000/svg"
   xmlns:sodipodi="http://sodipodi.sourceforge.net/DTD/sodipodi-0.dtd"
   xmlns:inkscape="http://www.inkscape.org/namespaces/inkscape"
   width="744.09448819"
   height="1052.3622047"
   id="svg2"
   version="1.1"
   inkscape:version="0.47 r22583"
   sodipodi:docname="yanqin13svg.svg">
  <title
     id="title3129">Yan Qin Ceremonial Inscription Page IV</title>
  <defs
     id="defs4">
    <inkscape:perspective
       sodipodi:type="inkscape:persp3d"
       inkscape:vp_x="0 : 526.18109 : 1"
       inkscape:vp_y="0 : 1000 : 0"
       inkscape:vp_z="744.09448 : 526.18109 : 1"
       inkscape:persp3d-origin="372.04724 : 350.78739 : 1"
       id="perspective10" />
    <inkscape:perspective
       id="perspective2824"
       inkscape:persp3d-origin="0.5 : 0.33333333 : 1"
       inkscape:vp_z="1 : 0.5 : 1"
       inkscape:vp_y="0 : 1000 : 0"
       inkscape:vp_x="0 : 0.5 : 1"
       sodipodi:type="inkscape:persp3d" />
    <inkscape:perspective
       id="perspective2993"
       inkscape:persp3d-origin="0.5 : 0.33333333 : 1"
       inkscape:vp_z="1 : 0.5 : 1"
       inkscape:vp_y="0 : 1000 : 0"
       inkscape:vp_x="0 : 0.5 : 1"
       sodipodi:type="inkscape:persp3d" />
    <inkscape:perspective
       id="perspective3821"
       inkscape:persp3d-origin="0.5 : 0.33333333 : 1"
       inkscape:vp_z="1 : 0.5 : 1"
       inkscape:vp_y="0 : 1000 : 0"
       inkscape:vp_x="0 : 0.5 : 1"
       sodipodi:type="inkscape:persp3d" />
  </defs>
  <sodipodi:namedview
     id="base"
     pagecolor="#ffffff"
     bordercolor="#666666"
     borderopacity="1.0"
     inkscape:pageopacity="0.0"
     inkscape:pageshadow="2"
     inkscape:zoom="1.979899"
     inkscape:cx="290.34259"
     inkscape:cy="102.88557"
     inkscape:document-units="px"
     inkscape:current-layer="layer1"
     showgrid="false"
     inkscape:window-width="1440"
     inkscape:window-height="840"
     inkscape:window-x="-4"
     inkscape:window-y="-4"
     inkscape:window-maximized="1" />
  <metadata
     id="metadata7">
    <rdf:RDF>
      <cc:Work
         rdf:about="">
        <dc:format>image/svg+xml</dc:format>
        <dc:type
           rdf:resource="http://purl.org/dc/dcmitype/StillImage" />
        <dc:title>Yan Qin Ceremonial Inscription Page IV</dc:title>
        <cc:license
           rdf:resource="http://creativecommons.org/licenses/by-sa/3.0/" />
        <dc:date>2010-07-03</dc:date>
        <dc:creator>
          <cc:Agent>
            <dc:title>Alex Amies</dc:title>
          </cc:Agent>
        </dc:creator>
        <dc:rights>
          <cc:Agent>
            <dc:title>Copyright Alex Amies 2010</dc:title>
          </cc:Agent>
        </dc:rights>
        <dc:publisher>
          <cc:Agent>
            <dc:title>chinesenotes.com</dc:title>
          </cc:Agent>
        </dc:publisher>
        <dc:source>Yan Qin Ceremonial Inscription</dc:source>
        <dc:language>Chinese 中文</dc:language>
        <dc:description>Tracing from Tang Dynasty Ceremonial Inscription by Yan Zhenqing 颜真卿 (709－785)</dc:description>
      </cc:Work>
      <cc:License
         rdf:about="http://creativecommons.org/licenses/by-sa/3.0/">
        <cc:permits
           rdf:resource="http://creativecommons.org/ns#Reproduction" />
        <cc:permits
           rdf:resource="http://creativecommons.org/ns#Distribution" />
        <cc:requires
           rdf:resource="http://creativecommons.org/ns#Notice" />
        <cc:requires
           rdf:resource="http://creativecommons.org/ns#Attribution" />
        <cc:permits
           rdf:resource="http://creativecommons.org/ns#DerivativeWorks" />
        <cc:requires
           rdf:resource="http://creativecommons.org/ns#ShareAlike" />
      </cc:License>
    </rdf:RDF>
  </metadata>
  <g
     inkscape:label="Layer 1"
     inkscape:groupmode="layer"
     id="layer1">
    <g
       id="g2856"
       style="fill:#000000;fill-opacity:1">
      <path
         style="fill:#000000;stroke:#000000;stroke-width:1px;stroke-linecap:butt;stroke-linejoin:miter;stroke-opacity:1;fill-opacity:1"
         d="m 586.42857,35.93361 c -1.88048,0.970789 0.76284,5.362257 1.70532,7.830837 1.62097,7.678457 1.60444,15.234719 4.50123,22.696583 2.30184,4.852857 8.3943,5.528126 12.72202,3.044008 1.69651,-1.332977 2.97528,-4.118758 3.21429,-6.428571 -0.0646,-5.918524 -0.73697,-12.781767 -3.21429,-18.214286 -2.6924,-2.623271 -6.15349,-5.139787 -9.64285,-6.785714 -2.82016,-1.330264 -7.21467,-3.212028 -9.28572,-2.142857 z"
         id="path2824"
         sodipodi:nodetypes="ccccccss" />
      <path
         id="path2826"
         d="m 632.85714,38.076467 c 0.0691,4.412672 5.33673,4.924177 7.83227,7.67766 3.84376,2.499121 3.21833,8.481861 7.73946,9.996201 2.78085,1.170698 7.4061,3.993598 9.22207,0.05751 7.36372,-9.422827 -1.89838,-23.293982 -11.28797,-27.751553 -2.76036,-0.550583 -4.22136,2.310649 -6.16163,3.749402 -2.30884,2.260789 -4.79799,4.290403 -7.3442,6.27078 z"
         style="fill:#000000;stroke:#000000;stroke-width:1px;stroke-linecap:butt;stroke-linejoin:miter;stroke-opacity:1;fill-opacity:1"
         sodipodi:nodetypes="ccccccc" />
      <path
         style="fill:#000000;stroke:#000000;stroke-width:1px;stroke-linecap:butt;stroke-linejoin:miter;stroke-opacity:1;fill-opacity:1"
         d="M 618.03125 19.59375 C 617.02265 19.588204 616.01671 19.696457 615 19.875 C 612.84477 37.748736 611.18744 57.325295 609.9375 77.3125 C 605.47381 78.285469 601.00014 79.125573 596.5625 79.90625 L 585.71875 80.5625 C 585.43166 83.808586 586.61283 86.908212 586.75 90.125 C 588.26106 92.510573 589.8962 95.709492 592.5 96.96875 C 595.9178 98.638507 599.45049 96.130559 602.75 95.25 C 604.80163 94.633076 606.9254 93.964918 609.03125 93.3125 C 608.68869 99.982276 608.41372 106.64579 608.15625 113.28125 C 593.3882 117.3949 578.5515 121.23001 563.9375 125.9375 C 561.31325 129.26222 564.05743 132.4573 566.125 135.21875 C 568.57446 138.61331 573.13652 140.8175 577.15625 138.84375 C 582.65104 137.43848 587.05754 133.61514 592.03125 131.0625 C 597.06026 127.98585 602.3718 125.53325 607.78125 123.3125 C 607.35999 136.12417 607.07501 148.6864 606.9375 160.65625 C 608.3054 173.06348 605.89645 185.53157 604.6875 197.375 C 607.44401 207.40594 627.4287 205.76657 621.5 193.15625 C 621.73877 167.91571 622.20987 142.67493 623.03125 117.4375 C 627.67742 115.65942 632.29023 113.81579 636.78125 111.65625 C 642.32313 112.74347 648.08144 112.51512 653.46875 114.34375 C 656.19744 114.43235 662.34786 115.67755 661.8125 111.6875 C 661.7234 107.23317 661.20778 102.20078 657.4375 99.25 C 654.8664 96.503281 650.49522 96.742795 647.34375 98.3125 C 642.16428 100.49735 638.12877 105.00595 632.4375 106.03125 C 629.42307 107.01192 626.37605 107.96002 623.34375 108.875 C 623.58352 102.16226 623.86349 95.460643 624.15625 88.75 C 631.06045 86.767832 638.1186 84.958597 645.1875 83.78125 L 653.21875 83.78125 C 656.2027 82.690083 656.84716 78.792555 655.0625 76.40625 C 653.17394 72.817969 650.77411 69.460252 647.75 66.75 C 645.64158 64.448746 642.31735 64.628698 639.90625 66.375 C 635.17157 69.24437 630.10404 71.452989 624.875 73.25 C 625.35822 63.614178 625.89026 53.972493 626.5 44.34375 C 624.70362 36.216716 635.16905 22.14949 623 20.4375 C 621.37107 19.869776 619.71226 19.602993 618.03125 19.59375 z "
         id="path2828" />
      <path
         id="path2834"
         d="m 678.92857,56.647895 c -1.32041,0.265654 -2.42526,1.581394 -2.85714,2.857143 -0.57767,1.706389 0.60406,3.559001 0.71429,5.357143 0.72117,11.76423 -0.29762,23.570975 -0.35715,35.357139 -0.018,3.57138 0.95333,7.27245 0,10.71429 -0.55588,2.00692 -2.43487,3.42601 -3.21428,5.35714 -0.59445,1.47286 -1.22986,3.06249 -1.07143,4.64286 1.11109,4.1185 3.6092,7.87862 8.21428,7.85714 1.07637,-0.0596 2.36687,0.3092 3.21429,-0.35714 3.72312,-10.97028 1.98159,-23.81518 2.14286,-35.357143 -0.11815,-7.442473 0.23723,-14.852152 1.78571,-22.142857 0.36216,-1.578201 1.1878,-3.041636 1.42857,-4.642858 0.19472,-1.294966 0.45433,-2.700388 0,-3.928571 -1.99166,-3.34075 -6.11905,-5.805429 -10,-5.714286 z"
         style="fill:#000000;stroke:#000000;stroke-width:1px;stroke-linecap:butt;stroke-linejoin:miter;stroke-opacity:1;fill-opacity:1"
         sodipodi:nodetypes="cssssscccccscc" />
      <path
         id="path2838"
         d="m 711.78572,15.219324 c -3.42994,2.042155 -3.50973,5.772352 -2.5,9.285714 0.61739,1.8827 2.62085,3.109611 3.21428,5 0.96337,3.068831 0.3312,6.426472 0.35714,9.642857 0.32165,39.88836 -0.92544,79.784285 -2.5,119.642855 -0.40481,10.24739 4.20789,22.39265 -1.78571,30.71429 -8.44557,2.27185 -16.51451,-3.87674 -25.35714,-2.14286 -0.77993,0.35872 -1.62207,1.30649 -1.42857,2.14286 4.4504,4.09918 10.89571,6.16092 16.07142,10 2.39968,1.85837 5.04525,3.58491 6.78572,6.07143 1.37981,4.34673 1.76298,6.68791 6.78571,7.85714 1.8694,0.38424 3.95637,1.10012 5.71429,0.35714 1.01098,-0.42729 1.4801,-1.62513 2.14286,-2.5 1.29594,-1.71071 3.08063,-3.26785 3.57142,-5.35714 7.03338,-29.94093 3.35765,-61.40597 3.92858,-92.14286 1.96556,-23.236668 -1.28684,-47.232285 0,-70.35714 0.63579,-2.420732 2.57188,-4.366728 3.21428,-6.785715 0.48538,-2.92872 0.62764,-6.025969 0,-8.928571 -3.51511,-5.123485 -10.90049,-13.847517 -18.21428,-12.5 z"
         style="fill:#000000;stroke:#000000;stroke-width:1px;stroke-linecap:butt;stroke-linejoin:miter;stroke-opacity:1;fill-opacity:1"
         sodipodi:nodetypes="ccsssccccccsssccccc" />
    </g>
    <g
       id="g3668"
       style="fill:#000000;fill-opacity:1">
      <path
         id="path3637"
         d="m 627.14286,229.86218 c -0.65856,1.01935 -1.67068,1.95015 -2.11741,3.02256 0.22961,1.49248 0.45923,2.98496 0.68884,4.47744 3.62075,3.79681 7.62862,7.25401 10.97444,11.2936 3.39031,4.70678 7.35575,9.04207 10.10809,14.17456 0.11535,1.15347 0.23069,2.30694 0.34604,3.46041 1.08249,-0.0933 2.52254,0.84232 3.3093,-0.10212 1.64699,-1.5853 3.41099,-3.11179 4.21703,-5.30767 1.41979,-2.8396 2.83959,-5.67919 4.25938,-8.51878 -0.47838,-2.83484 -0.1981,-5.89974 -1.83659,-8.40248 -1.55467,-2.96763 -2.54394,-6.31657 -4.9622,-8.72942 -2.61469,-3.09889 -5.22937,-6.19778 -7.84406,-9.29667 -2.02381,-0.59524 -4.04762,-1.19047 -6.07143,-1.78571 -3.69048,1.90476 -7.38095,3.80952 -11.07143,5.71428 z"
         style="fill:#000000;stroke:#000000;stroke-width:1px;stroke-linecap:butt;stroke-linejoin:miter;stroke-opacity:1;fill-opacity:1" />
      <path
         id="path3639"
         d="m 597.85714,249.86218 c -2.00489,-0.61339 -2.87435,0.93733 -3.61438,2.50476 -2.31042,3.98203 -4.77536,7.88767 -6.94433,11.94375 -1.67615,4.43274 -3.70171,8.75232 -4.79511,13.3811 -1.2042,3.85418 -1.75323,7.85745 -2.50332,11.8132 1.22917,1.95453 2.10158,4.20077 3.55891,5.97274 1.3137,0.98528 2.62739,1.97055 3.94109,2.95583 1.30952,0 2.61905,0 3.92857,0 1.60394,-1.83166 3.75222,-3.27595 4.98489,-5.37761 0.96138,-2.0513 1.98959,-4.07222 2.8746,-6.15861 0.16257,-9.2282 0.43983,-18.45734 0.68888,-27.681 -0.11136,-3.11807 -0.22272,-6.23614 -0.33408,-9.35421 -0.59522,3e-5 -1.19058,-7e-5 -1.78572,5e-5 z"
         style="fill:#000000;stroke:#000000;stroke-width:1px;stroke-linecap:butt;stroke-linejoin:miter;stroke-opacity:1;fill-opacity:1" />
      <path
         sodipodi:nodetypes="cccccccccccccccccccc"
         id="path3641"
         d="m 618.57143,252.71932 c -4.66055,-0.11406 -6.37399,4.00693 -4.55934,7.84283 2.3125,2.9409 7.58005,5.84796 11.1476,3.1584 5.20866,-2.05689 10.51667,-3.98912 15.91348,-5.43621 17.82021,-2.41022 35.61147,-5.16146 53.45091,-7.35073 1.8253,0 3.65061,0 5.47591,0 2.35201,1.98392 1.25777,3.86753 -0.90907,5.20261 -5.53031,4.81341 -11.06062,11.76969 -16.59093,16.58311 -0.31614,2.62395 -0.17017,3.12592 3.22348,2.17311 3.46566,-1.08309 6.48943,-2.98632 9.65934,-4.58849 3.02494,-1.62484 5.69932,-4.31666 9.10982,-4.94998 4.98354,-1.08662 6.96466,4.27802 9.54748,7.38723 3.26245,1.80616 9.58954,1.67035 10.20355,-3.08896 0.54382,-3.66358 2.074,-7.36237 0.83345,-11.05359 -0.2496,-4.58178 -2.19259,-8.52952 -5.25209,-11.9021 -2.4006,-3.38385 -6.05275,-7.93463 -10.6685,-6.68023 -8.18522,2.34962 -16.37531,4.76629 -24.85967,5.7801 -15.66874,2.51323 -31.30757,5.39282 -47.00366,7.62463 -4.91523,-0.0647 -9.98654,0.58713 -14.63293,-1.41942 -1.47587,-0.69416 -2.71307,0.31837 -4.08883,0.71769 z"
         style="fill:#000000;stroke:#000000;stroke-width:1px;stroke-linecap:butt;stroke-linejoin:miter;stroke-opacity:1;fill-opacity:1" />
      <path
         id="path3643"
         d="m 636.78572,272.71932 c -2.29942,-0.48145 -3.46869,0.25087 -3.04925,2.68941 -0.48123,6.42588 -2.68338,12.6322 -2.65385,19.1206 -1.68534,26.45322 -3.53858,52.90603 -4.63207,79.38813 0.2838,12.66901 0.36281,25.36862 0.77461,38.0185 0.83094,2.11192 0.62203,4.93951 3.02395,5.9702 1.52088,1.35413 3.17077,2.39683 5.2772,2.33733 2.04823,0.90068 3.4419,-0.44647 4.83083,-1.80988 0.95872,-1.64388 1.79954,-3.30946 1.1901,-5.24193 -1.01119,-9.32501 -1.88324,-18.66039 -2.16329,-28.03985 -0.63487,-12.84089 -1.41016,-25.67761 -1.32257,-38.53996 -0.13615,-10.82973 -0.3518,-21.66048 0.26108,-32.48059 0.29095,-5.778 0.25618,-11.60102 0.74773,-17.35129 0.93781,-4.41438 2.40934,-8.79035 3.01586,-13.22856 -0.37196,-2.32565 -0.1767,-4.94786 -0.88618,-7.09705 -1.47138,-1.24502 -2.94277,-2.49004 -4.41415,-3.73506 z"
         style="fill:#000000;stroke:#000000;stroke-width:1px;stroke-linecap:butt;stroke-linejoin:miter;stroke-opacity:1;fill-opacity:1" />
      <path
         id="path3645"
         d="m 640,288.79075 c -0.83333,0.59524 -1.66667,1.19048 -2.5,1.78572 0.27911,0.94164 -0.0312,2.255 1.09733,2.66098 1.00172,0.61709 1.93593,1.52382 2.98007,1.95897 12.33135,-1.89713 24.66269,-3.79425 36.99403,-5.69138 0.71429,0.95238 1.42857,1.90476 2.14286,2.85714 -3.25438,7.89185 -6.42444,15.83069 -9.73143,23.69321 -0.92286,1.26893 -1.84571,2.53786 -2.76857,3.80679 0.54263,1.1983 0.89503,2.55095 1.55386,3.65496 1.0887,0.65724 2.10856,1.54185 3.23958,2.05933 1.14028,0 2.28056,0 3.42084,0 3.41272,-11.5963 7.11777,-23.10294 10.71429,-34.64286 1.36328,-1.9854 2.2774,-4.32558 4.1349,-5.92062 0.36024,-0.67654 2.09248,-1.317 1.17644,-2.0271 -1.00383,-1.00798 -1.87509,-2.29828 -2.96181,-3.12973 -2.92603,-0.11704 -5.85207,-0.23408 -8.7781,-0.35112 -0.95238,-0.95238 -1.90477,-1.90476 -2.85715,-2.85714 -1.09475,0.82803 -2.43149,1.4227 -3.37212,2.39934 -0.89977,1.46213 -1.79953,2.92425 -2.6993,4.38637 -9.64286,1.30952 -19.28572,2.61905 -28.92858,3.92857 -0.95238,0.47619 -1.90476,0.95238 -2.85714,1.42857 z"
         style="fill:#000000;stroke:#000000;stroke-width:1px;stroke-linecap:butt;stroke-linejoin:miter;stroke-opacity:1;fill-opacity:1" />
      <path
         id="path3647"
         d="m 637.14286,319.1479 c -0.35714,1.19047 -0.71429,2.38095 -1.07143,3.57142 1.70299,1.10308 3.5509,1.94216 5.35714,2.85715 9.76191,-1.07143 19.52381,-2.14286 29.28572,-3.21429 -0.2381,-1.30952 -0.47619,-2.61905 -0.71429,-3.92857 -0.83333,-0.83333 -1.66667,-1.66667 -2.5,-2.5 -9.40786,0.97479 -18.82051,1.91053 -28.22538,2.90975 -0.71059,0.10151 -1.42117,0.20303 -2.13176,0.30454 z"
         style="fill:#000000;stroke:#000000;stroke-width:1px;stroke-linecap:butt;stroke-linejoin:miter;stroke-opacity:1;fill-opacity:1" />
      <path
         id="path3649"
         d="m 641.07143,353.07647 c -0.23688,3.69672 2.70556,8.68115 6.43053,9.02084 4.44285,-0.52785 8.44412,-2.77761 12.65522,-4.16949 6.3794,-2.43736 12.76889,-4.90687 19.39252,-6.61045 2.9735,1.32816 2.20815,5.24351 0.85057,7.49547 -3.34771,8.68311 -6.69542,17.36623 -10.04313,26.04934 0,1.66667 0,3.33333 0,5 2.00754,1.54624 3.58186,4.3595 6.48393,4.06597 3.07679,0.19229 6.15357,0.38459 9.23036,0.57689 6.90476,-12.61905 13.80953,-25.23809 20.71429,-37.85714 1.19047,0 2.38095,0 3.57142,0 0.73685,-3.69272 -2.26955,-6.45411 -3.87128,-9.45135 -0.85243,-1.37336 -1.70486,-2.74672 -2.55729,-4.12008 -4.26203,-2.42422 -8.7443,-4.42551 -13.21428,-6.42857 -3.58916,-0.093 -4.38153,4.87273 -8.07832,4.78172 -8.05876,2.33492 -16.14606,4.63336 -24.41273,6.10768 -5.81079,1.54062 -11.42202,3.73238 -17.15181,5.53917 z"
         style="fill:#000000;stroke:#000000;stroke-width:1px;stroke-linecap:butt;stroke-linejoin:miter;stroke-opacity:1;fill-opacity:1" />
      <path
         id="path3651"
         d="m 641.42857,385.93361 c -1.42857,0.83333 -2.85714,1.66667 -4.28571,2.5 -0.0182,2.25772 -0.13004,4.53985 0.54188,6.72438 -0.0858,0.96666 0.91856,1.10844 1.56156,1.52365 1.13205,0.54078 2.22878,1.33529 3.38205,1.72362 9.12387,-2.01436 18.24774,-4.02872 27.37161,-6.04308 1.78571,-1.07143 3.57143,-2.14285 5.35714,-3.21428 0,-1.66667 0,-3.33333 0,-5 -1.38526,-2.10214 -3.28144,-3.47335 -5.77544,-3.87088 -1.88578,-0.83719 -3.8455,0.27555 -5.76853,0.46753 -5.42517,1.13922 -10.90704,2.0518 -16.29121,3.36104 -2.03109,0.60934 -4.06239,1.2187 -6.09335,1.82802 z"
         style="fill:#000000;stroke:#000000;stroke-width:1px;stroke-linecap:butt;stroke-linejoin:miter;stroke-opacity:1;fill-opacity:1" />
    </g>
    <g
       id="g3711"
       style="fill:#000000;fill-opacity:1">
      <path
         id="path3686"
         d="m 602.14286,457.71934 c -6.55628,3.11892 -9.99338,3.35643 -11.07143,9.2857 2.89478,2.60931 10.17474,7.09383 13.92857,8.21429 4.08853,4.86629 0.38914,3.60498 3.0053,9.22108 3.56598,-7.66704 10.39921,-1.77065 15.59516,-4.31978 0.57569,-2.02662 2.30086,-6.18486 2.82811,-8.21846 -2.31595,-11.90216 -13.24389,-12.86232 -24.28571,-14.18283 z"
         style="fill:#000000;stroke:#000000;stroke-width:1px;stroke-linecap:butt;stroke-linejoin:miter;stroke-opacity:1;fill-opacity:1"
         sodipodi:nodetypes="ccccccc" />
      <path
         style="fill:#000000;stroke:#000000;stroke-width:1px;stroke-linecap:butt;stroke-linejoin:miter;stroke-opacity:1;fill-opacity:1"
         d="m 558.92857,509.86218 c -1.32748,6.39388 7.06013,8.66843 11.47523,11.04439 7.7039,3.36487 20.8452,11.98644 28.00895,3.55619 3.33168,-8.64462 -0.89786,-16.17883 -7.25974,-21.7603 -9.87775,-6.43503 -25.75582,-2.88284 -32.22444,7.15972 z"
         id="path3688"
         sodipodi:nodetypes="ccccc" />
      <path
         id="path3690"
         d="m 572.5,575.93361 c -2.67493,1.4039 -2.37269,4.9201 -2.82159,7.474 0.14,8.59781 -3.12488,18.64259 4.63282,24.59287 4.61234,4.01224 11.14267,3.17477 16.56671,1.47663 4.89454,-1.01722 5.74928,-6.94951 4.20684,-10.95052 -0.88117,-3.57184 -3.23856,-6.21717 -5.44201,-9.02155 0.27709,-3.41387 -0.82871,-7.16693 1.19183,-10.2408 4.11094,-6.97737 6.98022,-13.55804 7.37957,-21.54492 -1.28995,-1.93556 -2.4726,0.38159 -3.20922,1.50871 -5.23979,7.59234 -10.47957,15.18467 -15.71935,22.77701 -4.27827,1.14455 -4.94721,-2.76192 -6.78564,-6.07143 l 4e-5,0 z"
         style="fill:#000000;stroke:#000000;stroke-width:1px;stroke-linecap:butt;stroke-linejoin:miter;stroke-opacity:1;fill-opacity:1"
         sodipodi:nodetypes="cccccccccccc" />
      <path
         id="path3692"
         d="m 639.28572,500.93361 c -3.49449,3.85764 -5.76218,12.00717 0.53823,14.03957 4.38047,2.60331 8.30998,0.14463 11.69219,-2.21645 16.99462,-3.58389 33.98924,-7.16779 50.98386,-10.75169 3.86351,-0.11502 7.87469,0.76041 11.64932,-0.002 7.54174,-2.04954 4.71964,-9.49756 0.51261,-13.8106 -2.64298,-3.66516 -6.56802,-5.17711 -10.97689,-4.39999 -3.27058,1.53857 -6.09499,4.1954 -9.85419,4.73336 -14.72933,4.25514 -29.45866,8.51028 -44.18799,12.76542 -3.44584,-0.30644 -6.90374,-1.03811 -10.35714,-0.35714 l 0,-4.8e-4 z"
         style="fill:#000000;stroke:#000000;stroke-width:1px;stroke-linecap:butt;stroke-linejoin:miter;stroke-opacity:1;fill-opacity:1"
         sodipodi:nodetypes="ccccccccccc" />
      <path
         id="path3694"
         d="m 673.92857,509.86218 c -2.72441,0.30186 -5.8948,2.88188 -4.43307,5.79507 0.62488,2.90561 2.3792,5.71198 2.16718,8.71801 -1.03042,10.87659 -2.06083,21.75319 -3.09125,32.62978 0.41456,5.07769 2.79348,7.24135 6.42857,10.35714 3.30425,0.0612 6.25527,-1.40991 9.28572,-2.5 -0.52809,-3.15512 1.17191,-5.88871 2.25607,-8.71657 4.69949,-10.23617 8.78913,-20.24416 9.8199,-31.46734 -2.5009,-11.27675 -12.81011,-12.65922 -22.43312,-14.81609 z"
         style="fill:#000000;stroke:#000000;stroke-width:1px;stroke-linecap:butt;stroke-linejoin:miter;stroke-opacity:1;fill-opacity:1"
         sodipodi:nodetypes="ccccccccc" />
      <path
         id="path3696"
         d="m 620.35714,572.71932 c -0.77659,6.11041 1.92344,12.16197 6.60731,16.02982 19.7681,-5.81076 40.13281,-12.29888 60.89014,-15.66302 7.80369,-0.0712 15.70096,-0.46711 23.20301,2.11723 6.1343,3.44703 15.16335,6.96892 19.96493,-0.14825 1.36473,-4.51329 1.80875,-11.53644 -3.14383,-13.94279 -11.14824,-2.74566 -24.47564,-3.52865 -35.92426,-1.56495 -14.28282,4.09407 -62.40291,5.50999 -71.5973,13.17196 z"
         style="fill:#000000;stroke:#000000;stroke-width:1px;stroke-linecap:butt;stroke-linejoin:miter;stroke-opacity:1;fill-opacity:1"
         sodipodi:nodetypes="cccccccc" />
    </g>
    <g
       id="g3766"
       style="fill:#000000;fill-opacity:1">
      <path
         id="path3719"
         d="m 572.85714,654.1479 c -6.07502,4.27695 -2.98647,12.82991 -4.59609,19.05762 -2.02038,26.01527 -3.57775,52.09978 -3.81458,78.19184 0.6205,16.69407 1.27903,33.3898 1.44983,50.09604 1.82132,4.06398 5.81787,11.09277 9.90131,10.79144 6.17871,-2.03682 5.36107,-8.3779 4.20394,-13.47041 -2.23686,-16.02853 -1.96739,-32.23039 -2.39119,-48.36983 -0.4547,-25.9423 0.95389,-51.85969 2.58434,-77.73873 -0.25857,-4.62816 1.90657,-10.35406 -2.64357,-13.42997 -1.56131,-1.7124 -3.1264,-3.42135 -4.69399,-5.128 z"
         style="fill:#000000;stroke:#000000;stroke-width:1px;stroke-linecap:butt;stroke-linejoin:miter;stroke-opacity:1;fill-opacity:1" />
      <path
         id="path3721"
         d="m 575.5116,661.9183 c -0.0177,4.04595 5.9784,3.94838 9.13126,4.7296 8.68978,-2.92384 14.13332,-11.14442 21.78571,-16.07143 0.70778,1.51672 0.72271,3.25415 -0.0808,4.72622 -3.3064,9.25793 -6.61281,18.51585 -9.91921,27.77378 3.05372,3.72162 6.01336,1.09252 8.2046,-2.52547 3.6937,-6.30104 7.38741,-12.60207 11.08112,-18.9031 3.06244,-1.48397 6.62653,-3.03166 8.01181,-6.38631 1.50178,-5.00094 -2.00245,-7.96147 -5.15467,-11.11369 -3.43028,0.094 -7.04516,-1.04597 -10.30214,0.54051 -10.80976,3.98252 -21.59432,8.04767 -32.555,11.60234 2.6994,-0.23683 -0.35822,3.4875 -0.20268,5.62755 z"
         style="fill:#000000;stroke:#000000;stroke-width:1px;stroke-linecap:butt;stroke-linejoin:miter;stroke-opacity:1;fill-opacity:1"
         sodipodi:nodetypes="cccccccccccc" />
      <path
         id="path3723"
         d="m 596.42857,685.93361 c 0.51757,7.01013 2.67015,13.73293 5.24881,20.23162 1.15935,1.78921 -0.73113,0.85826 -1.88654,0.56744 -2.46242,-0.61285 -4.89585,-1.46244 -7.39241,-1.86608 -4.7721,-0.60967 -8.77698,1.60205 -13.11271,3.20985 0.35714,0.95238 0.71428,1.90476 1.07142,2.85714 5.37583,1.6627 10.82684,3.20206 16.00555,5.3934 3.59217,4.78474 6.51869,10.8511 11.63627,14.24946 0.78606,0 1.57212,0 2.35818,0 0.27692,-1.99953 -0.0239,-4.13203 0.64827,-6.04665 2.16486,-5.12731 4.32973,-10.25461 6.49459,-15.38192 -1.23612,-2.22386 -2.60761,-4.37504 -4.46601,-6.13505 -3.86653,-5.6866 -7.10422,-11.82319 -10.53399,-17.79353 -3.16422,-2.28892 -3.65079,-2.05213 -6.07143,0.71432 z"
         style="fill:#000000;stroke:#000000;stroke-width:1px;stroke-linecap:butt;stroke-linejoin:miter;stroke-opacity:1;fill-opacity:1"
         sodipodi:nodetypes="ccsccccccccccc" />
      <path
         id="path3725"
         d="m 637.5,662.00504 c -0.17414,2.87506 1.16854,5.7493 3.64691,7.27506 2.31756,1.66885 5.54092,1.13448 7.88491,-0.20065 9.79335,-5.6817 20.75713,-8.35543 31.58071,-11.36013 4.31963,0 8.63927,0 12.9589,0 0.35714,-1.54762 0.71429,-3.09523 1.07143,-4.64285 -2.18676,-3.26277 -6.21366,-8.31751 -10.60184,-7.7226 -3.21161,1.86045 -6.81744,2.99209 -10.24929,4.41419 -9.85294,4.82853 -20.19397,6.77898 -30.79388,8.80082 -1.83262,1.14539 -3.66523,2.29077 -5.49785,3.43616 z"
         style="fill:#000000;stroke:#000000;stroke-width:1px;stroke-linecap:butt;stroke-linejoin:miter;stroke-opacity:1;fill-opacity:1"
         sodipodi:nodetypes="cccccccccc" />
      <path
         id="path3727"
         d="m 662.14286,637.36218 c 1.79194,15.27349 0.13256,30.6683 0.43149,45.98458 1.38352,0.18565 2.88334,1.50997 4.31545,1.48737 1.51547,-0.072 3.02608,-1.64536 4.5388,-1.75766 -0.21639,-14.46475 4.19039,-28.44743 4.99997,-42.85715 -4.33594,-5.19458 -8.31483,-6.1723 -14.28571,-2.85714 z"
         style="fill:#000000;stroke:#000000;stroke-width:1px;stroke-linecap:butt;stroke-linejoin:miter;stroke-opacity:1;fill-opacity:1"
         sodipodi:nodetypes="cccccc" />
      <path
         id="path3729"
         d="m 627.14286,689.1479 c -1.16815,2.92514 -1.66535,7.78933 1.84324,9.138 2.91845,2.10978 6.64224,0.81385 9.72255,-0.19634 12.36436,-3.86263 24.62803,-8.0818 37.23176,-11.12277 9.42738,-3.34971 19.311,-2.23649 29.13059,-1.9972 2.74108,0.59045 5.64425,2.42391 8.4499,1.37456 3.16455,-1.82957 2.29579,-5.72627 2.45161,-8.7897 -1.79072,-3.51352 -5.11728,-6.76878 -8.72905,-8.02831 -2.58566,-0.0201 -5.32674,-0.38579 -7.63259,1.07184 -5.29691,2.16859 -10.36142,5.08535 -16.05471,6.08761 -16.98103,4.0017 -33.92062,8.24465 -50.91715,12.139 -1.83205,0.10777 -3.6641,0.21554 -5.49615,0.32331 z"
         style="fill:#000000;stroke:#000000;stroke-width:1px;stroke-linecap:butt;stroke-linejoin:miter;stroke-opacity:1;fill-opacity:1"
         sodipodi:nodetypes="cccccccccccc" />
      <path
         id="path3731"
         d="m 645.47586,700.63243 c -0.32026,6.88729 -1.2552,13.2502 -7.04611,17.55362 -8.55358,5.16759 -18.14507,9.51589 -27.7861,12.33754 -3.9132,0.67035 -0.81585,2.21932 1.14207,3.98145 11.60727,-0.56942 22.91137,-3.82334 34.28571,-6.07143 8.24687,-4.44444 12.39122,-10.45749 10.77804,-20.13841 -0.11932,-6.19468 -4.04208,-10.79678 -6.16189,-16.34382 -0.71736,-1.25538 -1.88157,0.5403 -2.83044,0.76794 -2.0916,2.22167 -2.39313,5.00428 -2.38128,7.91311 z"
         style="fill:#000000;stroke:#000000;stroke-width:1px;stroke-linecap:butt;stroke-linejoin:miter;stroke-opacity:1;fill-opacity:1"
         sodipodi:nodetypes="ccccccccc" />
      <path
         id="path3733"
         d="m 677.85714,684.50504 c -3.18896,5.57874 -4.09171,12.73289 -3.6377,19.12775 -0.12023,6.33732 1.39218,12.1639 4.35199,17.65796 4.68252,1.10487 9.344,2.49808 14.19068,2.61125 8.92952,1.14919 17.68075,-2.01104 26.52361,-3.32553 1.84686,-3.07317 0.89102,-3.75184 -1.42858,-6.07143 -8.05879,0.70566 -15.60305,-0.47775 -23.31906,-2.56981 -4.91206,-2.34767 -7.16724,-6.59485 -9.89522,-11.00158 0.0656,-3.53066 0.0605,-7.08237 -0.67218,-10.55263 -0.019,-3.56739 -3.32213,-4.30572 -6.11354,-5.87598 z"
         style="fill:#000000;stroke:#000000;stroke-width:1px;stroke-linecap:butt;stroke-linejoin:miter;stroke-opacity:1;fill-opacity:1"
         sodipodi:nodetypes="cccccccccc" />
      <path
         sodipodi:nodetypes="cccccccccccc"
         id="path3735"
         d="m 625.4374,739.79931 c 5.22324,16.22594 15.68968,30.16721 25.93007,43.56087 12.09112,12.12651 24.34179,24.16427 38.38661,34.03967 3.9747,1.72762 7.85127,4.42143 12.27144,4.47952 6.66398,-1.46656 13.41676,-2.69789 20.02574,-4.31013 2.76435,-1.44779 5.06647,-2.93792 9.68233,-4.13563 4.89832,-0.71428 7.6538,-0.35714 12.19498,-0.35714 0.46946,-2.06898 0.67765,-3.94832 -2.0322,-3.70964 -9.05151,-1.9212 -18.15695,-3.67516 -27.17496,-5.70027 -21.12715,-7.43044 -33.86683,-16.4489 -50.47705,-30.69484 -12.62682,-13.11844 -22.52751,-28.13835 -31.03007,-44.18097 -6.70463,0.35591 -7.12929,4.99122 -7.77689,11.00856 z"
         style="fill:#000000;stroke:#000000;stroke-width:1px;stroke-linecap:butt;stroke-linejoin:miter;stroke-opacity:1;fill-opacity:1" />
      <path
         id="path3737"
         d="m 653.21429,730.93361 c -0.57226,3.53908 -0.75872,7.19852 -2.39717,10.46073 -10.90681,21.78492 -30.96207,37.48078 -47.73125,54.62939 2.70713,2.54304 7.02406,2.90306 10.32254,1.32543 20.60517,-14.2875 36.58514,-33.53312 52.66302,-52.48698 1.50443,-3.72218 1.0813,-7.96393 -2.3792,-10.43504 -2.37615,-3.24807 -6.76996,-3.51498 -10.47794,-3.49353 z"
         style="fill:#000000;stroke:#000000;stroke-width:1px;stroke-linecap:butt;stroke-linejoin:miter;stroke-opacity:1;fill-opacity:1"
         sodipodi:nodetypes="ccccccc" />
      <path
         id="path3739"
         d="m 673.21429,739.1479 c -3.54619,3.71125 3.36182,4.32943 5.29844,6.49608 3.99165,2.07798 2.7995,7.32405 0.75877,10.37818 -7.23044,14.04178 -16.73851,26.9267 -25.56811,40.04306 -7.77832,9.70379 -17.96966,15.91185 -28.34625,22.36839 0.6709,4.40389 5.7769,1.66532 8.77418,2.2469 9.91689,-2.07197 19.8935,-9.94101 26.74797,-17.23023 14.67344,-16.49744 31.08452,-33.78316 37.24496,-55.46492 1.12418,-4.17584 -0.57689,-8.8229 -4.45341,-10.87315 -4.06481,-0.91604 -8.06427,1.55546 -12.17293,1.67214 -2.75269,0.24224 -5.52397,0.20614 -8.28362,0.36355 z"
         style="fill:#000000;stroke:#000000;stroke-width:1px;stroke-linecap:butt;stroke-linejoin:miter;stroke-opacity:1;fill-opacity:1"
         sodipodi:nodetypes="ccccccccccc" />
    </g>
    <path
       style="fill:#000000;stroke:#000000;stroke-width:1px;stroke-linecap:butt;stroke-linejoin:miter;stroke-opacity:1;fill-opacity:1"
       d="M 477.96875 11.6875 C 468.88707 13.625802 459.69139 14.935693 450.4375 15.6875 C 439.29182 16.916741 427.98324 17.785936 417.15625 20.5 C 411.3591 21.953204 405.93911 24.830372 400.34375 27 C 399.16071 31.286076 404.0984 32.626966 406.15625 35.46875 C 407.93975 39.265571 410.35588 43.107294 415.28125 40.71875 C 420.09266 38.932928 424.87692 37.059181 429.65625 35.15625 C 427.21358 42.627861 425.90879 50.901117 424.78125 59.4375 C 401.82964 63.625452 378.90544 67.984523 356.0625 72.71875 C 354.15777 73.790174 352.24839 74.866101 350.34375 75.9375 C 346.20531 81.380539 353.75782 86.124124 357.0625 89.71875 C 362.15894 96.136988 369.17685 93.33948 375.84375 91.6875 C 381.706 89.019168 386.06093 83.453918 392.09375 80.6875 C 402.31751 76.185296 412.7673 72.632264 423.40625 69.78125 C 422.31567 78.230408 421.09126 86.758696 418.8125 94.875 C 418.21457 97.016975 417.65627 99.158513 417.09375 101.3125 C 415.99902 101.5805 414.91012 101.83876 413.8125 102.09375 C 401.21508 105.10701 389.28537 110.27068 377.09375 114.5625 C 371.60785 116.61666 366.14955 118.74147 360.71875 120.9375 C 357.75747 124.77003 362.55003 130.05979 366.46875 130.90625 C 370.76288 132.72609 374.90543 135.36732 379.71875 135.21875 C 384.91569 136.77661 388.97963 132.75311 392.59375 129.59375 C 395.5743 125.11019 399.13249 121.07334 404.3125 119.125 C 407.36628 117.33556 410.51517 115.74266 413.75 114.3125 C 411.02742 124.92968 408.11161 135.49981 403.78125 145.59375 C 395.86147 173.30305 376.26511 193.81227 360.0625 216.625 C 383.62423 213.59972 409.6446 181.01657 422.78125 162.03125 C 428.24163 148.8468 435.74924 136.39057 438.5625 122.25 C 439.87281 117.0003 440.88247 111.68819 441.71875 106.34375 C 453.41376 104.59693 465.37694 104.54305 476.90625 105.90625 C 482.41534 106.10698 487.05267 110.93802 492.625 109.4375 C 498.42928 108.77925 495.73962 100.51176 494.46875 96.875 C 492.58582 90.614091 485.69691 87.80594 479.625 88.78125 C 478.2001 88.915929 476.79391 89.098337 475.375 89.28125 C 482.40732 80.368596 487.45714 69.914877 491.71875 59.25 C 499.60503 58.665096 507.52605 58.215899 515.40625 57.8125 C 521.07736 59.606453 527.68627 59.710525 531.96875 64.40625 C 538.7654 68.934304 543.77424 57.042843 539.625 52.0625 C 534.90401 46.06982 528.90421 39.352791 521.5625 37.28125 C 514.2074 38.717463 508.11568 44.171141 500.71875 46.03125 C 499.25162 46.285684 497.77994 46.526754 496.3125 46.78125 C 497.33089 39.752379 496.60596 30.346394 491.96875 24.71875 C 487.94255 19.764455 483.32306 15.174361 477.96875 11.6875 z M 469.84375 21.4375 C 470.84672 22.557743 473.92282 22.920363 473.3125 24.625 C 470.37051 33.846354 467.40585 43.076984 464.5 52.3125 C 458.32877 53.394746 452.17139 54.526297 446 55.625 C 446.32359 49.995743 446.68125 44.368892 447.15625 38.78125 C 445.12408 33.679871 438.67286 34.167547 433.5 33.625 C 445.40394 28.897416 457.33552 24.298008 469.84375 21.4375 z M 461.34375 62.34375 C 458.961 70.086336 456.66146 77.859911 454.46875 85.65625 C 454.47725 88.247012 455.8494 90.74888 457.9375 92.125 C 455.60198 92.520656 453.28211 92.892115 450.9375 93.21875 C 448.36017 93.66804 445.80188 94.184974 443.25 94.75 C 444.32698 84.855688 444.91858 74.856219 445.46875 64.875 C 450.73713 63.915147 456.02613 63.061676 461.34375 62.34375 z "
       id="path3828" />
    <path
       style="fill:#000000;stroke:#000000;stroke-width:1px;stroke-linecap:butt;stroke-linejoin:miter;stroke-opacity:1;fill-opacity:1"
       d="M 519.5 206.78125 C 517.44269 206.7853 515.55637 208.5266 513.5625 209.15625 C 511.96462 211.46489 510.79309 213.79425 512.71875 216.3125 C 516.14398 239.86497 517.40024 264.02603 518.96875 287.84375 L 520.34375 396.65625 C 517.29983 398.86351 513.9638 396.16049 510.75 395.6875 C 508.89721 395.27534 503.97103 393.26015 504.65625 396.59375 C 503.75273 399.68022 506.09401 401.33189 508.21875 403.0625 C 510.96002 405.93091 515.10157 407.83386 515.84375 412.0625 C 516.48709 415.52834 519.17351 417.74476 521.4375 420.21875 C 524.19924 420.8798 526.88323 421.33553 528.75 418.71875 C 533.96804 408.17897 533.75439 394.26429 535 382.5625 C 534.85678 355.41546 534.64627 328.25871 533.71875 301.125 C 533.23119 284.28167 533.16707 267.43894 531.5 250.65625 C 530.52463 237.89505 531.25566 224.26957 528.5625 212.375 C 527.90076 209.45238 524.47606 207.01923 520.9375 207.09375 C 520.43892 206.8744 519.97476 206.78032 519.5 206.78125 z M 461.21875 211.9375 C 459.34586 212.03448 457.54565 212.55158 456.0625 213.78125 C 453.7499 220.88437 450.88179 227.78967 447.8125 234.59375 C 444.57205 235.21665 441.43441 235.94846 438.5625 237 C 436.42186 237.78379 439.75806 240.39575 441.53125 241.40625 C 442.42186 241.63296 443.33826 241.93502 444.25 242.28125 C 439.20271 253.03673 433.99569 263.73003 430 274.875 C 429.6981 275.85507 431.88036 276.95169 432.84375 276.65625 C 435.95186 275.70308 439.64151 273.60963 442.25 271.15625 C 449.76461 262.95318 455.54424 253.47766 460.9375 243.75 C 466.51249 242.32198 472.11868 240.52852 477.8125 239.65625 C 484.87673 238.16652 492.33773 238.11828 499.375 237.25 C 500.46533 236.33174 502.42304 234.95579 502.15625 233.78125 C 499.75518 230.08041 498.14436 225.20215 493.4375 225.21875 C 486.20444 225.1173 479.78835 229.10646 472.875 230.78125 C 471.12069 231.13161 469.30943 231.41162 467.5 231.6875 C 468.67877 229.52207 469.85263 227.35217 471.0625 225.21875 C 471.90336 223.87166 474.1766 223.42785 474.65625 222 C 475.67951 218.95391 473.68662 214.80525 470.4375 213.65625 C 467.70628 212.78769 464.34023 211.77587 461.21875 211.9375 z M 397.6875 225.09375 C 397.37045 225.07371 397.05181 225.12036 396.78125 225.21875 C 393.9349 226.25379 390.03375 228.16745 388.5625 230.5625 C 388.70255 235.21164 390.15821 239.91324 392.0625 244.5625 C 388.72224 245.92831 385.37137 247.27379 382 248.46875 C 377.11539 250.44595 371.02677 249.5427 366.4375 252 C 365.97109 253.34345 365.40462 255.91521 366.4375 257 C 371.03353 260.6309 377.86655 266.25447 384.25 265.15625 C 386.21567 264.52037 388.16952 263.98116 389.90625 262.78125 C 392.26382 260.51205 394.82162 258.45639 397.5 256.5625 C 398.42504 258.59705 399.29987 260.61212 400.03125 262.59375 C 401.28142 267.77007 401.22348 273.87273 405 278.0625 C 405.97367 278.82152 408.43275 278.33351 409.625 277.375 C 414.67941 274.33593 414.75823 269.16594 413.8125 263.78125 C 411.95 259.12346 410.76982 254.08936 409.5625 249.0625 C 414.13674 246.43058 418.78896 243.83912 423.21875 240.9375 C 423.80541 240.20161 423.68363 238.62521 423.21875 237.71875 C 422.19197 235.71666 419.66787 235.42237 417.375 235.3125 C 413.78085 236.23139 410.26396 237.42445 406.75 238.71875 C 405.26605 234.24 403.31831 229.98009 400.34375 226.28125 C 399.68619 225.68643 398.63866 225.15387 397.6875 225.09375 z M 489.96875 252.6875 C 489.74673 252.69202 489.50615 252.69543 489.28125 252.71875 C 487.84089 253.30799 485.75283 254.92746 485.71875 256.65625 C 485.35624 275.04618 488.34506 294.30083 488.15625 313.0625 C 488.09105 319.53844 485.36825 326.05665 485.34375 332.375 C 485.33475 334.7048 486.72155 337.24909 488.875 338.59375 C 489.79329 339.16715 490.44771 340.73155 491.71875 340.25 C 494.32448 339.26278 496.28359 337.4975 497.9375 335.34375 C 499.91042 332.77457 498.79948 329.14172 498.90625 326.0625 C 498.54578 303.45506 499.28756 280.60111 497.15625 258.0625 C 496.25107 254.62026 493.29904 252.61969 489.96875 252.6875 z M 460.09375 268.40625 C 459.46754 268.37753 458.85638 268.40597 458.25 268.4375 C 454.81038 270.40855 452.12665 273.93463 447.78125 274.40625 C 417.49706 283.56923 386.99504 295.78352 355.34375 298.78125 C 354.98661 300.32887 353.4638 302.27858 354.28125 303.4375 C 356.7282 306.90661 362.96938 306.4326 367.28125 308 C 372.64913 310.11866 378.0706 307.75218 383.125 305.96875 C 398.02354 301.74986 413.17948 298.32431 427.8125 293.21875 C 429.6823 292.45512 431.5402 291.67938 433.40625 290.90625 C 434.02247 298.51303 434.46012 306.08857 434.78125 313.65625 C 426.89072 315.98642 418.97627 318.28165 411.0625 320.53125 C 410.94829 316.35591 410.70547 312.19165 410.34375 308.0625 C 409.5109 303.83657 404.37594 304.45486 400.53125 304.25 C 398.17672 304.12454 396.3687 304.75844 394.28125 305.5625 C 390.37592 307.06678 391.81845 310.18032 392.28125 313.40625 C 392.84779 317.35526 393.53743 321.30519 394.125 325.28125 C 385.40813 327.68865 376.68289 330.07169 367.9375 332.375 L 357.15625 332.375 C 352.43302 334.51792 355.67753 340.49641 359.875 340.71875 C 365.50206 343.64315 371.69419 343.74628 377.84375 344.15625 C 383.01744 339.89577 389.16263 337.1012 395.21875 334.34375 C 395.51503 337.45567 395.71851 340.55472 395.6875 343.65625 C 396.3711 371.9657 384.76875 384.42279 371.0625 407 C 370.7143 409.95658 376.64221 409.41181 379.375 407.59375 C 390.94343 400.978 398.44388 389.89949 403.625 377.84375 C 408.43622 362.54629 410.7881 346.35365 411.125 330.1875 C 419.14167 328.2302 427.16168 326.27003 435.1875 324.34375 C 435.51243 335.6571 435.60293 346.95298 435.65625 358.28125 C 435.72155 372.14543 433.64587 386.04083 434.0625 399.875 C 434.28406 405.27493 433.27722 414.80792 438.5625 418.4375 C 447.58487 414.13757 451.57269 360.58101 451.6875 352.3125 C 451.49128 341.70862 451.49453 331.1208 451.28125 320.53125 C 453.88874 319.93299 456.51403 319.36108 459.125 318.78125 C 463.26248 318.03635 467.46996 316.79646 471.625 318.15625 C 475.77143 318.31834 481.81436 320.90119 484.21875 316.1875 C 486.01721 311.7017 484.36007 305.51987 480.5625 302.34375 C 477.64329 298.42312 471.4171 299.12624 468.21875 302.40625 C 463.77763 305.70139 458.06002 306.26471 453 308.21875 C 452.313 308.42731 451.62468 308.63577 450.9375 308.84375 C 450.72724 303.95142 450.43357 299.07036 450 294.15625 C 449.17774 290.11191 445.93622 288.16277 442.34375 287.25 C 443.78567 286.67507 445.23644 286.11455 446.6875 285.5625 C 453.97892 285.21157 461.25808 284.70891 468.5625 284.875 C 473.17905 283.5976 474.14837 277.61157 471.375 274.21875 C 469.15455 270.35278 464.4772 268.60732 460.09375 268.40625 z "
       id="path3850" />
    <path
       style="fill:#000000;stroke:#000000;stroke-width:1px;stroke-linecap:butt;stroke-linejoin:miter;stroke-opacity:1;fill-opacity:1"
       d="M 445.34375 430.9375 C 442.11404 431.20293 437.96316 432.12734 435.34375 434.15625 C 432.42752 436.41506 433.94102 440.92449 434.65625 444.5 C 435.21677 451.23474 434.7874 457.81698 433.71875 464.28125 C 421.71474 467.28145 409.68845 470.27369 397.75 473.53125 L 383.9375 475.21875 C 381.95816 479.12004 383.71884 484.24522 387.8125 485.875 C 390.88682 488.07896 394.62018 490.68063 398.5625 489.8125 C 406.79032 487.18234 414.13328 482.48659 421.9375 478.875 C 425.0187 477.64129 428.13404 476.44827 431.28125 475.3125 C 429.46008 482.11248 427.13822 488.80248 424.6875 495.46875 C 422.82802 500.2388 419.20125 505.37429 419.28125 509.875 C 419.32975 512.60666 423.6802 510.21006 425.84375 509.34375 C 428.26336 508.37491 431.06901 507.8635 432.96875 506.15625 C 436.45198 503.02594 439.88295 499.37096 441.96875 494.96875 C 445.35179 486.81309 447.87364 478.13856 449.78125 469.3125 C 461.74148 465.86072 473.95284 463.15297 486.09375 461.28125 C 490.49157 460.84245 494.72502 461.93236 498.6875 463.78125 C 501.41006 465.50232 505.43027 467.51299 507.9375 464.34375 C 509.67848 462.7921 512.48493 461.49996 509.8125 459 C 508.05363 452.38305 500.03318 452.25955 494.75 449.75 C 489.94954 448.63329 484.96427 451.35229 480.125 452.03125 C 470.66001 454.7829 461.13774 457.30543 451.59375 459.75 C 452.57095 453.9333 453.34858 448.11466 453.9375 442.375 C 453.38009 437.89632 449.8652 432.32833 445.34375 430.9375 z M 518.25 487.71875 C 517.27983 487.76587 516.37712 488.20783 515.53125 489.3125 C 512.69401 490.07991 515.4659 494.82978 513.09375 495.3125 C 499.66592 495.7268 486.6126 497.92566 473.6875 500.9375 C 473.66145 500.45061 473.62123 499.97137 473.5625 499.5 C 473.29838 497.38009 471.11953 495.34572 469.28125 494.15625 C 467.07191 492.72668 463.74592 491.35383 461.4375 491.65625 C 459.93749 491.85277 458.38852 493.84023 457.875 495.6875 C 457.20856 499.02618 456.35019 502.32238 455.4375 505.625 C 452.27131 506.50086 449.10258 507.41021 445.9375 508.3125 C 437.23127 511.67599 428.49088 514.95633 419.6875 518.0625 C 418.55616 515.77367 417.39541 513.48099 415.9375 511.40625 C 414.92109 509.9598 413.99822 507.87013 412.5 507.375 C 410.51181 506.71793 407.52536 506.76802 405.46875 508.3125 C 405.21317 508.50443 404.70179 508.48128 404.65625 508.78125 C 404.32971 510.93238 403.89183 513.4324 404.3125 515.65625 C 404.75893 518.01634 405.94049 520.19827 407.21875 522.3125 C 404.78174 523.11072 402.3551 523.89696 399.90625 524.65625 L 391.0625 526.28125 C 389.90215 529.30536 391.56376 530.92309 394.28125 532 C 397.07546 532.62581 399.86117 532.93678 402.53125 531.65625 C 405.256 530.5345 408.00282 529.48912 410.75 528.4375 C 412.07264 530.93195 413.37473 533.44203 415.0625 535.65625 C 417.18764 538.44425 419.82932 540.97514 422.59375 543.125 C 424.21354 544.38469 426.35421 544.73815 428.4375 545.0625 C 422.97456 546.85853 417.64369 548.80703 412.5 550.9375 C 410.49066 552.00494 411.19994 555.77568 412.6875 558.0625 C 414.38615 560.67382 418.27108 559.52696 420.78125 558.90625 C 426.14537 557.71211 431.38666 555.92601 436.59375 554.09375 C 436.15834 559.80342 435.83657 565.17176 435.625 570.375 C 427.98022 572.49329 420.30508 574.47991 412.65625 576.46875 C 410.34257 577.00864 408.03234 577.52255 405.71875 578.0625 C 404.60153 580.96691 404.56683 583.85581 406.15625 586.5625 C 406.86516 589.47635 410.32123 589.3968 412.6875 589.90625 C 416.06523 591.53728 418.89557 588.96075 421.875 587.6875 C 426.25348 585.30975 430.76434 583.39935 435.375 581.75 C 435.37531 586.14941 435.49023 590.55182 435.75 595.03125 C 437.15053 604.38494 438.98742 614.47223 443.9375 622.71875 C 444.4257 623.41675 446.38214 623.51225 446.78125 622.71875 C 449.94373 616.43109 453.22181 608.83667 454.65625 601.5 C 455.02467 595.14514 455.52577 585.40162 455.71875 575.84375 C 457.97815 575.27821 460.23581 574.72366 462.5 574.15625 C 466.1725 575.04304 469.81793 576.32273 473.65625 575.9375 C 478.42531 576.67399 481.75518 574.57698 485.71875 572.375 C 485.38892 566.44324 478.04606 559.54651 472 559.5 C 469.56983 559.20979 467.24097 559.81904 465.09375 560.9375 C 462.00465 562.11763 458.8876 563.19175 455.75 564.25 C 455.6671 559.50433 455.45393 555.20635 455 552 C 454.068 550.97255 452.71324 550.01077 451.21875 549.28125 C 453.81156 548.57358 456.43205 547.98579 459.09375 547.5625 C 463.88344 547.03723 468.67858 546.59122 473.5 546.6875 C 475.78034 546.733 479.13299 546.38629 480 544.875 C 481.05878 543.02943 480.32527 538.9531 479.28125 536.65625 C 478.53956 535.02453 476.46213 533.57684 474.65625 533.0625 C 469.3919 534.18986 464.0806 535.39556 458.78125 536.65625 C 464.25406 530.0654 469.24496 522.64214 471.8125 514.53125 C 472.19943 513.00556 472.56178 511.39387 472.875 509.78125 C 483.10103 507.36091 493.38917 505.15407 503.6875 503.0625 L 514.28125 502.71875 C 516.24349 504.52945 517.86876 506.45335 516.84375 509.25 C 514.61598 538.51643 511.02244 567.64089 506.625 596.65625 L 502.84375 605.21875 C 500.1341 605.7025 497.86584 604.66785 495.71875 603.09375 C 493.36059 601.60647 491.02665 599.94735 488.09375 600.5625 C 485.27687 599.99306 483.68171 603.56722 486.65625 604.8125 C 489.01076 607.67453 492.66232 609.78777 493.15625 613.75 C 494.86358 616.32965 493.71395 618.31294 492.25 620.25 C 493.06656 622.99427 494.02798 626.06162 495.75 628.25 C 498.05577 629.3373 500.44467 631.22022 502.34375 628.46875 C 509.17211 622.34217 521.33871 622.27055 526.5625 614.375 C 533.99506 602.7974 535.35259 587.65218 537.59375 574.28125 C 538.99135 551.66034 540.26349 528.92641 539.84375 506.25 C 537.00736 498.30213 530.04274 492.02483 522.1875 489 C 520.84497 488.2509 519.49737 487.65817 518.25 487.71875 z M 376.78125 510.5625 C 374.48972 526.13997 376.13706 543.81362 377.0625 559.40625 C 378.34776 574.06432 380.7677 588.42378 384.9375 602.53125 L 388.21875 608.0625 C 392.56909 608.9257 394.62631 604.65153 394.90625 600.9375 C 394.68381 597.14906 393.09299 593.57182 392.5625 589.8125 C 387.33029 568.40776 387.25028 547.14947 389.53125 525.375 C 389.76388 521.08606 386.68034 517.94247 383.46875 515.53125 C 381.36664 513.70818 379.00171 512.23143 376.78125 510.5625 z M 452.78125 514.875 C 450.68905 522.05997 448.68417 529.26483 447.84375 536.65625 C 447.79434 537.4596 448.18746 538.415 448.75 539.15625 C 442.59633 540.75889 436.48863 542.46855 430.53125 544.375 C 431.27601 543.56096 431.57673 542.25098 431.4375 541.28125 C 431.15334 539.30198 431.54479 537.16203 430.21875 535.375 C 427.54241 531.76826 424.99308 528.00028 422.78125 524.0625 C 432.67688 520.6487 442.68313 517.61635 452.78125 514.875 z "
       id="path3901" />
    <g
       id="g3979"
       style="fill:#000000;fill-opacity:1">
      <path
         sodipodi:nodetypes="ccccc"
         id="path3951"
         d="m 404.28571,650.21932 c -9.20258,12.27249 -22.5749,21.121 -30.35714,34.64286 0,1.19048 0,2.38095 0,3.57143 14.17829,-0.82911 38.83641,-11.02901 47.73322,-18.02397 -1.60431,-12.80678 -6.10162,-19.41762 -17.37608,-20.19032 z"
         style="fill:#000000;stroke:#000000;stroke-width:1px;stroke-linecap:butt;stroke-linejoin:miter;stroke-opacity:1;fill-opacity:1" />
      <path
         sodipodi:nodetypes="ccccccccc"
         id="path3953"
         d="m 442.14286,678.43361 c -1.87311,1.88193 -1.72267,3.69361 -1.27361,5.68038 0.42197,4.11617 8.07091,2.04816 11.03825,1.62887 12.46527,-1.55046 23.47298,-6.70829 34.8962,-11.46073 2.49401,-0.75905 4.98801,-1.51809 7.48202,-2.27714 3.19901,-4.26593 1.63384,-6.59169 -0.35715,-11.07143 -3.21285,-2.21803 -6.26645,-2.5 -10,-2.5 -2.78542,2.50824 -5.50178,5.09309 -8.33,7.55373 -10.88823,4.59579 -21.40108,11.56178 -33.45571,12.44632 z"
         style="fill:#000000;stroke:#000000;stroke-width:1px;stroke-linecap:butt;stroke-linejoin:miter;stroke-opacity:1;fill-opacity:1" />
      <path
         id="path3955"
         d="m 413.21429,695.93361 c -1.76552,5.56573 -4.86207,10.70024 -9.02697,14.79362 -14.01918,15.42198 -28.0285,30.85291 -42.04446,46.27781 -0.35714,1.19048 -0.71429,2.38095 -1.07143,3.57143 16.70909,-2.60355 44.66342,-29.46828 59.64286,-40.35715 3.1059,0.13668 6.44556,0.30066 8.9067,-1.92753 1.0631,-9.54321 -7.03794,-20.75057 -16.4067,-22.35818 z"
         style="fill:#000000;stroke:#000000;stroke-width:1px;stroke-linecap:butt;stroke-linejoin:miter;stroke-opacity:1;fill-opacity:1"
         sodipodi:nodetypes="ccccccc" />
      <path
         id="path3957"
         d="m 397.85714,733.79075 c -4.30976,1.38446 -2.24538,6.81645 -3.20576,10.13605 -1.76452,17.25962 -2.49041,34.65951 -5.387,51.78541 -4.76618,5.36329 -4.28802,13.04425 -0.17606,18.69177 5.01223,8.30832 12.10056,1.10405 15.55454,-4.89892 -2.08253,-10.61254 -1.69733,-21.60443 0.21766,-32.21591 2.37583,-12.42121 4.71208,-24.78207 1.99881,-37.31069 -1.5084,-4.17606 -5.19997,-5.17371 -9.00219,-6.18771 z"
         style="fill:#000000;stroke:#000000;stroke-width:1px;stroke-linecap:butt;stroke-linejoin:miter;stroke-opacity:1;fill-opacity:1"
         sodipodi:nodetypes="cccccccc" />
      <path
         id="path3959"
         d="m 418.57143,732.71932 c -1.0323,5.41671 5.59303,7.59548 8.75034,10.63676 5.83788,1.17884 11.16951,-2.97446 16.7234,-4.22233 22.89847,-9.84588 47.70595,-12.87363 71.5165,-19.61476 5.47209,-0.45665 10.72967,2.03161 16.24883,1.46703 3.2995,-0.36565 7.98812,0.62568 9.80339,-2.86475 2.12008,-1.78923 2.3972,-4.27034 0.55462,-6.55226 -2.75232,-4.28363 -8.23481,-7.49118 -13.3981,-6.50762 -4.81958,2.1779 -9.6076,4.38203 -14.76963,5.7109 -12.82055,4.27343 -26.12309,6.76187 -39.23145,9.95854 -18.07933,5.96113 -38.85703,3.89609 -56.1979,11.98849 z"
         style="fill:#000000;stroke:#000000;stroke-width:1px;stroke-linecap:butt;stroke-linejoin:miter;stroke-opacity:1;fill-opacity:1"
         sodipodi:nodetypes="ccccccccccc" />
      <path
         id="path3961"
         d="m 481.42857,713.43361 c -7.05211,-0.49446 -4.66035,7.38106 -4.4993,11.93818 3.89771,28.51424 4.21901,51.55054 -0.25438,79.87949 -0.73112,1.56984 0.008,4.49224 -1.97326,4.91195 -7.46713,2.64225 -14.44004,0.77572 -21.48734,-1.72962 1.8024,4.98944 7.86361,6.41587 11.28681,10.14171 5.6094,2.53235 5.07757,8.85743 3.89263,13.86038 0.17841,5.45182 7.55103,6.43451 11.57116,4.14382 14.00842,-3.93298 13.94089,-12.39167 17.51855,-26.14076 1.24585,-8.94863 2.98197,-17.86909 3.87389,-26.84241 -1.36192,-16.63355 -2.00997,-33.3909 -4.97773,-49.83879 -1.90856,-4.81901 -2.13332,-19.31754 -8.86795,-20.0939 -2.00764,-0.79609 -4.02857,-0.46771 -6.08308,-0.23005 z"
         style="fill:#000000;stroke:#000000;stroke-width:1px;stroke-linecap:butt;stroke-linejoin:miter;stroke-opacity:1;fill-opacity:1"
         sodipodi:nodetypes="ccccccccccccc" />
    </g>
    <g
       id="g4043"
       style="fill:#000000;fill-opacity:1">
      <path
         id="path3987"
         d="m 392.85714,859.86218 c -1.95253,0 -3.98684,1.93153 -4.64285,3.57143 -0.63295,6.47603 -0.8938,13.18789 -3.57139,19.28572 -1.79134,3.15859 -5.31265,5.33352 -7.54902,8.36644 -0.83654,3.16374 0.0216,7.39637 1.70535,10.28335 1.61502,3.33965 3.82709,6.33012 7.98673,5.99306 5.05942,-3.42831 8.22009,-10.07014 11.11956,-15.37475 4.65752,-6.23849 5.66251,-12.94997 4.59473,-20.58453 -1.28299,-4.04959 -5.20395,-10.41976 -9.6429,-11.54072 l -2.1e-4,0 z"
         style="fill:#000000;stroke:#000000;stroke-width:1px;stroke-linecap:butt;stroke-linejoin:miter;stroke-opacity:1;fill-opacity:1"
         sodipodi:nodetypes="cccccccccs" />
      <path
         id="path3989"
         d="m 414.64286,862.00504 c -0.90853,2.95655 1.69639,8.56082 6.8322,7.74448 5.11471,-0.81299 8.93085,-5.02797 13.84746,-5.70692 14.2889,0.99403 57.18924,-6.83293 69.32034,-5.60899 2.73097,1.92519 -3.13762,6.79979 -5.55943,9.59414 -3.72546,4.29852 -9.95531,7.76868 -11.58343,12.54872 -1.2597,3.69838 4.97271,1.15679 7.31923,-0.0881 5.5404,-2.93933 10.74581,-7.01855 16.60934,-8.84045 4.91981,-1.52867 4.28783,8.15085 10.13909,7.61584 5.37256,-0.49124 7.7866,-6.21727 6.99895,-10.55611 -0.86992,-4.79204 0.16666,-10.80103 -3.15534,-14.30551 -3.14291,-3.31556 -9.49761,-8.34244 -13.93632,-4.74068 -3.5943,2.91658 -7.17179,2.82052 -11.30513,2.34427 -26.17465,-2.12523 -51.52638,2.008 -77.83675,5.03384 -2.99955,0.66557 -6.93704,2.51449 -7.69021,4.96547 z"
         style="fill:#000000;stroke:#000000;stroke-width:1px;stroke-linecap:butt;stroke-linejoin:miter;stroke-opacity:1;fill-opacity:1"
         sodipodi:nodetypes="csccssssssssccs" />
      <path
         id="path3991"
         d="m 421.78571,887.36218 c -2.47048,0.86773 -2.18576,5.06677 0.37367,6.84987 3.09668,2.15739 6.68964,3.52096 10.45191,3.68964 14.51369,-1.29406 29.00776,-7.31407 42.61512,-12.4693 3.04814,-1.08191 4.85041,-3.70382 6.13802,-6.40208 -1.04522,-5.28458 -5.92825,-4.93514 -10.20828,-3.45929 -10.43252,4.40076 -21.2846,8.4212 -32.22758,11.07688 -5.50258,1.33539 -11.97548,-1.10071 -17.14286,0.71428 z"
         style="fill:#000000;stroke:#000000;stroke-width:1px;stroke-linecap:butt;stroke-linejoin:miter;stroke-opacity:1;fill-opacity:1"
         sodipodi:nodetypes="csccccss" />
      <path
         id="path3993"
         d="m 403.57143,906.6479 c -2.3205,1.89993 -2.90898,6.27881 -0.5502,8.9527 10.83849,18.5719 8.93262,35.63661 17.06884,55.96036 0.31137,2.31579 1.40874,3.98683 3.8385,4.01551 2.11617,-1.21039 3.89007,-4.1562 4.01557,-7.10538 -3.5369,-17.82053 -8.79011,-35.83716 -10.80128,-53.96605 -0.0876,-1.38452 2.75515,-2.41498 2.5,-3.57143 -2.72929,-5.39067 -10.98373,-6.01265 -16.07143,-4.28571 z"
         style="fill:#000000;stroke:#000000;stroke-width:1px;stroke-linecap:butt;stroke-linejoin:miter;stroke-opacity:1;fill-opacity:1"
         sodipodi:nodetypes="cccccccc" />
      <path
         id="path3995"
         d="m 429.64286,913.07647 c -0.11905,1.42857 -0.2381,2.85714 -0.35715,4.28571 4.327,2.64097 8.83667,-0.24925 12.83327,-1.8164 10.66852,-2.69819 21.46153,-4.88741 32.08568,-7.76373 3.30061,-1.71716 6.93065,-3.93614 10.77369,-3.3126 3.86405,2.64841 0.41402,7.01928 -0.67999,10.17261 -5.39623,13.44803 -10.40319,27.04719 -15.44597,40.63034 -9.8e-4,3.92294 0.71321,8.97272 4.06629,11.33502 3.92522,1.60846 8.20519,1.79558 10.91445,-2.02298 8.50602,-18.69587 17.9507,-37.31724 23.30973,-57.22226 -3.10274,-5.62423 -5.18373,-11.98633 -9.62789,-16.75173 -3.16936,-2.95664 -6.84633,-0.40136 -7.03533,3.36919 -1.90335,4.61293 -7.31532,4.61941 -11.46484,5.53444 -16.41335,4.17028 -33.42684,7.69831 -49.37194,13.56239 z"
         style="fill:#000000;stroke:#000000;stroke-width:1px;stroke-linecap:butt;stroke-linejoin:miter;stroke-opacity:1;fill-opacity:1"
         sodipodi:nodetypes="cccccccccccccc" />
      <path
         id="path3997"
         d="m 449.64286,858.79075 c -5.91687,2.41993 -7.36284,9.25872 -7.11386,15.02201 -1.1105,40.79001 -0.55569,81.62492 -1.32459,122.42924 0.0427,12.9874 1.86699,25.9231 2.94757,38.8636 1.07445,5.719 1.19866,12.1182 4.73933,16.9939 5.73075,1.7694 3.01402,-9.2037 4.79692,-12.8634 2.16317,-15.8353 4.91383,-31.6153 6.69352,-47.4874 0.23232,-35.08711 1.75657,-70.18763 0.17043,-105.26129 -0.67227,-7.91486 0.38944,-16.23143 -2.08629,-23.84449 -2.22413,-2.81801 -5.08806,-4.69266 -8.82303,-3.85217 z"
         style="fill:#000000;stroke:#000000;stroke-width:1px;stroke-linecap:butt;stroke-linejoin:miter;stroke-opacity:1;fill-opacity:1" />
      <path
         id="path3999"
         d="m 432.14286,933.07647 c -2.8899,1.95394 -1.63177,5.27474 0.35714,7.5 1.32538,1.19915 3.55543,2.26945 5.35714,2.14286 10.0784,-3.43958 21.60817,-7.40266 31.78572,-15.35715 0.50234,-0.79018 -0.27504,-2.64015 -1.07143,-3.21428 -1.12498,-0.81101 -3.10668,-1.24752 -4.78303,-0.70268 -10.47465,3.40446 -21.53193,5.85326 -31.64554,9.63125 z"
         style="fill:#000000;stroke:#000000;stroke-width:1px;stroke-linecap:butt;stroke-linejoin:miter;stroke-opacity:1;fill-opacity:1"
         sodipodi:nodetypes="ccccssc" />
      <path
         id="path4001"
         d="m 426.07143,965.21933 c 2.13336,0.30537 4.31029,0.46594 6.39541,-0.19529 12.99775,-2.7814 25.72079,-6.6894 38.73357,-9.40923 0.41,-1.40766 0.51296,-2.57893 -0.62626,-3.55998 -2.56494,-2.49732 -6.04535,-2.2727 -9.33563,-1.17744 -11.01648,3.66593 -22.08976,7.15848 -33.10602,10.82509 -1.85357,0.94328 -2.06107,1.56764 -2.06107,3.51685 z"
         style="fill:#000000;stroke:#000000;stroke-width:1px;stroke-linecap:butt;stroke-linejoin:miter;stroke-opacity:1;fill-opacity:1"
         sodipodi:nodetypes="ccccccc" />
      <path
         id="path4003"
         d="m 382.5,995.21933 c -0.38778,5.38517 5.01281,8.63017 8.50256,11.80997 4.68414,1.6008 11.01219,5.6827 15.27272,1.3315 9.26863,-9.18905 23.43601,-15.28126 36.20833,-17.5651 19.32323,-3.63981 38.58396,-7.83117 58.09684,-10.30161 6.3447,-0.49902 12.36992,2.43994 16.66372,6.97844 3.66704,2.41006 12.23804,5.24396 13.51458,-1.06217 0.60942,-6.33722 -5.94227,-9.68888 -10.15874,-13.07778 -4.20455,-2.74321 -9.42316,-7.15691 -14.70073,-4.90174 -4.31968,3.78282 -10.0749,3.28501 -15.29221,4.79072 -35.71568,8.93895 -72.12065,14.45596 -108.10707,21.99777 z"
         style="fill:#000000;stroke:#000000;stroke-width:1px;stroke-linecap:butt;stroke-linejoin:miter;stroke-opacity:1;fill-opacity:1"
         sodipodi:nodetypes="ccccccccccc" />
    </g>
    <g
       id="g4074"
       style="fill:#000000;fill-opacity:1">
      <path
         id="path4054"
         d="m 194.64286,31.290752 c -1.89395,7.848161 6.71917,15.253174 14.07831,11.142789 10.48379,-2.502041 20.80752,-5.592645 30.37213,-10.640087 15.6846,-5.947836 30.69738,-9.013255 44.83527,-16.57413 11.09284,-0.996421 7.69434,13.810098 9.98653,20.724911 3.15873,47.359233 -0.89495,95.023515 -12.48653,141.060805 -7.14113,2.24516 -12.57612,-9.80042 -19.87312,-5.87808 3.10654,7.84332 14.25508,13.65813 8.51176,23.38106 -1.6213,8.23886 7.00592,10.14667 13.27642,8.90374 6.61016,-0.17737 12.29157,-3.74773 15.37689,-9.57761 11.436,-17.90105 15.77888,-38.54559 18.33491,-59.3333 3.35713,-35.3185 3.40594,-70.353128 -2.39177,-105.370122 C 311.5542,19.518374 305.1779,9.1355784 293.76044,9.4357583 278.80269,10.10225 264.57727,15.777986 250.04442,19.043402 c -15.92175,4.177121 -31.49728,10.185716 -47.81024,12.555238 -2.53158,-0.07356 -5.06036,-0.218115 -7.59132,-0.307888 z"
         style="fill:#000000;stroke:#000000;stroke-width:1px;stroke-linecap:butt;stroke-linejoin:miter;stroke-opacity:1;fill-opacity:1"
         sodipodi:nodetypes="cccccccccccccccc" />
      <path
         id="path4056"
         d="m 173.92857,66.647895 c -2.46792,3.184865 -2.72853,8.155465 1.70159,9.706235 3.08801,2.90092 7.5594,1.36762 11.37977,1.689757 19.28216,-3.315774 36.67078,-12.212012 54.08399,-20.709462 6.06393,-2.133605 12.75026,-3.587269 18.19179,-6.400815 1.21764,-0.629583 2.29093,-2.788154 1.78572,-3.928572 -1.2199,-2.753673 -5.35188,-2.642542 -8.49368,-1.850105 -4.43057,0.606822 -8.98737,0.827511 -13.09917,2.757685 -17.06492,6.257739 -33.90542,13.616541 -51.45738,18.031155 -4.5397,1.141811 -9.39431,0.485435 -14.09263,0.704122 z"
         style="fill:#000000;stroke:#000000;stroke-width:1px;stroke-linecap:butt;stroke-linejoin:miter;stroke-opacity:1;fill-opacity:1"
         sodipodi:nodetypes="ccccssccsc" />
      <path
         id="path4058"
         d="m 175.71429,94.862181 c -1.30968,4.679745 5.33135,7.232439 7.14285,11.071429 4.83244,15.32533 7.29541,31.74634 11.55955,47.40481 0.78654,3.62786 2.68532,5.0244 6.2976,4.73805 2.41438,-0.7195 3.27757,-3.71744 4.32609,-6.02013 0.61108,-7.30863 -2.17518,-14.81656 -2.92412,-22.22015 -0.86195,-10.2433 0.37101,-21.56663 -5.54944,-30.525722 -3.65981,-5.400532 -9.02981,-7.148491 -15.33336,-6.396233 -1.90372,0.34659 -4.46627,0.582479 -5.51917,1.947946 z"
         style="fill:#000000;stroke:#000000;stroke-width:1px;stroke-linecap:butt;stroke-linejoin:miter;stroke-opacity:1;fill-opacity:1"
         sodipodi:nodetypes="ccccccccc" />
      <path
         id="path4060"
         d="m 205.71429,103.43361 c -0.35613,2.15294 -0.64286,4.42107 1.17702,5.97413 0.97275,1.87602 2.37294,2.82931 4.58612,2.2336 4.5216,0.76147 8.62372,-0.0217 12.3849,-2.7547 6.95073,-3.9826 12.9802,-9.393576 19.94312,-13.383417 3.96665,-1.007896 1.32233,4.966397 1.685,7.209697 -0.71615,8.17718 -1.14765,16.40578 -2.10975,24.5453 -1.72214,5.51084 -3.44427,11.02169 -5.16641,16.53253 0.35714,1.54762 0.71428,3.09524 1.07142,4.64286 4.04865,1.89602 8.36369,1.22231 12.17542,-0.89135 4.58808,-0.84354 3.48445,-6.46751 4.93322,-9.90783 2.78008,-12.84047 7.86848,-25.03167 11.17469,-37.717686 5.44199,-17.221048 1.99429,-25.201012 -15.42618,-32.554563 -3.45706,-0.115113 -8.35289,2.641779 -8.15164,6.834423 0.15748,5.223314 0.0905,10.462979 0.65164,15.665577 -9.97917,2.992665 -19.81307,6.422703 -29.49935,10.255999 -3.11806,1.17428 -6.25023,2.31554 -9.42922,3.31543 z"
         style="fill:#000000;stroke:#000000;stroke-width:1px;stroke-linecap:butt;stroke-linejoin:miter;stroke-opacity:1;fill-opacity:1"
         sodipodi:nodetypes="ccccccccccccccccc" />
      <path
         id="path4062"
         d="m 200.35714,140.93361 c 0.59524,1.19048 1.19048,2.38095 1.78572,3.57143 1.22422,0.65729 2.47971,1.3221 3.90609,1.33609 1.45327,0.21016 2.96947,0.72223 4.34909,-0.04 9.45362,-3.12755 18.87442,-6.37343 28.39628,-9.28214 1.94952,-0.43322 3.89903,-0.86645 5.84854,-1.29968 0.11905,-1.78571 0.23809,-3.57143 0.35714,-5.35714 -0.47619,-0.59524 -0.95238,-1.19047 -1.42857,-1.78571 -2.22236,0.14622 -4.53729,-0.32536 -6.69218,0.30285 -6.29053,1.98525 -12.6463,3.77705 -18.89068,5.90088 -5.87714,2.21781 -11.75434,4.43557 -17.63143,6.65341 z"
         style="fill:#000000;stroke:#000000;stroke-width:1px;stroke-linecap:butt;stroke-linejoin:miter;stroke-opacity:1;fill-opacity:1" />
    </g>
    <g
       id="g4135"
       style="fill:#000000;fill-opacity:1">
      <path
         id="path4081"
         d="m 215.35714,237.00504 c -1.56038,2.85375 -1.16157,4.90759 -0.35714,7.85714 18.99925,-1.5954 38.3263,-7.15533 57.14286,-11.07143 7.49983,-0.59754 14.99016,-1.32162 22.5,-1.78571 0.95559,-4.21213 -0.67125,-7.05678 -2.5,-10.71429 -6.88218,-0.62934 -13.8404,0.4069 -20.68829,1.1628 -10.80812,2.94225 -21.57824,6.03204 -32.41063,8.88002 -7.8956,1.8905 -15.7912,3.78099 -23.6868,5.67149 l 0,-2e-5 z"
         style="fill:#000000;stroke:#000000;stroke-width:1px;stroke-linecap:butt;stroke-linejoin:miter;stroke-opacity:1;fill-opacity:1"
         sodipodi:nodetypes="ccccccccc" />
      <path
         id="path4083"
         d="m 205.71429,229.50504 c -4.31464,3.0552 -1.45084,8.60732 -2.1306,12.98295 0.0671,30.1121 -2.70094,60.3279 -0.84775,90.42704 0.94863,6.72892 2.52404,8.85521 8.3355,11.59001 11.78318,-5.46121 9.48851,-11.11106 8.40668,-23.65786 -3.59258,-26.50519 -0.69247,-53.14082 -1.7086,-79.70917 -1.69472,-7.0073 -4.67576,-11.11122 -12.05523,-11.63297 z"
         style="fill:#000000;stroke:#000000;stroke-width:1px;stroke-linecap:butt;stroke-linejoin:miter;stroke-opacity:1;fill-opacity:1"
         sodipodi:nodetypes="ccccccc" />
      <path
         id="path4085"
         d="m 215,267.36218 c -0.16849,2.07116 -0.0956,4.13282 1.35775,5.74383 1.5997,1.50619 4.89338,0.0574 7.05157,-0.16153 11.77669,-3.12489 23.53163,-6.38903 35.53606,-8.54353 7.40775,-1.6544 15.00087,-2.62864 22.22247,-5.0061 3.87799,-2.46171 2.03723,-6.67406 -2.16916,-7.16367 -3.60776,-0.0454 -7.32798,1.18599 -10.98081,1.62894 -9.53761,1.34922 -18.62464,4.64438 -27.90066,7.11549 -8.27943,2.52006 -16.67871,4.49458 -25.11722,6.38657 z"
         style="fill:#000000;stroke:#000000;stroke-width:1px;stroke-linecap:butt;stroke-linejoin:miter;stroke-opacity:1;fill-opacity:1" />
      <path
         id="path4087"
         d="m 216.07143,300.57647 c -0.15761,1.79371 -2.13793,4.04566 0.16768,5.20665 4.41397,1.69515 9.34177,-0.66079 13.81969,-1.46536 16.28829,-3.73977 32.43498,-8.1445 48.84704,-11.31355 3.34317,-0.63607 6.62768,1.29966 10.0319,0.78654 4.35553,1.20219 8.22644,-3.08796 4.32437,-6.47937 -1.20642,-1.29259 -2.41283,-2.58518 -3.61925,-3.87777 -4.29213,-0.11819 -8.68858,-1.37694 -12.84791,0.17527 -7.01107,1.05888 -12.74932,5.85256 -19.75292,6.87767 -10.58868,2.49189 -21.33126,4.39479 -31.79897,7.36322 -3.05721,0.9089 -6.11442,1.8178 -9.17163,2.7267 z"
         style="fill:#000000;stroke:#000000;stroke-width:1px;stroke-linecap:butt;stroke-linejoin:miter;stroke-opacity:1;fill-opacity:1" />
      <path
         id="path4089"
         d="m 246.07143,235.57647 c -4.1894,2.46639 -3.51066,7.2829 -3.52734,11.47903 0.48924,13.58862 0.48772,27.21072 1.2382,40.78067 0.52826,12.05759 4.23123,23.20942 8.00342,34.52601 1.78572,0.47619 3.57143,0.95238 5.35715,1.42857 3.43806,-2.63074 2.16192,-7.24402 2.68879,-10.98721 0.751,-19.27628 1.53097,-38.55283 1.48883,-57.84789 -0.35061,-4.88466 1.33656,-10.22547 -1.71631,-14.49345 -2.9951,-5.46557 -8.22267,-5.15127 -13.53274,-4.88573 z"
         style="fill:#000000;stroke:#000000;stroke-width:1px;stroke-linecap:butt;stroke-linejoin:miter;stroke-opacity:1;fill-opacity:1"
         sodipodi:nodetypes="ccccccccc" />
      <path
         id="path4091"
         d="m 217.5,330.93361 c 2.54433,11.79792 20.12157,1.64837 28.26874,0.97122 18.31799,-2.80551 36.62859,-5.65904 54.94555,-8.47122 11.16762,4.53257 6.6314,20.31801 7.50886,29.85233 -2.33527,15.2345 -5.47941,31.36573 -14.60656,44.10226 -6.9317,10.76572 -19.87722,-7.62737 -24.51443,-2.40411 3.68681,6.66624 13.85524,13.32795 3.96232,19.75806 1.35175,13.29342 21.50752,10.23699 29.09882,3.84067 13.76789,-7.02193 21.29672,-21.57329 27.25222,-35.1335 5.67692,-18.64272 5.10258,-38.66905 1.96894,-57.68823 -2.96378,-10.91641 -13.59867,-23.40439 -26.01973,-19.19974 -7.99811,5.82781 -16.86117,9.8896 -26.88831,10.58774 -20.39415,4.15964 -41.81594,5.03036 -60.97642,13.78452 z"
         style="fill:#000000;stroke:#000000;stroke-width:1px;stroke-linecap:butt;stroke-linejoin:miter;stroke-opacity:1;fill-opacity:1"
         sodipodi:nodetypes="ccccccccccccc" />
      <path
         id="path4093"
         d="m 156.42857,351.6479 c -3.63116,5.9601 5.3061,9.72093 7.92639,14.3213 3.67345,7.76253 9.33221,22.15992 20.43095,16.81935 4.20314,-4.19638 3.72444,-10.63825 2.95802,-16.00978 -5.05889,-13.98093 -18.41746,-14.89906 -31.31536,-15.13087 z"
         style="fill:#000000;stroke:#000000;stroke-width:1px;stroke-linecap:butt;stroke-linejoin:miter;stroke-opacity:1;fill-opacity:1"
         sodipodi:nodetypes="ccccc" />
      <path
         id="path4095"
         d="m 208.57143,344.86218 c -3.93535,1.35375 -5.43508,6.14699 -6.77693,9.62114 1.00049,9.661 6.90269,19.74107 16.73665,21.97084 6.62432,-0.14113 5.75456,-9.3549 5.75456,-14.09198 -3.93902,-7.39148 -8.74645,-13.09925 -15.71428,-17.5 z"
         style="fill:#000000;stroke:#000000;stroke-width:1px;stroke-linecap:butt;stroke-linejoin:miter;stroke-opacity:1;fill-opacity:1"
         sodipodi:nodetypes="ccccc" />
      <path
         id="path4097"
         d="m 230.35714,342.71932 c -1.4308,4.70604 4.28412,5.5138 6.50435,8.54162 3.62054,4.27448 6.55897,9.12268 10.44727,13.1839 3.44708,3.58011 11.22259,5.04907 10.70839,-2.09305 0.67298,-11.92365 -8.08484,-19.47692 -18.60677,-22.76627 -3.01775,1.0446 -6.03549,2.0892 -9.05324,3.1338 z"
         style="fill:#000000;stroke:#000000;stroke-width:1px;stroke-linecap:butt;stroke-linejoin:miter;stroke-opacity:1;fill-opacity:1"
         sodipodi:nodetypes="cccccc" />
      <path
         id="path4099"
         d="m 269.64286,345.57647 c 5.65404,3.74433 10.46875,8.60358 14.62806,13.93193 3.90534,4.87903 11.358,3.66842 14.02862,-1.66854 1.54599,-6.63029 -0.68622,-10.3757 -4.37099,-15.47768 -8.57902,-2.52887 -16.49675,-3.55498 -24.64286,0.35714 0.11908,0.95235 0.23812,1.90477 0.35717,2.85715 z"
         style="fill:#000000;stroke:#000000;stroke-width:1px;stroke-linecap:butt;stroke-linejoin:miter;stroke-opacity:1;fill-opacity:1"
         sodipodi:nodetypes="cccccc" />
    </g>
    <g
       id="g4183"
       style="fill:#000000;fill-opacity:1">
      <path
         id="path4147"
         d="m 208.21429,445.57647 c -1.39246,0.25746 -3.63775,2.07814 -3.21429,3.21428 1.1481,3.08031 3.43585,6.97592 3.69582,10.96871 0.23543,18.45111 -0.37335,36.91172 -0.48708,55.36817 0.18377,1.70853 2.35111,2.24159 3.46378,3.39966 1.58236,1.15965 4.44203,0.60932 5.65432,-0.99195 2.39185,-1.39181 1.41949,-4.15145 1.6114,-6.4652 1.09973,-10.20094 3.18864,-20.30345 4.30664,-30.50483 0.19576,-9.43804 0.90294,-18.88979 0.58829,-28.32452 -3.11543,-6.09337 -9.08469,-7.29653 -15.61888,-6.66432 z"
         style="fill:#000000;stroke:#000000;stroke-width:1px;stroke-linecap:butt;stroke-linejoin:miter;stroke-opacity:1;fill-opacity:1"
         sodipodi:nodetypes="cscccccccc" />
      <path
         id="path4149"
         d="m 225.71429,447.36218 c -1.25525,0.57124 -2.67857,2.55952 -2.5,3.57143 0.17857,1.0119 2.17708,2.44034 3.57142,2.5 15.06154,-1.3803 30.32161,-4.55176 44.88721,-8.73433 3.07016,-1.02559 5.2116,-3.3898 5.11279,-6.62281 -0.95364,-2.00669 -3.15797,-4.45889 -5.35714,-5.35715 -2.87069,-1.17254 -6.34733,0.24024 -9.29346,1.83562 -7.92693,4.29258 -16.75798,6.58754 -25.13236,9.88763 -3.64338,1.43575 -7.92765,1.39019 -11.28846,2.91961 z"
         style="fill:#000000;stroke:#000000;stroke-width:1px;stroke-linecap:butt;stroke-linejoin:miter;stroke-opacity:1;fill-opacity:1"
         sodipodi:nodetypes="cscccssss" />
      <path
         id="path4151"
         d="m 226.42857,470.93361 c -1.808,1.40846 -0.52023,2.5651 1.41205,3.16821 2.85802,0.89205 6.28318,1.21293 9.1929,0.56975 6.8611,-1.51662 13.40852,-4.57345 20.36645,-5.93591 4.93165,-0.96569 10.16517,-1.45409 14.74289,-3.15919 3.99315,-1.69339 5.19099,-4.53769 3.21428,-8.21429 -1.8182,-2.32355 -5.13166,-2.17074 -8.10431,-2.1488 -10.7111,2.74913 -20.73467,8.16501 -31.21596,11.8616 -3.28597,1.07324 -6.86353,1.72041 -9.6083,3.85863 z"
         style="fill:#000000;stroke:#000000;stroke-width:1px;stroke-linecap:butt;stroke-linejoin:miter;stroke-opacity:1;fill-opacity:1"
         sodipodi:nodetypes="csssccccs" />
      <path
         id="path4153"
         d="m 222.85714,491.29075 c -0.48815,0.70042 -0.62288,2.45246 0,3.21429 1.67802,2.05234 5.11648,1.45052 7.83154,1.4366 13.0949,-1.41769 25.9743,-4.61927 38.8674,-7.28253 3.48509,-1.02451 6.99591,-2.33487 6.802,-6.38758 -0.52367,-1.15465 -1.30559,-2.72034 -2.42951,-3.12365 -16.08387,1.53976 -32.52698,7.24697 -48.29321,11.37113 -0.92826,0.24921 -2.34034,0.14345 -2.77822,0.77174 z"
         style="fill:#000000;stroke:#000000;stroke-width:1px;stroke-linecap:butt;stroke-linejoin:miter;stroke-opacity:1;fill-opacity:1"
         sodipodi:nodetypes="cscccccs" />
      <path
         id="path4155"
         d="m 167.85714,526.6479 c -5.54797,13.02907 11.66907,12.39627 18.90764,7.99872 34.11171,-17.01858 63.97997,-20.92674 101.60663,-23.52551 7.44725,-1.07142 14.44232,7.88749 20.99436,3.07359 3.82039,-7.27941 -4.25723,-13.78424 -10.66666,-15.34033 -9.46035,-0.53444 -18.21814,3.6884 -27.54628,4.48657 -15.83191,2.95453 -31.87426,4.92012 -47.63294,8.13708 -14.63691,3.85526 -29.3129,7.63147 -43.43087,13.15298 -3.92867,1.28154 -8.16924,1.31814 -12.23188,2.0169 z"
         style="fill:#000000;stroke:#000000;stroke-width:1px;stroke-linecap:butt;stroke-linejoin:miter;stroke-opacity:1;fill-opacity:1"
         sodipodi:nodetypes="ccccccccc" />
      <path
         id="path4157"
         d="m 192.5,536.6479 c -1.62509,0.30435 -4.21679,1.64106 -4.28571,3.21428 -0.20418,4.66077 0.71835,10.46482 0.80018,15.71023 0.18755,12.02314 -0.51634,24.1989 0.27124,36.07549 0.34607,5.55147 4.23071,7.28495 9.28572,6.78571 3.63975,-0.58383 5.80193,-4.67778 6.10483,-8.22149 -0.76714,-15.04076 5.99715,-32.79 -0.16241,-47.28451 -2.32952,-4.88082 -6.77684,-6.81679 -12.01385,-6.27971 z"
         style="fill:#000000;stroke:#000000;stroke-width:1px;stroke-linecap:butt;stroke-linejoin:miter;stroke-opacity:1;fill-opacity:1"
         sodipodi:nodetypes="cssccccc" />
      <path
         id="path4159"
         d="m 176.78571,600.21932 c -0.87785,4.44488 -1.01586,9.26335 1.83129,13.07465 1.37207,3.69526 6.70082,5.3632 9.61272,2.9762 4.89853,-5.30906 10.72111,-9.6111 16.95347,-13.21398 12.31989,-7.61229 24.63978,-15.22458 36.95967,-22.83687 0.75287,-2.20297 1.08016,-4.1282 -2.08495,-3.51986 -20.91083,8.33377 -41.9306,16.30344 -63.2722,23.51986 z"
         style="fill:#000000;stroke:#000000;stroke-width:1px;stroke-linecap:butt;stroke-linejoin:miter;stroke-opacity:1;fill-opacity:1"
         sodipodi:nodetypes="ccccccc" />
      <path
         id="path4161"
         d="m 260.35714,512.00504 c -4.63108,0.63207 -6.49381,5.08821 -9.20358,8.3051 -12.82645,14.03647 -26.40179,27.40604 -39.72499,40.98061 -1.01964,2.72821 -0.72721,4.7999 2.99015,4.19121 8.74164,-6.01208 17.21782,-12.38432 25.49334,-19.02008 7.64836,-6.00942 15.29672,-12.01885 22.94508,-18.02827 2.29048,0.1887 4.5633,0.0891 6.37531,-1.4681 2.55473,-1.62664 -1.90827,-5.54772 -2.12618,-8.04659 -1.03255,-2.67999 -3.83279,-4.02394 -5.7514,-6.03358 -0.33256,-0.2934 -0.66523,-0.58704 -0.99773,-0.8803 z"
         style="fill:#000000;stroke:#000000;stroke-width:1px;stroke-linecap:butt;stroke-linejoin:miter;stroke-opacity:1;fill-opacity:1"
         sodipodi:nodetypes="cccccccccc" />
      <path
         id="path4163"
         d="m 256.42857,530.21932 c -5.13966,2.8798 -2.12548,9.59747 -2.74431,14.36548 4.32168,28.65042 25.25115,47.42634 45.60145,65.63452 3.91187,0.86618 8.21075,2.90154 12.13105,1.2453 4.49549,-3.6028 9.47748,-6.42124 15.18538,-8.05393 8.13154,0.52085 15.2361,-0.29603 23.39786,0.0229 2.56093,-0.80896 5.59936,-2.07297 1.53396,-3.49645 -4.22233,-3.03139 -8.83039,-5.41115 -13.84569,-6.81704 -6.37369,-2.33746 -12.94305,-4.28426 -19.15533,-6.97624 -23.66242,-14.12369 -41.23415,-27.7142 -57.47896,-50.11484 -0.11323,-1.69848 -0.22646,-3.39695 -0.33969,-5.09543 -1.42857,-0.2381 -2.85715,-0.47619 -4.28572,-0.71429 z"
         style="fill:#000000;stroke:#000000;stroke-width:1px;stroke-linecap:butt;stroke-linejoin:miter;stroke-opacity:1;fill-opacity:1"
         sodipodi:nodetypes="cccccccccccc" />
    </g>
    <g
       id="g4264"
       style="fill:#000000;fill-opacity:1">
      <path
         id="path4194"
         d="m 204.28571,643.79075 c -3.15395,1.6947 -2.26402,4.87779 -2.23456,7.8259 -0.0636,3.52851 -1.37856,6.79348 -2.99076,9.88039 -6.79332,15.18491 -13.66532,30.33608 -20.48894,45.508 -2.85714,2.02381 -5.71429,4.04762 -8.57143,6.07143 -0.67142,3.71619 -3.01007,6.93225 -3.61002,10.59691 -1.45743,3.89248 3.24456,6.07166 6.20931,4.27066 4.78081,-0.85581 6.88987,-3.74887 9.54357,-7.36757 4.90866,-0.52307 9.88078,-0.74046 14.78585,-0.82813 1.70579,-3.67991 -2.5354,-5.2889 -4.94459,-7.04187 -2.56142,-1.30565 -3.37184,-4.16253 -4.84126,-6.41572 4.38689,-8.89942 9.22963,-17.55462 14.30667,-26.07555 4.24051,-7.47802 8.78336,-14.81927 13.98036,-21.66889 1.7726,-1.36358 4.11826,-4.52168 1.69422,-6.30199 -3.74655,-5.13186 -6.84035,-7.39509 -12.83842,-8.45357 z"
         style="fill:#000000;stroke:#000000;stroke-width:1px;stroke-linecap:butt;stroke-linejoin:miter;stroke-opacity:1;fill-opacity:1"
         sodipodi:nodetypes="ccccccccccccccc" />
      <path
         id="path4196"
         d="m 203.92857,679.1479 c -6.87012,-1.94448 -5.97489,6.72098 -2.92747,10.18275 3.26679,3.37506 1.9968,8.50537 2.91674,12.83011 1.07381,7.50992 -2.44132,14.48209 -3.7339,21.71563 -2.15529,9.92453 -5.20814,19.66473 -9.83552,28.7268 -4.62963,11.07321 -9.49927,22.14593 -16.58991,31.90313 -5.56373,8.77107 -11.64616,17.47371 -15.13795,27.29955 1.97347,5.09084 7.0891,2.46333 8.4664,-1.46822 10.80761,-12.9621 20.40331,-26.88813 29.34161,-41.18975 8.493,-21.32704 15.41085,-43.49714 18.21619,-66.34174 0.52058,-7.09109 0.16364,-14.79509 -3.53157,-21.03224 -1.64233,-2.18856 -4.52209,-3.19938 -7.18462,-2.62602 z"
         style="fill:#000000;stroke:#000000;stroke-width:1px;stroke-linecap:butt;stroke-linejoin:miter;stroke-opacity:1;fill-opacity:1" />
      <path
         id="path4198"
         d="m 224.64286,656.6479 c -3.01514,4.06762 0.87618,9.31179 -0.005,14.00382 -0.44708,24.11852 -0.58464,48.25027 -1.85994,72.34714 -0.43928,4.3108 -0.21513,8.57102 0.90014,12.75499 0.0739,2.16808 0.94197,3.81432 2.98916,4.68583 4.3853,4.40764 5.48033,-4.59112 5.89257,-7.70144 0.47967,-19.15635 1.34523,-38.30596 2.66158,-57.42595 0.3845,-9.37971 0.34902,-18.77231 0.4406,-28.15831 -0.47571,-7.28297 -4.65883,-9.71102 -11.01938,-10.50608 l 2.7e-4,0 z"
         style="fill:#000000;stroke:#000000;stroke-width:1px;stroke-linecap:butt;stroke-linejoin:miter;stroke-opacity:1;fill-opacity:1"
         sodipodi:nodetypes="cccccccccc" />
      <path
         id="path4202"
         d="m 232.5,684.86218 c -3.37866,3.70267 1.29074,9.87674 5.79853,7.33728 3.75064,-1.39749 7.62939,-2.7055 11.13777,-4.60422 3.23523,-2.22648 3.42919,-8.60318 -1.46468,-8.66024 -5.66434,0.13178 -10.46006,3.58903 -15.47162,5.92718 z"
         style="fill:#000000;stroke:#000000;stroke-width:1px;stroke-linecap:butt;stroke-linejoin:miter;stroke-opacity:1;fill-opacity:1"
         sodipodi:nodetypes="ccccc" />
      <path
         id="path4204"
         d="m 230.71429,658.43361 c -2.23221,4.3125 0.66097,9.39078 5.75772,8.48378 8.86443,-3.45225 16.97613,-8.59358 25.36196,-13.05217 6.68035,-2.22883 4.77837,6.54555 4.17137,10.38498 -0.92979,15.99841 -3.62013,33.02036 -4.1172,49.10888 0.76074,2.70738 -0.70286,7.08871 3.34609,6.65863 3.52182,1.72736 5.43987,-2.08626 7.6654,-4.26468 2.4813,-8.92087 2.01559,-18.28535 3.23747,-27.40596 0.83257,-6.0558 1.87497,-12.08328 2.79147,-18.12775 2.06684,-3.07646 5.59701,-5.61846 5.40257,-9.64908 1.09673,-2.75779 -1.32033,-4.7086 -2.62521,-6.89486 -2.46764,-2.59376 -5.34465,-7.29717 -9.35678,-5.787 -13.7451,3.97128 -27.51112,7.98273 -41.63486,10.54523 z"
         style="fill:#000000;stroke:#000000;stroke-width:1px;stroke-linecap:butt;stroke-linejoin:miter;stroke-opacity:1;fill-opacity:1"
         sodipodi:nodetypes="ccccccccccccc" />
      <path
         id="path4206"
         d="m 231.78571,717.00504 c -0.11905,1.19048 -0.23809,2.38095 -0.35714,3.57143 1.07143,0.71428 2.14286,1.42857 3.21429,2.14285 6.19716,-2.65668 13.01916,-3.27983 19.56435,-4.53546 3.25218,0.5989 6.61862,3.21904 9.75579,0.61168 4.84373,-0.71137 2.13862,-7.81255 -1.32633,-8.81868 -6.26852,-1.07863 -12.20823,2.01082 -18.1707,3.44111 -4.22154,1.21407 -8.45273,2.39416 -12.68026,3.58707 z"
         style="fill:#000000;stroke:#000000;stroke-width:1px;stroke-linecap:butt;stroke-linejoin:miter;stroke-opacity:1;fill-opacity:1" />
      <path
         id="path4208"
         d="m 211.07143,769.1479 c -4.63971,4.45139 -0.81781,13.81916 5.40257,14.02666 5.23347,-1.20334 7.77669,-6.68399 12.37791,-9.16684 11.56417,-8.93273 23.40398,-17.49956 35.07666,-26.2884 -4.81621,-5.89035 -12.72441,1.84991 -18.37367,3.05021 -11.60884,5.91014 -22.74779,12.71563 -34.48347,18.37837 z"
         style="fill:#000000;stroke:#000000;stroke-width:1px;stroke-linecap:butt;stroke-linejoin:miter;stroke-opacity:1;fill-opacity:1" />
      <path
         id="path4210"
         d="m 265,725.93361 c -5.29393,6.86835 2.43352,14.83492 4.94333,21.32874 4.26864,7.68586 18.10594,4.35703 13.59,-5.20973 C 280.80948,732.90385 274.65029,726.42913 265,725.93361 z"
         style="fill:#000000;stroke:#000000;stroke-width:1px;stroke-linecap:butt;stroke-linejoin:miter;stroke-opacity:1;fill-opacity:1"
         sodipodi:nodetypes="cccc" />
      <path
         id="path4212"
         d="m 287.5,705.57647 c -4.68359,5.48795 1.93431,12.3933 1.02202,19.06254 1.06001,14.12164 0.58479,28.33405 1.01956,42.49303 0.1453,16.39717 0.47936,32.79015 1.80807,49.13902 0.2644,4.05418 0.52881,8.10837 0.79321,12.16255 2.30502,9.2734 2.8434,8.90753 7.419,-2.12669 3.19341,-10.7196 2.98669,-21.99653 3.90084,-33.05097 -0.32457,-25.30322 -0.0723,-50.59731 0.46587,-75.89377 -2.37716,-7.28309 -6.9424,-14.25459 -15.64715,-11.83455 l -0.78142,0.0488 0,4e-5 z"
         style="fill:#000000;stroke:#000000;stroke-width:1px;stroke-linecap:butt;stroke-linejoin:miter;stroke-opacity:1;fill-opacity:1"
         sodipodi:nodetypes="ccccccccccc" />
      <path
         id="path4218"
         d="m 295.35714,707.36218 c -3.40439,4.57176 1.03001,11.8157 6.73868,9.4163 7.21419,-2.09762 14.30911,-4.63564 21.47561,-6.9163 2.82432,0.76111 6.10219,1.13246 4.64799,5.06911 0.77788,8.02709 -3.06265,15.3678 -4.94084,22.9725 -0.64155,7.87175 -9.61241,4.09917 -14.6651,4.4976 -4.3154,-1.85488 -6.8354,2.5412 -2.05253,4.17461 5.2855,1.69312 9.7912,5.47107 10.28638,11.31047 1.98059,6.43344 9.77898,2.7081 13.57964,0.079 9.80147,-12.49829 14.01326,-29.70363 16.96791,-45.12167 -2.56926,-4.31867 -3.05111,-10.43612 -7.91969,-12.85593 -3.12699,-3.28127 -8.84647,-4.57968 -10.88427,0.26091 -1.67991,4.04502 -6.22382,3.10436 -9.84034,3.68236 -7.8448,0.77147 -15.73291,1.48235 -23.39344,3.43107 l 0,-3e-5 z"
         style="fill:#000000;stroke:#000000;stroke-width:1px;stroke-linecap:butt;stroke-linejoin:miter;stroke-opacity:1;fill-opacity:1"
         sodipodi:nodetypes="ccccccccccccccc" />
    </g>
    <g
       id="g4332"
       style="fill:#000000;fill-opacity:1">
      <path
         id="path4276"
         d="m 210.71429,868.07647 c -1.89604,7.57841 6.248,14.76131 13.52923,12.16331 19.26026,-6.60002 39.29717,-10.55836 58.97077,-15.73474 5.61129,-0.80137 10.75057,2.95039 16.15832,2.74487 4.92457,0.43655 6.69908,-4.19018 3.7241,-8.09884 -3.15885,-4.73781 -11.05854,-6.6544 -16.42607,-4.30107 -12.00337,3.58013 -23.81357,8.11349 -36.39565,9.26073 -10.49044,1.39969 -20.90863,3.70559 -31.26652,5.52831 -2.81376,-0.23684 -5.50884,-1.152 -8.29418,-1.56257 z"
         style="fill:#000000;stroke:#000000;stroke-width:1px;stroke-linecap:butt;stroke-linejoin:miter;stroke-opacity:1;fill-opacity:1" />
      <path
         id="path4278"
         d="m 215.35714,889.1479 c -0.14417,4.07951 -2.48602,7.77739 -4.14468,11.41606 -3.03659,6.66145 -7.22063,12.92557 -9.73749,19.72327 -0.28715,0.77557 -1.56884,3.11686 0.006,2.61221 1.25912,-0.40348 2.94531,0.0208 3.87572,-0.8944 8.69328,-8.55088 18.15067,-18.05283 25,-27.5 1.21347,-1.67371 0.0989,-5.32547 -1.42857,-6.42857 -9.34439,-3.08235 -9.00418,-4.42693 -13.57098,1.07143 z"
         style="fill:#000000;stroke:#000000;stroke-width:1px;stroke-linecap:butt;stroke-linejoin:miter;stroke-opacity:1;fill-opacity:1"
         sodipodi:nodetypes="cssssscc" />
      <path
         id="path4280"
         d="m 185.71429,928.07647 c -1.38598,2.28257 1.62952,5.54554 4.16679,7.10629 1.30405,0.80216 2.60221,2.29221 4.04749,2.17942 4.18531,-0.32662 8.51008,-2.4748 12.57713,-4.28399 7.41168,-3.29702 15.12025,-6.01816 22.40664,-9.52607 1.18183,-0.56897 3.00934,-1.25909 3.23052,-2.26137 0.26042,-1.18008 -0.54775,-4.02321 -1.78572,-4.28571 -8.02096,0.20213 -15.06555,5.15458 -22.73995,7.22569 -6.84824,2.26608 -15.59896,0.33602 -21.9029,3.84574 z"
         style="fill:#000000;stroke:#000000;stroke-width:1px;stroke-linecap:butt;stroke-linejoin:miter;stroke-opacity:1;fill-opacity:1"
         sodipodi:nodetypes="csssssccc" />
      <path
         id="path4282"
         d="m 232.85714,903.07647 c -0.79168,0.43183 -2.13334,1.39146 -1.78571,2.14286 1.72851,3.7362 4.70367,8.34759 7.85714,11.42857 2.39254,1.76077 5.84863,2.60195 8.25679,0.61865 0.67403,-0.86142 1.54727,-2.05645 1.38607,-3.11865 -0.8376,-5.96574 -3.53834,-11.44948 -9.64286,-13.21429 -1.89394,-0.32467 -4.24406,1.14611 -6.07143,2.14286 z"
         style="fill:#000000;stroke:#000000;stroke-width:1px;stroke-linecap:butt;stroke-linejoin:miter;stroke-opacity:1;fill-opacity:1"
         sodipodi:nodetypes="csccccs" />
      <path
         id="path4284"
         d="m 281.42857,873.07647 c -1.30805,-0.84441 -4.28424,-0.81617 -5,0.35714 -1.59773,2.61906 -0.64755,7.5736 -3.00886,10.76328 -4.65931,6.29384 -8.4416,13.26645 -13.06257,19.59386 -2.29208,3.13851 -9.47585,4.79823 -6.91894,9.91312 2.21536,4.43166 7.10273,6.28349 11.47857,4.72649 8.74941,-3.11318 17.92461,-5.78298 26.15466,-9.63964 1.43174,-0.67092 3.9191,-2.58375 3.13912,-3.82958 -1.78266,-2.84738 -7.25942,0.61361 -10.7914,0.76046 -6.59216,0.27408 -19.74186,4.37793 -19.84772,1.64055 -0.1546,-3.99768 14.04485,-13.54977 21.66224,-19.18371 1.21116,-0.8958 3.75333,0.6956 4.76633,-0.102 1.03956,-0.81852 2.15052,-3.38252 1.42857,-4.64286 -2.13966,-3.7353 -6.24281,-7.93164 -10,-10.35711 z"
         style="fill:#000000;stroke:#000000;stroke-width:1px;stroke-linecap:butt;stroke-linejoin:miter;stroke-opacity:1;fill-opacity:1"
         sodipodi:nodetypes="csssssssssssss" />
      <path
         id="path4286"
         d="m 296.78571,894.50504 c -1.2773,0.81283 -2.3971,3.33365 -2.14285,5 0.53399,3.49977 4.021,6.4545 5.4219,9.9996 1.55234,3.08097 6.65384,2.47689 9.5781,2.14326 1.2371,-1.21991 2.81936,-3.29125 2.85714,-5 -0.67166,-5.35506 -5.57567,-9.59149 -10,-12.14286 -1.6154,-0.78222 -4.37255,-0.85384 -5.71429,0 z"
         style="fill:#000000;stroke:#000000;stroke-width:1px;stroke-linecap:butt;stroke-linejoin:miter;stroke-opacity:1;fill-opacity:1"
         sodipodi:nodetypes="csccccs" />
      <path
         id="path4288"
         d="m 158.21429,952.00504 c 2.9528,11.26963 18.20587,15.03422 27.29033,8.58131 12.39884,-7.655 26.11689,-12.2274 40.18449,-15.70023 24.66872,-5.85045 50.20306,-7.72995 75.51599,-8.28512 11.98883,-0.61338 23.68177,5.30708 35.68169,2.5712 11.61971,-11.47474 -14.20379,-27.64413 -21.69652,-13.86824 -48.51365,4.73797 -95.71862,14.80626 -143.53337,24.7129 -4.50084,0.3654 -9.25564,-0.0368 -13.44261,1.98818 z"
         style="fill:#000000;stroke:#000000;stroke-width:1px;stroke-linecap:butt;stroke-linejoin:miter;stroke-opacity:1;fill-opacity:1"
         sodipodi:nodetypes="cccccccc" />
      <path
         id="path4290"
         d="m 220,954.1479 c -5.0426,3.18297 1.82522,12.02405 2.4272,18.27651 1.90982,19.83622 5.82028,39.71069 8.40517,59.49859 0.77864,5.9607 10.06548,9.2289 11.81603,4.2396 2.07101,-5.9027 -1.13544,-13.1174 -1.72657,-19.6626 -1.41546,-15.6724 -1.85117,-31.56898 -4.49251,-47.0225 -0.71327,-4.1731 -1.39172,-9.09665 -3.92928,-12.11532 -2.61408,-3.10969 -9.44155,-5.14485 -12.50004,-3.21428 z"
         style="fill:#000000;stroke:#000000;stroke-width:1px;stroke-linecap:butt;stroke-linejoin:miter;stroke-opacity:1;fill-opacity:1"
         sodipodi:nodetypes="csssssss" />
      <path
         id="path4292"
         d="m 235,958.43361 c -1.44187,0.55339 -3.88421,2.03998 -3.57143,3.21429 0.65247,2.44966 5.35167,3.32811 8.34478,4.49993 3.0079,1.17761 6.4158,1.06375 9.37838,-0.29447 6.97349,-4.19295 16.05153,-5.44016 22.63398,-10.27694 0.88022,-0.81415 2.09973,-2.84445 1.42858,-3.57143 -1.54528,-1.67381 -5.37282,-0.79991 -8.16223,-0.063 -7.04955,1.86235 -14.16599,3.58697 -21.32901,4.9876 -2.89544,0.56617 -6.06686,0.48456 -8.72305,1.50402 z"
         style="fill:#000000;stroke:#000000;stroke-width:1px;stroke-linecap:butt;stroke-linejoin:miter;stroke-opacity:1;fill-opacity:1"
         sodipodi:nodetypes="cssccssss" />
      <path
         id="path4294"
         d="m 236.42857,994.50504 c 0,-1.09757 -0.89904,2.22893 -0.71428,3.21429 0.17239,0.91939 0.91015,2.23971 1.78571,2.49997 1.66206,0.4941 4.45416,1.0392 5.95949,0.09 6.74768,-7.9111 18.39223,-8.98075 27.61194,-13.30396 0.85566,-0.46994 -0.79613,-2.64723 -1.78572,-2.85714 -2.93898,-0.62342 -6.86167,-0.62405 -10,0.35714 -7.82311,2.44587 -22.85714,18.31536 -22.85714,10 l 0,-3e-4 z"
         style="fill:#000000;stroke:#000000;stroke-width:1px;stroke-linecap:butt;stroke-linejoin:miter;stroke-opacity:1;fill-opacity:1"
         sodipodi:nodetypes="cssccssss" />
      <path
         id="path4296"
         d="m 240,1020.5765 c -2.36608,1.2465 -0.36005,6.2817 1.0778,9.0107 1.20886,1.9971 3.37558,3.3206 5.35077,4.2036 7.23367,-5.7079 15.41224,-10.1141 24.36808,-12.5142 3.50617,-0.4012 8.19758,0.9197 10.63192,-0.343 1.22868,-0.6373 1.51805,-4.5332 0.35714,-5.3571 -2.52957,-1.7951 -7.63518,-2.9491 -11.42857,-2.5 -10.13939,1.2005 -22.20089,3.2032 -30.35714,7.5 z"
         style="fill:#000000;stroke:#000000;stroke-width:1px;stroke-linecap:butt;stroke-linejoin:miter;stroke-opacity:1;fill-opacity:1"
         sodipodi:nodetypes="ccccssss" />
      <path
         id="path4298"
         d="m 293.57143,943.43361 c -11.38176,7.5689 -9.49248,57.67419 -10.24193,71.15399 -0.9943,7.9038 -6.46848,15.7479 -4.57945,23.6266 1.43397,8.4986 12.24551,8.9719 15.85322,1.7005 6.47419,-6.5831 9.29354,-14.8831 9.31604,-24.0906 1.90392,-16.5021 4.28659,-33.09236 5.12755,-49.62622 -0.515,-6.13592 -1.28397,-12.54011 -5.85786,-17.13148 -2.44711,-2.90828 -5.87946,-4.93292 -9.61757,-5.63279 z"
         style="fill:#000000;stroke:#000000;stroke-width:1px;stroke-linecap:butt;stroke-linejoin:miter;stroke-opacity:1;fill-opacity:1"
         sodipodi:nodetypes="cccccccc" />
    </g>
    <g
       id="g3843"
       transform="translate(-725.91122,598.58623)">
      <rect
         y="243.72568"
         x="872.76239"
         height="210.13051"
         width="210.13051"
         id="rect3211"
         style="fill:none;stroke:#969696;stroke-width:0.98121977;stroke-linecap:round;stroke-linejoin:round;stroke-miterlimit:4;stroke-opacity:1;stroke-dasharray:none;stroke-dashoffset:0" />
      <path
         id="path3214"
         d="M 875.03718,247.18395 1081.1083,453.25507"
         style="fill:none;stroke:#969696;stroke-width:1;stroke-linecap:butt;stroke-linejoin:miter;stroke-miterlimit:4;stroke-opacity:1;stroke-dasharray:3, 3;stroke-dashoffset:0" />
      <path
         id="path3988"
         d="M 873.60861,451.23475 C 1079.6797,247.18393 1081.7001,247.18393 1081.7001,247.18393"
         style="fill:none;stroke:#969696;stroke-width:1;stroke-linecap:butt;stroke-linejoin:miter;stroke-miterlimit:4;stroke-opacity:1;stroke-dasharray:3, 3;stroke-dashoffset:0" />
      <path
         id="path3214-7"
         d="m 977.44562,245.95805 -1.2563,207.68607"
         style="fill:none;stroke:#969696;stroke-width:0.88551849;stroke-linecap:butt;stroke-linejoin:miter;stroke-miterlimit:4;stroke-opacity:1;stroke-dasharray:2.65655558, 2.65655558;stroke-dashoffset:0" />
      <path
         id="path3214-0"
         d="m 873.47551,349.35353 208.19929,-1.12518"
         style="fill:none;stroke:#969696;stroke-width:0.88989258;stroke-linecap:butt;stroke-linejoin:miter;stroke-miterlimit:4;stroke-opacity:1;stroke-dasharray:2.66967779, 2.66967779;stroke-dashoffset:0" />
    </g>
    <g
       id="g3743"
       style="fill:#000000;fill-opacity:1">
      <path
         sodipodi:nodetypes="ccccccc"
         id="path3781"
         d="m 619.09665,865.02246 c 3.11393,15.29618 -0.99537,34.91843 -0.77005,50.44663 0.90357,12.30541 5.93197,21.06778 14.88767,29.39309 1.30952,-0.11905 2.61905,-0.23809 3.92857,-0.35714 4.61506,-10.16116 3.29261,-21.1455 4.86599,-31.89973 -0.65948,-12.79885 5.77904,-29.09588 2.17244,-40.96995 -12.54551,-7.0957 -17.36265,-16.62524 -25.08462,-6.6129 z"
         style="fill:#000000;stroke:#000000;stroke-width:1px;stroke-linecap:butt;stroke-linejoin:miter;stroke-opacity:1;fill-opacity:1" />
      <path
         sodipodi:nodetypes="cccccc"
         id="path3785"
         d="m 657.5,909.50504 c -27.10299,47.6404 -53.63878,69.4235 -93.86418,106.15356 -2.87861,1.9964 -5.75721,3.9929 -8.63582,5.9893 6.80217,4.6642 34.50424,-13.4689 42.05742,-17.6659 30.34527,-21.76838 57.39155,-44.67657 80.97056,-74.90818 2.48451,-12.32588 -9.36538,-20.62484 -20.52798,-19.56878 z"
         style="fill:#000000;stroke:#000000;stroke-width:1px;stroke-linecap:butt;stroke-linejoin:miter;stroke-opacity:1;fill-opacity:1" />
      <path
         style="fill:#000000;fill-opacity:1;stroke:#000000;stroke-width:1.14559901000000000px;stroke-linecap:butt;stroke-linejoin:miter;stroke-opacity:1"
         d="m 595.4418,899.66021 c -7.85004,5.22503 -16.05051,6.45816 -22.95283,3.63134 -10.22398,9.28688 1.12656,23.92059 11.83361,26.94992 8.85082,-0.36365 11.00207,-6.03977 7.99213,-12.44593 -4.19229,-7.50098 -3.12949,-7.58127 3.12709,-18.13533 z"
         id="path5370"
         sodipodi:nodetypes="ccccc" />
      <path
         sodipodi:nodetypes="cccccc"
         id="path5374"
         d="m 683.96122,905.11966 c 2.6158,12.44393 12.79001,15.66632 16.14495,-2.75645 -0.73252,-7.33076 -3.58735,-11.39302 -7.22825,-18.34298 -4.65942,-5.16667 -10.21857,-7.18638 -16.00472,-5.28377 -2.99575,3.38282 -0.84394,9.61699 -6.12204,13.62943 10.87173,1.38526 7.34309,4.96646 13.21006,12.75377 z"
         style="fill:#000000;fill-opacity:1;stroke:#000000;stroke-width:1.10258174000000000px;stroke-linecap:butt;stroke-linejoin:miter;stroke-opacity:1" />
    </g>
  </g>
</svg>
