<?xml version="1.0" encoding="UTF-8" standalone="no"?>
<!-- Created with Inkscape (http://www.inkscape.org/) -->

<svg
   xmlns:dc="http://purl.org/dc/elements/1.1/"
   xmlns:cc="http://creativecommons.org/ns#"
   xmlns:rdf="http://www.w3.org/1999/02/22-rdf-syntax-ns#"
   xmlns:svg="http://www.w3.org/2000/svg"
   xmlns="http://www.w3.org/2000/svg"
   xmlns:sodipodi="http://sodipodi.sourceforge.net/DTD/sodipodi-0.dtd"
   xmlns:inkscape="http://www.inkscape.org/namespaces/inkscape"
   width="1000"
   height="1000"
   id="svg3173"
   version="1.1"
   inkscape:version="0.47 r22583"
   sodipodi:docname="yi_zuozhongyou.svg"
   inkscape:export-filename="E:\chinese\images\yan_yi_zuozhongyou.png"
   inkscape:export-xdpi="18.005705"
   inkscape:export-ydpi="18.005705">
  <title
     id="title2821">Yi</title>
  <defs
     id="defs3175">
    <inkscape:perspective
       sodipodi:type="inkscape:persp3d"
       inkscape:vp_x="0 : 526.18109 : 1"
       inkscape:vp_y="0 : 1000 : 0"
       inkscape:vp_z="744.09448 : 526.18109 : 1"
       inkscape:persp3d-origin="372.04724 : 350.78739 : 1"
       id="perspective3181" />
    <inkscape:perspective
       id="perspective3191"
       inkscape:persp3d-origin="0.5 : 0.33333333 : 1"
       inkscape:vp_z="1 : 0.5 : 1"
       inkscape:vp_y="0 : 1000 : 0"
       inkscape:vp_x="0 : 0.5 : 1"
       sodipodi:type="inkscape:persp3d" />
    <inkscape:perspective
       id="perspective4006"
       inkscape:persp3d-origin="0.5 : 0.33333333 : 1"
       inkscape:vp_z="1 : 0.5 : 1"
       inkscape:vp_y="0 : 1000 : 0"
       inkscape:vp_x="0 : 0.5 : 1"
       sodipodi:type="inkscape:persp3d" />
    <inkscape:perspective
       id="perspective4034"
       inkscape:persp3d-origin="0.5 : 0.33333333 : 1"
       inkscape:vp_z="1 : 0.5 : 1"
       inkscape:vp_y="0 : 1000 : 0"
       inkscape:vp_x="0 : 0.5 : 1"
       sodipodi:type="inkscape:persp3d" />
    <inkscape:perspective
       id="perspective4081"
       inkscape:persp3d-origin="0.5 : 0.33333333 : 1"
       inkscape:vp_z="1 : 0.5 : 1"
       inkscape:vp_y="0 : 1000 : 0"
       inkscape:vp_x="0 : 0.5 : 1"
       sodipodi:type="inkscape:persp3d" />
    <inkscape:perspective
       id="perspective4147"
       inkscape:persp3d-origin="0.5 : 0.33333333 : 1"
       inkscape:vp_z="1 : 0.5 : 1"
       inkscape:vp_y="0 : 1000 : 0"
       inkscape:vp_x="0 : 0.5 : 1"
       sodipodi:type="inkscape:persp3d" />
    <inkscape:perspective
       id="perspective3799"
       inkscape:persp3d-origin="0.5 : 0.33333333 : 1"
       inkscape:vp_z="1 : 0.5 : 1"
       inkscape:vp_y="0 : 1000 : 0"
       inkscape:vp_x="0 : 0.5 : 1"
       sodipodi:type="inkscape:persp3d" />
    <inkscape:perspective
       id="perspective3696"
       inkscape:persp3d-origin="0.5 : 0.33333333 : 1"
       inkscape:vp_z="1 : 0.5 : 1"
       inkscape:vp_y="0 : 1000 : 0"
       inkscape:vp_x="0 : 0.5 : 1"
       sodipodi:type="inkscape:persp3d" />
    <inkscape:perspective
       id="perspective3696-1"
       inkscape:persp3d-origin="0.5 : 0.33333333 : 1"
       inkscape:vp_z="1 : 0.5 : 1"
       inkscape:vp_y="0 : 1000 : 0"
       inkscape:vp_x="0 : 0.5 : 1"
       sodipodi:type="inkscape:persp3d" />
    <inkscape:perspective
       id="perspective3696-4"
       inkscape:persp3d-origin="0.5 : 0.33333333 : 1"
       inkscape:vp_z="1 : 0.5 : 1"
       inkscape:vp_y="0 : 1000 : 0"
       inkscape:vp_x="0 : 0.5 : 1"
       sodipodi:type="inkscape:persp3d" />
    <inkscape:perspective
       id="perspective2905"
       inkscape:persp3d-origin="0.5 : 0.33333333 : 1"
       inkscape:vp_z="1 : 0.5 : 1"
       inkscape:vp_y="0 : 1000 : 0"
       inkscape:vp_x="0 : 0.5 : 1"
       sodipodi:type="inkscape:persp3d" />
  </defs>
  <sodipodi:namedview
     id="base"
     pagecolor="#ffffff"
     bordercolor="#666666"
     borderopacity="1.0"
     inkscape:pageopacity="0.0"
     inkscape:pageshadow="2"
     inkscape:zoom="0.49497475"
     inkscape:cx="952.14286"
     inkscape:cy="511.42857"
     inkscape:document-units="px"
     inkscape:current-layer="layer1"
     showgrid="false"
     inkscape:window-width="1440"
     inkscape:window-height="840"
     inkscape:window-x="-4"
     inkscape:window-y="-4"
     inkscape:window-maximized="1" />
  <metadata
     id="metadata3178">
    <rdf:RDF>
      <cc:Work
         rdf:about="">
        <dc:format>image/svg+xml</dc:format>
        <dc:type
           rdf:resource="http://purl.org/dc/dcmitype/StillImage" />
        <dc:title>Yi</dc:title>
        <dc:date>2010-07-27</dc:date>
        <dc:creator>
          <cc:Agent>
            <dc:title>Alex Amies</dc:title>
          </cc:Agent>
        </dc:creator>
        <dc:rights>
          <cc:Agent>
            <dc:title>@ Alex Amies 2010</dc:title>
          </cc:Agent>
        </dc:rights>
        <dc:publisher>
          <cc:Agent>
            <dc:title>chinesenotes.com</dc:title>
          </cc:Agent>
        </dc:publisher>
        <dc:source>Yan Qin Ceremonial Inscription</dc:source>
        <dc:language>Chinese 中文</dc:language>
        <dc:description>Tracing from Tang Dynasty Ceremonial Inscription by Yan Zhenqing 颜真卿 (709－785)</dc:description>
        <cc:license
           rdf:resource="http://creativecommons.org/licenses/by/3.0/" />
      </cc:Work>
      <cc:License
         rdf:about="http://creativecommons.org/licenses/by/3.0/">
        <cc:permits
           rdf:resource="http://creativecommons.org/ns#Reproduction" />
        <cc:permits
           rdf:resource="http://creativecommons.org/ns#Distribution" />
        <cc:requires
           rdf:resource="http://creativecommons.org/ns#Notice" />
        <cc:requires
           rdf:resource="http://creativecommons.org/ns#Attribution" />
        <cc:permits
           rdf:resource="http://creativecommons.org/ns#DerivativeWorks" />
      </cc:License>
    </rdf:RDF>
  </metadata>
  <g
     inkscape:label="Layer 1"
     inkscape:groupmode="layer"
     id="layer1"
     transform="translate(0,-52.362183)">
    <g
       transform="matrix(4.7322369,0,0,4.7322369,-665.87847,-3863.0687)"
       id="g9840"
       style="fill:#000000;fill-opacity:1">
      <path
         id="path9733"
         d="m 180.42822,854.32393 c 10.08782,8.17553 20.1813,17.59599 28.73139,22.07589 3.27759,1.28995 4.68384,-1.82666 6.55468,-4.03764 -1.80386,-15.3441 -13.5488,-22.35369 -27.5,-26.07143 -3.98886,1.24101 -7.7703,3.30917 -7.78607,8.03318 z"
         style="fill:#000000;fill-opacity:1;stroke:#000000;stroke-width:1px;stroke-linecap:butt;stroke-linejoin:miter;stroke-opacity:1"
         sodipodi:nodetypes="ccccc" />
      <path
         id="path9735"
         d="m 153.21429,893.43361 c -0.61317,2.60762 -1.39416,5.26546 -0.54335,7.90446 1.29954,2.57161 6.5486,1.77203 8.91309,0.18554 11.72609,-4.77785 23.53182,-9.37955 35.34538,-13.93194 5.90449,-1.50507 11.80897,-3.01013 17.71345,-4.5152 1.01991,-1.28404 2.4421,-2.41371 3.21428,-3.79281 0.52653,-3.53789 -0.75272,-4.73342 -3.21428,-6.92148 -20.72167,6.30619 -40.82084,14.42378 -61.42857,21.07143 z"
         style="fill:#000000;fill-opacity:1;stroke:#000000;stroke-width:1px;stroke-linecap:butt;stroke-linejoin:miter;stroke-opacity:1"
         sodipodi:nodetypes="cccccccc" />
      <path
         id="path9737"
         d="m 157.85714,918.07647 c -3.29176,3.41517 -3.8582,8.40393 -3.00687,12.84475 3.1451,6.0306 9.21915,0.0372 13.36409,-1.4054 15.54452,-6.63963 30.81848,-14.05711 46.78564,-19.65364 -1.11437,-2.46241 -1.16144,-5.90283 -4.3268,-6.71949 -4.62477,-1.21196 -9.84292,-0.98548 -14.38144,0.46723 -11.47344,4.769 -23.0087,9.39552 -34.50605,14.10941 -1.30952,0.11905 -2.61905,0.23809 -3.92857,0.35714 z"
         style="fill:#000000;fill-opacity:1;stroke:#000000;stroke-width:1px;stroke-linecap:butt;stroke-linejoin:miter;stroke-opacity:1"
         sodipodi:nodetypes="cccccccc" />
      <path
         id="path9739"
         d="m 166.42857,957.00504 c 3.01059,1.76008 6.4673,0.24299 9.45564,-0.74357 11.11398,-3.74149 21.72867,-8.79703 32.71521,-12.88288 1.53829,-0.21975 3.07658,-0.43951 4.61487,-0.65926 0.35714,-1.19048 0.71428,-2.38095 1.07142,-3.57143 -3.21855,-3.66997 -6.50752,-4.13575 -11.07142,-4.64286 -12.44824,4.80614 -24.45613,10.56971 -36.42858,16.42857 -1.73027,2.17437 -1.09723,3.60448 -0.35714,6.07143 z"
         style="fill:#000000;fill-opacity:1;stroke:#000000;stroke-width:1px;stroke-linecap:butt;stroke-linejoin:miter;stroke-opacity:1"
         sodipodi:nodetypes="cccccccc" />
      <path
         id="path9741"
         d="m 157.85714,973.79075 c -2.14202,3.56153 -2.40476,8.28229 0.11552,11.73154 1.77486,4.12526 5.33417,6.95486 8.95089,9.39217 3.68102,7.57424 5.61791,16.12024 8.07645,24.23344 2.59214,3.4478 8.84126,5.6884 11.46011,1.1818 2.25765,-4.7931 -1.12079,-9.765 -2.1468,-14.44 -5.16475,-9.18936 -4.84004,-25.94548 -13.69263,-32.81668 -3.46148,-1.98013 -8.84847,0.106 -12.76354,0.71773 z"
         style="fill:#000000;fill-opacity:1;stroke:#000000;stroke-width:1px;stroke-linecap:butt;stroke-linejoin:miter;stroke-opacity:1"
         sodipodi:nodetypes="cccccccc" />
      <path
         id="path9743"
         d="m 176.07143,974.1479 c -0.80715,2.85871 0.27144,6.88576 3.47354,7.66782 9.32897,-3.68122 17.47112,-7.78301 25.81218,-11.95354 2.63559,0.61242 2.78859,3.72566 2.23074,5.86667 -0.62104,5.84909 -1.69784,11.90882 -1.15727,17.80271 0.35646,1.51497 0.71293,3.02994 1.06939,4.54491 2.02381,0.35714 4.04762,0.71429 6.07143,1.07143 6.2919,-8.5317 8.68103,-19.58954 10,-30 -2.14286,-2.38095 -4.28571,-4.76191 -6.42857,-7.14286 -4.59155,-1.69141 -10.17692,-2.42032 -14.45309,0.48137 -9.03951,2.87528 -17.12148,10.30493 -26.61835,11.66149 z"
         style="fill:#000000;fill-opacity:1;stroke:#000000;stroke-width:1px;stroke-linecap:butt;stroke-linejoin:miter;stroke-opacity:1"
         sodipodi:nodetypes="ccccccccccc" />
      <path
         id="path9745"
         d="m 181.42857,1004.1479 c -0.57486,2.1928 -1.82246,4.4131 -1.05246,6.7115 -0.15846,1.8438 1.24806,2.3846 2.78864,2.8695 2.08821,0.7363 4.31551,0.065 6.47811,0.062 4.7893,-3.3687 9.46145,-6.9333 14.32528,-10.1778 3.32013,-1.4884 6.6403,-2.9767 9.96043,-4.4651 -0.11905,-1.54762 -0.23809,-3.09524 -0.35714,-4.64286 -3.01006,-1.80317 -6.70139,-1.47092 -10.00848,-0.9703 -7.27025,3.24605 -14.42842,6.79096 -21.56959,10.32726 l -0.56479,0.2859 0,0 z"
         style="fill:#000000;fill-opacity:1;stroke:#000000;stroke-width:1px;stroke-linecap:butt;stroke-linejoin:miter;stroke-opacity:1" />
      <path
         id="path9747"
         d="m 240.35714,915.21933 c -0.85204,3.41732 -1.42236,7.08131 0.69849,10.17393 1.74617,3.66179 9.13061,5.32581 11.51498,1.44758 1.81553,-5.06829 -0.007,-11.15766 -4.62947,-14.07809 -2.67554,-2.6152 -5.44754,0.96045 -7.584,2.45658 z"
         style="fill:#000000;fill-opacity:1;stroke:#000000;stroke-width:1px;stroke-linecap:butt;stroke-linejoin:miter;stroke-opacity:1" />
      <path
         id="path9749"
         d="m 233.92857,949.1479 c -5.46273,3.01323 -4.73873,11.08986 0.65149,13.67465 5.92227,2.97278 11.44146,-1.99593 13.67424,-7.25465 1.22154,-5.15058 1.23126,-10.44582 3.31873,-15.40058 2.82746,-8.22705 -7.76686,2.35508 -10.5784,3.73304 -2.35777,1.7459 -4.7256,3.47838 -7.06606,5.24754 z"
         style="fill:#000000;fill-opacity:1;stroke:#000000;stroke-width:1px;stroke-linecap:butt;stroke-linejoin:miter;stroke-opacity:1"
         sodipodi:nodetypes="cccccc" />
      <path
         id="path9751"
         d="m 228.21429,892.36218 c -1.14534,7.23539 10.52022,13.75451 14.3177,6.74458 3.45632,-4.76607 7.63412,-8.92494 12.82515,-11.74458 5.29857,7.20379 7.3081,16.32682 6.79159,25.16143 0.22551,23.61741 -0.78581,47.21859 -1.49377,70.81984 -0.77302,7.47195 -10.20008,-1.85633 -12.85025,-0.26365 2.98996,5.48811 8.91487,9.92939 8.26069,16.89294 3.7391,8.12746 15.33121,4.40186 18.13236,-2.72079 1.85315,-9.43506 3.70168,-19.11898 4.80747,-28.73981 0.53656,-19.83411 2.0417,-39.6857 0.45311,-59.50828 -0.12341,-17.88863 1.04935,-22.51825 -19.10167,-28.21422 -4.19069,-1.76155 -8.19016,-1.05325 -11.80636,1.40453 -6.77868,3.38934 -13.55735,6.77867 -20.33602,10.16801 z"
         style="fill:#000000;fill-opacity:1;stroke:#000000;stroke-width:1px;stroke-linecap:butt;stroke-linejoin:miter;stroke-opacity:1"
         sodipodi:nodetypes="ccccccccccccc" />
      <path
         id="path9747-2"
         d="m 301.20619,910.38689 c -0.85204,3.41732 -1.42236,7.08131 0.69849,10.17393 1.74617,3.66179 9.13061,5.32581 11.51498,1.44758 1.81553,-5.06829 -0.007,-11.15766 -4.62947,-14.07809 -2.67554,-2.6152 -5.44754,0.96045 -7.584,2.45658 z"
         style="fill:#000000;fill-opacity:1;stroke:#000000;stroke-width:1px;stroke-linecap:butt;stroke-linejoin:miter;stroke-opacity:1" />
      <path
         id="path9749-6"
         d="m 294.77762,946.10118 c -5.46273,3.01323 -4.73873,11.08986 0.65149,13.67465 5.92227,2.97278 11.44146,-1.99593 13.67424,-7.25465 1.22154,-5.15058 1.23126,-10.44582 3.31873,-15.40058 2.47031,-7.51277 -7.76686,2.35508 -10.5784,3.73304 -2.35777,1.7459 -4.7256,3.47838 -7.06606,5.24754 z"
         style="fill:#000000;fill-opacity:1;stroke:#000000;stroke-width:1px;stroke-linecap:butt;stroke-linejoin:miter;stroke-opacity:1"
         sodipodi:nodetypes="cccccc" />
      <path
         sodipodi:nodetypes="cccccccccccccc"
         id="path9751-2"
         d="m 289.06334,883.60117 c -1.14534,7.23539 10.52022,13.75451 14.3177,6.74458 3.45632,-4.76607 7.63412,-8.92494 12.82515,-11.74458 5.29857,7.20379 7.3081,16.32682 6.79159,25.16143 0.22551,23.61741 -3.28581,65.79002 -3.99377,89.39127 -1.10499,8.06953 -9.43934,-1.99523 -12.42594,-0.0833 2.34943,5.98721 5.78005,12.38953 5.39924,18.15023 4.05198,6.7507 18.62566,-3.024 22.35521,-12.01562 1.85315,-9.43506 4.41597,-29.83327 5.52176,-39.4541 0.53656,-19.83411 2.0417,-39.6857 0.45311,-59.50828 -0.12341,-17.88863 1.04935,-22.51825 -19.10167,-28.21422 -4.19069,-1.76155 -8.19016,-1.05325 -11.80636,1.40453 -6.77868,3.38934 -13.55735,6.77867 -20.33602,10.16801 l 0,5e-5 z"
         style="fill:#000000;fill-opacity:1;stroke:#000000;stroke-width:1px;stroke-linecap:butt;stroke-linejoin:miter;stroke-opacity:1" />
    </g>
    <path
       style="fill:none;stroke:#000000;stroke-width:2.1704216;stroke-linecap:butt;stroke-linejoin:miter;stroke-miterlimit:4;stroke-opacity:1;stroke-dasharray:6.51126431, 6.51126431;stroke-dashoffset:0"
       d="m 52.6112,140.83146 0,838.92106 343.28532,0 0,-842.70986 -343.28532,3.7888 z"
       id="path2853-1"
       sodipodi:nodetypes="ccccc" />
    <path
       style="fill:none;stroke:#000000;stroke-width:1.56889415;stroke-linecap:butt;stroke-linejoin:miter;stroke-miterlimit:4;stroke-opacity:1;stroke-dasharray:4.70668247, 4.70668247;stroke-dashoffset:0"
       d="m 409.90443,301.03149 0,590.12838 254.99345,0 0,-592.79357 -254.99345,2.66519 z"
       id="path2853-1-7"
       sodipodi:nodetypes="ccccc" />
    <path
       style="fill:none;stroke:#000000;stroke-width:1.66782725;stroke-linecap:butt;stroke-linejoin:miter;stroke-miterlimit:4;stroke-opacity:1;stroke-dasharray:5.00348174, 5.00348174;stroke-dashoffset:0"
       d="m 698.85753,258.01637 0,672.48998 252.8742,0 0,-675.52714 -252.8742,3.03716 z"
       id="path2853-1-7-9"
       sodipodi:nodetypes="ccccc" />
  </g>
</svg>
