<?xml version="1.0" encoding="UTF-8" standalone="no"?>
<!-- Created with Inkscape (http://www.inkscape.org/) -->

<svg
   xmlns:dc="http://purl.org/dc/elements/1.1/"
   xmlns:cc="http://creativecommons.org/ns#"
   xmlns:rdf="http://www.w3.org/1999/02/22-rdf-syntax-ns#"
   xmlns:svg="http://www.w3.org/2000/svg"
   xmlns="http://www.w3.org/2000/svg"
   xmlns:sodipodi="http://sodipodi.sourceforge.net/DTD/sodipodi-0.dtd"
   xmlns:inkscape="http://www.inkscape.org/namespaces/inkscape"
   width="1000"
   height="1000"
   id="svg3173"
   version="1.1"
   inkscape:version="0.47 r22583"
   sodipodi:docname="89c1.svg"
   inkscape:export-filename="E:\chinese\yan\89c1.png"
   inkscape:export-xdpi="18.005705"
   inkscape:export-ydpi="18.005705">
  <title
     id="title3596">Jian</title>
  <defs
     id="defs3175">
    <inkscape:perspective
       sodipodi:type="inkscape:persp3d"
       inkscape:vp_x="0 : 526.18109 : 1"
       inkscape:vp_y="0 : 1000 : 0"
       inkscape:vp_z="744.09448 : 526.18109 : 1"
       inkscape:persp3d-origin="372.04724 : 350.78739 : 1"
       id="perspective3181" />
    <inkscape:perspective
       id="perspective3191"
       inkscape:persp3d-origin="0.5 : 0.33333333 : 1"
       inkscape:vp_z="1 : 0.5 : 1"
       inkscape:vp_y="0 : 1000 : 0"
       inkscape:vp_x="0 : 0.5 : 1"
       sodipodi:type="inkscape:persp3d" />
    <inkscape:perspective
       id="perspective4006"
       inkscape:persp3d-origin="0.5 : 0.33333333 : 1"
       inkscape:vp_z="1 : 0.5 : 1"
       inkscape:vp_y="0 : 1000 : 0"
       inkscape:vp_x="0 : 0.5 : 1"
       sodipodi:type="inkscape:persp3d" />
    <inkscape:perspective
       id="perspective4034"
       inkscape:persp3d-origin="0.5 : 0.33333333 : 1"
       inkscape:vp_z="1 : 0.5 : 1"
       inkscape:vp_y="0 : 1000 : 0"
       inkscape:vp_x="0 : 0.5 : 1"
       sodipodi:type="inkscape:persp3d" />
    <inkscape:perspective
       id="perspective4081"
       inkscape:persp3d-origin="0.5 : 0.33333333 : 1"
       inkscape:vp_z="1 : 0.5 : 1"
       inkscape:vp_y="0 : 1000 : 0"
       inkscape:vp_x="0 : 0.5 : 1"
       sodipodi:type="inkscape:persp3d" />
    <inkscape:perspective
       id="perspective4147"
       inkscape:persp3d-origin="0.5 : 0.33333333 : 1"
       inkscape:vp_z="1 : 0.5 : 1"
       inkscape:vp_y="0 : 1000 : 0"
       inkscape:vp_x="0 : 0.5 : 1"
       sodipodi:type="inkscape:persp3d" />
    <inkscape:perspective
       id="perspective3807"
       inkscape:persp3d-origin="0.5 : 0.33333333 : 1"
       inkscape:vp_z="1 : 0.5 : 1"
       inkscape:vp_y="0 : 1000 : 0"
       inkscape:vp_x="0 : 0.5 : 1"
       sodipodi:type="inkscape:persp3d" />
    <inkscape:perspective
       id="perspective3794"
       inkscape:persp3d-origin="0.5 : 0.33333333 : 1"
       inkscape:vp_z="1 : 0.5 : 1"
       inkscape:vp_y="0 : 1000 : 0"
       inkscape:vp_x="0 : 0.5 : 1"
       sodipodi:type="inkscape:persp3d" />
    <inkscape:perspective
       id="perspective3815"
       inkscape:persp3d-origin="0.5 : 0.33333333 : 1"
       inkscape:vp_z="1 : 0.5 : 1"
       inkscape:vp_y="0 : 1000 : 0"
       inkscape:vp_x="0 : 0.5 : 1"
       sodipodi:type="inkscape:persp3d" />
    <inkscape:perspective
       id="perspective3014"
       inkscape:persp3d-origin="0.5 : 0.33333333 : 1"
       inkscape:vp_z="1 : 0.5 : 1"
       inkscape:vp_y="0 : 1000 : 0"
       inkscape:vp_x="0 : 0.5 : 1"
       sodipodi:type="inkscape:persp3d" />
    <inkscape:perspective
       id="perspective3032"
       inkscape:persp3d-origin="0.5 : 0.33333333 : 1"
       inkscape:vp_z="1 : 0.5 : 1"
       inkscape:vp_y="0 : 1000 : 0"
       inkscape:vp_x="0 : 0.5 : 1"
       sodipodi:type="inkscape:persp3d" />
  </defs>
  <sodipodi:namedview
     id="base"
     pagecolor="#ffffff"
     bordercolor="#666666"
     borderopacity="1.0"
     inkscape:pageopacity="0.0"
     inkscape:pageshadow="2"
     inkscape:zoom="0.49497475"
     inkscape:cx="804.96305"
     inkscape:cy="481.58022"
     inkscape:document-units="px"
     inkscape:current-layer="g5975"
     showgrid="false"
     inkscape:window-width="1440"
     inkscape:window-height="840"
     inkscape:window-x="-4"
     inkscape:window-y="-4"
     inkscape:window-maximized="1" />
  <metadata
     id="metadata3178">
    <rdf:RDF>
      <cc:Work
         rdf:about="">
        <dc:format>image/svg+xml</dc:format>
        <dc:type
           rdf:resource="http://purl.org/dc/dcmitype/StillImage" />
        <dc:title>Jian</dc:title>
        <dc:date>2010-08-08</dc:date>
        <dc:creator>
          <cc:Agent>
            <dc:title>Alex Amies</dc:title>
          </cc:Agent>
        </dc:creator>
        <dc:rights>
          <cc:Agent>
            <dc:title>@ Alex Amies 2010</dc:title>
          </cc:Agent>
        </dc:rights>
        <dc:publisher>
          <cc:Agent>
            <dc:title>chinesenotes.com</dc:title>
          </cc:Agent>
        </dc:publisher>
        <dc:source>Yan Qin Ceremonial Inscription</dc:source>
        <dc:language>Chinese 中文</dc:language>
        <dc:description>Tracing from Tang Dynasty Ceremonial Inscription by Yan Zhenqing 颜真卿 (709－785)</dc:description>
        <cc:license
           rdf:resource="http://creativecommons.org/licenses/by/3.0/" />
      </cc:Work>
      <cc:License
         rdf:about="http://creativecommons.org/licenses/by/3.0/">
        <cc:permits
           rdf:resource="http://creativecommons.org/ns#Reproduction" />
        <cc:permits
           rdf:resource="http://creativecommons.org/ns#Distribution" />
        <cc:requires
           rdf:resource="http://creativecommons.org/ns#Notice" />
        <cc:requires
           rdf:resource="http://creativecommons.org/ns#Attribution" />
        <cc:permits
           rdf:resource="http://creativecommons.org/ns#DerivativeWorks" />
      </cc:License>
    </rdf:RDF>
  </metadata>
  <g
     inkscape:label="Layer 1"
     inkscape:groupmode="layer"
     id="layer1"
     transform="translate(0,-52.362183)">
    <g
       transform="matrix(4.762395,0,0,4.762395,-2523.1017,68.412668)"
       id="g5975"
       style="fill:none;fill-opacity:1">
      <g
         transform="matrix(1.2237544,0,0,1.2237544,-197.88371,-294.3658)"
         id="g6158"
         style="fill:#000000;fill-opacity:1">
        <path
           style="fill:#000000;stroke:#000000;stroke-width:1px;stroke-linecap:butt;stroke-linejoin:miter;stroke-opacity:1;fill-opacity:1"
           d="m 681,328.75 c 1.29349,-1.66855 1.94002,-2.65455 3.78125,-4.875 1.13623,-1.46258 0.40815,-10.76983 -0.88352,-15.41247 -0.69176,-2.48641 -1.88013,-2.69862 -3.8988,-1.98616 -3.5956,5.34189 -3.34825,9.65359 -4.47542,14.22538 -0.97141,3.94005 -3.27903,8.13635 -6.24231,12.61075 -11.83311,16.50784 -22.03058,32.67958 -33.3437,49.1875 -4.53394,4.65091 -8.88951,9.49507 -13.78125,13.78125 2.5886,2.93082 6.21063,-0.7035 9.28125,-0.96875 3.25648,-0.55166 4.86945,-3.641 7.15625,-5.6875 5.17469,-5.4779 9.28084,-11.85256 13.90625,-17.78125 4.92952,-6.39813 9.10527,-13.30359 12.8125,-20.46875 3.45812,-6.17177 7.90207,-11.74172 11.90625,-17.5625 1.21746,-1.7249 2.48776,-3.39395 3.78125,-5.0625 z m 12.01954,-61.531 c -0.3184,5.41753 -2.12733,73.17188 -2.98829,73.62475 -1.24661,0.65573 -5.70096,-2.12442 -6.8125,-0.28125 -7.64866,12.68311 -19.18446,31.65162 -4.53125,45.03125 2.97659,2.71788 7.21235,4.11865 11.1875,4.71875 10.6471,1.60731 39.89862,4.35066 47.34375,-6.3125 2.39497,-3.7182 3.88296,-8.91639 1.09375,-12.84375 -2.63327,-3.22763 -7.51975,-3.98938 -9.125,-8.21875 -2.52709,-2.35661 -3.21711,-6.95297 -6.25,-8.34375 -2.78586,1.41743 -1.15569,5.30048 -2.09375,7.8125 -0.54403,3.8461 -0.50643,7.73282 -0.625,11.59375 -1.03761,4.887 -6.587,3.86833 -10.25,3.6875 -10.4098,0.7404 -22.38795,1.65691 -28.1875,-6.03125 -2.47718,-3.28388 -0.57349,-9.51415 1.75,-13.4375 2.42672,-4.09768 6.53113,-7.17688 9,-11.25 2.46967,3.02912 7.0764,2.08638 8.5,-1.65625 1.4538,-2.97849 2.49007,-6.44662 2.28125,-9.84375 0.59185,-19.91816 1.07103,-39.83447 1.75,-59.75 1.32257,-5.99912 4.00047,-12.09604 2.6875,-18.3125 -0.47307,-3.81168 -3.73534,-6.07782 -6.5,-8.3125 -1.10681,-1.42571 -2.5344,-2.05153 -4.03125,-2.09375 -1.92452,-0.0543 -3.94625,0.86033 -5.46875,2.28125 -4.89267,2.92759 -10.57798,4.0987 -15.8125,6.28125 -3.62042,1.49392 -8.73813,1.32026 -10.90625,4.5625 l -3.40625,5.09375 c 0,0 -0.83196,-1.73069 -1.625,-2.15625 -1.68272,-0.90297 -5.71875,-0.34375 -5.71875,-0.34375 -1.47628,-0.0887 -1.81542,2.92098 -1.0625,4.34375 2.52938,3.59906 2.74754,7.72181 2.28125,11.9375 -0.40534,12.12538 0.45294,24.28868 0.0312,36.40625 0,0 -0.6328,9.50714 -1.25,14.09375 -0.19091,1.41873 0.64177,3.48015 2.03125,4.13186 1.04289,0.48916 2.71661,-0.70941 3.35934,-0.81051 2.03743,-0.32048 4.41953,-3.88524 4.57821,-4.57135 0.86679,-3.74783 0.54515,-7.70119 0.9375,-11.53125 0.14081,-2.40293 0.24952,-4.81319 0.375,-7.21875 l 0.28125,-5.53125 c -0.22868,-8.62511 1.39644,-16.75153 -0.3125,-24.75 -0.25496,-3.52992 -0.57275,-7.15544 -1.4375,-10.5625 2.45533,-0.48227 5.11548,-3.14493 7.5,-3.625 5.91715,-2.71941 11.54457,-6.29853 17.90625,-7.875 3.51328,0.72737 3.16413,4.13604 3.47239,9.7871"
           id="path5989"
           sodipodi:nodetypes="ccscsccccccccccsssscccccccsscccccccccscsscccsssscccccccs" />
      </g>
    </g>
  </g>
</svg>
