<?xml version="1.0" encoding="UTF-8" standalone="no"?>
<!-- Created with Inkscape (http://www.inkscape.org/) -->

<svg
   xmlns:dc="http://purl.org/dc/elements/1.1/"
   xmlns:cc="http://creativecommons.org/ns#"
   xmlns:rdf="http://www.w3.org/1999/02/22-rdf-syntax-ns#"
   xmlns:svg="http://www.w3.org/2000/svg"
   xmlns="http://www.w3.org/2000/svg"
   xmlns:sodipodi="http://sodipodi.sourceforge.net/DTD/sodipodi-0.dtd"
   xmlns:inkscape="http://www.inkscape.org/namespaces/inkscape"
   width="1000"
   height="1000"
   id="svg3173"
   version="1.1"
   inkscape:version="0.47 r22583"
   sodipodi:docname="961d.svg"
   inkscape:export-filename="E:\chinese\yan\961d.png"
   inkscape:export-xdpi="17.908815"
   inkscape:export-ydpi="17.908815">
  <title
     id="title2866">Left Ear Radical</title>
  <defs
     id="defs3175">
    <inkscape:perspective
       sodipodi:type="inkscape:persp3d"
       inkscape:vp_x="0 : 526.18109 : 1"
       inkscape:vp_y="0 : 1000 : 0"
       inkscape:vp_z="744.09448 : 526.18109 : 1"
       inkscape:persp3d-origin="372.04724 : 350.78739 : 1"
       id="perspective3181" />
    <inkscape:perspective
       id="perspective3191"
       inkscape:persp3d-origin="0.5 : 0.33333333 : 1"
       inkscape:vp_z="1 : 0.5 : 1"
       inkscape:vp_y="0 : 1000 : 0"
       inkscape:vp_x="0 : 0.5 : 1"
       sodipodi:type="inkscape:persp3d" />
    <inkscape:perspective
       id="perspective4006"
       inkscape:persp3d-origin="0.5 : 0.33333333 : 1"
       inkscape:vp_z="1 : 0.5 : 1"
       inkscape:vp_y="0 : 1000 : 0"
       inkscape:vp_x="0 : 0.5 : 1"
       sodipodi:type="inkscape:persp3d" />
    <inkscape:perspective
       id="perspective4034"
       inkscape:persp3d-origin="0.5 : 0.33333333 : 1"
       inkscape:vp_z="1 : 0.5 : 1"
       inkscape:vp_y="0 : 1000 : 0"
       inkscape:vp_x="0 : 0.5 : 1"
       sodipodi:type="inkscape:persp3d" />
    <inkscape:perspective
       id="perspective4081"
       inkscape:persp3d-origin="0.5 : 0.33333333 : 1"
       inkscape:vp_z="1 : 0.5 : 1"
       inkscape:vp_y="0 : 1000 : 0"
       inkscape:vp_x="0 : 0.5 : 1"
       sodipodi:type="inkscape:persp3d" />
    <inkscape:perspective
       id="perspective4147"
       inkscape:persp3d-origin="0.5 : 0.33333333 : 1"
       inkscape:vp_z="1 : 0.5 : 1"
       inkscape:vp_y="0 : 1000 : 0"
       inkscape:vp_x="0 : 0.5 : 1"
       sodipodi:type="inkscape:persp3d" />
    <inkscape:perspective
       id="perspective3737"
       inkscape:persp3d-origin="0.5 : 0.33333333 : 1"
       inkscape:vp_z="1 : 0.5 : 1"
       inkscape:vp_y="0 : 1000 : 0"
       inkscape:vp_x="0 : 0.5 : 1"
       sodipodi:type="inkscape:persp3d" />
  </defs>
  <sodipodi:namedview
     id="base"
     pagecolor="#ffffff"
     bordercolor="#666666"
     borderopacity="1.0"
     inkscape:pageopacity="0.0"
     inkscape:pageshadow="2"
     inkscape:zoom="0.49497475"
     inkscape:cx="348.4378"
     inkscape:cy="482.30746"
     inkscape:document-units="px"
     inkscape:current-layer="layer1"
     showgrid="false"
     inkscape:window-width="1440"
     inkscape:window-height="840"
     inkscape:window-x="-4"
     inkscape:window-y="-4"
     inkscape:window-maximized="1" />
  <metadata
     id="metadata3178">
    <rdf:RDF>
      <cc:Work
         rdf:about="">
        <dc:format>image/svg+xml</dc:format>
        <dc:type
           rdf:resource="http://purl.org/dc/dcmitype/StillImage" />
        <dc:title>Left Ear Radical</dc:title>
        <dc:date>2010-07-21</dc:date>
        <dc:creator>
          <cc:Agent>
            <dc:title>Alex Amies</dc:title>
          </cc:Agent>
        </dc:creator>
        <dc:rights>
          <cc:Agent>
            <dc:title>@ Alex Amies 2010</dc:title>
          </cc:Agent>
        </dc:rights>
        <dc:publisher>
          <cc:Agent>
            <dc:title>chinesenotes.com</dc:title>
          </cc:Agent>
        </dc:publisher>
        <dc:source>Yan Qin Ceremonial Inscription</dc:source>
        <dc:language>Chinese 中文</dc:language>
        <dc:description>Tracing from Tang Dynasty Ceremonial Inscription by Yan Zhenqing 颜真卿 (709－785)</dc:description>
        <cc:license
           rdf:resource="http://creativecommons.org/licenses/by/3.0/" />
      </cc:Work>
      <cc:License
         rdf:about="http://creativecommons.org/licenses/by/3.0/">
        <cc:permits
           rdf:resource="http://creativecommons.org/ns#Reproduction" />
        <cc:permits
           rdf:resource="http://creativecommons.org/ns#Distribution" />
        <cc:requires
           rdf:resource="http://creativecommons.org/ns#Notice" />
        <cc:requires
           rdf:resource="http://creativecommons.org/ns#Attribution" />
        <cc:permits
           rdf:resource="http://creativecommons.org/ns#DerivativeWorks" />
      </cc:License>
    </rdf:RDF>
  </metadata>
  <g
     inkscape:label="Layer 1"
     inkscape:groupmode="layer"
     id="layer1"
     transform="translate(0,-52.362183)">
    <path
       style="fill:#000000;stroke:#000000;stroke-width:4.76094626999999980px;stroke-linecap:butt;stroke-linejoin:miter;stroke-opacity:1;fill-opacity:1"
       d="M 330.875 87.75 C 323.65498 87.664361 316.56526 88.476751 309.78125 91.78125 C 258.31656 110.74182 206.96446 130.10766 154.78125 147.03125 C 161.19581 146.46848 160.77528 150.60552 158.84375 156.15625 C 152.95876 149.71331 147.05914 143.27029 141.15625 136.84375 C 112.2334 157.20608 126.94456 197.9127 119.28125 227.5625 C 109.66233 351.4198 102.25253 475.5896 101.125 599.8125 C 104.07917 679.29207 107.21808 758.80623 108.03125 838.34375 C 116.70246 857.69214 135.71521 891.15337 155.15625 889.71875 C 184.57276 880.02156 180.69654 849.80767 175.1875 825.5625 C 164.53793 749.25153 165.83019 672.12026 163.8125 595.28125 C 161.6477 471.77135 168.33126 348.39622 176.09375 225.1875 C 175.52004 214.91873 177.46534 203.5142 177.5 192.78125 C 184.53022 194.18476 191.80653 194.98721 197.28125 196.34375 C 238.65283 182.4235 264.56738 143.26973 301 119.8125 C 304.3697 127.03353 304.45047 135.30406 300.625 142.3125 C 284.88341 186.38901 269.14784 230.48599 253.40625 274.5625 C 255.73167 277.39654 258.02313 279.45231 260.3125 280.84375 C 258.32503 282.61209 256.13452 285.03823 253.40625 288.15625 C 255.87038 321.5311 266.09813 353.52883 278.375 384.46875 C 283.8946 392.98708 274.9071 388.57208 269.40625 387.1875 C 257.6828 384.26975 246.10474 380.23421 234.21875 378.3125 C 211.49904 375.4099 192.42343 385.9391 171.78125 393.59375 L 176.875 407.1875 C 202.46903 415.10352 228.43819 422.44214 253.09375 432.875 C 270.19588 455.65489 284.10423 484.50809 308.46875 500.6875 L 319.71875 500.6875 C 321.03715 491.16785 319.58108 481.02165 322.78125 471.90625 C 333.08803 447.4954 343.41197 423.09835 353.71875 398.6875 C 347.83365 388.09982 341.28524 377.84807 332.4375 369.46875 C 314.02916 342.39516 298.64145 313.17447 282.3125 284.75 C 280.03823 283.10485 278.08123 281.78447 276.3125 280.6875 C 282.25038 277.19405 287.73665 270.3445 292.46875 262.53125 C 310.05425 232.53234 327.6332 202.53011 345.21875 172.53125 C 359.79887 165.46615 376.74851 158.09631 383.34375 142.125 C 390.49365 118.31579 373.82005 104.2263 358.8125 89.21875 C 349.6261 89.47048 340.15788 87.860107 330.875 87.75 z "
       transform="translate(0,52.362183)"
       id="path3719" />
  </g>
</svg>
