<?xml version="1.0" encoding="UTF-8" standalone="no"?>
<!-- Created with Inkscape (http://www.inkscape.org/) -->

<svg
   xmlns:dc="http://purl.org/dc/elements/1.1/"
   xmlns:cc="http://creativecommons.org/ns#"
   xmlns:rdf="http://www.w3.org/1999/02/22-rdf-syntax-ns#"
   xmlns:svg="http://www.w3.org/2000/svg"
   xmlns="http://www.w3.org/2000/svg"
   xmlns:sodipodi="http://sodipodi.sourceforge.net/DTD/sodipodi-0.dtd"
   xmlns:inkscape="http://www.inkscape.org/namespaces/inkscape"
   width="1000"
   height="1000"
   id="svg3173"
   version="1.1"
   inkscape:version="0.47 r22583"
   sodipodi:docname="4e16.svg"
   inkscape:export-filename="E:\chinese\yan\4e16.png"
   inkscape:export-xdpi="18.005705"
   inkscape:export-ydpi="18.005705">
  <title
     id="title3631">Shi</title>
  <defs
     id="defs3175">
    <inkscape:perspective
       sodipodi:type="inkscape:persp3d"
       inkscape:vp_x="0 : 526.18109 : 1"
       inkscape:vp_y="0 : 1000 : 0"
       inkscape:vp_z="744.09448 : 526.18109 : 1"
       inkscape:persp3d-origin="372.04724 : 350.78739 : 1"
       id="perspective3181" />
    <inkscape:perspective
       id="perspective3191"
       inkscape:persp3d-origin="0.5 : 0.33333333 : 1"
       inkscape:vp_z="1 : 0.5 : 1"
       inkscape:vp_y="0 : 1000 : 0"
       inkscape:vp_x="0 : 0.5 : 1"
       sodipodi:type="inkscape:persp3d" />
    <inkscape:perspective
       id="perspective4006"
       inkscape:persp3d-origin="0.5 : 0.33333333 : 1"
       inkscape:vp_z="1 : 0.5 : 1"
       inkscape:vp_y="0 : 1000 : 0"
       inkscape:vp_x="0 : 0.5 : 1"
       sodipodi:type="inkscape:persp3d" />
    <inkscape:perspective
       id="perspective4034"
       inkscape:persp3d-origin="0.5 : 0.33333333 : 1"
       inkscape:vp_z="1 : 0.5 : 1"
       inkscape:vp_y="0 : 1000 : 0"
       inkscape:vp_x="0 : 0.5 : 1"
       sodipodi:type="inkscape:persp3d" />
    <inkscape:perspective
       id="perspective4081"
       inkscape:persp3d-origin="0.5 : 0.33333333 : 1"
       inkscape:vp_z="1 : 0.5 : 1"
       inkscape:vp_y="0 : 1000 : 0"
       inkscape:vp_x="0 : 0.5 : 1"
       sodipodi:type="inkscape:persp3d" />
    <inkscape:perspective
       id="perspective4147"
       inkscape:persp3d-origin="0.5 : 0.33333333 : 1"
       inkscape:vp_z="1 : 0.5 : 1"
       inkscape:vp_y="0 : 1000 : 0"
       inkscape:vp_x="0 : 0.5 : 1"
       sodipodi:type="inkscape:persp3d" />
    <inkscape:perspective
       id="perspective3858"
       inkscape:persp3d-origin="0.5 : 0.33333333 : 1"
       inkscape:vp_z="1 : 0.5 : 1"
       inkscape:vp_y="0 : 1000 : 0"
       inkscape:vp_x="0 : 0.5 : 1"
       sodipodi:type="inkscape:persp3d" />
    <inkscape:perspective
       id="perspective3876"
       inkscape:persp3d-origin="0.5 : 0.33333333 : 1"
       inkscape:vp_z="1 : 0.5 : 1"
       inkscape:vp_y="0 : 1000 : 0"
       inkscape:vp_x="0 : 0.5 : 1"
       sodipodi:type="inkscape:persp3d" />
    <inkscape:perspective
       id="perspective4372"
       inkscape:persp3d-origin="0.5 : 0.33333333 : 1"
       inkscape:vp_z="1 : 0.5 : 1"
       inkscape:vp_y="0 : 1000 : 0"
       inkscape:vp_x="0 : 0.5 : 1"
       sodipodi:type="inkscape:persp3d" />
    <inkscape:perspective
       id="perspective5340"
       inkscape:persp3d-origin="0.5 : 0.33333333 : 1"
       inkscape:vp_z="1 : 0.5 : 1"
       inkscape:vp_y="0 : 1000 : 0"
       inkscape:vp_x="0 : 0.5 : 1"
       sodipodi:type="inkscape:persp3d" />
    <inkscape:perspective
       id="perspective3750"
       inkscape:persp3d-origin="0.5 : 0.33333333 : 1"
       inkscape:vp_z="1 : 0.5 : 1"
       inkscape:vp_y="0 : 1000 : 0"
       inkscape:vp_x="0 : 0.5 : 1"
       sodipodi:type="inkscape:persp3d" />
  </defs>
  <sodipodi:namedview
     id="base"
     pagecolor="#ffffff"
     bordercolor="#666666"
     borderopacity="1.0"
     inkscape:pageopacity="0.0"
     inkscape:pageshadow="2"
     inkscape:zoom="0.49497475"
     inkscape:cx="165.11595"
     inkscape:cy="538.32632"
     inkscape:document-units="px"
     inkscape:current-layer="layer1"
     showgrid="false"
     inkscape:window-width="1440"
     inkscape:window-height="840"
     inkscape:window-x="-4"
     inkscape:window-y="-4"
     inkscape:window-maximized="1" />
  <metadata
     id="metadata3178">
    <rdf:RDF>
      <cc:Work
         rdf:about="">
        <dc:format>image/svg+xml</dc:format>
        <dc:type
           rdf:resource="http://purl.org/dc/dcmitype/StillImage" />
        <dc:title>Shi</dc:title>
        <dc:date>2010-08-09</dc:date>
        <dc:creator>
          <cc:Agent>
            <dc:title>Alex Amies</dc:title>
          </cc:Agent>
        </dc:creator>
        <dc:rights>
          <cc:Agent>
            <dc:title>@ Alex Amies 2010</dc:title>
          </cc:Agent>
        </dc:rights>
        <dc:publisher>
          <cc:Agent>
            <dc:title>chinesenotes.com</dc:title>
          </cc:Agent>
        </dc:publisher>
        <dc:source>Yan Qin Ceremonial Inscription</dc:source>
        <dc:language>Chinese 中文</dc:language>
        <dc:description>Tracing from Tang Dynasty Ceremonial Inscription by Yan Zhenqing 颜真卿 (709－785)</dc:description>
        <cc:license
           rdf:resource="http://creativecommons.org/licenses/by/3.0/" />
      </cc:Work>
      <cc:License
         rdf:about="http://creativecommons.org/licenses/by/3.0/">
        <cc:permits
           rdf:resource="http://creativecommons.org/ns#Reproduction" />
        <cc:permits
           rdf:resource="http://creativecommons.org/ns#Distribution" />
        <cc:requires
           rdf:resource="http://creativecommons.org/ns#Notice" />
        <cc:requires
           rdf:resource="http://creativecommons.org/ns#Attribution" />
        <cc:permits
           rdf:resource="http://creativecommons.org/ns#DerivativeWorks" />
      </cc:License>
    </rdf:RDF>
  </metadata>
  <g
     inkscape:label="Layer 1"
     inkscape:groupmode="layer"
     id="layer1"
     transform="translate(0,-52.362183)">
    <path
       style="fill:#000000;stroke:#000000;stroke-width:4.75137663000000020px;stroke-linecap:butt;stroke-linejoin:miter;stroke-opacity:1;fill-opacity:1"
       d="M 670.09375 129.96875 C 647.60317 130.19199 630.41841 140.99275 620.53125 166.5 C 618.816 236.86584 619.29864 309.05448 618.65625 380 C 618.42742 391.0265 618.01667 402.06564 617.5 413.09375 C 586.27043 415.53622 555.06999 418.23689 523.875 421.125 C 527.85911 361.86409 532.22588 302.60894 533.71875 243.21875 C 533.81755 223.85664 533.98797 199.61106 523.875 185.75 C 514.806 173.32007 493.57565 166.67765 476.59375 162.96875 C 463.12883 160.02797 445.93939 151.68903 435.625 156.90625 C 424.12296 162.72419 418.30793 181.71392 418.65625 198.6875 C 419.4112 235.47522 433.77229 270.12103 434.90625 307 C 436.1608 347.80117 438.27028 388.59232 440.53125 429.375 C 404.30147 433.21717 368.12024 437.37082 331.96875 441.875 C 332.56426 431.40966 333.33773 420.95132 334.28125 410.46875 C 337.10998 385.28948 348.60598 356.94403 340.1875 334.46875 C 334.78537 320.04642 315.71534 311.69349 301.53125 303.875 C 275.71716 295.2308 242.55754 285.30801 215.03125 290.96875 C 209.19561 294.48996 200.2074 305.42598 203.15625 311.34375 C 211.08373 327.25258 234.98318 342.66642 239.21875 363.09375 C 245.30868 392.46439 249.13166 422.32739 251.96875 452.40625 C 210.61032 458.15509 169.30507 464.3606 128.09375 471.0625 C 110.65216 471.1281 100.55492 483.51705 87.75 492.90625 C 65.608157 516.013 85.475478 554.87794 111.90625 564.28125 C 142.32214 568.9623 163.04972 540.3434 181.96875 520.75 C 205.92972 512.25382 230.60634 505.14958 255.75 499.0625 C 258.89312 543.64882 261.23148 588.44101 266.78125 632.625 C 271.0582 666.67583 279.56185 700.55214 280.90625 734.6875 C 281.47423 749.10888 272.28432 766.16809 277.8125 777.96875 C 277.9032 778.16237 277.99506 778.37076 278.09375 778.5625 C 266.09055 790.10956 254.70023 804.70689 259.71875 824 C 264.93728 844.06211 277.46051 858.04237 298.4375 857.90625 C 376.45387 826.95241 464.7501 822.67239 549.125 816.5625 C 581.93392 815.28457 615.53315 809.66447 647.75 815.46875 C 677.22274 820.77865 705.82303 837.39875 734.28125 840.78125 C 750.29909 842.68508 770.31918 836.63384 781.65625 821.625 C 786.65974 815.00106 796.13487 811.08123 798.78125 803.4375 C 806.95637 779.82478 789.84041 751.71519 765.59375 741.03125 C 747.1643 732.91053 728.44155 730.72292 708.75 732.96875 C 618.04945 743.31321 526.05268 731.93141 435.1875 738.40625 C 404.61697 743.34404 371.78841 746.82101 340.34375 753.59375 C 340.4443 749.41727 340.43356 745.27802 340.53125 741.34375 C 336.20611 655.27466 328.8102 569.76784 330.4375 483.875 C 367.59009 477.56112 405.23981 472.69799 442.71875 468.28125 C 444.38881 497.90602 446.01267 527.52754 447.375 557.15625 C 448.11679 573.28879 443.31057 590.61803 449.65625 605.90625 C 444.68544 613.41482 442.26649 623.27658 440.9375 632.5 C 442.72654 639.96702 443.76413 653.63439 450.90625 654.09375 C 506.8501 654.11755 560.18274 632.7932 616.1875 641.375 C 626.77846 643.18988 639.55183 643.79359 647.75 638.84375 C 663.17226 627.07734 671.80391 607.80605 664.71875 589.625 C 664.47542 589.34691 664.19439 589.08746 663.9375 588.8125 C 672.17253 577.64667 675.79208 562.4812 677.625 549.03125 C 680.69038 515.33984 682.43872 481.36403 684.4375 447.4375 C 728.76014 444.86328 773.11286 442.53895 817.46875 440.75 C 849.16338 445.00207 890.32961 470.70728 917.25 448.6875 C 941.83809 430.3042 929.93529 390.66896 905.46875 378.9375 C 876.18725 355.26295 842.60052 371.48534 812.125 383.4375 C 770.9201 393.29745 729.17217 402.10932 687.03125 407.34375 C 690.30795 362.34486 695.16109 317.6412 705.4375 274 C 710.25393 257.64952 725.9488 245.40458 733.25 229.71875 C 739.29518 216.73141 747.99198 202.5322 747.875 189.15625 C 745.94827 158.11366 721.82854 141.23592 694.28125 133.125 C 685.68487 131.00117 677.59061 129.89434 670.09375 129.96875 z M 615.40625 451.625 C 613.83763 479.30243 612.31919 506.96416 612.25 534.59375 C 613.30544 545.23529 614.8033 558.71428 618.53125 570.5625 C 584.61895 570.91264 551.20443 582.85229 517.46875 587.25 C 516.90685 587.31156 516.34364 587.37695 515.78125 587.4375 C 516.31061 584.69986 516.58933 581.97672 516.5 579.3125 C 516.96112 539.24921 518.93582 499.22676 521.40625 459.25 C 531.42823 458.08351 541.43502 456.9137 551.34375 455.6875 C 572.70321 454.3255 594.03999 452.96122 615.40625 451.625 z "
       transform="translate(0,52.362183)"
       id="path4457" />
  </g>
</svg>
