<?xml version="1.0" encoding="UTF-8" standalone="no"?>
<!-- Created with Inkscape (http://www.inkscape.org/) -->

<svg
   xmlns:dc="http://purl.org/dc/elements/1.1/"
   xmlns:cc="http://creativecommons.org/ns#"
   xmlns:rdf="http://www.w3.org/1999/02/22-rdf-syntax-ns#"
   xmlns:svg="http://www.w3.org/2000/svg"
   xmlns="http://www.w3.org/2000/svg"
   xmlns:sodipodi="http://sodipodi.sourceforge.net/DTD/sodipodi-0.dtd"
   xmlns:inkscape="http://www.inkscape.org/namespaces/inkscape"
   width="1000"
   height="1000"
   id="svg3173"
   version="1.1"
   inkscape:version="0.47 r22583"
   sodipodi:docname="4e1e.svg"
   inkscape:export-filename="E:\chinese\yan\4e1e.png"
   inkscape:export-xdpi="18.005705"
   inkscape:export-ydpi="18.005705">
  <title
     id="title5824">Cheng</title>
  <defs
     id="defs3175">
    <inkscape:perspective
       sodipodi:type="inkscape:persp3d"
       inkscape:vp_x="0 : 526.18109 : 1"
       inkscape:vp_y="0 : 1000 : 0"
       inkscape:vp_z="744.09448 : 526.18109 : 1"
       inkscape:persp3d-origin="372.04724 : 350.78739 : 1"
       id="perspective3181" />
    <inkscape:perspective
       id="perspective3191"
       inkscape:persp3d-origin="0.5 : 0.33333333 : 1"
       inkscape:vp_z="1 : 0.5 : 1"
       inkscape:vp_y="0 : 1000 : 0"
       inkscape:vp_x="0 : 0.5 : 1"
       sodipodi:type="inkscape:persp3d" />
    <inkscape:perspective
       id="perspective4006"
       inkscape:persp3d-origin="0.5 : 0.33333333 : 1"
       inkscape:vp_z="1 : 0.5 : 1"
       inkscape:vp_y="0 : 1000 : 0"
       inkscape:vp_x="0 : 0.5 : 1"
       sodipodi:type="inkscape:persp3d" />
    <inkscape:perspective
       id="perspective4034"
       inkscape:persp3d-origin="0.5 : 0.33333333 : 1"
       inkscape:vp_z="1 : 0.5 : 1"
       inkscape:vp_y="0 : 1000 : 0"
       inkscape:vp_x="0 : 0.5 : 1"
       sodipodi:type="inkscape:persp3d" />
    <inkscape:perspective
       id="perspective4081"
       inkscape:persp3d-origin="0.5 : 0.33333333 : 1"
       inkscape:vp_z="1 : 0.5 : 1"
       inkscape:vp_y="0 : 1000 : 0"
       inkscape:vp_x="0 : 0.5 : 1"
       sodipodi:type="inkscape:persp3d" />
    <inkscape:perspective
       id="perspective4147"
       inkscape:persp3d-origin="0.5 : 0.33333333 : 1"
       inkscape:vp_z="1 : 0.5 : 1"
       inkscape:vp_y="0 : 1000 : 0"
       inkscape:vp_x="0 : 0.5 : 1"
       sodipodi:type="inkscape:persp3d" />
    <inkscape:perspective
       id="perspective3801"
       inkscape:persp3d-origin="0.5 : 0.33333333 : 1"
       inkscape:vp_z="1 : 0.5 : 1"
       inkscape:vp_y="0 : 1000 : 0"
       inkscape:vp_x="0 : 0.5 : 1"
       sodipodi:type="inkscape:persp3d" />
    <inkscape:perspective
       id="perspective3122"
       inkscape:persp3d-origin="0.5 : 0.33333333 : 1"
       inkscape:vp_z="1 : 0.5 : 1"
       inkscape:vp_y="0 : 1000 : 0"
       inkscape:vp_x="0 : 0.5 : 1"
       sodipodi:type="inkscape:persp3d" />
    <inkscape:perspective
       id="perspective3854"
       inkscape:persp3d-origin="0.5 : 0.33333333 : 1"
       inkscape:vp_z="1 : 0.5 : 1"
       inkscape:vp_y="0 : 1000 : 0"
       inkscape:vp_x="0 : 0.5 : 1"
       sodipodi:type="inkscape:persp3d" />
    <inkscape:perspective
       id="perspective3922"
       inkscape:persp3d-origin="0.5 : 0.33333333 : 1"
       inkscape:vp_z="1 : 0.5 : 1"
       inkscape:vp_y="0 : 1000 : 0"
       inkscape:vp_x="0 : 0.5 : 1"
       sodipodi:type="inkscape:persp3d" />
    <inkscape:perspective
       id="perspective3945"
       inkscape:persp3d-origin="0.5 : 0.33333333 : 1"
       inkscape:vp_z="1 : 0.5 : 1"
       inkscape:vp_y="0 : 1000 : 0"
       inkscape:vp_x="0 : 0.5 : 1"
       sodipodi:type="inkscape:persp3d" />
    <inkscape:perspective
       id="perspective3972"
       inkscape:persp3d-origin="0.5 : 0.33333333 : 1"
       inkscape:vp_z="1 : 0.5 : 1"
       inkscape:vp_y="0 : 1000 : 0"
       inkscape:vp_x="0 : 0.5 : 1"
       sodipodi:type="inkscape:persp3d" />
    <inkscape:perspective
       id="perspective3995"
       inkscape:persp3d-origin="0.5 : 0.33333333 : 1"
       inkscape:vp_z="1 : 0.5 : 1"
       inkscape:vp_y="0 : 1000 : 0"
       inkscape:vp_x="0 : 0.5 : 1"
       sodipodi:type="inkscape:persp3d" />
    <inkscape:perspective
       id="perspective3802"
       inkscape:persp3d-origin="0.5 : 0.33333333 : 1"
       inkscape:vp_z="1 : 0.5 : 1"
       inkscape:vp_y="0 : 1000 : 0"
       inkscape:vp_x="0 : 0.5 : 1"
       sodipodi:type="inkscape:persp3d" />
    <inkscape:perspective
       id="perspective3833"
       inkscape:persp3d-origin="0.5 : 0.33333333 : 1"
       inkscape:vp_z="1 : 0.5 : 1"
       inkscape:vp_y="0 : 1000 : 0"
       inkscape:vp_x="0 : 0.5 : 1"
       sodipodi:type="inkscape:persp3d" />
    <inkscape:perspective
       id="perspective3913"
       inkscape:persp3d-origin="0.5 : 0.33333333 : 1"
       inkscape:vp_z="1 : 0.5 : 1"
       inkscape:vp_y="0 : 1000 : 0"
       inkscape:vp_x="0 : 0.5 : 1"
       sodipodi:type="inkscape:persp3d" />
    <inkscape:perspective
       id="perspective4500"
       inkscape:persp3d-origin="0.5 : 0.33333333 : 1"
       inkscape:vp_z="1 : 0.5 : 1"
       inkscape:vp_y="0 : 1000 : 0"
       inkscape:vp_x="0 : 0.5 : 1"
       sodipodi:type="inkscape:persp3d" />
    <inkscape:perspective
       id="perspective5117"
       inkscape:persp3d-origin="0.5 : 0.33333333 : 1"
       inkscape:vp_z="1 : 0.5 : 1"
       inkscape:vp_y="0 : 1000 : 0"
       inkscape:vp_x="0 : 0.5 : 1"
       sodipodi:type="inkscape:persp3d" />
    <inkscape:perspective
       id="perspective5212"
       inkscape:persp3d-origin="0.5 : 0.33333333 : 1"
       inkscape:vp_z="1 : 0.5 : 1"
       inkscape:vp_y="0 : 1000 : 0"
       inkscape:vp_x="0 : 0.5 : 1"
       sodipodi:type="inkscape:persp3d" />
    <inkscape:perspective
       id="perspective5834"
       inkscape:persp3d-origin="0.5 : 0.33333333 : 1"
       inkscape:vp_z="1 : 0.5 : 1"
       inkscape:vp_y="0 : 1000 : 0"
       inkscape:vp_x="0 : 0.5 : 1"
       sodipodi:type="inkscape:persp3d" />
  </defs>
  <sodipodi:namedview
     id="base"
     pagecolor="#ffffff"
     bordercolor="#666666"
     borderopacity="1.0"
     inkscape:pageopacity="0.0"
     inkscape:pageshadow="2"
     inkscape:zoom="0.49497475"
     inkscape:cx="483.07102"
     inkscape:cy="534.97897"
     inkscape:document-units="px"
     inkscape:current-layer="g4634"
     showgrid="false"
     inkscape:window-width="1440"
     inkscape:window-height="840"
     inkscape:window-x="-4"
     inkscape:window-y="-4"
     inkscape:window-maximized="1" />
  <metadata
     id="metadata3178">
    <rdf:RDF>
      <cc:Work
         rdf:about="">
        <dc:format>image/svg+xml</dc:format>
        <dc:type
           rdf:resource="http://purl.org/dc/dcmitype/StillImage" />
        <dc:title>Cheng</dc:title>
        <dc:date>2010-08-21</dc:date>
        <dc:creator>
          <cc:Agent>
            <dc:title>Alex Amies</dc:title>
          </cc:Agent>
        </dc:creator>
        <dc:rights>
          <cc:Agent>
            <dc:title>@ Alex Amies 2010</dc:title>
          </cc:Agent>
        </dc:rights>
        <dc:publisher>
          <cc:Agent>
            <dc:title>chinesenotes.com</dc:title>
          </cc:Agent>
        </dc:publisher>
        <dc:source>Yan Qin Ceremonial Inscription</dc:source>
        <dc:language>Chinese 中文</dc:language>
        <dc:description>Tracing from Tang Dynasty Ceremonial Inscription by Yan Zhenqing 颜真卿 (709－785)</dc:description>
        <cc:license
           rdf:resource="http://creativecommons.org/licenses/by/3.0/" />
      </cc:Work>
      <cc:License
         rdf:about="http://creativecommons.org/licenses/by/3.0/">
        <cc:permits
           rdf:resource="http://creativecommons.org/ns#Reproduction" />
        <cc:permits
           rdf:resource="http://creativecommons.org/ns#Distribution" />
        <cc:requires
           rdf:resource="http://creativecommons.org/ns#Notice" />
        <cc:requires
           rdf:resource="http://creativecommons.org/ns#Attribution" />
        <cc:permits
           rdf:resource="http://creativecommons.org/ns#DerivativeWorks" />
      </cc:License>
    </rdf:RDF>
  </metadata>
  <g
     inkscape:label="Layer 1"
     inkscape:groupmode="layer"
     id="layer1"
     transform="translate(0,-52.362183)">
    <g
       transform="matrix(4.7609464,0,0,4.7609464,-444.07486,-2879.5352)"
       id="g4634"
       style="fill:#000000;fill-opacity:1">
      <path
         style="fill:none;stroke:#000000;stroke-width:0.9939698px;stroke-linecap:butt;stroke-linejoin:miter;stroke-opacity:1"
         d="m 145.38515,645.0819 0,0 z"
         id="path4783" />
      <path
         style="fill:#000000;stroke:#000000;stroke-width:4.73223686000000040px;stroke-linecap:butt;stroke-linejoin:miter;stroke-opacity:1;fill-opacity:1"
         d="M 592.21875 49.1875 C 590.88974 49.178439 589.41496 49.293816 587.8125 49.5625 C 572.6935 58.998934 562.7218 77.968572 550.125 91.8125 C 536.79949 106.71126 511.29122 105.69826 492.34375 111.25 C 429.06825 115.46796 370.19825 139.95309 308.90625 152.15625 C 290.97443 155.53914 270.76355 157.42845 255.59375 145.25 C 242.72715 133.9508 244.3633 146.20653 239.65625 154.5 C 241.55277 179.89575 233.88929 205.22746 237.96875 230.5625 C 252.96116 240.09215 269.69379 250.23705 288.1875 247.21875 C 305.21464 247.5025 297.75921 221.29321 314.71875 216.96875 C 378.77557 175.90554 456.638 154.88298 532.03125 149.4375 C 528.33209 180.3548 501.05113 204.48322 484.3125 229.65625 C 474.47529 241.88379 454.99965 256.76464 460.125 273.3125 C 476.70133 272.57174 487.46072 254.67681 501.15625 245.96875 C 540.86973 229.0414 574.76945 192.99828 616.90625 183.09375 C 632.71121 175.78694 661.13476 194.11263 668.8125 177.125 C 668.44829 154.92295 670.86471 132.76303 670.625 110.5625 C 659.85288 85.39171 627.00571 111.14071 614.5625 89.28125 C 602.9801 79.045007 612.15392 49.323413 592.21875 49.1875 z M 392.5 241.6875 C 389.45908 241.70609 386.40519 241.94173 383.3125 242.40625 C 363.71311 253.83833 379.50845 271.81028 384.6875 287.0625 C 417.51484 366.93966 411.70817 457.14338 407.53125 541.78125 C 388.61506 626.71011 400.43085 715.38325 375.6875 798.8125 C 371.81633 804.17331 369.14765 810.54789 368.09375 816.6875 C 284.53169 828.34635 200.4628 838.59435 117.96875 847.4375 C 101.35214 861.25653 126.69086 892.43697 141.375 902.8125 C 161.23148 912.98859 174.99235 952.91181 199.96875 940.78125 C 316.81432 882.20171 554.91247 843.80221 682.46875 866.21875 C 706.07766 873.43582 727.82591 885.56375 746.4375 901.53125 C 767.37248 897.02616 780.89994 875.89061 799.1875 864.90625 C 820.44793 855.98405 801.78108 831.38107 796.34375 816.125 C 725.7194 778.04628 634.30426 780.75634 556.53125 787.71875 C 527.48989 792.62443 498.17007 797.35386 468.6875 801.90625 C 476.51229 779.128 481.89578 755.65122 484.5625 731.65625 C 496.88783 649.26517 513.5884 567.13518 516.5 483.6875 C 516.14469 470.65682 515.7152 457.49018 514.96875 444.34375 C 515.57697 444.64055 516.17862 444.9264 516.8125 445.21875 C 521.58457 446.29547 525.89506 445.12485 530.09375 443.09375 C 531.17637 457.13654 537.85729 470.86875 542.5 484.53125 C 574.61544 569.12317 645.86473 625.94843 708.21875 687.8125 C 715.32756 701.22309 719.95439 719.55734 733.65625 726.96875 C 775.80296 717.24199 817.80324 705.00664 861.125 701.4375 C 882.7626 698.0408 905.83771 698.73394 925.8125 689.15625 C 934.2149 667.89244 905.08331 667.32268 892.3125 659.78125 C 813.06998 635.75156 741.21564 605.21249 671.59375 561.09375 C 634.47846 526.64326 602.57077 486.75986 579.3125 441.6875 C 574.77623 435.06938 570.3889 430.21378 565.6875 426.84375 C 625.54535 406.34489 696.7199 396.83737 746.65625 357.3125 C 759.61131 338.23215 756.40223 314.5005 743.28125 296.46875 C 736.26085 288.60586 723.08199 281.3091 712.875 281.28125 C 657.43373 353.86364 600.54329 375.51777 509.0625 388.625 C 502.6373 351.08147 490.29196 315.25219 465.53125 284.46875 C 448.53515 261.29862 421.89552 241.50775 392.5 241.6875 z M 329.34375 355.625 C 321.23908 355.75093 308.5718 359.14125 305.5625 365.78125 C 299.65417 378.81786 292.56496 395.74272 278.46875 402.625 C 239.32239 421.73772 198.77731 438.53732 157.25 452.15625 C 147.51753 455.34804 133.4168 457.20857 129.78125 465.5 C 123.935 478.83317 126.41674 501.65878 135.4375 514.34375 C 147.56301 531.39479 173.70117 517.23111 189.3125 506.3125 C 214.9541 484.16601 255.56459 467.60305 275.09375 439.8125 C 280.90634 426.08822 285.8676 437.31451 280.4375 447.0625 C 269.29541 467.06447 267.19598 492.69018 254.28125 511.84375 C 218.395 572.74897 157.77871 614.07237 121.84375 674.53125 C 112.38308 691.32258 98.26553 707.554 95.8125 726.40625 C 93.089953 747.32932 118.62991 732.6092 127.875 724.78125 C 186.75029 687.76599 230.91642 636.35266 273 581.8125 C 314.41933 519.60955 359.50935 445.1275 346.125 367.46875 C 344.13954 361.88825 336.50041 355.85805 330.90625 355.625 C 330.41084 355.60435 329.88406 355.6166 329.34375 355.625 z "
         transform="matrix(0.21004227,0,0,0.21004227,93.274493,615.82239)"
         id="path4785" />
    </g>
  </g>
</svg>
