<?xml version="1.0" encoding="UTF-8" standalone="no"?>
<!-- Created with Inkscape (http://www.inkscape.org/) -->

<svg
   xmlns:dc="http://purl.org/dc/elements/1.1/"
   xmlns:cc="http://creativecommons.org/ns#"
   xmlns:rdf="http://www.w3.org/1999/02/22-rdf-syntax-ns#"
   xmlns:svg="http://www.w3.org/2000/svg"
   xmlns="http://www.w3.org/2000/svg"
   xmlns:sodipodi="http://sodipodi.sourceforge.net/DTD/sodipodi-0.dtd"
   xmlns:inkscape="http://www.inkscape.org/namespaces/inkscape"
   width="1000"
   height="1000"
   id="svg3173"
   version="1.1"
   inkscape:version="0.47 r22583"
   sodipodi:docname="4e26.svg"
   inkscape:export-filename="E:\chinese\yan\4e26.png"
   inkscape:export-xdpi="17.944885"
   inkscape:export-ydpi="17.944885">
  <title
     id="title2864">Bing</title>
  <defs
     id="defs3175">
    <inkscape:perspective
       sodipodi:type="inkscape:persp3d"
       inkscape:vp_x="0 : 526.18109 : 1"
       inkscape:vp_y="0 : 1000 : 0"
       inkscape:vp_z="744.09448 : 526.18109 : 1"
       inkscape:persp3d-origin="372.04724 : 350.78739 : 1"
       id="perspective3181" />
    <inkscape:perspective
       id="perspective3191"
       inkscape:persp3d-origin="0.5 : 0.33333333 : 1"
       inkscape:vp_z="1 : 0.5 : 1"
       inkscape:vp_y="0 : 1000 : 0"
       inkscape:vp_x="0 : 0.5 : 1"
       sodipodi:type="inkscape:persp3d" />
    <inkscape:perspective
       id="perspective4006"
       inkscape:persp3d-origin="0.5 : 0.33333333 : 1"
       inkscape:vp_z="1 : 0.5 : 1"
       inkscape:vp_y="0 : 1000 : 0"
       inkscape:vp_x="0 : 0.5 : 1"
       sodipodi:type="inkscape:persp3d" />
    <inkscape:perspective
       id="perspective4034"
       inkscape:persp3d-origin="0.5 : 0.33333333 : 1"
       inkscape:vp_z="1 : 0.5 : 1"
       inkscape:vp_y="0 : 1000 : 0"
       inkscape:vp_x="0 : 0.5 : 1"
       sodipodi:type="inkscape:persp3d" />
    <inkscape:perspective
       id="perspective4081"
       inkscape:persp3d-origin="0.5 : 0.33333333 : 1"
       inkscape:vp_z="1 : 0.5 : 1"
       inkscape:vp_y="0 : 1000 : 0"
       inkscape:vp_x="0 : 0.5 : 1"
       sodipodi:type="inkscape:persp3d" />
    <inkscape:perspective
       id="perspective4147"
       inkscape:persp3d-origin="0.5 : 0.33333333 : 1"
       inkscape:vp_z="1 : 0.5 : 1"
       inkscape:vp_y="0 : 1000 : 0"
       inkscape:vp_x="0 : 0.5 : 1"
       sodipodi:type="inkscape:persp3d" />
    <inkscape:perspective
       id="perspective3005"
       inkscape:persp3d-origin="0.5 : 0.33333333 : 1"
       inkscape:vp_z="1 : 0.5 : 1"
       inkscape:vp_y="0 : 1000 : 0"
       inkscape:vp_x="0 : 0.5 : 1"
       sodipodi:type="inkscape:persp3d" />
    <inkscape:perspective
       id="perspective3899"
       inkscape:persp3d-origin="0.5 : 0.33333333 : 1"
       inkscape:vp_z="1 : 0.5 : 1"
       inkscape:vp_y="0 : 1000 : 0"
       inkscape:vp_x="0 : 0.5 : 1"
       sodipodi:type="inkscape:persp3d" />
  </defs>
  <sodipodi:namedview
     id="base"
     pagecolor="#ffffff"
     bordercolor="#666666"
     borderopacity="1.0"
     inkscape:pageopacity="0.0"
     inkscape:pageshadow="2"
     inkscape:zoom="0.59437531"
     inkscape:cx="500.02548"
     inkscape:cy="500.02551"
     inkscape:document-units="px"
     inkscape:current-layer="layer1"
     showgrid="false"
     inkscape:window-width="1440"
     inkscape:window-height="840"
     inkscape:window-x="-4"
     inkscape:window-y="-4"
     inkscape:window-maximized="1" />
  <metadata
     id="metadata3178">
    <rdf:RDF>
      <cc:Work
         rdf:about="">
        <dc:format>image/svg+xml</dc:format>
        <dc:type
           rdf:resource="http://purl.org/dc/dcmitype/StillImage" />
        <dc:title>Bing</dc:title>
        <dc:date>2010-07-16</dc:date>
        <dc:creator>
          <cc:Agent>
            <dc:title>Alex Amies</dc:title>
          </cc:Agent>
        </dc:creator>
        <dc:rights>
          <cc:Agent>
            <dc:title>@ Alex Amies 2010</dc:title>
          </cc:Agent>
        </dc:rights>
        <dc:publisher>
          <cc:Agent>
            <dc:title>chinesenotes.com</dc:title>
          </cc:Agent>
        </dc:publisher>
        <dc:source>Yan Qin Ceremonial Inscription</dc:source>
        <dc:language>Chinese 中文</dc:language>
        <dc:description>Tracing from Tang Dynasty Ceremonial Inscription by Yan Zhenqing 颜真卿 (709－785)</dc:description>
        <cc:license
           rdf:resource="http://creativecommons.org/licenses/by/3.0/" />
      </cc:Work>
      <cc:License
         rdf:about="http://creativecommons.org/licenses/by/3.0/">
        <cc:permits
           rdf:resource="http://creativecommons.org/ns#Reproduction" />
        <cc:permits
           rdf:resource="http://creativecommons.org/ns#Distribution" />
        <cc:requires
           rdf:resource="http://creativecommons.org/ns#Notice" />
        <cc:requires
           rdf:resource="http://creativecommons.org/ns#Attribution" />
        <cc:permits
           rdf:resource="http://creativecommons.org/ns#DerivativeWorks" />
      </cc:License>
    </rdf:RDF>
  </metadata>
  <g
     inkscape:label="Layer 1"
     inkscape:groupmode="layer"
     id="layer1"
     transform="translate(0,-52.362183)">
    <g
       transform="matrix(4.7513766,0,0,4.7513766,-711.5509,-1979.6147)"
       id="g4746"
       style="fill:#000000;fill-opacity:1">
      <path
         id="path4662"
         d="m 208.57143,462.71933 c -2.08328,2.33939 -5.11422,5.94622 -3.57143,9.28571 1.89055,2.67931 5.51375,4.42474 8.75156,5.7674 3.04705,1.65324 1.65327,5.9114 4.10558,8.16117 3.47382,-0.51049 10.65546,1.99975 13.57143,1.78574 1.38405,-0.3554 3.59924,-1.13711 3.92857,-2.5 0.92199,-3.8155 -0.16086,-8.76738 0.98622,-12.99287 -2.23441,-5.77975 -8.21268,-8.68453 -13.84332,-10.22142 -2.67751,-0.54175 -11.60844,-0.67903 -13.92861,0.71427 z"
         style="fill:#000000;fill-opacity:1;stroke:#000000;stroke-width:1px;stroke-linecap:butt;stroke-linejoin:miter;stroke-opacity:1"
         sodipodi:nodetypes="cccccsccc" />
      <path
         id="path4664"
         d="m 279.84604,462.49238 c -0.38123,2.26404 -0.44857,4.54659 -0.36244,6.82949 0.73178,8.26324 4.07883,14.93514 13.0164,15.18317 2.29983,-0.0583 5.01265,-1.05695 6.78571,-2.5 3.90234,-4.31216 6.19719,-13.4644 4.64286,-18.92857 -4.43328,-7.06779 -8.91927,-9.90576 -17.14286,-10.35714 -4.92716,0.23698 -6.15338,5.79582 -6.93967,9.77305 z"
         style="fill:#000000;fill-opacity:1;stroke:#000000;stroke-width:1px;stroke-linecap:butt;stroke-linejoin:miter;stroke-opacity:1"
         sodipodi:nodetypes="ccccccc" />
      <path
         id="path4666"
         d="m 190.05105,520.93593 c 1.46215,2.69089 4.19023,3.61541 6.98913,2.89634 17.33529,-4.68838 36.24127,-5.41701 51.90287,-14.96214 2.81265,-1.94048 7.4381,-5.04909 6.56381,-7.89778 -0.89872,-2.92828 -2.87726,-7.03323 -5.87416,-8.72926 -2.23207,-1.2632 -3.91293,-0.58802 -5.57505,1.14502 -13.03933,13.65556 -29.64038,10.82524 -46.20047,13.61689 -6.41819,1.64408 -10.06754,7.57299 -7.80613,13.93093 z"
         style="fill:#000000;fill-opacity:1;stroke:#000000;stroke-width:1px;stroke-linecap:butt;stroke-linejoin:miter;stroke-opacity:1"
         sodipodi:nodetypes="cccssccc" />
      <path
         id="path4668"
         d="m 269.64286,501.29076 c -2.9204,1.65089 -2.86286,5.92428 -1.17756,8.7994 5.14655,5.43495 19.85365,2.77403 26.08967,1.1936 7.49507,-2.55977 14.87519,-5.45323 22.13355,-8.61579 2.49379,-1.08658 5.38446,-1.04077 7.98462,-1.52938 1.9284,-0.36238 0.85798,-4.62713 -1.48204,-4.48705 -7.04674,0.42185 -14.26497,0.0895 -21.36231,0.83561 -10.03614,2.82195 -20.9624,0.36899 -32.18593,3.80361 z"
         style="fill:#000000;fill-opacity:1;stroke:#000000;stroke-width:1px;stroke-linecap:butt;stroke-linejoin:miter;stroke-opacity:1"
         sodipodi:nodetypes="cccssscc" />
      <path
         id="path4670"
         d="m 233.21428,520.21933 c -3.73004,17.71858 -10.72463,35.62861 -14.71392,54.21645 0.22296,0.6549 0.24753,2.76483 0.64812,2.30119 6.99495,-8.09578 15.15046,-15.36799 21.62421,-23.79325 1.9349,-2.51818 1.73275,-6.78874 3.87017,-8.79582 2.02149,-1.89823 6.82234,2.82842 8.41395,0.54865 4.47791,-7.70436 5.57091,-16.59864 -0.96778,-23.50407 -4.63016,-3.66356 -14.81438,-7.37035 -18.87475,-0.97315 z"
         style="fill:#000000;fill-opacity:1;stroke:#000000;stroke-width:1px;stroke-linecap:butt;stroke-linejoin:miter;stroke-opacity:1"
         sodipodi:nodetypes="ccsssccc" />
      <path
         id="path4672"
         d="m 194.28571,540.21933 c -0.65472,-0.40313 -2.31149,-0.30336 -2.5,0.35714 -1.52656,5.1928 2.9983,8.99772 3.31579,13.90839 -0.3545,4.53898 0.38111,9.92318 5.96986,10.37733 2.90968,-0.41976 5.90064,-2.00072 8.18188,-4.17836 2.43291,-2.33793 5.2929,-7.56532 5.74669,-10.82164 -0.0865,-3.89563 -1.38975,-8.15421 -3.29099,-11.78387 -0.54689,-1.04408 -2.2479,-2.17684 -3.26801,-1.28097 -2.4468,4.02115 -3.82127,8.62267 -7.36891,11.94389 -2.57941,0.45557 -3.59273,-6.08851 -6.78631,-8.52191 z"
         style="fill:#000000;fill-opacity:1;stroke:#000000;stroke-width:1px;stroke-linecap:butt;stroke-linejoin:miter;stroke-opacity:1"
         sodipodi:nodetypes="ccccccsccc" />
      <path
         id="path4674"
         d="m 267.14286,528.43361 c -1.99269,0.25547 -4.81116,2.0361 -5.35715,3.92858 -1.42127,6.89547 0.14458,14.51812 4.64286,20 3.1198,2.84372 8.20233,4.16013 11.78571,1.42857 2.64595,-2.8444 3.72184,-7.62805 4.04678,-11.90633 0.35646,-4.69328 2.59456,-9.28465 4.28541,-13.46328 0.64591,-1.59625 -2.69045,-2.10388 -4.08117,-1.28978 -2.18,1.27614 -4.39263,3.2452 -6.75102,3.4451 -2.74943,0.23305 -5.92125,-2.48263 -8.57142,-2.14286 z"
         style="fill:#000000;fill-opacity:1;stroke:#000000;stroke-width:1px;stroke-linecap:butt;stroke-linejoin:miter;stroke-opacity:1"
         sodipodi:nodetypes="ccccsssss" />
      <path
         id="path4676"
         d="m 310.35714,513.07647 c -2.08899,3.01946 -0.90184,8.60147 -2.46453,12.523 -5.30448,13.3114 -12.54191,26.10693 -20.67047,38.08482 -1.01466,1.49516 -2.94789,4.23196 0.36325,3.48407 2.84616,-0.64287 4.78984,-3.13879 7.33405,-4.56068 11.95069,-11.12837 29.77072,-17.99578 41.02373,-31.25538 0.40657,-2.67727 -0.39932,-5.32378 -1.90018,-7.61986 -2.88829,-5.7503 -4.65843,-10.31066 -11.18589,-12.44168 -2.4361,-0.003 -10.99023,0.60639 -12.49996,1.78571 z"
         style="fill:#000000;fill-opacity:1;stroke:#000000;stroke-width:1px;stroke-linecap:butt;stroke-linejoin:miter;stroke-opacity:1"
         sodipodi:nodetypes="csssccccc" />
      <path
         id="path4678"
         d="m 183.92857,588.79076 c -1.40839,0.51211 -3.9425,1.65722 -3.57143,2.85714 1.24214,4.01662 4.04782,9.71203 7.38931,13.38425 2.6975,2.96448 6.51564,5.10107 10.11069,6.97289 6.67153,-0.64865 13.06838,-8.75432 18.97872,-12.70013 7.9363,-5.61565 16.84468,-9.87359 24.24128,-16.26735 2.93144,-2.53399 2.48259,-7.6696 0.70857,-9.2468 -1.7042,-1.51512 -6.01128,-0.61652 -8.95766,0.51612 -15.67674,6.60865 -32.85841,9.30798 -48.89948,14.48388 z"
         style="fill:#000000;fill-opacity:1;stroke:#000000;stroke-width:1px;stroke-linecap:butt;stroke-linejoin:miter;stroke-opacity:1"
         sodipodi:nodetypes="cssccsscc" />
      <path
         id="path4680"
         d="m 259.28571,581.29076 c -2.42338,0.57942 -5.68705,1.3546 -6.78571,3.21428 -1.35689,2.29679 0.005,7.62587 3.41825,8.74037 24.83631,1.04265 51.19838,2.422 76.02406,0.80849 3.16997,-0.69172 6.293,-3.20279 7.25902,-6.60287 0.78122,-4.1635 -3.04839,-11.2779 -6.70133,-13.30317 -5.69928,-1.93013 -12.37795,-2.30216 -18.72159,-1.99367 -18.19943,0.77642 -36.68452,5.27283 -54.4927,9.13657 z"
         style="fill:#000000;fill-opacity:1;stroke:#000000;stroke-width:1px;stroke-linecap:butt;stroke-linejoin:miter;stroke-opacity:1"
         sodipodi:nodetypes="cscccccc" />
    </g>
  </g>
</svg>
