<?xml version="1.0" encoding="UTF-8" standalone="no"?>
<!-- Created with Inkscape (http://www.inkscape.org/) -->

<svg
   xmlns:dc="http://purl.org/dc/elements/1.1/"
   xmlns:cc="http://creativecommons.org/ns#"
   xmlns:rdf="http://www.w3.org/1999/02/22-rdf-syntax-ns#"
   xmlns:svg="http://www.w3.org/2000/svg"
   xmlns="http://www.w3.org/2000/svg"
   xmlns:sodipodi="http://sodipodi.sourceforge.net/DTD/sodipodi-0.dtd"
   xmlns:inkscape="http://www.inkscape.org/namespaces/inkscape"
   width="1000"
   height="1000"
   id="svg3173"
   version="1.1"
   inkscape:version="0.47 r22583"
   sodipodi:docname="4e8e.svg"
   inkscape:export-filename="E:\chinese\yan\4e8e.png"
   inkscape:export-xdpi="18.005705"
   inkscape:export-ydpi="18.005705">
  <title
     id="title2824">Yu</title>
  <defs
     id="defs3175">
    <inkscape:perspective
       sodipodi:type="inkscape:persp3d"
       inkscape:vp_x="0 : 526.18109 : 1"
       inkscape:vp_y="0 : 1000 : 0"
       inkscape:vp_z="744.09448 : 526.18109 : 1"
       inkscape:persp3d-origin="372.04724 : 350.78739 : 1"
       id="perspective3181" />
    <inkscape:perspective
       id="perspective3191"
       inkscape:persp3d-origin="0.5 : 0.33333333 : 1"
       inkscape:vp_z="1 : 0.5 : 1"
       inkscape:vp_y="0 : 1000 : 0"
       inkscape:vp_x="0 : 0.5 : 1"
       sodipodi:type="inkscape:persp3d" />
    <inkscape:perspective
       id="perspective4006"
       inkscape:persp3d-origin="0.5 : 0.33333333 : 1"
       inkscape:vp_z="1 : 0.5 : 1"
       inkscape:vp_y="0 : 1000 : 0"
       inkscape:vp_x="0 : 0.5 : 1"
       sodipodi:type="inkscape:persp3d" />
    <inkscape:perspective
       id="perspective4034"
       inkscape:persp3d-origin="0.5 : 0.33333333 : 1"
       inkscape:vp_z="1 : 0.5 : 1"
       inkscape:vp_y="0 : 1000 : 0"
       inkscape:vp_x="0 : 0.5 : 1"
       sodipodi:type="inkscape:persp3d" />
    <inkscape:perspective
       id="perspective4081"
       inkscape:persp3d-origin="0.5 : 0.33333333 : 1"
       inkscape:vp_z="1 : 0.5 : 1"
       inkscape:vp_y="0 : 1000 : 0"
       inkscape:vp_x="0 : 0.5 : 1"
       sodipodi:type="inkscape:persp3d" />
    <inkscape:perspective
       id="perspective4147"
       inkscape:persp3d-origin="0.5 : 0.33333333 : 1"
       inkscape:vp_z="1 : 0.5 : 1"
       inkscape:vp_y="0 : 1000 : 0"
       inkscape:vp_x="0 : 0.5 : 1"
       sodipodi:type="inkscape:persp3d" />
    <inkscape:perspective
       id="perspective3797"
       inkscape:persp3d-origin="0.5 : 0.33333333 : 1"
       inkscape:vp_z="1 : 0.5 : 1"
       inkscape:vp_y="0 : 1000 : 0"
       inkscape:vp_x="0 : 0.5 : 1"
       sodipodi:type="inkscape:persp3d" />
    <inkscape:perspective
       id="perspective3780"
       inkscape:persp3d-origin="0.5 : 0.33333333 : 1"
       inkscape:vp_z="1 : 0.5 : 1"
       inkscape:vp_y="0 : 1000 : 0"
       inkscape:vp_x="0 : 0.5 : 1"
       sodipodi:type="inkscape:persp3d" />
    <inkscape:perspective
       id="perspective3777"
       inkscape:persp3d-origin="0.5 : 0.33333333 : 1"
       inkscape:vp_z="1 : 0.5 : 1"
       inkscape:vp_y="0 : 1000 : 0"
       inkscape:vp_x="0 : 0.5 : 1"
       sodipodi:type="inkscape:persp3d" />
  </defs>
  <sodipodi:namedview
     id="base"
     pagecolor="#ffffff"
     bordercolor="#666666"
     borderopacity="1.0"
     inkscape:pageopacity="0.0"
     inkscape:pageshadow="2"
     inkscape:zoom="0.49497475"
     inkscape:cx="-33.146666"
     inkscape:cy="531.77521"
     inkscape:document-units="px"
     inkscape:current-layer="layer1"
     showgrid="false"
     inkscape:window-width="1440"
     inkscape:window-height="840"
     inkscape:window-x="-4"
     inkscape:window-y="-4"
     inkscape:window-maximized="1" />
  <metadata
     id="metadata3178">
    <rdf:RDF>
      <cc:Work
         rdf:about="">
        <dc:format>image/svg+xml</dc:format>
        <dc:type
           rdf:resource="http://purl.org/dc/dcmitype/StillImage" />
        <dc:title>Yu</dc:title>
        <dc:date>2010-07-17</dc:date>
        <dc:creator>
          <cc:Agent>
            <dc:title>Alex Amies</dc:title>
          </cc:Agent>
        </dc:creator>
        <dc:rights>
          <cc:Agent>
            <dc:title>@ Alex Amies 2010</dc:title>
          </cc:Agent>
        </dc:rights>
        <dc:publisher>
          <cc:Agent>
            <dc:title>chinesenotes.com</dc:title>
          </cc:Agent>
        </dc:publisher>
        <dc:source>Yan Qin Ceremonial Inscription</dc:source>
        <dc:language>Chinese 中文</dc:language>
        <dc:description>Tracing from Tang Dynasty Ceremonial Inscription by Yan Zhenqing 颜真卿 (709－785)</dc:description>
        <cc:license
           rdf:resource="http://creativecommons.org/licenses/by/3.0/" />
      </cc:Work>
      <cc:License
         rdf:about="http://creativecommons.org/licenses/by/3.0/">
        <cc:permits
           rdf:resource="http://creativecommons.org/ns#Reproduction" />
        <cc:permits
           rdf:resource="http://creativecommons.org/ns#Distribution" />
        <cc:requires
           rdf:resource="http://creativecommons.org/ns#Notice" />
        <cc:requires
           rdf:resource="http://creativecommons.org/ns#Attribution" />
        <cc:permits
           rdf:resource="http://creativecommons.org/ns#DerivativeWorks" />
      </cc:License>
    </rdf:RDF>
  </metadata>
  <g
     inkscape:label="Layer 1"
     inkscape:groupmode="layer"
     id="layer1"
     transform="translate(0,-52.362183)">
    <path
       style="fill:#000000;stroke:#000000;stroke-width:4.76094626999999980px;stroke-linecap:butt;stroke-linejoin:miter;stroke-opacity:1;fill-opacity:1"
       d="m 662.09375,35.0625 c -4.32724,0.05662 -8.62171,0.948681 -12.6875,2.75 -83.68473,22.094929 -166.64702,46.91859 -250.09375,69.8125 -15.66961,2.45155 -37.60688,0.39082 -46.25,11.4375 -4.83507,6.17966 -2.29349,19.49747 1.6875,27.21875 7.56226,14.66727 24.62629,24.49754 42.46875,25.4375 32.05741,-10.0462 63.92377,-20.09311 95.625,-30.25 -4.81367,18.43193 13.46432,47.09833 11.875,65.96875 4.01108,35.38287 9.03517,70.72942 13.34375,106.125 -40.48162,7.53127 -80.97876,15.01533 -121,24.6875 -65.87964,15.03498 -131.78271,30.15207 -197.03125,47.75 -22.91567,19.80339 -21.50545,60.17799 7.5,73.375 25.44811,9.47766 55.09917,2.46133 79.28125,-7.90625 58.54845,-31.20133 119.3581,-58.05542 180.46875,-83.84375 18.41624,-4.59993 36.84526,-9.25629 55.28125,-13.84375 1.74458,17.68112 3.1427,35.38571 3.96875,53.125 0.82321,81.92269 -0.051,163.94054 -6.4375,245.625 -3.093,64.347 -21.29846,126.77485 -36.125,189.0625 -7.12033,37.05316 -43.30163,34.34515 -69.625,21.9375 -32.26783,2.18666 14.42746,33.2439 15.84375,48.53125 13.7488,31.89315 38.00077,78.0981 77.59375,45.125 39.64678,-28.91339 60.93674,-75.5941 80.96875,-118.96875 16.86537,-40.0777 24.72501,-82.95347 28.03125,-126.15625 13.62521,-104.56014 10.73024,-210.69255 2.90625,-315.625 -1.62672,-21.45898 -3.89427,-42.87846 -6.375,-64.25 30.00587,-6.65694 60.14745,-12.715 90.46875,-17.71875 27.84339,-2.88137 51.67394,18.43758 80,14.40625 25.42745,-0.81888 61.66859,-18.64077 49.8125,-49.5625 -11.99025,-25.00539 -40.46885,-36.06257 -67.0625,-32.5 -32.08035,-4.40497 -52.86708,29.66095 -84.90625,30.125 -24.0253,7.20211 -48.28916,13.25352 -72.71875,18.65625 -5.12996,-41.74905 -10.30099,-83.50376 -12.6875,-125.53125 -20.25642,-20.38001 -42.54479,-32.31566 -68.25,-39.90625 34.90548,-11.35709 69.56477,-22.93835 103.9375,-34.90625 15.02707,7.25235 30.32927,16.48866 47.75,13.625 37.49907,-1.65005 25.1347,-42.997937 8.5,-63.5 -6.98019,-6.609506 -16.54258,-10.437066 -26.0625,-10.3125 z"
       transform="translate(0,52.362183)"
       id="path5165"
       sodipodi:nodetypes="cccsscccccccccccccccccccccccccccccccc" />
  </g>
</svg>
