<?xml version="1.0" encoding="UTF-8" standalone="no"?>
<!-- Created with Inkscape (http://www.inkscape.org/) -->

<svg
   xmlns:dc="http://purl.org/dc/elements/1.1/"
   xmlns:cc="http://creativecommons.org/ns#"
   xmlns:rdf="http://www.w3.org/1999/02/22-rdf-syntax-ns#"
   xmlns:svg="http://www.w3.org/2000/svg"
   xmlns="http://www.w3.org/2000/svg"
   xmlns:sodipodi="http://sodipodi.sourceforge.net/DTD/sodipodi-0.dtd"
   xmlns:inkscape="http://www.inkscape.org/namespaces/inkscape"
   width="1000"
   height="1000"
   id="svg3173"
   version="1.1"
   inkscape:version="0.47 r22583"
   sodipodi:docname="4e94.svg"
   inkscape:export-filename="E:\chinese\images\yan_wu_long_horizontal.png"
   inkscape:export-xdpi="18.005705"
   inkscape:export-ydpi="18.005705">
  <title
     id="title3708">Wu</title>
  <defs
     id="defs3175">
    <inkscape:perspective
       sodipodi:type="inkscape:persp3d"
       inkscape:vp_x="0 : 526.18109 : 1"
       inkscape:vp_y="0 : 1000 : 0"
       inkscape:vp_z="744.09448 : 526.18109 : 1"
       inkscape:persp3d-origin="372.04724 : 350.78739 : 1"
       id="perspective3181" />
    <inkscape:perspective
       id="perspective3191"
       inkscape:persp3d-origin="0.5 : 0.33333333 : 1"
       inkscape:vp_z="1 : 0.5 : 1"
       inkscape:vp_y="0 : 1000 : 0"
       inkscape:vp_x="0 : 0.5 : 1"
       sodipodi:type="inkscape:persp3d" />
    <inkscape:perspective
       id="perspective4006"
       inkscape:persp3d-origin="0.5 : 0.33333333 : 1"
       inkscape:vp_z="1 : 0.5 : 1"
       inkscape:vp_y="0 : 1000 : 0"
       inkscape:vp_x="0 : 0.5 : 1"
       sodipodi:type="inkscape:persp3d" />
    <inkscape:perspective
       id="perspective4034"
       inkscape:persp3d-origin="0.5 : 0.33333333 : 1"
       inkscape:vp_z="1 : 0.5 : 1"
       inkscape:vp_y="0 : 1000 : 0"
       inkscape:vp_x="0 : 0.5 : 1"
       sodipodi:type="inkscape:persp3d" />
    <inkscape:perspective
       id="perspective4081"
       inkscape:persp3d-origin="0.5 : 0.33333333 : 1"
       inkscape:vp_z="1 : 0.5 : 1"
       inkscape:vp_y="0 : 1000 : 0"
       inkscape:vp_x="0 : 0.5 : 1"
       sodipodi:type="inkscape:persp3d" />
    <inkscape:perspective
       id="perspective4147"
       inkscape:persp3d-origin="0.5 : 0.33333333 : 1"
       inkscape:vp_z="1 : 0.5 : 1"
       inkscape:vp_y="0 : 1000 : 0"
       inkscape:vp_x="0 : 0.5 : 1"
       sodipodi:type="inkscape:persp3d" />
    <inkscape:perspective
       id="perspective3858"
       inkscape:persp3d-origin="0.5 : 0.33333333 : 1"
       inkscape:vp_z="1 : 0.5 : 1"
       inkscape:vp_y="0 : 1000 : 0"
       inkscape:vp_x="0 : 0.5 : 1"
       sodipodi:type="inkscape:persp3d" />
    <inkscape:perspective
       id="perspective3876"
       inkscape:persp3d-origin="0.5 : 0.33333333 : 1"
       inkscape:vp_z="1 : 0.5 : 1"
       inkscape:vp_y="0 : 1000 : 0"
       inkscape:vp_x="0 : 0.5 : 1"
       sodipodi:type="inkscape:persp3d" />
    <inkscape:perspective
       id="perspective3901"
       inkscape:persp3d-origin="0.5 : 0.33333333 : 1"
       inkscape:vp_z="1 : 0.5 : 1"
       inkscape:vp_y="0 : 1000 : 0"
       inkscape:vp_x="0 : 0.5 : 1"
       sodipodi:type="inkscape:persp3d" />
  </defs>
  <sodipodi:namedview
     id="base"
     pagecolor="#ffffff"
     bordercolor="#666666"
     borderopacity="1.0"
     inkscape:pageopacity="0.0"
     inkscape:pageshadow="2"
     inkscape:zoom="0.35"
     inkscape:cx="39.285711"
     inkscape:cy="534.28571"
     inkscape:document-units="px"
     inkscape:current-layer="layer1"
     showgrid="false"
     inkscape:window-width="1440"
     inkscape:window-height="840"
     inkscape:window-x="-4"
     inkscape:window-y="-4"
     inkscape:window-maximized="1" />
  <metadata
     id="metadata3178">
    <rdf:RDF>
      <cc:Work
         rdf:about="">
        <dc:format>image/svg+xml</dc:format>
        <dc:type
           rdf:resource="http://purl.org/dc/dcmitype/StillImage" />
        <dc:title>Wu</dc:title>
        <dc:date>2010-07-13</dc:date>
        <dc:creator>
          <cc:Agent>
            <dc:title>Alex Amies</dc:title>
          </cc:Agent>
        </dc:creator>
        <dc:rights>
          <cc:Agent>
            <dc:title>@ Alex Amies 2010</dc:title>
          </cc:Agent>
        </dc:rights>
        <dc:publisher>
          <cc:Agent>
            <dc:title>chinesenotes.com</dc:title>
          </cc:Agent>
        </dc:publisher>
        <dc:source>Yan Qin Ceremonial Inscription</dc:source>
        <dc:language>Chinese 中文</dc:language>
        <dc:description>Tracing from Tang Dynasty Ceremonial Inscription by Yan Zhenqing 颜真卿 (709－785)</dc:description>
        <cc:license
           rdf:resource="http://creativecommons.org/licenses/by/3.0/" />
      </cc:Work>
      <cc:License
         rdf:about="http://creativecommons.org/licenses/by/3.0/">
        <cc:permits
           rdf:resource="http://creativecommons.org/ns#Reproduction" />
        <cc:permits
           rdf:resource="http://creativecommons.org/ns#Distribution" />
        <cc:requires
           rdf:resource="http://creativecommons.org/ns#Notice" />
        <cc:requires
           rdf:resource="http://creativecommons.org/ns#Attribution" />
        <cc:permits
           rdf:resource="http://creativecommons.org/ns#DerivativeWorks" />
      </cc:License>
    </rdf:RDF>
  </metadata>
  <g
     inkscape:label="Layer 1"
     inkscape:groupmode="layer"
     id="layer1"
     transform="translate(0,-52.362183)">
    <path
       style="fill:#000000;stroke:#000000;stroke-width:4.73532724000000020px;stroke-linecap:butt;stroke-linejoin:miter;stroke-opacity:1;fill-opacity:1"
       d="M 670.9375 171.71875 C 667.54646 171.66995 664.10726 172.47607 660.59375 174.5 C 648.84483 182.95374 637.99737 193.35639 623.21875 196.21875 C 577.56995 210.1355 529.48522 212.00155 482.75 220.53125 C 459.82912 223.49978 436.511 227.25697 413.40625 224.84375 C 397.10611 217.40905 380.51932 226.52659 367.8125 236.5625 C 365.8381 237.99531 363.85996 239.42552 361.875 240.84375 C 343.68614 248.13644 335.9499 268.74935 345.34375 286.03125 C 349.10815 299.48195 362.65056 307.56355 376.25 305.65625 C 420.665 304.95845 460.81834 283.37025 504.15625 276.5 C 561.46583 264.70055 619.07725 251.51569 677.78125 249.90625 C 692.79617 247.16961 708.23214 270.30657 719.5625 252.1875 C 734.00401 231.80769 729.15499 198.75759 705.5625 187.375 C 694.43903 182.89398 683.04835 171.89303 670.9375 171.71875 z M 497.09375 287.53125 C 476.13516 287.88384 465.75687 312.25554 467.96875 331.71875 C 471.78391 360.19748 457.77292 386.96359 447.5 412.65625 C 438.06233 432.72697 429.7057 453.2979 421.59375 473.96875 C 400.5957 474.3666 379.59473 474.27059 358.625 473.65625 C 346.87131 472.28329 334.62135 468.61068 322.96875 472.5625 C 292.21678 485.01366 271.81191 520.70482 278.09375 553.5 C 286.51113 573.50083 314.0121 576.9411 331.09375 566.0625 C 350.67126 558.01056 371.25658 552.95722 391.9375 548.28125 C 383.54527 567.8478 374.45363 587.08099 363.90625 605.65625 C 347.45961 631.18246 330.83719 652.83771 316.09375 684.0625 C 315.66021 690.66053 317.70701 696.28829 321.28125 700.6875 C 261.4306 702.06023 201.70397 707.08077 143.125 720.09375 C 121.0205 726.87128 97.499564 718.25203 76.0625 726.21875 C 46.851734 744.87987 62.332751 790.29018 70.4375 817.59375 C 100.96246 859.64511 162.1742 855.37561 203.78125 833.84375 C 239.49017 810.32588 276.93669 789.25928 319.59375 780.75 C 401.76982 761.15104 485.39479 747.99261 568.75 734.46875 C 655.08795 723.49572 744.16545 719.48691 829.6875 738.375 C 862.6369 751.63065 896.34881 766.90102 932.9375 763.34375 C 967.44539 767.46699 980.40229 724.08937 965.25 698.5625 C 948.43552 669.7539 932.50423 630.56326 896.28125 623.0625 C 866.38897 628.74196 844.3437 659.35198 811.5625 655.21875 C 776.26437 650.95946 740.75182 647.82061 705.375 653.78125 C 676.69254 657.17702 648.15073 661.7658 619.65625 666.75 C 643.53857 649.13973 666.05361 629.50731 682.8125 604.75 C 700.24807 580.82935 717.26142 555.99928 741.5 538.3125 C 762.80651 524.64364 770.26465 497.74291 754.59375 477 C 736.30132 456.95664 720.1163 437.15219 694.21875 417.375 C 670.00745 413.79789 681.29527 452.10838 656.875 454.53125 C 608.24901 461.26674 556.90029 463.6429 507.21875 469.78125 C 507.06292 469.79336 506.90584 469.80044 506.75 469.8125 C 521.1471 445.52066 535.21746 421.03122 548.96875 396.375 C 560.5559 381.22409 567.63667 361.32958 560.34375 342.65625 C 552.4984 318.22627 534.38768 293.40964 507.84375 288.40625 L 503.9375 288.21875 C 501.54469 287.70904 499.26188 287.49477 497.09375 287.53125 z M 652.09375 482.375 C 665.59237 497.43491 640.92623 517.25261 630.65625 532.25 C 607.94108 563.69684 596.24987 592.14037 574.125 624.125 C 561.75493 639.58477 534.83194 660.45364 542 680.6875 C 484.67041 690.79906 427.19906 699.50541 368.8125 700.21875 C 373.07656 693.52161 374.98582 684.57827 377.8125 677.40625 C 403.79965 631.96676 434.55384 589.46284 461.15625 544.375 C 464.11918 539.6777 467.0622 534.96301 470 530.25 C 508.37414 521.20367 546.52283 510.99652 582.375 494.3125 C 604.79915 487.82127 628.33605 484.72439 652.09375 482.375 z "
       transform="translate(0,52.362183)"
       id="path10912" />
  </g>
</svg>
