<?xml version="1.0" encoding="UTF-8" standalone="no"?>
<!-- Created with Inkscape (http://www.inkscape.org/) -->

<svg
   xmlns:dc="http://purl.org/dc/elements/1.1/"
   xmlns:cc="http://creativecommons.org/ns#"
   xmlns:rdf="http://www.w3.org/1999/02/22-rdf-syntax-ns#"
   xmlns:svg="http://www.w3.org/2000/svg"
   xmlns="http://www.w3.org/2000/svg"
   xmlns:sodipodi="http://sodipodi.sourceforge.net/DTD/sodipodi-0.dtd"
   xmlns:inkscape="http://www.inkscape.org/namespaces/inkscape"
   width="1000"
   height="1000"
   id="svg3173"
   version="1.1"
   inkscape:version="0.47 r22583"
   sodipodi:docname="4eac.svg"
   inkscape:export-filename="E:\chinese\yan\4eac.png"
   inkscape:export-xdpi="18.005705"
   inkscape:export-ydpi="18.005705">
  <title
     id="title4267">Jing</title>
  <defs
     id="defs3175">
    <inkscape:perspective
       sodipodi:type="inkscape:persp3d"
       inkscape:vp_x="0 : 526.18109 : 1"
       inkscape:vp_y="0 : 1000 : 0"
       inkscape:vp_z="744.09448 : 526.18109 : 1"
       inkscape:persp3d-origin="372.04724 : 350.78739 : 1"
       id="perspective3181" />
    <inkscape:perspective
       id="perspective3191"
       inkscape:persp3d-origin="0.5 : 0.33333333 : 1"
       inkscape:vp_z="1 : 0.5 : 1"
       inkscape:vp_y="0 : 1000 : 0"
       inkscape:vp_x="0 : 0.5 : 1"
       sodipodi:type="inkscape:persp3d" />
    <inkscape:perspective
       id="perspective4006"
       inkscape:persp3d-origin="0.5 : 0.33333333 : 1"
       inkscape:vp_z="1 : 0.5 : 1"
       inkscape:vp_y="0 : 1000 : 0"
       inkscape:vp_x="0 : 0.5 : 1"
       sodipodi:type="inkscape:persp3d" />
    <inkscape:perspective
       id="perspective4034"
       inkscape:persp3d-origin="0.5 : 0.33333333 : 1"
       inkscape:vp_z="1 : 0.5 : 1"
       inkscape:vp_y="0 : 1000 : 0"
       inkscape:vp_x="0 : 0.5 : 1"
       sodipodi:type="inkscape:persp3d" />
    <inkscape:perspective
       id="perspective4081"
       inkscape:persp3d-origin="0.5 : 0.33333333 : 1"
       inkscape:vp_z="1 : 0.5 : 1"
       inkscape:vp_y="0 : 1000 : 0"
       inkscape:vp_x="0 : 0.5 : 1"
       sodipodi:type="inkscape:persp3d" />
    <inkscape:perspective
       id="perspective4147"
       inkscape:persp3d-origin="0.5 : 0.33333333 : 1"
       inkscape:vp_z="1 : 0.5 : 1"
       inkscape:vp_y="0 : 1000 : 0"
       inkscape:vp_x="0 : 0.5 : 1"
       sodipodi:type="inkscape:persp3d" />
    <inkscape:perspective
       id="perspective3858"
       inkscape:persp3d-origin="0.5 : 0.33333333 : 1"
       inkscape:vp_z="1 : 0.5 : 1"
       inkscape:vp_y="0 : 1000 : 0"
       inkscape:vp_x="0 : 0.5 : 1"
       sodipodi:type="inkscape:persp3d" />
    <inkscape:perspective
       id="perspective3876"
       inkscape:persp3d-origin="0.5 : 0.33333333 : 1"
       inkscape:vp_z="1 : 0.5 : 1"
       inkscape:vp_y="0 : 1000 : 0"
       inkscape:vp_x="0 : 0.5 : 1"
       sodipodi:type="inkscape:persp3d" />
    <inkscape:perspective
       id="perspective3901"
       inkscape:persp3d-origin="0.5 : 0.33333333 : 1"
       inkscape:vp_z="1 : 0.5 : 1"
       inkscape:vp_y="0 : 1000 : 0"
       inkscape:vp_x="0 : 0.5 : 1"
       sodipodi:type="inkscape:persp3d" />
    <inkscape:perspective
       id="perspective4392"
       inkscape:persp3d-origin="0.5 : 0.33333333 : 1"
       inkscape:vp_z="1 : 0.5 : 1"
       inkscape:vp_y="0 : 1000 : 0"
       inkscape:vp_x="0 : 0.5 : 1"
       sodipodi:type="inkscape:persp3d" />
    <inkscape:perspective
       id="perspective3767"
       inkscape:persp3d-origin="0.5 : 0.33333333 : 1"
       inkscape:vp_z="1 : 0.5 : 1"
       inkscape:vp_y="0 : 1000 : 0"
       inkscape:vp_x="0 : 0.5 : 1"
       sodipodi:type="inkscape:persp3d" />
    <inkscape:perspective
       id="perspective3810"
       inkscape:persp3d-origin="0.5 : 0.33333333 : 1"
       inkscape:vp_z="1 : 0.5 : 1"
       inkscape:vp_y="0 : 1000 : 0"
       inkscape:vp_x="0 : 0.5 : 1"
       sodipodi:type="inkscape:persp3d" />
    <inkscape:perspective
       id="perspective3847"
       inkscape:persp3d-origin="0.5 : 0.33333333 : 1"
       inkscape:vp_z="1 : 0.5 : 1"
       inkscape:vp_y="0 : 1000 : 0"
       inkscape:vp_x="0 : 0.5 : 1"
       sodipodi:type="inkscape:persp3d" />
    <inkscape:perspective
       id="perspective3875"
       inkscape:persp3d-origin="0.5 : 0.33333333 : 1"
       inkscape:vp_z="1 : 0.5 : 1"
       inkscape:vp_y="0 : 1000 : 0"
       inkscape:vp_x="0 : 0.5 : 1"
       sodipodi:type="inkscape:persp3d" />
  </defs>
  <sodipodi:namedview
     id="base"
     pagecolor="#ffffff"
     bordercolor="#666666"
     borderopacity="1.0"
     inkscape:pageopacity="0.0"
     inkscape:pageshadow="2"
     inkscape:zoom="0.49497475"
     inkscape:cx="320.67944"
     inkscape:cy="518.12327"
     inkscape:document-units="px"
     inkscape:current-layer="layer1"
     showgrid="false"
     inkscape:window-width="1440"
     inkscape:window-height="840"
     inkscape:window-x="-4"
     inkscape:window-y="-4"
     inkscape:window-maximized="1" />
  <metadata
     id="metadata3178">
    <rdf:RDF>
      <cc:Work
         rdf:about="">
        <dc:format>image/svg+xml</dc:format>
        <dc:type
           rdf:resource="http://purl.org/dc/dcmitype/StillImage" />
        <dc:title>Jing</dc:title>
        <dc:date>2010-08-13</dc:date>
        <dc:creator>
          <cc:Agent>
            <dc:title>Alex Amies</dc:title>
          </cc:Agent>
        </dc:creator>
        <dc:rights>
          <cc:Agent>
            <dc:title>@ Alex Amies 2010</dc:title>
          </cc:Agent>
        </dc:rights>
        <dc:publisher>
          <cc:Agent>
            <dc:title>chinesenotes.com</dc:title>
          </cc:Agent>
        </dc:publisher>
        <dc:source>Yan Qin Ceremonial Inscription</dc:source>
        <dc:language>Chinese 中文</dc:language>
        <dc:description>Tracing from Tang Dynasty Ceremonial Inscription by Yan Zhenqing 颜真卿 (709－785)</dc:description>
        <cc:license
           rdf:resource="http://creativecommons.org/licenses/by/3.0/" />
      </cc:Work>
      <cc:License
         rdf:about="http://creativecommons.org/licenses/by/3.0/">
        <cc:permits
           rdf:resource="http://creativecommons.org/ns#Reproduction" />
        <cc:permits
           rdf:resource="http://creativecommons.org/ns#Distribution" />
        <cc:requires
           rdf:resource="http://creativecommons.org/ns#Notice" />
        <cc:requires
           rdf:resource="http://creativecommons.org/ns#Attribution" />
        <cc:permits
           rdf:resource="http://creativecommons.org/ns#DerivativeWorks" />
      </cc:License>
    </rdf:RDF>
  </metadata>
  <g
     inkscape:label="Layer 1"
     inkscape:groupmode="layer"
     id="layer1"
     transform="translate(0,-52.362183)">
    <path
       style="fill:#000000;stroke:#000000;stroke-width:4.74180651000000000px;stroke-linecap:butt;stroke-linejoin:miter;stroke-opacity:1;fill-opacity:1"
       d="M 493.4375 49.5625 C 491.74679 49.575921 490.06316 49.650117 488.375 49.75 C 469.34964 51.49938 449.74676 51.4097 431.4375 57.34375 C 425.29914 59.05442 414.84762 61.92462 418.4375 70.53125 C 422.98826 80.93604 435.18513 84.05687 443.96875 89.875 C 469.52747 107.43384 496.54503 121.11691 513.9375 147.71875 C 520.22714 157.79818 523.17293 169.12811 528.96875 178.59375 C 439.99718 188.12577 351.20752 199.60662 262.4375 211.25 C 235.80548 214.9301 213.21901 223.61704 185.875 233.46875 C 161.68837 254.09689 193.32648 270.86447 210.9375 278.5625 C 232.5352 285.02101 247.80938 313.39568 272.84375 303.25 C 313.66061 291.04609 338.88835 249.56339 382.0625 242.28125 C 521.62549 213.70737 671.00939 190.51109 808.9375 238.625 C 832.12171 249.4436 877.59559 238.66574 870.46875 210.84375 C 864.16267 186.22602 842.08831 168.47942 821.5625 156.75 C 736.46916 159.63867 651.70445 166.10826 567.125 174.59375 C 575.65795 161.04616 588.27852 149.23565 590.46875 132.75 C 591.71116 110.60304 578.36911 90.57697 563.1875 75.65625 C 544.23129 58.819378 518.7981 49.361186 493.4375 49.5625 z M 688.65625 282.3125 C 681.02821 282.39529 673.56866 283.89631 666.84375 287.65625 C 661.49466 300.54742 652.04942 310.91427 637.40625 313.53125 C 599.81681 323.95839 569.70435 327.74601 527.4375 334.125 C 506.74288 339.61555 480.74212 346.13857 463.625 352.03125 C 450.42419 364.05947 458.41646 384.62715 473.53125 390.5 C 525.81991 400.4156 587.06361 382.7397 638.9375 370.15625 C 652.26933 374.96709 643.92969 391.66219 642.125 403.125 C 626.68178 432.72215 606.30849 471.32573 604.25 511.40625 C 601.65877 512.08226 599.12754 512.76933 596.65625 513.40625 C 539.78752 519.14382 485.56936 514.36415 434.125 541.09375 C 432.10556 534.83325 429.95787 528.61203 427.8125 522.4375 C 407.78965 428.31675 380.14823 346.67367 279.03125 318.15625 C 263.26853 313.39437 261.18841 327.71144 270.40625 338.0625 C 326.38005 418.23837 346.22907 511.0594 383.53125 597 C 388.92387 608.03177 396.64533 623.82702 411.28125 620.15625 C 417.44674 618.60991 423.86257 615.89179 429.34375 612.0625 C 444.07352 615.24542 460.74198 614.33046 472.1875 603.75 C 476.42337 600.99844 480.80707 598.52575 485.3125 596.28125 C 484.53408 600.28328 485.01467 604.53651 487.21875 608.75 C 494.94742 622.37207 499.65129 637.2627 500.03125 653 C 504.0451 702.69845 497.90124 752.48859 490.15625 801.5 C 492.33621 814.84757 485.41671 831.24773 469.09375 828.25 C 450.48576 826.14208 435.69268 820.79277 416.96875 818.8125 C 408.62939 820.0797 385.65509 799.46216 389.09375 815.40625 C 386.59894 825.3841 392.71781 830.25804 401.84375 833.59375 C 422.32873 844.79694 439.80969 860.89847 452.34375 880.625 C 461.65149 894.0703 469.82122 908.23489 475.5625 923.5625 C 482.07191 940.07802 500.33713 949.71982 516.625 940.34375 C 539.27239 931.51915 555.87726 918.87139 573.4375 895.875 C 597.68141 797.97486 597.05198 699.1297 575.28125 601.0625 C 572.03433 588.9175 565.3351 581.14902 556.78125 576.59375 C 570.70264 574.63818 584.64826 573.25447 598.0625 571.78125 C 608.54546 571.70987 619.8539 573.7211 630.375 572.3125 C 644.86518 579.03213 656.06092 557.26231 663.46875 546.78125 C 681.52768 522.28949 690.5741 492.66339 706.90625 467.09375 C 723.42339 437.42806 741.19958 408.51653 758.84375 379.53125 C 768.91824 365.60264 764.22324 351.34088 753.875 335.875 C 743.54213 316.70773 732.2419 305.13499 717.5625 287.34375 C 708.523 284.46395 698.46373 282.20605 688.65625 282.3125 z M 687.15625 622.96875 C 682.34668 623.85518 677.69109 634.82066 680.375 639.90625 C 697.4052 672.17609 725.06628 702.83766 747.625 734.125 C 767.38828 762.63326 795.70255 810.63491 836.6875 804.84375 C 871.59061 783.07876 869.52045 737.47704 847.125 707.59375 C 834.46864 693.21839 819.92146 680.52395 804.75 668.875 C 771.00067 649.3554 728.1082 622.39319 687.15625 622.96875 z M 286.65625 665.21875 C 286.36911 665.21667 286.09079 665.23852 285.8125 665.3125 C 264.91308 670.86805 241.75775 687.74212 217.375 691.71875 C 204.37505 692.75436 202.65913 675.96425 192.34375 672.125 C 178.36268 667.9882 161.64712 674.55309 155.3125 688 C 146.59094 705.9467 146.94853 727.28101 152.53125 746.125 C 167.80845 774.36274 189.80101 828.73994 223.15625 841.65625 C 231.07787 844.1199 240.71729 840.90757 243.84375 832.78125 C 254.436 804.24155 242.3576 773.57442 251.3125 745.03125 C 259.74959 725.32668 272.95047 708.19919 285.28125 690.84375 C 288.62697 686.13471 295.85234 681.63981 295.96875 677.1875 C 296.06699 673.42723 290.96336 665.24994 286.65625 665.21875 z "
       transform="translate(0,52.362183)"
       id="path10987" />
  </g>
</svg>
