<?xml version="1.0" encoding="UTF-8" standalone="no"?>
<!-- Created with Inkscape (http://www.inkscape.org/) -->

<svg
   xmlns:dc="http://purl.org/dc/elements/1.1/"
   xmlns:cc="http://creativecommons.org/ns#"
   xmlns:rdf="http://www.w3.org/1999/02/22-rdf-syntax-ns#"
   xmlns:svg="http://www.w3.org/2000/svg"
   xmlns="http://www.w3.org/2000/svg"
   xmlns:sodipodi="http://sodipodi.sourceforge.net/DTD/sodipodi-0.dtd"
   xmlns:inkscape="http://www.inkscape.org/namespaces/inkscape"
   width="1000"
   height="1000"
   id="svg3173"
   version="1.1"
   inkscape:version="0.47 r22583"
   sodipodi:docname="4ead.svg"
   inkscape:export-filename="E:\chinese\yan\4ead.png"
   inkscape:export-xdpi="18.005705"
   inkscape:export-ydpi="18.005705">
  <title
     id="title7296">Ting</title>
  <defs
     id="defs3175">
    <inkscape:perspective
       sodipodi:type="inkscape:persp3d"
       inkscape:vp_x="0 : 526.18109 : 1"
       inkscape:vp_y="0 : 1000 : 0"
       inkscape:vp_z="744.09448 : 526.18109 : 1"
       inkscape:persp3d-origin="372.04724 : 350.78739 : 1"
       id="perspective3181" />
    <inkscape:perspective
       id="perspective3191"
       inkscape:persp3d-origin="0.5 : 0.33333333 : 1"
       inkscape:vp_z="1 : 0.5 : 1"
       inkscape:vp_y="0 : 1000 : 0"
       inkscape:vp_x="0 : 0.5 : 1"
       sodipodi:type="inkscape:persp3d" />
    <inkscape:perspective
       id="perspective4006"
       inkscape:persp3d-origin="0.5 : 0.33333333 : 1"
       inkscape:vp_z="1 : 0.5 : 1"
       inkscape:vp_y="0 : 1000 : 0"
       inkscape:vp_x="0 : 0.5 : 1"
       sodipodi:type="inkscape:persp3d" />
    <inkscape:perspective
       id="perspective4034"
       inkscape:persp3d-origin="0.5 : 0.33333333 : 1"
       inkscape:vp_z="1 : 0.5 : 1"
       inkscape:vp_y="0 : 1000 : 0"
       inkscape:vp_x="0 : 0.5 : 1"
       sodipodi:type="inkscape:persp3d" />
    <inkscape:perspective
       id="perspective4081"
       inkscape:persp3d-origin="0.5 : 0.33333333 : 1"
       inkscape:vp_z="1 : 0.5 : 1"
       inkscape:vp_y="0 : 1000 : 0"
       inkscape:vp_x="0 : 0.5 : 1"
       sodipodi:type="inkscape:persp3d" />
    <inkscape:perspective
       id="perspective4147"
       inkscape:persp3d-origin="0.5 : 0.33333333 : 1"
       inkscape:vp_z="1 : 0.5 : 1"
       inkscape:vp_y="0 : 1000 : 0"
       inkscape:vp_x="0 : 0.5 : 1"
       sodipodi:type="inkscape:persp3d" />
    <inkscape:perspective
       id="perspective3801"
       inkscape:persp3d-origin="0.5 : 0.33333333 : 1"
       inkscape:vp_z="1 : 0.5 : 1"
       inkscape:vp_y="0 : 1000 : 0"
       inkscape:vp_x="0 : 0.5 : 1"
       sodipodi:type="inkscape:persp3d" />
    <inkscape:perspective
       id="perspective3122"
       inkscape:persp3d-origin="0.5 : 0.33333333 : 1"
       inkscape:vp_z="1 : 0.5 : 1"
       inkscape:vp_y="0 : 1000 : 0"
       inkscape:vp_x="0 : 0.5 : 1"
       sodipodi:type="inkscape:persp3d" />
    <inkscape:perspective
       id="perspective3854"
       inkscape:persp3d-origin="0.5 : 0.33333333 : 1"
       inkscape:vp_z="1 : 0.5 : 1"
       inkscape:vp_y="0 : 1000 : 0"
       inkscape:vp_x="0 : 0.5 : 1"
       sodipodi:type="inkscape:persp3d" />
    <inkscape:perspective
       id="perspective3922"
       inkscape:persp3d-origin="0.5 : 0.33333333 : 1"
       inkscape:vp_z="1 : 0.5 : 1"
       inkscape:vp_y="0 : 1000 : 0"
       inkscape:vp_x="0 : 0.5 : 1"
       sodipodi:type="inkscape:persp3d" />
    <inkscape:perspective
       id="perspective3945"
       inkscape:persp3d-origin="0.5 : 0.33333333 : 1"
       inkscape:vp_z="1 : 0.5 : 1"
       inkscape:vp_y="0 : 1000 : 0"
       inkscape:vp_x="0 : 0.5 : 1"
       sodipodi:type="inkscape:persp3d" />
    <inkscape:perspective
       id="perspective3972"
       inkscape:persp3d-origin="0.5 : 0.33333333 : 1"
       inkscape:vp_z="1 : 0.5 : 1"
       inkscape:vp_y="0 : 1000 : 0"
       inkscape:vp_x="0 : 0.5 : 1"
       sodipodi:type="inkscape:persp3d" />
    <inkscape:perspective
       id="perspective3995"
       inkscape:persp3d-origin="0.5 : 0.33333333 : 1"
       inkscape:vp_z="1 : 0.5 : 1"
       inkscape:vp_y="0 : 1000 : 0"
       inkscape:vp_x="0 : 0.5 : 1"
       sodipodi:type="inkscape:persp3d" />
    <inkscape:perspective
       id="perspective3802"
       inkscape:persp3d-origin="0.5 : 0.33333333 : 1"
       inkscape:vp_z="1 : 0.5 : 1"
       inkscape:vp_y="0 : 1000 : 0"
       inkscape:vp_x="0 : 0.5 : 1"
       sodipodi:type="inkscape:persp3d" />
    <inkscape:perspective
       id="perspective3833"
       inkscape:persp3d-origin="0.5 : 0.33333333 : 1"
       inkscape:vp_z="1 : 0.5 : 1"
       inkscape:vp_y="0 : 1000 : 0"
       inkscape:vp_x="0 : 0.5 : 1"
       sodipodi:type="inkscape:persp3d" />
    <inkscape:perspective
       id="perspective3913"
       inkscape:persp3d-origin="0.5 : 0.33333333 : 1"
       inkscape:vp_z="1 : 0.5 : 1"
       inkscape:vp_y="0 : 1000 : 0"
       inkscape:vp_x="0 : 0.5 : 1"
       sodipodi:type="inkscape:persp3d" />
    <inkscape:perspective
       id="perspective4500"
       inkscape:persp3d-origin="0.5 : 0.33333333 : 1"
       inkscape:vp_z="1 : 0.5 : 1"
       inkscape:vp_y="0 : 1000 : 0"
       inkscape:vp_x="0 : 0.5 : 1"
       sodipodi:type="inkscape:persp3d" />
    <inkscape:perspective
       id="perspective5117"
       inkscape:persp3d-origin="0.5 : 0.33333333 : 1"
       inkscape:vp_z="1 : 0.5 : 1"
       inkscape:vp_y="0 : 1000 : 0"
       inkscape:vp_x="0 : 0.5 : 1"
       sodipodi:type="inkscape:persp3d" />
    <inkscape:perspective
       id="perspective5212"
       inkscape:persp3d-origin="0.5 : 0.33333333 : 1"
       inkscape:vp_z="1 : 0.5 : 1"
       inkscape:vp_y="0 : 1000 : 0"
       inkscape:vp_x="0 : 0.5 : 1"
       sodipodi:type="inkscape:persp3d" />
    <inkscape:perspective
       id="perspective5834"
       inkscape:persp3d-origin="0.5 : 0.33333333 : 1"
       inkscape:vp_z="1 : 0.5 : 1"
       inkscape:vp_y="0 : 1000 : 0"
       inkscape:vp_x="0 : 0.5 : 1"
       sodipodi:type="inkscape:persp3d" />
    <inkscape:perspective
       id="perspective5906"
       inkscape:persp3d-origin="0.5 : 0.33333333 : 1"
       inkscape:vp_z="1 : 0.5 : 1"
       inkscape:vp_y="0 : 1000 : 0"
       inkscape:vp_x="0 : 0.5 : 1"
       sodipodi:type="inkscape:persp3d" />
    <inkscape:perspective
       id="perspective3787"
       inkscape:persp3d-origin="0.5 : 0.33333333 : 1"
       inkscape:vp_z="1 : 0.5 : 1"
       inkscape:vp_y="0 : 1000 : 0"
       inkscape:vp_x="0 : 0.5 : 1"
       sodipodi:type="inkscape:persp3d" />
    <inkscape:perspective
       id="perspective3839"
       inkscape:persp3d-origin="0.5 : 0.33333333 : 1"
       inkscape:vp_z="1 : 0.5 : 1"
       inkscape:vp_y="0 : 1000 : 0"
       inkscape:vp_x="0 : 0.5 : 1"
       sodipodi:type="inkscape:persp3d" />
    <inkscape:perspective
       id="perspective3913-3"
       inkscape:persp3d-origin="0.5 : 0.33333333 : 1"
       inkscape:vp_z="1 : 0.5 : 1"
       inkscape:vp_y="0 : 1000 : 0"
       inkscape:vp_x="0 : 0.5 : 1"
       sodipodi:type="inkscape:persp3d" />
    <inkscape:perspective
       id="perspective3969"
       inkscape:persp3d-origin="0.5 : 0.33333333 : 1"
       inkscape:vp_z="1 : 0.5 : 1"
       inkscape:vp_y="0 : 1000 : 0"
       inkscape:vp_x="0 : 0.5 : 1"
       sodipodi:type="inkscape:persp3d" />
  </defs>
  <sodipodi:namedview
     id="base"
     pagecolor="#ffffff"
     bordercolor="#666666"
     borderopacity="1.0"
     inkscape:pageopacity="0.0"
     inkscape:pageshadow="2"
     inkscape:zoom="0.49497475"
     inkscape:cx="483.07102"
     inkscape:cy="534.97897"
     inkscape:document-units="px"
     inkscape:current-layer="g4634"
     showgrid="false"
     inkscape:window-width="1440"
     inkscape:window-height="840"
     inkscape:window-x="-4"
     inkscape:window-y="-4"
     inkscape:window-maximized="1" />
  <metadata
     id="metadata3178">
    <rdf:RDF>
      <cc:Work
         rdf:about="">
        <dc:format>image/svg+xml</dc:format>
        <dc:type
           rdf:resource="http://purl.org/dc/dcmitype/StillImage" />
        <dc:title>Ting</dc:title>
        <dc:date>2010-08-21</dc:date>
        <dc:creator>
          <cc:Agent>
            <dc:title>Alex Amies</dc:title>
          </cc:Agent>
        </dc:creator>
        <dc:rights>
          <cc:Agent>
            <dc:title>@ Alex Amies 2010</dc:title>
          </cc:Agent>
        </dc:rights>
        <dc:publisher>
          <cc:Agent>
            <dc:title>chinesenotes.com</dc:title>
          </cc:Agent>
        </dc:publisher>
        <dc:source>Yan Qin Ceremonial Inscription</dc:source>
        <dc:language>Chinese 中文</dc:language>
        <dc:description>Tracing from Tang Dynasty Ceremonial Inscription by Yan Zhenqing 颜真卿 (709－785)</dc:description>
        <cc:license
           rdf:resource="http://creativecommons.org/licenses/by/3.0/" />
      </cc:Work>
      <cc:License
         rdf:about="http://creativecommons.org/licenses/by/3.0/">
        <cc:permits
           rdf:resource="http://creativecommons.org/ns#Reproduction" />
        <cc:permits
           rdf:resource="http://creativecommons.org/ns#Distribution" />
        <cc:requires
           rdf:resource="http://creativecommons.org/ns#Notice" />
        <cc:requires
           rdf:resource="http://creativecommons.org/ns#Attribution" />
        <cc:permits
           rdf:resource="http://creativecommons.org/ns#DerivativeWorks" />
      </cc:License>
    </rdf:RDF>
  </metadata>
  <g
     inkscape:label="Layer 1"
     inkscape:groupmode="layer"
     id="layer1"
     transform="translate(0,-52.362183)">
    <g
       transform="matrix(4.7609464,0,0,4.7609464,-444.07486,-2879.5352)"
       id="g4634"
       style="fill:#000000;fill-opacity:1">
      <path
         style="fill:#000000;stroke:#000000;stroke-width:4.55125522999999980px;stroke-linecap:butt;stroke-linejoin:miter;stroke-opacity:1;fill-opacity:1"
         d="M 433.3125 11.03125 C 414.31872 11.322934 399.56117 21.00076 384.125 34 C 381.16631 37.764766 373.7819 41.062371 374.90625 46.15625 C 383.04414 54.35898 389.05127 64.197662 399.375 70.03125 C 418.43512 84.490197 438.87836 90.124041 456.34375 108.1875 C 469.23001 117.76614 486.57489 111.15887 499.09375 104.125 C 505.95889 100.4684 514.56406 95.558601 514.46875 86.65625 C 507.88127 53.047492 477.67255 25.032566 447.1875 12.40625 C 442.29298 11.40147 437.69568 10.963938 433.3125 11.03125 z M 631.8125 91.8125 C 631.15092 91.836634 630.4585 91.86748 629.78125 91.9375 C 610.51732 93.015378 592.23038 101.86092 572.6875 99.9375 C 469.76536 119.31331 366.6544 139.18297 263.21875 157.5 C 251.03577 160.54058 237.75357 163.89392 229 173.5625 C 217.48199 190.09203 235.12884 213.34506 253.25 214.375 C 283.67968 209.29105 312.89055 197.5157 343.21875 191.59375 C 343.13657 193.12728 343.02367 194.68673 342.78125 196.3125 C 345.3843 295.39246 347.57107 395.15106 357.78125 493.78125 C 358.13451 510.58382 353.8727 529.03466 362.6875 544.375 C 364.77338 547.03977 367.44474 549.05206 370.4375 550.46875 C 356.64068 553.76283 342.81701 557.04908 329 560.28125 C 312.72242 560.81838 272.8026 558.22723 285.90625 586.4375 C 291.34654 611.6638 322.51382 615.28859 343.375 609.15625 C 437.28876 575.56539 542.98671 580.07526 635.8125 543.90625 C 678.42792 532.02307 722.39128 516.51073 767.1875 525.03125 C 793.84413 526.08599 805.83623 561.29627 787.78125 579.71875 C 775.04296 591.27166 777.73332 630.96446 800.625 612.5625 C 817.90143 598.17173 844.31036 602.40466 857.15625 581.28125 C 874.01867 560.40736 870.20275 529.54242 854.1875 509.375 C 808.08349 460.17267 724.60163 470.07507 662.3125 469.8125 C 632.25313 479.79094 601.98531 489.11794 571.59375 497.96875 C 573.40711 487.05247 572.59981 475.15914 573.34375 464.59375 C 583.03523 369.97418 588.98262 275.04542 582.28125 179.71875 C 578.05324 163.12184 565.61063 149.71705 550.1875 142.96875 C 577.97611 139.20843 606.91207 148.46716 634.78125 149.84375 C 650.85592 159.93001 684.75186 154.13473 670.28125 129.625 C 665.2812 111.945 652.32134 91.064348 631.8125 91.8125 z M 509.15625 157.40625 C 507.88021 160.86141 506.69532 164.25364 505.34375 167.0625 C 508.71022 184.75889 519.00615 203.27546 521.46875 219.75 C 521.06055 277.91409 523.61987 336.09194 523.25 394.25 C 522.78804 392.0976 522.25924 390.00314 521.59375 388.125 C 488.01159 380.73453 450.14328 386.1864 415.9375 394.375 C 416.28373 364.93154 415.67956 335.45071 414.21875 306.0625 C 430.57805 310.11145 447.8873 310.2781 464.3125 306.53125 C 469.34101 304.69624 473.59209 300.74378 476.0625 296.03125 C 478.88488 289.0726 478.2671 281.25199 476.875 274.03125 C 470.71115 257.8487 445.25655 267.47221 432.21875 270.21875 C 424.65658 272.05047 418.26058 275.65633 412.75 280.40625 C 411.40338 260.24571 409.65199 240.16516 407.53125 220.15625 C 406.08669 204.10404 398.72412 190.24325 387.3125 182.75 C 426.514 170.65693 470.86774 170.88723 509.15625 157.40625 z M 522.96875 415.3125 C 522.75696 425.9235 522.42659 436.54659 521.9375 447.15625 C 521.66303 468.77246 521.53018 490.38504 521.96875 512 C 482.79947 522.71765 443.43313 532.76496 403.9375 542.40625 C 405.66005 539.7489 406.78026 536.60921 407 533.03125 C 411.27484 497.54307 413.96543 461.73056 415.21875 425.8125 C 449.86796 426.22822 485.32569 424.28524 519.34375 419.40625 C 520.98031 418.35639 522.14119 416.93315 522.96875 415.3125 z M 190.5 564.40625 C 190.33943 564.46952 190.1859 564.75547 190 565.3125 C 190.37369 565.32355 190.7486 565.30883 191.125 565.3125 C 190.93835 564.67591 190.72812 564.31637 190.5 564.40625 z M 191.125 565.3125 C 191.85802 567.8126 192.32066 574.6841 192.84375 576.34375 C 194.49746 590.41982 197.98238 604.2285 200.125 618.1875 C 188.48049 664.24332 159.15564 713.34645 128.90625 750.375 C 121.76512 755.39451 113.84285 766.77267 122.9375 773.875 C 132.17631 780.99104 144.62657 777.29326 155.09375 780.90625 C 168.57366 783.65793 183.30019 790.0556 196.6875 783.6875 C 207.45976 776.41368 209.82205 762.64313 215.5 751.8125 C 232.28914 706.01534 248.91986 663.20764 250.375 613.625 C 247.75281 596.98863 236.97051 583.06078 225.84375 571.03125 C 216.06994 562.1556 202.96083 565.4278 191.125 565.3125 z M 599.4375 638 C 586.01993 638.16037 572.69145 643.34021 563.4375 653.625 C 496.95412 687.37283 423.71712 704.56843 354.34375 731.34375 C 350.4513 733.91319 346.73122 736.73525 342.78125 739.21875 C 338.55324 758.51715 364.30581 764.20086 378.5 759.90625 C 423.45468 737.99812 472.07272 725.27931 519.9375 710.65625 C 511.05765 734.47354 518.79209 761.15132 516.96875 786.03125 C 513.74511 834.09134 508.12623 895.60846 473.1875 931.90625 C 460.10356 943.31681 446.86405 968.90583 426.1875 957.96875 C 418.92553 951.69001 403.08421 934.78325 400.6875 954.40625 C 404.63847 970.51429 420.79829 982.38452 436.5625 986.21875 C 463.49651 992.12918 494.56136 999.27931 519.34375 982.78125 C 585.44602 926.98101 592.4609 851.30627 584.21875 769.125 C 583.83587 743.80525 579.29706 716.55338 562.6875 696.6875 C 568.24252 694.70784 573.75927 692.64371 579.25 690.5 C 601.88021 682.83911 622.68296 706.03541 644.65625 699.03125 C 658.25042 685.72764 647.79323 663.38167 635.96875 652.5 C 626.35688 642.68881 612.85507 637.83963 599.4375 638 z "
         transform="matrix(0.21004227,0,0,0.21004227,93.274493,615.82239)"
         id="path4135" />
    </g>
  </g>
</svg>
