<?xml version="1.0" encoding="UTF-8" standalone="no"?>
<!-- Created with Inkscape (http://www.inkscape.org/) -->

<svg
   xmlns:dc="http://purl.org/dc/elements/1.1/"
   xmlns:cc="http://creativecommons.org/ns#"
   xmlns:rdf="http://www.w3.org/1999/02/22-rdf-syntax-ns#"
   xmlns:svg="http://www.w3.org/2000/svg"
   xmlns="http://www.w3.org/2000/svg"
   xmlns:sodipodi="http://sodipodi.sourceforge.net/DTD/sodipodi-0.dtd"
   xmlns:inkscape="http://www.inkscape.org/namespaces/inkscape"
   width="1000"
   height="1000"
   id="svg3173"
   version="1.1"
   inkscape:version="0.47 r22583"
   sodipodi:docname="4ee4.svg"
   inkscape:export-filename="E:\chinese\yan\4ee4.png"
   inkscape:export-xdpi="18.005705"
   inkscape:export-ydpi="18.005705">
  <title
     id="title4741">Ling</title>
  <defs
     id="defs3175">
    <inkscape:perspective
       sodipodi:type="inkscape:persp3d"
       inkscape:vp_x="0 : 526.18109 : 1"
       inkscape:vp_y="0 : 1000 : 0"
       inkscape:vp_z="744.09448 : 526.18109 : 1"
       inkscape:persp3d-origin="372.04724 : 350.78739 : 1"
       id="perspective3181" />
    <inkscape:perspective
       id="perspective3191"
       inkscape:persp3d-origin="0.5 : 0.33333333 : 1"
       inkscape:vp_z="1 : 0.5 : 1"
       inkscape:vp_y="0 : 1000 : 0"
       inkscape:vp_x="0 : 0.5 : 1"
       sodipodi:type="inkscape:persp3d" />
    <inkscape:perspective
       id="perspective4006"
       inkscape:persp3d-origin="0.5 : 0.33333333 : 1"
       inkscape:vp_z="1 : 0.5 : 1"
       inkscape:vp_y="0 : 1000 : 0"
       inkscape:vp_x="0 : 0.5 : 1"
       sodipodi:type="inkscape:persp3d" />
    <inkscape:perspective
       id="perspective4034"
       inkscape:persp3d-origin="0.5 : 0.33333333 : 1"
       inkscape:vp_z="1 : 0.5 : 1"
       inkscape:vp_y="0 : 1000 : 0"
       inkscape:vp_x="0 : 0.5 : 1"
       sodipodi:type="inkscape:persp3d" />
    <inkscape:perspective
       id="perspective4081"
       inkscape:persp3d-origin="0.5 : 0.33333333 : 1"
       inkscape:vp_z="1 : 0.5 : 1"
       inkscape:vp_y="0 : 1000 : 0"
       inkscape:vp_x="0 : 0.5 : 1"
       sodipodi:type="inkscape:persp3d" />
    <inkscape:perspective
       id="perspective4147"
       inkscape:persp3d-origin="0.5 : 0.33333333 : 1"
       inkscape:vp_z="1 : 0.5 : 1"
       inkscape:vp_y="0 : 1000 : 0"
       inkscape:vp_x="0 : 0.5 : 1"
       sodipodi:type="inkscape:persp3d" />
    <inkscape:perspective
       id="perspective3816"
       inkscape:persp3d-origin="0.5 : 0.33333333 : 1"
       inkscape:vp_z="1 : 0.5 : 1"
       inkscape:vp_y="0 : 1000 : 0"
       inkscape:vp_x="0 : 0.5 : 1"
       sodipodi:type="inkscape:persp3d" />
    <inkscape:perspective
       id="perspective3897"
       inkscape:persp3d-origin="0.5 : 0.33333333 : 1"
       inkscape:vp_z="1 : 0.5 : 1"
       inkscape:vp_y="0 : 1000 : 0"
       inkscape:vp_x="0 : 0.5 : 1"
       sodipodi:type="inkscape:persp3d" />
    <inkscape:perspective
       id="perspective3964"
       inkscape:persp3d-origin="0.5 : 0.33333333 : 1"
       inkscape:vp_z="1 : 0.5 : 1"
       inkscape:vp_y="0 : 1000 : 0"
       inkscape:vp_x="0 : 0.5 : 1"
       sodipodi:type="inkscape:persp3d" />
    <inkscape:perspective
       id="perspective3784"
       inkscape:persp3d-origin="0.5 : 0.33333333 : 1"
       inkscape:vp_z="1 : 0.5 : 1"
       inkscape:vp_y="0 : 1000 : 0"
       inkscape:vp_x="0 : 0.5 : 1"
       sodipodi:type="inkscape:persp3d" />
    <inkscape:perspective
       id="perspective3814"
       inkscape:persp3d-origin="0.5 : 0.33333333 : 1"
       inkscape:vp_z="1 : 0.5 : 1"
       inkscape:vp_y="0 : 1000 : 0"
       inkscape:vp_x="0 : 0.5 : 1"
       sodipodi:type="inkscape:persp3d" />
  </defs>
  <sodipodi:namedview
     id="base"
     pagecolor="#ffffff"
     bordercolor="#666666"
     borderopacity="1.0"
     inkscape:pageopacity="0.0"
     inkscape:pageshadow="2"
     inkscape:zoom="0.49497475"
     inkscape:cx="625.55267"
     inkscape:cy="513.93908"
     inkscape:document-units="px"
     inkscape:current-layer="layer1"
     showgrid="false"
     inkscape:window-width="1440"
     inkscape:window-height="840"
     inkscape:window-x="-4"
     inkscape:window-y="-4"
     inkscape:window-maximized="1" />
  <metadata
     id="metadata3178">
    <rdf:RDF>
      <cc:Work
         rdf:about="">
        <dc:format>image/svg+xml</dc:format>
        <dc:type
           rdf:resource="http://purl.org/dc/dcmitype/StillImage" />
        <dc:title>Ling</dc:title>
        <dc:date>2010-08-03</dc:date>
        <dc:creator>
          <cc:Agent>
            <dc:title>Alex Amies</dc:title>
          </cc:Agent>
        </dc:creator>
        <dc:rights>
          <cc:Agent>
            <dc:title>@ Alex Amies 2010</dc:title>
          </cc:Agent>
        </dc:rights>
        <dc:publisher>
          <cc:Agent>
            <dc:title>chinesenotes.com</dc:title>
          </cc:Agent>
        </dc:publisher>
        <dc:source>Yan Qin Ceremonial Inscription</dc:source>
        <dc:language>Chinese 中文</dc:language>
        <dc:description>Tracing from Tang Dynasty Ceremonial Inscription by Yan Zhenqing 颜真卿 (709－785)</dc:description>
        <cc:license
           rdf:resource="http://creativecommons.org/licenses/by/3.0/" />
      </cc:Work>
      <cc:License
         rdf:about="http://creativecommons.org/licenses/by/3.0/">
        <cc:permits
           rdf:resource="http://creativecommons.org/ns#Reproduction" />
        <cc:permits
           rdf:resource="http://creativecommons.org/ns#Distribution" />
        <cc:requires
           rdf:resource="http://creativecommons.org/ns#Notice" />
        <cc:requires
           rdf:resource="http://creativecommons.org/ns#Attribution" />
        <cc:permits
           rdf:resource="http://creativecommons.org/ns#DerivativeWorks" />
      </cc:License>
    </rdf:RDF>
  </metadata>
  <g
     inkscape:label="Layer 1"
     inkscape:groupmode="layer"
     id="layer1"
     transform="translate(0,-52.362183)">
    <path
       style="fill:#000000;fill-opacity:1;stroke:#000000;stroke-width:4.76094627px;stroke-linecap:butt;stroke-linejoin:miter;stroke-opacity:1"
       d="m 493.79368,84.525358 c -21.68747,1.108777 -43.28526,12.035911 -62.78493,21.573042 -19.47637,14.20238 -2.11324,32.72074 -10.11701,49.39482 -31.55356,60.57004 -68.2207,119.28222 -106.07984,176.30379 -66.47067,101.95953 -152.37942,187.48693 -238.34488,272.8617 -11.902366,0.56679 -20.234022,2.4088 -32.136389,2.97559 -8.022481,7.803 -10.195091,21.54176 2.231693,22.76327 54.244226,14.91867 115.163056,16.79338 170.947736,9.96823 7.67417,-9.87701 11.12809,-24.07644 7.2902,-37.34367 3.88731,-23.1879 -25.39442,-33.63671 -8.48044,-52.37041 52.4394,-63.99626 106.91077,-126.32529 156.21855,-192.81828 51.50587,-48.45734 73.63437,-121.95512 120.51141,-172.73309 2.71322,5.98375 7.01297,11.18756 13.39016,15.02674 40.30746,121.61276 127.26996,199.97279 219.44988,281.49095 15.07468,21.46606 37.96369,50.60625 67.24837,33.02907 24.6397,-12.38779 50.17766,-26.02 78.70439,-24.25107 27.17967,-2.77944 54.54997,-2.70879 81.67999,-5.20729 29.20659,-9.56069 -9.84926,-33.10467 -25.14375,-34.51686 -165.7225,-79.57493 -271.9793,-140.08218 -380.57815,-288.18603 -1.53679,-2.91766 -2.22265,-6.51412 -2.52926,-10.41457 2.08011,-3.02592 3.82452,-6.29693 5.35607,-9.67068 0.0238,-21.48096 -6.00441,-43.435254 -27.37544,-52.221628 -9.65158,-4.581792 -19.60044,-6.157617 -29.45836,-5.653624 z M 430.11607,376.87722 c -13.35845,-0.24471 -26.48833,3.06648 -37.49245,11.90237 -4.42806,16.27906 7.45607,30.4573 10.86091,45.67533 8.28847,28.91675 9.08945,60.23449 23.50717,87.18483 10.1132,21.92787 29.25271,25.54914 49.09723,34.51681 54.48777,-2.20303 65.40886,-67.80639 51.18015,-110.98951 -8.65749,-22.98276 -27.29522,-40.77579 -47.75824,-53.56065 -14.60404,-8.21577 -32.21961,-14.41443 -49.39477,-14.72918 z m 271.96902,149.96977 c -16.67136,3.91521 -33.96855,12.43178 -47.16313,23.65595 -15.97688,26.36864 -45.62015,34.94297 -72.90199,44.93143 -116.4901,46.14538 -209.75973,61.1644 -333.86132,50.13872 -24.19899,11.22507 -22.38211,38.37208 -24.69741,61.1484 -1.4808,16.20055 -2.96721,48.23577 22.31694,40.91439 73.74986,-24.93113 148.92126,-46.78368 219.44985,-80.19219 41.74405,-11.9824 72.26362,-24.57777 117.8334,-37.64124 -2.64438,34.78938 -19.68399,68.7147 -26.48277,103.69937 16.34181,8.32623 36.64753,1.62748 52.96553,-5.35607 59.93417,-30.9939 143.83985,-80.78997 153.6893,-151.4576 -7.67698,-26.90045 -32.86472,-49.95938 -61.1484,-49.84116 z M 486.65226,683.95822 c -2.80939,0.05 -5.76208,0.36707 -8.92675,0.7439 l -27.22666,6.69508 c 4.82393,45.5813 31.8239,85.27083 34.21928,131.67011 2.73302,46.50397 8.22496,92.81275 15.47307,138.81111 1.37434,21.90511 13.475,40.41998 23.3584,59.36328 25.85665,14.757 48.95747,9.9471 73.79466,-0.8927 23.6441,-47.84177 16.96968,-104.96932 8.92678,-156.36754 -3.03867,-41.02127 -17.77661,-79.02976 -42.9973,-111.43586 -30.27628,-34.4383 -34.48072,-69.33504 -76.62148,-68.58738 z"
       id="path2928" />
  </g>
</svg>
