<?xml version="1.0" encoding="UTF-8" standalone="no"?>
<!-- Created with Inkscape (http://www.inkscape.org/) -->

<svg
   xmlns:dc="http://purl.org/dc/elements/1.1/"
   xmlns:cc="http://creativecommons.org/ns#"
   xmlns:rdf="http://www.w3.org/1999/02/22-rdf-syntax-ns#"
   xmlns:svg="http://www.w3.org/2000/svg"
   xmlns="http://www.w3.org/2000/svg"
   xmlns:sodipodi="http://sodipodi.sourceforge.net/DTD/sodipodi-0.dtd"
   xmlns:inkscape="http://www.inkscape.org/namespaces/inkscape"
   width="1000"
   height="1000"
   id="svg3173"
   version="1.1"
   inkscape:version="0.47 r22583"
   sodipodi:docname="4f0b.svg"
   inkscape:export-filename="E:\chinese\yan\4f0b.png"
   inkscape:export-xdpi="18.005705"
   inkscape:export-ydpi="18.005705">
  <title
     id="title2832">Ji</title>
  <defs
     id="defs3175">
    <inkscape:perspective
       sodipodi:type="inkscape:persp3d"
       inkscape:vp_x="0 : 526.18109 : 1"
       inkscape:vp_y="0 : 1000 : 0"
       inkscape:vp_z="744.09448 : 526.18109 : 1"
       inkscape:persp3d-origin="372.04724 : 350.78739 : 1"
       id="perspective3181" />
    <inkscape:perspective
       id="perspective3191"
       inkscape:persp3d-origin="0.5 : 0.33333333 : 1"
       inkscape:vp_z="1 : 0.5 : 1"
       inkscape:vp_y="0 : 1000 : 0"
       inkscape:vp_x="0 : 0.5 : 1"
       sodipodi:type="inkscape:persp3d" />
    <inkscape:perspective
       id="perspective4006"
       inkscape:persp3d-origin="0.5 : 0.33333333 : 1"
       inkscape:vp_z="1 : 0.5 : 1"
       inkscape:vp_y="0 : 1000 : 0"
       inkscape:vp_x="0 : 0.5 : 1"
       sodipodi:type="inkscape:persp3d" />
    <inkscape:perspective
       id="perspective4034"
       inkscape:persp3d-origin="0.5 : 0.33333333 : 1"
       inkscape:vp_z="1 : 0.5 : 1"
       inkscape:vp_y="0 : 1000 : 0"
       inkscape:vp_x="0 : 0.5 : 1"
       sodipodi:type="inkscape:persp3d" />
    <inkscape:perspective
       id="perspective4081"
       inkscape:persp3d-origin="0.5 : 0.33333333 : 1"
       inkscape:vp_z="1 : 0.5 : 1"
       inkscape:vp_y="0 : 1000 : 0"
       inkscape:vp_x="0 : 0.5 : 1"
       sodipodi:type="inkscape:persp3d" />
    <inkscape:perspective
       id="perspective4147"
       inkscape:persp3d-origin="0.5 : 0.33333333 : 1"
       inkscape:vp_z="1 : 0.5 : 1"
       inkscape:vp_y="0 : 1000 : 0"
       inkscape:vp_x="0 : 0.5 : 1"
       sodipodi:type="inkscape:persp3d" />
    <inkscape:perspective
       id="perspective3737"
       inkscape:persp3d-origin="0.5 : 0.33333333 : 1"
       inkscape:vp_z="1 : 0.5 : 1"
       inkscape:vp_y="0 : 1000 : 0"
       inkscape:vp_x="0 : 0.5 : 1"
       sodipodi:type="inkscape:persp3d" />
    <inkscape:perspective
       id="perspective3836"
       inkscape:persp3d-origin="0.5 : 0.33333333 : 1"
       inkscape:vp_z="1 : 0.5 : 1"
       inkscape:vp_y="0 : 1000 : 0"
       inkscape:vp_x="0 : 0.5 : 1"
       sodipodi:type="inkscape:persp3d" />
    <inkscape:perspective
       id="perspective3775"
       inkscape:persp3d-origin="0.5 : 0.33333333 : 1"
       inkscape:vp_z="1 : 0.5 : 1"
       inkscape:vp_y="0 : 1000 : 0"
       inkscape:vp_x="0 : 0.5 : 1"
       sodipodi:type="inkscape:persp3d" />
    <inkscape:perspective
       id="perspective3808"
       inkscape:persp3d-origin="0.5 : 0.33333333 : 1"
       inkscape:vp_z="1 : 0.5 : 1"
       inkscape:vp_y="0 : 1000 : 0"
       inkscape:vp_x="0 : 0.5 : 1"
       sodipodi:type="inkscape:persp3d" />
    <inkscape:perspective
       id="perspective3775-1"
       inkscape:persp3d-origin="0.5 : 0.33333333 : 1"
       inkscape:vp_z="1 : 0.5 : 1"
       inkscape:vp_y="0 : 1000 : 0"
       inkscape:vp_x="0 : 0.5 : 1"
       sodipodi:type="inkscape:persp3d" />
  </defs>
  <sodipodi:namedview
     id="base"
     pagecolor="#ffffff"
     bordercolor="#666666"
     borderopacity="1.0"
     inkscape:pageopacity="0.0"
     inkscape:pageshadow="2"
     inkscape:zoom="0.49497475"
     inkscape:cx="730.13697"
     inkscape:cy="507.1008"
     inkscape:document-units="px"
     inkscape:current-layer="g4264"
     showgrid="false"
     inkscape:window-width="1440"
     inkscape:window-height="840"
     inkscape:window-x="-4"
     inkscape:window-y="-4"
     inkscape:window-maximized="1" />
  <metadata
     id="metadata3178">
    <rdf:RDF>
      <cc:Work
         rdf:about="">
        <dc:format>image/svg+xml</dc:format>
        <dc:type
           rdf:resource="http://purl.org/dc/dcmitype/StillImage" />
        <dc:title>Ji</dc:title>
        <dc:date>2010-08-09</dc:date>
        <dc:creator>
          <cc:Agent>
            <dc:title>Alex Amies</dc:title>
          </cc:Agent>
        </dc:creator>
        <dc:rights>
          <cc:Agent>
            <dc:title>@ Alex Amies 2010</dc:title>
          </cc:Agent>
        </dc:rights>
        <dc:publisher>
          <cc:Agent>
            <dc:title>chinesenotes.com</dc:title>
          </cc:Agent>
        </dc:publisher>
        <dc:source>Yan Qin Ceremonial Inscription</dc:source>
        <dc:language>Chinese 中文</dc:language>
        <dc:description>Tracing from Tang Dynasty Ceremonial Inscription by Yan Zhenqing 颜真卿 (709－785)</dc:description>
        <cc:license
           rdf:resource="http://creativecommons.org/licenses/by/3.0/" />
      </cc:Work>
      <cc:License
         rdf:about="http://creativecommons.org/licenses/by/3.0/">
        <cc:permits
           rdf:resource="http://creativecommons.org/ns#Reproduction" />
        <cc:permits
           rdf:resource="http://creativecommons.org/ns#Distribution" />
        <cc:requires
           rdf:resource="http://creativecommons.org/ns#Notice" />
        <cc:requires
           rdf:resource="http://creativecommons.org/ns#Attribution" />
        <cc:permits
           rdf:resource="http://creativecommons.org/ns#DerivativeWorks" />
      </cc:License>
    </rdf:RDF>
  </metadata>
  <g
     inkscape:label="Layer 1"
     inkscape:groupmode="layer"
     id="layer1"
     transform="translate(0,-52.362183)">
    <g
       transform="matrix(4.7609464,0,0,4.7609464,-696.12274,-2965.6673)"
       id="g4264"
       style="fill:none;fill-opacity:1">
      <g
         id="g3643"
         style="fill:#000000;fill-opacity:1">
        <path
           id="path3152"
           d="m 197.3635,662.5415 c -5.52062,-0.20561 -5.62254,4.74642 -5.68476,9.13974 -8.0651,19.73774 -19.48602,38.19228 -34.53064,53.38232 -2.26106,2.04827 -3.31528,4.60321 -3.47905,7.61426 -0.29243,5.37652 8.8624,6.53389 11.90701,2.8542 12.081,-17.92442 42.25902,-30.83266 47.79426,-52.71522 0.65392,-5.11962 -0.87022,-11.61477 -4.07475,-15.7591 -2.98458,-4.13071 -7.43734,-4.09389 -11.93207,-4.5162 z"
           style="fill:#000000;stroke:#000000;stroke-width:0.99597985000000000px;stroke-linecap:butt;stroke-linejoin:miter;stroke-opacity:1;fill-opacity:1"
           sodipodi:nodetypes="cccscccc" />
        <path
           id="path3154"
           d="m 188.47083,716.96468 c -6.57196,1.16181 -7.79987,9.11249 -6.94178,14.67108 0.20933,8.94113 0.65321,17.91916 0.2952,26.85002 -2.05029,14.51752 -4.83906,28.96584 -5.19555,43.6604 -0.39364,7.36098 -1.12162,14.96726 0.5978,22.15091 1.50667,4.11112 5.18505,7.74569 9.77563,6.84956 5.88851,1.00657 7.52647,-6.76681 6.66336,-11.3102 -2.52085,-9.45888 -2.60417,-19.27416 -3.28056,-28.98058 -0.0798,-15.68794 1.26194,-31.35119 2.85841,-46.9467 1.92715,-6.02084 4.94669,-12.45785 3.19961,-18.77886 -1.36438,-3.55229 -3.09315,-6.98849 -7.08958,-7.7874 -0.29419,-0.12608 -0.58836,-0.25215 -0.88254,-0.37823 z"
           style="fill:#000000;stroke:#000000;stroke-width:0.99597985000000000px;stroke-linecap:butt;stroke-linejoin:miter;stroke-opacity:1;fill-opacity:1" />
        <path
           id="path3156"
           transform="matrix(0.21004227,0,0,0.21004227,146.2152,633.91377)"
           d="M 718.375 83.6875 C 693.7458 83.712402 669.19537 93.986773 649.59375 110.1875 C 643.15081 120.63673 636.80577 131.06542 630.53125 141.46875 C 591.3827 144.99624 553.3833 158.187 513.4375 157.1875 C 486.8658 160.88704 458.92083 152.51774 434.875 166.78125 C 387.48849 183.89928 423.4735 255.14634 461.96875 247.375 C 501.42123 229.6225 543.16091 219.51705 586.1875 216.5625 C 546.22432 285.5338 508.45775 353.549 469.34375 420.71875 C 456.06182 398.99256 443.31986 377.00955 432.90625 353.84375 C 420.14049 327.21987 419.08277 291.87294 397.28125 271.40625 C 388.9276 263.56407 379.94593 250.76151 370.53125 249.75 C 361.8221 248.81428 348.51467 256.87843 343.4375 266.6875 C 328.92571 294.72452 313.06417 334.3655 335.3125 363.03125 C 372.22064 387.92319 384.0743 431.20827 403.4375 468.75 C 409.2558 479.84786 415.02626 491.00792 420.78125 502.15625 C 377.78975 572.21795 331.6644 641.43562 278.21875 709.9375 C 270.18451 721.10773 253.86997 734.99105 255.375 744.25 C 256.60842 751.8379 273.87791 752.13096 283.375 743.0625 C 300.48127 726.72826 323.74057 717.06786 338.0625 697.3125 C 377.3519 657.05067 413.27465 607.42236 448.09375 554.875 C 463.42455 584.15978 479.13244 613.23406 495.9375 641.59375 C 525.41652 683.08416 551.337 727.64987 583.5 766.90625 C 583.65307 767.05605 583.81563 767.194 583.96875 767.34375 C 568.00067 787.37951 549.86366 805.272 529.5625 820.25 C 491.70588 851.72157 442.74974 864.5953 401 889.90625 C 450.70866 934.10735 505.42163 886.82398 550.71875 860.5625 C 577.32965 844.13536 600.89721 824.63758 621.5625 802.75 C 646.35103 824.99879 672.37136 845.78102 700.875 863.34375 C 733.27572 886.07275 772.69184 895.29408 805.75 917 C 833.87262 920.9383 849.51649 889.92187 876.28125 885.09375 C 907.80724 876.75129 938.63773 860.87109 971.9375 864.21875 C 1004.7 845.3355 962.19621 821.26502 943.9375 811.96875 C 880.8164 793.95204 818.45231 773.04724 758 747.25 C 730.44572 739.65502 706.53827 725.7116 690.4375 701.8125 C 729.73642 621.01191 745.81213 527.30987 743.75 438.84375 C 728.07006 392.88257 681.54604 359.02436 669.71875 316.28125 C 663.20772 277.12608 694.57076 249.70952 708.5 216.71875 C 728.0951 201.35814 747.29579 185.75618 763.40625 168.46875 C 779.13347 147.87356 778.96418 115.4276 761.71875 95.65625 C 747.93681 87.361937 733.15252 83.672559 718.375 83.6875 z M 620.3125 300.5 C 620.38679 300.9988 620.45975 301.48828 620.5625 301.96875 C 605.71392 351.38909 631.41942 395.98795 666.875 429.28125 C 678.21878 497.98973 671.4156 577.86706 646.5 650.5625 C 600.18745 597.09981 553.94163 543.54708 510.1875 488.09375 C 507.24088 482.8662 504.22675 477.66626 501.15625 472.5 C 539.81141 411.66481 578.47312 351.27323 620.3125 300.5 z "
           style="fill:#000000;stroke:#000000;stroke-width:4.74180651000000000px;stroke-linecap:butt;stroke-linejoin:miter;stroke-opacity:1;fill-opacity:1" />
      </g>
    </g>
  </g>
</svg>
