<?xml version="1.0" encoding="UTF-8" standalone="no"?>
<!-- Created with Inkscape (http://www.inkscape.org/) -->

<svg
   xmlns:dc="http://purl.org/dc/elements/1.1/"
   xmlns:cc="http://creativecommons.org/ns#"
   xmlns:rdf="http://www.w3.org/1999/02/22-rdf-syntax-ns#"
   xmlns:svg="http://www.w3.org/2000/svg"
   xmlns="http://www.w3.org/2000/svg"
   xmlns:sodipodi="http://sodipodi.sourceforge.net/DTD/sodipodi-0.dtd"
   xmlns:inkscape="http://www.inkscape.org/namespaces/inkscape"
   width="1000"
   height="1000"
   id="svg3173"
   version="1.1"
   inkscape:version="0.47 r22583"
   sodipodi:docname="4f30.svg"
   inkscape:export-filename="E:\chinese\yan\4f30.png"
   inkscape:export-xdpi="18.005705"
   inkscape:export-ydpi="18.005705">
  <title
     id="title4273">Gu</title>
  <defs
     id="defs3175">
    <inkscape:perspective
       sodipodi:type="inkscape:persp3d"
       inkscape:vp_x="0 : 526.18109 : 1"
       inkscape:vp_y="0 : 1000 : 0"
       inkscape:vp_z="744.09448 : 526.18109 : 1"
       inkscape:persp3d-origin="372.04724 : 350.78739 : 1"
       id="perspective3181" />
    <inkscape:perspective
       id="perspective3191"
       inkscape:persp3d-origin="0.5 : 0.33333333 : 1"
       inkscape:vp_z="1 : 0.5 : 1"
       inkscape:vp_y="0 : 1000 : 0"
       inkscape:vp_x="0 : 0.5 : 1"
       sodipodi:type="inkscape:persp3d" />
    <inkscape:perspective
       id="perspective4006"
       inkscape:persp3d-origin="0.5 : 0.33333333 : 1"
       inkscape:vp_z="1 : 0.5 : 1"
       inkscape:vp_y="0 : 1000 : 0"
       inkscape:vp_x="0 : 0.5 : 1"
       sodipodi:type="inkscape:persp3d" />
    <inkscape:perspective
       id="perspective4034"
       inkscape:persp3d-origin="0.5 : 0.33333333 : 1"
       inkscape:vp_z="1 : 0.5 : 1"
       inkscape:vp_y="0 : 1000 : 0"
       inkscape:vp_x="0 : 0.5 : 1"
       sodipodi:type="inkscape:persp3d" />
    <inkscape:perspective
       id="perspective4081"
       inkscape:persp3d-origin="0.5 : 0.33333333 : 1"
       inkscape:vp_z="1 : 0.5 : 1"
       inkscape:vp_y="0 : 1000 : 0"
       inkscape:vp_x="0 : 0.5 : 1"
       sodipodi:type="inkscape:persp3d" />
    <inkscape:perspective
       id="perspective4147"
       inkscape:persp3d-origin="0.5 : 0.33333333 : 1"
       inkscape:vp_z="1 : 0.5 : 1"
       inkscape:vp_y="0 : 1000 : 0"
       inkscape:vp_x="0 : 0.5 : 1"
       sodipodi:type="inkscape:persp3d" />
    <inkscape:perspective
       id="perspective3737"
       inkscape:persp3d-origin="0.5 : 0.33333333 : 1"
       inkscape:vp_z="1 : 0.5 : 1"
       inkscape:vp_y="0 : 1000 : 0"
       inkscape:vp_x="0 : 0.5 : 1"
       sodipodi:type="inkscape:persp3d" />
    <inkscape:perspective
       id="perspective3836"
       inkscape:persp3d-origin="0.5 : 0.33333333 : 1"
       inkscape:vp_z="1 : 0.5 : 1"
       inkscape:vp_y="0 : 1000 : 0"
       inkscape:vp_x="0 : 0.5 : 1"
       sodipodi:type="inkscape:persp3d" />
    <inkscape:perspective
       id="perspective3775"
       inkscape:persp3d-origin="0.5 : 0.33333333 : 1"
       inkscape:vp_z="1 : 0.5 : 1"
       inkscape:vp_y="0 : 1000 : 0"
       inkscape:vp_x="0 : 0.5 : 1"
       sodipodi:type="inkscape:persp3d" />
    <inkscape:perspective
       id="perspective3808"
       inkscape:persp3d-origin="0.5 : 0.33333333 : 1"
       inkscape:vp_z="1 : 0.5 : 1"
       inkscape:vp_y="0 : 1000 : 0"
       inkscape:vp_x="0 : 0.5 : 1"
       sodipodi:type="inkscape:persp3d" />
  </defs>
  <sodipodi:namedview
     id="base"
     pagecolor="#ffffff"
     bordercolor="#666666"
     borderopacity="1.0"
     inkscape:pageopacity="0.0"
     inkscape:pageshadow="2"
     inkscape:zoom="0.49497475"
     inkscape:cx="212.93887"
     inkscape:cy="482.85714"
     inkscape:document-units="px"
     inkscape:current-layer="g4264"
     showgrid="false"
     inkscape:window-width="1440"
     inkscape:window-height="840"
     inkscape:window-x="-4"
     inkscape:window-y="-4"
     inkscape:window-maximized="1" />
  <metadata
     id="metadata3178">
    <rdf:RDF>
      <cc:Work
         rdf:about="">
        <dc:format>image/svg+xml</dc:format>
        <dc:type
           rdf:resource="http://purl.org/dc/dcmitype/StillImage" />
        <dc:title>Gu</dc:title>
        <dc:date>2010-08-09</dc:date>
        <dc:creator>
          <cc:Agent>
            <dc:title>Alex Amies</dc:title>
          </cc:Agent>
        </dc:creator>
        <dc:rights>
          <cc:Agent>
            <dc:title>@ Alex Amies 2010</dc:title>
          </cc:Agent>
        </dc:rights>
        <dc:publisher>
          <cc:Agent>
            <dc:title>chinesenotes.com</dc:title>
          </cc:Agent>
        </dc:publisher>
        <dc:source>Yan Qin Ceremonial Inscription</dc:source>
        <dc:language>Chinese 中文</dc:language>
        <dc:description>Tracing from Tang Dynasty Ceremonial Inscription by Yan Zhenqing 颜真卿 (709－785)</dc:description>
        <cc:license
           rdf:resource="http://creativecommons.org/licenses/by/3.0/" />
      </cc:Work>
      <cc:License
         rdf:about="http://creativecommons.org/licenses/by/3.0/">
        <cc:permits
           rdf:resource="http://creativecommons.org/ns#Reproduction" />
        <cc:permits
           rdf:resource="http://creativecommons.org/ns#Distribution" />
        <cc:requires
           rdf:resource="http://creativecommons.org/ns#Notice" />
        <cc:requires
           rdf:resource="http://creativecommons.org/ns#Attribution" />
        <cc:permits
           rdf:resource="http://creativecommons.org/ns#DerivativeWorks" />
      </cc:License>
    </rdf:RDF>
  </metadata>
  <g
     inkscape:label="Layer 1"
     inkscape:groupmode="layer"
     id="layer1"
     transform="translate(0,-52.362183)">
    <g
       transform="matrix(4.7609464,0,0,4.7609464,-696.12274,-2965.6673)"
       id="g4264"
       style="fill:none;fill-opacity:1">
      <path
         style="fill:#000000;stroke:#000000;stroke-width:4.74180651000000000px;stroke-linecap:butt;stroke-linejoin:miter;stroke-opacity:1;fill-opacity:1"
         d="M 627.875 73.84375 C 623.93615 73.807618 620.13995 74.181131 616.65625 75.21875 C 608.18304 149.67319 608.13856 227.06633 609.65625 304.25 C 552.3375 323.58888 494.85187 342.43361 438.84375 364.78125 C 432.12753 379.11727 432.3544 395.44486 439.59375 409.3125 C 445.84349 415.51263 454.01089 425.7872 462.5625 424.0625 C 512.91251 410.50271 562.13847 393.35385 611.3125 376 C 611.93396 401.96626 612.48801 427.80971 612.71875 453.375 C 612.85428 463.19344 612.3542 473.16736 612.09375 483.09375 C 565.92267 496.1838 519.58154 508.66819 472.71875 518.90625 C 446.42576 524.65047 418.70457 524.07061 393.125 532.4375 C 377.01686 536.40899 362.15451 547.93606 366.03125 566.3125 C 382.00846 578.99319 403.29922 586.11037 423.59375 590.03125 C 442.1333 593.91942 462.75407 600.44445 481.1875 593.40625 C 488.98193 589.05746 489.17225 576.59097 496.4375 571.40625 C 531.2707 546.54815 572.80388 535.41757 615.75 527.375 C 620.28631 541.79695 630.65462 553.50793 647.65625 547.25 C 663.49241 544.04128 671.00021 531.45151 675.625 517.125 C 692.35852 514.23572 708.95453 511.11598 725.0625 507.0625 C 755.34507 499.44208 785.32223 488.46545 816.5 486.71875 C 845.07577 479.12337 868.60611 500.43409 894.40625 503.65625 C 926.93684 498.2939 938.41738 467.08636 935.03125 437.625 C 931.95944 415.69075 918.15758 402.31783 897.78125 395.28125 C 877.42754 393.9618 855.47519 393.6389 835.125 396.96875 C 814.63365 398.38546 811.51853 410.72683 802.9375 425.75 C 772.29672 451.73382 726.38529 450.18845 687.78125 461.3125 C 686.31202 461.73587 684.8442 462.16989 683.375 462.59375 C 686.61528 423.52758 691.80129 384.64246 698.0625 345.90625 C 716.30472 339.85242 734.63576 334.05572 753.09375 328.65625 C 779.28776 321.48798 807.51879 319.47137 832.25 309.25 C 838.98617 295.57199 832.31958 279.39329 828.03125 265.5625 C 821.06022 243.93171 801.2233 233.73417 779.34375 236.90625 C 763.35906 243.55544 748.99058 254.25998 732.65625 260.1875 C 725.75145 262.90603 718.81796 265.56353 711.875 268.1875 C 715.23997 250.61251 718.72775 233.08343 722.25 215.5625 C 727.88525 189.17215 744.98932 162.48381 745.375 137.875 C 745.51307 129.08191 732.84047 123.45644 724.09375 118.6875 C 700.2366 105.67998 677.99083 88.703875 653.90625 76.90625 C 645.86494 75.934386 636.54047 73.923241 627.875 73.84375 z M 315.75 159.96875 C 307.73583 160.07687 300.08874 161.46142 293.21875 164.96875 C 281.47635 181.89682 287.21004 213.87812 275.28125 235.09375 C 221.42761 360.76426 146.12658 473.45845 56.90625 573.0625 C 51.870978 580.23487 39.332912 588.30509 42.5625 595.125 C 53.025299 617.2197 81.935343 588.28289 99.25 579 C 139.42977 546.11617 178.20145 510.57271 215.5 473.53125 C 215.56876 490.65786 220.17301 508.22489 223.28125 524.71875 C 232.02835 633.13397 220.61726 741.48491 226.0625 850.1875 C 230.14582 885.62399 255.20283 910.36064 288.3125 921.125 C 304.57232 927.01386 323.79068 917.01129 320.03125 898.03125 C 326.5387 785.91453 319.8667 673.8279 312.25 561.96875 C 310.43841 536.32015 312.27646 509.59583 306.75 485.03125 C 303.05022 461.71594 289.52338 448.12998 271.1875 435.90625 C 265.36032 436.41929 258.90331 436.08878 252.4375 435.9375 C 271.24458 416.27793 289.64237 396.28725 307.625 376.15625 C 341.85887 336.16225 377.58547 297.1255 410.96875 256.6875 C 419.37201 243.6147 423.42266 215.55436 412.25 202.8125 C 397.53725 191.71269 387.629 173.04252 368.65625 168.1875 C 352.66498 165.60371 333.38117 159.73089 315.75 159.96875 z M 830.125 587.6875 C 817.47959 587.655 804.75621 589.55753 792.75 593 C 738.45064 619.73243 673.64955 629.62365 621.75 661.15625 C 615.29706 665.94467 611.59375 677.07152 611.59375 684.875 C 611.59375 691.74852 615.70112 702.20791 621.75 705.1875 C 632.67751 710.57032 648.91599 712.04277 662.53125 703.84375 C 701.29116 680.50292 743.09423 651.56377 784.3125 642.53125 C 803.76049 638.26944 785.77036 672.49844 782.53125 685.9375 C 771.69018 730.91773 755.0261 774.86983 741.5625 819.59375 C 699.75861 830.46485 653.10126 827.63443 609.5 833.75 C 614.02561 791.56716 602.32492 746.94441 589.0625 707.875 C 573.34614 672.02655 544.58508 648.03266 507.9375 635.65625 C 497.31478 632.7038 483.57926 630.84324 474.40625 634.0625 C 469.01138 635.95583 463.63203 644.91175 464.25 651 C 484.59981 687.58597 503.28052 722.01561 515.1875 763.125 C 525.06009 794.25405 527.66577 830.71871 541.375 858.0625 C 534.03738 865.02007 529.23545 873.90915 528.59375 884.6875 C 532.90203 897.34005 543.96786 907.64151 555.6875 913.5 C 579.88539 916.96959 598.53507 900.37497 620.46875 894.59375 C 661.29524 887.71755 704.23953 887.11954 744.46875 880.3125 C 748.27716 883.40617 752.8877 885.68249 758.03125 886.84375 C 776.98458 891.12275 799.45236 888.55677 811.3125 871.1875 C 854.62278 805.26125 874.52756 725.53431 899.03125 650.96875 C 902.89485 638.47717 906.4353 623.22908 895.875 611.9375 C 878.08977 594.90199 854.26624 587.74955 830.125 587.6875 z "
         transform="matrix(0.21004227,0,0,0.21004227,146.2152,633.91377)"
         id="path4811" />
    </g>
  </g>
</svg>
