<?xml version="1.0" encoding="UTF-8" standalone="no"?>
<!-- Created with Inkscape (http://www.inkscape.org/) -->

<svg
   xmlns:dc="http://purl.org/dc/elements/1.1/"
   xmlns:cc="http://creativecommons.org/ns#"
   xmlns:rdf="http://www.w3.org/1999/02/22-rdf-syntax-ns#"
   xmlns:svg="http://www.w3.org/2000/svg"
   xmlns="http://www.w3.org/2000/svg"
   xmlns:sodipodi="http://sodipodi.sourceforge.net/DTD/sodipodi-0.dtd"
   xmlns:inkscape="http://www.inkscape.org/namespaces/inkscape"
   width="1000"
   height="1000"
   id="svg3173"
   version="1.1"
   inkscape:version="0.47 r22583"
   sodipodi:docname="4f7f.svg"
   inkscape:export-filename="E:\chinese\yan\4f7f.png"
   inkscape:export-xdpi="18.005705"
   inkscape:export-ydpi="18.005705">
  <title
     id="title6637">Shi</title>
  <defs
     id="defs3175">
    <inkscape:perspective
       sodipodi:type="inkscape:persp3d"
       inkscape:vp_x="0 : 526.18109 : 1"
       inkscape:vp_y="0 : 1000 : 0"
       inkscape:vp_z="744.09448 : 526.18109 : 1"
       inkscape:persp3d-origin="372.04724 : 350.78739 : 1"
       id="perspective3181" />
    <inkscape:perspective
       id="perspective3191"
       inkscape:persp3d-origin="0.5 : 0.33333333 : 1"
       inkscape:vp_z="1 : 0.5 : 1"
       inkscape:vp_y="0 : 1000 : 0"
       inkscape:vp_x="0 : 0.5 : 1"
       sodipodi:type="inkscape:persp3d" />
    <inkscape:perspective
       id="perspective4006"
       inkscape:persp3d-origin="0.5 : 0.33333333 : 1"
       inkscape:vp_z="1 : 0.5 : 1"
       inkscape:vp_y="0 : 1000 : 0"
       inkscape:vp_x="0 : 0.5 : 1"
       sodipodi:type="inkscape:persp3d" />
    <inkscape:perspective
       id="perspective4034"
       inkscape:persp3d-origin="0.5 : 0.33333333 : 1"
       inkscape:vp_z="1 : 0.5 : 1"
       inkscape:vp_y="0 : 1000 : 0"
       inkscape:vp_x="0 : 0.5 : 1"
       sodipodi:type="inkscape:persp3d" />
    <inkscape:perspective
       id="perspective4081"
       inkscape:persp3d-origin="0.5 : 0.33333333 : 1"
       inkscape:vp_z="1 : 0.5 : 1"
       inkscape:vp_y="0 : 1000 : 0"
       inkscape:vp_x="0 : 0.5 : 1"
       sodipodi:type="inkscape:persp3d" />
    <inkscape:perspective
       id="perspective4147"
       inkscape:persp3d-origin="0.5 : 0.33333333 : 1"
       inkscape:vp_z="1 : 0.5 : 1"
       inkscape:vp_y="0 : 1000 : 0"
       inkscape:vp_x="0 : 0.5 : 1"
       sodipodi:type="inkscape:persp3d" />
    <inkscape:perspective
       id="perspective3807"
       inkscape:persp3d-origin="0.5 : 0.33333333 : 1"
       inkscape:vp_z="1 : 0.5 : 1"
       inkscape:vp_y="0 : 1000 : 0"
       inkscape:vp_x="0 : 0.5 : 1"
       sodipodi:type="inkscape:persp3d" />
    <inkscape:perspective
       id="perspective3794"
       inkscape:persp3d-origin="0.5 : 0.33333333 : 1"
       inkscape:vp_z="1 : 0.5 : 1"
       inkscape:vp_y="0 : 1000 : 0"
       inkscape:vp_x="0 : 0.5 : 1"
       sodipodi:type="inkscape:persp3d" />
    <inkscape:perspective
       id="perspective3815"
       inkscape:persp3d-origin="0.5 : 0.33333333 : 1"
       inkscape:vp_z="1 : 0.5 : 1"
       inkscape:vp_y="0 : 1000 : 0"
       inkscape:vp_x="0 : 0.5 : 1"
       sodipodi:type="inkscape:persp3d" />
    <inkscape:perspective
       id="perspective3850"
       inkscape:persp3d-origin="0.5 : 0.33333333 : 1"
       inkscape:vp_z="1 : 0.5 : 1"
       inkscape:vp_y="0 : 1000 : 0"
       inkscape:vp_x="0 : 0.5 : 1"
       sodipodi:type="inkscape:persp3d" />
    <inkscape:perspective
       id="perspective3878"
       inkscape:persp3d-origin="0.5 : 0.33333333 : 1"
       inkscape:vp_z="1 : 0.5 : 1"
       inkscape:vp_y="0 : 1000 : 0"
       inkscape:vp_x="0 : 0.5 : 1"
       sodipodi:type="inkscape:persp3d" />
  </defs>
  <sodipodi:namedview
     id="base"
     pagecolor="#ffffff"
     bordercolor="#666666"
     borderopacity="1.0"
     inkscape:pageopacity="0.0"
     inkscape:pageshadow="2"
     inkscape:zoom="0.49497475"
     inkscape:cx="757.7382"
     inkscape:cy="557.20233"
     inkscape:document-units="px"
     inkscape:current-layer="g5975"
     showgrid="false"
     inkscape:window-width="1440"
     inkscape:window-height="840"
     inkscape:window-x="-4"
     inkscape:window-y="-4"
     inkscape:window-maximized="1" />
  <metadata
     id="metadata3178">
    <rdf:RDF>
      <cc:Work
         rdf:about="">
        <dc:format>image/svg+xml</dc:format>
        <dc:type
           rdf:resource="http://purl.org/dc/dcmitype/StillImage" />
        <dc:title>Shi</dc:title>
        <dc:date>2010-08-02</dc:date>
        <dc:creator>
          <cc:Agent>
            <dc:title>Alex Amies</dc:title>
          </cc:Agent>
        </dc:creator>
        <dc:rights>
          <cc:Agent>
            <dc:title>@ Alex Amies 2010</dc:title>
          </cc:Agent>
        </dc:rights>
        <dc:publisher>
          <cc:Agent>
            <dc:title>chinesenotes.com</dc:title>
          </cc:Agent>
        </dc:publisher>
        <dc:source>Yan Qin Ceremonial Inscription</dc:source>
        <dc:language>Chinese 中文</dc:language>
        <dc:description>Tracing from Tang Dynasty Ceremonial Inscription by Yan Zhenqing 颜真卿 (709－785)</dc:description>
        <cc:license
           rdf:resource="http://creativecommons.org/licenses/by/3.0/" />
      </cc:Work>
      <cc:License
         rdf:about="http://creativecommons.org/licenses/by/3.0/">
        <cc:permits
           rdf:resource="http://creativecommons.org/ns#Reproduction" />
        <cc:permits
           rdf:resource="http://creativecommons.org/ns#Distribution" />
        <cc:requires
           rdf:resource="http://creativecommons.org/ns#Notice" />
        <cc:requires
           rdf:resource="http://creativecommons.org/ns#Attribution" />
        <cc:permits
           rdf:resource="http://creativecommons.org/ns#DerivativeWorks" />
      </cc:License>
    </rdf:RDF>
  </metadata>
  <g
     inkscape:label="Layer 1"
     inkscape:groupmode="layer"
     id="layer1"
     transform="translate(0,-52.362183)">
    <g
       transform="matrix(4.762395,0,0,4.762395,-2523.1017,68.412668)"
       id="g5975"
       style="fill:none;fill-opacity:1">
      <path
         style="fill:#000000;fill-opacity:1;stroke:#000000;stroke-width:0.99567693px;stroke-linecap:butt;stroke-linejoin:miter;stroke-opacity:1"
         d="m 634.42485,5.1674916 c -2.26625,0.4684905 -4.38474,2.7612963 -2.33363,4.7916905 1.6712,2.9238929 4.36877,5.3570089 5.66295,8.4010589 0.68685,3.477025 1.34848,6.95092 1.80464,10.454594 -7.00953,2.125514 -14.03011,4.197542 -21.12703,6.005166 l -6.78306,1.649105 c -2.44174,3.22386 1.9625,6.047985 3.64048,8.432118 2.48215,2.980653 6.66712,3.564701 10.11233,2.053582 4.48423,-1.228792 7.9365,-4.649104 12.29038,-6.222958 0.85097,-0.266015 1.70037,-0.542794 2.55143,-0.808999 0.28498,6.58893 0.98577,13.181464 0.74678,19.757971 -0.12992,1.19209 -0.25463,2.38418 -0.37365,3.578214 -2.24378,0.681493 -4.49893,1.339703 -6.75191,1.99137 l -8.3388,-0.684528 -1.77357,1.057897 c -2.03457,3.648631 2.2865,7.14614 5.75626,7.000851 3.38077,0.714923 6.6144,-0.556308 9.73896,-1.649105 0.21718,-0.06733 0.43578,-0.120916 0.65343,-0.186827 -0.52862,5.773813 -1.04396,11.54004 -1.83579,17.268759 -0.005,0.02371 -0.0237,0.03793 -0.0332,0.06212 -3.09915,0.318175 -6.20939,0.61449 -9.30333,0.964578 l -2.58253,3.422636 c -1.13116,-3.349185 -2.48077,-6.618946 -3.64047,-9.956751 -1.66642,-4.300155 -2.70729,-8.806531 -3.45374,-13.348328 -0.36749,-1.467115 -0.32577,-3.154297 -1.40017,-4.324955 l -1.71136,-2.458058 c -4.31505,-1.557067 -9.22741,-2.535965 -13.62833,-0.71568 -0.44099,0.134667 -0.85908,0.26317 -1.30684,0.37318 -0.94827,0.711223 -2.85713,1.129308 -2.86259,2.115841 -0.0142,2.204609 1.97686,5.140783 4.23164,6.7208 2.9568,2.674759 5.54801,5.750958 7.43648,9.272271 3.48565,5.317889 6.95846,10.703728 9.36559,16.615339 1.13737,2.493194 2.2157,5.012086 3.14259,7.592056 1.85755,1.19726 4.81573,1.14316 6.223,-0.68453 0.0379,-0.82469 -0.0825,-1.6408 -0.24894,-2.4581 0.0332,0.009 0.0602,0.0237 0.0934,0.0332 2.12243,0.67163 4.26677,0.45521 6.40964,0.0934 -0.97951,4.07744 -2.00142,8.15885 -3.20484,12.16592 -0.41539,-0.26033 -0.82972,-0.51705 -1.24459,-0.77785 -5.01318,-4.505 -9.84901,-9.25899 -13.03712,-15.277435 -5.01636,-6.99407 -9.14282,-15.757072 -17.4866,-19.260129 -1.41993,-0.134193 -3.16928,-1.699606 -4.16937,-0.871212 -4.28214,3.546919 -11.05059,13.666599 -4.01385,18.73118 5.87245,-0.924036 -0.28308,-12.25923 6.59638,-12.445962 5.47237,5.695716 8.20645,14.199577 12.44596,21.064808 4.37161,8.73327 9.31571,17.12859 14.68623,25.2653 -0.88231,2.24349 -1.79022,4.49717 -2.76922,6.68969 -3.87225,5.32818 -7.22845,11.09706 -11.41917,16.14865 -9.15169,8.4875 -18.45075,16.8301 -28.31456,24.4874 1.65954,2.07615 4.74939,0.63602 7.09417,1.0579 2.35919,0.17213 4.67504,0.12423 6.50301,-1.58685 15.06903,-8.63952 28.72994,-18.87277 37.77352,-33.75967 2.23851,3.07089 4.70098,5.97221 7.71648,8.36991 9.94665,9.80724 20.46744,19.13001 32.14172,26.82103 5.38883,3.16212 12.02086,7.42041 18.29555,3.92048 8.91522,-3.7557 18.07283,-8.22509 28.03451,-7.28086 3.9504,-1.00393 13.54232,-0.064 13.37944,-4.88505 -4.50998,-3.1157 -9.80909,-5.3471 -14.59291,-8.21433 -19.96865,-11.23244 -40.22731,-21.99368 -60.73629,-32.20393 -4.18958,-2.31666 -8.32799,-4.71056 -12.44596,-7.15643 0.22666,-0.4353 0.46375,-0.86903 0.68453,-1.3068 2.02783,-7.48593 4.49058,-14.90212 6.25411,-22.433862 0.002,-0.02845 -0.002,-0.06212 0,-0.09341 5.71501,-0.925695 11.42192,-1.911896 17.11318,-2.9559 3.62506,-0.278344 7.29176,-0.199155 10.82801,0.684528 2.3433,0.285456 4.86395,0.459481 7.12527,-0.280241 2.40078,-1.245009 7.36939,-4.566739 4.04495,-7.249796 -1.78552,-1.796908 -4.05481,-2.64479 -6.44079,-3.142585 0.76144,-1.608611 1.57086,-3.276826 2.95595,-4.231636 4.48622,-5.403099 8.25041,-11.31286 11.5747,-17.486598 1.79809,-3.176915 4.03912,-6.254111 5.00953,-9.801172 -0.009,-4.357626 -4.7301,-6.438805 -7.31201,-9.303378 -2.63151,-2.927069 -9.06477,-5.541654 -10.89022,-0.466593 -0.7052,3.979182 -4.62208,4.795863 -7.80985,6.005166 -8.0671,2.901654 -16.15856,5.745979 -24.30072,8.432118 -0.18398,-7.72943 -0.404,-15.447716 -0.56006,-23.180607 5.93324,-1.84608 11.85362,-3.701786 17.79771,-5.507324 3.58524,0.786002 7.24354,1.851486 10.92133,0.964578 1.81578,0.287354 2.94936,-0.855564 3.85827,-2.20916 1.19014,-1.194129 2.11096,-2.406562 0.74674,-3.982738 -1.0093,-3.175114 -2.90118,-6.455212 -6.06743,-7.809804 -4.63094,-1.113091 -10.2698,-1.299065 -13.93944,2.271373 -3.41349,2.955616 -8.11385,3.21964 -12.19707,4.729478 -0.42439,0.124236 -0.85139,0.247997 -1.27568,0.373181 -0.0379,-3.805869 -0.0825,-7.619799 -0.0621,-11.419172 0.97363,-2.285646 1.82043,-4.5520398 -0.27977,-6.4719025 -2.96244,-0.9156429 -6.57992,-0.8979086 -9.80122,-1.3379482 l -9.58338,0 z M 569.33246,21.876196 c -1.4224,0.474181 -4.03585,0.07113 -4.26274,1.431314 -0.77386,4.639621 -2.49073,10.887141 -3.54706,16.366441 -7.91839,14.767741 -15.25236,29.861197 -23.86514,44.245373 -1.51074,2.86628 -3.38147,6.564272 -1.05794,9.552275 8.33619,-5.179381 16.05116,-10.221487 21.18928,-14.499545 0.0858,0.161696 0.17735,0.303476 0.27977,0.466594 2.30879,7.599599 0.58832,15.546583 0.37318,23.305082 -0.8962,14.53691 -3.77775,28.92236 -3.51595,43.52974 -0.34663,9.77319 0.16311,19.55876 1.12011,29.27914 1.47811,6.76489 3.38939,13.65588 6.93863,19.63349 2.19176,4.13448 8.6014,2.4996 10.51686,-0.96457 3.78638,-4.91821 5.56645,-11.68623 3.57821,-17.70439 -1.70705,-6.85542 -2.39399,-13.86016 -2.42695,-20.90919 -0.26744,-10.65233 -1.12338,-21.335 -0.809,-31.98614 0.89952,-12.80923 1.55176,-25.647961 1.58685,-38.489153 2.51178,-4.085351 3.89862,-9.912462 0.0934,-13.721651 -1.81872,-1.067096 -3.74716,-2.607424 -5.75627,-3.702687 4.2691,-4.017922 8.65413,-7.888944 13.53497,-11.170227 2.36199,-2.43468 6.30314,-0.819384 8.15211,-4.013844 2.10769,-3.268717 1.89734,-7.68424 0.15553,-11.108015 -1.18754,-3.060456 -1.97131,-6.372751 -4.38721,-8.774381 -2.01589,-1.998197 -3.59595,-4.513679 -5.94296,-6.129639 -3.87396,-1.774289 -7.80804,-3.55351 -11.94812,-4.636112 z m 109.68003,36.591148 c 1.15221,-0.155057 0.77296,0.989662 0.40448,2.115794 l -5.78738,23.522871 c -2.19602,-0.242781 -4.38162,-0.369387 -6.56527,0.217649 -4.41092,0.825358 -8.86907,1.493574 -13.31717,2.053581 0.46944,-6.60363 0.93006,-13.21148 1.15126,-19.820183 4.82702,-1.399876 9.5914,-2.970078 14.12618,-5.196167 3.03001,-1.25454 6.03523,-2.841243 9.39669,-2.738109 0.23188,-0.07871 0.42676,-0.133244 0.59116,-0.155531 z"
         id="path3888" />
    </g>
  </g>
</svg>
