<?xml version="1.0" encoding="UTF-8" standalone="no"?>
<!-- Created with Inkscape (http://www.inkscape.org/) -->

<svg
   xmlns:dc="http://purl.org/dc/elements/1.1/"
   xmlns:cc="http://creativecommons.org/ns#"
   xmlns:rdf="http://www.w3.org/1999/02/22-rdf-syntax-ns#"
   xmlns:svg="http://www.w3.org/2000/svg"
   xmlns="http://www.w3.org/2000/svg"
   xmlns:sodipodi="http://sodipodi.sourceforge.net/DTD/sodipodi-0.dtd"
   xmlns:inkscape="http://www.inkscape.org/namespaces/inkscape"
   width="1000"
   height="1000"
   id="svg3173"
   version="1.1"
   inkscape:version="0.47 r22583"
   sodipodi:docname="4ff1.svg"
   inkscape:export-filename="E:\chinese\yan\4ff1.png"
   inkscape:export-xdpi="18.005705"
   inkscape:export-ydpi="18.005705">
  <title
     id="title4294">Ju</title>
  <defs
     id="defs3175">
    <inkscape:perspective
       sodipodi:type="inkscape:persp3d"
       inkscape:vp_x="0 : 526.18109 : 1"
       inkscape:vp_y="0 : 1000 : 0"
       inkscape:vp_z="744.09448 : 526.18109 : 1"
       inkscape:persp3d-origin="372.04724 : 350.78739 : 1"
       id="perspective3181" />
    <inkscape:perspective
       id="perspective3191"
       inkscape:persp3d-origin="0.5 : 0.33333333 : 1"
       inkscape:vp_z="1 : 0.5 : 1"
       inkscape:vp_y="0 : 1000 : 0"
       inkscape:vp_x="0 : 0.5 : 1"
       sodipodi:type="inkscape:persp3d" />
    <inkscape:perspective
       id="perspective4006"
       inkscape:persp3d-origin="0.5 : 0.33333333 : 1"
       inkscape:vp_z="1 : 0.5 : 1"
       inkscape:vp_y="0 : 1000 : 0"
       inkscape:vp_x="0 : 0.5 : 1"
       sodipodi:type="inkscape:persp3d" />
    <inkscape:perspective
       id="perspective4034"
       inkscape:persp3d-origin="0.5 : 0.33333333 : 1"
       inkscape:vp_z="1 : 0.5 : 1"
       inkscape:vp_y="0 : 1000 : 0"
       inkscape:vp_x="0 : 0.5 : 1"
       sodipodi:type="inkscape:persp3d" />
    <inkscape:perspective
       id="perspective4081"
       inkscape:persp3d-origin="0.5 : 0.33333333 : 1"
       inkscape:vp_z="1 : 0.5 : 1"
       inkscape:vp_y="0 : 1000 : 0"
       inkscape:vp_x="0 : 0.5 : 1"
       sodipodi:type="inkscape:persp3d" />
    <inkscape:perspective
       id="perspective4147"
       inkscape:persp3d-origin="0.5 : 0.33333333 : 1"
       inkscape:vp_z="1 : 0.5 : 1"
       inkscape:vp_y="0 : 1000 : 0"
       inkscape:vp_x="0 : 0.5 : 1"
       sodipodi:type="inkscape:persp3d" />
    <inkscape:perspective
       id="perspective3758"
       inkscape:persp3d-origin="0.5 : 0.33333333 : 1"
       inkscape:vp_z="1 : 0.5 : 1"
       inkscape:vp_y="0 : 1000 : 0"
       inkscape:vp_x="0 : 0.5 : 1"
       sodipodi:type="inkscape:persp3d" />
    <inkscape:perspective
       id="perspective3719"
       inkscape:persp3d-origin="0.5 : 0.33333333 : 1"
       inkscape:vp_z="1 : 0.5 : 1"
       inkscape:vp_y="0 : 1000 : 0"
       inkscape:vp_x="0 : 0.5 : 1"
       sodipodi:type="inkscape:persp3d" />
    <inkscape:perspective
       id="perspective3803"
       inkscape:persp3d-origin="0.5 : 0.33333333 : 1"
       inkscape:vp_z="1 : 0.5 : 1"
       inkscape:vp_y="0 : 1000 : 0"
       inkscape:vp_x="0 : 0.5 : 1"
       sodipodi:type="inkscape:persp3d" />
    <inkscape:perspective
       id="perspective3810"
       inkscape:persp3d-origin="0.5 : 0.33333333 : 1"
       inkscape:vp_z="1 : 0.5 : 1"
       inkscape:vp_y="0 : 1000 : 0"
       inkscape:vp_x="0 : 0.5 : 1"
       sodipodi:type="inkscape:persp3d" />
    <inkscape:perspective
       id="perspective3838"
       inkscape:persp3d-origin="0.5 : 0.33333333 : 1"
       inkscape:vp_z="1 : 0.5 : 1"
       inkscape:vp_y="0 : 1000 : 0"
       inkscape:vp_x="0 : 0.5 : 1"
       sodipodi:type="inkscape:persp3d" />
    <inkscape:perspective
       id="perspective3869"
       inkscape:persp3d-origin="0.5 : 0.33333333 : 1"
       inkscape:vp_z="1 : 0.5 : 1"
       inkscape:vp_y="0 : 1000 : 0"
       inkscape:vp_x="0 : 0.5 : 1"
       sodipodi:type="inkscape:persp3d" />
    <inkscape:perspective
       id="perspective3896"
       inkscape:persp3d-origin="0.5 : 0.33333333 : 1"
       inkscape:vp_z="1 : 0.5 : 1"
       inkscape:vp_y="0 : 1000 : 0"
       inkscape:vp_x="0 : 0.5 : 1"
       sodipodi:type="inkscape:persp3d" />
  </defs>
  <sodipodi:namedview
     id="base"
     pagecolor="#ffffff"
     bordercolor="#666666"
     borderopacity="1.0"
     inkscape:pageopacity="0.0"
     inkscape:pageshadow="2"
     inkscape:zoom="0.49497475"
     inkscape:cx="571.51329"
     inkscape:cy="512.69615"
     inkscape:document-units="px"
     inkscape:current-layer="g4143"
     showgrid="false"
     inkscape:window-width="1440"
     inkscape:window-height="840"
     inkscape:window-x="-4"
     inkscape:window-y="-4"
     inkscape:window-maximized="1" />
  <metadata
     id="metadata3178">
    <rdf:RDF>
      <cc:Work
         rdf:about="">
        <dc:format>image/svg+xml</dc:format>
        <dc:type
           rdf:resource="http://purl.org/dc/dcmitype/StillImage" />
        <dc:title>Ju</dc:title>
        <dc:date>2010-08-13</dc:date>
        <dc:creator>
          <cc:Agent>
            <dc:title>Alex Amies</dc:title>
          </cc:Agent>
        </dc:creator>
        <dc:rights>
          <cc:Agent>
            <dc:title>@ Alex Amies 2010</dc:title>
          </cc:Agent>
        </dc:rights>
        <dc:publisher>
          <cc:Agent>
            <dc:title>chinesenotes.com</dc:title>
          </cc:Agent>
        </dc:publisher>
        <dc:source>Yan Qin Ceremonial Inscription</dc:source>
        <dc:language>Chinese 中文</dc:language>
        <dc:description>Tracing from Tang Dynasty Ceremonial Inscription by Yan Zhenqing 颜真卿 (709－785)</dc:description>
        <cc:license
           rdf:resource="http://creativecommons.org/licenses/by/3.0/" />
      </cc:Work>
      <cc:License
         rdf:about="http://creativecommons.org/licenses/by/3.0/">
        <cc:permits
           rdf:resource="http://creativecommons.org/ns#Reproduction" />
        <cc:permits
           rdf:resource="http://creativecommons.org/ns#Distribution" />
        <cc:requires
           rdf:resource="http://creativecommons.org/ns#Notice" />
        <cc:requires
           rdf:resource="http://creativecommons.org/ns#Attribution" />
        <cc:permits
           rdf:resource="http://creativecommons.org/ns#DerivativeWorks" />
      </cc:License>
    </rdf:RDF>
  </metadata>
  <g
     inkscape:label="Layer 1"
     inkscape:groupmode="layer"
     id="layer1"
     transform="translate(0,-52.362183)">
    <g
       transform="matrix(4.7609464,0,0,4.7609464,-1421.6669,-3910.0295)"
       id="g4143"
       style="fill:#000000;fill-opacity:1">
      <g
         transform="matrix(0.99597986,0,0,0.99597986,-31.640965,816.78329)"
         id="g10747"
         style="fill:none;fill-opacity:1">
        <path
           style="fill:#000000;stroke:#000000;stroke-width:4.74180651000000000px;stroke-linecap:butt;stroke-linejoin:miter;stroke-opacity:1;fill-opacity:1"
           d="M 215.25 23.71875 C 205.86103 23.714142 196.95268 27.465792 193.84375 37.375 C 191.1918 57.404581 190.78457 77.904446 180.9375 96.3125 C 154.17375 164.39097 119.40708 228.98266 84.125 292.9375 C 66.309937 323.74205 45.473904 352.87582 29.28125 384.5625 C 39.984551 395.36193 63.435848 386.18811 72.53125 374.71875 C 103.33685 344.80495 136.66043 317.51241 169.65625 289.90625 C 169.85466 299.67968 170.77861 309.56778 169.96875 317.625 C 176.14097 458.37765 171.33814 599.36621 160.0625 739.84375 C 159.54157 786.70295 142.69635 834.85134 161.15625 880.5 C 174.35341 903.61394 173.19907 946.06456 205.84375 949.5625 C 231.82496 941.13247 231.01727 906.05222 228.21875 883.34375 C 218.38439 838.28516 220.67728 791.71357 219.125 745.875 C 218.78786 641.12474 224.12843 536.39258 231.40625 431.9375 C 236.33882 389.96257 238.70961 352.28141 233.0625 302.5625 C 227.95033 283.63259 230.17624 258.85564 215.53125 250.59375 C 241.99519 227.03 267.34013 202.30036 289.96875 174.75 C 302.34956 162.39947 317.04318 144.24489 306.65625 126.125 C 296.34974 108.80553 282.1787 93.964741 273.65625 75.46875 C 263.56279 57.465215 252.76056 37.795341 233.5 28.21875 C 228.31357 25.483076 221.67403 23.721903 215.25 23.71875 z "
           transform="matrix(0.21089008,0,0,0.21089008,331.58413,15.548972)"
           id="path10715" />
        <path
           style="fill:#000000;stroke:#000000;stroke-width:4.74180651000000000px;stroke-linecap:butt;stroke-linejoin:miter;stroke-opacity:1;fill-opacity:1"
           d="M 664.65625 36.5625 C 615.5788 36.764535 569.50112 59.017083 525.9375 79.71875 C 521.91413 83.33555 519.2722 88.368305 518.03125 93.78125 C 515.06704 95.026553 512.29856 96.547241 510.6875 98.34375 C 504.00914 105.79085 502.34175 117.15403 502.21875 127.15625 C 501.24516 206.33257 493.75 367.625 493.75 367.625 L 490.375 601.3125 L 510.6875 625.03125 L 536.09375 625.03125 L 539.5 596.25 L 541.09375 529.5625 C 546.18689 530.84488 551.78212 530.49526 556.875 529.40625 C 587.06153 525.91348 617.58383 520.85042 645.25 507.65625 C 660.0524 493.80776 706.74543 500.80747 705.3125 476 C 702.78668 460.05743 686.59597 450.3158 671.53125 448.96875 C 634.36819 453.86405 598.12498 471.45734 564 486.8125 C 557.3279 489.96463 548.86443 492.89805 541.90625 496.8125 L 544.125 404.09375 C 544.24679 404.11486 544.3791 404.13606 544.5 404.15625 C 580.91722 401.50729 622.45146 377.98971 647.5625 350.53125 C 653.29093 344.18885 659.0265 335.10649 654.96875 326.40625 C 650.82948 316.44665 639.17996 312.72327 629.1875 313.875 C 617.11642 314.68316 605.81541 320.33677 597.1875 328.6875 C 586.56282 338.53429 577.03275 350.07966 563.71875 356.46875 C 557.55394 359.76091 551.04054 362.654 545.03125 366.28125 L 547.25 275.03125 C 547.52811 275.07788 547.81924 275.14624 548.09375 275.1875 C 584.68423 275.89054 625.57632 256.10283 655.84375 235.15625 C 668.59428 225.80186 680.55847 205.80308 669.6875 191.15625 C 662.40646 185.96499 652.60512 187.18601 644.4375 189.28125 C 625.3347 195.45665 612.92217 213.38451 593.84375 219.6875 C 578.99129 225.28842 562.17098 226.92735 548.21875 234.59375 L 549.65625 174.5625 L 554.71875 133.90625 L 554.71875 122.5 C 572.6194 116.30127 588.13285 102.78098 606.71875 97.71875 C 628.67199 93.833058 647.32053 73.240774 668.5 74.375 C 690.42711 95.114966 696.1846 127.72609 701.9375 156.3125 C 719.29365 246.30684 719.4895 338.60844 716.15625 429.875 C 714.98417 487.17736 695.44358 543.4117 701.5625 600.90625 C 703.17159 606.21231 706.03004 610.63017 709.6875 614.15625 C 690.42783 614.00009 671.24082 614.37951 652.59375 617.71875 C 649.14323 618.39953 645.6966 619.08196 642.25 619.78125 C 641.41454 604.92228 638.93684 590.21908 633.9375 575.96875 C 624.09128 551.20263 591.51271 551.81912 571.6875 563.28125 L 569.96875 564.0625 C 550.06611 566.19461 546.95658 585.38834 557.21875 599.5625 C 559.84608 611.8587 562.16614 624.44895 563.84375 637.125 C 515.71702 648.52184 467.83821 661.0006 419.96875 673.34375 C 377.57154 684.98033 334.11609 699.47349 289.59375 693.40625 C 285.37838 693.40151 281.14458 693.66933 277 694.46875 C 241.86947 696.79612 268.52255 735.31879 284 746.78125 C 301.03096 761.85929 314.1385 791.64611 341.65625 784.875 C 365.88418 774.7299 379.86401 748.88436 405.875 740.28125 C 457.02723 714.97136 511.1004 697.39753 566.5 684.9375 C 565.75528 706.58374 561.9408 727.94002 553.46875 748.25 C 535.74122 787.8466 508.07185 822.60066 476.5625 852.125 C 453.84156 872.09313 428.92268 889.42534 406.5625 909.8125 C 389.56971 912.83336 388.3238 934.60098 407.53125 930.1875 C 452.75827 917.66197 481.43433 891.38984 517.25 870.46875 C 549.69975 850.5947 581.53043 828.56005 607.125 800.15625 C 630.07307 772.46656 628.59574 734.52534 635.40625 701.09375 C 637.02485 691.28145 638.58963 681.30892 639.84375 671.28125 C 680.2284 665.18237 720.9475 661.12917 761.40625 658.125 C 798.78795 655.54432 839.17623 653.84236 872.28125 674.4375 C 897.49965 684.86317 924.91194 698.53781 952.78125 692.84375 C 974.22398 681.11712 966.07122 651.38759 954.96875 634.96875 C 940.62621 608.11272 915.55261 590.08113 891.21875 573 C 865.12748 554.3969 849.40918 581.96844 834.28125 596.25 C 811.58 608.72266 787.27889 612.83072 762.40625 614.03125 C 763.21599 613.22367 763.99014 612.40542 764.71875 611.5 C 768.43362 588.71638 766.6934 564.49087 770.09375 541.21875 C 781.14662 408.6164 796.73291 274.87697 781.46875 141.96875 C 776.83913 107.74579 760.62608 74.923971 736.625 50.3125 C 717.77238 41.234994 695.20534 40.514003 674.53125 36.84375 C 671.23265 36.654214 667.92808 36.549031 664.65625 36.5625 z M 712.21875 714.78125 C 701.76534 721.52775 699.56439 740.00232 711.3125 746.78125 C 767.24173 797.36533 807.84682 867.37946 829.3125 939.875 C 833.6192 954.76314 843.61217 969.84119 859.875 972.84375 C 881.81667 978.92289 903.60858 961.95771 911.34375 942.25 C 917.43161 923.58075 908.20527 904.82686 903.90625 886.8125 C 880.16379 817.02776 823.79037 754.80133 755.75 725.4375 C 743.37327 720.58877 726.98455 714.61263 712.21875 714.78125 z "
           transform="matrix(0.21089008,0,0,0.21089008,331.58413,15.548972)"
           id="path10722" />
      </g>
    </g>
  </g>
</svg>
