<?xml version="1.0" encoding="UTF-8" standalone="no"?>
<!-- Created with Inkscape (http://www.inkscape.org/) -->

<svg
   xmlns:dc="http://purl.org/dc/elements/1.1/"
   xmlns:cc="http://creativecommons.org/ns#"
   xmlns:rdf="http://www.w3.org/1999/02/22-rdf-syntax-ns#"
   xmlns:svg="http://www.w3.org/2000/svg"
   xmlns="http://www.w3.org/2000/svg"
   xmlns:sodipodi="http://sodipodi.sourceforge.net/DTD/sodipodi-0.dtd"
   xmlns:inkscape="http://www.inkscape.org/namespaces/inkscape"
   width="1000"
   height="1000"
   id="svg3173"
   version="1.1"
   inkscape:version="0.47 r22583"
   sodipodi:docname="501c.svg"
   inkscape:export-filename="E:\chinese\yan\501c.png"
   inkscape:export-xdpi="18.005705"
   inkscape:export-ydpi="18.005705">
  <title
     id="title3712">Ti</title>
  <defs
     id="defs3175">
    <inkscape:perspective
       sodipodi:type="inkscape:persp3d"
       inkscape:vp_x="0 : 526.18109 : 1"
       inkscape:vp_y="0 : 1000 : 0"
       inkscape:vp_z="744.09448 : 526.18109 : 1"
       inkscape:persp3d-origin="372.04724 : 350.78739 : 1"
       id="perspective3181" />
    <inkscape:perspective
       id="perspective3191"
       inkscape:persp3d-origin="0.5 : 0.33333333 : 1"
       inkscape:vp_z="1 : 0.5 : 1"
       inkscape:vp_y="0 : 1000 : 0"
       inkscape:vp_x="0 : 0.5 : 1"
       sodipodi:type="inkscape:persp3d" />
    <inkscape:perspective
       id="perspective4006"
       inkscape:persp3d-origin="0.5 : 0.33333333 : 1"
       inkscape:vp_z="1 : 0.5 : 1"
       inkscape:vp_y="0 : 1000 : 0"
       inkscape:vp_x="0 : 0.5 : 1"
       sodipodi:type="inkscape:persp3d" />
    <inkscape:perspective
       id="perspective4034"
       inkscape:persp3d-origin="0.5 : 0.33333333 : 1"
       inkscape:vp_z="1 : 0.5 : 1"
       inkscape:vp_y="0 : 1000 : 0"
       inkscape:vp_x="0 : 0.5 : 1"
       sodipodi:type="inkscape:persp3d" />
    <inkscape:perspective
       id="perspective4081"
       inkscape:persp3d-origin="0.5 : 0.33333333 : 1"
       inkscape:vp_z="1 : 0.5 : 1"
       inkscape:vp_y="0 : 1000 : 0"
       inkscape:vp_x="0 : 0.5 : 1"
       sodipodi:type="inkscape:persp3d" />
    <inkscape:perspective
       id="perspective4147"
       inkscape:persp3d-origin="0.5 : 0.33333333 : 1"
       inkscape:vp_z="1 : 0.5 : 1"
       inkscape:vp_y="0 : 1000 : 0"
       inkscape:vp_x="0 : 0.5 : 1"
       sodipodi:type="inkscape:persp3d" />
    <inkscape:perspective
       id="perspective3737"
       inkscape:persp3d-origin="0.5 : 0.33333333 : 1"
       inkscape:vp_z="1 : 0.5 : 1"
       inkscape:vp_y="0 : 1000 : 0"
       inkscape:vp_x="0 : 0.5 : 1"
       sodipodi:type="inkscape:persp3d" />
    <inkscape:perspective
       id="perspective3836"
       inkscape:persp3d-origin="0.5 : 0.33333333 : 1"
       inkscape:vp_z="1 : 0.5 : 1"
       inkscape:vp_y="0 : 1000 : 0"
       inkscape:vp_x="0 : 0.5 : 1"
       sodipodi:type="inkscape:persp3d" />
    <inkscape:perspective
       id="perspective3775"
       inkscape:persp3d-origin="0.5 : 0.33333333 : 1"
       inkscape:vp_z="1 : 0.5 : 1"
       inkscape:vp_y="0 : 1000 : 0"
       inkscape:vp_x="0 : 0.5 : 1"
       sodipodi:type="inkscape:persp3d" />
  </defs>
  <sodipodi:namedview
     id="base"
     pagecolor="#ffffff"
     bordercolor="#666666"
     borderopacity="1.0"
     inkscape:pageopacity="0.0"
     inkscape:pageshadow="2"
     inkscape:zoom="0.49497475"
     inkscape:cx="509.92372"
     inkscape:cy="482.85714"
     inkscape:document-units="px"
     inkscape:current-layer="g4264"
     showgrid="false"
     inkscape:window-width="1440"
     inkscape:window-height="840"
     inkscape:window-x="-4"
     inkscape:window-y="-4"
     inkscape:window-maximized="1" />
  <metadata
     id="metadata3178">
    <rdf:RDF>
      <cc:Work
         rdf:about="">
        <dc:format>image/svg+xml</dc:format>
        <dc:type
           rdf:resource="http://purl.org/dc/dcmitype/StillImage" />
        <dc:title>Ti</dc:title>
        <dc:date>2010-08-09</dc:date>
        <dc:creator>
          <cc:Agent>
            <dc:title>Alex Amies</dc:title>
          </cc:Agent>
        </dc:creator>
        <dc:rights>
          <cc:Agent>
            <dc:title>@ Alex Amies 2010</dc:title>
          </cc:Agent>
        </dc:rights>
        <dc:publisher>
          <cc:Agent>
            <dc:title>chinesenotes.com</dc:title>
          </cc:Agent>
        </dc:publisher>
        <dc:source>Yan Qin Ceremonial Inscription</dc:source>
        <dc:language>Chinese 中文</dc:language>
        <dc:description>Tracing from Tang Dynasty Ceremonial Inscription by Yan Zhenqing 颜真卿 (709－785)</dc:description>
        <cc:license
           rdf:resource="http://creativecommons.org/licenses/by/3.0/" />
      </cc:Work>
      <cc:License
         rdf:about="http://creativecommons.org/licenses/by/3.0/">
        <cc:permits
           rdf:resource="http://creativecommons.org/ns#Reproduction" />
        <cc:permits
           rdf:resource="http://creativecommons.org/ns#Distribution" />
        <cc:requires
           rdf:resource="http://creativecommons.org/ns#Notice" />
        <cc:requires
           rdf:resource="http://creativecommons.org/ns#Attribution" />
        <cc:permits
           rdf:resource="http://creativecommons.org/ns#DerivativeWorks" />
      </cc:License>
    </rdf:RDF>
  </metadata>
  <g
     inkscape:label="Layer 1"
     inkscape:groupmode="layer"
     id="layer1"
     transform="translate(0,-52.362183)">
    <g
       transform="matrix(4.7609464,0,0,4.7609464,-696.12274,-2965.6673)"
       id="g4264"
       style="fill:none;fill-opacity:1">
      <g
         transform="matrix(0.99798993,0,0,0.99798993,48.898247,-3.141422)"
         id="g4799"
         style="fill:none;fill-opacity:1">
        <path
           id="path4755"
           d="m 148.57143,663.43361 c -1.46734,-0.64087 -4.00676,-0.41748 -5,0.71429 -2.19319,2.49908 -2.77458,6.90721 -3.19253,10.6104 -5.93674,16.8909 -15.08148,32.95499 -23.43804,48.84633 -1.09832,2.04949 -4.6141,4.51881 -3.72657,5.90041 1.59479,2.48258 6.89061,-0.16176 10.20245,-1.95273 14.89224,-14.55078 30.01604,-29.76801 43.36897,-46.6187 0.42444,-3.53457 -3.65324,-5.82723 -6.37778,-8.07282 -3.89167,-3.20755 -7.43298,-7.50389 -11.8365,-9.42718 z"
           style="fill:#000000;fill-opacity:1;stroke:#000000;stroke-width:1px;stroke-linecap:butt;stroke-linejoin:miter;stroke-opacity:1"
           sodipodi:nodetypes="csccsccss" />
        <path
           id="path4757"
           d="m 141.07143,716.29075 c -4.72041,1.6674 -4.06451,6.99495 -3.94647,11.18986 0.86944,18.17838 -3.82512,36.12528 -3.83432,54.2333 2.22006,12.00881 -1.07176,38.32723 9.3875,46.92976 2.32303,1.31741 5.03007,1.04761 7.5533,1.1931 3.16971,-1.64411 5.01892,-4.73418 4.86524,-8.35046 -2.08723,-12.41753 -5.80299,-23.95136 -5.91105,-36.59256 -0.89122,-19.20202 4.40861,-40.09232 -0.32088,-59.00655 -1.17051,-3.41143 -1.64347,-8.03161 -5.04657,-9.59645 -0.81381,-0.37421 -1.89233,-0.30181 -2.74675,0 z"
           style="fill:#000000;fill-opacity:1;stroke:#000000;stroke-width:1px;stroke-linecap:butt;stroke-linejoin:miter;stroke-opacity:1"
           sodipodi:nodetypes="ccccccccss" />
        <path
           id="path4759"
           d="m 173.57143,695.57647 c -6.10155,-0.63274 -6.97185,5.57886 -5.40547,10.1804 1.19092,7.08921 4.1263,14.04705 3.03997,21.35307 0.35139,28.07908 -2.04529,55.6831 -9.97834,82.68811 -1.17055,5.12078 -4.04878,10.26581 -2.4391,15.58407 3.63906,4.52216 5.43421,-3.04142 7.56868,-5.35408 11.18434,-18.04354 17.56379,-38.92757 17.93897,-60.1965 0.52321,-19.71296 -0.7328,-39.56843 0.70386,-59.25507 -3.63634,-2.11872 -7.23533,-4.21921 -11.42857,-5 z"
           style="fill:#000000;fill-opacity:1;stroke:#000000;stroke-width:1px;stroke-linecap:butt;stroke-linejoin:miter;stroke-opacity:1"
           sodipodi:nodetypes="ccccccccc" />
        <path
           id="path4761"
           d="m 183.92857,673.67111 c -0.01,2.56573 0.96679,5.74425 3.8914,6.10477 13.84483,-2.86847 27.31902,-9.35269 41.37651,-12.54395 9.6726,-2.21849 19.34521,-4.43697 29.01781,-6.65546 7.21688,4.55161 5.58239,16.97121 6.32169,24.43175 -1.91259,35.44846 14.3328,84.48289 8.1682,118.57821 -0.4075,3.13168 -3.12207,4.05086 -5.68238,5.11797 -2.30774,1.4039 -5.79742,-1.40416 -7.37894,1.51493 4.09132,6.80832 8.23126,13.59204 10.97412,21.08246 1.42133,4.81214 7.80135,8.85921 12.42834,5.80283 4.86002,-4.88346 8.43335,-12.53094 7.92566,-19.51931 -0.54754,-15.8899 -0.16432,-31.82094 -0.82858,-47.69265 -2.65464,-22.53608 -5.7148,-45.03673 -8.11572,-67.59498 -1.05323,-15.97586 -0.98197,-32.13004 -3.76092,-47.90799 -2.00946,-8.06562 -8.28289,-8.50625 -15.8167,-7.92886 -4.84925,2.19804 -9.77493,4.1471 -15.09447,4.81328 -20.59668,3.16155 -40.38928,9.17931 -60.21173,15.37383 -2.29933,-0.15548 -3.18496,4.35299 -3.21429,7.02317 z"
           style="fill:#000000;fill-opacity:1;stroke:#000000;stroke-width:1px;stroke-linecap:butt;stroke-linejoin:miter;stroke-opacity:1"
           sodipodi:nodetypes="cccccccccccccccccc" />
        <path
           style="fill:#000000;fill-opacity:1;stroke:#000000;stroke-width:4.75137663000000020px;stroke-linecap:butt;stroke-linejoin:miter;stroke-opacity:1"
           d="M 605.375 168.125 C 600.7054 168.11877 595.87061 168.55671 591.59375 168.8125 C 581.66751 170.45191 571.65715 170.13643 563.3125 175.25 C 561.62707 195.42299 560.80115 215.89194 560.53125 236.5 C 538.82106 242.75747 517.25236 249.50897 495.84375 255.53125 C 485.83702 257.44311 480.16385 263.89754 478.46875 273.65625 C 485.83562 286.95051 502.2393 293.58992 517.0625 294.40625 C 531.78367 295.71381 546.45461 295.17057 561.0625 293.46875 C 561.61599 312.7657 562.46661 332.02204 563.4375 351.0625 C 565.22716 355.94992 567.52045 361.05645 570.09375 365.9375 C 543.55528 375.03636 518.15712 386.58921 495.4375 402.625 C 491.42116 406.23643 489.54462 415.86382 492.03125 419.59375 C 495.20104 424.34845 505.62057 428.84999 512.40625 428.0625 C 524.38442 426.67244 535.51738 414.83554 548.1875 412.59375 C 591.42118 400.14429 636.70385 407.09956 680.40625 402.625 C 699.04129 399.01804 709.84851 384.89851 712.46875 366.71875 C 715.09446 350.18629 707.65913 339.80128 692.28125 334.75 C 671.91789 339.54846 650.89812 343.99776 629.90625 349.03125 C 631.16284 325.43259 635.05635 301.07927 637.90625 276.8125 C 644.60556 274.98289 651.26829 273.16008 657.90625 271.375 C 678.04068 267.39382 686.55308 257.21441 690.59375 238.03125 C 691.56716 222.74104 674.31038 217.09524 661.5 216 C 654.56626 216.51386 647.65262 217.2586 640.75 218.21875 C 640.51746 214.05 640.19475 209.89752 639.6875 205.78125 C 636.87065 193.70487 630.09537 178.71533 621 171.84375 C 617.10453 168.90074 611.37878 168.133 605.375 168.125 z "
           transform="matrix(0.21046532,0,0,0.21046532,97.512963,638.3383)"
           id="path4763" />
        <path
           style="fill:#000000;stroke:#000000;stroke-width:4.75137663000000020px;stroke-linecap:butt;stroke-linejoin:miter;stroke-opacity:1;fill-opacity:1"
           d="M 713.25 480.96875 C 698.66413 480.95857 684.08257 482.48597 669.65625 485.625 C 626.70062 494.97172 581.96298 499.47525 539.5625 507.84375 C 536.25161 509.24287 533.22229 511.24796 530.65625 513.65625 C 516.56162 506.41595 499.41105 507.56615 483.5625 511.21875 C 479.27951 512.50252 474.46858 518.4441 475.0625 523.09375 C 479.3098 556.34312 487.16687 591.58347 493.125 625.84375 C 496.83084 646.85895 496.90037 672.92106 512.40625 689.40625 C 522.01554 692.52501 532.5793 690.45569 541.625 685.78125 C 545.64814 694.25935 553.38223 701.38944 562 703.4375 C 585.46258 709.50325 610.5407 706.51865 634 701.6875 C 639.96404 699.75111 645.1985 696.47102 650.25 692.84375 C 649.99983 699.27102 648.83101 707.86865 653.25 711.46875 C 665.42906 721.39081 687.13679 715.66317 698.625 702.5 C 726.85887 657.54186 743.42723 603.74074 757.8125 552.71875 C 764.22615 529.84144 771.76243 497.46974 747.1875 483.75 C 735.93897 481.91521 724.59456 480.97667 713.25 480.96875 z M 670 527.09375 C 671.94291 526.97789 673.7345 527.25631 675.3125 528.1875 C 689.33039 536.4595 676.94334 557.63832 673.03125 572.15625 C 667.02169 599.21497 660.56394 626.64257 655.71875 654.1875 C 649.50778 651.03971 641.82217 650.04953 634.625 651.96875 C 609.26685 650.65744 584.18294 654.60325 559.0625 657.40625 C 559.75039 653.15667 560.05325 648.82128 559.90625 644.5625 C 558.44593 613.52941 560.29472 580.66265 552.59375 550.46875 C 584.13769 545.6785 618.63873 540.6197 651.0625 532.875 C 657.06406 531.4415 664.17127 527.44133 670 527.09375 z "
           transform="matrix(0.21046532,0,0,0.21046532,97.512963,638.3383)"
           id="path4769" />
      </g>
    </g>
  </g>
</svg>
