<?xml version="1.0" encoding="UTF-8" standalone="no"?>
<!-- Created with Inkscape (http://www.inkscape.org/) -->

<svg
   xmlns:dc="http://purl.org/dc/elements/1.1/"
   xmlns:cc="http://creativecommons.org/ns#"
   xmlns:rdf="http://www.w3.org/1999/02/22-rdf-syntax-ns#"
   xmlns:svg="http://www.w3.org/2000/svg"
   xmlns="http://www.w3.org/2000/svg"
   xmlns:sodipodi="http://sodipodi.sourceforge.net/DTD/sodipodi-0.dtd"
   xmlns:inkscape="http://www.inkscape.org/namespaces/inkscape"
   width="1000"
   height="1000"
   id="svg3173"
   version="1.1"
   inkscape:version="0.47 r22583"
   sodipodi:docname="502b.svg"
   inkscape:export-filename="E:\chinese\yan\502b.png"
   inkscape:export-xdpi="18.005705"
   inkscape:export-ydpi="18.005705">
  <title
     id="title3648">Lun</title>
  <defs
     id="defs3175">
    <inkscape:perspective
       sodipodi:type="inkscape:persp3d"
       inkscape:vp_x="0 : 526.18109 : 1"
       inkscape:vp_y="0 : 1000 : 0"
       inkscape:vp_z="744.09448 : 526.18109 : 1"
       inkscape:persp3d-origin="372.04724 : 350.78739 : 1"
       id="perspective3181" />
    <inkscape:perspective
       id="perspective3191"
       inkscape:persp3d-origin="0.5 : 0.33333333 : 1"
       inkscape:vp_z="1 : 0.5 : 1"
       inkscape:vp_y="0 : 1000 : 0"
       inkscape:vp_x="0 : 0.5 : 1"
       sodipodi:type="inkscape:persp3d" />
    <inkscape:perspective
       id="perspective4006"
       inkscape:persp3d-origin="0.5 : 0.33333333 : 1"
       inkscape:vp_z="1 : 0.5 : 1"
       inkscape:vp_y="0 : 1000 : 0"
       inkscape:vp_x="0 : 0.5 : 1"
       sodipodi:type="inkscape:persp3d" />
    <inkscape:perspective
       id="perspective4034"
       inkscape:persp3d-origin="0.5 : 0.33333333 : 1"
       inkscape:vp_z="1 : 0.5 : 1"
       inkscape:vp_y="0 : 1000 : 0"
       inkscape:vp_x="0 : 0.5 : 1"
       sodipodi:type="inkscape:persp3d" />
    <inkscape:perspective
       id="perspective4081"
       inkscape:persp3d-origin="0.5 : 0.33333333 : 1"
       inkscape:vp_z="1 : 0.5 : 1"
       inkscape:vp_y="0 : 1000 : 0"
       inkscape:vp_x="0 : 0.5 : 1"
       sodipodi:type="inkscape:persp3d" />
    <inkscape:perspective
       id="perspective4147"
       inkscape:persp3d-origin="0.5 : 0.33333333 : 1"
       inkscape:vp_z="1 : 0.5 : 1"
       inkscape:vp_y="0 : 1000 : 0"
       inkscape:vp_x="0 : 0.5 : 1"
       sodipodi:type="inkscape:persp3d" />
    <inkscape:perspective
       id="perspective3737"
       inkscape:persp3d-origin="0.5 : 0.33333333 : 1"
       inkscape:vp_z="1 : 0.5 : 1"
       inkscape:vp_y="0 : 1000 : 0"
       inkscape:vp_x="0 : 0.5 : 1"
       sodipodi:type="inkscape:persp3d" />
    <inkscape:perspective
       id="perspective3836"
       inkscape:persp3d-origin="0.5 : 0.33333333 : 1"
       inkscape:vp_z="1 : 0.5 : 1"
       inkscape:vp_y="0 : 1000 : 0"
       inkscape:vp_x="0 : 0.5 : 1"
       sodipodi:type="inkscape:persp3d" />
    <inkscape:perspective
       id="perspective3775"
       inkscape:persp3d-origin="0.5 : 0.33333333 : 1"
       inkscape:vp_z="1 : 0.5 : 1"
       inkscape:vp_y="0 : 1000 : 0"
       inkscape:vp_x="0 : 0.5 : 1"
       sodipodi:type="inkscape:persp3d" />
    <inkscape:perspective
       id="perspective3808"
       inkscape:persp3d-origin="0.5 : 0.33333333 : 1"
       inkscape:vp_z="1 : 0.5 : 1"
       inkscape:vp_y="0 : 1000 : 0"
       inkscape:vp_x="0 : 0.5 : 1"
       sodipodi:type="inkscape:persp3d" />
    <inkscape:perspective
       id="perspective3775-1"
       inkscape:persp3d-origin="0.5 : 0.33333333 : 1"
       inkscape:vp_z="1 : 0.5 : 1"
       inkscape:vp_y="0 : 1000 : 0"
       inkscape:vp_x="0 : 0.5 : 1"
       sodipodi:type="inkscape:persp3d" />
    <inkscape:perspective
       id="perspective3799"
       inkscape:persp3d-origin="0.5 : 0.33333333 : 1"
       inkscape:vp_z="1 : 0.5 : 1"
       inkscape:vp_y="0 : 1000 : 0"
       inkscape:vp_x="0 : 0.5 : 1"
       sodipodi:type="inkscape:persp3d" />
  </defs>
  <sodipodi:namedview
     id="base"
     pagecolor="#ffffff"
     bordercolor="#666666"
     borderopacity="1.0"
     inkscape:pageopacity="0.0"
     inkscape:pageshadow="2"
     inkscape:zoom="0.49497475"
     inkscape:cx="730.13697"
     inkscape:cy="507.1008"
     inkscape:document-units="px"
     inkscape:current-layer="g4264"
     showgrid="false"
     inkscape:window-width="1440"
     inkscape:window-height="840"
     inkscape:window-x="-4"
     inkscape:window-y="-4"
     inkscape:window-maximized="1" />
  <metadata
     id="metadata3178">
    <rdf:RDF>
      <cc:Work
         rdf:about="">
        <dc:format>image/svg+xml</dc:format>
        <dc:type
           rdf:resource="http://purl.org/dc/dcmitype/StillImage" />
        <dc:title>Lun</dc:title>
        <dc:date>2010-08-09</dc:date>
        <dc:creator>
          <cc:Agent>
            <dc:title>Alex Amies</dc:title>
          </cc:Agent>
        </dc:creator>
        <dc:rights>
          <cc:Agent>
            <dc:title>@ Alex Amies 2010</dc:title>
          </cc:Agent>
        </dc:rights>
        <dc:publisher>
          <cc:Agent>
            <dc:title>chinesenotes.com</dc:title>
          </cc:Agent>
        </dc:publisher>
        <dc:source>Yan Qin Ceremonial Inscription</dc:source>
        <dc:language>Chinese 中文</dc:language>
        <dc:description>Tracing from Tang Dynasty Ceremonial Inscription by Yan Zhenqing 颜真卿 (709－785)</dc:description>
        <cc:license
           rdf:resource="http://creativecommons.org/licenses/by/3.0/" />
      </cc:Work>
      <cc:License
         rdf:about="http://creativecommons.org/licenses/by/3.0/">
        <cc:permits
           rdf:resource="http://creativecommons.org/ns#Reproduction" />
        <cc:permits
           rdf:resource="http://creativecommons.org/ns#Distribution" />
        <cc:requires
           rdf:resource="http://creativecommons.org/ns#Notice" />
        <cc:requires
           rdf:resource="http://creativecommons.org/ns#Attribution" />
        <cc:permits
           rdf:resource="http://creativecommons.org/ns#DerivativeWorks" />
      </cc:License>
    </rdf:RDF>
  </metadata>
  <g
     inkscape:label="Layer 1"
     inkscape:groupmode="layer"
     id="layer1"
     transform="translate(0,-52.362183)">
    <g
       transform="matrix(4.7609464,0,0,4.7609464,-696.12274,-2965.6673)"
       id="g4264"
       style="fill:none;fill-opacity:1">
      <path
         style="fill:none;stroke:#000000;stroke-width:4.73223686px;stroke-linecap:butt;stroke-linejoin:miter;stroke-opacity:1"
         d="M 514.0625 81.5 C 496.20109 81.484788 481.08862 91.314456 487.5625 112.40625 C 492.60639 129.29571 491.84261 146.38238 487.59375 163.3125 C 452.39393 291.08097 350.49606 393.20938 277.15625 500.78125 C 261.75925 520.11103 270.25379 533.72651 306.125 515.3125 C 338.30112 494.77403 367.91719 471.91021 395.6875 447.15625 C 404.43539 459.34617 421.59216 465.40799 437.90625 464.25 C 444.95994 462.92331 451.99601 461.46224 459 459.90625 C 457.93754 460.73776 457.0969 461.68363 456.5625 462.78125 C 449.83628 476.59637 455.2226 498.76264 464.125 514.90625 C 465.48962 524.4672 466.64849 534.0856 467.65625 543.75 C 458.58327 546.25372 449.50165 548.67747 440.375 550.875 C 417.53182 552.69254 394.69553 554.6661 371.8125 553.125 C 358.52297 544.82022 339.24046 545.92277 323.03125 547.28125 C 317.7128 547.88913 310.51318 552.55334 309.5 557.4375 C 311.07364 593.82751 327.21198 630.12159 338 665.15625 C 346.40555 714.19443 346.7483 764.90581 349.0625 814.6875 C 352.29899 841.3966 375.88559 857.43771 401.34375 849.53125 C 422.41603 846.4732 422.04779 831.9823 418.625 813.625 C 408.4521 761.23093 398.66711 708.43769 392.125 655.4375 C 389.6179 635.12628 391.30172 613.78245 389.40625 593.46875 C 415.99173 593.23597 444.1486 586.9809 470.75 580.40625 C 472.78396 610.59317 473.71784 641.05574 474.53125 671.5 C 469.04351 673.35151 463.61425 675.33124 458.25 677.4375 C 453.3468 681.01554 446.18566 689.01311 448.09375 694.34375 C 451.39626 703.57004 463.23688 709.1191 475.625 710.53125 C 476.08598 725.76791 476.61173 740.96463 477.375 756.0625 C 478.66788 777.8424 477.75005 802.60919 485.28125 821.09375 C 489.62414 831.75299 507.22745 837.80551 519.71875 834.5625 C 534.88817 830.62405 532.58064 807.15548 527.5 794.46875 C 519.57926 774.68983 521.9796 753.05576 521.21875 732.25 C 519.68028 723.35478 518.4675 714.06438 517.5 704.5 C 540.12204 699.99307 562.90465 696.00402 585.53125 691.625 C 587.78531 761.8396 589.46475 832.12393 591.75 902.21875 C 610.95309 908.92373 605.02159 877.84605 612.71875 867.40625 C 627.62872 807.04265 628.60798 744.32895 629.9375 682.1875 C 634.11971 681.19607 638.31456 680.19166 642.46875 679.125 C 661.66079 674.31806 669.31374 662.3718 666.125 643.625 C 664.02247 638.36868 657.06144 630.95196 650.90625 631.8125 C 644.38312 633.4151 637.79319 634.87578 631.15625 636.3125 C 632.10561 604.97814 633.07087 573.64246 634.15625 542.3125 C 646.94313 539.42079 659.73246 536.56816 672.53125 533.78125 C 686.44545 534.31129 701.02806 532.75006 714.53125 534.5625 C 723.07424 538.63339 727.50285 544.6489 724.46875 554.1875 C 719.56902 631.66938 713.1137 709.0566 709.25 786.59375 C 710.26108 805.15082 705.35074 817.11009 690.53125 828.15625 C 674.66097 831.96705 659.58562 823.83744 644.15625 821.09375 C 642.40017 829.18345 638.05094 837.94334 647 843.21875 C 654.81043 852.74531 664.81257 861.34453 671.3125 871.4375 C 673.32186 885.39464 672.33882 899.728 673.4375 913.5625 C 677.98097 919.14461 677.28971 932.84569 686.65625 930.9375 C 704.91448 929.92494 735.22352 936.58033 745.21875 916.15625 C 801.56807 843.55363 805.36921 803.37656 818.5 714.375 C 821.08415 664.26951 832.75107 611.89204 828.375 564.1875 C 826.62464 545.10648 810.03082 527.78406 794.15625 514.78125 C 782.12143 502.36161 770.1575 489.86431 754.875 481.40625 C 749.28379 476.16145 738.1846 473.08412 732.875 479.375 C 725.70149 485.98105 721.86409 498.32481 710.65625 498.03125 C 685.65151 503.14103 660.50797 507.29633 635.28125 511.03125 C 635.4169 507.34537 635.54873 503.65451 635.6875 499.96875 C 634.9069 481.07484 626.98199 462.33241 608.40625 455.375 C 603.41702 454.4678 598.42669 453.5634 593.4375 452.65625 C 575.84723 458.44842 573.97408 479.79123 576.75 495.53125 C 577.24041 503.34662 577.67547 511.17749 578.125 519 C 562.94359 521.06046 547.75499 523.12711 532.59375 525.3125 C 525.80055 527.15314 519.02602 529.06133 512.25 531 C 511.4271 509.9972 509.98422 489.82829 507.25 471.25 C 500.94932 463.8394 488.43154 457.68125 478.53125 456.03125 C 477.88915 455.92423 477.18498 455.86645 476.46875 455.8125 C 520.18254 445.04312 563.13218 430.82406 606.25 418.03125 C 620.60359 413.88632 640.38896 413.01995 649.21875 405.3125 C 653.59806 401.48984 650.34918 388.20629 645.84375 383.34375 C 638.66329 375.59421 624.30444 373.50872 612.4375 372.375 C 556.69503 378.12646 500.703 387.66092 445.4375 398.96875 C 468.05751 375.27817 489.60571 350.32294 510.53125 324.34375 C 536.32181 295.67804 555.7341 262.29786 574.5625 228.78125 C 640.34516 337.25457 729.75141 429.9435 837.3125 496.96875 C 851.20294 502.87847 867.42345 502.34455 882.46875 505.03125 C 904.40567 499.09087 916.30535 479.10603 932.8125 465.34375 C 944.69397 452.58518 966.87548 451.7555 977.34375 443.53125 C 979.80073 425.29554 956.08239 421.35344 945.25 410.75 C 920.70585 394.20143 897.23237 375.32286 868.6875 366.03125 C 796.23056 336.88364 726.95034 303.38513 668.6875 251.75 C 642.18176 229.81149 620.75724 203.14268 599.71875 176.1875 C 600.91359 167.16304 599.90321 157.95664 596.125 149.34375 C 572.87187 126.34424 548.09386 104.84847 524.15625 82.53125 C 520.78162 81.862501 517.37017 81.502817 514.0625 81.5 z M 251.90625 133.4375 C 232.6726 133.15034 219.18744 153.64709 213.09375 171.875 C 201.01832 207.99616 188.42654 244.42223 168.375 277.34375 C 122.69048 352.3506 81.83905 430.34987 35.25 504.8125 C 13.902869 538.93125 25.332585 544.66194 44.03125 533.65625 C 73.325877 516.41401 91.570926 485.22193 114.625 460.34375 C 137.47963 435.68076 159.29579 409.89626 181.34375 384.375 C 181.2086 387.15813 181.36105 390.05392 181.8125 393 C 178.88133 519.90169 177.71523 646.85375 176 773.78125 C 173.23575 801.20297 151.87821 828.13163 160 854.71875 C 168.10423 879.55113 175.36193 906.01848 191.28125 927.03125 C 203.99355 938.79936 229.12457 952.97554 242.125 935.59375 C 258.2279 923.62773 252.86975 903.6233 253.75 886.46875 C 254.49209 858.53275 253.62945 830.62277 249.25 803 C 251.27374 678.30486 256.72688 553.67084 258.75 428.96875 C 251.08745 404.18436 232.15044 384.33195 217.4375 363.25 L 214.875 359.6875 C 211.011 358.57066 207.44071 358.14389 204.1875 358.28125 C 224.72964 335.14292 245.82811 312.57701 268.5 291.71875 C 286.32579 275.31896 316.81959 271.24363 328.09375 249.84375 C 335.6041 235.5881 328.73975 216.91552 320.625 201.59375 C 311.90647 185.13183 306.68499 166.51423 292.5625 153.25 C 282.96829 144.23891 272.41727 138.73234 260.5 134.90625 C 257.52298 133.95046 254.65391 133.47852 251.90625 133.4375 z M 580.0625 554.71875 C 581.58564 585.01116 582.85884 615.3298 583.96875 645.6875 C 560.74428 650.06892 537.39381 654.45147 514.5625 660.03125 C 513.47793 630.73701 513.6039 600.10254 513.21875 570.15625 C 535.50293 565.06228 557.78614 559.88155 580.0625 554.71875 z "
         transform="matrix(0.21004227,0,0,0.21004227,146.2152,633.91377)"
         id="path3950" />
    </g>
  </g>
</svg>
