<?xml version="1.0" encoding="UTF-8" standalone="no"?>
<!-- Created with Inkscape (http://www.inkscape.org/) -->

<svg
   xmlns:dc="http://purl.org/dc/elements/1.1/"
   xmlns:cc="http://creativecommons.org/ns#"
   xmlns:rdf="http://www.w3.org/1999/02/22-rdf-syntax-ns#"
   xmlns:svg="http://www.w3.org/2000/svg"
   xmlns="http://www.w3.org/2000/svg"
   xmlns:sodipodi="http://sodipodi.sourceforge.net/DTD/sodipodi-0.dtd"
   xmlns:inkscape="http://www.inkscape.org/namespaces/inkscape"
   width="1000"
   height="1000"
   id="svg3173"
   version="1.1"
   inkscape:version="0.47 r22583"
   sodipodi:docname="5100.svg"
   inkscape:export-filename="E:\chinese\yan\5100.png"
   inkscape:export-xdpi="18.005705"
   inkscape:export-ydpi="18.005705">
  <title
     id="title6098">Yi</title>
  <defs
     id="defs3175">
    <inkscape:perspective
       sodipodi:type="inkscape:persp3d"
       inkscape:vp_x="0 : 526.18109 : 1"
       inkscape:vp_y="0 : 1000 : 0"
       inkscape:vp_z="744.09448 : 526.18109 : 1"
       inkscape:persp3d-origin="372.04724 : 350.78739 : 1"
       id="perspective3181" />
    <inkscape:perspective
       id="perspective3191"
       inkscape:persp3d-origin="0.5 : 0.33333333 : 1"
       inkscape:vp_z="1 : 0.5 : 1"
       inkscape:vp_y="0 : 1000 : 0"
       inkscape:vp_x="0 : 0.5 : 1"
       sodipodi:type="inkscape:persp3d" />
    <inkscape:perspective
       id="perspective4006"
       inkscape:persp3d-origin="0.5 : 0.33333333 : 1"
       inkscape:vp_z="1 : 0.5 : 1"
       inkscape:vp_y="0 : 1000 : 0"
       inkscape:vp_x="0 : 0.5 : 1"
       sodipodi:type="inkscape:persp3d" />
    <inkscape:perspective
       id="perspective4034"
       inkscape:persp3d-origin="0.5 : 0.33333333 : 1"
       inkscape:vp_z="1 : 0.5 : 1"
       inkscape:vp_y="0 : 1000 : 0"
       inkscape:vp_x="0 : 0.5 : 1"
       sodipodi:type="inkscape:persp3d" />
    <inkscape:perspective
       id="perspective4081"
       inkscape:persp3d-origin="0.5 : 0.33333333 : 1"
       inkscape:vp_z="1 : 0.5 : 1"
       inkscape:vp_y="0 : 1000 : 0"
       inkscape:vp_x="0 : 0.5 : 1"
       sodipodi:type="inkscape:persp3d" />
    <inkscape:perspective
       id="perspective4147"
       inkscape:persp3d-origin="0.5 : 0.33333333 : 1"
       inkscape:vp_z="1 : 0.5 : 1"
       inkscape:vp_y="0 : 1000 : 0"
       inkscape:vp_x="0 : 0.5 : 1"
       sodipodi:type="inkscape:persp3d" />
    <inkscape:perspective
       id="perspective3797"
       inkscape:persp3d-origin="0.5 : 0.33333333 : 1"
       inkscape:vp_z="1 : 0.5 : 1"
       inkscape:vp_y="0 : 1000 : 0"
       inkscape:vp_x="0 : 0.5 : 1"
       sodipodi:type="inkscape:persp3d" />
    <inkscape:perspective
       id="perspective3780"
       inkscape:persp3d-origin="0.5 : 0.33333333 : 1"
       inkscape:vp_z="1 : 0.5 : 1"
       inkscape:vp_y="0 : 1000 : 0"
       inkscape:vp_x="0 : 0.5 : 1"
       sodipodi:type="inkscape:persp3d" />
    <inkscape:perspective
       id="perspective6128"
       inkscape:persp3d-origin="0.5 : 0.33333333 : 1"
       inkscape:vp_z="1 : 0.5 : 1"
       inkscape:vp_y="0 : 1000 : 0"
       inkscape:vp_x="0 : 0.5 : 1"
       sodipodi:type="inkscape:persp3d" />
  </defs>
  <sodipodi:namedview
     id="base"
     pagecolor="#ffffff"
     bordercolor="#666666"
     borderopacity="1.0"
     inkscape:pageopacity="0.0"
     inkscape:pageshadow="2"
     inkscape:zoom="0.49497475"
     inkscape:cx="627.49309"
     inkscape:cy="517.63307"
     inkscape:document-units="px"
     inkscape:current-layer="layer1"
     showgrid="false"
     inkscape:window-width="1440"
     inkscape:window-height="840"
     inkscape:window-x="-4"
     inkscape:window-y="-4"
     inkscape:window-maximized="1" />
  <metadata
     id="metadata3178">
    <rdf:RDF>
      <cc:Work
         rdf:about="">
        <dc:format>image/svg+xml</dc:format>
        <dc:type
           rdf:resource="http://purl.org/dc/dcmitype/StillImage" />
        <dc:title>Yi</dc:title>
        <dc:date>2010-07-17</dc:date>
        <dc:creator>
          <cc:Agent>
            <dc:title>Alex Amies</dc:title>
          </cc:Agent>
        </dc:creator>
        <dc:rights>
          <cc:Agent>
            <dc:title>@ Alex Amies 2010</dc:title>
          </cc:Agent>
        </dc:rights>
        <dc:publisher>
          <cc:Agent>
            <dc:title>chinesenotes.com</dc:title>
          </cc:Agent>
        </dc:publisher>
        <dc:source>Yan Qin Ceremonial Inscription</dc:source>
        <dc:language>Chinese 中文</dc:language>
        <dc:description>Tracing from Tang Dynasty Ceremonial Inscription by Yan Zhenqing 颜真卿 (709－785)</dc:description>
        <cc:license
           rdf:resource="http://creativecommons.org/licenses/by/3.0/" />
      </cc:Work>
      <cc:License
         rdf:about="http://creativecommons.org/licenses/by/3.0/">
        <cc:permits
           rdf:resource="http://creativecommons.org/ns#Reproduction" />
        <cc:permits
           rdf:resource="http://creativecommons.org/ns#Distribution" />
        <cc:requires
           rdf:resource="http://creativecommons.org/ns#Notice" />
        <cc:requires
           rdf:resource="http://creativecommons.org/ns#Attribution" />
        <cc:permits
           rdf:resource="http://creativecommons.org/ns#DerivativeWorks" />
      </cc:License>
    </rdf:RDF>
  </metadata>
  <g
     inkscape:label="Layer 1"
     inkscape:groupmode="layer"
     id="layer1"
     transform="translate(0,-52.362183)">
    <path
       style="fill:#000000;fill-opacity:1;stroke:#000000;stroke-width:4.58387566px;stroke-linecap:butt;stroke-linejoin:miter;stroke-opacity:1"
       d="m 717.01859,62.386435 c -5.42668,-0.0605 -11.19512,1.616367 -17.33278,5.443352 -34.19503,27.523744 -57.60227,64.239903 -76.06369,103.423693 -2.40824,5.15507 -7.56803,12.14095 -5.87309,16.04357 1.81526,4.17967 10.96994,9.40671 16.4733,8.16503 16.08161,-3.62832 31.26602,-18.54471 48.27394,-23.06263 18.10553,-4.80949 38.1372,-2.53259 56.43897,-6.44608 13.34297,-3.6929 25.24818,-11.11094 29.5087,-24.49508 C 767.64121,126.20586 762.85253,107.9078 755.2653,93.90058 746.21824,77.795821 733.29859,62.567957 717.01859,62.386435 z M 257.19854,106.93598 c -5.13137,0.40796 -11.4661,5.24798 -12.60566,9.88399 -4.39506,17.87981 -0.64128,39.85335 -2.00544,59.73363 -35.49139,94.57818 -99.24586,174.07213 -142.959619,264.28912 -9.358304,14.71053 14.076389,17.50733 20.913919,5.72985 25.15957,-21.30449 46.63458,-46.59762 69.90411,-69.90411 3.34627,-4.10234 6.81142,-8.102 10.31373,-12.03267 0.0367,12.02854 2.01442,24.86422 0.4295,36.52776 -7.69618,118.49126 -17.77563,236.81627 -23.6356,355.39357 0.70605,57.95967 2.41574,115.9622 -0.14302,173.90101 6.42732,21.00195 2.48551,47.14792 19.33823,63.31475 12.1022,20.59172 53.3866,33.00122 57.87143,0.85948 2.664,-23.95851 3.68452,-48.30851 -1.57572,-72.05253 -6.32152,-34.80675 -10.37642,-70.00083 -8.59476,-105.42914 0.56891,-99.42922 3.99343,-198.7481 7.59205,-298.09563 2.19008,-47.60924 13.51216,-95.4633 4.72712,-142.95958 -9.22097,-13.45455 -18.66743,-26.72372 -30.36818,-37.96023 33.83835,-32.29839 71.58428,-60.31555 105.71563,-91.8208 6.34431,-5.85618 8.2254,-15.38679 12.31917,-23.06263 -12.28964,-26.36526 -23.96083,-53.04621 -36.67101,-79.21509 -12.98484,-17.45357 -29.4106,-32.96119 -48.56043,-36.95751 -0.66421,-0.13843 -1.27239,-0.20169 -2.00545,-0.14301 z m 187.07944,14.8976 c -5.24098,0.51141 -1.51928,14.5069 2.29193,21.34367 18.88965,31.33417 26.85954,73.05226 55.00652,98.12359 3.71784,2.50784 8.44551,3.78454 13.60837,4.29738 -23.73274,6.72853 -47.39975,13.9639 -70.90682,21.91665 -7.89092,2.96523 -18.56471,9.66355 -19.62473,16.33011 -1.23572,7.77146 7.53393,18.38468 15.32734,25.35456 8.43071,7.53984 15.32601,2.05614 23.63561,-1.8622 31.6629,-11.82338 63.91166,-22.9268 96.40464,-32.94665 -3.61228,20.02287 -5.06614,42.52067 -5.44335,65.17702 -18.43561,7.19463 -36.75247,14.87954 -54.72002,22.91939 -5.18496,2.51613 -10.03534,10.33535 -9.74073,14.75435 0.25119,3.76653 6.85857,10.37977 11.45969,9.74073 17.50962,-5.82313 35.25187,-10.7749 53.1443,-15.18409 0.25853,11.98244 0.65325,23.75388 1.14597,34.80881 0.58229,8.53788 0.4781,19.86299 4.01089,26.50053 -43.31102,11.02262 -85.96679,24.02042 -125.4836,43.97656 -5.64261,3.22366 -3.80113,12.65719 1.14597,18.33551 2.84952,3.27068 2.91887,10.5639 7.01906,11.02994 79.60152,-10.11945 154.19865,-46.41206 231.62898,-67.18242 21.86802,-4.97607 46.79119,-1.17646 67.46892,-5.01362 5.5265,-1.02555 9.58988,-10.97068 8.73801,-16.18681 -6.56897,-12.91264 -27.13434,-20.61649 -40.96839,-22.91938 -32.85227,10.19243 -66.83226,18.19822 -100.98851,26.21404 2.63852,-19.17691 6.23572,-40.75914 9.02451,-62.7418 22.54285,-4.12163 45.11271,-7.82812 67.7554,-11.31644 11.80294,-1.60931 25.53398,1.05516 35.66829,-2.86493 5.01943,-1.94159 11.14216,-9.93926 9.88398,-14.75434 -5.68327,-16.9019 -20.94565,-33.42714 -37.67373,-39.24944 -23.78747,8.13019 -47.81853,16.22582 -71.7663,24.63833 0.72338,-18.30763 -0.0935,-35.722 -3.58115,-50.85242 -3.91032,-1.14931 -8.17572,-2.07585 -12.74891,-2.86492 42.80483,-11.68759 86.14597,-21.37117 129.78099,-28.07624 8.58564,-0.60498 17.51013,7.38283 25.4978,6.44607 18.74572,-4.38993 21.73679,-16.54311 14.61111,-32.80336 -7.19715,-9.55889 -20.57349,-15.17991 -32.80337,-19.33822 -10.65118,-3.62154 -18.17653,9.87945 -27.78974,13.17864 -57.47145,10.16777 -114.2934,22.13068 -170.46288,36.95751 0.20169,-4.21887 -1.10783,-9.86259 -1.71896,-13.46514 -5.48982,-16.55792 -8.92892,-34.43921 -16.18681,-50.27939 -18.73645,-28.94227 -46.05167,-50.57477 -81.65028,-52.14158 z M 766.00875,447.0023 c -2.73345,0.003 -5.30303,0.16044 -7.44879,0.57299 -14.0268,7.90517 -18.58949,25.60269 -18.04901,40.96839 3.88245,21.06594 13.75768,45.59687 32.80336,57.2984 5.76903,2.44078 17.36463,-1.35376 21.34367,-6.58932 6.38924,-8.40692 10.61685,-22.98937 9.74073,-34.37902 -1.30668,-16.98674 -6.5735,-38.51346 -16.33005,-50.70913 -4.14227,-5.17786 -13.85954,-7.17078 -22.05991,-7.16231 z m -126.48632,11.74618 c -1.172,0.0321 -2.43884,0.15769 -3.7244,0.28649 -6.92674,7.51798 -18.59224,12.24776 -18.33549,23.92211 -2.73094,8.55251 -3.59844,17.05545 0.4295,25.35456 9.11596,29.81747 17.646,59.83457 25.64106,89.95852 -36.25919,11.89025 -72.88661,22.49395 -109.58328,32.94661 -4.98025,-20.38973 -11.97483,-40.23191 -22.48964,-59.16065 27.37096,-5.79099 55.16057,-10.27242 81.79353,-18.04901 14.50228,-5.8654 22.10468,-17.6206 21.20043,-32.80336 -5.27486,-10.04387 -14.44816,-21.38195 -26.0708,-22.91933 -18.29071,7.19792 -35.2732,24.16046 -54.43352,32.94655 -12.59558,5.77583 -26.12818,9.86016 -39.53593,14.03812 -4.40736,-4.96227 -9.97502,-7.43577 -17.47604,-9.31099 l -16.33004,11.45969 c 0.76596,3.01036 1.53637,6.01633 2.29193,9.02451 -1.86779,0.80836 -3.76295,1.55502 -5.5866,2.43518 -6.47968,3.12731 -16.25956,12.56701 -14.75435,16.33006 1.76897,4.42247 16.32548,9.26397 24.63833,8.30827 0.70597,-0.22828 1.44108,-0.35021 2.14869,-0.57299 4.96164,20.97087 9.39205,41.94682 13.0354,63.02829 -20.48607,5.98884 -40.8669,12.17532 -61.16609,18.76525 l -101.41825,38.24671 c 2.40296,12.47654 -5.9462,34.83534 9.45424,38.53321 18.2959,9.42673 34.1088,-10.61786 50.85238,-16.04357 34.45323,-18.1042 71.33376,-30.65893 107.57784,-44.69279 2.54656,21.00785 3.98819,42.15543 4.01088,63.60128 -60.14531,46.09178 -122.64242,88.8378 -184.93074,132.07292 l 0,19.62495 c 11.0278,9.3016 22.33567,18.25391 34.37907,26.2138 6.63145,-1.94035 13.77996,-2.90755 20.05446,-5.44289 21.15137,-23.17515 41.9228,-46.68173 63.31478,-69.61807 21.37072,-19.59194 42.89857,-39.0427 64.31751,-58.58743 -4.91382,47.35785 -11.12483,95.59627 -26.50054,140.52421 -6.04035,5.0033 -31.91532,-17.9885 -27.6465,1.57594 8.00441,20.31207 10.36309,42.29221 12.31917,63.88773 1.97175,16.75364 14.83906,22.26014 26.50053,9.45424 12.6753,-10.01304 21.05329,-24.49894 31.08441,-37.10094 18.37227,-56.79743 30.70729,-115.57142 41.11164,-174.33029 -0.2622,-19.11252 -0.34654,-38.31126 -0.71624,-57.44193 l 26.93028,-30.65466 c -1.4789,-3.57308 0.69276,-11.32712 -5.15686,-9.74074 -5.44006,0.73347 -12.10872,-2.08429 -16.18682,2.57843 -2.21396,1.85317 -4.50901,3.60334 -6.73256,5.44336 -0.81726,-14.37513 -2.06206,-28.63521 -4.15414,-42.68735 36.1683,-14.32227 72.40007,-28.7844 110.29951,-37.10074 2.45678,9.66299 4.9675,19.38351 7.30555,29.07896 13.72936,53.76153 26.97978,107.66639 41.11164,161.29513 -2.81285,6.38076 -5.61566,12.8211 -8.30828,19.19544 -14.22372,32.42679 -31.95369,63.08467 -48.70367,94.25548 l -31.80064,39.6794 c 11.15023,13.3542 23.7795,-3.81332 35.38179,-8.02178 29.01194,-24.89594 57.31311,-55.59828 77.06641,-88.66911 0.20352,-0.33004 0.36946,-0.67521 0.57298,-1.00295 7.71246,16.76781 15.60398,33.48749 24.06535,49.84964 24.54157,51.34262 58.06267,84.18335 106.14537,112.59135 17.15552,5.7185 34.26989,11.3282 51.42536,17.0462 7.14599,-4.5605 18.37208,-5.4631 18.90848,-15.7567 4.92859,-11.6403 -1.34742,-24.41 -1.71894,-36.52793 L 904.24103,876.45412 c -9.83301,-5.84995 -14.39507,-0.83197 -16.61655,9.16775 -8.30259,17.75656 -12.87968,37.76564 -26.93027,52.14158 -3.86783,7.15589 -11.84808,13.16719 -19.62472,11.45969 -41.77139,-34.11457 -65.23918,-79.79564 -88.66934,-127.34557 -0.11414,-0.33004 -0.17236,-0.67429 -0.2865,-1.00294 25.68067,-42.86387 48.7112,-86.84891 60.44987,-135.94057 -6.37938,-15.981 -7.9809,-34.33713 -18.47876,-48.27394 -5.59754,-8.86765 -16.96991,-10.71742 -25.64105,-15.61383 -19.80138,9.95173 -17.97553,30.9793 -18.76524,49.9929 -4.3148,25.10836 -12.2703,49.31343 -21.63016,73.19876 -12.05711,-42.54208 -22.2764,-85.596 -31.94389,-128.77826 32.06531,-5.45724 63.90088,-12.54653 95.9749,-17.47603 l 31.94389,-1.43245 c 15.14237,-10.4171 21.13254,-30.95189 5.58659,-43.97656 -12.27791,-10.98444 -34.5979,-12.26398 -48.99017,-3.00817 -29.15042,14.90195 -60.39627,24.24614 -91.53426,33.94933 -3.63928,-16.75127 -7.31702,-33.5267 -10.88671,-50.27939 -1.58177,-16.26277 -1.14322,-33.23594 -4.01089,-48.99012 -11.74802,-15.59962 -17.08544,-25.97045 -34.66557,-25.49782 z"
       id="path4308" />
  </g>
</svg>
