<?xml version="1.0" encoding="UTF-8" standalone="no"?>
<!-- Created with Inkscape (http://www.inkscape.org/) -->

<svg
   xmlns:dc="http://purl.org/dc/elements/1.1/"
   xmlns:cc="http://creativecommons.org/ns#"
   xmlns:rdf="http://www.w3.org/1999/02/22-rdf-syntax-ns#"
   xmlns:svg="http://www.w3.org/2000/svg"
   xmlns="http://www.w3.org/2000/svg"
   xmlns:sodipodi="http://sodipodi.sourceforge.net/DTD/sodipodi-0.dtd"
   xmlns:inkscape="http://www.inkscape.org/namespaces/inkscape"
   width="1000"
   height="1000"
   id="svg3173"
   version="1.1"
   inkscape:version="0.47 r22583"
   sodipodi:docname="5145.svg"
   inkscape:export-filename="E:\chinese\yan\4E03.png"
   inkscape:export-xdpi="18.005705"
   inkscape:export-ydpi="18.005705">
  <title
     id="title2821">Chong</title>
  <defs
     id="defs3175">
    <inkscape:perspective
       sodipodi:type="inkscape:persp3d"
       inkscape:vp_x="0 : 526.18109 : 1"
       inkscape:vp_y="0 : 1000 : 0"
       inkscape:vp_z="744.09448 : 526.18109 : 1"
       inkscape:persp3d-origin="372.04724 : 350.78739 : 1"
       id="perspective3181" />
    <inkscape:perspective
       id="perspective3191"
       inkscape:persp3d-origin="0.5 : 0.33333333 : 1"
       inkscape:vp_z="1 : 0.5 : 1"
       inkscape:vp_y="0 : 1000 : 0"
       inkscape:vp_x="0 : 0.5 : 1"
       sodipodi:type="inkscape:persp3d" />
    <inkscape:perspective
       id="perspective4006"
       inkscape:persp3d-origin="0.5 : 0.33333333 : 1"
       inkscape:vp_z="1 : 0.5 : 1"
       inkscape:vp_y="0 : 1000 : 0"
       inkscape:vp_x="0 : 0.5 : 1"
       sodipodi:type="inkscape:persp3d" />
    <inkscape:perspective
       id="perspective4034"
       inkscape:persp3d-origin="0.5 : 0.33333333 : 1"
       inkscape:vp_z="1 : 0.5 : 1"
       inkscape:vp_y="0 : 1000 : 0"
       inkscape:vp_x="0 : 0.5 : 1"
       sodipodi:type="inkscape:persp3d" />
    <inkscape:perspective
       id="perspective4081"
       inkscape:persp3d-origin="0.5 : 0.33333333 : 1"
       inkscape:vp_z="1 : 0.5 : 1"
       inkscape:vp_y="0 : 1000 : 0"
       inkscape:vp_x="0 : 0.5 : 1"
       sodipodi:type="inkscape:persp3d" />
    <inkscape:perspective
       id="perspective4147"
       inkscape:persp3d-origin="0.5 : 0.33333333 : 1"
       inkscape:vp_z="1 : 0.5 : 1"
       inkscape:vp_y="0 : 1000 : 0"
       inkscape:vp_x="0 : 0.5 : 1"
       sodipodi:type="inkscape:persp3d" />
    <inkscape:perspective
       id="perspective3758"
       inkscape:persp3d-origin="0.5 : 0.33333333 : 1"
       inkscape:vp_z="1 : 0.5 : 1"
       inkscape:vp_y="0 : 1000 : 0"
       inkscape:vp_x="0 : 0.5 : 1"
       sodipodi:type="inkscape:persp3d" />
  </defs>
  <sodipodi:namedview
     id="base"
     pagecolor="#ffffff"
     bordercolor="#666666"
     borderopacity="1.0"
     inkscape:pageopacity="0.0"
     inkscape:pageshadow="2"
     inkscape:zoom="0.49497475"
     inkscape:cx="452.31529"
     inkscape:cy="557.14286"
     inkscape:document-units="px"
     inkscape:current-layer="layer1"
     showgrid="false"
     inkscape:window-width="1440"
     inkscape:window-height="840"
     inkscape:window-x="-4"
     inkscape:window-y="-4"
     inkscape:window-maximized="1" />
  <metadata
     id="metadata3178">
    <rdf:RDF>
      <cc:Work
         rdf:about="">
        <dc:format>image/svg+xml</dc:format>
        <dc:type
           rdf:resource="http://purl.org/dc/dcmitype/StillImage" />
        <dc:title>Chong</dc:title>
        <dc:date>2010-07-18</dc:date>
        <dc:creator>
          <cc:Agent>
            <dc:title>Alex Amies</dc:title>
          </cc:Agent>
        </dc:creator>
        <dc:rights>
          <cc:Agent>
            <dc:title>@ Alex Amies 2010</dc:title>
          </cc:Agent>
        </dc:rights>
        <dc:publisher>
          <cc:Agent>
            <dc:title>chinesenotes.com</dc:title>
          </cc:Agent>
        </dc:publisher>
        <dc:source>Yan Qin Ceremonial Inscription</dc:source>
        <dc:language>Chinese 中文</dc:language>
        <dc:description>Tracing from Tang Dynasty Ceremonial Inscription by Yan Zhenqing 颜真卿 (709－785)</dc:description>
        <cc:license
           rdf:resource="http://creativecommons.org/licenses/by/3.0/" />
      </cc:Work>
      <cc:License
         rdf:about="http://creativecommons.org/licenses/by/3.0/">
        <cc:permits
           rdf:resource="http://creativecommons.org/ns#Reproduction" />
        <cc:permits
           rdf:resource="http://creativecommons.org/ns#Distribution" />
        <cc:requires
           rdf:resource="http://creativecommons.org/ns#Notice" />
        <cc:requires
           rdf:resource="http://creativecommons.org/ns#Attribution" />
        <cc:permits
           rdf:resource="http://creativecommons.org/ns#DerivativeWorks" />
      </cc:License>
    </rdf:RDF>
  </metadata>
  <g
     inkscape:label="Layer 1"
     inkscape:groupmode="layer"
     id="layer1"
     transform="translate(0,-52.362183)">
    <path
       style="fill:#000000;stroke:#000000;stroke-width:4.76094626999999980px;stroke-linecap:butt;stroke-linejoin:miter;stroke-opacity:1;fill-opacity:1"
       d="M 431.9375 78.15625 C 406.37103 83.64291 381.17946 122.78426 381.03125 149.125 C 387.60164 173.95743 415.88409 163.46806 430.1875 179.125 C 437.2994 188.20368 439.85198 200.17743 445 210.375 C 362.29549 221.53799 279.63592 232.98615 197.0625 245.28125 C 179.14815 260.697 177.46239 287.09061 190.09375 306.40625 C 198.50987 326.13975 221.33485 340.21079 240.90625 328.1875 C 280.94847 306.71491 325.56118 296.54818 367.9375 280.875 C 426.72515 256.45435 490.57107 258.44554 553.28125 260.0625 C 596.81392 271.25301 639.44282 287.43249 684.3125 292.3125 C 700.71896 283.72695 721.62753 270.32407 718.9375 249.625 C 706.69202 219.69759 694.42781 180.63533 655.21875 182.34375 C 616.55045 187.48472 577.91115 192.60957 539.25 197.75 C 546.25104 184.37965 549.10852 168.90383 544.03125 154.375 C 522.86051 114.12096 477.43167 83.52941 431.9375 78.15625 z M 389.21875 291.03125 C 386.98267 291.05121 384.7246 291.09317 382.40625 291.1875 C 355.88753 344.75547 330.53533 398.89862 301.0625 450.90625 C 265.15236 453.11821 231.98757 465.26624 210.09375 498.3125 C 203.31259 512.32878 198.7095 527.72526 197.96875 543.3125 C 204.08518 574.1452 243.26987 574.48804 263.15625 557.15625 C 295.85943 511.40583 341.75177 499.30235 395.25 496.0625 C 300.01005 600.39419 204.23984 704.26478 110.34375 809.8125 C 132.77776 835.5954 159.74061 795.61829 178.78125 782.21875 C 233.44034 734.47722 289.61675 688.31868 343.09375 639.3125 C 406.44881 568.22405 468.48911 495.80357 532.71875 425.59375 C 559.68851 407.4304 585.55669 394.89179 613.625 371.125 C 620.66634 365.16277 625.42813 350.27269 618.75 343.90625 C 600.2183 326.23957 572.26919 322.36254 549.03125 311.59375 C 517.28849 301.26069 516.54773 335.73888 506.40625 356.46875 C 486.16185 389.8745 464.58769 423.09629 436.59375 450.6875 C 428.63467 459.4401 420.65736 468.16339 412.6875 476.90625 C 412.39283 475.77309 411.90788 474.64243 411.1875 473.53125 C 403.38602 463.77341 390.1843 461.15216 378.875 457.40625 C 370.01804 455.78795 360.95274 454.29602 351.8125 453.125 C 396.87087 417.20192 440.65694 377.0537 469.09375 326.90625 C 447.24645 299.14733 422.75988 290.7318 389.21875 291.03125 z M 537.125 500.34375 C 474.74746 551.98421 447.01848 649.81807 413.71875 722.84375 C 412.17173 746.20229 402.58979 771.91952 410.25 794.375 C 431.89893 855.83411 488.03495 884.51065 548.1875 901.65625 C 637.6364 929.21784 736.11292 923.84989 826.1875 902.34375 C 860.43742 883.74273 932.70918 857.78904 918.65625 806.875 C 915.81754 783.65305 892.98271 779.26451 873.59375 777.1875 C 856.3746 779.15463 844.57177 763.86853 840.9375 748.5 L 817.6875 689.0625 C 805.28081 676.14886 794.97097 684.75036 797.21875 699.6875 C 794.40798 727.32655 791.59201 754.9547 788.78125 782.59375 C 741.20506 856.48126 540.59872 809.26326 478.21875 780 C 459.92229 762.08075 473.29245 730.52999 486.71875 712.34375 C 519.60317 656.62997 561.9015 607.2247 601.75 556.4375 C 609.79376 519.67585 565.6744 505.72628 537.125 500.34375 z "
       transform="translate(0,52.362183)"
       id="path4119" />
  </g>
</svg>
