<?xml version="1.0" encoding="UTF-8" standalone="no"?>
<!-- Created with Inkscape (http://www.inkscape.org/) -->

<svg
   xmlns:dc="http://purl.org/dc/elements/1.1/"
   xmlns:cc="http://creativecommons.org/ns#"
   xmlns:rdf="http://www.w3.org/1999/02/22-rdf-syntax-ns#"
   xmlns:svg="http://www.w3.org/2000/svg"
   xmlns="http://www.w3.org/2000/svg"
   xmlns:sodipodi="http://sodipodi.sourceforge.net/DTD/sodipodi-0.dtd"
   xmlns:inkscape="http://www.inkscape.org/namespaces/inkscape"
   width="1000"
   height="1000"
   id="svg3173"
   version="1.1"
   inkscape:version="0.47 r22583"
   sodipodi:docname="5176.svg"
   inkscape:export-filename="E:\chinese\yan\5176.png"
   inkscape:export-xdpi="18.005705"
   inkscape:export-ydpi="18.005705">
  <title
     id="title2827">Qi</title>
  <defs
     id="defs3175">
    <inkscape:perspective
       sodipodi:type="inkscape:persp3d"
       inkscape:vp_x="0 : 526.18109 : 1"
       inkscape:vp_y="0 : 1000 : 0"
       inkscape:vp_z="744.09448 : 526.18109 : 1"
       inkscape:persp3d-origin="372.04724 : 350.78739 : 1"
       id="perspective3181" />
    <inkscape:perspective
       id="perspective3191"
       inkscape:persp3d-origin="0.5 : 0.33333333 : 1"
       inkscape:vp_z="1 : 0.5 : 1"
       inkscape:vp_y="0 : 1000 : 0"
       inkscape:vp_x="0 : 0.5 : 1"
       sodipodi:type="inkscape:persp3d" />
    <inkscape:perspective
       id="perspective4006"
       inkscape:persp3d-origin="0.5 : 0.33333333 : 1"
       inkscape:vp_z="1 : 0.5 : 1"
       inkscape:vp_y="0 : 1000 : 0"
       inkscape:vp_x="0 : 0.5 : 1"
       sodipodi:type="inkscape:persp3d" />
    <inkscape:perspective
       id="perspective4034"
       inkscape:persp3d-origin="0.5 : 0.33333333 : 1"
       inkscape:vp_z="1 : 0.5 : 1"
       inkscape:vp_y="0 : 1000 : 0"
       inkscape:vp_x="0 : 0.5 : 1"
       sodipodi:type="inkscape:persp3d" />
    <inkscape:perspective
       id="perspective4081"
       inkscape:persp3d-origin="0.5 : 0.33333333 : 1"
       inkscape:vp_z="1 : 0.5 : 1"
       inkscape:vp_y="0 : 1000 : 0"
       inkscape:vp_x="0 : 0.5 : 1"
       sodipodi:type="inkscape:persp3d" />
    <inkscape:perspective
       id="perspective4147"
       inkscape:persp3d-origin="0.5 : 0.33333333 : 1"
       inkscape:vp_z="1 : 0.5 : 1"
       inkscape:vp_y="0 : 1000 : 0"
       inkscape:vp_x="0 : 0.5 : 1"
       sodipodi:type="inkscape:persp3d" />
    <inkscape:perspective
       id="perspective3858"
       inkscape:persp3d-origin="0.5 : 0.33333333 : 1"
       inkscape:vp_z="1 : 0.5 : 1"
       inkscape:vp_y="0 : 1000 : 0"
       inkscape:vp_x="0 : 0.5 : 1"
       sodipodi:type="inkscape:persp3d" />
    <inkscape:perspective
       id="perspective3876"
       inkscape:persp3d-origin="0.5 : 0.33333333 : 1"
       inkscape:vp_z="1 : 0.5 : 1"
       inkscape:vp_y="0 : 1000 : 0"
       inkscape:vp_x="0 : 0.5 : 1"
       sodipodi:type="inkscape:persp3d" />
    <inkscape:perspective
       id="perspective3901"
       inkscape:persp3d-origin="0.5 : 0.33333333 : 1"
       inkscape:vp_z="1 : 0.5 : 1"
       inkscape:vp_y="0 : 1000 : 0"
       inkscape:vp_x="0 : 0.5 : 1"
       sodipodi:type="inkscape:persp3d" />
    <inkscape:perspective
       id="perspective4392"
       inkscape:persp3d-origin="0.5 : 0.33333333 : 1"
       inkscape:vp_z="1 : 0.5 : 1"
       inkscape:vp_y="0 : 1000 : 0"
       inkscape:vp_x="0 : 0.5 : 1"
       sodipodi:type="inkscape:persp3d" />
    <inkscape:perspective
       id="perspective3806"
       inkscape:persp3d-origin="0.5 : 0.33333333 : 1"
       inkscape:vp_z="1 : 0.5 : 1"
       inkscape:vp_y="0 : 1000 : 0"
       inkscape:vp_x="0 : 0.5 : 1"
       sodipodi:type="inkscape:persp3d" />
    <inkscape:perspective
       id="perspective3763"
       inkscape:persp3d-origin="0.5 : 0.33333333 : 1"
       inkscape:vp_z="1 : 0.5 : 1"
       inkscape:vp_y="0 : 1000 : 0"
       inkscape:vp_x="0 : 0.5 : 1"
       sodipodi:type="inkscape:persp3d" />
  </defs>
  <sodipodi:namedview
     id="base"
     pagecolor="#ffffff"
     bordercolor="#666666"
     borderopacity="1.0"
     inkscape:pageopacity="0.0"
     inkscape:pageshadow="2"
     inkscape:zoom="0.49497475"
     inkscape:cx="413.61348"
     inkscape:cy="540.34663"
     inkscape:document-units="px"
     inkscape:current-layer="g4371"
     showgrid="false"
     inkscape:window-width="1440"
     inkscape:window-height="840"
     inkscape:window-x="-4"
     inkscape:window-y="-4"
     inkscape:window-maximized="1" />
  <metadata
     id="metadata3178">
    <rdf:RDF>
      <cc:Work
         rdf:about="">
        <dc:format>image/svg+xml</dc:format>
        <dc:type
           rdf:resource="http://purl.org/dc/dcmitype/StillImage" />
        <dc:title>Qi</dc:title>
        <dc:date>2010-08-11</dc:date>
        <dc:creator>
          <cc:Agent>
            <dc:title>Alex Amies</dc:title>
          </cc:Agent>
        </dc:creator>
        <dc:rights>
          <cc:Agent>
            <dc:title>@ Alex Amies 2010</dc:title>
          </cc:Agent>
        </dc:rights>
        <dc:publisher>
          <cc:Agent>
            <dc:title>chinesenotes.com</dc:title>
          </cc:Agent>
        </dc:publisher>
        <dc:source>Yan Qin Ceremonial Inscription</dc:source>
        <dc:language>Chinese 中文</dc:language>
        <dc:description>Tracing from Tang Dynasty Ceremonial Inscription by Yan Zhenqing 颜真卿 (709－785)</dc:description>
        <cc:license
           rdf:resource="http://creativecommons.org/licenses/by/3.0/" />
      </cc:Work>
      <cc:License
         rdf:about="http://creativecommons.org/licenses/by/3.0/">
        <cc:permits
           rdf:resource="http://creativecommons.org/ns#Reproduction" />
        <cc:permits
           rdf:resource="http://creativecommons.org/ns#Distribution" />
        <cc:requires
           rdf:resource="http://creativecommons.org/ns#Notice" />
        <cc:requires
           rdf:resource="http://creativecommons.org/ns#Attribution" />
        <cc:permits
           rdf:resource="http://creativecommons.org/ns#DerivativeWorks" />
      </cc:License>
    </rdf:RDF>
  </metadata>
  <g
     inkscape:label="Layer 1"
     inkscape:groupmode="layer"
     id="layer1"
     transform="translate(0,-52.362183)">
    <g
       transform="matrix(4.7488612,0,0,4.7488612,-1416.4781,-3986.1517)"
       id="g4371"
       style="fill:#000000;fill-opacity:1">
      <path
         style="fill:#000000;stroke:#000000;stroke-width:4.75137663000000020px;stroke-linecap:butt;stroke-linejoin:miter;stroke-opacity:1;fill-opacity:1"
         d="M 575.6875 46.53125 C 533.79409 64.065138 559.48774 100.41629 587.96875 110.125 C 587.14702 126.72628 586.64643 143.34754 586.375 159.96875 C 543.09909 167.19183 500.67503 178.22107 458.34375 189.65625 C 457.58012 185.87761 456.77608 182.10831 455.90625 178.34375 C 456.84078 155.05438 436.86562 144.12055 420.4375 131.15625 C 403.93036 119.47286 385.431 109.25429 365.25 105.9375 C 334.54477 111.51722 352.11701 145.34586 371.03125 153.96875 C 378.6148 171.83124 382.35274 190.44512 384.40625 209.34375 C 377.46473 211.11039 370.52563 212.85982 363.5625 214.53125 C 330.97263 209.53706 286.73878 191.49624 265.125 200.96875 C 245.78887 209.44305 276.49851 261.9028 295.9375 282.34375 C 316.17026 302.29053 349.02189 295.35689 371.5625 282.625 C 377.06448 279.54713 382.61037 276.63628 388.1875 273.8125 C 395.48943 400.01987 398.98485 526.44563 407.0625 652.59375 C 408.74433 657.24935 410.66093 660.63893 412.71875 663 C 332.42505 681.52139 252.4527 701.69198 171.625 717.375 C 140.32939 721.97475 104.02143 711.36095 76.15625 728.15625 C 74.10213 729.46361 72.054072 730.78639 70 732.09375 C 83.990288 772.81951 143.87545 835.79576 191.125 810.5 C 242.58236 782.65591 297.18741 760.51971 352.5625 741.5625 C 341.06356 778.08625 332.4405 818.54398 315.96875 853.90625 C 304.16365 890.17663 269.62848 901.97405 244.78125 925.53125 C 240.88486 930.30433 240.23678 943.79966 244.78125 945.90625 C 253.99969 950.17975 272.7747 949.72447 285.875 942.8125 C 334.09024 920.88938 379.85786 892.76393 419.84375 857.875 C 438.20327 844.2111 455.69203 828.392 453.5 803.375 C 448.75575 783.68622 437.27496 762.58954 424.53125 745.5625 C 419.11801 738.32953 412.81805 730.35648 406.125 723.84375 C 529.60166 685.08303 657.5888 668.66883 786.09375 655.71875 C 825.26359 667.44972 858.96918 725.08748 900.03125 683.96875 C 913.2489 644.89417 862.44557 590.01963 818.375 593.15625 C 768.04054 589.83029 719.94794 613.17224 669.8125 617.125 C 663.0703 617.78935 656.3469 618.51037 649.625 619.28125 C 653.24045 601.69135 651.14517 580.38293 656 564.375 C 660.51084 441.08841 668.92539 317.86437 671.9375 194.53125 C 681.16936 192.59189 690.3964 190.58885 699.59375 188.5 C 712.01967 183.03259 724.44908 177.56116 736.875 172.09375 C 748.77018 153.16389 731.3436 139.85029 710.96875 144.40625 C 698.8136 143.16093 686.79184 143.4606 674.8125 144.65625 C 676.46783 129.85573 677.55562 115.23495 672.40625 102.53125 C 661.26599 75.047596 618.69735 60.790276 590.40625 46.53125 L 575.6875 46.53125 z M 586.1875 211.84375 C 586.51087 264.41389 588.13337 317.00839 588.125 369.5625 C 589.0324 455.46713 589.93634 541.37657 590.84375 627.28125 C 538.73867 635.4349 487.10026 646.13261 435.65625 657.75 C 442.85089 648.3976 447.95705 634.12882 446.8125 624.03125 C 450.31555 592.22284 454.14687 560.43863 457.9375 528.625 C 460.46156 529.5521 463.02401 530.11446 465.375 530.15625 C 488.95329 530.21656 509.80671 517.18638 524.75 499.625 C 537.40524 482.36631 549.94909 461.26693 555.3125 441.90625 C 556.62736 437.16 550.91822 426.93605 546.8125 428.34375 C 531.12084 433.72373 514.03503 453.71611 495.90625 462.28125 C 485.50608 465.19022 474.83536 467.14706 464.6875 470.4375 C 468.61285 435.84106 472.27365 401.231 475.125 366.59375 C 474.92608 364.37512 474.74666 362.1582 474.5625 359.9375 C 488.78459 360.44545 504.327 358.99591 516.28125 353.6875 C 529.8251 344.98759 544.51042 331.76643 551.90625 318.03125 C 556.38884 309.70645 554.3956 296.74622 551.90625 287.5 C 544.7435 269.66128 524.49221 269.08816 507.78125 272.21875 C 498.91741 274.63616 484.03125 279.4559 484.03125 289.1875 C 484.03125 295.26476 477.4074 298.00878 470.625 300.6875 C 469.43843 281.1041 468.12714 261.53767 466.09375 242.0625 C 505.29579 229.31006 545.58346 220.16531 586.1875 211.84375 z M 636.5 718.28125 C 631.85552 718.32693 626.92083 722.31074 623.1875 725.3125 C 597.72843 761.87208 712.56296 865.3543 734.34375 886.8125 C 762.44832 907.44915 790.37814 943.08579 826.8125 949.3125 C 832.57149 949.58319 841.25331 945.08697 844.0625 939.84375 C 848.48321 931.59308 853.8659 921.14592 852.28125 911.96875 C 840.59122 873.11879 826.65277 826.49292 799.65625 794.875 C 778.84551 775.98166 751.26319 762.51164 723.6875 752.46875 C 694.9689 742.00938 666.91832 725.91858 638.46875 718.53125 C 637.82102 718.36308 637.1635 718.27472 636.5 718.28125 z "
         transform="matrix(0.2105768,0,0,0.2105768,298.27743,850.41733)"
         id="path7509" />
    </g>
  </g>
</svg>
