<?xml version="1.0" encoding="UTF-8" standalone="no"?>
<!-- Created with Inkscape (http://www.inkscape.org/) -->

<svg
   xmlns:dc="http://purl.org/dc/elements/1.1/"
   xmlns:cc="http://creativecommons.org/ns#"
   xmlns:rdf="http://www.w3.org/1999/02/22-rdf-syntax-ns#"
   xmlns:svg="http://www.w3.org/2000/svg"
   xmlns="http://www.w3.org/2000/svg"
   xmlns:sodipodi="http://sodipodi.sourceforge.net/DTD/sodipodi-0.dtd"
   xmlns:inkscape="http://www.inkscape.org/namespaces/inkscape"
   width="1000"
   height="1000"
   id="svg3173"
   version="1.1"
   inkscape:version="0.47 r22583"
   sodipodi:docname="5224.svg"
   inkscape:export-filename="E:\chinese\yan\5224.png"
   inkscape:export-xdpi="18.005705"
   inkscape:export-ydpi="18.005705">
  <title
     id="title6160">Pan</title>
  <defs
     id="defs3175">
    <inkscape:perspective
       sodipodi:type="inkscape:persp3d"
       inkscape:vp_x="0 : 526.18109 : 1"
       inkscape:vp_y="0 : 1000 : 0"
       inkscape:vp_z="744.09448 : 526.18109 : 1"
       inkscape:persp3d-origin="372.04724 : 350.78739 : 1"
       id="perspective3181" />
    <inkscape:perspective
       id="perspective3191"
       inkscape:persp3d-origin="0.5 : 0.33333333 : 1"
       inkscape:vp_z="1 : 0.5 : 1"
       inkscape:vp_y="0 : 1000 : 0"
       inkscape:vp_x="0 : 0.5 : 1"
       sodipodi:type="inkscape:persp3d" />
    <inkscape:perspective
       id="perspective4006"
       inkscape:persp3d-origin="0.5 : 0.33333333 : 1"
       inkscape:vp_z="1 : 0.5 : 1"
       inkscape:vp_y="0 : 1000 : 0"
       inkscape:vp_x="0 : 0.5 : 1"
       sodipodi:type="inkscape:persp3d" />
    <inkscape:perspective
       id="perspective4034"
       inkscape:persp3d-origin="0.5 : 0.33333333 : 1"
       inkscape:vp_z="1 : 0.5 : 1"
       inkscape:vp_y="0 : 1000 : 0"
       inkscape:vp_x="0 : 0.5 : 1"
       sodipodi:type="inkscape:persp3d" />
    <inkscape:perspective
       id="perspective4081"
       inkscape:persp3d-origin="0.5 : 0.33333333 : 1"
       inkscape:vp_z="1 : 0.5 : 1"
       inkscape:vp_y="0 : 1000 : 0"
       inkscape:vp_x="0 : 0.5 : 1"
       sodipodi:type="inkscape:persp3d" />
    <inkscape:perspective
       id="perspective4147"
       inkscape:persp3d-origin="0.5 : 0.33333333 : 1"
       inkscape:vp_z="1 : 0.5 : 1"
       inkscape:vp_y="0 : 1000 : 0"
       inkscape:vp_x="0 : 0.5 : 1"
       sodipodi:type="inkscape:persp3d" />
    <inkscape:perspective
       id="perspective3797"
       inkscape:persp3d-origin="0.5 : 0.33333333 : 1"
       inkscape:vp_z="1 : 0.5 : 1"
       inkscape:vp_y="0 : 1000 : 0"
       inkscape:vp_x="0 : 0.5 : 1"
       sodipodi:type="inkscape:persp3d" />
    <inkscape:perspective
       id="perspective3780"
       inkscape:persp3d-origin="0.5 : 0.33333333 : 1"
       inkscape:vp_z="1 : 0.5 : 1"
       inkscape:vp_y="0 : 1000 : 0"
       inkscape:vp_x="0 : 0.5 : 1"
       sodipodi:type="inkscape:persp3d" />
    <inkscape:perspective
       id="perspective6128"
       inkscape:persp3d-origin="0.5 : 0.33333333 : 1"
       inkscape:vp_z="1 : 0.5 : 1"
       inkscape:vp_y="0 : 1000 : 0"
       inkscape:vp_x="0 : 0.5 : 1"
       sodipodi:type="inkscape:persp3d" />
    <inkscape:perspective
       id="perspective3742"
       inkscape:persp3d-origin="0.5 : 0.33333333 : 1"
       inkscape:vp_z="1 : 0.5 : 1"
       inkscape:vp_y="0 : 1000 : 0"
       inkscape:vp_x="0 : 0.5 : 1"
       sodipodi:type="inkscape:persp3d" />
  </defs>
  <sodipodi:namedview
     id="base"
     pagecolor="#ffffff"
     bordercolor="#666666"
     borderopacity="1.0"
     inkscape:pageopacity="0.0"
     inkscape:pageshadow="2"
     inkscape:zoom="0.49497475"
     inkscape:cx="627.49309"
     inkscape:cy="517.63307"
     inkscape:document-units="px"
     inkscape:current-layer="layer1"
     showgrid="false"
     inkscape:window-width="1440"
     inkscape:window-height="840"
     inkscape:window-x="-4"
     inkscape:window-y="-4"
     inkscape:window-maximized="1" />
  <metadata
     id="metadata3178">
    <rdf:RDF>
      <cc:Work
         rdf:about="">
        <dc:format>image/svg+xml</dc:format>
        <dc:type
           rdf:resource="http://purl.org/dc/dcmitype/StillImage" />
        <dc:title>Pan</dc:title>
        <dc:date>2010-08-03</dc:date>
        <dc:creator>
          <cc:Agent>
            <dc:title>Alex Amies</dc:title>
          </cc:Agent>
        </dc:creator>
        <dc:rights>
          <cc:Agent>
            <dc:title>@ Alex Amies 2010</dc:title>
          </cc:Agent>
        </dc:rights>
        <dc:publisher>
          <cc:Agent>
            <dc:title>chinesenotes.com</dc:title>
          </cc:Agent>
        </dc:publisher>
        <dc:source>Yan Qin Ceremonial Inscription</dc:source>
        <dc:language>Chinese 中文</dc:language>
        <dc:description>Tracing from Tang Dynasty Ceremonial Inscription by Yan Zhenqing 颜真卿 (709－785)</dc:description>
        <cc:license
           rdf:resource="http://creativecommons.org/licenses/by/3.0/" />
      </cc:Work>
      <cc:License
         rdf:about="http://creativecommons.org/licenses/by/3.0/">
        <cc:permits
           rdf:resource="http://creativecommons.org/ns#Reproduction" />
        <cc:permits
           rdf:resource="http://creativecommons.org/ns#Distribution" />
        <cc:requires
           rdf:resource="http://creativecommons.org/ns#Notice" />
        <cc:requires
           rdf:resource="http://creativecommons.org/ns#Attribution" />
        <cc:permits
           rdf:resource="http://creativecommons.org/ns#DerivativeWorks" />
      </cc:License>
    </rdf:RDF>
  </metadata>
  <g
     inkscape:label="Layer 1"
     inkscape:groupmode="layer"
     id="layer1"
     transform="translate(0,-52.362183)">
    <g
       transform="matrix(4.7513766,0,0,4.7513766,-2598.7204,11.030684)"
       id="g2856"
       style="fill:#000000;fill-opacity:1">
      <path
         style="fill:#000000;fill-opacity:1;stroke:#000000;stroke-width:1px;stroke-linecap:butt;stroke-linejoin:miter;stroke-opacity:1"
         d="m 586.42857,35.93361 c -1.88048,0.970789 0.76284,5.362257 1.70532,7.830837 1.62097,7.678457 1.60444,15.234719 4.50123,22.696583 2.30184,4.852857 8.3943,5.528126 12.72202,3.044008 1.69651,-1.332977 2.97528,-4.118758 3.21429,-6.428571 -0.0646,-5.918524 -0.73697,-12.781767 -3.21429,-18.214286 -2.6924,-2.623271 -6.15349,-5.139787 -9.64285,-6.785714 -2.82016,-1.330264 -7.21467,-3.212028 -9.28572,-2.142857 z"
         id="path2824"
         sodipodi:nodetypes="ccccccss" />
      <path
         id="path2826"
         d="m 632.85714,38.076467 c 0.0691,4.412672 5.33673,4.924177 7.83227,7.67766 3.84376,2.499121 3.21833,8.481861 7.73946,9.996201 2.78085,1.170698 7.4061,3.993598 9.22207,0.05751 7.36372,-9.422827 -1.89838,-23.293982 -11.28797,-27.751553 -2.76036,-0.550583 -4.22136,2.310649 -6.16163,3.749402 -2.30884,2.260789 -4.79799,4.290403 -7.3442,6.27078 z"
         style="fill:#000000;fill-opacity:1;stroke:#000000;stroke-width:1px;stroke-linecap:butt;stroke-linejoin:miter;stroke-opacity:1"
         sodipodi:nodetypes="ccccccc" />
      <path
         style="fill:#000000;fill-opacity:1;stroke:#000000;stroke-width:1px;stroke-linecap:butt;stroke-linejoin:miter;stroke-opacity:1"
         d="m 618.03125,19.59375 c -1.0086,-0.0055 -2.01454,0.102707 -3.03125,0.28125 -2.15523,17.873736 -3.81256,37.450295 -5.0625,57.4375 -4.46369,0.972969 -8.93736,1.813073 -13.375,2.59375 l -10.84375,0.65625 c -0.28709,3.246086 0.89408,6.345712 1.03125,9.5625 1.51106,2.385573 3.1462,5.584492 5.75,6.84375 3.4178,1.669757 6.95049,-0.838191 10.25,-1.71875 2.05163,-0.616924 4.1754,-1.285082 6.28125,-1.9375 -0.34256,6.669776 -0.61753,13.33329 -0.875,19.96875 -14.76805,4.11365 -29.60475,7.94876 -44.21875,12.65625 -2.62425,3.32472 0.11993,6.5198 2.1875,9.28125 2.44946,3.39456 7.01152,5.59875 11.03125,3.625 5.49479,-1.40527 9.90129,-5.22861 14.875,-7.78125 5.02901,-3.07665 10.34055,-5.52925 15.75,-7.75 -0.42126,12.81167 -0.70624,25.3739 -0.84375,37.34375 1.3679,12.40723 -1.04105,24.87532 -2.25,36.71875 2.75651,10.03094 22.7412,8.39157 16.8125,-4.21875 0.23877,-25.24054 0.70987,-50.48132 1.53125,-75.71875 4.64617,-1.77808 9.25898,-3.62171 13.75,-5.78125 5.54188,1.08722 11.30019,0.85887 16.6875,2.6875 2.72869,0.0886 8.87911,1.3338 8.34375,-2.65625 -0.0891,-4.45433 -0.60472,-9.48672 -4.375,-12.4375 -2.5711,-2.746719 -6.94228,-2.507205 -10.09375,-0.9375 -5.17947,2.18485 -9.21498,6.69345 -14.90625,7.71875 -3.01443,0.98067 -6.06145,1.92877 -9.09375,2.84375 0.23977,-6.71274 0.51974,-13.414357 0.8125,-20.125 6.9042,-1.982168 13.96235,-3.791403 21.03125,-4.96875 l 8.03125,0 c 2.98395,-1.091167 3.62841,-4.988695 1.84375,-7.375 -1.88856,-3.588281 -4.28839,-6.945998 -7.3125,-9.65625 -2.10842,-2.301254 -5.43265,-2.121302 -7.84375,-0.375 -4.73468,2.86937 -9.80221,5.077989 -15.03125,6.875 0.48322,-9.635822 1.01526,-19.277507 1.625,-28.90625 -1.79638,-8.127034 8.66905,-22.19426 -3.5,-23.90625 -1.62893,-0.567724 -3.28774,-0.834507 -4.96875,-0.84375 z"
         id="path2828" />
      <path
         id="path2834"
         d="m 678.92857,56.647895 c -1.32041,0.265654 -2.42526,1.581394 -2.85714,2.857143 -0.57767,1.706389 0.60406,3.559001 0.71429,5.357143 0.72117,11.76423 -0.29762,23.570975 -0.35715,35.357139 -0.018,3.57138 0.95333,7.27245 0,10.71429 -0.55588,2.00692 -2.43487,3.42601 -3.21428,5.35714 -0.59445,1.47286 -1.22986,3.06249 -1.07143,4.64286 1.11109,4.1185 3.6092,7.87862 8.21428,7.85714 1.07637,-0.0596 2.36687,0.3092 3.21429,-0.35714 3.72312,-10.97028 1.98159,-23.81518 2.14286,-35.357143 -0.11815,-7.442473 0.23723,-14.852152 1.78571,-22.142857 0.36216,-1.578201 1.1878,-3.041636 1.42857,-4.642858 0.19472,-1.294966 0.45433,-2.700388 0,-3.928571 -1.99166,-3.34075 -6.11905,-5.805429 -10,-5.714286 z"
         style="fill:#000000;fill-opacity:1;stroke:#000000;stroke-width:1px;stroke-linecap:butt;stroke-linejoin:miter;stroke-opacity:1"
         sodipodi:nodetypes="cssssscccccscc" />
      <path
         id="path2838"
         d="m 711.78572,15.219324 c -3.42994,2.042155 -3.50973,5.772352 -2.5,9.285714 0.61739,1.8827 2.62085,3.109611 3.21428,5 0.96337,3.068831 0.3312,6.426472 0.35714,9.642857 0.32165,39.88836 -0.92544,79.784285 -2.5,119.642855 -0.40481,10.24739 4.20789,22.39265 -1.78571,30.71429 -8.44557,2.27185 -16.51451,-3.87674 -25.35714,-2.14286 -0.77993,0.35872 -1.62207,1.30649 -1.42857,2.14286 4.4504,4.09918 10.89571,6.16092 16.07142,10 2.39968,1.85837 5.04525,3.58491 6.78572,6.07143 1.37981,4.34673 1.76298,6.68791 6.78571,7.85714 1.8694,0.38424 3.95637,1.10012 5.71429,0.35714 1.01098,-0.42729 1.4801,-1.62513 2.14286,-2.5 1.29594,-1.71071 3.08063,-3.26785 3.57142,-5.35714 7.03338,-29.94093 3.35765,-61.40597 3.92858,-92.14286 1.96556,-23.236668 -1.28684,-47.232285 0,-70.35714 0.63579,-2.420732 2.57188,-4.366728 3.21428,-6.785715 0.48538,-2.92872 0.62764,-6.025969 0,-8.928571 -3.51511,-5.123485 -10.90049,-13.847517 -18.21428,-12.5 z"
         style="fill:#000000;fill-opacity:1;stroke:#000000;stroke-width:1px;stroke-linecap:butt;stroke-linejoin:miter;stroke-opacity:1"
         sodipodi:nodetypes="ccsssccccccsssccccc" />
    </g>
  </g>
</svg>
