<?xml version="1.0" encoding="UTF-8" standalone="no"?>
<!-- Created with Inkscape (http://www.inkscape.org/) -->

<svg
   xmlns:dc="http://purl.org/dc/elements/1.1/"
   xmlns:cc="http://creativecommons.org/ns#"
   xmlns:rdf="http://www.w3.org/1999/02/22-rdf-syntax-ns#"
   xmlns:svg="http://www.w3.org/2000/svg"
   xmlns="http://www.w3.org/2000/svg"
   xmlns:sodipodi="http://sodipodi.sourceforge.net/DTD/sodipodi-0.dtd"
   xmlns:inkscape="http://www.inkscape.org/namespaces/inkscape"
   width="1000"
   height="1000"
   id="svg3173"
   version="1.1"
   inkscape:version="0.47 r22583"
   sodipodi:docname="529b.svg"
   inkscape:export-filename="E:\chinese\yan\529b.png"
   inkscape:export-xdpi="18.005705"
   inkscape:export-ydpi="18.005705">
  <title
     id="title4227">Li</title>
  <defs
     id="defs3175">
    <inkscape:perspective
       sodipodi:type="inkscape:persp3d"
       inkscape:vp_x="0 : 526.18109 : 1"
       inkscape:vp_y="0 : 1000 : 0"
       inkscape:vp_z="744.09448 : 526.18109 : 1"
       inkscape:persp3d-origin="372.04724 : 350.78739 : 1"
       id="perspective3181" />
    <inkscape:perspective
       id="perspective3191"
       inkscape:persp3d-origin="0.5 : 0.33333333 : 1"
       inkscape:vp_z="1 : 0.5 : 1"
       inkscape:vp_y="0 : 1000 : 0"
       inkscape:vp_x="0 : 0.5 : 1"
       sodipodi:type="inkscape:persp3d" />
    <inkscape:perspective
       id="perspective4006"
       inkscape:persp3d-origin="0.5 : 0.33333333 : 1"
       inkscape:vp_z="1 : 0.5 : 1"
       inkscape:vp_y="0 : 1000 : 0"
       inkscape:vp_x="0 : 0.5 : 1"
       sodipodi:type="inkscape:persp3d" />
    <inkscape:perspective
       id="perspective4034"
       inkscape:persp3d-origin="0.5 : 0.33333333 : 1"
       inkscape:vp_z="1 : 0.5 : 1"
       inkscape:vp_y="0 : 1000 : 0"
       inkscape:vp_x="0 : 0.5 : 1"
       sodipodi:type="inkscape:persp3d" />
    <inkscape:perspective
       id="perspective4081"
       inkscape:persp3d-origin="0.5 : 0.33333333 : 1"
       inkscape:vp_z="1 : 0.5 : 1"
       inkscape:vp_y="0 : 1000 : 0"
       inkscape:vp_x="0 : 0.5 : 1"
       sodipodi:type="inkscape:persp3d" />
    <inkscape:perspective
       id="perspective4147"
       inkscape:persp3d-origin="0.5 : 0.33333333 : 1"
       inkscape:vp_z="1 : 0.5 : 1"
       inkscape:vp_y="0 : 1000 : 0"
       inkscape:vp_x="0 : 0.5 : 1"
       sodipodi:type="inkscape:persp3d" />
    <inkscape:perspective
       id="perspective3797"
       inkscape:persp3d-origin="0.5 : 0.33333333 : 1"
       inkscape:vp_z="1 : 0.5 : 1"
       inkscape:vp_y="0 : 1000 : 0"
       inkscape:vp_x="0 : 0.5 : 1"
       sodipodi:type="inkscape:persp3d" />
    <inkscape:perspective
       id="perspective3104"
       inkscape:persp3d-origin="0.5 : 0.33333333 : 1"
       inkscape:vp_z="1 : 0.5 : 1"
       inkscape:vp_y="0 : 1000 : 0"
       inkscape:vp_x="0 : 0.5 : 1"
       sodipodi:type="inkscape:persp3d" />
    <inkscape:perspective
       id="perspective3140"
       inkscape:persp3d-origin="0.5 : 0.33333333 : 1"
       inkscape:vp_z="1 : 0.5 : 1"
       inkscape:vp_y="0 : 1000 : 0"
       inkscape:vp_x="0 : 0.5 : 1"
       sodipodi:type="inkscape:persp3d" />
    <inkscape:perspective
       id="perspective3799"
       inkscape:persp3d-origin="0.5 : 0.33333333 : 1"
       inkscape:vp_z="1 : 0.5 : 1"
       inkscape:vp_y="0 : 1000 : 0"
       inkscape:vp_x="0 : 0.5 : 1"
       sodipodi:type="inkscape:persp3d" />
    <inkscape:perspective
       id="perspective3835"
       inkscape:persp3d-origin="0.5 : 0.33333333 : 1"
       inkscape:vp_z="1 : 0.5 : 1"
       inkscape:vp_y="0 : 1000 : 0"
       inkscape:vp_x="0 : 0.5 : 1"
       sodipodi:type="inkscape:persp3d" />
  </defs>
  <sodipodi:namedview
     id="base"
     pagecolor="#ffffff"
     bordercolor="#666666"
     borderopacity="1.0"
     inkscape:pageopacity="0.0"
     inkscape:pageshadow="2"
     inkscape:zoom="0.49497475"
     inkscape:cx="637.59461"
     inkscape:cy="519.65337"
     inkscape:document-units="px"
     inkscape:current-layer="g5879"
     showgrid="false"
     inkscape:window-width="1440"
     inkscape:window-height="840"
     inkscape:window-x="-4"
     inkscape:window-y="-4"
     inkscape:window-maximized="1" />
  <metadata
     id="metadata3178">
    <rdf:RDF>
      <cc:Work
         rdf:about="">
        <dc:format>image/svg+xml</dc:format>
        <dc:type
           rdf:resource="http://purl.org/dc/dcmitype/StillImage" />
        <dc:title>Li</dc:title>
        <dc:date>2010-08-12</dc:date>
        <dc:creator>
          <cc:Agent>
            <dc:title>Alex Amies</dc:title>
          </cc:Agent>
        </dc:creator>
        <dc:rights>
          <cc:Agent>
            <dc:title>@ Alex Amies 2010</dc:title>
          </cc:Agent>
        </dc:rights>
        <dc:publisher>
          <cc:Agent>
            <dc:title>chinesenotes.com</dc:title>
          </cc:Agent>
        </dc:publisher>
        <dc:source>Yan Qin Ceremonial Inscription</dc:source>
        <dc:language>Chinese 中文</dc:language>
        <dc:description>Tracing from Tang Dynasty Ceremonial Inscription by Yan Zhenqing 颜真卿 (709－785)</dc:description>
        <cc:license
           rdf:resource="http://creativecommons.org/licenses/by/3.0/" />
      </cc:Work>
      <cc:License
         rdf:about="http://creativecommons.org/licenses/by/3.0/">
        <cc:permits
           rdf:resource="http://creativecommons.org/ns#Reproduction" />
        <cc:permits
           rdf:resource="http://creativecommons.org/ns#Distribution" />
        <cc:requires
           rdf:resource="http://creativecommons.org/ns#Notice" />
        <cc:requires
           rdf:resource="http://creativecommons.org/ns#Attribution" />
        <cc:permits
           rdf:resource="http://creativecommons.org/ns#DerivativeWorks" />
      </cc:License>
    </rdf:RDF>
  </metadata>
  <g
     inkscape:label="Layer 1"
     inkscape:groupmode="layer"
     id="layer1"
     transform="translate(0,-52.362183)">
    <path
       style="fill:#000000;stroke:#000000;stroke-width:4.73223686000000040px;stroke-linecap:butt;stroke-linejoin:miter;stroke-opacity:1;fill-opacity:1"
       d="m 369.84328,287.58699 0,0 z"
       id="path5819" />
    <g
       transform="matrix(4.7322369,0,0,4.7322369,-536.04205,-3955.5633)"
       id="g5879"
       style="fill:#000000;fill-opacity:1">
      <g
         transform="matrix(1.0040445,0,0,1.0040445,-396.72232,193.25354)"
         id="g4598"
         style="fill:none;fill-opacity:1">
        <path
           style="fill:#000000;fill-opacity:1;stroke:#000000;stroke-width:1.38781905000000010px;stroke-linecap:butt;stroke-linejoin:miter;stroke-opacity:1"
           d="m 625.68625,664.52232 c -0.25315,-0.0114 -0.49228,0.0736 -0.70941,0.27482 -5.09715,4.72481 -4.96306,17.48281 -8.74154,25.73769 -1.39696,3.05195 -2.62531,4.53843 -3.79142,7.78037 -5.3816,0.31376 -11.68081,0.75929 -16.14307,2.64154 -2.63141,1.10997 -5.59692,5.21263 -5.1393,8.03312 0.94397,5.81811 8.5052,6.2195 13.43154,6.11996 0.91209,-0.1642 1.82319,-0.3396 2.73518,-0.50735 -1.46397,3.95449 -3.0505,7.80627 -4.95012,11.40491 -7.75758,14.6959 -14.92598,30.13327 -23.78897,43.63251 -9.54418,14.53676 -19.35446,28.9152 -29.75591,42.32184 -3.17636,4.09408 -8.07268,6.05646 -9.77413,11.86999 -1.76414,6.02772 5.50667,5.99237 8.78095,2.38879 9.2861,-10.22004 18.95447,-20.81439 28.28191,-31.46656 6.26532,-7.15515 12.08288,-14.8944 17.40426,-23.34889 6.81615,-10.82939 13.52958,-21.75668 19.19355,-33.73909 4.38054,-9.26728 9.52636,-17.8368 14.21978,-26.80524 8.52806,-1.65475 17.05875,-3.28401 25.60191,-4.65076 l 7.53553,1.05699 c -3.41552,12.91462 -6.30236,26.15402 -11.39001,38.13617 -4.84794,12.5757 -8.92433,25.76363 -14.44048,37.82964 -5.06832,9.71366 -9.69396,19.94072 -15.11049,29.26803 -1.57345,0.98604 -3.00018,4.85165 -4.67424,3.83687 -3.632,-1.70728 -7.50467,-9.06872 -10.19978,-8.94213 -0.88534,6.44258 1.78524,12.30527 2.80612,18.47617 1.57886,6.64301 2.54572,13.63891 3.75201,20.30476 3.973,4.32528 9.18831,0.44433 12.76154,-2.92786 5.32274,-6.94373 11.93346,-12.33674 15.65437,-21.22434 5.07966,-9.90751 10.8518,-19.24857 15.37849,-29.61684 5.27508,-14.23873 10.72074,-28.40693 14.57448,-43.48453 3.77589,-13.55111 8.96607,-25.85508 10.90919,-40.8949 0.84127,-6.51143 -2.29281,-14.75451 -7.55918,-18.0111 -5.50717,-5.60888 -11.8646,-1.33015 -17.93237,-0.22197 -7.03628,1.12273 -13.95476,2.34539 -20.69032,4.66895 -0.66219,0.0386 -1.32416,0.0777 -1.98635,0.11627 3.02406,-6.34635 7.43637,-9.21612 5.02018,-16.05272 -1.38659,-3.92332 -4.34284,-6.849 -6.84189,-9.71373 -1.25908,-1.44331 -3.055,-4.23003 -4.42201,-4.29138 z"
           id="path4575"
           sodipodi:nodetypes="csscssccssssssssccccccccccccccsccccssc" />
      </g>
    </g>
    <path
       style="fill:#000000;stroke:#000000;stroke-width:4.73223686000000040px;stroke-linecap:butt;stroke-linejoin:miter;stroke-opacity:1;fill-opacity:1"
       d="m 594.62455,556.31042 0,0 z"
       id="path5837" />
  </g>
</svg>
