<?xml version="1.0" encoding="UTF-8" standalone="no"?>
<!-- Created with Inkscape (http://www.inkscape.org/) -->

<svg
   xmlns:dc="http://purl.org/dc/elements/1.1/"
   xmlns:cc="http://creativecommons.org/ns#"
   xmlns:rdf="http://www.w3.org/1999/02/22-rdf-syntax-ns#"
   xmlns:svg="http://www.w3.org/2000/svg"
   xmlns="http://www.w3.org/2000/svg"
   xmlns:sodipodi="http://sodipodi.sourceforge.net/DTD/sodipodi-0.dtd"
   xmlns:inkscape="http://www.inkscape.org/namespaces/inkscape"
   width="1000"
   height="1000"
   id="svg3173"
   version="1.1"
   inkscape:version="0.47 r22583"
   sodipodi:docname="5357.svg"
   inkscape:export-filename="E:\chinese\yan\5357.png"
   inkscape:export-xdpi="18.005705"
   inkscape:export-ydpi="18.005705">
  <title
     id="title2826">Nan</title>
  <defs
     id="defs3175">
    <inkscape:perspective
       sodipodi:type="inkscape:persp3d"
       inkscape:vp_x="0 : 526.18109 : 1"
       inkscape:vp_y="0 : 1000 : 0"
       inkscape:vp_z="744.09448 : 526.18109 : 1"
       inkscape:persp3d-origin="372.04724 : 350.78739 : 1"
       id="perspective3181" />
    <inkscape:perspective
       id="perspective3191"
       inkscape:persp3d-origin="0.5 : 0.33333333 : 1"
       inkscape:vp_z="1 : 0.5 : 1"
       inkscape:vp_y="0 : 1000 : 0"
       inkscape:vp_x="0 : 0.5 : 1"
       sodipodi:type="inkscape:persp3d" />
    <inkscape:perspective
       id="perspective4006"
       inkscape:persp3d-origin="0.5 : 0.33333333 : 1"
       inkscape:vp_z="1 : 0.5 : 1"
       inkscape:vp_y="0 : 1000 : 0"
       inkscape:vp_x="0 : 0.5 : 1"
       sodipodi:type="inkscape:persp3d" />
    <inkscape:perspective
       id="perspective4034"
       inkscape:persp3d-origin="0.5 : 0.33333333 : 1"
       inkscape:vp_z="1 : 0.5 : 1"
       inkscape:vp_y="0 : 1000 : 0"
       inkscape:vp_x="0 : 0.5 : 1"
       sodipodi:type="inkscape:persp3d" />
    <inkscape:perspective
       id="perspective4081"
       inkscape:persp3d-origin="0.5 : 0.33333333 : 1"
       inkscape:vp_z="1 : 0.5 : 1"
       inkscape:vp_y="0 : 1000 : 0"
       inkscape:vp_x="0 : 0.5 : 1"
       sodipodi:type="inkscape:persp3d" />
    <inkscape:perspective
       id="perspective4147"
       inkscape:persp3d-origin="0.5 : 0.33333333 : 1"
       inkscape:vp_z="1 : 0.5 : 1"
       inkscape:vp_y="0 : 1000 : 0"
       inkscape:vp_x="0 : 0.5 : 1"
       sodipodi:type="inkscape:persp3d" />
    <inkscape:perspective
       id="perspective3765"
       inkscape:persp3d-origin="0.5 : 0.33333333 : 1"
       inkscape:vp_z="1 : 0.5 : 1"
       inkscape:vp_y="0 : 1000 : 0"
       inkscape:vp_x="0 : 0.5 : 1"
       sodipodi:type="inkscape:persp3d" />
    <inkscape:perspective
       id="perspective3793"
       inkscape:persp3d-origin="0.5 : 0.33333333 : 1"
       inkscape:vp_z="1 : 0.5 : 1"
       inkscape:vp_y="0 : 1000 : 0"
       inkscape:vp_x="0 : 0.5 : 1"
       sodipodi:type="inkscape:persp3d" />
    <inkscape:perspective
       id="perspective3764"
       inkscape:persp3d-origin="0.5 : 0.33333333 : 1"
       inkscape:vp_z="1 : 0.5 : 1"
       inkscape:vp_y="0 : 1000 : 0"
       inkscape:vp_x="0 : 0.5 : 1"
       sodipodi:type="inkscape:persp3d" />
    <inkscape:perspective
       id="perspective3731"
       inkscape:persp3d-origin="0.5 : 0.33333333 : 1"
       inkscape:vp_z="1 : 0.5 : 1"
       inkscape:vp_y="0 : 1000 : 0"
       inkscape:vp_x="0 : 0.5 : 1"
       sodipodi:type="inkscape:persp3d" />
  </defs>
  <sodipodi:namedview
     id="base"
     pagecolor="#ffffff"
     bordercolor="#666666"
     borderopacity="1.0"
     inkscape:pageopacity="0.0"
     inkscape:pageshadow="2"
     inkscape:zoom="0.49497475"
     inkscape:cx="462.36755"
     inkscape:cy="500.98042"
     inkscape:document-units="px"
     inkscape:current-layer="g5429"
     showgrid="false"
     inkscape:window-width="1440"
     inkscape:window-height="840"
     inkscape:window-x="-4"
     inkscape:window-y="-4"
     inkscape:window-maximized="1" />
  <metadata
     id="metadata3178">
    <rdf:RDF>
      <cc:Work
         rdf:about="">
        <dc:format>image/svg+xml</dc:format>
        <dc:type
           rdf:resource="http://purl.org/dc/dcmitype/StillImage" />
        <dc:title>Nan</dc:title>
        <dc:date>2010-08-05</dc:date>
        <dc:creator>
          <cc:Agent>
            <dc:title>Alex Amies</dc:title>
          </cc:Agent>
        </dc:creator>
        <dc:rights>
          <cc:Agent>
            <dc:title>@ Alex Amies 2010</dc:title>
          </cc:Agent>
        </dc:rights>
        <dc:publisher>
          <cc:Agent>
            <dc:title>chinesenotes.com</dc:title>
          </cc:Agent>
        </dc:publisher>
        <dc:source>Yan Qin Ceremonial Inscription</dc:source>
        <dc:language>Chinese 中文</dc:language>
        <dc:description>Tracing from Tang Dynasty Ceremonial Inscription by Yan Zhenqing 颜真卿 (709－785)</dc:description>
        <cc:license
           rdf:resource="http://creativecommons.org/licenses/by/3.0/" />
      </cc:Work>
      <cc:License
         rdf:about="http://creativecommons.org/licenses/by/3.0/">
        <cc:permits
           rdf:resource="http://creativecommons.org/ns#Reproduction" />
        <cc:permits
           rdf:resource="http://creativecommons.org/ns#Distribution" />
        <cc:requires
           rdf:resource="http://creativecommons.org/ns#Notice" />
        <cc:requires
           rdf:resource="http://creativecommons.org/ns#Attribution" />
        <cc:permits
           rdf:resource="http://creativecommons.org/ns#DerivativeWorks" />
      </cc:License>
    </rdf:RDF>
  </metadata>
  <g
     inkscape:label="Layer 1"
     inkscape:groupmode="layer"
     id="layer1"
     transform="translate(0,-52.362183)">
    <g
       transform="matrix(4.7513766,0,0,4.7513766,-1438.7404,-2863.5829)"
       id="g5429"
       style="fill:none;fill-opacity:1">
      <path
         style="fill:#000000;fill-opacity:1;stroke:#000000;stroke-width:1px;stroke-linecap:butt;stroke-linejoin:miter;stroke-opacity:1"
         d="m 395.19744,618.55665 c -3.2297,0.26561 -7.3806,1.18984 -10.00003,3.21873 -2.91621,2.2588 -1.4027,6.76824 -0.68748,10.34375 0.56052,6.73474 0.13114,13.31701 -0.93749,19.78126 -12.00402,3.00021 -24.03033,5.99244 -35.96878,9.24998 l -13.81249,1.68755 c -1.97933,3.90126 -0.21856,9.02642 3.87499,10.65624 3.07433,2.20393 6.80772,4.80559 10.75003,3.93747 8.22782,-2.63013 15.57079,-7.32591 23.37497,-10.93748 3.08122,-1.2337 6.19656,-2.42672 9.34377,-3.56249 -1.82115,6.79998 -4.14301,13.48997 -6.59377,20.15624 -1.85945,4.77005 -5.48622,9.90553 -5.40621,14.40622 0.0485,2.73167 4.39892,0.33498 6.56246,-0.53125 2.41964,-0.9688 5.22528,-1.48024 7.12502,-3.18746 3.48324,-3.13035 6.91421,-6.7853 9.00001,-11.18749 3.38303,-8.1557 5.90487,-16.83024 7.8125,-25.6563 11.96021,-3.45178 24.17158,-6.15949 36.31249,-8.03125 4.39783,-0.43903 8.63126,0.65113 12.59376,2.50003 2.72254,1.72105 6.74278,3.73173 9.24998,0.56247 1.741,-1.55161 4.54745,-2.84375 1.87499,-5.34373 -1.75886,-6.61696 -9.77928,-6.74045 -15.06248,-9.24998 -4.80046,-1.11672 -9.78575,1.60226 -14.62502,2.28123 -9.46498,2.75166 -18.98726,5.27417 -28.53121,7.71875 0.97717,-5.81668 1.75483,-11.63536 2.34371,-17.37502 -0.55738,-4.47865 -4.07226,-10.04664 -8.59372,-11.43747 z m 72.90626,56.78123 c -0.97018,0.0475 -1.87289,0.48911 -2.71878,1.59376 -2.83724,0.76739 -0.0651,5.5173 -2.43751,5.99999 -13.42781,0.41432 -26.48113,2.61316 -39.40625,5.62501 -0.0238,-0.48687 -0.066,-0.96614 -0.12496,-1.43748 -0.26418,-2.11992 -2.44297,-4.15432 -4.28128,-5.34378 -2.20934,-1.42954 -5.5353,-2.80241 -7.84376,-2.49998 -1.50001,0.1967 -3.04896,2.18397 -3.56249,4.03126 -0.66642,3.33865 -1.52481,6.63487 -2.4375,9.9375 -3.16617,0.87582 -6.33491,1.78519 -9.5,2.68747 -8.70623,3.3635 -17.44662,6.64385 -26.24997,9.75002 -1.13135,-2.28883 -2.29212,-4.58152 -3.75003,-6.65625 -1.01641,-1.44646 -1.93927,-3.53612 -3.43748,-4.03126 -1.98821,-0.65707 -4.97464,-0.60699 -7.03127,0.93749 -0.25563,0.19196 -0.76697,0.16868 -0.81249,0.46896 -0.32642,2.15114 -0.7644,4.65113 -0.34352,6.87501 0.44663,2.36005 1.62801,4.54198 2.90627,6.65625 -2.43703,0.79818 -4.86365,1.58444 -7.31251,2.34371 l -8.84374,1.62502 c -1.16038,3.02411 0.50122,4.64186 3.21873,5.71876 2.79423,0.6258 5.57992,0.93678 8.25,-0.34353 2.72477,-1.12175 5.47159,-2.1671 8.21874,-3.21872 1.32264,2.49442 2.62476,5.00453 4.3125,7.21872 2.12514,2.78801 4.76686,5.31888 7.53126,7.46878 1.61979,1.25968 3.76048,1.61314 5.84377,1.93747 -5.46295,1.79602 -10.7938,3.74456 -15.9375,5.87503 -2.00936,1.06739 -1.30007,4.83813 0.18768,7.12497 1.69866,2.61131 5.58358,1.46447 8.09373,0.84375 5.36412,-1.19411 10.60541,-2.98025 15.81254,-4.81248 -0.43523,5.70964 -0.75718,11.07798 -0.96876,16.28126 -7.64478,2.11826 -15.31991,4.1049 -22.96877,6.09374 -2.31369,0.53989 -4.6239,1.0538 -6.93749,1.59375 -1.11724,2.90442 -1.15192,5.79331 0.4376,8.49997 0.70891,2.91388 4.16496,2.8343 6.53124,3.34379 3.37771,1.631 6.20806,-0.94553 9.1875,-2.21875 4.37849,-2.37778 8.88935,-4.28817 13.5,-5.93751 3.3e-4,4.39939 0.11498,8.80183 0.37488,13.28123 1.40051,9.35371 3.2374,19.44097 8.18748,27.68751 0.4882,0.69798 2.44463,0.79348 2.84374,0 3.16247,-6.28764 6.44059,-13.8821 7.87503,-21.21875 0.36823,-6.35487 0.8695,-16.09837 1.0625,-25.65624 2.25938,-0.56556 4.51704,-1.12009 6.78121,-1.6875 3.67253,0.8868 7.31793,2.16649 11.15628,1.78124 4.76906,0.73647 8.09892,-1.36051 12.06251,-3.56248 -0.32974,-5.93176 -7.67271,-12.82853 -13.71879,-12.875 -2.43014,-0.29031 -4.75902,0.31882 -6.90622,1.43748 -3.08911,1.18015 -6.20615,2.25425 -9.34377,3.31252 -0.0827,-4.74567 -0.29601,-9.04368 -0.75001,-12.25 -0.93198,-1.02748 -2.28674,-1.98926 -3.78124,-2.71878 2.59283,-0.70767 5.21331,-1.29547 7.87503,-1.71872 4.78967,-0.52531 9.58481,-0.97132 14.40622,-0.87501 2.28033,0.0475 5.633,-0.30124 6.50003,-1.81251 1.05875,-1.84558 0.32499,-5.92188 -0.71879,-8.21874 -0.74169,-1.63172 -2.81909,-3.07942 -4.62499,-3.59375 -5.26434,1.12736 -10.57566,2.33307 -15.87497,3.59375 5.47278,-6.59087 10.46367,-14.01414 13.03122,-22.12502 0.38676,-1.52567 0.74929,-3.13739 1.06251,-4.75 10.22605,-2.42031 20.51416,-4.62718 30.81248,-6.71873 l 10.59377,-0.344 c 1.96222,1.8107 3.58752,3.73462 2.56251,6.53124 -2.22778,29.26643 -5.82134,58.3909 -10.21874,87.40627 l -3.78129,8.56251 c -2.70961,0.48373 -4.97787,-0.55093 -7.12497,-2.12501 -2.35816,-1.48727 -4.69213,-3.14641 -7.62501,-2.53125 -2.8169,-0.56945 -4.41203,3.00473 -1.43748,4.24997 2.35449,2.86204 6.00607,4.97531 6.49998,8.93753 1.70731,2.57966 0.55771,4.56293 -0.90623,6.49997 0.81652,2.7443 1.77796,5.81165 3.5,8.00004 2.30575,1.08726 4.69465,2.97018 6.59373,0.21856 6.82834,-6.12661 18.99495,-6.19822 24.21876,-14.09377 7.43253,-11.57758 8.79009,-26.72283 11.03122,-40.09373 1.39762,-22.62092 2.66975,-45.35488 2.25002,-68.03125 -2.83638,-7.94787 -9.801,-14.2252 -17.65626,-17.25002 -1.3425,-0.7491 -2.69013,-1.34184 -3.93747,-1.28126 z m -141.46877,22.84377 c -2.29154,15.57748 -0.64419,33.25113 0.28129,48.84372 1.28529,14.65809 3.70521,29.01756 7.87502,43.12502 l 3.28126,5.53126 c 4.35031,0.86319 6.40756,-3.41096 6.68746,-7.12502 -0.22236,-3.78841 -1.81326,-7.36568 -2.34371,-11.12497 -5.23221,-21.40476 -5.31223,-42.66303 -3.03128,-64.4375 0.23282,-4.28897 -2.85092,-7.43253 -6.06247,-9.84376 -2.10215,-1.82306 -4.46706,-3.29983 -6.68752,-4.96875 z m 75.99998,4.31249 c -2.09217,7.18498 -4.09706,14.38983 -4.93748,21.78126 -0.0494,0.80336 0.34352,1.75872 0.90627,2.49998 -6.15369,1.60264 -12.2614,3.31233 -18.21877,5.21877 0.74478,-0.81405 1.04549,-2.12405 0.90623,-3.09376 -0.28413,-1.97928 0.10738,-4.11921 -1.21873,-5.90625 -2.67635,-3.60672 -5.22566,-7.3747 -7.43752,-11.3125 9.89565,-3.41382 19.9019,-6.44615 30,-9.1875 z"
         id="path3901" />
    </g>
  </g>
</svg>
