<?xml version="1.0" encoding="UTF-8" standalone="no"?>
<!-- Created with Inkscape (http://www.inkscape.org/) -->

<svg
   xmlns:dc="http://purl.org/dc/elements/1.1/"
   xmlns:cc="http://creativecommons.org/ns#"
   xmlns:rdf="http://www.w3.org/1999/02/22-rdf-syntax-ns#"
   xmlns:svg="http://www.w3.org/2000/svg"
   xmlns="http://www.w3.org/2000/svg"
   xmlns:sodipodi="http://sodipodi.sourceforge.net/DTD/sodipodi-0.dtd"
   xmlns:inkscape="http://www.inkscape.org/namespaces/inkscape"
   width="1000"
   height="1000"
   id="svg3173"
   version="1.1"
   inkscape:version="0.47 r22583"
   sodipodi:docname="537f.svg"
   inkscape:export-filename="E:\chinese\yan\537f.png"
   inkscape:export-xdpi="18.005705"
   inkscape:export-ydpi="18.005705">
  <title
     id="title2820">Qing</title>
  <defs
     id="defs3175">
    <inkscape:perspective
       sodipodi:type="inkscape:persp3d"
       inkscape:vp_x="0 : 526.18109 : 1"
       inkscape:vp_y="0 : 1000 : 0"
       inkscape:vp_z="744.09448 : 526.18109 : 1"
       inkscape:persp3d-origin="372.04724 : 350.78739 : 1"
       id="perspective3181" />
    <inkscape:perspective
       id="perspective3191"
       inkscape:persp3d-origin="0.5 : 0.33333333 : 1"
       inkscape:vp_z="1 : 0.5 : 1"
       inkscape:vp_y="0 : 1000 : 0"
       inkscape:vp_x="0 : 0.5 : 1"
       sodipodi:type="inkscape:persp3d" />
    <inkscape:perspective
       id="perspective4006"
       inkscape:persp3d-origin="0.5 : 0.33333333 : 1"
       inkscape:vp_z="1 : 0.5 : 1"
       inkscape:vp_y="0 : 1000 : 0"
       inkscape:vp_x="0 : 0.5 : 1"
       sodipodi:type="inkscape:persp3d" />
    <inkscape:perspective
       id="perspective4034"
       inkscape:persp3d-origin="0.5 : 0.33333333 : 1"
       inkscape:vp_z="1 : 0.5 : 1"
       inkscape:vp_y="0 : 1000 : 0"
       inkscape:vp_x="0 : 0.5 : 1"
       sodipodi:type="inkscape:persp3d" />
    <inkscape:perspective
       id="perspective4081"
       inkscape:persp3d-origin="0.5 : 0.33333333 : 1"
       inkscape:vp_z="1 : 0.5 : 1"
       inkscape:vp_y="0 : 1000 : 0"
       inkscape:vp_x="0 : 0.5 : 1"
       sodipodi:type="inkscape:persp3d" />
    <inkscape:perspective
       id="perspective4147"
       inkscape:persp3d-origin="0.5 : 0.33333333 : 1"
       inkscape:vp_z="1 : 0.5 : 1"
       inkscape:vp_y="0 : 1000 : 0"
       inkscape:vp_x="0 : 0.5 : 1"
       sodipodi:type="inkscape:persp3d" />
    <inkscape:perspective
       id="perspective3737"
       inkscape:persp3d-origin="0.5 : 0.33333333 : 1"
       inkscape:vp_z="1 : 0.5 : 1"
       inkscape:vp_y="0 : 1000 : 0"
       inkscape:vp_x="0 : 0.5 : 1"
       sodipodi:type="inkscape:persp3d" />
    <inkscape:perspective
       id="perspective3836"
       inkscape:persp3d-origin="0.5 : 0.33333333 : 1"
       inkscape:vp_z="1 : 0.5 : 1"
       inkscape:vp_y="0 : 1000 : 0"
       inkscape:vp_x="0 : 0.5 : 1"
       sodipodi:type="inkscape:persp3d" />
  </defs>
  <sodipodi:namedview
     id="base"
     pagecolor="#ffffff"
     bordercolor="#666666"
     borderopacity="1.0"
     inkscape:pageopacity="0.0"
     inkscape:pageshadow="2"
     inkscape:zoom="0.49497475"
     inkscape:cx="124.04545"
     inkscape:cy="482.85714"
     inkscape:document-units="px"
     inkscape:current-layer="g4264"
     showgrid="false"
     inkscape:window-width="1440"
     inkscape:window-height="840"
     inkscape:window-x="-4"
     inkscape:window-y="-4"
     inkscape:window-maximized="1" />
  <metadata
     id="metadata3178">
    <rdf:RDF>
      <cc:Work
         rdf:about="">
        <dc:format>image/svg+xml</dc:format>
        <dc:type
           rdf:resource="http://purl.org/dc/dcmitype/StillImage" />
        <dc:title>Qing</dc:title>
        <dc:date>2010-07-27</dc:date>
        <dc:creator>
          <cc:Agent>
            <dc:title>Alex Amies</dc:title>
          </cc:Agent>
        </dc:creator>
        <dc:rights>
          <cc:Agent>
            <dc:title>@ Alex Amies 2010</dc:title>
          </cc:Agent>
        </dc:rights>
        <dc:publisher>
          <cc:Agent>
            <dc:title>chinesenotes.com</dc:title>
          </cc:Agent>
        </dc:publisher>
        <dc:source>Yan Qin Ceremonial Inscription</dc:source>
        <dc:language>Chinese 中文</dc:language>
        <dc:description>Tracing from Tang Dynasty Ceremonial Inscription by Yan Zhenqing 颜真卿 (709－785)</dc:description>
        <cc:license
           rdf:resource="http://creativecommons.org/licenses/by/3.0/" />
      </cc:Work>
      <cc:License
         rdf:about="http://creativecommons.org/licenses/by/3.0/">
        <cc:permits
           rdf:resource="http://creativecommons.org/ns#Reproduction" />
        <cc:permits
           rdf:resource="http://creativecommons.org/ns#Distribution" />
        <cc:requires
           rdf:resource="http://creativecommons.org/ns#Notice" />
        <cc:requires
           rdf:resource="http://creativecommons.org/ns#Attribution" />
        <cc:permits
           rdf:resource="http://creativecommons.org/ns#DerivativeWorks" />
      </cc:License>
    </rdf:RDF>
  </metadata>
  <g
     inkscape:label="Layer 1"
     inkscape:groupmode="layer"
     id="layer1"
     transform="translate(0,-52.362183)">
    <g
       transform="matrix(4.7609464,0,0,4.7609464,-696.12274,-2965.6673)"
       id="g4264"
       style="fill:none;fill-opacity:1">
      <g
         id="g2824"
         style="fill:#000000;fill-opacity:1">
        <path
           id="path4194"
           transform="matrix(0.21004227,0,0,0.21004227,146.2152,633.91377)"
           d="M 276.46875 47.03125 C 261.45296 55.099626 265.70349 70.245456 265.84375 84.28125 C 265.54095 101.0803 259.26935 116.61589 251.59375 131.3125 C 219.25112 203.60704 186.51814 275.73605 154.03125 347.96875 L 113.25 376.875 C 110.05341 394.56758 98.91883 409.8965 96.0625 427.34375 C 89.123754 445.87564 111.50998 456.26196 125.625 447.6875 C 148.38618 443.61303 158.42838 429.82219 171.0625 412.59375 C 194.43237 410.10344 218.08472 409.07364 241.4375 408.65625 C 249.55867 391.1364 229.37627 383.4708 217.90625 375.125 C 205.71147 368.90887 201.83958 355.32107 194.84375 344.59375 C 212.14477 309.49621 230.97635 275.20565 250.65625 241.40625 C 252.1704 249.77707 255.91177 258.24118 260.84375 263.84375 C 276.39676 279.91223 270.33896 304.31639 274.71875 324.90625 C 267.09647 510.58159 155.85583 690.03113 59.0625 846.9375 C 48.255056 871.17472 44.330414 890.98027 99.375 839.9375 C 233.04933 678.98885 295.40298 519.93398 325.78125 328 C 328.2597 294.2397 326.56145 257.56974 308.96875 227.875 C 301.1497 217.45538 287.45741 212.61401 274.78125 215.34375 C 271.75316 214.4867 269.04056 214.08216 266.625 214.03125 C 285.7688 180.64779 306.27564 147.93203 329.53125 117.28125 C 337.9705 110.78932 349.13447 95.75721 337.59375 87.28125 C 319.75663 62.84874 305.02524 52.070617 276.46875 47.03125 z "
           style="fill:#000000;stroke:#000000;stroke-width:4.76094626999999980px;stroke-linecap:butt;stroke-linejoin:miter;stroke-opacity:1;fill-opacity:1" />
        <path
           id="path4198"
           transform="matrix(0.21004227,0,0,0.21004227,146.2152,633.91377)"
           d="M 607.4375 65.15625 C 605.21194 65.207921 602.91894 65.63252 600.53125 66.53125 C 535.25391 85.391395 469.84838 104.45249 402.78125 116.65625 C 394.70738 112.20766 384.77717 109.67526 373.375 108.25 C 359.02008 127.61572 377.57025 152.56775 373.375 174.90625 C 371.24648 289.73323 370.57163 404.61984 364.5 519.34375 C 362.40861 539.86724 363.47151 560.14284 368.78125 580.0625 C 369.13308 590.38461 373.28469 598.22579 383.03125 602.375 C 383.62662 602.9734 384.21107 603.50327 384.78125 604 C 359.71952 617.79858 334.55354 631.40802 308.78125 643.84375 C 286.69184 665.03658 304.8851 709.6371 334.5 710.625 C 359.41627 704.89596 371.53134 678.78947 393.4375 666.96875 C 448.49389 624.4405 504.8645 583.6557 560.4375 541.8125 C 537.50778 513.76886 499.83332 550.62919 472.9375 556.34375 C 450.36605 567.83503 428.17111 580.02899 406 592.28125 C 408.8643 583.00268 410.27318 571.9099 411.09375 565.71875 C 412.31263 517.04079 414.06239 468.36186 416.375 419.71875 C 417.91683 420.74664 419.45817 421.78462 421 422.8125 C 450.50435 410.16419 482.99495 407.19674 514.15625 401.21875 C 528.07032 403.78107 542.42549 414.09632 556.03125 407.15625 C 558.13364 409.34878 561.43544 410.49206 566.65625 409.9375 C 583.42345 418.16137 592.52937 399.99634 603.125 389.625 C 614.93834 347.15322 612.74519 302.57899 618.5625 259.15625 C 622.52632 230.32491 627.48034 201.62115 631.84375 172.84375 C 641.68386 158.19689 658.48822 146.09582 657.5625 126.90625 C 662.78397 113.77656 651.27496 104.50242 645.0625 94.09375 C 634.78274 83.288592 623.01641 64.79455 607.4375 65.15625 z M 559.5 93.28125 C 580.36665 93.22806 572.88631 128.15748 570.3125 144.4375 C 566.2026 215.15432 554.87023 290.05739 551.375 361.71875 C 522.59073 357.96143 495.25163 371.91035 467.78125 378.5 C 451.11592 383.29277 434.41113 387.99016 417.71875 392.6875 C 419.45699 359.21659 421.44788 325.75075 423.75 292.3125 C 423.91906 288.18847 424.0505 284.0625 424.1875 279.9375 C 428.66771 280.83085 433.55264 280.23428 438.40625 277.5 C 456.26285 270.84663 474.73429 264.6022 491.4375 255.5625 C 506.84026 244.96235 507.7682 214.61541 484.46875 214.34375 C 462.95017 214.84438 444.06304 225.40126 425.1875 235.3125 C 425.53287 209.62727 425.59317 183.93208 425.84375 158.25 C 425.82916 158.02662 425.7973 157.81521 425.78125 157.59375 C 427.05816 157.52392 428.37515 157.3641 429.71875 157.125 C 471.92183 140.68902 510.54426 116.22711 550.46875 95 C 553.9474 93.839385 556.93743 93.287782 559.5 93.28125 z "
           style="fill:#000000;stroke:#000000;stroke-width:4.76094626999999980px;stroke-linecap:butt;stroke-linejoin:miter;stroke-opacity:1;fill-opacity:1" />
        <path
           sodipodi:nodetypes="cccc"
           style="fill:#000000;fill-opacity:1;stroke:#000000;stroke-width:1px;stroke-linecap:butt;stroke-linejoin:miter;stroke-opacity:1"
           d="m 265,725.93361 c -5.29393,6.86835 2.43352,14.83492 4.94333,21.32874 4.26864,7.68586 18.10594,4.35703 13.59,-5.20973 C 280.80948,732.90385 274.65029,726.42913 265,725.93361 z"
           id="path4210" />
        <path
           id="path4212"
           transform="matrix(0.21004227,0,0,0.21004227,146.2152,633.91377)"
           d="M 890.40625 300.625 C 881.23226 300.62163 872.829 305.00979 868.28125 315.8125 C 860.28329 335.07062 838.65556 330.59192 821.4375 333.34375 C 787.32516 336.69841 753.03622 339.82287 719.5625 347.40625 C 708.30258 339.29917 694.15906 335.99329 676.375 340.9375 L 672.65625 341.1875 C 650.35793 367.31534 681.84336 400.18561 677.5 431.9375 C 682.54665 499.16987 680.30508 566.83986 682.375 634.25 C 683.06677 712.31605 684.64283 790.35141 690.96875 868.1875 C 692.22754 887.48923 693.49121 906.79202 694.75 926.09375 C 705.72408 970.24391 708.27831 968.50208 730.0625 915.96875 C 745.26615 864.93331 744.30403 811.2546 748.65625 758.625 C 747.11099 638.15773 748.3128 517.71634 750.875 397.28125 C 750.34094 395.64499 749.76894 394.03136 749.1875 392.40625 C 781.11003 382.85113 812.59539 371.70726 844.375 361.59375 C 857.82144 365.21735 873.42337 366.97657 866.5 385.71875 C 870.20344 423.9353 851.94196 458.88818 843 495.09375 C 839.94561 532.57073 797.21184 514.6031 773.15625 516.5 C 752.61086 507.66902 740.63526 528.59842 763.40625 536.375 C 788.57023 544.43585 810.01747 562.41768 812.375 590.21875 C 821.80448 620.84801 858.93651 603.11075 877.03125 590.59375 C 923.69552 531.09006 943.74557 449.18571 957.8125 375.78125 C 945.58039 355.22029 943.2728 326.08309 920.09375 314.5625 C 912.1848 306.26334 900.80343 300.62881 890.40625 300.625 z "
           style="fill:#000000;stroke:#000000;stroke-width:4.76094626999999980px;stroke-linecap:butt;stroke-linejoin:miter;stroke-opacity:1;fill-opacity:1" />
      </g>
    </g>
  </g>
</svg>
