<?xml version="1.0" encoding="UTF-8" standalone="no"?>
<!-- Created with Inkscape (http://www.inkscape.org/) -->

<svg
   xmlns:dc="http://purl.org/dc/elements/1.1/"
   xmlns:cc="http://creativecommons.org/ns#"
   xmlns:rdf="http://www.w3.org/1999/02/22-rdf-syntax-ns#"
   xmlns:svg="http://www.w3.org/2000/svg"
   xmlns="http://www.w3.org/2000/svg"
   xmlns:sodipodi="http://sodipodi.sourceforge.net/DTD/sodipodi-0.dtd"
   xmlns:inkscape="http://www.inkscape.org/namespaces/inkscape"
   width="1000"
   height="1000"
   id="svg3173"
   version="1.1"
   inkscape:version="0.47 r22583"
   sodipodi:docname="53c3.svg"
   inkscape:export-filename="E:\chinese\yan\53c3.png"
   inkscape:export-xdpi="18.005705"
   inkscape:export-ydpi="18.005705">
  <title
     id="title3707">Can</title>
  <defs
     id="defs3175">
    <inkscape:perspective
       sodipodi:type="inkscape:persp3d"
       inkscape:vp_x="0 : 526.18109 : 1"
       inkscape:vp_y="0 : 1000 : 0"
       inkscape:vp_z="744.09448 : 526.18109 : 1"
       inkscape:persp3d-origin="372.04724 : 350.78739 : 1"
       id="perspective3181" />
    <inkscape:perspective
       id="perspective3191"
       inkscape:persp3d-origin="0.5 : 0.33333333 : 1"
       inkscape:vp_z="1 : 0.5 : 1"
       inkscape:vp_y="0 : 1000 : 0"
       inkscape:vp_x="0 : 0.5 : 1"
       sodipodi:type="inkscape:persp3d" />
    <inkscape:perspective
       id="perspective4006"
       inkscape:persp3d-origin="0.5 : 0.33333333 : 1"
       inkscape:vp_z="1 : 0.5 : 1"
       inkscape:vp_y="0 : 1000 : 0"
       inkscape:vp_x="0 : 0.5 : 1"
       sodipodi:type="inkscape:persp3d" />
    <inkscape:perspective
       id="perspective4034"
       inkscape:persp3d-origin="0.5 : 0.33333333 : 1"
       inkscape:vp_z="1 : 0.5 : 1"
       inkscape:vp_y="0 : 1000 : 0"
       inkscape:vp_x="0 : 0.5 : 1"
       sodipodi:type="inkscape:persp3d" />
    <inkscape:perspective
       id="perspective4081"
       inkscape:persp3d-origin="0.5 : 0.33333333 : 1"
       inkscape:vp_z="1 : 0.5 : 1"
       inkscape:vp_y="0 : 1000 : 0"
       inkscape:vp_x="0 : 0.5 : 1"
       sodipodi:type="inkscape:persp3d" />
    <inkscape:perspective
       id="perspective4147"
       inkscape:persp3d-origin="0.5 : 0.33333333 : 1"
       inkscape:vp_z="1 : 0.5 : 1"
       inkscape:vp_y="0 : 1000 : 0"
       inkscape:vp_x="0 : 0.5 : 1"
       sodipodi:type="inkscape:persp3d" />
    <inkscape:perspective
       id="perspective3895"
       inkscape:persp3d-origin="0.5 : 0.33333333 : 1"
       inkscape:vp_z="1 : 0.5 : 1"
       inkscape:vp_y="0 : 1000 : 0"
       inkscape:vp_x="0 : 0.5 : 1"
       sodipodi:type="inkscape:persp3d" />
    <inkscape:perspective
       id="perspective5047"
       inkscape:persp3d-origin="0.5 : 0.33333333 : 1"
       inkscape:vp_z="1 : 0.5 : 1"
       inkscape:vp_y="0 : 1000 : 0"
       inkscape:vp_x="0 : 0.5 : 1"
       sodipodi:type="inkscape:persp3d" />
    <inkscape:perspective
       id="perspective5086"
       inkscape:persp3d-origin="0.5 : 0.33333333 : 1"
       inkscape:vp_z="1 : 0.5 : 1"
       inkscape:vp_y="0 : 1000 : 0"
       inkscape:vp_x="0 : 0.5 : 1"
       sodipodi:type="inkscape:persp3d" />
    <inkscape:perspective
       id="perspective5119"
       inkscape:persp3d-origin="0.5 : 0.33333333 : 1"
       inkscape:vp_z="1 : 0.5 : 1"
       inkscape:vp_y="0 : 1000 : 0"
       inkscape:vp_x="0 : 0.5 : 1"
       sodipodi:type="inkscape:persp3d" />
    <inkscape:perspective
       id="perspective5150"
       inkscape:persp3d-origin="0.5 : 0.33333333 : 1"
       inkscape:vp_z="1 : 0.5 : 1"
       inkscape:vp_y="0 : 1000 : 0"
       inkscape:vp_x="0 : 0.5 : 1"
       sodipodi:type="inkscape:persp3d" />
  </defs>
  <sodipodi:namedview
     id="base"
     pagecolor="#ffffff"
     bordercolor="#666666"
     borderopacity="1.0"
     inkscape:pageopacity="0.0"
     inkscape:pageshadow="2"
     inkscape:zoom="0.49497475"
     inkscape:cx="679.96666"
     inkscape:cy="519.73747"
     inkscape:document-units="px"
     inkscape:current-layer="layer1"
     showgrid="false"
     inkscape:window-width="1440"
     inkscape:window-height="840"
     inkscape:window-x="-4"
     inkscape:window-y="-4"
     inkscape:window-maximized="1" />
  <metadata
     id="metadata3178">
    <rdf:RDF>
      <cc:Work
         rdf:about="">
        <dc:format>image/svg+xml</dc:format>
        <dc:type
           rdf:resource="http://purl.org/dc/dcmitype/StillImage" />
        <dc:title>Can</dc:title>
        <dc:date>2010-08-14</dc:date>
        <dc:creator>
          <cc:Agent>
            <dc:title>Alex Amies</dc:title>
          </cc:Agent>
        </dc:creator>
        <dc:rights>
          <cc:Agent>
            <dc:title>@ Alex Amies 2010</dc:title>
          </cc:Agent>
        </dc:rights>
        <dc:publisher>
          <cc:Agent>
            <dc:title>chinesenotes.com</dc:title>
          </cc:Agent>
        </dc:publisher>
        <dc:source>Yan Qin Ceremonial Inscription</dc:source>
        <dc:language>Chinese 中文</dc:language>
        <dc:description>Tracing from Tang Dynasty Ceremonial Inscription by Yan Zhenqing 颜真卿 (709－785)</dc:description>
        <cc:license
           rdf:resource="http://creativecommons.org/licenses/by/3.0/" />
      </cc:Work>
      <cc:License
         rdf:about="http://creativecommons.org/licenses/by/3.0/">
        <cc:permits
           rdf:resource="http://creativecommons.org/ns#Reproduction" />
        <cc:permits
           rdf:resource="http://creativecommons.org/ns#Distribution" />
        <cc:requires
           rdf:resource="http://creativecommons.org/ns#Notice" />
        <cc:requires
           rdf:resource="http://creativecommons.org/ns#Attribution" />
        <cc:permits
           rdf:resource="http://creativecommons.org/ns#DerivativeWorks" />
      </cc:License>
    </rdf:RDF>
  </metadata>
  <g
     inkscape:label="Layer 1"
     inkscape:groupmode="layer"
     id="layer1"
     transform="translate(0,-52.362183)">
    <path
       style="fill:#000000;stroke:#000000;stroke-width:4.77051640000000000px;stroke-linecap:butt;stroke-linejoin:miter;stroke-opacity:1;fill-opacity:1"
       d="M 479.15625 9.4375 C 456.18493 13.195618 434.29672 29.194512 427.6875 52.125 C 393.53514 155.97232 331.83743 176.81941 268.0625 247 C 246.64431 261.19868 278.38514 294.04931 295.4375 277.625 C 298.55771 277.07868 301.805 276.4528 305.09375 275.78125 C 264.71011 342.43946 210.58931 398.92096 167.40625 464.1875 C 159.23478 476.11465 168.61189 493.7131 179.71875 500.21875 C 197.02413 511.18406 219.3712 505.17334 238.21875 500.96875 C 259.30372 457.974 313.86246 428.38628 356.96875 409.5 C 367.43783 407.74779 383.15601 412.09931 388.90625 401.40625 C 390.31537 394.14094 392.37441 383.97954 386.03125 378.28125 L 375.5625 366.0625 C 350.2604 372.86096 326.13474 383.33007 300.84375 390.15625 C 301.67831 379.41572 307.22817 369.36865 311.75 359.71875 C 318.554 350.30314 324.84348 339.80673 336 335.0625 C 352.46352 325.35932 348.41619 305.05784 346.625 288.9375 C 339.5414 282.78859 332.18283 276.99072 324.71875 271.3125 C 412.04079 249.66081 538.32714 197.29184 586.25 183.40625 C 610.93366 190.59824 636.51489 208.80087 662.875 197.90625 C 684.56944 186.65599 682.24568 154.04771 665.71875 139.25 C 648.91098 119.55917 631.69845 99.63458 609.96875 85.1875 C 595.83958 95.90451 566.52488 89.81685 566.28125 114.28125 C 557.28615 137.10683 529.59208 138.36824 510 146.65625 C 480.0197 158.88837 449.76738 171.26921 417.8125 177.3125 C 436.80732 155.27214 460.20554 136.36359 473.625 110.03125 C 489.30459 94.79684 522.3601 104.50058 529.40625 79.3125 C 537.01604 47.044964 506.03134 20.132139 479.15625 9.4375 z M 563.5 194.96875 C 555.46431 209.49215 547.71415 225.27126 549 242.34375 C 541.02145 277.08356 516.02535 309.01407 489.90625 332.90625 C 485.2519 342.53959 485.09826 359.47436 493.53125 365.9375 C 500.4775 368.49073 507.20316 374.95203 514.4375 375.03125 C 513.11909 376.05669 511.78705 377.06826 510.46875 378.09375 C 543.36103 516.04482 650.75293 591.12185 750.875 686.25 C 782.97213 706.74295 828.64888 699.01322 865.6875 698.125 C 886.01314 689.47143 908.92976 683.69488 922.625 664.8125 C 942.33043 651.3431 932.60485 632.03488 916.15625 622.0625 C 889.89671 602.49169 856.8744 595.87739 826.96875 584 C 743.73388 547.88777 672.58309 492.5967 610.75 426.46875 C 594.2713 407.37438 579.32021 386.96013 563.3125 367.53125 C 561.24203 365.85607 559.02986 364.54331 556.75 363.53125 C 605.77254 356.19562 657.21935 369.32892 706.25 365.84375 C 731.79812 371.00683 731.07688 334.26185 729.34375 316.75 C 719.76413 301.45515 710.47889 284.31354 693.5 276.125 C 679.33911 266.39095 660.32484 259.2392 643 257.625 C 647.31708 271.53673 656.4116 284.62852 655.03125 299.78125 C 640.11996 305.06503 623.93503 305.49249 609.21875 311.53125 C 590.84549 317.15268 573.30406 325.69233 554.625 330.125 C 540.68112 331.35451 554.88891 317.72118 556.53125 311.46875 C 562.07588 301.65518 570.31422 289.53572 583.25 291.25 C 598.77441 293.61971 612.42243 285.2493 621.53125 274.4375 C 626.95633 253.00639 617.39108 235.57917 609.28125 216.65625 C 596.30731 208.01985 584.30746 194.36027 567.3125 195.4375 C 566.0433 195.27864 564.76925 195.12713 563.5 194.96875 z M 421.375 306.09375 C 418.7067 306.04502 415.86303 306.50394 412.8125 307.5625 L 409.84375 307.90625 L 406.875 308.21875 C 401.24855 326.51635 397.93935 345.39671 399.65625 364.5625 C 350.9427 580.43565 213.45111 635.07738 80.625 762.15625 C 62.516073 774.74659 86.245559 771.57829 96.71875 767.6875 C 166.61755 751.08296 223.92432 698.51287 278.28125 653.875 C 341.66495 595.44448 471.37548 443.69203 454.6875 347.5625 C 449.67929 331.51257 440.05309 306.43487 421.375 306.09375 z "
       transform="translate(0,52.362183)"
       id="path3706" />
    <path
       sodipodi:nodetypes="cccccccsc"
       style="fill:#000000;stroke:#000000;stroke-width:4.77051640000000000px;stroke-linecap:butt;stroke-linejoin:miter;stroke-opacity:1;fill-opacity:1"
       d="m 344.22908,688.2723 c -2.84098,35.67864 -26.99911,57.20397 -47.79814,83.80976 -16.17858,38.16098 -66.0975,57.14081 -77.49455,97.48688 -2.66004,17.06466 -0.25809,35.38435 1.32549,53.02849 -5.06038,23.97261 21.23304,23.85754 39.63559,23.48864 7.77909,-0.62232 17.56104,-5.38363 21.68524,-12.04737 16.29547,-43.31161 31.90631,-87.5821 46.10404,-131.8397 6.02735,-27.38119 12.25431,-54.97343 16.54233,-82.60354 1.59421,-10.27221 1.5446,-32.10052 0,-31.32316 z"
       id="path3714" />
    <path
       sodipodi:nodetypes="ccccccccccccccccc"
       id="path3716"
       d="m 447.83649,575.02697 c -9.63792,1.60633 -19.2758,3.21261 -28.91372,4.81894 -6.51495,19.06341 -9.40998,41.50043 -26.07325,54.93106 -13.24076,18.05573 -18.21183,43.40616 -8.15778,64.02619 2.79681,16.19462 22.70718,16.87819 33.76672,25.80883 17.22185,9.24483 11.40707,29.90427 12.37362,45.67106 0.17937,38.25453 1.2744,76.59164 -1.93273,114.76159 -15.30453,13.53954 -34.62746,25.68179 -55.44055,26.39884 -9.00383,-4.00585 -34.76938,-18.43957 -27.09835,3.15465 3.00266,19.69789 21.62924,30.89902 32.68763,45.95677 11.29849,12.5944 14.00829,30.50077 22.38698,45.3903 5.01701,9.9243 31.18883,22.9454 39.94606,6.296 12.38412,-16.08294 33.94351,-21.34668 46.43974,-37.56023 12.65723,-15.84174 20.56598,-35.56372 24.16118,-55.42276 3.49259,-101.52312 6.89202,-203.04529 4.91697,-304.65065 -2.13876,-9.98087 -4.27753,-19.9618 -6.41629,-29.94267 -19.83781,-8.06756 -41.5481,-8.68654 -62.64623,-9.63792 z"
       style="fill:#000000;stroke:#000000;stroke-width:4.77051640000000000px;stroke-linecap:butt;stroke-linejoin:miter;stroke-opacity:1;fill-opacity:1" />
    <path
       sodipodi:nodetypes="cscccccss"
       style="fill:#000000;stroke:#000000;stroke-width:4.77051640000000000px;stroke-linecap:butt;stroke-linejoin:miter;stroke-opacity:1;fill-opacity:1"
       d="m 551.4439,738.87125 c -3.44117,7.21732 17.61413,23.8782 24.44379,36.89837 10.65657,20.31582 20.14651,41.43943 28.80394,62.68788 3.34724,20.58282 12.34643,32.87386 31.08388,42.57275 16.98203,7.22304 32.92725,2.23313 43.37053,-12.04737 5.8226,-20.92634 8.97949,-48.4256 4.81893,-69.8748 -13.41092,-21.36428 -31.94881,-47.53738 -53.00845,-62.64632 -9.4398,-5.27128 -22.79992,-5.20387 -34.14397,-4.75396 -15.15836,0.60113 -41.79683,-0.32774 -45.36865,7.16345 z"
       id="path3718" />
  </g>
</svg>
