<?xml version="1.0" encoding="UTF-8" standalone="no"?>
<!-- Created with Inkscape (http://www.inkscape.org/) -->

<svg
   xmlns:dc="http://purl.org/dc/elements/1.1/"
   xmlns:cc="http://creativecommons.org/ns#"
   xmlns:rdf="http://www.w3.org/1999/02/22-rdf-syntax-ns#"
   xmlns:svg="http://www.w3.org/2000/svg"
   xmlns="http://www.w3.org/2000/svg"
   xmlns:sodipodi="http://sodipodi.sourceforge.net/DTD/sodipodi-0.dtd"
   xmlns:inkscape="http://www.inkscape.org/namespaces/inkscape"
   width="1000"
   height="1000"
   id="svg3173"
   version="1.1"
   inkscape:version="0.47 r22583"
   sodipodi:docname="53ca.svg"
   inkscape:export-filename="E:\chinese\yan\53ca.png"
   inkscape:export-xdpi="18.005705"
   inkscape:export-ydpi="18.005705">
  <title
     id="title2832">Ji</title>
  <defs
     id="defs3175">
    <inkscape:perspective
       sodipodi:type="inkscape:persp3d"
       inkscape:vp_x="0 : 526.18109 : 1"
       inkscape:vp_y="0 : 1000 : 0"
       inkscape:vp_z="744.09448 : 526.18109 : 1"
       inkscape:persp3d-origin="372.04724 : 350.78739 : 1"
       id="perspective3181" />
    <inkscape:perspective
       id="perspective3191"
       inkscape:persp3d-origin="0.5 : 0.33333333 : 1"
       inkscape:vp_z="1 : 0.5 : 1"
       inkscape:vp_y="0 : 1000 : 0"
       inkscape:vp_x="0 : 0.5 : 1"
       sodipodi:type="inkscape:persp3d" />
    <inkscape:perspective
       id="perspective4006"
       inkscape:persp3d-origin="0.5 : 0.33333333 : 1"
       inkscape:vp_z="1 : 0.5 : 1"
       inkscape:vp_y="0 : 1000 : 0"
       inkscape:vp_x="0 : 0.5 : 1"
       sodipodi:type="inkscape:persp3d" />
    <inkscape:perspective
       id="perspective4034"
       inkscape:persp3d-origin="0.5 : 0.33333333 : 1"
       inkscape:vp_z="1 : 0.5 : 1"
       inkscape:vp_y="0 : 1000 : 0"
       inkscape:vp_x="0 : 0.5 : 1"
       sodipodi:type="inkscape:persp3d" />
    <inkscape:perspective
       id="perspective4081"
       inkscape:persp3d-origin="0.5 : 0.33333333 : 1"
       inkscape:vp_z="1 : 0.5 : 1"
       inkscape:vp_y="0 : 1000 : 0"
       inkscape:vp_x="0 : 0.5 : 1"
       sodipodi:type="inkscape:persp3d" />
    <inkscape:perspective
       id="perspective4147"
       inkscape:persp3d-origin="0.5 : 0.33333333 : 1"
       inkscape:vp_z="1 : 0.5 : 1"
       inkscape:vp_y="0 : 1000 : 0"
       inkscape:vp_x="0 : 0.5 : 1"
       sodipodi:type="inkscape:persp3d" />
    <inkscape:perspective
       id="perspective3737"
       inkscape:persp3d-origin="0.5 : 0.33333333 : 1"
       inkscape:vp_z="1 : 0.5 : 1"
       inkscape:vp_y="0 : 1000 : 0"
       inkscape:vp_x="0 : 0.5 : 1"
       sodipodi:type="inkscape:persp3d" />
    <inkscape:perspective
       id="perspective3836"
       inkscape:persp3d-origin="0.5 : 0.33333333 : 1"
       inkscape:vp_z="1 : 0.5 : 1"
       inkscape:vp_y="0 : 1000 : 0"
       inkscape:vp_x="0 : 0.5 : 1"
       sodipodi:type="inkscape:persp3d" />
    <inkscape:perspective
       id="perspective3775"
       inkscape:persp3d-origin="0.5 : 0.33333333 : 1"
       inkscape:vp_z="1 : 0.5 : 1"
       inkscape:vp_y="0 : 1000 : 0"
       inkscape:vp_x="0 : 0.5 : 1"
       sodipodi:type="inkscape:persp3d" />
    <inkscape:perspective
       id="perspective3808"
       inkscape:persp3d-origin="0.5 : 0.33333333 : 1"
       inkscape:vp_z="1 : 0.5 : 1"
       inkscape:vp_y="0 : 1000 : 0"
       inkscape:vp_x="0 : 0.5 : 1"
       sodipodi:type="inkscape:persp3d" />
    <inkscape:perspective
       id="perspective3775-1"
       inkscape:persp3d-origin="0.5 : 0.33333333 : 1"
       inkscape:vp_z="1 : 0.5 : 1"
       inkscape:vp_y="0 : 1000 : 0"
       inkscape:vp_x="0 : 0.5 : 1"
       sodipodi:type="inkscape:persp3d" />
  </defs>
  <sodipodi:namedview
     id="base"
     pagecolor="#ffffff"
     bordercolor="#666666"
     borderopacity="1.0"
     inkscape:pageopacity="0.0"
     inkscape:pageshadow="2"
     inkscape:zoom="0.49497475"
     inkscape:cx="730.13697"
     inkscape:cy="507.1008"
     inkscape:document-units="px"
     inkscape:current-layer="g4264"
     showgrid="false"
     inkscape:window-width="1440"
     inkscape:window-height="840"
     inkscape:window-x="-4"
     inkscape:window-y="-4"
     inkscape:window-maximized="1" />
  <metadata
     id="metadata3178">
    <rdf:RDF>
      <cc:Work
         rdf:about="">
        <dc:format>image/svg+xml</dc:format>
        <dc:type
           rdf:resource="http://purl.org/dc/dcmitype/StillImage" />
        <dc:title>Ji</dc:title>
        <dc:date>2010-08-09</dc:date>
        <dc:creator>
          <cc:Agent>
            <dc:title>Alex Amies</dc:title>
          </cc:Agent>
        </dc:creator>
        <dc:rights>
          <cc:Agent>
            <dc:title>@ Alex Amies 2010</dc:title>
          </cc:Agent>
        </dc:rights>
        <dc:publisher>
          <cc:Agent>
            <dc:title>chinesenotes.com</dc:title>
          </cc:Agent>
        </dc:publisher>
        <dc:source>Yan Qin Ceremonial Inscription</dc:source>
        <dc:language>Chinese 中文</dc:language>
        <dc:description>Tracing from Tang Dynasty Ceremonial Inscription by Yan Zhenqing 颜真卿 (709－785)</dc:description>
        <cc:license
           rdf:resource="http://creativecommons.org/licenses/by/3.0/" />
      </cc:Work>
      <cc:License
         rdf:about="http://creativecommons.org/licenses/by/3.0/">
        <cc:permits
           rdf:resource="http://creativecommons.org/ns#Reproduction" />
        <cc:permits
           rdf:resource="http://creativecommons.org/ns#Distribution" />
        <cc:requires
           rdf:resource="http://creativecommons.org/ns#Notice" />
        <cc:requires
           rdf:resource="http://creativecommons.org/ns#Attribution" />
        <cc:permits
           rdf:resource="http://creativecommons.org/ns#DerivativeWorks" />
      </cc:License>
    </rdf:RDF>
  </metadata>
  <g
     inkscape:label="Layer 1"
     inkscape:groupmode="layer"
     id="layer1"
     transform="translate(0,-52.362183)">
    <g
       transform="matrix(4.7609464,0,0,4.7609464,-696.12274,-2965.6673)"
       id="g4264"
       style="fill:none;fill-opacity:1">
      <g
         id="g3643"
         style="fill:#000000;fill-opacity:1">
        <path
           id="path3156"
           d="m 273.52381,653.20128 c -5.43052,0.005 -10.84366,2.16298 -15.16564,5.56534 -1.42061,2.19448 -2.81963,4.38464 -4.2031,6.56948 -8.6319,0.74082 -17.01042,3.51104 -25.81811,3.30114 -5.85881,0.77695 -12.02043,-0.98071 -17.32231,2.01481 -10.4483,3.59501 -2.51392,18.55781 5.97393,16.92573 8.6989,-3.72825 17.90212,-5.85053 27.38909,-6.47102 -8.81151,14.48487 -17.1387,28.76894 -25.76297,42.87547 -2.92855,-4.56279 -5.73804,-9.17951 -8.03414,-14.04463 -2.81474,-5.59136 -3.04795,-13.01467 -7.85498,-17.31294 -1.84191,-1.64696 -3.82228,-4.33567 -5.89813,-4.5481 -1.92029,-0.19651 -4.85447,1.49707 -5.97394,3.5571 -3.19971,5.88814 -6.69703,14.21326 -1.79148,20.23344 8.13791,5.22764 10.75153,14.31806 15.02094,22.20231 1.28288,2.33069 2.55522,4.67446 3.82414,7.01575 -9.47923,14.71387 -19.64946,29.25048 -31.43373,43.63676 -1.77147,2.34589 -5.36868,5.26158 -5.03683,7.20608 0.27196,1.59355 4.07972,1.6551 6.17374,-0.2494 3.77177,-3.4304 8.90024,-5.45921 12.05809,-9.60809 8.66295,-8.45551 16.58359,-18.8781 24.26088,-29.91373 3.38031,6.15018 6.84375,12.25616 10.54911,18.21207 6.49986,8.71353 12.21509,18.0729 19.30674,26.31725 0.0338,0.0315 0.0696,0.0604 0.10329,0.0919 -3.52081,4.20777 -7.51986,7.96543 -11.99608,11.111 -8.34703,6.60944 -19.14142,9.31309 -28.34685,14.62872 10.9603,9.28281 23.02402,-0.64732 33.01162,-6.16257 5.86745,-3.44991 11.06389,-7.5447 15.62039,-12.14138 5.46565,4.67254 11.20289,9.03707 17.48769,12.72548 7.14406,4.77338 15.83495,6.70999 23.12397,11.26851 6.20078,0.82709 9.65011,-5.68676 15.55149,-6.70073 6.95119,-1.75202 13.74904,-5.08707 21.09133,-4.38402 7.22383,-3.96572 -2.14786,-9.02084 -6.17374,-10.97318 -13.91762,-3.78374 -27.66834,-8.17403 -40.99752,-13.59178 -6.07546,-1.59504 -11.34684,-4.52334 -14.89691,-9.54246 8.66506,-16.96918 12.20959,-36.64782 11.75492,-55.22685 -3.45729,-9.65246 -13.71541,-16.76312 -16.32321,-25.73973 -1.43562,-8.22309 5.47963,-13.98093 8.55091,-20.90941 4.32054,-3.22593 8.55412,-6.50255 12.10632,-10.13313 3.4677,-4.32526 3.43039,-11.13934 -0.37207,-15.29158 -3.0388,-1.74191 -6.2986,-2.51673 -9.5569,-2.51359 z m -21.62189,45.53344 c 0.0164,0.10476 0.0324,0.20756 0.0551,0.30846 -3.27398,10.37891 2.39385,19.74526 10.21148,26.73729 2.50119,14.42966 1.00116,31.20495 -4.4925,46.47193 -10.21149,-11.22786 -20.40828,-22.47463 -30.05567,-34.12055 -0.64969,-1.09785 -1.31429,-2.18991 -1.9913,-3.27489 8.52311,-12.77618 17.04766,-25.4592 26.27286,-36.12224 z"
           style="fill:#000000;fill-opacity:1;stroke:#000000;stroke-width:1.02038062px;stroke-linecap:butt;stroke-linejoin:miter;stroke-opacity:1" />
      </g>
    </g>
  </g>
</svg>
