<?xml version="1.0" encoding="UTF-8" standalone="no"?>
<!-- Created with Inkscape (http://www.inkscape.org/) -->

<svg
   xmlns:dc="http://purl.org/dc/elements/1.1/"
   xmlns:cc="http://creativecommons.org/ns#"
   xmlns:rdf="http://www.w3.org/1999/02/22-rdf-syntax-ns#"
   xmlns:svg="http://www.w3.org/2000/svg"
   xmlns="http://www.w3.org/2000/svg"
   xmlns:sodipodi="http://sodipodi.sourceforge.net/DTD/sodipodi-0.dtd"
   xmlns:inkscape="http://www.inkscape.org/namespaces/inkscape"
   width="1000"
   height="1000"
   id="svg3173"
   version="1.1"
   inkscape:version="0.47 r22583"
   sodipodi:docname="53f2.svg"
   inkscape:export-filename="E:\chinese\yan\53f2.png"
   inkscape:export-xdpi="18.005705"
   inkscape:export-ydpi="18.005705">
  <title
     id="title3627">Shi</title>
  <defs
     id="defs3175">
    <inkscape:perspective
       sodipodi:type="inkscape:persp3d"
       inkscape:vp_x="0 : 526.18109 : 1"
       inkscape:vp_y="0 : 1000 : 0"
       inkscape:vp_z="744.09448 : 526.18109 : 1"
       inkscape:persp3d-origin="372.04724 : 350.78739 : 1"
       id="perspective3181" />
    <inkscape:perspective
       id="perspective3191"
       inkscape:persp3d-origin="0.5 : 0.33333333 : 1"
       inkscape:vp_z="1 : 0.5 : 1"
       inkscape:vp_y="0 : 1000 : 0"
       inkscape:vp_x="0 : 0.5 : 1"
       sodipodi:type="inkscape:persp3d" />
    <inkscape:perspective
       id="perspective4006"
       inkscape:persp3d-origin="0.5 : 0.33333333 : 1"
       inkscape:vp_z="1 : 0.5 : 1"
       inkscape:vp_y="0 : 1000 : 0"
       inkscape:vp_x="0 : 0.5 : 1"
       sodipodi:type="inkscape:persp3d" />
    <inkscape:perspective
       id="perspective4034"
       inkscape:persp3d-origin="0.5 : 0.33333333 : 1"
       inkscape:vp_z="1 : 0.5 : 1"
       inkscape:vp_y="0 : 1000 : 0"
       inkscape:vp_x="0 : 0.5 : 1"
       sodipodi:type="inkscape:persp3d" />
    <inkscape:perspective
       id="perspective4081"
       inkscape:persp3d-origin="0.5 : 0.33333333 : 1"
       inkscape:vp_z="1 : 0.5 : 1"
       inkscape:vp_y="0 : 1000 : 0"
       inkscape:vp_x="0 : 0.5 : 1"
       sodipodi:type="inkscape:persp3d" />
    <inkscape:perspective
       id="perspective4147"
       inkscape:persp3d-origin="0.5 : 0.33333333 : 1"
       inkscape:vp_z="1 : 0.5 : 1"
       inkscape:vp_y="0 : 1000 : 0"
       inkscape:vp_x="0 : 0.5 : 1"
       sodipodi:type="inkscape:persp3d" />
    <inkscape:perspective
       id="perspective3750"
       inkscape:persp3d-origin="0.5 : 0.33333333 : 1"
       inkscape:vp_z="1 : 0.5 : 1"
       inkscape:vp_y="0 : 1000 : 0"
       inkscape:vp_x="0 : 0.5 : 1"
       sodipodi:type="inkscape:persp3d" />
    <inkscape:perspective
       id="perspective3756"
       inkscape:persp3d-origin="0.5 : 0.33333333 : 1"
       inkscape:vp_z="1 : 0.5 : 1"
       inkscape:vp_y="0 : 1000 : 0"
       inkscape:vp_x="0 : 0.5 : 1"
       sodipodi:type="inkscape:persp3d" />
    <inkscape:perspective
       id="perspective3730"
       inkscape:persp3d-origin="0.5 : 0.33333333 : 1"
       inkscape:vp_z="1 : 0.5 : 1"
       inkscape:vp_y="0 : 1000 : 0"
       inkscape:vp_x="0 : 0.5 : 1"
       sodipodi:type="inkscape:persp3d" />
    <inkscape:perspective
       id="perspective3755"
       inkscape:persp3d-origin="0.5 : 0.33333333 : 1"
       inkscape:vp_z="1 : 0.5 : 1"
       inkscape:vp_y="0 : 1000 : 0"
       inkscape:vp_x="0 : 0.5 : 1"
       sodipodi:type="inkscape:persp3d" />
  </defs>
  <sodipodi:namedview
     id="base"
     pagecolor="#ffffff"
     bordercolor="#666666"
     borderopacity="1.0"
     inkscape:pageopacity="0.0"
     inkscape:pageshadow="2"
     inkscape:zoom="0.49497475"
     inkscape:cx="634.79097"
     inkscape:cy="545.16461"
     inkscape:document-units="px"
     inkscape:current-layer="layer1"
     showgrid="false"
     inkscape:window-width="1440"
     inkscape:window-height="840"
     inkscape:window-x="-4"
     inkscape:window-y="-4"
     inkscape:window-maximized="1" />
  <metadata
     id="metadata3178">
    <rdf:RDF>
      <cc:Work
         rdf:about="">
        <dc:format>image/svg+xml</dc:format>
        <dc:type
           rdf:resource="http://purl.org/dc/dcmitype/StillImage" />
        <dc:title>Shi</dc:title>
        <dc:date>2010-08-03</dc:date>
        <dc:creator>
          <cc:Agent>
            <dc:title>Alex Amies</dc:title>
          </cc:Agent>
        </dc:creator>
        <dc:rights>
          <cc:Agent>
            <dc:title>@ Alex Amies 2010</dc:title>
          </cc:Agent>
        </dc:rights>
        <dc:publisher>
          <cc:Agent>
            <dc:title>chinesenotes.com</dc:title>
          </cc:Agent>
        </dc:publisher>
        <dc:source>Yan Qin Ceremonial Inscription</dc:source>
        <dc:language>Chinese 中文</dc:language>
        <dc:description>Tracing from Tang Dynasty Ceremonial Inscription by Yan Zhenqing 颜真卿 (709－785)</dc:description>
        <cc:license
           rdf:resource="http://creativecommons.org/licenses/by/3.0/" />
      </cc:Work>
      <cc:License
         rdf:about="http://creativecommons.org/licenses/by/3.0/">
        <cc:permits
           rdf:resource="http://creativecommons.org/ns#Reproduction" />
        <cc:permits
           rdf:resource="http://creativecommons.org/ns#Distribution" />
        <cc:requires
           rdf:resource="http://creativecommons.org/ns#Notice" />
        <cc:requires
           rdf:resource="http://creativecommons.org/ns#Attribution" />
        <cc:permits
           rdf:resource="http://creativecommons.org/ns#DerivativeWorks" />
      </cc:License>
    </rdf:RDF>
  </metadata>
  <g
     inkscape:label="Layer 1"
     inkscape:groupmode="layer"
     id="layer1"
     transform="translate(0,-52.362183)">
    <path
       style="fill:#000000;fill-opacity:1;stroke:#000000;stroke-width:4.76094627px;stroke-linecap:butt;stroke-linejoin:miter;stroke-opacity:1"
       d="m 426.91565,147.2374 c -1.98222,0.0652 -4.13917,0.18758 -6.24874,0.4461 l -3.42193,0.29756 c -24.31478,16.40303 -20.53249,47.70554 -11.15847,71.56298 3.00582,26.1295 5.33511,52.60136 6.84386,79.29946 -26.30352,6.52402 -52.59575,13.09375 -79.00198,19.19257 -8.14017,6.7046 -18.47585,13.48005 -14.43161,25.29253 -3.01683,13.92605 9.5744,15.74797 20.68036,18.74622 24.94171,-5.1542 49.71587,-11.94845 74.53858,-19.19256 0.99875,45.1152 -0.63325,90.36205 -5.0585,134.79429 -14.98051,1.90057 -29.82214,3.92131 -44.78266,5.95119 l -48.2046,10.71212 c -0.95261,-4.19967 -1.8959,-8.24057 -2.82681,-11.6048 -8.05195,-30.85274 -12.35323,-62.38197 -17.85355,-93.73113 -5.70842,-32.53546 -4.98223,-67.27875 -13.0926,-98.19452 -2.26654,-8.63979 -10.79916,-18.27913 -18.74623,-20.38276 -11.32343,-2.9974 -29.24497,-0.925 -39.12902,5.05851 -7.10719,4.30246 -8.71144,16.58109 -8.48044,26.63149 8.06776,50.42719 15.74873,102.36064 27.97056,152.79663 -5.35906,-5.15059 -10.64048,-10.3962 -16.06819,-15.47308 -24.58353,-20.32134 -54.87553,-21.73439 -84.35802,-12.49748 -10.95261,2.52025 -20.64761,8.21377 -31.24371,11.75358 -17.476439,29.1409 -14.210858,80.21481 30.49981,67.24837 29.85946,2.2017 48.2192,-57.00638 71.86053,-13.24138 61.51338,51.82028 92.7788,128.12378 143.42353,188.20616 -25.0325,49.19415 -59.18396,93.84278 -102.21158,135.3897 -33.16818,26.49705 -66.84417,52.4723 -99.38476,79.74585 -6.614,38.01045 47.27882,2.04388 63.3801,28.1191 24.78377,-2.0572 37.54087,-35.07912 57.57769,-49.54336 41.92152,-42.65665 79.09624,-90.10286 112.47738,-139.55552 2.69508,-4.57032 5.208,-9.23524 7.73654,-13.8365 47.9036,45.22404 94.4891,92.23814 150.11857,128.0995 49.70657,35.22957 100.27996,69.97877 154.58198,97.74794 44.75547,-21.62041 89.11711,-49.03156 139.1089,-55.49454 26.94729,4.44101 55.19818,14.15905 81.53121,2.08291 16.73049,-3.58499 34.04896,-8.14503 33.02907,-29.45836 C 935.91979,842.71669 898.45233,843.56747 870.7251,832.51589 715.50744,792.9081 563.68638,732.24517 435.84242,634.49022 c 11.87523,-36.43061 19.51265,-74.00219 23.65595,-112.92369 7.55586,-1.05969 15.10158,-2.11715 22.61448,-2.97559 30.05543,0.28137 60.12595,1.8839 90.16042,1.33901 16.23226,-1.59349 28.09554,-3.87931 30.35104,-14.87796 0.78731,-3.83918 -0.15807,-7.27706 -2.08292,-10.41457 31.94353,-41.37757 57.12741,-87.41107 86.7385,-130.3309 8.57884,-7.50649 21.41735,-11.91737 25.73886,-22.46572 5.08355,-12.40845 5.76689,-28.63657 -2.97559,-40.17049 -12.93121,-30.94653 -39.8993,-44.36383 -66.65325,-61.89225 -10.73308,-0.1971 -18.19805,5.01494 -15.3243,16.06819 3.18455,14.34316 -18.15577,7.39694 -26.78032,11.45603 -44.34669,6.50631 -88.8514,11.52573 -133.1577,18.00228 -2.53363,0.61745 -5.05493,1.31336 -7.58776,1.93414 -0.18758,-10.68081 -0.25566,-21.30529 -0.14854,-31.98757 7.77463,-18.99441 17.92342,-38.62941 11.75359,-59.51183 -0.23234,-29.21997 -15.4955,-49.48427 -45.22899,-48.50214 z m 155.62341,157.7063 c 12.29424,0.10427 24.58406,1.29336 37.04612,4.46339 -26.67535,48.83674 -55.48331,96.76471 -78.25806,147.58934 -0.82521,1.60896 -1.52122,3.17065 -2.08291,4.76095 -25.34747,3.20787 -50.66209,6.27269 -76.02635,9.37311 2.50507,-47.4375 0.20711,-94.93237 -1.48779,-142.38205 19.54281,-5.98899 39.10368,-11.9098 58.61913,-17.40721 21.21349,-3.43593 41.69942,-6.57097 62.18986,-6.39753 z M 404.44993,529.60086 c -2.93869,23.34026 -7.46116,45.80083 -13.39016,67.39715 -22.30751,-19.87905 -43.91913,-40.71052 -65.16547,-61.74352 26.08913,0.686 52.32824,-2.05121 78.55563,-5.65363 z"
       id="path4092" />
  </g>
</svg>
