<?xml version="1.0" encoding="UTF-8" standalone="no"?>
<!-- Created with Inkscape (http://www.inkscape.org/) -->

<svg
   xmlns:dc="http://purl.org/dc/elements/1.1/"
   xmlns:cc="http://creativecommons.org/ns#"
   xmlns:rdf="http://www.w3.org/1999/02/22-rdf-syntax-ns#"
   xmlns:svg="http://www.w3.org/2000/svg"
   xmlns="http://www.w3.org/2000/svg"
   xmlns:sodipodi="http://sodipodi.sourceforge.net/DTD/sodipodi-0.dtd"
   xmlns:inkscape="http://www.inkscape.org/namespaces/inkscape"
   width="1000"
   height="1000"
   id="svg3173"
   version="1.1"
   inkscape:version="0.47 r22583"
   sodipodi:docname="53f8.svg"
   inkscape:export-filename="E:\chinese\yan\53f8.png"
   inkscape:export-xdpi="18.005705"
   inkscape:export-ydpi="18.005705">
  <title
     id="title2829">Si</title>
  <defs
     id="defs3175">
    <inkscape:perspective
       sodipodi:type="inkscape:persp3d"
       inkscape:vp_x="0 : 526.18109 : 1"
       inkscape:vp_y="0 : 1000 : 0"
       inkscape:vp_z="744.09448 : 526.18109 : 1"
       inkscape:persp3d-origin="372.04724 : 350.78739 : 1"
       id="perspective3181" />
    <inkscape:perspective
       id="perspective3191"
       inkscape:persp3d-origin="0.5 : 0.33333333 : 1"
       inkscape:vp_z="1 : 0.5 : 1"
       inkscape:vp_y="0 : 1000 : 0"
       inkscape:vp_x="0 : 0.5 : 1"
       sodipodi:type="inkscape:persp3d" />
    <inkscape:perspective
       id="perspective4006"
       inkscape:persp3d-origin="0.5 : 0.33333333 : 1"
       inkscape:vp_z="1 : 0.5 : 1"
       inkscape:vp_y="0 : 1000 : 0"
       inkscape:vp_x="0 : 0.5 : 1"
       sodipodi:type="inkscape:persp3d" />
    <inkscape:perspective
       id="perspective4034"
       inkscape:persp3d-origin="0.5 : 0.33333333 : 1"
       inkscape:vp_z="1 : 0.5 : 1"
       inkscape:vp_y="0 : 1000 : 0"
       inkscape:vp_x="0 : 0.5 : 1"
       sodipodi:type="inkscape:persp3d" />
    <inkscape:perspective
       id="perspective4081"
       inkscape:persp3d-origin="0.5 : 0.33333333 : 1"
       inkscape:vp_z="1 : 0.5 : 1"
       inkscape:vp_y="0 : 1000 : 0"
       inkscape:vp_x="0 : 0.5 : 1"
       sodipodi:type="inkscape:persp3d" />
    <inkscape:perspective
       id="perspective4147"
       inkscape:persp3d-origin="0.5 : 0.33333333 : 1"
       inkscape:vp_z="1 : 0.5 : 1"
       inkscape:vp_y="0 : 1000 : 0"
       inkscape:vp_x="0 : 0.5 : 1"
       sodipodi:type="inkscape:persp3d" />
    <inkscape:perspective
       id="perspective3797"
       inkscape:persp3d-origin="0.5 : 0.33333333 : 1"
       inkscape:vp_z="1 : 0.5 : 1"
       inkscape:vp_y="0 : 1000 : 0"
       inkscape:vp_x="0 : 0.5 : 1"
       sodipodi:type="inkscape:persp3d" />
    <inkscape:perspective
       id="perspective3104"
       inkscape:persp3d-origin="0.5 : 0.33333333 : 1"
       inkscape:vp_z="1 : 0.5 : 1"
       inkscape:vp_y="0 : 1000 : 0"
       inkscape:vp_x="0 : 0.5 : 1"
       sodipodi:type="inkscape:persp3d" />
    <inkscape:perspective
       id="perspective3140"
       inkscape:persp3d-origin="0.5 : 0.33333333 : 1"
       inkscape:vp_z="1 : 0.5 : 1"
       inkscape:vp_y="0 : 1000 : 0"
       inkscape:vp_x="0 : 0.5 : 1"
       sodipodi:type="inkscape:persp3d" />
    <inkscape:perspective
       id="perspective2940"
       inkscape:persp3d-origin="0.5 : 0.33333333 : 1"
       inkscape:vp_z="1 : 0.5 : 1"
       inkscape:vp_y="0 : 1000 : 0"
       inkscape:vp_x="0 : 0.5 : 1"
       sodipodi:type="inkscape:persp3d" />
  </defs>
  <sodipodi:namedview
     id="base"
     pagecolor="#ffffff"
     bordercolor="#666666"
     borderopacity="1.0"
     inkscape:pageopacity="0.0"
     inkscape:pageshadow="2"
     inkscape:zoom="0.49497475"
     inkscape:cx="880.03122"
     inkscape:cy="497.43002"
     inkscape:document-units="px"
     inkscape:current-layer="g5879"
     showgrid="false"
     inkscape:window-width="1440"
     inkscape:window-height="840"
     inkscape:window-x="-4"
     inkscape:window-y="-4"
     inkscape:window-maximized="1" />
  <metadata
     id="metadata3178">
    <rdf:RDF>
      <cc:Work
         rdf:about="">
        <dc:format>image/svg+xml</dc:format>
        <dc:type
           rdf:resource="http://purl.org/dc/dcmitype/StillImage" />
        <dc:title>Si</dc:title>
        <dc:date>2010-08-08</dc:date>
        <dc:creator>
          <cc:Agent>
            <dc:title>Alex Amies</dc:title>
          </cc:Agent>
        </dc:creator>
        <dc:rights>
          <cc:Agent>
            <dc:title>@ Alex Amies 2010</dc:title>
          </cc:Agent>
        </dc:rights>
        <dc:publisher>
          <cc:Agent>
            <dc:title>chinesenotes.com</dc:title>
          </cc:Agent>
        </dc:publisher>
        <dc:source>Yan Qin Ceremonial Inscription</dc:source>
        <dc:language>Chinese 中文</dc:language>
        <dc:description>Tracing from Tang Dynasty Ceremonial Inscription by Yan Zhenqing 颜真卿 (709－785)</dc:description>
        <cc:license
           rdf:resource="http://creativecommons.org/licenses/by/3.0/" />
      </cc:Work>
      <cc:License
         rdf:about="http://creativecommons.org/licenses/by/3.0/">
        <cc:permits
           rdf:resource="http://creativecommons.org/ns#Reproduction" />
        <cc:permits
           rdf:resource="http://creativecommons.org/ns#Distribution" />
        <cc:requires
           rdf:resource="http://creativecommons.org/ns#Notice" />
        <cc:requires
           rdf:resource="http://creativecommons.org/ns#Attribution" />
        <cc:permits
           rdf:resource="http://creativecommons.org/ns#DerivativeWorks" />
      </cc:License>
    </rdf:RDF>
  </metadata>
  <g
     inkscape:label="Layer 1"
     inkscape:groupmode="layer"
     id="layer1"
     transform="translate(0,-52.362183)">
    <path
       style="fill:#000000;stroke:#000000;stroke-width:4.73223686000000040px;stroke-linecap:butt;stroke-linejoin:miter;stroke-opacity:1;fill-opacity:1"
       d="m 369.84328,287.58699 0,0 z"
       id="path5819" />
    <g
       transform="matrix(4.7322369,0,0,4.7322369,-536.04205,-3955.5633)"
       id="g5879"
       style="fill:#000000;fill-opacity:1">
      <g
         id="g3640"
         style="fill:#000000;fill-opacity:1">
        <path
           id="path4054"
           d="m 166.21053,876.8619 c -1.90161,7.8799 6.74635,15.31486 14.13525,11.18785 10.52619,-2.51216 20.89168,-5.61526 30.49497,-10.68312 15.74804,-5.97189 30.82154,-9.04971 45.01661,-16.64116 11.1377,-1.00045 7.72546,13.86595 10.02692,20.80873 3.1715,47.55078 -0.89857,95.40784 -12.53703,141.6313 -7.17002,2.2543 -12.62699,-9.84 -19.9535,-5.9018 3.1191,7.875 14.31273,13.7133 8.54618,23.4756 -1.62785,8.2722 7.03426,10.1877 13.33012,8.9397 6.6369,-0.178 12.34128,-3.7628 15.43908,-9.6163 11.48226,-17.9734 15.8427,-38.7015 18.40907,-59.57327 3.37071,-35.46135 3.41971,-70.63767 -2.40144,-105.79629 -3.12204,-9.65123 -9.52413,-20.07602 -20.98777,-19.77463 -15.01824,0.66919 -29.3012,6.36788 -43.89283,9.6465 -15.98614,4.19402 -31.62467,10.22692 -48.00361,12.60602 -2.54181,-0.0739 -5.08082,-0.219 -7.62202,-0.30913 z"
           style="fill:#000000;stroke:#000000;stroke-width:1.00404453000000000px;stroke-linecap:butt;stroke-linejoin:miter;stroke-opacity:1;fill-opacity:1"
           sodipodi:nodetypes="cccccccccccccccc" />
        <path
           id="path4056"
           d="m 145.41246,912.36204 c -2.4779,3.19775 -2.73956,8.18845 1.70847,9.74549 3.1005,2.91266 7.58998,1.37316 11.4258,1.6966 19.36015,-3.32919 36.81909,-12.26141 54.30273,-20.79323 6.08846,-2.14223 12.80183,-3.60177 18.26537,-6.4267 1.22256,-0.63213 2.30019,-2.79943 1.79294,-3.94446 -1.22483,-2.76481 -5.37352,-2.65323 -8.52803,-1.85759 -4.44849,0.60928 -9.02372,0.83086 -13.15215,2.76884 -17.13394,6.28305 -34.04255,13.67161 -51.6655,18.10408 -4.55806,1.14643 -9.43231,0.4874 -14.14963,0.70697 z"
           style="fill:#000000;stroke:#000000;stroke-width:1.00404453000000000px;stroke-linecap:butt;stroke-linejoin:miter;stroke-opacity:1;fill-opacity:1"
           sodipodi:nodetypes="ccccssccsc" />
        <path
           id="path4058"
           transform="matrix(0.21131656,0,0,0.21131656,113.27456,846.94101)"
           d="M 522.15625 312.96875 C 505.85924 313.25866 484.04244 326.17045 484.96875 345.46875 C 485.71701 370.28668 485.39645 395.1555 488.0625 419.875 C 440.64771 434.09428 393.92938 450.41157 347.90625 468.625 C 333.09113 474.20445 318.22959 479.62412 303.125 484.375 C 301.43289 494.60439 300.04057 505.37083 308.6875 512.75 C 313.30938 521.66369 319.98435 526.20545 330.5 523.375 C 351.98383 526.99303 371.47298 523.2667 389.34375 510.28125 C 422.36927 491.35841 451.0103 465.6447 484.09375 446.6875 C 502.94078 441.89857 490.3706 470.27875 492.09375 480.9375 C 488.69108 519.7904 486.63379 558.88858 482.0625 597.5625 C 481.64586 598.89575 481.22914 600.22925 480.8125 601.5625 C 470.92424 601.87139 460.72627 600.12543 451.1875 602.90625 C 421.29879 612.33892 391.10692 620.84638 361.4375 630.9375 C 338.99321 639.40713 316.53799 647.87411 294.09375 656.34375 C 290.98368 640.82282 287.5631 625.26441 286 609.8125 C 281.90453 561.14272 287.78656 507.34928 259.65625 464.78125 C 242.26712 439.12126 216.73177 430.80074 186.78125 434.375 C 177.73596 436.02177 165.56523 437.1684 160.5625 443.65625 C 154.33975 465.89147 185.89291 478.0095 194.5 496.25 C 217.46077 569.0664 229.17695 647.10072 249.4375 721.5 C 253.17464 738.73722 262.18045 745.36052 279.34375 744 C 290.81535 740.58143 294.92434 726.34709 299.90625 715.40625 C 300.7451 705.3736 300.23316 695.24968 299 685.09375 C 300.84255 685.55568 302.72487 685.85576 304.6875 685.875 C 311.59254 686.87355 318.81991 689.30936 325.375 685.6875 C 370.29273 670.82733 415.03931 655.3829 460.28125 641.5625 C 463.15668 640.92353 466.03084 640.29523 468.90625 639.65625 C 465.10829 651.80974 461.32921 663.97151 457.53125 676.125 C 459.22814 683.47833 460.92807 690.83417 462.625 698.1875 C 481.86164 707.19621 502.35782 703.9803 520.46875 693.9375 C 542.26846 689.92953 537.02264 663.22128 543.90625 646.875 C 557.11548 585.86511 581.29096 527.93227 597 467.65625 C 622.85694 385.83256 606.48997 347.90823 523.71875 312.96875 C 523.20544 312.95166 522.68196 312.9594 522.15625 312.96875 z "
           style="fill:#000000;stroke:#000000;stroke-width:4.75137663000000020px;stroke-linecap:butt;stroke-linejoin:miter;stroke-opacity:1;fill-opacity:1" />
      </g>
    </g>
    <path
       style="fill:#000000;stroke:#000000;stroke-width:4.73223686000000040px;stroke-linecap:butt;stroke-linejoin:miter;stroke-opacity:1;fill-opacity:1"
       d="m 594.62455,556.31042 0,0 z"
       id="path5837" />
  </g>
</svg>
