<?xml version="1.0" encoding="UTF-8" standalone="no"?>
<!-- Created with Inkscape (http://www.inkscape.org/) -->

<svg
   xmlns:dc="http://purl.org/dc/elements/1.1/"
   xmlns:cc="http://creativecommons.org/ns#"
   xmlns:rdf="http://www.w3.org/1999/02/22-rdf-syntax-ns#"
   xmlns:svg="http://www.w3.org/2000/svg"
   xmlns="http://www.w3.org/2000/svg"
   xmlns:sodipodi="http://sodipodi.sourceforge.net/DTD/sodipodi-0.dtd"
   xmlns:inkscape="http://www.inkscape.org/namespaces/inkscape"
   width="1000"
   height="1000"
   id="svg3173"
   version="1.1"
   inkscape:version="0.47 r22583"
   sodipodi:docname="540d.svg"
   inkscape:export-filename="E:\chinese\images\yan_ming_songjianzhe.png"
   inkscape:export-xdpi="18.005705"
   inkscape:export-ydpi="18.005705">
  <title
     id="title2831">Ming</title>
  <defs
     id="defs3175">
    <inkscape:perspective
       sodipodi:type="inkscape:persp3d"
       inkscape:vp_x="0 : 526.18109 : 1"
       inkscape:vp_y="0 : 1000 : 0"
       inkscape:vp_z="744.09448 : 526.18109 : 1"
       inkscape:persp3d-origin="372.04724 : 350.78739 : 1"
       id="perspective3181" />
    <inkscape:perspective
       id="perspective3191"
       inkscape:persp3d-origin="0.5 : 0.33333333 : 1"
       inkscape:vp_z="1 : 0.5 : 1"
       inkscape:vp_y="0 : 1000 : 0"
       inkscape:vp_x="0 : 0.5 : 1"
       sodipodi:type="inkscape:persp3d" />
    <inkscape:perspective
       id="perspective4006"
       inkscape:persp3d-origin="0.5 : 0.33333333 : 1"
       inkscape:vp_z="1 : 0.5 : 1"
       inkscape:vp_y="0 : 1000 : 0"
       inkscape:vp_x="0 : 0.5 : 1"
       sodipodi:type="inkscape:persp3d" />
    <inkscape:perspective
       id="perspective4034"
       inkscape:persp3d-origin="0.5 : 0.33333333 : 1"
       inkscape:vp_z="1 : 0.5 : 1"
       inkscape:vp_y="0 : 1000 : 0"
       inkscape:vp_x="0 : 0.5 : 1"
       sodipodi:type="inkscape:persp3d" />
    <inkscape:perspective
       id="perspective4081"
       inkscape:persp3d-origin="0.5 : 0.33333333 : 1"
       inkscape:vp_z="1 : 0.5 : 1"
       inkscape:vp_y="0 : 1000 : 0"
       inkscape:vp_x="0 : 0.5 : 1"
       sodipodi:type="inkscape:persp3d" />
    <inkscape:perspective
       id="perspective4147"
       inkscape:persp3d-origin="0.5 : 0.33333333 : 1"
       inkscape:vp_z="1 : 0.5 : 1"
       inkscape:vp_y="0 : 1000 : 0"
       inkscape:vp_x="0 : 0.5 : 1"
       sodipodi:type="inkscape:persp3d" />
    <inkscape:perspective
       id="perspective3765"
       inkscape:persp3d-origin="0.5 : 0.33333333 : 1"
       inkscape:vp_z="1 : 0.5 : 1"
       inkscape:vp_y="0 : 1000 : 0"
       inkscape:vp_x="0 : 0.5 : 1"
       sodipodi:type="inkscape:persp3d" />
    <inkscape:perspective
       id="perspective3793"
       inkscape:persp3d-origin="0.5 : 0.33333333 : 1"
       inkscape:vp_z="1 : 0.5 : 1"
       inkscape:vp_y="0 : 1000 : 0"
       inkscape:vp_x="0 : 0.5 : 1"
       sodipodi:type="inkscape:persp3d" />
    <inkscape:perspective
       id="perspective3764"
       inkscape:persp3d-origin="0.5 : 0.33333333 : 1"
       inkscape:vp_z="1 : 0.5 : 1"
       inkscape:vp_y="0 : 1000 : 0"
       inkscape:vp_x="0 : 0.5 : 1"
       sodipodi:type="inkscape:persp3d" />
    <inkscape:perspective
       id="perspective3858"
       inkscape:persp3d-origin="0.5 : 0.33333333 : 1"
       inkscape:vp_z="1 : 0.5 : 1"
       inkscape:vp_y="0 : 1000 : 0"
       inkscape:vp_x="0 : 0.5 : 1"
       sodipodi:type="inkscape:persp3d" />
  </defs>
  <sodipodi:namedview
     id="base"
     pagecolor="#ffffff"
     bordercolor="#666666"
     borderopacity="1.0"
     inkscape:pageopacity="0.0"
     inkscape:pageshadow="2"
     inkscape:zoom="0.49497475"
     inkscape:cx="1060.3778"
     inkscape:cy="535.3256"
     inkscape:document-units="px"
     inkscape:current-layer="g4878"
     showgrid="false"
     inkscape:window-width="1440"
     inkscape:window-height="840"
     inkscape:window-x="-4"
     inkscape:window-y="-4"
     inkscape:window-maximized="1" />
  <metadata
     id="metadata3178">
    <rdf:RDF>
      <cc:Work
         rdf:about="">
        <dc:format>image/svg+xml</dc:format>
        <dc:type
           rdf:resource="http://purl.org/dc/dcmitype/StillImage" />
        <dc:title>Ming</dc:title>
        <dc:date>2010-07-19</dc:date>
        <dc:creator>
          <cc:Agent>
            <dc:title>Alex Amies</dc:title>
          </cc:Agent>
        </dc:creator>
        <dc:rights>
          <cc:Agent>
            <dc:title>@ Alex Amies 2010</dc:title>
          </cc:Agent>
        </dc:rights>
        <dc:publisher>
          <cc:Agent>
            <dc:title>chinesenotes.com</dc:title>
          </cc:Agent>
        </dc:publisher>
        <dc:source>Yan Qin Ceremonial Inscription</dc:source>
        <dc:language>Chinese 中文</dc:language>
        <dc:description>Tracing from Tang Dynasty Ceremonial Inscription by Yan Zhenqing 颜真卿 (709－785)</dc:description>
        <cc:license
           rdf:resource="http://creativecommons.org/licenses/by/3.0/" />
      </cc:Work>
      <cc:License
         rdf:about="http://creativecommons.org/licenses/by/3.0/">
        <cc:permits
           rdf:resource="http://creativecommons.org/ns#Reproduction" />
        <cc:permits
           rdf:resource="http://creativecommons.org/ns#Distribution" />
        <cc:requires
           rdf:resource="http://creativecommons.org/ns#Notice" />
        <cc:requires
           rdf:resource="http://creativecommons.org/ns#Attribution" />
        <cc:permits
           rdf:resource="http://creativecommons.org/ns#DerivativeWorks" />
      </cc:License>
    </rdf:RDF>
  </metadata>
  <g
     inkscape:label="Layer 1"
     inkscape:groupmode="layer"
     id="layer1"
     transform="translate(0,-52.362183)">
    <g
       transform="matrix(4.7513766,0,0,4.7513766,-2425.4993,19.090492)"
       id="g4878"
       style="fill:none;fill-opacity:1">
      <path
         style="fill:#000000;stroke:#000000;stroke-width:4.75137663000000020px;stroke-linecap:butt;stroke-linejoin:miter;stroke-opacity:1;fill-opacity:1"
         d="m 761.15625,81.40625 c -7.21052,-0.04398 -14.38479,1.529562 -21,5.03125 -84.80575,23.73533 -173.17429,31.13649 -258.84375,51.03125 1.96579,41.06278 51.69905,46.07333 82.3125,33.40625 35.32178,5.38568 79.48831,-33.55648 106.65625,-11.25 C 616.3183,231.25753 562.05491,304.3801 499.5,369.46875 c -7.36836,8.16015 -14.7688,16.29331 -22.1875,24.40625 -6.13605,-18.8803 -3.84538,-43.24661 -16.28125,-57.21875 -25.40297,-28.54111 -76.15647,-22.7321 -115.6875,-25.25 40.90805,-36.94276 89.82317,-71.13029 119,-114.5625 6.60312,-9.82932 2.54365,-26.0329 -2.9375,-37.625 -15.28669,-32.32989 -65.80669,-63.321155 -88.6875,-40.4375 -21.61251,21.6152 -3.79604,70.7391 -18.65625,100.125 C 328.83045,268.80237 286.06055,313.09202 241.28125,350 c -5.53455,7.70943 -24.17293,14.60399 -18.4375,24.25 18.91076,1.36948 53.86667,-10.06811 75.21875,-19.59375 10.98071,-4.89873 18.1368,-16.80323 27.28125,-25.125 C 357.98837,373.3697 394.69435,410.18682 447,426.75 349.01602,532.39091 247.85069,635.06759 151.59375,742.3125 125.58999,774.05084 90.041722,797.16698 67.28125,831.5 c 23.506343,23.35378 53.06101,-16.03594 74.75,-27.46875 C 231.38621,735.73159 314.62443,659.65916 396.6875,582.84375 486.98646,487.47526 576.83156,391.1114 656.65625,286.6875 682.10933,250.52694 702.14156,209.39333 735.875,179.875 c 27.44946,-11.41174 65.82259,-14.8293 79.8125,-44.25 2.56856,-29.17192 -26.24383,-54.046212 -54.53125,-54.21875 z"
         transform="matrix(0.21046532,0,0,0.21046532,510.48349,7.0025371)"
         id="path4846"
         sodipodi:nodetypes="cccccccscssssccscccccccccc" />
      <path
         style="fill:#000000;stroke:#000000;stroke-width:4.75137663000000020px;stroke-linecap:butt;stroke-linejoin:miter;stroke-opacity:1;fill-opacity:1"
         d="m 799.78125,528.625 c -4.92715,0.0446 -10.0953,0.53771 -15.46875,1.5 -7.19254,14.93187 -6.5082,41.62786 -29.46875,36.53125 -95.70617,-2.24331 -151.69562,24.04228 -234.5,56.125 13.84204,32.7538 64.27502,53.59012 95.03125,72.96875 24.93185,0.51282 5.87915,-21.58136 13.65625,-33.5 20.71914,-33.21716 61.25941,-52.21384 99.46875,-57.53125 14.08493,-5.72161 38.13335,1.32467 25.59375,20 -9.58839,62.02581 -32.12909,119.79964 -53.28125,178.15625 -17.66002,-10.6246 -44.98161,-13.34229 -65.0625,-20.59375 -53.72274,-5.148 -99.71349,8.05306 -146,32.09375 -2.19634,-15.17983 -4.63162,-30.33673 -6.25,-45.5625 -7.87403,-42.16619 -15.14689,-85.23034 -40.9375,-120.40625 -34.06371,-30.03222 -84.9199,-13.99099 -74.21875,34.9375 26.01949,63.51707 41.43787,130.79622 47.6875,199.21875 10.34427,59.93904 70.99054,50.76414 78.625,-11.53125 0.007,-0.96601 0.005,-1.94128 0,-2.90625 59.09429,11.34271 127.23728,-0.30107 187.25,-10.375 0.40031,45.78006 38.61229,76.00889 82.625,66.96875 19.60812,-21.8741 39.52567,-43.6872 53.9375,-69.5 59.13647,-190.53567 86.51476,-183.71203 74.84375,-244.59375 -8.48726,-44.27373 -1.45543,-48.08602 -93.53125,-82 z"
         transform="matrix(0.21046532,0,0,0.21046532,510.48349,7.0025371)"
         id="path4852"
         sodipodi:nodetypes="ccccccccccccccccccccsc" />
    </g>
  </g>
</svg>
