<?xml version="1.0" encoding="UTF-8" standalone="no"?>
<!-- Created with Inkscape (http://www.inkscape.org/) -->

<svg
   xmlns:dc="http://purl.org/dc/elements/1.1/"
   xmlns:cc="http://creativecommons.org/ns#"
   xmlns:rdf="http://www.w3.org/1999/02/22-rdf-syntax-ns#"
   xmlns:svg="http://www.w3.org/2000/svg"
   xmlns="http://www.w3.org/2000/svg"
   xmlns:sodipodi="http://sodipodi.sourceforge.net/DTD/sodipodi-0.dtd"
   xmlns:inkscape="http://www.inkscape.org/namespaces/inkscape"
   width="1000"
   height="1000"
   id="svg3173"
   version="1.1"
   inkscape:version="0.47 r22583"
   sodipodi:docname="540f.svg"
   inkscape:export-filename="E:\chinese\yan\540f.png"
   inkscape:export-xdpi="18.005705"
   inkscape:export-ydpi="18.005705">
  <title
     id="title2821">Shi</title>
  <defs
     id="defs3175">
    <inkscape:perspective
       sodipodi:type="inkscape:persp3d"
       inkscape:vp_x="0 : 526.18109 : 1"
       inkscape:vp_y="0 : 1000 : 0"
       inkscape:vp_z="744.09448 : 526.18109 : 1"
       inkscape:persp3d-origin="372.04724 : 350.78739 : 1"
       id="perspective3181" />
    <inkscape:perspective
       id="perspective3191"
       inkscape:persp3d-origin="0.5 : 0.33333333 : 1"
       inkscape:vp_z="1 : 0.5 : 1"
       inkscape:vp_y="0 : 1000 : 0"
       inkscape:vp_x="0 : 0.5 : 1"
       sodipodi:type="inkscape:persp3d" />
    <inkscape:perspective
       id="perspective4006"
       inkscape:persp3d-origin="0.5 : 0.33333333 : 1"
       inkscape:vp_z="1 : 0.5 : 1"
       inkscape:vp_y="0 : 1000 : 0"
       inkscape:vp_x="0 : 0.5 : 1"
       sodipodi:type="inkscape:persp3d" />
    <inkscape:perspective
       id="perspective4034"
       inkscape:persp3d-origin="0.5 : 0.33333333 : 1"
       inkscape:vp_z="1 : 0.5 : 1"
       inkscape:vp_y="0 : 1000 : 0"
       inkscape:vp_x="0 : 0.5 : 1"
       sodipodi:type="inkscape:persp3d" />
    <inkscape:perspective
       id="perspective4081"
       inkscape:persp3d-origin="0.5 : 0.33333333 : 1"
       inkscape:vp_z="1 : 0.5 : 1"
       inkscape:vp_y="0 : 1000 : 0"
       inkscape:vp_x="0 : 0.5 : 1"
       sodipodi:type="inkscape:persp3d" />
    <inkscape:perspective
       id="perspective4147"
       inkscape:persp3d-origin="0.5 : 0.33333333 : 1"
       inkscape:vp_z="1 : 0.5 : 1"
       inkscape:vp_y="0 : 1000 : 0"
       inkscape:vp_x="0 : 0.5 : 1"
       sodipodi:type="inkscape:persp3d" />
    <inkscape:perspective
       id="perspective3816"
       inkscape:persp3d-origin="0.5 : 0.33333333 : 1"
       inkscape:vp_z="1 : 0.5 : 1"
       inkscape:vp_y="0 : 1000 : 0"
       inkscape:vp_x="0 : 0.5 : 1"
       sodipodi:type="inkscape:persp3d" />
  </defs>
  <sodipodi:namedview
     id="base"
     pagecolor="#ffffff"
     bordercolor="#666666"
     borderopacity="1.0"
     inkscape:pageopacity="0.0"
     inkscape:pageshadow="2"
     inkscape:zoom="0.49497475"
     inkscape:cx="328.56782"
     inkscape:cy="513.93908"
     inkscape:document-units="px"
     inkscape:current-layer="layer1"
     showgrid="false"
     inkscape:window-width="1440"
     inkscape:window-height="840"
     inkscape:window-x="-4"
     inkscape:window-y="-4"
     inkscape:window-maximized="1" />
  <metadata
     id="metadata3178">
    <rdf:RDF>
      <cc:Work
         rdf:about="">
        <dc:format>image/svg+xml</dc:format>
        <dc:type
           rdf:resource="http://purl.org/dc/dcmitype/StillImage" />
        <dc:title>Shi</dc:title>
        <dc:date>2010-07-17==</dc:date>
        <dc:creator>
          <cc:Agent>
            <dc:title>Alex Amies</dc:title>
          </cc:Agent>
        </dc:creator>
        <dc:rights>
          <cc:Agent>
            <dc:title>@ Alex Amies 2010</dc:title>
          </cc:Agent>
        </dc:rights>
        <dc:publisher>
          <cc:Agent>
            <dc:title>chinesenotes.com</dc:title>
          </cc:Agent>
        </dc:publisher>
        <dc:source>Yan Qin Ceremonial Inscription</dc:source>
        <dc:language>Chinese 中文</dc:language>
        <dc:description>Tracing from Tang Dynasty Ceremonial Inscription by Yan Zhenqing 颜真卿 (709－785)</dc:description>
        <cc:license
           rdf:resource="http://creativecommons.org/licenses/by/3.0/" />
      </cc:Work>
      <cc:License
         rdf:about="http://creativecommons.org/licenses/by/3.0/">
        <cc:permits
           rdf:resource="http://creativecommons.org/ns#Reproduction" />
        <cc:permits
           rdf:resource="http://creativecommons.org/ns#Distribution" />
        <cc:requires
           rdf:resource="http://creativecommons.org/ns#Notice" />
        <cc:requires
           rdf:resource="http://creativecommons.org/ns#Attribution" />
        <cc:permits
           rdf:resource="http://creativecommons.org/ns#DerivativeWorks" />
      </cc:License>
    </rdf:RDF>
  </metadata>
  <g
     inkscape:label="Layer 1"
     inkscape:groupmode="layer"
     id="layer1"
     transform="translate(0,-52.362183)">
    <path
       style="fill:#000000;stroke:#000000;stroke-width:4.76094626999999980px;stroke-linecap:butt;stroke-linejoin:miter;stroke-opacity:1;fill-opacity:1"
       d="m 400.21875,57.40625 c -14.18776,8.84351 -7.11035,20.31921 -0.28125,31.75 11.66474,36.43348 18.96162,73.40894 23.125,110.6875 -66.67582,12.29698 -137.59754,7.03446 -203.09375,8.90625 -6.60871,0.18887 -14.80001,9.09991 -13.59375,15.28125 5.95135,30.497 39.2812,79.28391 78.9375,64.625 39.56413,-17.35522 82.14928,-25.69384 123.25,-38.46875 6.0366,-1.49848 12.07704,-2.95649 18.125,-4.40625 1.52064,32.16792 1.05078,64.49076 -0.625,96.8125 -14.91509,3.63095 -29.816,7.21754 -44.75,10.75 -14.10102,0.54232 -28.21148,1.08263 -42.3125,1.625 -4.49497,1.75798 -8.41031,4.95356 -11.25,8.8125 -5.06403,-8.85199 -11.39236,-17.1394 -17.65625,-25.8125 -31.54351,-16.17131 -61.12849,-10.09343 -91.8125,0 -7.32083,2.40817 -6.8125,22.09375 -6.8125,22.09375 13.72895,23.27227 45.78129,21.00993 55.90625,47.625 16.94599,32.17834 20.82403,67.27115 29.34375,101.4375 -16.63733,-16.31041 -32.72252,-33.16651 -47.28125,-51.46875 -29.3499,-15.83005 -64.46898,-31.77058 -94.96875,-9.59375 -21.33042,12.05095 -26.4685,21.65234 -28,44.625 1.55473,25.15699 34.81626,40.83496 41.4375,9.46875 -2.37471,-13.64159 16.76417,-17.70967 25.0625,-9.0625 C 251.2234,536.01074 295.86583,597.3219 340.375,656.3125 272.15941,771.84561 178.77019,842.83773 49.9375,934.78125 c 9.148016,8.34232 17.615255,20.81361 30,9.8125 123.43391,-49.81317 222.76113,-131.59364 300.65625,-236.75 46.43413,53.89863 111.91818,90.68791 171,129.71875 58.21519,29.40637 121.10533,61.16442 179.5,81.5 17.45791,-0.13759 34.59666,-3.06205 51.6875,-6.375 51.73311,-22.28851 82.53489,-41.65387 125.84375,-38.625 19.23032,1.56602 38.50713,1.22951 57.78125,1.21875 21.62037,-6.91361 18.17216,-18.76726 -8.5,-27.21875 -32.60524,-17.45282 -63.71313,-38.18589 -99.625,-48.34375 C 793.6205,775.96244 727.9259,754.80234 665.46875,725.5 585.66969,696.81617 511.72494,658.71973 440.15625,615.5625 c 18.68657,-34.56877 34.16619,-70.86702 45.90625,-108.4375 11.74175,-2.4751 23.45292,-5.15818 35.0625,-8.25 8.40904,27.82023 40.42168,23.37747 63.625,15.21875 33.06016,-32.46575 62.78659,-73.49731 90.84375,-111.5625 17.64235,-36.5574 38.17372,-68.10963 35.78125,-108.78125 -14.96842,-20.10952 -28.29727,-34.13657 -56.125,-34 -17.56863,0.0862 -22.05932,29.8644 -38.84375,35.625 -37.85936,9.28338 -75.67019,18.77822 -113.5,28.21875 0.55959,-31.63353 0.27544,-63.28823 -0.375,-94.96875 33.8784,-7.31886 67.82641,-14.35462 101.71875,-21.59375 21.17774,3.11332 42.12265,13.09347 63.6875,8.125 16.554,-2.84115 39.36774,4.33135 44.71875,-17.03125 -2.70026,-36.0267 -30.46398,-55.39614 -65.53125,-61.84375 -49.50887,10.50092 -96.98124,29.44089 -145.78125,44.09375 -0.84803,-29.66604 -1.83624,-59.33753 -2.53125,-88.96875 -7.4206,-9.01281 -8.81296,-27.08663 -23.59375,-25 -25.00325,-3.00039 -49.99675,-5.9996 -75,-9 z m 200.625,273.75 c -30.52186,46.18895 -62.0513,86.54322 -76.46875,140.40625 -3.74756,-4.27872 -8.91484,-8.05331 -15.34375,-12.875 -5.10751,0.6607 -10.197,1.40862 -15.28125,2.1875 4.45068,-35.1743 7.00571,-70.44606 8.3125,-105.78125 33.08323,-7.25041 66.0427,-15.08925 98.78125,-23.9375 z m -176.5625,40.0625 c -2.57881,35.69582 -6.37944,71.32906 -10.40625,106.71875 -23.31809,6.35595 -46.34645,13.81426 -69.0625,22.1875 -2.88974,-21.866 -7.64389,-43.8634 -10.90625,-65.25 2.49093,-12.63205 9.16536,-25.61804 4.3125,-38.53125 11.03368,2.99547 24.53729,-5.28785 31,-14.375 18.36882,-3.54589 36.72361,-7.11626 55.0625,-10.75 z m -24.0625,153.34375 c -6.47087,18.69182 -13.2916,36.37194 -20.4375,53.1875 -11.74603,-7.61172 -23.44164,-15.32053 -35.125,-23.125 -1.48174,-1.40481 -2.98328,-2.78627 -4.46875,-4.1875 2.8915,-2.85655 5.34806,-6.44271 7.0625,-10.46875 0.002,-0.0524 -0.002,-0.10383 0,-0.15625 17.36421,-6.27826 35.07073,-11.11163 52.96875,-15.25 z"
       transform="translate(0,52.362183)"
       id="path4555"
       sodipodi:nodetypes="cccssccccccccsccccccccccccccccccccccccccsccccccccccccccccccccccccccccccc" />
  </g>
</svg>
