<?xml version="1.0" encoding="UTF-8" standalone="no"?>
<!-- Created with Inkscape (http://www.inkscape.org/) -->

<svg
   xmlns:dc="http://purl.org/dc/elements/1.1/"
   xmlns:cc="http://creativecommons.org/ns#"
   xmlns:rdf="http://www.w3.org/1999/02/22-rdf-syntax-ns#"
   xmlns:svg="http://www.w3.org/2000/svg"
   xmlns="http://www.w3.org/2000/svg"
   xmlns:sodipodi="http://sodipodi.sourceforge.net/DTD/sodipodi-0.dtd"
   xmlns:inkscape="http://www.inkscape.org/namespaces/inkscape"
   width="1000"
   height="1000"
   id="svg3173"
   version="1.1"
   inkscape:version="0.47 r22583"
   sodipodi:docname="541b.svg"
   inkscape:export-filename="E:\chinese\yan\541b.png"
   inkscape:export-xdpi="18.005705"
   inkscape:export-ydpi="18.005705">
  <title
     id="title4813">Jun</title>
  <defs
     id="defs3175">
    <inkscape:perspective
       sodipodi:type="inkscape:persp3d"
       inkscape:vp_x="0 : 526.18109 : 1"
       inkscape:vp_y="0 : 1000 : 0"
       inkscape:vp_z="744.09448 : 526.18109 : 1"
       inkscape:persp3d-origin="372.04724 : 350.78739 : 1"
       id="perspective3181" />
    <inkscape:perspective
       id="perspective3191"
       inkscape:persp3d-origin="0.5 : 0.33333333 : 1"
       inkscape:vp_z="1 : 0.5 : 1"
       inkscape:vp_y="0 : 1000 : 0"
       inkscape:vp_x="0 : 0.5 : 1"
       sodipodi:type="inkscape:persp3d" />
    <inkscape:perspective
       id="perspective4006"
       inkscape:persp3d-origin="0.5 : 0.33333333 : 1"
       inkscape:vp_z="1 : 0.5 : 1"
       inkscape:vp_y="0 : 1000 : 0"
       inkscape:vp_x="0 : 0.5 : 1"
       sodipodi:type="inkscape:persp3d" />
    <inkscape:perspective
       id="perspective4034"
       inkscape:persp3d-origin="0.5 : 0.33333333 : 1"
       inkscape:vp_z="1 : 0.5 : 1"
       inkscape:vp_y="0 : 1000 : 0"
       inkscape:vp_x="0 : 0.5 : 1"
       sodipodi:type="inkscape:persp3d" />
    <inkscape:perspective
       id="perspective4081"
       inkscape:persp3d-origin="0.5 : 0.33333333 : 1"
       inkscape:vp_z="1 : 0.5 : 1"
       inkscape:vp_y="0 : 1000 : 0"
       inkscape:vp_x="0 : 0.5 : 1"
       sodipodi:type="inkscape:persp3d" />
    <inkscape:perspective
       id="perspective4147"
       inkscape:persp3d-origin="0.5 : 0.33333333 : 1"
       inkscape:vp_z="1 : 0.5 : 1"
       inkscape:vp_y="0 : 1000 : 0"
       inkscape:vp_x="0 : 0.5 : 1"
       sodipodi:type="inkscape:persp3d" />
    <inkscape:perspective
       id="perspective3797"
       inkscape:persp3d-origin="0.5 : 0.33333333 : 1"
       inkscape:vp_z="1 : 0.5 : 1"
       inkscape:vp_y="0 : 1000 : 0"
       inkscape:vp_x="0 : 0.5 : 1"
       sodipodi:type="inkscape:persp3d" />
    <inkscape:perspective
       id="perspective3104"
       inkscape:persp3d-origin="0.5 : 0.33333333 : 1"
       inkscape:vp_z="1 : 0.5 : 1"
       inkscape:vp_y="0 : 1000 : 0"
       inkscape:vp_x="0 : 0.5 : 1"
       sodipodi:type="inkscape:persp3d" />
    <inkscape:perspective
       id="perspective3140"
       inkscape:persp3d-origin="0.5 : 0.33333333 : 1"
       inkscape:vp_z="1 : 0.5 : 1"
       inkscape:vp_y="0 : 1000 : 0"
       inkscape:vp_x="0 : 0.5 : 1"
       sodipodi:type="inkscape:persp3d" />
    <inkscape:perspective
       id="perspective3799"
       inkscape:persp3d-origin="0.5 : 0.33333333 : 1"
       inkscape:vp_z="1 : 0.5 : 1"
       inkscape:vp_y="0 : 1000 : 0"
       inkscape:vp_x="0 : 0.5 : 1"
       sodipodi:type="inkscape:persp3d" />
    <inkscape:perspective
       id="perspective3835"
       inkscape:persp3d-origin="0.5 : 0.33333333 : 1"
       inkscape:vp_z="1 : 0.5 : 1"
       inkscape:vp_y="0 : 1000 : 0"
       inkscape:vp_x="0 : 0.5 : 1"
       sodipodi:type="inkscape:persp3d" />
    <inkscape:perspective
       id="perspective3862"
       inkscape:persp3d-origin="0.5 : 0.33333333 : 1"
       inkscape:vp_z="1 : 0.5 : 1"
       inkscape:vp_y="0 : 1000 : 0"
       inkscape:vp_x="0 : 0.5 : 1"
       sodipodi:type="inkscape:persp3d" />
    <inkscape:perspective
       id="perspective3895"
       inkscape:persp3d-origin="0.5 : 0.33333333 : 1"
       inkscape:vp_z="1 : 0.5 : 1"
       inkscape:vp_y="0 : 1000 : 0"
       inkscape:vp_x="0 : 0.5 : 1"
       sodipodi:type="inkscape:persp3d" />
  </defs>
  <sodipodi:namedview
     id="base"
     pagecolor="#ffffff"
     bordercolor="#666666"
     borderopacity="1.0"
     inkscape:pageopacity="0.0"
     inkscape:pageshadow="2"
     inkscape:zoom="0.49497475"
     inkscape:cx="637.59461"
     inkscape:cy="519.65337"
     inkscape:document-units="px"
     inkscape:current-layer="g5879"
     showgrid="false"
     inkscape:window-width="1440"
     inkscape:window-height="840"
     inkscape:window-x="-4"
     inkscape:window-y="-4"
     inkscape:window-maximized="1" />
  <metadata
     id="metadata3178">
    <rdf:RDF>
      <cc:Work
         rdf:about="">
        <dc:format>image/svg+xml</dc:format>
        <dc:type
           rdf:resource="http://purl.org/dc/dcmitype/StillImage" />
        <dc:title>Jun</dc:title>
        <dc:date>2010-08-12</dc:date>
        <dc:creator>
          <cc:Agent>
            <dc:title>Alex Amies</dc:title>
          </cc:Agent>
        </dc:creator>
        <dc:rights>
          <cc:Agent>
            <dc:title>@ Alex Amies 2010</dc:title>
          </cc:Agent>
        </dc:rights>
        <dc:publisher>
          <cc:Agent>
            <dc:title>chinesenotes.com</dc:title>
          </cc:Agent>
        </dc:publisher>
        <dc:source>Yan Qin Ceremonial Inscription</dc:source>
        <dc:language>Chinese 中文</dc:language>
        <dc:description>Tracing from Tang Dynasty Ceremonial Inscription by Yan Zhenqing 颜真卿 (709－785)</dc:description>
        <cc:license
           rdf:resource="http://creativecommons.org/licenses/by/3.0/" />
      </cc:Work>
      <cc:License
         rdf:about="http://creativecommons.org/licenses/by/3.0/">
        <cc:permits
           rdf:resource="http://creativecommons.org/ns#Reproduction" />
        <cc:permits
           rdf:resource="http://creativecommons.org/ns#Distribution" />
        <cc:requires
           rdf:resource="http://creativecommons.org/ns#Notice" />
        <cc:requires
           rdf:resource="http://creativecommons.org/ns#Attribution" />
        <cc:permits
           rdf:resource="http://creativecommons.org/ns#DerivativeWorks" />
      </cc:License>
    </rdf:RDF>
  </metadata>
  <g
     inkscape:label="Layer 1"
     inkscape:groupmode="layer"
     id="layer1"
     transform="translate(0,-52.362183)">
    <path
       style="fill:#000000;stroke:#000000;stroke-width:4.73223686000000040px;stroke-linecap:butt;stroke-linejoin:miter;stroke-opacity:1;fill-opacity:1"
       d="m 369.84328,287.58699 0,0 z"
       id="path5819" />
    <g
       transform="matrix(4.7322369,0,0,4.7322369,-536.04205,-3955.5633)"
       id="g5879"
       style="fill:#000000;fill-opacity:1">
      <path
         style="fill:#000000;stroke:#000000;stroke-width:4.75137663000000020px;stroke-linecap:butt;stroke-linejoin:miter;stroke-opacity:1;fill-opacity:1"
         d="M 606.84375 55.59375 C 598.76539 55.72685 590.70564 56.751717 582.6875 59.21875 C 512.82028 69.634498 443.80306 84.388639 375.125 100.78125 C 341.34454 109.20775 306.04441 111.35891 273.4375 124.15625 C 256.70483 127.46224 252.55681 153.49742 263.09375 162.8125 C 284.32848 179.09054 314.06891 164.67138 337.34375 158.28125 C 419.57375 129.19522 501.58838 93.194762 589.75 88.25 C 625.82408 78.837675 621.4985 113.09184 611.0625 134.6875 C 608.78233 154.89884 603.27977 174.3776 596.3125 193.46875 C 559.63081 200.43529 522.96767 207.48475 486.375 214.875 C 489.68821 199.4558 492.26527 183.88653 493.5 168.09375 C 494.14666 147.812 472.50259 146.29996 458.40625 153 C 425.58743 148.54531 440.31669 189.75017 432.375 208.84375 C 431.31081 214.83747 430.16456 220.80532 428.96875 226.75 C 404.74754 231.92425 380.55761 237.3294 356.4375 242.96875 C 306.3172 254.39204 256.46122 267.10296 208.15625 284.8125 C 194.28237 289.51554 180.40513 294.23451 166.53125 298.9375 C 145.15517 317.91514 172.50305 343.95641 193.46875 346.3125 C 218.18238 351.36478 238.4622 335.58899 259.96875 326.28125 C 289.36768 311.61373 319.31727 297.9785 351.46875 290.59375 C 373.9693 284.2639 396.3797 277.56638 418.8125 270.9375 C 407.34606 315.3061 392.43133 358.38085 375.03125 400.5 C 319.581 416.08299 264.21391 432.09692 208.75 447.4375 C 200.33499 448.84004 191.91505 450.25371 183.5 451.65625 C 171.27521 466.2508 167.45451 488.32195 185.75 499.875 C 205.67338 512.61077 231.73922 498.7134 252.78125 493.65625 C 288.28207 483.69664 319.11793 462.59144 352.71875 447.9375 C 353.31226 447.77163 353.90654 447.60365 354.5 447.4375 C 331.08186 498.16358 304.46583 547.63863 276.375 596.46875 C 228.25875 683.02316 177.30132 767.95613 126.9375 853.1875 C 111.89239 880.83985 98.296565 909.23453 83.40625 936.96875 C 117.4837 940.04518 131.40913 898.91084 152.59375 878.90625 C 188.92559 834.26185 226.69495 790.49046 254.4375 739.75 C 319.3856 642.17962 371.67186 537.35298 417.09375 429.5625 C 466.97029 415.17474 516.8747 400.77669 567.3125 388.625 C 585.54108 387.43475 604.26616 383.02069 621.96875 389.71875 C 636.82121 392.29744 655.88679 395.51405 668.84375 389.3125 C 683.57544 376.57952 673.90158 349.78179 656 345.875 C 642.11891 336.78572 626.10189 340.81771 610.5 344.25 C 616.50805 336.78528 621.40473 328.37135 624.90625 319.8125 C 644.21469 282.60427 665.48318 245.83752 685.3125 208.8125 C 687.6505 208.35729 689.97346 207.88753 692.3125 207.4375 C 717.90004 207.97101 742.55335 214.77228 766.90625 221.6875 C 788.11088 219.12859 818.37072 232.52624 832.65625 212.71875 C 853.66014 195.51783 835.86618 172.83775 817.5625 163.34375 C 797.3399 140.69659 770.22689 164.04864 745.34375 165.09375 C 731.5189 167.78691 717.68054 170.41975 703.84375 173.0625 C 709.40166 161.89456 714.74362 150.6779 719.75 139.40625 C 724.48792 128.73903 724.1869 112.94267 718.03125 103.78125 C 705.89538 85.719532 684.70473 64.312398 660.25 61.46875 C 642.49577 59.270809 624.61615 55.300931 606.84375 55.59375 z M 581.375 230.1875 C 564.16212 269.69663 545.23758 308.69375 540.53125 350.75 C 542.20226 352.84216 543.77973 355.10973 545.34375 357.375 C 508.65675 364.88637 471.98563 372.52491 436.09375 383.28125 C 443.15491 365.69329 450.07582 348.03656 456.84375 330.34375 C 462.24501 304.80216 469.73135 279.65541 476.59375 254.375 C 506.41189 246.20485 536.41048 238.80469 566.875 233.25 C 571.71035 232.22804 576.53981 231.21058 581.375 230.1875 z M 746.90625 495.78125 C 728.73432 509.28639 752.52464 539.42259 722.28125 539.4375 C 694.13949 551.09092 662.54882 537.28437 634.25 550.40625 C 597.77695 557.5338 565.79251 577.43874 533.09375 594.1875 C 514.83635 613.1085 534.918 638.19267 556.03125 643.1875 C 580.59979 641.11691 595.90349 619.98146 617.15625 610.15625 C 646.67855 596.42278 674.23036 577.48063 704.625 566.3125 C 723.21171 563.256 743.46446 564.70331 727.53125 585.96875 C 704.89849 642.1027 684.07761 699.00665 660.8125 754.875 C 655.08042 752.71044 649.36464 751.19698 644.3125 750.34375 C 591.52825 748.19643 535.64088 749.8676 483.46875 755.71875 C 483.08921 747.85498 482.76676 740.01753 482.625 732.15625 C 474.82121 697.01584 478.59123 657.26127 466.90625 623.03125 C 460.62458 609.27833 450.78565 595.84432 439.875 584.78125 C 426.70263 572.81849 416.26071 565.48614 399.03125 565.34375 C 394.79613 568.44554 384.37615 567.25932 385.4375 574.03125 C 394.52065 654.73591 410.18275 735.13134 424.3125 815.25 C 429.06352 824.11253 435.83463 831.85359 441.4375 840.25 C 454.44803 842.02506 486.55756 843.15345 484.5625 823.5 C 484.79817 819.93679 484.96198 816.37688 485.0625 812.8125 C 537.70518 816.96854 591.4667 817.73695 644.4375 815.71875 C 651.3768 832.18397 672.45155 841.98233 690 835.15625 C 713.34152 832.23693 715.20721 808.34755 726.125 792.0625 C 752.81183 744.25271 783.70749 698.54118 804.75 647.8125 C 812.04706 631.63208 819.35919 615.46171 826.65625 599.28125 C 829.32017 575.65873 823.82401 549.81359 804.53125 534.375 C 787.19238 519.05964 769.70939 502.39876 746.90625 495.78125 z "
         transform="matrix(0.21131656,0,0,0.21131656,113.27456,846.94101)"
         id="path4720" />
    </g>
    <path
       style="fill:#000000;stroke:#000000;stroke-width:4.73223686000000040px;stroke-linecap:butt;stroke-linejoin:miter;stroke-opacity:1;fill-opacity:1"
       d="m 594.62455,556.31042 0,0 z"
       id="path5837" />
  </g>
</svg>
