<?xml version="1.0" encoding="UTF-8" standalone="no"?>
<!-- Created with Inkscape (http://www.inkscape.org/) -->

<svg
   xmlns:dc="http://purl.org/dc/elements/1.1/"
   xmlns:cc="http://creativecommons.org/ns#"
   xmlns:rdf="http://www.w3.org/1999/02/22-rdf-syntax-ns#"
   xmlns:svg="http://www.w3.org/2000/svg"
   xmlns="http://www.w3.org/2000/svg"
   xmlns:sodipodi="http://sodipodi.sourceforge.net/DTD/sodipodi-0.dtd"
   xmlns:inkscape="http://www.inkscape.org/namespaces/inkscape"
   width="1000"
   height="1000"
   id="svg3173"
   version="1.1"
   inkscape:version="0.47 r22583"
   sodipodi:docname="5468.svg"
   inkscape:export-filename="E:\chinese\yan\5468.png"
   inkscape:export-xdpi="18.005705"
   inkscape:export-ydpi="18.005705">
  <title
     id="title3712">Ti</title>
  <defs
     id="defs3175">
    <inkscape:perspective
       sodipodi:type="inkscape:persp3d"
       inkscape:vp_x="0 : 526.18109 : 1"
       inkscape:vp_y="0 : 1000 : 0"
       inkscape:vp_z="744.09448 : 526.18109 : 1"
       inkscape:persp3d-origin="372.04724 : 350.78739 : 1"
       id="perspective3181" />
    <inkscape:perspective
       id="perspective3191"
       inkscape:persp3d-origin="0.5 : 0.33333333 : 1"
       inkscape:vp_z="1 : 0.5 : 1"
       inkscape:vp_y="0 : 1000 : 0"
       inkscape:vp_x="0 : 0.5 : 1"
       sodipodi:type="inkscape:persp3d" />
    <inkscape:perspective
       id="perspective4006"
       inkscape:persp3d-origin="0.5 : 0.33333333 : 1"
       inkscape:vp_z="1 : 0.5 : 1"
       inkscape:vp_y="0 : 1000 : 0"
       inkscape:vp_x="0 : 0.5 : 1"
       sodipodi:type="inkscape:persp3d" />
    <inkscape:perspective
       id="perspective4034"
       inkscape:persp3d-origin="0.5 : 0.33333333 : 1"
       inkscape:vp_z="1 : 0.5 : 1"
       inkscape:vp_y="0 : 1000 : 0"
       inkscape:vp_x="0 : 0.5 : 1"
       sodipodi:type="inkscape:persp3d" />
    <inkscape:perspective
       id="perspective4081"
       inkscape:persp3d-origin="0.5 : 0.33333333 : 1"
       inkscape:vp_z="1 : 0.5 : 1"
       inkscape:vp_y="0 : 1000 : 0"
       inkscape:vp_x="0 : 0.5 : 1"
       sodipodi:type="inkscape:persp3d" />
    <inkscape:perspective
       id="perspective4147"
       inkscape:persp3d-origin="0.5 : 0.33333333 : 1"
       inkscape:vp_z="1 : 0.5 : 1"
       inkscape:vp_y="0 : 1000 : 0"
       inkscape:vp_x="0 : 0.5 : 1"
       sodipodi:type="inkscape:persp3d" />
    <inkscape:perspective
       id="perspective3737"
       inkscape:persp3d-origin="0.5 : 0.33333333 : 1"
       inkscape:vp_z="1 : 0.5 : 1"
       inkscape:vp_y="0 : 1000 : 0"
       inkscape:vp_x="0 : 0.5 : 1"
       sodipodi:type="inkscape:persp3d" />
    <inkscape:perspective
       id="perspective3836"
       inkscape:persp3d-origin="0.5 : 0.33333333 : 1"
       inkscape:vp_z="1 : 0.5 : 1"
       inkscape:vp_y="0 : 1000 : 0"
       inkscape:vp_x="0 : 0.5 : 1"
       sodipodi:type="inkscape:persp3d" />
    <inkscape:perspective
       id="perspective3775"
       inkscape:persp3d-origin="0.5 : 0.33333333 : 1"
       inkscape:vp_z="1 : 0.5 : 1"
       inkscape:vp_y="0 : 1000 : 0"
       inkscape:vp_x="0 : 0.5 : 1"
       sodipodi:type="inkscape:persp3d" />
  </defs>
  <sodipodi:namedview
     id="base"
     pagecolor="#ffffff"
     bordercolor="#666666"
     borderopacity="1.0"
     inkscape:pageopacity="0.0"
     inkscape:pageshadow="2"
     inkscape:zoom="0.49497475"
     inkscape:cx="509.92372"
     inkscape:cy="482.85714"
     inkscape:document-units="px"
     inkscape:current-layer="g4264"
     showgrid="false"
     inkscape:window-width="1440"
     inkscape:window-height="840"
     inkscape:window-x="-4"
     inkscape:window-y="-4"
     inkscape:window-maximized="1" />
  <metadata
     id="metadata3178">
    <rdf:RDF>
      <cc:Work
         rdf:about="">
        <dc:format>image/svg+xml</dc:format>
        <dc:type
           rdf:resource="http://purl.org/dc/dcmitype/StillImage" />
        <dc:title>Ti</dc:title>
        <dc:date>2010-08-09</dc:date>
        <dc:creator>
          <cc:Agent>
            <dc:title>Alex Amies</dc:title>
          </cc:Agent>
        </dc:creator>
        <dc:rights>
          <cc:Agent>
            <dc:title>@ Alex Amies 2010</dc:title>
          </cc:Agent>
        </dc:rights>
        <dc:publisher>
          <cc:Agent>
            <dc:title>chinesenotes.com</dc:title>
          </cc:Agent>
        </dc:publisher>
        <dc:source>Yan Qin Ceremonial Inscription</dc:source>
        <dc:language>Chinese 中文</dc:language>
        <dc:description>Tracing from Tang Dynasty Ceremonial Inscription by Yan Zhenqing 颜真卿 (709－785)</dc:description>
        <cc:license
           rdf:resource="http://creativecommons.org/licenses/by/3.0/" />
      </cc:Work>
      <cc:License
         rdf:about="http://creativecommons.org/licenses/by/3.0/">
        <cc:permits
           rdf:resource="http://creativecommons.org/ns#Reproduction" />
        <cc:permits
           rdf:resource="http://creativecommons.org/ns#Distribution" />
        <cc:requires
           rdf:resource="http://creativecommons.org/ns#Notice" />
        <cc:requires
           rdf:resource="http://creativecommons.org/ns#Attribution" />
        <cc:permits
           rdf:resource="http://creativecommons.org/ns#DerivativeWorks" />
      </cc:License>
    </rdf:RDF>
  </metadata>
  <g
     inkscape:label="Layer 1"
     inkscape:groupmode="layer"
     id="layer1"
     transform="translate(0,-52.362183)">
    <g
       transform="matrix(4.7609464,0,0,4.7609464,-696.12274,-2965.6673)"
       id="g4264"
       style="fill:none;fill-opacity:1">
      <g
         transform="matrix(0.99798993,0,0,0.99798993,48.898247,-3.141422)"
         id="g4799"
         style="fill:none;fill-opacity:1">
        <g
           id="g4267"
           transform="translate(-22.53582,1.2756125)">
          <path
             sodipodi:nodetypes="ccccccccc"
             style="fill:#000000;fill-opacity:1;stroke:#000000;stroke-width:1px;stroke-linecap:butt;stroke-linejoin:miter;stroke-opacity:1"
             d="m 173.57143,695.57647 c -6.10155,-0.63274 -6.97185,5.57886 -5.40547,10.1804 1.19092,7.08921 4.1263,14.04705 3.03997,21.35307 0.35139,28.07908 -2.04529,55.6831 -9.97834,82.68811 -1.17055,5.12078 -4.04878,10.26581 -2.4391,15.58407 3.63906,4.52216 5.43421,-3.04142 7.56868,-5.35408 11.18434,-18.04354 17.56379,-38.92757 17.93897,-60.1965 0.52321,-19.71296 -0.7328,-39.56843 0.70386,-59.25507 -3.63634,-2.11872 -7.23533,-4.21921 -11.42857,-5 z"
             id="path4759" />
          <path
             sodipodi:nodetypes="cccccccccccccccccc"
             style="fill:#000000;fill-opacity:1;stroke:#000000;stroke-width:1px;stroke-linecap:butt;stroke-linejoin:miter;stroke-opacity:1"
             d="m 183.92857,673.67111 c -0.01,2.56573 0.96679,5.74425 3.8914,6.10477 13.84483,-2.86847 27.31902,-9.35269 41.37651,-12.54395 9.6726,-2.21849 19.34521,-4.43697 29.01781,-6.65546 7.21688,4.55161 5.58239,16.97121 6.32169,24.43175 -1.91259,35.44846 14.3328,84.48289 8.1682,118.57821 -0.4075,3.13168 -3.12207,4.05086 -5.68238,5.11797 -2.30774,1.4039 -5.79742,-1.40416 -7.37894,1.51493 4.09132,6.80832 8.23126,13.59204 10.97412,21.08246 1.42133,4.81214 7.80135,8.85921 12.42834,5.80283 4.86002,-4.88346 8.43335,-12.53094 7.92566,-19.51931 -0.54754,-15.8899 -0.16432,-31.82094 -0.82858,-47.69265 -2.65464,-22.53608 -5.7148,-45.03673 -8.11572,-67.59498 -1.05323,-15.97586 -0.98197,-32.13004 -3.76092,-47.90799 -2.00946,-8.06562 -8.28289,-8.50625 -15.8167,-7.92886 -4.84925,2.19804 -9.77493,4.1471 -15.09447,4.81328 -20.59668,3.16155 -40.38928,9.17931 -60.21173,15.37383 -2.29933,-0.15548 -3.18496,4.35299 -3.21429,7.02317 z"
             id="path4761" />
          <path
             id="path4763"
             transform="matrix(0.21046532,0,0,0.21046532,97.512963,638.3383)"
             d="m 605.375,168.125 c -4.6696,-0.006 -9.50439,0.43171 -13.78125,0.6875 -9.92624,1.63941 -19.9366,1.32393 -28.28125,6.4375 -1.68543,20.17299 -2.51135,40.64194 -2.78125,61.25 -21.71019,6.25747 -43.27889,13.00897 -64.6875,19.03125 -10.00673,1.91186 -15.6799,8.36629 -17.375,18.125 7.36687,13.29426 23.77055,19.93367 38.59375,20.75 14.72117,1.30756 29.39211,0.76432 44,-0.9375 0.55349,19.29695 1.40411,38.55329 2.375,57.59375 1.78966,4.88742 4.08295,9.99395 6.65625,14.875 -26.53847,9.09886 -51.93663,20.65171 -74.65625,36.6875 -4.01634,3.61143 -5.89288,13.23882 -3.40625,16.96875 3.16979,4.7547 13.58932,9.25624 20.375,8.46875 11.97817,-1.39006 23.11113,-13.22696 35.78125,-15.46875 43.23368,-12.44946 88.51635,-5.49419 132.21875,-9.96875 18.63504,-3.60696 29.44226,-17.72649 32.0625,-35.90625 2.62571,-16.53246 -4.80962,-26.91747 -20.1875,-31.96875 -20.36336,4.79846 -41.38313,9.24776 -62.375,14.28125 1.25659,-23.59866 5.1501,-47.95198 8,-72.21875 6.69931,-1.82961 13.36204,-3.65242 20,-5.4375 20.13443,-3.98118 28.64683,-14.16059 32.6875,-33.34375 C 691.56716,222.74104 674.31038,217.09524 661.5,216 c -6.93374,0.51386 -13.84738,1.2586 -20.75,2.21875 -0.23254,-4.16875 -0.55525,-8.32123 -1.0625,-12.4375 -2.81685,-12.07638 -9.59213,-27.06592 -18.6875,-33.9375 -3.89547,-2.94301 -9.62122,-3.71075 -15.625,-3.71875 z"
             style="fill:#000000;fill-opacity:1;stroke:#000000;stroke-width:4.75137663px;stroke-linecap:butt;stroke-linejoin:miter;stroke-opacity:1" />
          <path
             id="path4769"
             transform="matrix(0.21046532,0,0,0.21046532,97.512963,638.3383)"
             d="m 713.25,480.96875 c -14.58587,-0.0102 -29.16743,1.51722 -43.59375,4.65625 -42.95563,9.34672 -87.69327,13.85025 -130.09375,22.21875 -3.31089,1.39912 -6.34021,3.40421 -8.90625,5.8125 -14.09463,-7.2403 -31.2452,-6.0901 -47.09375,-2.4375 -4.28299,1.28377 -9.09392,7.22535 -8.5,11.875 4.2473,33.24937 12.10437,68.48972 18.0625,102.75 3.70584,21.0152 3.77537,47.07731 19.28125,63.5625 9.60929,3.11876 20.17305,1.04944 29.21875,-3.625 4.02314,8.4781 11.75723,15.60819 20.375,17.65625 23.46258,6.06575 48.5407,3.08115 72,-1.75 5.96404,-1.93639 11.1985,-5.21648 16.25,-8.84375 -0.25017,6.42727 -1.41899,15.0249 3,18.625 12.17906,9.92206 33.88679,4.19442 45.375,-8.96875 28.23387,-44.95814 44.80223,-98.75926 59.1875,-149.78125 6.41365,-22.87731 13.94993,-55.24901 -10.625,-68.96875 -11.24853,-1.83479 -22.59294,-2.77333 -33.9375,-2.78125 z m -43.25,46.125 c 1.94291,-0.11586 3.7345,0.16256 5.3125,1.09375 14.01789,8.272 1.63084,29.45082 -2.28125,43.96875 -6.00956,27.05872 -12.46731,54.48632 -17.3125,82.03125 -6.21097,-3.14779 -13.89658,-4.13797 -21.09375,-2.21875 -25.35815,-1.31131 -50.44206,2.6345 -75.5625,5.4375 0.68789,-4.24958 0.99075,-8.58497 0.84375,-12.84375 -1.46032,-31.03309 0.38847,-63.89985 -7.3125,-94.09375 31.54394,-4.79025 66.04498,-9.84905 98.46875,-17.59375 6.00156,-1.4335 13.10877,-5.43367 18.9375,-5.78125 z"
             style="fill:#000000;fill-opacity:1;stroke:#000000;stroke-width:4.75137663px;stroke-linecap:butt;stroke-linejoin:miter;stroke-opacity:1" />
        </g>
      </g>
    </g>
  </g>
</svg>
