<?xml version="1.0" encoding="UTF-8" standalone="no"?>
<!-- Created with Inkscape (http://www.inkscape.org/) -->

<svg
   xmlns:dc="http://purl.org/dc/elements/1.1/"
   xmlns:cc="http://creativecommons.org/ns#"
   xmlns:rdf="http://www.w3.org/1999/02/22-rdf-syntax-ns#"
   xmlns:svg="http://www.w3.org/2000/svg"
   xmlns="http://www.w3.org/2000/svg"
   xmlns:sodipodi="http://sodipodi.sourceforge.net/DTD/sodipodi-0.dtd"
   xmlns:inkscape="http://www.inkscape.org/namespaces/inkscape"
   width="1000"
   height="1000"
   id="svg3173"
   version="1.1"
   inkscape:version="0.47 r22583"
   sodipodi:docname="547d.svg"
   inkscape:export-filename="E:\chinese\yan\547d.png"
   inkscape:export-xdpi="18.005705"
   inkscape:export-ydpi="18.005705">
  <title
     id="title4452">Ming</title>
  <defs
     id="defs3175">
    <inkscape:perspective
       sodipodi:type="inkscape:persp3d"
       inkscape:vp_x="0 : 526.18109 : 1"
       inkscape:vp_y="0 : 1000 : 0"
       inkscape:vp_z="744.09448 : 526.18109 : 1"
       inkscape:persp3d-origin="372.04724 : 350.78739 : 1"
       id="perspective3181" />
    <inkscape:perspective
       id="perspective3191"
       inkscape:persp3d-origin="0.5 : 0.33333333 : 1"
       inkscape:vp_z="1 : 0.5 : 1"
       inkscape:vp_y="0 : 1000 : 0"
       inkscape:vp_x="0 : 0.5 : 1"
       sodipodi:type="inkscape:persp3d" />
    <inkscape:perspective
       id="perspective4006"
       inkscape:persp3d-origin="0.5 : 0.33333333 : 1"
       inkscape:vp_z="1 : 0.5 : 1"
       inkscape:vp_y="0 : 1000 : 0"
       inkscape:vp_x="0 : 0.5 : 1"
       sodipodi:type="inkscape:persp3d" />
    <inkscape:perspective
       id="perspective4034"
       inkscape:persp3d-origin="0.5 : 0.33333333 : 1"
       inkscape:vp_z="1 : 0.5 : 1"
       inkscape:vp_y="0 : 1000 : 0"
       inkscape:vp_x="0 : 0.5 : 1"
       sodipodi:type="inkscape:persp3d" />
    <inkscape:perspective
       id="perspective4081"
       inkscape:persp3d-origin="0.5 : 0.33333333 : 1"
       inkscape:vp_z="1 : 0.5 : 1"
       inkscape:vp_y="0 : 1000 : 0"
       inkscape:vp_x="0 : 0.5 : 1"
       sodipodi:type="inkscape:persp3d" />
    <inkscape:perspective
       id="perspective4147"
       inkscape:persp3d-origin="0.5 : 0.33333333 : 1"
       inkscape:vp_z="1 : 0.5 : 1"
       inkscape:vp_y="0 : 1000 : 0"
       inkscape:vp_x="0 : 0.5 : 1"
       sodipodi:type="inkscape:persp3d" />
    <inkscape:perspective
       id="perspective3801"
       inkscape:persp3d-origin="0.5 : 0.33333333 : 1"
       inkscape:vp_z="1 : 0.5 : 1"
       inkscape:vp_y="0 : 1000 : 0"
       inkscape:vp_x="0 : 0.5 : 1"
       sodipodi:type="inkscape:persp3d" />
    <inkscape:perspective
       id="perspective3122"
       inkscape:persp3d-origin="0.5 : 0.33333333 : 1"
       inkscape:vp_z="1 : 0.5 : 1"
       inkscape:vp_y="0 : 1000 : 0"
       inkscape:vp_x="0 : 0.5 : 1"
       sodipodi:type="inkscape:persp3d" />
    <inkscape:perspective
       id="perspective3854"
       inkscape:persp3d-origin="0.5 : 0.33333333 : 1"
       inkscape:vp_z="1 : 0.5 : 1"
       inkscape:vp_y="0 : 1000 : 0"
       inkscape:vp_x="0 : 0.5 : 1"
       sodipodi:type="inkscape:persp3d" />
    <inkscape:perspective
       id="perspective3922"
       inkscape:persp3d-origin="0.5 : 0.33333333 : 1"
       inkscape:vp_z="1 : 0.5 : 1"
       inkscape:vp_y="0 : 1000 : 0"
       inkscape:vp_x="0 : 0.5 : 1"
       sodipodi:type="inkscape:persp3d" />
    <inkscape:perspective
       id="perspective3945"
       inkscape:persp3d-origin="0.5 : 0.33333333 : 1"
       inkscape:vp_z="1 : 0.5 : 1"
       inkscape:vp_y="0 : 1000 : 0"
       inkscape:vp_x="0 : 0.5 : 1"
       sodipodi:type="inkscape:persp3d" />
    <inkscape:perspective
       id="perspective3972"
       inkscape:persp3d-origin="0.5 : 0.33333333 : 1"
       inkscape:vp_z="1 : 0.5 : 1"
       inkscape:vp_y="0 : 1000 : 0"
       inkscape:vp_x="0 : 0.5 : 1"
       sodipodi:type="inkscape:persp3d" />
    <inkscape:perspective
       id="perspective3995"
       inkscape:persp3d-origin="0.5 : 0.33333333 : 1"
       inkscape:vp_z="1 : 0.5 : 1"
       inkscape:vp_y="0 : 1000 : 0"
       inkscape:vp_x="0 : 0.5 : 1"
       sodipodi:type="inkscape:persp3d" />
    <inkscape:perspective
       id="perspective3802"
       inkscape:persp3d-origin="0.5 : 0.33333333 : 1"
       inkscape:vp_z="1 : 0.5 : 1"
       inkscape:vp_y="0 : 1000 : 0"
       inkscape:vp_x="0 : 0.5 : 1"
       sodipodi:type="inkscape:persp3d" />
    <inkscape:perspective
       id="perspective3833"
       inkscape:persp3d-origin="0.5 : 0.33333333 : 1"
       inkscape:vp_z="1 : 0.5 : 1"
       inkscape:vp_y="0 : 1000 : 0"
       inkscape:vp_x="0 : 0.5 : 1"
       sodipodi:type="inkscape:persp3d" />
  </defs>
  <sodipodi:namedview
     id="base"
     pagecolor="#ffffff"
     bordercolor="#666666"
     borderopacity="1.0"
     inkscape:pageopacity="0.0"
     inkscape:pageshadow="2"
     inkscape:zoom="0.49497475"
     inkscape:cx="400.23851"
     inkscape:cy="520.83683"
     inkscape:document-units="px"
     inkscape:current-layer="g4634"
     showgrid="false"
     inkscape:window-width="1440"
     inkscape:window-height="840"
     inkscape:window-x="-4"
     inkscape:window-y="-4"
     inkscape:window-maximized="1" />
  <metadata
     id="metadata3178">
    <rdf:RDF>
      <cc:Work
         rdf:about="">
        <dc:format>image/svg+xml</dc:format>
        <dc:type
           rdf:resource="http://purl.org/dc/dcmitype/StillImage" />
        <dc:title>Ming</dc:title>
        <dc:date>2010-08-21</dc:date>
        <dc:creator>
          <cc:Agent>
            <dc:title>Alex Amies</dc:title>
          </cc:Agent>
        </dc:creator>
        <dc:rights>
          <cc:Agent>
            <dc:title>@ Alex Amies 2010</dc:title>
          </cc:Agent>
        </dc:rights>
        <dc:publisher>
          <cc:Agent>
            <dc:title>chinesenotes.com</dc:title>
          </cc:Agent>
        </dc:publisher>
        <dc:source>Yan Qin Ceremonial Inscription</dc:source>
        <dc:language>Chinese 中文</dc:language>
        <dc:description>Tracing from Tang Dynasty Ceremonial Inscription by Yan Zhenqing 颜真卿 (709－785)</dc:description>
        <cc:license
           rdf:resource="http://creativecommons.org/licenses/by/3.0/" />
      </cc:Work>
      <cc:License
         rdf:about="http://creativecommons.org/licenses/by/3.0/">
        <cc:permits
           rdf:resource="http://creativecommons.org/ns#Reproduction" />
        <cc:permits
           rdf:resource="http://creativecommons.org/ns#Distribution" />
        <cc:requires
           rdf:resource="http://creativecommons.org/ns#Notice" />
        <cc:requires
           rdf:resource="http://creativecommons.org/ns#Attribution" />
        <cc:permits
           rdf:resource="http://creativecommons.org/ns#DerivativeWorks" />
      </cc:License>
    </rdf:RDF>
  </metadata>
  <g
     inkscape:label="Layer 1"
     inkscape:groupmode="layer"
     id="layer1"
     transform="translate(0,-52.362183)">
    <g
       transform="matrix(4.7609464,0,0,4.7609464,-444.07486,-2879.5352)"
       id="g4634"
       style="fill:#000000;fill-opacity:1">
      <path
         style="fill:#000000;stroke:#000000;stroke-width:4.74180651000000000px;stroke-linecap:butt;stroke-linejoin:miter;stroke-opacity:1;fill-opacity:1"
         d="M 464.78125 8.46875 C 459.01617 8.4789522 453.11071 9.6995776 447.3125 12.40625 C 409.20798 23.458787 395.61362 35.81457 389.65625 78.625 C 328.54279 204.84588 244.85713 318.09839 159.46875 428.78125 C 133.78854 460.37251 107.15448 491.85268 77.625 519.53125 C 62.961856 549.07864 99.021193 518.47904 107.84375 512.1875 C 224.58811 434.67615 314.47879 324.72268 411.625 224.90625 C 434.14821 191.98336 458.97547 160.39735 481.53125 127.4375 C 485.09758 134.70598 490.35968 141.37013 495.59375 145.3125 C 521.24706 191.71859 538.11333 242.51837 566.09375 287.71875 C 597.49914 344.38311 643.4795 391.18118 691.625 433.8125 C 697.34236 436.21856 703.14897 438.47111 709.03125 440.59375 C 663.41203 447.42378 618.30735 457.43246 572.84375 465.125 C 571.72622 465.35058 570.70396 465.67195 569.71875 466.0625 C 567.81878 462.95624 565.46866 460.07493 562.625 457.53125 C 551.60166 447.26185 534.59474 437.92565 518.71875 437.9375 C 510.40275 437.9437 502.42096 440.52307 495.75 446.875 L 493.25 448.6875 L 490.6875 450.3125 C 464.13565 458.78408 492.39304 489.17888 487.78125 508 C 499.69004 607.60519 507.58239 707.60134 515.71875 807.5625 C 520.83029 867.38079 528.21449 927.09029 529.65625 987.15625 C 542.0878 969.47748 562.57451 955.36174 563.5625 931.78125 C 570.95492 897.97125 577.7403 863.77281 577.03125 829 C 593.42614 733.29741 560.46522 620.19224 567.90625 527.40625 C 570.17242 522.86553 572.08407 517.83418 573.53125 512.5625 L 577.0625 518.0625 C 601.31038 516.57442 613.07757 488.55515 637.15625 486.5625 C 654.44629 485.64449 672.05379 478.77328 688.34375 478.34375 C 715.70753 511.19833 692.95911 559.97076 685.25 596.21875 C 680.97567 614.36867 670.51024 632.72848 652.1875 639.53125 C 641.49022 646.47885 618.55618 641.42739 615.0625 654.25 C 619.96351 666.86189 619.21246 679.5696 625.75 691.1875 C 628.56353 707.49588 645.25114 714.86485 656.6875 724.59375 C 691.578 731.27193 721.59024 695.06849 738.46875 668.625 C 757.7213 619.32035 766.13944 566.26003 780.46875 515.1875 C 785.91403 493.89474 770.5545 475.66844 764.75 456.28125 C 764.5685 455.90878 764.35081 455.54707 764.15625 455.1875 C 796.728 460.54949 830.06449 460.03331 861.9375 450.75 C 888.31662 442.32046 914.54254 426.56059 927.0625 400.875 C 918.12225 377.15806 887.1947 380.6334 867.75 370.84375 C 749.51028 329.8629 641.96828 255.77484 576.71875 147.78125 C 560.8688 120.64698 532.91909 102.28658 502.65625 94.8125 C 506.57871 88.30214 510.35317 81.728091 513.96875 75.03125 C 523.45577 43.971833 495.91267 8.4136584 464.78125 8.46875 z "
         transform="matrix(0.21004227,0,0,0.21004227,93.274493,615.82239)"
         id="path3847" />
      <path
         sodipodi:nodetypes="ccccsscc"
         id="path3851"
         d="m 161.12529,686.57674 c -1.7899,1.0189 -3.35617,3.52755 -3.55706,5.33561 0.76763,4.963 5.64773,6.03336 10.02342,5.29225 10.06223,-3.10321 20.10794,-6.5513 29.46352,-11.43003 1.97523,-1.0927 3.405,-3.08246 5.59396,-3.73197 1.67409,-0.49673 1.59444,-2.16047 -0.1093,-2.41262 -1.85348,-0.27431 -3.68118,-0.6485 -5.52935,-0.96635 -12.19365,0.0157 -24.84844,2.62252 -35.88519,7.91311 z"
         style="fill:#000000;stroke:#000000;stroke-width:0.99597985000000000px;stroke-linecap:butt;stroke-linejoin:miter;stroke-opacity:1;fill-opacity:1" />
      <path
         style="fill:#000000;stroke:#000000;stroke-width:4.74180651000000000px;stroke-linecap:butt;stroke-linejoin:miter;stroke-opacity:1;fill-opacity:1"
         d="M 362.5 427.59375 C 355.09152 427.69155 348.60781 429.94875 344.125 435.21875 C 343.86743 446.40526 343.27342 459.9311 328.6875 458.4375 C 315.38575 460.67291 301.52871 464.75265 292.5 475.4375 C 270.90749 493.87503 244.55935 506.094 223.9375 525.65625 C 223.3668 526.09139 222.85256 526.54122 222.34375 527 C 205.95536 512.73405 187.83146 511.34889 167.21875 518.0625 C 154.52312 531.10397 159.93212 553.06053 171.875 564.71875 C 198.44794 597.76867 199.85902 651.84352 197.6875 692.59375 C 196.62338 706.72805 195.2914 720.90675 196.03125 735.09375 C 202.74771 750.18595 218.21304 759.65988 234.25 761.71875 C 245.02512 763.48982 256.88426 762.84731 266.8125 758.40625 C 274.46763 750.68776 274.50694 738.8172 277.1875 728.8125 C 278.59221 722.5133 279.6961 716.27015 280.5 710.0625 C 281.80407 710.56999 283.07846 711.10133 284.28125 711.78125 C 297.17361 709.76394 306.0689 698.40159 318.78125 695.875 C 334.29836 689.7807 350.48891 685.66281 366.125 679.90625 C 371.41355 675.91201 374.74729 670.01143 377.53125 664.125 C 377.43227 663.24809 377.29474 662.38138 377.125 661.53125 C 380.20322 659.6057 382.92014 657.05718 385.0625 653.6875 C 419.67353 596.00863 428.20383 531.61597 428.03125 465.5625 C 420.86072 449.95619 386.70104 427.27428 362.5 427.59375 z M 319.8125 532.4375 C 328.26741 532.49787 335.96851 536.27379 335.65625 546.65625 C 339.76904 570.9654 330.71941 595.13316 333.25 619.53125 C 333.0291 621.24508 332.86966 622.91466 332.75 624.5625 C 326.30888 625.11091 320.10122 627.6697 315.5 632.46875 C 304.28278 641.41993 291.55757 648.46645 280.5 657.59375 C 276.28937 624.48925 264.34579 592.89465 247.3125 562.9375 C 248.74862 562.75995 250.16765 562.58819 251.53125 562.375 C 272.47427 561.46928 289.24194 547.43663 305.34375 535.71875 C 309.39524 533.69826 314.73955 532.40128 319.8125 532.4375 z "
         transform="matrix(0.21004227,0,0,0.21004227,93.274493,615.82239)"
         id="path3853" />
    </g>
  </g>
</svg>
