<?xml version="1.0" encoding="UTF-8" standalone="no"?>
<!-- Created with Inkscape (http://www.inkscape.org/) -->

<svg
   xmlns:dc="http://purl.org/dc/elements/1.1/"
   xmlns:cc="http://creativecommons.org/ns#"
   xmlns:rdf="http://www.w3.org/1999/02/22-rdf-syntax-ns#"
   xmlns:svg="http://www.w3.org/2000/svg"
   xmlns="http://www.w3.org/2000/svg"
   xmlns:sodipodi="http://sodipodi.sourceforge.net/DTD/sodipodi-0.dtd"
   xmlns:inkscape="http://www.inkscape.org/namespaces/inkscape"
   width="1000"
   height="1000"
   id="svg3173"
   version="1.1"
   inkscape:version="0.47 r22583"
   sodipodi:docname="548c.svg"
   inkscape:export-filename="E:\chinese\yan\548c.png"
   inkscape:export-xdpi="18.005705"
   inkscape:export-ydpi="18.005705">
  <title
     id="title2834">He</title>
  <defs
     id="defs3175">
    <inkscape:perspective
       sodipodi:type="inkscape:persp3d"
       inkscape:vp_x="0 : 526.18109 : 1"
       inkscape:vp_y="0 : 1000 : 0"
       inkscape:vp_z="744.09448 : 526.18109 : 1"
       inkscape:persp3d-origin="372.04724 : 350.78739 : 1"
       id="perspective3181" />
    <inkscape:perspective
       id="perspective3191"
       inkscape:persp3d-origin="0.5 : 0.33333333 : 1"
       inkscape:vp_z="1 : 0.5 : 1"
       inkscape:vp_y="0 : 1000 : 0"
       inkscape:vp_x="0 : 0.5 : 1"
       sodipodi:type="inkscape:persp3d" />
    <inkscape:perspective
       id="perspective4006"
       inkscape:persp3d-origin="0.5 : 0.33333333 : 1"
       inkscape:vp_z="1 : 0.5 : 1"
       inkscape:vp_y="0 : 1000 : 0"
       inkscape:vp_x="0 : 0.5 : 1"
       sodipodi:type="inkscape:persp3d" />
    <inkscape:perspective
       id="perspective4034"
       inkscape:persp3d-origin="0.5 : 0.33333333 : 1"
       inkscape:vp_z="1 : 0.5 : 1"
       inkscape:vp_y="0 : 1000 : 0"
       inkscape:vp_x="0 : 0.5 : 1"
       sodipodi:type="inkscape:persp3d" />
    <inkscape:perspective
       id="perspective4081"
       inkscape:persp3d-origin="0.5 : 0.33333333 : 1"
       inkscape:vp_z="1 : 0.5 : 1"
       inkscape:vp_y="0 : 1000 : 0"
       inkscape:vp_x="0 : 0.5 : 1"
       sodipodi:type="inkscape:persp3d" />
    <inkscape:perspective
       id="perspective4147"
       inkscape:persp3d-origin="0.5 : 0.33333333 : 1"
       inkscape:vp_z="1 : 0.5 : 1"
       inkscape:vp_y="0 : 1000 : 0"
       inkscape:vp_x="0 : 0.5 : 1"
       sodipodi:type="inkscape:persp3d" />
    <inkscape:perspective
       id="perspective3765"
       inkscape:persp3d-origin="0.5 : 0.33333333 : 1"
       inkscape:vp_z="1 : 0.5 : 1"
       inkscape:vp_y="0 : 1000 : 0"
       inkscape:vp_x="0 : 0.5 : 1"
       sodipodi:type="inkscape:persp3d" />
    <inkscape:perspective
       id="perspective3793"
       inkscape:persp3d-origin="0.5 : 0.33333333 : 1"
       inkscape:vp_z="1 : 0.5 : 1"
       inkscape:vp_y="0 : 1000 : 0"
       inkscape:vp_x="0 : 0.5 : 1"
       sodipodi:type="inkscape:persp3d" />
    <inkscape:perspective
       id="perspective3780"
       inkscape:persp3d-origin="0.5 : 0.33333333 : 1"
       inkscape:vp_z="1 : 0.5 : 1"
       inkscape:vp_y="0 : 1000 : 0"
       inkscape:vp_x="0 : 0.5 : 1"
       sodipodi:type="inkscape:persp3d" />
    <inkscape:perspective
       id="perspective2993"
       inkscape:persp3d-origin="0.5 : 0.33333333 : 1"
       inkscape:vp_z="1 : 0.5 : 1"
       inkscape:vp_y="0 : 1000 : 0"
       inkscape:vp_x="0 : 0.5 : 1"
       sodipodi:type="inkscape:persp3d" />
    <inkscape:perspective
       id="perspective3767"
       inkscape:persp3d-origin="0.5 : 0.33333333 : 1"
       inkscape:vp_z="1 : 0.5 : 1"
       inkscape:vp_y="0 : 1000 : 0"
       inkscape:vp_x="0 : 0.5 : 1"
       sodipodi:type="inkscape:persp3d" />
    <inkscape:perspective
       id="perspective3787"
       inkscape:persp3d-origin="0.5 : 0.33333333 : 1"
       inkscape:vp_z="1 : 0.5 : 1"
       inkscape:vp_y="0 : 1000 : 0"
       inkscape:vp_x="0 : 0.5 : 1"
       sodipodi:type="inkscape:persp3d" />
  </defs>
  <sodipodi:namedview
     id="base"
     pagecolor="#ffffff"
     bordercolor="#666666"
     borderopacity="1.0"
     inkscape:pageopacity="0.0"
     inkscape:pageshadow="2"
     inkscape:zoom="0.49497475"
     inkscape:cx="243.16444"
     inkscape:cy="541.38652"
     inkscape:document-units="px"
     inkscape:current-layer="layer1"
     showgrid="false"
     inkscape:window-width="1440"
     inkscape:window-height="840"
     inkscape:window-x="-4"
     inkscape:window-y="-4"
     inkscape:window-maximized="1" />
  <metadata
     id="metadata3178">
    <rdf:RDF>
      <cc:Work
         rdf:about="">
        <dc:format>image/svg+xml</dc:format>
        <dc:type
           rdf:resource="http://purl.org/dc/dcmitype/StillImage" />
        <dc:title>He</dc:title>
        <dc:date>2010-07-19</dc:date>
        <dc:creator>
          <cc:Agent>
            <dc:title>Alex Amies</dc:title>
          </cc:Agent>
        </dc:creator>
        <dc:rights>
          <cc:Agent>
            <dc:title>@ Alex Amies 2010</dc:title>
          </cc:Agent>
        </dc:rights>
        <dc:publisher>
          <cc:Agent>
            <dc:title>chinesenotes.com</dc:title>
          </cc:Agent>
        </dc:publisher>
        <dc:source>Yan Qin Ceremonial Inscription</dc:source>
        <dc:language>Chinese 中文</dc:language>
        <dc:description>Tracing from Tang Dynasty Ceremonial Inscription by Yan Zhenqing 颜真卿 (709－785)</dc:description>
        <cc:license
           rdf:resource="http://creativecommons.org/licenses/by/3.0/" />
      </cc:Work>
      <cc:License
         rdf:about="http://creativecommons.org/licenses/by/3.0/">
        <cc:permits
           rdf:resource="http://creativecommons.org/ns#Reproduction" />
        <cc:permits
           rdf:resource="http://creativecommons.org/ns#Distribution" />
        <cc:requires
           rdf:resource="http://creativecommons.org/ns#Notice" />
        <cc:requires
           rdf:resource="http://creativecommons.org/ns#Attribution" />
        <cc:permits
           rdf:resource="http://creativecommons.org/ns#DerivativeWorks" />
      </cc:License>
    </rdf:RDF>
  </metadata>
  <g
     inkscape:label="Layer 1"
     inkscape:groupmode="layer"
     id="layer1"
     transform="translate(0,-52.362183)">
    <path
       style="fill:#000000;stroke:#000000;stroke-width:4.77051640000000000px;stroke-linecap:butt;stroke-linejoin:miter;stroke-opacity:1;fill-opacity:1"
       d="M 365.21875 111.71875 C 306.20861 154.34526 247.55398 199.73854 190.4375 245.9375 C 176.80923 250.13803 163.13525 283.42227 186.96875 274.34375 C 219.93144 248.92241 258.28844 233.50919 295.53125 215.625 C 289.81647 241.2791 301.78959 267.53927 303.3125 293.4375 C 306.18558 315.82333 306.53781 338.39155 306.96875 360.96875 C 255.81257 380.08982 204.83594 399.67611 154.96875 422.8125 C 140.62353 431.18796 127.40571 441.28899 113.4375 450.25 C 126.09835 476.0269 160.42083 468.9383 180.78125 457.53125 C 221.6485 437.75074 260.04115 412.12685 303.40625 398.125 C 288.37966 414.10858 275.29146 431.78233 265.3125 451.53125 C 222.82094 538.85806 171.99617 620.79436 116.875 700.5 C 113.62027 708.84855 108.7891 747.11673 125.28125 736.4375 C 140.29421 722.6582 155.47797 708.93559 169.90625 694.59375 C 225.36007 625.41409 270.36983 549.52623 311.78125 471.5625 C 316.88011 578.68028 324.78428 686.87951 317.03125 793.59375 C 301.7054 812.8466 271.72089 799.39202 253.96875 795.9375 C 268.08432 812.51872 275.47221 834.20593 292.9375 847.8125 C 312.08492 859.46878 306.71678 918.8684 339.03125 892.375 C 374.64182 868.96508 394.88073 825.31503 392.9375 782.75 C 394.67454 721.32149 386.61927 660.27191 380.84375 599.25 C 376.10305 576.37759 373.3522 553.37051 371.71875 530.28125 C 389.74244 553.72874 421.01237 571.71103 442.21875 588.0625 C 453.18449 589.75565 463.82835 581.77642 468.25 572.125 C 470.8422 553.13611 474.3986 524.29813 465.1875 506.09375 C 442.07441 476.59009 400.237 470.98251 369.84375 489.34375 C 368.90768 451.44036 369.71093 413.42293 368.6875 375.5 C 393.51951 366.47713 418.72598 358.84518 445.25 358.75 C 465.15536 361.98253 513.22208 382.45365 499.6875 343.375 C 489.94816 316.63429 464.82547 303.27472 437.46875 311.21875 C 414.08632 320.69314 390.53665 329.70179 366.96875 338.5625 C 366.86837 337.10421 366.7658 335.64522 366.65625 334.1875 C 361.86332 309.04695 375.44394 284.19934 371.5625 259.9375 C 354.1252 239.40415 330.86478 221.00769 305.28125 210.84375 C 307.9418 209.51961 310.60911 208.17827 313.25 206.8125 C 334.37232 199.00361 357.02843 195.85551 379.40625 194.125 C 401.59392 197.69389 428.44728 195.74725 428.4375 167.15625 C 419.1047 132.04643 398.99077 114.65545 365.21875 111.71875 z "
       transform="translate(0,52.362183)"
       id="path4752" />
    <path
       style="fill:#000000;stroke:#000000;stroke-width:4.77051640000000000px;stroke-linecap:butt;stroke-linejoin:miter;stroke-opacity:1;fill-opacity:1"
       d="M 858.71875 296.34375 C 847.81679 296.36016 838.0501 303.03642 846.03125 315.96875 C 853.19829 334.73551 831.52925 339.31039 818.71875 343.96875 C 781.1848 346.36977 746.11264 358.75018 709.78125 368.3125 L 694.125 377.96875 C 689.36059 396.59886 710.7017 404.29434 723.375 411.34375 C 754.93283 407.73286 782.88217 393.3518 815.03125 391.65625 C 838.26648 386.93478 830.02432 415.95259 821.8125 427.09375 C 812.24327 451.46841 810.3594 478.21725 800.71875 502.65625 C 796.68324 515.72975 793.79702 529.75437 792.3125 544.09375 C 760.36182 536.33511 727.57982 533.49653 694.5 539.3125 C 674.53752 544.39352 654.19611 549.16506 636.0625 559 C 631.65516 542.61332 626.53866 526.38661 621.53125 510.28125 C 615.28049 480.34806 620.63977 457.84566 608.4375 433.71875 C 600.58743 399.14457 555.41032 400.28864 527.84375 396.03125 C 507.88414 417.11029 525.14704 442.47948 534.1875 465.5 C 547.22499 513.00906 565.43849 605.75166 595.9375 653.96875 C 614.59041 679.76384 653.99894 669.09273 648.15625 635.375 C 648.07523 628.67213 647.68976 622.00614 647.03125 615.375 C 695.98861 622.40731 747.02512 618.17654 797.5 613.65625 C 800.24705 623.36752 803.90843 632.70249 808.65625 641.40625 C 822.39071 654.4529 843.73415 651.60353 861.25 652.125 C 886.05292 618.51347 929.72595 489.01051 940.25 451.4375 C 945.94752 433.64959 960.82872 418.19369 953.59375 397.96875 C 935.53096 360.54105 897.56084 328.90698 872.75 300.5 C 868.87622 297.7174 863.67419 296.33629 858.71875 296.34375 z "
       transform="translate(0,52.362183)"
       id="path4762" />
  </g>
</svg>
