<?xml version="1.0" encoding="UTF-8" standalone="no"?>
<!-- Created with Inkscape (http://www.inkscape.org/) -->

<svg
   xmlns:dc="http://purl.org/dc/elements/1.1/"
   xmlns:cc="http://creativecommons.org/ns#"
   xmlns:rdf="http://www.w3.org/1999/02/22-rdf-syntax-ns#"
   xmlns:svg="http://www.w3.org/2000/svg"
   xmlns="http://www.w3.org/2000/svg"
   xmlns:sodipodi="http://sodipodi.sourceforge.net/DTD/sodipodi-0.dtd"
   xmlns:inkscape="http://www.inkscape.org/namespaces/inkscape"
   width="1000"
   height="1000"
   id="svg3173"
   version="1.1"
   inkscape:version="0.47 r22583"
   sodipodi:docname="54c1.svg"
   inkscape:export-filename="E:\chinese\yan\54c1.png"
   inkscape:export-xdpi="18.005705"
   inkscape:export-ydpi="18.005705">
  <title
     id="title4216">Pin</title>
  <defs
     id="defs3175">
    <inkscape:perspective
       sodipodi:type="inkscape:persp3d"
       inkscape:vp_x="0 : 526.18109 : 1"
       inkscape:vp_y="0 : 1000 : 0"
       inkscape:vp_z="744.09448 : 526.18109 : 1"
       inkscape:persp3d-origin="372.04724 : 350.78739 : 1"
       id="perspective3181" />
    <inkscape:perspective
       id="perspective3191"
       inkscape:persp3d-origin="0.5 : 0.33333333 : 1"
       inkscape:vp_z="1 : 0.5 : 1"
       inkscape:vp_y="0 : 1000 : 0"
       inkscape:vp_x="0 : 0.5 : 1"
       sodipodi:type="inkscape:persp3d" />
    <inkscape:perspective
       id="perspective4006"
       inkscape:persp3d-origin="0.5 : 0.33333333 : 1"
       inkscape:vp_z="1 : 0.5 : 1"
       inkscape:vp_y="0 : 1000 : 0"
       inkscape:vp_x="0 : 0.5 : 1"
       sodipodi:type="inkscape:persp3d" />
    <inkscape:perspective
       id="perspective4034"
       inkscape:persp3d-origin="0.5 : 0.33333333 : 1"
       inkscape:vp_z="1 : 0.5 : 1"
       inkscape:vp_y="0 : 1000 : 0"
       inkscape:vp_x="0 : 0.5 : 1"
       sodipodi:type="inkscape:persp3d" />
    <inkscape:perspective
       id="perspective4081"
       inkscape:persp3d-origin="0.5 : 0.33333333 : 1"
       inkscape:vp_z="1 : 0.5 : 1"
       inkscape:vp_y="0 : 1000 : 0"
       inkscape:vp_x="0 : 0.5 : 1"
       sodipodi:type="inkscape:persp3d" />
    <inkscape:perspective
       id="perspective4147"
       inkscape:persp3d-origin="0.5 : 0.33333333 : 1"
       inkscape:vp_z="1 : 0.5 : 1"
       inkscape:vp_y="0 : 1000 : 0"
       inkscape:vp_x="0 : 0.5 : 1"
       sodipodi:type="inkscape:persp3d" />
    <inkscape:perspective
       id="perspective3858"
       inkscape:persp3d-origin="0.5 : 0.33333333 : 1"
       inkscape:vp_z="1 : 0.5 : 1"
       inkscape:vp_y="0 : 1000 : 0"
       inkscape:vp_x="0 : 0.5 : 1"
       sodipodi:type="inkscape:persp3d" />
    <inkscape:perspective
       id="perspective3876"
       inkscape:persp3d-origin="0.5 : 0.33333333 : 1"
       inkscape:vp_z="1 : 0.5 : 1"
       inkscape:vp_y="0 : 1000 : 0"
       inkscape:vp_x="0 : 0.5 : 1"
       sodipodi:type="inkscape:persp3d" />
    <inkscape:perspective
       id="perspective3901"
       inkscape:persp3d-origin="0.5 : 0.33333333 : 1"
       inkscape:vp_z="1 : 0.5 : 1"
       inkscape:vp_y="0 : 1000 : 0"
       inkscape:vp_x="0 : 0.5 : 1"
       sodipodi:type="inkscape:persp3d" />
    <inkscape:perspective
       id="perspective4392"
       inkscape:persp3d-origin="0.5 : 0.33333333 : 1"
       inkscape:vp_z="1 : 0.5 : 1"
       inkscape:vp_y="0 : 1000 : 0"
       inkscape:vp_x="0 : 0.5 : 1"
       sodipodi:type="inkscape:persp3d" />
    <inkscape:perspective
       id="perspective3767"
       inkscape:persp3d-origin="0.5 : 0.33333333 : 1"
       inkscape:vp_z="1 : 0.5 : 1"
       inkscape:vp_y="0 : 1000 : 0"
       inkscape:vp_x="0 : 0.5 : 1"
       sodipodi:type="inkscape:persp3d" />
    <inkscape:perspective
       id="perspective3810"
       inkscape:persp3d-origin="0.5 : 0.33333333 : 1"
       inkscape:vp_z="1 : 0.5 : 1"
       inkscape:vp_y="0 : 1000 : 0"
       inkscape:vp_x="0 : 0.5 : 1"
       sodipodi:type="inkscape:persp3d" />
    <inkscape:perspective
       id="perspective3847"
       inkscape:persp3d-origin="0.5 : 0.33333333 : 1"
       inkscape:vp_z="1 : 0.5 : 1"
       inkscape:vp_y="0 : 1000 : 0"
       inkscape:vp_x="0 : 0.5 : 1"
       sodipodi:type="inkscape:persp3d" />
  </defs>
  <sodipodi:namedview
     id="base"
     pagecolor="#ffffff"
     bordercolor="#666666"
     borderopacity="1.0"
     inkscape:pageopacity="0.0"
     inkscape:pageshadow="2"
     inkscape:zoom="0.49497475"
     inkscape:cx="320.67944"
     inkscape:cy="518.12327"
     inkscape:document-units="px"
     inkscape:current-layer="layer1"
     showgrid="false"
     inkscape:window-width="1440"
     inkscape:window-height="840"
     inkscape:window-x="-4"
     inkscape:window-y="-4"
     inkscape:window-maximized="1" />
  <metadata
     id="metadata3178">
    <rdf:RDF>
      <cc:Work
         rdf:about="">
        <dc:format>image/svg+xml</dc:format>
        <dc:type
           rdf:resource="http://purl.org/dc/dcmitype/StillImage" />
        <dc:title>Pin</dc:title>
        <dc:date>2010-08-13</dc:date>
        <dc:creator>
          <cc:Agent>
            <dc:title>Alex Amies</dc:title>
          </cc:Agent>
        </dc:creator>
        <dc:rights>
          <cc:Agent>
            <dc:title>@ Alex Amies 2010</dc:title>
          </cc:Agent>
        </dc:rights>
        <dc:publisher>
          <cc:Agent>
            <dc:title>chinesenotes.com</dc:title>
          </cc:Agent>
        </dc:publisher>
        <dc:source>Yan Qin Ceremonial Inscription</dc:source>
        <dc:language>Chinese 中文</dc:language>
        <dc:description>Tracing from Tang Dynasty Ceremonial Inscription by Yan Zhenqing 颜真卿 (709－785)</dc:description>
        <cc:license
           rdf:resource="http://creativecommons.org/licenses/by/3.0/" />
      </cc:Work>
      <cc:License
         rdf:about="http://creativecommons.org/licenses/by/3.0/">
        <cc:permits
           rdf:resource="http://creativecommons.org/ns#Reproduction" />
        <cc:permits
           rdf:resource="http://creativecommons.org/ns#Distribution" />
        <cc:requires
           rdf:resource="http://creativecommons.org/ns#Notice" />
        <cc:requires
           rdf:resource="http://creativecommons.org/ns#Attribution" />
        <cc:permits
           rdf:resource="http://creativecommons.org/ns#DerivativeWorks" />
      </cc:License>
    </rdf:RDF>
  </metadata>
  <g
     inkscape:label="Layer 1"
     inkscape:groupmode="layer"
     id="layer1"
     transform="translate(0,-52.362183)">
    <path
       style="fill:#000000;fill-opacity:1;stroke:#000000;stroke-width:4.74180651000000000px;stroke-linecap:butt;stroke-linejoin:miter;stroke-opacity:1"
       d="M 581.4375 130.1875 C 572.79919 130.54605 564.66916 137.03238 560.0625 144.84375 C 549.94339 156.14788 541.59883 171.20901 524.8125 172.84375 C 491.5455 180.36265 455.9095 165.22371 423.8125 179.53125 C 404.81132 189.13128 395.83334 209.61828 409.21875 227.6875 C 428.38224 244.18671 456.05509 244.0993 479.5 239.15625 C 501.64035 234.17309 520.24646 249.49867 540.3125 255.46875 C 553.87094 265.92586 542.27741 284.85305 539.34375 298 C 533.01311 321.98443 513.49685 343.6628 518.8125 369.75 C 514.53289 370.62086 510.3126 371.53614 506.1875 372.375 C 474.14678 378.17774 442.83718 383.89933 410.65625 388.875 C 410.65612 388.04547 410.66053 387.20203 410.65625 386.40625 C 408.8987 357.97181 392.23485 333.46311 386.71875 305.875 C 381.99079 286.5371 375.67882 267.25132 374.75 247.25 C 375.19668 235.88892 377.76403 223.38192 370.8125 213.3125 C 363.53781 199.90879 348.91706 188.98064 333 191.78125 C 316.67913 196.88936 288.47082 197.31255 280.09375 214.21875 C 278.1498 225.9366 282.39675 237.70021 286.03125 248.71875 C 313.78185 296.25033 329.61824 350.34518 360.53125 395.8125 C 359.40543 395.94811 358.28597 396.08564 357.15625 396.21875 C 334.83149 405.49197 322.53712 424.62835 319.375 448.25 C 320.94762 466.98582 342.74516 482.02196 360.625 474.15625 C 374.85118 468.7487 387.43753 458.88256 403 457.28125 C 444.52623 449.29984 486.90343 446.55883 529.09375 445.1875 C 549.88164 446.02585 570.9904 449.06628 591.5 443.90625 C 601.81469 443.37355 615.143 436.73206 613.75 425.1875 C 614.54258 424.32277 615.30492 423.40452 616 422.375 C 626.23073 410.19666 626.24315 393.89249 626.78125 378.875 C 633.47791 340.47514 641.09869 301.99159 653.15625 264.875 C 658.04315 249.55451 664.41838 234.17231 665.15625 217.96875 C 663.34787 196.86254 646.60049 181.56775 633.71875 166.25 C 621.30551 154.25854 607.39614 143.75176 593.25 133.9375 C 589.38669 131.11595 585.364 130.02452 581.4375 130.1875 z M 820.96875 455.5 C 812.33044 455.85855 804.23166 462.34488 799.625 470.15625 C 789.50589 481.46038 781.16133 496.52151 764.375 498.15625 C 728.64208 505.3867 687.55251 488.06245 655.28125 509.84375 C 642.7872 519.32494 634.66124 541.41492 648.78125 553 C 667.94474 569.49921 695.58633 569.4118 719.03125 564.46875 C 741.1716 559.48559 759.80895 574.81117 779.875 580.78125 C 793.43343 591.23836 781.83991 610.16555 778.90625 623.3125 C 772.57562 647.29693 753.05936 668.9753 758.375 695.0625 C 754.09531 695.93338 749.87517 696.84863 745.75 697.6875 C 713.69914 703.49208 682.37916 709.24198 650.1875 714.21875 C 650.18736 713.38922 650.19179 712.54578 650.1875 711.75 C 648.42995 683.31556 631.79735 658.77561 626.28125 631.1875 C 621.55329 611.8496 615.21008 592.56382 614.28125 572.5625 C 614.72793 561.20142 617.32654 548.69442 610.375 538.625 C 603.10031 525.22129 588.47956 514.32439 572.5625 517.125 C 556.24163 522.23311 528.00206 522.62505 519.625 539.53125 C 517.68105 551.2491 521.95925 563.01271 525.59375 574.03125 C 553.34546 621.56472 569.1783 675.65656 600.09375 721.125 C 598.96793 721.26061 597.84847 721.39814 596.71875 721.53125 C 592.40461 723.54026 588.20518 725.81101 584.15625 728.3125 C 569.40411 738.20249 559.45103 755.77361 558.90625 773.5625 C 560.47887 792.29832 582.30767 807.36571 600.1875 799.5 C 614.41368 794.09244 627.00003 784.19506 642.5625 782.59375 C 684.08873 774.61234 726.46593 771.87133 768.65625 770.5 C 789.44414 771.33835 810.52166 774.37878 831.03125 769.21875 C 841.3523 768.68573 854.72458 762.05774 853.3125 750.5 C 854.10405 749.63609 854.83698 748.71582 855.53125 747.6875 C 865.76198 735.50917 865.80565 719.20499 866.34375 704.1875 C 873.04042 665.78763 880.66119 627.30409 892.71875 590.1875 C 897.60566 574.86701 903.98088 559.48481 904.71875 543.28125 C 902.91037 522.17504 886.16299 506.88024 873.28125 491.5625 C 860.86801 479.57104 846.95863 469.09551 832.8125 459.28125 C 828.94918 456.4597 824.89525 455.33702 820.96875 455.5 z M 392.28125 516.4375 C 378.61161 516.3393 363.61233 530.87879 359.375 545.71875 C 357.86725 559.76464 339.27576 554.1413 327.40625 555.75 C 301.70595 560.20408 269.54401 559.84279 248.84375 577.59375 C 237.62203 590.63779 237.09686 614.628 253.625 623.6875 C 270.06859 634.40124 285.50352 624.25176 308.5625 620.34375 C 319.5487 613.83117 345.38734 602.86941 346.5625 613.09375 C 352.33076 631.37445 341.17039 649.03673 334.4375 665.4375 C 326.72485 680.40008 322.68481 696.69853 320.03125 713.21875 C 318.2474 721.44872 316.66019 729.75194 315.375 738.09375 C 310.39669 736.24957 305.08391 734.87578 299.4375 734.03125 C 278.33258 734.9813 255.79938 736.41137 233.40625 739.53125 C 214.46319 691.68757 205.7004 638.53682 173.84375 596.8125 C 151.71464 576.87813 118.41322 568.05191 89.65625 577.59375 C 67.970214 581.87128 68.390631 607.64687 81.90625 620.625 C 94.641699 631.98154 108.21008 642.70764 116.21875 658.28125 C 135.56177 689.96013 152.82784 723.41311 164.0625 758.875 C 164.36041 759.92617 164.66933 761.03018 164.96875 762.09375 C 157.33544 773.57774 155.8778 789.00608 159.34375 802.25 C 163.51531 820.94505 173.83501 838.73229 189.375 850.15625 C 200.63474 857.93721 214.39908 852.11619 225.03125 846.15625 C 237.80727 847.79222 250.84894 841.49311 254 828.84375 C 257.29695 827.30426 260.82368 825.95801 264.71875 824.84375 C 288.72747 808.75101 319.26495 832.57389 342.4375 822.875 C 351.39999 817.78497 359.68798 808.95837 361.0625 798.59375 C 387.54294 781.12278 407.15133 753.56699 431.71875 732.9375 C 442.06788 711.12239 439.88079 693.56482 446.90625 670.625 C 443.54028 637.56721 468.75168 601.08441 455.125 568.21875 C 437.05626 547.86526 421.06899 519.36865 392.28125 516.4375 z "
       transform="translate(0,52.362183)"
       id="path10930" />
  </g>
</svg>
