<?xml version="1.0" encoding="UTF-8" standalone="no"?>
<!-- Created with Inkscape (http://www.inkscape.org/) -->

<svg
   xmlns:dc="http://purl.org/dc/elements/1.1/"
   xmlns:cc="http://creativecommons.org/ns#"
   xmlns:rdf="http://www.w3.org/1999/02/22-rdf-syntax-ns#"
   xmlns:svg="http://www.w3.org/2000/svg"
   xmlns="http://www.w3.org/2000/svg"
   xmlns:sodipodi="http://sodipodi.sourceforge.net/DTD/sodipodi-0.dtd"
   xmlns:inkscape="http://www.inkscape.org/namespaces/inkscape"
   width="1000"
   height="1000"
   id="svg3173"
   version="1.1"
   inkscape:version="0.47 r22583"
   sodipodi:docname="5584.svg"
   inkscape:export-filename="E:\chinese\yan\5584.png"
   inkscape:export-xdpi="18.005705"
   inkscape:export-ydpi="18.005705">
  <title
     id="title2825">Shan</title>
  <defs
     id="defs3175">
    <inkscape:perspective
       sodipodi:type="inkscape:persp3d"
       inkscape:vp_x="0 : 526.18109 : 1"
       inkscape:vp_y="0 : 1000 : 0"
       inkscape:vp_z="744.09448 : 526.18109 : 1"
       inkscape:persp3d-origin="372.04724 : 350.78739 : 1"
       id="perspective3181" />
    <inkscape:perspective
       id="perspective3191"
       inkscape:persp3d-origin="0.5 : 0.33333333 : 1"
       inkscape:vp_z="1 : 0.5 : 1"
       inkscape:vp_y="0 : 1000 : 0"
       inkscape:vp_x="0 : 0.5 : 1"
       sodipodi:type="inkscape:persp3d" />
    <inkscape:perspective
       id="perspective4006"
       inkscape:persp3d-origin="0.5 : 0.33333333 : 1"
       inkscape:vp_z="1 : 0.5 : 1"
       inkscape:vp_y="0 : 1000 : 0"
       inkscape:vp_x="0 : 0.5 : 1"
       sodipodi:type="inkscape:persp3d" />
    <inkscape:perspective
       id="perspective4034"
       inkscape:persp3d-origin="0.5 : 0.33333333 : 1"
       inkscape:vp_z="1 : 0.5 : 1"
       inkscape:vp_y="0 : 1000 : 0"
       inkscape:vp_x="0 : 0.5 : 1"
       sodipodi:type="inkscape:persp3d" />
    <inkscape:perspective
       id="perspective4081"
       inkscape:persp3d-origin="0.5 : 0.33333333 : 1"
       inkscape:vp_z="1 : 0.5 : 1"
       inkscape:vp_y="0 : 1000 : 0"
       inkscape:vp_x="0 : 0.5 : 1"
       sodipodi:type="inkscape:persp3d" />
    <inkscape:perspective
       id="perspective4147"
       inkscape:persp3d-origin="0.5 : 0.33333333 : 1"
       inkscape:vp_z="1 : 0.5 : 1"
       inkscape:vp_y="0 : 1000 : 0"
       inkscape:vp_x="0 : 0.5 : 1"
       sodipodi:type="inkscape:persp3d" />
    <inkscape:perspective
       id="perspective3758"
       inkscape:persp3d-origin="0.5 : 0.33333333 : 1"
       inkscape:vp_z="1 : 0.5 : 1"
       inkscape:vp_y="0 : 1000 : 0"
       inkscape:vp_x="0 : 0.5 : 1"
       sodipodi:type="inkscape:persp3d" />
    <inkscape:perspective
       id="perspective3719"
       inkscape:persp3d-origin="0.5 : 0.33333333 : 1"
       inkscape:vp_z="1 : 0.5 : 1"
       inkscape:vp_y="0 : 1000 : 0"
       inkscape:vp_x="0 : 0.5 : 1"
       sodipodi:type="inkscape:persp3d" />
    <inkscape:perspective
       id="perspective3803"
       inkscape:persp3d-origin="0.5 : 0.33333333 : 1"
       inkscape:vp_z="1 : 0.5 : 1"
       inkscape:vp_y="0 : 1000 : 0"
       inkscape:vp_x="0 : 0.5 : 1"
       sodipodi:type="inkscape:persp3d" />
    <inkscape:perspective
       id="perspective3746"
       inkscape:persp3d-origin="0.5 : 0.33333333 : 1"
       inkscape:vp_z="1 : 0.5 : 1"
       inkscape:vp_y="0 : 1000 : 0"
       inkscape:vp_x="0 : 0.5 : 1"
       sodipodi:type="inkscape:persp3d" />
  </defs>
  <sodipodi:namedview
     id="base"
     pagecolor="#ffffff"
     bordercolor="#666666"
     borderopacity="1.0"
     inkscape:pageopacity="0.0"
     inkscape:pageshadow="2"
     inkscape:zoom="0.49497475"
     inkscape:cx="571.51329"
     inkscape:cy="512.69615"
     inkscape:document-units="px"
     inkscape:current-layer="g4143"
     showgrid="false"
     inkscape:window-width="1440"
     inkscape:window-height="840"
     inkscape:window-x="-4"
     inkscape:window-y="-4"
     inkscape:window-maximized="1" />
  <metadata
     id="metadata3178">
    <rdf:RDF>
      <cc:Work
         rdf:about="">
        <dc:format>image/svg+xml</dc:format>
        <dc:type
           rdf:resource="http://purl.org/dc/dcmitype/StillImage" />
        <dc:title>Shan</dc:title>
        <dc:date>2010-08-21</dc:date>
        <dc:creator>
          <cc:Agent>
            <dc:title>Alex Amies</dc:title>
          </cc:Agent>
        </dc:creator>
        <dc:rights>
          <cc:Agent>
            <dc:title>@ Alex Amies 2010</dc:title>
          </cc:Agent>
        </dc:rights>
        <dc:publisher>
          <cc:Agent>
            <dc:title>chinesenotes.com</dc:title>
          </cc:Agent>
        </dc:publisher>
        <dc:source>Yan Qin Ceremonial Inscription</dc:source>
        <dc:language>Chinese 中文</dc:language>
        <dc:description>Tracing from Tang Dynasty Ceremonial Inscription by Yan Zhenqing 颜真卿 (709－785)</dc:description>
        <cc:license
           rdf:resource="http://creativecommons.org/licenses/by/3.0/" />
      </cc:Work>
      <cc:License
         rdf:about="http://creativecommons.org/licenses/by/3.0/">
        <cc:permits
           rdf:resource="http://creativecommons.org/ns#Reproduction" />
        <cc:permits
           rdf:resource="http://creativecommons.org/ns#Distribution" />
        <cc:requires
           rdf:resource="http://creativecommons.org/ns#Notice" />
        <cc:requires
           rdf:resource="http://creativecommons.org/ns#Attribution" />
        <cc:permits
           rdf:resource="http://creativecommons.org/ns#DerivativeWorks" />
      </cc:License>
    </rdf:RDF>
  </metadata>
  <g
     inkscape:label="Layer 1"
     inkscape:groupmode="layer"
     id="layer1"
     transform="translate(0,-52.362183)">
    <g
       transform="matrix(4.7609464,0,0,4.7609464,-1421.6669,-3910.0295)"
       id="g4143"
       style="fill:#000000;fill-opacity:1">
      <path
         style="fill:#000000;stroke:#000000;stroke-width:4.76094626999999980px;stroke-linecap:butt;stroke-linejoin:miter;stroke-opacity:1;fill-opacity:1"
         d="M 616.9375 23.125 C 603.61488 23.352159 590.37261 24.999391 578.34375 28.40625 C 574.63688 38.140053 576.50861 52.725671 581.15625 64.28125 C 585.6483 89.059453 575.58103 116.30504 565.1875 138.75 C 557.89606 154.3382 550.87373 170.10056 545.59375 186.53125 C 544.6117 189.58727 545.33713 191.27331 546.90625 192.125 C 519.4439 198.78123 491.87638 205.05689 464.28125 211.375 C 464.62813 210.68489 464.94627 209.9717 465.21875 209.21875 C 469.72208 196.77459 460.79073 184.99371 456.375 173.78125 C 444.56433 143.79181 438.54812 108.67525 423.59375 82.8125 C 417.93327 73.022994 399.47245 75.19145 387.34375 79.4375 C 371.24009 85.075127 352.8306 78.688538 336.875 81.125 C 331.49327 81.946787 325.44039 86.724281 323.28125 91.3125 C 320.90616 96.359579 319.56019 105.75702 323.28125 110.03125 C 333.02596 121.22476 344.48836 123.36443 351.5 133.4375 C 364.79718 152.54061 376.22498 172.92547 388.3125 192.75 C 395.76605 204.97436 406.92218 216.23589 420.625 221.46875 C 409.773 224.01595 398.93849 226.5954 388.09375 229.25 C 363.95523 233.12222 337.57942 229.29902 314.78125 235.84375 C 297.25882 244.31933 308.82112 271.90288 319.125 284.59375 C 332.1331 286.61734 346.04086 292.40817 358.9375 287.28125 C 387.97368 280.3542 416.9002 272.71712 445.8125 265.03125 C 444.69715 282.05355 446.36161 300.10599 448.84375 318.53125 C 410.41342 328.61672 371.9569 338.68675 334.65625 352.28125 C 325.09632 356.27578 322.34127 365.68866 321.59375 375.28125 C 324.19937 388.1398 336.83542 403.55019 352.875 401.96875 C 385.38074 392.02366 421.29698 383.02132 456.90625 374.6875 C 458.00237 383.85388 458.82753 392.96991 459.15625 401.9375 C 459.65234 415.47106 459.06002 432.63512 467.8125 441.59375 C 468.64443 442.44529 469.5672 443.24813 470.5625 444.03125 C 437.19257 453.95082 403.75552 463.52139 370.125 472.25 C 353.61994 476.5338 335.17068 472.72871 319.46875 480.5 C 317.9571 481.24814 315.19141 480.82184 314.78125 482.375 C 311.39065 495.21522 318.38571 511.52375 331.625 517.78125 C 348.82706 525.91176 369.67611 536.07047 386.1875 531.6875 C 406.07155 526.40923 423.29058 504.43455 444.625 497.8125 C 447.52509 496.91234 450.45372 496.03421 453.375 495.1875 C 447.13188 499.55248 441.54184 504.56901 437 510.28125 C 427.11975 526.46923 421.01571 544.43489 418.46875 563.1875 C 417.98283 566.76522 417.40453 570.32268 416.78125 573.875 C 367.16515 582.06487 317.37849 588.88672 267.15625 592.1875 C 216.84928 595.22075 170.12348 616.54572 122.375 631 C 109.97064 635.24362 97.612035 639.57305 85.25 643.9375 C 62.161219 674.81424 103.1227 680.65175 125.75 684.125 C 153.686 718.40758 195.29777 709.41952 226.4375 685.5 C 257.20554 668.60973 286.96379 648.67555 322.125 642.3125 C 349.24097 633.08734 377.64476 624.24942 406.8125 616.03125 C 400.39919 638.4749 392.78306 660.64858 386.375 683 C 381.02151 701.67305 380.97502 722.91652 384.46875 740.875 C 386.46078 751.11451 398.76525 765.46949 413.09375 756.03125 C 430.83449 744.34534 448.12359 730.32054 458.96875 712.03125 C 468.67262 729.35542 490.3465 739.69779 509.96875 734 C 551.25668 726.16105 591.03273 708.5716 633.8125 710.125 C 650.18635 709.73555 635.93259 735.62448 634.375 745.9375 C 621.39498 788.70107 611.25865 832.59567 593.40625 873.6875 C 588.41201 859.36274 574.71517 848.7614 560.28125 846 C 544.23072 842.93014 527.91287 847.43561 511.71875 847.78125 C 496.74138 848.10023 482.12521 851.40694 467.84375 856.03125 C 449.84349 861.85983 431.37497 866.88998 412.84375 871.71875 C 415.05779 845.44986 420.0936 817.50343 415.09375 791.84375 C 407.91786 768.74411 388.90068 747.3198 365.84375 735.96875 C 353.947 730.80436 338.67321 730.81511 328.125 738.96875 C 326.30789 740.52382 324.68963 742.31915 323.28125 744.25 L 316.46875 752.75 C 343.8998 790.91389 366.89565 833.86221 373.5625 880.9375 C 373.65751 881.24494 373.79378 881.51848 373.90625 881.8125 C 354.26893 887.01099 334.91877 892.47191 316.46875 898.96875 C 310.69163 901.0031 305.87817 910.88215 307.96875 915.96875 C 313.15685 928.5924 330.50704 942.54138 347.90625 941.125 C 377.5469 938.71215 406.96559 933.5093 435.96875 927.0625 C 455.87603 922.6372 475.70899 916.84516 496.40625 917.625 C 514.43281 918.30391 532.73065 920.52364 550.46875 920.875 C 560.96392 921.08448 569.91048 911.50391 577.34375 904.3125 C 578.55891 903.13684 579.93299 901.92941 581.34375 900.71875 C 577.64932 911.70887 575.93527 923.20183 576.21875 935 C 570.49852 952.91925 577.71057 973.25595 593.6875 983.3125 C 614.86238 997.21827 642.18906 992.46892 665.15625 986.21875 C 683.9368 979.73386 698.97215 965.22745 710.9375 949.90625 C 727.84305 875.12749 756.90837 802.51203 773.21875 727.46875 C 770.02006 705.12192 748.73596 693.0239 730.6875 683.34375 C 714.47824 668.625 696.63466 654.5884 674.53125 650.96875 C 651.11096 648.60527 659.88192 685.45037 637.40625 680.5625 C 583.14198 683.0879 528.38346 680.62008 474.625 689.84375 C 472.33594 690.79753 470.03906 691.73373 467.75 692.6875 C 475.54522 674.09806 486.61879 656.89599 500.5625 642.0625 C 514.39048 627.35213 529.94944 614.23116 543.65625 599.625 C 548.46658 594.49905 551.94322 588.40437 554.625 581.875 C 610.12849 572.01698 665.69659 565.74383 718.46875 564.59375 C 757.79388 569.40859 794.61401 587.58408 829.8125 605 C 880.63594 624.09977 903.42474 612.76982 918.40625 601.40625 C 941.67904 583.75371 913.37043 538.31032 888.4375 519.84375 C 867.30185 506.39032 839.5306 506.94111 814.9375 505.9375 C 766.41432 504.71537 720.28682 522.76634 672.84375 530.53125 C 636.17094 535.28442 599.64365 541.32881 563.1875 547.78125 C 565.6971 517.19673 548.3118 493.29665 523.21875 479.0625 C 541.30192 475.64523 559.48522 472.57292 577.53125 469.40625 C 590.79153 467.07934 604.83363 463.58737 617.96875 466.125 C 627.70008 468.005 638.81846 478.845 646.34375 475.59375 C 656.78117 471.08432 675.25248 454.04516 673.78125 441.78125 C 670.20964 426.47943 659.10117 406.0667 643.625 400.84375 C 628.90125 402.12668 613.84939 400.52739 599.25 404.9375 C 579.84766 410.79872 560.43626 416.77939 541.03125 422.71875 C 544.23454 401.8178 543.6744 378.84689 542 355.34375 C 563.40217 350.49152 583.45891 345.83675 600.9375 341.3125 C 614.74548 335.29357 632.09615 331.35234 641.28125 321.15625 C 649.27026 312.28794 633.24878 298.65616 626.90625 289.59375 C 617.64316 276.35832 597.53988 274.40806 583.65625 279.71875 C 568.37364 285.56454 552.68868 290.31888 536.90625 294.71875 C 536.3175 286.59031 535.82993 278.55598 535.625 270.6875 C 536.04791 262.88798 533.16853 252.46463 528.03125 243.625 C 551.28743 237.85501 574.63071 232.43435 598.125 227.71875 C 629.23869 221.84436 667.65086 226.223 692.25 215.4375 C 701.99942 211.16288 699.20368 188.42962 692.0625 177.6875 C 683.13568 164.25925 665.9495 159.47903 650.15625 164.28125 C 625.5725 171.80173 600.82004 178.57332 575.96875 184.90625 C 580.54859 182.56168 584.9189 179.80931 589.03125 176.625 C 607.97001 161.96029 628.46577 149.23547 650.25 139.09375 C 662.93273 133.18922 678.82439 128.08283 685.5 116.375 C 694.84769 99.980824 694.54665 76.375532 686.5625 57.90625 C 682.9666 37.043497 667.18571 29.6629 647.59375 24.96875 C 637.71682 23.61998 627.29954 22.94832 616.9375 23.125 z "
         transform="matrix(0.21004227,0,0,0.21004227,298.61015,832.26975)"
         id="path3006" />
    </g>
  </g>
</svg>
