<?xml version="1.0" encoding="UTF-8" standalone="no"?>
<!-- Created with Inkscape (http://www.inkscape.org/) -->

<svg
   xmlns:dc="http://purl.org/dc/elements/1.1/"
   xmlns:cc="http://creativecommons.org/ns#"
   xmlns:rdf="http://www.w3.org/1999/02/22-rdf-syntax-ns#"
   xmlns:svg="http://www.w3.org/2000/svg"
   xmlns="http://www.w3.org/2000/svg"
   xmlns:sodipodi="http://sodipodi.sourceforge.net/DTD/sodipodi-0.dtd"
   xmlns:inkscape="http://www.inkscape.org/namespaces/inkscape"
   width="1000"
   height="1000"
   id="svg3173"
   version="1.1"
   inkscape:version="0.47 r22583"
   sodipodi:docname="56d7.svg"
   inkscape:export-filename="E:\chinese\yan\56d7.png"
   inkscape:export-xdpi="18.005705"
   inkscape:export-ydpi="18.005705">
  <title
     id="title3602">Wei</title>
  <defs
     id="defs3175">
    <inkscape:perspective
       sodipodi:type="inkscape:persp3d"
       inkscape:vp_x="0 : 526.18109 : 1"
       inkscape:vp_y="0 : 1000 : 0"
       inkscape:vp_z="744.09448 : 526.18109 : 1"
       inkscape:persp3d-origin="372.04724 : 350.78739 : 1"
       id="perspective3181" />
    <inkscape:perspective
       id="perspective3191"
       inkscape:persp3d-origin="0.5 : 0.33333333 : 1"
       inkscape:vp_z="1 : 0.5 : 1"
       inkscape:vp_y="0 : 1000 : 0"
       inkscape:vp_x="0 : 0.5 : 1"
       sodipodi:type="inkscape:persp3d" />
    <inkscape:perspective
       id="perspective4006"
       inkscape:persp3d-origin="0.5 : 0.33333333 : 1"
       inkscape:vp_z="1 : 0.5 : 1"
       inkscape:vp_y="0 : 1000 : 0"
       inkscape:vp_x="0 : 0.5 : 1"
       sodipodi:type="inkscape:persp3d" />
    <inkscape:perspective
       id="perspective4034"
       inkscape:persp3d-origin="0.5 : 0.33333333 : 1"
       inkscape:vp_z="1 : 0.5 : 1"
       inkscape:vp_y="0 : 1000 : 0"
       inkscape:vp_x="0 : 0.5 : 1"
       sodipodi:type="inkscape:persp3d" />
    <inkscape:perspective
       id="perspective4081"
       inkscape:persp3d-origin="0.5 : 0.33333333 : 1"
       inkscape:vp_z="1 : 0.5 : 1"
       inkscape:vp_y="0 : 1000 : 0"
       inkscape:vp_x="0 : 0.5 : 1"
       sodipodi:type="inkscape:persp3d" />
    <inkscape:perspective
       id="perspective4147"
       inkscape:persp3d-origin="0.5 : 0.33333333 : 1"
       inkscape:vp_z="1 : 0.5 : 1"
       inkscape:vp_y="0 : 1000 : 0"
       inkscape:vp_x="0 : 0.5 : 1"
       sodipodi:type="inkscape:persp3d" />
    <inkscape:perspective
       id="perspective3750"
       inkscape:persp3d-origin="0.5 : 0.33333333 : 1"
       inkscape:vp_z="1 : 0.5 : 1"
       inkscape:vp_y="0 : 1000 : 0"
       inkscape:vp_x="0 : 0.5 : 1"
       sodipodi:type="inkscape:persp3d" />
    <inkscape:perspective
       id="perspective3896"
       inkscape:persp3d-origin="0.5 : 0.33333333 : 1"
       inkscape:vp_z="1 : 0.5 : 1"
       inkscape:vp_y="0 : 1000 : 0"
       inkscape:vp_x="0 : 0.5 : 1"
       sodipodi:type="inkscape:persp3d" />
  </defs>
  <sodipodi:namedview
     id="base"
     pagecolor="#ffffff"
     bordercolor="#666666"
     borderopacity="1.0"
     inkscape:pageopacity="0.0"
     inkscape:pageshadow="2"
     inkscape:zoom="0.49497475"
     inkscape:cx="634.79097"
     inkscape:cy="545.16461"
     inkscape:document-units="px"
     inkscape:current-layer="g4171"
     showgrid="false"
     inkscape:window-width="1440"
     inkscape:window-height="840"
     inkscape:window-x="-4"
     inkscape:window-y="-4"
     inkscape:window-maximized="1" />
  <metadata
     id="metadata3178">
    <rdf:RDF>
      <cc:Work
         rdf:about="">
        <dc:format>image/svg+xml</dc:format>
        <dc:type
           rdf:resource="http://purl.org/dc/dcmitype/StillImage" />
        <dc:title>Wei</dc:title>
        <dc:date>2010-07-05</dc:date>
        <dc:creator>
          <cc:Agent>
            <dc:title>Alex Amies</dc:title>
          </cc:Agent>
        </dc:creator>
        <dc:rights>
          <cc:Agent>
            <dc:title>@ Alex Amies 2010</dc:title>
          </cc:Agent>
        </dc:rights>
        <dc:publisher>
          <cc:Agent>
            <dc:title>chinesenotes.com</dc:title>
          </cc:Agent>
        </dc:publisher>
        <dc:source>Yan Qin Ceremonial Inscription</dc:source>
        <dc:language>Chinese 中文</dc:language>
        <dc:description>Tracing from Tang Dynasty Ceremonial Inscription by Yan Zhenqing 颜真卿 (709－785)</dc:description>
        <cc:license
           rdf:resource="http://creativecommons.org/licenses/by/3.0/" />
      </cc:Work>
      <cc:License
         rdf:about="http://creativecommons.org/licenses/by/3.0/">
        <cc:permits
           rdf:resource="http://creativecommons.org/ns#Reproduction" />
        <cc:permits
           rdf:resource="http://creativecommons.org/ns#Distribution" />
        <cc:requires
           rdf:resource="http://creativecommons.org/ns#Notice" />
        <cc:requires
           rdf:resource="http://creativecommons.org/ns#Attribution" />
        <cc:permits
           rdf:resource="http://creativecommons.org/ns#DerivativeWorks" />
      </cc:License>
    </rdf:RDF>
  </metadata>
  <g
     inkscape:label="Layer 1"
     inkscape:groupmode="layer"
     id="layer1"
     transform="translate(0,-52.362183)">
    <g
       transform="matrix(4.7418068,0,0,4.7418068,-2302.0941,-3975.9061)"
       id="g4171"
       style="fill:#000000;fill-opacity:1">
      <path
         id="path4128"
         d="m 519.64286,886.29075 c -6.18296,1.67333 -3.26589,9.47472 -3.53806,14.16389 0.83951,6.2392 0.60471,12.51563 -0.26724,18.72954 -1.1533,10.26186 -1.92877,20.59368 -1.05817,30.90875 0.54283,18.98334 2.02786,37.94987 2.17645,56.93557 -0.58848,8.7487 -2.03727,18.178 1.96362,26.3427 3.47252,6.6634 11.30845,-1.0054 9.81076,-6.428 1.01478,-7.1235 0.87914,-14.3137 -6.7e-4,-21.4353 -1.34163,-15.91747 -3.16624,-31.83695 -2.64364,-47.84066 -0.0297,-14.26856 -0.15866,-28.54236 0.34266,-42.80506 2.64798,-5.6524 3.1836,-10.08528 8.66111,-9.98276 8.16435,-2.23673 -0.64565,-7.74409 -3.39074,-11.22968 -3.37875,-4.57089 -6.70763,-6.41515 -12.05608,-7.35899 z"
         style="fill:#000000;fill-opacity:1;stroke:#000000;stroke-width:1px;stroke-linecap:butt;stroke-linejoin:miter;stroke-opacity:1"
         sodipodi:nodetypes="ccccccccccccc" />
      <path
         id="path4130"
         d="m 525.71429,877.36218 c -1.4162,2.89384 -2.68037,6.98741 0.35714,9.28572 35.53609,-9.31661 73.22859,-17.88311 108.57143,-22.5 6.06852,-0.79274 6.35162,5.23369 8.92857,13.57143 0.75445,47.60214 0.35714,95.24189 0.35714,142.85717 -1.31975,3.3723 -3.99882,4.1339 -7.36723,3.5714 -2.24189,0.034 -7.04923,-3.3775 -5.84705,1.005 3.59912,3.2836 7.939,6.0151 9.98047,10.678 1.43355,6.9899 -0.58339,12.7172 5.49302,17.8472 12.25888,-2.0673 16.98368,-5.9867 19.52651,-18.1333 -2.53904,-48.37399 1.15302,-108.82297 -1.35055,-155.00993 -0.3576,-6.59712 -4.74424,-7.62956 -13.43581,-14.69693 -4.5007,-3.08293 -9.06245,-7.14192 -14.27179,-8.11861 -6.75164,-1.26586 -13.94157,-0.0676 -20.77561,1.53496 -30.12955,5.57778 -60.76771,9.28835 -90.16624,18.10789 z"
         style="fill:#000000;fill-opacity:1;stroke:#000000;stroke-width:1px;stroke-linecap:butt;stroke-linejoin:miter;stroke-opacity:1"
         sodipodi:nodetypes="ccscccccccscscc" />
      <path
         id="path4146"
         d="m 539.64286,1015.5765 c -3.18045,1.9508 -1.94556,4.8449 -1.27376,7.7848 -0.19852,4.0185 5.12679,5.5409 8.43415,4.4952 27.02872,-12.2411 56.71606,-12.1537 85.69675,-14.0657 3.38274,-0.877 4.15923,-5.1162 1.69969,-7.4269 -13.42838,-5.1887 -28.86046,-4.2043 -42.90825,-2.5375 -10.943,1.5445 -21.86667,3.2396 -32.65375,5.6686 -6.78506,0.7409 -12.88157,3.2796 -18.99483,6.0815 z"
         style="fill:#000000;fill-opacity:1;stroke:#000000;stroke-width:1px;stroke-linecap:butt;stroke-linejoin:miter;stroke-opacity:1"
         sodipodi:nodetypes="cccccccc" />
    </g>
  </g>
</svg>
