<?xml version="1.0" encoding="UTF-8" standalone="no"?>
<!-- Created with Inkscape (http://www.inkscape.org/) -->

<svg
   xmlns:dc="http://purl.org/dc/elements/1.1/"
   xmlns:cc="http://creativecommons.org/ns#"
   xmlns:rdf="http://www.w3.org/1999/02/22-rdf-syntax-ns#"
   xmlns:svg="http://www.w3.org/2000/svg"
   xmlns="http://www.w3.org/2000/svg"
   xmlns:sodipodi="http://sodipodi.sourceforge.net/DTD/sodipodi-0.dtd"
   xmlns:inkscape="http://www.inkscape.org/namespaces/inkscape"
   width="1000"
   height="1000"
   id="svg3173"
   version="1.1"
   inkscape:version="0.47 r22583"
   sodipodi:docname="56db.svg"
   inkscape:export-filename="E:\chinese\yan\56db.png"
   inkscape:export-xdpi="18.005705"
   inkscape:export-ydpi="18.005705">
  <title
     id="title3636">Si</title>
  <defs
     id="defs3175">
    <inkscape:perspective
       sodipodi:type="inkscape:persp3d"
       inkscape:vp_x="0 : 526.18109 : 1"
       inkscape:vp_y="0 : 1000 : 0"
       inkscape:vp_z="744.09448 : 526.18109 : 1"
       inkscape:persp3d-origin="372.04724 : 350.78739 : 1"
       id="perspective3181" />
    <inkscape:perspective
       id="perspective3191"
       inkscape:persp3d-origin="0.5 : 0.33333333 : 1"
       inkscape:vp_z="1 : 0.5 : 1"
       inkscape:vp_y="0 : 1000 : 0"
       inkscape:vp_x="0 : 0.5 : 1"
       sodipodi:type="inkscape:persp3d" />
    <inkscape:perspective
       id="perspective4006"
       inkscape:persp3d-origin="0.5 : 0.33333333 : 1"
       inkscape:vp_z="1 : 0.5 : 1"
       inkscape:vp_y="0 : 1000 : 0"
       inkscape:vp_x="0 : 0.5 : 1"
       sodipodi:type="inkscape:persp3d" />
    <inkscape:perspective
       id="perspective4034"
       inkscape:persp3d-origin="0.5 : 0.33333333 : 1"
       inkscape:vp_z="1 : 0.5 : 1"
       inkscape:vp_y="0 : 1000 : 0"
       inkscape:vp_x="0 : 0.5 : 1"
       sodipodi:type="inkscape:persp3d" />
    <inkscape:perspective
       id="perspective4081"
       inkscape:persp3d-origin="0.5 : 0.33333333 : 1"
       inkscape:vp_z="1 : 0.5 : 1"
       inkscape:vp_y="0 : 1000 : 0"
       inkscape:vp_x="0 : 0.5 : 1"
       sodipodi:type="inkscape:persp3d" />
    <inkscape:perspective
       id="perspective4147"
       inkscape:persp3d-origin="0.5 : 0.33333333 : 1"
       inkscape:vp_z="1 : 0.5 : 1"
       inkscape:vp_y="0 : 1000 : 0"
       inkscape:vp_x="0 : 0.5 : 1"
       sodipodi:type="inkscape:persp3d" />
    <inkscape:perspective
       id="perspective3750"
       inkscape:persp3d-origin="0.5 : 0.33333333 : 1"
       inkscape:vp_z="1 : 0.5 : 1"
       inkscape:vp_y="0 : 1000 : 0"
       inkscape:vp_x="0 : 0.5 : 1"
       sodipodi:type="inkscape:persp3d" />
    <inkscape:perspective
       id="perspective3756"
       inkscape:persp3d-origin="0.5 : 0.33333333 : 1"
       inkscape:vp_z="1 : 0.5 : 1"
       inkscape:vp_y="0 : 1000 : 0"
       inkscape:vp_x="0 : 0.5 : 1"
       sodipodi:type="inkscape:persp3d" />
  </defs>
  <sodipodi:namedview
     id="base"
     pagecolor="#ffffff"
     bordercolor="#666666"
     borderopacity="1.0"
     inkscape:pageopacity="0.0"
     inkscape:pageshadow="2"
     inkscape:zoom="0.49497475"
     inkscape:cx="634.79097"
     inkscape:cy="545.16461"
     inkscape:document-units="px"
     inkscape:current-layer="layer1"
     showgrid="false"
     inkscape:window-width="1440"
     inkscape:window-height="840"
     inkscape:window-x="-4"
     inkscape:window-y="-4"
     inkscape:window-maximized="1" />
  <metadata
     id="metadata3178">
    <rdf:RDF>
      <cc:Work
         rdf:about="">
        <dc:format>image/svg+xml</dc:format>
        <dc:type
           rdf:resource="http://purl.org/dc/dcmitype/StillImage" />
        <dc:title>Si</dc:title>
        <dc:date>2010-07-27</dc:date>
        <dc:creator>
          <cc:Agent>
            <dc:title>Alex Amies</dc:title>
          </cc:Agent>
        </dc:creator>
        <dc:rights>
          <cc:Agent>
            <dc:title>@ Alex Amies 2010</dc:title>
          </cc:Agent>
        </dc:rights>
        <dc:publisher>
          <cc:Agent>
            <dc:title>chinesenotes.com</dc:title>
          </cc:Agent>
        </dc:publisher>
        <dc:source>Yan Qin Ceremonial Inscription</dc:source>
        <dc:language>Chinese 中文</dc:language>
        <dc:description>Tracing from Tang Dynasty Ceremonial Inscription by Yan Zhenqing 颜真卿 (709－785)</dc:description>
        <cc:license
           rdf:resource="http://creativecommons.org/licenses/by/3.0/" />
      </cc:Work>
      <cc:License
         rdf:about="http://creativecommons.org/licenses/by/3.0/">
        <cc:permits
           rdf:resource="http://creativecommons.org/ns#Reproduction" />
        <cc:permits
           rdf:resource="http://creativecommons.org/ns#Distribution" />
        <cc:requires
           rdf:resource="http://creativecommons.org/ns#Notice" />
        <cc:requires
           rdf:resource="http://creativecommons.org/ns#Attribution" />
        <cc:permits
           rdf:resource="http://creativecommons.org/ns#DerivativeWorks" />
      </cc:License>
    </rdf:RDF>
  </metadata>
  <g
     inkscape:label="Layer 1"
     inkscape:groupmode="layer"
     id="layer1"
     transform="translate(0,-52.362183)">
    <path
       style="fill:#000000;stroke:#000000;stroke-width:4.76094626999999980px;stroke-linecap:butt;stroke-linejoin:miter;stroke-opacity:1;fill-opacity:1"
       d="M 812.59375 230.25 C 809.94493 230.24805 807.23977 230.46454 804.5 230.90625 C 755.08743 252.32691 699.7351 245.64741 647.40625 253.21875 C 520.64787 265.87 394.43171 283.93216 267.9375 299.0625 C 223.16214 321.23667 260.02605 384.1387 302.46875 357.25 C 321.90801 353.7848 341.34672 350.22623 360.78125 346.65625 C 347.98059 367.07247 354.04619 398.94217 352.75 424.6875 C 351.61665 447.19867 353.68327 472.70625 337.65625 486.09375 C 308.1073 510.77631 261.30834 520.38358 228.8125 540.5 C 225.60124 542.48794 226.94264 551.60879 230.53125 552.40625 C 257.54872 558.41014 290.72384 564.70653 320.65625 560.90625 C 384.55472 552.79355 415.61172 556.73339 422.65625 526.90625 C 435.25919 473.54453 441.4835 395.84564 424.375 339.875 C 423.86869 338.21859 423.22957 336.69721 422.53125 335.3125 C 468.5634 326.90491 514.65921 318.76301 560.875 311.59375 C 548.13775 320.1546 541.12255 338.75429 538.125 355.09375 C 533.13772 390.17784 525.71898 424.99978 522.4375 460.28125 C 517.93355 481.05525 529.43892 491.18932 541.6875 506.5 C 605.06046 530.11658 662.42417 502.39298 723.625 489.5 C 725.28095 475.34217 711.72251 465.29153 698.96875 463.3125 C 675.79108 454.22472 593.02902 470.97783 595.90625 434.3125 C 600.74265 408.69045 607.84554 383.30063 607.5625 357.03125 C 608.98061 334.98126 594.63231 320.77091 578.84375 308.84375 C 617.11997 303.13909 655.49966 298.1683 694.03125 294.4375 C 719.48746 303.05881 784.29137 257.31374 763.3125 310.8125 C 749.57192 416.75686 718.86469 519.08688 696.03125 623.1875 C 694.1855 621.55269 692.08063 620.06082 689.71875 618.75 C 575.20928 586.57952 415.2492 617.41417 302.15625 637.71875 L 243.625 655.4375 C 243.99377 651.45322 244.02048 647.46277 243.78125 643.65625 C 238.35572 557.32949 198.6887 477.81434 176.125 395.96875 C 172.3182 382.1603 175.61564 366.18422 185.875 354.5625 C 198.6221 340.12274 189.34641 318.06561 177.8125 307.5625 C 157.23707 288.82594 129.87566 293.88772 114.90625 312.65625 C 104.91207 325.18689 100.83665 351.0541 108.59375 366.8125 C 116.20322 382.27097 136.73482 392.664 138.71875 409.59375 C 149.29519 499.84734 155.90902 591.23491 185.84375 678.53125 C 190.39603 691.80672 205.47726 693.02368 216.40625 691.0625 C 227.53269 689.06592 234.57426 682.44567 238.75 673.96875 C 247.88902 683.49585 270.88125 682.68163 282.90625 689.96875 C 306.634 698.80392 332.45091 703.37479 352.9375 719.03125 C 454.17338 672.11285 575.45633 673.91909 685.1875 676.46875 C 684.5612 679.84679 683.94414 683.2412 683.34375 686.625 C 685.43347 736.40436 757.95582 740.56356 776.8125 700.59375 C 821.84411 598.78972 852.87246 492.61946 899.21875 383.90625 C 906.79904 350.69292 886.55204 319.907 878.5 288.5625 C 868.41803 259.8888 843.84985 230.27297 812.59375 230.25 z "
       transform="translate(0,52.362183)"
       id="path3896" />
  </g>
</svg>
