<?xml version="1.0" encoding="UTF-8" standalone="no"?>
<!-- Created with Inkscape (http://www.inkscape.org/) -->

<svg
   xmlns:dc="http://purl.org/dc/elements/1.1/"
   xmlns:cc="http://creativecommons.org/ns#"
   xmlns:rdf="http://www.w3.org/1999/02/22-rdf-syntax-ns#"
   xmlns:svg="http://www.w3.org/2000/svg"
   xmlns="http://www.w3.org/2000/svg"
   xmlns:sodipodi="http://sodipodi.sourceforge.net/DTD/sodipodi-0.dtd"
   xmlns:inkscape="http://www.inkscape.org/namespaces/inkscape"
   width="1000"
   height="1000"
   id="svg3173"
   version="1.1"
   inkscape:version="0.47 r22583"
   sodipodi:docname="56fd.svg"
   inkscape:export-filename="E:\chinese\yan\56fd.png"
   inkscape:export-xdpi="18.005705"
   inkscape:export-ydpi="18.005705">
  <title
     id="title3593">Guo</title>
  <defs
     id="defs3175">
    <inkscape:perspective
       sodipodi:type="inkscape:persp3d"
       inkscape:vp_x="0 : 526.18109 : 1"
       inkscape:vp_y="0 : 1000 : 0"
       inkscape:vp_z="744.09448 : 526.18109 : 1"
       inkscape:persp3d-origin="372.04724 : 350.78739 : 1"
       id="perspective3181" />
    <inkscape:perspective
       id="perspective3191"
       inkscape:persp3d-origin="0.5 : 0.33333333 : 1"
       inkscape:vp_z="1 : 0.5 : 1"
       inkscape:vp_y="0 : 1000 : 0"
       inkscape:vp_x="0 : 0.5 : 1"
       sodipodi:type="inkscape:persp3d" />
    <inkscape:perspective
       id="perspective4006"
       inkscape:persp3d-origin="0.5 : 0.33333333 : 1"
       inkscape:vp_z="1 : 0.5 : 1"
       inkscape:vp_y="0 : 1000 : 0"
       inkscape:vp_x="0 : 0.5 : 1"
       sodipodi:type="inkscape:persp3d" />
    <inkscape:perspective
       id="perspective4034"
       inkscape:persp3d-origin="0.5 : 0.33333333 : 1"
       inkscape:vp_z="1 : 0.5 : 1"
       inkscape:vp_y="0 : 1000 : 0"
       inkscape:vp_x="0 : 0.5 : 1"
       sodipodi:type="inkscape:persp3d" />
    <inkscape:perspective
       id="perspective4081"
       inkscape:persp3d-origin="0.5 : 0.33333333 : 1"
       inkscape:vp_z="1 : 0.5 : 1"
       inkscape:vp_y="0 : 1000 : 0"
       inkscape:vp_x="0 : 0.5 : 1"
       sodipodi:type="inkscape:persp3d" />
    <inkscape:perspective
       id="perspective4147"
       inkscape:persp3d-origin="0.5 : 0.33333333 : 1"
       inkscape:vp_z="1 : 0.5 : 1"
       inkscape:vp_y="0 : 1000 : 0"
       inkscape:vp_x="0 : 0.5 : 1"
       sodipodi:type="inkscape:persp3d" />
    <inkscape:perspective
       id="perspective3750"
       inkscape:persp3d-origin="0.5 : 0.33333333 : 1"
       inkscape:vp_z="1 : 0.5 : 1"
       inkscape:vp_y="0 : 1000 : 0"
       inkscape:vp_x="0 : 0.5 : 1"
       sodipodi:type="inkscape:persp3d" />
  </defs>
  <sodipodi:namedview
     id="base"
     pagecolor="#ffffff"
     bordercolor="#666666"
     borderopacity="1.0"
     inkscape:pageopacity="0.0"
     inkscape:pageshadow="2"
     inkscape:zoom="0.49497475"
     inkscape:cx="931.77582"
     inkscape:cy="545.16461"
     inkscape:document-units="px"
     inkscape:current-layer="layer1"
     showgrid="false"
     inkscape:window-width="1440"
     inkscape:window-height="840"
     inkscape:window-x="-4"
     inkscape:window-y="-4"
     inkscape:window-maximized="1" />
  <metadata
     id="metadata3178">
    <rdf:RDF>
      <cc:Work
         rdf:about="">
        <dc:format>image/svg+xml</dc:format>
        <dc:type
           rdf:resource="http://purl.org/dc/dcmitype/StillImage" />
        <dc:title>Guo</dc:title>
        <dc:date>2010-07-27</dc:date>
        <dc:creator>
          <cc:Agent>
            <dc:title>Alex Amies</dc:title>
          </cc:Agent>
        </dc:creator>
        <dc:rights>
          <cc:Agent>
            <dc:title>@ Alex Amies 2010</dc:title>
          </cc:Agent>
        </dc:rights>
        <dc:publisher>
          <cc:Agent>
            <dc:title>chinesenotes.com</dc:title>
          </cc:Agent>
        </dc:publisher>
        <dc:source>Yan Qin Ceremonial Inscription</dc:source>
        <dc:language>Chinese 中文</dc:language>
        <dc:description>Tracing from Tang Dynasty Ceremonial Inscription by Yan Zhenqing 颜真卿 (709－785)</dc:description>
        <cc:license
           rdf:resource="http://creativecommons.org/licenses/by/3.0/" />
      </cc:Work>
      <cc:License
         rdf:about="http://creativecommons.org/licenses/by/3.0/">
        <cc:permits
           rdf:resource="http://creativecommons.org/ns#Reproduction" />
        <cc:permits
           rdf:resource="http://creativecommons.org/ns#Distribution" />
        <cc:requires
           rdf:resource="http://creativecommons.org/ns#Notice" />
        <cc:requires
           rdf:resource="http://creativecommons.org/ns#Attribution" />
        <cc:permits
           rdf:resource="http://creativecommons.org/ns#DerivativeWorks" />
      </cc:License>
    </rdf:RDF>
  </metadata>
  <g
     inkscape:label="Layer 1"
     inkscape:groupmode="layer"
     id="layer1"
     transform="translate(0,-52.362183)">
    <g
       transform="matrix(4.7418068,0,0,4.7418068,-2302.0941,-3975.9061)"
       id="g4171"
       style="fill:#000000;fill-opacity:1">
      <path
         id="path4128"
         d="m 519.64286,886.29075 c -6.18296,1.67333 -3.26589,9.47472 -3.53806,14.16389 0.83951,6.2392 0.60471,12.51563 -0.26724,18.72954 -1.1533,10.26186 -1.92877,20.59368 -1.05817,30.90875 0.54283,18.98334 2.02786,37.94987 2.17645,56.93557 -0.58848,8.7487 -2.03727,18.178 1.96362,26.3427 3.47252,6.6634 11.30845,-1.0054 9.81076,-6.428 1.01478,-7.1235 0.87914,-14.3137 -6.7e-4,-21.4353 -1.34163,-15.91747 -3.16624,-31.83695 -2.64364,-47.84066 -0.0297,-14.26856 -0.15866,-28.54236 0.34266,-42.80506 2.64798,-3.52209 3.1836,-10.08528 8.66111,-9.98276 8.16435,-2.23673 -0.64565,-7.74409 -3.39074,-11.22968 -3.37875,-4.57089 -6.70763,-6.41515 -12.05608,-7.35899 z"
         style="fill:#000000;fill-opacity:1;stroke:#000000;stroke-width:1px;stroke-linecap:butt;stroke-linejoin:miter;stroke-opacity:1"
         sodipodi:nodetypes="ccccccccccccc" />
      <path
         id="path4130"
         d="m 525.71429,877.36218 c -1.4162,2.89384 -2.68037,6.98741 0.35714,9.28572 35.53609,-9.31661 71.75406,-17.10972 108.57143,-22.5 4.11872,3.64487 5.92556,9.06825 8.92857,13.57143 0.75445,47.60214 0.35714,95.24189 0.35714,142.85717 -1.31975,3.3723 -3.99882,4.1339 -7.36723,3.5714 -2.24189,0.034 -7.04923,-3.3775 -5.84705,1.005 3.59912,3.2836 7.939,6.0151 9.98047,10.678 1.43355,6.9899 -0.58339,12.7172 5.49302,17.8472 12.25888,-2.0673 16.98368,-5.9867 19.52651,-18.1333 -2.53904,-48.37399 -0.0493,-107.95898 -1.35055,-155.00993 -3.50599,-5.71557 -8.15274,-10.612 -13.43581,-14.69693 -4.5007,-3.08293 -9.29362,-6.05367 -14.27179,-8.11861 -6.98281,-0.17761 -13.94157,-0.0676 -20.77561,1.53496 -30.12955,5.57778 -60.76771,9.28835 -90.16624,18.10789 z"
         style="fill:#000000;fill-opacity:1;stroke:#000000;stroke-width:1px;stroke-linecap:butt;stroke-linejoin:miter;stroke-opacity:1"
         sodipodi:nodetypes="ccccccccccccccc" />
      <path
         id="path4132"
         d="m 536.42857,913.43361 c -2.22949,2.22144 -0.84532,6.37668 2.33913,6.4855 3.04683,0.95898 5.62687,-0.89517 7.56083,-2.96758 19.59454,-4.05537 39.22912,-8.04644 58.82436,-12.14815 3.75169,-1.19306 8.13612,-3.44047 4.97309,-7.53507 -2.70149,-1.71875 -5.98199,-1.84229 -8.95574,-0.64188 -19.83969,5.89054 -40.36394,9.30436 -60.32713,14.59992 -1.47152,0.73575 -2.94303,1.47151 -4.41454,2.20726 z"
         style="fill:#000000;fill-opacity:1;stroke:#000000;stroke-width:1px;stroke-linecap:butt;stroke-linejoin:miter;stroke-opacity:1"
         sodipodi:nodetypes="cccccccc" />
      <path
         id="path4134"
         d="m 576.78572,871.29075 c -5.03811,3.50996 -0.69725,9.6583 0.55073,14.02537 14.72992,38.49234 25.00364,83.24882 61.44066,106.8188 4.48467,1.84217 11.78988,1.33313 10.32418,-5.22986 -0.97874,-5.82814 -7.03573,-8.44146 -10.93705,-12.23604 -22.9632,-14.88882 -32.72816,-39.86998 -40.30012,-65.25631 -3.027,-10.40158 -5.30113,-21.11554 -9.6686,-31.06052 -2.57572,-4.41029 -6.95039,-5.57497 -11.4098,-7.06144 z"
         style="fill:#000000;fill-opacity:1;stroke:#000000;stroke-width:1px;stroke-linecap:butt;stroke-linejoin:miter;stroke-opacity:1"
         sodipodi:nodetypes="cccccccc" />
      <path
         id="path4136"
         d="m 606.78572,877.71933 c 2.81836,3.78391 5.98474,7.3713 8.0012,11.68055 3.26596,6.45123 6.9195,12.66476 10.92737,18.67659 1.78571,-0.35714 3.57143,-0.71429 5.35714,-1.07143 5.62681,-10.92951 3.30365,-13.37987 -0.71429,-24.28571 -5.53781,-6.90428 -8.07397,-8.55313 -16.42857,-9.64286 -3.18016,0.93108 -5.27352,2.02579 -7.14285,4.64286 z"
         style="fill:#000000;fill-opacity:1;stroke:#000000;stroke-width:1px;stroke-linecap:butt;stroke-linejoin:miter;stroke-opacity:1"
         sodipodi:nodetypes="ccccccc" />
      <path
         id="path4138"
         d="m 559.28572,916.6479 c -1.40561,1.38658 -3.32247,2.42892 -3.92763,4.44132 -4.44115,10.04878 -8.83105,20.11098 -13.92952,29.84439 1.30952,0.2381 2.61905,0.47619 3.92857,0.71429 1.5248,-1.72313 2.72466,-3.84335 4.79542,-4.98266 3.41358,-2.29849 6.87931,-4.54071 10.26035,-6.87432 5.51648,-5.67263 7.56206,-10.6517 7.08709,-18.50017 -2.73809,-1.54762 -5.47619,-3.09523 -8.21428,-4.64285 z"
         style="fill:#000000;fill-opacity:1;stroke:#000000;stroke-width:1px;stroke-linecap:butt;stroke-linejoin:miter;stroke-opacity:1"
         sodipodi:nodetypes="cccccccc" />
      <path
         id="path4140"
         d="m 536.78572,950.93361 c -1.51444,4.77517 -2.14862,11.39678 0.29948,15.94424 3.36531,2.88441 7.62664,1.25624 11.48624,0.48433 -0.34252,-3.55416 3.62117,-4.69589 6.14033,-5.9593 7.4641,-3.7454 14.86285,-7.64247 22.3892,-11.25063 2.82919,-0.54959 5.29882,1.57663 8.10599,1.66139 2.83305,0.71218 6.4343,0.27402 6.7591,-3.31964 0.33003,-6.4574 -3.29597,-12.09588 -6.25176,-17.56039 -3.1222,-1.8836 -6.82682,-5.07656 -10.03377,-3.27635 -0.30502,3.70022 -0.42259,7.448 0.42367,11.08996 0.0796,2.52794 2.104,6.6261 -1.75356,7.06148 -8.72707,1.59603 -17.37901,3.71033 -26.13787,5.12491 -3.80902,0 -7.61803,0 -11.42705,0 z"
         style="fill:#000000;fill-opacity:1;stroke:#000000;stroke-width:1px;stroke-linecap:butt;stroke-linejoin:miter;stroke-opacity:1"
         sodipodi:nodetypes="cccsccccccccc" />
      <path
         id="path4142"
         d="m 537.85714,985.93361 c -2.76233,1.18383 -2.44795,4.77481 -1.7909,7.16477 0.36142,2.64829 1.63283,5.03441 3.52187,6.90902 1.99477,1.9807 4.86702,3.7816 7.78394,3.1883 2.99985,-1.2668 5.03222,-4.12099 7.78217,-5.88636 9.46565,-7.46668 18.95692,-14.91472 27.94828,-22.9535 3.48964,-3.0455 6.97929,-6.09101 10.46893,-9.13651 0.2381,-1.19048 0.47619,-2.38095 0.71429,-3.57143 -2.78356,0.51361 -5.47531,1.43046 -7.71055,3.2178 -10.21594,6.36151 -20.34103,12.8909 -30.62499,19.12955 -3.96096,1.80044 -7.99649,3.49663 -12.28701,4.32614 -0.83456,0.0692 -1.81039,0.86551 -2.4707,0.0379 -1.11178,-0.80857 -2.22355,-1.61713 -3.33533,-2.42569 z"
         style="fill:#000000;fill-opacity:1;stroke:#000000;stroke-width:1px;stroke-linecap:butt;stroke-linejoin:miter;stroke-opacity:1" />
      <path
         id="path4144"
         d="m 617.77194,920.34713 c -1.23216,9.12156 -2.3697,18.74578 -4.44093,27.94119 -6.61223,20.2712 -18.77641,37.24198 -30.47387,54.78818 -0.49155,3.8068 1.00802,3.8234 4.28572,4.6428 2.37992,-5.1131 6.80581,-8.68847 9.72423,-13.46563 16.70155,-22.91649 26.04206,-43.67525 33.13291,-70.46292 -1.97242,-5.86352 -7.20207,-7.67503 -12.22806,-3.44362 z"
         style="fill:#000000;fill-opacity:1;stroke:#000000;stroke-width:1px;stroke-linecap:butt;stroke-linejoin:miter;stroke-opacity:1"
         sodipodi:nodetypes="ccccccc" />
      <path
         id="path4146"
         d="m 539.64286,1015.5765 c -3.18045,1.9508 -1.94556,4.8449 -1.27376,7.7848 -0.19852,4.0185 5.12679,5.5409 8.43415,4.4952 27.02872,-12.2411 56.71606,-12.1537 85.69675,-14.0657 3.38274,-0.877 4.15923,-5.1162 1.69969,-7.4269 -13.42838,-5.1887 -28.86046,-4.2043 -42.90825,-2.5375 -10.943,1.5445 -21.86667,3.2396 -32.65375,5.6686 -6.78506,0.7409 -12.88157,3.2796 -18.99483,6.0815 z"
         style="fill:#000000;fill-opacity:1;stroke:#000000;stroke-width:1px;stroke-linecap:butt;stroke-linejoin:miter;stroke-opacity:1"
         sodipodi:nodetypes="cccccccc" />
    </g>
  </g>
</svg>
