<?xml version="1.0" encoding="UTF-8" standalone="no"?>
<!-- Created with Inkscape (http://www.inkscape.org/) -->

<svg
   xmlns:dc="http://purl.org/dc/elements/1.1/"
   xmlns:cc="http://creativecommons.org/ns#"
   xmlns:rdf="http://www.w3.org/1999/02/22-rdf-syntax-ns#"
   xmlns:svg="http://www.w3.org/2000/svg"
   xmlns="http://www.w3.org/2000/svg"
   xmlns:sodipodi="http://sodipodi.sourceforge.net/DTD/sodipodi-0.dtd"
   xmlns:inkscape="http://www.inkscape.org/namespaces/inkscape"
   width="1000"
   height="1000"
   id="svg3173"
   version="1.1"
   inkscape:version="0.47 r22583"
   sodipodi:docname="570b.svg"
   inkscape:export-filename="E:\chinese\yan\56fd.png"
   inkscape:export-xdpi="18.005705"
   inkscape:export-ydpi="18.005705">
  <title
     id="title3593">Guo</title>
  <defs
     id="defs3175">
    <inkscape:perspective
       sodipodi:type="inkscape:persp3d"
       inkscape:vp_x="0 : 526.18109 : 1"
       inkscape:vp_y="0 : 1000 : 0"
       inkscape:vp_z="744.09448 : 526.18109 : 1"
       inkscape:persp3d-origin="372.04724 : 350.78739 : 1"
       id="perspective3181" />
    <inkscape:perspective
       id="perspective3191"
       inkscape:persp3d-origin="0.5 : 0.33333333 : 1"
       inkscape:vp_z="1 : 0.5 : 1"
       inkscape:vp_y="0 : 1000 : 0"
       inkscape:vp_x="0 : 0.5 : 1"
       sodipodi:type="inkscape:persp3d" />
    <inkscape:perspective
       id="perspective4006"
       inkscape:persp3d-origin="0.5 : 0.33333333 : 1"
       inkscape:vp_z="1 : 0.5 : 1"
       inkscape:vp_y="0 : 1000 : 0"
       inkscape:vp_x="0 : 0.5 : 1"
       sodipodi:type="inkscape:persp3d" />
    <inkscape:perspective
       id="perspective4034"
       inkscape:persp3d-origin="0.5 : 0.33333333 : 1"
       inkscape:vp_z="1 : 0.5 : 1"
       inkscape:vp_y="0 : 1000 : 0"
       inkscape:vp_x="0 : 0.5 : 1"
       sodipodi:type="inkscape:persp3d" />
    <inkscape:perspective
       id="perspective4081"
       inkscape:persp3d-origin="0.5 : 0.33333333 : 1"
       inkscape:vp_z="1 : 0.5 : 1"
       inkscape:vp_y="0 : 1000 : 0"
       inkscape:vp_x="0 : 0.5 : 1"
       sodipodi:type="inkscape:persp3d" />
    <inkscape:perspective
       id="perspective4147"
       inkscape:persp3d-origin="0.5 : 0.33333333 : 1"
       inkscape:vp_z="1 : 0.5 : 1"
       inkscape:vp_y="0 : 1000 : 0"
       inkscape:vp_x="0 : 0.5 : 1"
       sodipodi:type="inkscape:persp3d" />
    <inkscape:perspective
       id="perspective3750"
       inkscape:persp3d-origin="0.5 : 0.33333333 : 1"
       inkscape:vp_z="1 : 0.5 : 1"
       inkscape:vp_y="0 : 1000 : 0"
       inkscape:vp_x="0 : 0.5 : 1"
       sodipodi:type="inkscape:persp3d" />
  </defs>
  <sodipodi:namedview
     id="base"
     pagecolor="#ffffff"
     bordercolor="#666666"
     borderopacity="1.0"
     inkscape:pageopacity="0.0"
     inkscape:pageshadow="2"
     inkscape:zoom="0.49497475"
     inkscape:cx="649.94326"
     inkscape:cy="545.16461"
     inkscape:document-units="px"
     inkscape:current-layer="layer1"
     showgrid="false"
     inkscape:window-width="1440"
     inkscape:window-height="840"
     inkscape:window-x="-4"
     inkscape:window-y="-4"
     inkscape:window-maximized="1" />
  <metadata
     id="metadata3178">
    <rdf:RDF>
      <cc:Work
         rdf:about="">
        <dc:format>image/svg+xml</dc:format>
        <dc:type
           rdf:resource="http://purl.org/dc/dcmitype/StillImage" />
        <dc:title>Guo</dc:title>
        <dc:date>2010-07-27</dc:date>
        <dc:creator>
          <cc:Agent>
            <dc:title>Alex Amies</dc:title>
          </cc:Agent>
        </dc:creator>
        <dc:rights>
          <cc:Agent>
            <dc:title>@ Alex Amies 2010</dc:title>
          </cc:Agent>
        </dc:rights>
        <dc:publisher>
          <cc:Agent>
            <dc:title>chinesenotes.com</dc:title>
          </cc:Agent>
        </dc:publisher>
        <dc:source>Yan Qin Ceremonial Inscription</dc:source>
        <dc:language>Chinese 中文</dc:language>
        <dc:description>Tracing from Tang Dynasty Ceremonial Inscription by Yan Zhenqing 颜真卿 (709－785)</dc:description>
        <cc:license
           rdf:resource="http://creativecommons.org/licenses/by/3.0/" />
      </cc:Work>
      <cc:License
         rdf:about="http://creativecommons.org/licenses/by/3.0/">
        <cc:permits
           rdf:resource="http://creativecommons.org/ns#Reproduction" />
        <cc:permits
           rdf:resource="http://creativecommons.org/ns#Distribution" />
        <cc:requires
           rdf:resource="http://creativecommons.org/ns#Notice" />
        <cc:requires
           rdf:resource="http://creativecommons.org/ns#Attribution" />
        <cc:permits
           rdf:resource="http://creativecommons.org/ns#DerivativeWorks" />
      </cc:License>
    </rdf:RDF>
  </metadata>
  <g
     inkscape:label="Layer 1"
     inkscape:groupmode="layer"
     id="layer1"
     transform="translate(0,-52.362183)">
    <path
       style="fill:#000000;stroke:#000000;stroke-width:4.74180697999999980px;stroke-linecap:butt;stroke-linejoin:miter;stroke-opacity:1;fill-opacity:1"
       d="M 692 38.59375 C 667.23179 38.741368 642.58552 40.456978 618.28125 46.15625 C 475.41274 72.605005 330.15214 90.17945 190.75 132 C 184.03465 145.72203 178.03422 165.13311 192.4375 176.03125 C 268.259 156.15289 344.74858 137.76067 421.84375 121.1875 C 420.17445 136.73771 431.40385 155.2757 435.53125 169.71875 C 445.06799 194.64023 454.19404 220.14609 463.3125 245.84375 C 396.41283 261.78355 328.78785 275.00153 262.46875 292.59375 C 255.49108 296.08254 248.50887 299.57372 241.53125 303.0625 C 230.95944 313.59614 237.52496 333.2965 252.625 333.8125 C 267.07248 338.3598 279.32953 329.57697 288.5 319.75 C 350.89939 306.83556 413.38711 294.04693 475.84375 281.15625 C 505.91662 365.84017 537.55032 451.27481 583.75 525.8125 C 551.20211 597.66443 505.74424 662.03986 461.6875 728.125 C 461.18375 732.0263 461.16317 735.08907 461.53125 737.53125 C 423.1036 743.37417 384.7856 750.01888 346.84375 758.5625 C 314.6703 762.0757 285.76915 774.12019 256.78125 787.40625 C 241.70017 796.65657 247.56445 810.37206 250.75 824.3125 C 249.80866 843.36745 275.06714 850.58351 290.75 845.625 C 418.91497 787.58007 559.67292 788.00383 697.09375 778.9375 C 713.13405 774.77893 716.81892 754.67565 705.15625 743.71875 C 641.48147 719.11494 568.29941 723.78386 501.6875 731.6875 C 498.47579 732.1408 495.27338 732.60307 492.0625 733.0625 C 503.36859 717.02797 517.75817 703.2507 528.125 686.28125 C 559.28619 643.52443 585.04521 602.35976 606.875 560.40625 C 639.15504 605.07661 678.0685 644.67858 726.875 676.25 C 734.23156 679.27186 743.18656 680.96728 751.46875 680.59375 C 751.38142 724.10088 751.28125 767.59313 751.28125 811.09375 C 745.02325 827.08454 732.3161 830.69851 716.34375 828.03125 C 705.71314 828.19247 682.92449 812.03153 688.625 832.8125 C 705.69133 848.3827 726.28849 861.32692 735.96875 883.4375 C 742.76637 916.58225 733.18684 943.73701 762 968.0625 C 820.12924 958.2597 842.53614 939.69058 854.59375 882.09375 C 842.55411 652.71364 854.35778 370.16902 848.1875 147.0625 C 831.56277 119.96038 809.52005 96.74495 784.46875 77.375 C 763.1273 62.75634 740.41802 48.666549 716.8125 38.875 C 708.53472 38.664452 700.25607 38.544544 692 38.59375 z M 707.25 69.34375 C 726.78017 86.62702 735.35406 112.36554 749.59375 133.71875 C 752.14005 294.37776 751.93241 455.11018 751.59375 615.84375 C 742.36845 608.25873 732.1642 601.40872 723.96875 593.4375 C 686.95765 569.44034 657.16182 539.90755 632.5625 506.65625 C 653.57556 458.49368 670.44371 408.09116 685.25 352.15625 C 675.89717 324.35257 651.08227 315.77922 627.25 335.84375 C 621.46851 378.64352 616.12732 423.78081 606.5 466.96875 C 573.85236 411.08157 551.90698 347.80807 532.875 284 C 531.53396 279.39182 530.22722 274.75486 528.9375 270.125 C 541.77075 267.45782 554.61037 264.81 567.4375 262.125 C 585.22729 256.46774 605.99848 245.82206 591 226.40625 C 578.19006 218.25627 562.6322 217.68289 548.53125 223.375 C 538.55217 226.33786 528.54508 229.15176 518.5 231.875 C 509.72115 199.55481 500.45925 167.36623 487 136.71875 C 480.17558 125.0336 470.70164 118.15127 459.96875 113.125 C 541.72287 96.249455 624.16628 81.507693 707.25 69.34375 z M 609.03125 111.6875 C 593.95154 116.1025 584.02025 121.30911 575.15625 133.71875 C 588.52037 151.66132 603.53208 168.66012 613.09375 189.09375 C 628.5803 219.68424 645.93295 249.14931 664.9375 277.65625 L 690.3125 272.5625 C 716.99374 220.73687 705.9898 209.11964 686.9375 157.40625 C 660.67828 124.66749 648.64715 116.85479 609.03125 111.6875 z M 161.9375 174.34375 C 132.6191 182.27835 146.47808 219.26486 145.1875 241.5 C 149.16829 271.08508 148.04087 300.84733 143.90625 330.3125 C 138.43752 378.97225 134.74679 427.96293 138.875 476.875 C 141.449 566.89033 148.51416 656.84848 149.21875 746.875 C 146.42829 788.35964 139.55981 833.06582 158.53125 871.78125 C 174.99727 903.37781 212.13301 867.02542 205.03125 841.3125 C 209.84314 807.53424 209.20296 773.4255 205.03125 739.65625 C 198.6695 664.17868 190.02193 588.699 192.5 512.8125 C 192.35916 445.15375 191.74784 377.47471 194.125 309.84375 C 206.68121 293.14268 209.21421 262.01387 235.1875 262.5 C 273.90127 251.89386 232.14169 225.778 219.125 209.25 C 203.10362 187.57573 187.29881 178.81925 161.9375 174.34375 z M 349.9375 318.3125 C 343.27237 324.88739 334.18205 329.80133 331.3125 339.34375 C 310.25342 386.99312 289.42596 434.72105 265.25 480.875 L 243.25 480.875 C 236.06882 503.51793 233.04784 534.90558 244.65625 556.46875 C 260.6139 570.14607 280.82353 562.4415 299.125 558.78125 C 297.50084 541.92811 316.30463 536.5221 328.25 530.53125 C 363.64332 512.77129 398.71776 494.26545 434.40625 477.15625 C 447.82173 474.5502 459.53269 484.66058 472.84375 485.0625 C 486.27753 488.43952 503.36611 486.35294 504.90625 469.3125 C 506.47119 438.69276 489.26579 411.9429 475.25 386.03125 C 460.44513 377.09958 442.86299 361.96376 427.65625 370.5 C 426.20991 388.04573 425.6747 405.82428 429.6875 423.09375 C 430.06495 435.08075 439.6668 454.49801 421.375 456.5625 C 379.99292 464.13056 338.97032 474.16733 297.4375 480.875 L 286.71875 480.875 C 292.70717 473.4667 298.1259 465.30112 306.625 460.625 C 322.81154 449.72601 339.24901 439.09677 355.28125 428.03125 C 381.43933 401.13273 391.12721 377.52843 388.875 340.3125 C 375.89151 332.97399 362.92099 325.65101 349.9375 318.3125 z M 515.90625 531.6875 C 502.70714 534.12294 489.94283 538.46228 479.34375 546.9375 C 430.90174 577.10255 382.88956 608.07377 334.125 637.65625 C 315.3429 646.19359 296.18856 654.22287 275.84375 658.15625 C 271.88642 658.48438 267.25607 662.26812 264.125 658.34375 C 258.85316 654.50967 253.58435 650.67778 248.3125 646.84375 C 235.21407 652.45724 236.72815 669.47977 239.84375 680.8125 C 241.55754 693.37018 247.57379 704.67346 256.53125 713.5625 C 265.99006 722.9546 279.60603 731.50082 293.4375 728.6875 C 307.66221 722.68058 317.30401 709.15229 330.34375 700.78125 C 375.22803 665.3757 420.23971 630.05584 462.875 591.9375 L 512.5 548.625 C 513.62903 542.97998 514.77722 537.33253 515.90625 531.6875 z "
       transform="translate(0,52.362183)"
       id="path4128" />
  </g>
</svg>
