<?xml version="1.0" encoding="UTF-8" standalone="no"?>
<!-- Created with Inkscape (http://www.inkscape.org/) -->

<svg
   xmlns:dc="http://purl.org/dc/elements/1.1/"
   xmlns:cc="http://creativecommons.org/ns#"
   xmlns:rdf="http://www.w3.org/1999/02/22-rdf-syntax-ns#"
   xmlns:svg="http://www.w3.org/2000/svg"
   xmlns="http://www.w3.org/2000/svg"
   xmlns:sodipodi="http://sodipodi.sourceforge.net/DTD/sodipodi-0.dtd"
   xmlns:inkscape="http://www.inkscape.org/namespaces/inkscape"
   width="1000"
   height="1000"
   id="svg3173"
   version="1.1"
   inkscape:version="0.47 r22583"
   sodipodi:docname="57ce.svg"
   inkscape:export-filename="E:\chinese\yan\57ce.png"
   inkscape:export-xdpi="18.005705"
   inkscape:export-ydpi="18.005705">
  <title
     id="title4490">Cheng</title>
  <defs
     id="defs3175">
    <inkscape:perspective
       sodipodi:type="inkscape:persp3d"
       inkscape:vp_x="0 : 526.18109 : 1"
       inkscape:vp_y="0 : 1000 : 0"
       inkscape:vp_z="744.09448 : 526.18109 : 1"
       inkscape:persp3d-origin="372.04724 : 350.78739 : 1"
       id="perspective3181" />
    <inkscape:perspective
       id="perspective3191"
       inkscape:persp3d-origin="0.5 : 0.33333333 : 1"
       inkscape:vp_z="1 : 0.5 : 1"
       inkscape:vp_y="0 : 1000 : 0"
       inkscape:vp_x="0 : 0.5 : 1"
       sodipodi:type="inkscape:persp3d" />
    <inkscape:perspective
       id="perspective4006"
       inkscape:persp3d-origin="0.5 : 0.33333333 : 1"
       inkscape:vp_z="1 : 0.5 : 1"
       inkscape:vp_y="0 : 1000 : 0"
       inkscape:vp_x="0 : 0.5 : 1"
       sodipodi:type="inkscape:persp3d" />
    <inkscape:perspective
       id="perspective4034"
       inkscape:persp3d-origin="0.5 : 0.33333333 : 1"
       inkscape:vp_z="1 : 0.5 : 1"
       inkscape:vp_y="0 : 1000 : 0"
       inkscape:vp_x="0 : 0.5 : 1"
       sodipodi:type="inkscape:persp3d" />
    <inkscape:perspective
       id="perspective4081"
       inkscape:persp3d-origin="0.5 : 0.33333333 : 1"
       inkscape:vp_z="1 : 0.5 : 1"
       inkscape:vp_y="0 : 1000 : 0"
       inkscape:vp_x="0 : 0.5 : 1"
       sodipodi:type="inkscape:persp3d" />
    <inkscape:perspective
       id="perspective4147"
       inkscape:persp3d-origin="0.5 : 0.33333333 : 1"
       inkscape:vp_z="1 : 0.5 : 1"
       inkscape:vp_y="0 : 1000 : 0"
       inkscape:vp_x="0 : 0.5 : 1"
       sodipodi:type="inkscape:persp3d" />
    <inkscape:perspective
       id="perspective3801"
       inkscape:persp3d-origin="0.5 : 0.33333333 : 1"
       inkscape:vp_z="1 : 0.5 : 1"
       inkscape:vp_y="0 : 1000 : 0"
       inkscape:vp_x="0 : 0.5 : 1"
       sodipodi:type="inkscape:persp3d" />
    <inkscape:perspective
       id="perspective3122"
       inkscape:persp3d-origin="0.5 : 0.33333333 : 1"
       inkscape:vp_z="1 : 0.5 : 1"
       inkscape:vp_y="0 : 1000 : 0"
       inkscape:vp_x="0 : 0.5 : 1"
       sodipodi:type="inkscape:persp3d" />
    <inkscape:perspective
       id="perspective3854"
       inkscape:persp3d-origin="0.5 : 0.33333333 : 1"
       inkscape:vp_z="1 : 0.5 : 1"
       inkscape:vp_y="0 : 1000 : 0"
       inkscape:vp_x="0 : 0.5 : 1"
       sodipodi:type="inkscape:persp3d" />
    <inkscape:perspective
       id="perspective3922"
       inkscape:persp3d-origin="0.5 : 0.33333333 : 1"
       inkscape:vp_z="1 : 0.5 : 1"
       inkscape:vp_y="0 : 1000 : 0"
       inkscape:vp_x="0 : 0.5 : 1"
       sodipodi:type="inkscape:persp3d" />
    <inkscape:perspective
       id="perspective3945"
       inkscape:persp3d-origin="0.5 : 0.33333333 : 1"
       inkscape:vp_z="1 : 0.5 : 1"
       inkscape:vp_y="0 : 1000 : 0"
       inkscape:vp_x="0 : 0.5 : 1"
       sodipodi:type="inkscape:persp3d" />
    <inkscape:perspective
       id="perspective3972"
       inkscape:persp3d-origin="0.5 : 0.33333333 : 1"
       inkscape:vp_z="1 : 0.5 : 1"
       inkscape:vp_y="0 : 1000 : 0"
       inkscape:vp_x="0 : 0.5 : 1"
       sodipodi:type="inkscape:persp3d" />
    <inkscape:perspective
       id="perspective3995"
       inkscape:persp3d-origin="0.5 : 0.33333333 : 1"
       inkscape:vp_z="1 : 0.5 : 1"
       inkscape:vp_y="0 : 1000 : 0"
       inkscape:vp_x="0 : 0.5 : 1"
       sodipodi:type="inkscape:persp3d" />
    <inkscape:perspective
       id="perspective3802"
       inkscape:persp3d-origin="0.5 : 0.33333333 : 1"
       inkscape:vp_z="1 : 0.5 : 1"
       inkscape:vp_y="0 : 1000 : 0"
       inkscape:vp_x="0 : 0.5 : 1"
       sodipodi:type="inkscape:persp3d" />
    <inkscape:perspective
       id="perspective3833"
       inkscape:persp3d-origin="0.5 : 0.33333333 : 1"
       inkscape:vp_z="1 : 0.5 : 1"
       inkscape:vp_y="0 : 1000 : 0"
       inkscape:vp_x="0 : 0.5 : 1"
       sodipodi:type="inkscape:persp3d" />
    <inkscape:perspective
       id="perspective3913"
       inkscape:persp3d-origin="0.5 : 0.33333333 : 1"
       inkscape:vp_z="1 : 0.5 : 1"
       inkscape:vp_y="0 : 1000 : 0"
       inkscape:vp_x="0 : 0.5 : 1"
       sodipodi:type="inkscape:persp3d" />
    <inkscape:perspective
       id="perspective4500"
       inkscape:persp3d-origin="0.5 : 0.33333333 : 1"
       inkscape:vp_z="1 : 0.5 : 1"
       inkscape:vp_y="0 : 1000 : 0"
       inkscape:vp_x="0 : 0.5 : 1"
       sodipodi:type="inkscape:persp3d" />
  </defs>
  <sodipodi:namedview
     id="base"
     pagecolor="#ffffff"
     bordercolor="#666666"
     borderopacity="1.0"
     inkscape:pageopacity="0.0"
     inkscape:pageshadow="2"
     inkscape:zoom="0.49497475"
     inkscape:cx="483.07102"
     inkscape:cy="534.97897"
     inkscape:document-units="px"
     inkscape:current-layer="g4634"
     showgrid="false"
     inkscape:window-width="1440"
     inkscape:window-height="840"
     inkscape:window-x="-4"
     inkscape:window-y="-4"
     inkscape:window-maximized="1" />
  <metadata
     id="metadata3178">
    <rdf:RDF>
      <cc:Work
         rdf:about="">
        <dc:format>image/svg+xml</dc:format>
        <dc:type
           rdf:resource="http://purl.org/dc/dcmitype/StillImage" />
        <dc:title>Cheng</dc:title>
        <dc:date>2010-08-21</dc:date>
        <dc:creator>
          <cc:Agent>
            <dc:title>Alex Amies</dc:title>
          </cc:Agent>
        </dc:creator>
        <dc:rights>
          <cc:Agent>
            <dc:title>@ Alex Amies 2010</dc:title>
          </cc:Agent>
        </dc:rights>
        <dc:publisher>
          <cc:Agent>
            <dc:title>chinesenotes.com</dc:title>
          </cc:Agent>
        </dc:publisher>
        <dc:source>Yan Qin Ceremonial Inscription</dc:source>
        <dc:language>Chinese 中文</dc:language>
        <dc:description>Tracing from Tang Dynasty Ceremonial Inscription by Yan Zhenqing 颜真卿 (709－785)</dc:description>
        <cc:license
           rdf:resource="http://creativecommons.org/licenses/by/3.0/" />
      </cc:Work>
      <cc:License
         rdf:about="http://creativecommons.org/licenses/by/3.0/">
        <cc:permits
           rdf:resource="http://creativecommons.org/ns#Reproduction" />
        <cc:permits
           rdf:resource="http://creativecommons.org/ns#Distribution" />
        <cc:requires
           rdf:resource="http://creativecommons.org/ns#Notice" />
        <cc:requires
           rdf:resource="http://creativecommons.org/ns#Attribution" />
        <cc:permits
           rdf:resource="http://creativecommons.org/ns#DerivativeWorks" />
      </cc:License>
    </rdf:RDF>
  </metadata>
  <g
     inkscape:label="Layer 1"
     inkscape:groupmode="layer"
     id="layer1"
     transform="translate(0,-52.362183)">
    <g
       transform="matrix(4.7609464,0,0,4.7609464,-444.07486,-2879.5352)"
       id="g4634"
       style="fill:#000000;fill-opacity:1">
      <path
         style="fill:#000000;stroke:#000000;stroke-width:4.75137663000000020px;stroke-linecap:butt;stroke-linejoin:miter;stroke-opacity:1;fill-opacity:1"
         d="M 196.46875 115.53125 C 163.58304 146.92988 185.47455 199.35435 194.375 236.9375 C 197.92381 253.70746 207.39584 269.04973 205.875 286.625 C 206.36581 310.1431 205.93511 333.64811 205.28125 357.15625 C 157.24784 372.03899 109.45196 387.82781 61.46875 402.8125 C 53.252023 405.34461 39.812939 403.94488 36.96875 410.8125 C 34.601703 446.01356 77.214261 475.17004 109.5 464 C 141.4042 459.4872 172.46103 452.35356 203.0625 443.75 C 203.02024 448.18665 202.96472 452.62524 202.96875 457.0625 C 201.65154 520.83395 200.59514 585.01083 188.5 647.84375 C 187.04516 655.68072 185.32585 664.108 187.53125 669.03125 C 187.53511 669.03986 187.52737 669.05391 187.53125 669.0625 C 153.528 683.53003 118.92945 696.88247 85.46875 712.125 C 68.87171 716.57739 48.519615 718.13599 35.25 729.8125 C 29.91296 742.26614 27.068789 759.52813 33.71875 773.46875 C 67.677962 814.13371 115.0356 782.14476 156.6875 781.3125 C 168.34201 777.79726 175.63215 766.26827 184.21875 758.125 C 232.44304 698.25781 302.95692 656.29053 366.3125 610.46875 C 384.03365 604.65359 371.29031 585.42444 357.3125 589.65625 C 343.59602 589.20444 328.21712 590.85769 316.5 597.9375 C 297.60866 612.64427 277.4665 625.21615 256.59375 636.46875 C 266.03181 569.31201 277.19473 502.2417 279.0625 434.3125 C 279.32243 429.3598 279.63215 424.39158 279.9375 419.4375 C 316.05469 407.05733 351.93469 393.89958 388.21875 381.9375 C 396.05436 368.5232 409.33648 353.21964 400.9375 337.90625 C 385.61163 330.36424 371.19185 315.44213 353.46875 316.28125 C 330.55675 321.5364 307.79952 327.38383 285.15625 333.625 C 285.92045 313.74701 286.07031 293.88071 285 274 C 288.69221 252.41763 305.10653 234.95234 308.5625 213 C 312.95995 190.13641 300.19682 166.37839 279.3125 156.5 C 253.17786 146.0851 225.52642 115.79391 196.46875 115.53125 z "
         transform="matrix(0.21004227,0,0,0.21004227,93.274493,615.82239)"
         id="path4363" />
      <path
         style="fill:#000000;stroke:#000000;stroke-width:4.75137663000000020px;stroke-linecap:butt;stroke-linejoin:miter;stroke-opacity:1;fill-opacity:1"
         d="M 543.3125 68.03125 C 539.34733 68.109618 535.17667 68.626601 530.84375 69.59375 C 522.23986 69.940347 513.71319 71.280419 505.3125 73.125 C 486.73943 112.22537 516.56488 152.77658 520.40625 192.28125 C 540.09207 248.55554 556.98242 308.0752 573.875 368.46875 C 524.52476 386.46546 474.15607 401.61425 422.625 412.8125 C 415.59828 413.49938 409.55341 416.64137 403.71875 420.25 C 402.2499 419.91075 400.75409 419.60435 399.21875 419.375 L 398.40625 419.28125 C 386.35625 420.6962 382.16274 450.02405 382.34375 466.375 C 410.0934 591.23458 398.54386 672.48425 312.96875 772.125 C 298.5218 785.66946 277.42237 789.62748 267.96875 809.5 C 261.34937 823.41468 249.20547 847.49021 265 853.09375 C 285.44327 860.34658 312.74599 852.55989 333.90625 845.21875 C 449.06764 778.79288 458.53886 605.11392 457.78125 488.84375 C 455.69443 479.2647 452.62008 469.56178 448.375 460.53125 C 494.92141 447.53876 541.78177 434.33041 588.28125 419.9375 C 599.41632 459.44328 610.90018 499.04526 623.46875 538.125 C 614.98039 534.54287 605.14358 532.44438 595.9375 535.15625 C 558.76617 544.48009 518.11655 556.40739 490.03125 583.875 C 482.87521 593.01173 502.75387 609.14677 515.28125 605.875 C 527.10106 602.788 533.6103 591.43568 544.03125 585.53125 C 557.06501 578.14645 565.35339 563.51832 577.40625 556.125 C 583.96841 552.09976 601.45653 548.55365 603.625 553.3125 C 608.34667 563.67437 600.90397 584.42971 594.78125 599.1875 C 575.19081 675.75928 522.09991 735.92515 476.8125 798.875 C 470.80152 807.3652 466.94431 817.98851 459.5 824.84375 C 452.04631 831.70761 431.17574 826.616 429.46875 833.40625 C 426.76548 844.15966 443.94557 856.90496 455.34375 860.75 C 469.05299 865.37459 484.51066 856.78842 494.46875 844.5625 C 571.01963 768.76014 605.09239 675.80258 636.15625 576.21875 C 649.49808 614.80547 664.17255 652.64362 680.96875 689.125 C 670.57823 713.9222 659.12462 738.27746 647 762.21875 C 635.69956 790.51748 612.28853 810.92021 594.9375 835.21875 C 587.94067 847.90539 577.19765 860.3049 577.375 875.3125 C 596.86679 874.12641 613.02434 862.18643 629.125 852.09375 C 646.91451 843.4811 655.59467 825.33895 667.3125 810.46875 C 684.86269 790.63135 697.96873 768.45867 709.1875 745.21875 C 749.183 817.81513 800.04123 883.03678 868.65625 935.1875 C 893.51025 958.02295 927.73421 963.58053 960.8125 958.625 C 996.2318 937.58443 949.02308 892.04449 925.59375 878.21875 C 869.2798 834.7803 818.32674 784.02464 773.25 729.09375 C 762.40543 709.82743 751.80675 689.76227 741.46875 669.0625 C 744.63744 661.38276 747.85649 653.70087 751.25 646.125 C 776.93564 601.94589 804.33777 558.62648 827.1875 512.90625 C 833.00761 491.30784 810.25309 483.69487 795.28125 474.84375 C 776.85405 470.77067 758.47573 465.42697 739.46875 465.09375 C 720.10908 475.43381 733.13573 500.44976 729.15625 517.8125 C 725.43382 547.24951 719.20354 576.13144 711.0625 604.46875 C 682.81296 540.75197 657.57359 472.81976 637.0625 404.3125 C 669.87869 393.38701 702.36595 381.69771 734.25 368.84375 C 756.01314 358.69265 779.78371 350.93429 798.15625 335.03125 C 815.25838 314.03386 792.24753 277.1944 765.6875 283.96875 C 718.60661 307.80615 670.71101 330.17776 621.84375 350 C 603.30461 279.01195 590.26773 208.41947 584.65625 142.28125 C 601.7817 105.8874 581.64247 67.273695 543.3125 68.03125 z M 692.1875 134.59375 C 685.85524 134.50456 679.184 136.33849 673.8125 140.25 C 670.54535 142.62919 665.30732 143.08564 663.125 146.09375 C 660.61536 149.55305 658.17963 155.42653 659.71875 159.65625 C 667.14068 180.05272 683.21599 198.0747 691.40625 219.1875 C 696.57102 232.5012 702.48335 246.48439 713.3125 256.25 C 718.9297 261.3155 726.98969 263.82757 734.8125 261.8125 C 748.20947 258.36162 763.14295 259.15513 775.71875 252.90625 C 784.60039 248.49295 795.72137 243.59536 798.90625 233.84375 C 802.771 222.0108 794.11674 209.8424 786.5625 200.8125 C 781.05804 194.23287 776.36663 186.87952 770.25 180.90625 C 761.10298 171.97357 749.87278 165.48458 739.4375 158.15625 C 727.1842 149.55122 714.25259 140.2669 700.46875 135.90625 C 697.89762 135.09284 695.0658 134.63429 692.1875 134.59375 z "
         transform="matrix(0.21004227,0,0,0.21004227,93.274493,615.82239)"
         id="path4369" />
    </g>
  </g>
</svg>
