<?xml version="1.0" encoding="UTF-8" standalone="no"?>
<!-- Created with Inkscape (http://www.inkscape.org/) -->

<svg
   xmlns:dc="http://purl.org/dc/elements/1.1/"
   xmlns:cc="http://creativecommons.org/ns#"
   xmlns:rdf="http://www.w3.org/1999/02/22-rdf-syntax-ns#"
   xmlns:svg="http://www.w3.org/2000/svg"
   xmlns="http://www.w3.org/2000/svg"
   xmlns:sodipodi="http://sodipodi.sourceforge.net/DTD/sodipodi-0.dtd"
   xmlns:inkscape="http://www.inkscape.org/namespaces/inkscape"
   width="1000"
   height="1000"
   id="svg3173"
   version="1.1"
   inkscape:version="0.47 r22583"
   sodipodi:docname="5916.svg"
   inkscape:export-filename="E:\chinese\yan\5916.png"
   inkscape:export-xdpi="18.005705"
   inkscape:export-ydpi="18.005705">
  <title
     id="title4858">Wai</title>
  <defs
     id="defs3175">
    <inkscape:perspective
       sodipodi:type="inkscape:persp3d"
       inkscape:vp_x="0 : 526.18109 : 1"
       inkscape:vp_y="0 : 1000 : 0"
       inkscape:vp_z="744.09448 : 526.18109 : 1"
       inkscape:persp3d-origin="372.04724 : 350.78739 : 1"
       id="perspective3181" />
    <inkscape:perspective
       id="perspective3191"
       inkscape:persp3d-origin="0.5 : 0.33333333 : 1"
       inkscape:vp_z="1 : 0.5 : 1"
       inkscape:vp_y="0 : 1000 : 0"
       inkscape:vp_x="0 : 0.5 : 1"
       sodipodi:type="inkscape:persp3d" />
    <inkscape:perspective
       id="perspective4006"
       inkscape:persp3d-origin="0.5 : 0.33333333 : 1"
       inkscape:vp_z="1 : 0.5 : 1"
       inkscape:vp_y="0 : 1000 : 0"
       inkscape:vp_x="0 : 0.5 : 1"
       sodipodi:type="inkscape:persp3d" />
    <inkscape:perspective
       id="perspective4034"
       inkscape:persp3d-origin="0.5 : 0.33333333 : 1"
       inkscape:vp_z="1 : 0.5 : 1"
       inkscape:vp_y="0 : 1000 : 0"
       inkscape:vp_x="0 : 0.5 : 1"
       sodipodi:type="inkscape:persp3d" />
    <inkscape:perspective
       id="perspective4081"
       inkscape:persp3d-origin="0.5 : 0.33333333 : 1"
       inkscape:vp_z="1 : 0.5 : 1"
       inkscape:vp_y="0 : 1000 : 0"
       inkscape:vp_x="0 : 0.5 : 1"
       sodipodi:type="inkscape:persp3d" />
    <inkscape:perspective
       id="perspective4147"
       inkscape:persp3d-origin="0.5 : 0.33333333 : 1"
       inkscape:vp_z="1 : 0.5 : 1"
       inkscape:vp_y="0 : 1000 : 0"
       inkscape:vp_x="0 : 0.5 : 1"
       sodipodi:type="inkscape:persp3d" />
    <inkscape:perspective
       id="perspective3797"
       inkscape:persp3d-origin="0.5 : 0.33333333 : 1"
       inkscape:vp_z="1 : 0.5 : 1"
       inkscape:vp_y="0 : 1000 : 0"
       inkscape:vp_x="0 : 0.5 : 1"
       sodipodi:type="inkscape:persp3d" />
    <inkscape:perspective
       id="perspective3104"
       inkscape:persp3d-origin="0.5 : 0.33333333 : 1"
       inkscape:vp_z="1 : 0.5 : 1"
       inkscape:vp_y="0 : 1000 : 0"
       inkscape:vp_x="0 : 0.5 : 1"
       sodipodi:type="inkscape:persp3d" />
    <inkscape:perspective
       id="perspective3140"
       inkscape:persp3d-origin="0.5 : 0.33333333 : 1"
       inkscape:vp_z="1 : 0.5 : 1"
       inkscape:vp_y="0 : 1000 : 0"
       inkscape:vp_x="0 : 0.5 : 1"
       sodipodi:type="inkscape:persp3d" />
    <inkscape:perspective
       id="perspective3799"
       inkscape:persp3d-origin="0.5 : 0.33333333 : 1"
       inkscape:vp_z="1 : 0.5 : 1"
       inkscape:vp_y="0 : 1000 : 0"
       inkscape:vp_x="0 : 0.5 : 1"
       sodipodi:type="inkscape:persp3d" />
    <inkscape:perspective
       id="perspective3835"
       inkscape:persp3d-origin="0.5 : 0.33333333 : 1"
       inkscape:vp_z="1 : 0.5 : 1"
       inkscape:vp_y="0 : 1000 : 0"
       inkscape:vp_x="0 : 0.5 : 1"
       sodipodi:type="inkscape:persp3d" />
    <inkscape:perspective
       id="perspective3862"
       inkscape:persp3d-origin="0.5 : 0.33333333 : 1"
       inkscape:vp_z="1 : 0.5 : 1"
       inkscape:vp_y="0 : 1000 : 0"
       inkscape:vp_x="0 : 0.5 : 1"
       sodipodi:type="inkscape:persp3d" />
    <inkscape:perspective
       id="perspective3895"
       inkscape:persp3d-origin="0.5 : 0.33333333 : 1"
       inkscape:vp_z="1 : 0.5 : 1"
       inkscape:vp_y="0 : 1000 : 0"
       inkscape:vp_x="0 : 0.5 : 1"
       sodipodi:type="inkscape:persp3d" />
    <inkscape:perspective
       id="perspective3921"
       inkscape:persp3d-origin="0.5 : 0.33333333 : 1"
       inkscape:vp_z="1 : 0.5 : 1"
       inkscape:vp_y="0 : 1000 : 0"
       inkscape:vp_x="0 : 0.5 : 1"
       sodipodi:type="inkscape:persp3d" />
  </defs>
  <sodipodi:namedview
     id="base"
     pagecolor="#ffffff"
     bordercolor="#666666"
     borderopacity="1.0"
     inkscape:pageopacity="0.0"
     inkscape:pageshadow="2"
     inkscape:zoom="0.49497475"
     inkscape:cx="637.59461"
     inkscape:cy="519.65337"
     inkscape:document-units="px"
     inkscape:current-layer="g5879"
     showgrid="false"
     inkscape:window-width="1440"
     inkscape:window-height="840"
     inkscape:window-x="-4"
     inkscape:window-y="-4"
     inkscape:window-maximized="1" />
  <metadata
     id="metadata3178">
    <rdf:RDF>
      <cc:Work
         rdf:about="">
        <dc:format>image/svg+xml</dc:format>
        <dc:type
           rdf:resource="http://purl.org/dc/dcmitype/StillImage" />
        <dc:title>Wai</dc:title>
        <dc:date>2010-08-12</dc:date>
        <dc:creator>
          <cc:Agent>
            <dc:title>Alex Amies</dc:title>
          </cc:Agent>
        </dc:creator>
        <dc:rights>
          <cc:Agent>
            <dc:title>@ Alex Amies 2010</dc:title>
          </cc:Agent>
        </dc:rights>
        <dc:publisher>
          <cc:Agent>
            <dc:title>chinesenotes.com</dc:title>
          </cc:Agent>
        </dc:publisher>
        <dc:source>Yan Qin Ceremonial Inscription</dc:source>
        <dc:language>Chinese 中文</dc:language>
        <dc:description>Tracing from Tang Dynasty Ceremonial Inscription by Yan Zhenqing 颜真卿 (709－785)</dc:description>
        <cc:license
           rdf:resource="http://creativecommons.org/licenses/by/3.0/" />
      </cc:Work>
      <cc:License
         rdf:about="http://creativecommons.org/licenses/by/3.0/">
        <cc:permits
           rdf:resource="http://creativecommons.org/ns#Reproduction" />
        <cc:permits
           rdf:resource="http://creativecommons.org/ns#Distribution" />
        <cc:requires
           rdf:resource="http://creativecommons.org/ns#Notice" />
        <cc:requires
           rdf:resource="http://creativecommons.org/ns#Attribution" />
        <cc:permits
           rdf:resource="http://creativecommons.org/ns#DerivativeWorks" />
      </cc:License>
    </rdf:RDF>
  </metadata>
  <g
     inkscape:label="Layer 1"
     inkscape:groupmode="layer"
     id="layer1"
     transform="translate(0,-52.362183)">
    <path
       style="fill:#000000;stroke:#000000;stroke-width:4.73223686000000040px;stroke-linecap:butt;stroke-linejoin:miter;stroke-opacity:1;fill-opacity:1"
       d="m 369.84328,287.58699 0,0 z"
       id="path5819" />
    <g
       transform="matrix(4.7322369,0,0,4.7322369,-536.04205,-3955.5633)"
       id="g5879"
       style="fill:#000000;fill-opacity:1">
      <path
         style="fill:#000000;stroke:#000000;stroke-width:4.74180651000000000px;stroke-linecap:butt;stroke-linejoin:miter;stroke-opacity:1;fill-opacity:1"
         d="M 229.46875 156.28125 C 223.90917 156.44034 217.78101 158.13392 217.46875 162.03125 C 218.26817 235.66471 185.29627 301.36006 147.21875 362.75 C 129.52052 388.15511 95.654808 411.28124 90.46875 436.40625 C 87.227168 452.11084 119.68639 431.79678 131.75 426.5625 C 197.79102 397.20668 260.41309 341.9645 293.65625 277.8125 C 296.19751 260.80356 297.26901 241.03375 292 224.71875 C 281.49642 197.51421 259.85545 173.48052 236.09375 156.96875 C 234.39897 156.46397 231.99583 156.20894 229.46875 156.28125 z M 426.125 252.53125 C 404.75356 252.08442 380.88271 264.09888 360.625 268.4375 C 341.30493 273.44799 323.32716 281.94984 305.53125 290.75 C 300.50528 333.98159 358.77326 324.89687 383.59375 317.59375 C 364.17355 363.22292 337.71591 406.86512 313.875 450.8125 C 298.57946 477.35294 284.93831 505.13169 267.125 529.96875 C 264.42369 520.79394 260.67798 511.49587 259.8125 502.1875 C 258.72593 490.50086 263.92079 476.62719 259.8125 466.875 C 256.58228 459.20707 246.05644 453.24959 237.8125 449.9375 C 213.50555 442.82921 183.32773 449.27608 166.65625 468.5625 C 167.74457 506.26126 202.4821 544.35583 235.5625 567.53125 C 194.54481 616.78406 153.12307 665.89315 114.65625 717.0625 C 93.442342 732.49489 110.13465 771.44961 129.84375 743.625 C 174.65695 705.94769 214.95935 663.19907 256.4375 621.96875 C 305.00246 556.67396 348.35212 487.61435 389.9375 417.6875 C 405.92522 384.66524 412.52614 345.65524 440.9375 320.3125 C 465.31273 306.15559 468.31766 274.943 446.4375 257.875 C 440.09526 254.21386 433.24881 252.68019 426.125 252.53125 z "
         transform="matrix(0.21131656,0,0,0.21131656,113.27456,846.94101)"
         id="path4757" />
      <path
         style="fill:#000000;stroke:#000000;stroke-width:4.74180651000000000px;stroke-linecap:butt;stroke-linejoin:miter;stroke-opacity:1;fill-opacity:1"
         d="M 496.90625 41.8125 C 422.76213 44.378319 486.42223 115.84138 481.3125 157.96875 C 488.85696 376.55271 494.66235 595.3746 486.75 814.03125 C 459.70034 821.19822 379.43457 759.41914 406.8125 823.09375 C 455.62448 855.22517 481.57468 917.36471 475.25 966.5 C 509.64324 990.11292 523.74038 954.43313 531.53125 923.34375 C 556.27309 863.25239 557.64811 798.49879 560.75 734.53125 C 561.28257 636.38892 560.10486 538.22516 558.375 440.0625 C 576.45939 467.24636 595.37854 493.89148 614.15625 520.5625 C 650.5304 572.22674 681.86886 629.94102 723.84375 675.1875 C 739.39416 691.94993 769.0241 686.76403 792.28125 682.84375 C 833.25897 675.93648 875.91568 669.3702 913.5 654.84375 C 920.45256 652.1566 932.15396 640.54586 927.0625 636.21875 C 892.94861 607.22585 837.84863 584.64853 797.4375 552.46875 C 701.15489 492.1625 625.34803 415.3612 563.34375 320.6875 C 561.231 317.32081 558.71045 314.44368 555.90625 311.96875 C 554.47781 242.85255 552.99199 173.75931 551.84375 104.6875 C 561.08898 74.432795 553.12584 50.021806 519.90625 48.78125 L 496.90625 41.8125 z "
         transform="matrix(0.21131656,0,0,0.21131656,113.27456,846.94101)"
         id="path4763" />
    </g>
    <path
       style="fill:#000000;stroke:#000000;stroke-width:4.73223686000000040px;stroke-linecap:butt;stroke-linejoin:miter;stroke-opacity:1;fill-opacity:1"
       d="m 594.62455,556.31042 0,0 z"
       id="path5837" />
  </g>
</svg>
