<?xml version="1.0" encoding="UTF-8" standalone="no"?>
<!-- Created with Inkscape (http://www.inkscape.org/) -->

<svg
   xmlns:dc="http://purl.org/dc/elements/1.1/"
   xmlns:cc="http://creativecommons.org/ns#"
   xmlns:rdf="http://www.w3.org/1999/02/22-rdf-syntax-ns#"
   xmlns:svg="http://www.w3.org/2000/svg"
   xmlns="http://www.w3.org/2000/svg"
   xmlns:sodipodi="http://sodipodi.sourceforge.net/DTD/sodipodi-0.dtd"
   xmlns:inkscape="http://www.inkscape.org/namespaces/inkscape"
   width="1000"
   height="1000"
   id="svg3173"
   version="1.1"
   inkscape:version="0.47 r22583"
   sodipodi:docname="591a.svg"
   inkscape:export-filename="E:\chinese\yan\591a.png"
   inkscape:export-xdpi="18.005705"
   inkscape:export-ydpi="18.005705">
  <title
     id="title4854">Duo</title>
  <defs
     id="defs3175">
    <inkscape:perspective
       sodipodi:type="inkscape:persp3d"
       inkscape:vp_x="0 : 526.18109 : 1"
       inkscape:vp_y="0 : 1000 : 0"
       inkscape:vp_z="744.09448 : 526.18109 : 1"
       inkscape:persp3d-origin="372.04724 : 350.78739 : 1"
       id="perspective3181" />
    <inkscape:perspective
       id="perspective3191"
       inkscape:persp3d-origin="0.5 : 0.33333333 : 1"
       inkscape:vp_z="1 : 0.5 : 1"
       inkscape:vp_y="0 : 1000 : 0"
       inkscape:vp_x="0 : 0.5 : 1"
       sodipodi:type="inkscape:persp3d" />
    <inkscape:perspective
       id="perspective4006"
       inkscape:persp3d-origin="0.5 : 0.33333333 : 1"
       inkscape:vp_z="1 : 0.5 : 1"
       inkscape:vp_y="0 : 1000 : 0"
       inkscape:vp_x="0 : 0.5 : 1"
       sodipodi:type="inkscape:persp3d" />
    <inkscape:perspective
       id="perspective4034"
       inkscape:persp3d-origin="0.5 : 0.33333333 : 1"
       inkscape:vp_z="1 : 0.5 : 1"
       inkscape:vp_y="0 : 1000 : 0"
       inkscape:vp_x="0 : 0.5 : 1"
       sodipodi:type="inkscape:persp3d" />
    <inkscape:perspective
       id="perspective4081"
       inkscape:persp3d-origin="0.5 : 0.33333333 : 1"
       inkscape:vp_z="1 : 0.5 : 1"
       inkscape:vp_y="0 : 1000 : 0"
       inkscape:vp_x="0 : 0.5 : 1"
       sodipodi:type="inkscape:persp3d" />
    <inkscape:perspective
       id="perspective4147"
       inkscape:persp3d-origin="0.5 : 0.33333333 : 1"
       inkscape:vp_z="1 : 0.5 : 1"
       inkscape:vp_y="0 : 1000 : 0"
       inkscape:vp_x="0 : 0.5 : 1"
       sodipodi:type="inkscape:persp3d" />
    <inkscape:perspective
       id="perspective3737"
       inkscape:persp3d-origin="0.5 : 0.33333333 : 1"
       inkscape:vp_z="1 : 0.5 : 1"
       inkscape:vp_y="0 : 1000 : 0"
       inkscape:vp_x="0 : 0.5 : 1"
       sodipodi:type="inkscape:persp3d" />
    <inkscape:perspective
       id="perspective3736"
       inkscape:persp3d-origin="0.5 : 0.33333333 : 1"
       inkscape:vp_z="1 : 0.5 : 1"
       inkscape:vp_y="0 : 1000 : 0"
       inkscape:vp_x="0 : 0.5 : 1"
       sodipodi:type="inkscape:persp3d" />
    <inkscape:perspective
       id="perspective2978"
       inkscape:persp3d-origin="0.5 : 0.33333333 : 1"
       inkscape:vp_z="1 : 0.5 : 1"
       inkscape:vp_y="0 : 1000 : 0"
       inkscape:vp_x="0 : 0.5 : 1"
       sodipodi:type="inkscape:persp3d" />
    <inkscape:perspective
       id="perspective3776"
       inkscape:persp3d-origin="0.5 : 0.33333333 : 1"
       inkscape:vp_z="1 : 0.5 : 1"
       inkscape:vp_y="0 : 1000 : 0"
       inkscape:vp_x="0 : 0.5 : 1"
       sodipodi:type="inkscape:persp3d" />
    <inkscape:perspective
       id="perspective3810"
       inkscape:persp3d-origin="0.5 : 0.33333333 : 1"
       inkscape:vp_z="1 : 0.5 : 1"
       inkscape:vp_y="0 : 1000 : 0"
       inkscape:vp_x="0 : 0.5 : 1"
       sodipodi:type="inkscape:persp3d" />
  </defs>
  <sodipodi:namedview
     id="base"
     pagecolor="#ffffff"
     bordercolor="#666666"
     borderopacity="1.0"
     inkscape:pageopacity="0.0"
     inkscape:pageshadow="2"
     inkscape:zoom="0.49497475"
     inkscape:cx="421.0303"
     inkscape:cy="482.85714"
     inkscape:document-units="px"
     inkscape:current-layer="g4264"
     showgrid="false"
     inkscape:window-width="1440"
     inkscape:window-height="840"
     inkscape:window-x="-4"
     inkscape:window-y="-4"
     inkscape:window-maximized="1" />
  <metadata
     id="metadata3178">
    <rdf:RDF>
      <cc:Work
         rdf:about="">
        <dc:format>image/svg+xml</dc:format>
        <dc:type
           rdf:resource="http://purl.org/dc/dcmitype/StillImage" />
        <dc:title>Duo</dc:title>
        <dc:date>2010-08-08</dc:date>
        <dc:creator>
          <cc:Agent>
            <dc:title>Alex Amies</dc:title>
          </cc:Agent>
        </dc:creator>
        <dc:rights>
          <cc:Agent>
            <dc:title>@ Alex Amies 2010</dc:title>
          </cc:Agent>
        </dc:rights>
        <dc:publisher>
          <cc:Agent>
            <dc:title>chinesenotes.com</dc:title>
          </cc:Agent>
        </dc:publisher>
        <dc:source>Yan Qin Ceremonial Inscription</dc:source>
        <dc:language>Chinese 中文</dc:language>
        <dc:description>Tracing from Tang Dynasty Ceremonial Inscription by Yan Zhenqing 颜真卿 (709－785)</dc:description>
        <cc:license
           rdf:resource="http://creativecommons.org/licenses/by/3.0/" />
      </cc:Work>
      <cc:License
         rdf:about="http://creativecommons.org/licenses/by/3.0/">
        <cc:permits
           rdf:resource="http://creativecommons.org/ns#Reproduction" />
        <cc:permits
           rdf:resource="http://creativecommons.org/ns#Distribution" />
        <cc:requires
           rdf:resource="http://creativecommons.org/ns#Notice" />
        <cc:requires
           rdf:resource="http://creativecommons.org/ns#Attribution" />
        <cc:permits
           rdf:resource="http://creativecommons.org/ns#DerivativeWorks" />
      </cc:License>
    </rdf:RDF>
  </metadata>
  <g
     inkscape:label="Layer 1"
     inkscape:groupmode="layer"
     id="layer1"
     transform="translate(0,-52.362183)">
    <g
       transform="matrix(4.7609464,0,0,4.7609464,-696.12274,-2965.6673)"
       id="g4264"
       style="fill:none;fill-opacity:1">
      <path
         style="fill:#000000;stroke:#000000;stroke-width:4.76094626999999980px;stroke-linecap:butt;stroke-linejoin:miter;stroke-opacity:1;fill-opacity:1"
         d="M 517 68.71875 C 510.54334 68.691536 504.22074 69.996262 498.5 73.25 C 489.03014 81.589131 489.89625 101.2215 478.9375 111.5 C 416.19808 169.6771 360.89693 237.01428 292.21875 288.59375 C 278.99375 297.69225 260.30171 302.34673 248.5625 309.59375 C 232.96188 319.22457 252.24678 323.79794 261.9375 319 C 293.78761 303.23084 331.13869 296.33843 360.78125 277.3125 C 412.79021 226.33371 467.40204 179.98172 528.625 139.9375 C 543.29762 130.59624 564.38408 120.25446 571.625 103.875 C 568.31767 95.249451 558.45288 82.566882 548.0625 77.25 C 538.87015 72.544251 527.7611 68.764107 517 68.71875 z M 711.875 106.71875 C 701.03665 106.72853 690.15212 110.97557 681.9375 118.65625 C 651.07714 139.26139 611.90705 138.51423 576.71875 148.0625 C 566.87816 171.80572 604.19479 171.48502 619.15625 169.65625 C 640.19759 174.18486 625.20895 195.20478 615.65625 203.6875 C 589.37692 238.64508 565.53995 275.62134 536.5625 308.4375 C 536.13401 308.91613 535.70963 309.39622 535.28125 309.875 C 536.28029 301.3637 533.78624 289.78014 529.09375 282.40625 C 507.755 258.6587 487.12869 218.36899 454.28125 209.28125 C 449.24469 210.07647 443.25563 219.76451 442.375 226.28125 C 440.42177 240.73534 439.36878 259.12503 445.78125 272.1875 C 460.78609 296.69723 482.02228 326.79225 513.8125 324.90625 C 516.84236 324.56959 520.58791 323.73421 524.0625 322.4375 C 492.60762 357.6519 460.99504 392.8135 425.625 424.1875 C 420.44161 429.06595 415.27709 433.9653 410.09375 438.84375 C 425.05521 455.09015 443.59314 435.34046 457.34375 427.8125 C 476.51189 417.71225 494.68995 405.5874 508.71875 388.875 C 567.95883 327.6001 626.8443 265.99215 685.53125 204.1875 C 709.42235 189.87948 743.71772 181.79123 756.34375 159.75 C 764.18036 146.06966 753.53206 123.14742 735.78125 114.78125 C 728.70103 109.25903 720.30483 106.71114 711.875 106.71875 z M 548.71875 371.6875 C 546.03953 371.72533 543.38348 372.05456 541 372.53125 C 536.02038 373.52719 528.20138 376.65794 527.40625 381.03125 C 525.93426 389.1271 539.73321 402.33651 534.21875 409.9375 C 497.79151 460.14801 449.24297 510.34339 401.59375 554.46875 C 378.339 576.00375 331.30888 588.4791 321.65625 607.15625 C 316.89578 616.36744 345.54036 609.95527 357.5 603.65625 C 389.04641 587.04107 424.15937 575.94936 453.15625 555.65625 C 486.62542 532.23325 512.47715 498.02052 545.0625 473.0625 C 565.7331 457.23026 598.91874 448.95653 610.71875 430.34375 C 615.09482 423.44119 607.09449 409.38862 599.78125 403 C 587.80014 392.53373 575.13153 381.33532 561.40625 374.21875 C 557.74291 372.31928 553.18411 371.62445 548.71875 371.6875 z M 739.34375 399.65625 C 715.97499 399.8085 701.59019 422.48577 687.6875 438.5 C 685.06325 443.18493 682.3907 447.85243 679.71875 452.5 C 676.56697 447.93685 672.06642 444.04752 666.84375 440.53125 C 644.30319 432.37875 622.51896 437.52928 609.03125 457.53125 C 602.15437 486.18326 627.43972 497.26018 652.25 498.3125 C 617.80963 553.41119 579.87234 605.85296 538.6875 656.03125 C 535.44987 628.5987 512.66353 603.78058 490 590.15625 C 482.09683 586.99503 462.78125 582.78945 462.78125 591.875 C 462.78125 605.67694 448.64742 618.37548 449.1875 630.96875 C 454.42521 650.9174 470.65618 672.54774 488.28125 683.6875 C 496.32202 684.79495 506.33673 684.85611 515.84375 683.28125 C 506.92277 693.67377 497.86229 703.9867 488.65625 714.1875 C 452.83903 748.85933 419.74285 786.79002 378.1875 814.9375 C 326.13493 862.90875 257.04025 884.69923 200.9375 926.84375 C 224.13659 934.06439 249.54143 931.46655 272.5 927.03125 C 352.27051 901.13794 421.55624 846.19398 479.59375 786.8125 C 516.20438 752.41852 548.13369 713.70846 578.59375 673.875 C 606.6322 637.30722 638.65476 603.61758 665.21875 566.09375 C 682.03965 538.16913 694.42474 506.23913 721.5 486.34375 C 737.60576 465.00033 781.58894 461.46407 768.09375 427.34375 C 766.68775 413.81628 750.17106 408.83377 741.65625 399.71875 C 740.88349 399.67582 740.09758 399.65134 739.34375 399.65625 z "
         transform="matrix(0.21004227,0,0,0.21004227,146.2152,633.91377)"
         id="path4293" />
    </g>
  </g>
</svg>
