<?xml version="1.0" encoding="UTF-8" standalone="no"?>
<!-- Created with Inkscape (http://www.inkscape.org/) -->

<svg
   xmlns:dc="http://purl.org/dc/elements/1.1/"
   xmlns:cc="http://creativecommons.org/ns#"
   xmlns:rdf="http://www.w3.org/1999/02/22-rdf-syntax-ns#"
   xmlns:svg="http://www.w3.org/2000/svg"
   xmlns="http://www.w3.org/2000/svg"
   xmlns:sodipodi="http://sodipodi.sourceforge.net/DTD/sodipodi-0.dtd"
   xmlns:inkscape="http://www.inkscape.org/namespaces/inkscape"
   width="1000"
   height="1000"
   id="svg3173"
   version="1.1"
   inkscape:version="0.47 r22583"
   sodipodi:docname="592a.svg"
   inkscape:export-filename="E:\chinese\yan\592a.png"
   inkscape:export-xdpi="18.005705"
   inkscape:export-ydpi="18.005705">
  <title
     id="title4285">Tai</title>
  <defs
     id="defs3175">
    <inkscape:perspective
       sodipodi:type="inkscape:persp3d"
       inkscape:vp_x="0 : 526.18109 : 1"
       inkscape:vp_y="0 : 1000 : 0"
       inkscape:vp_z="744.09448 : 526.18109 : 1"
       inkscape:persp3d-origin="372.04724 : 350.78739 : 1"
       id="perspective3181" />
    <inkscape:perspective
       id="perspective3191"
       inkscape:persp3d-origin="0.5 : 0.33333333 : 1"
       inkscape:vp_z="1 : 0.5 : 1"
       inkscape:vp_y="0 : 1000 : 0"
       inkscape:vp_x="0 : 0.5 : 1"
       sodipodi:type="inkscape:persp3d" />
    <inkscape:perspective
       id="perspective4006"
       inkscape:persp3d-origin="0.5 : 0.33333333 : 1"
       inkscape:vp_z="1 : 0.5 : 1"
       inkscape:vp_y="0 : 1000 : 0"
       inkscape:vp_x="0 : 0.5 : 1"
       sodipodi:type="inkscape:persp3d" />
    <inkscape:perspective
       id="perspective4034"
       inkscape:persp3d-origin="0.5 : 0.33333333 : 1"
       inkscape:vp_z="1 : 0.5 : 1"
       inkscape:vp_y="0 : 1000 : 0"
       inkscape:vp_x="0 : 0.5 : 1"
       sodipodi:type="inkscape:persp3d" />
    <inkscape:perspective
       id="perspective4081"
       inkscape:persp3d-origin="0.5 : 0.33333333 : 1"
       inkscape:vp_z="1 : 0.5 : 1"
       inkscape:vp_y="0 : 1000 : 0"
       inkscape:vp_x="0 : 0.5 : 1"
       sodipodi:type="inkscape:persp3d" />
    <inkscape:perspective
       id="perspective4147"
       inkscape:persp3d-origin="0.5 : 0.33333333 : 1"
       inkscape:vp_z="1 : 0.5 : 1"
       inkscape:vp_y="0 : 1000 : 0"
       inkscape:vp_x="0 : 0.5 : 1"
       sodipodi:type="inkscape:persp3d" />
    <inkscape:perspective
       id="perspective3758"
       inkscape:persp3d-origin="0.5 : 0.33333333 : 1"
       inkscape:vp_z="1 : 0.5 : 1"
       inkscape:vp_y="0 : 1000 : 0"
       inkscape:vp_x="0 : 0.5 : 1"
       sodipodi:type="inkscape:persp3d" />
    <inkscape:perspective
       id="perspective4805"
       inkscape:persp3d-origin="0.5 : 0.33333333 : 1"
       inkscape:vp_z="1 : 0.5 : 1"
       inkscape:vp_y="0 : 1000 : 0"
       inkscape:vp_x="0 : 0.5 : 1"
       sodipodi:type="inkscape:persp3d" />
  </defs>
  <sodipodi:namedview
     id="base"
     pagecolor="#ffffff"
     bordercolor="#666666"
     borderopacity="1.0"
     inkscape:pageopacity="0.0"
     inkscape:pageshadow="2"
     inkscape:zoom="0.49497475"
     inkscape:cx="452.31529"
     inkscape:cy="557.14286"
     inkscape:document-units="px"
     inkscape:current-layer="g4167"
     showgrid="false"
     inkscape:window-width="1440"
     inkscape:window-height="840"
     inkscape:window-x="-4"
     inkscape:window-y="-4"
     inkscape:window-maximized="1" />
  <metadata
     id="metadata3178">
    <rdf:RDF>
      <cc:Work
         rdf:about="">
        <dc:format>image/svg+xml</dc:format>
        <dc:type
           rdf:resource="http://purl.org/dc/dcmitype/StillImage" />
        <dc:title>Tai</dc:title>
        <dc:date>2010-08-03</dc:date>
        <dc:creator>
          <cc:Agent>
            <dc:title>Alex Amies</dc:title>
          </cc:Agent>
        </dc:creator>
        <dc:rights>
          <cc:Agent>
            <dc:title>@ Alex Amies 2010</dc:title>
          </cc:Agent>
        </dc:rights>
        <dc:publisher>
          <cc:Agent>
            <dc:title>chinesenotes.com</dc:title>
          </cc:Agent>
        </dc:publisher>
        <dc:source>Yan Qin Ceremonial Inscription</dc:source>
        <dc:language>Chinese 中文</dc:language>
        <dc:description>Tracing from Tang Dynasty Ceremonial Inscription by Yan Zhenqing 颜真卿 (709－785)</dc:description>
        <cc:license
           rdf:resource="http://creativecommons.org/licenses/by/3.0/" />
      </cc:Work>
      <cc:License
         rdf:about="http://creativecommons.org/licenses/by/3.0/">
        <cc:permits
           rdf:resource="http://creativecommons.org/ns#Reproduction" />
        <cc:permits
           rdf:resource="http://creativecommons.org/ns#Distribution" />
        <cc:requires
           rdf:resource="http://creativecommons.org/ns#Notice" />
        <cc:requires
           rdf:resource="http://creativecommons.org/ns#Attribution" />
        <cc:permits
           rdf:resource="http://creativecommons.org/ns#DerivativeWorks" />
      </cc:License>
    </rdf:RDF>
  </metadata>
  <g
     inkscape:label="Layer 1"
     inkscape:groupmode="layer"
     id="layer1"
     transform="translate(0,-52.362183)">
    <g
       transform="matrix(4.7513766,0,0,4.7513766,-484.68057,82.542513)"
       id="g4167"
       style="fill:none;fill-opacity:1">
      <path
         style="fill:#000000;stroke:#000000;stroke-width:4.75137663000000020px;stroke-linecap:butt;stroke-linejoin:miter;stroke-opacity:1;fill-opacity:1"
         d="M 426.125 105.125 C 422.17905 105.06605 418.25108 105.84173 414.6875 107.59375 C 401.50609 114.07434 380.81709 123.33111 380.75 138.125 C 380.35406 225.4573 384.51398 319.19487 378.15625 410.6875 C 329.61697 418.07635 281.26181 425.70933 234.125 436.1875 C 211.13836 433.27698 189.24022 425.08911 165.25 424.90625 C 154.84487 424.82695 137.65919 440.96804 141.46875 450.375 C 150.18848 471.9066 163.57946 494.69704 181.84375 511.09375 C 200.76592 524.86063 221.71065 515.33575 241.625 510 C 284.46737 492.9844 328.22946 479.55618 372.5625 468.375 C 370.866 481.67797 368.90618 494.90196 366.5625 508 C 346.11414 609.22504 281.47093 692.2345 214.625 767.90625 C 178.83098 807.32201 121.93434 842.47694 107.53125 886.46875 C 97.278112 917.78526 162.82719 879.00758 178.75 864.375 C 285.89611 783.65244 356.27396 735.55827 406.5 605.125 C 418.00347 572.93601 427.07997 538.97148 434.15625 503.96875 C 464.98626 552.0964 494.42091 601.22859 526.75 648.3125 C 572.02511 724.51874 650.7831 776.48905 704.875 842.34375 C 706.57191 852.52528 706.54369 862.72472 709.9375 872.90625 C 725.7067 888.61164 754.39458 896.82616 778.125 887.6875 C 806.7482 879.2492 839.77616 880.44149 863.875 861 C 889.67336 839.98039 922.87483 837.08718 954.3125 830.46875 C 979.73916 805.08552 925.41049 806.71936 911.21875 795.75 C 855.18938 775.81831 800.70074 751.76908 746.75 726.875 C 628.3409 654.18825 580.06652 549.07173 494.875 446.34375 C 493.06621 445.30001 491.30302 444.28946 489.59375 443.34375 C 525.38352 436.72463 561.35247 430.75841 597.34375 424.75 C 634.09921 424.80839 671.1791 419.34104 707.71875 423.78125 C 744.56772 430.13439 782.08651 439.06845 819.40625 437.40625 C 841.06435 423.99158 841.30434 397.95898 840.21875 375.125 C 830.90163 349.13745 809.08029 330.99349 783.78125 320.5625 C 762.7012 307.50789 726.9113 304.74137 712.71875 328.6875 C 630.39008 367.13477 540.46303 385.18999 449.53125 399.71875 C 458.83094 306.09667 457.74618 209.8857 453.71875 122.84375 C 450.05918 112.81824 437.96286 105.30185 426.125 105.125 z "
         transform="matrix(0.21046532,0,0,0.21046532,102.00845,-6.3519128)"
         id="path4151" />
      <path
         id="path4157"
         d="m 185.35714,150.21932 c -0.90394,0.56028 -2.36795,1.96059 -1.78571,2.85715 6.8261,10.5111 15.52718,21.4862 23.92857,31.42857 3.19364,3.30583 8.30846,3.15268 12.14286,1.07143 3.43746,-3.25534 3.03015,-9.38274 2.09373,-13.67256 -1.39938,-4.32981 -3.51957,-8.69994 -6.09974,-12.48038 -3.60777,-4.77279 -8.39004,-9.46195 -14.20828,-11.34706 -5.31959,-0.85098 -11.24606,-0.44334 -16.07143,2.14285 z"
         style="fill:#000000;fill-opacity:1;stroke:#000000;stroke-width:1px;stroke-linecap:butt;stroke-linejoin:miter;stroke-opacity:1"
         sodipodi:nodetypes="cscccccc" />
    </g>
  </g>
</svg>
