<?xml version="1.0" encoding="UTF-8" standalone="no"?>
<!-- Created with Inkscape (http://www.inkscape.org/) -->

<svg
   xmlns:dc="http://purl.org/dc/elements/1.1/"
   xmlns:cc="http://creativecommons.org/ns#"
   xmlns:rdf="http://www.w3.org/1999/02/22-rdf-syntax-ns#"
   xmlns:svg="http://www.w3.org/2000/svg"
   xmlns="http://www.w3.org/2000/svg"
   xmlns:sodipodi="http://sodipodi.sourceforge.net/DTD/sodipodi-0.dtd"
   xmlns:inkscape="http://www.inkscape.org/namespaces/inkscape"
   width="1000"
   height="1000"
   id="svg3173"
   version="1.1"
   inkscape:version="0.47 r22583"
   sodipodi:docname="592d.svg"
   inkscape:export-filename="E:\chinese\yan\592d.png"
   inkscape:export-xdpi="18.005705"
   inkscape:export-ydpi="18.005705">
  <title
     id="title3628">Yao</title>
  <defs
     id="defs3175">
    <inkscape:perspective
       sodipodi:type="inkscape:persp3d"
       inkscape:vp_x="0 : 526.18109 : 1"
       inkscape:vp_y="0 : 1000 : 0"
       inkscape:vp_z="744.09448 : 526.18109 : 1"
       inkscape:persp3d-origin="372.04724 : 350.78739 : 1"
       id="perspective3181" />
    <inkscape:perspective
       id="perspective3191"
       inkscape:persp3d-origin="0.5 : 0.33333333 : 1"
       inkscape:vp_z="1 : 0.5 : 1"
       inkscape:vp_y="0 : 1000 : 0"
       inkscape:vp_x="0 : 0.5 : 1"
       sodipodi:type="inkscape:persp3d" />
    <inkscape:perspective
       id="perspective4006"
       inkscape:persp3d-origin="0.5 : 0.33333333 : 1"
       inkscape:vp_z="1 : 0.5 : 1"
       inkscape:vp_y="0 : 1000 : 0"
       inkscape:vp_x="0 : 0.5 : 1"
       sodipodi:type="inkscape:persp3d" />
    <inkscape:perspective
       id="perspective4034"
       inkscape:persp3d-origin="0.5 : 0.33333333 : 1"
       inkscape:vp_z="1 : 0.5 : 1"
       inkscape:vp_y="0 : 1000 : 0"
       inkscape:vp_x="0 : 0.5 : 1"
       sodipodi:type="inkscape:persp3d" />
    <inkscape:perspective
       id="perspective4081"
       inkscape:persp3d-origin="0.5 : 0.33333333 : 1"
       inkscape:vp_z="1 : 0.5 : 1"
       inkscape:vp_y="0 : 1000 : 0"
       inkscape:vp_x="0 : 0.5 : 1"
       sodipodi:type="inkscape:persp3d" />
    <inkscape:perspective
       id="perspective4147"
       inkscape:persp3d-origin="0.5 : 0.33333333 : 1"
       inkscape:vp_z="1 : 0.5 : 1"
       inkscape:vp_y="0 : 1000 : 0"
       inkscape:vp_x="0 : 0.5 : 1"
       sodipodi:type="inkscape:persp3d" />
    <inkscape:perspective
       id="perspective3737"
       inkscape:persp3d-origin="0.5 : 0.33333333 : 1"
       inkscape:vp_z="1 : 0.5 : 1"
       inkscape:vp_y="0 : 1000 : 0"
       inkscape:vp_x="0 : 0.5 : 1"
       sodipodi:type="inkscape:persp3d" />
    <inkscape:perspective
       id="perspective3099"
       inkscape:persp3d-origin="0.5 : 0.33333333 : 1"
       inkscape:vp_z="1 : 0.5 : 1"
       inkscape:vp_y="0 : 1000 : 0"
       inkscape:vp_x="0 : 0.5 : 1"
       sodipodi:type="inkscape:persp3d" />
    <inkscape:perspective
       id="perspective3894"
       inkscape:persp3d-origin="0.5 : 0.33333333 : 1"
       inkscape:vp_z="1 : 0.5 : 1"
       inkscape:vp_y="0 : 1000 : 0"
       inkscape:vp_x="0 : 0.5 : 1"
       sodipodi:type="inkscape:persp3d" />
  </defs>
  <sodipodi:namedview
     id="base"
     pagecolor="#ffffff"
     bordercolor="#666666"
     borderopacity="1.0"
     inkscape:pageopacity="0.0"
     inkscape:pageshadow="2"
     inkscape:zoom="0.49497475"
     inkscape:cx="449.18207"
     inkscape:cy="477.22697"
     inkscape:document-units="px"
     inkscape:current-layer="g13300"
     showgrid="false"
     inkscape:window-width="1440"
     inkscape:window-height="840"
     inkscape:window-x="-4"
     inkscape:window-y="-4"
     inkscape:window-maximized="1" />
  <metadata
     id="metadata3178">
    <rdf:RDF>
      <cc:Work
         rdf:about="">
        <dc:format>image/svg+xml</dc:format>
        <dc:type
           rdf:resource="http://purl.org/dc/dcmitype/StillImage" />
        <dc:title>Yao</dc:title>
        <dc:date>2010-07-15</dc:date>
        <dc:creator>
          <cc:Agent>
            <dc:title>Alex Amies</dc:title>
          </cc:Agent>
        </dc:creator>
        <dc:rights>
          <cc:Agent>
            <dc:title>@ Alex Amies 2010</dc:title>
          </cc:Agent>
        </dc:rights>
        <dc:publisher>
          <cc:Agent>
            <dc:title>chinesenotes.com</dc:title>
          </cc:Agent>
        </dc:publisher>
        <dc:source>Yan Qin Ceremonial Inscription</dc:source>
        <dc:language>Chinese 中文</dc:language>
        <dc:description>Tracing from Tang Dynasty Ceremonial Inscription by Yan Zhenqing 颜真卿 (709－785)</dc:description>
        <cc:license
           rdf:resource="http://creativecommons.org/licenses/by/3.0/" />
      </cc:Work>
      <cc:License
         rdf:about="http://creativecommons.org/licenses/by/3.0/">
        <cc:permits
           rdf:resource="http://creativecommons.org/ns#Reproduction" />
        <cc:permits
           rdf:resource="http://creativecommons.org/ns#Distribution" />
        <cc:requires
           rdf:resource="http://creativecommons.org/ns#Notice" />
        <cc:requires
           rdf:resource="http://creativecommons.org/ns#Attribution" />
        <cc:permits
           rdf:resource="http://creativecommons.org/ns#DerivativeWorks" />
      </cc:License>
    </rdf:RDF>
  </metadata>
  <g
     inkscape:label="Layer 1"
     inkscape:groupmode="layer"
     id="layer1"
     transform="translate(0,-52.362183)">
    <g
       transform="matrix(4.7609464,0,0,4.7609464,-1446.1686,-1869.6075)"
       id="g13300"
       style="fill:none;fill-opacity:1">
      <path
         sodipodi:nodetypes="cccccc"
         id="path13288"
         d="m 362.37853,463.28754 c -0.13162,2.13029 -0.0283,3.14776 2.32791,2.95095 13.26701,-3.86681 26.60435,-10.43222 39.93907,-13.99342 2.0222,-0.0957 4.71126,0.54287 5.92723,-1.59633 2.11451,-9.03844 -7.71549,-17.89665 -16.51401,-15.14642 -8.75521,11.14126 -21.88577,17.86588 -31.6802,27.78522 z"
         style="fill:#000000;fill-opacity:1;stroke:#000000;stroke-width:1px;stroke-linecap:butt;stroke-linejoin:miter;stroke-opacity:1" />
      <path
         style="fill:#000000;stroke:#000000;stroke-width:4.76094626999999980px;stroke-linecap:butt;stroke-linejoin:miter;stroke-opacity:1;fill-opacity:1"
         d="M 405.21875 291.5625 C 386.97351 291.83992 384.36895 314.54044 397.375 329.15625 C 406.09497 359.19024 409.13477 390.5583 405.75 421.59375 C 379.91602 429.01673 354.18567 436.83759 328.625 445.125 C 272.77181 465.09941 215.68601 488.87241 155.0625 484.09375 C 126.67426 478.346 90.215683 499.92542 131.8125 519.5 C 154.25032 542.03365 155.74593 575.70839 189.15625 567.65625 C 217.02235 560.79358 241.09675 543.88096 267.09375 532.1875 C 308.99086 508.04394 352.62675 486.26212 397.8125 469.625 C 386.46372 530.2916 371.15544 590.35379 350.40625 648.46875 C 317.08786 738.58571 269.91455 824.9638 191.25 882.46875 C 149.42485 920.59155 175.87401 907.42738 216.53125 899.625 C 259.80154 886.55844 282.86809 860.22223 315.90625 836.1875 C 353.80938 806.15378 386.48186 768.7982 405.5625 723.96875 C 429.01249 675.51174 439.20741 622.2257 454.5 570.9375 C 457.8958 554.44884 461.34674 537.81368 464.5 521.09375 C 481.10635 545.36868 490.80985 573.96287 507.875 598.125 C 560.45975 686.44974 631.41763 760.30252 708.53125 828.3125 C 742.20919 848.24573 752.0908 865.47444 788.8125 863.875 C 839.30476 849.82635 887.35875 847.85254 931.4375 857.625 C 950.33189 854.01387 989.88556 852.71697 953.46875 835.34375 C 931.95575 829.00779 895.77615 811.70839 871.8125 790.8125 C 753.92818 701.91106 628.72349 610.51942 534.71875 494.9375 C 522.00268 482.53521 510.30548 457.91528 494.84375 443.21875 C 522.92717 438.39506 551.52235 436.0267 580.59375 436.75 C 635.76588 440.9393 691.15375 438.2366 746.3125 436.65625 C 769.35977 435.03758 791.55319 415.50992 785.875 390.90625 C 785.24094 365.96489 762.77806 344.50328 737.1875 350.375 C 686.78698 359.1967 635.683 364.11299 585.84375 376.28125 C 549.48201 384.27369 513.22732 392.86266 477.15625 402.15625 C 476.92439 384.04151 475.42714 365.93691 472.15625 347.90625 C 466.75253 320.59151 445.28437 289.437 414 292.90625 C 410.75475 291.94168 407.82521 291.52287 405.21875 291.5625 z "
         transform="matrix(0.21004227,0,0,0.21004227,303.75654,403.69488)"
         id="path13291" />
    </g>
  </g>
</svg>
