<?xml version="1.0" encoding="UTF-8" standalone="no"?>
<!-- Created with Inkscape (http://www.inkscape.org/) -->

<svg
   xmlns:dc="http://purl.org/dc/elements/1.1/"
   xmlns:cc="http://creativecommons.org/ns#"
   xmlns:rdf="http://www.w3.org/1999/02/22-rdf-syntax-ns#"
   xmlns:svg="http://www.w3.org/2000/svg"
   xmlns="http://www.w3.org/2000/svg"
   xmlns:sodipodi="http://sodipodi.sourceforge.net/DTD/sodipodi-0.dtd"
   xmlns:inkscape="http://www.inkscape.org/namespaces/inkscape"
   width="1000"
   height="1000"
   id="svg3173"
   version="1.1"
   inkscape:version="0.47 r22583"
   sodipodi:docname="5973.svg"
   inkscape:export-filename="E:\chinese\yan\5973.png"
   inkscape:export-xdpi="18.005705"
   inkscape:export-ydpi="18.005705">
  <title
     id="title2827">Hao</title>
  <defs
     id="defs3175">
    <inkscape:perspective
       sodipodi:type="inkscape:persp3d"
       inkscape:vp_x="0 : 526.18109 : 1"
       inkscape:vp_y="0 : 1000 : 0"
       inkscape:vp_z="744.09448 : 526.18109 : 1"
       inkscape:persp3d-origin="372.04724 : 350.78739 : 1"
       id="perspective3181" />
    <inkscape:perspective
       id="perspective3191"
       inkscape:persp3d-origin="0.5 : 0.33333333 : 1"
       inkscape:vp_z="1 : 0.5 : 1"
       inkscape:vp_y="0 : 1000 : 0"
       inkscape:vp_x="0 : 0.5 : 1"
       sodipodi:type="inkscape:persp3d" />
    <inkscape:perspective
       id="perspective4006"
       inkscape:persp3d-origin="0.5 : 0.33333333 : 1"
       inkscape:vp_z="1 : 0.5 : 1"
       inkscape:vp_y="0 : 1000 : 0"
       inkscape:vp_x="0 : 0.5 : 1"
       sodipodi:type="inkscape:persp3d" />
    <inkscape:perspective
       id="perspective4034"
       inkscape:persp3d-origin="0.5 : 0.33333333 : 1"
       inkscape:vp_z="1 : 0.5 : 1"
       inkscape:vp_y="0 : 1000 : 0"
       inkscape:vp_x="0 : 0.5 : 1"
       sodipodi:type="inkscape:persp3d" />
    <inkscape:perspective
       id="perspective4081"
       inkscape:persp3d-origin="0.5 : 0.33333333 : 1"
       inkscape:vp_z="1 : 0.5 : 1"
       inkscape:vp_y="0 : 1000 : 0"
       inkscape:vp_x="0 : 0.5 : 1"
       sodipodi:type="inkscape:persp3d" />
    <inkscape:perspective
       id="perspective4147"
       inkscape:persp3d-origin="0.5 : 0.33333333 : 1"
       inkscape:vp_z="1 : 0.5 : 1"
       inkscape:vp_y="0 : 1000 : 0"
       inkscape:vp_x="0 : 0.5 : 1"
       sodipodi:type="inkscape:persp3d" />
    <inkscape:perspective
       id="perspective3858"
       inkscape:persp3d-origin="0.5 : 0.33333333 : 1"
       inkscape:vp_z="1 : 0.5 : 1"
       inkscape:vp_y="0 : 1000 : 0"
       inkscape:vp_x="0 : 0.5 : 1"
       sodipodi:type="inkscape:persp3d" />
    <inkscape:perspective
       id="perspective3876"
       inkscape:persp3d-origin="0.5 : 0.33333333 : 1"
       inkscape:vp_z="1 : 0.5 : 1"
       inkscape:vp_y="0 : 1000 : 0"
       inkscape:vp_x="0 : 0.5 : 1"
       sodipodi:type="inkscape:persp3d" />
    <inkscape:perspective
       id="perspective3901"
       inkscape:persp3d-origin="0.5 : 0.33333333 : 1"
       inkscape:vp_z="1 : 0.5 : 1"
       inkscape:vp_y="0 : 1000 : 0"
       inkscape:vp_x="0 : 0.5 : 1"
       sodipodi:type="inkscape:persp3d" />
    <inkscape:perspective
       id="perspective4392"
       inkscape:persp3d-origin="0.5 : 0.33333333 : 1"
       inkscape:vp_z="1 : 0.5 : 1"
       inkscape:vp_y="0 : 1000 : 0"
       inkscape:vp_x="0 : 0.5 : 1"
       sodipodi:type="inkscape:persp3d" />
    <inkscape:perspective
       id="perspective3806"
       inkscape:persp3d-origin="0.5 : 0.33333333 : 1"
       inkscape:vp_z="1 : 0.5 : 1"
       inkscape:vp_y="0 : 1000 : 0"
       inkscape:vp_x="0 : 0.5 : 1"
       sodipodi:type="inkscape:persp3d" />
    <inkscape:perspective
       id="perspective3936"
       inkscape:persp3d-origin="0.5 : 0.33333333 : 1"
       inkscape:vp_z="1 : 0.5 : 1"
       inkscape:vp_y="0 : 1000 : 0"
       inkscape:vp_x="0 : 0.5 : 1"
       sodipodi:type="inkscape:persp3d" />
  </defs>
  <sodipodi:namedview
     id="base"
     pagecolor="#ffffff"
     bordercolor="#666666"
     borderopacity="1.0"
     inkscape:pageopacity="0.0"
     inkscape:pageshadow="2"
     inkscape:zoom="0.49497475"
     inkscape:cx="348.96372"
     inkscape:cy="552.46846"
     inkscape:document-units="px"
     inkscape:current-layer="g4371"
     showgrid="false"
     inkscape:window-width="1440"
     inkscape:window-height="840"
     inkscape:window-x="-4"
     inkscape:window-y="-4"
     inkscape:window-maximized="1" />
  <metadata
     id="metadata3178">
    <rdf:RDF>
      <cc:Work
         rdf:about="">
        <dc:format>image/svg+xml</dc:format>
        <dc:type
           rdf:resource="http://purl.org/dc/dcmitype/StillImage" />
        <dc:title>Hao</dc:title>
        <dc:date>2010-08-13</dc:date>
        <dc:creator>
          <cc:Agent>
            <dc:title>Alex Amies</dc:title>
          </cc:Agent>
        </dc:creator>
        <dc:rights>
          <cc:Agent>
            <dc:title>@ Alex Amies 2010</dc:title>
          </cc:Agent>
        </dc:rights>
        <dc:publisher>
          <cc:Agent>
            <dc:title>chinesenotes.com</dc:title>
          </cc:Agent>
        </dc:publisher>
        <dc:source>Yan Qin Ceremonial Inscription</dc:source>
        <dc:language>Chinese 中文</dc:language>
        <dc:description>Tracing from Tang Dynasty Ceremonial Inscription by Yan Zhenqing 颜真卿 (709－785)</dc:description>
        <cc:license
           rdf:resource="http://creativecommons.org/licenses/by/3.0/" />
      </cc:Work>
      <cc:License
         rdf:about="http://creativecommons.org/licenses/by/3.0/">
        <cc:permits
           rdf:resource="http://creativecommons.org/ns#Reproduction" />
        <cc:permits
           rdf:resource="http://creativecommons.org/ns#Distribution" />
        <cc:requires
           rdf:resource="http://creativecommons.org/ns#Notice" />
        <cc:requires
           rdf:resource="http://creativecommons.org/ns#Attribution" />
        <cc:permits
           rdf:resource="http://creativecommons.org/ns#DerivativeWorks" />
      </cc:License>
    </rdf:RDF>
  </metadata>
  <g
     inkscape:label="Layer 1"
     inkscape:groupmode="layer"
     id="layer1"
     transform="translate(0,-52.362183)">
    <g
       transform="matrix(4.7488612,0,0,4.7488612,-1416.4781,-3986.1517)"
       id="g4371"
       style="fill:#000000;fill-opacity:1">
      <g
         transform="matrix(0.9964993,0,0,0.9964993,-202.19533,23.714603)"
         id="g4285"
         style="fill:none;fill-opacity:1">
        <path
           style="fill:#000000;fill-opacity:1;stroke:#000000;stroke-width:1.27128875px;stroke-linecap:butt;stroke-linejoin:miter;stroke-opacity:1"
           d="m 611.28229,847.31586 c -4.48202,0.084 -8.79638,2.95609 -12.7869,5.18364 6.10442,4.09096 10.14942,9.64019 11.64424,16.15711 1.61138,5.80022 -0.41298,11.53396 -2.28531,17.08193 -2.25995,11.52652 -4.80547,23.10863 -10.01188,33.96957 -2.62523,6.64782 -5.02436,13.36255 -7.22777,20.12839 -7.08479,2.02259 -14.18102,4.01622 -21.25709,6.04629 -2.7087,0.967 -5.57569,2.58828 -7.79004,-0.19429 -2.41239,-2.47644 -5.42412,-0.64982 -8.17092,0.11657 l -0.0181,0.008 c -4.38527,3.09758 -3.19196,7.71542 -1.1608,11.62629 2.24513,5.0029 7.22107,9.88607 13.92957,9.69893 6.5548,-0.1031 11.15952,-3.38078 12.52391,-8.61869 2.48611,-1.65166 5.05899,-3.2362 7.69935,-4.7562 -0.58536,2.04978 -1.16018,4.10084 -1.71399,6.15509 3.29504,6.60196 -10.8795,5.93149 -7.00106,12.80756 1.86847,7.84016 11.73962,4.44729 17.87446,7.10322 2.24536,0.94265 4.35268,2.06149 6.38438,3.27961 -5.90288,7.01708 -11.88095,13.99045 -18.51834,20.48592 -7.93961,5.4311 -16.82181,9.9742 -23.41545,16.7089 -4.59263,1.8726 -0.29754,5.4238 3.18313,3.7303 7.54486,-3.3491 15.66754,-5.9123 22.82598,-9.7922 9.84295,-6.9606 18.96773,-14.75664 27.37848,-23.17482 9.47311,5.4198 17.76836,11.93102 26.83436,17.87462 6.11531,2.055 15.53865,7.1735 20.7039,2.4947 -4.72948,-8.2117 -7.51782,-17.73033 -15.49845,-24.23957 -6.89108,-2.67634 -13.48366,-5.85593 -20.01468,-9.13938 12.36263,-14.4433 22.88368,-30.25135 31.56823,-46.59838 1.60303,-6.2929 2.49148,-13.99141 -0.0997,-20.11285 -4.531,-4.11859 -12.19107,-6.98195 -19.57031,-6.30275 -2.0367,4.01862 1.90696,11.85929 -0.25393,17.35394 -0.19846,5.67457 -10.12192,5.02885 -14.58251,7.77158 -2.77925,0.92279 -5.56308,1.82635 -8.36136,2.70451 4.96253,-9.92074 9.8869,-19.86082 15.12663,-29.67189 6.50788,-11.33681 13.69852,-22.42503 18.81761,-34.30375 1.04091,-5.9884 -5.89376,-8.96835 -11.19081,-11.09781 -7.78704,-3.59334 -15.29372,-8.89957 -23.6331,-10.34397 -0.64686,-0.11204 -1.29135,-0.15189 -1.93164,-0.13989 l -9e-5,-2.3e-4 z m 19.0806,86.36555 c 1.60547,-0.0557 2.82322,0.67457 2.98361,2.85217 -7.11706,11.55002 -13.57906,23.50177 -21.43846,34.71564 -1.65682,-0.82134 -3.31522,-1.63023 -4.9878,-2.42473 -5.43972,-0.63151 -12.31122,-3.56368 -7.02826,-8.48657 3.21247,-5.87291 6.28372,-11.79615 9.30451,-17.74251 4.31491,-1.82316 8.66677,-3.54275 13.00455,-5.1681 1.72799,-1.38389 5.48607,-3.65313 8.16185,-3.7459 z"
           id="path4265"
           sodipodi:nodetypes="ccccccccccccccccccccccccccccccccccccscccccccccc" />
      </g>
    </g>
  </g>
</svg>
