<?xml version="1.0" encoding="UTF-8" standalone="no"?>
<!-- Created with Inkscape (http://www.inkscape.org/) -->

<svg
   xmlns:dc="http://purl.org/dc/elements/1.1/"
   xmlns:cc="http://creativecommons.org/ns#"
   xmlns:rdf="http://www.w3.org/1999/02/22-rdf-syntax-ns#"
   xmlns:svg="http://www.w3.org/2000/svg"
   xmlns="http://www.w3.org/2000/svg"
   xmlns:sodipodi="http://sodipodi.sourceforge.net/DTD/sodipodi-0.dtd"
   xmlns:inkscape="http://www.inkscape.org/namespaces/inkscape"
   width="1000"
   height="1000"
   id="svg3173"
   version="1.1"
   inkscape:version="0.47 r22583"
   sodipodi:docname="597d.svg"
   inkscape:export-filename="E:\chinese\yan\597d.png"
   inkscape:export-xdpi="18.005705"
   inkscape:export-ydpi="18.005705">
  <title
     id="title2827">Hao</title>
  <defs
     id="defs3175">
    <inkscape:perspective
       sodipodi:type="inkscape:persp3d"
       inkscape:vp_x="0 : 526.18109 : 1"
       inkscape:vp_y="0 : 1000 : 0"
       inkscape:vp_z="744.09448 : 526.18109 : 1"
       inkscape:persp3d-origin="372.04724 : 350.78739 : 1"
       id="perspective3181" />
    <inkscape:perspective
       id="perspective3191"
       inkscape:persp3d-origin="0.5 : 0.33333333 : 1"
       inkscape:vp_z="1 : 0.5 : 1"
       inkscape:vp_y="0 : 1000 : 0"
       inkscape:vp_x="0 : 0.5 : 1"
       sodipodi:type="inkscape:persp3d" />
    <inkscape:perspective
       id="perspective4006"
       inkscape:persp3d-origin="0.5 : 0.33333333 : 1"
       inkscape:vp_z="1 : 0.5 : 1"
       inkscape:vp_y="0 : 1000 : 0"
       inkscape:vp_x="0 : 0.5 : 1"
       sodipodi:type="inkscape:persp3d" />
    <inkscape:perspective
       id="perspective4034"
       inkscape:persp3d-origin="0.5 : 0.33333333 : 1"
       inkscape:vp_z="1 : 0.5 : 1"
       inkscape:vp_y="0 : 1000 : 0"
       inkscape:vp_x="0 : 0.5 : 1"
       sodipodi:type="inkscape:persp3d" />
    <inkscape:perspective
       id="perspective4081"
       inkscape:persp3d-origin="0.5 : 0.33333333 : 1"
       inkscape:vp_z="1 : 0.5 : 1"
       inkscape:vp_y="0 : 1000 : 0"
       inkscape:vp_x="0 : 0.5 : 1"
       sodipodi:type="inkscape:persp3d" />
    <inkscape:perspective
       id="perspective4147"
       inkscape:persp3d-origin="0.5 : 0.33333333 : 1"
       inkscape:vp_z="1 : 0.5 : 1"
       inkscape:vp_y="0 : 1000 : 0"
       inkscape:vp_x="0 : 0.5 : 1"
       sodipodi:type="inkscape:persp3d" />
    <inkscape:perspective
       id="perspective3858"
       inkscape:persp3d-origin="0.5 : 0.33333333 : 1"
       inkscape:vp_z="1 : 0.5 : 1"
       inkscape:vp_y="0 : 1000 : 0"
       inkscape:vp_x="0 : 0.5 : 1"
       sodipodi:type="inkscape:persp3d" />
    <inkscape:perspective
       id="perspective3876"
       inkscape:persp3d-origin="0.5 : 0.33333333 : 1"
       inkscape:vp_z="1 : 0.5 : 1"
       inkscape:vp_y="0 : 1000 : 0"
       inkscape:vp_x="0 : 0.5 : 1"
       sodipodi:type="inkscape:persp3d" />
    <inkscape:perspective
       id="perspective3901"
       inkscape:persp3d-origin="0.5 : 0.33333333 : 1"
       inkscape:vp_z="1 : 0.5 : 1"
       inkscape:vp_y="0 : 1000 : 0"
       inkscape:vp_x="0 : 0.5 : 1"
       sodipodi:type="inkscape:persp3d" />
    <inkscape:perspective
       id="perspective4392"
       inkscape:persp3d-origin="0.5 : 0.33333333 : 1"
       inkscape:vp_z="1 : 0.5 : 1"
       inkscape:vp_y="0 : 1000 : 0"
       inkscape:vp_x="0 : 0.5 : 1"
       sodipodi:type="inkscape:persp3d" />
    <inkscape:perspective
       id="perspective3806"
       inkscape:persp3d-origin="0.5 : 0.33333333 : 1"
       inkscape:vp_z="1 : 0.5 : 1"
       inkscape:vp_y="0 : 1000 : 0"
       inkscape:vp_x="0 : 0.5 : 1"
       sodipodi:type="inkscape:persp3d" />
    <inkscape:perspective
       id="perspective3936"
       inkscape:persp3d-origin="0.5 : 0.33333333 : 1"
       inkscape:vp_z="1 : 0.5 : 1"
       inkscape:vp_y="0 : 1000 : 0"
       inkscape:vp_x="0 : 0.5 : 1"
       sodipodi:type="inkscape:persp3d" />
  </defs>
  <sodipodi:namedview
     id="base"
     pagecolor="#ffffff"
     bordercolor="#666666"
     borderopacity="1.0"
     inkscape:pageopacity="0.0"
     inkscape:pageshadow="2"
     inkscape:zoom="0.49497475"
     inkscape:cx="348.96372"
     inkscape:cy="552.46846"
     inkscape:document-units="px"
     inkscape:current-layer="g4371"
     showgrid="false"
     inkscape:window-width="1440"
     inkscape:window-height="840"
     inkscape:window-x="-4"
     inkscape:window-y="-4"
     inkscape:window-maximized="1" />
  <metadata
     id="metadata3178">
    <rdf:RDF>
      <cc:Work
         rdf:about="">
        <dc:format>image/svg+xml</dc:format>
        <dc:type
           rdf:resource="http://purl.org/dc/dcmitype/StillImage" />
        <dc:title>Hao</dc:title>
        <dc:date>2010-08-13</dc:date>
        <dc:creator>
          <cc:Agent>
            <dc:title>Alex Amies</dc:title>
          </cc:Agent>
        </dc:creator>
        <dc:rights>
          <cc:Agent>
            <dc:title>@ Alex Amies 2010</dc:title>
          </cc:Agent>
        </dc:rights>
        <dc:publisher>
          <cc:Agent>
            <dc:title>chinesenotes.com</dc:title>
          </cc:Agent>
        </dc:publisher>
        <dc:source>Yan Qin Ceremonial Inscription</dc:source>
        <dc:language>Chinese 中文</dc:language>
        <dc:description>Tracing from Tang Dynasty Ceremonial Inscription by Yan Zhenqing 颜真卿 (709－785)</dc:description>
        <cc:license
           rdf:resource="http://creativecommons.org/licenses/by/3.0/" />
      </cc:Work>
      <cc:License
         rdf:about="http://creativecommons.org/licenses/by/3.0/">
        <cc:permits
           rdf:resource="http://creativecommons.org/ns#Reproduction" />
        <cc:permits
           rdf:resource="http://creativecommons.org/ns#Distribution" />
        <cc:requires
           rdf:resource="http://creativecommons.org/ns#Notice" />
        <cc:requires
           rdf:resource="http://creativecommons.org/ns#Attribution" />
        <cc:permits
           rdf:resource="http://creativecommons.org/ns#DerivativeWorks" />
      </cc:License>
    </rdf:RDF>
  </metadata>
  <g
     inkscape:label="Layer 1"
     inkscape:groupmode="layer"
     id="layer1"
     transform="translate(0,-52.362183)">
    <g
       transform="matrix(4.7488612,0,0,4.7488612,-1416.4781,-3986.1517)"
       id="g4371"
       style="fill:#000000;fill-opacity:1">
      <g
         transform="matrix(0.9964993,0,0,0.9964993,-202.19533,23.714603)"
         id="g4285"
         style="fill:none;fill-opacity:1">
        <path
           style="fill:#000000;stroke:#000000;stroke-width:4.73223686000000040px;stroke-linecap:butt;stroke-linejoin:miter;stroke-opacity:1;fill-opacity:1"
           d="M 263.34375 95.28125 C 247.89909 95.619123 233.03221 107.16786 219.28125 116.125 C 240.31652 132.57501 254.25521 154.8888 259.40625 181.09375 C 264.95891 204.41677 257.98313 227.47249 251.53125 249.78125 C 243.74369 296.1301 234.97206 342.70246 217.03125 386.375 C 207.98494 413.10629 199.71777 440.10664 192.125 467.3125 C 167.71145 475.44546 143.25851 483.46196 118.875 491.625 C 109.54109 495.51338 99.661698 502.03265 92.03125 490.84375 C 83.718366 480.88585 73.340231 488.23077 63.875 491.3125 L 63.8125 491.34375 C 48.701237 503.79928 52.813285 522.36791 59.8125 538.09375 C 67.548997 558.21073 84.695618 577.84627 107.8125 577.09375 C 130.39975 576.67921 146.26718 563.49946 150.96875 542.4375 C 159.53568 535.79605 168.40158 529.42453 177.5 523.3125 C 175.48292 531.55481 173.50213 539.80224 171.59375 548.0625 C 182.94818 574.6094 134.10401 571.91341 147.46875 599.5625 C 153.90734 631.08828 187.92241 617.44534 209.0625 628.125 C 216.7998 631.91546 224.06144 636.41437 231.0625 641.3125 C 210.72171 669.52861 190.12183 697.56897 167.25 723.6875 C 139.89081 745.52649 109.28358 763.79449 86.5625 790.875 C 70.736717 798.40508 85.537206 812.68474 97.53125 805.875 C 123.53016 792.40791 151.52019 782.10114 176.1875 766.5 C 210.10541 738.51077 241.54857 707.16275 270.53125 673.3125 C 281.6918 682.84277 292.98404 692.15813 305.28125 699.96875 C 331.48033 705.98177 342.16912 733.04652 363 745.1875 C 384.07279 753.4507 416.54477 774.03237 434.34375 755.21875 C 418.0464 722.19895 408.43804 683.92405 380.9375 657.75 C 357.19147 646.98829 334.47404 634.20293 311.96875 621 C 354.56924 562.92257 390.82383 499.35743 420.75 433.625 C 426.27389 408.32088 429.33541 377.36468 420.40625 352.75 C 404.79285 336.18887 378.39695 324.67513 352.96875 327.40625 C 345.95046 343.56537 359.53997 375.09316 352.09375 397.1875 C 351.40985 420.00531 317.21453 417.40883 301.84375 428.4375 C 292.26671 432.14811 282.67386 435.78138 273.03125 439.3125 C 290.13167 399.42061 307.10059 359.45094 325.15625 320 C 347.5818 274.41398 372.36007 229.82757 390 182.0625 C 393.58689 157.98275 369.69064 146.0002 351.4375 137.4375 C 324.60406 122.98847 298.73674 101.65177 270 95.84375 C 267.77096 95.393235 265.55013 95.232982 263.34375 95.28125 z M 329.09375 442.5625 C 334.62606 442.33869 338.82229 445.275 339.375 454.03125 C 314.85024 500.47462 292.58279 548.53335 265.5 593.625 C 259.79075 590.32236 254.07605 587.06973 248.3125 583.875 C 229.56773 581.33568 205.88917 569.54523 224.09375 549.75 C 235.16365 526.13465 245.74688 502.31692 256.15625 478.40625 C 271.02506 471.07519 286.02114 464.16065 300.96875 457.625 C 306.92326 452.06027 319.87324 442.93552 329.09375 442.5625 z "
           transform="matrix(0.21131656,0,0,0.21131656,502.23092,829.60694)"
           id="path4265" />
        <path
           style="fill:#000000;stroke:#000000;stroke-width:4.73223686000000040px;stroke-linecap:butt;stroke-linejoin:miter;stroke-opacity:1;fill-opacity:1"
           d="M 804 134.375 C 798.03527 134.67397 794.08536 145.21612 789.625 150.9375 C 779.69705 162.20713 777.77098 183.70501 759.25 183.34375 C 695.21001 219.44144 607.0953 205.76672 545.46875 222.59375 C 535.35146 226.67847 528.66199 242.05241 526.875 253.03125 C 524.8178 265.67025 525.841 281.45892 535.1875 293.25 C 546.62711 307.68162 563.21458 315.34866 581.5625 307 C 637.20343 292.64007 685.08544 263.07689 736.34375 240.15625 C 740.63258 238.34073 748.98393 232.7565 741.90625 241.625 C 733.04651 258.60147 720.71927 274.34711 717.28125 293.5625 L 711.09375 317.25 C 726.56409 321.66584 739.53484 307.2722 753.9375 303.5625 C 794.17921 281.65683 838.79535 267.25263 879.28125 246.53125 L 888.5625 231.0625 C 882.15103 216.05932 876.32584 200.51013 864.8125 188.5 C 850.72823 168.06066 832.86084 149.63805 810.71875 138.03125 C 808.19195 135.30108 805.98824 134.27534 804 134.375 z M 674.65625 330.78125 C 669.76985 331.02014 663.47429 334.71919 662.09375 339.21875 C 655.73462 359.94514 689.89729 367.67564 700.34375 387.375 C 719.15267 409.72495 725.04887 433.34049 726.71875 458.59375 C 718.75025 460.41635 710.81111 462.33178 702.90625 464.40625 C 645.07155 483.76522 587.84799 505.04863 528.78125 520.5 C 490.20462 531.60358 452.45589 545.36576 415.34375 560.625 C 425.5244 580.68292 448.40329 577.44673 467.5 578.8125 C 523.11727 576.04547 574.98748 553.24929 628.75 540.8125 C 653.84018 535.31681 679.25275 530.57342 702.6875 519.5625 C 710.49927 515.58624 718.70285 513.13897 727.09375 511.4375 C 731.46416 596.61062 711.92108 675.64411 671.3125 749.96875 C 658.18811 772.09021 644.22909 800.01759 621.53125 814.125 C 599.33266 823.69169 575.31626 809.39227 557.5 794.78125 C 549.61112 788.31157 518.20821 773.40698 530.34375 791.28125 C 547.31549 816.27891 534.53572 843.40564 547.1875 868.03125 C 557.30791 887.72966 581.32084 893.18137 603.125 894.09375 C 624.25572 894.97821 645.5752 892.47017 666.1875 888.1875 C 693.10451 882.59447 708.14232 857.65713 723.21875 836.9375 C 765.72611 791.13574 787.22091 734.39438 806.5 676 C 823.88826 619.30476 826.02453 559.35555 818.75 500.625 C 826.36146 500.62683 833.95209 501.38105 841.5 503.5625 C 866.37387 507.7829 889.22112 521.11051 914.96875 520.6875 C 927.35917 522.68995 947.96751 514.78855 949.84375 501.5 C 950.26681 494.73404 954.83879 486.3639 951.09375 481.1875 C 936.58642 461.13536 914.13182 442.24428 890.28125 430.59375 C 873.52355 422.54227 856.8089 428.49096 840.25 433.46875 C 829.65631 436.31485 818.98267 438.88459 808.28125 441.28125 C 806.94852 435.39871 805.54502 429.53971 804.0625 423.71875 C 784.43413 368.89924 729.81356 340.90568 675.625 330.78125 C 675.31365 330.76552 674.98201 330.76532 674.65625 330.78125 z "
           transform="matrix(0.21131656,0,0,0.21131656,502.23092,829.60694)"
           id="path4269" />
      </g>
    </g>
  </g>
</svg>
