<?xml version="1.0" encoding="UTF-8" standalone="no"?>
<!-- Created with Inkscape (http://www.inkscape.org/) -->

<svg
   xmlns:dc="http://purl.org/dc/elements/1.1/"
   xmlns:cc="http://creativecommons.org/ns#"
   xmlns:rdf="http://www.w3.org/1999/02/22-rdf-syntax-ns#"
   xmlns:svg="http://www.w3.org/2000/svg"
   xmlns="http://www.w3.org/2000/svg"
   xmlns:sodipodi="http://sodipodi.sourceforge.net/DTD/sodipodi-0.dtd"
   xmlns:inkscape="http://www.inkscape.org/namespaces/inkscape"
   width="1000"
   height="1000"
   id="svg3173"
   version="1.1"
   inkscape:version="0.47 r22583"
   sodipodi:docname="5a01.svg"
   inkscape:export-filename="E:\chinese\yan\5a01.png"
   inkscape:export-xdpi="18.005705"
   inkscape:export-ydpi="18.005705">
  <title
     id="title3682">Wei</title>
  <defs
     id="defs3175">
    <inkscape:perspective
       sodipodi:type="inkscape:persp3d"
       inkscape:vp_x="0 : 526.18109 : 1"
       inkscape:vp_y="0 : 1000 : 0"
       inkscape:vp_z="744.09448 : 526.18109 : 1"
       inkscape:persp3d-origin="372.04724 : 350.78739 : 1"
       id="perspective3181" />
    <inkscape:perspective
       id="perspective3191"
       inkscape:persp3d-origin="0.5 : 0.33333333 : 1"
       inkscape:vp_z="1 : 0.5 : 1"
       inkscape:vp_y="0 : 1000 : 0"
       inkscape:vp_x="0 : 0.5 : 1"
       sodipodi:type="inkscape:persp3d" />
    <inkscape:perspective
       id="perspective4006"
       inkscape:persp3d-origin="0.5 : 0.33333333 : 1"
       inkscape:vp_z="1 : 0.5 : 1"
       inkscape:vp_y="0 : 1000 : 0"
       inkscape:vp_x="0 : 0.5 : 1"
       sodipodi:type="inkscape:persp3d" />
    <inkscape:perspective
       id="perspective4034"
       inkscape:persp3d-origin="0.5 : 0.33333333 : 1"
       inkscape:vp_z="1 : 0.5 : 1"
       inkscape:vp_y="0 : 1000 : 0"
       inkscape:vp_x="0 : 0.5 : 1"
       sodipodi:type="inkscape:persp3d" />
    <inkscape:perspective
       id="perspective4081"
       inkscape:persp3d-origin="0.5 : 0.33333333 : 1"
       inkscape:vp_z="1 : 0.5 : 1"
       inkscape:vp_y="0 : 1000 : 0"
       inkscape:vp_x="0 : 0.5 : 1"
       sodipodi:type="inkscape:persp3d" />
    <inkscape:perspective
       id="perspective4147"
       inkscape:persp3d-origin="0.5 : 0.33333333 : 1"
       inkscape:vp_z="1 : 0.5 : 1"
       inkscape:vp_y="0 : 1000 : 0"
       inkscape:vp_x="0 : 0.5 : 1"
       sodipodi:type="inkscape:persp3d" />
    <inkscape:perspective
       id="perspective3807"
       inkscape:persp3d-origin="0.5 : 0.33333333 : 1"
       inkscape:vp_z="1 : 0.5 : 1"
       inkscape:vp_y="0 : 1000 : 0"
       inkscape:vp_x="0 : 0.5 : 1"
       sodipodi:type="inkscape:persp3d" />
    <inkscape:perspective
       id="perspective3838"
       inkscape:persp3d-origin="0.5 : 0.33333333 : 1"
       inkscape:vp_z="1 : 0.5 : 1"
       inkscape:vp_y="0 : 1000 : 0"
       inkscape:vp_x="0 : 0.5 : 1"
       sodipodi:type="inkscape:persp3d" />
    <inkscape:perspective
       id="perspective2993"
       inkscape:persp3d-origin="0.5 : 0.33333333 : 1"
       inkscape:vp_z="1 : 0.5 : 1"
       inkscape:vp_y="0 : 1000 : 0"
       inkscape:vp_x="0 : 0.5 : 1"
       sodipodi:type="inkscape:persp3d" />
    <inkscape:perspective
       id="perspective3798"
       inkscape:persp3d-origin="0.5 : 0.33333333 : 1"
       inkscape:vp_z="1 : 0.5 : 1"
       inkscape:vp_y="0 : 1000 : 0"
       inkscape:vp_x="0 : 0.5 : 1"
       sodipodi:type="inkscape:persp3d" />
  </defs>
  <sodipodi:namedview
     id="base"
     pagecolor="#ffffff"
     bordercolor="#666666"
     borderopacity="1.0"
     inkscape:pageopacity="0.0"
     inkscape:pageshadow="2"
     inkscape:zoom="0.49497475"
     inkscape:cx="64.773554"
     inkscape:cy="518.65267"
     inkscape:document-units="px"
     inkscape:current-layer="g5800"
     showgrid="false"
     inkscape:window-width="1440"
     inkscape:window-height="840"
     inkscape:window-x="-4"
     inkscape:window-y="-4"
     inkscape:window-maximized="1" />
  <metadata
     id="metadata3178">
    <rdf:RDF>
      <cc:Work
         rdf:about="">
        <dc:format>image/svg+xml</dc:format>
        <dc:type
           rdf:resource="http://purl.org/dc/dcmitype/StillImage" />
        <dc:title>Wei</dc:title>
        <dc:date>2010-07-14</dc:date>
        <dc:creator>
          <cc:Agent>
            <dc:title>Alex Amies</dc:title>
          </cc:Agent>
        </dc:creator>
        <dc:rights>
          <cc:Agent>
            <dc:title>@ Alex Amies 2010</dc:title>
          </cc:Agent>
        </dc:rights>
        <dc:publisher>
          <cc:Agent>
            <dc:title>chinesenotes.com</dc:title>
          </cc:Agent>
        </dc:publisher>
        <dc:source>Yan Qin Ceremonial Inscription</dc:source>
        <dc:language>Chinese 中文</dc:language>
        <dc:description>Tracing from Tang Dynasty Ceremonial Inscription by Yan Zhenqing 颜真卿 (709－785)</dc:description>
        <cc:license
           rdf:resource="http://creativecommons.org/licenses/by/3.0/" />
      </cc:Work>
      <cc:License
         rdf:about="http://creativecommons.org/licenses/by/3.0/">
        <cc:permits
           rdf:resource="http://creativecommons.org/ns#Reproduction" />
        <cc:permits
           rdf:resource="http://creativecommons.org/ns#Distribution" />
        <cc:requires
           rdf:resource="http://creativecommons.org/ns#Notice" />
        <cc:requires
           rdf:resource="http://creativecommons.org/ns#Attribution" />
        <cc:permits
           rdf:resource="http://creativecommons.org/ns#DerivativeWorks" />
      </cc:License>
    </rdf:RDF>
  </metadata>
  <g
     inkscape:label="Layer 1"
     inkscape:groupmode="layer"
     id="layer1"
     transform="translate(0,-52.362183)">
    <g
       transform="matrix(4.7418067,0,0,4.7418067,-524.70921,-2979.6975)"
       id="g5800"
       style="fill:none;fill-opacity:1">
      <path
         style="fill:none;stroke:#000000;stroke-width:0.98019081px;stroke-linecap:butt;stroke-linejoin:miter;stroke-opacity:1"
         d="m 157.59933,698.36851 0,0 z"
         id="path8562" />
      <path
         style="fill:#000000;stroke:#000000;stroke-width:4.64787530999999990px;stroke-linecap:butt;stroke-linejoin:miter;stroke-opacity:1;fill-opacity:1"
         d="M 455 2.25 C 414.44925 29.125802 481.55777 50.502891 475.90625 84.1875 C 491.98271 145.40986 499.97184 208.4054 510.59375 270.8125 C 439.2653 288.26348 366.84602 300.52558 293.75 308.3125 C 292.67297 304.00514 291.55576 299.708 290.3125 295.4375 C 279.01315 273.94924 248.34344 265.78683 229.90625 283.40625 C 224.65238 286.8801 219.83778 291.07165 215.96875 296.0625 C 242.4562 320.66148 237.821 359.64817 244.0625 392.09375 C 239.53976 514.82849 236.06251 650.54128 172.6875 760.125 C 154.73649 788.76343 137.47906 817.83255 118.03125 845.5 C 148.1293 856.38937 176.43064 833.20545 192.71875 809.96875 C 213.59359 777.29104 230.20361 741.90494 244.40625 705.3125 C 245.96702 710.01029 249.29763 713.68696 255.8125 715.46875 C 275.92084 724.80935 298.61163 725.33221 319.53125 718.09375 C 328.67854 715.55066 337.80526 712.89226 346.90625 710.1875 C 341.47013 722.65081 335.98367 735.09304 330.5 747.5625 C 313.80083 756.60332 305.85798 779.61981 317.84375 795.125 C 324.47118 811.39025 343.80922 806.42128 357.625 810.40625 C 378.61458 813.40304 398.98077 817.55957 418.8125 822.84375 C 404.97914 838.46882 390.30254 853.15889 375.59375 866.78125 C 353.26781 877.11858 329.89877 885.65192 308.28125 897.25 C 301.8498 902.69203 295.43145 908.12052 289 913.5625 C 297.81123 929.2658 314.13209 927.08619 329.53125 925.71875 C 363.84965 915.39498 398.67807 893.02589 427.65625 871.15625 C 438.94717 860.15072 450.02852 848.36317 460.65625 835.96875 C 502.49881 851.05702 542.12536 871.45991 580.53125 896.96875 C 593.48814 897.10389 607.13195 898.56893 618.53125 891.21875 C 632.84937 885.94667 627.625 868.32056 627.625 855.46875 C 589.67219 820.17554 543.8813 802.62919 496.09375 789.53125 C 530.2336 738.76301 554.57301 681.05567 557.5 621.90625 C 556.04313 592.84998 548.73902 572.1707 531.34375 550.03125 C 516.95298 545.96747 498.248 559.82841 505.0625 575.15625 C 507.85433 594.348 505.82064 613.74044 506.4375 633.03125 C 477.15085 634.59154 448.0931 641.6979 419.0625 649.75 C 439.86388 609.71564 455.93472 567.59645 464.9375 521.8125 C 455.92704 504.50141 448.62104 488.90032 430.78125 480.65625 C 472.05932 457.22111 513.5411 433.38375 536.3125 390.6875 C 526.35271 389.02754 516.39724 387.37867 506.4375 385.71875 C 467.75844 406.75355 427.24025 423.55014 386.03125 438.875 C 376.92006 439.41082 367.82966 439.96456 358.71875 440.5 C 345.19621 452.17836 347.19617 464.01039 360.84375 476.0625 C 376.57088 488.75139 395.33198 488.97119 414.5 488.46875 C 405.79448 498.68751 406.18695 516.13326 406.40625 530.15625 C 398.6743 576.89961 383.74537 621.09303 366.25 664.4375 C 333.53157 672.90931 300.714 679.077 267.46875 676.40625 C 263.36752 675.08209 259.11965 674.85599 255.34375 675.65625 C 271.38109 629.918 284.46173 582.89529 297.9375 537.3125 C 304.81707 478.95335 309.70371 417.96086 302.84375 358.8125 C 375.20937 349.83855 446.46919 329.83519 518.21875 312.46875 C 523.9948 341.53455 530.8574 370.34675 539.9375 398.6875 C 552.45487 449.00035 568.12411 498.45002 593.15625 544.09375 C 616.61036 594.60584 640.98996 644.86354 667.625 693.84375 C 660.81604 719.68485 653.42329 745.37028 643.96875 770.40625 C 638.49514 786.00343 632.88118 801.61285 631.25 818.15625 C 631.77734 822.63223 626.25945 830.53051 632.40625 831.8125 C 637.15692 832.49399 643.39699 838.77076 647.125 835.625 C 660.15861 818.57446 674.89539 802.58384 686.75 784.78125 C 691.13596 773.49843 695.67009 762.28728 700.21875 751.0625 C 708.69767 765.21455 717.40015 779.20839 726.40625 793.03125 C 768.29499 844.18638 809.80865 895.94412 860.1875 939.1875 C 889.26786 964.8559 912.30052 1005.072 956.40625 1000.0938 C 991.67197 983.89327 988.17467 916.44073 946.96875 913.5 C 906.98982 891.65995 927.21444 828.22166 914.53125 788.9375 C 903.13152 748.55827 889.57982 823.6271 891.75 841.8125 C 892.08287 859.77736 903.64845 909.82838 875.34375 875.9375 C 835.83061 833.91452 793.94409 793.55976 763.21875 744.21875 C 748.87373 726.92239 736.32476 708.53042 724.84375 689.46875 C 728.00237 681.22845 731.07069 672.96761 734.03125 664.65625 C 746.32889 621.47603 756.5053 577.59025 771.1875 535.15625 C 776.6228 523.68089 786.62738 512.95734 782.84375 499.375 C 784.04585 483.51043 766.72887 476.25098 757.28125 466.03125 C 746.59848 461.16943 735.63283 455.05061 723.84375 453.34375 L 708.96875 452.09375 L 685.71875 460.40625 C 681.85176 477.44555 688.7783 494.06464 688.59375 511.15625 C 689.64515 531.73062 691.83507 552.40092 687.90625 572.84375 C 686.23859 586.07886 685.26695 599.44134 684 612.75 C 674.42813 593.26889 665.0095 573.68705 655.125 554.4375 C 623.19951 472.7694 590.40254 387.55452 571.0625 300.375 C 597.42315 294.80178 623.92679 290.00982 650.59375 286.71875 C 680.54732 286.35363 693.29483 284.36368 705.65625 257.875 C 697.99624 238.60107 680.32539 217.9364 657.375 221.78125 C 640.96541 223.11872 619.68709 215.11347 608.03125 230.84375 C 598.46551 245.0263 582.77887 254.61441 565.71875 256.21875 C 564.68873 256.51234 563.65551 256.80242 562.625 257.09375 C 558.0803 229.56529 555.10086 201.87832 554.125 174.0625 C 550.21713 135.71191 545.48615 99.920371 568.25 69.9375 C 563.19386 37.333359 520.97605 26.150712 494.0625 13.46875 C 481.1213 9.4655745 468.4022 4.4896501 455 2.25 z M 639.84375 50.75 C 638.4966 51.036879 637.16534 51.427714 635.9375 52.0625 C 616.84732 61.587272 621.12277 82.557429 630.09375 98.5 C 673.33713 130.13311 672.21124 197.20871 717.46875 189.46875 C 746.18072 180.28686 757.62219 168.41225 753.46875 138.1875 C 746.05252 76.338361 700.37225 70.882526 639.84375 50.75 z M 483.21875 669.5625 C 510.2608 670.91695 487.19561 699.38279 486.28125 714.625 C 478.38863 737.0757 466.93351 758.4825 453.28125 778.71875 C 420.04578 770.75446 386.68775 763.04033 355.0625 751.3125 C 368.20122 733.19792 380.72775 714.90721 392.375 696.28125 C 422.52457 686.93626 452.69043 677.59371 483.21875 669.5625 z "
         transform="matrix(0.21089008,0,0,0.21089008,110.65597,639.43131)"
         id="path8564" />
    </g>
  </g>
</svg>
