<?xml version="1.0" encoding="UTF-8" standalone="no"?>
<!-- Created with Inkscape (http://www.inkscape.org/) -->

<svg
   xmlns:dc="http://purl.org/dc/elements/1.1/"
   xmlns:cc="http://creativecommons.org/ns#"
   xmlns:rdf="http://www.w3.org/1999/02/22-rdf-syntax-ns#"
   xmlns:svg="http://www.w3.org/2000/svg"
   xmlns="http://www.w3.org/2000/svg"
   xmlns:sodipodi="http://sodipodi.sourceforge.net/DTD/sodipodi-0.dtd"
   xmlns:inkscape="http://www.inkscape.org/namespaces/inkscape"
   width="1000"
   height="1000"
   id="svg3173"
   version="1.1"
   inkscape:version="0.47 r22583"
   sodipodi:docname="5b50.svg"
   inkscape:export-filename="E:\chinese\yan\31da.png"
   inkscape:export-xdpi="18.005705"
   inkscape:export-ydpi="18.005705">
  <title
     id="title3653">Zi</title>
  <defs
     id="defs3175">
    <inkscape:perspective
       sodipodi:type="inkscape:persp3d"
       inkscape:vp_x="0 : 526.18109 : 1"
       inkscape:vp_y="0 : 1000 : 0"
       inkscape:vp_z="744.09448 : 526.18109 : 1"
       inkscape:persp3d-origin="372.04724 : 350.78739 : 1"
       id="perspective3181" />
    <inkscape:perspective
       id="perspective3191"
       inkscape:persp3d-origin="0.5 : 0.33333333 : 1"
       inkscape:vp_z="1 : 0.5 : 1"
       inkscape:vp_y="0 : 1000 : 0"
       inkscape:vp_x="0 : 0.5 : 1"
       sodipodi:type="inkscape:persp3d" />
    <inkscape:perspective
       id="perspective4006"
       inkscape:persp3d-origin="0.5 : 0.33333333 : 1"
       inkscape:vp_z="1 : 0.5 : 1"
       inkscape:vp_y="0 : 1000 : 0"
       inkscape:vp_x="0 : 0.5 : 1"
       sodipodi:type="inkscape:persp3d" />
    <inkscape:perspective
       id="perspective4034"
       inkscape:persp3d-origin="0.5 : 0.33333333 : 1"
       inkscape:vp_z="1 : 0.5 : 1"
       inkscape:vp_y="0 : 1000 : 0"
       inkscape:vp_x="0 : 0.5 : 1"
       sodipodi:type="inkscape:persp3d" />
    <inkscape:perspective
       id="perspective4081"
       inkscape:persp3d-origin="0.5 : 0.33333333 : 1"
       inkscape:vp_z="1 : 0.5 : 1"
       inkscape:vp_y="0 : 1000 : 0"
       inkscape:vp_x="0 : 0.5 : 1"
       sodipodi:type="inkscape:persp3d" />
    <inkscape:perspective
       id="perspective4147"
       inkscape:persp3d-origin="0.5 : 0.33333333 : 1"
       inkscape:vp_z="1 : 0.5 : 1"
       inkscape:vp_y="0 : 1000 : 0"
       inkscape:vp_x="0 : 0.5 : 1"
       sodipodi:type="inkscape:persp3d" />
    <inkscape:perspective
       id="perspective3797"
       inkscape:persp3d-origin="0.5 : 0.33333333 : 1"
       inkscape:vp_z="1 : 0.5 : 1"
       inkscape:vp_y="0 : 1000 : 0"
       inkscape:vp_x="0 : 0.5 : 1"
       sodipodi:type="inkscape:persp3d" />
    <inkscape:perspective
       id="perspective3780"
       inkscape:persp3d-origin="0.5 : 0.33333333 : 1"
       inkscape:vp_z="1 : 0.5 : 1"
       inkscape:vp_y="0 : 1000 : 0"
       inkscape:vp_x="0 : 0.5 : 1"
       sodipodi:type="inkscape:persp3d" />
  </defs>
  <sodipodi:namedview
     id="base"
     pagecolor="#ffffff"
     bordercolor="#666666"
     borderopacity="1.0"
     inkscape:pageopacity="0.0"
     inkscape:pageshadow="2"
     inkscape:zoom="0.49497475"
     inkscape:cx="627.49309"
     inkscape:cy="517.63307"
     inkscape:document-units="px"
     inkscape:current-layer="layer1"
     showgrid="false"
     inkscape:window-width="1440"
     inkscape:window-height="840"
     inkscape:window-x="-4"
     inkscape:window-y="-4"
     inkscape:window-maximized="1" />
  <metadata
     id="metadata3178">
    <rdf:RDF>
      <cc:Work
         rdf:about="">
        <dc:format>image/svg+xml</dc:format>
        <dc:type
           rdf:resource="http://purl.org/dc/dcmitype/StillImage" />
        <dc:title>Zi</dc:title>
        <dc:date>2010-07-17</dc:date>
        <dc:creator>
          <cc:Agent>
            <dc:title>Alex Amies</dc:title>
          </cc:Agent>
        </dc:creator>
        <dc:rights>
          <cc:Agent>
            <dc:title>@ Alex Amies 2010</dc:title>
          </cc:Agent>
        </dc:rights>
        <dc:publisher>
          <cc:Agent>
            <dc:title>chinesenotes.com</dc:title>
          </cc:Agent>
        </dc:publisher>
        <dc:source>Yan Qin Ceremonial Inscription</dc:source>
        <dc:language>Chinese 中文</dc:language>
        <dc:description>Tracing from Tang Dynasty Ceremonial Inscription by Yan Zhenqing 颜真卿 (709－785)</dc:description>
        <cc:license
           rdf:resource="http://creativecommons.org/licenses/by/3.0/" />
      </cc:Work>
      <cc:License
         rdf:about="http://creativecommons.org/licenses/by/3.0/">
        <cc:permits
           rdf:resource="http://creativecommons.org/ns#Reproduction" />
        <cc:permits
           rdf:resource="http://creativecommons.org/ns#Distribution" />
        <cc:requires
           rdf:resource="http://creativecommons.org/ns#Notice" />
        <cc:requires
           rdf:resource="http://creativecommons.org/ns#Attribution" />
        <cc:permits
           rdf:resource="http://creativecommons.org/ns#DerivativeWorks" />
      </cc:License>
    </rdf:RDF>
  </metadata>
  <g
     inkscape:label="Layer 1"
     inkscape:groupmode="layer"
     id="layer1"
     transform="translate(0,-52.362183)">
    <path
       style="fill:#000000;stroke:#000000;stroke-width:4.76094626999999980px;stroke-linecap:butt;stroke-linejoin:miter;stroke-opacity:1;fill-opacity:1"
       d="M 681.0625 61.4375 C 659.52879 61.769145 643.46197 76.925828 629.34375 94.71875 C 533.17006 99.93213 443.34551 141.41899 351.75 167.71875 C 338.96976 168.566 324.83804 163.49807 312.90625 168.4375 C 287.55017 182.69449 266.98855 204.30604 260.90625 233.625 C 251.15659 260.67432 273.67898 341.13908 310 307.09375 C 325.09677 290.45995 330.59447 267.57706 339.75 247.4375 C 344.9312 231.35988 362.22576 223.38969 374.59375 212.9375 C 446.72913 182.9274 517.07795 151.19932 591.9375 128.71875 C 600.6421 154.87046 558.41289 202.62576 541.34375 231.8125 C 524.36192 227.55658 507.24608 227.46641 489.90625 230.75 C 464.67633 255.29701 496.19836 285.62501 510.1875 307 C 524.75318 338.59988 532.11914 372.32509 535.875 406.8125 C 508.84688 411.32312 481.83447 415.91123 454.875 420.8125 C 390.48201 435.0294 333.43408 457.323 270.46875 476.75 C 238.06189 488.05553 204.51685 488.52975 174.46875 480.5625 C 169.66867 480.68866 164.86225 481.04457 160.0625 480.6875 C 139.39566 499.60574 118.56494 521.11283 114.90625 550.34375 C 111.21147 569.69924 136.54228 585.03977 152.03125 594.59375 C 179.36561 596.78259 211.69175 597.12642 229.53125 571.84375 C 247.26168 541.23205 281.09377 527.75672 313.28125 517.375 C 382.58477 496.43603 450.18452 470.04348 519.65625 449.75 C 526.00566 448.36724 532.38243 447.13263 538.78125 446.03125 C 540.22781 479.24889 539.58188 512.70439 539.90625 545.21875 C 539.11798 599.94449 476.43143 816.62324 431.90625 846.3125 C 415.70094 848.2245 390.15085 797.26084 386.125 807.03125 C 391.00601 822.71809 391.73969 855.72907 391.375 871.8125 C 390.85058 894.94404 374.47041 913.16158 392.125 941.125 C 402.04158 973.69655 441.50692 970.7456 467.375 964.625 C 529.40542 949.269 566.30455 855.72157 583.65625 798.71875 C 611.28216 720.08863 628.83612 638.5161 631.34375 555.1875 C 633.66426 514.91771 630.50022 474.60636 625.5625 434.59375 C 628.4649 434.19515 631.35329 433.77513 634.25 433.34375 C 670.92386 429.71172 707.92345 431.63359 744.71875 431.8125 C 766.92647 436.48133 793.0716 453.76825 814.09375 438 C 839.31049 422.66504 822.70195 385.72205 798.9375 378.5625 C 773.17454 358.69202 738.66067 377.43566 709.125 377.375 C 679.45747 382.83189 649.7214 387.91144 619.96875 392.875 C 611.98428 337.34511 584.62312 289.15553 554.71875 242.40625 C 563.53168 237.97842 573.12015 226.80292 580.6875 223.8125 C 607.69135 207.77954 622.60405 177.68942 650.4375 162.84375 C 667.42755 151.40719 689.99794 169.51508 708.875 158.6875 C 728.53785 131.81786 721.35704 89.16118 700.5 64.90625 C 693.53618 62.409608 687.09194 61.344639 681.0625 61.4375 z "
       transform="translate(0,52.362183)"
       id="path4142" />
  </g>
</svg>
