<?xml version="1.0" encoding="UTF-8" standalone="no"?>
<!-- Created with Inkscape (http://www.inkscape.org/) -->

<svg
   xmlns:dc="http://purl.org/dc/elements/1.1/"
   xmlns:cc="http://creativecommons.org/ns#"
   xmlns:rdf="http://www.w3.org/1999/02/22-rdf-syntax-ns#"
   xmlns:svg="http://www.w3.org/2000/svg"
   xmlns="http://www.w3.org/2000/svg"
   xmlns:sodipodi="http://sodipodi.sourceforge.net/DTD/sodipodi-0.dtd"
   xmlns:inkscape="http://www.inkscape.org/namespaces/inkscape"
   width="1000"
   height="1000"
   id="svg3173"
   version="1.1"
   inkscape:version="0.47 r22583"
   sodipodi:docname="5b59.svg"
   inkscape:export-filename="E:\chinese\yan\5b59.png"
   inkscape:export-xdpi="18.005705"
   inkscape:export-ydpi="18.005705">
  <title
     id="title5975">Sun</title>
  <defs
     id="defs3175">
    <inkscape:perspective
       sodipodi:type="inkscape:persp3d"
       inkscape:vp_x="0 : 526.18109 : 1"
       inkscape:vp_y="0 : 1000 : 0"
       inkscape:vp_z="744.09448 : 526.18109 : 1"
       inkscape:persp3d-origin="372.04724 : 350.78739 : 1"
       id="perspective3181" />
    <inkscape:perspective
       id="perspective3191"
       inkscape:persp3d-origin="0.5 : 0.33333333 : 1"
       inkscape:vp_z="1 : 0.5 : 1"
       inkscape:vp_y="0 : 1000 : 0"
       inkscape:vp_x="0 : 0.5 : 1"
       sodipodi:type="inkscape:persp3d" />
    <inkscape:perspective
       id="perspective4006"
       inkscape:persp3d-origin="0.5 : 0.33333333 : 1"
       inkscape:vp_z="1 : 0.5 : 1"
       inkscape:vp_y="0 : 1000 : 0"
       inkscape:vp_x="0 : 0.5 : 1"
       sodipodi:type="inkscape:persp3d" />
    <inkscape:perspective
       id="perspective4034"
       inkscape:persp3d-origin="0.5 : 0.33333333 : 1"
       inkscape:vp_z="1 : 0.5 : 1"
       inkscape:vp_y="0 : 1000 : 0"
       inkscape:vp_x="0 : 0.5 : 1"
       sodipodi:type="inkscape:persp3d" />
    <inkscape:perspective
       id="perspective4081"
       inkscape:persp3d-origin="0.5 : 0.33333333 : 1"
       inkscape:vp_z="1 : 0.5 : 1"
       inkscape:vp_y="0 : 1000 : 0"
       inkscape:vp_x="0 : 0.5 : 1"
       sodipodi:type="inkscape:persp3d" />
    <inkscape:perspective
       id="perspective4147"
       inkscape:persp3d-origin="0.5 : 0.33333333 : 1"
       inkscape:vp_z="1 : 0.5 : 1"
       inkscape:vp_y="0 : 1000 : 0"
       inkscape:vp_x="0 : 0.5 : 1"
       sodipodi:type="inkscape:persp3d" />
    <inkscape:perspective
       id="perspective3807"
       inkscape:persp3d-origin="0.5 : 0.33333333 : 1"
       inkscape:vp_z="1 : 0.5 : 1"
       inkscape:vp_y="0 : 1000 : 0"
       inkscape:vp_x="0 : 0.5 : 1"
       sodipodi:type="inkscape:persp3d" />
    <inkscape:perspective
       id="perspective3838"
       inkscape:persp3d-origin="0.5 : 0.33333333 : 1"
       inkscape:vp_z="1 : 0.5 : 1"
       inkscape:vp_y="0 : 1000 : 0"
       inkscape:vp_x="0 : 0.5 : 1"
       sodipodi:type="inkscape:persp3d" />
    <inkscape:perspective
       id="perspective2993"
       inkscape:persp3d-origin="0.5 : 0.33333333 : 1"
       inkscape:vp_z="1 : 0.5 : 1"
       inkscape:vp_y="0 : 1000 : 0"
       inkscape:vp_x="0 : 0.5 : 1"
       sodipodi:type="inkscape:persp3d" />
    <inkscape:perspective
       id="perspective3798"
       inkscape:persp3d-origin="0.5 : 0.33333333 : 1"
       inkscape:vp_z="1 : 0.5 : 1"
       inkscape:vp_y="0 : 1000 : 0"
       inkscape:vp_x="0 : 0.5 : 1"
       sodipodi:type="inkscape:persp3d" />
    <inkscape:perspective
       id="perspective3806"
       inkscape:persp3d-origin="0.5 : 0.33333333 : 1"
       inkscape:vp_z="1 : 0.5 : 1"
       inkscape:vp_y="0 : 1000 : 0"
       inkscape:vp_x="0 : 0.5 : 1"
       sodipodi:type="inkscape:persp3d" />
    <inkscape:perspective
       id="perspective3778"
       inkscape:persp3d-origin="0.5 : 0.33333333 : 1"
       inkscape:vp_z="1 : 0.5 : 1"
       inkscape:vp_y="0 : 1000 : 0"
       inkscape:vp_x="0 : 0.5 : 1"
       sodipodi:type="inkscape:persp3d" />
    <inkscape:perspective
       id="perspective5986"
       inkscape:persp3d-origin="0.5 : 0.33333333 : 1"
       inkscape:vp_z="1 : 0.5 : 1"
       inkscape:vp_y="0 : 1000 : 0"
       inkscape:vp_x="0 : 0.5 : 1"
       sodipodi:type="inkscape:persp3d" />
  </defs>
  <sodipodi:namedview
     id="base"
     pagecolor="#ffffff"
     bordercolor="#666666"
     borderopacity="1.0"
     inkscape:pageopacity="0.0"
     inkscape:pageshadow="2"
     inkscape:zoom="0.49497475"
     inkscape:cx="555.70769"
     inkscape:cy="520.67298"
     inkscape:document-units="px"
     inkscape:current-layer="g4097"
     showgrid="false"
     inkscape:window-width="1440"
     inkscape:window-height="840"
     inkscape:window-x="-4"
     inkscape:window-y="-4"
     inkscape:window-maximized="1" />
  <metadata
     id="metadata3178">
    <rdf:RDF>
      <cc:Work
         rdf:about="">
        <dc:format>image/svg+xml</dc:format>
        <dc:type
           rdf:resource="http://purl.org/dc/dcmitype/StillImage" />
        <dc:title>Sun</dc:title>
        <dc:date>2010-08-09</dc:date>
        <dc:creator>
          <cc:Agent>
            <dc:title>Alex Amies</dc:title>
          </cc:Agent>
        </dc:creator>
        <dc:rights>
          <cc:Agent>
            <dc:title>@ Alex Amies 2010</dc:title>
          </cc:Agent>
        </dc:rights>
        <dc:publisher>
          <cc:Agent>
            <dc:title>chinesenotes.com</dc:title>
          </cc:Agent>
        </dc:publisher>
        <dc:source>Yan Qin Ceremonial Inscription</dc:source>
        <dc:language>Chinese 中文</dc:language>
        <dc:description>Tracing from Tang Dynasty Ceremonial Inscription by Yan Zhenqing 颜真卿 (709－785)</dc:description>
        <cc:license
           rdf:resource="http://creativecommons.org/licenses/by/3.0/" />
      </cc:Work>
      <cc:License
         rdf:about="http://creativecommons.org/licenses/by/3.0/">
        <cc:permits
           rdf:resource="http://creativecommons.org/ns#Reproduction" />
        <cc:permits
           rdf:resource="http://creativecommons.org/ns#Distribution" />
        <cc:requires
           rdf:resource="http://creativecommons.org/ns#Notice" />
        <cc:requires
           rdf:resource="http://creativecommons.org/ns#Attribution" />
        <cc:permits
           rdf:resource="http://creativecommons.org/ns#DerivativeWorks" />
      </cc:License>
    </rdf:RDF>
  </metadata>
  <g
     inkscape:label="Layer 1"
     inkscape:groupmode="layer"
     id="layer1"
     transform="translate(0,-52.362183)">
    <g
       transform="matrix(4.7418067,0,0,4.7418067,-524.70921,-2979.6975)"
       id="g5800"
       style="fill:none;fill-opacity:1">
      <g
         transform="translate(-224.16253,197.89006)"
         id="g4097"
         style="fill:#000000;fill-opacity:1">
        <path
           style="fill:#000000;fill-opacity:1;stroke:#000000;stroke-width:4.74180651px;stroke-linecap:butt;stroke-linejoin:miter;stroke-opacity:1"
           d="M 438.625 82.21875 C 436.64476 82.231021 434.66961 82.354941 432.6875 82.59375 C 326.31635 102.93169 232.59986 161.8803 138.3125 212.15625 C 106.63026 226.46408 69.018852 229.96655 39.8125 249.4375 C 34.928581 272.63238 49.026282 293.95722 69.09375 304.65625 C 81.511499 314.55529 98.52351 313.29984 113.1875 310.40625 C 130.764 305.17281 147.51508 298.05199 159.40625 283.46875 C 204.03016 240.97472 249.74858 199.60312 297.34375 160.46875 C 324.05767 146.52499 352.0252 131.30972 383.15625 132.65625 C 404.91028 128.7803 379.11666 153.49317 376.3125 163.40625 C 362.87 185.62868 348.29823 207.14625 334.46875 229.125 C 334.47125 229.13508 334.46625 229.14619 334.46875 229.15625 C 329.18677 226.9473 323.60051 225.58937 317.53125 225.75 C 293.56327 234.7812 277.36729 262.05572 287.6875 286.8125 C 298.03598 327.01724 304.22773 368.90632 306.625 411.46875 C 287.78838 421.84513 268.72291 431.62715 249 439.90625 C 203.54409 458.98733 149.66358 463.67898 107.5625 484.84375 C 95.717277 490.79851 93.346902 508.79511 90.84375 522.90625 C 87.652988 540.89349 88.597029 560.28666 95.6875 576.28125 C 102.4725 591.58671 120.98857 590.89693 136.90625 588.4375 C 154.08363 585.78346 163.70811 567.9602 169.1875 552.78125 C 173.70341 540.27146 189.67952 534.03255 200.375 525.53125 C 223.6182 507.05646 250.17936 493.08303 275.25 477.125 C 286.02096 470.26905 296.86546 463.50833 307.75 456.78125 C 307.25199 558.99773 286.25545 663.02221 250.46875 755.15625 C 240.05318 772.3463 217.78123 780.14239 202.4375 764.03125 L 105.84375 701.625 C 73.591309 709.43125 110.31623 746.51416 120.96875 761.03125 C 150.0539 796.22973 166.53677 846.64923 188.84375 879.4375 C 198.36482 893.43223 231.91296 888.2625 249.21875 876 C 337.08533 818.2896 359.02386 705.06068 376.9375 608.46875 C 391.52286 540.93043 395.41164 471.72225 395.375 402.5625 C 409.68375 393.47735 423.85269 384.26433 437.78125 374.78125 C 442.79339 371.36881 448.78993 365.08282 447.9375 359.53125 C 445.23377 341.92331 415.81513 351.28245 403.3125 357.59375 C 400.51272 359.00708 397.75128 360.45317 394.96875 361.90625 C 394.60728 342.91552 394.01924 323.93129 393.40625 305.03125 C 384.10297 283.95198 377.94735 256.2875 357.875 243.125 C 355.10632 241.30675 352.33162 239.40217 349.53125 237.5625 C 353.62563 235.14608 357.87953 231.07272 361.625 227.625 C 386.0381 209.72563 404.46778 185.20698 427.78125 166.1875 C 445.79552 156.12069 469.13794 149.41443 481.8125 136 C 487.71676 129.7511 487.43821 115.30035 483.5 107.1875 C 476.26289 92.278922 457.76734 82.10013 438.625 82.21875 z "
           transform="matrix(0.21089008,0,0,0.21089008,334.8185,441.54125)"
           id="path4052" />
        <g
           id="g6048"
           transform="matrix(1,0,0,1.2060399,0,-131.3515)">
          <path
             sodipodi:nodetypes="cccccssscsscccssc"
             style="fill:#000000;fill-opacity:1;stroke:#000000;stroke-width:1px;stroke-linecap:butt;stroke-linejoin:miter;stroke-opacity:1"
             d="m 478.07645,495.10087 c -4.3451,3.38005 -4.59766,9.97469 -3.92857,15 C 476.49553,523.7627 480,605.21933 480,605.21933 l -1.78571,6.42857 -2.14286,0.71428 c 0,0 -9.31179,-4.78558 -14.64286,-7.5 -1.16696,-0.59418 -2.94685,-0.86665 -3.92857,0 -0.71954,0.6352 -1.0685,2.21281 -0.35714,2.85715 6.60588,5.98344 14.64285,12.5 14.64285,12.5 0,0 4.13452,5.12788 5,8.21428 0.51429,1.83402 -0.72892,3.95452 0,5.71429 0.51543,1.24435 1.51777,2.71525 2.85715,2.85714 10.49539,-2.25938 13.55845,-17.59871 14.64285,-26.42857 0.78644,-14.24849 -2.10209,-82.51096 -4.0664,-96.54703 -0.59831,-4.28529 0.0791,-8.95276 -1.78572,-12.85714 -1.12525,-2.35599 -2.99991,-4.59163 -5.35714,-5.71429 -1.50856,-0.71847 -3.52092,-1.13448 -5,-0.35714 z"
             id="path4064" />
          <path
             sodipodi:nodetypes="ccccscc"
             style="fill:#000000;fill-opacity:1;stroke:#000000;stroke-width:1px;stroke-linecap:butt;stroke-linejoin:miter;stroke-opacity:1"
             d="m 436.63533,553.71219 c -1.61623,5.06239 -3.59365,10.67585 -3.21428,16.07143 1.21407,4.61454 3.27511,8.41406 7.85714,9.99999 3.78232,0.53599 5.98039,-1.19719 7.14286,-4.64285 0.66627,-5.99646 0.42625,-12.43342 0,-18.57143 -0.16899,-2.43342 -0.40883,-5.69712 -1.78572,-7.14286 -4.18144,-2.10015 -7.92496,0.53498 -10,4.28572 z"
             id="path4066" />
          <path
             sodipodi:nodetypes="cscccccc"
             style="fill:#000000;fill-opacity:1;stroke:#000000;stroke-width:1px;stroke-linecap:butt;stroke-linejoin:miter;stroke-opacity:1"
             d="m 509.84962,551.56933 c 1.274,3.28353 4.20215,6.48118 6.79709,9.36193 3.68353,4.08924 7.18746,8.37446 10.9784,12.34213 2.90384,1.63613 7.41984,-1.30032 9.72451,-3.13263 1.14775,-4.52105 1.09288,-9.91901 -0.71429,-14.28572 -3.01196,-5.92995 -8.44912,-8.99494 -14.64285,-10.71428 -2.26455,-0.55356 -4.96558,-0.58061 -7.14286,0 -2.61231,1.20287 -4.79909,3.53836 -5,6.42857 z"
             id="path4068" />
        </g>
      </g>
    </g>
  </g>
</svg>
