<?xml version="1.0" encoding="UTF-8" standalone="no"?>
<!-- Created with Inkscape (http://www.inkscape.org/) -->

<svg
   xmlns:dc="http://purl.org/dc/elements/1.1/"
   xmlns:cc="http://creativecommons.org/ns#"
   xmlns:rdf="http://www.w3.org/1999/02/22-rdf-syntax-ns#"
   xmlns:svg="http://www.w3.org/2000/svg"
   xmlns="http://www.w3.org/2000/svg"
   xmlns:sodipodi="http://sodipodi.sourceforge.net/DTD/sodipodi-0.dtd"
   xmlns:inkscape="http://www.inkscape.org/namespaces/inkscape"
   width="1000"
   height="1000"
   id="svg3173"
   version="1.1"
   inkscape:version="0.47 r22583"
   sodipodi:docname="5b63.svg"
   inkscape:export-filename="E:\chinese\yan\5b63.png"
   inkscape:export-xdpi="18.005705"
   inkscape:export-ydpi="18.005705">
  <title
     id="title5424">Ji</title>
  <defs
     id="defs3175">
    <inkscape:perspective
       sodipodi:type="inkscape:persp3d"
       inkscape:vp_x="0 : 526.18109 : 1"
       inkscape:vp_y="0 : 1000 : 0"
       inkscape:vp_z="744.09448 : 526.18109 : 1"
       inkscape:persp3d-origin="372.04724 : 350.78739 : 1"
       id="perspective3181" />
    <inkscape:perspective
       id="perspective3191"
       inkscape:persp3d-origin="0.5 : 0.33333333 : 1"
       inkscape:vp_z="1 : 0.5 : 1"
       inkscape:vp_y="0 : 1000 : 0"
       inkscape:vp_x="0 : 0.5 : 1"
       sodipodi:type="inkscape:persp3d" />
    <inkscape:perspective
       id="perspective4006"
       inkscape:persp3d-origin="0.5 : 0.33333333 : 1"
       inkscape:vp_z="1 : 0.5 : 1"
       inkscape:vp_y="0 : 1000 : 0"
       inkscape:vp_x="0 : 0.5 : 1"
       sodipodi:type="inkscape:persp3d" />
    <inkscape:perspective
       id="perspective4034"
       inkscape:persp3d-origin="0.5 : 0.33333333 : 1"
       inkscape:vp_z="1 : 0.5 : 1"
       inkscape:vp_y="0 : 1000 : 0"
       inkscape:vp_x="0 : 0.5 : 1"
       sodipodi:type="inkscape:persp3d" />
    <inkscape:perspective
       id="perspective4081"
       inkscape:persp3d-origin="0.5 : 0.33333333 : 1"
       inkscape:vp_z="1 : 0.5 : 1"
       inkscape:vp_y="0 : 1000 : 0"
       inkscape:vp_x="0 : 0.5 : 1"
       sodipodi:type="inkscape:persp3d" />
    <inkscape:perspective
       id="perspective4147"
       inkscape:persp3d-origin="0.5 : 0.33333333 : 1"
       inkscape:vp_z="1 : 0.5 : 1"
       inkscape:vp_y="0 : 1000 : 0"
       inkscape:vp_x="0 : 0.5 : 1"
       sodipodi:type="inkscape:persp3d" />
    <inkscape:perspective
       id="perspective3858"
       inkscape:persp3d-origin="0.5 : 0.33333333 : 1"
       inkscape:vp_z="1 : 0.5 : 1"
       inkscape:vp_y="0 : 1000 : 0"
       inkscape:vp_x="0 : 0.5 : 1"
       sodipodi:type="inkscape:persp3d" />
    <inkscape:perspective
       id="perspective3876"
       inkscape:persp3d-origin="0.5 : 0.33333333 : 1"
       inkscape:vp_z="1 : 0.5 : 1"
       inkscape:vp_y="0 : 1000 : 0"
       inkscape:vp_x="0 : 0.5 : 1"
       sodipodi:type="inkscape:persp3d" />
    <inkscape:perspective
       id="perspective3901"
       inkscape:persp3d-origin="0.5 : 0.33333333 : 1"
       inkscape:vp_z="1 : 0.5 : 1"
       inkscape:vp_y="0 : 1000 : 0"
       inkscape:vp_x="0 : 0.5 : 1"
       sodipodi:type="inkscape:persp3d" />
    <inkscape:perspective
       id="perspective4392"
       inkscape:persp3d-origin="0.5 : 0.33333333 : 1"
       inkscape:vp_z="1 : 0.5 : 1"
       inkscape:vp_y="0 : 1000 : 0"
       inkscape:vp_x="0 : 0.5 : 1"
       sodipodi:type="inkscape:persp3d" />
    <inkscape:perspective
       id="perspective3806"
       inkscape:persp3d-origin="0.5 : 0.33333333 : 1"
       inkscape:vp_z="1 : 0.5 : 1"
       inkscape:vp_y="0 : 1000 : 0"
       inkscape:vp_x="0 : 0.5 : 1"
       sodipodi:type="inkscape:persp3d" />
    <inkscape:perspective
       id="perspective3763"
       inkscape:persp3d-origin="0.5 : 0.33333333 : 1"
       inkscape:vp_z="1 : 0.5 : 1"
       inkscape:vp_y="0 : 1000 : 0"
       inkscape:vp_x="0 : 0.5 : 1"
       sodipodi:type="inkscape:persp3d" />
    <inkscape:perspective
       id="perspective3790"
       inkscape:persp3d-origin="0.5 : 0.33333333 : 1"
       inkscape:vp_z="1 : 0.5 : 1"
       inkscape:vp_y="0 : 1000 : 0"
       inkscape:vp_x="0 : 0.5 : 1"
       sodipodi:type="inkscape:persp3d" />
    <inkscape:perspective
       id="perspective3825"
       inkscape:persp3d-origin="0.5 : 0.33333333 : 1"
       inkscape:vp_z="1 : 0.5 : 1"
       inkscape:vp_y="0 : 1000 : 0"
       inkscape:vp_x="0 : 0.5 : 1"
       sodipodi:type="inkscape:persp3d" />
    <inkscape:perspective
       id="perspective3767"
       inkscape:persp3d-origin="0.5 : 0.33333333 : 1"
       inkscape:vp_z="1 : 0.5 : 1"
       inkscape:vp_y="0 : 1000 : 0"
       inkscape:vp_x="0 : 0.5 : 1"
       sodipodi:type="inkscape:persp3d" />
    <inkscape:perspective
       id="perspective3792"
       inkscape:persp3d-origin="0.5 : 0.33333333 : 1"
       inkscape:vp_z="1 : 0.5 : 1"
       inkscape:vp_y="0 : 1000 : 0"
       inkscape:vp_x="0 : 0.5 : 1"
       sodipodi:type="inkscape:persp3d" />
  </defs>
  <sodipodi:namedview
     id="base"
     pagecolor="#ffffff"
     bordercolor="#666666"
     borderopacity="1.0"
     inkscape:pageopacity="0.0"
     inkscape:pageshadow="2"
     inkscape:zoom="0.49497475"
     inkscape:cx="413.61348"
     inkscape:cy="540.34663"
     inkscape:document-units="px"
     inkscape:current-layer="g4371"
     showgrid="false"
     inkscape:window-width="1440"
     inkscape:window-height="840"
     inkscape:window-x="-4"
     inkscape:window-y="-4"
     inkscape:window-maximized="1" />
  <metadata
     id="metadata3178">
    <rdf:RDF>
      <cc:Work
         rdf:about="">
        <dc:format>image/svg+xml</dc:format>
        <dc:type
           rdf:resource="http://purl.org/dc/dcmitype/StillImage" />
        <dc:title>Ji</dc:title>
        <dc:date>2010-08-11</dc:date>
        <dc:creator>
          <cc:Agent>
            <dc:title>Alex Amies</dc:title>
          </cc:Agent>
        </dc:creator>
        <dc:rights>
          <cc:Agent>
            <dc:title>@ Alex Amies 2010</dc:title>
          </cc:Agent>
        </dc:rights>
        <dc:publisher>
          <cc:Agent>
            <dc:title>chinesenotes.com</dc:title>
          </cc:Agent>
        </dc:publisher>
        <dc:source>Yan Qin Ceremonial Inscription</dc:source>
        <dc:language>Chinese 中文</dc:language>
        <dc:description>Tracing from Tang Dynasty Ceremonial Inscription by Yan Zhenqing 颜真卿 (709－785)</dc:description>
        <cc:license
           rdf:resource="http://creativecommons.org/licenses/by/3.0/" />
      </cc:Work>
      <cc:License
         rdf:about="http://creativecommons.org/licenses/by/3.0/">
        <cc:permits
           rdf:resource="http://creativecommons.org/ns#Reproduction" />
        <cc:permits
           rdf:resource="http://creativecommons.org/ns#Distribution" />
        <cc:requires
           rdf:resource="http://creativecommons.org/ns#Notice" />
        <cc:requires
           rdf:resource="http://creativecommons.org/ns#Attribution" />
        <cc:permits
           rdf:resource="http://creativecommons.org/ns#DerivativeWorks" />
      </cc:License>
    </rdf:RDF>
  </metadata>
  <g
     inkscape:label="Layer 1"
     inkscape:groupmode="layer"
     id="layer1"
     transform="translate(0,-52.362183)">
    <g
       transform="matrix(4.7488612,0,0,4.7488612,-1416.4781,-3986.1517)"
       id="g4371"
       style="fill:#000000;fill-opacity:1">
      <g
         transform="matrix(1.0005297,0,0,1.0005297,-46.387285,6.0819299)"
         id="g9212"
         style="fill:#000000;fill-opacity:1">
        <path
           style="fill:#000000;stroke:#000000;stroke-width:4.75137663000000020px;stroke-linecap:butt;stroke-linejoin:miter;stroke-opacity:1;fill-opacity:1"
           d="M 554.71875 7.0625 C 544.85779 7.1686796 535.18027 8.4528982 526.8125 11.40625 C 495.01729 33.163374 468.33148 60.393139 433.40625 78.25 C 423.66089 82.898414 407.83793 83.285023 402.9375 89.46875 C 399.94095 93.250038 404.23257 106.53129 409.71875 108.125 C 425.30963 112.65401 447.9638 111.85821 466.15625 108 C 510.98002 90.950065 563.82577 83.086575 604.875 57.21875 C 610.98983 52.391731 612.16094 39.179951 609.96875 31.78125 C 607.63582 23.907696 599.59369 13.44193 591.28125 11.40625 C 580.36655 8.7332532 567.39712 6.9259834 554.71875 7.0625 z M 488.3125 104.53125 C 487.56535 104.54769 486.82737 104.61006 486.09375 104.75 C 473.48032 107.15614 473.34906 118.65383 473.0625 129.625 C 472.54408 149.47262 472.18738 169.3565 471.71875 189.21875 C 381.02333 214.63377 290.29487 239.8783 199.3125 264.25 C 196.48429 271.03767 193.64071 277.83733 190.8125 284.625 C 203.47791 299.46393 221.48348 299.31352 238.78125 293.78125 C 268.57709 280.68555 299.8392 271.30656 331.28125 262.875 C 377.4706 248.41872 423.96507 234.91702 470.75 222.625 C 470.13957 239.38726 469.31929 256.13634 468.0625 272.875 C 465.0536 312.94949 458.94187 354.2319 460.625 393.21875 C 463.57855 410.79965 478.42492 418.83613 494.5625 415.28125 C 504.10227 409.41933 514.79633 398.83015 519.0625 386.71875 C 525.93423 367.21026 538.75087 348.75655 540.40625 328.375 C 543.71113 287.68496 546.85555 245.1478 546.03125 203.96875 C 591.73359 193.38823 637.74937 184.09827 684.0625 176.34375 C 699.50771 179.8515 717.75269 190.20676 732.6875 181.59375 C 744.62609 167.34219 752.25834 139.87653 735.09375 127.28125 C 724.75043 110.12883 700.8766 112.73752 687.59375 124.75 C 666.85162 138.35077 641.14263 140.09236 618.09375 148.15625 C 593.47405 155.06228 568.86728 161.99069 544.25 168.90625 C 543.67495 162.15833 542.97347 155.4788 542.09375 148.875 C 540.29464 135.36978 527.38255 123.37057 515.65625 115.46875 C 509.3716 111.23385 503.19466 104.41137 495.09375 104.75 C 492.84662 104.84408 490.55396 104.48193 488.3125 104.53125 z "
           transform="matrix(0.21046532,0,0,0.21046532,344.48224,843.8884)"
           id="path9182" />
        <path
           id="path9188"
           d="m 435.71429,897.00504 c -1.37202,-0.52739 -3.98601,0.41588 -5.47592,1.52638 -17.42646,14.26327 -35.41563,28.18363 -51.3098,44.18791 -0.73187,0.7897 2.61844,1.49918 3.70718,0.99902 9.59025,-4.40569 19.47602,-9.27784 28.19486,-15.38544 8.55432,-5.99235 16.3527,-13.34436 23.81225,-20.61358 1.66835,-1.62578 3.36718,-4.02898 3.57143,-6.07143 0.1529,-1.52898 -1.22419,-4.15245 -2.5,-4.64286 z"
           style="fill:#000000;fill-opacity:1;stroke:#000000;stroke-width:1px;stroke-linecap:butt;stroke-linejoin:miter;stroke-opacity:1"
           sodipodi:nodetypes="cccsssss" />
        <path
           id="path9190"
           d="m 473.92857,897.00504 c -0.94173,-0.1344 -2.4878,-0.52764 -2.85714,0 -0.46399,0.66284 -0.43691,2.81842 0.35714,3.57143 14.67479,6.87122 29.02727,17.88237 45,21.78571 1.45982,0.2242 3.47434,-0.98373 4.28572,-2.14285 0.85528,-1.22183 1.23088,-3.543 0.71428,-5 -2.45023,-4.72178 -7.25558,-8.31839 -11.89559,-10.74973 -11.22833,-4.73955 -23.64051,-5.76848 -35.60441,-7.46456 z"
           style="fill:#000000;fill-opacity:1;stroke:#000000;stroke-width:1px;stroke-linecap:butt;stroke-linejoin:miter;stroke-opacity:1"
           sodipodi:nodetypes="csccsccc" />
        <path
           style="fill:#000000;stroke:#000000;stroke-width:4.75137663000000020px;stroke-linecap:butt;stroke-linejoin:miter;stroke-opacity:1;fill-opacity:1"
           d="M 598.9375 382.21875 C 592.98098 382.18206 587.00172 382.99759 581.125 384.75 C 549.65649 398.96208 523.14002 427.61926 492.0625 445.65625 C 443.22628 474.00021 387.3378 496.70533 343.53125 527.28125 C 337.82893 531.26134 340.44818 543.43446 343.53125 549.34375 C 347.23585 556.44421 356.29022 565.50415 363.90625 566.3125 C 373.39755 567.31989 387.24801 563.49112 395.375 555.46875 C 421.29732 529.88007 451.69799 509.62439 479.59375 486.375 C 501.83661 470.80531 526.71186 455.56462 552.8125 447.375 C 560.84907 445.50144 578.40376 442.10909 577.71875 445.8125 C 576.49128 452.44832 557.23306 467.6048 550.4375 481.0625 C 547.42394 487.03042 538.68142 495.02544 540.375 498.4375 C 542.1169 501.94687 555.08565 504.85191 560.75 501.8125 C 578.27688 492.40786 591.99999 471.20116 609.96875 461.09375 C 619.15074 455.92891 633.0536 460.71446 642.1875 456 C 650.58846 451.66404 660.15232 442.37324 662.5625 433.9375 C 664.67743 426.53528 661.13315 414.74388 655.78125 408.5 C 641.15002 393.08227 620.21079 382.34977 598.9375 382.21875 z M 546.28125 503.28125 C 542.01491 503.29113 537.68681 503.53125 533.59375 503.53125 C 509.83658 503.53125 511.05274 535.78633 518.8125 555.65625 C 521.55295 568.79586 523.80608 582.46866 525.5 596.5 C 477.89345 603.34899 430.43442 611.24666 383.3125 620.28125 C 324.52581 631.55232 267.84369 653.14236 208.3125 660.90625 C 203.00816 661.598 197.71282 664.37745 194.21875 668.125 C 187.98423 674.8118 177.63705 683.41817 178.9375 691.875 C 182.40753 714.44024 204.81657 735.86383 226.5 748.125 C 250.40736 761.64362 273.99811 739.57472 290.65625 722.4375 C 358.88413 673.84898 444.64036 653.96623 528.96875 641.59375 C 532.24522 737.09342 510.24626 841.28948 450.4375 910.78125 C 436.30196 923.00084 412.62202 898.01922 395.0625 889.5 C 385.79955 885.00567 377.10752 875.56955 383.34375 891.375 C 392.96842 915.76762 413.8207 938.54368 411 965.1875 C 408.63239 987.55223 422.84426 1000.3881 444.09375 997.4375 C 461.21709 995.05944 481.85334 993.30763 493.90625 980.6875 C 544.8593 930.69542 593.88771 873.49198 618.4375 805.5625 C 631.53521 747.50296 629.86646 688.04886 618.46875 630.21875 C 664.75283 625.58549 713.87136 615.80589 757.59375 624 C 782.37389 628.64409 804.51926 646.51298 831.71875 647.75 C 862.4526 649.14781 857.64956 609.04133 848.96875 591.90625 C 839.28022 572.78196 824.56665 551.17003 802.34375 547.34375 C 777.19505 543.01373 764.50054 570.85551 737.21875 573 C 694.13828 576.38634 650.93514 580.62808 607.75 585.71875 C 602.96189 568.82992 597.42857 552.12916 591.28125 535.75 C 586.53719 524.10732 576.27801 512.75814 565.84375 506.90625 C 560.35122 503.82584 553.39182 503.26479 546.28125 503.28125 z "
           transform="matrix(0.21046532,0,0,0.21046532,344.48224,843.8884)"
           id="path9192" />
      </g>
    </g>
  </g>
</svg>
