<?xml version="1.0" encoding="UTF-8" standalone="no"?>
<!-- Created with Inkscape (http://www.inkscape.org/) -->

<svg
   xmlns:dc="http://purl.org/dc/elements/1.1/"
   xmlns:cc="http://creativecommons.org/ns#"
   xmlns:rdf="http://www.w3.org/1999/02/22-rdf-syntax-ns#"
   xmlns:svg="http://www.w3.org/2000/svg"
   xmlns="http://www.w3.org/2000/svg"
   xmlns:sodipodi="http://sodipodi.sourceforge.net/DTD/sodipodi-0.dtd"
   xmlns:inkscape="http://www.inkscape.org/namespaces/inkscape"
   width="1000"
   height="1000"
   id="svg3173"
   version="1.1"
   inkscape:version="0.47 r22583"
   sodipodi:docname="5b6b.svg"
   inkscape:export-filename="E:\chinese\yan\5b6b.png"
   inkscape:export-xdpi="18.005705"
   inkscape:export-ydpi="18.005705">
  <title
     id="title5975">Sun</title>
  <defs
     id="defs3175">
    <inkscape:perspective
       sodipodi:type="inkscape:persp3d"
       inkscape:vp_x="0 : 526.18109 : 1"
       inkscape:vp_y="0 : 1000 : 0"
       inkscape:vp_z="744.09448 : 526.18109 : 1"
       inkscape:persp3d-origin="372.04724 : 350.78739 : 1"
       id="perspective3181" />
    <inkscape:perspective
       id="perspective3191"
       inkscape:persp3d-origin="0.5 : 0.33333333 : 1"
       inkscape:vp_z="1 : 0.5 : 1"
       inkscape:vp_y="0 : 1000 : 0"
       inkscape:vp_x="0 : 0.5 : 1"
       sodipodi:type="inkscape:persp3d" />
    <inkscape:perspective
       id="perspective4006"
       inkscape:persp3d-origin="0.5 : 0.33333333 : 1"
       inkscape:vp_z="1 : 0.5 : 1"
       inkscape:vp_y="0 : 1000 : 0"
       inkscape:vp_x="0 : 0.5 : 1"
       sodipodi:type="inkscape:persp3d" />
    <inkscape:perspective
       id="perspective4034"
       inkscape:persp3d-origin="0.5 : 0.33333333 : 1"
       inkscape:vp_z="1 : 0.5 : 1"
       inkscape:vp_y="0 : 1000 : 0"
       inkscape:vp_x="0 : 0.5 : 1"
       sodipodi:type="inkscape:persp3d" />
    <inkscape:perspective
       id="perspective4081"
       inkscape:persp3d-origin="0.5 : 0.33333333 : 1"
       inkscape:vp_z="1 : 0.5 : 1"
       inkscape:vp_y="0 : 1000 : 0"
       inkscape:vp_x="0 : 0.5 : 1"
       sodipodi:type="inkscape:persp3d" />
    <inkscape:perspective
       id="perspective4147"
       inkscape:persp3d-origin="0.5 : 0.33333333 : 1"
       inkscape:vp_z="1 : 0.5 : 1"
       inkscape:vp_y="0 : 1000 : 0"
       inkscape:vp_x="0 : 0.5 : 1"
       sodipodi:type="inkscape:persp3d" />
    <inkscape:perspective
       id="perspective3807"
       inkscape:persp3d-origin="0.5 : 0.33333333 : 1"
       inkscape:vp_z="1 : 0.5 : 1"
       inkscape:vp_y="0 : 1000 : 0"
       inkscape:vp_x="0 : 0.5 : 1"
       sodipodi:type="inkscape:persp3d" />
    <inkscape:perspective
       id="perspective3838"
       inkscape:persp3d-origin="0.5 : 0.33333333 : 1"
       inkscape:vp_z="1 : 0.5 : 1"
       inkscape:vp_y="0 : 1000 : 0"
       inkscape:vp_x="0 : 0.5 : 1"
       sodipodi:type="inkscape:persp3d" />
    <inkscape:perspective
       id="perspective2993"
       inkscape:persp3d-origin="0.5 : 0.33333333 : 1"
       inkscape:vp_z="1 : 0.5 : 1"
       inkscape:vp_y="0 : 1000 : 0"
       inkscape:vp_x="0 : 0.5 : 1"
       sodipodi:type="inkscape:persp3d" />
    <inkscape:perspective
       id="perspective3798"
       inkscape:persp3d-origin="0.5 : 0.33333333 : 1"
       inkscape:vp_z="1 : 0.5 : 1"
       inkscape:vp_y="0 : 1000 : 0"
       inkscape:vp_x="0 : 0.5 : 1"
       sodipodi:type="inkscape:persp3d" />
    <inkscape:perspective
       id="perspective3806"
       inkscape:persp3d-origin="0.5 : 0.33333333 : 1"
       inkscape:vp_z="1 : 0.5 : 1"
       inkscape:vp_y="0 : 1000 : 0"
       inkscape:vp_x="0 : 0.5 : 1"
       sodipodi:type="inkscape:persp3d" />
    <inkscape:perspective
       id="perspective3778"
       inkscape:persp3d-origin="0.5 : 0.33333333 : 1"
       inkscape:vp_z="1 : 0.5 : 1"
       inkscape:vp_y="0 : 1000 : 0"
       inkscape:vp_x="0 : 0.5 : 1"
       sodipodi:type="inkscape:persp3d" />
    <inkscape:perspective
       id="perspective5986"
       inkscape:persp3d-origin="0.5 : 0.33333333 : 1"
       inkscape:vp_z="1 : 0.5 : 1"
       inkscape:vp_y="0 : 1000 : 0"
       inkscape:vp_x="0 : 0.5 : 1"
       sodipodi:type="inkscape:persp3d" />
  </defs>
  <sodipodi:namedview
     id="base"
     pagecolor="#ffffff"
     bordercolor="#666666"
     borderopacity="1.0"
     inkscape:pageopacity="0.0"
     inkscape:pageshadow="2"
     inkscape:zoom="0.49497475"
     inkscape:cx="258.72284"
     inkscape:cy="520.67298"
     inkscape:document-units="px"
     inkscape:current-layer="g4097"
     showgrid="false"
     inkscape:window-width="1440"
     inkscape:window-height="840"
     inkscape:window-x="-4"
     inkscape:window-y="-4"
     inkscape:window-maximized="1" />
  <metadata
     id="metadata3178">
    <rdf:RDF>
      <cc:Work
         rdf:about="">
        <dc:format>image/svg+xml</dc:format>
        <dc:type
           rdf:resource="http://purl.org/dc/dcmitype/StillImage" />
        <dc:title>Sun</dc:title>
        <dc:date>2010-08-09</dc:date>
        <dc:creator>
          <cc:Agent>
            <dc:title>Alex Amies</dc:title>
          </cc:Agent>
        </dc:creator>
        <dc:rights>
          <cc:Agent>
            <dc:title>@ Alex Amies 2010</dc:title>
          </cc:Agent>
        </dc:rights>
        <dc:publisher>
          <cc:Agent>
            <dc:title>chinesenotes.com</dc:title>
          </cc:Agent>
        </dc:publisher>
        <dc:source>Yan Qin Ceremonial Inscription</dc:source>
        <dc:language>Chinese 中文</dc:language>
        <dc:description>Tracing from Tang Dynasty Ceremonial Inscription by Yan Zhenqing 颜真卿 (709－785)</dc:description>
        <cc:license
           rdf:resource="http://creativecommons.org/licenses/by/3.0/" />
      </cc:Work>
      <cc:License
         rdf:about="http://creativecommons.org/licenses/by/3.0/">
        <cc:permits
           rdf:resource="http://creativecommons.org/ns#Reproduction" />
        <cc:permits
           rdf:resource="http://creativecommons.org/ns#Distribution" />
        <cc:requires
           rdf:resource="http://creativecommons.org/ns#Notice" />
        <cc:requires
           rdf:resource="http://creativecommons.org/ns#Attribution" />
        <cc:permits
           rdf:resource="http://creativecommons.org/ns#DerivativeWorks" />
      </cc:License>
    </rdf:RDF>
  </metadata>
  <g
     inkscape:label="Layer 1"
     inkscape:groupmode="layer"
     id="layer1"
     transform="translate(0,-52.362183)">
    <g
       transform="matrix(4.7418067,0,0,4.7418067,-524.70921,-2979.6975)"
       id="g5800"
       style="fill:none;fill-opacity:1">
      <g
         transform="translate(-224.16253,205.13312)"
         id="g4097"
         style="fill:none;fill-opacity:1">
        <path
           style="fill:#000000;stroke:#000000;stroke-width:4.74180651000000000px;stroke-linecap:butt;stroke-linejoin:miter;stroke-opacity:1;fill-opacity:1"
           d="M 438.625 116.5625 C 436.64476 116.57477 434.66961 116.69869 432.6875 116.9375 C 326.31635 137.27544 232.59986 196.22405 138.3125 246.5 C 106.63026 260.80783 69.018852 264.3103 39.8125 283.78125 C 34.928581 306.97613 49.026282 328.30097 69.09375 339 C 81.511499 348.89904 98.52351 347.64359 113.1875 344.75 C 130.764 339.51656 147.51508 332.42699 159.40625 317.84375 C 204.03016 275.34972 249.74858 233.94687 297.34375 194.8125 C 324.05767 180.86874 352.0252 165.65347 383.15625 167 C 404.91028 163.12405 379.11666 187.83692 376.3125 197.75 C 362.87 219.97243 348.29823 241.49 334.46875 263.46875 C 334.47125 263.47883 334.46625 263.48994 334.46875 263.5 C 329.18677 261.29105 323.60051 259.93312 317.53125 260.09375 C 293.56327 269.12495 277.36729 296.39947 287.6875 321.15625 C 298.03598 361.36099 304.22773 403.25007 306.625 445.8125 C 287.78838 456.18888 268.72291 465.9709 249 474.25 C 203.54409 493.33108 149.66358 498.02273 107.5625 519.1875 C 95.717277 525.14226 93.346902 543.13886 90.84375 557.25 C 87.652988 575.23724 88.597029 594.66166 95.6875 610.65625 C 102.4725 625.96171 120.98857 625.24068 136.90625 622.78125 C 154.08363 620.12721 163.70811 602.30395 169.1875 587.125 C 173.70341 574.61521 189.67952 568.3763 200.375 559.875 C 223.6182 541.40021 250.17936 527.42678 275.25 511.46875 C 286.02096 504.6128 296.86546 497.85208 307.75 491.125 C 307.25199 593.34148 286.25545 697.36596 250.46875 789.5 C 240.05318 806.69005 217.78123 814.48614 202.4375 798.375 L 105.84375 735.96875 C 73.591309 743.775 110.31623 780.85791 120.96875 795.375 C 150.0539 830.57348 166.53677 880.99298 188.84375 913.78125 C 198.36482 927.77598 231.91296 922.60625 249.21875 910.34375 C 337.08533 852.63335 359.02386 739.40443 376.9375 642.8125 C 391.52286 575.27418 395.41164 506.066 395.375 436.90625 C 409.68375 427.8211 423.85269 418.60808 437.78125 409.125 C 442.79339 405.71256 448.78993 399.42657 447.9375 393.875 C 445.23377 376.26706 415.81513 385.6262 403.3125 391.9375 C 400.51272 393.35083 397.75128 394.79692 394.96875 396.25 C 394.60728 377.25927 394.01924 358.27504 393.40625 339.375 C 384.10297 318.29573 377.94735 290.63125 357.875 277.46875 C 355.1053 275.64983 352.33267 273.74655 349.53125 271.90625 C 353.62563 269.48983 357.87953 265.41647 361.625 261.96875 C 386.0381 244.06938 404.46778 219.55073 427.78125 200.53125 C 445.79552 190.46444 469.13794 183.75818 481.8125 170.34375 C 487.71676 164.09485 487.43821 149.6441 483.5 141.53125 C 476.26289 126.62267 457.76734 116.44388 438.625 116.5625 z "
           transform="matrix(0.21089008,0,0,0.21089008,334.8185,434.29819)"
           id="path4052" />
        <path
           id="path4058"
           d="m 471.07143,454.1479 c -1.73358,1.48722 -0.75264,5.183 -2.2952,7.28404 -5.48933,7.47674 -10.30288,15.55038 -16.22616,22.61982 -1.91181,2.28175 -5.62037,3.93561 -6.83578,5.81042 -0.3489,0.53819 1.39046,1.73458 2.14285,1.42857 16.70324,-8.53418 33.58157,-17.96069 48.57143,-29.28571 0.79082,-1.38248 1.18277,-3.95357 0.35714,-5.35714 -1.55532,-2.64405 -4.63064,-5.71805 -7.5,-6.78572 -5.69135,-0.01 -13.31508,1.1734 -18.21428,4.28572 z"
           style="fill:#000000;fill-opacity:1;stroke:#000000;stroke-width:1px;stroke-linecap:butt;stroke-linejoin:miter;stroke-opacity:1"
           sodipodi:nodetypes="csssccscc" />
        <path
           style="fill:#000000;stroke:#000000;stroke-width:4.74180651000000000px;stroke-linecap:butt;stroke-linejoin:miter;stroke-opacity:1;fill-opacity:1"
           d="M 753.78125 200.03125 C 750.62089 199.94776 747.41339 200.36576 744.3125 201.40625 C 716.20146 205.28088 691.17736 212.12648 674.5625 237.21875 C 649.16003 286.65545 614.19386 331.17258 584.5625 378.15625 C 577.04057 390.08308 563.33348 387.50926 551.875 389.71875 C 540.54507 391.90349 526.53585 384.72056 517.59375 390.875 C 505.55781 399.15879 497.50574 414.8175 508.46875 429.1875 C 518.01889 441.70549 526.40715 458.66566 543.15625 462.03125 C 567.90549 467.00441 590.88239 479.37065 615.53125 483.5 C 618.56809 484.00876 622.18508 484.59885 625.875 484.90625 C 592.53004 514.96364 559.18872 545.03633 525.84375 575.09375 C 501.83641 579.60354 477.60661 584.76905 453.03125 583.53125 C 451.26294 601.70797 445.47931 623.55867 459.09375 638.59375 C 472.56442 655.27661 499.75687 652.7302 516.5 643.21875 C 535.84349 630.44693 556.82409 620.79093 578.96875 614.0625 C 606.26889 602.67683 634.7153 594.6574 663.75 589.21875 C 662.98557 598.87005 663.55154 608.63976 664.71875 617.40625 C 675.85085 682.18801 688.4375 810.46875 688.4375 810.46875 L 679.96875 840.96875 L 669.78125 844.34375 C 669.78125 844.34375 625.6539 821.6525 600.375 808.78125 C 594.8415 805.96376 586.37388 804.67176 581.71875 808.78125 C 578.30683 811.79325 576.65812 819.28841 580.03125 822.34375 C 611.35506 850.71607 649.46875 881.59375 649.46875 881.59375 C 649.46875 881.59375 669.08356 905.92739 673.1875 920.5625 C 675.62616 929.25907 669.7311 939.31176 673.1875 947.65625 C 675.63157 953.55672 680.36767 960.51469 686.71875 961.1875 C 736.48586 950.47396 751.01423 877.74449 756.15625 835.875 C 759.8854 768.31141 750.22063 702.58758 740.90625 636.03125 C 738.06918 615.71123 741.31137 593.60757 732.46875 575.09375 C 731.51338 573.09345 730.42596 571.09294 729.25 569.15625 C 742.13698 564.25429 755.01488 559.23344 768.03125 554.75 C 765.55612 532.28166 736.38182 547.21346 721.375 542.78125 C 714.57753 543.57175 707.81067 544.55485 701.0625 545.6875 C 695.09686 543.93065 688.53259 543.55422 683.34375 546.28125 C 681.93076 547.38041 680.6103 548.57727 679.375 549.8125 C 657.45956 554.36949 635.70415 559.93478 613.90625 564.90625 C 586.0883 553.32837 623.16837 542.83529 633.65625 533.5625 C 660.00628 516.19103 688.08796 500.98878 712.84375 481.46875 C 756.40322 439.12465 804.11725 400.07767 845.40625 356.4375 C 855.75102 345.50365 866.2441 328.99843 855.84375 312.0625 C 846.4848 296.82238 841.88156 275.48617 827.28125 266.875 C 811.59175 257.62141 788.70316 273.82749 782.96875 292.875 C 777.55067 310.87177 774.56279 331.06328 758.71875 343.34375 C 720.84354 384.15542 684.31052 426.31791 645.5625 466.28125 C 643.21143 453.42638 638.8257 439.8772 630.03125 430.40625 C 619.17313 418.71286 590.32175 407.29533 595.28125 397.25 C 605.70545 376.13606 648.88451 356.5196 673.15625 333.09375 C 707.09502 300.33778 747.29773 270.88435 776.5 236.375 C 781.74155 230.18092 780.71879 216.95272 776.5 210.96875 C 772.30884 205.02398 763.26233 200.28173 753.78125 200.03125 z "
           transform="matrix(0.21089008,0,0,0.21089008,334.8185,434.29819)"
           id="path4060" />
        <path
           id="path4066"
           d="m 435.35714,579.1479 c -1.61623,5.06239 -3.59365,10.67585 -3.21428,16.07143 1.21407,4.61454 3.27511,8.41406 7.85714,9.99999 3.78232,0.53599 5.98039,-1.19719 7.14286,-4.64285 0.66627,-5.99646 0.42625,-12.43342 0,-18.57143 -0.16899,-2.43342 -0.40883,-5.69712 -1.78572,-7.14286 -4.18144,-2.10015 -7.92496,0.53498 -10,4.28572 z"
           style="fill:#000000;fill-opacity:1;stroke:#000000;stroke-width:1px;stroke-linecap:butt;stroke-linejoin:miter;stroke-opacity:1"
           sodipodi:nodetypes="ccccscc" />
        <path
           id="path4068"
           d="m 508.57143,577.00504 c 1.274,3.28353 4.20215,6.48118 6.79709,9.36193 3.68353,4.08924 7.18746,8.37446 10.9784,12.34213 2.90384,1.63613 7.41984,-1.30032 9.72451,-3.13263 1.14775,-4.52105 1.09288,-9.91901 -0.71429,-14.28572 -3.01196,-5.92995 -8.44912,-8.99494 -14.64285,-10.71428 -2.26455,-0.55356 -4.96558,-0.58061 -7.14286,0 -2.61231,1.20287 -4.79909,3.53836 -5,6.42857 z"
           style="fill:#000000;fill-opacity:1;stroke:#000000;stroke-width:1px;stroke-linecap:butt;stroke-linejoin:miter;stroke-opacity:1"
           sodipodi:nodetypes="cscccccc" />
        <path
           id="path4072"
           d="m 505,530.21933 c -2.35146,6.84871 2.26255,15.84331 5.24778,22.16361 1.82142,4.04319 6.41854,5.38865 10.46651,4.6221 1.49223,-0.55959 3.44277,-1.71951 3.92857,-3.21429 2.64329,-7.6897 0.4972,-14.0552 -5,-19.64285 -3.86687,-3.38183 -9.56974,-6.59286 -14.64286,-3.92857 z"
           style="fill:#000000;fill-opacity:1;stroke:#000000;stroke-width:1px;stroke-linecap:butt;stroke-linejoin:miter;stroke-opacity:1"
           sodipodi:nodetypes="cccccc" />
      </g>
    </g>
  </g>
</svg>
