<?xml version="1.0" encoding="UTF-8" standalone="no"?>
<!-- Created with Inkscape (http://www.inkscape.org/) -->

<svg
   xmlns:dc="http://purl.org/dc/elements/1.1/"
   xmlns:cc="http://creativecommons.org/ns#"
   xmlns:rdf="http://www.w3.org/1999/02/22-rdf-syntax-ns#"
   xmlns:svg="http://www.w3.org/2000/svg"
   xmlns="http://www.w3.org/2000/svg"
   xmlns:sodipodi="http://sodipodi.sourceforge.net/DTD/sodipodi-0.dtd"
   xmlns:inkscape="http://www.inkscape.org/namespaces/inkscape"
   width="1000"
   height="1000"
   id="svg3173"
   version="1.1"
   inkscape:version="0.47 r22583"
   sodipodi:docname="5b80.svg"
   inkscape:export-filename="E:\chinese\yan\5b80.png"
   inkscape:export-xdpi="17.908815"
   inkscape:export-ydpi="17.908815">
  <title
     id="title2828">Bao Gai Tou Radical</title>
  <defs
     id="defs3175">
    <inkscape:perspective
       sodipodi:type="inkscape:persp3d"
       inkscape:vp_x="0 : 526.18109 : 1"
       inkscape:vp_y="0 : 1000 : 0"
       inkscape:vp_z="744.09448 : 526.18109 : 1"
       inkscape:persp3d-origin="372.04724 : 350.78739 : 1"
       id="perspective3181" />
    <inkscape:perspective
       id="perspective3191"
       inkscape:persp3d-origin="0.5 : 0.33333333 : 1"
       inkscape:vp_z="1 : 0.5 : 1"
       inkscape:vp_y="0 : 1000 : 0"
       inkscape:vp_x="0 : 0.5 : 1"
       sodipodi:type="inkscape:persp3d" />
    <inkscape:perspective
       id="perspective4006"
       inkscape:persp3d-origin="0.5 : 0.33333333 : 1"
       inkscape:vp_z="1 : 0.5 : 1"
       inkscape:vp_y="0 : 1000 : 0"
       inkscape:vp_x="0 : 0.5 : 1"
       sodipodi:type="inkscape:persp3d" />
    <inkscape:perspective
       id="perspective4034"
       inkscape:persp3d-origin="0.5 : 0.33333333 : 1"
       inkscape:vp_z="1 : 0.5 : 1"
       inkscape:vp_y="0 : 1000 : 0"
       inkscape:vp_x="0 : 0.5 : 1"
       sodipodi:type="inkscape:persp3d" />
    <inkscape:perspective
       id="perspective4081"
       inkscape:persp3d-origin="0.5 : 0.33333333 : 1"
       inkscape:vp_z="1 : 0.5 : 1"
       inkscape:vp_y="0 : 1000 : 0"
       inkscape:vp_x="0 : 0.5 : 1"
       sodipodi:type="inkscape:persp3d" />
    <inkscape:perspective
       id="perspective4147"
       inkscape:persp3d-origin="0.5 : 0.33333333 : 1"
       inkscape:vp_z="1 : 0.5 : 1"
       inkscape:vp_y="0 : 1000 : 0"
       inkscape:vp_x="0 : 0.5 : 1"
       sodipodi:type="inkscape:persp3d" />
    <inkscape:perspective
       id="perspective3895"
       inkscape:persp3d-origin="0.5 : 0.33333333 : 1"
       inkscape:vp_z="1 : 0.5 : 1"
       inkscape:vp_y="0 : 1000 : 0"
       inkscape:vp_x="0 : 0.5 : 1"
       sodipodi:type="inkscape:persp3d" />
    <inkscape:perspective
       id="perspective3091"
       inkscape:persp3d-origin="0.5 : 0.33333333 : 1"
       inkscape:vp_z="1 : 0.5 : 1"
       inkscape:vp_y="0 : 1000 : 0"
       inkscape:vp_x="0 : 0.5 : 1"
       sodipodi:type="inkscape:persp3d" />
  </defs>
  <sodipodi:namedview
     id="base"
     pagecolor="#ffffff"
     bordercolor="#666666"
     borderopacity="1.0"
     inkscape:pageopacity="0.0"
     inkscape:pageshadow="2"
     inkscape:zoom="0.49497475"
     inkscape:cx="171.85992"
     inkscape:cy="556.10296"
     inkscape:document-units="px"
     inkscape:current-layer="g3804"
     showgrid="false"
     inkscape:window-width="1440"
     inkscape:window-height="840"
     inkscape:window-x="-4"
     inkscape:window-y="-4"
     inkscape:window-maximized="1" />
  <metadata
     id="metadata3178">
    <rdf:RDF>
      <cc:Work
         rdf:about="">
        <dc:format>image/svg+xml</dc:format>
        <dc:type
           rdf:resource="http://purl.org/dc/dcmitype/StillImage" />
        <dc:title>Bao Gai Tou Radical</dc:title>
        <dc:date>2010-07-21</dc:date>
        <dc:creator>
          <cc:Agent>
            <dc:title>Alex Amies</dc:title>
          </cc:Agent>
        </dc:creator>
        <dc:rights>
          <cc:Agent>
            <dc:title>@ Alex Amies 2010</dc:title>
          </cc:Agent>
        </dc:rights>
        <dc:publisher>
          <cc:Agent>
            <dc:title>chinesenotes.com</dc:title>
          </cc:Agent>
        </dc:publisher>
        <dc:source>Yan Qin Ceremonial Inscription</dc:source>
        <dc:language>Chinese 中文</dc:language>
        <dc:description>Tracing from Tang Dynasty Ceremonial Inscription by Yan Zhenqing 颜真卿 (709－785)</dc:description>
        <cc:license
           rdf:resource="http://creativecommons.org/licenses/by/3.0/" />
      </cc:Work>
      <cc:License
         rdf:about="http://creativecommons.org/licenses/by/3.0/">
        <cc:permits
           rdf:resource="http://creativecommons.org/ns#Reproduction" />
        <cc:permits
           rdf:resource="http://creativecommons.org/ns#Distribution" />
        <cc:requires
           rdf:resource="http://creativecommons.org/ns#Notice" />
        <cc:requires
           rdf:resource="http://creativecommons.org/ns#Attribution" />
        <cc:permits
           rdf:resource="http://creativecommons.org/ns#DerivativeWorks" />
      </cc:License>
    </rdf:RDF>
  </metadata>
  <g
     inkscape:label="Layer 1"
     inkscape:groupmode="layer"
     id="layer1"
     transform="translate(0,-52.362183)">
    <g
       transform="matrix(4.6093106,0,0,4.6093106,-1379.2149,-3787.6802)"
       id="g3804"
       style="fill:#000000;fill-opacity:1">
      <g
         id="g4163"
         style="fill:#000000;fill-opacity:1">
        <path
           style="fill:#000000;stroke:#000000;stroke-width:4.60931063000000040px;stroke-linecap:butt;stroke-linejoin:miter;stroke-opacity:1;fill-opacity:1"
           d="M 459.5625 4.8125 C 438.07099 9.1837858 419.48482 16.761064 401.96875 29.5 C 408.97223 56.389059 439.66366 76.936673 457.9375 98.625 C 457.92881 110.05467 458.59387 121.23737 460.21875 132.0625 C 450.10738 133.66003 440.01412 135.45762 429.96875 137.5625 C 383.25532 146.56969 336.00266 155.81492 291.59375 173.1875 C 288.45103 174.69958 285.40843 176.37171 282.46875 178.25 C 259.56366 183.44714 266.45762 210.36087 288.84375 207.375 C 352.57592 192.29559 411.33789 181.34564 470.96875 170.03125 C 475.19939 179.55911 480.64561 188.71005 487.5625 197.40625 C 511.41743 196.77892 519.99278 188.82499 533.65625 171.0625 C 532.67138 166.93009 532.29872 162.55631 532.375 158 C 578.59629 148.34747 625.77371 143.35777 673 144.59375 C 693.70553 137.77133 725.31818 154.68291 707.0625 178.53125 C 695.88718 195.5881 679.16889 208.06463 667.28125 224.5625 C 652.89011 244.46744 673.3454 234.48927 687.59375 230.4375 C 711.46196 214.97165 737.24192 202.70193 763.25 191.09375 C 784.15368 177.86563 790.26039 201.00244 797.28125 215.03125 C 815.08407 225.83386 838.39378 219.07812 855.65625 210.28125 C 879.74202 193.74807 863.523 161.51614 852.09375 142.125 C 839.32011 114.94118 813.41026 88.328167 781.5625 88.4375 C 724.75104 98.476717 667.48381 106.55542 610.375 115.0625 C 586.27921 118.19784 562.06699 120.4539 537.875 122.8125 C 542.37294 101.65325 546.26565 80.749241 534.46875 66.125 C 516.99891 37.049008 487.29672 22.46155 459.5625 4.8125 z "
           transform="matrix(0.21695218,0,0,0.21695218,299.22368,833.10558)"
           id="path5482" />
        <path
           sodipodi:nodetypes="ccccccc"
           style="fill:#000000;fill-opacity:1;stroke:#000000;stroke-width:1px;stroke-linecap:butt;stroke-linejoin:miter;stroke-opacity:1"
           d="m 350.71428,863.43361 c -2.68902,13.38633 -11.63066,24.09724 -18.92857,35.35714 -1.06648,9.26186 2.54089,17.45238 11.07143,21.78572 4.99628,-1.02336 8.02678,-7.12024 9.54195,-11.64061 3.53967,-8.60675 4.52749,-17.18784 4.2358,-26.40157 -2.81342,-5.0798 0.47633,-12.93174 -2.57285,-17.57897 -1.11592,-0.50724 -2.23184,-1.01447 -3.34776,-1.52171 z"
           id="path5484" />
      </g>
    </g>
  </g>
</svg>
