<?xml version="1.0" encoding="UTF-8" standalone="no"?>
<!-- Created with Inkscape (http://www.inkscape.org/) -->

<svg
   xmlns:dc="http://purl.org/dc/elements/1.1/"
   xmlns:cc="http://creativecommons.org/ns#"
   xmlns:rdf="http://www.w3.org/1999/02/22-rdf-syntax-ns#"
   xmlns:svg="http://www.w3.org/2000/svg"
   xmlns="http://www.w3.org/2000/svg"
   xmlns:sodipodi="http://sodipodi.sourceforge.net/DTD/sodipodi-0.dtd"
   xmlns:inkscape="http://www.inkscape.org/namespaces/inkscape"
   width="1000"
   height="1000"
   id="svg3173"
   version="1.1"
   inkscape:version="0.47 r22583"
   sodipodi:docname="5b98.svg"
   inkscape:export-filename="E:\chinese\yan\5b98.png"
   inkscape:export-xdpi="18.005705"
   inkscape:export-ydpi="18.005705">
  <title
     id="title2821">Guan</title>
  <defs
     id="defs3175">
    <inkscape:perspective
       sodipodi:type="inkscape:persp3d"
       inkscape:vp_x="0 : 526.18109 : 1"
       inkscape:vp_y="0 : 1000 : 0"
       inkscape:vp_z="744.09448 : 526.18109 : 1"
       inkscape:persp3d-origin="372.04724 : 350.78739 : 1"
       id="perspective3181" />
    <inkscape:perspective
       id="perspective3191"
       inkscape:persp3d-origin="0.5 : 0.33333333 : 1"
       inkscape:vp_z="1 : 0.5 : 1"
       inkscape:vp_y="0 : 1000 : 0"
       inkscape:vp_x="0 : 0.5 : 1"
       sodipodi:type="inkscape:persp3d" />
    <inkscape:perspective
       id="perspective4006"
       inkscape:persp3d-origin="0.5 : 0.33333333 : 1"
       inkscape:vp_z="1 : 0.5 : 1"
       inkscape:vp_y="0 : 1000 : 0"
       inkscape:vp_x="0 : 0.5 : 1"
       sodipodi:type="inkscape:persp3d" />
    <inkscape:perspective
       id="perspective4034"
       inkscape:persp3d-origin="0.5 : 0.33333333 : 1"
       inkscape:vp_z="1 : 0.5 : 1"
       inkscape:vp_y="0 : 1000 : 0"
       inkscape:vp_x="0 : 0.5 : 1"
       sodipodi:type="inkscape:persp3d" />
    <inkscape:perspective
       id="perspective4081"
       inkscape:persp3d-origin="0.5 : 0.33333333 : 1"
       inkscape:vp_z="1 : 0.5 : 1"
       inkscape:vp_y="0 : 1000 : 0"
       inkscape:vp_x="0 : 0.5 : 1"
       sodipodi:type="inkscape:persp3d" />
    <inkscape:perspective
       id="perspective4147"
       inkscape:persp3d-origin="0.5 : 0.33333333 : 1"
       inkscape:vp_z="1 : 0.5 : 1"
       inkscape:vp_y="0 : 1000 : 0"
       inkscape:vp_x="0 : 0.5 : 1"
       sodipodi:type="inkscape:persp3d" />
    <inkscape:perspective
       id="perspective3895"
       inkscape:persp3d-origin="0.5 : 0.33333333 : 1"
       inkscape:vp_z="1 : 0.5 : 1"
       inkscape:vp_y="0 : 1000 : 0"
       inkscape:vp_x="0 : 0.5 : 1"
       sodipodi:type="inkscape:persp3d" />
  </defs>
  <sodipodi:namedview
     id="base"
     pagecolor="#ffffff"
     bordercolor="#666666"
     borderopacity="1.0"
     inkscape:pageopacity="0.0"
     inkscape:pageshadow="2"
     inkscape:zoom="0.49497475"
     inkscape:cx="283.98686"
     inkscape:cy="541.96083"
     inkscape:document-units="px"
     inkscape:current-layer="layer1"
     showgrid="false"
     inkscape:window-width="1440"
     inkscape:window-height="840"
     inkscape:window-x="-4"
     inkscape:window-y="-4"
     inkscape:window-maximized="1" />
  <metadata
     id="metadata3178">
    <rdf:RDF>
      <cc:Work
         rdf:about="">
        <dc:format>image/svg+xml</dc:format>
        <dc:type
           rdf:resource="http://purl.org/dc/dcmitype/StillImage" />
        <dc:title>Guan</dc:title>
        <dc:date>2010-07-18</dc:date>
        <dc:creator>
          <cc:Agent>
            <dc:title>Alex Amies</dc:title>
          </cc:Agent>
        </dc:creator>
        <dc:rights>
          <cc:Agent>
            <dc:title>@ Alex Amies 2010</dc:title>
          </cc:Agent>
        </dc:rights>
        <dc:publisher>
          <cc:Agent>
            <dc:title>chinesenotes.com</dc:title>
          </cc:Agent>
        </dc:publisher>
        <dc:source>Yan Qin Ceremonial Inscription</dc:source>
        <dc:language>Chinese 中文</dc:language>
        <dc:description>Tracing from Tang Dynasty Ceremonial Inscription by Yan Zhenqing 颜真卿 (709－785)</dc:description>
        <cc:license
           rdf:resource="http://creativecommons.org/licenses/by/3.0/" />
      </cc:Work>
      <cc:License
         rdf:about="http://creativecommons.org/licenses/by/3.0/">
        <cc:permits
           rdf:resource="http://creativecommons.org/ns#Reproduction" />
        <cc:permits
           rdf:resource="http://creativecommons.org/ns#Distribution" />
        <cc:requires
           rdf:resource="http://creativecommons.org/ns#Notice" />
        <cc:requires
           rdf:resource="http://creativecommons.org/ns#Attribution" />
        <cc:permits
           rdf:resource="http://creativecommons.org/ns#DerivativeWorks" />
      </cc:License>
    </rdf:RDF>
  </metadata>
  <g
     inkscape:label="Layer 1"
     inkscape:groupmode="layer"
     id="layer1"
     transform="translate(0,-52.362183)">
    <g
       transform="matrix(4.6093106,0,0,4.6093106,-1379.2149,-3787.6802)"
       id="g3804"
       style="fill:#000000;fill-opacity:1">
      <path
         style="fill:#000000;stroke:#000000;stroke-width:4.60931063000000040px;stroke-linecap:butt;stroke-linejoin:miter;stroke-opacity:1;fill-opacity:1"
         d="m 459.5625,4.8125 c -19.69881,-5.31340223 -52.98886,7.329015 -57.59375,24.6875 -5.9077,22.26951 37.69491,47.436673 55.96875,69.125 -0.009,11.42967 0.65637,22.61237 2.28125,33.4375 -10.11137,1.59753 -20.20463,3.39512 -30.25,5.5 -46.71343,9.00719 -93.96609,18.25242 -138.375,35.625 -3.14272,1.51208 -6.18532,3.18421 -9.125,5.0625 -22.90509,5.19714 -16.01113,32.11087 6.375,29.125 63.73217,-15.07941 122.49414,-26.02936 182.125,-37.34375 4.23064,9.52786 6.81745,24.8115 16.59375,27.375 20.99552,5.50537 32.43028,-8.58126 46.09375,-26.34375 -0.98487,-4.13241 -1.35753,-8.50619 -1.28125,-13.0625 46.22129,-9.65253 93.39871,-14.64223 140.625,-13.40625 20.70553,-6.82242 52.31818,10.08916 34.0625,33.9375 -11.17532,17.05685 -27.89361,29.53338 -39.78125,46.03125 -14.39114,19.90494 6.06415,9.92677 20.3125,5.875 23.86821,-15.46585 49.64817,-27.73557 75.65625,-39.34375 20.90368,-13.22812 27.01039,9.90869 34.03125,23.9375 17.80282,10.80261 41.11253,4.04687 58.375,-4.75 24.08577,-16.53318 7.86675,-48.76511 -3.5625,-68.15625 -12.77364,-27.18382 -38.68349,-53.796833 -70.53125,-53.6875 -56.81146,10.039217 -114.07869,18.11792 -171.1875,26.625 -24.09579,3.13534 -48.30801,5.3914 -72.5,7.75 4.49794,-21.15925 8.39065,-42.063259 -3.40625,-56.6875 C 516.99891,37.049008 489.08942,12.776862 459.5625,4.8125 z"
         transform="matrix(0.21695218,0,0,0.21695218,299.22368,833.10558)"
         id="path5482"
         sodipodi:nodetypes="cscccccccsccccccccccccccs" />
      <path
         id="path5484"
         d="m 350.71428,863.43361 c -3.49148,11.8181 -13.99328,23.24857 -18.92857,35.35714 -3.4291,8.41319 2.24781,19.6266 11.07143,21.78572 4.7032,1.15086 7.8296,-7.19374 9.54195,-11.64061 3.34249,-8.68025 6.14086,-17.63213 4.2358,-26.40157 -1.20005,-5.52409 0.83967,-13.35585 -2.57285,-17.57897 -0.75258,-0.93135 -3.0343,-2.5827 -3.34776,-1.52171 z"
         style="fill:#000000;fill-opacity:1;stroke:#000000;stroke-width:1px;stroke-linecap:butt;stroke-linejoin:miter;stroke-opacity:1"
         sodipodi:nodetypes="cssssss" />
      <path
         style="fill:#000000;stroke:#000000;stroke-width:4.60931063000000040px;stroke-linecap:butt;stroke-linejoin:miter;stroke-opacity:1;fill-opacity:1"
         d="m 406.90625,246.78125 c -6.49028,49.08902 -7.67841,101.18753 -11.75,151.59375 4.85545,160.79479 -16.94541,398.55336 -9.125,541.65625 1.21563,22.24444 33.66624,31.68767 50.5,47.53125 28.65913,2.04561 25.23688,-52.99807 24.6875,-73.40625 0.79971,-48.00779 0.36335,-95.99439 -0.6875,-143.96875 4.33445,1.95185 9.36382,3.87339 14.78125,6.21875 34.84242,-2.15393 69.53414,-6.74276 104.375,-9.3125 45.53676,-11.98531 112.1338,23.52102 153.15625,8.125 6.07041,-30.12503 -17.2117,-48.23166 -41.78125,-59.34375 31.38456,-42.06476 65.07426,-82.08283 87.875,-129.96875 -16.0033,-34.95319 -41.88295,-63.58494 -73.25,-85.59375 -22.49597,7.6963 -22.59915,28.077 -53.125,29.96875 -64.36958,1.96338 -126.06823,13.75059 -185.6875,38.1875 -0.78879,0.32496 -1.58621,0.64393 -2.375,0.96875 3.41744,19.65991 27.75111,59.56046 52,51 50.16105,-18.09938 100.33895,-36.18192 150.5,-54.28125 4.38982,3.29238 8.76643,6.58262 13.15625,9.875 -29.18046,37.37667 -45.78814,82.72983 -59.40625,128 -33.45083,0.85771 -67.73315,7.5969 -100.28125,10.28125 -20.47165,6.13238 -40.91989,12.33608 -60.84375,20.0625 -2.29819,-83.36434 -5.99301,-166.71862 -7.9375,-250.09375 0.0129,-5.15637 0.16824,-10.31649 0.40625,-15.5 7.32314,5.24764 16.23724,8.9482 23.9375,13.40625 23.36307,0.47043 43.36781,-14.16223 66.5,-13.1875 31.8,2.19892 67.19186,1.83634 94.8125,-4.90625 8.96678,-2.18892 8.00093,-19.51907 15.8125,-26.53125 9.56876,-8.58955 1.0674,-20.42987 -7.5625,-24.5 -12.97266,-6.11832 -31.08006,-2.51623 -46.6875,-2.4375 8.5368,-13.98989 17.3781,-27.61416 27.6875,-40.8125 18.37285,-20.80269 34.60257,-42.33005 46.96875,-67.0625 -1.68876,-22.57378 -10.51888,-33.24132 -26.3125,-47.71875 -25.47151,-3.66887 -49.08029,-4.54927 -72.1875,8.15625 -39.27451,8.06117 -79.26567,13.57766 -118.96875,19.90625 -8.87568,-19.87073 -30.48534,-26.24212 -49.1875,-36.3125 z M 573.21875,308.25 c 6.79341,-0.2847 3.53196,10.84803 -0.34375,25.4375 -6.3199,28.37192 -17.82909,54.35889 -30.59375,80.15625 -24.42002,2.39935 -48.77406,5.80764 -72.84375,9.09375 -5.65674,3.19658 -10.40522,6.43489 -14.5,10.0625 3.77449,-35.98096 9.28518,-72.25255 7.625,-108 31.8081,3.71186 65.92884,-6.81348 97.46875,-10.6875 6.30268,-4.08606 10.52921,-5.9511 13.1875,-6.0625 z"
         transform="matrix(0.21695218,0,0,0.21695218,299.22368,833.10558)"
         id="path5490"
         sodipodi:nodetypes="ccsccccccccccccccccccccccsssccccccccccccccc" />
    </g>
  </g>
</svg>
