<?xml version="1.0" encoding="UTF-8" standalone="no"?>
<!-- Created with Inkscape (http://www.inkscape.org/) -->

<svg
   xmlns:dc="http://purl.org/dc/elements/1.1/"
   xmlns:cc="http://creativecommons.org/ns#"
   xmlns:rdf="http://www.w3.org/1999/02/22-rdf-syntax-ns#"
   xmlns:svg="http://www.w3.org/2000/svg"
   xmlns="http://www.w3.org/2000/svg"
   xmlns:sodipodi="http://sodipodi.sourceforge.net/DTD/sodipodi-0.dtd"
   xmlns:inkscape="http://www.inkscape.org/namespaces/inkscape"
   width="1000"
   height="1000"
   id="svg3173"
   version="1.1"
   inkscape:version="0.47 r22583"
   sodipodi:docname="5bb0.svg"
   inkscape:export-filename="E:\chinese\yan\5bb0.png"
   inkscape:export-xdpi="18.005705"
   inkscape:export-ydpi="18.005705">
  <title
     id="title4764">Zai</title>
  <defs
     id="defs3175">
    <inkscape:perspective
       sodipodi:type="inkscape:persp3d"
       inkscape:vp_x="0 : 526.18109 : 1"
       inkscape:vp_y="0 : 1000 : 0"
       inkscape:vp_z="744.09448 : 526.18109 : 1"
       inkscape:persp3d-origin="372.04724 : 350.78739 : 1"
       id="perspective3181" />
    <inkscape:perspective
       id="perspective3191"
       inkscape:persp3d-origin="0.5 : 0.33333333 : 1"
       inkscape:vp_z="1 : 0.5 : 1"
       inkscape:vp_y="0 : 1000 : 0"
       inkscape:vp_x="0 : 0.5 : 1"
       sodipodi:type="inkscape:persp3d" />
    <inkscape:perspective
       id="perspective4006"
       inkscape:persp3d-origin="0.5 : 0.33333333 : 1"
       inkscape:vp_z="1 : 0.5 : 1"
       inkscape:vp_y="0 : 1000 : 0"
       inkscape:vp_x="0 : 0.5 : 1"
       sodipodi:type="inkscape:persp3d" />
    <inkscape:perspective
       id="perspective4034"
       inkscape:persp3d-origin="0.5 : 0.33333333 : 1"
       inkscape:vp_z="1 : 0.5 : 1"
       inkscape:vp_y="0 : 1000 : 0"
       inkscape:vp_x="0 : 0.5 : 1"
       sodipodi:type="inkscape:persp3d" />
    <inkscape:perspective
       id="perspective4081"
       inkscape:persp3d-origin="0.5 : 0.33333333 : 1"
       inkscape:vp_z="1 : 0.5 : 1"
       inkscape:vp_y="0 : 1000 : 0"
       inkscape:vp_x="0 : 0.5 : 1"
       sodipodi:type="inkscape:persp3d" />
    <inkscape:perspective
       id="perspective4147"
       inkscape:persp3d-origin="0.5 : 0.33333333 : 1"
       inkscape:vp_z="1 : 0.5 : 1"
       inkscape:vp_y="0 : 1000 : 0"
       inkscape:vp_x="0 : 0.5 : 1"
       sodipodi:type="inkscape:persp3d" />
    <inkscape:perspective
       id="perspective3816"
       inkscape:persp3d-origin="0.5 : 0.33333333 : 1"
       inkscape:vp_z="1 : 0.5 : 1"
       inkscape:vp_y="0 : 1000 : 0"
       inkscape:vp_x="0 : 0.5 : 1"
       sodipodi:type="inkscape:persp3d" />
    <inkscape:perspective
       id="perspective3897"
       inkscape:persp3d-origin="0.5 : 0.33333333 : 1"
       inkscape:vp_z="1 : 0.5 : 1"
       inkscape:vp_y="0 : 1000 : 0"
       inkscape:vp_x="0 : 0.5 : 1"
       sodipodi:type="inkscape:persp3d" />
    <inkscape:perspective
       id="perspective3964"
       inkscape:persp3d-origin="0.5 : 0.33333333 : 1"
       inkscape:vp_z="1 : 0.5 : 1"
       inkscape:vp_y="0 : 1000 : 0"
       inkscape:vp_x="0 : 0.5 : 1"
       sodipodi:type="inkscape:persp3d" />
    <inkscape:perspective
       id="perspective3784"
       inkscape:persp3d-origin="0.5 : 0.33333333 : 1"
       inkscape:vp_z="1 : 0.5 : 1"
       inkscape:vp_y="0 : 1000 : 0"
       inkscape:vp_x="0 : 0.5 : 1"
       sodipodi:type="inkscape:persp3d" />
    <inkscape:perspective
       id="perspective3814"
       inkscape:persp3d-origin="0.5 : 0.33333333 : 1"
       inkscape:vp_z="1 : 0.5 : 1"
       inkscape:vp_y="0 : 1000 : 0"
       inkscape:vp_x="0 : 0.5 : 1"
       sodipodi:type="inkscape:persp3d" />
    <inkscape:perspective
       id="perspective3849"
       inkscape:persp3d-origin="0.5 : 0.33333333 : 1"
       inkscape:vp_z="1 : 0.5 : 1"
       inkscape:vp_y="0 : 1000 : 0"
       inkscape:vp_x="0 : 0.5 : 1"
       sodipodi:type="inkscape:persp3d" />
  </defs>
  <sodipodi:namedview
     id="base"
     pagecolor="#ffffff"
     bordercolor="#666666"
     borderopacity="1.0"
     inkscape:pageopacity="0.0"
     inkscape:pageshadow="2"
     inkscape:zoom="0.49497475"
     inkscape:cx="625.55267"
     inkscape:cy="513.93908"
     inkscape:document-units="px"
     inkscape:current-layer="layer1"
     showgrid="false"
     inkscape:window-width="1440"
     inkscape:window-height="840"
     inkscape:window-x="-4"
     inkscape:window-y="-4"
     inkscape:window-maximized="1" />
  <metadata
     id="metadata3178">
    <rdf:RDF>
      <cc:Work
         rdf:about="">
        <dc:format>image/svg+xml</dc:format>
        <dc:type
           rdf:resource="http://purl.org/dc/dcmitype/StillImage" />
        <dc:title>Zai</dc:title>
        <dc:date>2010-08-03</dc:date>
        <dc:creator>
          <cc:Agent>
            <dc:title>Alex Amies</dc:title>
          </cc:Agent>
        </dc:creator>
        <dc:rights>
          <cc:Agent>
            <dc:title>@ Alex Amies 2010</dc:title>
          </cc:Agent>
        </dc:rights>
        <dc:publisher>
          <cc:Agent>
            <dc:title>chinesenotes.com</dc:title>
          </cc:Agent>
        </dc:publisher>
        <dc:source>Yan Qin Ceremonial Inscription</dc:source>
        <dc:language>Chinese 中文</dc:language>
        <dc:description>Tracing from Tang Dynasty Ceremonial Inscription by Yan Zhenqing 颜真卿 (709－785)</dc:description>
        <cc:license
           rdf:resource="http://creativecommons.org/licenses/by/3.0/" />
      </cc:Work>
      <cc:License
         rdf:about="http://creativecommons.org/licenses/by/3.0/">
        <cc:permits
           rdf:resource="http://creativecommons.org/ns#Reproduction" />
        <cc:permits
           rdf:resource="http://creativecommons.org/ns#Distribution" />
        <cc:requires
           rdf:resource="http://creativecommons.org/ns#Notice" />
        <cc:requires
           rdf:resource="http://creativecommons.org/ns#Attribution" />
        <cc:permits
           rdf:resource="http://creativecommons.org/ns#DerivativeWorks" />
      </cc:License>
    </rdf:RDF>
  </metadata>
  <g
     inkscape:label="Layer 1"
     inkscape:groupmode="layer"
     id="layer1"
     transform="translate(0,-52.362183)">
    <path
       style="fill:#000000;fill-opacity:1;stroke:#000000;stroke-width:4.42959404px;stroke-linecap:butt;stroke-linejoin:miter;stroke-opacity:1"
       d="m 440.22779,59.304818 c -8.57915,0.123586 -17.33676,2.385867 -26.02387,4.706443 -7.61951,5.58904 -16.42923,10.912216 -16.7494,21.317423 -3.7608,27.962296 23.89236,55.167146 38.89738,76.825776 4.23473,12.75072 2.47774,25.37191 -2.7685,36.68257 -54.26983,9.70033 -108.59871,19.26351 -163.34129,26.57758 -24.52333,49.9519 51.47411,30.61052 73.91885,15.642 33.78585,-11.3065 69.02319,-14.11101 104.37231,-17.02625 16.17193,8.63393 37.45157,10.09061 54.67782,10.52027 12.51183,1.94181 14.68729,-8.95548 16.05728,-18.9642 46.68879,-5.5465 92.91081,-16.22435 139.53221,-20.62528 55.28572,2.36282 -37.87666,69.51888 26.57757,74.47255 41.45523,-14.75866 84.11259,11.16633 124.99761,2.21479 38.66029,-25.48341 11.70333,-75.67656 -17.71838,-95.92841 -14.59857,-37.27613 -54.55795,-69.79489 -84.85442,-27.68495 -33.44959,23.7055 -77.37437,14.30458 -115.58472,24.08592 -24.63138,3.56892 -49.13209,7.59736 -73.642,11.76611 -1.83067,-9.7686 -4.38561,-19.43941 -5.537,-29.20764 -3.95177,-34.46225 -23.82819,-63.51835 -48.03341,-87.207639 -7.87191,-6.230711 -16.19889,-8.290694 -24.77804,-8.167063 z M 241.72661,212.81794 c -20.39332,10.36135 -34.63597,39.49122 -44.43437,59.79952 -10.35732,24.10111 -26.39869,47.20416 -33.08353,71.42721 -2.40899,17.47302 7.57004,39.00271 25.33174,44.29594 14.77155,-1.09916 32.90945,-7.7455 44.29594,-17.44153 7.64845,-17.26611 12.03012,-37.47303 15.08831,-57.03103 7.29367,-26.7473 9.02224,-53.84295 3.59903,-81.11694 -1.80984,-7.23428 -5.57844,-19.75133 -10.79712,-19.93317 z m 187.56563,23.80907 c -3.24171,0.0509 -6.54948,0.51823 -9.96659,1.52267 -10.01204,3.70721 -21.46776,9.11274 -25.19332,19.93318 -0.33222,1.19789 -0.55459,2.494 -0.5537,3.73747 1.42474,21.34382 24.51013,28.8899 33.22196,47.4797 3.83501,8.92361 6.04103,18.43248 8.58234,27.82339 -18.44926,3.54577 -36.86849,7.23912 -55.23151,11.21241 -15.99487,5.78235 -31.33065,18.34828 -49.00239,12.73508 -2.88817,-0.38493 -5.83258,-0.86071 -8.72076,-1.24581 -23.61602,13.15731 1.64037,43.57563 20.48688,45.40333 31.00858,1.37074 53.1103,-23.84889 81.25536,-32.25297 6.8342,-2.95477 14.00134,-5.71432 21.17901,-8.3055 0.36455,0.69736 0.71873,1.3882 1.1074,2.07637 13.6636,15.50097 29.58104,17.89438 48.5871,16.74941 12.98798,-8.37521 23.11823,-20.45103 23.80907,-36.12888 19.29412,-2.01294 38.63526,-2.04908 57.30788,0.96897 17.70756,5.89337 47.06377,7.81351 38.34366,-18.82576 -20.69319,-20.77583 -56.24525,-12.39149 -83.1933,-10.24345 -5.57181,1.04876 -11.17441,2.01126 -16.74941,3.04535 -6.06536,-18.06561 -17.52503,-34.43584 -29.62291,-49.00238 -14.49518,-15.96838 -32.95494,-37.03819 -55.64677,-36.68258 z M 539.06311,372.1449 c -5.65048,-0.21793 -11.00616,0.77421 -17.3031,6.78283 -7.65217,14.19547 -9.00802,35.03879 -14.39618,52.32457 -3.04672,9.77425 -7.10343,18.98237 -11.90453,27.96181 -6.9705,10.35941 -11.80563,21.22427 -8.44393,33.49881 5.45005,6.77493 20.94008,7.0058 28.65395,0 10.84786,-9.85203 20.18096,-21.70812 32.25299,-29.89976 19.27085,-17.09442 40.56497,-24.03835 64.36754,-27.40811 4.37776,-2.69324 11.60707,-8.11457 10.6587,-12.18139 -13.93125,-22.24586 -42.1661,-37.92937 -64.78281,-50.66349 -7.48717,1.19109 -13.45215,-0.1971 -19.10263,-0.41505 z m -151.71359,51.07876 c -26.32659,16.63074 -35.13843,43.1213 -36.40573,72.67303 -0.22945,10.55532 1.9818,22.43014 6.22911,31.69927 6.74472,10.69141 18.15934,14.3138 30.17662,12.59668 4.42082,-2.11788 8.40861,-8.88197 9.41288,-14.25776 4.46907,-18.12383 -3.03529,-35.5436 -4.15274,-53.15513 1.85321,-9.66794 2.17125,-19.7671 4.84486,-29.20764 2.5026,-15.57937 9.07548,-18.98271 -10.105,-20.34845 z m 171.64676,80.14797 c -0.8382,0.0784 -1.68394,0.13067 -2.49164,0.41505 -22.62871,7.9716 -42.78696,26.03743 -67.96659,30.17663 -0.6965,0.11426 -1.38048,0.29676 -2.07636,0.41505 -5.11698,-12.44952 -11.7255,-22.56326 -26.43916,-22.56326 -12.32676,8.65955 -17.75983,19.9749 -19.93316,32.52983 -22.36729,5.42989 -44.79822,10.91878 -67.55131,13.56564 -14.73536,1.71416 -33.9978,-2.35796 -43.74224,7.61336 -8.83815,9.04395 8.55943,18.52546 19.5179,18.13364 19.00863,-0.67962 37.31724,-7.45482 56.61575,-5.26013 11.57253,1.31603 23.25985,-1.12131 34.32935,-5.12173 0.082,1.41876 0.18339,2.87105 0.27685,4.29118 -0.69584,21.94677 -0.65045,43.84683 -0.1382,65.75179 -15.28521,4.60615 -30.59247,8.98848 -46.09547,12.8735 -21.67126,4.82707 -48.48797,1.12057 -66.16706,8.99762 -4.79202,2.13515 -4.66476,13.13428 -2.49165,18.27207 2.58039,6.10066 5.98598,15.54988 12.04296,16.61077 16.3775,2.86949 38.25021,3.85639 55.50835,-3.8759 16.10343,-5.40145 32.23975,-10.77042 48.44869,-15.91864 1.08614,23.04009 2.64744,46.06026 4.42959,69.07376 -51.30621,6.61958 -102.44189,14.4566 -153.37469,23.25554 -32.69905,-0.6724 -60.67415,-10.50567 -92.60621,0.13733 -31.29551,9.85141 4.22978,58.57119 25.74702,64.92146 35.64158,31.50904 62.64696,-14.67081 94.821,-25.88565 38.72528,-23.28639 83.64327,-28.85704 128.04296,-31.69908 6.80944,80.12959 15.22651,160.20469 16.61098,240.44364 -0.15549,11.3859 -2.19611,31.6389 14.39618,28.3774 12.54301,-34.8508 27.91778,-68.96037 32.94509,-106.03345 10.01913,-50.94787 22.34341,-101.82132 26.30073,-153.65154 -0.25425,-4.93812 -0.2733,-9.84567 -0.27685,-14.81168 42.70213,-2.77603 85.41634,-5.76867 128.04295,-9.55109 33.98358,1.64648 60.04967,29.91393 92.32935,34.1907 21.39524,2.54968 33.37169,-8.34889 35.29833,-30.7303 13.2366,-31.22528 -26.52742,-56.93775 -52.87829,-61.4608 -35.96581,-10.29172 -64.86692,26.03759 -101.6038,25.33196 -33.52365,-0.20376 -66.95083,1.6354 -100.21957,4.9833 0.79901,-21.37102 1.27213,-42.60207 -2.7685,-63.39857 -1.9332,-6.95499 -3.8503,-14.03808 -5.67541,-21.04057 23.23021,-6.97161 46.54989,-13.80563 69.7661,-20.76373 9.37267,-2.63573 22.0883,2.29884 29.34607,-1.52267 4.3569,-2.29408 14.12876,-13.22079 4.70643,-16.61099 -16.56393,-5.95978 -30.79098,-19.57366 -49.6945,-15.64199 -21.42515,5.86235 -42.66759,12.44131 -63.81384,19.24105 -5.39073,-17.96502 -11.75876,-35.62833 -20.90216,-52.18616 -2.61257,-4.15088 -4.62182,-8.87606 -6.50596,-13.70405 8.07347,-2.76005 16.2206,-5.16217 24.5012,-6.64439 23.57009,-4.2191 49.93888,-1.05318 72.11933,-7.89022 6.50219,-2.00425 14.53328,-10.00729 14.25774,-15.78043 -0.4146,-8.68484 -15.55659,-14.80773 -26.43913,-14.67303 -6.1418,0.0763 -12.68144,-3.73277 -18.54892,-3.18377 z"
       id="path3730" />
  </g>
</svg>
