<?xml version="1.0" encoding="UTF-8" standalone="no"?>
<!-- Created with Inkscape (http://www.inkscape.org/) -->

<svg
   xmlns:dc="http://purl.org/dc/elements/1.1/"
   xmlns:cc="http://creativecommons.org/ns#"
   xmlns:rdf="http://www.w3.org/1999/02/22-rdf-syntax-ns#"
   xmlns:svg="http://www.w3.org/2000/svg"
   xmlns="http://www.w3.org/2000/svg"
   xmlns:sodipodi="http://sodipodi.sourceforge.net/DTD/sodipodi-0.dtd"
   xmlns:inkscape="http://www.inkscape.org/namespaces/inkscape"
   width="1000"
   height="1000"
   id="svg3173"
   version="1.1"
   inkscape:version="0.47 r22583"
   sodipodi:docname="5bb3.svg"
   inkscape:export-filename="E:\chinese\yan\5bb3.png"
   inkscape:export-xdpi="18.005705"
   inkscape:export-ydpi="18.005705">
  <title
     id="title3637">Hai</title>
  <defs
     id="defs3175">
    <inkscape:perspective
       sodipodi:type="inkscape:persp3d"
       inkscape:vp_x="0 : 526.18109 : 1"
       inkscape:vp_y="0 : 1000 : 0"
       inkscape:vp_z="744.09448 : 526.18109 : 1"
       inkscape:persp3d-origin="372.04724 : 350.78739 : 1"
       id="perspective3181" />
    <inkscape:perspective
       id="perspective3191"
       inkscape:persp3d-origin="0.5 : 0.33333333 : 1"
       inkscape:vp_z="1 : 0.5 : 1"
       inkscape:vp_y="0 : 1000 : 0"
       inkscape:vp_x="0 : 0.5 : 1"
       sodipodi:type="inkscape:persp3d" />
    <inkscape:perspective
       id="perspective4006"
       inkscape:persp3d-origin="0.5 : 0.33333333 : 1"
       inkscape:vp_z="1 : 0.5 : 1"
       inkscape:vp_y="0 : 1000 : 0"
       inkscape:vp_x="0 : 0.5 : 1"
       sodipodi:type="inkscape:persp3d" />
    <inkscape:perspective
       id="perspective4034"
       inkscape:persp3d-origin="0.5 : 0.33333333 : 1"
       inkscape:vp_z="1 : 0.5 : 1"
       inkscape:vp_y="0 : 1000 : 0"
       inkscape:vp_x="0 : 0.5 : 1"
       sodipodi:type="inkscape:persp3d" />
    <inkscape:perspective
       id="perspective4081"
       inkscape:persp3d-origin="0.5 : 0.33333333 : 1"
       inkscape:vp_z="1 : 0.5 : 1"
       inkscape:vp_y="0 : 1000 : 0"
       inkscape:vp_x="0 : 0.5 : 1"
       sodipodi:type="inkscape:persp3d" />
    <inkscape:perspective
       id="perspective4147"
       inkscape:persp3d-origin="0.5 : 0.33333333 : 1"
       inkscape:vp_z="1 : 0.5 : 1"
       inkscape:vp_y="0 : 1000 : 0"
       inkscape:vp_x="0 : 0.5 : 1"
       sodipodi:type="inkscape:persp3d" />
    <inkscape:perspective
       id="perspective3858"
       inkscape:persp3d-origin="0.5 : 0.33333333 : 1"
       inkscape:vp_z="1 : 0.5 : 1"
       inkscape:vp_y="0 : 1000 : 0"
       inkscape:vp_x="0 : 0.5 : 1"
       sodipodi:type="inkscape:persp3d" />
    <inkscape:perspective
       id="perspective3876"
       inkscape:persp3d-origin="0.5 : 0.33333333 : 1"
       inkscape:vp_z="1 : 0.5 : 1"
       inkscape:vp_y="0 : 1000 : 0"
       inkscape:vp_x="0 : 0.5 : 1"
       sodipodi:type="inkscape:persp3d" />
    <inkscape:perspective
       id="perspective3901"
       inkscape:persp3d-origin="0.5 : 0.33333333 : 1"
       inkscape:vp_z="1 : 0.5 : 1"
       inkscape:vp_y="0 : 1000 : 0"
       inkscape:vp_x="0 : 0.5 : 1"
       sodipodi:type="inkscape:persp3d" />
    <inkscape:perspective
       id="perspective4392"
       inkscape:persp3d-origin="0.5 : 0.33333333 : 1"
       inkscape:vp_z="1 : 0.5 : 1"
       inkscape:vp_y="0 : 1000 : 0"
       inkscape:vp_x="0 : 0.5 : 1"
       sodipodi:type="inkscape:persp3d" />
    <inkscape:perspective
       id="perspective4888"
       inkscape:persp3d-origin="0.5 : 0.33333333 : 1"
       inkscape:vp_z="1 : 0.5 : 1"
       inkscape:vp_y="0 : 1000 : 0"
       inkscape:vp_x="0 : 0.5 : 1"
       sodipodi:type="inkscape:persp3d" />
    <inkscape:perspective
       id="perspective3670"
       inkscape:persp3d-origin="0.5 : 0.33333333 : 1"
       inkscape:vp_z="1 : 0.5 : 1"
       inkscape:vp_y="0 : 1000 : 0"
       inkscape:vp_x="0 : 0.5 : 1"
       sodipodi:type="inkscape:persp3d" />
    <inkscape:perspective
       id="perspective3670-1"
       inkscape:persp3d-origin="0.5 : 0.33333333 : 1"
       inkscape:vp_z="1 : 0.5 : 1"
       inkscape:vp_y="0 : 1000 : 0"
       inkscape:vp_x="0 : 0.5 : 1"
       sodipodi:type="inkscape:persp3d" />
    <inkscape:perspective
       id="perspective3670-4"
       inkscape:persp3d-origin="0.5 : 0.33333333 : 1"
       inkscape:vp_z="1 : 0.5 : 1"
       inkscape:vp_y="0 : 1000 : 0"
       inkscape:vp_x="0 : 0.5 : 1"
       sodipodi:type="inkscape:persp3d" />
    <inkscape:perspective
       id="perspective3810"
       inkscape:persp3d-origin="0.5 : 0.33333333 : 1"
       inkscape:vp_z="1 : 0.5 : 1"
       inkscape:vp_y="0 : 1000 : 0"
       inkscape:vp_x="0 : 0.5 : 1"
       sodipodi:type="inkscape:persp3d" />
  </defs>
  <sodipodi:namedview
     id="base"
     pagecolor="#ffffff"
     bordercolor="#666666"
     borderopacity="1.0"
     inkscape:pageopacity="0.0"
     inkscape:pageshadow="2"
     inkscape:zoom="0.49497475"
     inkscape:cx="493.41553"
     inkscape:cy="520.56541"
     inkscape:document-units="px"
     inkscape:current-layer="layer1"
     showgrid="false"
     inkscape:window-width="1440"
     inkscape:window-height="840"
     inkscape:window-x="-4"
     inkscape:window-y="-4"
     inkscape:window-maximized="1" />
  <metadata
     id="metadata3178">
    <rdf:RDF>
      <cc:Work
         rdf:about="">
        <dc:format>image/svg+xml</dc:format>
        <dc:type
           rdf:resource="http://purl.org/dc/dcmitype/StillImage" />
        <dc:title>Hai</dc:title>
        <dc:date>2010-07-26</dc:date>
        <dc:creator>
          <cc:Agent>
            <dc:title>Alex Amies</dc:title>
          </cc:Agent>
        </dc:creator>
        <dc:rights>
          <cc:Agent>
            <dc:title>@ Alex Amies 2010</dc:title>
          </cc:Agent>
        </dc:rights>
        <dc:publisher>
          <cc:Agent>
            <dc:title>chinesenotes.com</dc:title>
          </cc:Agent>
        </dc:publisher>
        <dc:source>Yan Qin Ceremonial Inscription</dc:source>
        <dc:language>Chinese 中文</dc:language>
        <dc:description>Tracing from Tang Dynasty Ceremonial Inscription by Yan Zhenqing 颜真卿 (709－785)</dc:description>
        <cc:license
           rdf:resource="http://creativecommons.org/licenses/by/3.0/" />
      </cc:Work>
      <cc:License
         rdf:about="http://creativecommons.org/licenses/by/3.0/">
        <cc:permits
           rdf:resource="http://creativecommons.org/ns#Reproduction" />
        <cc:permits
           rdf:resource="http://creativecommons.org/ns#Distribution" />
        <cc:requires
           rdf:resource="http://creativecommons.org/ns#Notice" />
        <cc:requires
           rdf:resource="http://creativecommons.org/ns#Attribution" />
        <cc:permits
           rdf:resource="http://creativecommons.org/ns#DerivativeWorks" />
      </cc:License>
    </rdf:RDF>
  </metadata>
  <g
     inkscape:label="Layer 1"
     inkscape:groupmode="layer"
     id="layer1"
     transform="translate(0,-52.362183)">
    <path
       style="fill:#000000;stroke:#000000;stroke-width:4.76094626999999980px;stroke-linecap:butt;stroke-linejoin:miter;stroke-opacity:1;fill-opacity:1"
       d="M 447.03125 52.15625 C 439.51689 52.243889 431.8419 52.943049 424.0625 53.28125 C 415.56074 64.05003 407.06441 74.82506 398.5625 85.59375 C 399.50203 93.58733 401.47409 105.91535 412.03125 105.4375 C 421.38884 103.21628 431.20401 104.1485 436.3125 113.25 C 458.0716 137.85438 470.19254 169.08852 480.15625 199.9375 C 483.14282 215.06536 496.14595 216.57606 508.6875 216.59375 C 476.30568 223.69222 443.91564 230.67198 411.4375 237.09375 C 373.31024 241.56589 335.58538 237.40737 297.875 232.46875 C 298.98263 218.56197 297.98689 205.24104 291.5625 194.34375 C 287.79216 178.63315 279.2495 175.60764 265.0625 174.03125 C 251.35069 176.34397 256.23512 193.76249 255.21875 203.59375 C 257.41636 241.35586 247.99069 268.39491 227.1875 298.40625 L 187.71875 319.40625 C 175.4954 350.92457 193.80257 379.52559 214.21875 403.59375 C 232.23522 419.4825 252.68006 393.93095 261.34375 378.84375 C 273.82023 351.11295 285.09773 322.92429 289.5625 292.71875 C 289.62452 288.37422 290.08224 283.69828 290.75 278.84375 C 291.9429 279.11944 293.21373 279.28297 294.59375 279.3125 C 332.364 281.99877 370.37243 282.86648 407.90625 277.0625 C 485.96459 262.983 563.22023 241.46042 639.03125 217.75 C 657.04377 213.54404 677.42661 214.3658 693 225.3125 C 676.42477 251.18534 657.04852 275.3697 639.1875 300.46875 C 632.16686 306.19326 625.55511 349.80542 637.5625 340.34375 C 673.80025 316.36282 730.44749 270.25148 746.28125 268.375 C 770.84797 267.36706 787.31555 288.17392 807.59375 291.6875 C 842.05248 271.49575 829.78415 230.0862 815.125 200.9375 C 799.31076 168.93494 764.42121 152.31896 729.5 160.3125 C 719.6029 164.33016 717.43789 177.96574 711.40625 186.78125 C 685.48218 183.58094 658.93558 180.63775 633.71875 189.4375 C 594.87744 197.5257 556.11228 206.16406 517.34375 214.6875 C 524.08867 209.03523 528.63804 198.25841 532.875 190.375 C 536.39786 140.52718 524.91203 93.12128 482.90625 61.625 C 471.6237 53.602837 459.55519 52.010184 447.03125 52.15625 z M 546.1875 259.78125 C 543.68086 259.82565 541.13187 260.35176 538.6875 261.4375 C 529.73668 263.30755 525.86995 272.49002 517.6875 275.5625 C 474.03071 296.72433 424.75755 300.47489 377.28125 305.78125 C 370.15616 306.48159 360.0654 300.67237 355.71875 309.21875 C 353.22834 317.39829 350.25329 326.36342 352.46875 334.9375 C 356.12316 344.76557 369.87572 349.08316 378.3125 342.5 C 386.20319 337.92483 392.36006 330.78559 401.375 328.09375 C 408.05879 325.18433 414.86188 322.55076 421.71875 320.15625 C 435.18158 349.48033 448.43265 378.50914 451.46875 410.875 C 441.11065 413.7467 430.61535 416.21693 419.9375 417.90625 C 406.5909 424.24741 396.96669 411.94355 389.09375 403.59375 C 374.36362 392.72561 360.53975 409.56693 352.21875 421.1875 C 345.49658 436.37968 356.03979 451.75133 366.03125 462.625 C 378.05131 475.59905 397.46526 478.88061 414.21875 475.59375 C 426.83208 470.02113 439.40871 464.23723 452.125 458.84375 L 452.125 514.09375 C 457.27931 531.09624 463.30876 546.953 471.9375 561.9375 C 403.55398 575.29075 335.36093 589.55848 268.09375 607.84375 C 240.97902 615.73906 212.74036 618.23278 185.15625 621.21875 C 159.39001 632.24858 149.77513 691.58932 184.40625 691.34375 C 207.10354 695.11533 227.96752 686.7678 244.65625 671.375 C 289.46704 648.12911 341.02258 643.8686 389.9375 634.34375 C 446.3519 626.57108 498.38389 602.4467 553.0625 588.0625 C 622.02942 573.16731 692.62275 560.62314 763.4375 563.5625 C 788.93327 563.4549 813.55169 571.13363 838.09375 575.3125 C 863.50973 569.11451 883.37686 534.79649 860.8125 513.84375 C 843.97065 494.10635 820.40428 474.24611 793.3125 473.625 C 759.12552 470.56062 746.22084 502.77503 722.8125 517.9375 C 662.44914 548.39836 592.55174 535.99623 528.3125 550.78125 C 530.09192 542.59048 530.07286 533.75483 531.8125 525.6875 C 533.60366 495.90638 537.8161 466.52884 543.09375 437.3125 C 549.09102 439.34238 554.2004 443.5817 559.84375 447.125 C 583.15229 453.33566 612.19488 430.39482 621.09375 409.21875 C 627.9832 372.94732 582.85394 375.86444 554.375 380.625 C 555.14904 376.93946 555.90949 373.2478 556.6875 369.5625 C 550.58314 337.20293 532.29763 318.45914 509.1875 300.4375 C 516.03349 299.49625 522.87678 298.63269 529.71875 297.84375 C 539.28954 297.58666 548.84531 298.35211 558.3125 299.53125 C 568.00907 299.22036 571.79263 287.20946 569.8125 279.125 C 567.57962 268.35933 557.04962 259.58887 546.1875 259.78125 z M 638.8125 640.375 C 626.29188 640.93029 616.4367 654.52559 617.25 667.53125 C 617.76809 678.24091 623.45956 693.45743 610.0625 698.8125 C 573.08161 713.13785 532.69939 715.84194 493.40625 716.15625 C 479.21506 714.94835 464.21167 707.25707 450.34375 714 C 435.32768 724.24365 440.95748 748.87761 455.875 756.625 C 488.83712 777.38054 515.88534 763.01572 545 746 C 564.0684 734.7735 582.70472 720.03973 605.5625 718.40625 C 625.30608 736.92858 602.15532 802.92023 583.28125 851.1875 C 571.72733 843.55667 557.00355 841.48648 543.375 840.84375 C 514.51986 840.20769 485.24004 842.51087 457.75 851.84375 C 445.30186 855.66542 433.82803 862.20252 421.5 866.28125 C 412.44417 830.05415 402.27195 794.19668 388.03125 759.4375 C 378.45194 740.24346 362.51941 723.60752 358.71875 701.9375 C 361.80999 693.59909 361.37652 678.85909 348.4375 683.4375 L 346.9375 683.9375 C 327.08412 692.18418 311.82985 715.18874 318.3125 736.875 C 323.78849 755.52248 333.71339 772.48907 340.21875 790.78125 C 358.67242 836.86721 372.3743 884.69603 390.46875 930.90625 C 394.44595 941.83881 408.43177 938.04829 416.34375 934.25 C 422.9165 931.55515 428.95342 926.30096 431.34375 919.6875 C 433.27393 919.5503 435.18321 919.29083 437.0625 918.875 C 458.01371 915.82895 477.21331 905.87309 498.125 902.59375 C 520.01494 897.54032 542.57755 898.45571 564.8125 899.9375 C 561.57161 914.89302 564.26182 932.10809 577.78125 941.21875 C 591.6118 945.46599 610.08038 951.52472 623.1875 942.53125 C 663.03586 901.79373 678.12008 842.33018 694.21875 789.09375 C 699.43817 761.65094 705.63257 732.26189 696.3125 705 C 686.1057 680.39414 670.05083 657.32977 647.8125 642.25 C 644.7342 640.82251 641.70187 640.24686 638.8125 640.375 z "
       transform="translate(0,52.362183)"
       id="path10654" />
  </g>
</svg>
