<?xml version="1.0" encoding="UTF-8" standalone="no"?>
<!-- Created with Inkscape (http://www.inkscape.org/) -->

<svg
   xmlns:dc="http://purl.org/dc/elements/1.1/"
   xmlns:cc="http://creativecommons.org/ns#"
   xmlns:rdf="http://www.w3.org/1999/02/22-rdf-syntax-ns#"
   xmlns:svg="http://www.w3.org/2000/svg"
   xmlns="http://www.w3.org/2000/svg"
   xmlns:sodipodi="http://sodipodi.sourceforge.net/DTD/sodipodi-0.dtd"
   xmlns:inkscape="http://www.inkscape.org/namespaces/inkscape"
   width="1000"
   height="1000"
   id="svg3173"
   version="1.1"
   inkscape:version="0.47 r22583"
   sodipodi:docname="5bb6.svg"
   inkscape:export-filename="E:\chinese\yan\5bb6.png"
   inkscape:export-xdpi="18.005705"
   inkscape:export-ydpi="18.005705">
  <title
     id="title3790">Meng</title>
  <defs
     id="defs3175">
    <inkscape:perspective
       sodipodi:type="inkscape:persp3d"
       inkscape:vp_x="0 : 526.18109 : 1"
       inkscape:vp_y="0 : 1000 : 0"
       inkscape:vp_z="744.09448 : 526.18109 : 1"
       inkscape:persp3d-origin="372.04724 : 350.78739 : 1"
       id="perspective3181" />
    <inkscape:perspective
       id="perspective3191"
       inkscape:persp3d-origin="0.5 : 0.33333333 : 1"
       inkscape:vp_z="1 : 0.5 : 1"
       inkscape:vp_y="0 : 1000 : 0"
       inkscape:vp_x="0 : 0.5 : 1"
       sodipodi:type="inkscape:persp3d" />
    <inkscape:perspective
       id="perspective4006"
       inkscape:persp3d-origin="0.5 : 0.33333333 : 1"
       inkscape:vp_z="1 : 0.5 : 1"
       inkscape:vp_y="0 : 1000 : 0"
       inkscape:vp_x="0 : 0.5 : 1"
       sodipodi:type="inkscape:persp3d" />
    <inkscape:perspective
       id="perspective4034"
       inkscape:persp3d-origin="0.5 : 0.33333333 : 1"
       inkscape:vp_z="1 : 0.5 : 1"
       inkscape:vp_y="0 : 1000 : 0"
       inkscape:vp_x="0 : 0.5 : 1"
       sodipodi:type="inkscape:persp3d" />
    <inkscape:perspective
       id="perspective4081"
       inkscape:persp3d-origin="0.5 : 0.33333333 : 1"
       inkscape:vp_z="1 : 0.5 : 1"
       inkscape:vp_y="0 : 1000 : 0"
       inkscape:vp_x="0 : 0.5 : 1"
       sodipodi:type="inkscape:persp3d" />
    <inkscape:perspective
       id="perspective4147"
       inkscape:persp3d-origin="0.5 : 0.33333333 : 1"
       inkscape:vp_z="1 : 0.5 : 1"
       inkscape:vp_y="0 : 1000 : 0"
       inkscape:vp_x="0 : 0.5 : 1"
       sodipodi:type="inkscape:persp3d" />
    <inkscape:perspective
       id="perspective3858"
       inkscape:persp3d-origin="0.5 : 0.33333333 : 1"
       inkscape:vp_z="1 : 0.5 : 1"
       inkscape:vp_y="0 : 1000 : 0"
       inkscape:vp_x="0 : 0.5 : 1"
       sodipodi:type="inkscape:persp3d" />
    <inkscape:perspective
       id="perspective3876"
       inkscape:persp3d-origin="0.5 : 0.33333333 : 1"
       inkscape:vp_z="1 : 0.5 : 1"
       inkscape:vp_y="0 : 1000 : 0"
       inkscape:vp_x="0 : 0.5 : 1"
       sodipodi:type="inkscape:persp3d" />
    <inkscape:perspective
       id="perspective3901"
       inkscape:persp3d-origin="0.5 : 0.33333333 : 1"
       inkscape:vp_z="1 : 0.5 : 1"
       inkscape:vp_y="0 : 1000 : 0"
       inkscape:vp_x="0 : 0.5 : 1"
       sodipodi:type="inkscape:persp3d" />
    <inkscape:perspective
       id="perspective4392"
       inkscape:persp3d-origin="0.5 : 0.33333333 : 1"
       inkscape:vp_z="1 : 0.5 : 1"
       inkscape:vp_y="0 : 1000 : 0"
       inkscape:vp_x="0 : 0.5 : 1"
       sodipodi:type="inkscape:persp3d" />
    <inkscape:perspective
       id="perspective4888"
       inkscape:persp3d-origin="0.5 : 0.33333333 : 1"
       inkscape:vp_z="1 : 0.5 : 1"
       inkscape:vp_y="0 : 1000 : 0"
       inkscape:vp_x="0 : 0.5 : 1"
       sodipodi:type="inkscape:persp3d" />
    <inkscape:perspective
       id="perspective2829"
       inkscape:persp3d-origin="0.5 : 0.33333333 : 1"
       inkscape:vp_z="1 : 0.5 : 1"
       inkscape:vp_y="0 : 1000 : 0"
       inkscape:vp_x="0 : 0.5 : 1"
       sodipodi:type="inkscape:persp3d" />
    <inkscape:perspective
       id="perspective3925"
       inkscape:persp3d-origin="0.5 : 0.33333333 : 1"
       inkscape:vp_z="1 : 0.5 : 1"
       inkscape:vp_y="0 : 1000 : 0"
       inkscape:vp_x="0 : 0.5 : 1"
       sodipodi:type="inkscape:persp3d" />
  </defs>
  <sodipodi:namedview
     id="base"
     pagecolor="#ffffff"
     bordercolor="#666666"
     borderopacity="1.0"
     inkscape:pageopacity="0.0"
     inkscape:pageshadow="2"
     inkscape:zoom="0.49497475"
     inkscape:cx="672.21253"
     inkscape:cy="534.70754"
     inkscape:document-units="px"
     inkscape:current-layer="layer1"
     showgrid="false"
     inkscape:window-width="1440"
     inkscape:window-height="840"
     inkscape:window-x="-4"
     inkscape:window-y="-4"
     inkscape:window-maximized="1" />
  <metadata
     id="metadata3178">
    <rdf:RDF>
      <cc:Work
         rdf:about="">
        <dc:format>image/svg+xml</dc:format>
        <dc:type
           rdf:resource="http://purl.org/dc/dcmitype/StillImage" />
        <dc:title>Meng</dc:title>
        <dc:date>2010-07-13</dc:date>
        <dc:creator>
          <cc:Agent>
            <dc:title>Alex Amies</dc:title>
          </cc:Agent>
        </dc:creator>
        <dc:rights>
          <cc:Agent>
            <dc:title>@ Alex Amies 2010</dc:title>
          </cc:Agent>
        </dc:rights>
        <dc:publisher>
          <cc:Agent>
            <dc:title>chinesenotes.com</dc:title>
          </cc:Agent>
        </dc:publisher>
        <dc:source>Yan Qin Ceremonial Inscription</dc:source>
        <dc:language>Chinese 中文</dc:language>
        <dc:description>Tracing from Tang Dynasty Ceremonial Inscription by Yan Zhenqing 颜真卿 (709－785)</dc:description>
        <cc:license
           rdf:resource="http://creativecommons.org/licenses/by/3.0/" />
      </cc:Work>
      <cc:License
         rdf:about="http://creativecommons.org/licenses/by/3.0/">
        <cc:permits
           rdf:resource="http://creativecommons.org/ns#Reproduction" />
        <cc:permits
           rdf:resource="http://creativecommons.org/ns#Distribution" />
        <cc:requires
           rdf:resource="http://creativecommons.org/ns#Notice" />
        <cc:requires
           rdf:resource="http://creativecommons.org/ns#Attribution" />
        <cc:permits
           rdf:resource="http://creativecommons.org/ns#DerivativeWorks" />
      </cc:License>
    </rdf:RDF>
  </metadata>
  <g
     inkscape:label="Layer 1"
     inkscape:groupmode="layer"
     id="layer1"
     transform="translate(0,-52.362183)">
    <path
       style="fill:#000000;stroke:#000000;stroke-width:4.51651859000000040px;stroke-linecap:butt;stroke-linejoin:miter;stroke-opacity:1;fill-opacity:1"
       d="M 363 110.9375 C 347.34022 110.78081 329.73164 114.77948 333.84375 130.8125 C 348.88739 147.12506 365.95389 160.13928 379.71875 178.28125 C 394.35758 192.08968 387.72119 214.64838 402.5625 226 C 391.73369 227.63696 380.93626 229.52903 370.1875 231.78125 C 327.15573 240.07863 283.62761 248.55912 242.71875 264.5625 C 239.82371 265.95548 237.02052 267.51999 234.3125 269.25 C 213.21264 274.03755 219.56571 298.8132 240.1875 296.0625 C 315.69502 278.19728 383.58317 266.65954 455.40625 252.5625 C 500.88817 242.38633 547.4495 236.99893 594.0625 238.21875 C 613.13617 231.9337 642.2544 247.53124 625.4375 269.5 C 615.14296 285.21251 599.7632 296.70862 588.8125 311.90625 C 575.55557 330.24205 594.37464 321.04518 607.5 317.3125 C 629.48709 303.06564 653.26052 291.75577 677.21875 281.0625 C 696.47493 268.87698 702.06374 290.20193 708.53125 303.125 C 724.93096 313.0762 746.41056 306.85363 762.3125 298.75 C 784.49999 283.52021 769.59096 253.83163 759.0625 235.96875 C 747.29557 210.9275 723.40022 186.39915 694.0625 186.5 C 641.7286 195.74789 588.98287 203.19455 536.375 211.03125 C 512.0431 214.19732 487.58066 216.36647 463.15625 218.78125 C 464.91688 209.66526 461.39315 199.78225 458.25 191.25 C 448.36751 172.16002 450.83822 147.9309 434.21875 132.875 C 419.0294 120.78615 399.33836 117.23559 380.90625 113 C 376.8318 111.95607 370.11808 111.00872 363 110.9375 z M 171.125 275.625 C 166.30915 275.53567 161.62086 277.11523 159.125 281.59375 C 153.59078 290.36492 154.12021 301.28886 156.375 311 C 157.74065 322.00355 156.13937 333.33413 152.6875 343.8125 C 150.58759 351.17379 143.36524 354.10473 137.8125 358.28125 C 132.09808 363.08524 132.05148 371.30121 131.71875 378.15625 C 131.94502 390.06739 136.47378 403.40023 147.5 409.40625 C 158.53851 416.10709 173.45633 415.96738 183.9375 408.1875 C 197.24763 399.06191 202.78018 382.74825 205.59375 367.5625 C 208.06361 354.22811 210.77801 340.88291 212.0625 327.375 C 212.87972 316.19941 210.10851 304.13286 201.625 296.28125 C 195.5286 289.99972 189.54269 283.35594 182.21875 278.5 C 181.33383 278.0222 180.4235 277.62992 179.46875 277.3125 C 176.95189 276.34308 174.01451 275.6786 171.125 275.625 z M 532.09375 333.78125 C 518.28146 333.79017 504.37714 338.24068 493.53125 346.5625 C 459.35696 367.90811 419.67398 377.61056 381.09375 387.71875 C 356.70898 393.31914 331.81383 398.13175 306.71875 398 C 294.93154 396.85628 283.48471 390.52296 271.46875 393.34375 C 259.64812 396.81994 253.128 409.1332 241.15625 412.53125 C 224.96322 417.96173 235.80284 435.88109 245.9375 441.21875 C 255.14212 448.51767 270.6957 455.34696 280.34375 445.1875 C 287.4602 433.62155 298.80029 426.50288 311.40625 422.03125 C 337.41649 411.19484 364.75148 405.11718 392.375 400.28125 C 388.8932 405.79032 386.74752 412.41487 385.25 418.34375 C 379.05563 436.48643 366.98719 452.1254 355.03125 466.90625 C 321.60192 505.77626 276.53475 531.52929 235.8125 561.75 C 221.12081 571.20176 207.53966 576.34045 196.65625 591.09375 C 187.49188 603.13262 197.3496 609.61591 208.3125 606.4375 C 225.79662 593.76491 238.29912 586.79939 253.8125 579.03125 C 279.44284 562.78113 303.49944 546.94065 329.15625 530.6875 C 347.11949 518.49564 364.70802 505.74116 382.28125 493 C 384.14655 495.26742 386.47248 497.4977 389 499.71875 C 382.27137 505.09227 376.87043 513.53921 371.03125 519.03125 C 359.58132 535.2493 351.67457 553.82296 338.28125 568.6875 C 316.28761 598.03452 294.19857 625.49116 263.09375 645.34375 C 250.73488 654.50406 237.00519 669.29435 223.875 677.4375 C 205.91786 695.19063 195.21143 705.13933 177.21875 715.8125 C 165.77949 726.16756 178.13674 733.83308 190.96875 727.34375 C 214.80418 713.67342 235.98615 701.83756 260.125 688.4375 C 288.67825 658.19683 330.77377 642.2568 352.90625 605.71875 C 371.94848 589.49934 383.75072 565.6396 395.875 551.15625 C 404.46668 542.8793 410.11461 531.52435 411.8125 519.6875 C 412.15416 520.1269 412.49369 520.53415 412.78125 520.96875 C 421.78993 528.68183 430.54276 536.71863 439.15625 544.90625 C 434.91412 550.00536 431.655 556.30894 429.15625 561.75 C 410.51098 595.41126 398.15917 633.16281 372.0625 662.21875 C 328.63137 711.62364 272.75076 747.54317 218.15625 783.25 C 202.1651 793.26185 186.04409 803.04965 169.84375 812.71875 C 188.72113 817.69478 204.30858 816.09881 222.9375 808.21875 C 253.18846 797.39559 283.16517 777.05682 308.53125 757.71875 C 330.54851 738.39081 351.74007 722.89845 374.28125 704.125 C 402.9219 680.36983 420.60008 646.03933 437.59375 614.3125 C 447.87305 600.41085 457.78117 583.36167 464.25 569.40625 C 466.0533 571.19998 467.85499 572.98514 469.65625 574.78125 C 460.3678 582.38424 462.32323 598.36478 471.125 607.8125 C 479.04796 623.83801 472.37215 642.30481 468.125 658.46875 C 459.18049 682.72038 454.25892 708.17491 446.21875 732.6875 C 431.71368 772.31882 397.02089 799.2355 366 825.75 C 352.72103 840.15629 334.09498 840.59443 316.65625 840.84375 C 304.30466 846.24008 293.50154 860.56826 300 874.28125 C 307.90391 896.15175 334.8588 900.25055 355.03125 896.84375 C 380.08099 893.08805 397.48785 872.70048 415.53125 856.84375 C 439.96607 831.80002 462.18053 804.58268 482.9375 776.4375 C 502.90394 746.38625 517.63228 711.14645 516.28125 674.46875 C 515.47534 657.24077 517.96885 640.22286 519.6875 623.15625 C 539.45836 640.99298 560.26723 657.5652 583.34375 671.40625 C 627.56534 699.65111 668.32416 732.81326 710.1875 764.34375 C 770.37318 758.94493 822.99917 714.61582 884.0625 714.375 C 920.47359 716.86261 913.62785 695.04263 885.75 691.46875 C 844.82389 683.09002 814.30285 680.99625 772.9375 675.46875 C 696.9599 669.40072 625.76383 636.04386 563.4375 593.6875 C 527.21434 566.41739 498.48435 530.70894 462.9375 502.59375 C 448.82061 489.34513 431.32387 474.34536 411.9375 469.8125 C 425.06056 456.79613 435.20933 440.19148 434.84375 421.40625 C 433.90062 410.77163 426.94391 402.05457 418.28125 396.03125 C 432.33019 393.80505 446.36906 391.59393 460.28125 389 C 487.90708 384.97316 515.84333 381.75141 543.78125 382.34375 C 554.64438 385.19155 567.73277 385.85779 575.75 376.34375 C 583.05944 365.60369 574.46032 352.06326 566.21875 344.5625 C 556.39522 337.23605 544.28107 333.77338 532.09375 333.78125 z M 677.9375 419.125 C 667.41903 420.35837 661.0001 430.13849 654.0625 437.0625 C 644.87283 448.96673 636.94485 461.96289 625.59375 472.03125 C 606.53472 491.54528 584.16355 507.34146 561.71875 522.65625 C 549.23049 531.95753 537.80153 542.54895 526.3125 553.03125 C 535.45308 554.64428 544.60942 556.26197 553.75 557.875 C 573.57937 554.21134 594.04266 548.98634 609.59375 535.375 C 626.7661 522.56037 645.77027 512.60417 665.125 503.5625 C 677.11039 497.10645 690.27075 491.15828 704.21875 492.5 C 715.29859 492.509 727.67533 489.23585 734.375 479.84375 C 739.33915 470.94725 732.765 461.79915 726.8125 455.40625 C 718.01463 446.39624 709.63927 436.92075 700.125 428.65625 C 693.83557 423.50561 686.26587 419.24473 677.9375 419.125 z "
       transform="translate(0,52.362183)"
       id="path10773" />
  </g>
</svg>
