<?xml version="1.0" encoding="UTF-8" standalone="no"?>
<!-- Created with Inkscape (http://www.inkscape.org/) -->

<svg
   xmlns:dc="http://purl.org/dc/elements/1.1/"
   xmlns:cc="http://creativecommons.org/ns#"
   xmlns:rdf="http://www.w3.org/1999/02/22-rdf-syntax-ns#"
   xmlns:svg="http://www.w3.org/2000/svg"
   xmlns="http://www.w3.org/2000/svg"
   xmlns:sodipodi="http://sodipodi.sourceforge.net/DTD/sodipodi-0.dtd"
   xmlns:inkscape="http://www.inkscape.org/namespaces/inkscape"
   width="1000"
   height="1000"
   id="svg3173"
   version="1.1"
   inkscape:version="0.47 r22583"
   sodipodi:docname="5bdf.svg"
   inkscape:export-filename="E:\chinese\yan\5bdf.png"
   inkscape:export-xdpi="18.005705"
   inkscape:export-ydpi="18.005705">
  <title
     id="title6614">Cha</title>
  <defs
     id="defs3175">
    <inkscape:perspective
       sodipodi:type="inkscape:persp3d"
       inkscape:vp_x="0 : 526.18109 : 1"
       inkscape:vp_y="0 : 1000 : 0"
       inkscape:vp_z="744.09448 : 526.18109 : 1"
       inkscape:persp3d-origin="372.04724 : 350.78739 : 1"
       id="perspective3181" />
    <inkscape:perspective
       id="perspective3191"
       inkscape:persp3d-origin="0.5 : 0.33333333 : 1"
       inkscape:vp_z="1 : 0.5 : 1"
       inkscape:vp_y="0 : 1000 : 0"
       inkscape:vp_x="0 : 0.5 : 1"
       sodipodi:type="inkscape:persp3d" />
    <inkscape:perspective
       id="perspective4006"
       inkscape:persp3d-origin="0.5 : 0.33333333 : 1"
       inkscape:vp_z="1 : 0.5 : 1"
       inkscape:vp_y="0 : 1000 : 0"
       inkscape:vp_x="0 : 0.5 : 1"
       sodipodi:type="inkscape:persp3d" />
    <inkscape:perspective
       id="perspective4034"
       inkscape:persp3d-origin="0.5 : 0.33333333 : 1"
       inkscape:vp_z="1 : 0.5 : 1"
       inkscape:vp_y="0 : 1000 : 0"
       inkscape:vp_x="0 : 0.5 : 1"
       sodipodi:type="inkscape:persp3d" />
    <inkscape:perspective
       id="perspective4081"
       inkscape:persp3d-origin="0.5 : 0.33333333 : 1"
       inkscape:vp_z="1 : 0.5 : 1"
       inkscape:vp_y="0 : 1000 : 0"
       inkscape:vp_x="0 : 0.5 : 1"
       sodipodi:type="inkscape:persp3d" />
    <inkscape:perspective
       id="perspective4147"
       inkscape:persp3d-origin="0.5 : 0.33333333 : 1"
       inkscape:vp_z="1 : 0.5 : 1"
       inkscape:vp_y="0 : 1000 : 0"
       inkscape:vp_x="0 : 0.5 : 1"
       sodipodi:type="inkscape:persp3d" />
    <inkscape:perspective
       id="perspective3807"
       inkscape:persp3d-origin="0.5 : 0.33333333 : 1"
       inkscape:vp_z="1 : 0.5 : 1"
       inkscape:vp_y="0 : 1000 : 0"
       inkscape:vp_x="0 : 0.5 : 1"
       sodipodi:type="inkscape:persp3d" />
    <inkscape:perspective
       id="perspective3794"
       inkscape:persp3d-origin="0.5 : 0.33333333 : 1"
       inkscape:vp_z="1 : 0.5 : 1"
       inkscape:vp_y="0 : 1000 : 0"
       inkscape:vp_x="0 : 0.5 : 1"
       sodipodi:type="inkscape:persp3d" />
    <inkscape:perspective
       id="perspective3815"
       inkscape:persp3d-origin="0.5 : 0.33333333 : 1"
       inkscape:vp_z="1 : 0.5 : 1"
       inkscape:vp_y="0 : 1000 : 0"
       inkscape:vp_x="0 : 0.5 : 1"
       sodipodi:type="inkscape:persp3d" />
    <inkscape:perspective
       id="perspective3850"
       inkscape:persp3d-origin="0.5 : 0.33333333 : 1"
       inkscape:vp_z="1 : 0.5 : 1"
       inkscape:vp_y="0 : 1000 : 0"
       inkscape:vp_x="0 : 0.5 : 1"
       sodipodi:type="inkscape:persp3d" />
  </defs>
  <sodipodi:namedview
     id="base"
     pagecolor="#ffffff"
     bordercolor="#666666"
     borderopacity="1.0"
     inkscape:pageopacity="0.0"
     inkscape:pageshadow="2"
     inkscape:zoom="0.49497475"
     inkscape:cx="163.7685"
     inkscape:cy="557.20233"
     inkscape:document-units="px"
     inkscape:current-layer="g5975"
     showgrid="false"
     inkscape:window-width="1440"
     inkscape:window-height="840"
     inkscape:window-x="-4"
     inkscape:window-y="-4"
     inkscape:window-maximized="1" />
  <metadata
     id="metadata3178">
    <rdf:RDF>
      <cc:Work
         rdf:about="">
        <dc:format>image/svg+xml</dc:format>
        <dc:type
           rdf:resource="http://purl.org/dc/dcmitype/StillImage" />
        <dc:title>Cha</dc:title>
        <dc:date>2010-08-02</dc:date>
        <dc:creator>
          <cc:Agent>
            <dc:title>Alex Amies</dc:title>
          </cc:Agent>
        </dc:creator>
        <dc:rights>
          <cc:Agent>
            <dc:title>@ Alex Amies 2010</dc:title>
          </cc:Agent>
        </dc:rights>
        <dc:publisher>
          <cc:Agent>
            <dc:title>chinesenotes.com</dc:title>
          </cc:Agent>
        </dc:publisher>
        <dc:source>Yan Qin Ceremonial Inscription</dc:source>
        <dc:language>Chinese 中文</dc:language>
        <dc:description>Tracing from Tang Dynasty Ceremonial Inscription by Yan Zhenqing 颜真卿 (709－785)</dc:description>
        <cc:license
           rdf:resource="http://creativecommons.org/licenses/by/3.0/" />
      </cc:Work>
      <cc:License
         rdf:about="http://creativecommons.org/licenses/by/3.0/">
        <cc:permits
           rdf:resource="http://creativecommons.org/ns#Reproduction" />
        <cc:permits
           rdf:resource="http://creativecommons.org/ns#Distribution" />
        <cc:requires
           rdf:resource="http://creativecommons.org/ns#Notice" />
        <cc:requires
           rdf:resource="http://creativecommons.org/ns#Attribution" />
        <cc:permits
           rdf:resource="http://creativecommons.org/ns#DerivativeWorks" />
      </cc:License>
    </rdf:RDF>
  </metadata>
  <g
     inkscape:label="Layer 1"
     inkscape:groupmode="layer"
     id="layer1"
     transform="translate(0,-52.362183)">
    <g
       transform="matrix(4.762395,0,0,4.762395,-2523.1017,68.412668)"
       id="g5975"
       style="fill:none;fill-opacity:1">
      <path
         style="fill:#000000;fill-opacity:1;stroke:#000000;stroke-width:0.98221791000000003px;stroke-linecap:butt;stroke-linejoin:miter;stroke-opacity:1"
         d="m 614.43281,-2.509907 c -0.86089,0.5702128 -2.27557,1.70380887 -2.11793,2.79320065 0.7714,5.33020325 2.21906,11.39728535 4.51208,16.57490135 1.18958,1.629434 2.57447,4.078215 4.11301,6.629953 -11.58403,2.106699 -23.14671,4.536816 -34.07066,8.778611 -0.16232,0.06689 -0.30498,0.144073 -0.46028,0.214706 -0.33587,-1.689308 -1.18487,-3.285015 -1.93372,-4.819023 -1.95678,-3.499676 -4.2134,-9.323518 -6.87553,-9.822162 -1.96413,-0.368134 -3.07827,4.955473 -4.02097,7.704236 -2.04818,5.304522 -3.61946,10.966843 -6.56857,15.746198 -1.37913,2.23501 -4.72912,2.934 -5.67846,5.617041 -2.32604,4.927453 0.0234,10.983075 4.32791,14.058014 4.94953,1.783938 9.94345,-2.095708 13.47479,-5.218032 3.2061,-4.408086 4.80064,-10.672007 6.16958,-16.513531 3.07133,0.153897 7.06249,-1.068903 9.91426,-2.701096 9.42886,-3.3295 19.10915,-5.980312 28.914,-8.195394 2.70451,3.547434 5.86688,6.193428 9.57663,5.310136 2.81729,-0.306858 3.96136,-3.530455 3.86748,-6.1082 l 0,-1.964404 c 9.97545,-1.856256 20.00446,-3.348539 29.98837,-4.665547 3.26112,0.15296 10.00614,-2.734403 8.37952,2.915943 -2.68188,4.315983 -4.68136,9.2454 -8.68646,12.584676 0.41584,1.174666 2.00827,1.319489 4.20511,0.82875 l -8.99346,8.655774 c -4.66942,1.720929 -9.24844,3.701144 -13.96591,5.248764 l -5.67846,0 c -0.70156,0.818506 -2.25376,1.518665 -2.08718,2.455517 0.49812,2.801714 3.98026,5.903176 7.5508,5.064556 7.92403,-2.690431 14.77651,-6.849242 20.16617,-13.13716 -0.5386,8.683747 -3.87104,16.795409 -7.88845,24.586135 -0.59135,-0.636169 -1.19052,-1.264946 -1.78029,-1.903033 -3.35068,-2.116242 -6.53841,-5.7243 -10.86576,-5.125928 l -11.04996,0 c -2.892,5.048746 5.85326,6.634209 8.13398,10.159798 3.03714,3.260317 5.60661,6.901494 7.98054,10.712329 -0.0566,0.10291 -0.1277,0.203949 -0.1843,0.306858 -2.24493,3.668775 -6.34008,7.389705 -7.1518,10.742969 -0.30919,1.278137 2.71139,1.082936 3.95959,0.06128 l 6.56858,-3.560533 c 0.20301,-0.369071 0.4107,-0.735757 0.61386,-1.104968 3.01557,5.307235 5.92095,10.682392 9.39246,15.654092 4.47742,6.85846 10.6947,12.30435 16.11452,18.38588 3.42198,4.11297 8.37531,6.74428 13.41343,8.28745 4.13945,-0.64899 8.339,-1.94246 12.03215,-4.02096 4.26429,-3.06811 9.64104,-1.16952 14.48771,-1.50402 3.29923,-0.76097 7.6329,4.56909 9.26971,-0.36814 -1.52722,-4.51277 -7.78094,-5.21883 -11.23412,-8.13397 -21.53945,-10.53158 -38.76306,-26.471395 -55.03489,-43.616603 3.69357,-6.649317 7.4036,-13.283059 11.17271,-19.889902 0.49406,-1.627001 0.44018,-3.655723 2.30209,-4.32791 l 3.77538,-2.516936 c 1.18467,-4.204372 -5.29311,-9.341292 -8.53304,-11.878715 6.55152,-2.228695 15.84631,-7.506976 18.4473,-8.686461 4.08972,-2.378802 4.07471,-6.361638 2.1793,-10.221216 -1.21017,-3.501687 -3.32071,-7.07672 -7.05969,-8.0726034 -2.43793,0.8266444 -5.92877,0.5302184 -6.47648,3.6833214 -0.36392,2.713072 -2.78684,2.378241 -4.97249,2.455517 -11.91797,1.059829 -23.78565,2.698525 -35.63611,4.327911 -0.94681,0.187108 -1.90373,0.341473 -2.85457,0.521798 l 0,-7.550805 c -2.27286,-5.6176983 -5.31014,-9.9473863 -10.62022,-13.0143733 -3.76243,-1.7843591 -8.34326,-2.3813751 -12.52326,-2.4248311 l 0,1.414e-4 z m -13.19858,44.107714 c -0.17027,-0.0094 -0.33587,0.03274 -0.49112,0.09215 -2.38515,0.914539 -4.01847,5.074286 -4.54275,8.287451 -4.21097,17.21617 -15.79976,30.44216 -29.12889,41.529407 -0.11694,1.052392 -0.8164,2.402706 -0.36814,3.130838 0.48737,0.791936 2.13398,1.783704 3.16152,1.41192 10.20433,-4.063386 17.07308,-11.755692 23.38906,-20.28891 5.00675,-6.639167 9.77581,-13.451222 12.09357,-21.516716 0.17026,-3.285342 0.58915,-6.6423 -0.36813,-9.852893 -1.04299,-1.044579 -2.55287,-2.716393 -3.74475,-2.793155 l -3.7e-4,-9.2e-5 z m 24.64755,2.394144 c -1.38142,0.180561 -2.68781,1.111986 -3.62195,3.069467 -2.98008,2.999114 -6.80251,2.961318 -10.65091,3.376371 -6.22631,3.015906 0.55866,7.261348 4.57345,7.489387 2.4432,3.881563 -0.0594,8.240534 -2.3021,12.492571 -2.99532,-2.866219 -7.81312,-4.144964 -11.72519,-4.91108 -0.23949,-0.0094 -0.4673,0.0094 -0.70596,0.03274 -1.95977,2.598842 -2.11792,4.967587 -2.11792,8.072604 2.47263,2.975492 5.27084,5.795074 8.74788,7.581492 0.39198,0.101037 0.76775,0.162316 1.1357,0.214707 -2.35626,5.015533 -5.17294,9.779265 -8.1954,14.426337 -2.48003,-4.854434 -9.86463,-6.638419 -15.34715,-6.783428 -1.28622,0.350828 -3.21283,0.210497 -3.86748,1.043597 -1.68711,4.320473 2.65315,6.858739 5.95468,8.655774 1.81415,1.38714 3.00454,3.37464 4.57344,5.00319 0.77501,0.2961 1.77421,0.56904 2.82389,0.73665 -3.542,5.08027 -7.14342,10.1112 -10.43606,15.31645 -5.10815,7.16382 -10.98411,13.79111 -16.85117,20.31964 -7.33511,7.76763 -15.13131,15.11663 -24.09502,20.99493 -2.59389,1.34488 -6.91534,4.64463 -1.44265,4.17443 5.77949,-1.25788 11.58242,-2.43864 17.37296,-3.65264 8.14769,-7.87806 16.72889,-15.34906 23.66533,-24.37129 17.72716,-19.26936 31.45105,-41.235274 42.91064,-64.67289 2.04696,-7.399201 3.43237,-15.041035 6.38442,-22.161304 -0.38357,-3.655864 -3.74437,-6.843022 -6.78343,-6.44579 l 0,-0.0019 z m 22.62169,63.567919 c -6.49467,0.15951 -13.55325,2.47157 -20.19686,3.8368 -6.19651,1.23182 -12.50927,1.328 -18.78488,1.84166 -1.49748,1.93358 -3.25288,4.27819 -2.60904,6.87553 3.95864,5.23997 11.56124,3.23492 17.1888,3.03874 9.31678,-2.68656 23.07584,-3.25213 28.72989,-12.36983 -0.52479,-1.04954 -0.47802,-3.07116 -1.5654,-3.16148 -0.90158,-0.0748 -1.83469,-0.0842 -2.76251,-0.0613 l 0,-1.2e-4 z m 7.73496,17.52644 c -6.04009,0.15951 -12.11138,1.8724 -17.64923,4.11307 -16.04066,6.88919 -32.79089,11.78455 -49.4178,17.00465 -1.3687,4.04696 2.42212,7.42225 5.58636,9.2083 3.35587,1.99949 7.13341,0.22359 10.19048,-1.41197 5.70175,-1.83749 11.39985,-3.68973 17.12743,-5.49425 -0.44391,11.38213 -1.03972,22.76866 -1.01292,34.16276 0.0781,2.66616 -2.27705,2.32066 -3.83679,1.35055 -1.29007,-0.37796 -2.67027,-1.58065 -3.95954,-0.46029 -0.97572,2.09562 1.67827,4.21401 1.50402,6.53786 -0.13519,3.14552 -0.22687,6.30396 -0.33773,9.45387 1.36987,1.67547 2.05394,4.34673 4.48135,4.75761 5.20932,1.7722 12.28516,-3.13505 14.73328,-7.64286 4.43391,-15.01035 7.0719,-27.36942 5.34082,-42.94137 -0.39479,-4.90763 -2.20394,-7.72707 -4.78833,-8.93204 7.18089,-2.14506 14.37558,-4.18725 21.6395,-5.98537 4.78005,-0.36533 10.10937,-1.22565 13.41342,-5.03387 1.95267,-2.59753 1.55408,-7.07339 -2.30208,-7.09038 -3.4776,-1.23748 -7.08828,-1.69178 -10.71233,-1.59613 l 9e-5,-1.4e-4 z m -0.0612,27.44071 c -1.15263,1.79848 0.0594,3.87231 0.9515,5.4943 4.10474,8.25718 8.33983,16.45525 13.07579,24.37129 1.26532,1.44803 2.54519,3.49845 4.72691,3.40705 7.42306,0.014 11.5343,-4.27467 10.7737,-11.41829 -0.96098,-4.67873 -3.68748,-9.83091 -7.36659,-12.95299 -3.64875,-3.29087 -7.56152,-4.9566 -12.21636,-6.23095 l -9.94504,-2.67041 9e-5,0 z m -61.38862,13.68969 c -3.33684,0.37094 -7.27164,2.58126 -10.89649,3.86748 -2.10473,-0.35082 -5.01861,-1.45133 -6.29231,-1.07432 -0.55739,0.16499 -1.59061,2.05992 -2.45557,2.82388 -0.1422,3.14642 0.12537,6.27085 0.70596,9.36178 0.28488,5.04426 0.36533,9.01723 4.54277,12.03215 2.74614,0.49645 5.50337,1.20073 7.73496,-0.70596 1.018,-3.68683 0.50253,-8.46235 0,-12.67673 -0.0875,-0.98289 0.83942,-1.56101 1.31986,-2.3021 2.36668,-2.95831 5.68224,-5.88618 7.09038,-8.87066 0.37375,-0.79236 -0.87693,-2.55248 -1.74956,-2.45552 z"
         id="path2867"
         sodipodi:nodetypes="cscccccccsccccccccccccccccscccccccccccccccccccccccccccccccccccccsccsccccccccccccccccccccccccccccccccccccccscccccccccccccccccccccccccccccccccsccccccsc" />
    </g>
  </g>
</svg>
