<?xml version="1.0" encoding="UTF-8" standalone="no"?>
<!-- Created with Inkscape (http://www.inkscape.org/) -->

<svg
   xmlns:dc="http://purl.org/dc/elements/1.1/"
   xmlns:cc="http://creativecommons.org/ns#"
   xmlns:rdf="http://www.w3.org/1999/02/22-rdf-syntax-ns#"
   xmlns:svg="http://www.w3.org/2000/svg"
   xmlns="http://www.w3.org/2000/svg"
   xmlns:sodipodi="http://sodipodi.sourceforge.net/DTD/sodipodi-0.dtd"
   xmlns:inkscape="http://www.inkscape.org/namespaces/inkscape"
   width="1000"
   height="1000"
   id="svg3173"
   version="1.1"
   inkscape:version="0.47 r22583"
   sodipodi:docname="5be6.svg"
   inkscape:export-filename="E:\chinese\yan\5be6.png"
   inkscape:export-xdpi="17.961918"
   inkscape:export-ydpi="17.961918">
  <title
     id="title2927">Shi</title>
  <defs
     id="defs3175">
    <inkscape:perspective
       sodipodi:type="inkscape:persp3d"
       inkscape:vp_x="0 : 526.18109 : 1"
       inkscape:vp_y="0 : 1000 : 0"
       inkscape:vp_z="744.09448 : 526.18109 : 1"
       inkscape:persp3d-origin="372.04724 : 350.78739 : 1"
       id="perspective3181" />
    <inkscape:perspective
       id="perspective3191"
       inkscape:persp3d-origin="0.5 : 0.33333333 : 1"
       inkscape:vp_z="1 : 0.5 : 1"
       inkscape:vp_y="0 : 1000 : 0"
       inkscape:vp_x="0 : 0.5 : 1"
       sodipodi:type="inkscape:persp3d" />
    <inkscape:perspective
       id="perspective4006"
       inkscape:persp3d-origin="0.5 : 0.33333333 : 1"
       inkscape:vp_z="1 : 0.5 : 1"
       inkscape:vp_y="0 : 1000 : 0"
       inkscape:vp_x="0 : 0.5 : 1"
       sodipodi:type="inkscape:persp3d" />
    <inkscape:perspective
       id="perspective4034"
       inkscape:persp3d-origin="0.5 : 0.33333333 : 1"
       inkscape:vp_z="1 : 0.5 : 1"
       inkscape:vp_y="0 : 1000 : 0"
       inkscape:vp_x="0 : 0.5 : 1"
       sodipodi:type="inkscape:persp3d" />
    <inkscape:perspective
       id="perspective4081"
       inkscape:persp3d-origin="0.5 : 0.33333333 : 1"
       inkscape:vp_z="1 : 0.5 : 1"
       inkscape:vp_y="0 : 1000 : 0"
       inkscape:vp_x="0 : 0.5 : 1"
       sodipodi:type="inkscape:persp3d" />
    <inkscape:perspective
       id="perspective4147"
       inkscape:persp3d-origin="0.5 : 0.33333333 : 1"
       inkscape:vp_z="1 : 0.5 : 1"
       inkscape:vp_y="0 : 1000 : 0"
       inkscape:vp_x="0 : 0.5 : 1"
       sodipodi:type="inkscape:persp3d" />
    <inkscape:perspective
       id="perspective3858"
       inkscape:persp3d-origin="0.5 : 0.33333333 : 1"
       inkscape:vp_z="1 : 0.5 : 1"
       inkscape:vp_y="0 : 1000 : 0"
       inkscape:vp_x="0 : 0.5 : 1"
       sodipodi:type="inkscape:persp3d" />
    <inkscape:perspective
       id="perspective3876"
       inkscape:persp3d-origin="0.5 : 0.33333333 : 1"
       inkscape:vp_z="1 : 0.5 : 1"
       inkscape:vp_y="0 : 1000 : 0"
       inkscape:vp_x="0 : 0.5 : 1"
       sodipodi:type="inkscape:persp3d" />
    <inkscape:perspective
       id="perspective3901"
       inkscape:persp3d-origin="0.5 : 0.33333333 : 1"
       inkscape:vp_z="1 : 0.5 : 1"
       inkscape:vp_y="0 : 1000 : 0"
       inkscape:vp_x="0 : 0.5 : 1"
       sodipodi:type="inkscape:persp3d" />
    <inkscape:perspective
       id="perspective5282"
       inkscape:persp3d-origin="0.5 : 0.33333333 : 1"
       inkscape:vp_z="1 : 0.5 : 1"
       inkscape:vp_y="0 : 1000 : 0"
       inkscape:vp_x="0 : 0.5 : 1"
       sodipodi:type="inkscape:persp3d" />
    <inkscape:perspective
       id="perspective6657"
       inkscape:persp3d-origin="0.5 : 0.33333333 : 1"
       inkscape:vp_z="1 : 0.5 : 1"
       inkscape:vp_y="0 : 1000 : 0"
       inkscape:vp_x="0 : 0.5 : 1"
       sodipodi:type="inkscape:persp3d" />
    <inkscape:perspective
       id="perspective7221"
       inkscape:persp3d-origin="0.5 : 0.33333333 : 1"
       inkscape:vp_z="1 : 0.5 : 1"
       inkscape:vp_y="0 : 1000 : 0"
       inkscape:vp_x="0 : 0.5 : 1"
       sodipodi:type="inkscape:persp3d" />
    <inkscape:perspective
       id="perspective7762"
       inkscape:persp3d-origin="0.5 : 0.33333333 : 1"
       inkscape:vp_z="1 : 0.5 : 1"
       inkscape:vp_y="0 : 1000 : 0"
       inkscape:vp_x="0 : 0.5 : 1"
       sodipodi:type="inkscape:persp3d" />
    <inkscape:perspective
       id="perspective3824"
       inkscape:persp3d-origin="0.5 : 0.33333333 : 1"
       inkscape:vp_z="1 : 0.5 : 1"
       inkscape:vp_y="0 : 1000 : 0"
       inkscape:vp_x="0 : 0.5 : 1"
       sodipodi:type="inkscape:persp3d" />
    <inkscape:perspective
       id="perspective3037"
       inkscape:persp3d-origin="0.5 : 0.33333333 : 1"
       inkscape:vp_z="1 : 0.5 : 1"
       inkscape:vp_y="0 : 1000 : 0"
       inkscape:vp_x="0 : 0.5 : 1"
       sodipodi:type="inkscape:persp3d" />
    <inkscape:perspective
       id="perspective7183"
       inkscape:persp3d-origin="0.5 : 0.33333333 : 1"
       inkscape:vp_z="1 : 0.5 : 1"
       inkscape:vp_y="0 : 1000 : 0"
       inkscape:vp_x="0 : 0.5 : 1"
       sodipodi:type="inkscape:persp3d" />
    <inkscape:perspective
       id="perspective7211"
       inkscape:persp3d-origin="0.5 : 0.33333333 : 1"
       inkscape:vp_z="1 : 0.5 : 1"
       inkscape:vp_y="0 : 1000 : 0"
       inkscape:vp_x="0 : 0.5 : 1"
       sodipodi:type="inkscape:persp3d" />
    <inkscape:perspective
       id="perspective3723"
       inkscape:persp3d-origin="0.5 : 0.33333333 : 1"
       inkscape:vp_z="1 : 0.5 : 1"
       inkscape:vp_y="0 : 1000 : 0"
       inkscape:vp_x="0 : 0.5 : 1"
       sodipodi:type="inkscape:persp3d" />
    <inkscape:perspective
       id="perspective3759"
       inkscape:persp3d-origin="0.5 : 0.33333333 : 1"
       inkscape:vp_z="1 : 0.5 : 1"
       inkscape:vp_y="0 : 1000 : 0"
       inkscape:vp_x="0 : 0.5 : 1"
       sodipodi:type="inkscape:persp3d" />
    <inkscape:perspective
       id="perspective3801"
       inkscape:persp3d-origin="0.5 : 0.33333333 : 1"
       inkscape:vp_z="1 : 0.5 : 1"
       inkscape:vp_y="0 : 1000 : 0"
       inkscape:vp_x="0 : 0.5 : 1"
       sodipodi:type="inkscape:persp3d" />
    <inkscape:perspective
       id="perspective3837"
       inkscape:persp3d-origin="0.5 : 0.33333333 : 1"
       inkscape:vp_z="1 : 0.5 : 1"
       inkscape:vp_y="0 : 1000 : 0"
       inkscape:vp_x="0 : 0.5 : 1"
       sodipodi:type="inkscape:persp3d" />
  </defs>
  <sodipodi:namedview
     id="base"
     pagecolor="#ffffff"
     bordercolor="#666666"
     borderopacity="1.0"
     inkscape:pageopacity="0.0"
     inkscape:pageshadow="2"
     inkscape:zoom="0.49497475"
     inkscape:cx="186.55262"
     inkscape:cy="501.15052"
     inkscape:document-units="px"
     inkscape:current-layer="g3804"
     showgrid="false"
     inkscape:window-width="1440"
     inkscape:window-height="840"
     inkscape:window-x="-4"
     inkscape:window-y="-4"
     inkscape:window-maximized="1" />
  <metadata
     id="metadata3178">
    <rdf:RDF>
      <cc:Work
         rdf:about="">
        <dc:format>image/svg+xml</dc:format>
        <dc:type
           rdf:resource="http://purl.org/dc/dcmitype/StillImage" />
        <dc:title>Shi</dc:title>
        <dc:date>2010-08-02</dc:date>
        <dc:creator>
          <cc:Agent>
            <dc:title>Alex Amies</dc:title>
          </cc:Agent>
        </dc:creator>
        <dc:rights>
          <cc:Agent>
            <dc:title>Copyright Alex Amies 2010</dc:title>
          </cc:Agent>
        </dc:rights>
        <dc:publisher>
          <cc:Agent>
            <dc:title>chinesenotes.com</dc:title>
          </cc:Agent>
        </dc:publisher>
        <dc:source>Yan Qin Ceremonial Inscription</dc:source>
        <dc:language>Chinese 中文</dc:language>
        <dc:description>Tracing from Tang Dynasty Ceremonial Inscription by Yan Zhenqing 颜真卿 (709－785)</dc:description>
        <cc:license
           rdf:resource="http://creativecommons.org/licenses/by/3.0/" />
      </cc:Work>
      <cc:License
         rdf:about="http://creativecommons.org/licenses/by/3.0/">
        <cc:permits
           rdf:resource="http://creativecommons.org/ns#Reproduction" />
        <cc:permits
           rdf:resource="http://creativecommons.org/ns#Distribution" />
        <cc:requires
           rdf:resource="http://creativecommons.org/ns#Notice" />
        <cc:requires
           rdf:resource="http://creativecommons.org/ns#Attribution" />
        <cc:permits
           rdf:resource="http://creativecommons.org/ns#DerivativeWorks" />
      </cc:License>
    </rdf:RDF>
  </metadata>
  <g
     inkscape:label="Layer 1"
     inkscape:groupmode="layer"
     id="layer1"
     transform="translate(0,-52.362183)">
    <g
       transform="matrix(4.7418067,0,0,4.7418067,-575.38835,-3945.1359)"
       id="g3804"
       style="fill:none;fill-opacity:1">
      <path
         style="fill:#000000;stroke:#000000;stroke-width:4.41379690000000040px;stroke-linecap:butt;stroke-linejoin:miter;stroke-opacity:1;fill-opacity:1"
         d="M 466.375 4.8125 C 449.21891 14.577634 423.91325 24.624722 421.5625 46.59375 C 421.12009 52.948767 418.64152 60.375668 426.875 62.4375 C 438.85446 69.833818 451.03011 77.497782 459.9375 88.625 C 460.79485 89.521179 461.66264 90.414402 462.5 91.34375 C 447.76583 93.520139 433.02484 95.716573 418.28125 97.75 C 385.47904 95.914067 355.69294 83.771357 319.78125 93.0625 C 316.88039 93.813016 314.43358 95.525834 312.4375 97.84375 C 309.9327 90.394463 306.77342 83.174045 302.75 76.375 C 273.98089 50.376859 246.56608 143.27927 236.0625 163.4375 C 215.62821 181.49402 211.56118 203.89376 212.6875 230.1875 C 221.60044 246.53417 226.74312 278.82561 250.375 273.3125 C 275.07962 270.0894 286.62055 259.01299 300.625 240.125 C 319.21492 212.91383 323.70906 184.21595 322.03125 153.90625 C 326.9777 156.62476 332.75337 158.33391 338.875 158.8125 C 391.37949 158.68586 440.05129 137.39156 489.96875 124 C 496.11491 130.20498 502.86224 135.48626 510.90625 138.78125 C 517.59077 141.51941 526.0741 141.89159 532.59375 138.78125 C 542.39596 134.1049 548.78357 124.79226 554.375 114.875 C 574.43697 112.33551 594.5005 109.78948 614.5625 107.25 C 631.80423 110.46817 649.46599 118.17625 667.125 112.96875 C 675.01489 100.13282 698.87892 88.69245 689.5625 71.21875 C 677.91544 66.978484 664.87028 72.721728 652.53125 71.53125 C 616.93832 72.047406 581.57367 75.246518 546.34375 79.59375 C 527.46664 47.708126 499.85497 20.880506 466.375 4.8125 z M 739.59375 11.03125 C 716.86768 10.803725 709.96121 39.653019 699.71875 57.5 C 694.48806 76.878341 703.83112 101.25174 689.5625 117.75 C 681.3257 125.96267 668.04712 136.54766 671.75 147.5 C 674.23603 154.85331 685.22009 155.58135 693.375 156.125 C 700.73134 151.39595 707.04668 144.40191 715.4375 141.9375 C 727.53726 138.38375 740.67042 141.9375 753.28125 141.9375 C 774.40083 144.76158 801.37589 124.21683 810.09375 105.9375 C 818.90829 82.468212 811.55475 60.339651 799.125 40.0625 C 785.47898 25.915841 768.73229 18.405946 750.375 13.03125 C 746.42667 11.695376 742.84033 11.063754 739.59375 11.03125 z M 665 151.40625 C 641.01404 154.84984 616.56087 156.12243 593.40625 163.84375 C 572.86986 169.69087 551.78024 174.19139 531.65625 181.15625 C 527.7583 183.32174 523.8667 185.49086 519.96875 187.65625 C 517.86694 191.85986 515.75806 196.07764 513.65625 200.28125 C 522.31744 210.13193 534.90629 226.9966 549.59375 219.28125 C 549.96677 219.08471 550.34372 218.90893 550.71875 218.71875 C 534.49396 243.53676 524.23496 272.09931 515.5625 300.6875 C 494.99506 303.4424 474.42542 306.27722 453.875 309.15625 C 459.27331 299.58935 464.73364 290.06624 470.28125 280.59375 C 489.27906 257.53055 502.85008 232.29045 497.34375 201.5625 C 497.14791 177.26785 479.90468 168.54281 460.0625 162.4375 C 450.18683 162.59493 431.75325 163.60283 435.25 177.9375 C 428.62932 226.58981 409.71451 274.94078 383.9375 319.1875 C 355.49544 323.3652 327.06658 327.66189 298.65625 332.0625 C 254.01631 337.12661 209.50989 348.35539 164.375 343.90625 C 152.60119 342.9963 141.70954 346.81953 130.625 350.03125 C 105.0017 360.61871 108.96475 403.54849 138.46875 405.09375 C 175.06559 417.72915 211.91099 402.33598 247.65625 394.5625 C 281.73086 386.49427 315.80792 378.29584 349.90625 370.25 C 339.99436 383.38001 329.60375 395.91927 318.875 407.71875 C 317.07833 412.65943 311.11933 417.82828 313.46875 422.53125 C 319.11425 433.83235 337.63335 429.88433 349.71875 433.5625 C 374.98234 429.91558 387.96382 412.03991 405.84375 395.78125 C 414.02406 381.15246 422.12315 366.44606 430.21875 351.75 C 454.5352 346.33118 478.90432 341.10815 503.3125 336.1875 C 503.98975 336.10531 504.66649 336.0197 505.34375 335.9375 C 496.20559 363.76601 480.2073 388.87797 466.375 414.65625 C 466.86291 419.53509 467.35585 424.40241 467.84375 429.28125 C 401.16801 430.3763 334.27467 435.39301 266.6875 441.9375 C 262.31778 443.87965 257.93222 445.8079 253.5625 447.75 C 247.81723 465.64525 245.91203 500.77489 273.65625 496.75 C 294.0665 495.22641 310.86734 480.39209 331.1875 476.90625 C 374.68883 470.16615 418.50454 464.27646 461.8125 456.25 C 512.35494 458.16156 564.14161 456.55512 612.96875 469.8125 C 667.20738 484.53937 713.81957 519.59438 765.46875 541.75 C 782.1032 548.90671 813.56096 555.88077 820.125 536.8125 C 823.09228 518.54189 811.04558 502.16798 801.34375 487.71875 C 790.35167 467.98041 768.67298 456.34691 746.6875 454.0625 C 702.34436 444.45496 658.14725 438.01913 614 434.09375 C 614.82549 432.98699 615.62257 431.87637 616.3125 430.6875 C 626.27911 426.12783 626.31172 413.79879 630.875 404.8125 C 641.77102 375.95604 653.11977 347.24809 662.8125 317.96875 C 683.44058 315.90975 704.08169 314.01974 724.75 312.375 C 750.48018 306.38121 761.78598 330.46448 777.5 345.21875 C 796.63845 358.77496 832.45796 370.07024 845.71875 344.53125 C 845.98192 314.3349 836.00957 288.06466 806.15625 276.65625 C 788.5724 259.8648 764.865 259.71192 742.15625 262.625 C 719.93448 269.99297 697.97262 279.71238 674.28125 281.125 C 679.67052 263.90039 683.34548 245.94287 692.96875 230.5 C 700.13371 221.26434 697.79402 209.6103 698.125 198.75 C 697.96899 185.93641 686.88147 176.36532 681.375 165.28125 C 676.76378 159.87825 670.35208 156.12563 665 151.40625 z M 621.625 200.34375 C 627.83955 200.47633 633.05631 203.16949 635 211.3125 C 635.64531 226.41264 635.07436 241.50013 631.28125 256.1875 C 629.79987 266.59441 627.22824 276.74228 624.21875 286.75 C 604.28513 289.19663 584.35484 291.71267 564.4375 294.28125 C 574.48954 267.24755 580.1856 240.19756 573.71875 210.46875 C 583.10504 208.11779 592.72805 206.54732 602.21875 204.625 C 608.2105 202.63467 615.41045 200.21117 621.625 200.34375 z M 612.3125 323.3125 C 611.49973 325.8887 610.72599 328.47164 609.96875 331.0625 C 599.92052 364.98661 586.51376 397.76196 575.375 431.3125 C 547.68052 429.72487 519.97757 429.01959 492.25 429.0625 C 514.43852 399.57783 530.38877 363.59807 548.96875 330.6875 C 570.07774 328.15995 591.18389 325.667 612.3125 323.3125 z M 410 486.75 C 408.63224 486.78362 407.22893 486.90191 405.8125 487.15625 C 395.46256 488.00598 396.89093 497.19705 402.09375 507.28125 C 400.71374 510.04502 399.54063 513.01142 398.59375 516.125 C 390.26752 582.22721 399.44183 652.52615 401.65625 719.53125 C 399.39431 736.91049 394.95833 754.13342 394.15625 771.625 C 392.87103 788.75667 399.90924 793.07623 412.78125 802.4375 C 420.66303 800.33593 428.55572 798.22657 436.4375 796.125 C 438.71192 770.00266 443.21627 744.01744 444.0625 717.8125 L 447.46875 720.46875 C 471.06995 718.29359 492.19995 708.63953 513.59375 699.09375 C 526.5386 687.31937 566.42456 681.65073 546.78125 665.28125 C 512.68776 673.60923 478.60223 681.99321 444.46875 690.15625 C 444.64129 667.1946 444.44781 644.30992 443.8125 621.46875 C 445.55094 622.41699 447.29281 623.36425 449.03125 624.3125 C 479.05115 618.81627 507.48603 607.12845 535.75 595.9375 C 537.46118 577.05472 534.23868 576.73823 516.59375 575.53125 C 492.53635 584.79344 467.93283 591.90605 443 598.21875 C 442.27323 579.87985 441.29316 561.54579 440.0625 543.1875 C 451.4484 546.89802 463.97433 547.1516 475.125 542.875 C 505.68846 536.36199 535.29308 526.4466 564.5 515.5 C 576.7929 512.65748 591.02347 509.88259 601.9375 517.90625 C 606.55683 521.67537 616.66577 521.7767 616.375 528.8125 C 619.34792 587.07129 616.69504 645.44835 617.78125 703.75 C 618.3422 725.09794 617.31687 746.38653 616.28125 767.6875 C 603.46493 767.22468 590.3585 764.65423 577.90625 768.78125 C 506.04692 785.24907 434.20318 801.72015 362.34375 818.1875 C 349.91253 816.25095 337.50898 810.73622 325.03125 811.09375 C 311.44114 813.75296 299.79407 823.93813 302.03125 839 C 302.37124 858.40442 317.35776 865.02048 335.625 863.96875 C 392.3804 849.45266 449.68327 833.22501 505.0625 813.46875 C 526.23552 796.71691 588.88938 800.03736 615.40625 786.40625 C 615.24672 790.127 615.12456 793.87249 615 797.59375 C 616.29857 808.04249 617.5853 818.95938 622.0625 828.5625 C 620.60944 828.32894 619.14776 828.15238 617.65625 828.03125 C 594.97448 825.0074 571.30063 819.45273 553.0625 835.53125 C 555.98786 845.17277 554.75286 857.30019 564.09375 863.75 C 582.01455 891.95996 627.96843 908.15876 639.125 937.75 C 640.15298 955.40896 642.85084 969.57086 650.25 985.8125 C 660.35697 989.65573 671.56235 995.23264 682.34375 993.1875 C 694.22861 990.93325 702.21781 979.39953 712.28125 972.6875 C 719.08176 938.99933 705.31383 910.30958 693.375 878.09375 C 681.7615 867.57916 670.23081 855.38691 657.625 845.625 C 663.62061 842.98662 667.54825 835.41994 672.15625 829.46875 C 681.14909 812.28397 677.11289 790.50293 680.625 771.40625 C 686.24357 706.3811 690.78115 641.25254 697.59375 576.34375 C 693.24272 559.95607 688.34957 541.09276 678.0625 527.34375 C 666.24559 516.69996 656.12477 503.3621 640.40625 498.46875 C 624.91989 490.23949 606.84176 491.92324 590 489.21875 C 563.46599 489.96241 537.09523 494.58958 510.59375 496.65625 C 489.18487 498.28383 467.63697 501.39132 446.21875 500.5625 C 438.5894 497.42568 431.27465 492.52024 423.53125 489.46875 L 422.25 488.75 C 422.15651 488.78458 422.06163 488.8086 421.96875 488.84375 C 418.12904 487.47621 414.17043 486.64748 410 486.75 z M 438 846.5625 C 412.01755 854.24849 400.77684 879.27819 381.9375 894.59375 C 362.9137 911.3916 349.14857 933.42849 330.3125 950.21875 C 322.54931 956.81697 304.30744 962.7605 308.625 972.0625 C 317.51802 991.22272 354.52141 972.34695 371.78125 966.9375 C 403.87332 946.18593 434.86393 923.52914 469.0625 906.25 C 481.10773 901.89133 477.40625 890.85114 477.40625 879.6875 C 468.99903 869.17823 460.59472 858.66552 452.1875 848.15625 L 438 846.5625 z "
         transform="matrix(0.21089008,0,0,0.21089008,121.3437,843.0327)"
         id="path4418" />
    </g>
  </g>
</svg>
