<?xml version="1.0" encoding="UTF-8" standalone="no"?>
<!-- Created with Inkscape (http://www.inkscape.org/) -->

<svg
   xmlns:dc="http://purl.org/dc/elements/1.1/"
   xmlns:cc="http://creativecommons.org/ns#"
   xmlns:rdf="http://www.w3.org/1999/02/22-rdf-syntax-ns#"
   xmlns:svg="http://www.w3.org/2000/svg"
   xmlns="http://www.w3.org/2000/svg"
   xmlns:sodipodi="http://sodipodi.sourceforge.net/DTD/sodipodi-0.dtd"
   xmlns:inkscape="http://www.inkscape.org/namespaces/inkscape"
   width="1000"
   height="1000"
   id="svg3173"
   version="1.1"
   inkscape:version="0.47 r22583"
   sodipodi:docname="5bf8.svg"
   inkscape:export-filename="E:\chinese\yan\5bf8.png"
   inkscape:export-xdpi="18.005705"
   inkscape:export-ydpi="18.005705">
  <title
     id="title5014">Cun</title>
  <defs
     id="defs3175">
    <inkscape:perspective
       sodipodi:type="inkscape:persp3d"
       inkscape:vp_x="0 : 526.18109 : 1"
       inkscape:vp_y="0 : 1000 : 0"
       inkscape:vp_z="744.09448 : 526.18109 : 1"
       inkscape:persp3d-origin="372.04724 : 350.78739 : 1"
       id="perspective3181" />
    <inkscape:perspective
       id="perspective3191"
       inkscape:persp3d-origin="0.5 : 0.33333333 : 1"
       inkscape:vp_z="1 : 0.5 : 1"
       inkscape:vp_y="0 : 1000 : 0"
       inkscape:vp_x="0 : 0.5 : 1"
       sodipodi:type="inkscape:persp3d" />
    <inkscape:perspective
       id="perspective4006"
       inkscape:persp3d-origin="0.5 : 0.33333333 : 1"
       inkscape:vp_z="1 : 0.5 : 1"
       inkscape:vp_y="0 : 1000 : 0"
       inkscape:vp_x="0 : 0.5 : 1"
       sodipodi:type="inkscape:persp3d" />
    <inkscape:perspective
       id="perspective4034"
       inkscape:persp3d-origin="0.5 : 0.33333333 : 1"
       inkscape:vp_z="1 : 0.5 : 1"
       inkscape:vp_y="0 : 1000 : 0"
       inkscape:vp_x="0 : 0.5 : 1"
       sodipodi:type="inkscape:persp3d" />
    <inkscape:perspective
       id="perspective4081"
       inkscape:persp3d-origin="0.5 : 0.33333333 : 1"
       inkscape:vp_z="1 : 0.5 : 1"
       inkscape:vp_y="0 : 1000 : 0"
       inkscape:vp_x="0 : 0.5 : 1"
       sodipodi:type="inkscape:persp3d" />
    <inkscape:perspective
       id="perspective4147"
       inkscape:persp3d-origin="0.5 : 0.33333333 : 1"
       inkscape:vp_z="1 : 0.5 : 1"
       inkscape:vp_y="0 : 1000 : 0"
       inkscape:vp_x="0 : 0.5 : 1"
       sodipodi:type="inkscape:persp3d" />
    <inkscape:perspective
       id="perspective3758"
       inkscape:persp3d-origin="0.5 : 0.33333333 : 1"
       inkscape:vp_z="1 : 0.5 : 1"
       inkscape:vp_y="0 : 1000 : 0"
       inkscape:vp_x="0 : 0.5 : 1"
       sodipodi:type="inkscape:persp3d" />
    <inkscape:perspective
       id="perspective4805"
       inkscape:persp3d-origin="0.5 : 0.33333333 : 1"
       inkscape:vp_z="1 : 0.5 : 1"
       inkscape:vp_y="0 : 1000 : 0"
       inkscape:vp_x="0 : 0.5 : 1"
       sodipodi:type="inkscape:persp3d" />
    <inkscape:perspective
       id="perspective4878"
       inkscape:persp3d-origin="0.5 : 0.33333333 : 1"
       inkscape:vp_z="1 : 0.5 : 1"
       inkscape:vp_y="0 : 1000 : 0"
       inkscape:vp_x="0 : 0.5 : 1"
       sodipodi:type="inkscape:persp3d" />
    <inkscape:perspective
       id="perspective4953"
       inkscape:persp3d-origin="0.5 : 0.33333333 : 1"
       inkscape:vp_z="1 : 0.5 : 1"
       inkscape:vp_y="0 : 1000 : 0"
       inkscape:vp_x="0 : 0.5 : 1"
       sodipodi:type="inkscape:persp3d" />
  </defs>
  <sodipodi:namedview
     id="base"
     pagecolor="#ffffff"
     bordercolor="#666666"
     borderopacity="1.0"
     inkscape:pageopacity="0.0"
     inkscape:pageshadow="2"
     inkscape:zoom="0.49497475"
     inkscape:cx="452.31529"
     inkscape:cy="557.14286"
     inkscape:document-units="px"
     inkscape:current-layer="g4167"
     showgrid="false"
     inkscape:window-width="1440"
     inkscape:window-height="840"
     inkscape:window-x="-4"
     inkscape:window-y="-4"
     inkscape:window-maximized="1" />
  <metadata
     id="metadata3178">
    <rdf:RDF>
      <cc:Work
         rdf:about="">
        <dc:format>image/svg+xml</dc:format>
        <dc:type
           rdf:resource="http://purl.org/dc/dcmitype/StillImage" />
        <dc:title>Cun</dc:title>
        <dc:date>2010-08-03</dc:date>
        <dc:creator>
          <cc:Agent>
            <dc:title>Alex Amies</dc:title>
          </cc:Agent>
        </dc:creator>
        <dc:rights>
          <cc:Agent>
            <dc:title>@ Alex Amies 2010</dc:title>
          </cc:Agent>
        </dc:rights>
        <dc:publisher>
          <cc:Agent>
            <dc:title>chinesenotes.com</dc:title>
          </cc:Agent>
        </dc:publisher>
        <dc:source>Yan Qin Ceremonial Inscription</dc:source>
        <dc:language>Chinese 中文</dc:language>
        <dc:description>Tracing from Tang Dynasty Ceremonial Inscription by Yan Zhenqing 颜真卿 (709－785)</dc:description>
        <cc:license
           rdf:resource="http://creativecommons.org/licenses/by/3.0/" />
      </cc:Work>
      <cc:License
         rdf:about="http://creativecommons.org/licenses/by/3.0/">
        <cc:permits
           rdf:resource="http://creativecommons.org/ns#Reproduction" />
        <cc:permits
           rdf:resource="http://creativecommons.org/ns#Distribution" />
        <cc:requires
           rdf:resource="http://creativecommons.org/ns#Notice" />
        <cc:requires
           rdf:resource="http://creativecommons.org/ns#Attribution" />
        <cc:permits
           rdf:resource="http://creativecommons.org/ns#DerivativeWorks" />
      </cc:License>
    </rdf:RDF>
  </metadata>
  <g
     inkscape:label="Layer 1"
     inkscape:groupmode="layer"
     id="layer1"
     transform="translate(0,-52.362183)">
    <g
       transform="matrix(4.7513766,0,0,4.7513766,-484.68057,82.542513)"
       id="g4167"
       style="fill:none;fill-opacity:1">
      <path
         style="fill:none;stroke:#000000;stroke-width:1px;stroke-linecap:butt;stroke-linejoin:miter;stroke-opacity:1"
         d="m 149.23492,133.17766 0,0 z"
         id="path4185" />
      <g
         transform="translate(-5.0507585,-218.11309)"
         id="g4935"
         style="fill:#000000;fill-opacity:1">
        <g
           style="fill:none;fill-opacity:1"
           id="g4214"
           transform="matrix(1.2257887,0,0,1,-54.193216,0)">
          <path
             id="path4191"
             d="m 216.14465,217.88064 c -0.47384,0.006 -0.98907,0.0953 -1.5,0.28125 l -0.40625,0.0312 -0.34375,0.0312 c -1.60449,1.57834 -5.41091,1.91269 -5.34375,4.4375 -0.50033,8.70693 1.85062,17.19805 2.9375,25.78125 1.69914,10.55509 2.97566,21.1624 4.03125,31.8125 -10.61706,2.34891 -35.25947,4.31835 -45.65674,7.1998 -3.36375,1.46063 -6.64647,4.94701 -7.5,8.5625 -0.16396,1.9266 1.02984,4.42586 3.28125,5.375 8.7714,5.70329 38.36643,-3.52872 48.21924,-6.1998 0.98271,-0.22118 1.97403,-0.42948 2.96875,-0.625 0.71683,8.99751 1.27471,18.00198 1.78125,27 0.24876,16.55368 0.85032,33.11044 0.875,49.65625 l -1.65625,18.4375 c -1.27279,2.09111 -4.08726,3.10542 -6,1.21875 l -7.5625,-5.15615 c -3.78755,0.64756 -0.47978,3.6236 0.25,5.75 3.77634,7.28379 6.25419,15.96405 10.8125,22.125 1.7166,2.32013 6.86971,4.35675 8.9375,1.78125 15.74501,-19.6109 13.68736,-46.35641 12.84375,-67.71875 -1.27373,-18.56557 -2.58664,-37.10136 -4,-55.65625 7.05374,-1.00239 22.97974,-3.78201 29.38905,-5.82582 2.55286,-0.81406 3.47054,-4.40078 4.1875,-7.25 0.69148,-6.49142 -5.76516,-8.54632 -11.03125,-7.59375 -4.91051,1.25833 -18.80719,4.09963 -23.76405,5.23207 -0.8928,-11.32602 -1.813,-22.6485 -2.78125,-33.96875 -0.84041,-6.69187 -0.36139,-18.50065 -7.34375,-22.34375 -1.84525,-0.97946 -3.5717,-2.40263 -5.625,-2.375 z"
             style="fill:#000000;fill-opacity:1;stroke:#000000;stroke-width:1px;stroke-linecap:butt;stroke-linejoin:miter;stroke-opacity:1"
             sodipodi:nodetypes="ccccccccccccccccccssccscccccc" />
        </g>
        <path
           sodipodi:nodetypes="csssccc"
           style="fill:#000000;fill-opacity:1;stroke:#000000;stroke-width:1.19649386px;stroke-linecap:butt;stroke-linejoin:miter;stroke-opacity:1"
           d="m 172.12542,309.52673 c -1.01463,-0.649 -3.68213,-0.62155 -3.84587,0.42731 -0.63199,4.04847 0.19566,10.0666 1.38865,14.87651 2.60515,10.50339 3.25302,25.58795 9.66744,31.1046 4.01927,3.45672 10.06875,-7.27355 12.01914,-13.07753 0.59263,-3.97775 -1.01505,-8.77737 -2.73369,-12.67031 -3.69204,-8.10288 -9.23359,-15.44623 -16.49567,-20.66058 z"
           id="path4189-1" />
      </g>
    </g>
  </g>
</svg>
