<?xml version="1.0" encoding="UTF-8" standalone="no"?>
<!-- Created with Inkscape (http://www.inkscape.org/) -->

<svg
   xmlns:dc="http://purl.org/dc/elements/1.1/"
   xmlns:cc="http://creativecommons.org/ns#"
   xmlns:rdf="http://www.w3.org/1999/02/22-rdf-syntax-ns#"
   xmlns:svg="http://www.w3.org/2000/svg"
   xmlns="http://www.w3.org/2000/svg"
   xmlns:sodipodi="http://sodipodi.sourceforge.net/DTD/sodipodi-0.dtd"
   xmlns:inkscape="http://www.inkscape.org/namespaces/inkscape"
   width="1000"
   height="1000"
   id="svg3173"
   version="1.1"
   inkscape:version="0.47 r22583"
   sodipodi:docname="5c09.svg"
   inkscape:export-filename="E:\chinese\yan\5c09.png"
   inkscape:export-xdpi="18.005705"
   inkscape:export-ydpi="18.005705">
  <title
     id="title4907">Wei</title>
  <defs
     id="defs3175">
    <inkscape:perspective
       sodipodi:type="inkscape:persp3d"
       inkscape:vp_x="0 : 526.18109 : 1"
       inkscape:vp_y="0 : 1000 : 0"
       inkscape:vp_z="744.09448 : 526.18109 : 1"
       inkscape:persp3d-origin="372.04724 : 350.78739 : 1"
       id="perspective3181" />
    <inkscape:perspective
       id="perspective3191"
       inkscape:persp3d-origin="0.5 : 0.33333333 : 1"
       inkscape:vp_z="1 : 0.5 : 1"
       inkscape:vp_y="0 : 1000 : 0"
       inkscape:vp_x="0 : 0.5 : 1"
       sodipodi:type="inkscape:persp3d" />
    <inkscape:perspective
       id="perspective4006"
       inkscape:persp3d-origin="0.5 : 0.33333333 : 1"
       inkscape:vp_z="1 : 0.5 : 1"
       inkscape:vp_y="0 : 1000 : 0"
       inkscape:vp_x="0 : 0.5 : 1"
       sodipodi:type="inkscape:persp3d" />
    <inkscape:perspective
       id="perspective4034"
       inkscape:persp3d-origin="0.5 : 0.33333333 : 1"
       inkscape:vp_z="1 : 0.5 : 1"
       inkscape:vp_y="0 : 1000 : 0"
       inkscape:vp_x="0 : 0.5 : 1"
       sodipodi:type="inkscape:persp3d" />
    <inkscape:perspective
       id="perspective4081"
       inkscape:persp3d-origin="0.5 : 0.33333333 : 1"
       inkscape:vp_z="1 : 0.5 : 1"
       inkscape:vp_y="0 : 1000 : 0"
       inkscape:vp_x="0 : 0.5 : 1"
       sodipodi:type="inkscape:persp3d" />
    <inkscape:perspective
       id="perspective4147"
       inkscape:persp3d-origin="0.5 : 0.33333333 : 1"
       inkscape:vp_z="1 : 0.5 : 1"
       inkscape:vp_y="0 : 1000 : 0"
       inkscape:vp_x="0 : 0.5 : 1"
       sodipodi:type="inkscape:persp3d" />
    <inkscape:perspective
       id="perspective3758"
       inkscape:persp3d-origin="0.5 : 0.33333333 : 1"
       inkscape:vp_z="1 : 0.5 : 1"
       inkscape:vp_y="0 : 1000 : 0"
       inkscape:vp_x="0 : 0.5 : 1"
       sodipodi:type="inkscape:persp3d" />
    <inkscape:perspective
       id="perspective4805"
       inkscape:persp3d-origin="0.5 : 0.33333333 : 1"
       inkscape:vp_z="1 : 0.5 : 1"
       inkscape:vp_y="0 : 1000 : 0"
       inkscape:vp_x="0 : 0.5 : 1"
       sodipodi:type="inkscape:persp3d" />
    <inkscape:perspective
       id="perspective4878"
       inkscape:persp3d-origin="0.5 : 0.33333333 : 1"
       inkscape:vp_z="1 : 0.5 : 1"
       inkscape:vp_y="0 : 1000 : 0"
       inkscape:vp_x="0 : 0.5 : 1"
       sodipodi:type="inkscape:persp3d" />
    <inkscape:perspective
       id="perspective4953"
       inkscape:persp3d-origin="0.5 : 0.33333333 : 1"
       inkscape:vp_z="1 : 0.5 : 1"
       inkscape:vp_y="0 : 1000 : 0"
       inkscape:vp_x="0 : 0.5 : 1"
       sodipodi:type="inkscape:persp3d" />
  </defs>
  <sodipodi:namedview
     id="base"
     pagecolor="#ffffff"
     bordercolor="#666666"
     borderopacity="1.0"
     inkscape:pageopacity="0.0"
     inkscape:pageshadow="2"
     inkscape:zoom="0.49497475"
     inkscape:cx="452.31529"
     inkscape:cy="557.14286"
     inkscape:document-units="px"
     inkscape:current-layer="g4167"
     showgrid="false"
     inkscape:window-width="1440"
     inkscape:window-height="840"
     inkscape:window-x="-4"
     inkscape:window-y="-4"
     inkscape:window-maximized="1" />
  <metadata
     id="metadata3178">
    <rdf:RDF>
      <cc:Work
         rdf:about="">
        <dc:format>image/svg+xml</dc:format>
        <dc:type
           rdf:resource="http://purl.org/dc/dcmitype/StillImage" />
        <dc:title>Wei</dc:title>
        <dc:date>2010-08-03</dc:date>
        <dc:creator>
          <cc:Agent>
            <dc:title>Alex Amies</dc:title>
          </cc:Agent>
        </dc:creator>
        <dc:rights>
          <cc:Agent>
            <dc:title>@ Alex Amies 2010</dc:title>
          </cc:Agent>
        </dc:rights>
        <dc:publisher>
          <cc:Agent>
            <dc:title>chinesenotes.com</dc:title>
          </cc:Agent>
        </dc:publisher>
        <dc:source>Yan Qin Ceremonial Inscription</dc:source>
        <dc:language>Chinese 中文</dc:language>
        <dc:description>Tracing from Tang Dynasty Ceremonial Inscription by Yan Zhenqing 颜真卿 (709－785)</dc:description>
        <cc:license
           rdf:resource="http://creativecommons.org/licenses/by/3.0/" />
      </cc:Work>
      <cc:License
         rdf:about="http://creativecommons.org/licenses/by/3.0/">
        <cc:permits
           rdf:resource="http://creativecommons.org/ns#Reproduction" />
        <cc:permits
           rdf:resource="http://creativecommons.org/ns#Distribution" />
        <cc:requires
           rdf:resource="http://creativecommons.org/ns#Notice" />
        <cc:requires
           rdf:resource="http://creativecommons.org/ns#Attribution" />
        <cc:permits
           rdf:resource="http://creativecommons.org/ns#DerivativeWorks" />
      </cc:License>
    </rdf:RDF>
  </metadata>
  <g
     inkscape:label="Layer 1"
     inkscape:groupmode="layer"
     id="layer1"
     transform="translate(0,-52.362183)">
    <g
       transform="matrix(4.7513766,0,0,4.7513766,-484.68057,82.542513)"
       id="g4167"
       style="fill:none;fill-opacity:1">
      <path
         style="fill:none;stroke:#000000;stroke-width:1px;stroke-linecap:butt;stroke-linejoin:miter;stroke-opacity:1"
         d="m 149.23492,133.17766 0,0 z"
         id="path4185" />
      <g
         transform="translate(-5.0507585,-218.11309)"
         id="g4935"
         style="fill:#000000;fill-opacity:1">
        <g
           style="fill:#000000;fill-opacity:1"
           id="g4214">
          <path
             id="path4173"
             d="m 206.5,231.75 c -2.42742,-0.0171 -4.77163,0.82632 -7.03125,1.90625 -4.79194,1.49183 -9.79912,2.11905 -14.6875,3.25 -8.21401,1.75045 -16.49836,3.23261 -24.65625,5.21875 l -4.40625,1.3125 -0.9375,3.625 c -2.34897,-2.35809 -5.04407,-4.35968 -9.0625,-5.0625 -5.6113,-0.98141 -0.1138,11.70302 -1.0625,17.0625 0.90485,7.4104 -2.00088,14.50291 -3.09375,21.75 -3.42899,16.36295 -6.49908,32.81804 -10.28125,49.09375 -6.59442,18.91664 -13.11171,37.88164 -19.84375,56.75 4.66853,1.46036 5.98988,-4.88433 8.96875,-7.21875 4.34023,-5.18584 8.78059,-10.34787 11.59375,-16.5625 3.49497,-6.81405 7.83987,-13.29924 10.53125,-20.46875 3.66633,-12.56647 8.32185,-24.90073 10.21875,-37.90625 1.93455,-10.20114 3.92106,-20.41827 5.5,-30.6875 0.22277,0.1717 0.45842,0.361 0.65625,0.5 2.5696,1.62377 5.84649,1.75029 8.75,1.125 5.57016,-1.36124 10.71754,-4.40045 16.5625,-4.5625 4.27466,-1.65227 10.21536,3.30672 13.9375,0.96875 3.4706,0.5772 6.45791,-1.66181 8.21875,-4.15625 4.63046,-6.5596 7.68332,-13.29851 11.28125,-20.0625 0.66454,-1.99361 2.22927,-3.87985 2,-5.96875 -0.29845,-2.7192 -1.97856,-5.45237 -4.25,-7.03125 -1.97617,-1.31714 -3.974,-2.71575 -6.46875,-2.53125 -0.83514,-0.22235 -1.62836,-0.33805 -2.4375,-0.34375 z m -9.71875,13.46875 c 1.02871,-0.0851 2.62119,1.15783 2.5,2.15625 -0.57533,4.74 -3.22934,9.84446 -4.59375,14.9375 -0.0623,-0.0188 -0.12555,-0.0442 -0.1875,-0.0625 -9.83429,-0.60423 -19.87214,1.37615 -29.375,3.78125 -2.0636,0.61305 -4.08988,1.3528 -6.0625,2.21875 0.67665,-4.92291 1.25959,-9.85584 1.65625,-14.8125 -0.33661,-0.31948 -0.64751,-0.66732 -0.96875,-1 1.14377,-0.14201 2.30859,-0.37038 3.40625,-0.46875 6.04114,-0.82435 12.12423,-1.54363 18.03125,-3.09375 5.20242,-1.21389 10.58671,-3.24179 15.59375,-3.65625 z"
             style="fill:#000000;fill-opacity:1;stroke:#000000;stroke-width:1px;stroke-linecap:butt;stroke-linejoin:miter;stroke-opacity:1" />
          <path
             sodipodi:nodetypes="ccccccss"
             style="fill:#000000;fill-opacity:1;stroke:#000000;stroke-width:1px;stroke-linecap:butt;stroke-linejoin:miter;stroke-opacity:1"
             d="m 164.28571,302.00504 c -1.34384,0.52515 -2.14285,2.63372 -2.14285,3.92857 0.94881,5.47368 7.80187,4.78523 12.10711,4.20365 11.16319,-2.19282 22.40385,-5.13939 33.25003,-8.48936 3.30972,-1.13016 5.76801,-3.24011 4.64286,-6.78572 -2.77024,-3.73506 -6.79122,-5.91412 -11.42857,-5 -2.13699,0.58825 -3.7881,2.75687 -6.09147,3.3788 -10.1551,2.74196 -20.8543,5.05834 -30.33711,8.76406 z"
             id="path4179" />
          <path
             id="path4181"
             d="m 212.15625,310.21875 c -1.8662,0.70027 -2.41208,4.44482 -4.5625,5.1875 -16.15567,5.5796 -33.08331,9.60367 -49.03125,15.53125 -2.76987,1.02951 -6.68874,3.19494 -7.125,5.34375 -0.42157,2.07649 4.05673,2.78817 6.71875,2.90625 2.57878,0.11439 5.23132,1.24113 7.71875,0.625 3.06083,-0.75816 6.09997,-1.68828 9.125,-2.6875 0.065,9.40442 0.93903,19.53508 1.1875,29.25 -1.0576,10.56019 2.33394,23.54067 -2.25,33.5 -0.91625,1.24402 -4.88687,-2.85771 -6.09375,-1.8125 -2.13206,1.84646 2.32409,5.93834 4.34375,8.1875 2.18497,2.43325 4.79324,5.53196 8.5625,4.6875 8.64216,-2.79552 10.5724,-12.73896 12.15625,-20.5625 1.32607,-11.29865 0.30073,-22.80445 0.3125,-34.21875 0.007,-6.9274 -1.02581,-13.85224 -1.625,-20.75 -0.002,-1.54451 -0.57187,-2.65567 -1.46875,-3.5 4.03132,-1.34808 8.07772,-2.60192 12.1875,-3.5 7.23768,-2.21055 15.58468,-0.15021 22.6875,-2.46875 2.80084,-2.17363 3.39017,-7.57723 -0.1875,-9.75 -3.77146,-3.00122 -7.7296,-5.86043 -12.65625,-5.96875 z"
             style="fill:#000000;fill-opacity:1;stroke:#000000;stroke-width:1px;stroke-linecap:butt;stroke-linejoin:miter;stroke-opacity:1" />
          <path
             sodipodi:nodetypes="ccccscc"
             style="fill:#000000;fill-opacity:1;stroke:#000000;stroke-width:1px;stroke-linecap:butt;stroke-linejoin:miter;stroke-opacity:1"
             d="m 147.5,379.50504 c 0.17825,1.9608 0.46643,4.73916 1.78571,5.71428 3.76859,1.87135 7.65757,0.6137 9.64286,-2.85714 2.65005,-9.02058 1.30137,-18.32532 -1.42857,-27.14286 -0.47263,-1.39009 -2.18086,-3.14938 -3.21429,-3.21428 -0.85679,-0.0538 -2.20214,1.60395 -2.57549,2.78824 -2.72892,8.01841 -4.77032,16.20888 -4.21022,24.71176 z"
             id="path4187" />
          <path
             sodipodi:nodetypes="csscccc"
             style="fill:#000000;fill-opacity:1;stroke:#000000;stroke-width:1px;stroke-linecap:butt;stroke-linejoin:miter;stroke-opacity:1"
             d="m 207.85714,343.07647 c -0.848,-0.54241 -3.07743,-0.51947 -3.21428,0.35714 -0.52821,3.38362 0.16353,8.41342 1.1606,12.43342 2.17732,8.77847 4.75097,18.02695 8.07981,25.99646 5.39138,-0.46979 8.41521,-6.07906 10.0453,-10.92988 0.4953,-3.3245 -0.84836,-7.3359 -2.28475,-10.58953 -3.08572,-6.77218 -7.71721,-12.90958 -13.78668,-17.26761 z"
             id="path4189" />
          <path
             id="path4191"
             d="m 266.53125,219.15625 c -0.47384,0.006 -0.98907,0.0953 -1.5,0.28125 l -0.40625,0.0312 -0.34375,0.0312 c -1.60449,1.57834 -5.41091,1.91269 -5.34375,4.4375 -0.50033,8.70693 1.85062,17.19805 2.9375,25.78125 1.69914,10.55509 2.97566,21.1624 4.03125,31.8125 -10.61706,2.34891 -21.22773,4.74355 -31.625,7.625 -3.36375,1.46063 -6.64647,4.94701 -7.5,8.5625 -0.16396,1.9266 1.02984,4.42586 3.28125,5.375 8.7714,5.70329 24.33469,-3.95392 34.1875,-6.625 0.98271,-0.22118 1.97403,-0.42948 2.96875,-0.625 0.71683,8.99751 1.27471,18.00198 1.78125,27 0.24876,16.55368 0.85032,33.11044 0.875,49.65625 l -1.65625,18.4375 c -1.27279,2.09111 -4.08726,3.10542 -6,1.21875 L 254.65625,387 c -3.78755,0.64756 -0.47978,3.6236 0.25,5.75 3.77634,7.28379 6.25419,15.96405 10.8125,22.125 1.7166,2.32013 6.86971,4.35675 8.9375,1.78125 15.74501,-19.6109 13.68736,-46.35641 12.84375,-67.71875 -1.27373,-18.56557 -2.58664,-37.10136 -4,-55.65625 7.05374,-1.00239 14.02819,-2.08119 20.4375,-4.125 2.55286,-0.81406 3.47054,-4.40078 4.1875,-7.25 0.69148,-6.49142 -5.76516,-8.54632 -11.03125,-7.59375 -4.91051,1.25833 -9.85564,2.39881 -14.8125,3.53125 -0.8928,-11.32602 -1.813,-22.6485 -2.78125,-33.96875 -0.84041,-6.69187 -0.36139,-18.50065 -7.34375,-22.34375 -1.84525,-0.97946 -3.5717,-2.40263 -5.625,-2.375 z"
             style="fill:#000000;fill-opacity:1;stroke:#000000;stroke-width:1px;stroke-linecap:butt;stroke-linejoin:miter;stroke-opacity:1"
             sodipodi:nodetypes="ccccccccccccccccccssccscccccc" />
        </g>
        <path
           sodipodi:nodetypes="csssccc"
           style="fill:#000000;fill-opacity:1;stroke:#000000;stroke-width:1.07116139px;stroke-linecap:butt;stroke-linejoin:miter;stroke-opacity:1"
           d="m 239.24453,317.49742 c -0.90835,-0.58101 -3.29643,-0.55644 -3.44302,0.38255 -0.56579,3.6244 0.17517,9.01213 1.24319,13.3182 2.33226,9.40316 2.91227,22.90762 8.65478,27.8464 3.59825,3.09463 9.01405,-6.51165 10.76014,-11.70766 0.53055,-3.56108 -0.90873,-7.85794 -2.44734,-11.3431 -3.3053,-7.2541 -8.26637,-13.82824 -14.76775,-18.49639 z"
           id="path4189-1" />
      </g>
    </g>
  </g>
</svg>
