<?xml version="1.0" encoding="UTF-8" standalone="no"?>
<!-- Created with Inkscape (http://www.inkscape.org/) -->

<svg
   xmlns:dc="http://purl.org/dc/elements/1.1/"
   xmlns:cc="http://creativecommons.org/ns#"
   xmlns:rdf="http://www.w3.org/1999/02/22-rdf-syntax-ns#"
   xmlns:svg="http://www.w3.org/2000/svg"
   xmlns="http://www.w3.org/2000/svg"
   xmlns:sodipodi="http://sodipodi.sourceforge.net/DTD/sodipodi-0.dtd"
   xmlns:inkscape="http://www.inkscape.org/namespaces/inkscape"
   width="1000"
   height="1000"
   id="svg3173"
   version="1.1"
   inkscape:version="0.47 r22583"
   sodipodi:docname="5c22.svg"
   inkscape:export-filename="E:\chinese\yan\5c22.png"
   inkscape:export-xdpi="17.944885"
   inkscape:export-ydpi="17.944885">
  <title
     id="title2827">You</title>
  <defs
     id="defs3175">
    <inkscape:perspective
       sodipodi:type="inkscape:persp3d"
       inkscape:vp_x="0 : 526.18109 : 1"
       inkscape:vp_y="0 : 1000 : 0"
       inkscape:vp_z="744.09448 : 526.18109 : 1"
       inkscape:persp3d-origin="372.04724 : 350.78739 : 1"
       id="perspective3181" />
    <inkscape:perspective
       id="perspective3191"
       inkscape:persp3d-origin="0.5 : 0.33333333 : 1"
       inkscape:vp_z="1 : 0.5 : 1"
       inkscape:vp_y="0 : 1000 : 0"
       inkscape:vp_x="0 : 0.5 : 1"
       sodipodi:type="inkscape:persp3d" />
    <inkscape:perspective
       id="perspective4006"
       inkscape:persp3d-origin="0.5 : 0.33333333 : 1"
       inkscape:vp_z="1 : 0.5 : 1"
       inkscape:vp_y="0 : 1000 : 0"
       inkscape:vp_x="0 : 0.5 : 1"
       sodipodi:type="inkscape:persp3d" />
    <inkscape:perspective
       id="perspective4034"
       inkscape:persp3d-origin="0.5 : 0.33333333 : 1"
       inkscape:vp_z="1 : 0.5 : 1"
       inkscape:vp_y="0 : 1000 : 0"
       inkscape:vp_x="0 : 0.5 : 1"
       sodipodi:type="inkscape:persp3d" />
    <inkscape:perspective
       id="perspective4081"
       inkscape:persp3d-origin="0.5 : 0.33333333 : 1"
       inkscape:vp_z="1 : 0.5 : 1"
       inkscape:vp_y="0 : 1000 : 0"
       inkscape:vp_x="0 : 0.5 : 1"
       sodipodi:type="inkscape:persp3d" />
    <inkscape:perspective
       id="perspective4147"
       inkscape:persp3d-origin="0.5 : 0.33333333 : 1"
       inkscape:vp_z="1 : 0.5 : 1"
       inkscape:vp_y="0 : 1000 : 0"
       inkscape:vp_x="0 : 0.5 : 1"
       sodipodi:type="inkscape:persp3d" />
    <inkscape:perspective
       id="perspective3812"
       inkscape:persp3d-origin="0.5 : 0.33333333 : 1"
       inkscape:vp_z="1 : 0.5 : 1"
       inkscape:vp_y="0 : 1000 : 0"
       inkscape:vp_x="0 : 0.5 : 1"
       sodipodi:type="inkscape:persp3d" />
    <inkscape:perspective
       id="perspective3950"
       inkscape:persp3d-origin="0.5 : 0.33333333 : 1"
       inkscape:vp_z="1 : 0.5 : 1"
       inkscape:vp_y="0 : 1000 : 0"
       inkscape:vp_x="0 : 0.5 : 1"
       sodipodi:type="inkscape:persp3d" />
    <inkscape:perspective
       id="perspective3968"
       inkscape:persp3d-origin="0.5 : 0.33333333 : 1"
       inkscape:vp_z="1 : 0.5 : 1"
       inkscape:vp_y="0 : 1000 : 0"
       inkscape:vp_x="0 : 0.5 : 1"
       sodipodi:type="inkscape:persp3d" />
  </defs>
  <sodipodi:namedview
     id="base"
     pagecolor="#ffffff"
     bordercolor="#666666"
     borderopacity="1.0"
     inkscape:pageopacity="0.0"
     inkscape:pageshadow="2"
     inkscape:zoom="0.49497475"
     inkscape:cx="434.79097"
     inkscape:cy="495.75634"
     inkscape:document-units="px"
     inkscape:current-layer="g5298"
     showgrid="false"
     inkscape:window-width="1440"
     inkscape:window-height="840"
     inkscape:window-x="-4"
     inkscape:window-y="-4"
     inkscape:window-maximized="1" />
  <metadata
     id="metadata3178">
    <rdf:RDF>
      <cc:Work
         rdf:about="">
        <dc:format>image/svg+xml</dc:format>
        <dc:type
           rdf:resource="http://purl.org/dc/dcmitype/StillImage" />
        <dc:title>You</dc:title>
        <dc:date>2010-08-5</dc:date>
        <dc:creator>
          <cc:Agent>
            <dc:title>Alex Amies</dc:title>
          </cc:Agent>
        </dc:creator>
        <dc:rights>
          <cc:Agent>
            <dc:title>@ Alex Amies 2010</dc:title>
          </cc:Agent>
        </dc:rights>
        <dc:publisher>
          <cc:Agent>
            <dc:title>chinesenotes.com</dc:title>
          </cc:Agent>
        </dc:publisher>
        <dc:source>Yan Qin Ceremonial Inscription</dc:source>
        <dc:language>Chinese 中文</dc:language>
        <dc:description>Tracing from Tang Dynasty Ceremonial Inscription by Yan Zhenqing 颜真卿 (709－785)</dc:description>
        <cc:license
           rdf:resource="http://creativecommons.org/licenses/by/3.0/" />
      </cc:Work>
      <cc:License
         rdf:about="http://creativecommons.org/licenses/by/3.0/">
        <cc:permits
           rdf:resource="http://creativecommons.org/ns#Reproduction" />
        <cc:permits
           rdf:resource="http://creativecommons.org/ns#Distribution" />
        <cc:requires
           rdf:resource="http://creativecommons.org/ns#Notice" />
        <cc:requires
           rdf:resource="http://creativecommons.org/ns#Attribution" />
        <cc:permits
           rdf:resource="http://creativecommons.org/ns#DerivativeWorks" />
      </cc:License>
    </rdf:RDF>
  </metadata>
  <g
     inkscape:label="Layer 1"
     inkscape:groupmode="layer"
     id="layer1"
     transform="translate(0,-52.362183)">
    <g
       transform="matrix(4.7513766,0,0,4.7513766,-485.86894,95.963531)"
       id="g5298"
       style="fill:#000000;fill-opacity:1">
      <g
         id="g2853"
         transform="matrix(1.0577564,0,0,1.0577564,-35.734746,-7.2488249)"
         style="fill:#000000;fill-opacity:1">
        <path
           style="fill:#000000;stroke:#000000;stroke-width:5.02579879999999960px;stroke-linecap:butt;stroke-linejoin:miter;stroke-opacity:1;fill-opacity:1"
           d="M 444.59375 87.34375 C 420.21209 88.313379 398.57855 121.29744 406.3125 149.40625 C 407.52281 193.87473 409.24709 238.62252 407.59375 282.96875 C 406.00202 289.48818 404.54283 296.04347 403.15625 302.625 C 368.45016 312.07514 333.60312 321.02995 299.15625 327.875 C 289.70954 315.8728 278.01635 310.36793 263.34375 315.40625 C 238.93696 323.78713 240.99021 366.52567 223.875 388.8125 C 207.1122 420.68409 216.17178 470.92935 253.8125 482.9375 C 278.29759 493.92998 308.86432 473.00585 308.65625 446.9375 C 311.77633 420.45348 312.84417 393.35458 311.71875 366.71875 C 321.81271 363.40382 332.09991 358.39624 341.375 356.875 C 359.47274 352.20108 377.40968 346.97378 395.34375 341.78125 C 390.73468 365.02915 385.70999 388.17288 377.78125 410.4375 C 334.92093 538.76424 257.05896 649.1517 182.5625 760.53125 C 232.70897 775.05264 315.66374 674.01723 348.5 639.6875 C 396.32194 573.87491 421.57104 494.95221 449.3125 419.28125 C 467.1349 392.80506 469.92073 355.07753 475.34375 321.125 C 494.75088 317.23718 514.37506 314.46331 534.375 313.59375 C 557.61676 324.19339 562.4032 350.11229 541.0625 366.125 C 531.9934 383.46463 506.43561 406.07563 509.6875 421.375 C 529.10503 432.49423 549.36727 411.4444 569.4375 408.8125 C 612.91936 415.34495 704.52452 408.2082 705.40625 348.4375 C 659.78456 270.08396 662.33936 244.88863 618.75 250.78125 C 576.14656 256.5406 531.28696 267.5821 485.46875 279.96875 C 487.59676 274.64974 490.11189 269.69512 493.125 265.25 C 506.28289 249.65549 519.43586 234.06326 532.59375 218.46875 C 541.53419 188.89832 535.69533 160.73625 515.46875 137.46875 C 498.39078 113.47513 474.60249 89.870665 448.21875 87.4375 C 447.00963 87.325993 445.79285 87.296063 444.59375 87.34375 z "
           transform="matrix(0.19897334,0,0,0.19897334,130.4585,-1.8224865)"
           id="path5269" />
        <g
           id="g2848"
           style="fill:#000000;fill-opacity:1">
          <path
             id="path5275"
             d="m 226.78571,92.362187 c -9.54338,18.938853 -16.6885,37.380743 -15.43174,59.626853 2.95325,23.2797 40.78386,23.51509 59.30273,24.55202 12.0748,-0.20314 21.49114,-7.09984 23.62904,-19.1787 -1.81174,-2.58525 -4.45166,-3.78738 -6.94097,-4.98493 -0.30412,-6.5341 -1.56063,-13.0753 -1.27331,-19.65793 -3.12252,-0.5566 -3.01988,2.70761 -3.67117,4.76628 -1.63342,6.14934 -3.26684,12.29867 -4.90026,18.44801 -16.56458,9.71469 -37.58856,3.48799 -51.90738,-7.19892 -7.61356,-13.99805 1.60152,-27.51825 10.51795,-38.17302 5.19586,-6.71853 2.41002,-13.123716 -3.62406,-18.251168 0,0 -0.10408,-0.132462 -0.1794,-0.159463 -1.73378,-0.621545 -4.74769,-1.32451 -5.52143,0.210968 z"
             style="fill:#000000;fill-opacity:1;stroke:#000000;stroke-width:1px;stroke-linecap:butt;stroke-linejoin:miter;stroke-opacity:1"
             sodipodi:nodetypes="cccccccccccss" />
        </g>
      </g>
    </g>
  </g>
</svg>
