<?xml version="1.0" encoding="UTF-8" standalone="no"?>
<!-- Created with Inkscape (http://www.inkscape.org/) -->

<svg
   xmlns:dc="http://purl.org/dc/elements/1.1/"
   xmlns:cc="http://creativecommons.org/ns#"
   xmlns:rdf="http://www.w3.org/1999/02/22-rdf-syntax-ns#"
   xmlns:svg="http://www.w3.org/2000/svg"
   xmlns="http://www.w3.org/2000/svg"
   xmlns:sodipodi="http://sodipodi.sourceforge.net/DTD/sodipodi-0.dtd"
   xmlns:inkscape="http://www.inkscape.org/namespaces/inkscape"
   width="1000"
   height="1000"
   id="svg3173"
   version="1.1"
   inkscape:version="0.47 r22583"
   sodipodi:docname="5c39.svg"
   inkscape:export-filename="E:\chinese\yan\5c39.png"
   inkscape:export-xdpi="18.005705"
   inkscape:export-ydpi="18.005705">
  <title
     id="title3748">Yin</title>
  <defs
     id="defs3175">
    <inkscape:perspective
       sodipodi:type="inkscape:persp3d"
       inkscape:vp_x="0 : 526.18109 : 1"
       inkscape:vp_y="0 : 1000 : 0"
       inkscape:vp_z="744.09448 : 526.18109 : 1"
       inkscape:persp3d-origin="372.04724 : 350.78739 : 1"
       id="perspective3181" />
    <inkscape:perspective
       id="perspective3191"
       inkscape:persp3d-origin="0.5 : 0.33333333 : 1"
       inkscape:vp_z="1 : 0.5 : 1"
       inkscape:vp_y="0 : 1000 : 0"
       inkscape:vp_x="0 : 0.5 : 1"
       sodipodi:type="inkscape:persp3d" />
    <inkscape:perspective
       id="perspective4006"
       inkscape:persp3d-origin="0.5 : 0.33333333 : 1"
       inkscape:vp_z="1 : 0.5 : 1"
       inkscape:vp_y="0 : 1000 : 0"
       inkscape:vp_x="0 : 0.5 : 1"
       sodipodi:type="inkscape:persp3d" />
    <inkscape:perspective
       id="perspective4034"
       inkscape:persp3d-origin="0.5 : 0.33333333 : 1"
       inkscape:vp_z="1 : 0.5 : 1"
       inkscape:vp_y="0 : 1000 : 0"
       inkscape:vp_x="0 : 0.5 : 1"
       sodipodi:type="inkscape:persp3d" />
    <inkscape:perspective
       id="perspective4081"
       inkscape:persp3d-origin="0.5 : 0.33333333 : 1"
       inkscape:vp_z="1 : 0.5 : 1"
       inkscape:vp_y="0 : 1000 : 0"
       inkscape:vp_x="0 : 0.5 : 1"
       sodipodi:type="inkscape:persp3d" />
    <inkscape:perspective
       id="perspective4147"
       inkscape:persp3d-origin="0.5 : 0.33333333 : 1"
       inkscape:vp_z="1 : 0.5 : 1"
       inkscape:vp_y="0 : 1000 : 0"
       inkscape:vp_x="0 : 0.5 : 1"
       sodipodi:type="inkscape:persp3d" />
    <inkscape:perspective
       id="perspective3765"
       inkscape:persp3d-origin="0.5 : 0.33333333 : 1"
       inkscape:vp_z="1 : 0.5 : 1"
       inkscape:vp_y="0 : 1000 : 0"
       inkscape:vp_x="0 : 0.5 : 1"
       sodipodi:type="inkscape:persp3d" />
    <inkscape:perspective
       id="perspective3793"
       inkscape:persp3d-origin="0.5 : 0.33333333 : 1"
       inkscape:vp_z="1 : 0.5 : 1"
       inkscape:vp_y="0 : 1000 : 0"
       inkscape:vp_x="0 : 0.5 : 1"
       sodipodi:type="inkscape:persp3d" />
    <inkscape:perspective
       id="perspective3780"
       inkscape:persp3d-origin="0.5 : 0.33333333 : 1"
       inkscape:vp_z="1 : 0.5 : 1"
       inkscape:vp_y="0 : 1000 : 0"
       inkscape:vp_x="0 : 0.5 : 1"
       sodipodi:type="inkscape:persp3d" />
    <inkscape:perspective
       id="perspective4273"
       inkscape:persp3d-origin="0.5 : 0.33333333 : 1"
       inkscape:vp_z="1 : 0.5 : 1"
       inkscape:vp_y="0 : 1000 : 0"
       inkscape:vp_x="0 : 0.5 : 1"
       sodipodi:type="inkscape:persp3d" />
  </defs>
  <sodipodi:namedview
     id="base"
     pagecolor="#ffffff"
     bordercolor="#666666"
     borderopacity="1.0"
     inkscape:pageopacity="0.0"
     inkscape:pageshadow="2"
     inkscape:zoom="0.49497475"
     inkscape:cx="660.35745"
     inkscape:cy="519.16317"
     inkscape:document-units="px"
     inkscape:current-layer="g3743"
     showgrid="false"
     inkscape:window-width="1440"
     inkscape:window-height="840"
     inkscape:window-x="-4"
     inkscape:window-y="-4"
     inkscape:window-maximized="1" />
  <metadata
     id="metadata3178">
    <rdf:RDF>
      <cc:Work
         rdf:about="">
        <dc:format>image/svg+xml</dc:format>
        <dc:type
           rdf:resource="http://purl.org/dc/dcmitype/StillImage" />
        <dc:title>Yin</dc:title>
        <dc:date>2010-08-05</dc:date>
        <dc:creator>
          <cc:Agent>
            <dc:title>Alex Amies</dc:title>
          </cc:Agent>
        </dc:creator>
        <dc:rights>
          <cc:Agent>
            <dc:title>@ Alex Amies 2010</dc:title>
          </cc:Agent>
        </dc:rights>
        <dc:publisher>
          <cc:Agent>
            <dc:title>chinesenotes.com</dc:title>
          </cc:Agent>
        </dc:publisher>
        <dc:source>Yan Qin Ceremonial Inscription</dc:source>
        <dc:language>Chinese 中文</dc:language>
        <dc:description>Tracing from Tang Dynasty Ceremonial Inscription by Yan Zhenqing 颜真卿 (709－785)</dc:description>
        <cc:license
           rdf:resource="http://creativecommons.org/licenses/by/3.0/" />
      </cc:Work>
      <cc:License
         rdf:about="http://creativecommons.org/licenses/by/3.0/">
        <cc:permits
           rdf:resource="http://creativecommons.org/ns#Reproduction" />
        <cc:permits
           rdf:resource="http://creativecommons.org/ns#Distribution" />
        <cc:requires
           rdf:resource="http://creativecommons.org/ns#Notice" />
        <cc:requires
           rdf:resource="http://creativecommons.org/ns#Attribution" />
        <cc:permits
           rdf:resource="http://creativecommons.org/ns#DerivativeWorks" />
      </cc:License>
    </rdf:RDF>
  </metadata>
  <g
     inkscape:label="Layer 1"
     inkscape:groupmode="layer"
     id="layer1"
     transform="translate(0,-52.362183)">
    <g
       transform="matrix(4.7609464,0,0,4.7609464,-2504.5543,-3925.2914)"
       id="g3743"
       style="fill:none;fill-opacity:1">
      <path
         style="fill:#000000;fill-opacity:1;stroke:#000000;stroke-width:0.99798989px;stroke-linecap:butt;stroke-linejoin:miter;stroke-opacity:1"
         d="m 665.95027,838.34392 c -9.06339,1.93429 -18.24063,3.24139 -27.47588,3.99164 -11.1233,1.2268 -22.40915,2.0944 -33.21435,4.80316 -5.78552,1.45012 -11.19463,4.32138 -16.77873,6.48658 -1.18067,4.27767 3.74713,5.61565 5.80081,8.45175 1.77992,3.78922 4.19119,7.62358 9.10668,5.23982 4.80174,-1.78224 9.57635,-3.65238 14.34607,-5.55151 -2.43774,7.45681 -3.7399,15.71328 -4.86517,24.2325 -22.90549,4.17931 -45.7836,8.52967 -68.58061,13.25444 -1.90093,1.06953 -3.80647,2.14287 -5.70726,3.2124 -4.13013,5.43225 3.40721,10.16605 6.70524,13.75334 5.0862,6.40533 12.08997,3.61342 18.74347,1.96517 5.85046,-2.66315 10.19664,-8.21703 16.21735,-10.97806 10.2032,-4.49338 20.63199,-8.03933 31.24956,-10.88445 -1.08839,8.43226 -2.31035,16.94341 -4.58451,25.04355 -0.59672,2.13765 -1.15391,4.27482 -1.71529,6.42434 -1.09253,0.26608 -2.17927,0.52503 -3.27465,0.7797 -12.57209,3.00715 -24.47786,8.16049 -36.64494,12.44386 -5.47487,2.04974 -10.92223,4.17028 -16.34208,6.36209 -2.95535,3.82486 1.82757,9.10411 5.73843,9.94843 4.2855,1.81645 8.41972,4.45252 13.22337,4.30427 5.1865,1.55465 9.24223,-2.46074 12.8491,-5.61375 2.97455,-4.47485 6.52558,-8.50354 11.69522,-10.4478 3.04763,-1.78604 6.19019,-3.37538 9.41852,-4.80269 -2.71713,10.59557 -5.62706,21.14457 -9.94872,31.21797 -7.90387,27.65396 -27.46082,48.12193 -43.63085,70.88863 23.51433,-3.019 49.48241,-35.537 62.59264,-54.48403 5.4494,-13.15799 12.94194,-25.58901 15.74953,-39.70108 1.30768,-5.23934 2.31535,-10.54093 3.14993,-15.87435 11.67152,-1.74328 23.61063,-1.79697 35.11676,-0.43712 5.49801,0.19955 10.12604,5.02173 15.68714,3.52409 5.79264,-0.65711 3.1084,-8.90788 1.84007,-12.53745 -1.87917,-6.24806 -8.75422,-9.05043 -14.81394,-8.07734 -1.42199,0.13303 -2.82536,0.31834 -4.24146,0.49889 7.01821,-8.89458 12.05786,-19.32717 16.31091,-29.97073 7.87046,-0.58395 15.77552,-1.032 23.6399,-1.43444 5.6597,1.79031 12.25532,1.89389 16.52919,6.58018 6.78301,4.51903 11.78179,-7.34848 7.64087,-12.3189 -4.71151,-5.98055 -10.69924,-12.68427 -18.0262,-14.7516 -7.3403,1.43349 -13.41978,6.8762 -20.80185,8.73256 -1.46419,0.25182 -2.93289,0.49462 -4.3974,0.74834 1.01636,-7.01446 0.29268,-16.40175 -4.33502,-22.01788 -4.01809,-4.94428 -8.62831,-9.52556 -13.97185,-13.00499 z m -8.10865,9.73035 c 1.00093,1.118 4.07088,1.47958 3.46176,3.18105 -2.93607,9.20294 -5.89475,18.41491 -8.7948,27.63163 -6.15878,1.08046 -12.30378,2.20939 -18.4628,3.306 0.32309,-5.61802 0.67987,-11.23368 1.15392,-16.80989 -2.02808,-5.0911 -8.46634,-4.60456 -13.62881,-5.14574 11.88006,-4.71812 23.78763,-9.30842 36.27073,-12.16305 z m -8.48292,40.82383 c -2.37797,7.72716 -4.67288,15.48521 -6.86118,23.26559 0.01,2.5857 1.37786,5.08254 3.46176,6.45569 -2.33083,0.39437 -4.64604,0.76592 -6.9859,1.09187 -2.57216,0.44663 -5.12531,0.96405 -7.67205,1.52804 1.07481,-9.87431 1.66522,-19.85363 2.21429,-29.81489 5.25778,-0.95787 10.53613,-1.8098 15.84308,-2.5263 z"
         id="path3828" />
    </g>
  </g>
</svg>
