<?xml version="1.0" encoding="UTF-8" standalone="no"?>
<!-- Created with Inkscape (http://www.inkscape.org/) -->

<svg
   xmlns:dc="http://purl.org/dc/elements/1.1/"
   xmlns:cc="http://creativecommons.org/ns#"
   xmlns:rdf="http://www.w3.org/1999/02/22-rdf-syntax-ns#"
   xmlns:svg="http://www.w3.org/2000/svg"
   xmlns="http://www.w3.org/2000/svg"
   xmlns:sodipodi="http://sodipodi.sourceforge.net/DTD/sodipodi-0.dtd"
   xmlns:inkscape="http://www.inkscape.org/namespaces/inkscape"
   width="1000"
   height="1000"
   id="svg3173"
   version="1.1"
   inkscape:version="0.47 r22583"
   sodipodi:docname="5c6c.svg"
   inkscape:export-filename="E:\chinese\yan\5c6c.png"
   inkscape:export-xdpi="18.005705"
   inkscape:export-ydpi="18.005705">
  <title
     id="title3636">Shu</title>
  <defs
     id="defs3175">
    <inkscape:perspective
       sodipodi:type="inkscape:persp3d"
       inkscape:vp_x="0 : 526.18109 : 1"
       inkscape:vp_y="0 : 1000 : 0"
       inkscape:vp_z="744.09448 : 526.18109 : 1"
       inkscape:persp3d-origin="372.04724 : 350.78739 : 1"
       id="perspective3181" />
    <inkscape:perspective
       id="perspective3191"
       inkscape:persp3d-origin="0.5 : 0.33333333 : 1"
       inkscape:vp_z="1 : 0.5 : 1"
       inkscape:vp_y="0 : 1000 : 0"
       inkscape:vp_x="0 : 0.5 : 1"
       sodipodi:type="inkscape:persp3d" />
    <inkscape:perspective
       id="perspective4006"
       inkscape:persp3d-origin="0.5 : 0.33333333 : 1"
       inkscape:vp_z="1 : 0.5 : 1"
       inkscape:vp_y="0 : 1000 : 0"
       inkscape:vp_x="0 : 0.5 : 1"
       sodipodi:type="inkscape:persp3d" />
    <inkscape:perspective
       id="perspective4034"
       inkscape:persp3d-origin="0.5 : 0.33333333 : 1"
       inkscape:vp_z="1 : 0.5 : 1"
       inkscape:vp_y="0 : 1000 : 0"
       inkscape:vp_x="0 : 0.5 : 1"
       sodipodi:type="inkscape:persp3d" />
    <inkscape:perspective
       id="perspective4081"
       inkscape:persp3d-origin="0.5 : 0.33333333 : 1"
       inkscape:vp_z="1 : 0.5 : 1"
       inkscape:vp_y="0 : 1000 : 0"
       inkscape:vp_x="0 : 0.5 : 1"
       sodipodi:type="inkscape:persp3d" />
    <inkscape:perspective
       id="perspective4147"
       inkscape:persp3d-origin="0.5 : 0.33333333 : 1"
       inkscape:vp_z="1 : 0.5 : 1"
       inkscape:vp_y="0 : 1000 : 0"
       inkscape:vp_x="0 : 0.5 : 1"
       sodipodi:type="inkscape:persp3d" />
    <inkscape:perspective
       id="perspective3858"
       inkscape:persp3d-origin="0.5 : 0.33333333 : 1"
       inkscape:vp_z="1 : 0.5 : 1"
       inkscape:vp_y="0 : 1000 : 0"
       inkscape:vp_x="0 : 0.5 : 1"
       sodipodi:type="inkscape:persp3d" />
    <inkscape:perspective
       id="perspective3876"
       inkscape:persp3d-origin="0.5 : 0.33333333 : 1"
       inkscape:vp_z="1 : 0.5 : 1"
       inkscape:vp_y="0 : 1000 : 0"
       inkscape:vp_x="0 : 0.5 : 1"
       sodipodi:type="inkscape:persp3d" />
    <inkscape:perspective
       id="perspective3901"
       inkscape:persp3d-origin="0.5 : 0.33333333 : 1"
       inkscape:vp_z="1 : 0.5 : 1"
       inkscape:vp_y="0 : 1000 : 0"
       inkscape:vp_x="0 : 0.5 : 1"
       sodipodi:type="inkscape:persp3d" />
    <inkscape:perspective
       id="perspective4392"
       inkscape:persp3d-origin="0.5 : 0.33333333 : 1"
       inkscape:vp_z="1 : 0.5 : 1"
       inkscape:vp_y="0 : 1000 : 0"
       inkscape:vp_x="0 : 0.5 : 1"
       sodipodi:type="inkscape:persp3d" />
    <inkscape:perspective
       id="perspective3806"
       inkscape:persp3d-origin="0.5 : 0.33333333 : 1"
       inkscape:vp_z="1 : 0.5 : 1"
       inkscape:vp_y="0 : 1000 : 0"
       inkscape:vp_x="0 : 0.5 : 1"
       sodipodi:type="inkscape:persp3d" />
    <inkscape:perspective
       id="perspective3936"
       inkscape:persp3d-origin="0.5 : 0.33333333 : 1"
       inkscape:vp_z="1 : 0.5 : 1"
       inkscape:vp_y="0 : 1000 : 0"
       inkscape:vp_x="0 : 0.5 : 1"
       sodipodi:type="inkscape:persp3d" />
    <inkscape:perspective
       id="perspective3974"
       inkscape:persp3d-origin="0.5 : 0.33333333 : 1"
       inkscape:vp_z="1 : 0.5 : 1"
       inkscape:vp_y="0 : 1000 : 0"
       inkscape:vp_x="0 : 0.5 : 1"
       sodipodi:type="inkscape:persp3d" />
  </defs>
  <sodipodi:namedview
     id="base"
     pagecolor="#ffffff"
     bordercolor="#666666"
     borderopacity="1.0"
     inkscape:pageopacity="0.0"
     inkscape:pageshadow="2"
     inkscape:zoom="0.49497475"
     inkscape:cx="348.96372"
     inkscape:cy="552.46846"
     inkscape:document-units="px"
     inkscape:current-layer="g4371"
     showgrid="false"
     inkscape:window-width="1440"
     inkscape:window-height="840"
     inkscape:window-x="-4"
     inkscape:window-y="-4"
     inkscape:window-maximized="1" />
  <metadata
     id="metadata3178">
    <rdf:RDF>
      <cc:Work
         rdf:about="">
        <dc:format>image/svg+xml</dc:format>
        <dc:type
           rdf:resource="http://purl.org/dc/dcmitype/StillImage" />
        <dc:title>Shu</dc:title>
        <dc:date>2010-08-13</dc:date>
        <dc:creator>
          <cc:Agent>
            <dc:title>Alex Amies</dc:title>
          </cc:Agent>
        </dc:creator>
        <dc:rights>
          <cc:Agent>
            <dc:title>@ Alex Amies 2010</dc:title>
          </cc:Agent>
        </dc:rights>
        <dc:publisher>
          <cc:Agent>
            <dc:title>chinesenotes.com</dc:title>
          </cc:Agent>
        </dc:publisher>
        <dc:source>Yan Qin Ceremonial Inscription</dc:source>
        <dc:language>Chinese 中文</dc:language>
        <dc:description>Tracing from Tang Dynasty Ceremonial Inscription by Yan Zhenqing 颜真卿 (709－785)</dc:description>
        <cc:license
           rdf:resource="http://creativecommons.org/licenses/by/3.0/" />
      </cc:Work>
      <cc:License
         rdf:about="http://creativecommons.org/licenses/by/3.0/">
        <cc:permits
           rdf:resource="http://creativecommons.org/ns#Reproduction" />
        <cc:permits
           rdf:resource="http://creativecommons.org/ns#Distribution" />
        <cc:requires
           rdf:resource="http://creativecommons.org/ns#Notice" />
        <cc:requires
           rdf:resource="http://creativecommons.org/ns#Attribution" />
        <cc:permits
           rdf:resource="http://creativecommons.org/ns#DerivativeWorks" />
      </cc:License>
    </rdf:RDF>
  </metadata>
  <g
     inkscape:label="Layer 1"
     inkscape:groupmode="layer"
     id="layer1"
     transform="translate(0,-52.362183)">
    <g
       transform="matrix(4.7488612,0,0,4.7488612,-1416.4781,-3986.1517)"
       id="g4371"
       style="fill:#000000;fill-opacity:1">
      <path
         style="fill:#000000;fill-opacity:1;stroke:#000000;stroke-width:1.00254488px;stroke-linecap:butt;stroke-linejoin:miter;stroke-opacity:1"
         d="m 442.70576,857.66658 c -3.20364,-0.19043 -5.06469,3.39027 -8.36498,3.85351 -3.41717,1.25023 -7.17042,0.7289 -10.74603,1.09645 -10.24294,0.44277 -20.51168,0.78651 -30.67159,2.25574 -6.22122,0.80221 -12.59023,1.16786 -18.51575,3.3836 -0.44705,2.52521 -0.0429,5.58649 1.62915,7.61323 -0.0509,0.10474 -0.10855,0.20472 -0.15663,0.31422 -2.36158,3.61737 -3.2265,7.96602 -4.54276,12.03044 -2.35752,10.47694 -4.34174,21.07433 -6.92384,31.48604 -4.51947,12.05662 -8.60408,24.27511 -13.40902,36.217 -6.36595,14.38234 -12.19778,29.03177 -19.42432,43.01562 -4.09885,8.91397 -9.19796,17.29847 -14.09826,25.78437 1.41438,2.7618 3.09171,0.9084 4.73071,-0.5642 5.912,-4.3187 10.88115,-9.6638 16.04073,-14.8189 3.88293,-7 8.41235,-13.67394 11.15332,-21.24147 4.70629,-11.9533 10.72646,-23.34625 16.16603,-34.96343 4.25267,-12.8179 8.50129,-25.61152 11.99921,-38.66079 1.81511,-7.03668 2.51197,-14.38235 4.48014,-21.36666 1.19676,-3.6345 3.02373,-7.1338 3.82219,-10.84019 0.14949,-1.76679 0.0509,-3.49501 -0.50128,-5.1066 0.92938,-0.11426 1.86872,-0.22852 2.78834,-0.31422 6.25155,-0.97028 12.53062,-1.9596 18.67238,-3.47739 5.84045,-1.73013 11.78425,-3.09081 17.85784,-3.63451 3.16074,-0.36659 6.34386,-0.48514 9.52418,-0.40944 1.64067,3.07605 -1.91624,5.74503 -2.53768,8.64683 -0.94019,2.26383 -2.44151,4.98043 -2.50636,7.55039 -4.74123,0.51037 -9.36525,1.74155 -14.03565,2.69469 -5.41843,1.10549 -10.841,2.1729 -16.10337,3.91588 -1.8482,0.61226 -3.73292,1.30974 -5.73328,1.09692 -1.98541,-0.20948 -4.17701,-0.73795 -5.98394,-0.28089 -1.1461,0.29041 -2.95397,1.43733 -2.88232,2.50616 0.17187,2.56282 3.72972,4.04823 6.5792,4.85616 2.98125,0.84507 5.86805,-0.41896 8.74091,-1.00265 1.89399,-0.38564 3.78585,-0.8346 5.67066,-1.28451 -0.42182,1.34402 -0.68581,2.83324 -1.03388,4.04157 -0.5059,2.38857 -0.739,4.79427 -0.81455,7.20569 -1.47837,0.35708 -2.9606,0.67273 -4.44882,0.87745 -2.11272,0.29041 -4.51457,-1.18881 -6.45385,-0.72081 -1.52188,0.36659 -3.21706,1.89866 -3.91621,3.22697 -0.49438,0.93933 -0.33374,2.66708 0.34469,3.57166 1.66957,2.22622 5.17701,1.48589 7.89503,1.2845 2.29987,-0.17139 4.5,-0.77508 6.70451,-1.44113 0.1533,2.97702 0.35898,5.95737 0.46991,8.92867 -7.48035,1.58921 -14.96861,3.15937 -22.33798,5.20086 -2.31754,0.64225 -5.78922,-0.89029 -7.04911,0.72081 -1.53007,1.9558 0.36421,6.19399 3.66555,6.98621 3.43459,0.82412 5.74632,-3.10461 9.49285,-3.50881 5.53732,-0.5975 11.02678,-1.99532 16.4793,-3.60309 0.18282,3.84161 0.29566,7.68607 0.3447,11.52958 -2.27921,0.22377 -4.65083,0.0667 -6.70451,0.75176 -1.30741,0.43801 -2.21656,1.86391 -3.22697,2.88228 -0.8185,0.82507 -1.53131,1.67775 -1.81711,2.75706 -0.34279,-0.57369 -0.698,-1.14501 -1.06522,-1.69204 -0.82497,-1.22785 -2.2792,-2.26859 -3.75952,-2.63138 -1.62953,-0.39992 -3.27287,-0.84459 -4.95006,-0.93981 -0.67081,-0.0476 -1.65957,-0.40944 -2.00512,0 -0.5655,0.66654 -1.07911,2.21099 -0.72057,3.22697 2.54325,7.20331 5.69443,14.7118 9.30489,21.46044 0.3666,0.68558 0.9451,1.30308 1.62915,1.78584 -0.42801,0.2428 -0.85673,0.4799 -1.28455,0.7208 l -1.06517,3.22697 c 0.94734,2.57948 3.90798,3.31695 6.32854,2.41237 3.26296,-0.25709 6.10606,-1.83391 9.11688,-2.94512 -0.0286,3.08652 -0.0428,6.18733 -0.0333,9.27337 -7.8409,2.03721 -15.61162,4.27343 -23.30916,6.79864 -0.32565,-1.64253 -0.63616,-3.27982 -0.97119,-4.91901 -0.73371,-3.58928 -2.48355,-6.93766 -3.60289,-10.43267 -0.61488,-1.91961 -2.30901,-3.15936 -3.38361,-4.79332 -0.89139,-1.35496 -3.14722,-0.96457 -4.29213,-0.40944 -0.89316,0.43325 -1.68676,1.09407 -2.41237,1.78583 -1.03518,0.98695 -3.00735,2.12719 -2.851,3.22697 0.23233,1.63396 2.40828,3.47073 3.07028,5.54555 1.42324,4.46006 3.07448,8.86298 4.35484,13.37731 -4.18511,1.39972 -8.4573,2.81562 -12.84513,2.60043 -1.97246,-0.44753 -4.04361,-1.03027 -6.04659,-0.37612 -4.18101,5.35941 2.11781,14.75371 8.45897,10.30741 3.87241,-2.3209 7.98958,-4.062 12.24986,-5.45124 0.92796,3.65734 1.81616,7.33374 2.28702,11.09064 0.77184,6.1578 1.16762,12.6408 2.78834,18.422 0.33136,1.1812 1.71932,2.3519 2.851,2.5062 1.83673,0.2523 4.09165,-0.5933 5.92128,-1.723 1.58897,-0.9817 2.23827,-2.7362 2.50636,-4.3863 0.9081,0.5689 1.89847,0.9665 3.07028,1.065 3.06591,0.9303 6.33087,1.0489 8.89759,3.1018 2.38828,0.8455 5.7408,1.7863 7.76973,-0.2523 8.966,-8.496 17.32665,-17.6289 26.50476,-25.9096 1.67161,-1.0979 3.44111,-2.1348 4.95009,-3.446 0.80594,2.042 1.65567,4.0768 2.7883,5.9212 1.46994,2.3934 3.15103,5.1699 5.26337,6.642 1.07069,0.7456 3.38589,0.7461 4.29213,0 1.12273,-0.9246 1.85587,-3.3293 1.78579,-5.0128 -0.10141,-2.4309 -1.15163,-5.0699 -2.25569,-7.3628 -1.41767,-2.9432 -2.9814,-5.92736 -4.98143,-8.49018 -1.36482,-1.74869 -3.06062,-3.50929 -4.91872,-4.54242 -1.09459,-0.60892 -3.47273,-1.16072 -3.94754,-0.37611 -0.80379,1.32783 -0.10331,4.49195 0.28185,6.70436 0.0776,0.44277 0.12188,0.88982 0.15663,1.34687 -6.77582,3.10367 -13.48362,6.38248 -20.30153,9.39908 0.3704,-3.2403 0.25709,-6.59773 0.65792,-9.80614 0.16377,-2.66232 0.31565,-5.32607 0.4699,-7.98886 11.01683,-3.03511 21.99853,-6.16638 32.896,-9.61854 7.95602,-4.92854 9.20358,6.87242 8.80361,12.46939 0.24757,13.10785 1.50955,27.08885 -5.01271,39.03645 -3.12803,6.5882 -9.72099,2.5142 -14.5056,1.7234 -2.95474,3.5822 3.76967,8.4526 2.75702,13.2521 0.65482,7.1043 9.27513,10.3075 15.13214,7.1434 6.27412,-3.4946 12.513,-7.0967 18.76641,-10.6522 3.49606,-11.1316 1.49932,-23.1982 5.20067,-34.3059 1.99089,-7.43187 3.19978,-15.13365 2.0991,-22.80782 -0.01,-9.55951 -6.98578,-18.42201 -16.32267,-20.52064 -8.45939,-1.74964 -13.73118,7.05716 -21.33541,8.86584 -9.06113,3.37789 -18.67153,4.92425 -28.00861,7.39423 0.16473,-2.95608 0.33851,-5.91072 0.50129,-8.86632 3.53581,-0.72271 7.05191,-1.4697 10.55801,-2.31858 3.27482,-1.0236 6.61181,-1.77297 10.02546,-2.13052 2.02993,-0.34279 4.12374,-0.70652 6.07792,-1.2845 0.95738,-0.96505 1.69804,-2.11529 2.56905,-3.16413 -0.20805,-0.19044 -0.40277,-0.40944 -0.59526,-0.62654 0.16997,-0.42372 0.3147,-0.83983 0.43849,-1.2845 0.55836,-2.00246 0.22852,-4.18249 1.6918,-5.92119 1.58306,-1.88153 3.49525,-3.85922 4.19815,-6.14067 0.90477,-2.93655 0.43801,-6.35777 1.40986,-9.43048 0.60064,-1.89867 1.35549,-5.24847 -0.90858,-6.32825 -2.26678,-1.08121 -4.25295,-2.9037 -6.89247,-3.07034 -3.75048,-0.23804 -7.97249,-1.69918 -11.27863,-0.40944 -2.49397,0.97457 -4.28452,3.70069 -6.82986,5.0128 -2.79577,1.44114 -5.49975,3.05415 -8.49029,4.07252 0.27327,-4.01491 0.5606,-8.01791 0.8772,-12.03044 5.17458,-1.67157 10.36896,-3.30076 15.63347,-4.32342 4.76009,-0.92457 10.15748,0.86935 14.69352,-0.34278 1.17281,-0.31423 2.30211,-1.67538 2.50635,-2.85086 0.49233,-2.83371 -2.58629,-3.95777 -5.16934,-4.60574 -2.28144,-0.57226 -4.7886,-0.71319 -7.04915,-0.0952 -2.74364,0.75223 -5.37887,1.86153 -7.67574,3.60309 -3.07291,2.33 -7.03149,2.74373 -10.65205,3.72829 -0.64411,0.17616 -1.29669,0.33327 -1.94242,0.50133 0.003,-0.0476 -0.003,-0.0619 0,-0.0952 0.26567,-3.37027 0.29852,-6.7434 0.28185,-10.11939 1.61035,-0.43324 3.23288,-0.87173 4.85607,-1.25356 3.94954,-0.92838 8.08885,-1.32068 11.90523,-2.59995 1.29759,-0.43324 2.88789,-0.90886 3.60289,-1.97389 1.17833,-1.75536 -1.23637,-2.81038 -2.78834,-3.69687 -1.65781,-0.94743 -3.63089,-0.73985 -5.42001,-0.56417 -2.75978,0.27137 -5.37168,1.72013 -8.05171,2.53806 -1.38163,0.41896 -2.7404,0.81745 -4.1355,1.19023 0.001,-0.4142 -0.004,-0.83697 0,-1.25308 -3.35809,-2.40856 -6.61562,-5.0347 -10.43271,-6.64199 4.49557,-1.08931 9.0259,-2.09101 13.59702,-2.6628 6.387,-0.79936 12.90764,-0.67606 19.29898,-1.41019 1.8103,-0.20949 1.86281,-0.7389 1.50384,-2.22432 -0.27947,-1.15691 -0.54613,-2.01531 -1.62915,-2.69422 -0.86469,-0.54179 -1.81806,-0.89506 -2.78835,-1.15929 0.25424,-1.85486 0.19616,-3.86113 0.50128,-5.45128 0.41563,-3.50025 3.14023,-6.45204 6.70451,-6.79863 1.69219,-0.17616 3.40932,-0.1952 5.10674,-0.31423 3.47568,-2.05292 2.88927,-6.87099 -0.28185,-8.86583 -3.25311,-3.01987 -7.32143,-5.28513 -11.62323,-6.39157 -0.5209,-0.19996 -0.98352,-0.31898 -1.44119,-0.34279 z m -10.652,82.74144 c 1.98646,-0.0666 4.25857,0.40468 3.66555,2.85086 -1.2259,5.05708 -1.65886,10.30221 -2.88233,15.38262 -0.019,0.0714 -0.019,0.14758 -0.0333,0.219 -2.69808,1.05979 -5.41544,2.04721 -8.20835,2.81991 -1.14329,0.26661 -2.30044,0.5237 -3.44626,0.78317 0.36707,-6.5801 0.77042,-13.16068 1.19052,-19.73745 2.60396,-0.88601 5.23219,-1.63824 7.92641,-2.13053 0.48071,-0.0905 1.12358,-0.16663 1.78578,-0.19043 z m -27.2567,8.61541 c -0.005,5.95166 -0.0771,11.90475 -0.15664,17.85784 -1.69708,0.63891 -3.50301,0.60654 -5.29469,0.56417 -0.11569,-1.13692 -0.34851,-2.32096 -0.50128,-3.38361 -0.20758,-1.44161 0.0333,-2.99892 -0.53261,-4.32341 -1.1781,-2.74659 -2.37824,-5.58697 -3.75953,-8.27119 0.68248,-0.0476 1.4161,-0.2571 1.94242,-0.34279 2.80872,-0.45705 5.57459,-1.22595 8.30233,-2.0991 z m -0.18806,41.91918 c 0.10331,6.3611 0.19996,12.72549 0.53256,19.07949 -2.10648,0.8117 -4.22748,1.574 -6.39119,2.1929 l -7.8637,0.3428 -2.13043,2.1305 -1.2845,1.0341 c -1.05103,-2.3881 -2.10439,-4.7624 -2.60034,-7.3628 -0.71733,-3.7602 -1.4389,-7.5461 -2.16175,-11.30965 7.2831,-2.09529 14.5882,-4.11298 21.89935,-6.10924 z"
         id="path4484" />
    </g>
  </g>
</svg>
