<?xml version="1.0" encoding="UTF-8" standalone="no"?>
<!-- Created with Inkscape (http://www.inkscape.org/) -->

<svg
   xmlns:dc="http://purl.org/dc/elements/1.1/"
   xmlns:cc="http://creativecommons.org/ns#"
   xmlns:rdf="http://www.w3.org/1999/02/22-rdf-syntax-ns#"
   xmlns:svg="http://www.w3.org/2000/svg"
   xmlns="http://www.w3.org/2000/svg"
   xmlns:sodipodi="http://sodipodi.sourceforge.net/DTD/sodipodi-0.dtd"
   xmlns:inkscape="http://www.inkscape.org/namespaces/inkscape"
   width="1000"
   height="1000"
   id="svg3173"
   version="1.1"
   inkscape:version="0.47 r22583"
   sodipodi:docname="5cb3.svg"
   inkscape:export-filename="E:\chinese\yan\5cb3.png"
   inkscape:export-xdpi="18.005705"
   inkscape:export-ydpi="18.005705">
  <title
     id="title4268">Yue</title>
  <defs
     id="defs3175">
    <inkscape:perspective
       sodipodi:type="inkscape:persp3d"
       inkscape:vp_x="0 : 526.18109 : 1"
       inkscape:vp_y="0 : 1000 : 0"
       inkscape:vp_z="744.09448 : 526.18109 : 1"
       inkscape:persp3d-origin="372.04724 : 350.78739 : 1"
       id="perspective3181" />
    <inkscape:perspective
       id="perspective3191"
       inkscape:persp3d-origin="0.5 : 0.33333333 : 1"
       inkscape:vp_z="1 : 0.5 : 1"
       inkscape:vp_y="0 : 1000 : 0"
       inkscape:vp_x="0 : 0.5 : 1"
       sodipodi:type="inkscape:persp3d" />
    <inkscape:perspective
       id="perspective4006"
       inkscape:persp3d-origin="0.5 : 0.33333333 : 1"
       inkscape:vp_z="1 : 0.5 : 1"
       inkscape:vp_y="0 : 1000 : 0"
       inkscape:vp_x="0 : 0.5 : 1"
       sodipodi:type="inkscape:persp3d" />
    <inkscape:perspective
       id="perspective4034"
       inkscape:persp3d-origin="0.5 : 0.33333333 : 1"
       inkscape:vp_z="1 : 0.5 : 1"
       inkscape:vp_y="0 : 1000 : 0"
       inkscape:vp_x="0 : 0.5 : 1"
       sodipodi:type="inkscape:persp3d" />
    <inkscape:perspective
       id="perspective4081"
       inkscape:persp3d-origin="0.5 : 0.33333333 : 1"
       inkscape:vp_z="1 : 0.5 : 1"
       inkscape:vp_y="0 : 1000 : 0"
       inkscape:vp_x="0 : 0.5 : 1"
       sodipodi:type="inkscape:persp3d" />
    <inkscape:perspective
       id="perspective4147"
       inkscape:persp3d-origin="0.5 : 0.33333333 : 1"
       inkscape:vp_z="1 : 0.5 : 1"
       inkscape:vp_y="0 : 1000 : 0"
       inkscape:vp_x="0 : 0.5 : 1"
       sodipodi:type="inkscape:persp3d" />
    <inkscape:perspective
       id="perspective3758"
       inkscape:persp3d-origin="0.5 : 0.33333333 : 1"
       inkscape:vp_z="1 : 0.5 : 1"
       inkscape:vp_y="0 : 1000 : 0"
       inkscape:vp_x="0 : 0.5 : 1"
       sodipodi:type="inkscape:persp3d" />
    <inkscape:perspective
       id="perspective3719"
       inkscape:persp3d-origin="0.5 : 0.33333333 : 1"
       inkscape:vp_z="1 : 0.5 : 1"
       inkscape:vp_y="0 : 1000 : 0"
       inkscape:vp_x="0 : 0.5 : 1"
       sodipodi:type="inkscape:persp3d" />
    <inkscape:perspective
       id="perspective3803"
       inkscape:persp3d-origin="0.5 : 0.33333333 : 1"
       inkscape:vp_z="1 : 0.5 : 1"
       inkscape:vp_y="0 : 1000 : 0"
       inkscape:vp_x="0 : 0.5 : 1"
       sodipodi:type="inkscape:persp3d" />
    <inkscape:perspective
       id="perspective3801"
       inkscape:persp3d-origin="0.5 : 0.33333333 : 1"
       inkscape:vp_z="1 : 0.5 : 1"
       inkscape:vp_y="0 : 1000 : 0"
       inkscape:vp_x="0 : 0.5 : 1"
       sodipodi:type="inkscape:persp3d" />
    <inkscape:perspective
       id="perspective3838"
       inkscape:persp3d-origin="0.5 : 0.33333333 : 1"
       inkscape:vp_z="1 : 0.5 : 1"
       inkscape:vp_y="0 : 1000 : 0"
       inkscape:vp_x="0 : 0.5 : 1"
       sodipodi:type="inkscape:persp3d" />
    <inkscape:perspective
       id="perspective3862"
       inkscape:persp3d-origin="0.5 : 0.33333333 : 1"
       inkscape:vp_z="1 : 0.5 : 1"
       inkscape:vp_y="0 : 1000 : 0"
       inkscape:vp_x="0 : 0.5 : 1"
       sodipodi:type="inkscape:persp3d" />
  </defs>
  <sodipodi:namedview
     id="base"
     pagecolor="#ffffff"
     bordercolor="#666666"
     borderopacity="1.0"
     inkscape:pageopacity="0.0"
     inkscape:pageshadow="2"
     inkscape:zoom="0.49497475"
     inkscape:cx="571.51329"
     inkscape:cy="512.69615"
     inkscape:document-units="px"
     inkscape:current-layer="g4143"
     showgrid="false"
     inkscape:window-width="1440"
     inkscape:window-height="840"
     inkscape:window-x="-4"
     inkscape:window-y="-4"
     inkscape:window-maximized="1" />
  <metadata
     id="metadata3178">
    <rdf:RDF>
      <cc:Work
         rdf:about="">
        <dc:format>image/svg+xml</dc:format>
        <dc:type
           rdf:resource="http://purl.org/dc/dcmitype/StillImage" />
        <dc:title>Yue</dc:title>
        <dc:date>2010-08-14</dc:date>
        <dc:creator>
          <cc:Agent>
            <dc:title>Alex Amies</dc:title>
          </cc:Agent>
        </dc:creator>
        <dc:rights>
          <cc:Agent>
            <dc:title>@ Alex Amies 2010</dc:title>
          </cc:Agent>
        </dc:rights>
        <dc:publisher>
          <cc:Agent>
            <dc:title>chinesenotes.com</dc:title>
          </cc:Agent>
        </dc:publisher>
        <dc:source>Yan Qin Ceremonial Inscription</dc:source>
        <dc:language>Chinese 中文</dc:language>
        <dc:description>Tracing from Tang Dynasty Ceremonial Inscription by Yan Zhenqing 颜真卿 (709－785)</dc:description>
        <cc:license
           rdf:resource="http://creativecommons.org/licenses/by/3.0/" />
      </cc:Work>
      <cc:License
         rdf:about="http://creativecommons.org/licenses/by/3.0/">
        <cc:permits
           rdf:resource="http://creativecommons.org/ns#Reproduction" />
        <cc:permits
           rdf:resource="http://creativecommons.org/ns#Distribution" />
        <cc:requires
           rdf:resource="http://creativecommons.org/ns#Notice" />
        <cc:requires
           rdf:resource="http://creativecommons.org/ns#Attribution" />
        <cc:permits
           rdf:resource="http://creativecommons.org/ns#DerivativeWorks" />
      </cc:License>
    </rdf:RDF>
  </metadata>
  <g
     inkscape:label="Layer 1"
     inkscape:groupmode="layer"
     id="layer1"
     transform="translate(0,-52.362183)">
    <g
       transform="matrix(4.7609464,0,0,4.7609464,-1421.6669,-3910.0295)"
       id="g4143"
       style="fill:#000000;fill-opacity:1">
      <g
         transform="matrix(1.0020101,0,0,1.0020101,-212.86071,5.5378877)"
         id="g12562"
         style="fill:none;fill-opacity:1">
        <path
           style="fill:#000000;fill-opacity:1;stroke:#000000;stroke-width:1.22454631px;stroke-linecap:butt;stroke-linejoin:miter;stroke-opacity:1"
           d="m 642.18065,836.87675 c -3.29233,0.0512 -6.55332,1.44412 -8.627,3.54516 -3.81012,3.28987 -7.27724,7.33112 -12.81623,8.74327 -4.54061,1.54271 -9.9948,2.43484 -12.89611,6.01009 -0.30395,0.26376 -0.55408,0.57203 -0.74555,0.89897 -2.44306,-1.13078 -5.72903,-1.3204 -8.44948,-1.29046 -7.30631,0.13346 -11.12261,3.68668 -8.20097,9.62774 6.15033,21.47689 2.13116,44.08342 -2.81354,65.43675 -1.15883,2.66138 -3.42214,5.65693 -2.38751,8.48953 -6.121,0.73736 -12.24171,1.34988 -18.36342,1.8052 -4.0576,-0.25575 -8.43471,-1.15619 -12.27483,0.41324 -5.8025,1.91497 -5.86229,7.64889 -1.1982,10.48322 4.54809,4.77371 11.96391,0.58078 17.85753,0.60173 24.04387,-3.12361 47.67216,-7.98766 71.27033,-12.79591 6.12452,-1.53554 12.70845,-3.20417 19.03796,-1.43546 5.09023,0.73819 11.20411,1.26274 15.46114,-1.59496 3.98021,-3.81158 1.54368,-9.75252 -3.5502,-11.96943 -3.94044,-2.35002 -9.1531,-1.50292 -13.047,0.46399 -2.92955,0.6819 -5.87899,1.356 -8.83113,2.0227 3.41204,-4.87534 6.17438,-10.43497 7.29567,-15.59434 0.41168,-2.78158 0.0854,-6.14631 -2.92005,-7.93854 -4.3532,-2.61761 -8.18156,-6.32098 -13.78366,-6.90906 -2.67613,-0.12273 -4.98084,1.97091 -4.70402,4.12514 1.15732,5.45069 3.9258,9.33513 2.72478,15.1086 -0.73872,4.12818 -3.06429,9.8009 -0.80767,13.89062 -13.01569,2.77819 -26.20048,5.30962 -39.45163,7.32231 0.4565,-1.29849 0.85361,-2.6204 1.45558,-3.7844 3.69875,-11.48662 6.97648,-23.01014 9.32816,-34.66132 2.92604,0.92418 6.33203,0.77987 9.36366,0.18124 18.0107,-4.26304 37.36803,-2.56477 55.33879,-6.52483 2.88088,-0.74622 5.53526,-3.39779 4.49101,-5.93759 -5.51501,-4.16598 -16.20338,-6.37833 -23.63548,-5.6331 -8.57699,1.3304 -15.98009,5.71467 -24.71829,6.58283 -6.46327,0.90389 -13.52011,0.99682 -19.41073,3.4944 0.85378,-5.22491 1.50173,-10.47562 1.89935,-15.76832 -0.76466,-4.50118 -1.95826,-8.95317 -3.29281,-13.3614 1.75057,0.15762 3.61617,-0.2575 5.36968,-0.28999 13.48583,-0.19755 26.37009,-5.89176 39.88654,-4.85012 4.96057,-0.13706 7.71839,-5.53541 4.81052,-8.69252 -3.30768,-4.58305 -9.21465,-7.29576 -14.8576,-9.62049 -1.22795,-0.42872 -2.51929,-0.61453 -3.80759,-0.59449 z m -22.38403,107.42039 c -0.60753,-0.002 -1.22901,0.0327 -1.84611,0.10874 -4.16438,0.43684 -6.33784,2.89946 -6.02647,6.30734 6.05409,14.01035 0.49053,28.87672 1.85498,42.90435 0.024,0.87013 0.18247,1.83874 0.54141,2.73318 -5.6197,1.12042 -11.2446,2.19169 -16.93447,2.90715 -2.20994,-9.20178 -0.79315,-23.15698 -10.837,-29.45594 -3.74823,-1.47558 -8.18919,-1.39099 -12.09732,-0.39149 -3.73018,1.05264 -5.80304,4.17012 -6.90514,7.07581 1.10221,4.51432 5.79752,7.7662 7.75719,12.29567 1.8635,3.20765 1.71739,7.82735 2.76029,11.80265 -2.77148,0.3321 -5.47441,0.9191 -7.97021,2.0227 -5.05153,1.9689 -3.38818,6.8049 -3.38157,10.4035 0.0385,3.5723 1.60818,7.6165 5.31643,9.7582 3.97164,1.5956 7.58538,-0.3872 11.71567,-0.9134 16.81694,-7.4634 36.30961,-11.3982 52.46313,-19.908 5.45291,-3.01024 12.66212,-2.5105 18.57644,-0.7612 3.35949,0.9861 6.82718,1.8308 10.34884,2.2982 5.33403,0.1426 8.02552,-6.09909 4.7129,-9.18555 3.36082,-6.30746 1.93323,-13.55029 4.8549,-20.03121 1.28032,-2.41596 1.94561,-5.20141 0.75442,-7.73555 -2.58425,-6.3368 -10.54224,-6.56596 -17.396,-7.66304 -4.62011,-0.16863 -5.29736,3.45314 -5.52056,6.48857 0.35787,7.072 0.93582,14.13213 1.83723,21.17669 0.0664,1.60673 -0.84974,3.31522 -1.1982,4.92262 -8.1111,-0.28178 -16.00131,0.65526 -23.81299,2.00094 0.14111,-0.30503 0.26285,-0.61613 0.3639,-0.92797 -1.11326,-12.64717 9.70263,-28.33511 3.86972,-40.55542 -2.62121,-4.16936 -7.92864,-7.66233 -13.80141,-7.67754 z"
           id="path12504" />
      </g>
    </g>
  </g>
</svg>
