<?xml version="1.0" encoding="UTF-8" standalone="no"?>
<!-- Created with Inkscape (http://www.inkscape.org/) -->

<svg
   xmlns:dc="http://purl.org/dc/elements/1.1/"
   xmlns:cc="http://creativecommons.org/ns#"
   xmlns:rdf="http://www.w3.org/1999/02/22-rdf-syntax-ns#"
   xmlns:svg="http://www.w3.org/2000/svg"
   xmlns="http://www.w3.org/2000/svg"
   xmlns:sodipodi="http://sodipodi.sourceforge.net/DTD/sodipodi-0.dtd"
   xmlns:inkscape="http://www.inkscape.org/namespaces/inkscape"
   width="1000"
   height="1000"
   id="svg3173"
   version="1.1"
   inkscape:version="0.47 r22583"
   sodipodi:docname="5dba.svg"
   inkscape:export-filename="E:\chinese\yan\5dba.png"
   inkscape:export-xdpi="18.005705"
   inkscape:export-ydpi="18.005705">
  <title
     id="title7070">Ling</title>
  <defs
     id="defs3175">
    <inkscape:perspective
       sodipodi:type="inkscape:persp3d"
       inkscape:vp_x="0 : 526.18109 : 1"
       inkscape:vp_y="0 : 1000 : 0"
       inkscape:vp_z="744.09448 : 526.18109 : 1"
       inkscape:persp3d-origin="372.04724 : 350.78739 : 1"
       id="perspective3181" />
    <inkscape:perspective
       id="perspective3191"
       inkscape:persp3d-origin="0.5 : 0.33333333 : 1"
       inkscape:vp_z="1 : 0.5 : 1"
       inkscape:vp_y="0 : 1000 : 0"
       inkscape:vp_x="0 : 0.5 : 1"
       sodipodi:type="inkscape:persp3d" />
    <inkscape:perspective
       id="perspective4006"
       inkscape:persp3d-origin="0.5 : 0.33333333 : 1"
       inkscape:vp_z="1 : 0.5 : 1"
       inkscape:vp_y="0 : 1000 : 0"
       inkscape:vp_x="0 : 0.5 : 1"
       sodipodi:type="inkscape:persp3d" />
    <inkscape:perspective
       id="perspective4034"
       inkscape:persp3d-origin="0.5 : 0.33333333 : 1"
       inkscape:vp_z="1 : 0.5 : 1"
       inkscape:vp_y="0 : 1000 : 0"
       inkscape:vp_x="0 : 0.5 : 1"
       sodipodi:type="inkscape:persp3d" />
    <inkscape:perspective
       id="perspective4081"
       inkscape:persp3d-origin="0.5 : 0.33333333 : 1"
       inkscape:vp_z="1 : 0.5 : 1"
       inkscape:vp_y="0 : 1000 : 0"
       inkscape:vp_x="0 : 0.5 : 1"
       sodipodi:type="inkscape:persp3d" />
    <inkscape:perspective
       id="perspective4147"
       inkscape:persp3d-origin="0.5 : 0.33333333 : 1"
       inkscape:vp_z="1 : 0.5 : 1"
       inkscape:vp_y="0 : 1000 : 0"
       inkscape:vp_x="0 : 0.5 : 1"
       sodipodi:type="inkscape:persp3d" />
    <inkscape:perspective
       id="perspective3758"
       inkscape:persp3d-origin="0.5 : 0.33333333 : 1"
       inkscape:vp_z="1 : 0.5 : 1"
       inkscape:vp_y="0 : 1000 : 0"
       inkscape:vp_x="0 : 0.5 : 1"
       sodipodi:type="inkscape:persp3d" />
    <inkscape:perspective
       id="perspective3719"
       inkscape:persp3d-origin="0.5 : 0.33333333 : 1"
       inkscape:vp_z="1 : 0.5 : 1"
       inkscape:vp_y="0 : 1000 : 0"
       inkscape:vp_x="0 : 0.5 : 1"
       sodipodi:type="inkscape:persp3d" />
    <inkscape:perspective
       id="perspective3803"
       inkscape:persp3d-origin="0.5 : 0.33333333 : 1"
       inkscape:vp_z="1 : 0.5 : 1"
       inkscape:vp_y="0 : 1000 : 0"
       inkscape:vp_x="0 : 0.5 : 1"
       sodipodi:type="inkscape:persp3d" />
    <inkscape:perspective
       id="perspective3801"
       inkscape:persp3d-origin="0.5 : 0.33333333 : 1"
       inkscape:vp_z="1 : 0.5 : 1"
       inkscape:vp_y="0 : 1000 : 0"
       inkscape:vp_x="0 : 0.5 : 1"
       sodipodi:type="inkscape:persp3d" />
    <inkscape:perspective
       id="perspective3834"
       inkscape:persp3d-origin="0.5 : 0.33333333 : 1"
       inkscape:vp_z="1 : 0.5 : 1"
       inkscape:vp_y="0 : 1000 : 0"
       inkscape:vp_x="0 : 0.5 : 1"
       sodipodi:type="inkscape:persp3d" />
    <inkscape:perspective
       id="perspective3867"
       inkscape:persp3d-origin="0.5 : 0.33333333 : 1"
       inkscape:vp_z="1 : 0.5 : 1"
       inkscape:vp_y="0 : 1000 : 0"
       inkscape:vp_x="0 : 0.5 : 1"
       sodipodi:type="inkscape:persp3d" />
    <inkscape:perspective
       id="perspective3894"
       inkscape:persp3d-origin="0.5 : 0.33333333 : 1"
       inkscape:vp_z="1 : 0.5 : 1"
       inkscape:vp_y="0 : 1000 : 0"
       inkscape:vp_x="0 : 0.5 : 1"
       sodipodi:type="inkscape:persp3d" />
    <inkscape:perspective
       id="perspective3925"
       inkscape:persp3d-origin="0.5 : 0.33333333 : 1"
       inkscape:vp_z="1 : 0.5 : 1"
       inkscape:vp_y="0 : 1000 : 0"
       inkscape:vp_x="0 : 0.5 : 1"
       sodipodi:type="inkscape:persp3d" />
    <inkscape:perspective
       id="perspective3957"
       inkscape:persp3d-origin="0.5 : 0.33333333 : 1"
       inkscape:vp_z="1 : 0.5 : 1"
       inkscape:vp_y="0 : 1000 : 0"
       inkscape:vp_x="0 : 0.5 : 1"
       sodipodi:type="inkscape:persp3d" />
    <inkscape:perspective
       id="perspective4498"
       inkscape:persp3d-origin="0.5 : 0.33333333 : 1"
       inkscape:vp_z="1 : 0.5 : 1"
       inkscape:vp_y="0 : 1000 : 0"
       inkscape:vp_x="0 : 0.5 : 1"
       sodipodi:type="inkscape:persp3d" />
  </defs>
  <sodipodi:namedview
     id="base"
     pagecolor="#ffffff"
     bordercolor="#666666"
     borderopacity="1.0"
     inkscape:pageopacity="0.0"
     inkscape:pageshadow="2"
     inkscape:zoom="0.49497475"
     inkscape:cx="571.51329"
     inkscape:cy="512.69615"
     inkscape:document-units="px"
     inkscape:current-layer="g4143"
     showgrid="false"
     inkscape:window-width="1440"
     inkscape:window-height="840"
     inkscape:window-x="-4"
     inkscape:window-y="-4"
     inkscape:window-maximized="1" />
  <metadata
     id="metadata3178">
    <rdf:RDF>
      <cc:Work
         rdf:about="">
        <dc:format>image/svg+xml</dc:format>
        <dc:type
           rdf:resource="http://purl.org/dc/dcmitype/StillImage" />
        <dc:title>Ling</dc:title>
        <dc:date>2010-08-14</dc:date>
        <dc:creator>
          <cc:Agent>
            <dc:title>Alex Amies</dc:title>
          </cc:Agent>
        </dc:creator>
        <dc:rights>
          <cc:Agent>
            <dc:title>@ Alex Amies 2010</dc:title>
          </cc:Agent>
        </dc:rights>
        <dc:publisher>
          <cc:Agent>
            <dc:title>chinesenotes.com</dc:title>
          </cc:Agent>
        </dc:publisher>
        <dc:source>Yan Qin Ceremonial Inscription</dc:source>
        <dc:language>Chinese 中文</dc:language>
        <dc:description>Tracing from Tang Dynasty Ceremonial Inscription by Yan Zhenqing 颜真卿 (709－785)</dc:description>
        <cc:license
           rdf:resource="http://creativecommons.org/licenses/by/3.0/" />
      </cc:Work>
      <cc:License
         rdf:about="http://creativecommons.org/licenses/by/3.0/">
        <cc:permits
           rdf:resource="http://creativecommons.org/ns#Reproduction" />
        <cc:permits
           rdf:resource="http://creativecommons.org/ns#Distribution" />
        <cc:requires
           rdf:resource="http://creativecommons.org/ns#Notice" />
        <cc:requires
           rdf:resource="http://creativecommons.org/ns#Attribution" />
        <cc:permits
           rdf:resource="http://creativecommons.org/ns#DerivativeWorks" />
      </cc:License>
    </rdf:RDF>
  </metadata>
  <g
     inkscape:label="Layer 1"
     inkscape:groupmode="layer"
     id="layer1"
     transform="translate(0,-52.362183)">
    <g
       transform="matrix(4.7609464,0,0,4.7609464,-1421.6669,-3910.0295)"
       id="g4143"
       style="fill:#000000;fill-opacity:1">
      <path
         style="fill:#000000;stroke:#000000;stroke-width:4.76094626999999980px;stroke-linecap:butt;stroke-linejoin:miter;stroke-opacity:1;fill-opacity:1"
         d="M 514.15625 9.40625 C 507.29652 9.4401702 502.36679 10.963347 500.6875 14.34375 C 491.813 32.207964 499.8905 146.94602 521.59375 185.625 C 522.27046 186.15346 522.97013 186.6488 523.6875 187.125 C 491.19366 197.29506 457.00508 205.95066 419.59375 217.875 C 410.03357 219.11491 400.33567 221.1241 390.40625 223.625 C 390.71697 218.61344 390.89956 213.55131 394.90625 209.96875 C 424.79747 195.25476 428.67619 168.67437 408.53125 141.21875 C 392.18806 126.28518 374.75879 107.78793 352.3125 103.21875 C 341.38884 102.70404 328.6495 108.3704 326.0625 119.9375 C 327.12633 156.66425 342.50202 198.28336 358.8125 231.4375 C 359.03366 231.77074 359.25652 232.0932 359.5 232.40625 C 328.05001 241.96032 294.04334 253.15248 255.40625 257.9375 C 236.03786 274.53473 258.52625 298.24194 265.96875 315.15625 C 310.36014 300.80716 354.99126 284.96185 399.625 268.15625 C 376.37012 293.70412 365.43248 354.02223 345.8125 385.8125 C 282.04486 482.25923 128.3364 627.2284 102.71875 700.875 C 141.31541 679.6626 141.45049 679.65219 156.5625 661.15625 C 266.89734 576.08199 349.69261 431.57433 446.875 338.375 C 463.43424 325.31087 484.44892 304.03032 473.21875 281.25 C 465.28218 264.35116 447.31451 258.08645 429.9375 256.59375 C 519.93642 221.87589 609.68843 183.76487 697.125 146.65625 C 706.73829 147.75498 715.33165 148.09441 723.03125 147.8125 C 731.92428 168.3574 740.59278 185.20477 745.90625 192.0625 C 773.29398 204.43629 778.55091 183.48217 784.25 162.6875 C 787.81325 150.73598 784.53472 132.00927 777.34375 112.09375 C 777.5363 103.11409 773.6167 94.142403 766.75 87.4375 C 752.03719 57.934431 731.24015 30.91413 713.65625 24.59375 C 706.5942 22.910327 697.82014 22.846417 692.375 28.40625 C 688.19365 40.311608 693.79705 66.574645 702.9375 94.84375 C 686.28753 101.09569 670.67149 108.8805 656.25 120.78125 C 629.56209 141.78686 603.25679 156.47098 576.3125 168.03125 C 592.6701 133.95793 608.70744 93.905277 604.75 57.15625 C 597.72609 32.210622 541.0675 9.2731783 514.15625 9.40625 z M 746.25 203.03125 C 740.8073 202.99634 735.29719 203.63082 730.125 204.4375 C 702.27484 219.07441 619.48144 242.1868 599.5625 264.375 C 599.07845 275.19516 607.51389 284.04828 615.65625 290.0625 C 628.60412 299.5444 662.69839 286.63913 677.71875 284.15625 C 712.1064 277.60281 724.25966 268.90267 756.375 256.21875 C 777.66762 250.90734 786.80167 227.8867 771.3125 211.09375 C 764.24199 205.01893 755.32117 203.08943 746.25 203.03125 z M 667.9375 294.3125 C 658.69682 294.53396 649.46028 298.3835 642.84375 304.75 C 625.22303 331.83948 611.89846 364.21529 603.46875 395.53125 C 596.33101 391.20584 588.10409 388.07863 580.15625 385.46875 C 569.69583 378.82294 549.49402 383.24582 557.71875 398.8125 C 566.35906 414.804 573.0005 432.19955 573.375 450.59375 C 579.71496 532.32001 553.62249 613.74733 567.3125 695.28125 C 568.36152 705.33324 569.93765 717.40003 575.90625 725.90625 C 561.3517 733.38931 546.67441 740.50792 531.53125 745.34375 C 516.92376 748.15042 498.49219 746.21369 490.96875 759.9375 C 491.90261 769.17336 495.2846 782.61601 503.8125 783.78125 C 536.32648 788.22393 617.30339 750.82338 658.09375 713.40625 C 662.95263 708.01 664.36673 698.69543 659.90625 692.6875 C 642.56288 694.71786 625.84299 701.1036 609.25 708.96875 C 604.49446 614.98354 612.19305 519.81956 623.65625 426.375 C 624.49815 426.50906 625.33487 426.59619 626.15625 426.625 C 654.53301 411.57179 704.7702 389.03326 730.375 370 C 737.54794 362.62425 731.83109 348.87893 722.125 347.28125 C 682.93779 366.04895 656.45142 376.75342 620.96875 399.0625 C 620.16503 399.74695 619.29173 400.4379 618.40625 401.125 C 643.13488 376.14014 673.68614 356.47489 692.78125 326.5625 C 700.59849 310.90779 691.05104 301.30541 677.09375 295.34375 C 674.10643 294.56787 671.01773 294.23868 667.9375 294.3125 z M 530.125 307.28125 C 508.03499 307.15241 484.67649 316.21759 465.34375 325.4375 C 492.28018 365.73258 539.01232 385.97276 567.6875 370.28125 C 572.38584 350.47357 572.38535 325.72898 555.15625 312.21875 C 547.21858 308.80836 538.76892 307.33166 530.125 307.28125 z M 796.71875 328.34375 C 794.22962 328.40754 791.75123 328.73587 789.3125 329.34375 C 769.62004 335.29903 766.37285 359.18995 771.84375 376.3125 C 802.66964 460.23794 814.59775 661.06608 797.34375 766.75 C 791.60733 771.78741 783.59701 777.8656 779.6875 784.75 C 762.45931 774.73229 745.7577 766.09704 731.5 759.53125 C 718.79822 758.56868 715.85974 773.5794 722.625 781.8125 C 763.25125 837.80894 802.61 893.31945 854.96875 938.78125 C 861.34532 947.01959 875.0226 958.30897 883.8125 946.6875 C 897.64938 926.36016 897.64813 899.21375 889.4375 876.71875 C 878.62017 857.97372 857.6705 838.24642 833.28125 819.96875 C 883.34966 749.75336 870.03493 648.55132 868.3125 566.90625 C 859.61087 492.93443 862.37387 404.59582 826.25 339.9375 C 818.39505 332.67216 807.50496 328.06733 796.71875 328.34375 z M 614.71875 404.09375 C 614.63506 404.16665 614.55162 404.23897 614.46875 404.3125 C 614.43371 404.27438 614.41019 404.22549 614.375 404.1875 C 614.48787 404.15419 614.60779 404.13015 614.71875 404.09375 z M 412.03125 430.46875 C 396.67844 430.52896 380.56105 433.64397 364.6875 438.90625 C 395.26596 482.60164 422.01263 507.3985 460.625 512.90625 C 486.20523 512.13693 495.5338 491.29655 484.125 469.96875 C 467.78791 441.39294 441.34116 430.3538 412.03125 430.46875 z M 722.1875 442.78125 C 698.40695 449.8175 662.09414 460.03672 642.96875 486.9375 C 642.45466 494.99693 647.47592 503.98642 655.9375 505.375 C 686.54781 505.84729 718.65834 485.93965 730.75 451.84375 C 730.06861 447.31228 726.28587 444.23101 722.1875 442.78125 z M 514.8125 515.375 C 507.43935 515.35864 499.56482 517.74363 491.8125 522.75 C 482.9626 531.10166 474.32504 540.33158 466.15625 550.21875 C 467.17499 547.42729 465.91447 545.27588 461.59375 544 C 425.63537 556.53195 390.93116 574.64805 353.21875 582.15625 C 330.45728 583.84696 304.03537 561.37942 286.40625 584.75 C 271.70111 611.40254 274.94591 641.39945 290.03125 666.9375 C 324.19047 700.31992 336.21186 633.22572 360.6875 613.875 C 366.43761 608.89932 438.767 576.71842 460.40625 557.375 C 439.68464 584.01655 422.66972 614.86075 414.25 646.1875 C 413.48275 649.65673 412.24453 653.3354 411.46875 657.03125 C 407.63764 655.77199 403.22493 654.80424 398.21875 654.125 C 384.99584 652.78427 368.23617 659.62694 367.3125 674.65625 C 371.09979 736.42486 387.18336 797.32677 378.4375 859.28125 C 374.98496 875.03522 356.31043 882.61873 355.625 899.65625 C 351.13966 925.54104 360.72488 955.9475 384.09375 969.84375 C 394.11145 976.06488 409.48486 977.26934 416.78125 966.3125 C 431.3506 946.87403 436.39332 920.14595 428.1875 897.0625 C 418.31449 837.42308 418.40558 775.92191 424.53125 715.875 C 435.04456 692.95593 437.32766 674.0639 423.4375 663.15625 C 459.06094 637.49596 548.01967 563.54781 549.5625 547.59375 C 544.82779 527.01529 531.03342 515.41099 514.8125 515.375 z M 744.65625 535.21875 C 744.22513 535.22458 743.79609 535.27049 743.40625 535.375 C 713.65914 543.34987 644.3241 575.90332 624.15625 607.1875 C 620.48251 612.88616 629.97414 623.63232 636.6875 621.5625 C 669.46105 611.45791 733.10743 580.50759 757 551.25 C 761.59836 545.61908 751.1231 535.13136 744.65625 535.21875 z M 741.90625 625.3125 C 729.37839 625.65174 717.57695 632.22898 712.125 646.0625 C 676.20656 725.65476 545.23786 863.4526 491.59375 929.28125 C 468.73002 952.99648 521.95992 932.15288 533.625 926.375 C 625.56206 853.52014 691.83373 714.63923 768.59375 681.90625 C 786.9242 677.13802 786.39365 654.11536 776.125 641.90625 C 767.70584 630.8494 754.43411 624.97326 741.90625 625.3125 z "
         transform="matrix(0.21004227,0,0,0.21004227,298.61015,832.26975)"
         id="path6909" />
    </g>
  </g>
</svg>
