<?xml version="1.0" encoding="UTF-8" standalone="no"?>
<!-- Created with Inkscape (http://www.inkscape.org/) -->

<svg
   xmlns:dc="http://purl.org/dc/elements/1.1/"
   xmlns:cc="http://creativecommons.org/ns#"
   xmlns:rdf="http://www.w3.org/1999/02/22-rdf-syntax-ns#"
   xmlns:svg="http://www.w3.org/2000/svg"
   xmlns="http://www.w3.org/2000/svg"
   xmlns:sodipodi="http://sodipodi.sourceforge.net/DTD/sodipodi-0.dtd"
   xmlns:inkscape="http://www.inkscape.org/namespaces/inkscape"
   width="1000"
   height="1000"
   id="svg3173"
   version="1.1"
   inkscape:version="0.47 r22583"
   sodipodi:docname="5dbd.svg"
   inkscape:export-filename="E:\chinese\yan\5dbd.png"
   inkscape:export-xdpi="18.005705"
   inkscape:export-ydpi="18.005705">
  <title
     id="title4268">Yue</title>
  <defs
     id="defs3175">
    <inkscape:perspective
       sodipodi:type="inkscape:persp3d"
       inkscape:vp_x="0 : 526.18109 : 1"
       inkscape:vp_y="0 : 1000 : 0"
       inkscape:vp_z="744.09448 : 526.18109 : 1"
       inkscape:persp3d-origin="372.04724 : 350.78739 : 1"
       id="perspective3181" />
    <inkscape:perspective
       id="perspective3191"
       inkscape:persp3d-origin="0.5 : 0.33333333 : 1"
       inkscape:vp_z="1 : 0.5 : 1"
       inkscape:vp_y="0 : 1000 : 0"
       inkscape:vp_x="0 : 0.5 : 1"
       sodipodi:type="inkscape:persp3d" />
    <inkscape:perspective
       id="perspective4006"
       inkscape:persp3d-origin="0.5 : 0.33333333 : 1"
       inkscape:vp_z="1 : 0.5 : 1"
       inkscape:vp_y="0 : 1000 : 0"
       inkscape:vp_x="0 : 0.5 : 1"
       sodipodi:type="inkscape:persp3d" />
    <inkscape:perspective
       id="perspective4034"
       inkscape:persp3d-origin="0.5 : 0.33333333 : 1"
       inkscape:vp_z="1 : 0.5 : 1"
       inkscape:vp_y="0 : 1000 : 0"
       inkscape:vp_x="0 : 0.5 : 1"
       sodipodi:type="inkscape:persp3d" />
    <inkscape:perspective
       id="perspective4081"
       inkscape:persp3d-origin="0.5 : 0.33333333 : 1"
       inkscape:vp_z="1 : 0.5 : 1"
       inkscape:vp_y="0 : 1000 : 0"
       inkscape:vp_x="0 : 0.5 : 1"
       sodipodi:type="inkscape:persp3d" />
    <inkscape:perspective
       id="perspective4147"
       inkscape:persp3d-origin="0.5 : 0.33333333 : 1"
       inkscape:vp_z="1 : 0.5 : 1"
       inkscape:vp_y="0 : 1000 : 0"
       inkscape:vp_x="0 : 0.5 : 1"
       sodipodi:type="inkscape:persp3d" />
    <inkscape:perspective
       id="perspective3758"
       inkscape:persp3d-origin="0.5 : 0.33333333 : 1"
       inkscape:vp_z="1 : 0.5 : 1"
       inkscape:vp_y="0 : 1000 : 0"
       inkscape:vp_x="0 : 0.5 : 1"
       sodipodi:type="inkscape:persp3d" />
    <inkscape:perspective
       id="perspective3719"
       inkscape:persp3d-origin="0.5 : 0.33333333 : 1"
       inkscape:vp_z="1 : 0.5 : 1"
       inkscape:vp_y="0 : 1000 : 0"
       inkscape:vp_x="0 : 0.5 : 1"
       sodipodi:type="inkscape:persp3d" />
    <inkscape:perspective
       id="perspective3803"
       inkscape:persp3d-origin="0.5 : 0.33333333 : 1"
       inkscape:vp_z="1 : 0.5 : 1"
       inkscape:vp_y="0 : 1000 : 0"
       inkscape:vp_x="0 : 0.5 : 1"
       sodipodi:type="inkscape:persp3d" />
    <inkscape:perspective
       id="perspective3801"
       inkscape:persp3d-origin="0.5 : 0.33333333 : 1"
       inkscape:vp_z="1 : 0.5 : 1"
       inkscape:vp_y="0 : 1000 : 0"
       inkscape:vp_x="0 : 0.5 : 1"
       sodipodi:type="inkscape:persp3d" />
    <inkscape:perspective
       id="perspective3838"
       inkscape:persp3d-origin="0.5 : 0.33333333 : 1"
       inkscape:vp_z="1 : 0.5 : 1"
       inkscape:vp_y="0 : 1000 : 0"
       inkscape:vp_x="0 : 0.5 : 1"
       sodipodi:type="inkscape:persp3d" />
    <inkscape:perspective
       id="perspective3862"
       inkscape:persp3d-origin="0.5 : 0.33333333 : 1"
       inkscape:vp_z="1 : 0.5 : 1"
       inkscape:vp_y="0 : 1000 : 0"
       inkscape:vp_x="0 : 0.5 : 1"
       sodipodi:type="inkscape:persp3d" />
  </defs>
  <sodipodi:namedview
     id="base"
     pagecolor="#ffffff"
     bordercolor="#666666"
     borderopacity="1.0"
     inkscape:pageopacity="0.0"
     inkscape:pageshadow="2"
     inkscape:zoom="0.49497475"
     inkscape:cx="571.51329"
     inkscape:cy="512.69615"
     inkscape:document-units="px"
     inkscape:current-layer="g4143"
     showgrid="false"
     inkscape:window-width="1440"
     inkscape:window-height="840"
     inkscape:window-x="-4"
     inkscape:window-y="-4"
     inkscape:window-maximized="1" />
  <metadata
     id="metadata3178">
    <rdf:RDF>
      <cc:Work
         rdf:about="">
        <dc:format>image/svg+xml</dc:format>
        <dc:type
           rdf:resource="http://purl.org/dc/dcmitype/StillImage" />
        <dc:title>Yue</dc:title>
        <dc:date>2010-08-14</dc:date>
        <dc:creator>
          <cc:Agent>
            <dc:title>Alex Amies</dc:title>
          </cc:Agent>
        </dc:creator>
        <dc:rights>
          <cc:Agent>
            <dc:title>@ Alex Amies 2010</dc:title>
          </cc:Agent>
        </dc:rights>
        <dc:publisher>
          <cc:Agent>
            <dc:title>chinesenotes.com</dc:title>
          </cc:Agent>
        </dc:publisher>
        <dc:source>Yan Qin Ceremonial Inscription</dc:source>
        <dc:language>Chinese 中文</dc:language>
        <dc:description>Tracing from Tang Dynasty Ceremonial Inscription by Yan Zhenqing 颜真卿 (709－785)</dc:description>
        <cc:license
           rdf:resource="http://creativecommons.org/licenses/by/3.0/" />
      </cc:Work>
      <cc:License
         rdf:about="http://creativecommons.org/licenses/by/3.0/">
        <cc:permits
           rdf:resource="http://creativecommons.org/ns#Reproduction" />
        <cc:permits
           rdf:resource="http://creativecommons.org/ns#Distribution" />
        <cc:requires
           rdf:resource="http://creativecommons.org/ns#Notice" />
        <cc:requires
           rdf:resource="http://creativecommons.org/ns#Attribution" />
        <cc:permits
           rdf:resource="http://creativecommons.org/ns#DerivativeWorks" />
      </cc:License>
    </rdf:RDF>
  </metadata>
  <g
     inkscape:label="Layer 1"
     inkscape:groupmode="layer"
     id="layer1"
     transform="translate(0,-52.362183)">
    <g
       transform="matrix(4.7609464,0,0,4.7609464,-1421.6669,-3910.0295)"
       id="g4143"
       style="fill:#000000;fill-opacity:1">
      <g
         transform="matrix(1.0020101,0,0,1.0020101,-212.86071,5.5378877)"
         id="g12562"
         style="fill:none;fill-opacity:1">
        <path
           style="fill:#000000;stroke:#000000;stroke-width:4.77051640000000000px;stroke-linecap:butt;stroke-linejoin:miter;stroke-opacity:1;fill-opacity:1"
           d="M 832.75 64 C 832.09396 64.008235 831.43364 64.04189 830.75 64.09375 C 729.49579 90.964876 626.2856 100.41833 522.625 114.84375 C 508.49616 114.62192 498.87013 130.25899 513.625 138.09375 C 518.87071 150.16549 523.59231 161.3398 533.09375 170.09375 C 545.7818 177.94068 560.24548 168.38075 573.78125 168.59375 C 641.23234 158.71372 705.07033 135.61698 773.46875 131.3125 C 791.83533 129.62192 808.97656 136.50276 826 142.1875 C 842.33845 144.52997 861.27048 150.30192 876.21875 140.40625 C 891.06226 130.68198 882.37414 111.22391 871.8125 98.90625 C 860.44279 84.029287 853.08718 63.744714 832.75 64 z M 675.71875 152.1875 C 674.65239 152.20194 673.6048 152.25989 672.5625 152.34375 C 656.94383 155.3621 646.16282 171.10314 645.03125 186.34375 C 644.91676 194.1154 646.5113 201.97891 644.03125 209.59375 C 639.42293 245.40225 607.68438 272.89578 601.78125 307.59375 C 598.01984 316.35609 610.00756 322.49542 616.4375 316.71875 C 617.00597 316.03658 617.57592 315.36398 618.15625 314.6875 C 622.31074 321.70771 629.71987 327.05903 639.375 326.5625 C 678.81143 321.44068 712.50064 308.10069 745.65625 300.21875 C 767.89726 290.03718 802.35654 286.14729 815.28125 312.09375 C 830.38533 340.69114 825.23889 374.60867 823.4375 405.5625 C 812.75982 486.8764 816.05924 568.69846 810.96875 650.09375 C 746.98371 657.27659 683.54721 669.19264 620.21875 681.59375 C 620.52505 644.71681 620.13821 607.83884 619.4375 570.9375 C 622.7322 572.01384 626.20583 572.57692 629.65625 572.65625 C 656.51674 575.09289 683.077 569.96842 709.78125 568.125 C 722.57019 567.24198 736.11043 561.48091 742.625 549.90625 C 747.53405 540.56052 741.88315 529.85439 735.5625 522.71875 C 728.56239 514.30303 719.33781 516.50781 708.09375 518.71875 C 679.83394 534.23065 647.6395 523.29468 618.5 527.96875 C 617.96078 504.6622 617.39232 481.34391 616.875 458.03125 C 621.51197 458.99743 626.35369 459.143 631 458.875 C 663.37582 442.79855 707.72565 455.24505 737.71875 434.84375 C 743.9094 430.52968 747.65424 422.76299 745.71875 415.28125 C 742.21066 399.5072 732.58779 397.28018 717.84375 392.78125 C 684.43987 391.71925 646.77981 398.63155 616 413.34375 C 615.69382 394.89873 615.45417 376.44702 615.375 358 C 618.03976 343.7426 617.63487 325.00895 602.71875 317.59375 C 586.57265 316.13159 570.42604 316.33119 556.46875 306.125 L 553.3125 305.65625 C 532.33635 305.40246 547.57721 328.98492 555.8125 336.125 C 565.78493 361.41685 558.01254 389.02319 560.375 415.34375 C 561.37557 496.6251 558.55624 578.65728 558.96875 659.3125 C 561.15677 670.27281 564.27511 681.56072 569.5 691.53125 C 556.15096 694.13882 542.7878 696.73897 529.4375 699.25 C 519.72339 705.91055 513.35615 719.93822 520.9375 730.53125 C 529.05744 744.80836 546.41313 751.39052 562.25 748.1875 C 574.44139 745.6088 586.54274 742.48903 598.625 739.0625 C 599.784 749.09149 600.08916 759.14407 593.78125 768.15625 C 564.81072 816.49594 527.49937 860.15349 487.1875 899.46875 C 478.27112 906.52053 464.56362 908.46962 459.5 919.5625 C 458.99733 936.65908 482.33117 932.71377 493.4375 930.65625 C 512.31472 925.8595 525.26475 910.05474 540.6875 899.25 C 581.5537 846.46758 666.46291 817.85298 686.34375 751.125 C 688.1975 738.39053 682.43035 723.91882 672.1875 716 C 716.59345 701.86495 761.28736 689.33074 807.78125 689.0625 C 806.24632 704.02107 804.3277 718.95987 801.84375 733.875 C 800.24109 738.39817 799.37047 743.19071 799.1875 747.96875 C 789.52186 748.69877 780.26185 751.41665 773.09375 757.15625 C 767.90486 761.31104 765.00409 769.38276 766.28125 775.90625 C 769.37135 791.68984 788.90904 798.89445 798.65625 811.6875 C 830.73363 839.85916 836.17052 892.81552 866.78125 920.71875 C 883.04108 927.93463 906.72426 926.2623 921.3125 915.625 C 939.8637 893.30852 936.28385 859.12281 926.4375 833.84375 C 910.91183 813.21799 890.90125 791.34323 868.4375 774.34375 C 876.83738 764.56027 882.07189 751.13133 886.46875 739.1875 C 925.2697 612.74563 885.48003 478.71869 910.59375 351.375 C 914.79262 302.80499 871.41937 259.76567 824.53125 255.21875 C 778.5149 247.8578 732.86722 261.60961 689.75 276.125 C 676.93941 279.76334 663.64529 280.72038 650.53125 282.5 C 672.41143 262.59693 695.13447 242.83662 709.21875 218.21875 C 717.24514 203.19978 720.0138 191.85021 715.84375 175.28125 C 709.95245 159.58032 691.71419 151.97086 675.71875 152.1875 z "
           transform="matrix(0.20962091,0,0,0.20962091,510.44481,825.07339)"
           id="path12544" />
        <path
           style="fill:#000000;stroke:#000000;stroke-width:4.77051640000000000px;stroke-linecap:butt;stroke-linejoin:miter;stroke-opacity:1;fill-opacity:1"
           d="M 379.46875 59.8125 C 367.87669 60.033304 356.39502 66.037306 349.09375 75.09375 C 335.67858 89.274587 323.4711 106.69426 303.96875 112.78125 C 287.9816 119.43106 268.7778 123.27654 258.5625 138.6875 C 257.49231 139.82443 256.61163 141.15322 255.9375 142.5625 C 247.33565 137.68831 235.76599 136.87094 226.1875 137 C 200.46254 137.57528 187.02564 152.8913 197.3125 178.5 C 218.96735 271.07526 204.81615 368.51982 187.40625 460.5625 C 183.32609 472.03428 175.35712 484.94644 179 497.15625 C 157.44841 500.33464 135.89785 502.97488 114.34375 504.9375 C 100.05725 503.83513 84.645788 499.95378 71.125 506.71875 C 50.694834 514.97317 50.48432 539.68901 66.90625 551.90625 C 82.919729 572.48316 109.03027 554.40969 129.78125 554.5 C 214.43793 541.03579 297.63138 520.0695 380.71875 499.34375 C 402.28272 492.72485 425.46425 485.5323 447.75 493.15625 C 465.67231 496.33818 487.19882 498.59925 502.1875 486.28125 C 516.20151 469.85159 507.62269 444.24337 489.6875 434.6875 C 475.8135 424.55783 457.46013 428.2092 443.75 436.6875 C 433.43529 439.6268 423.05053 442.53248 412.65625 445.40625 C 424.66978 424.39132 434.39579 400.42675 438.34375 378.1875 C 439.79327 366.19762 438.6446 351.69408 428.0625 343.96875 C 412.73521 332.68562 399.25581 316.72241 379.53125 314.1875 C 370.10881 313.6585 361.99409 322.68304 362.96875 331.96875 C 367.04358 355.46373 376.79118 372.20744 372.5625 397.09375 C 369.96151 414.88812 361.77337 439.34017 369.71875 456.96875 C 323.89147 468.94399 277.46881 479.85563 230.8125 488.53125 C 232.41983 482.93418 233.81803 477.23612 235.9375 472.21875 C 248.96053 422.70614 260.50117 373.03448 268.78125 322.8125 C 279.08364 326.79618 291.07587 326.17412 301.75 323.59375 C 365.16433 305.2181 433.32005 312.53842 496.59375 295.46875 C 506.73711 292.25218 516.08298 280.82271 512.40625 269.875 C 492.98829 251.91768 455.35536 242.38143 429.1875 245.59375 C 398.98856 251.32839 372.92279 270.22657 342.15625 273.96875 C 319.39954 277.86495 294.55294 278.26553 273.8125 289.03125 C 276.8186 266.50948 279.10001 243.87647 280.5 221.0625 C 277.80766 201.66035 273.6051 182.47024 268.90625 163.46875 C 275.06989 164.14814 281.63853 162.35878 287.8125 162.21875 C 335.29507 161.36721 380.65961 136.82254 428.25 141.3125 C 445.71581 140.72172 455.42589 117.45232 445.1875 103.84375 C 433.54138 84.088708 412.74339 72.39566 392.875 62.375 C 388.55147 60.527026 384.00477 59.726099 379.46875 59.8125 z M 300.65625 522.84375 C 298.51719 522.83697 296.32902 522.98461 294.15625 523.3125 C 279.49378 525.19547 271.84119 535.81048 272.9375 550.5 C 294.2535 610.89106 274.6646 674.97197 279.46875 735.4375 C 279.55309 739.18815 280.11122 743.3633 281.375 747.21875 C 261.58848 752.04829 241.78363 756.66596 221.75 759.75 C 213.96897 720.08603 218.95739 659.93269 183.59375 632.78125 C 170.3965 626.42086 154.76022 626.78545 141 631.09375 C 127.86629 635.63113 120.56793 649.0689 116.6875 661.59375 C 120.56832 681.05254 137.10012 695.06965 144 714.59375 C 150.56123 728.42021 150.04678 748.33322 153.71875 765.46875 C 143.96059 766.8999 134.44378 769.43029 125.65625 774.1875 C 107.87019 782.67411 113.72672 803.51949 113.75 819.03125 C 113.88548 834.42943 119.41228 851.86185 132.46875 861.09375 C 146.45261 867.9714 159.17631 859.42463 173.71875 857.15625 C 232.92992 824.9857 301.56216 808.02492 358.4375 771.34375 C 377.63678 758.36823 403.01987 760.52217 423.84375 768.0625 C 435.67225 772.31303 447.88172 775.9544 460.28125 777.96875 C 479.06195 778.58368 488.5385 751.67904 476.875 738.375 C 488.7082 711.18696 483.68176 679.96703 493.96875 652.03125 C 498.47665 641.61736 500.81909 629.61079 496.625 618.6875 C 487.52605 591.37295 459.50656 590.38517 435.375 585.65625 C 419.10792 584.92937 416.72339 600.5409 415.9375 613.625 C 417.19754 644.10855 419.23247 674.54096 422.40625 704.90625 C 422.64005 711.83201 419.41439 719.19639 418.1875 726.125 C 389.62892 724.9104 361.84808 728.94949 334.34375 734.75 C 334.84056 733.43517 335.26921 732.09418 335.625 730.75 C 331.70531 676.23488 369.78722 608.61264 349.25 555.9375 C 340.02092 537.96562 321.33385 522.90934 300.65625 522.84375 z "
           transform="matrix(0.20962091,0,0,0.20962091,510.44481,825.07339)"
           id="path12504" />
      </g>
    </g>
  </g>
</svg>
