<?xml version="1.0" encoding="UTF-8" standalone="no"?>
<!-- Created with Inkscape (http://www.inkscape.org/) -->

<svg
   xmlns:dc="http://purl.org/dc/elements/1.1/"
   xmlns:cc="http://creativecommons.org/ns#"
   xmlns:rdf="http://www.w3.org/1999/02/22-rdf-syntax-ns#"
   xmlns:svg="http://www.w3.org/2000/svg"
   xmlns="http://www.w3.org/2000/svg"
   xmlns:sodipodi="http://sodipodi.sourceforge.net/DTD/sodipodi-0.dtd"
   xmlns:inkscape="http://www.inkscape.org/namespaces/inkscape"
   width="1000"
   height="1000"
   id="svg3173"
   version="1.1"
   inkscape:version="0.47 r22583"
   sodipodi:docname="5dde.svg"
   inkscape:export-filename="E:\chinese\yan\5dde.png"
   inkscape:export-xdpi="17.961918"
   inkscape:export-ydpi="17.961918">
  <title
     id="title3685">Zhou</title>
  <defs
     id="defs3175">
    <inkscape:perspective
       sodipodi:type="inkscape:persp3d"
       inkscape:vp_x="0 : 526.18109 : 1"
       inkscape:vp_y="0 : 1000 : 0"
       inkscape:vp_z="744.09448 : 526.18109 : 1"
       inkscape:persp3d-origin="372.04724 : 350.78739 : 1"
       id="perspective3181" />
    <inkscape:perspective
       id="perspective3191"
       inkscape:persp3d-origin="0.5 : 0.33333333 : 1"
       inkscape:vp_z="1 : 0.5 : 1"
       inkscape:vp_y="0 : 1000 : 0"
       inkscape:vp_x="0 : 0.5 : 1"
       sodipodi:type="inkscape:persp3d" />
    <inkscape:perspective
       id="perspective4006"
       inkscape:persp3d-origin="0.5 : 0.33333333 : 1"
       inkscape:vp_z="1 : 0.5 : 1"
       inkscape:vp_y="0 : 1000 : 0"
       inkscape:vp_x="0 : 0.5 : 1"
       sodipodi:type="inkscape:persp3d" />
    <inkscape:perspective
       id="perspective4034"
       inkscape:persp3d-origin="0.5 : 0.33333333 : 1"
       inkscape:vp_z="1 : 0.5 : 1"
       inkscape:vp_y="0 : 1000 : 0"
       inkscape:vp_x="0 : 0.5 : 1"
       sodipodi:type="inkscape:persp3d" />
    <inkscape:perspective
       id="perspective4081"
       inkscape:persp3d-origin="0.5 : 0.33333333 : 1"
       inkscape:vp_z="1 : 0.5 : 1"
       inkscape:vp_y="0 : 1000 : 0"
       inkscape:vp_x="0 : 0.5 : 1"
       sodipodi:type="inkscape:persp3d" />
    <inkscape:perspective
       id="perspective4147"
       inkscape:persp3d-origin="0.5 : 0.33333333 : 1"
       inkscape:vp_z="1 : 0.5 : 1"
       inkscape:vp_y="0 : 1000 : 0"
       inkscape:vp_x="0 : 0.5 : 1"
       sodipodi:type="inkscape:persp3d" />
    <inkscape:perspective
       id="perspective3858"
       inkscape:persp3d-origin="0.5 : 0.33333333 : 1"
       inkscape:vp_z="1 : 0.5 : 1"
       inkscape:vp_y="0 : 1000 : 0"
       inkscape:vp_x="0 : 0.5 : 1"
       sodipodi:type="inkscape:persp3d" />
    <inkscape:perspective
       id="perspective3876"
       inkscape:persp3d-origin="0.5 : 0.33333333 : 1"
       inkscape:vp_z="1 : 0.5 : 1"
       inkscape:vp_y="0 : 1000 : 0"
       inkscape:vp_x="0 : 0.5 : 1"
       sodipodi:type="inkscape:persp3d" />
    <inkscape:perspective
       id="perspective3901"
       inkscape:persp3d-origin="0.5 : 0.33333333 : 1"
       inkscape:vp_z="1 : 0.5 : 1"
       inkscape:vp_y="0 : 1000 : 0"
       inkscape:vp_x="0 : 0.5 : 1"
       sodipodi:type="inkscape:persp3d" />
    <inkscape:perspective
       id="perspective5282"
       inkscape:persp3d-origin="0.5 : 0.33333333 : 1"
       inkscape:vp_z="1 : 0.5 : 1"
       inkscape:vp_y="0 : 1000 : 0"
       inkscape:vp_x="0 : 0.5 : 1"
       sodipodi:type="inkscape:persp3d" />
    <inkscape:perspective
       id="perspective6657"
       inkscape:persp3d-origin="0.5 : 0.33333333 : 1"
       inkscape:vp_z="1 : 0.5 : 1"
       inkscape:vp_y="0 : 1000 : 0"
       inkscape:vp_x="0 : 0.5 : 1"
       sodipodi:type="inkscape:persp3d" />
    <inkscape:perspective
       id="perspective7221"
       inkscape:persp3d-origin="0.5 : 0.33333333 : 1"
       inkscape:vp_z="1 : 0.5 : 1"
       inkscape:vp_y="0 : 1000 : 0"
       inkscape:vp_x="0 : 0.5 : 1"
       sodipodi:type="inkscape:persp3d" />
    <inkscape:perspective
       id="perspective3026"
       inkscape:persp3d-origin="0.5 : 0.33333333 : 1"
       inkscape:vp_z="1 : 0.5 : 1"
       inkscape:vp_y="0 : 1000 : 0"
       inkscape:vp_x="0 : 0.5 : 1"
       sodipodi:type="inkscape:persp3d" />
    <inkscape:perspective
       id="perspective3843"
       inkscape:persp3d-origin="0.5 : 0.33333333 : 1"
       inkscape:vp_z="1 : 0.5 : 1"
       inkscape:vp_y="0 : 1000 : 0"
       inkscape:vp_x="0 : 0.5 : 1"
       sodipodi:type="inkscape:persp3d" />
  </defs>
  <sodipodi:namedview
     id="base"
     pagecolor="#ffffff"
     bordercolor="#666666"
     borderopacity="1.0"
     inkscape:pageopacity="0.0"
     inkscape:pageshadow="2"
     inkscape:zoom="0.49497475"
     inkscape:cx="333.02474"
     inkscape:cy="440.54137"
     inkscape:document-units="px"
     inkscape:current-layer="layer1"
     showgrid="false"
     inkscape:window-width="1440"
     inkscape:window-height="840"
     inkscape:window-x="-4"
     inkscape:window-y="-4"
     inkscape:window-maximized="1" />
  <metadata
     id="metadata3178">
    <rdf:RDF>
      <cc:Work
         rdf:about="">
        <dc:format>image/svg+xml</dc:format>
        <dc:type
           rdf:resource="http://purl.org/dc/dcmitype/StillImage" />
        <dc:title>Zhou</dc:title>
        <dc:date>2010-07-14</dc:date>
        <dc:creator>
          <cc:Agent>
            <dc:title>Alex Amies</dc:title>
          </cc:Agent>
        </dc:creator>
        <dc:rights>
          <cc:Agent>
            <dc:title>Copyright Alex Amies 2010</dc:title>
          </cc:Agent>
        </dc:rights>
        <dc:publisher>
          <cc:Agent>
            <dc:title>chinesenotes.com</dc:title>
          </cc:Agent>
        </dc:publisher>
        <dc:source>Yan Qin Ceremonial Inscription</dc:source>
        <dc:language>Chinese 中文</dc:language>
        <dc:description>Tracing from Tang Dynasty Ceremonial Inscription by Yan Zhenqing 颜真卿 (709－785)</dc:description>
        <cc:license
           rdf:resource="http://creativecommons.org/licenses/by/3.0/" />
      </cc:Work>
      <cc:License
         rdf:about="http://creativecommons.org/licenses/by/3.0/">
        <cc:permits
           rdf:resource="http://creativecommons.org/ns#Reproduction" />
        <cc:permits
           rdf:resource="http://creativecommons.org/ns#Distribution" />
        <cc:requires
           rdf:resource="http://creativecommons.org/ns#Notice" />
        <cc:requires
           rdf:resource="http://creativecommons.org/ns#Attribution" />
        <cc:permits
           rdf:resource="http://creativecommons.org/ns#DerivativeWorks" />
      </cc:License>
    </rdf:RDF>
  </metadata>
  <g
     inkscape:label="Layer 1"
     inkscape:groupmode="layer"
     id="layer1"
     transform="translate(0,-52.362183)">
    <path
       id="path3673"
       d="m 166.96594,374.80543 c -28.51629,34.58546 -43.65461,77.48023 -61.83703,117.6648 -3.38731,35.61561 2.05929,73.18797 20.47116,104.4489 24.11105,31.52405 95.51479,10.38717 88.69837,-29.788 10.23546,-50.29954 -52.91542,-78.16566 -35.03789,-132.05985 1.88226,-21.54175 5.40749,-43.81473 -12.29461,-60.26585 z"
       style="fill:#000000;fill-opacity:1;stroke:#000000;stroke-width:4.75137663px;stroke-linecap:butt;stroke-linejoin:miter;stroke-opacity:1" />
    <path
       id="path3675"
       d="m 217.36189,254.81507 c -38.39925,40.9151 -0.038,83.06908 13.99917,123.67696 17.1863,174.91005 -11.79168,318.61192 -79.39232,475.96278 0.12876,21.60185 -25.26179,100.4585 8.46267,55.12115 30.49016,-40.65772 71.43481,-71.85559 100.64119,-113.30599 56.06287,-127.42517 63.0712,-274.194 57.62612,-411.85787 -4.85148,-40.34641 -11.54,-84.86942 -45.8237,-111.6631 -17.36314,-14.68356 -33.81659,-46.84107 -55.51313,-17.93393 z"
       style="fill:#000000;fill-opacity:1;stroke:#000000;stroke-width:4.75137663px;stroke-linecap:butt;stroke-linejoin:miter;stroke-opacity:1"
       sodipodi:nodetypes="cccccccc" />
    <path
       id="path3677"
       d="m 382.9486,365.20623 c -29.20857,27.01105 -34.5962,80.26415 -4.75646,107.93132 12.40384,35.62007 77.5943,49.53424 73.99646,-1.29262 13.63664,-40.21546 -7.85189,-88.32619 -50.86724,-98.47304 -6.12424,-2.72187 -12.24852,-5.44379 -18.37276,-8.16566 z"
       style="fill:#000000;fill-opacity:1;stroke:#000000;stroke-width:4.75137663px;stroke-linecap:butt;stroke-linejoin:miter;stroke-opacity:1" />
    <path
       id="path3679"
       d="m 447.7434,257.2149 c -19.74325,40.65106 22.28116,87.7861 28.476,132.55133 9.49558,121.54354 18.36094,244.30125 11.78147,366.22195 -3.28468,38.61867 -35.14085,78.24192 -21.05901,114.35138 12.68623,32.53078 50.9885,75.17329 83.70591,62.97646 26.97033,-10.05434 14.73449,-55.83851 18.17971,-84.41505 9.8326,-176.56875 9.06188,-356.42257 -8.43768,-532.57871 -6.86612,-33.66018 -4.34965,-83.78321 -36.27681,-96.46421 -26.3375,-10.46087 -63.98897,11.86538 -76.36959,37.35685 z"
       style="fill:#000000;fill-opacity:1;stroke:#000000;stroke-width:4.75137663px;stroke-linecap:butt;stroke-linejoin:miter;stroke-opacity:1"
       sodipodi:nodetypes="cccaaccaa" />
    <path
       id="path3681"
       d="m 730.9207,262.0145 c -24.57422,22.29232 -38.52245,64.70439 -75.57293,66.57624 -49.67659,-11.82993 -78.51403,46.98147 -56.41856,88.25981 11.56894,38.63596 53.85272,68.13821 90.55678,78.64655 44.34683,6.83262 60.75514,-56.76494 41.42454,-88.19035 -32.99441,-34.13095 -27.97406,-78.42736 -2.29126,-115.47247 2.59706,-9.75344 0.71998,-19.9076 2.30143,-29.81978 z"
       style="fill:#000000;fill-opacity:1;stroke:#000000;stroke-width:4.75137663px;stroke-linecap:butt;stroke-linejoin:miter;stroke-opacity:1" />
    <path
       id="path3683"
       d="m 738.12013,187.62044 c -7.40807,39.17405 49.48007,51.85353 45.15641,90.45528 13.88324,168.51085 25.56835,338.1311 15.5926,507.15752 -1.13848,30.84 -11.45538,85.93981 -50.46048,49.75181 -18.37775,-7.80034 -42.44348,-49.82341 -58.21006,-36.18117 8.17341,36.80512 34.84241,66.20402 64.00204,88.58628 21.64456,18.13035 20.97956,59.18472 57.05058,58.9625 68.41588,3.37433 91.34403,-13.27126 87.78839,-85.27909 -4.50763,-39.00391 -6.43826,-78.12983 -4.23899,-117.38561 1.45387,-161.1388 -0.73404,-322.79869 -10.12143,-483.74373 3.68697,-35.62616 -3.69239,-81.50146 -41.82827,-95.48362 -30.60138,-13.19866 -65.29793,-19.44881 -98.31886,-13.17433 -2.13731,12.1114 -4.27462,24.22276 -6.41193,36.33416 z"
       style="fill:#000000;fill-opacity:1;stroke:#000000;stroke-width:4.75137663px;stroke-linecap:butt;stroke-linejoin:miter;stroke-opacity:1"
       sodipodi:nodetypes="ccccccccccccc" />
  </g>
</svg>
