<?xml version="1.0" encoding="UTF-8" standalone="no"?>
<!-- Created with Inkscape (http://www.inkscape.org/) -->

<svg
   xmlns:dc="http://purl.org/dc/elements/1.1/"
   xmlns:cc="http://creativecommons.org/ns#"
   xmlns:rdf="http://www.w3.org/1999/02/22-rdf-syntax-ns#"
   xmlns:svg="http://www.w3.org/2000/svg"
   xmlns="http://www.w3.org/2000/svg"
   xmlns:sodipodi="http://sodipodi.sourceforge.net/DTD/sodipodi-0.dtd"
   xmlns:inkscape="http://www.inkscape.org/namespaces/inkscape"
   width="1000"
   height="1000"
   id="svg3173"
   version="1.1"
   inkscape:version="0.47 r22583"
   sodipodi:docname="5de6.svg"
   inkscape:export-filename="E:\chinese\yan\5de6.png"
   inkscape:export-xdpi="18.005705"
   inkscape:export-ydpi="18.005705">
  <title
     id="title5895">Zuo</title>
  <defs
     id="defs3175">
    <inkscape:perspective
       sodipodi:type="inkscape:persp3d"
       inkscape:vp_x="0 : 526.18109 : 1"
       inkscape:vp_y="0 : 1000 : 0"
       inkscape:vp_z="744.09448 : 526.18109 : 1"
       inkscape:persp3d-origin="372.04724 : 350.78739 : 1"
       id="perspective3181" />
    <inkscape:perspective
       id="perspective3191"
       inkscape:persp3d-origin="0.5 : 0.33333333 : 1"
       inkscape:vp_z="1 : 0.5 : 1"
       inkscape:vp_y="0 : 1000 : 0"
       inkscape:vp_x="0 : 0.5 : 1"
       sodipodi:type="inkscape:persp3d" />
    <inkscape:perspective
       id="perspective4006"
       inkscape:persp3d-origin="0.5 : 0.33333333 : 1"
       inkscape:vp_z="1 : 0.5 : 1"
       inkscape:vp_y="0 : 1000 : 0"
       inkscape:vp_x="0 : 0.5 : 1"
       sodipodi:type="inkscape:persp3d" />
    <inkscape:perspective
       id="perspective4034"
       inkscape:persp3d-origin="0.5 : 0.33333333 : 1"
       inkscape:vp_z="1 : 0.5 : 1"
       inkscape:vp_y="0 : 1000 : 0"
       inkscape:vp_x="0 : 0.5 : 1"
       sodipodi:type="inkscape:persp3d" />
    <inkscape:perspective
       id="perspective4081"
       inkscape:persp3d-origin="0.5 : 0.33333333 : 1"
       inkscape:vp_z="1 : 0.5 : 1"
       inkscape:vp_y="0 : 1000 : 0"
       inkscape:vp_x="0 : 0.5 : 1"
       sodipodi:type="inkscape:persp3d" />
    <inkscape:perspective
       id="perspective4147"
       inkscape:persp3d-origin="0.5 : 0.33333333 : 1"
       inkscape:vp_z="1 : 0.5 : 1"
       inkscape:vp_y="0 : 1000 : 0"
       inkscape:vp_x="0 : 0.5 : 1"
       sodipodi:type="inkscape:persp3d" />
    <inkscape:perspective
       id="perspective3765"
       inkscape:persp3d-origin="0.5 : 0.33333333 : 1"
       inkscape:vp_z="1 : 0.5 : 1"
       inkscape:vp_y="0 : 1000 : 0"
       inkscape:vp_x="0 : 0.5 : 1"
       sodipodi:type="inkscape:persp3d" />
    <inkscape:perspective
       id="perspective3793"
       inkscape:persp3d-origin="0.5 : 0.33333333 : 1"
       inkscape:vp_z="1 : 0.5 : 1"
       inkscape:vp_y="0 : 1000 : 0"
       inkscape:vp_x="0 : 0.5 : 1"
       sodipodi:type="inkscape:persp3d" />
    <inkscape:perspective
       id="perspective3780"
       inkscape:persp3d-origin="0.5 : 0.33333333 : 1"
       inkscape:vp_z="1 : 0.5 : 1"
       inkscape:vp_y="0 : 1000 : 0"
       inkscape:vp_x="0 : 0.5 : 1"
       sodipodi:type="inkscape:persp3d" />
    <inkscape:perspective
       id="perspective2993"
       inkscape:persp3d-origin="0.5 : 0.33333333 : 1"
       inkscape:vp_z="1 : 0.5 : 1"
       inkscape:vp_y="0 : 1000 : 0"
       inkscape:vp_x="0 : 0.5 : 1"
       sodipodi:type="inkscape:persp3d" />
    <inkscape:perspective
       id="perspective3767"
       inkscape:persp3d-origin="0.5 : 0.33333333 : 1"
       inkscape:vp_z="1 : 0.5 : 1"
       inkscape:vp_y="0 : 1000 : 0"
       inkscape:vp_x="0 : 0.5 : 1"
       sodipodi:type="inkscape:persp3d" />
    <inkscape:perspective
       id="perspective3879"
       inkscape:persp3d-origin="0.5 : 0.33333333 : 1"
       inkscape:vp_z="1 : 0.5 : 1"
       inkscape:vp_y="0 : 1000 : 0"
       inkscape:vp_x="0 : 0.5 : 1"
       sodipodi:type="inkscape:persp3d" />
    <inkscape:perspective
       id="perspective3897"
       inkscape:persp3d-origin="0.5 : 0.33333333 : 1"
       inkscape:vp_z="1 : 0.5 : 1"
       inkscape:vp_y="0 : 1000 : 0"
       inkscape:vp_x="0 : 0.5 : 1"
       sodipodi:type="inkscape:persp3d" />
    <inkscape:perspective
       id="perspective3767-1"
       inkscape:persp3d-origin="0.5 : 0.33333333 : 1"
       inkscape:vp_z="1 : 0.5 : 1"
       inkscape:vp_y="0 : 1000 : 0"
       inkscape:vp_x="0 : 0.5 : 1"
       sodipodi:type="inkscape:persp3d" />
    <inkscape:perspective
       id="perspective3822"
       inkscape:persp3d-origin="0.5 : 0.33333333 : 1"
       inkscape:vp_z="1 : 0.5 : 1"
       inkscape:vp_y="0 : 1000 : 0"
       inkscape:vp_x="0 : 0.5 : 1"
       sodipodi:type="inkscape:persp3d" />
    <inkscape:perspective
       id="perspective3853"
       inkscape:persp3d-origin="0.5 : 0.33333333 : 1"
       inkscape:vp_z="1 : 0.5 : 1"
       inkscape:vp_y="0 : 1000 : 0"
       inkscape:vp_x="0 : 0.5 : 1"
       sodipodi:type="inkscape:persp3d" />
    <inkscape:perspective
       id="perspective3875"
       inkscape:persp3d-origin="0.5 : 0.33333333 : 1"
       inkscape:vp_z="1 : 0.5 : 1"
       inkscape:vp_y="0 : 1000 : 0"
       inkscape:vp_x="0 : 0.5 : 1"
       sodipodi:type="inkscape:persp3d" />
    <inkscape:perspective
       id="perspective3901"
       inkscape:persp3d-origin="0.5 : 0.33333333 : 1"
       inkscape:vp_z="1 : 0.5 : 1"
       inkscape:vp_y="0 : 1000 : 0"
       inkscape:vp_x="0 : 0.5 : 1"
       sodipodi:type="inkscape:persp3d" />
    <inkscape:perspective
       id="perspective3937"
       inkscape:persp3d-origin="0.5 : 0.33333333 : 1"
       inkscape:vp_z="1 : 0.5 : 1"
       inkscape:vp_y="0 : 1000 : 0"
       inkscape:vp_x="0 : 0.5 : 1"
       sodipodi:type="inkscape:persp3d" />
  </defs>
  <sodipodi:namedview
     id="base"
     pagecolor="#ffffff"
     bordercolor="#666666"
     borderopacity="1.0"
     inkscape:pageopacity="0.0"
     inkscape:pageshadow="2"
     inkscape:zoom="0.49497475"
     inkscape:cx="535.09853"
     inkscape:cy="484.81797"
     inkscape:document-units="px"
     inkscape:current-layer="g7500"
     showgrid="false"
     inkscape:window-width="1440"
     inkscape:window-height="840"
     inkscape:window-x="-4"
     inkscape:window-y="-4"
     inkscape:window-maximized="1" />
  <metadata
     id="metadata3178">
    <rdf:RDF>
      <cc:Work
         rdf:about="">
        <dc:format>image/svg+xml</dc:format>
        <dc:type
           rdf:resource="http://purl.org/dc/dcmitype/StillImage" />
        <dc:title>Zuo</dc:title>
        <dc:date>2010-08-10</dc:date>
        <dc:creator>
          <cc:Agent>
            <dc:title>Alex Amies</dc:title>
          </cc:Agent>
        </dc:creator>
        <dc:rights>
          <cc:Agent>
            <dc:title>@ Alex Amies 2010</dc:title>
          </cc:Agent>
        </dc:rights>
        <dc:publisher>
          <cc:Agent>
            <dc:title>chinesenotes.com</dc:title>
          </cc:Agent>
        </dc:publisher>
        <dc:source>Yan Qin Ceremonial Inscription</dc:source>
        <dc:language>Chinese 中文</dc:language>
        <dc:description>Tracing from Tang Dynasty Ceremonial Inscription by Yan Zhenqing 颜真卿 (709－785)</dc:description>
        <cc:license
           rdf:resource="http://creativecommons.org/licenses/by/3.0/" />
      </cc:Work>
      <cc:License
         rdf:about="http://creativecommons.org/licenses/by/3.0/">
        <cc:permits
           rdf:resource="http://creativecommons.org/ns#Reproduction" />
        <cc:permits
           rdf:resource="http://creativecommons.org/ns#Distribution" />
        <cc:requires
           rdf:resource="http://creativecommons.org/ns#Notice" />
        <cc:requires
           rdf:resource="http://creativecommons.org/ns#Attribution" />
        <cc:permits
           rdf:resource="http://creativecommons.org/ns#DerivativeWorks" />
      </cc:License>
    </rdf:RDF>
  </metadata>
  <g
     inkscape:label="Layer 1"
     inkscape:groupmode="layer"
     id="layer1"
     transform="translate(0,-52.362183)">
    <g
       transform="matrix(4.7513766,0,0,4.7513766,-2223.1254,31.218808)"
       id="g5443"
       style="fill:#000000;fill-opacity:1">
      <g
         transform="matrix(0.99798587,0,0,0.99798587,182.62029,-626.46558)"
         id="g7363"
         style="fill:none;fill-opacity:1">
        <g
           transform="matrix(1.0020182,0,0,1.0020182,196.85146,422.83464)"
           id="g7500"
           style="fill:none;fill-opacity:1">
          <path
             style="fill:#000000;stroke:#000000;stroke-width:4.74180697999999980px;stroke-linecap:butt;stroke-linejoin:miter;stroke-opacity:1;fill-opacity:1"
             d="M 591.5625 92.46875 C 546.94018 124.68009 578.22113 192.17481 564.46875 240.5625 C 562.46248 251.65043 560.26092 262.73409 557.90625 273.84375 C 541.0411 279.02899 524.05954 283.57382 506.90625 287.21875 C 489.47169 289.8808 470.84757 277.58088 453.15625 280 C 435.74792 280.97427 423.25802 288.9805 418.84375 305.84375 C 423.43947 326.61492 452.19725 342.70191 475.5 345.5 C 499.96092 348.43709 522.06913 336.55365 544.71875 329.375 C 508.57442 466.5308 446.65152 601.71357 363.5625 714 C 351.80351 737.56355 305.91843 768.47928 314 784.78125 C 349.24666 793.4814 368.34318 748.29171 393.90625 730.09375 C 516.12719 608.38865 567.02878 461.33846 611.71875 307.75 C 654.19507 293.27587 696.54743 278.36098 739.84375 268.40625 C 766.45303 262.28823 804.1344 275.71384 821.875 261.8125 C 838.25984 248.97357 807.81542 214.74262 787.8125 205.5 C 763.15347 194.10596 735.87669 204.21692 711.40625 215.78125 C 684.0548 226.59603 656.48478 238.06824 628.625 248.875 C 638.07649 215.71327 647.59671 182.38862 657.875 149.03125 C 666.00099 111.70016 624.64605 91.164883 592.3125 92.5625 L 591.5625 92.46875 z M 276.28125 124.375 C 272.72561 124.32141 269.73164 125.21973 268.09375 128.03125 C 227.03188 198.51526 178.86639 276.1325 133.90625 349.96875 C 114.53555 382.18128 94.959503 414.29384 79.71875 448.71875 C 71.354854 464.28887 104.71168 456.00077 109.65625 447.625 C 134.55342 432.09774 162.98229 420.35547 178.8125 394.28125 C 182.5035 389.77242 186.17408 385.2489 189.84375 380.71875 C 188.02763 407.28952 199.44358 437.65557 195.3125 464.25 C 190.88826 606.46317 185.4132 749.98335 166.78125 891.25 C 166.28991 932.16553 229.02817 942.41949 236.625 900.71875 C 253.09964 877.66735 232.01833 849.67287 238.46875 823.8125 C 245.00683 700.11416 247.45989 576.12101 257.5625 452.65625 C 261.64773 429.66709 261.37381 406.59844 256 383.90625 C 257.94906 363.99181 240.64998 356.60739 224.59375 350.03125 C 220.94532 350.48729 217.30467 350.9502 213.65625 351.40625 C 235.87537 324.22951 258.6613 297.53684 284.15625 273.3125 C 302.28997 263.55626 321.59267 256.78207 341.53125 251.90625 C 364.06019 250.96339 356.90308 225.84407 348.84375 212.46875 C 336.60658 186.58239 326.87517 158.02744 312.125 134.8125 C 308.99299 129.88314 301.12367 128.93967 295.21875 128.03125 C 289.7362 127.18776 282.20732 124.46431 276.28125 124.375 z M 803.25 476.90625 C 728.42157 484.84718 665.27622 532.48328 593.65625 553.5 C 581.7828 555.28067 567.62724 551.67189 557.6875 556.5 C 549.36247 560.54375 552.2775 570.72057 557.03125 580.625 C 566.3859 600.11519 578.54642 618.48743 600.6875 615.59375 C 626.75597 612.18682 651.97453 604.03107 677.03125 595.03125 C 673.76136 648.40882 667.24597 702.53148 667.78125 756.21875 C 667.28774 764.33341 669.19797 771.2455 672.71875 777.03125 C 641.21696 781.96583 609.87684 787.98846 579.875 799.46875 C 556.81229 808.29381 533.53882 819.08833 507.9375 816.875 C 486.25968 815.00082 453.86153 804.46251 442.53125 815.59375 C 430.17549 827.73247 461.45018 856.73784 474.65625 874.375 C 481.64134 883.70381 489.49978 894.83209 500.125 898.59375 C 525.0597 907.42143 550.74781 888.84067 575.15625 879.53125 C 662.14384 838.14685 763.60509 820.22995 856.78125 850.65625 C 874.81239 857.77006 896.66248 867.28416 916.1875 861.125 C 938.27147 854.15863 919.64565 818.56022 911.3125 806.9375 C 894.40188 783.35148 871.05874 759.39842 842.875 752.9375 C 812.31349 745.9314 780.57653 755.53646 749.03125 763.5 C 755.03462 745.32068 759.21379 725.72327 762.84375 706.90625 C 767.27365 683.94247 780.63689 658.26144 774.46875 637.78125 C 768.186 616.92052 746.20941 597.36673 728 583.34375 C 725.88408 581.71429 723.52201 580.34422 721 579.1875 C 735.3033 574.27929 749.68115 569.81609 764.28125 566.59375 C 783.72963 562.3014 805.56902 568.90346 824.4375 564.4375 C 833.51068 562.29002 844.83244 557.56565 848.96875 549.71875 C 857.37199 533.77698 848.80292 510.96229 834.09375 498.5 C 824.54648 490.41107 814.71616 477.35354 803.25 476.90625 z "
             transform="matrix(0.21046532,0,0,0.21046532,88.815534,208.93253)"
             id="path7472" />
        </g>
      </g>
    </g>
  </g>
</svg>
