<?xml version="1.0" encoding="UTF-8" standalone="no"?>
<!-- Created with Inkscape (http://www.inkscape.org/) -->

<svg
   xmlns:dc="http://purl.org/dc/elements/1.1/"
   xmlns:cc="http://creativecommons.org/ns#"
   xmlns:rdf="http://www.w3.org/1999/02/22-rdf-syntax-ns#"
   xmlns:svg="http://www.w3.org/2000/svg"
   xmlns="http://www.w3.org/2000/svg"
   xmlns:sodipodi="http://sodipodi.sourceforge.net/DTD/sodipodi-0.dtd"
   xmlns:inkscape="http://www.inkscape.org/namespaces/inkscape"
   width="1000"
   height="1000"
   id="svg3173"
   version="1.1"
   inkscape:version="0.47 r22583"
   sodipodi:docname="5e78.svg"
   inkscape:export-filename="E:\chinese\yan\5e78.png"
   inkscape:export-xdpi="18.005705"
   inkscape:export-ydpi="18.005705">
  <title
     id="title4245">Xing</title>
  <defs
     id="defs3175">
    <inkscape:perspective
       sodipodi:type="inkscape:persp3d"
       inkscape:vp_x="0 : 526.18109 : 1"
       inkscape:vp_y="0 : 1000 : 0"
       inkscape:vp_z="744.09448 : 526.18109 : 1"
       inkscape:persp3d-origin="372.04724 : 350.78739 : 1"
       id="perspective3181" />
    <inkscape:perspective
       id="perspective3191"
       inkscape:persp3d-origin="0.5 : 0.33333333 : 1"
       inkscape:vp_z="1 : 0.5 : 1"
       inkscape:vp_y="0 : 1000 : 0"
       inkscape:vp_x="0 : 0.5 : 1"
       sodipodi:type="inkscape:persp3d" />
    <inkscape:perspective
       id="perspective4006"
       inkscape:persp3d-origin="0.5 : 0.33333333 : 1"
       inkscape:vp_z="1 : 0.5 : 1"
       inkscape:vp_y="0 : 1000 : 0"
       inkscape:vp_x="0 : 0.5 : 1"
       sodipodi:type="inkscape:persp3d" />
    <inkscape:perspective
       id="perspective4034"
       inkscape:persp3d-origin="0.5 : 0.33333333 : 1"
       inkscape:vp_z="1 : 0.5 : 1"
       inkscape:vp_y="0 : 1000 : 0"
       inkscape:vp_x="0 : 0.5 : 1"
       sodipodi:type="inkscape:persp3d" />
    <inkscape:perspective
       id="perspective4081"
       inkscape:persp3d-origin="0.5 : 0.33333333 : 1"
       inkscape:vp_z="1 : 0.5 : 1"
       inkscape:vp_y="0 : 1000 : 0"
       inkscape:vp_x="0 : 0.5 : 1"
       sodipodi:type="inkscape:persp3d" />
    <inkscape:perspective
       id="perspective4147"
       inkscape:persp3d-origin="0.5 : 0.33333333 : 1"
       inkscape:vp_z="1 : 0.5 : 1"
       inkscape:vp_y="0 : 1000 : 0"
       inkscape:vp_x="0 : 0.5 : 1"
       sodipodi:type="inkscape:persp3d" />
    <inkscape:perspective
       id="perspective3801"
       inkscape:persp3d-origin="0.5 : 0.33333333 : 1"
       inkscape:vp_z="1 : 0.5 : 1"
       inkscape:vp_y="0 : 1000 : 0"
       inkscape:vp_x="0 : 0.5 : 1"
       sodipodi:type="inkscape:persp3d" />
    <inkscape:perspective
       id="perspective3122"
       inkscape:persp3d-origin="0.5 : 0.33333333 : 1"
       inkscape:vp_z="1 : 0.5 : 1"
       inkscape:vp_y="0 : 1000 : 0"
       inkscape:vp_x="0 : 0.5 : 1"
       sodipodi:type="inkscape:persp3d" />
    <inkscape:perspective
       id="perspective3854"
       inkscape:persp3d-origin="0.5 : 0.33333333 : 1"
       inkscape:vp_z="1 : 0.5 : 1"
       inkscape:vp_y="0 : 1000 : 0"
       inkscape:vp_x="0 : 0.5 : 1"
       sodipodi:type="inkscape:persp3d" />
    <inkscape:perspective
       id="perspective3922"
       inkscape:persp3d-origin="0.5 : 0.33333333 : 1"
       inkscape:vp_z="1 : 0.5 : 1"
       inkscape:vp_y="0 : 1000 : 0"
       inkscape:vp_x="0 : 0.5 : 1"
       sodipodi:type="inkscape:persp3d" />
    <inkscape:perspective
       id="perspective3945"
       inkscape:persp3d-origin="0.5 : 0.33333333 : 1"
       inkscape:vp_z="1 : 0.5 : 1"
       inkscape:vp_y="0 : 1000 : 0"
       inkscape:vp_x="0 : 0.5 : 1"
       sodipodi:type="inkscape:persp3d" />
    <inkscape:perspective
       id="perspective3972"
       inkscape:persp3d-origin="0.5 : 0.33333333 : 1"
       inkscape:vp_z="1 : 0.5 : 1"
       inkscape:vp_y="0 : 1000 : 0"
       inkscape:vp_x="0 : 0.5 : 1"
       sodipodi:type="inkscape:persp3d" />
    <inkscape:perspective
       id="perspective3995"
       inkscape:persp3d-origin="0.5 : 0.33333333 : 1"
       inkscape:vp_z="1 : 0.5 : 1"
       inkscape:vp_y="0 : 1000 : 0"
       inkscape:vp_x="0 : 0.5 : 1"
       sodipodi:type="inkscape:persp3d" />
  </defs>
  <sodipodi:namedview
     id="base"
     pagecolor="#ffffff"
     bordercolor="#666666"
     borderopacity="1.0"
     inkscape:pageopacity="0.0"
     inkscape:pageshadow="2"
     inkscape:zoom="0.49497475"
     inkscape:cx="400.23851"
     inkscape:cy="520.83683"
     inkscape:document-units="px"
     inkscape:current-layer="g4634"
     showgrid="false"
     inkscape:window-width="1440"
     inkscape:window-height="840"
     inkscape:window-x="-4"
     inkscape:window-y="-4"
     inkscape:window-maximized="1" />
  <metadata
     id="metadata3178">
    <rdf:RDF>
      <cc:Work
         rdf:about="">
        <dc:format>image/svg+xml</dc:format>
        <dc:type
           rdf:resource="http://purl.org/dc/dcmitype/StillImage" />
        <dc:title>Xing</dc:title>
        <dc:date>2010-08-21</dc:date>
        <dc:creator>
          <cc:Agent>
            <dc:title>Alex Amies</dc:title>
          </cc:Agent>
        </dc:creator>
        <dc:rights>
          <cc:Agent>
            <dc:title>@ Alex Amies 2010</dc:title>
          </cc:Agent>
        </dc:rights>
        <dc:publisher>
          <cc:Agent>
            <dc:title>chinesenotes.com</dc:title>
          </cc:Agent>
        </dc:publisher>
        <dc:source>Yan Qin Ceremonial Inscription</dc:source>
        <dc:language>Chinese 中文</dc:language>
        <dc:description>Tracing from Tang Dynasty Ceremonial Inscription by Yan Zhenqing 颜真卿 (709－785)</dc:description>
        <cc:license
           rdf:resource="http://creativecommons.org/licenses/by/3.0/" />
      </cc:Work>
      <cc:License
         rdf:about="http://creativecommons.org/licenses/by/3.0/">
        <cc:permits
           rdf:resource="http://creativecommons.org/ns#Reproduction" />
        <cc:permits
           rdf:resource="http://creativecommons.org/ns#Distribution" />
        <cc:requires
           rdf:resource="http://creativecommons.org/ns#Notice" />
        <cc:requires
           rdf:resource="http://creativecommons.org/ns#Attribution" />
        <cc:permits
           rdf:resource="http://creativecommons.org/ns#DerivativeWorks" />
      </cc:License>
    </rdf:RDF>
  </metadata>
  <g
     inkscape:label="Layer 1"
     inkscape:groupmode="layer"
     id="layer1"
     transform="translate(0,-52.362183)">
    <g
       transform="matrix(4.7609464,0,0,4.7609464,-444.07486,-2879.5352)"
       id="g4634"
       style="fill:#000000;fill-opacity:1">
      <path
         style="fill:#000000;stroke:#000000;stroke-width:4.61051178000000040px;stroke-linecap:butt;stroke-linejoin:miter;stroke-opacity:1;fill-opacity:1"
         d="M 452.46875 7.84375 L 440.9375 19.375 C 446.46691 66.340546 452.17282 113.3117 456 160.4375 C 456.17025 166.78516 456.34119 173.15231 456.53125 179.5 C 444.40301 180.80903 432.26445 182.20274 420.21875 184 C 400.65616 188.46305 382.47745 197.27289 363.5625 203.78125 C 349.20687 216.87947 347.9965 240.77332 360.0625 255.78125 C 365.80306 267.29279 382.64826 283.49793 394.78125 271.28125 C 404.55143 261.22818 412.6306 247.91244 427.15625 244.3125 C 437.30316 240.02079 447.78446 237.08951 458.4375 234.9375 C 459.41196 261.07356 460.49559 287.19412 461.625 313.3125 C 435.19751 316.1154 408.75162 318.6984 382.34375 321.34375 C 345.0166 323.78093 307.30439 314.69995 270.15625 319.71875 C 239.82964 325.24235 206.09873 330.89096 185.78125 356.65625 L 183.21875 360 L 180.78125 363.5 C 171.8998 388.70588 193.78641 413.7386 219.8125 409.46875 C 260.55135 414.72631 301.19958 406.53427 340.5 396.5 C 342.74957 396.0133 345.01376 395.56548 347.28125 395.125 C 344.34582 399.00771 342.02311 403.35053 340.5 407.96875 C 337.50489 420.3045 340.38521 434.44577 343.6875 447.25 C 345.32636 461.64277 358.66694 472.64376 370.15625 480.40625 C 397.86905 485.09126 419.415 506.04849 447.53125 508.40625 C 450.31997 507.44554 452.60528 500.14415 450.8125 496.875 C 443.27445 483.1292 425.40059 472.43116 419.53125 457.375 C 412.77656 440.04777 420.29894 416.04513 412.96875 399.71875 C 410.49906 394.21813 405.45193 388.79236 399.6875 384.53125 C 404.80625 383.0547 409.85334 381.33817 414.78125 379.28125 C 428.54368 368.22842 444.21513 361.2148 460.9375 357.84375 C 460.85896 359.72862 460.79728 361.61513 460.71875 363.5 C 470.92232 375.0013 484.35823 389.97126 500.21875 391.5 C 515.488 382.14136 527.87394 362.86118 540.875 347.65625 C 555.60431 345.27877 569.95434 342.75545 584.125 340.25 C 581.64172 341.76902 579.41356 343.50508 577.625 345.40625 C 557.55799 382.93379 520.73617 411.4563 506.8125 452.40625 C 505.06361 459.60271 505.86238 472.69812 511.75 475.46875 C 524.524 481.48006 547.45762 483.45707 562.78125 478.78125 C 586.55427 466.43507 610.61358 446.23116 627 424.4375 C 639.51705 403.90811 633.32083 377.20149 626.28125 355.5 C 624.68734 344.92384 618.52895 339.21849 609.71875 335.75 C 663.52001 326.38608 716.26129 318.49092 778.46875 320.4375 C 800.69789 318.45847 824.7883 287.83347 809.25 267.40625 C 795.42288 248.83399 766.64166 230.94404 749.125 255.34375 C 720.7102 267.42608 690.03338 273.13896 660.65625 282.46875 C 624.0284 290.96371 587.02897 297.36488 549.84375 302.625 C 551.45437 294.12186 553.0489 285.60064 554.46875 277.0625 C 552.53059 259.06578 550.52458 241.08652 548.53125 223.09375 C 575.21649 219.7348 601.9095 216.48792 628.65625 213.65625 C 641.64478 201.27727 655.5322 188.43165 661 170.78125 C 664.74677 158.42412 653.82658 145.28081 642.59375 141.34375 C 632.02735 134.63791 621.61313 133.83499 611.53125 142.34375 C 592.25365 152.69928 572.20006 162.39317 550.34375 165.625 C 547.76156 166.26767 545.18646 166.89123 542.59375 167.46875 C 540.28545 144.46323 538.20082 121.44795 536.625 98.375 C 536.69546 83.561934 532.37101 70.516739 518.8125 63.1875 C 501.23585 49.202077 484.67298 34.047589 469.71875 17.28125 C 465.84163 13.527244 462.93775 7.9797602 456.75 8.5625 C 455.32495 8.3249288 453.8938 8.0811308 452.46875 7.84375 z "
         transform="matrix(0.21004227,0,0,0.21004227,93.274493,615.82239)"
         id="path4783" />
      <path
         style="fill:#000000;stroke:#000000;stroke-width:4.61051178000000040px;stroke-linecap:butt;stroke-linejoin:miter;stroke-opacity:1;fill-opacity:1"
         d="M 641.84375 488.4375 C 625.47173 488.19701 610.10718 499.05638 594.09375 503.46875 C 568.54687 511.23719 542.70846 517.84697 516.65625 523.46875 C 504.27112 514.69923 490.52801 508.84821 475.53125 510.0625 C 470.64185 511.36805 462.32883 516.33123 462.46875 521.90625 C 462.43568 525.862 462.4177 529.79751 462.40625 533.71875 C 439.43734 537.46967 416.34798 540.55251 393.1875 543 C 366.93964 545.33472 333.10972 526.31745 314.15625 544.625 C 308.10704 556.52851 310.81487 574.32852 314.15625 587.4375 C 317.9103 595.9974 324.12651 604.27591 332.28125 608.84375 C 338.57974 612.37175 346.49023 612.7198 353.6875 612.15625 C 380.68368 610.04244 404.66029 593.45291 431.0625 587.4375 C 441.69066 586.168 452.28951 584.67206 462.875 583.0625 C 463.47794 611.04506 464.64879 638.38335 466.46875 665.46875 C 436.52428 671.85003 406.54171 677.83251 376.28125 681.625 C 342.39683 685.87172 307.83277 688.73663 273.6875 686.96875 C 260.23735 686.27237 243.42955 676.18981 233.46875 682.9375 C 212.54996 697.10846 243.31735 724.74318 249.6875 745.75 C 257.92303 772.9082 282.26145 769.76312 302.90625 765.375 C 340.75249 757.33062 377.48204 744.03223 414.53125 732.625 C 433.17716 727.29854 451.91369 722.06523 470.71875 717.0625 C 475.56415 767.01583 482.55098 817.06666 491.84375 869.96875 C 499.39461 908.37988 499.03677 951.54861 519.96875 985.9375 C 522.84746 989.90027 531.1786 992.21484 533.96875 983.78125 C 568.29941 922.55691 574.03277 855.52523 573.28125 786.21875 C 570.82885 756.32581 572.08513 724.63184 572.375 692.9375 C 598.20573 687.69025 624.17296 683.17268 650.25 679.71875 C 666.6865 678.09122 683.69387 678.49063 699.125 685.875 C 707.70332 689.98008 717.48351 698.35679 725.8125 696.125 C 742.19316 691.73565 767.57179 677.30691 771.90625 658.625 C 774.64079 646.83871 765.63512 642.07865 757.90625 636.59375 C 742.72992 625.82358 729.72303 602.81176 712.625 603.90625 C 667.62068 606.78716 619.8036 633.56797 571.375 644.125 C 569.72696 617.71752 565.68296 591.99479 556.375 568.03125 C 580.33984 564.58185 604.38515 561.90082 628.65625 561.09375 C 639.64585 560.91141 651.52697 567.16192 661.59375 562.75 C 669.44631 559.30855 676.04091 551.33189 678.0625 543 C 679.81515 519.7213 666.87077 496.93834 645.125 488.65625 C 644.02415 488.53645 642.93522 488.45353 641.84375 488.4375 z "
         transform="matrix(0.21004227,0,0,0.21004227,93.274493,615.82239)"
         id="path4793" />
    </g>
  </g>
</svg>
