<?xml version="1.0" encoding="UTF-8" standalone="no"?>
<!-- Created with Inkscape (http://www.inkscape.org/) -->

<svg
   xmlns:dc="http://purl.org/dc/elements/1.1/"
   xmlns:cc="http://creativecommons.org/ns#"
   xmlns:rdf="http://www.w3.org/1999/02/22-rdf-syntax-ns#"
   xmlns:svg="http://www.w3.org/2000/svg"
   xmlns="http://www.w3.org/2000/svg"
   xmlns:sodipodi="http://sodipodi.sourceforge.net/DTD/sodipodi-0.dtd"
   xmlns:inkscape="http://www.inkscape.org/namespaces/inkscape"
   width="1000"
   height="1000"
   id="svg3173"
   version="1.1"
   inkscape:version="0.47 r22583"
   sodipodi:docname="5e79.svg"
   inkscape:export-filename="E:\chinese\yan\5e79.png"
   inkscape:export-xdpi="18.005705"
   inkscape:export-ydpi="18.005705">
  <title
     id="title5465">Gan</title>
  <defs
     id="defs3175">
    <inkscape:perspective
       sodipodi:type="inkscape:persp3d"
       inkscape:vp_x="0 : 526.18109 : 1"
       inkscape:vp_y="0 : 1000 : 0"
       inkscape:vp_z="744.09448 : 526.18109 : 1"
       inkscape:persp3d-origin="372.04724 : 350.78739 : 1"
       id="perspective3181" />
    <inkscape:perspective
       id="perspective3191"
       inkscape:persp3d-origin="0.5 : 0.33333333 : 1"
       inkscape:vp_z="1 : 0.5 : 1"
       inkscape:vp_y="0 : 1000 : 0"
       inkscape:vp_x="0 : 0.5 : 1"
       sodipodi:type="inkscape:persp3d" />
    <inkscape:perspective
       id="perspective4006"
       inkscape:persp3d-origin="0.5 : 0.33333333 : 1"
       inkscape:vp_z="1 : 0.5 : 1"
       inkscape:vp_y="0 : 1000 : 0"
       inkscape:vp_x="0 : 0.5 : 1"
       sodipodi:type="inkscape:persp3d" />
    <inkscape:perspective
       id="perspective4034"
       inkscape:persp3d-origin="0.5 : 0.33333333 : 1"
       inkscape:vp_z="1 : 0.5 : 1"
       inkscape:vp_y="0 : 1000 : 0"
       inkscape:vp_x="0 : 0.5 : 1"
       sodipodi:type="inkscape:persp3d" />
    <inkscape:perspective
       id="perspective4081"
       inkscape:persp3d-origin="0.5 : 0.33333333 : 1"
       inkscape:vp_z="1 : 0.5 : 1"
       inkscape:vp_y="0 : 1000 : 0"
       inkscape:vp_x="0 : 0.5 : 1"
       sodipodi:type="inkscape:persp3d" />
    <inkscape:perspective
       id="perspective4147"
       inkscape:persp3d-origin="0.5 : 0.33333333 : 1"
       inkscape:vp_z="1 : 0.5 : 1"
       inkscape:vp_y="0 : 1000 : 0"
       inkscape:vp_x="0 : 0.5 : 1"
       sodipodi:type="inkscape:persp3d" />
    <inkscape:perspective
       id="perspective3858"
       inkscape:persp3d-origin="0.5 : 0.33333333 : 1"
       inkscape:vp_z="1 : 0.5 : 1"
       inkscape:vp_y="0 : 1000 : 0"
       inkscape:vp_x="0 : 0.5 : 1"
       sodipodi:type="inkscape:persp3d" />
    <inkscape:perspective
       id="perspective3876"
       inkscape:persp3d-origin="0.5 : 0.33333333 : 1"
       inkscape:vp_z="1 : 0.5 : 1"
       inkscape:vp_y="0 : 1000 : 0"
       inkscape:vp_x="0 : 0.5 : 1"
       sodipodi:type="inkscape:persp3d" />
    <inkscape:perspective
       id="perspective3901"
       inkscape:persp3d-origin="0.5 : 0.33333333 : 1"
       inkscape:vp_z="1 : 0.5 : 1"
       inkscape:vp_y="0 : 1000 : 0"
       inkscape:vp_x="0 : 0.5 : 1"
       sodipodi:type="inkscape:persp3d" />
    <inkscape:perspective
       id="perspective4392"
       inkscape:persp3d-origin="0.5 : 0.33333333 : 1"
       inkscape:vp_z="1 : 0.5 : 1"
       inkscape:vp_y="0 : 1000 : 0"
       inkscape:vp_x="0 : 0.5 : 1"
       sodipodi:type="inkscape:persp3d" />
    <inkscape:perspective
       id="perspective3806"
       inkscape:persp3d-origin="0.5 : 0.33333333 : 1"
       inkscape:vp_z="1 : 0.5 : 1"
       inkscape:vp_y="0 : 1000 : 0"
       inkscape:vp_x="0 : 0.5 : 1"
       sodipodi:type="inkscape:persp3d" />
    <inkscape:perspective
       id="perspective3763"
       inkscape:persp3d-origin="0.5 : 0.33333333 : 1"
       inkscape:vp_z="1 : 0.5 : 1"
       inkscape:vp_y="0 : 1000 : 0"
       inkscape:vp_x="0 : 0.5 : 1"
       sodipodi:type="inkscape:persp3d" />
    <inkscape:perspective
       id="perspective3790"
       inkscape:persp3d-origin="0.5 : 0.33333333 : 1"
       inkscape:vp_z="1 : 0.5 : 1"
       inkscape:vp_y="0 : 1000 : 0"
       inkscape:vp_x="0 : 0.5 : 1"
       sodipodi:type="inkscape:persp3d" />
    <inkscape:perspective
       id="perspective3825"
       inkscape:persp3d-origin="0.5 : 0.33333333 : 1"
       inkscape:vp_z="1 : 0.5 : 1"
       inkscape:vp_y="0 : 1000 : 0"
       inkscape:vp_x="0 : 0.5 : 1"
       sodipodi:type="inkscape:persp3d" />
    <inkscape:perspective
       id="perspective3767"
       inkscape:persp3d-origin="0.5 : 0.33333333 : 1"
       inkscape:vp_z="1 : 0.5 : 1"
       inkscape:vp_y="0 : 1000 : 0"
       inkscape:vp_x="0 : 0.5 : 1"
       sodipodi:type="inkscape:persp3d" />
    <inkscape:perspective
       id="perspective3792"
       inkscape:persp3d-origin="0.5 : 0.33333333 : 1"
       inkscape:vp_z="1 : 0.5 : 1"
       inkscape:vp_y="0 : 1000 : 0"
       inkscape:vp_x="0 : 0.5 : 1"
       sodipodi:type="inkscape:persp3d" />
    <inkscape:perspective
       id="perspective4344"
       inkscape:persp3d-origin="0.5 : 0.33333333 : 1"
       inkscape:vp_z="1 : 0.5 : 1"
       inkscape:vp_y="0 : 1000 : 0"
       inkscape:vp_x="0 : 0.5 : 1"
       sodipodi:type="inkscape:persp3d" />
  </defs>
  <sodipodi:namedview
     id="base"
     pagecolor="#ffffff"
     bordercolor="#666666"
     borderopacity="1.0"
     inkscape:pageopacity="0.0"
     inkscape:pageshadow="2"
     inkscape:zoom="0.49497475"
     inkscape:cx="413.61348"
     inkscape:cy="540.34663"
     inkscape:document-units="px"
     inkscape:current-layer="g4371"
     showgrid="false"
     inkscape:window-width="1440"
     inkscape:window-height="840"
     inkscape:window-x="-4"
     inkscape:window-y="-4"
     inkscape:window-maximized="1" />
  <metadata
     id="metadata3178">
    <rdf:RDF>
      <cc:Work
         rdf:about="">
        <dc:format>image/svg+xml</dc:format>
        <dc:type
           rdf:resource="http://purl.org/dc/dcmitype/StillImage" />
        <dc:title>Gan</dc:title>
        <dc:date>2010-08-11</dc:date>
        <dc:creator>
          <cc:Agent>
            <dc:title>Alex Amies</dc:title>
          </cc:Agent>
        </dc:creator>
        <dc:rights>
          <cc:Agent>
            <dc:title>@ Alex Amies 2010</dc:title>
          </cc:Agent>
        </dc:rights>
        <dc:publisher>
          <cc:Agent>
            <dc:title>chinesenotes.com</dc:title>
          </cc:Agent>
        </dc:publisher>
        <dc:source>Yan Qin Ceremonial Inscription</dc:source>
        <dc:language>Chinese 中文</dc:language>
        <dc:description>Tracing from Tang Dynasty Ceremonial Inscription by Yan Zhenqing 颜真卿 (709－785)</dc:description>
        <cc:license
           rdf:resource="http://creativecommons.org/licenses/by/3.0/" />
      </cc:Work>
      <cc:License
         rdf:about="http://creativecommons.org/licenses/by/3.0/">
        <cc:permits
           rdf:resource="http://creativecommons.org/ns#Reproduction" />
        <cc:permits
           rdf:resource="http://creativecommons.org/ns#Distribution" />
        <cc:requires
           rdf:resource="http://creativecommons.org/ns#Notice" />
        <cc:requires
           rdf:resource="http://creativecommons.org/ns#Attribution" />
        <cc:permits
           rdf:resource="http://creativecommons.org/ns#DerivativeWorks" />
      </cc:License>
    </rdf:RDF>
  </metadata>
  <g
     inkscape:label="Layer 1"
     inkscape:groupmode="layer"
     id="layer1"
     transform="translate(0,-52.362183)">
    <g
       transform="matrix(4.7488612,0,0,4.7488612,-1416.4781,-3986.1517)"
       id="g4371"
       style="fill:#000000;fill-opacity:1">
      <g
         transform="matrix(0.99851449,0,0,0.99851449,151.15669,429.29804)"
         id="g9674"
         style="fill:none;fill-opacity:1">
        <path
           style="fill:#000000;stroke:#000000;stroke-width:4.74180651000000000px;stroke-linecap:butt;stroke-linejoin:miter;stroke-opacity:1;fill-opacity:1"
           d="M 290.59375 17.53125 C 275.65712 17.49191 262.88872 27.367089 254.78125 40.1875 C 247.86607 60.346244 242.2137 80.994786 237.40625 101.9375 C 223.85771 104.18245 210.3479 106.43683 196.96875 108.5625 C 181.20755 107.3679 174.78221 108.04295 165.03125 126.5625 C 163.76381 132.89969 165.61344 146.19473 171.8125 148.5625 C 190.30767 150.50885 208.97826 150.636 227.75 149.96875 C 222.56083 179.2653 218.40377 208.76957 214.15625 237.875 C 213.61094 242.23239 211.92076 250.86011 214.9375 251.875 C 215.12238 251.9372 215.33936 252.00127 215.53125 252.0625 C 195.79536 258.02532 176.32848 264.10764 163.34375 275.5625 C 154.56866 283.30369 167.66737 295.29794 182.0625 292.21875 C 234.37857 281.01761 285.84291 265.08591 337.78125 251.875 C 354.98495 264.70168 337.97426 288.44366 339.15625 306.15625 C 331.84685 355.95306 322.9007 405.53948 316.34375 455.4375 C 310.81006 454.23327 305.36554 453.52672 300.5 453.40625 C 267.37563 459.89611 230.16294 464.62933 198.9375 479.5 C 192.95603 450.5759 185.50545 421.96696 177.34375 393.5625 C 179.31419 395.62187 181.54227 397.16513 183.65625 397.5 C 211.36448 399.55278 238.65993 382.86218 260.1875 366.59375 C 267.21936 360.40067 275.12261 351.28997 276.8125 343.3125 C 275.17591 323.89309 254.7515 323.36323 239.53125 328.0625 C 220.37776 336.27114 202.00357 350.29716 185.34375 363.625 C 180.67321 367.36144 175.15742 373.00013 172.875 378.21875 C 166.52693 356.74666 159.87906 335.35955 153.28125 314 C 143.31113 293.55546 142.09761 262.28106 121.75 250.46875 C 116.41917 249.23854 110.55037 244.84446 105.75 246.78125 C 89.968746 253.1485 72.891917 270.38589 77.59375 290.78125 C 94.458602 368.96369 118.97537 446.13259 140.34375 523.5 C 150.35973 538.38605 170.96311 545.02633 184.8125 532.40625 L 186.5 530.09375 C 195.06395 535.64829 207.6266 536.14284 218.03125 533.21875 C 237.99269 527.37817 254.08868 511.43686 275.09375 508.90625 C 297.87917 505.3213 319.35435 515.95213 341.6875 511.4375 C 346.87058 509.99315 350.374 509.26994 350.21875 502.84375 C 350.2087 502.42798 350.23554 502.01745 350.25 501.59375 C 350.41576 501.53948 350.58589 501.4937 350.75 501.4375 C 364.59902 502.85592 366.08086 491.01085 368.15625 479.84375 C 383.08948 420.5173 400.092 361.43709 411 301.34375 C 414.25629 283.40436 422.41679 261.84393 415.65625 246.78125 C 406.85982 227.18256 377.51342 208.20197 351.75 213.21875 C 316.49931 218.41577 282.5 229.71938 248.78125 240.875 C 248.22508 241.10872 247.65611 241.33415 247.09375 241.5625 C 272.89631 215.08196 290.44039 180.8504 303.84375 145.03125 C 313.47214 144.39838 323.07976 143.88094 332.65625 143.59375 C 349.98082 143.24807 368.39447 148.33939 384.78125 144.40625 C 392.77432 142.48776 404.82106 135.38991 405.3125 126.875 C 405.73974 119.46991 407.80083 109.92918 403.8125 104.53125 C 397.70761 96.268794 386.08791 85.670108 375.03125 85.90625 C 357.50709 86.280544 339.6731 87.64106 321.6875 89.625 C 324.33285 80.342041 326.8757 71.150891 329.3125 62.1875 C 331.22776 53.393061 329.18636 41.891652 324.21875 35.09375 C 318.46096 27.214622 306.75983 21.016413 297.125 18.15625 C 294.90987 17.725463 292.72755 17.53687 290.59375 17.53125 z M 234.46875 538.0625 C 206.54235 541.40557 202.51317 572.8436 210.09375 594.5625 C 210.07384 596.76306 210.03178 598.95565 210 601.15625 C 173.29525 614.43923 136.8841 628.44551 102.375 646.46875 C 95.39122 650.39179 82.69904 653.3455 82.0625 661.15625 C 80.68216 678.09337 75.923235 697.58858 82.0625 712.5 C 89.995306 731.76753 121.56361 726.65893 137.9375 713.375 C 158.54622 696.65541 182.26664 684.05538 207.4375 674.96875 C 205.29625 719.42539 202.75482 763.88871 203.40625 808.34375 C 208.69346 834.69449 202.95541 865.08262 213.65625 889.15625 C 222.26808 909.96055 234.61187 893.90048 249.59375 888.3125 C 281.37604 882.0288 280.47842 847.28952 281.34375 821.875 C 285.91643 761.15524 295.18504 700.64585 297.1875 639.78125 C 301.09498 638.52556 305.01313 637.33748 308.96875 636.28125 C 328.98662 630.93605 357.2298 647.07654 373.09375 632.3125 C 379.9826 625.90125 389.48321 618.46988 387.4375 607.375 C 383.99343 588.69622 373.99307 569.9938 354.03125 566.25 C 341.24246 563.85145 329.73103 556.63951 315.875 561.59375 C 309.69964 564.18733 303.49083 566.69535 297.25 569.15625 C 293.80075 553.89207 283.45072 541.0069 266.34375 539.40625 C 255.72139 538.96384 245.09097 538.5051 234.46875 538.0625 z "
           transform="matrix(0.21089008,0,0,0.21089008,147.33961,421.7458)"
           id="path9614" />
        <path
           style="fill:#000000;stroke:#000000;stroke-width:4.74180651000000000px;stroke-linecap:butt;stroke-linejoin:miter;stroke-opacity:1;fill-opacity:1"
           d="M 565.59375 66.34375 C 543.85302 67.030619 547.01364 101.57558 541.03125 119.125 C 531.03481 148.44957 524.56029 179.62948 510.0625 206.78125 C 489.53119 245.23285 456.89138 277.46319 436.4375 316 C 423.79049 339.82805 402.35625 378.78655 408.90625 392.4375 C 413.80672 402.65059 447.34934 376.8637 458.15625 360.65625 C 495.33209 297.02711 543.15082 238.2594 580.84375 174.40625 C 599.87591 224.69077 629.20085 271.32987 660.4375 314.8125 C 712.50818 376.4429 763.24111 463.39714 845.0625 485.0625 C 877.27611 478.00204 908.29677 453.50679 937.28125 434.78125 C 942.98555 431.09597 964.69998 422.3286 960.96875 417.84375 C 944.21471 397.70563 894.76663 389.42871 866.78125 377.125 C 752.75332 329.14655 685.14663 229.69418 608.84375 138.25 C 606.96641 136.77498 605.21807 134.68717 603.5 132.5 C 605.28254 128.83964 607.02813 125.17467 608.71875 121.46875 C 612.83222 110.81756 609.60006 94.96348 603.65625 85.90625 C 597.74554 76.899473 584.50795 70.139801 573.15625 67.28125 C 570.33617 66.571099 567.84279 66.272695 565.59375 66.34375 z M 611.40625 362.25 C 606.97717 362.24822 602.58649 362.75045 598.40625 363.9375 C 545.95125 380.1926 491.90458 393.39521 441.0625 414.4375 C 430.32107 421.33792 427.18218 433.50902 427.9375 445.5625 C 430.46294 452.71139 434.67723 461.57112 441.0625 465.25 C 450.94869 470.94595 464.23565 465.32531 475.59375 461.40625 C 525.72171 434.68683 588.28579 430.1106 637.53125 402.59375 C 643.73007 398.12061 645.63398 386.56114 646 378.875 C 646.19868 374.70662 643.18944 368.20537 639.21875 367.03125 C 631.07252 364.62247 621.15022 362.25392 611.40625 362.25 z M 582.65625 444.71875 C 579.37616 444.65798 576.17311 444.75853 573.15625 444.9375 C 550.87384 449.44871 530.40034 478.59264 530.6875 504.90625 C 532.10032 524.10059 533.60207 543.30774 535.1875 562.5 C 504.15037 574.4574 472.98551 586.10132 441.0625 595.65625 C 438.17133 599.77503 436.55642 609.15631 439.375 614.28125 C 446.99783 628.14174 466.99945 630.83239 483.25 624.34375 C 502.69492 616.57962 518.75466 602.46342 537.96875 595.0625 C 546.30722 690.19435 556.73797 785.22441 569.09375 879.875 C 578.35701 908.75464 587.61174 937.65161 596.875 966.53125 C 619.9896 981.76876 615.77115 940.40638 622.65625 927.3125 C 630.27079 883.86204 642.39238 841.01073 643.875 796.6875 C 649.57734 718.37811 654.75024 638.00337 648.15625 559.15625 C 652.51057 558.24116 656.85519 557.40268 661.21875 556.6875 C 684.37532 552.89216 710.78833 566.35353 732.84375 559.59375 C 747.10009 555.22432 756.57683 534.6195 748.78125 519.78125 C 745.80615 514.11839 743.11022 506.69729 737.4375 504.1875 C 715.32503 494.40416 691.84764 507.30027 669.125 514.34375 C 660.74277 516.80234 652.41058 519.40365 644.125 522.125 C 642.07189 506.92264 639.53246 491.79894 636.375 476.78125 C 632.99188 452.2255 605.6169 445.14415 582.65625 444.71875 z "
           transform="matrix(0.21089008,0,0,0.21089008,147.33961,421.7458)"
           id="path9630" />
      </g>
    </g>
  </g>
</svg>
