<?xml version="1.0" encoding="UTF-8" standalone="no"?>
<!-- Created with Inkscape (http://www.inkscape.org/) -->

<svg
   xmlns:dc="http://purl.org/dc/elements/1.1/"
   xmlns:cc="http://creativecommons.org/ns#"
   xmlns:rdf="http://www.w3.org/1999/02/22-rdf-syntax-ns#"
   xmlns:svg="http://www.w3.org/2000/svg"
   xmlns="http://www.w3.org/2000/svg"
   xmlns:sodipodi="http://sodipodi.sourceforge.net/DTD/sodipodi-0.dtd"
   xmlns:inkscape="http://www.inkscape.org/namespaces/inkscape"
   width="1000"
   height="1000"
   id="svg3173"
   version="1.1"
   inkscape:version="0.47 r22583"
   sodipodi:docname="5e9c.svg"
   inkscape:export-filename="E:\chinese\yan\5e9c.png"
   inkscape:export-xdpi="18.005705"
   inkscape:export-ydpi="18.005705">
  <title
     id="title3629">Fu</title>
  <defs
     id="defs3175">
    <inkscape:perspective
       sodipodi:type="inkscape:persp3d"
       inkscape:vp_x="0 : 526.18109 : 1"
       inkscape:vp_y="0 : 1000 : 0"
       inkscape:vp_z="744.09448 : 526.18109 : 1"
       inkscape:persp3d-origin="372.04724 : 350.78739 : 1"
       id="perspective3181" />
    <inkscape:perspective
       id="perspective3191"
       inkscape:persp3d-origin="0.5 : 0.33333333 : 1"
       inkscape:vp_z="1 : 0.5 : 1"
       inkscape:vp_y="0 : 1000 : 0"
       inkscape:vp_x="0 : 0.5 : 1"
       sodipodi:type="inkscape:persp3d" />
    <inkscape:perspective
       id="perspective4006"
       inkscape:persp3d-origin="0.5 : 0.33333333 : 1"
       inkscape:vp_z="1 : 0.5 : 1"
       inkscape:vp_y="0 : 1000 : 0"
       inkscape:vp_x="0 : 0.5 : 1"
       sodipodi:type="inkscape:persp3d" />
    <inkscape:perspective
       id="perspective4034"
       inkscape:persp3d-origin="0.5 : 0.33333333 : 1"
       inkscape:vp_z="1 : 0.5 : 1"
       inkscape:vp_y="0 : 1000 : 0"
       inkscape:vp_x="0 : 0.5 : 1"
       sodipodi:type="inkscape:persp3d" />
    <inkscape:perspective
       id="perspective4081"
       inkscape:persp3d-origin="0.5 : 0.33333333 : 1"
       inkscape:vp_z="1 : 0.5 : 1"
       inkscape:vp_y="0 : 1000 : 0"
       inkscape:vp_x="0 : 0.5 : 1"
       sodipodi:type="inkscape:persp3d" />
    <inkscape:perspective
       id="perspective4147"
       inkscape:persp3d-origin="0.5 : 0.33333333 : 1"
       inkscape:vp_z="1 : 0.5 : 1"
       inkscape:vp_y="0 : 1000 : 0"
       inkscape:vp_x="0 : 0.5 : 1"
       sodipodi:type="inkscape:persp3d" />
    <inkscape:perspective
       id="perspective3801"
       inkscape:persp3d-origin="0.5 : 0.33333333 : 1"
       inkscape:vp_z="1 : 0.5 : 1"
       inkscape:vp_y="0 : 1000 : 0"
       inkscape:vp_x="0 : 0.5 : 1"
       sodipodi:type="inkscape:persp3d" />
    <inkscape:perspective
       id="perspective3122"
       inkscape:persp3d-origin="0.5 : 0.33333333 : 1"
       inkscape:vp_z="1 : 0.5 : 1"
       inkscape:vp_y="0 : 1000 : 0"
       inkscape:vp_x="0 : 0.5 : 1"
       sodipodi:type="inkscape:persp3d" />
    <inkscape:perspective
       id="perspective3854"
       inkscape:persp3d-origin="0.5 : 0.33333333 : 1"
       inkscape:vp_z="1 : 0.5 : 1"
       inkscape:vp_y="0 : 1000 : 0"
       inkscape:vp_x="0 : 0.5 : 1"
       sodipodi:type="inkscape:persp3d" />
    <inkscape:perspective
       id="perspective3922"
       inkscape:persp3d-origin="0.5 : 0.33333333 : 1"
       inkscape:vp_z="1 : 0.5 : 1"
       inkscape:vp_y="0 : 1000 : 0"
       inkscape:vp_x="0 : 0.5 : 1"
       sodipodi:type="inkscape:persp3d" />
    <inkscape:perspective
       id="perspective3945"
       inkscape:persp3d-origin="0.5 : 0.33333333 : 1"
       inkscape:vp_z="1 : 0.5 : 1"
       inkscape:vp_y="0 : 1000 : 0"
       inkscape:vp_x="0 : 0.5 : 1"
       sodipodi:type="inkscape:persp3d" />
  </defs>
  <sodipodi:namedview
     id="base"
     pagecolor="#ffffff"
     bordercolor="#666666"
     borderopacity="1.0"
     inkscape:pageopacity="0.0"
     inkscape:pageshadow="2"
     inkscape:zoom="0.49497475"
     inkscape:cx="400.23851"
     inkscape:cy="520.83683"
     inkscape:document-units="px"
     inkscape:current-layer="g4634"
     showgrid="false"
     inkscape:window-width="1440"
     inkscape:window-height="840"
     inkscape:window-x="-4"
     inkscape:window-y="-4"
     inkscape:window-maximized="1" />
  <metadata
     id="metadata3178">
    <rdf:RDF>
      <cc:Work
         rdf:about="">
        <dc:format>image/svg+xml</dc:format>
        <dc:type
           rdf:resource="http://purl.org/dc/dcmitype/StillImage" />
        <dc:title>Fu</dc:title>
        <dc:date>2010-08-21</dc:date>
        <dc:creator>
          <cc:Agent>
            <dc:title>Alex Amies</dc:title>
          </cc:Agent>
        </dc:creator>
        <dc:rights>
          <cc:Agent>
            <dc:title>@ Alex Amies 2010</dc:title>
          </cc:Agent>
        </dc:rights>
        <dc:publisher>
          <cc:Agent>
            <dc:title>chinesenotes.com</dc:title>
          </cc:Agent>
        </dc:publisher>
        <dc:source>Yan Qin Ceremonial Inscription</dc:source>
        <dc:language>Chinese 中文</dc:language>
        <dc:description>Tracing from Tang Dynasty Ceremonial Inscription by Yan Zhenqing 颜真卿 (709－785)</dc:description>
        <cc:license
           rdf:resource="http://creativecommons.org/licenses/by/3.0/" />
      </cc:Work>
      <cc:License
         rdf:about="http://creativecommons.org/licenses/by/3.0/">
        <cc:permits
           rdf:resource="http://creativecommons.org/ns#Reproduction" />
        <cc:permits
           rdf:resource="http://creativecommons.org/ns#Distribution" />
        <cc:requires
           rdf:resource="http://creativecommons.org/ns#Notice" />
        <cc:requires
           rdf:resource="http://creativecommons.org/ns#Attribution" />
        <cc:permits
           rdf:resource="http://creativecommons.org/ns#DerivativeWorks" />
      </cc:License>
    </rdf:RDF>
  </metadata>
  <g
     inkscape:label="Layer 1"
     inkscape:groupmode="layer"
     id="layer1"
     transform="translate(0,-52.362183)">
    <g
       transform="matrix(4.7609464,0,0,4.7609464,-444.07486,-2879.5352)"
       id="g4634"
       style="fill:#000000;fill-opacity:1">
      <path
         style="fill:#000000;stroke:#000000;stroke-width:4.45319128000000040px;stroke-linecap:butt;stroke-linejoin:miter;stroke-opacity:1;fill-opacity:1"
         d="M 457.09375 7.40625 C 447.29426 7.3642823 437.57552 9.2847811 428.84375 13.875 C 427.39423 14.533725 425.94957 15.216609 424.5 15.875 C 416.34612 26.612839 405.89989 37.081269 404.875 51.3125 C 402.61146 60.705419 406.06026 72.03353 416.4375 74.3125 C 426.32932 78.458761 435.76746 83.932653 443 91.96875 C 462.13132 110.97833 481.1075 129.40549 501.8125 146.21875 C 489.81665 148.37728 477.81419 150.44631 465.78125 152.375 C 378.95125 167.7509 290.99907 177.28868 205 197.15625 C 196.33022 220.84958 222.10646 233.37455 237.46875 245.84375 C 219.89129 264.63637 236.03591 299.02717 231.21875 323.21875 C 241.52872 516.01232 204.15912 707.37648 109.46875 876.1875 C 95.181912 900.3015 81.654111 924.82469 68.25 949.4375 C 85.787898 966.30349 107.70485 936.79681 126.78125 933 C 152.44132 920.71452 165.69499 892.29847 180.6875 869.28125 C 252.81184 731.49061 281.37393 578.84757 302.84375 426.25 C 309.21366 364.23115 302.47403 309.62011 261.5625 260.09375 C 259.95951 258.1854 258.35301 256.28335 256.75 254.375 C 273.66394 257.45928 292.35702 251.62498 306.5625 242 C 368.28455 214.69792 434.58376 199.51995 500.03125 183.96875 C 575.59042 176.80119 652.79078 165.06857 728.9375 169.6875 C 758.34082 174.63165 786.25198 194.80687 816.0625 189.96875 C 850.33351 189.83306 852.91351 152.70342 836.09375 130.875 C 822.79267 105.34238 792.44457 88.121401 763.6875 91.59375 C 739.95052 106.60801 714.14899 114.90116 685.40625 114.34375 C 652.95395 118.36574 620.76974 123.93038 588.625 129.90625 C 587.71942 112.86581 581.68458 96.332868 577.1875 79.46875 C 554.28125 46.378792 524.39818 24.84525 485.84375 12.78125 C 476.76413 9.4763914 466.89324 7.4482177 457.09375 7.40625 z "
         transform="matrix(0.21004227,0,0,0.21004227,93.274493,615.82239)"
         id="path4313" />
      <path
         style="fill:#000000;stroke:#000000;stroke-width:4.45319128000000040px;stroke-linecap:butt;stroke-linejoin:miter;stroke-opacity:1;fill-opacity:1"
         d="M 497.65625 203.53125 C 488.49605 203.98497 481.04974 222.47514 477.21875 235 C 470.09171 258.30088 461.11507 281.16788 448.96875 302.53125 C 414.32577 372.37524 376.37468 439.86135 323.3125 497.46875 C 319.99064 500.85964 315.22103 505.77003 315.625 510.3125 C 316.69298 522.32132 324.17924 517.48907 330.6875 513.28125 C 349.37936 501.19616 372.41118 494.12035 387.90625 478.6875 C 406.59687 455.93568 422.84331 431.03502 440.6875 407.5 C 440.68576 418.17598 442.93123 429.39551 441.375 439.9375 C 434.68768 558.37537 427.34417 676.80562 425.03125 795.4375 C 425.80324 820.95874 412.28565 843.80264 407 868.34375 C 418.91493 899.67549 426.74841 933.30816 448.3125 959.875 C 456.27023 972.29674 465.68817 986.72742 475.75 968 C 485.56031 954.07442 519.28081 946.29749 497.5 927.5625 C 485.60901 911.86452 491.92295 890.62473 488.375 872.40625 C 486.08737 738.84347 488.74493 604.885 491.90625 471.25 C 495.7985 466.82237 498.91749 461.68175 500.4375 456.46875 C 504.7113 463.25326 511.87189 469.3698 516.1875 475.65625 C 527.53045 497.09708 535.29708 462.37478 552.5 465.1875 C 614.53247 445.07181 678.69429 435.46419 742.9375 426.46875 C 760.06155 554.01019 766.30955 682.45952 770.84375 811.15625 C 778.2872 849.3308 729.79475 842.94001 707.5 832.125 C 683.87376 816.25029 657.66258 807.1582 629.03125 816.71875 C 639.13731 837.50804 678.1566 838.40799 697.96875 853.09375 C 727.19158 874.36975 732.97101 909.8412 733.25 943.40625 C 738.212 963.72259 721.92769 1002.9936 756.125 983.9375 C 788.23625 972.75908 812.64879 948.93977 831.25 921.1875 C 852.85251 894.57476 860.42174 860.24498 861.75 826.6875 C 855.88537 704.8805 841.27317 583.09492 829.6875 461.53125 C 828.0139 445.90137 826.07226 430.28842 824 414.6875 C 836.29601 412.71766 848.55581 410.61691 860.78125 408.3125 C 875.2571 405.84057 887.82322 417.49846 902.21875 418.53125 C 918.02514 422.48422 945.61444 417.46797 937.21875 395.1875 C 930.83108 376.92832 923.60008 358.94144 914.34375 341.90625 C 895.22231 332.80622 870.96004 327.7578 851.75 338.375 C 840.48318 345.97864 829.29416 354.26775 816.1875 358.0625 C 813.27696 337.17938 810.43177 316.27988 808.03125 295.40625 C 820.93384 259.98214 793.89717 232.82311 764.65625 217.75 C 754.2095 207.64189 744.46569 207.98449 731.4375 209.90625 C 711.25671 216.71626 684.95687 226.0683 707 249.59375 C 726.77178 277.25175 723.70775 312.30405 730.25 344.09375 C 732.47523 356.81036 734.55427 369.54401 736.53125 382.28125 C 661.84896 402.04842 585.21488 414.02813 510.65625 434.21875 C 506.8484 435.25721 503.0578 436.27409 499.25 437.3125 C 498.8492 438.03875 498.5108 438.76212 498.21875 439.46875 C 496.88363 437.58698 495.1046 435.83506 492.8125 434.25 C 480.01607 419.57182 467.20263 404.89694 454.40625 390.21875 C 464.12335 378.57821 474.50634 367.5057 486.15625 357.53125 C 507.3157 341.66625 538.98915 333.47349 553.3125 314.875 C 562.48551 302.96402 565.35628 281.0302 559.71875 264.59375 C 544.4254 245.65332 522.27158 210.13511 497.65625 203.53125 z M 573.59375 540.5625 C 572.40503 540.5856 571.22332 540.62032 570.03125 540.6875 L 558.09375 540.6875 C 551.98065 548.28416 543.15526 554.48278 540.875 564.5 C 536.01131 571.15157 546.17445 574.33577 549.53125 578.875 C 563.3818 591.50517 583.37495 594.7987 596.53125 608.40625 C 612.30993 622.60534 629.2196 635.64784 643.84375 651.0625 C 646.29445 655.19695 650.27767 657.92339 655.09375 658.15625 L 671 661.5625 C 677.97974 649.59253 686.36141 638.16162 689.9375 624.5625 C 693.08882 617.06758 695.66279 609.13078 694.875 600.90625 L 694.875 590 C 672.07887 575.68617 649.26483 561.37633 626.46875 547.0625 C 608.8951 544.61049 591.42454 540.21603 573.59375 540.5625 z "
         transform="matrix(0.21004227,0,0,0.21004227,93.274493,615.82239)"
         id="path4319" />
    </g>
  </g>
</svg>
