<?xml version="1.0" encoding="UTF-8" standalone="no"?>
<!-- Created with Inkscape (http://www.inkscape.org/) -->

<svg
   xmlns:dc="http://purl.org/dc/elements/1.1/"
   xmlns:cc="http://creativecommons.org/ns#"
   xmlns:rdf="http://www.w3.org/1999/02/22-rdf-syntax-ns#"
   xmlns:svg="http://www.w3.org/2000/svg"
   xmlns="http://www.w3.org/2000/svg"
   xmlns:sodipodi="http://sodipodi.sourceforge.net/DTD/sodipodi-0.dtd"
   xmlns:inkscape="http://www.inkscape.org/namespaces/inkscape"
   width="1000"
   height="1000"
   id="svg3173"
   version="1.1"
   inkscape:version="0.47 r22583"
   sodipodi:docname="5ea6.svg"
   inkscape:export-filename="E:\chinese\yan\5ea6.png"
   inkscape:export-xdpi="18.005705"
   inkscape:export-ydpi="18.005705">
  <title
     id="title3641">Du</title>
  <defs
     id="defs3175">
    <inkscape:perspective
       sodipodi:type="inkscape:persp3d"
       inkscape:vp_x="0 : 526.18109 : 1"
       inkscape:vp_y="0 : 1000 : 0"
       inkscape:vp_z="744.09448 : 526.18109 : 1"
       inkscape:persp3d-origin="372.04724 : 350.78739 : 1"
       id="perspective3181" />
    <inkscape:perspective
       id="perspective3191"
       inkscape:persp3d-origin="0.5 : 0.33333333 : 1"
       inkscape:vp_z="1 : 0.5 : 1"
       inkscape:vp_y="0 : 1000 : 0"
       inkscape:vp_x="0 : 0.5 : 1"
       sodipodi:type="inkscape:persp3d" />
    <inkscape:perspective
       id="perspective4006"
       inkscape:persp3d-origin="0.5 : 0.33333333 : 1"
       inkscape:vp_z="1 : 0.5 : 1"
       inkscape:vp_y="0 : 1000 : 0"
       inkscape:vp_x="0 : 0.5 : 1"
       sodipodi:type="inkscape:persp3d" />
    <inkscape:perspective
       id="perspective4034"
       inkscape:persp3d-origin="0.5 : 0.33333333 : 1"
       inkscape:vp_z="1 : 0.5 : 1"
       inkscape:vp_y="0 : 1000 : 0"
       inkscape:vp_x="0 : 0.5 : 1"
       sodipodi:type="inkscape:persp3d" />
    <inkscape:perspective
       id="perspective4081"
       inkscape:persp3d-origin="0.5 : 0.33333333 : 1"
       inkscape:vp_z="1 : 0.5 : 1"
       inkscape:vp_y="0 : 1000 : 0"
       inkscape:vp_x="0 : 0.5 : 1"
       sodipodi:type="inkscape:persp3d" />
    <inkscape:perspective
       id="perspective4147"
       inkscape:persp3d-origin="0.5 : 0.33333333 : 1"
       inkscape:vp_z="1 : 0.5 : 1"
       inkscape:vp_y="0 : 1000 : 0"
       inkscape:vp_x="0 : 0.5 : 1"
       sodipodi:type="inkscape:persp3d" />
    <inkscape:perspective
       id="perspective3807"
       inkscape:persp3d-origin="0.5 : 0.33333333 : 1"
       inkscape:vp_z="1 : 0.5 : 1"
       inkscape:vp_y="0 : 1000 : 0"
       inkscape:vp_x="0 : 0.5 : 1"
       sodipodi:type="inkscape:persp3d" />
    <inkscape:perspective
       id="perspective3838"
       inkscape:persp3d-origin="0.5 : 0.33333333 : 1"
       inkscape:vp_z="1 : 0.5 : 1"
       inkscape:vp_y="0 : 1000 : 0"
       inkscape:vp_x="0 : 0.5 : 1"
       sodipodi:type="inkscape:persp3d" />
    <inkscape:perspective
       id="perspective2993"
       inkscape:persp3d-origin="0.5 : 0.33333333 : 1"
       inkscape:vp_z="1 : 0.5 : 1"
       inkscape:vp_y="0 : 1000 : 0"
       inkscape:vp_x="0 : 0.5 : 1"
       sodipodi:type="inkscape:persp3d" />
  </defs>
  <sodipodi:namedview
     id="base"
     pagecolor="#ffffff"
     bordercolor="#666666"
     borderopacity="1.0"
     inkscape:pageopacity="0.0"
     inkscape:pageshadow="2"
     inkscape:zoom="0.49497475"
     inkscape:cx="434.48938"
     inkscape:cy="514.61206"
     inkscape:document-units="px"
     inkscape:current-layer="g5800"
     showgrid="false"
     inkscape:window-width="1440"
     inkscape:window-height="840"
     inkscape:window-x="-4"
     inkscape:window-y="-4"
     inkscape:window-maximized="1" />
  <metadata
     id="metadata3178">
    <rdf:RDF>
      <cc:Work
         rdf:about="">
        <dc:format>image/svg+xml</dc:format>
        <dc:type
           rdf:resource="http://purl.org/dc/dcmitype/StillImage" />
        <dc:title>Du</dc:title>
        <dc:date>2010-07-13</dc:date>
        <dc:creator>
          <cc:Agent>
            <dc:title>Alex Amies</dc:title>
          </cc:Agent>
        </dc:creator>
        <dc:rights>
          <cc:Agent>
            <dc:title>@ Alex Amies 2010</dc:title>
          </cc:Agent>
        </dc:rights>
        <dc:publisher>
          <cc:Agent>
            <dc:title>chinesenotes.com</dc:title>
          </cc:Agent>
        </dc:publisher>
        <dc:source>Yan Qin Ceremonial Inscription</dc:source>
        <dc:language>Chinese 中文</dc:language>
        <dc:description>Tracing from Tang Dynasty Ceremonial Inscription by Yan Zhenqing 颜真卿 (709－785)</dc:description>
        <cc:license
           rdf:resource="http://creativecommons.org/licenses/by/3.0/" />
      </cc:Work>
      <cc:License
         rdf:about="http://creativecommons.org/licenses/by/3.0/">
        <cc:permits
           rdf:resource="http://creativecommons.org/ns#Reproduction" />
        <cc:permits
           rdf:resource="http://creativecommons.org/ns#Distribution" />
        <cc:requires
           rdf:resource="http://creativecommons.org/ns#Notice" />
        <cc:requires
           rdf:resource="http://creativecommons.org/ns#Attribution" />
        <cc:permits
           rdf:resource="http://creativecommons.org/ns#DerivativeWorks" />
      </cc:License>
    </rdf:RDF>
  </metadata>
  <g
     inkscape:label="Layer 1"
     inkscape:groupmode="layer"
     id="layer1"
     transform="translate(0,-52.362183)">
    <g
       transform="matrix(4.7418067,0,0,4.7418067,-524.70921,-2979.6975)"
       id="g5800"
       style="fill:none;fill-opacity:1">
      <path
         style="fill:#000000;stroke:#000000;stroke-width:4.74180651000000000px;stroke-linecap:butt;stroke-linejoin:miter;stroke-opacity:1;fill-opacity:1"
         d="M 453.5625 38.03125 C 440.29051 39.237186 424.7412 35.491801 413.1875 43.53125 L 394.875 54.53125 L 381.3125 69.78125 C 392.37964 89.730837 421.1679 87.065138 431.8125 107.53125 C 439.61361 122.06874 451.77917 133.48429 466.15625 140.84375 C 457.31064 142.30496 448.4171 143.59075 439.5 144.65625 C 393.17027 151.75867 346.58754 157.7647 300.9375 168.625 C 287.6594 168.70087 273.52174 165.01069 261.0625 171.40625 L 247.53125 186.625 C 248.92553 209.62798 271.15264 235.47016 295.875 227.3125 C 314.03612 221.63509 330.11705 210.31929 349.25 207.46875 C 406.00668 192.96935 463.46874 181.44481 520.8125 169.65625 C 552.46966 162.18226 583.18799 150.42325 615.28125 145.0625 C 634.82233 144.03908 648.83295 161.66879 668.90625 156.1875 C 684.64502 157.28305 706.59501 148.91263 703.125 129.625 C 702.49168 111.46061 691.88682 96.551246 672.375 97.21875 C 655.40711 92.765435 625.80861 77.256197 619.75 101.75 C 607.48228 112.0355 590.00021 110.7126 575.46875 116 C 549.66286 122.8338 523.75422 129.47682 497.625 134.9375 C 508.84364 127.03224 518.05753 115.81548 525.34375 104.40625 C 525.88593 96.816087 526.42657 89.215163 526.96875 81.625 C 503.38006 65.765411 481.40122 46.074492 453.5625 38.03125 z "
         transform="matrix(0.21089008,0,0,0.21089008,110.65597,639.43131)"
         id="path5757" />
      <path
         id="path5761"
         d="m 163.21428,692.00504 c -5.73564,0.94998 -1.52173,7.10063 -2.25738,10.85121 -1.83698,15.10225 -4.59688,30.09836 -7.66066,45.00715 -2.07401,10.96373 -4.01157,21.97842 -7.63875,32.56008 -4.35064,15.76033 -10.11296,31.06736 -16.24444,46.20862 -3.69903,2.92633 1.50957,7.56552 3.13763,2.96807 5.8161,-6.82673 9.51736,-15.03637 13.87936,-22.79014 3.8045,-9.25968 6.84173,-18.84271 10.13852,-28.30137 3.76813,-12.02755 7.38956,-24.10782 10.78112,-36.24705 2.44935,-13.04464 4.40495,-26.20268 6.7997,-39.23653 0.0653,-5.70042 -5.31788,-9.31881 -10.21345,-10.80355 l -0.72165,-0.21649 0,0 z"
         style="fill:#000000;fill-opacity:1;stroke:#000000;stroke-width:1px;stroke-linecap:butt;stroke-linejoin:miter;stroke-opacity:1" />
      <path
         style="fill:#000000;stroke:#000000;stroke-width:4.74180651000000000px;stroke-linecap:butt;stroke-linejoin:miter;stroke-opacity:1;fill-opacity:1"
         d="M 598 178.03125 C 588.47059 178.16626 579.07112 179.32536 571 184.9375 C 565.57073 190.65811 552.0469 192.84709 554.96875 203.1875 C 558.34502 228.7218 559.21225 254.36857 559.3125 280.0625 C 523.75697 294.38286 487.90915 307.87564 451.5 319.71875 C 451.26172 314.87556 451.01912 310.0269 450.75 305.1875 C 455.108 291.90048 461.53261 278.55536 458.25 264.1875 C 461.54954 245.02235 435.0558 248.96146 422.8125 242.21875 C 415.9548 239.53584 408.61485 243.49928 401.625 244.21875 C 395.56066 248.18053 385.28447 248.90637 386.15625 258.4375 C 383.19371 280.22359 396.39187 299.64965 401.0625 320.28125 C 402.14696 324.87924 402.93811 329.51942 403.53125 334.1875 C 395.91185 336.29608 388.27055 338.32356 380.59375 340.25 C 362.20811 342.66917 343.82314 345.11208 325.4375 347.53125 C 303.79329 386.05985 362.3293 397.77041 385.4375 376.375 C 392.17135 374.29793 398.91308 372.17498 405.625 370.03125 C 405.85558 377.68924 406.14494 385.35178 406.875 392.9375 C 407.62985 412.39119 410.19875 431.64948 413.5 450.8125 C 422.06868 467.90804 448.06589 478.16799 459.46875 459.84375 C 459.44226 459.57334 459.43251 459.30168 459.40625 459.03125 C 462.11625 458.9998 464.79278 458.65934 467.46875 457.78125 C 497.52254 452.1423 527.7347 447.38658 557.9375 442.625 C 544.97893 447.15646 533.6832 454.92237 530.03125 469.28125 C 530.34753 494.37432 497.32371 492.29938 480.875 502.4375 C 448.01513 512.6605 411.2386 507.9296 380.125 524.21875 C 378.90551 524.73221 377.68823 525.23653 376.46875 525.75 C 368.94298 519.53186 361.49639 513.22842 354.21875 506.71875 C 319.93791 505.9859 334.90753 540.50403 352.75 553.28125 C 397.45144 606.90855 439.03229 663.25605 482.71875 717.78125 C 473.91397 730.08778 465.07604 742.38975 456.46875 754.8125 C 444.47895 776.60461 421.90702 787.95526 403.3125 803.28125 C 375.30971 823.98464 348.80584 847.24517 316.625 861.34375 C 288.18132 876.23701 259.83026 891.38474 230.59375 904.6875 C 231.01198 928.20022 259.21182 914.67331 273.9375 918.34375 C 302.25419 916.21041 328.25494 901.5283 355.3125 893.46875 C 382.74252 879.71135 408.13631 861.01665 432.5 842.21875 C 461.17194 815.42172 493.4721 790.3278 515.3125 757.5 C 532.294 777.61467 549.76055 797.33269 568 816.375 C 595.81677 839.5006 619.55514 868.04888 650 887.65625 C 671.9245 898.69005 696.55448 906.95633 711.21875 927.9375 C 729.40595 941.78813 738.32974 984.6201 766.59375 961.40625 C 788.58843 952.94947 803.77108 929.56109 829.1875 930.8125 C 861.62947 923.75498 894.88884 926.85231 927.46875 922.40625 C 951.4704 919.3704 973.83296 910.27911 996.0625 901.28125 C 995.69027 876.55586 955.97699 880.80146 938.90625 869.15625 C 885.37433 849.44513 828.37275 840.70906 776.34375 816.65625 C 738.32859 802.55378 701.02859 786.5784 667.125 764.03125 C 634.83069 747.44891 604.1916 727.91055 577.84375 702.78125 C 570.35256 696.90128 562.9546 690.94174 555.625 684.875 C 564.69789 667.83179 572.90622 650.38759 578.65625 631.84375 C 586.29364 609.40415 605.45951 590.48028 604.53125 565.75 C 602.75132 543.77898 613.77767 522.25117 634.1875 512.90625 C 658.73237 506.88951 654.5989 471.7761 644.28125 455.28125 C 634.84924 443.75162 621.58275 437.39241 607.46875 435.59375 C 607.85233 434.51761 608.11297 433.36989 608.25 432.15625 C 610.28115 419.34204 606.27944 405.92519 611.0625 393.5 C 616.22353 360.6378 622.3063 327.9014 629.125 295.34375 C 648.64954 290.92769 668.35924 289.36658 688.15625 296.28125 C 708.85068 302.23023 730.22849 309.08975 751.40625 301.8125 C 775.32416 304.9962 773.70176 278.9905 766.46875 262.875 C 750.06831 242.54929 720.19742 222.99256 694.6875 223 C 676.46137 230.7568 658.22991 238.6074 639.96875 246.40625 C 640.29821 244.99038 640.60546 243.5715 640.9375 242.15625 C 641.45056 227.56737 647.00479 212.17421 641.03125 198.0625 L 615.03125 178.15625 C 609.4862 178.21831 603.71765 177.95024 598 178.03125 z M 559.15625 315.96875 C 558.97537 333.44471 558.77037 350.93125 559.125 368.375 L 559.125 408.40625 C 533.73493 414.50377 508.24575 420.22165 483.03125 426.96875 C 474.47681 429.64803 465.91766 432.32097 457.34375 434.9375 C 455.34601 408.12861 454.20806 381.23696 453.0625 354.34375 C 488.65294 342.16495 523.97956 329.2345 559.15625 315.96875 z M 532.0625 527.53125 C 559.56071 527.90253 570.4347 552.91871 559.375 576.5 C 549.97285 603.39998 537.23082 629.10235 525.90625 655.25 C 525.34704 656.1175 524.78133 656.97826 524.21875 657.84375 C 502.01973 638.00818 480.61693 617.30618 460.09375 595.6875 C 453.01645 588.9857 445.74578 582.51142 438.34375 576.1875 C 450.00886 572.36632 460.80204 565.1006 471.75 558.96875 C 491.79494 548.54228 510.65998 534.62679 532.0625 527.53125 z "
         transform="matrix(0.21089008,0,0,0.21089008,110.65597,639.43131)"
         id="path5763" />
    </g>
  </g>
</svg>
