<?xml version="1.0" encoding="UTF-8" standalone="no"?>
<!-- Created with Inkscape (http://www.inkscape.org/) -->

<svg
   xmlns:dc="http://purl.org/dc/elements/1.1/"
   xmlns:cc="http://creativecommons.org/ns#"
   xmlns:rdf="http://www.w3.org/1999/02/22-rdf-syntax-ns#"
   xmlns:svg="http://www.w3.org/2000/svg"
   xmlns="http://www.w3.org/2000/svg"
   xmlns:sodipodi="http://sodipodi.sourceforge.net/DTD/sodipodi-0.dtd"
   xmlns:inkscape="http://www.inkscape.org/namespaces/inkscape"
   width="1000"
   height="1000"
   id="svg3173"
   version="1.1"
   inkscape:version="0.47 r22583"
   sodipodi:docname="5ef4.svg"
   inkscape:export-filename="E:\chinese\yan\5ef4.png"
   inkscape:export-xdpi="18.005705"
   inkscape:export-ydpi="18.005705">
  <title
     id="title2826">Jian zhi pang</title>
  <defs
     id="defs3175">
    <inkscape:perspective
       sodipodi:type="inkscape:persp3d"
       inkscape:vp_x="0 : 526.18109 : 1"
       inkscape:vp_y="0 : 1000 : 0"
       inkscape:vp_z="744.09448 : 526.18109 : 1"
       inkscape:persp3d-origin="372.04724 : 350.78739 : 1"
       id="perspective3181" />
    <inkscape:perspective
       id="perspective3191"
       inkscape:persp3d-origin="0.5 : 0.33333333 : 1"
       inkscape:vp_z="1 : 0.5 : 1"
       inkscape:vp_y="0 : 1000 : 0"
       inkscape:vp_x="0 : 0.5 : 1"
       sodipodi:type="inkscape:persp3d" />
    <inkscape:perspective
       id="perspective4006"
       inkscape:persp3d-origin="0.5 : 0.33333333 : 1"
       inkscape:vp_z="1 : 0.5 : 1"
       inkscape:vp_y="0 : 1000 : 0"
       inkscape:vp_x="0 : 0.5 : 1"
       sodipodi:type="inkscape:persp3d" />
    <inkscape:perspective
       id="perspective4034"
       inkscape:persp3d-origin="0.5 : 0.33333333 : 1"
       inkscape:vp_z="1 : 0.5 : 1"
       inkscape:vp_y="0 : 1000 : 0"
       inkscape:vp_x="0 : 0.5 : 1"
       sodipodi:type="inkscape:persp3d" />
    <inkscape:perspective
       id="perspective4081"
       inkscape:persp3d-origin="0.5 : 0.33333333 : 1"
       inkscape:vp_z="1 : 0.5 : 1"
       inkscape:vp_y="0 : 1000 : 0"
       inkscape:vp_x="0 : 0.5 : 1"
       sodipodi:type="inkscape:persp3d" />
    <inkscape:perspective
       id="perspective4147"
       inkscape:persp3d-origin="0.5 : 0.33333333 : 1"
       inkscape:vp_z="1 : 0.5 : 1"
       inkscape:vp_y="0 : 1000 : 0"
       inkscape:vp_x="0 : 0.5 : 1"
       sodipodi:type="inkscape:persp3d" />
    <inkscape:perspective
       id="perspective3816"
       inkscape:persp3d-origin="0.5 : 0.33333333 : 1"
       inkscape:vp_z="1 : 0.5 : 1"
       inkscape:vp_y="0 : 1000 : 0"
       inkscape:vp_x="0 : 0.5 : 1"
       sodipodi:type="inkscape:persp3d" />
    <inkscape:perspective
       id="perspective3897"
       inkscape:persp3d-origin="0.5 : 0.33333333 : 1"
       inkscape:vp_z="1 : 0.5 : 1"
       inkscape:vp_y="0 : 1000 : 0"
       inkscape:vp_x="0 : 0.5 : 1"
       sodipodi:type="inkscape:persp3d" />
    <inkscape:perspective
       id="perspective3964"
       inkscape:persp3d-origin="0.5 : 0.33333333 : 1"
       inkscape:vp_z="1 : 0.5 : 1"
       inkscape:vp_y="0 : 1000 : 0"
       inkscape:vp_x="0 : 0.5 : 1"
       sodipodi:type="inkscape:persp3d" />
    <inkscape:perspective
       id="perspective3784"
       inkscape:persp3d-origin="0.5 : 0.33333333 : 1"
       inkscape:vp_z="1 : 0.5 : 1"
       inkscape:vp_y="0 : 1000 : 0"
       inkscape:vp_x="0 : 0.5 : 1"
       sodipodi:type="inkscape:persp3d" />
    <inkscape:perspective
       id="perspective3814"
       inkscape:persp3d-origin="0.5 : 0.33333333 : 1"
       inkscape:vp_z="1 : 0.5 : 1"
       inkscape:vp_y="0 : 1000 : 0"
       inkscape:vp_x="0 : 0.5 : 1"
       sodipodi:type="inkscape:persp3d" />
    <inkscape:perspective
       id="perspective3849"
       inkscape:persp3d-origin="0.5 : 0.33333333 : 1"
       inkscape:vp_z="1 : 0.5 : 1"
       inkscape:vp_y="0 : 1000 : 0"
       inkscape:vp_x="0 : 0.5 : 1"
       sodipodi:type="inkscape:persp3d" />
    <inkscape:perspective
       id="perspective3879"
       inkscape:persp3d-origin="0.5 : 0.33333333 : 1"
       inkscape:vp_z="1 : 0.5 : 1"
       inkscape:vp_y="0 : 1000 : 0"
       inkscape:vp_x="0 : 0.5 : 1"
       sodipodi:type="inkscape:persp3d" />
    <inkscape:perspective
       id="perspective2940"
       inkscape:persp3d-origin="0.5 : 0.33333333 : 1"
       inkscape:vp_z="1 : 0.5 : 1"
       inkscape:vp_y="0 : 1000 : 0"
       inkscape:vp_x="0 : 0.5 : 1"
       sodipodi:type="inkscape:persp3d" />
  </defs>
  <sodipodi:namedview
     id="base"
     pagecolor="#ffffff"
     bordercolor="#666666"
     borderopacity="1.0"
     inkscape:pageopacity="0.0"
     inkscape:pageshadow="2"
     inkscape:zoom="0.49497475"
     inkscape:cx="342.70996"
     inkscape:cy="513.93908"
     inkscape:document-units="px"
     inkscape:current-layer="layer1"
     showgrid="false"
     inkscape:window-width="1440"
     inkscape:window-height="840"
     inkscape:window-x="-4"
     inkscape:window-y="-4"
     inkscape:window-maximized="1" />
  <metadata
     id="metadata3178">
    <rdf:RDF>
      <cc:Work
         rdf:about="">
        <dc:format>image/svg+xml</dc:format>
        <dc:type
           rdf:resource="http://purl.org/dc/dcmitype/StillImage" />
        <dc:title>Jian zhi pang</dc:title>
        <dc:date>2010-08-06</dc:date>
        <dc:creator>
          <cc:Agent>
            <dc:title>Alex Amies</dc:title>
          </cc:Agent>
        </dc:creator>
        <dc:rights>
          <cc:Agent>
            <dc:title>@ Alex Amies 2010</dc:title>
          </cc:Agent>
        </dc:rights>
        <dc:publisher>
          <cc:Agent>
            <dc:title>chinesenotes.com</dc:title>
          </cc:Agent>
        </dc:publisher>
        <dc:source>Yan Qin Ceremonial Inscription</dc:source>
        <dc:language>Chinese 中文</dc:language>
        <dc:description>Tracing from Tang Dynasty Ceremonial Inscription by Yan Zhenqing 颜真卿 (709－785)</dc:description>
        <cc:license
           rdf:resource="http://creativecommons.org/licenses/by/3.0/" />
      </cc:Work>
      <cc:License
         rdf:about="http://creativecommons.org/licenses/by/3.0/">
        <cc:permits
           rdf:resource="http://creativecommons.org/ns#Reproduction" />
        <cc:permits
           rdf:resource="http://creativecommons.org/ns#Distribution" />
        <cc:requires
           rdf:resource="http://creativecommons.org/ns#Notice" />
        <cc:requires
           rdf:resource="http://creativecommons.org/ns#Attribution" />
        <cc:permits
           rdf:resource="http://creativecommons.org/ns#DerivativeWorks" />
      </cc:License>
    </rdf:RDF>
  </metadata>
  <g
     inkscape:label="Layer 1"
     inkscape:groupmode="layer"
     id="layer1"
     transform="translate(0,-52.362183)">
    <path
       style="fill:#000000;fill-opacity:1;stroke:#000000;stroke-width:4.76094627px;stroke-linecap:butt;stroke-linejoin:miter;stroke-opacity:1"
       d="m 309.20665,185.10669 c -2.605,0.0567 -5.28918,0.33374 -7.88532,0.59511 -34.99315,7.69088 -68.29044,21.31614 -103.40181,28.56568 -9.75484,1.57588 -22.44643,-8.2978 -30.05347,-1.63657 -14.63205,22.83816 24.00974,55.29325 42.55096,66.20691 10.58139,-0.62711 21.4075,-2.2883 32.28517,-4.61217 l -79.89464,205.31581 c -15.39299,13.46744 -28.84414,36.92114 -15.47307,56.0899 3.84556,6.85348 13.87092,6.55059 20.53158,10.11702 12.00301,3.81708 21.4892,-12.34528 32.58273,-16.36576 17.20125,-5.16224 34.43654,-10.88709 51.77529,-16.36575 -5.02842,12.91849 -6.45761,28.80853 -9.81945,40.91438 -4.17145,23.58116 -8.80514,45.71732 -13.98528,66.95081 -37.23751,-28.32035 -74.4096,-56.65436 -111.4359,-85.2507 -30.076807,0.23281 -75.826981,4.28171 -83.019009,40.02171 l -8.926775,22.91205 c -2.245072,35.0021 43.717678,35.06728 48.204584,4.61217 34.23273,-40.27613 71.51851,21.22468 97.5994,42.2534 12.58752,15.28545 23.94133,31.89844 36.15344,47.46069 -15.04155,41.91565 -34.47121,82.21516 -60.85085,125.42137 -22.01876,26.37278 -46.19727,51.04639 -66.504468,78.70415 -8.337036,17.31128 16.678119,31.55746 30.202258,21.27572 42.94978,-43.53028 84.80016,-86.7273 114.56027,-140.74562 7.67136,-14.74941 14.44033,-29.9235 20.68036,-45.52655 1.41667,1.0855 2.84809,2.23289 4.31461,3.27315 38.40869,32.4887 74.89145,68.03359 120.66023,90.16057 100.99551,58.24827 221.08821,86.1279 335.34912,106.97227 48.88911,3.30648 87.81842,-33.65941 131.22358,-50.58505 35.14064,-6.02926 75.80284,-20.48921 109.50177,-14.87796 37.4048,30.72477 35.03976,-38.81885 3.71949,-40.91414 -151.3144,-26.97981 -305.85772,-33.94174 -455.86062,-68.73631 -74.97357,-11.49721 -146.44961,-42.31591 -205.16699,-90.45803 -6.2675,-4.78932 -12.62184,-9.50094 -18.895,-14.28284 5.43481,-23.53683 9.35193,-47.40008 11.60481,-71.11664 1.07506,-19.54068 7.3409,-37.94593 16.21697,-55.19722 6.53635,-8.54709 6.57806,-19.14586 2.08291,-26.63154 5.32431,-1.18019 10.70223,-2.21884 16.0682,-3.12437 6.92298,-0.80094 15.98183,2.99201 19.6389,-4.90973 13.55165,-8.94701 -7.43893,-18.10869 -12.3487,-26.1852 -14.09912,-10.64334 -31.62445,-29.12514 -50.43628,-19.49013 -7.39899,3.82323 -1.98493,16.80024 -8.33166,20.82914 l -50.58505,19.63891 c -9.46067,-5.73685 2.81205,-17.16279 4.31461,-25.44131 L 297.1555,275.56467 c 0.72904,-7.67422 0.85031,-13.24705 0,-17.25843 11.02383,-3.86484 21.85417,-7.90694 32.28517,-11.75359 16.94402,-6.89609 23.04774,-20.1011 22.16816,-37.34367 -6.45342,-19.20085 -24.16733,-24.50021 -42.40218,-24.10229 z"
       id="path3795"
       sodipodi:nodetypes="cccccccccccccccccccccccccccccccccccccccccccccccc" />
  </g>
</svg>
