<?xml version="1.0" encoding="UTF-8" standalone="no"?>
<!-- Created with Inkscape (http://www.inkscape.org/) -->

<svg
   xmlns:dc="http://purl.org/dc/elements/1.1/"
   xmlns:cc="http://creativecommons.org/ns#"
   xmlns:rdf="http://www.w3.org/1999/02/22-rdf-syntax-ns#"
   xmlns:svg="http://www.w3.org/2000/svg"
   xmlns="http://www.w3.org/2000/svg"
   xmlns:sodipodi="http://sodipodi.sourceforge.net/DTD/sodipodi-0.dtd"
   xmlns:inkscape="http://www.inkscape.org/namespaces/inkscape"
   width="1000"
   height="1000"
   id="svg3173"
   version="1.1"
   inkscape:version="0.47 r22583"
   sodipodi:docname="5ef6.svg"
   inkscape:export-filename="E:\chinese\yan\5df6.png"
   inkscape:export-xdpi="18.005705"
   inkscape:export-ydpi="18.005705">
  <title
     id="title4787">Yan</title>
  <defs
     id="defs3175">
    <inkscape:perspective
       sodipodi:type="inkscape:persp3d"
       inkscape:vp_x="0 : 526.18109 : 1"
       inkscape:vp_y="0 : 1000 : 0"
       inkscape:vp_z="744.09448 : 526.18109 : 1"
       inkscape:persp3d-origin="372.04724 : 350.78739 : 1"
       id="perspective3181" />
    <inkscape:perspective
       id="perspective3191"
       inkscape:persp3d-origin="0.5 : 0.33333333 : 1"
       inkscape:vp_z="1 : 0.5 : 1"
       inkscape:vp_y="0 : 1000 : 0"
       inkscape:vp_x="0 : 0.5 : 1"
       sodipodi:type="inkscape:persp3d" />
    <inkscape:perspective
       id="perspective4006"
       inkscape:persp3d-origin="0.5 : 0.33333333 : 1"
       inkscape:vp_z="1 : 0.5 : 1"
       inkscape:vp_y="0 : 1000 : 0"
       inkscape:vp_x="0 : 0.5 : 1"
       sodipodi:type="inkscape:persp3d" />
    <inkscape:perspective
       id="perspective4034"
       inkscape:persp3d-origin="0.5 : 0.33333333 : 1"
       inkscape:vp_z="1 : 0.5 : 1"
       inkscape:vp_y="0 : 1000 : 0"
       inkscape:vp_x="0 : 0.5 : 1"
       sodipodi:type="inkscape:persp3d" />
    <inkscape:perspective
       id="perspective4081"
       inkscape:persp3d-origin="0.5 : 0.33333333 : 1"
       inkscape:vp_z="1 : 0.5 : 1"
       inkscape:vp_y="0 : 1000 : 0"
       inkscape:vp_x="0 : 0.5 : 1"
       sodipodi:type="inkscape:persp3d" />
    <inkscape:perspective
       id="perspective4147"
       inkscape:persp3d-origin="0.5 : 0.33333333 : 1"
       inkscape:vp_z="1 : 0.5 : 1"
       inkscape:vp_y="0 : 1000 : 0"
       inkscape:vp_x="0 : 0.5 : 1"
       sodipodi:type="inkscape:persp3d" />
    <inkscape:perspective
       id="perspective3816"
       inkscape:persp3d-origin="0.5 : 0.33333333 : 1"
       inkscape:vp_z="1 : 0.5 : 1"
       inkscape:vp_y="0 : 1000 : 0"
       inkscape:vp_x="0 : 0.5 : 1"
       sodipodi:type="inkscape:persp3d" />
    <inkscape:perspective
       id="perspective3897"
       inkscape:persp3d-origin="0.5 : 0.33333333 : 1"
       inkscape:vp_z="1 : 0.5 : 1"
       inkscape:vp_y="0 : 1000 : 0"
       inkscape:vp_x="0 : 0.5 : 1"
       sodipodi:type="inkscape:persp3d" />
    <inkscape:perspective
       id="perspective3964"
       inkscape:persp3d-origin="0.5 : 0.33333333 : 1"
       inkscape:vp_z="1 : 0.5 : 1"
       inkscape:vp_y="0 : 1000 : 0"
       inkscape:vp_x="0 : 0.5 : 1"
       sodipodi:type="inkscape:persp3d" />
    <inkscape:perspective
       id="perspective3784"
       inkscape:persp3d-origin="0.5 : 0.33333333 : 1"
       inkscape:vp_z="1 : 0.5 : 1"
       inkscape:vp_y="0 : 1000 : 0"
       inkscape:vp_x="0 : 0.5 : 1"
       sodipodi:type="inkscape:persp3d" />
    <inkscape:perspective
       id="perspective3814"
       inkscape:persp3d-origin="0.5 : 0.33333333 : 1"
       inkscape:vp_z="1 : 0.5 : 1"
       inkscape:vp_y="0 : 1000 : 0"
       inkscape:vp_x="0 : 0.5 : 1"
       sodipodi:type="inkscape:persp3d" />
    <inkscape:perspective
       id="perspective3849"
       inkscape:persp3d-origin="0.5 : 0.33333333 : 1"
       inkscape:vp_z="1 : 0.5 : 1"
       inkscape:vp_y="0 : 1000 : 0"
       inkscape:vp_x="0 : 0.5 : 1"
       sodipodi:type="inkscape:persp3d" />
    <inkscape:perspective
       id="perspective3879"
       inkscape:persp3d-origin="0.5 : 0.33333333 : 1"
       inkscape:vp_z="1 : 0.5 : 1"
       inkscape:vp_y="0 : 1000 : 0"
       inkscape:vp_x="0 : 0.5 : 1"
       sodipodi:type="inkscape:persp3d" />
  </defs>
  <sodipodi:namedview
     id="base"
     pagecolor="#ffffff"
     bordercolor="#666666"
     borderopacity="1.0"
     inkscape:pageopacity="0.0"
     inkscape:pageshadow="2"
     inkscape:zoom="0.49497475"
     inkscape:cx="625.55267"
     inkscape:cy="513.93908"
     inkscape:document-units="px"
     inkscape:current-layer="layer1"
     showgrid="false"
     inkscape:window-width="1440"
     inkscape:window-height="840"
     inkscape:window-x="-4"
     inkscape:window-y="-4"
     inkscape:window-maximized="1" />
  <metadata
     id="metadata3178">
    <rdf:RDF>
      <cc:Work
         rdf:about="">
        <dc:format>image/svg+xml</dc:format>
        <dc:type
           rdf:resource="http://purl.org/dc/dcmitype/StillImage" />
        <dc:title>Yan</dc:title>
        <dc:date>2010-08-03</dc:date>
        <dc:creator>
          <cc:Agent>
            <dc:title>Alex Amies</dc:title>
          </cc:Agent>
        </dc:creator>
        <dc:rights>
          <cc:Agent>
            <dc:title>@ Alex Amies 2010</dc:title>
          </cc:Agent>
        </dc:rights>
        <dc:publisher>
          <cc:Agent>
            <dc:title>chinesenotes.com</dc:title>
          </cc:Agent>
        </dc:publisher>
        <dc:source>Yan Qin Ceremonial Inscription</dc:source>
        <dc:language>Chinese 中文</dc:language>
        <dc:description>Tracing from Tang Dynasty Ceremonial Inscription by Yan Zhenqing 颜真卿 (709－785)</dc:description>
        <cc:license
           rdf:resource="http://creativecommons.org/licenses/by/3.0/" />
      </cc:Work>
      <cc:License
         rdf:about="http://creativecommons.org/licenses/by/3.0/">
        <cc:permits
           rdf:resource="http://creativecommons.org/ns#Reproduction" />
        <cc:permits
           rdf:resource="http://creativecommons.org/ns#Distribution" />
        <cc:requires
           rdf:resource="http://creativecommons.org/ns#Notice" />
        <cc:requires
           rdf:resource="http://creativecommons.org/ns#Attribution" />
        <cc:permits
           rdf:resource="http://creativecommons.org/ns#DerivativeWorks" />
      </cc:License>
    </rdf:RDF>
  </metadata>
  <g
     inkscape:label="Layer 1"
     inkscape:groupmode="layer"
     id="layer1"
     transform="translate(0,-52.362183)">
    <path
       style="fill:#000000;fill-opacity:1;stroke:#000000;stroke-width:4.76094627px;stroke-linecap:butt;stroke-linejoin:miter;stroke-opacity:1"
       d="m 576.5635,168.14581 c -4.39369,0.19187 -8.39789,0.92977 -10.71213,3.57071 -8.72682,9.95881 -12.78329,27.12297 -23.3584,38.38513 -55.4078,59.00736 -110.6806,118.9233 -162.61603,180.76719 -4.04613,4.81808 -8.31727,11.94616 -7.88531,17.25843 0.35754,4.39935 6.07592,14.48156 10.11701,11.90236 40.45381,-25.81946 79.22298,-69.69482 123.18944,-97.30184 9.63796,-6.05178 19.82429,-11.27468 30.20225,-16.21697 -3.4115,26.02447 11.99749,55.09172 12.19993,83.31656 0.51856,72.28893 4.34041,144.60618 4.46338,216.92062 0.0143,6.94346 -0.83307,13.91958 3.27316,20.08524 -36.37573,8.19355 -72.75969,16.63485 -109.05541,25.14375 2.18689,-6.43961 -1.67142,-16.56695 -2.08291,-23.95351 -2.18818,-39.27547 -10.87391,-78.60813 -11.45603,-117.83342 -0.15473,-10.41829 18.22947,-8.56071 19.04379,-20.68036 0.67729,-10.08012 7.20607,-23.56078 1.63657,-30.35104 -8.82513,-10.7595 -29.39496,-12.57394 -44.93141,-16.51453 -15.11929,-3.83475 -32.93494,-13.82065 -45.08021,-12.3487 -5.16448,0.62587 -8.41354,12.38964 -6.84386,18.59744 27.90895,60.73778 43.50581,125.1132 61.44597,189.24762 1.81753,6.23289 6.90165,13.83669 12.79502,17.55599 -8.32816,1.94023 -16.66363,3.89317 -24.99495,5.80241 l -11.90237,6.84386 c -3.7868,15.62461 4.4384,33.21545 20.23403,35.26075 125.32239,-21.59065 249.12713,-41.52521 375.96594,-50.58505 8.47519,-9.67115 11.39813,-26.56342 -3.86827,-30.64859 -34.09281,-29.08748 -65.72563,-26.67192 -108.16275,-20.68036 -28.69594,5.02294 -57.33708,10.84648 -85.84582,16.96087 0.39992,-8.49839 -0.16901,-17.96762 1.19024,-23.95351 7.74139,-34.09033 14.72022,-68.66751 21.1267,-103.40181 53.17367,0.35564 106.92723,-10.92432 160.2356,-15.17552 8.60484,0.69696 18.35654,2.84967 25.44131,-3.71948 9.68909,-6.95932 11.68783,-19.50813 18.44866,-28.71446 4.17645,-7.56543 10.83159,-16.02368 8.0341,-25.14375 -15.14376,-26.09461 -48.54956,-17.76204 -70.96786,-7.43898 -35.36735,16.18046 -68.52301,38.63451 -107.27007,46.12167 -9.61745,2.24836 -19.49217,4.08232 -29.01202,6.84386 6.45894,-36.82835 12.34404,-73.76606 17.70477,-110.39445 1.08812,-7.43478 0.1852,-17.24414 -5.20728,-22.01937 -17.20959,-15.24022 -38.94107,-31.96919 -61.14841,-40.31927 9.92986,-3.79281 19.96098,-7.38732 29.9047,-10.86091 17.1037,-5.97475 32.22627,10.28208 48.7997,9.67068 9.52784,-0.35136 24.85937,2.33343 28.4169,-4.46339 6.89051,-13.16464 2.63718,-37.20642 -2.67804,-55.346 -2.51192,-8.57261 0.55075,-20.81529 -5.8024,-26.18521 -23.05331,-18.76275 -51.9543,-27.46766 -79.89463,-35.7071 -3.91564,-0.005 -8.69892,-0.48928 -13.0926,-0.29756 z m -267.35685,16.96088 c -2.605,0.0567 -5.28918,0.33374 -7.88532,0.59511 -34.99315,7.69088 -68.29044,21.31614 -103.40181,28.56568 -9.75484,1.57588 -22.44643,-8.2978 -30.05347,-1.63657 -14.63205,22.83816 24.00974,55.29325 42.55096,66.20691 10.58139,-0.62711 21.4075,-2.2883 32.28517,-4.61217 l -79.89464,205.31581 c -15.39299,13.46744 -28.84414,36.92114 -15.47307,56.0899 3.84556,6.85348 13.87092,6.55059 20.53158,10.11702 12.00301,3.81708 21.4892,-12.34528 32.58273,-16.36576 17.20125,-5.16224 34.43654,-10.88709 51.77529,-16.36575 -5.02842,12.91849 -6.45761,28.80853 -9.81945,40.91438 -4.17145,23.58116 -8.80514,45.71732 -13.98528,66.95081 -37.23751,-28.32035 -74.4096,-56.65436 -111.4359,-85.2507 -30.076807,0.23281 -75.826981,4.28171 -83.019009,40.02171 l -8.926775,22.91205 c -2.245072,35.0021 43.717678,35.06728 48.204584,4.61217 34.23273,-40.27613 71.51851,21.22468 97.5994,42.2534 12.58752,15.28545 23.94133,31.89844 36.15344,47.46069 -15.04155,41.91565 -34.47121,82.21516 -60.85085,125.42137 -22.01876,26.37278 -46.19727,51.04639 -66.504468,78.70415 -8.337036,17.31128 16.678119,31.55746 30.202258,21.27572 42.94978,-43.53028 84.80016,-86.7273 114.56027,-140.74562 7.67136,-14.74941 14.44033,-29.9235 20.68036,-45.52655 1.41667,1.0855 2.84809,2.23289 4.31461,3.27315 38.40869,32.4887 74.89145,68.03359 120.66023,90.16057 100.99551,58.24827 221.08821,86.1279 335.34912,106.97227 48.88911,3.30648 87.81842,-33.65941 131.22358,-50.58505 35.14064,-6.02926 75.80284,-20.48921 109.50177,-14.87796 37.4048,30.72477 35.03976,-38.81885 3.71949,-40.91414 -151.3144,-26.97981 -305.85772,-33.94174 -455.86062,-68.73631 -74.97357,-11.49721 -146.44961,-42.31591 -205.16699,-90.45803 -6.2675,-4.78932 -12.62184,-9.50094 -18.895,-14.28284 5.43481,-23.53683 9.35193,-47.40008 11.60481,-71.11664 1.07506,-19.54068 7.3409,-37.94593 16.21697,-55.19722 6.53635,-8.54709 6.57806,-19.14586 2.08291,-26.63154 5.32431,-1.18019 10.70223,-2.21884 16.0682,-3.12437 6.92298,-0.80094 15.98183,2.99201 19.6389,-4.90973 13.55165,-8.94701 -7.43893,-18.10869 -12.3487,-26.1852 -14.09912,-10.64334 -31.62445,-29.12514 -50.43628,-19.49013 -7.39899,3.82323 -1.98493,16.80024 -8.33166,20.82914 l -50.58505,19.63891 c -9.46067,-5.73685 2.81205,-17.16279 4.31461,-25.44131 L 297.1555,275.56467 c 0.72904,-7.67422 0.85031,-13.24705 0,-17.25843 11.02383,-3.86484 21.85417,-7.90694 32.28517,-11.75359 16.94402,-6.89609 23.04774,-20.1011 22.16816,-37.34367 -6.45342,-19.20085 -24.16733,-24.50021 -42.40218,-24.10229 z"
       id="path3795" />
  </g>
</svg>
