<?xml version="1.0" encoding="UTF-8" standalone="no"?>
<!-- Created with Inkscape (http://www.inkscape.org/) -->

<svg
   xmlns:dc="http://purl.org/dc/elements/1.1/"
   xmlns:cc="http://creativecommons.org/ns#"
   xmlns:rdf="http://www.w3.org/1999/02/22-rdf-syntax-ns#"
   xmlns:svg="http://www.w3.org/2000/svg"
   xmlns="http://www.w3.org/2000/svg"
   xmlns:sodipodi="http://sodipodi.sourceforge.net/DTD/sodipodi-0.dtd"
   xmlns:inkscape="http://www.inkscape.org/namespaces/inkscape"
   width="1000"
   height="1000"
   id="svg3173"
   version="1.1"
   inkscape:version="0.47 r22583"
   sodipodi:docname="5f35.svg"
   inkscape:export-filename="E:\chinese\yan\5f35.png"
   inkscape:export-xdpi="18.005705"
   inkscape:export-ydpi="18.005705">
  <title
     id="title6954">Zhang</title>
  <defs
     id="defs3175">
    <inkscape:perspective
       sodipodi:type="inkscape:persp3d"
       inkscape:vp_x="0 : 526.18109 : 1"
       inkscape:vp_y="0 : 1000 : 0"
       inkscape:vp_z="744.09448 : 526.18109 : 1"
       inkscape:persp3d-origin="372.04724 : 350.78739 : 1"
       id="perspective3181" />
    <inkscape:perspective
       id="perspective3191"
       inkscape:persp3d-origin="0.5 : 0.33333333 : 1"
       inkscape:vp_z="1 : 0.5 : 1"
       inkscape:vp_y="0 : 1000 : 0"
       inkscape:vp_x="0 : 0.5 : 1"
       sodipodi:type="inkscape:persp3d" />
    <inkscape:perspective
       id="perspective4006"
       inkscape:persp3d-origin="0.5 : 0.33333333 : 1"
       inkscape:vp_z="1 : 0.5 : 1"
       inkscape:vp_y="0 : 1000 : 0"
       inkscape:vp_x="0 : 0.5 : 1"
       sodipodi:type="inkscape:persp3d" />
    <inkscape:perspective
       id="perspective4034"
       inkscape:persp3d-origin="0.5 : 0.33333333 : 1"
       inkscape:vp_z="1 : 0.5 : 1"
       inkscape:vp_y="0 : 1000 : 0"
       inkscape:vp_x="0 : 0.5 : 1"
       sodipodi:type="inkscape:persp3d" />
    <inkscape:perspective
       id="perspective4081"
       inkscape:persp3d-origin="0.5 : 0.33333333 : 1"
       inkscape:vp_z="1 : 0.5 : 1"
       inkscape:vp_y="0 : 1000 : 0"
       inkscape:vp_x="0 : 0.5 : 1"
       sodipodi:type="inkscape:persp3d" />
    <inkscape:perspective
       id="perspective4147"
       inkscape:persp3d-origin="0.5 : 0.33333333 : 1"
       inkscape:vp_z="1 : 0.5 : 1"
       inkscape:vp_y="0 : 1000 : 0"
       inkscape:vp_x="0 : 0.5 : 1"
       sodipodi:type="inkscape:persp3d" />
    <inkscape:perspective
       id="perspective3758"
       inkscape:persp3d-origin="0.5 : 0.33333333 : 1"
       inkscape:vp_z="1 : 0.5 : 1"
       inkscape:vp_y="0 : 1000 : 0"
       inkscape:vp_x="0 : 0.5 : 1"
       sodipodi:type="inkscape:persp3d" />
    <inkscape:perspective
       id="perspective3719"
       inkscape:persp3d-origin="0.5 : 0.33333333 : 1"
       inkscape:vp_z="1 : 0.5 : 1"
       inkscape:vp_y="0 : 1000 : 0"
       inkscape:vp_x="0 : 0.5 : 1"
       sodipodi:type="inkscape:persp3d" />
    <inkscape:perspective
       id="perspective3803"
       inkscape:persp3d-origin="0.5 : 0.33333333 : 1"
       inkscape:vp_z="1 : 0.5 : 1"
       inkscape:vp_y="0 : 1000 : 0"
       inkscape:vp_x="0 : 0.5 : 1"
       sodipodi:type="inkscape:persp3d" />
    <inkscape:perspective
       id="perspective3801"
       inkscape:persp3d-origin="0.5 : 0.33333333 : 1"
       inkscape:vp_z="1 : 0.5 : 1"
       inkscape:vp_y="0 : 1000 : 0"
       inkscape:vp_x="0 : 0.5 : 1"
       sodipodi:type="inkscape:persp3d" />
    <inkscape:perspective
       id="perspective3834"
       inkscape:persp3d-origin="0.5 : 0.33333333 : 1"
       inkscape:vp_z="1 : 0.5 : 1"
       inkscape:vp_y="0 : 1000 : 0"
       inkscape:vp_x="0 : 0.5 : 1"
       sodipodi:type="inkscape:persp3d" />
    <inkscape:perspective
       id="perspective3867"
       inkscape:persp3d-origin="0.5 : 0.33333333 : 1"
       inkscape:vp_z="1 : 0.5 : 1"
       inkscape:vp_y="0 : 1000 : 0"
       inkscape:vp_x="0 : 0.5 : 1"
       sodipodi:type="inkscape:persp3d" />
    <inkscape:perspective
       id="perspective3894"
       inkscape:persp3d-origin="0.5 : 0.33333333 : 1"
       inkscape:vp_z="1 : 0.5 : 1"
       inkscape:vp_y="0 : 1000 : 0"
       inkscape:vp_x="0 : 0.5 : 1"
       sodipodi:type="inkscape:persp3d" />
  </defs>
  <sodipodi:namedview
     id="base"
     pagecolor="#ffffff"
     bordercolor="#666666"
     borderopacity="1.0"
     inkscape:pageopacity="0.0"
     inkscape:pageshadow="2"
     inkscape:zoom="0.49497475"
     inkscape:cx="571.51329"
     inkscape:cy="512.69615"
     inkscape:document-units="px"
     inkscape:current-layer="g4143"
     showgrid="false"
     inkscape:window-width="1440"
     inkscape:window-height="840"
     inkscape:window-x="-4"
     inkscape:window-y="-4"
     inkscape:window-maximized="1" />
  <metadata
     id="metadata3178">
    <rdf:RDF>
      <cc:Work
         rdf:about="">
        <dc:format>image/svg+xml</dc:format>
        <dc:type
           rdf:resource="http://purl.org/dc/dcmitype/StillImage" />
        <dc:title>Zhang</dc:title>
        <dc:date>2010-08-14</dc:date>
        <dc:creator>
          <cc:Agent>
            <dc:title>Alex Amies</dc:title>
          </cc:Agent>
        </dc:creator>
        <dc:rights>
          <cc:Agent>
            <dc:title>@ Alex Amies 2010</dc:title>
          </cc:Agent>
        </dc:rights>
        <dc:publisher>
          <cc:Agent>
            <dc:title>chinesenotes.com</dc:title>
          </cc:Agent>
        </dc:publisher>
        <dc:source>Yan Qin Ceremonial Inscription</dc:source>
        <dc:language>Chinese 中文</dc:language>
        <dc:description>Tracing from Tang Dynasty Ceremonial Inscription by Yan Zhenqing 颜真卿 (709－785)</dc:description>
        <cc:license
           rdf:resource="http://creativecommons.org/licenses/by/3.0/" />
      </cc:Work>
      <cc:License
         rdf:about="http://creativecommons.org/licenses/by/3.0/">
        <cc:permits
           rdf:resource="http://creativecommons.org/ns#Reproduction" />
        <cc:permits
           rdf:resource="http://creativecommons.org/ns#Distribution" />
        <cc:requires
           rdf:resource="http://creativecommons.org/ns#Notice" />
        <cc:requires
           rdf:resource="http://creativecommons.org/ns#Attribution" />
        <cc:permits
           rdf:resource="http://creativecommons.org/ns#DerivativeWorks" />
      </cc:License>
    </rdf:RDF>
  </metadata>
  <g
     inkscape:label="Layer 1"
     inkscape:groupmode="layer"
     id="layer1"
     transform="translate(0,-52.362183)">
    <g
       transform="matrix(4.7609464,0,0,4.7609464,-1421.6669,-3910.0295)"
       id="g4143"
       style="fill:#000000;fill-opacity:1">
      <g
         transform="translate(151.10506,411.68138)"
         id="g6779"
         style="fill:none;fill-opacity:1">
        <path
           style="fill:#000000;stroke:#000000;stroke-width:4.76094626999999980px;stroke-linecap:butt;stroke-linejoin:miter;stroke-opacity:1;fill-opacity:1"
           d="M 294.125 38.40625 C 291.90585 38.433251 289.61641 38.618746 287.25 38.9375 C 273.03819 46.754498 281.02248 80.712959 284.125 94.40625 C 291.14302 107.3555 273.54254 105.13841 261.4375 108.53125 C 222.1387 123.15802 178.97229 115.79377 139.40625 127.46875 C 123.60743 127.86772 119.70297 150.15175 132.4375 157.96875 C 143.95523 169.38502 155.18263 183.65941 172.34375 186.21875 C 211.35171 193.43354 224.86608 152.45931 255.4375 139.6875 C 273.03586 159.16682 251.57299 211.97171 246.4375 237.90625 C 245.58994 245.80058 242.85086 254.43294 244.78125 262.21875 C 203.32101 264.83213 159.72843 272.04539 142.8125 275.40625 C 124.36274 283.8496 105.15739 303.9601 131.65625 313.71875 C 159.69184 318.51264 188.48858 317.37821 216.96875 318.0625 C 256.165 318.16153 300.45999 298.77782 326.46875 269.65625 C 318.32841 265.04166 305.26124 262.65031 289.71875 261.71875 C 293.83888 209.27176 312.10255 173.56515 355.59375 143.125 C 366.52584 130.46122 364.5838 111.41009 358.78125 96.90625 C 344.56893 69.26909 327.41222 38.001231 294.125 38.40625 z "
           transform="matrix(0.21004227,0,0,0.21004227,147.50509,420.58837)"
           id="path6743" />
        <path
           sodipodi:nodetypes="cccccccccccccccccccc"
           id="path6750"
           d="m 171.78571,493.07647 c -5.37234,2.06409 -4.93771,8.95704 -4.60154,13.67803 0.74856,6.38419 -2.41653,12.55824 -1.11039,18.91633 -1.684,3.76073 -8.5664,4.42969 -5.71664,10.26278 -1.63719,4.01121 1.57696,10.3754 6.31479,7.47238 7.03175,-5.50421 13.87477,-11.26294 20.58556,-17.15583 4.60193,-2.80266 12.60762,-8.89623 16.49795,-2.06592 3.77733,4.86856 2.19664,11.19893 0.39439,16.48634 -2.5034,11.58067 -3.72068,23.47089 -7.62249,34.72881 -3.11152,10.03003 -9.56126,19.28487 -18.66767,24.68799 -4.98958,3.58794 -8.67905,-2.99666 -12.67797,-6.04083 -0.79229,5.12539 -0.54971,10.60302 0.3263,14.59778 2.08122,7.22266 9.51964,13.17673 17.22898,11.39786 17.57441,-6.64158 24.36267,-24.44177 30.39,-40.6694 4.99985,-13.90178 3.28009,-26.48424 3.98063,-41.44223 1.07455,-9.60856 -2.54347,-21.12389 -10.32326,-26.52975 -6.67582,-1.37304 -13.40149,1.11551 -19.33769,3.92059 -1.85474,3.60618 -7.36398,3.52011 -6.03024,-2.02621 0.59591,-4.75624 2.55453,-9.59642 0.7431,-14.35252 -3.09761,-4.49935 -5.73442,-5.22009 -10.37381,-5.8662 z"
           style="fill:#000000;fill-opacity:1;stroke:#000000;stroke-width:1px;stroke-linecap:butt;stroke-linejoin:miter;stroke-opacity:1" />
        <path
           style="fill:#000000;stroke:#000000;stroke-width:4.76094626999999980px;stroke-linecap:butt;stroke-linejoin:miter;stroke-opacity:1;fill-opacity:1"
           d="M 729.4375 86.71875 C 728.59542 86.704331 727.73238 86.768277 726.84375 86.875 C 711.88052 89.992515 704.58385 106.37156 689.875 110.28125 C 645.294 137.73423 578.19917 119.73451 532.96875 143.375 C 532.04179 141.99141 531.07914 140.63779 530.0625 139.28125 C 513.09225 121.03273 474.43273 131.5782 478.1875 158.9375 C 501.01581 235.72952 497.14539 316.57813 492.5625 395.84375 C 489.93345 412.68704 480.59544 430.53926 487.96875 447.28125 C 442.59077 455.16604 397.5058 464.06979 353.65625 477.75 C 335.82831 487.18472 339.48328 509.5885 343.8125 525.6875 C 346.28424 548.03476 375.83841 550.09047 390.0625 537.75 C 404.78145 530.84103 420.74862 524.27179 437.59375 518.0625 C 437.52862 519.19003 437.61062 520.32965 437.84375 521.5 C 438.45977 610.72899 444.37758 699.7072 452.40625 788.5625 C 451.91632 792.64451 451.75753 797.59248 452.65625 802 C 441.7735 805.1358 430.88285 807.70702 419.9375 809.375 C 399.50899 809.40833 381.19646 791.77563 360.4375 798.96875 C 324.56325 812.12096 320.17171 836.82184 329.21875 871.90625 C 335.86679 892.06962 372.34313 899.59897 391.5625 895.96875 C 436.36453 849.25844 516.94283 809.92236 579.90625 786.71875 C 586.76082 775.92459 612.75642 751.50386 587.0625 754.78125 C 552.15312 763.43737 516.72938 779.78421 480.9375 792.71875 C 481.75461 790.46849 482.65772 788.3751 483.84375 786.65625 C 486.09226 723.02506 494.15315 559.05285 472.65625 506.0625 C 568.03149 475.63994 682.61846 455.97667 766.6875 450.96875 C 785.66059 450.60739 796.36808 470.13798 815.15625 470.5 C 834.27807 474.20197 862.30059 468.89017 865.90625 446.1875 C 867.36205 417.21086 847.80205 387.33863 818.40625 381.40625 C 791.94858 373.69214 763.23757 376.63202 738.875 389.5 C 676.21985 414.30771 610.47891 426.5781 544.53125 437.71875 C 552.93464 412.7904 558.45396 388.0703 561.59375 363.1875 C 563.88979 363.50803 566.35966 363.61415 569 363.40625 C 613.17739 341.7836 666.8944 355.15073 711.40625 339.625 C 737.5766 330.67294 729.241 304.59193 706.84375 297.21875 C 663.59897 299.83445 606.48416 303.66662 564.65625 323.625 C 565.00015 312.5501 564.92711 301.41892 564.5 290.1875 C 565.48003 290.36238 566.49468 290.48115 567.53125 290.5625 C 623.99807 276.91363 681.201 262.4398 743.875 236.625 C 748.09848 206.5163 719.15257 203.16894 691.25 201.8125 C 648.69316 214.23389 606.80662 230.34514 561.46875 249.3125 C 560.6954 242.11347 559.81825 234.86899 558.8125 227.5625 C 556.634 217.47843 554.89397 207.50659 552.90625 197.75 C 558.42189 196.66179 563.94544 194.99934 569.0625 193.96875 C 629.56413 153.3824 715.88353 171.54845 775.09375 131.3125 C 785.81193 120.68145 769.46967 109.51876 760.34375 105.5 C 749.73897 100.11113 742.06874 86.935035 729.4375 86.71875 z M 699.03125 465.59375 C 696.71408 465.54851 694.3669 465.63722 692 465.84375 C 630.02867 520.36796 578.05372 587.82327 520.28125 647.78125 C 514.32959 653.87859 537.64836 648.60332 545.78125 646.0625 C 574.98075 636.94016 600.66689 620.15151 625.75 601.96875 C 626.03193 602.79997 626.34329 603.61275 626.6875 604.40625 C 668.3524 682.36727 699.57754 794.94308 761.71875 862.09375 C 774.91686 873.23056 786.47586 887.42594 803.1875 881 C 845.46351 864.14182 867.10909 861.02757 926 860.84375 C 941.52026 848.57793 985.6617 853.09383 933.03125 825.5 C 907.42659 807.10446 871.35031 791.40839 848.75 770.71875 C 777.77056 715.7107 731.42076 640.93942 659.375 577.25 C 681.02073 561.5664 703.19122 546.90663 727.71875 537.25 C 735.26966 534.27717 747.38113 539.1298 751.53125 532.15625 C 761.91081 494.66607 733.78886 466.2724 699.03125 465.59375 z "
           transform="matrix(0.21004227,0,0,0.21004227,147.50509,420.58837)"
           id="path6753" />
      </g>
    </g>
  </g>
</svg>
