<?xml version="1.0" encoding="UTF-8" standalone="no"?>
<!-- Created with Inkscape (http://www.inkscape.org/) -->

<svg
   xmlns:dc="http://purl.org/dc/elements/1.1/"
   xmlns:cc="http://creativecommons.org/ns#"
   xmlns:rdf="http://www.w3.org/1999/02/22-rdf-syntax-ns#"
   xmlns:svg="http://www.w3.org/2000/svg"
   xmlns="http://www.w3.org/2000/svg"
   xmlns:sodipodi="http://sodipodi.sourceforge.net/DTD/sodipodi-0.dtd"
   xmlns:inkscape="http://www.inkscape.org/namespaces/inkscape"
   width="1000"
   height="1000"
   id="svg3173"
   version="1.1"
   inkscape:version="0.47 r22583"
   sodipodi:docname="5f6d.svg"
   inkscape:export-filename="E:\chinese\yan\5f6d.png"
   inkscape:export-xdpi="18.005705"
   inkscape:export-ydpi="18.005705">
  <title
     id="title3704">Peng</title>
  <defs
     id="defs3175">
    <inkscape:perspective
       sodipodi:type="inkscape:persp3d"
       inkscape:vp_x="0 : 526.18109 : 1"
       inkscape:vp_y="0 : 1000 : 0"
       inkscape:vp_z="744.09448 : 526.18109 : 1"
       inkscape:persp3d-origin="372.04724 : 350.78739 : 1"
       id="perspective3181" />
    <inkscape:perspective
       id="perspective3191"
       inkscape:persp3d-origin="0.5 : 0.33333333 : 1"
       inkscape:vp_z="1 : 0.5 : 1"
       inkscape:vp_y="0 : 1000 : 0"
       inkscape:vp_x="0 : 0.5 : 1"
       sodipodi:type="inkscape:persp3d" />
    <inkscape:perspective
       id="perspective4006"
       inkscape:persp3d-origin="0.5 : 0.33333333 : 1"
       inkscape:vp_z="1 : 0.5 : 1"
       inkscape:vp_y="0 : 1000 : 0"
       inkscape:vp_x="0 : 0.5 : 1"
       sodipodi:type="inkscape:persp3d" />
    <inkscape:perspective
       id="perspective4034"
       inkscape:persp3d-origin="0.5 : 0.33333333 : 1"
       inkscape:vp_z="1 : 0.5 : 1"
       inkscape:vp_y="0 : 1000 : 0"
       inkscape:vp_x="0 : 0.5 : 1"
       sodipodi:type="inkscape:persp3d" />
    <inkscape:perspective
       id="perspective4081"
       inkscape:persp3d-origin="0.5 : 0.33333333 : 1"
       inkscape:vp_z="1 : 0.5 : 1"
       inkscape:vp_y="0 : 1000 : 0"
       inkscape:vp_x="0 : 0.5 : 1"
       sodipodi:type="inkscape:persp3d" />
    <inkscape:perspective
       id="perspective4147"
       inkscape:persp3d-origin="0.5 : 0.33333333 : 1"
       inkscape:vp_z="1 : 0.5 : 1"
       inkscape:vp_y="0 : 1000 : 0"
       inkscape:vp_x="0 : 0.5 : 1"
       sodipodi:type="inkscape:persp3d" />
    <inkscape:perspective
       id="perspective3858"
       inkscape:persp3d-origin="0.5 : 0.33333333 : 1"
       inkscape:vp_z="1 : 0.5 : 1"
       inkscape:vp_y="0 : 1000 : 0"
       inkscape:vp_x="0 : 0.5 : 1"
       sodipodi:type="inkscape:persp3d" />
    <inkscape:perspective
       id="perspective3876"
       inkscape:persp3d-origin="0.5 : 0.33333333 : 1"
       inkscape:vp_z="1 : 0.5 : 1"
       inkscape:vp_y="0 : 1000 : 0"
       inkscape:vp_x="0 : 0.5 : 1"
       sodipodi:type="inkscape:persp3d" />
    <inkscape:perspective
       id="perspective3901"
       inkscape:persp3d-origin="0.5 : 0.33333333 : 1"
       inkscape:vp_z="1 : 0.5 : 1"
       inkscape:vp_y="0 : 1000 : 0"
       inkscape:vp_x="0 : 0.5 : 1"
       sodipodi:type="inkscape:persp3d" />
    <inkscape:perspective
       id="perspective4392"
       inkscape:persp3d-origin="0.5 : 0.33333333 : 1"
       inkscape:vp_z="1 : 0.5 : 1"
       inkscape:vp_y="0 : 1000 : 0"
       inkscape:vp_x="0 : 0.5 : 1"
       sodipodi:type="inkscape:persp3d" />
    <inkscape:perspective
       id="perspective3806"
       inkscape:persp3d-origin="0.5 : 0.33333333 : 1"
       inkscape:vp_z="1 : 0.5 : 1"
       inkscape:vp_y="0 : 1000 : 0"
       inkscape:vp_x="0 : 0.5 : 1"
       sodipodi:type="inkscape:persp3d" />
    <inkscape:perspective
       id="perspective3763"
       inkscape:persp3d-origin="0.5 : 0.33333333 : 1"
       inkscape:vp_z="1 : 0.5 : 1"
       inkscape:vp_y="0 : 1000 : 0"
       inkscape:vp_x="0 : 0.5 : 1"
       sodipodi:type="inkscape:persp3d" />
    <inkscape:perspective
       id="perspective3790"
       inkscape:persp3d-origin="0.5 : 0.33333333 : 1"
       inkscape:vp_z="1 : 0.5 : 1"
       inkscape:vp_y="0 : 1000 : 0"
       inkscape:vp_x="0 : 0.5 : 1"
       sodipodi:type="inkscape:persp3d" />
    <inkscape:perspective
       id="perspective3825"
       inkscape:persp3d-origin="0.5 : 0.33333333 : 1"
       inkscape:vp_z="1 : 0.5 : 1"
       inkscape:vp_y="0 : 1000 : 0"
       inkscape:vp_x="0 : 0.5 : 1"
       sodipodi:type="inkscape:persp3d" />
  </defs>
  <sodipodi:namedview
     id="base"
     pagecolor="#ffffff"
     bordercolor="#666666"
     borderopacity="1.0"
     inkscape:pageopacity="0.0"
     inkscape:pageshadow="2"
     inkscape:zoom="0.49497475"
     inkscape:cx="413.61348"
     inkscape:cy="540.34663"
     inkscape:document-units="px"
     inkscape:current-layer="g4371"
     showgrid="false"
     inkscape:window-width="1440"
     inkscape:window-height="840"
     inkscape:window-x="-4"
     inkscape:window-y="-4"
     inkscape:window-maximized="1" />
  <metadata
     id="metadata3178">
    <rdf:RDF>
      <cc:Work
         rdf:about="">
        <dc:format>image/svg+xml</dc:format>
        <dc:type
           rdf:resource="http://purl.org/dc/dcmitype/StillImage" />
        <dc:title>Peng</dc:title>
        <dc:date>2010-08-11</dc:date>
        <dc:creator>
          <cc:Agent>
            <dc:title>Alex Amies</dc:title>
          </cc:Agent>
        </dc:creator>
        <dc:rights>
          <cc:Agent>
            <dc:title>@ Alex Amies 2010</dc:title>
          </cc:Agent>
        </dc:rights>
        <dc:publisher>
          <cc:Agent>
            <dc:title>chinesenotes.com</dc:title>
          </cc:Agent>
        </dc:publisher>
        <dc:source>Yan Qin Ceremonial Inscription</dc:source>
        <dc:language>Chinese 中文</dc:language>
        <dc:description>Tracing from Tang Dynasty Ceremonial Inscription by Yan Zhenqing 颜真卿 (709－785)</dc:description>
        <cc:license
           rdf:resource="http://creativecommons.org/licenses/by/3.0/" />
      </cc:Work>
      <cc:License
         rdf:about="http://creativecommons.org/licenses/by/3.0/">
        <cc:permits
           rdf:resource="http://creativecommons.org/ns#Reproduction" />
        <cc:permits
           rdf:resource="http://creativecommons.org/ns#Distribution" />
        <cc:requires
           rdf:resource="http://creativecommons.org/ns#Notice" />
        <cc:requires
           rdf:resource="http://creativecommons.org/ns#Attribution" />
        <cc:permits
           rdf:resource="http://creativecommons.org/ns#DerivativeWorks" />
      </cc:License>
    </rdf:RDF>
  </metadata>
  <g
     inkscape:label="Layer 1"
     inkscape:groupmode="layer"
     id="layer1"
     transform="translate(0,-52.362183)">
    <g
       transform="matrix(4.7488612,0,0,4.7488612,-1416.4781,-3986.1517)"
       id="g4371"
       style="fill:#000000;fill-opacity:1">
      <g
         transform="matrix(1.0025449,0,0,1.0025449,199.61522,7.5750246)"
         id="g7713"
         style="fill:#000000;fill-opacity:1">
        <path
           style="fill:#000000;stroke:#000000;stroke-width:4.76094674999999960px;stroke-linecap:butt;stroke-linejoin:miter;stroke-opacity:1;fill-opacity:1"
           d="M 322.3125 49.5 C 316.40812 49.41151 310.52202 50.26625 304.8125 52.21875 L 300.03125 53.8125 C 274.97758 64.077529 285.36827 91.113097 284.03125 112.0625 C 284.09132 133.46331 283.15858 154.86009 281.875 176.21875 C 249.02898 186.48044 216.74442 197.72295 186.09375 211.9375 C 178.79203 215.32377 171.55071 225.12192 172.5 232.34375 C 174.58648 248.2166 178.6862 270.0942 195.34375 281.34375 C 206.22837 288.69456 220.31399 289.90852 230.3125 285.0625 C 246.80144 277.07076 260.17144 260.91118 276.9375 250.3125 C 275.23195 278.55328 274.15034 306.83616 275.125 335.15625 C 276.67968 337.76614 278.35022 339.94819 280.125 341.78125 C 266.0881 347.63313 251.9994 353.3419 237.875 358.90625 C 213.56232 368.48432 187.46432 373.13183 162.28125 380.28125 C 144.44655 385.34447 138.95832 420.69961 164.5625 416.21875 C 189.03338 411.93623 211.41763 401.6191 234.3125 392.875 C 295.82431 367.88032 356.42205 337.05621 422.8125 327.40625 C 440.71228 325.65555 460.76556 330.86923 476.84375 325.875 C 486.14283 322.98653 499.49493 311.92693 498.96875 303.75 C 498.16915 291.32402 484.388 275.22277 470.0625 266.34375 C 457.50693 258.56174 448.34619 264.20776 437 269.875 C 403.9725 286.37171 370.54334 302.19838 336.8125 317.28125 C 339.61413 311.08463 341.18624 304.63162 341 298.59375 C 349.89028 269.06437 362.89687 240.58102 368.84375 210.34375 C 397.97911 197.75266 426.84135 185.06366 454.75 172.84375 C 461.27492 169.9868 464.93319 159.14306 463.25 152.4375 C 457.95745 131.3526 425.84986 132.03428 406.65625 138.375 C 397.1812 141.50515 387.6467 144.49804 378.0625 147.4375 C 380.95797 128.13443 383.85452 108.83432 386.75 89.53125 C 373.79718 67.850066 347.89814 49.883458 322.3125 49.5 z "
           transform="matrix(0.21004226,0,0,0.21004226,98.411759,840.70281)"
           id="path7654" />
        <path
           style="fill:#000000;stroke:#000000;stroke-width:4.76094674999999960px;stroke-linecap:butt;stroke-linejoin:miter;stroke-opacity:1;fill-opacity:1"
           d="M 185.625 488.21875 C 179.67814 488.28274 172.88395 491.05272 168 495.53125 C 161.00417 501.94648 149.41923 505.33106 145.28125 512.90625 C 141.49401 519.83933 142.86225 530.35489 146.25 538.9375 C 160.54436 575.15083 168.18335 615.72733 186.09375 648.9375 C 192.23699 660.32849 206.77873 668.56363 218.40625 672.71875 C 225.00716 675.07756 234.79114 672.56126 240.96875 668.875 C 247.44692 665.00954 256.23668 659.23651 257.5 652.34375 C 257.83166 650.53425 257.96921 648.61934 258 646.6875 C 287.78984 643.03273 316.18637 627.37993 344.71875 616.40625 C 381.17722 610.59604 418.93131 607.4715 456.0625 606.46875 C 460.63087 606.38686 469.16059 597.01897 467.28125 592.78125 C 464.0997 585.60722 461.33939 576.08618 454.75 572.40625 C 420.7856 559.89862 376.81155 558.28916 341.5625 567.53125 C 308.10982 577.00058 272.4292 583.43384 245.375 605.46875 C 235.23575 583.43991 226.56789 560.6906 218.75 537.6875 C 213.8616 518.63195 207.38429 500.84443 191.1875 489.09375 C 189.49795 488.47923 187.60729 488.19742 185.625 488.21875 z "
           transform="matrix(0.21004226,0,0,0.21004226,98.411759,840.70281)"
           id="path7660" />
        <path
           id="path7662"
           d="m 156.42857,938.07647 c -2.09968,1.74749 -3.38223,4.00969 -0.15964,5.6679 3.21284,2.40712 7.36109,2.68023 11.23107,2.54638 5.05122,-5.86161 11.78876,-9.72876 17.98775,-14.20394 2.13279,-2.27054 7.04752,-3.46607 5.52829,1.35015 -2.27928,5.61367 -4.7533,11.27036 -6.36771,17.10337 0.11201,6.52186 7.68764,6.05154 10.42062,1.41797 5.19454,-5.8061 9.45021,-12.3712 14.21676,-18.52469 1.09761,-6.73429 -4.89842,-11.62851 -9.92883,-14.92376 -2.64895,-1.59524 -7.61893,-1.26457 -8.15262,2.36412 -0.3695,3.10817 -3.87764,3.26504 -6.12236,4.60623 -9.49975,4.31413 -19.03359,8.55566 -28.65333,12.59627 z"
           style="fill:#000000;fill-opacity:1;stroke:#000000;stroke-width:1px;stroke-linecap:butt;stroke-linejoin:miter;stroke-opacity:1" />
        <path
           id="path7666"
           d="m 148.21429,990.57647 c -3.84428,2.3009 -7.48268,5.80942 -10.35715,9.28571 -1.29397,2.96802 -1.38009,6.26492 -0.35714,9.28572 0.92779,1.3019 2.86989,2.5465 4.5413,2.8571 1.87004,0.3476 4.2447,0.8048 5.81584,0 3.91336,-2.4116 5.85492,-6.6597 5.32928,-11.1519 -0.57109,-3.13125 -1.82095,-6.383 -3.18642,-9.2052 -0.29191,-0.60334 -1.21686,-1.28218 -1.78571,-1.07143 z"
           style="fill:#000000;fill-opacity:1;stroke:#000000;stroke-width:1px;stroke-linecap:butt;stroke-linejoin:miter;stroke-opacity:1"
           sodipodi:nodetypes="cccsccsc" />
        <path
           id="path7668"
           d="m 176.07143,973.79075 c -1.34413,0.82716 -2.1665,2.96963 -2.5,4.64286 -0.49583,2.48771 0.1919,5.17918 0.9134,7.74277 0.79186,2.81356 0.006,5.95215 0.0692,8.91102 0.034,1.58138 -1.50225,4.74777 1.36132,3.38468 2.39817,-1.14156 4.62909,-2.40842 6.72482,-4.01033 1.94971,-1.4903 2.36766,-4.45902 4.14556,-5.671 2.15508,-1.46909 7.86089,0.77799 8.90328,-0.78727 0.87099,-1.30789 0.53356,-4.07847 -0.33185,-5.6413 -1.62616,-2.93665 -4.42273,-5.75876 -7.14285,-7.85714 -3.55921,-2.47466 -8.24103,-2.19241 -12.14288,-0.71429 z"
           style="fill:#000000;fill-opacity:1;stroke:#000000;stroke-width:1px;stroke-linecap:butt;stroke-linejoin:miter;stroke-opacity:1"
           sodipodi:nodetypes="csssssssscc" />
        <path
           id="path7670"
           d="m 123.92857,1026.6479 c -5.99986,4.701 1.58317,11.9005 7.11925,12.1273 5.89164,2.1702 10.6742,-2.0946 15.24916,-5.0221 10.91144,-5.4915 22.57337,-9.3243 33.68834,-14.3798 8.49211,-3.3977 17.93355,-3.5622 26.61998,-0.8856 8.97742,-0.9924 3.49037,-15.5258 -3.65676,-16.3466 -6.89138,-1.658 -11.66161,4.7843 -17.91495,6.3021 -16.20382,5.0846 -32.5139,9.8595 -48.51207,15.5949 -4.06864,1.701 -8.22197,2.3583 -12.59295,2.6098 z"
           style="fill:#000000;fill-opacity:1;stroke:#000000;stroke-width:1px;stroke-linecap:butt;stroke-linejoin:miter;stroke-opacity:1" />
        <path
           id="path7672"
           d="m 264.64286,858.07647 c -6.94504,0.0103 -12.01963,6.7913 -15.98726,12.33014 -4.10243,8.22371 -13.45105,19.84787 -16.51274,30.527 1.79676,4.26364 9.12514,-5.97555 13.65713,-8.80609 7.295,-4.55623 13.13419,-11.88726 20.62858,-15.83677 3.12168,-1.64511 7.22138,1.54923 10.46911,1.12845 2.69857,-0.34962 3.5823,-4.14306 2.72254,-6.21395 -1.62342,-3.9103 -5.42578,-7.68074 -9.40641,-10.12901 -1.80095,-1.10767 -3.52821,-3.00281 -5.57095,-2.99977 z"
           style="fill:#000000;fill-opacity:1;stroke:#000000;stroke-width:1px;stroke-linecap:butt;stroke-linejoin:miter;stroke-opacity:1"
           sodipodi:nodetypes="cccssssss" />
        <path
           id="path7674"
           d="m 261.07143,930.57647 c -2.60936,0.34161 -6.25743,0.72036 -7.85714,2.85714 -6.0888,8.13297 -11.08696,18.08782 -16.90321,26.93353 -0.99082,1.5069 -0.6628,3.50013 -0.26131,4.94944 0.26319,0.95008 2.74079,1.43852 3.77547,0.9424 6.59981,-3.00662 11.49767,-9.718 18.38905,-12.11108 4.65293,-0.96395 10.18087,0.50455 14.64285,-0.71429 1.84463,-0.50389 3.91225,-2.51173 4.28572,-4.28571 0.57891,-2.74983 0.22133,-6.87295 -1.42857,-9.28572 -3.51397,-4.52498 -9.06978,-8.00562 -14.64286,-9.28571 z"
           style="fill:#000000;fill-opacity:1;stroke:#000000;stroke-width:1px;stroke-linecap:butt;stroke-linejoin:miter;stroke-opacity:1"
           sodipodi:nodetypes="csssccsscc" />
        <path
           id="path7676"
           d="m 271.78571,992.71933 c -4.82546,-0.96048 -8.37903,2.8636 -11.34201,6.0094 -7.45314,6.56517 -15.31543,12.75817 -21.50157,20.60667 -1.92684,3.4257 -9.38542,7.2132 -6.70215,11.0919 14.99599,-2.1165 30.02598,-4.6985 45.07192,-6.6365 3.03889,0 6.07778,0 9.11667,0 4.35799,-2.6847 6.87402,-6.6467 4.9642,-11.8361 -0.25099,-5.6588 -2.34767,-11.9382 -6.65942,-15.59424 -3.93634,-3.3441 -8.12852,-3.64113 -12.94764,-3.64113 z"
           style="fill:#000000;fill-opacity:1;stroke:#000000;stroke-width:1px;stroke-linecap:butt;stroke-linejoin:miter;stroke-opacity:1"
           sodipodi:nodetypes="ccccccccc" />
      </g>
    </g>
  </g>
</svg>
