<?xml version="1.0" encoding="UTF-8" standalone="no"?>
<!-- Created with Inkscape (http://www.inkscape.org/) -->

<svg
   xmlns:dc="http://purl.org/dc/elements/1.1/"
   xmlns:cc="http://creativecommons.org/ns#"
   xmlns:rdf="http://www.w3.org/1999/02/22-rdf-syntax-ns#"
   xmlns:svg="http://www.w3.org/2000/svg"
   xmlns="http://www.w3.org/2000/svg"
   xmlns:sodipodi="http://sodipodi.sourceforge.net/DTD/sodipodi-0.dtd"
   xmlns:inkscape="http://www.inkscape.org/namespaces/inkscape"
   width="1000"
   height="1000"
   id="svg3173"
   version="1.1"
   inkscape:version="0.47 r22583"
   sodipodi:docname="79a6.svg"
   inkscape:export-filename="E:\chinese\yan\79a6.png"
   inkscape:export-xdpi="18.005705"
   inkscape:export-ydpi="18.005705">
  <title
     id="title3604">Yu</title>
  <defs
     id="defs3175">
    <inkscape:perspective
       sodipodi:type="inkscape:persp3d"
       inkscape:vp_x="0 : 526.18109 : 1"
       inkscape:vp_y="0 : 1000 : 0"
       inkscape:vp_z="744.09448 : 526.18109 : 1"
       inkscape:persp3d-origin="372.04724 : 350.78739 : 1"
       id="perspective3181" />
    <inkscape:perspective
       id="perspective3191"
       inkscape:persp3d-origin="0.5 : 0.33333333 : 1"
       inkscape:vp_z="1 : 0.5 : 1"
       inkscape:vp_y="0 : 1000 : 0"
       inkscape:vp_x="0 : 0.5 : 1"
       sodipodi:type="inkscape:persp3d" />
    <inkscape:perspective
       id="perspective4006"
       inkscape:persp3d-origin="0.5 : 0.33333333 : 1"
       inkscape:vp_z="1 : 0.5 : 1"
       inkscape:vp_y="0 : 1000 : 0"
       inkscape:vp_x="0 : 0.5 : 1"
       sodipodi:type="inkscape:persp3d" />
    <inkscape:perspective
       id="perspective4034"
       inkscape:persp3d-origin="0.5 : 0.33333333 : 1"
       inkscape:vp_z="1 : 0.5 : 1"
       inkscape:vp_y="0 : 1000 : 0"
       inkscape:vp_x="0 : 0.5 : 1"
       sodipodi:type="inkscape:persp3d" />
    <inkscape:perspective
       id="perspective4081"
       inkscape:persp3d-origin="0.5 : 0.33333333 : 1"
       inkscape:vp_z="1 : 0.5 : 1"
       inkscape:vp_y="0 : 1000 : 0"
       inkscape:vp_x="0 : 0.5 : 1"
       sodipodi:type="inkscape:persp3d" />
    <inkscape:perspective
       id="perspective4147"
       inkscape:persp3d-origin="0.5 : 0.33333333 : 1"
       inkscape:vp_z="1 : 0.5 : 1"
       inkscape:vp_y="0 : 1000 : 0"
       inkscape:vp_x="0 : 0.5 : 1"
       sodipodi:type="inkscape:persp3d" />
    <inkscape:perspective
       id="perspective3750"
       inkscape:persp3d-origin="0.5 : 0.33333333 : 1"
       inkscape:vp_z="1 : 0.5 : 1"
       inkscape:vp_y="0 : 1000 : 0"
       inkscape:vp_x="0 : 0.5 : 1"
       sodipodi:type="inkscape:persp3d" />
    <inkscape:perspective
       id="perspective3756"
       inkscape:persp3d-origin="0.5 : 0.33333333 : 1"
       inkscape:vp_z="1 : 0.5 : 1"
       inkscape:vp_y="0 : 1000 : 0"
       inkscape:vp_x="0 : 0.5 : 1"
       sodipodi:type="inkscape:persp3d" />
    <inkscape:perspective
       id="perspective3730"
       inkscape:persp3d-origin="0.5 : 0.33333333 : 1"
       inkscape:vp_z="1 : 0.5 : 1"
       inkscape:vp_y="0 : 1000 : 0"
       inkscape:vp_x="0 : 0.5 : 1"
       sodipodi:type="inkscape:persp3d" />
  </defs>
  <sodipodi:namedview
     id="base"
     pagecolor="#ffffff"
     bordercolor="#666666"
     borderopacity="1.0"
     inkscape:pageopacity="0.0"
     inkscape:pageshadow="2"
     inkscape:zoom="0.49497475"
     inkscape:cx="634.79097"
     inkscape:cy="545.16461"
     inkscape:document-units="px"
     inkscape:current-layer="layer1"
     showgrid="false"
     inkscape:window-width="1440"
     inkscape:window-height="840"
     inkscape:window-x="-4"
     inkscape:window-y="-4"
     inkscape:window-maximized="1" />
  <metadata
     id="metadata3178">
    <rdf:RDF>
      <cc:Work
         rdf:about="">
        <dc:format>image/svg+xml</dc:format>
        <dc:type
           rdf:resource="http://purl.org/dc/dcmitype/StillImage" />
        <dc:title>Yu</dc:title>
        <dc:date>2010-08-03</dc:date>
        <dc:creator>
          <cc:Agent>
            <dc:title>Alex Amies</dc:title>
          </cc:Agent>
        </dc:creator>
        <dc:rights>
          <cc:Agent>
            <dc:title>@ Alex Amies 2010</dc:title>
          </cc:Agent>
        </dc:rights>
        <dc:publisher>
          <cc:Agent>
            <dc:title>chinesenotes.com</dc:title>
          </cc:Agent>
        </dc:publisher>
        <dc:source>Yan Qin Ceremonial Inscription</dc:source>
        <dc:language>Chinese 中文</dc:language>
        <dc:description>Tracing from Tang Dynasty Ceremonial Inscription by Yan Zhenqing 颜真卿 (709－785)</dc:description>
        <cc:license
           rdf:resource="http://creativecommons.org/licenses/by/3.0/" />
      </cc:Work>
      <cc:License
         rdf:about="http://creativecommons.org/licenses/by/3.0/">
        <cc:permits
           rdf:resource="http://creativecommons.org/ns#Reproduction" />
        <cc:permits
           rdf:resource="http://creativecommons.org/ns#Distribution" />
        <cc:requires
           rdf:resource="http://creativecommons.org/ns#Notice" />
        <cc:requires
           rdf:resource="http://creativecommons.org/ns#Attribution" />
        <cc:permits
           rdf:resource="http://creativecommons.org/ns#DerivativeWorks" />
      </cc:License>
    </rdf:RDF>
  </metadata>
  <g
     inkscape:label="Layer 1"
     inkscape:groupmode="layer"
     id="layer1"
     transform="translate(0,-52.362183)">
    <path
       style="fill:#000000;fill-opacity:1;stroke:#000000;stroke-width:4.76094627px;stroke-linecap:butt;stroke-linejoin:miter;stroke-opacity:1"
       d="m 288.23273,117.78676 c -15.40752,1.05526 -39.66083,34.23196 -69.18251,58.47037 -28.62138,26.16388 -69.10242,38.87927 -95.81404,67.24837 -2.38476,3.07524 -3.84899,12.89426 -0.89268,13.68772 10.23437,2.74683 24.30225,5.76389 34.9632,1.63658 48.17444,-18.65025 93.39096,-48.78599 141.3406,-70.22396 10.1421,-4.53447 24.35067,-3.4285 31.9876,-9.67068 12.84399,-16.43707 5.34926,-35.79151 -8.48043,-49.24604 -8.80685,-6.98469 -22.64382,-12.67478 -33.92174,-11.90236 z m 109.65054,50.43627 c -6.3472,0.58232 -13.47552,4.25439 -16.21697,9.07556 -12.78133,22.47752 -12.8995,55.13228 -27.22666,78.10928 -18.4999,29.66902 -56.69864,54.38643 -71.26542,79.74585 -10.48103,-12.96263 -26.98209,-23.28889 -40.91438,-26.92911 -11.55568,-0.51637 -23.73365,9.64973 -31.98761,20.82914 C 153.04484,406.56434 86.244575,480.2418 33.075753,558.1743 c -4.725049,6.92575 -2.574243,29.43736 3.42193,25.44131 34.923019,-23.27398 73.677357,-59.90599 112.923697,-95.07015 -1.79821,13.77208 -1.24618,28.38191 -2.52925,42.2534 -7.67236,120.70413 -13.87078,241.50043 -20.23402,362.27817 15.67532,18.25299 51.88551,-4.84998 71.41419,-11.90237 7.93079,-11.19203 11.88928,-23.82187 10.26579,-37.49245 -5.18995,-60.56319 -9.37706,-143.25164 -6.24874,-217.66442 3.71982,-88.48153 14.98013,-165.42166 7.88532,-180.17207 -3.34447,-0.0481 -6.76435,-0.29851 -10.11701,-0.59512 27.99127,-22.16744 57.78822,-43.08366 83.16778,-67.39714 5.76841,-5.52613 10.57202,-14.49023 10.26579,-22.01938 -0.61821,-3.81566 -1.98903,-7.65199 -3.86827,-11.30725 4.21225,2.53858 9.34712,4.08351 12.34871,2.67803 34.22054,-16.02382 70.68234,-40.64753 103.4018,-65.76057 0.24995,1.94847 0.97595,3.5879 2.08292,4.61217 1.59739,0.5417 3.1406,0.932 4.76094,1.33901 -1.30097,34.51177 -1.08459,69.02249 -0.4461,103.55059 l -172.73309,66.80203 c -7.73344,13.30194 -3.11818,26.04195 3.42193,38.23635 32.43509,17.77585 103.72651,-33.27502 138.06745,-47.31191 10.77659,-1.9178 21.51934,-3.92854 32.28517,-5.95118 0.48143,22.52613 0.89529,45.02389 0.89268,67.54593 0.57631,47.18621 4.58145,94.25279 7.2902,141.34059 1.90328,1.49466 3.80356,3.12366 5.65362,4.76095 -28.99959,7.03397 -58.01151,14.33116 -86.73849,22.16816 -7.82191,4.00643 -15.69237,7.82214 -23.65596,11.6048 1.61796,-8.00824 3.34124,-16.0551 2.52926,-24.25107 -1.04527,-37.62909 6.27378,-75.2946 -3.27315,-112.92369 -14.21414,-34.68098 -38.37552,-38.90122 -71.4142,-44.18754 -2.96236,9.58302 -0.0943,19.03441 2.67803,28.26812 6.54192,24.74978 18.27037,49.43338 19.49013,74.24101 0.26899,18.97042 -0.50942,38.08481 0.4461,56.98258 l 11.45602,36.00465 4.90973,2.08292 c -4.29713,2.26335 -8.4612,4.55056 -12.64626,6.99264 -12.85394,6.93146 -18.40039,19.54221 -24.54863,31.83883 7.86575,19.41061 30.63688,14.95722 46.41922,8.03386 85.22623,-24.11082 171.83282,-52.68454 259.91787,-65.76034 2.11901,18.08912 15.56382,30.95372 35.40954,25.44131 9.02366,-4.76728 18.49457,-17.63545 20.23403,-30.49981 3.57351,-26.42845 12.14869,-52.4355 13.8365,-79.00196 2.1767,-34.26182 -7.47531,-67.71303 1.63657,-103.10424 1.63582,-6.35363 10.64676,-11.12072 10.26579,-16.96088 -0.5786,-8.87016 -7.36928,-19.28664 -16.66331,-24.69741 -14.08426,-14.08373 -32.90176,-19.41437 -51.47773,-9.37311 -7.29839,5.91167 -13.30404,18.25742 -13.53894,28.71446 -1.22876,54.70613 -2.05307,109.82042 -1.04146,164.55021 -11.6587,-6.02155 -24.84862,-9.18629 -37.04612,-7.2902 -11.25506,2.84086 -22.48723,5.57997 -33.77296,8.33166 -5.22935,-30.73682 -7.81612,-61.81951 -5.50482,-92.98724 0.26947,-39.96281 2.52487,-80.09368 1.93413,-120.06511 28.73658,-5.44748 57.59962,-10.72932 86.44091,-15.17552 23.08217,0.55736 49.31551,8.69796 68.88495,-3.42193 8.84565,-5.47833 19.86619,-17.86564 15.32429,-27.22666 -16.83942,-34.70687 -31.87377,-43.54029 -61.8923,-50.73384 -13.98999,-3.54543 -27.41396,-1.13287 -40.02171,5.20729 l -72.45562,28.11934 c -1.33997,-16.72011 -3.41056,-33.55339 -3.71949,-50.13872 2.17142,-7.91917 6.94474,-15.92199 7.58775,-23.80473 l -4.46338,-11.00969 c 17.97988,-4.99252 35.91246,-11.06016 52.81672,-13.39016 28.08702,-2.57506 57.25243,0.75542 84.80436,-3.27315 23.16258,-2.97174 46.79649,-21.85679 42.40218,-47.60947 -22.37531,-18.29446 -65.26458,-15.21317 -92.24334,-9.96823 -38.28358,11.21346 -78.32099,24.855 -115.00656,40.7656 6.94358,-6.54849 13.40423,-13.42848 18.59742,-20.68036 4.69039,-6.54977 6.94151,-20.13637 1.63658,-25.4413 -14.53232,-14.53236 -40.39518,-27.71752 -61.14838,-34.07053 -1.75475,-0.53717 -3.83547,-0.64044 -5.95119,-0.4461 z M 891.2363,382.46562 c -55.49102,-1.17029 -111.61125,15.78478 -166.03801,28.11934 -9.00209,-4.82655 -19.39176,-7.75877 -29.01202,-10.56335 -22.02742,-3.19935 -26.30737,27.38668 -25.88764,43.59242 -3.38218,149.44658 -1.32255,298.96715 -2.97559,448.42178 1.40024,33.68417 2.40094,67.90633 8.03409,101.02109 12.15232,20.2521 34.75086,-0.34755 32.13639,-18.1511 11.0433,-52.78414 25.78272,-105.19312 31.39249,-158.89659 1.00418,-105.18816 0.59464,-210.39908 7.58776,-315.41261 2.09224,-7.41398 3.87727,-15.01254 4.90973,-22.61449 4.87568,-1.43533 9.53417,-3.26668 13.8365,-5.05851 24.95012,-8.5887 49.48275,-18.39044 74.9849,-25.29252 23.84596,-6.53869 26.47239,24.83181 26.18521,41.65828 -0.31327,20.95002 0.37944,41.98774 -0.4461,62.93376 -12.70368,28.13057 -23.29608,57.28708 -38.83147,84.06046 -13.81018,6.18061 -21.79776,-9.52851 -30.79738,-17.25843 -6.26192,-8.18878 -13.58221,-13.68139 -16.51453,1.33901 -5.33226,19.42514 -6.53587,41.72446 0.89268,60.70207 12.31333,20.81167 13.27509,45.29079 18.74623,68.28959 8.79675,20.89817 35.63273,10.89447 52.07285,6.5463 47.32923,-28.47441 66.53299,-82.1359 82.2751,-132.41359 8.22625,-29.58018 19.87886,-58.64286 20.82914,-89.71408 1.71042,-16.03958 1.194,-33.16099 10.26579,-47.16313 17.1326,-25.25658 4.59736,-55.4017 -10.11701,-76.4727 -11.09767,-15.89185 -31.06579,-25.27167 -51.47773,-27.07788 -4.00048,-0.28185 -8.04267,-0.51056 -12.05115,-0.59512 z"
       id="path4028" />
  </g>
</svg>
