<?xml version="1.0" encoding="UTF-8" standalone="no"?>
<!-- Created with Inkscape (http://www.inkscape.org/) -->

<svg
   xmlns:dc="http://purl.org/dc/elements/1.1/"
   xmlns:cc="http://creativecommons.org/ns#"
   xmlns:rdf="http://www.w3.org/1999/02/22-rdf-syntax-ns#"
   xmlns:svg="http://www.w3.org/2000/svg"
   xmlns="http://www.w3.org/2000/svg"
   xmlns:sodipodi="http://sodipodi.sourceforge.net/DTD/sodipodi-0.dtd"
   xmlns:inkscape="http://www.inkscape.org/namespaces/inkscape"
   width="1000"
   height="1000"
   id="svg3173"
   version="1.1"
   inkscape:version="0.47 r22583"
   sodipodi:docname="609f.svg"
   inkscape:export-filename="E:\chinese\yan\609f.png"
   inkscape:export-xdpi="18.005705"
   inkscape:export-ydpi="18.005705">
  <title
     id="title6306">Wu</title>
  <defs
     id="defs3175">
    <inkscape:perspective
       sodipodi:type="inkscape:persp3d"
       inkscape:vp_x="0 : 526.18109 : 1"
       inkscape:vp_y="0 : 1000 : 0"
       inkscape:vp_z="744.09448 : 526.18109 : 1"
       inkscape:persp3d-origin="372.04724 : 350.78739 : 1"
       id="perspective3181" />
    <inkscape:perspective
       id="perspective3191"
       inkscape:persp3d-origin="0.5 : 0.33333333 : 1"
       inkscape:vp_z="1 : 0.5 : 1"
       inkscape:vp_y="0 : 1000 : 0"
       inkscape:vp_x="0 : 0.5 : 1"
       sodipodi:type="inkscape:persp3d" />
    <inkscape:perspective
       id="perspective4006"
       inkscape:persp3d-origin="0.5 : 0.33333333 : 1"
       inkscape:vp_z="1 : 0.5 : 1"
       inkscape:vp_y="0 : 1000 : 0"
       inkscape:vp_x="0 : 0.5 : 1"
       sodipodi:type="inkscape:persp3d" />
    <inkscape:perspective
       id="perspective4034"
       inkscape:persp3d-origin="0.5 : 0.33333333 : 1"
       inkscape:vp_z="1 : 0.5 : 1"
       inkscape:vp_y="0 : 1000 : 0"
       inkscape:vp_x="0 : 0.5 : 1"
       sodipodi:type="inkscape:persp3d" />
    <inkscape:perspective
       id="perspective4081"
       inkscape:persp3d-origin="0.5 : 0.33333333 : 1"
       inkscape:vp_z="1 : 0.5 : 1"
       inkscape:vp_y="0 : 1000 : 0"
       inkscape:vp_x="0 : 0.5 : 1"
       sodipodi:type="inkscape:persp3d" />
    <inkscape:perspective
       id="perspective4147"
       inkscape:persp3d-origin="0.5 : 0.33333333 : 1"
       inkscape:vp_z="1 : 0.5 : 1"
       inkscape:vp_y="0 : 1000 : 0"
       inkscape:vp_x="0 : 0.5 : 1"
       sodipodi:type="inkscape:persp3d" />
    <inkscape:perspective
       id="perspective3737"
       inkscape:persp3d-origin="0.5 : 0.33333333 : 1"
       inkscape:vp_z="1 : 0.5 : 1"
       inkscape:vp_y="0 : 1000 : 0"
       inkscape:vp_x="0 : 0.5 : 1"
       sodipodi:type="inkscape:persp3d" />
    <inkscape:perspective
       id="perspective3750"
       inkscape:persp3d-origin="0.5 : 0.33333333 : 1"
       inkscape:vp_z="1 : 0.5 : 1"
       inkscape:vp_y="0 : 1000 : 0"
       inkscape:vp_x="0 : 0.5 : 1"
       sodipodi:type="inkscape:persp3d" />
    <inkscape:perspective
       id="perspective3778"
       inkscape:persp3d-origin="0.5 : 0.33333333 : 1"
       inkscape:vp_z="1 : 0.5 : 1"
       inkscape:vp_y="0 : 1000 : 0"
       inkscape:vp_x="0 : 0.5 : 1"
       sodipodi:type="inkscape:persp3d" />
    <inkscape:perspective
       id="perspective5705"
       inkscape:persp3d-origin="0.5 : 0.33333333 : 1"
       inkscape:vp_z="1 : 0.5 : 1"
       inkscape:vp_y="0 : 1000 : 0"
       inkscape:vp_x="0 : 0.5 : 1"
       sodipodi:type="inkscape:persp3d" />
    <inkscape:perspective
       id="perspective6316"
       inkscape:persp3d-origin="0.5 : 0.33333333 : 1"
       inkscape:vp_z="1 : 0.5 : 1"
       inkscape:vp_y="0 : 1000 : 0"
       inkscape:vp_x="0 : 0.5 : 1"
       sodipodi:type="inkscape:persp3d" />
  </defs>
  <sodipodi:namedview
     id="base"
     pagecolor="#ffffff"
     bordercolor="#666666"
     borderopacity="1.0"
     inkscape:pageopacity="0.0"
     inkscape:pageshadow="2"
     inkscape:zoom="0.49497475"
     inkscape:cx="658.06019"
     inkscape:cy="531.7752"
     inkscape:document-units="px"
     inkscape:current-layer="layer1"
     showgrid="false"
     inkscape:window-width="1440"
     inkscape:window-height="840"
     inkscape:window-x="-4"
     inkscape:window-y="-4"
     inkscape:window-maximized="1" />
  <metadata
     id="metadata3178">
    <rdf:RDF>
      <cc:Work
         rdf:about="">
        <dc:format>image/svg+xml</dc:format>
        <dc:type
           rdf:resource="http://purl.org/dc/dcmitype/StillImage" />
        <dc:title>Wu</dc:title>
        <dc:date>2010-08-14</dc:date>
        <dc:creator>
          <cc:Agent>
            <dc:title>Alex Amies</dc:title>
          </cc:Agent>
        </dc:creator>
        <dc:rights>
          <cc:Agent>
            <dc:title>@ Alex Amies 2010</dc:title>
          </cc:Agent>
        </dc:rights>
        <dc:publisher>
          <cc:Agent>
            <dc:title>chinesenotes.com</dc:title>
          </cc:Agent>
        </dc:publisher>
        <dc:source>Yan Qin Ceremonial Inscription</dc:source>
        <dc:language>Chinese 中文</dc:language>
        <dc:description>Tracing from Tang Dynasty Ceremonial Inscription by Yan Zhenqing 颜真卿 (709－785)</dc:description>
        <cc:license
           rdf:resource="http://creativecommons.org/licenses/by/3.0/" />
      </cc:Work>
      <cc:License
         rdf:about="http://creativecommons.org/licenses/by/3.0/">
        <cc:permits
           rdf:resource="http://creativecommons.org/ns#Reproduction" />
        <cc:permits
           rdf:resource="http://creativecommons.org/ns#Distribution" />
        <cc:requires
           rdf:resource="http://creativecommons.org/ns#Notice" />
        <cc:requires
           rdf:resource="http://creativecommons.org/ns#Attribution" />
        <cc:permits
           rdf:resource="http://creativecommons.org/ns#DerivativeWorks" />
      </cc:License>
    </rdf:RDF>
  </metadata>
  <g
     inkscape:label="Layer 1"
     inkscape:groupmode="layer"
     id="layer1"
     transform="translate(0,-52.362183)">
    <g
       transform="matrix(4.7418067,0,0,4.7418067,-455.68795,-2953.4941)"
       id="g4261"
       style="fill:none;fill-opacity:1">
      <path
         style="fill:#000000;stroke:#000000;stroke-width:4.74180651000000000px;stroke-linecap:butt;stroke-linejoin:miter;stroke-opacity:1;fill-opacity:1"
         d="M 242.25 149.53125 C 240.49156 149.57466 238.74063 149.80311 236.96875 150.1875 C 217.76358 163.37916 217.67983 191.8342 216 213.25 C 199.33146 407.30635 191.07453 602.00415 173.875 796.03125 C 168.37996 826.39181 159.44967 860.83926 179.9375 888 C 189.7832 913.79927 230.62948 920.4121 239.03125 890.03125 C 249.13144 855.43593 233.24793 820.40221 233.65625 785.40625 C 224.77096 735.65341 220.86406 685.2482 222.25 634.71875 C 224.39128 526.78286 232.44938 418.47216 252.28125 312.28125 C 257.86712 332.44499 279.0601 356.16462 289.8125 368.125 C 299.89353 373.23776 312.63787 375.20232 323.03125 369.875 C 332.40097 364.64901 336.1414 353.12707 335.96875 342.9375 C 329.85974 313.50378 302.74802 295.4944 274.21875 292.4375 C 268.31696 292.19867 262.02117 290.35369 256.21875 291.8125 C 260.27975 271.68888 264.80156 251.63008 269.78125 231.6875 C 272.2917 210.17425 291.97909 185.73573 274.125 165.96875 C 266.31278 156.84969 254.55909 149.2274 242.25 149.53125 z M 124.375 325.09375 C 114.84944 325.94779 111.71702 342.66943 110.3125 351.28125 C 107.61489 373.03135 97.547945 392.89413 92.65625 414.125 C 86.29706 439.58295 85.165267 467.97326 97.21875 491.96875 C 102.14217 501.0872 108.02592 510.73771 117.5 515.625 C 136.47168 516.41494 136.86864 492.34312 142.625 478.125 C 154.88447 444.65685 162.58179 407.71792 153.53125 372.46875 C 149.54301 355.75502 144.00836 337.82628 130.375 326.40625 C 128.14428 325.32524 126.13899 324.93559 124.375 325.09375 z "
         transform="matrix(0.21089008,0,0,0.21089008,96.100069,633.90528)"
         id="path4230" />
      <path
         style="fill:#000000;stroke:#000000;stroke-width:4.74180651000000000px;stroke-linecap:butt;stroke-linejoin:miter;stroke-opacity:1;fill-opacity:1"
         d="M 683.53125 91.9375 C 664.08667 93.235475 648.87673 111.91946 629.5625 114.46875 C 556.20386 144.55751 477.10132 157.53805 406.3125 168.8125 C 393.06422 178.05656 388.90691 190.06544 396.71875 207.03125 C 401.71823 220.53767 426.70615 222.84519 438.8125 218.34375 C 463.08752 212.6276 468.60639 211.37812 491.90625 202.34375 C 523.55705 191.59265 555.5505 181.8744 587.25 171.25 C 611.32605 164.2721 635.94459 156.36649 661.25 156.9375 C 677.57334 159.08658 694.31712 159.50481 710.59375 157 C 727.00557 152.08279 730.89376 130.63839 726.625 116.0625 C 721.00918 98.349481 699.92576 93.263926 683.53125 91.9375 z M 610.75 184.03125 C 610.34706 184.0188 609.94128 184.03905 609.53125 184.0625 C 585.07552 205.96329 568.16213 239.50827 551.3125 268.65625 C 546.26903 280.28858 540.60497 292.01384 534.5625 303.78125 C 505.7697 308.31937 478.42572 311.898 453.71875 314.4375 C 435.24723 324.16233 437.20552 351.21227 457.125 358.46875 C 471.90806 366.85824 488.88063 363.48843 504.6875 358.46875 C 486.36249 390.97829 467.65032 423.82061 452.9375 456.78125 C 444.39742 470.92028 435.39825 488.28966 442.78125 504.5625 C 395.36914 511.49524 346.70877 517.76993 294.53125 526.125 C 267.75266 537.41695 282.62693 570.58826 303.125 579.75 C 326.05529 592.83184 351.9788 580.28621 375.78125 576.9375 C 437.31378 560.98402 504.3687 538.33256 567.03125 527.5 C 646.26324 514.94332 719.93912 504.25149 800.46875 502.6875 C 827.79 500.69348 839.25143 531.55412 864.21875 536.75 C 889.12827 538.72695 888.73555 506.24109 894.9375 489.40625 C 882.03628 445.25216 868.35891 438.68147 842.21875 419.6875 C 807.75722 427.57157 774.65154 435.06249 741.875 442.46875 C 749.37248 425.72992 750.49972 407.00662 755.96875 393.03125 C 768.30233 357.98807 788.50593 344.5374 798.5625 311.46875 C 781.74246 285.15158 768.61774 253.77125 739.84375 242.03125 C 724.92328 244.88899 717.12916 267.56138 697.09375 269.90625 C 664.25715 278.59921 630.79084 286.17287 598.0625 292.59375 C 610.55936 275.53937 622.59983 258.18334 630.1875 238.25 C 638.44759 223.80404 636.90093 205.31053 625.71875 192.84375 C 622.01276 188.32945 616.79406 184.21803 610.75 184.03125 z M 683.15625 314.5 C 696.3201 314.54086 707.04718 326.08689 703.875 339.71875 C 683.92736 372.91021 674.07439 396.34932 657.96875 423.625 C 649.97182 435.62841 644.23924 450.29811 643.21875 464.96875 C 628.47851 468.39197 613.72867 471.86391 598.84375 475.40625 C 567.62285 483.13979 536.90948 489.24194 506.09375 494.5625 C 506.24872 492.96645 506.29238 491.31873 506.1875 489.65625 C 509.5474 470.12641 518.2882 451.91276 524.75 433.25 C 537.5329 401.20938 551.04809 369.24665 567.59375 338.9375 C 605.22567 328.16801 641.69929 319.53489 680.46875 314.65625 C 681.3646 314.55398 682.27866 314.49728 683.15625 314.5 z M 760 556.65625 C 754.77009 556.71039 749.54895 558.07524 744.5625 561.1875 C 727.87622 567.89758 728.11874 586.1998 734 600.375 C 734.89857 622.92656 705.35177 614.82838 691.625 612.65625 C 658.39888 613.54776 636.01026 621.1084 593.78125 628.90625 C 573.05714 634.89373 557.6471 636.147 532.9375 648.875 C 554.39365 671.60627 550.80935 682.70294 568.28125 687.3125 C 590.2683 687.58326 611.80282 680.43223 632.40625 673.40625 C 654.14601 664.5717 676.02513 662.31198 698.75 656.46875 C 722.73093 650.75079 720.30504 673.78539 719.96875 691.03125 C 719.29409 717.00189 711.73049 742.55879 701.34375 766.1875 C 699.25806 769.84445 696.87283 773.18264 694.375 776.375 C 681.69652 772.64074 666.32926 779.3953 652.15625 776.6875 C 610.99481 785.40218 563.71841 784.43542 524.84375 783.5625 C 523.0922 784.87459 521.57243 786.35607 520.21875 787.96875 C 502.09006 736.85816 489.64499 675.97054 469.28125 633.5625 C 461.5733 627.74592 451.52434 624.53573 441.875 626.0625 C 431.49353 627.98255 419.15907 635.71149 419.53125 647.5 C 451.57847 712.85049 462.80452 785.48538 487.25 853.625 C 490.28035 865.31393 501.05046 876.4608 514 871.90625 C 523.2805 870.15243 530.58012 862.62545 532.40625 853.625 C 577.36775 855.19057 627.37384 848.3249 671.65625 837.9375 C 671.9016 837.88474 672.15927 837.83437 672.40625 837.78125 C 680.31409 848.88627 694.64865 857.78654 701.3125 868.8125 C 711.77165 885.81496 723.43581 887.87219 742.65625 891.5 C 760.30881 864.7381 771.64843 842.27109 782.65625 816.21875 C 804.63367 769.55999 831.24508 725.17479 845.28125 675.46875 C 852.83201 656.54814 861.93782 631.68921 844.84375 614.9375 C 829.74209 600.07426 810.9275 589.58382 796.1875 574.21875 C 786.73936 564.90718 773.36532 556.5179 760 556.65625 z "
         transform="matrix(0.21089008,0,0,0.21089008,96.100069,633.90528)"
         id="path4240" />
    </g>
  </g>
</svg>
