<?xml version="1.0" encoding="UTF-8" standalone="no"?>
<!-- Created with Inkscape (http://www.inkscape.org/) -->

<svg
   xmlns:dc="http://purl.org/dc/elements/1.1/"
   xmlns:cc="http://creativecommons.org/ns#"
   xmlns:rdf="http://www.w3.org/1999/02/22-rdf-syntax-ns#"
   xmlns:svg="http://www.w3.org/2000/svg"
   xmlns="http://www.w3.org/2000/svg"
   xmlns:sodipodi="http://sodipodi.sourceforge.net/DTD/sodipodi-0.dtd"
   xmlns:inkscape="http://www.inkscape.org/namespaces/inkscape"
   width="1000"
   height="1000"
   id="svg3173"
   version="1.1"
   inkscape:version="0.47 r22583"
   sodipodi:docname="61b2.svg"
   inkscape:export-filename="E:\chinese\yan\61b2png.png"
   inkscape:export-xdpi="17.961918"
   inkscape:export-ydpi="17.961918">
  <title
     id="title2831">Xian</title>
  <defs
     id="defs3175">
    <inkscape:perspective
       sodipodi:type="inkscape:persp3d"
       inkscape:vp_x="0 : 526.18109 : 1"
       inkscape:vp_y="0 : 1000 : 0"
       inkscape:vp_z="744.09448 : 526.18109 : 1"
       inkscape:persp3d-origin="372.04724 : 350.78739 : 1"
       id="perspective3181" />
    <inkscape:perspective
       id="perspective3191"
       inkscape:persp3d-origin="0.5 : 0.33333333 : 1"
       inkscape:vp_z="1 : 0.5 : 1"
       inkscape:vp_y="0 : 1000 : 0"
       inkscape:vp_x="0 : 0.5 : 1"
       sodipodi:type="inkscape:persp3d" />
    <inkscape:perspective
       id="perspective4006"
       inkscape:persp3d-origin="0.5 : 0.33333333 : 1"
       inkscape:vp_z="1 : 0.5 : 1"
       inkscape:vp_y="0 : 1000 : 0"
       inkscape:vp_x="0 : 0.5 : 1"
       sodipodi:type="inkscape:persp3d" />
    <inkscape:perspective
       id="perspective4034"
       inkscape:persp3d-origin="0.5 : 0.33333333 : 1"
       inkscape:vp_z="1 : 0.5 : 1"
       inkscape:vp_y="0 : 1000 : 0"
       inkscape:vp_x="0 : 0.5 : 1"
       sodipodi:type="inkscape:persp3d" />
    <inkscape:perspective
       id="perspective4081"
       inkscape:persp3d-origin="0.5 : 0.33333333 : 1"
       inkscape:vp_z="1 : 0.5 : 1"
       inkscape:vp_y="0 : 1000 : 0"
       inkscape:vp_x="0 : 0.5 : 1"
       sodipodi:type="inkscape:persp3d" />
    <inkscape:perspective
       id="perspective4147"
       inkscape:persp3d-origin="0.5 : 0.33333333 : 1"
       inkscape:vp_z="1 : 0.5 : 1"
       inkscape:vp_y="0 : 1000 : 0"
       inkscape:vp_x="0 : 0.5 : 1"
       sodipodi:type="inkscape:persp3d" />
    <inkscape:perspective
       id="perspective3858"
       inkscape:persp3d-origin="0.5 : 0.33333333 : 1"
       inkscape:vp_z="1 : 0.5 : 1"
       inkscape:vp_y="0 : 1000 : 0"
       inkscape:vp_x="0 : 0.5 : 1"
       sodipodi:type="inkscape:persp3d" />
    <inkscape:perspective
       id="perspective3876"
       inkscape:persp3d-origin="0.5 : 0.33333333 : 1"
       inkscape:vp_z="1 : 0.5 : 1"
       inkscape:vp_y="0 : 1000 : 0"
       inkscape:vp_x="0 : 0.5 : 1"
       sodipodi:type="inkscape:persp3d" />
    <inkscape:perspective
       id="perspective3901"
       inkscape:persp3d-origin="0.5 : 0.33333333 : 1"
       inkscape:vp_z="1 : 0.5 : 1"
       inkscape:vp_y="0 : 1000 : 0"
       inkscape:vp_x="0 : 0.5 : 1"
       sodipodi:type="inkscape:persp3d" />
    <inkscape:perspective
       id="perspective5282"
       inkscape:persp3d-origin="0.5 : 0.33333333 : 1"
       inkscape:vp_z="1 : 0.5 : 1"
       inkscape:vp_y="0 : 1000 : 0"
       inkscape:vp_x="0 : 0.5 : 1"
       sodipodi:type="inkscape:persp3d" />
    <inkscape:perspective
       id="perspective6657"
       inkscape:persp3d-origin="0.5 : 0.33333333 : 1"
       inkscape:vp_z="1 : 0.5 : 1"
       inkscape:vp_y="0 : 1000 : 0"
       inkscape:vp_x="0 : 0.5 : 1"
       sodipodi:type="inkscape:persp3d" />
    <inkscape:perspective
       id="perspective7221"
       inkscape:persp3d-origin="0.5 : 0.33333333 : 1"
       inkscape:vp_z="1 : 0.5 : 1"
       inkscape:vp_y="0 : 1000 : 0"
       inkscape:vp_x="0 : 0.5 : 1"
       sodipodi:type="inkscape:persp3d" />
    <inkscape:perspective
       id="perspective7762"
       inkscape:persp3d-origin="0.5 : 0.33333333 : 1"
       inkscape:vp_z="1 : 0.5 : 1"
       inkscape:vp_y="0 : 1000 : 0"
       inkscape:vp_x="0 : 0.5 : 1"
       sodipodi:type="inkscape:persp3d" />
    <inkscape:perspective
       id="perspective3824"
       inkscape:persp3d-origin="0.5 : 0.33333333 : 1"
       inkscape:vp_z="1 : 0.5 : 1"
       inkscape:vp_y="0 : 1000 : 0"
       inkscape:vp_x="0 : 0.5 : 1"
       sodipodi:type="inkscape:persp3d" />
    <inkscape:perspective
       id="perspective3037"
       inkscape:persp3d-origin="0.5 : 0.33333333 : 1"
       inkscape:vp_z="1 : 0.5 : 1"
       inkscape:vp_y="0 : 1000 : 0"
       inkscape:vp_x="0 : 0.5 : 1"
       sodipodi:type="inkscape:persp3d" />
    <inkscape:perspective
       id="perspective7183"
       inkscape:persp3d-origin="0.5 : 0.33333333 : 1"
       inkscape:vp_z="1 : 0.5 : 1"
       inkscape:vp_y="0 : 1000 : 0"
       inkscape:vp_x="0 : 0.5 : 1"
       sodipodi:type="inkscape:persp3d" />
  </defs>
  <sodipodi:namedview
     id="base"
     pagecolor="#ffffff"
     bordercolor="#666666"
     borderopacity="1.0"
     inkscape:pageopacity="0.0"
     inkscape:pageshadow="2"
     inkscape:zoom="0.49497475"
     inkscape:cx="751.22789"
     inkscape:cy="501.15052"
     inkscape:document-units="px"
     inkscape:current-layer="g3804"
     showgrid="false"
     inkscape:window-width="1440"
     inkscape:window-height="840"
     inkscape:window-x="-4"
     inkscape:window-y="-4"
     inkscape:window-maximized="1" />
  <metadata
     id="metadata3178">
    <rdf:RDF>
      <cc:Work
         rdf:about="">
        <dc:format>image/svg+xml</dc:format>
        <dc:type
           rdf:resource="http://purl.org/dc/dcmitype/StillImage" />
        <dc:title>Xian</dc:title>
        <dc:date>2010-08-02</dc:date>
        <dc:creator>
          <cc:Agent>
            <dc:title>Alex Amies</dc:title>
          </cc:Agent>
        </dc:creator>
        <dc:rights>
          <cc:Agent>
            <dc:title>Copyright Alex Amies 2010</dc:title>
          </cc:Agent>
        </dc:rights>
        <dc:publisher>
          <cc:Agent>
            <dc:title>chinesenotes.com</dc:title>
          </cc:Agent>
        </dc:publisher>
        <dc:source>Yan Qin Ceremonial Inscription</dc:source>
        <dc:language>Chinese 中文</dc:language>
        <dc:description>Tracing from Tang Dynasty Ceremonial Inscription by Yan Zhenqing 颜真卿 (709－785)</dc:description>
        <cc:license
           rdf:resource="http://creativecommons.org/licenses/by/3.0/" />
      </cc:Work>
      <cc:License
         rdf:about="http://creativecommons.org/licenses/by/3.0/">
        <cc:permits
           rdf:resource="http://creativecommons.org/ns#Reproduction" />
        <cc:permits
           rdf:resource="http://creativecommons.org/ns#Distribution" />
        <cc:requires
           rdf:resource="http://creativecommons.org/ns#Notice" />
        <cc:requires
           rdf:resource="http://creativecommons.org/ns#Attribution" />
        <cc:permits
           rdf:resource="http://creativecommons.org/ns#DerivativeWorks" />
      </cc:License>
    </rdf:RDF>
  </metadata>
  <g
     inkscape:label="Layer 1"
     inkscape:groupmode="layer"
     id="layer1"
     transform="translate(0,-52.362183)">
    <g
       transform="matrix(4.7418067,0,0,4.7418067,-575.38835,-3945.1359)"
       id="g3804"
       style="fill:none;fill-opacity:1">
      <g
         transform="matrix(0.98028269,0,0,0.98028269,-377.28089,27.93471)"
         id="g5218"
         style="fill:#000000;fill-opacity:1">
        <path
           style="fill:#000000;fill-opacity:1;stroke:#000000;stroke-width:1px;stroke-linecap:butt;stroke-linejoin:miter;stroke-opacity:1"
           d="m 591.9375,832.59375 c -1.04001,0.0436 -2.04252,0.18659 -2.9375,0.4375 -2.34413,2.65 -7.01884,6.49608 -7.40625,10 7.94035,1.01991 14.02981,5.0791 13.5625,14.125 -0.21676,1.26949 0.15054,2.5232 0.84375,3.59375 -11.59331,2.53839 -23.23278,4.92506 -34.9375,6.96875 -0.28498,1.34569 -2.34638,2.97223 -1.25,4.09375 2.91017,2.97002 7.61285,4.50536 11.625,3.125 22.46656,-6.17281 44.66594,-13.44574 67.28125,-19.0625 3.52494,-0.28467 7.03469,-1.44177 10.5625,-0.65625 l -3.9375,7.84375 c 1.09401,0.87383 2.03945,3.03612 3.46875,1.40625 4.18489,-2.52538 8.51219,-4.74548 12.96875,-6.75 2.24229,2.23707 2.09914,5.34573 3.5625,8.21875 3.50537,1.17878 7.46203,1.08826 10.1875,-1.4375 2.13504,-5.46931 1.72352,-10.75533 1.25,-16.4375 -3.7677,-3.13875 -7.68712,-9.89951 -13.15625,-8.75 -6.54418,-0.0854 -8.46012,7.40403 -13.78125,9.03125 -13.69702,3.15046 -27.34248,6.40981 -41.03125,9.53125 2.60889,-4.16941 3.45623,-9.89888 2.3125,-14.1875 -1.87474,-6.81884 -11.90745,-11.39921 -19.1875,-11.09375 z"
           id="path5116" />
        <path
           id="path5118"
           d="m 546.78571,859.50504 c -3.03167,4.39754 -2.96548,10.03675 -5.15456,14.82163 -2.2424,6.54338 -5.82599,12.78406 -6.64058,19.71839 -0.50721,3.75733 0.70022,9.74965 5.73573,8.40922 7.44156,-3.87246 9.97772,-12.56889 12.12003,-20.06165 1.82723,-5.41249 1.37923,-11.43167 -0.33563,-16.82385 -0.94202,-2.68278 -2.82347,-5.34101 -5.72499,-6.06374 z"
           style="fill:#000000;fill-opacity:1;stroke:#000000;stroke-width:1px;stroke-linecap:butt;stroke-linejoin:miter;stroke-opacity:1" />
        <path
           style="fill:#000000;fill-opacity:1;stroke:#000000;stroke-width:1px;stroke-linecap:butt;stroke-linejoin:miter;stroke-opacity:1"
           d="m 612.34375,870.28125 c -2.07823,10e-4 -4.08618,0.59687 -5.8125,2.125 -8.31923,5.48581 -16.9457,10.4908 -25.46875,15.65625 -0.50702,1.8316 0.64555,5.13129 3,3.71875 4.50626,-1.78737 9.0852,-3.45698 13.6875,-5 -0.29536,1.50437 -0.15023,3.23715 0,4.46875 0.0736,2.95734 0.36393,5.89629 0.78125,8.8125 -8.9816,3.07056 -17.93492,6.1984 -26.8125,9.5625 -1.16734,0.43509 -2.33504,0.87107 -3.5,1.3125 2.23303,2.17962 5.26395,1.80641 8.125,1.78125 8.04933,-0.7237 15.78897,-2.8326 23.46875,-5.28125 0.63062,3.223 1.27635,6.43635 1.90625,9.65625 -11.26552,3.32712 -22.49942,6.81535 -33.625,10.59375 l -8.8125,2.875 c -4.77107,3.32829 1.15574,10.38914 5.59375,6.78125 4.74537,-2.69023 9.50205,-5.41524 14.90625,-6.59375 8.7037,-2.08325 16.8866,-4.78014 24.90625,-7.34375 0.93971,0.93266 2.10994,1.63988 3.5,2 1.94484,-0.16907 3.60057,-2.29205 4.09375,-4.375 9.21575,-2.75425 18.3578,-4.94161 27.96875,-5.28125 4.96273,-1.0209 13.97081,2.52409 14.84375,-4.84375 0.045,-5.10047 -6.02151,-7.16401 -10.21875,-7.625 -4.8886,0.57935 -8.34623,5.39887 -13.71875,5.46875 -6.23523,1.70614 -12.44036,3.4434 -18.65625,5.21875 0.0172,-3.56183 -0.0358,-7.12554 -0.125,-10.6875 1.69843,-0.56115 3.39185,-1.0961 5.09375,-1.625 3.80028,-0.87535 7.59009,-2.10168 11.53125,-2.03125 2.19492,-0.75742 4.65225,1.13124 6.5625,0.0312 2.99627,-3.85212 -0.98469,-7.14941 -3.78125,-9.4375 -2.77819,0.1947 -5.63439,0.14418 -8.21875,1.34375 -3.81887,1.30527 -7.64492,2.58339 -11.46875,3.875 -0.0145,-0.28072 -0.0158,-0.5631 -0.0312,-0.84375 -1.11417,-3.68689 -4.01886,-8.06399 -7.8125,-9.90625 3.05953,-0.93609 6.12774,-1.80908 9.21875,-2.625 1.94402,-0.5221 4.28987,0.23272 5.78125,-1.4375 1.3344,-0.81163 2.13353,-2.10111 2.78125,-3.46875 0.69573,-1.98009 -2.16571,-3.96005 -3.46875,-5.5 -2.00196,-0.78451 -4.14052,-1.37648 -6.21875,-1.375 z"
           id="path5122" />
        <path
           style="fill:#000000;fill-opacity:1;stroke:#000000;stroke-width:1px;stroke-linecap:butt;stroke-linejoin:miter;stroke-opacity:1"
           d="m 635.15625,926.28125 c -1.5911,-0.007 -3.21046,0.3134 -4.75,1.09375 -15.71605,4.56821 -31.12169,10.10524 -46.46875,15.75 -2.00728,0.54828 -4.06829,0.90332 -6.09375,1.375 0.14359,1.68848 -1.41209,4.27841 -0.0312,5.3125 4.53891,2.0719 9.01855,-0.45934 13.0625,-2.46875 -2.16237,5.69069 -1.07527,12.01872 -1.59375,18.21875 1.29598,1.2691 2.78383,2.61045 4.4375,3.53125 -0.063,0.006 -0.12436,0.0252 -0.1875,0.0312 -2.80102,0.55644 -5.70131,1.03765 -8.5,1.8125 -0.27008,-1.77384 -0.59034,-3.5233 -1.40625,-5.125 -3.35999,-7.18268 -7.16876,-12.94924 -13.375,-17.75 -2.48747,-0.88079 -4.03605,-1.13818 -6.3125,0 l -0.71875,3.21875 c 4.69768,8.59819 9.23129,17.31828 12.84375,26.4375 l 0.6875,0.0625 -0.6875,2.78125 c 1.19097,5.12276 6.58206,9.97392 11,4.75 3.40052,-3.98726 7.22321,-7.50326 12.65625,-8.15625 8.07996,-2.35997 15.95172,-5.41675 24.09375,-7.53125 1.92258,-0.61538 4.73742,-0.24322 7,-0.5625 -0.10252,1.80462 -0.1452,3.61382 -0.0937,5.4375 5.63495,2.60952 11.02009,-3.25919 12.78125,-8.15625 4.16702,-8.2628 9.23342,-16.05736 13.25,-24.375 2.06095,-3.34228 0.89586,-6.93415 -0.21875,-10.3125 -4.01397,-1.70394 -9.38134,-1.34512 -13.6875,-3.15625 -2.39981,-1.28597 -5.03566,-2.20665 -7.6875,-2.21875 z m -1.21875,3.59375 c 1.23387,1.31074 4.42543,1.83795 4.0625,3.78125 -2.19903,9.48393 -5.10868,18.91837 -6.5,28.5625 -0.13765,0.0316 -0.28193,0.0695 -0.4375,0.125 -4.55698,-0.0226 -9.11422,0.21994 -13.65625,0.5625 0.92246,-2.05397 1.39197,-4.731 2.59375,-6.40625 1.64501,-3.38229 4.93229,-8.17203 1.125,-11.3125 -1.86569,-1.59338 -3.41903,-4.27092 -5.3125,-6.03125 4.75568,-1.81284 9.56787,-3.56958 14.0625,-5.875 l 4.0625,-3.40625 z m -24.09375,11.59375 c -0.0633,0.17867 -0.11718,0.36248 -0.1875,0.53125 0.8491,4.4488 1.92641,9.03634 0.5,13.5 -0.18283,2.61505 -1.6319,6.18726 -0.65625,8.34375 -2.92789,1.35894 -5.88496,2.70369 -8.9375,3.71875 0.74746,-2.16094 0.28732,-5.00122 0.0937,-7.125 -1.02467,-4.99302 -1.04396,-10.93252 -4.46875,-14.9375 4.54957,-1.33832 9.19308,-2.41999 13.65625,-4.03125 z"
           id="path5130" />
        <path
           id="path5140"
           d="m 552.5,995.21933 c -1.1525,1.70662 -3.26579,3.09392 -2.94036,5.43617 -0.21029,11.2804 0.56047,22.6468 1.63725,33.8898 0.9256,5.5022 3.06254,6.9109 7.73164,9.2455 4.6506,-1.3848 6.68105,-6.4618 4.73737,-10.849 -5.38723,-7.6842 -5.39333,-18.7079 -6.47687,-27.8592 0.26757,-2.4884 0.3863,-4.9925 -0.1961,-7.44414 -0.20378,-2.07924 -2.77298,-1.98909 -4.49293,-2.41913 z"
           style="fill:#000000;fill-opacity:1;stroke:#000000;stroke-width:1px;stroke-linecap:butt;stroke-linejoin:miter;stroke-opacity:1"
           sodipodi:nodetypes="cccccccc" />
        <path
           sodipodi:nodetypes="ccccccccsccccc"
           id="path5142"
           d="m 580.71428,990.21933 c -4.33418,8.88858 3.00386,21.01357 7.66998,28.79237 7.85884,10.514 17.04278,17.3847 29.03861,21.9628 26.73489,9.6444 51.43862,3.7505 75.14122,-11.052 4.00935,-4.5731 -1.93438,-8.1431 -2.14093,-12.7465 -0.2601,-2.0808 -0.52021,-4.1616 -0.78031,-6.2424 -3.69324,2.0618 -6.48879,7.1342 -10.8435,6.9463 -6.21323,-3.5291 -8.55959,-11.4289 -14.17861,-15.8477 -1.50902,-0.1588 -2.42452,0.3277 -2.46969,1.0507 -0.12442,1.9916 2.08233,7.5109 2.01693,10.2199 0.73576,3.8635 1.76121,11.0667 -4.03578,10.6044 -14.13841,3.0077 -28.14315,2.2692 -42.08769,-1.4429 -18.74242,-1.9177 -23.61394,-20.814 -36.58544,-31.97414 -0.24826,-0.0903 -0.49653,-0.18055 -0.74479,-0.27083 z"
           style="fill:#000000;fill-opacity:1;stroke:#000000;stroke-width:1px;stroke-linecap:butt;stroke-linejoin:miter;stroke-opacity:1" />
        <path
           id="path5144"
           d="m 618.92857,981.6479 c -3.67422,5.68738 -2.11837,10.93944 0.35714,16.78571 4.14412,2.91479 8.75906,5.81449 13.9996,5.71429 1.19237,0.147 2.69917,-0.1495 2.98322,-1.5341 -0.36419,-7.01366 -1.09388,-14.04233 -2.33996,-20.9659 -2.85848,-2.6788 -6.41983,1.33457 -9.87666,1.93608 -1.88714,0.28518 -3.50087,-1.0511 -5.12334,-1.93608 z"
           style="fill:#000000;fill-opacity:1;stroke:#000000;stroke-width:1px;stroke-linecap:butt;stroke-linejoin:miter;stroke-opacity:1"
           sodipodi:nodetypes="ccccccc" />
        <path
           id="path5146"
           d="m 656.78571,958.07647 c 7.1176,13.55464 19.17547,25.44081 28.8318,37.6085 4.53388,3.2795 6.96664,-9.53636 5.05499,-14.84942 -0.77091,-3.24438 -3.26785,-5.64717 -4.30645,-8.75694 0.47547,-2.93324 -1.3641,-5.08652 -3.20743,-7.04327 -1.42012,-2.60991 -4.76724,-1.84039 -7.19698,-2.80596 -6.3592,-1.53936 -12.62703,-3.58513 -19.17593,-4.15291 z"
           style="fill:#000000;fill-opacity:1;stroke:#000000;stroke-width:1px;stroke-linecap:butt;stroke-linejoin:miter;stroke-opacity:1"
           sodipodi:nodetypes="ccccccc" />
      </g>
    </g>
  </g>
</svg>
