<?xml version="1.0" encoding="UTF-8" standalone="no"?>
<!-- Created with Inkscape (http://www.inkscape.org/) -->

<svg
   xmlns:dc="http://purl.org/dc/elements/1.1/"
   xmlns:cc="http://creativecommons.org/ns#"
   xmlns:rdf="http://www.w3.org/1999/02/22-rdf-syntax-ns#"
   xmlns:svg="http://www.w3.org/2000/svg"
   xmlns="http://www.w3.org/2000/svg"
   xmlns:sodipodi="http://sodipodi.sourceforge.net/DTD/sodipodi-0.dtd"
   xmlns:inkscape="http://www.inkscape.org/namespaces/inkscape"
   width="1000"
   height="1000"
   id="svg3173"
   version="1.1"
   inkscape:version="0.47 r22583"
   sodipodi:docname="6208.svg"
   inkscape:export-filename="E:\chinese\yan\6208.png"
   inkscape:export-xdpi="17.908815"
   inkscape:export-ydpi="17.908815">
  <title
     id="title4784">Yi</title>
  <defs
     id="defs3175">
    <inkscape:perspective
       sodipodi:type="inkscape:persp3d"
       inkscape:vp_x="0 : 526.18109 : 1"
       inkscape:vp_y="0 : 1000 : 0"
       inkscape:vp_z="744.09448 : 526.18109 : 1"
       inkscape:persp3d-origin="372.04724 : 350.78739 : 1"
       id="perspective3181" />
    <inkscape:perspective
       id="perspective3191"
       inkscape:persp3d-origin="0.5 : 0.33333333 : 1"
       inkscape:vp_z="1 : 0.5 : 1"
       inkscape:vp_y="0 : 1000 : 0"
       inkscape:vp_x="0 : 0.5 : 1"
       sodipodi:type="inkscape:persp3d" />
    <inkscape:perspective
       id="perspective4006"
       inkscape:persp3d-origin="0.5 : 0.33333333 : 1"
       inkscape:vp_z="1 : 0.5 : 1"
       inkscape:vp_y="0 : 1000 : 0"
       inkscape:vp_x="0 : 0.5 : 1"
       sodipodi:type="inkscape:persp3d" />
    <inkscape:perspective
       id="perspective4034"
       inkscape:persp3d-origin="0.5 : 0.33333333 : 1"
       inkscape:vp_z="1 : 0.5 : 1"
       inkscape:vp_y="0 : 1000 : 0"
       inkscape:vp_x="0 : 0.5 : 1"
       sodipodi:type="inkscape:persp3d" />
    <inkscape:perspective
       id="perspective4081"
       inkscape:persp3d-origin="0.5 : 0.33333333 : 1"
       inkscape:vp_z="1 : 0.5 : 1"
       inkscape:vp_y="0 : 1000 : 0"
       inkscape:vp_x="0 : 0.5 : 1"
       sodipodi:type="inkscape:persp3d" />
    <inkscape:perspective
       id="perspective4147"
       inkscape:persp3d-origin="0.5 : 0.33333333 : 1"
       inkscape:vp_z="1 : 0.5 : 1"
       inkscape:vp_y="0 : 1000 : 0"
       inkscape:vp_x="0 : 0.5 : 1"
       sodipodi:type="inkscape:persp3d" />
    <inkscape:perspective
       id="perspective3777"
       inkscape:persp3d-origin="0.5 : 0.33333333 : 1"
       inkscape:vp_z="1 : 0.5 : 1"
       inkscape:vp_y="0 : 1000 : 0"
       inkscape:vp_x="0 : 0.5 : 1"
       sodipodi:type="inkscape:persp3d" />
    <inkscape:perspective
       id="perspective3826"
       inkscape:persp3d-origin="0.5 : 0.33333333 : 1"
       inkscape:vp_z="1 : 0.5 : 1"
       inkscape:vp_y="0 : 1000 : 0"
       inkscape:vp_x="0 : 0.5 : 1"
       sodipodi:type="inkscape:persp3d" />
    <inkscape:perspective
       id="perspective3851"
       inkscape:persp3d-origin="0.5 : 0.33333333 : 1"
       inkscape:vp_z="1 : 0.5 : 1"
       inkscape:vp_y="0 : 1000 : 0"
       inkscape:vp_x="0 : 0.5 : 1"
       sodipodi:type="inkscape:persp3d" />
    <inkscape:perspective
       id="perspective3829"
       inkscape:persp3d-origin="0.5 : 0.33333333 : 1"
       inkscape:vp_z="1 : 0.5 : 1"
       inkscape:vp_y="0 : 1000 : 0"
       inkscape:vp_x="0 : 0.5 : 1"
       sodipodi:type="inkscape:persp3d" />
    <inkscape:perspective
       id="perspective6109"
       inkscape:persp3d-origin="0.5 : 0.33333333 : 1"
       inkscape:vp_z="1 : 0.5 : 1"
       inkscape:vp_y="0 : 1000 : 0"
       inkscape:vp_x="0 : 0.5 : 1"
       sodipodi:type="inkscape:persp3d" />
  </defs>
  <sodipodi:namedview
     id="base"
     pagecolor="#ffffff"
     bordercolor="#666666"
     borderopacity="1.0"
     inkscape:pageopacity="0.0"
     inkscape:pageshadow="2"
     inkscape:zoom="0.49497475"
     inkscape:cx="534.74768"
     inkscape:cy="485.1646"
     inkscape:document-units="px"
     inkscape:current-layer="g3809"
     showgrid="false"
     inkscape:window-width="1440"
     inkscape:window-height="840"
     inkscape:window-x="-4"
     inkscape:window-y="-4"
     inkscape:window-maximized="1" />
  <metadata
     id="metadata3178">
    <rdf:RDF>
      <cc:Work
         rdf:about="">
        <dc:format>image/svg+xml</dc:format>
        <dc:type
           rdf:resource="http://purl.org/dc/dcmitype/StillImage" />
        <dc:title>Yi</dc:title>
        <dc:date>2010-08-09</dc:date>
        <dc:creator>
          <cc:Agent>
            <dc:title>Alex Amies</dc:title>
          </cc:Agent>
        </dc:creator>
        <dc:rights>
          <cc:Agent>
            <dc:title>@ Alex Amies 2010</dc:title>
          </cc:Agent>
        </dc:rights>
        <dc:publisher>
          <cc:Agent>
            <dc:title>chinesenotes.com</dc:title>
          </cc:Agent>
        </dc:publisher>
        <dc:source>Yan Qin Ceremonial Inscription</dc:source>
        <dc:language>Chinese 中文</dc:language>
        <dc:description>Tracing from Tang Dynasty Ceremonial Inscription by Yan Zhenqing 颜真卿 (709－785)</dc:description>
        <cc:license
           rdf:resource="http://creativecommons.org/licenses/by/3.0/" />
      </cc:Work>
      <cc:License
         rdf:about="http://creativecommons.org/licenses/by/3.0/">
        <cc:permits
           rdf:resource="http://creativecommons.org/ns#Reproduction" />
        <cc:permits
           rdf:resource="http://creativecommons.org/ns#Distribution" />
        <cc:requires
           rdf:resource="http://creativecommons.org/ns#Notice" />
        <cc:requires
           rdf:resource="http://creativecommons.org/ns#Attribution" />
        <cc:permits
           rdf:resource="http://creativecommons.org/ns#DerivativeWorks" />
      </cc:License>
    </rdf:RDF>
  </metadata>
  <g
     inkscape:label="Layer 1"
     inkscape:groupmode="layer"
     id="layer1"
     transform="translate(0,-52.362183)">
    <g
       transform="matrix(4.7513766,0,0,4.7513766,-1572.319,-3933.7772)"
       id="g3809"
       style="fill:#000000;fill-opacity:1">
      <path
         style="fill:#000000;stroke:#000000;stroke-width:5.05605316000000030px;stroke-linecap:butt;stroke-linejoin:miter;stroke-opacity:1;fill-opacity:1"
         d="M 520.1875 57.21875 C 483.52873 76.96913 500.93737 127.34006 508.1875 163.53125 C 517.10726 207.88107 526.57953 252.10098 536.65625 296.09375 C 424.16726 340.77046 310.35152 380.73511 197.21875 423.0625 C 187.58999 427.10488 177.94121 431.14508 168.3125 435.1875 C 165.61633 457.00739 187.16028 489.3325 205.125 480.875 C 239.67055 475.31494 268.64221 451.05408 300.1875 435.5625 C 342.42472 412.8474 388.776 391.27135 433.40625 375.6875 C 472.37467 365.3438 509.4185 352.21193 546.6875 338.90625 C 561.53734 401.00433 577.67223 462.62368 595.3125 523.59375 C 606.21002 563.26484 619.87361 601.39534 635.75 638.0625 C 610.16518 697.08917 578.6178 752.93225 541.9375 815.5 C 536.81594 826.09319 532.2201 839.10896 529.84375 849.4375 C 522.87552 879.7223 564.03928 860.00768 572.6875 844.1875 C 602.14138 795.21585 634.07218 747.10833 663.90625 697.34375 C 689.50388 746.85804 718.88195 793.59491 750.5 837.8125 C 796.56008 909.42335 850.66519 973.68232 930.0625 955.84375 C 963.40567 942.25909 930.04844 907.02586 918.53125 887.75 C 901.40919 856.25455 905.62917 814.94452 905.4375 778.625 C 909.02802 759.23316 907.89965 719.00339 886.03125 729.3125 C 877.92935 762.64288 859.78036 792.2506 857 827.46875 C 788.46358 784.72842 742.30636 706.10789 706.1875 621.8125 C 706.18372 621.80367 706.19128 621.79008 706.1875 621.78125 C 727.66156 579.81942 746.30453 535.96889 759.6875 488.90625 C 757.84378 457.53348 739.94222 417.7244 717.1875 401.15625 C 711.6587 398.34054 700.24242 399.15936 697.875 405.875 C 687.26342 435.97687 689.89426 478.53164 678.96875 511.875 C 676.92752 519.91547 674.78594 527.81361 672.5625 535.59375 C 666.84505 519.84827 661.29868 504.23977 655.90625 489 C 637.32429 432.69049 623.50214 374.79528 611.875 316.1875 C 614.28866 315.38968 616.69886 314.5992 619.125 313.8125 C 645.95127 302.19928 664.17942 334.84527 690.59375 329.46875 C 702.86641 333.91324 712.50924 325.60556 722.59375 319.09375 C 730.2896 312.41346 743.19244 311.03246 744.78125 298.09375 C 758.61427 266.65437 730.8573 243.31522 707.375 237.46875 C 684.39349 231.80121 657.5067 224.4447 640.8125 245.9375 C 630.35125 258.25124 616.91857 264.37158 603.0625 269.5625 C 595.06568 225.29694 587.92942 180.77254 580.5625 136.34375 C 572.12225 97.54952 549.82835 72.074167 520.1875 57.21875 z M 663.1875 71.125 C 658.69843 71.212037 654.67919 72.048518 651.53125 73.84375 C 645.24656 77.427856 645.28693 96.983847 647.65625 107.03125 C 650.87792 120.69279 658.5957 135.12475 667.78125 145.40625 C 681.48241 160.74203 698.83208 171.93553 708.9375 191.84375 C 714.43921 202.68245 718.85241 216.82101 726.84375 223.25 C 733.83417 228.87368 745.67721 230.18863 753.875 228 C 760.48431 226.23558 768.5045 218.90829 771.28125 211.40625 C 774.94242 201.51464 775.52332 186.9999 773.1875 175.8125 C 769.08549 156.16575 763.1145 133.35481 751.9375 118.90625 C 738.65056 101.73007 718.23259 90.380718 699.8125 80.9375 C 689.16604 75.479564 674.65956 70.902573 663.1875 71.125 z "
         transform="matrix(0.21046532,0,0,0.21046532,330.91862,838.9441)"
         id="path4584" />
    </g>
  </g>
</svg>
