<?xml version="1.0" encoding="UTF-8" standalone="no"?>
<!-- Created with Inkscape (http://www.inkscape.org/) -->

<svg
   xmlns:dc="http://purl.org/dc/elements/1.1/"
   xmlns:cc="http://creativecommons.org/ns#"
   xmlns:rdf="http://www.w3.org/1999/02/22-rdf-syntax-ns#"
   xmlns:svg="http://www.w3.org/2000/svg"
   xmlns="http://www.w3.org/2000/svg"
   xmlns:sodipodi="http://sodipodi.sourceforge.net/DTD/sodipodi-0.dtd"
   xmlns:inkscape="http://www.inkscape.org/namespaces/inkscape"
   width="1000"
   height="1000"
   id="svg3173"
   version="1.1"
   inkscape:version="0.47 r22583"
   sodipodi:docname="6211.svg"
   inkscape:export-filename="E:\chinese\yan\6211.png"
   inkscape:export-xdpi="17.908815"
   inkscape:export-ydpi="17.908815">
  <title
     id="title4784">Yi</title>
  <defs
     id="defs3175">
    <inkscape:perspective
       sodipodi:type="inkscape:persp3d"
       inkscape:vp_x="0 : 526.18109 : 1"
       inkscape:vp_y="0 : 1000 : 0"
       inkscape:vp_z="744.09448 : 526.18109 : 1"
       inkscape:persp3d-origin="372.04724 : 350.78739 : 1"
       id="perspective3181" />
    <inkscape:perspective
       id="perspective3191"
       inkscape:persp3d-origin="0.5 : 0.33333333 : 1"
       inkscape:vp_z="1 : 0.5 : 1"
       inkscape:vp_y="0 : 1000 : 0"
       inkscape:vp_x="0 : 0.5 : 1"
       sodipodi:type="inkscape:persp3d" />
    <inkscape:perspective
       id="perspective4006"
       inkscape:persp3d-origin="0.5 : 0.33333333 : 1"
       inkscape:vp_z="1 : 0.5 : 1"
       inkscape:vp_y="0 : 1000 : 0"
       inkscape:vp_x="0 : 0.5 : 1"
       sodipodi:type="inkscape:persp3d" />
    <inkscape:perspective
       id="perspective4034"
       inkscape:persp3d-origin="0.5 : 0.33333333 : 1"
       inkscape:vp_z="1 : 0.5 : 1"
       inkscape:vp_y="0 : 1000 : 0"
       inkscape:vp_x="0 : 0.5 : 1"
       sodipodi:type="inkscape:persp3d" />
    <inkscape:perspective
       id="perspective4081"
       inkscape:persp3d-origin="0.5 : 0.33333333 : 1"
       inkscape:vp_z="1 : 0.5 : 1"
       inkscape:vp_y="0 : 1000 : 0"
       inkscape:vp_x="0 : 0.5 : 1"
       sodipodi:type="inkscape:persp3d" />
    <inkscape:perspective
       id="perspective4147"
       inkscape:persp3d-origin="0.5 : 0.33333333 : 1"
       inkscape:vp_z="1 : 0.5 : 1"
       inkscape:vp_y="0 : 1000 : 0"
       inkscape:vp_x="0 : 0.5 : 1"
       sodipodi:type="inkscape:persp3d" />
    <inkscape:perspective
       id="perspective3777"
       inkscape:persp3d-origin="0.5 : 0.33333333 : 1"
       inkscape:vp_z="1 : 0.5 : 1"
       inkscape:vp_y="0 : 1000 : 0"
       inkscape:vp_x="0 : 0.5 : 1"
       sodipodi:type="inkscape:persp3d" />
    <inkscape:perspective
       id="perspective3826"
       inkscape:persp3d-origin="0.5 : 0.33333333 : 1"
       inkscape:vp_z="1 : 0.5 : 1"
       inkscape:vp_y="0 : 1000 : 0"
       inkscape:vp_x="0 : 0.5 : 1"
       sodipodi:type="inkscape:persp3d" />
    <inkscape:perspective
       id="perspective3851"
       inkscape:persp3d-origin="0.5 : 0.33333333 : 1"
       inkscape:vp_z="1 : 0.5 : 1"
       inkscape:vp_y="0 : 1000 : 0"
       inkscape:vp_x="0 : 0.5 : 1"
       sodipodi:type="inkscape:persp3d" />
    <inkscape:perspective
       id="perspective3829"
       inkscape:persp3d-origin="0.5 : 0.33333333 : 1"
       inkscape:vp_z="1 : 0.5 : 1"
       inkscape:vp_y="0 : 1000 : 0"
       inkscape:vp_x="0 : 0.5 : 1"
       sodipodi:type="inkscape:persp3d" />
    <inkscape:perspective
       id="perspective6109"
       inkscape:persp3d-origin="0.5 : 0.33333333 : 1"
       inkscape:vp_z="1 : 0.5 : 1"
       inkscape:vp_y="0 : 1000 : 0"
       inkscape:vp_x="0 : 0.5 : 1"
       sodipodi:type="inkscape:persp3d" />
  </defs>
  <sodipodi:namedview
     id="base"
     pagecolor="#ffffff"
     bordercolor="#666666"
     borderopacity="1.0"
     inkscape:pageopacity="0.0"
     inkscape:pageshadow="2"
     inkscape:zoom="0.49497475"
     inkscape:cx="534.74768"
     inkscape:cy="485.1646"
     inkscape:document-units="px"
     inkscape:current-layer="g3809"
     showgrid="false"
     inkscape:window-width="1440"
     inkscape:window-height="840"
     inkscape:window-x="-4"
     inkscape:window-y="-4"
     inkscape:window-maximized="1" />
  <metadata
     id="metadata3178">
    <rdf:RDF>
      <cc:Work
         rdf:about="">
        <dc:format>image/svg+xml</dc:format>
        <dc:type
           rdf:resource="http://purl.org/dc/dcmitype/StillImage" />
        <dc:title>Yi</dc:title>
        <dc:date>2010-08-09</dc:date>
        <dc:creator>
          <cc:Agent>
            <dc:title>Alex Amies</dc:title>
          </cc:Agent>
        </dc:creator>
        <dc:rights>
          <cc:Agent>
            <dc:title>@ Alex Amies 2010</dc:title>
          </cc:Agent>
        </dc:rights>
        <dc:publisher>
          <cc:Agent>
            <dc:title>chinesenotes.com</dc:title>
          </cc:Agent>
        </dc:publisher>
        <dc:source>Yan Qin Ceremonial Inscription</dc:source>
        <dc:language>Chinese 中文</dc:language>
        <dc:description>Tracing from Tang Dynasty Ceremonial Inscription by Yan Zhenqing 颜真卿 (709－785)</dc:description>
        <cc:license
           rdf:resource="http://creativecommons.org/licenses/by/3.0/" />
      </cc:Work>
      <cc:License
         rdf:about="http://creativecommons.org/licenses/by/3.0/">
        <cc:permits
           rdf:resource="http://creativecommons.org/ns#Reproduction" />
        <cc:permits
           rdf:resource="http://creativecommons.org/ns#Distribution" />
        <cc:requires
           rdf:resource="http://creativecommons.org/ns#Notice" />
        <cc:requires
           rdf:resource="http://creativecommons.org/ns#Attribution" />
        <cc:permits
           rdf:resource="http://creativecommons.org/ns#DerivativeWorks" />
      </cc:License>
    </rdf:RDF>
  </metadata>
  <g
     inkscape:label="Layer 1"
     inkscape:groupmode="layer"
     id="layer1"
     transform="translate(0,-52.362183)">
    <g
       transform="matrix(4.7513766,0,0,4.7513766,-1572.319,-3933.7772)"
       id="g3809"
       style="fill:#000000;fill-opacity:1">
      <path
         style="fill:#000000;stroke:#000000;stroke-width:5.99286032000000010px;stroke-linecap:butt;stroke-linejoin:miter;stroke-opacity:1;fill-opacity:1"
         d="M 520.1875 57.21875 C 483.52873 76.96913 500.93737 127.34006 508.1875 163.53125 C 517.84038 211.52617 528.14106 259.36719 539.15625 306.9375 C 496.14765 325.34265 452.93684 343.0623 409.625 360.34375 C 409.22647 356.88988 408.79462 353.44415 408.375 350 C 405.97964 330.33952 391.15143 312.60154 378.21875 301.09375 C 358.19745 285.92536 332.11634 286.57002 309.65625 292.03125 C 297.91189 308.06966 313.55837 332.72122 320.21875 351.53125 C 322.59108 365.27307 324.49426 379.1916 326.0625 393.1875 C 254.47903 421.039 182.76738 448.36583 111.28125 476.53125 C 100.1598 481.44812 89.027702 486.36434 77.90625 491.28125 C 74.79215 517.82154 99.656561 544.84966 120.40625 534.5625 C 160.30727 527.79963 193.7831 498.31171 230.21875 479.46875 C 262.8756 460.97371 295.58296 441.99629 329.09375 425.78125 C 331.85313 462.56977 332.62415 499.82781 332.8125 536.84375 C 308.51091 560.07544 284.34284 583.62142 258.78125 604.5625 C 217.01926 638.7754 175.12478 673.46158 131.46875 703.5625 C 120.16665 711.35481 102.56197 711.15266 95.28125 721.34375 C 89.856841 728.93669 90.258349 746.23322 93.34375 756.9375 C 98.931131 776.32321 119.06888 795.35864 137.40625 790.125 C 150.47368 786.39469 162.07618 774.71267 172 763.40625 C 224.5387 703.54768 279.30933 645.71787 332.84375 587.09375 C 332.84298 588.61094 332.84406 590.1412 332.84375 591.65625 C 332.36419 655.43298 346.91761 729.38407 332.84375 783.03125 C 326.50575 807.19105 287.04139 793.65899 265.65625 789.46875 C 254.5309 787.28977 280.64879 816.37837 288.375 822.625 C 315.64572 840.32293 333.16616 895.66741 367.625 894.5 C 379.95083 890.84144 388.99689 869.60162 395.0625 852.09375 C 403.05935 829.01156 411.81929 806.72479 413.1875 781.03125 C 415.5954 735.81458 426.0071 690.88476 425.21875 645.625 C 424.31006 593.45803 422.92088 540.76061 420.09375 488.40625 C 420.62384 487.77942 421.1581 487.15861 421.6875 486.53125 C 427.35637 479.81352 432.00266 462.35846 427.46875 458.0625 C 425.03456 455.75609 421.86271 456.15189 418.28125 458.125 C 416.87547 436.72706 415.18742 415.42065 413.15625 394.25 C 458.7197 380.32174 503.88001 364.41628 549.03125 348.59375 C 563.23555 407.41222 578.59059 465.7978 595.3125 523.59375 C 606.21002 563.26484 619.87361 601.39534 635.75 638.0625 C 610.16518 697.08917 578.6178 752.93225 541.9375 815.5 C 536.81594 826.09319 532.2201 839.10896 529.84375 849.4375 C 522.87552 879.7223 564.03928 860.00768 572.6875 844.1875 C 602.14138 795.21585 634.07218 747.10833 663.90625 697.34375 C 689.50388 746.85804 718.88195 793.59491 750.5 837.8125 C 796.56008 909.42335 850.66519 973.68232 930.0625 955.84375 C 963.40567 942.25909 930.04844 907.02586 918.53125 887.75 C 901.40919 856.25455 905.62917 814.94452 905.4375 778.625 C 909.02802 759.23316 907.89965 719.00339 886.03125 729.3125 C 877.92935 762.64288 859.78036 792.2506 857 827.46875 C 788.45641 784.72395 742.30804 706.08665 706.1875 621.78125 C 727.66156 579.81942 746.30453 535.96889 759.6875 488.90625 C 757.84378 457.53348 739.94222 417.7244 717.1875 401.15625 C 711.6587 398.34054 700.24242 399.15936 697.875 405.875 C 687.26342 435.97687 689.89426 478.53164 678.96875 511.875 C 676.92752 519.91547 674.78594 527.81361 672.5625 535.59375 C 666.84505 519.84827 661.29868 504.23977 655.90625 489 C 638.61401 436.59878 625.45918 382.8195 614.34375 328.375 C 637.40722 329.92431 656.08355 355.78058 681.15625 350.40625 C 695.33146 355.81222 706.47714 345.70179 718.125 337.78125 C 727.01392 329.65578 741.91488 327.98784 743.75 312.25 C 759.7275 274.00921 727.65391 245.61129 700.53125 238.5 C 673.98702 231.60637 642.93852 234.9513 623.65625 261.09375 C 617.96554 268.14773 611.49929 273.49605 604.59375 277.875 C 595.9772 230.87362 588.39094 183.55589 580.5625 136.34375 C 572.12225 97.54952 549.82835 72.074167 520.1875 57.21875 z M 663.1875 71.125 C 658.69843 71.212037 654.67919 72.048518 651.53125 73.84375 C 645.24656 77.427856 645.28693 96.983847 647.65625 107.03125 C 650.87792 120.69279 658.5957 135.12475 667.78125 145.40625 C 681.48241 160.74203 698.83208 171.93553 708.9375 191.84375 C 714.43921 202.68245 718.85241 216.82101 726.84375 223.25 C 733.83417 228.87368 745.67721 230.18863 753.875 228 C 760.48431 226.23558 768.5045 218.90829 771.28125 211.40625 C 774.94242 201.51464 775.52332 186.9999 773.1875 175.8125 C 769.08549 156.16575 763.1145 133.35481 751.9375 118.90625 C 738.65056 101.73007 718.23259 90.380718 699.8125 80.9375 C 689.16604 75.479564 674.65956 70.902573 663.1875 71.125 z M 454.40625 135.25 C 428.51001 135.79256 397.17561 148.682 369.53125 154.46875 C 358.20976 156.83859 346.87835 163.2023 338.15625 173.59375 C 286.97 234.57639 231.24969 291.85013 182.1875 353.71875 C 178.61926 358.2184 176.62145 370.76999 180.28125 372.6875 C 190.62723 378.10825 206.80699 366.33697 218.3125 355.4375 C 288.68086 280.88446 370.0029 232.73821 453.65625 186.5 C 461.53104 181.13427 472.37458 172.68586 473.84375 163.96875 C 475.23942 155.68753 469.76174 136.17617 462.25 135.5 C 459.69705 135.27019 457.08517 135.19387 454.40625 135.25 z "
         transform="matrix(0.21046532,0,0,0.21046532,330.91862,838.9441)"
         id="path4582" />
    </g>
  </g>
</svg>
