<?xml version="1.0" encoding="UTF-8" standalone="no"?>
<!-- Created with Inkscape (http://www.inkscape.org/) -->

<svg
   xmlns:dc="http://purl.org/dc/elements/1.1/"
   xmlns:cc="http://creativecommons.org/ns#"
   xmlns:rdf="http://www.w3.org/1999/02/22-rdf-syntax-ns#"
   xmlns:svg="http://www.w3.org/2000/svg"
   xmlns="http://www.w3.org/2000/svg"
   xmlns:sodipodi="http://sodipodi.sourceforge.net/DTD/sodipodi-0.dtd"
   xmlns:inkscape="http://www.inkscape.org/namespaces/inkscape"
   width="1000"
   height="1000"
   id="svg3173"
   version="1.1"
   inkscape:version="0.47 r22583"
   sodipodi:docname="6240.svg"
   inkscape:export-filename="E:\chinese\yan\6240.png"
   inkscape:export-xdpi="18.005705"
   inkscape:export-ydpi="18.005705">
  <title
     id="title3700">Suo</title>
  <defs
     id="defs3175">
    <inkscape:perspective
       sodipodi:type="inkscape:persp3d"
       inkscape:vp_x="0 : 526.18109 : 1"
       inkscape:vp_y="0 : 1000 : 0"
       inkscape:vp_z="744.09448 : 526.18109 : 1"
       inkscape:persp3d-origin="372.04724 : 350.78739 : 1"
       id="perspective3181" />
    <inkscape:perspective
       id="perspective3191"
       inkscape:persp3d-origin="0.5 : 0.33333333 : 1"
       inkscape:vp_z="1 : 0.5 : 1"
       inkscape:vp_y="0 : 1000 : 0"
       inkscape:vp_x="0 : 0.5 : 1"
       sodipodi:type="inkscape:persp3d" />
    <inkscape:perspective
       id="perspective4006"
       inkscape:persp3d-origin="0.5 : 0.33333333 : 1"
       inkscape:vp_z="1 : 0.5 : 1"
       inkscape:vp_y="0 : 1000 : 0"
       inkscape:vp_x="0 : 0.5 : 1"
       sodipodi:type="inkscape:persp3d" />
    <inkscape:perspective
       id="perspective4034"
       inkscape:persp3d-origin="0.5 : 0.33333333 : 1"
       inkscape:vp_z="1 : 0.5 : 1"
       inkscape:vp_y="0 : 1000 : 0"
       inkscape:vp_x="0 : 0.5 : 1"
       sodipodi:type="inkscape:persp3d" />
    <inkscape:perspective
       id="perspective4081"
       inkscape:persp3d-origin="0.5 : 0.33333333 : 1"
       inkscape:vp_z="1 : 0.5 : 1"
       inkscape:vp_y="0 : 1000 : 0"
       inkscape:vp_x="0 : 0.5 : 1"
       sodipodi:type="inkscape:persp3d" />
    <inkscape:perspective
       id="perspective4147"
       inkscape:persp3d-origin="0.5 : 0.33333333 : 1"
       inkscape:vp_z="1 : 0.5 : 1"
       inkscape:vp_y="0 : 1000 : 0"
       inkscape:vp_x="0 : 0.5 : 1"
       sodipodi:type="inkscape:persp3d" />
    <inkscape:perspective
       id="perspective3758"
       inkscape:persp3d-origin="0.5 : 0.33333333 : 1"
       inkscape:vp_z="1 : 0.5 : 1"
       inkscape:vp_y="0 : 1000 : 0"
       inkscape:vp_x="0 : 0.5 : 1"
       sodipodi:type="inkscape:persp3d" />
    <inkscape:perspective
       id="perspective3719"
       inkscape:persp3d-origin="0.5 : 0.33333333 : 1"
       inkscape:vp_z="1 : 0.5 : 1"
       inkscape:vp_y="0 : 1000 : 0"
       inkscape:vp_x="0 : 0.5 : 1"
       sodipodi:type="inkscape:persp3d" />
    <inkscape:perspective
       id="perspective3803"
       inkscape:persp3d-origin="0.5 : 0.33333333 : 1"
       inkscape:vp_z="1 : 0.5 : 1"
       inkscape:vp_y="0 : 1000 : 0"
       inkscape:vp_x="0 : 0.5 : 1"
       sodipodi:type="inkscape:persp3d" />
    <inkscape:perspective
       id="perspective3810"
       inkscape:persp3d-origin="0.5 : 0.33333333 : 1"
       inkscape:vp_z="1 : 0.5 : 1"
       inkscape:vp_y="0 : 1000 : 0"
       inkscape:vp_x="0 : 0.5 : 1"
       sodipodi:type="inkscape:persp3d" />
    <inkscape:perspective
       id="perspective3838"
       inkscape:persp3d-origin="0.5 : 0.33333333 : 1"
       inkscape:vp_z="1 : 0.5 : 1"
       inkscape:vp_y="0 : 1000 : 0"
       inkscape:vp_x="0 : 0.5 : 1"
       sodipodi:type="inkscape:persp3d" />
    <inkscape:perspective
       id="perspective3869"
       inkscape:persp3d-origin="0.5 : 0.33333333 : 1"
       inkscape:vp_z="1 : 0.5 : 1"
       inkscape:vp_y="0 : 1000 : 0"
       inkscape:vp_x="0 : 0.5 : 1"
       sodipodi:type="inkscape:persp3d" />
  </defs>
  <sodipodi:namedview
     id="base"
     pagecolor="#ffffff"
     bordercolor="#666666"
     borderopacity="1.0"
     inkscape:pageopacity="0.0"
     inkscape:pageshadow="2"
     inkscape:zoom="0.49497475"
     inkscape:cx="571.51329"
     inkscape:cy="512.69615"
     inkscape:document-units="px"
     inkscape:current-layer="g4143"
     showgrid="false"
     inkscape:window-width="1440"
     inkscape:window-height="840"
     inkscape:window-x="-4"
     inkscape:window-y="-4"
     inkscape:window-maximized="1" />
  <metadata
     id="metadata3178">
    <rdf:RDF>
      <cc:Work
         rdf:about="">
        <dc:format>image/svg+xml</dc:format>
        <dc:type
           rdf:resource="http://purl.org/dc/dcmitype/StillImage" />
        <dc:title>Suo</dc:title>
        <dc:date>2010-08-13</dc:date>
        <dc:creator>
          <cc:Agent>
            <dc:title>Alex Amies</dc:title>
          </cc:Agent>
        </dc:creator>
        <dc:rights>
          <cc:Agent>
            <dc:title>@ Alex Amies 2010</dc:title>
          </cc:Agent>
        </dc:rights>
        <dc:publisher>
          <cc:Agent>
            <dc:title>chinesenotes.com</dc:title>
          </cc:Agent>
        </dc:publisher>
        <dc:source>Yan Qin Ceremonial Inscription</dc:source>
        <dc:language>Chinese 中文</dc:language>
        <dc:description>Tracing from Tang Dynasty Ceremonial Inscription by Yan Zhenqing 颜真卿 (709－785)</dc:description>
        <cc:license
           rdf:resource="http://creativecommons.org/licenses/by/3.0/" />
      </cc:Work>
      <cc:License
         rdf:about="http://creativecommons.org/licenses/by/3.0/">
        <cc:permits
           rdf:resource="http://creativecommons.org/ns#Reproduction" />
        <cc:permits
           rdf:resource="http://creativecommons.org/ns#Distribution" />
        <cc:requires
           rdf:resource="http://creativecommons.org/ns#Notice" />
        <cc:requires
           rdf:resource="http://creativecommons.org/ns#Attribution" />
        <cc:permits
           rdf:resource="http://creativecommons.org/ns#DerivativeWorks" />
      </cc:License>
    </rdf:RDF>
  </metadata>
  <g
     inkscape:label="Layer 1"
     inkscape:groupmode="layer"
     id="layer1"
     transform="translate(0,-52.362183)">
    <g
       transform="matrix(4.7609464,0,0,4.7609464,-1421.6669,-3910.0295)"
       id="g4143"
       style="fill:#000000;fill-opacity:1">
      <g
         transform="matrix(0.99597986,0,0,0.99597986,-233.86537,196.10349)"
         id="g10644"
         style="fill:#000000;fill-opacity:1">
        <path
           style="fill:#000000;stroke:#000000;stroke-width:4.74180651000000000px;stroke-linecap:butt;stroke-linejoin:miter;stroke-opacity:1;fill-opacity:1"
           d="M 406.90625 114.78125 C 403.49279 114.78447 400.04302 115.21973 396.59375 116.21875 C 336.18718 125.14195 276.94193 139.41517 217.78125 154.15625 C 205.48196 146.63561 190.29868 143.64468 176.21875 140.84375 C 163.23521 141.40821 154.60958 144.94209 152.5 152.6875 C 145.0776 179.93909 171.3717 208.39021 170.8125 236.96875 C 171.26866 359.8962 170.07467 484.18768 135.96875 603.125 C 117.74494 662.29867 96.14938 720.51528 71.46875 777.21875 C 71.522807 809.84921 107.30019 789.77561 113.625 770.9375 C 169.78653 669.74994 201.67587 588.27995 217.9375 496.34375 C 222.75422 499.37517 228.68903 501.10292 235 500.75 C 275.14556 495.0127 311.0167 474.25885 348.9375 460.96875 C 368.92656 452.95835 388.86704 444.80577 408.65625 436.3125 C 420.92426 440.86268 436.2532 440.31077 447.15625 433.8125 C 477.09635 400.53981 482.05163 349.27658 499.6875 308.09375 C 500.83611 295.52626 508.62748 277.71896 496.09375 269.15625 C 470.53987 259.12064 431.57961 232.7912 402.65625 237.5 C 390.78187 242.15257 393.78665 265.23565 381.8125 269.625 C 336.48165 286.24182 282.59958 288.6572 232.65625 297.625 C 232.85241 272.94862 232.96298 248.22714 237.78125 224.0625 C 241.60469 224.34797 245.47437 223.96367 249.34375 222.75 C 304.40618 210.26497 359.67666 198.69445 414.5625 185.4375 C 432.38534 180.35006 445.37053 172.57252 453.9375 156.0625 C 455.43003 147.9799 449.41425 140.27803 447.15625 132.375 C 435.86798 123.21921 421.69791 114.76728 406.90625 114.78125 z M 377.90625 303.21875 C 385.12894 303.01558 391.33306 306.29227 392.3125 316.15625 C 400.45499 342.60909 387.01589 368.94724 384.65625 394.8125 C 360.15657 399.28603 337.97086 413.09655 314.28125 420.6875 C 284.14178 432.65309 254.00625 444.65417 223.90625 456.71875 C 228.54281 419.91881 231.01477 380.89267 231.875 338 C 232.91661 338.58361 233.96189 339.15582 234.90625 339.71875 C 278.21929 333.76176 319.88839 316.89636 363 307.5 C 367.52918 305.11636 372.96441 303.35776 377.90625 303.21875 z "
           transform="matrix(0.21089008,0,0,0.21089008,534.62478,638.73406)"
           id="path10607" />
        <path
           style="fill:#000000;stroke:#000000;stroke-width:4.74180651000000000px;stroke-linecap:butt;stroke-linejoin:miter;stroke-opacity:1;fill-opacity:1"
           d="M 774.03125 51.0625 C 768.63161 51.327567 761.14309 54.161948 756.75 58.28125 C 719.36673 109.99037 679.92735 160.18259 640.21875 210.25 C 648.68624 211.37898 657.52566 216.00141 665.625 213.65625 C 718.38296 198.38009 770.26425 175.72247 822.40625 156.3125 C 835.00803 153.61915 847.75108 143.14891 847.5625 129.375 C 846.66791 113.75236 833.83938 102.70644 823.78125 92.125 C 806.79781 79.38092 791.47015 62.558204 774.03125 51.0625 z M 560.53125 167.0625 L 533.53125 171.3125 C 505.20251 188.89502 542.30188 204.50115 557.3125 213.59375 C 574.42981 232.96725 569.25494 263.52384 571.40625 288.15625 C 583.56467 460.02427 514.53575 603.1169 426.21875 744.1875 C 418.05189 756.88094 398.89366 779.16935 427.25 780.3125 C 450.65703 778.26205 466.6853 758.6015 487.0625 749.15625 C 537.28264 700.56625 551.44346 629.41596 572.96875 565.65625 C 586.35459 522.7504 598.66233 478.92831 607.78125 434.5625 C 620.87371 439.28115 635.7095 436.69222 649.34375 436.3125 C 680.31566 435.86441 710.71861 431.1669 740.96875 425.4375 C 735.01102 433.93654 731.30765 444.59711 730.125 453.8125 C 731.24857 584.93578 723.54898 725.80715 726.5 861.8125 C 728.19927 890.45135 733.04991 918.79611 738.4375 946.9375 C 765.99674 917.86373 771.34521 876.35569 782.03125 839.40625 C 792.56038 708.97536 794.90928 558.54033 789.9375 431.09375 C 787.766 426.3029 784.64422 421.469 780.78125 417.5625 C 813.29714 411.06989 845.85558 404.99154 879 403.3125 C 892.38441 403.47846 909.56394 422.13036 917.96875 415.1875 C 930.14851 405.12629 911.98064 376.64624 902.8125 360.65625 C 897.17302 350.82056 888.3664 338.69515 879 338.96875 C 864.72052 339.38603 850.05145 354.79953 836.15625 363.3125 C 826.27461 369.36655 812.1057 366.62184 800.125 367.96875 C 736.61001 374.75228 668.3915 367.91869 613.6875 402.9375 C 623.66713 343.52929 627.13596 283.32903 619.09375 223.21875 C 613.59823 197.09732 591.67999 167.49125 560.53125 167.0625 z "
           transform="matrix(0.21089008,0,0,0.21089008,534.62478,638.73406)"
           id="path10627" />
      </g>
    </g>
  </g>
</svg>
