<?xml version="1.0" encoding="UTF-8" standalone="no"?>
<!-- Created with Inkscape (http://www.inkscape.org/) -->

<svg
   xmlns:dc="http://purl.org/dc/elements/1.1/"
   xmlns:cc="http://creativecommons.org/ns#"
   xmlns:rdf="http://www.w3.org/1999/02/22-rdf-syntax-ns#"
   xmlns:svg="http://www.w3.org/2000/svg"
   xmlns="http://www.w3.org/2000/svg"
   xmlns:sodipodi="http://sodipodi.sourceforge.net/DTD/sodipodi-0.dtd"
   xmlns:inkscape="http://www.inkscape.org/namespaces/inkscape"
   width="1000"
   height="1000"
   id="svg3173"
   version="1.1"
   inkscape:version="0.47 r22583"
   sodipodi:docname="624c.svg"
   inkscape:export-filename="E:\chinese\yan\624C.png"
   inkscape:export-xdpi="17.908815"
   inkscape:export-ydpi="17.908815">
  <title
     id="title2826">Hand Radical</title>
  <defs
     id="defs3175">
    <inkscape:perspective
       sodipodi:type="inkscape:persp3d"
       inkscape:vp_x="0 : 526.18109 : 1"
       inkscape:vp_y="0 : 1000 : 0"
       inkscape:vp_z="744.09448 : 526.18109 : 1"
       inkscape:persp3d-origin="372.04724 : 350.78739 : 1"
       id="perspective3181" />
    <inkscape:perspective
       id="perspective3191"
       inkscape:persp3d-origin="0.5 : 0.33333333 : 1"
       inkscape:vp_z="1 : 0.5 : 1"
       inkscape:vp_y="0 : 1000 : 0"
       inkscape:vp_x="0 : 0.5 : 1"
       sodipodi:type="inkscape:persp3d" />
    <inkscape:perspective
       id="perspective4006"
       inkscape:persp3d-origin="0.5 : 0.33333333 : 1"
       inkscape:vp_z="1 : 0.5 : 1"
       inkscape:vp_y="0 : 1000 : 0"
       inkscape:vp_x="0 : 0.5 : 1"
       sodipodi:type="inkscape:persp3d" />
    <inkscape:perspective
       id="perspective4034"
       inkscape:persp3d-origin="0.5 : 0.33333333 : 1"
       inkscape:vp_z="1 : 0.5 : 1"
       inkscape:vp_y="0 : 1000 : 0"
       inkscape:vp_x="0 : 0.5 : 1"
       sodipodi:type="inkscape:persp3d" />
    <inkscape:perspective
       id="perspective4081"
       inkscape:persp3d-origin="0.5 : 0.33333333 : 1"
       inkscape:vp_z="1 : 0.5 : 1"
       inkscape:vp_y="0 : 1000 : 0"
       inkscape:vp_x="0 : 0.5 : 1"
       sodipodi:type="inkscape:persp3d" />
    <inkscape:perspective
       id="perspective4147"
       inkscape:persp3d-origin="0.5 : 0.33333333 : 1"
       inkscape:vp_z="1 : 0.5 : 1"
       inkscape:vp_y="0 : 1000 : 0"
       inkscape:vp_x="0 : 0.5 : 1"
       sodipodi:type="inkscape:persp3d" />
    <inkscape:perspective
       id="perspective3797"
       inkscape:persp3d-origin="0.5 : 0.33333333 : 1"
       inkscape:vp_z="1 : 0.5 : 1"
       inkscape:vp_y="0 : 1000 : 0"
       inkscape:vp_x="0 : 0.5 : 1"
       sodipodi:type="inkscape:persp3d" />
    <inkscape:perspective
       id="perspective3032"
       inkscape:persp3d-origin="0.5 : 0.33333333 : 1"
       inkscape:vp_z="1 : 0.5 : 1"
       inkscape:vp_y="0 : 1000 : 0"
       inkscape:vp_x="0 : 0.5 : 1"
       sodipodi:type="inkscape:persp3d" />
  </defs>
  <sodipodi:namedview
     id="base"
     pagecolor="#ffffff"
     bordercolor="#666666"
     borderopacity="1.0"
     inkscape:pageopacity="0.0"
     inkscape:pageshadow="2"
     inkscape:zoom="0.49497475"
     inkscape:cx="241.61481"
     inkscape:cy="519.65337"
     inkscape:document-units="px"
     inkscape:current-layer="layer1"
     showgrid="false"
     inkscape:window-width="1440"
     inkscape:window-height="840"
     inkscape:window-x="-4"
     inkscape:window-y="-4"
     inkscape:window-maximized="1" />
  <metadata
     id="metadata3178">
    <rdf:RDF>
      <cc:Work
         rdf:about="">
        <dc:format>image/svg+xml</dc:format>
        <dc:type
           rdf:resource="http://purl.org/dc/dcmitype/StillImage" />
        <dc:title>Hand Radical</dc:title>
        <dc:date>2010-07-21</dc:date>
        <dc:creator>
          <cc:Agent>
            <dc:title>Alex Amies</dc:title>
          </cc:Agent>
        </dc:creator>
        <dc:rights>
          <cc:Agent>
            <dc:title>@ Alex Amies 2010</dc:title>
          </cc:Agent>
        </dc:rights>
        <dc:publisher>
          <cc:Agent>
            <dc:title>chinesenotes.com</dc:title>
          </cc:Agent>
        </dc:publisher>
        <dc:source>Yan Qin Ceremonial Inscription</dc:source>
        <dc:language>Chinese 中文</dc:language>
        <dc:description>Tracing from Tang Dynasty Ceremonial Inscription by Yan Zhenqing 颜真卿 (709－785)</dc:description>
        <cc:license
           rdf:resource="http://creativecommons.org/licenses/by/3.0/" />
      </cc:Work>
      <cc:License
         rdf:about="http://creativecommons.org/licenses/by/3.0/">
        <cc:permits
           rdf:resource="http://creativecommons.org/ns#Reproduction" />
        <cc:permits
           rdf:resource="http://creativecommons.org/ns#Distribution" />
        <cc:requires
           rdf:resource="http://creativecommons.org/ns#Notice" />
        <cc:requires
           rdf:resource="http://creativecommons.org/ns#Attribution" />
        <cc:permits
           rdf:resource="http://creativecommons.org/ns#DerivativeWorks" />
      </cc:License>
    </rdf:RDF>
  </metadata>
  <g
     inkscape:label="Layer 1"
     inkscape:groupmode="layer"
     id="layer1"
     transform="translate(0,-52.362183)">
    <path
       style="fill:none;stroke:#000000;stroke-width:4.73223686px;stroke-linecap:butt;stroke-linejoin:miter;stroke-opacity:1"
       d="m 369.84328,287.58699 0,0 z"
       id="path5819" />
    <g
       transform="matrix(4.7322369,0,0,4.7322369,-536.04205,-3955.5633)"
       id="g5879"
       style="fill:none;fill-opacity:1">
      <path
         style="fill:#000000;stroke:#000000;stroke-width:4.73223686000000040px;stroke-linecap:butt;stroke-linejoin:miter;stroke-opacity:1;fill-opacity:1"
         d="M 218.9375 63.125 C 207.0985 63.404831 194.74532 68.098614 182.9375 78.625 C 186.44712 105.66249 199.83233 132.56087 198.53125 160.84375 C 198.04786 178.61464 197.72765 196.38483 197.53125 214.15625 C 166.70477 226.30334 135.68035 238.05984 105.75 252.21875 C 104.76929 252.75373 103.79321 253.27757 102.8125 253.8125 C 99.436901 259.901 89.999379 265.94303 97.96875 272.78125 C 121.73788 295.32709 153.76208 305.44873 180.28125 324 C 186.13826 320.68469 191.90918 317.24336 197.625 313.71875 C 198.15364 359.40558 199.21983 405.09547 200.4375 450.78125 C 155.37674 492.61658 110.73747 535.02699 63.9375 574.9375 C 53.368806 599.61806 66.969372 626.8157 83.96875 644.875 C 95.180697 656.49908 108.67499 642.34421 114.40625 632.375 C 143.61166 593.18648 172.4685 553.85847 202.21875 515.28125 C 204.82439 610.67515 207.13702 706.07604 205.28125 801.4375 C 203.00424 815.76719 196.70905 821.41511 183.6875 812.59375 C 170.8082 808.4838 158.71466 802.56759 146.75 796.34375 C 143.40663 821.07205 174.39175 839.24593 181.0625 864.46875 C 193.84257 900.86912 185.43039 942.67577 224.625 963.46875 C 254.08261 963.97889 257.90788 924.53291 263.4375 902.65625 C 265.71248 833.04457 272.20613 763.48603 268.8125 693.8125 C 264.11623 608.16412 263.64439 522.61551 265.25 437.09375 C 283.65058 415.48015 302.67074 394.32036 322.53125 373.8125 C 323.52033 364.22414 323.99229 344.63512 308.8125 354.5625 C 294.44197 366.44064 280.30542 378.5724 266.3125 390.90625 C 267.46458 347.82474 269.03973 304.736 270.78125 261.65625 C 297.75585 240.21213 323.42532 217.79585 348.375 196.3125 C 351.24169 186.2104 352.01846 165.25708 338.375 163.75 L 315.75 157.46875 C 302.2851 166.14291 288.37216 173.89707 274.15625 181 C 274.26521 178.43825 274.35993 175.87431 274.46875 173.3125 C 272.51609 158.6358 280.8774 145.63501 283.25 132.03125 C 280.48677 95.326185 251.66884 62.351351 218.9375 63.125 z "
         transform="matrix(0.21131656,0,0,0.21131656,113.27456,846.94101)"
         id="path5811" />
    </g>
    <path
       style="fill:none;stroke:#000000;stroke-width:4.73223686px;stroke-linecap:butt;stroke-linejoin:miter;stroke-opacity:1"
       d="m 594.62455,556.31042 0,0 z"
       id="path5837" />
  </g>
</svg>
