<?xml version="1.0" encoding="UTF-8" standalone="no"?>
<!-- Created with Inkscape (http://www.inkscape.org/) -->

<svg
   xmlns:dc="http://purl.org/dc/elements/1.1/"
   xmlns:cc="http://creativecommons.org/ns#"
   xmlns:rdf="http://www.w3.org/1999/02/22-rdf-syntax-ns#"
   xmlns:svg="http://www.w3.org/2000/svg"
   xmlns="http://www.w3.org/2000/svg"
   xmlns:sodipodi="http://sodipodi.sourceforge.net/DTD/sodipodi-0.dtd"
   xmlns:inkscape="http://www.inkscape.org/namespaces/inkscape"
   width="1000"
   height="1000"
   id="svg3173"
   version="1.1"
   inkscape:version="0.47 r22583"
   sodipodi:docname="630d.svg"
   inkscape:export-filename="E:\chinese\yan\630d.png"
   inkscape:export-xdpi="18.005705"
   inkscape:export-ydpi="18.005705">
  <title
     id="title4268">Ying</title>
  <defs
     id="defs3175">
    <inkscape:perspective
       sodipodi:type="inkscape:persp3d"
       inkscape:vp_x="0 : 526.18109 : 1"
       inkscape:vp_y="0 : 1000 : 0"
       inkscape:vp_z="744.09448 : 526.18109 : 1"
       inkscape:persp3d-origin="372.04724 : 350.78739 : 1"
       id="perspective3181" />
    <inkscape:perspective
       id="perspective3191"
       inkscape:persp3d-origin="0.5 : 0.33333333 : 1"
       inkscape:vp_z="1 : 0.5 : 1"
       inkscape:vp_y="0 : 1000 : 0"
       inkscape:vp_x="0 : 0.5 : 1"
       sodipodi:type="inkscape:persp3d" />
    <inkscape:perspective
       id="perspective4006"
       inkscape:persp3d-origin="0.5 : 0.33333333 : 1"
       inkscape:vp_z="1 : 0.5 : 1"
       inkscape:vp_y="0 : 1000 : 0"
       inkscape:vp_x="0 : 0.5 : 1"
       sodipodi:type="inkscape:persp3d" />
    <inkscape:perspective
       id="perspective4034"
       inkscape:persp3d-origin="0.5 : 0.33333333 : 1"
       inkscape:vp_z="1 : 0.5 : 1"
       inkscape:vp_y="0 : 1000 : 0"
       inkscape:vp_x="0 : 0.5 : 1"
       sodipodi:type="inkscape:persp3d" />
    <inkscape:perspective
       id="perspective4081"
       inkscape:persp3d-origin="0.5 : 0.33333333 : 1"
       inkscape:vp_z="1 : 0.5 : 1"
       inkscape:vp_y="0 : 1000 : 0"
       inkscape:vp_x="0 : 0.5 : 1"
       sodipodi:type="inkscape:persp3d" />
    <inkscape:perspective
       id="perspective4147"
       inkscape:persp3d-origin="0.5 : 0.33333333 : 1"
       inkscape:vp_z="1 : 0.5 : 1"
       inkscape:vp_y="0 : 1000 : 0"
       inkscape:vp_x="0 : 0.5 : 1"
       sodipodi:type="inkscape:persp3d" />
    <inkscape:perspective
       id="perspective3758"
       inkscape:persp3d-origin="0.5 : 0.33333333 : 1"
       inkscape:vp_z="1 : 0.5 : 1"
       inkscape:vp_y="0 : 1000 : 0"
       inkscape:vp_x="0 : 0.5 : 1"
       sodipodi:type="inkscape:persp3d" />
    <inkscape:perspective
       id="perspective3719"
       inkscape:persp3d-origin="0.5 : 0.33333333 : 1"
       inkscape:vp_z="1 : 0.5 : 1"
       inkscape:vp_y="0 : 1000 : 0"
       inkscape:vp_x="0 : 0.5 : 1"
       sodipodi:type="inkscape:persp3d" />
    <inkscape:perspective
       id="perspective3803"
       inkscape:persp3d-origin="0.5 : 0.33333333 : 1"
       inkscape:vp_z="1 : 0.5 : 1"
       inkscape:vp_y="0 : 1000 : 0"
       inkscape:vp_x="0 : 0.5 : 1"
       sodipodi:type="inkscape:persp3d" />
    <inkscape:perspective
       id="perspective3801"
       inkscape:persp3d-origin="0.5 : 0.33333333 : 1"
       inkscape:vp_z="1 : 0.5 : 1"
       inkscape:vp_y="0 : 1000 : 0"
       inkscape:vp_x="0 : 0.5 : 1"
       sodipodi:type="inkscape:persp3d" />
    <inkscape:perspective
       id="perspective3838"
       inkscape:persp3d-origin="0.5 : 0.33333333 : 1"
       inkscape:vp_z="1 : 0.5 : 1"
       inkscape:vp_y="0 : 1000 : 0"
       inkscape:vp_x="0 : 0.5 : 1"
       sodipodi:type="inkscape:persp3d" />
    <inkscape:perspective
       id="perspective3862"
       inkscape:persp3d-origin="0.5 : 0.33333333 : 1"
       inkscape:vp_z="1 : 0.5 : 1"
       inkscape:vp_y="0 : 1000 : 0"
       inkscape:vp_x="0 : 0.5 : 1"
       sodipodi:type="inkscape:persp3d" />
    <inkscape:perspective
       id="perspective3917"
       inkscape:persp3d-origin="0.5 : 0.33333333 : 1"
       inkscape:vp_z="1 : 0.5 : 1"
       inkscape:vp_y="0 : 1000 : 0"
       inkscape:vp_x="0 : 0.5 : 1"
       sodipodi:type="inkscape:persp3d" />
  </defs>
  <sodipodi:namedview
     id="base"
     pagecolor="#ffffff"
     bordercolor="#666666"
     borderopacity="1.0"
     inkscape:pageopacity="0.0"
     inkscape:pageshadow="2"
     inkscape:zoom="0.49497475"
     inkscape:cx="571.51329"
     inkscape:cy="512.69615"
     inkscape:document-units="px"
     inkscape:current-layer="g4143"
     showgrid="false"
     inkscape:window-width="1440"
     inkscape:window-height="840"
     inkscape:window-x="-4"
     inkscape:window-y="-4"
     inkscape:window-maximized="1" />
  <metadata
     id="metadata3178">
    <rdf:RDF>
      <cc:Work
         rdf:about="">
        <dc:format>image/svg+xml</dc:format>
        <dc:type
           rdf:resource="http://purl.org/dc/dcmitype/StillImage" />
        <dc:title>Ying</dc:title>
        <dc:date>2010-08-14</dc:date>
        <dc:creator>
          <cc:Agent>
            <dc:title>Alex Amies</dc:title>
          </cc:Agent>
        </dc:creator>
        <dc:rights>
          <cc:Agent>
            <dc:title>@ Alex Amies 2010</dc:title>
          </cc:Agent>
        </dc:rights>
        <dc:publisher>
          <cc:Agent>
            <dc:title>chinesenotes.com</dc:title>
          </cc:Agent>
        </dc:publisher>
        <dc:source>Yan Qin Ceremonial Inscription</dc:source>
        <dc:language>Chinese 中文</dc:language>
        <dc:description>Tracing from Tang Dynasty Ceremonial Inscription by Yan Zhenqing 颜真卿 (709－785)</dc:description>
        <cc:license
           rdf:resource="http://creativecommons.org/licenses/by/3.0/" />
      </cc:Work>
      <cc:License
         rdf:about="http://creativecommons.org/licenses/by/3.0/">
        <cc:permits
           rdf:resource="http://creativecommons.org/ns#Reproduction" />
        <cc:permits
           rdf:resource="http://creativecommons.org/ns#Distribution" />
        <cc:requires
           rdf:resource="http://creativecommons.org/ns#Notice" />
        <cc:requires
           rdf:resource="http://creativecommons.org/ns#Attribution" />
        <cc:permits
           rdf:resource="http://creativecommons.org/ns#DerivativeWorks" />
      </cc:License>
    </rdf:RDF>
  </metadata>
  <g
     inkscape:label="Layer 1"
     inkscape:groupmode="layer"
     id="layer1"
     transform="translate(0,-52.362183)">
    <g
       transform="matrix(4.7609464,0,0,4.7609464,-1421.6669,-3910.0295)"
       id="g4143"
       style="fill:#000000;fill-opacity:1">
      <g
         transform="matrix(0.99798993,0,0,0.99798993,184.10982,426.00403)"
         id="g14334"
         style="fill:#000000;fill-opacity:1">
        <path
           style="fill:#000000;stroke:#000000;stroke-width:4.75137663000000020px;stroke-linecap:butt;stroke-linejoin:miter;stroke-opacity:1;fill-opacity:1"
           d="M 265.1875 73.25 C 252.59905 73.275562 238.65728 80.730426 225.28125 87.875 C 197.82879 74.721907 187.52538 105.4055 207.4375 122.90625 C 219.41975 159.21844 222.46338 196.93878 222.59375 234.9375 C 191.70725 243.58218 160.88117 253.75575 141.5 265.625 C 138.07141 290.04099 157.1186 313.06615 179.6875 320.0625 C 194.32532 322.04882 207.73197 320.29711 220.65625 316.46875 C 220.49022 323.19366 220.32353 329.90993 220.28125 336.59375 C 214.17415 394.21344 213.03941 461.57288 211.9375 530.5 C 190.41751 545.80147 168.53626 560.51305 145.1875 572.96875 C 119.89887 585.56945 92.297212 593.89022 69.15625 610.53125 C 61.476458 619.3135 61.664412 639.69154 59.25 652.5625 C 63.721473 664.84077 74.976924 675.20792 88.90625 673.09375 C 101.2088 673.43822 114.18901 677.24955 125.625 670.53125 C 150.49009 642.70572 179.81929 616.51892 210.90625 589.46875 C 209.14081 672.29799 205.43195 754.11532 191.34375 820.9375 C 169.61913 834.59585 139.9108 772.65197 142.78125 811.3125 C 147.0745 846.41615 160.48214 880.74905 180.34375 909.90625 C 200.13442 935.26093 242.46699 927.05108 254.9375 898.375 C 271.19989 867.97051 268.80413 831.99265 274 798.6875 C 279.00261 706.40815 283.73662 614.14506 287.25 521.84375 C 299.21805 510.67674 311.13431 499.13363 322.875 487.03125 C 329.54484 479.12083 351.35367 455.65917 336.6875 457.625 C 313.58536 457.46868 308.74748 462.10496 298.5 470.03125 C 295.27322 472.04312 292.09302 474.11415 288.90625 476.1875 C 291.03731 412.14643 292.48536 348.09191 292.90625 284 C 300.90601 280.60356 309.17586 277.54442 317.90625 275.21875 C 332.66654 273.20383 347.42619 267.3598 357.78125 256.375 C 370.76942 229.0361 331.72985 212.86602 310.53125 211.5 C 305.64365 213.05761 299.64287 214.74257 292.9375 216.53125 C 292.8852 206.68173 292.82632 196.82008 292.71875 186.96875 C 292.43794 158.91344 305.60849 127.89112 296.90625 103.125 C 289.00293 80.632577 277.77595 73.224438 265.1875 73.25 z "
           transform="matrix(0.21046532,0,0,0.21046532,114.73094,407.08399)"
           id="path14280" />
        <g
           id="g6512"
           style="fill:#000000;fill-opacity:1">
          <path
             id="path14289"
             transform="matrix(0.21046532,0,0,0.21046532,114.73094,407.08399)"
             d="M 539.34375 84.125 C 531.28935 84.318219 523.2654 85.511144 515.4375 87.875 C 496.07892 105.01036 462.17289 115.77196 475.96875 146.25 C 490.44187 167.61366 516.01939 168.43322 536.90625 178.375 C 552.67502 190.98006 562.40666 208.7879 576.125 222.53125 C 548.3512 226.73295 520.4964 230.23497 492.53125 232.6875 C 475.85739 232.74832 458.05631 229.4831 442.46875 237.1875 C 424.0956 244.75193 429.85344 268.84543 440.3125 280.75 C 449.95794 299.83666 472.54512 305.26116 491.125 296.5 C 553.54821 275.31846 615.29911 264.96663 678.03125 251.9375 C 722.85887 242.53301 764.89993 260.15622 806.84375 273.21875 C 825.46577 274.57284 837.58134 253.53943 832.65625 236.9375 C 827.14598 207.74756 800.49522 174.47856 775 177.375 C 733.03588 182.14243 688.70526 201.27038 644.3125 210.875 C 648.58224 193.86891 652.73169 174.56376 648.9375 157.25 C 645.81813 138.78073 636.61146 121.04627 621.3125 109.8125 C 597.44819 95.228001 568.10945 83.434933 539.34375 84.125 z "
             style="fill:#000000;stroke:#000000;stroke-width:4.75137663000000020px;stroke-linecap:butt;stroke-linejoin:miter;stroke-opacity:1;fill-opacity:1" />
          <path
             style="fill:#000000;fill-opacity:1;stroke:#000000;stroke-width:1px;stroke-linecap:butt;stroke-linejoin:miter;stroke-opacity:1"
             d="m 216.07143,479.1479 c -1.63636,-0.74829 -5.22624,-2.66585 -5.25209,0.58398 0.19484,3.32681 0.63008,6.6592 0.40279,9.99694 -1.22812,6.26371 -4.96205,11.65759 -8.55715,16.80206 -1.92898,0.85381 -4.80057,3.99055 -1.14035,4.72458 2.68293,0.32682 5.40721,-0.0648 8.10731,-0.052 8.50711,0.28347 13.94545,-5.93449 20.93324,-9.42127 3.08922,-6.40667 0.84238,-13.00308 -5.69244,-19.88068 -1.97769,-2.08143 -5.90522,-2.09591 -8.80131,-2.75357 l 0,-4e-5 z"
             id="path14298"
             sodipodi:nodetypes="cccccccscc" />
          <path
             style="fill:#000000;fill-opacity:1;stroke:#000000;stroke-width:1px;stroke-linecap:butt;stroke-linejoin:miter;stroke-opacity:1"
             d="m 254.01246,476.4995 c 4.03388,4.23294 7.62134,9.19844 8.93172,14.96372 0.90983,4.26248 4.39451,8.6116 9.096,8.45841 3.78648,-0.48728 7.98972,-2.35022 9.50152,-6.10395 1.07933,-3.4053 0.15079,-7.01333 -0.26839,-10.45172 -3.18476,-6.34255 -8.2505,-11.9847 -15.5453,-14.15942 -3.03288,0.0836 -14.60298,2.88807 -11.71555,7.29296 z"
             id="path14302"
             sodipodi:nodetypes="ccccccc" />
          <path
             id="path14306"
             transform="matrix(0.21046532,0,0,0.21046532,114.73094,407.08399)"
             d="M 634.59375 439.5 C 618.3979 440.24072 620.39294 466.01056 623.1875 479.6875 C 620.57649 509.71618 608.68405 539.04302 592.46875 567 C 585.40772 547.64318 577.88141 528.01395 578.78125 507.21875 C 578.04821 490.52165 557.50609 486.59795 544.28125 488.34375 C 524.84983 493.53021 502.79365 512.28744 507.125 534.53125 C 513.96433 568.29918 540.8924 592.23923 553.84375 623.34375 C 539.33603 642.14019 524.35765 659.95738 510.875 676.5 C 482.18904 710.33978 452.056 743.07102 419.71875 773.4375 C 402.04078 786.70553 384.68383 805.50735 369.28125 824.34375 C 364.09859 844.32039 405.07823 821.36162 416.875 811.09375 C 455.23505 790.83645 500.2226 761.71474 531.46875 731.4375 C 548.54955 711.40667 563.69581 691.88542 577.6875 672.90625 C 612.84463 747.58078 649.28124 825.67943 720.125 870.46875 C 790.90896 863.55345 853.57301 864.28991 917.96875 868.59375 C 965.92734 879.50362 959.49497 863.02744 940.15625 846.6875 C 923.01433 830.35892 899.14069 824.29385 879.78125 811.0625 C 776.30805 764.81454 676.8574 712.82886 617.3125 617.1875 C 643.33212 579.91215 667.69125 545.21837 697.46875 513.59375 C 712.86364 496.37405 699.62668 470.25721 683.53125 458.4375 C 671.64901 449.38446 657.91379 441.82559 642.71875 440.8125 C 639.61216 439.78889 636.90744 439.39418 634.59375 439.5 z "
             style="fill:#000000;stroke:#000000;stroke-width:4.75137663000000020px;stroke-linecap:butt;stroke-linejoin:miter;stroke-opacity:1;fill-opacity:1" />
        </g>
      </g>
    </g>
  </g>
</svg>
