<?xml version="1.0" encoding="UTF-8" standalone="no"?>
<!-- Created with Inkscape (http://www.inkscape.org/) -->

<svg
   xmlns:dc="http://purl.org/dc/elements/1.1/"
   xmlns:cc="http://creativecommons.org/ns#"
   xmlns:rdf="http://www.w3.org/1999/02/22-rdf-syntax-ns#"
   xmlns:svg="http://www.w3.org/2000/svg"
   xmlns="http://www.w3.org/2000/svg"
   xmlns:sodipodi="http://sodipodi.sourceforge.net/DTD/sodipodi-0.dtd"
   xmlns:inkscape="http://www.inkscape.org/namespaces/inkscape"
   width="1000"
   height="1000"
   id="svg3173"
   version="1.1"
   inkscape:version="0.47 r22583"
   sodipodi:docname="63a1.svg"
   inkscape:export-filename="E:\chinese\yan\63a1.png"
   inkscape:export-xdpi="18.005705"
   inkscape:export-ydpi="18.005705">
  <title
     id="title2821">Cai</title>
  <defs
     id="defs3175">
    <inkscape:perspective
       sodipodi:type="inkscape:persp3d"
       inkscape:vp_x="0 : 526.18109 : 1"
       inkscape:vp_y="0 : 1000 : 0"
       inkscape:vp_z="744.09448 : 526.18109 : 1"
       inkscape:persp3d-origin="372.04724 : 350.78739 : 1"
       id="perspective3181" />
    <inkscape:perspective
       id="perspective3191"
       inkscape:persp3d-origin="0.5 : 0.33333333 : 1"
       inkscape:vp_z="1 : 0.5 : 1"
       inkscape:vp_y="0 : 1000 : 0"
       inkscape:vp_x="0 : 0.5 : 1"
       sodipodi:type="inkscape:persp3d" />
    <inkscape:perspective
       id="perspective4006"
       inkscape:persp3d-origin="0.5 : 0.33333333 : 1"
       inkscape:vp_z="1 : 0.5 : 1"
       inkscape:vp_y="0 : 1000 : 0"
       inkscape:vp_x="0 : 0.5 : 1"
       sodipodi:type="inkscape:persp3d" />
    <inkscape:perspective
       id="perspective4034"
       inkscape:persp3d-origin="0.5 : 0.33333333 : 1"
       inkscape:vp_z="1 : 0.5 : 1"
       inkscape:vp_y="0 : 1000 : 0"
       inkscape:vp_x="0 : 0.5 : 1"
       sodipodi:type="inkscape:persp3d" />
    <inkscape:perspective
       id="perspective4081"
       inkscape:persp3d-origin="0.5 : 0.33333333 : 1"
       inkscape:vp_z="1 : 0.5 : 1"
       inkscape:vp_y="0 : 1000 : 0"
       inkscape:vp_x="0 : 0.5 : 1"
       sodipodi:type="inkscape:persp3d" />
    <inkscape:perspective
       id="perspective4147"
       inkscape:persp3d-origin="0.5 : 0.33333333 : 1"
       inkscape:vp_z="1 : 0.5 : 1"
       inkscape:vp_y="0 : 1000 : 0"
       inkscape:vp_x="0 : 0.5 : 1"
       sodipodi:type="inkscape:persp3d" />
    <inkscape:perspective
       id="perspective3797"
       inkscape:persp3d-origin="0.5 : 0.33333333 : 1"
       inkscape:vp_z="1 : 0.5 : 1"
       inkscape:vp_y="0 : 1000 : 0"
       inkscape:vp_x="0 : 0.5 : 1"
       sodipodi:type="inkscape:persp3d" />
  </defs>
  <sodipodi:namedview
     id="base"
     pagecolor="#ffffff"
     bordercolor="#666666"
     borderopacity="1.0"
     inkscape:pageopacity="0.0"
     inkscape:pageshadow="2"
     inkscape:zoom="0.49497475"
     inkscape:cx="469.90929"
     inkscape:cy="525.71429"
     inkscape:document-units="px"
     inkscape:current-layer="layer1"
     showgrid="false"
     inkscape:window-width="1440"
     inkscape:window-height="840"
     inkscape:window-x="-4"
     inkscape:window-y="-4"
     inkscape:window-maximized="1" />
  <metadata
     id="metadata3178">
    <rdf:RDF>
      <cc:Work
         rdf:about="">
        <dc:format>image/svg+xml</dc:format>
        <dc:type
           rdf:resource="http://purl.org/dc/dcmitype/StillImage" />
        <dc:title>Cai</dc:title>
        <dc:date>2010-07-17</dc:date>
        <dc:creator>
          <cc:Agent>
            <dc:title>Alex Amies</dc:title>
          </cc:Agent>
        </dc:creator>
        <dc:rights>
          <cc:Agent>
            <dc:title>@ Alex Amies 2010</dc:title>
          </cc:Agent>
        </dc:rights>
        <dc:publisher>
          <cc:Agent>
            <dc:title>chinesenotes.com</dc:title>
          </cc:Agent>
        </dc:publisher>
        <dc:source>Yan Qin Ceremonial Inscription</dc:source>
        <dc:language>Chinese 中文</dc:language>
        <dc:description>Tracing from Tang Dynasty Ceremonial Inscription by Yan Zhenqing 颜真卿 (709－785)</dc:description>
        <cc:license
           rdf:resource="http://creativecommons.org/licenses/by/3.0/" />
      </cc:Work>
      <cc:License
         rdf:about="http://creativecommons.org/licenses/by/3.0/">
        <cc:permits
           rdf:resource="http://creativecommons.org/ns#Reproduction" />
        <cc:permits
           rdf:resource="http://creativecommons.org/ns#Distribution" />
        <cc:requires
           rdf:resource="http://creativecommons.org/ns#Notice" />
        <cc:requires
           rdf:resource="http://creativecommons.org/ns#Attribution" />
        <cc:permits
           rdf:resource="http://creativecommons.org/ns#DerivativeWorks" />
      </cc:License>
    </rdf:RDF>
  </metadata>
  <g
     inkscape:label="Layer 1"
     inkscape:groupmode="layer"
     id="layer1"
     transform="translate(0,-52.362183)">
    <path
       style="fill:#000000;stroke:#000000;stroke-width:4.73223686000000040px;stroke-linecap:butt;stroke-linejoin:miter;stroke-opacity:1;fill-opacity:1"
       d="m 369.84328,287.58699 0,0 z"
       id="path5819" />
    <g
       transform="matrix(4.7322369,0,0,4.7322369,-536.04205,-3955.5633)"
       id="g5879"
       style="fill:#000000;fill-opacity:1">
      <path
         style="fill:#000000;stroke:#000000;stroke-width:4.73223686000000040px;stroke-linecap:butt;stroke-linejoin:miter;stroke-opacity:1;fill-opacity:1"
         d="M 218.9375 63.125 C 207.0985 63.404831 194.74532 68.098614 182.9375 78.625 C 186.44712 105.66249 199.83233 132.56087 198.53125 160.84375 C 198.04786 178.61464 197.72765 196.38483 197.53125 214.15625 C 166.70477 226.30334 135.68035 238.05984 105.75 252.21875 C 104.76929 252.75373 103.79321 253.27757 102.8125 253.8125 C 99.436901 259.901 89.999379 265.94303 97.96875 272.78125 C 121.73788 295.32709 153.76208 305.44873 180.28125 324 C 186.13826 320.68469 191.90918 317.24336 197.625 313.71875 C 198.15364 359.40558 199.21983 405.09547 200.4375 450.78125 C 155.37674 492.61658 110.73747 535.02699 63.9375 574.9375 C 53.368806 599.61806 66.969372 626.8157 83.96875 644.875 C 95.180697 656.49908 108.67499 642.34421 114.40625 632.375 C 143.61166 593.18648 172.4685 553.85847 202.21875 515.28125 C 204.82439 610.67515 207.13702 706.07604 205.28125 801.4375 C 203.00424 815.76719 196.70905 821.41511 183.6875 812.59375 C 170.8082 808.4838 158.71466 802.56759 146.75 796.34375 C 143.40663 821.07205 174.39175 839.24593 181.0625 864.46875 C 193.84257 900.86912 185.43039 942.67577 224.625 963.46875 C 254.08261 963.97889 257.90788 924.53291 263.4375 902.65625 C 265.71248 833.04457 272.20613 763.48603 268.8125 693.8125 C 264.11623 608.16412 263.64439 522.61551 265.25 437.09375 C 283.65058 415.48015 302.67074 394.32036 322.53125 373.8125 C 323.52033 364.22414 323.99229 344.63512 308.8125 354.5625 C 294.44197 366.44064 280.30542 378.5724 266.3125 390.90625 C 267.46458 347.82474 269.03973 304.736 270.78125 261.65625 C 297.75585 240.21213 323.42532 217.79585 348.375 196.3125 C 351.24169 186.2104 352.01846 165.25708 338.375 163.75 L 315.75 157.46875 C 302.2851 166.14291 288.37216 173.89707 274.15625 181 C 274.26521 178.43825 274.35993 175.87431 274.46875 173.3125 C 272.51609 158.6358 280.8774 145.63501 283.25 132.03125 C 280.48677 95.326185 251.66884 62.351351 218.9375 63.125 z "
         transform="matrix(0.21131656,0,0,0.21131656,113.27456,846.94101)"
         id="path5811" />
      <path
         id="path5817"
         d="m 195.71428,881.6479 c -0.97152,2.74564 2.66878,3.35323 4.43239,2.14016 9.22526,-4.00223 19.14016,-5.76181 28.92036,-7.85445 9.8561,-0.43978 19.23765,2.66227 28.07583,-2.5 0.72039,-6.34754 -1.13547,-10.11556 -6.25381,-13.99276 -6.24229,-3.7695 -12.8218,-4.4029 -19.98037,-3.35609 -5.88623,3.69897 -10.52662,9.98683 -15.67473,14.85768 -6.44585,3.7041 -12.50861,8.156 -19.51967,10.70546 z"
         style="fill:#000000;fill-opacity:1;stroke:#000000;stroke-width:1px;stroke-linecap:butt;stroke-linejoin:miter;stroke-opacity:1"
         sodipodi:nodetypes="cccccccc" />
      <path
         id="path5823"
         d="m 192.5,895.93361 c -2.67418,4.7853 1.86289,10.01989 2.43004,15.02935 0.27305,4.71327 -2.15442,9.53059 -0.39347,13.98333 0.38383,3.72945 3.93909,10.10301 8.25374,6.94282 6.18372,-7.65773 9.78079,-24.17602 1.88171,-31.89616 -3.33105,-3.00506 -7.52853,-7.14935 -12.17202,-4.05934 z"
         style="fill:#000000;fill-opacity:1;stroke:#000000;stroke-width:1px;stroke-linecap:butt;stroke-linejoin:miter;stroke-opacity:1"
         sodipodi:nodetypes="cccccc" />
      <path
         id="path5825"
         d="m 230.71428,887.71933 c -7.68829,4.49866 -2.77658,16.75989 -1.2694,24.18146 0.62827,4.80968 6.98723,8.81203 9.31633,2.67576 1.63756,-5.16119 0.14615,-10.70685 0.91998,-16.02588 0.10075,-5.40141 -4.42674,-8.95195 -8.96691,-10.83134 z"
         style="fill:#000000;fill-opacity:1;stroke:#000000;stroke-width:1px;stroke-linecap:butt;stroke-linejoin:miter;stroke-opacity:1"
         sodipodi:nodetypes="ccccc" />
      <path
         id="path5827"
         d="m 255.35714,880.57647 c 0.16909,10.85879 6.23365,20.62107 6.42857,31.57084 -0.6988,2.17614 1.73182,2.0595 3.27115,1.76964 6.66928,-5.43143 6.03183,-15.98019 8.94138,-23.56107 2.95066,-3.0514 -1.69164,-6.25572 -3.33228,-8.78132 -4.78271,-5.05779 -9.96163,-3.67168 -15.30882,-0.99809 z"
         style="fill:#000000;fill-opacity:1;stroke:#000000;stroke-width:1px;stroke-linecap:butt;stroke-linejoin:miter;stroke-opacity:1"
         sodipodi:nodetypes="cccccc" />
      <path
         style="fill:#000000;stroke:#000000;stroke-width:4.73223686000000040px;stroke-linecap:butt;stroke-linejoin:miter;stroke-opacity:1;fill-opacity:1"
         d="M 781.3125 373.65625 C 775.16592 373.57924 768.76452 374.46586 762.25 376.40625 C 710.97783 395.79975 657.05679 407.45152 605.53125 426.15625 C 605.16264 421.28156 604.75532 416.40053 604.3125 411.53125 C 601.10111 384.61528 578.19517 375.23754 553.65625 377.875 L 549.625 377.53125 L 545.625 377.1875 C 515.28005 379.93471 528.41195 411.07573 527.9375 431.875 C 528.30648 438.77088 528.73052 445.67498 529.1875 452.5625 C 473.74357 475.04006 407.95239 507.31906 364.09375 500 C 345.95925 494.31833 327.92357 507.68237 342.5 525.84375 C 356.63235 541.23265 374.22026 573.20557 396.78125 548.46875 C 442.1468 532.33694 487.87775 515.80406 532.6875 497.34375 C 532.93788 500.14608 533.17719 502.94861 533.4375 505.75 C 471.52451 589.99151 401.84164 668.02735 332.625 746.34375 C 323.06049 759.62809 313.50201 772.90316 303.9375 786.1875 C 307.46647 790.28183 309.82052 800.35865 315.59375 793.03125 C 333.96898 780.1449 353.28457 768.42429 371.0625 754.78125 C 397.68942 730.04916 424.99249 705.99289 451.1875 680.84375 C 482.88397 646.12268 512.10902 609.45728 540.34375 572 C 545.96097 621.83626 552.24609 671.60962 557.34375 721.5 C 552.76749 784.1427 547.81948 846.77802 545.625 909.5625 C 534.34675 926.75898 520.0527 951.22312 537.21875 969.4375 C 552.98202 980.95245 572.05921 975.58499 582.40625 959.71875 C 596.69122 944.44593 607.2083 926.86017 613.5 906.84375 C 624.27739 888.55602 624.20437 868.22967 623.375 847.6875 C 624.42806 768.13352 621.5765 688.65243 617.0625 609.25 C 663.70041 682.78351 725.34027 746.92275 788.5625 806.34375 C 802.84524 820.74726 817.63875 834.48919 837.75 839.78125 C 852.92032 850.01519 867.29934 840.73065 881.03125 833.125 C 895.66238 826.48709 909.58294 817.08715 925 812.84375 C 936.00264 811.84336 946.99731 810.84414 958 809.84375 C 972.21957 799.32209 962.6267 777.65888 946.75 775.5625 C 915.69403 761.7349 882.70723 751.31887 854.96875 731.125 C 781.67355 690.3086 718.33552 637.88688 660.6875 577.3125 C 641.22097 559.36932 630.38905 534.30375 613.03125 514.84375 C 612.31384 514.35209 611.61517 513.89522 610.9375 513.46875 C 610.67821 509.69718 610.41848 505.92741 610.15625 502.15625 C 609.64032 494.36641 609.19142 486.57657 608.75 478.78125 C 612.48727 473.64697 616.21912 468.49949 619.96875 463.375 C 620.50494 461.23022 621.0263 459.08228 621.5625 456.9375 C 622.33239 456.54728 623.10626 456.1734 623.875 455.78125 C 676.07252 444.63532 731.43138 446.68985 785.03125 442.53125 C 804.30646 455.45655 846.29859 456.36113 830.875 422.8125 C 829.40727 392.52051 807.94767 373.98996 781.3125 373.65625 z "
         transform="matrix(0.21131656,0,0,0.21131656,113.27456,846.94101)"
         id="path5829" />
    </g>
    <path
       style="fill:#000000;stroke:#000000;stroke-width:4.73223686000000040px;stroke-linecap:butt;stroke-linejoin:miter;stroke-opacity:1;fill-opacity:1"
       d="m 594.62455,556.31042 0,0 z"
       id="path5837" />
  </g>
</svg>
