<?xml version="1.0" encoding="UTF-8" standalone="no"?>
<!-- Created with Inkscape (http://www.inkscape.org/) -->

<svg
   xmlns:dc="http://purl.org/dc/elements/1.1/"
   xmlns:cc="http://creativecommons.org/ns#"
   xmlns:rdf="http://www.w3.org/1999/02/22-rdf-syntax-ns#"
   xmlns:svg="http://www.w3.org/2000/svg"
   xmlns="http://www.w3.org/2000/svg"
   xmlns:sodipodi="http://sodipodi.sourceforge.net/DTD/sodipodi-0.dtd"
   xmlns:inkscape="http://www.inkscape.org/namespaces/inkscape"
   width="1000"
   height="1000"
   id="svg3173"
   version="1.1"
   inkscape:version="0.47 r22583"
   sodipodi:docname="653f.svg"
   inkscape:export-filename="E:\chinese\yan\653f.png"
   inkscape:export-xdpi="18.005705"
   inkscape:export-ydpi="18.005705">
  <title
     id="title9070">Zheng</title>
  <defs
     id="defs3175">
    <inkscape:perspective
       sodipodi:type="inkscape:persp3d"
       inkscape:vp_x="0 : 526.18109 : 1"
       inkscape:vp_y="0 : 1000 : 0"
       inkscape:vp_z="744.09448 : 526.18109 : 1"
       inkscape:persp3d-origin="372.04724 : 350.78739 : 1"
       id="perspective3181" />
    <inkscape:perspective
       id="perspective3191"
       inkscape:persp3d-origin="0.5 : 0.33333333 : 1"
       inkscape:vp_z="1 : 0.5 : 1"
       inkscape:vp_y="0 : 1000 : 0"
       inkscape:vp_x="0 : 0.5 : 1"
       sodipodi:type="inkscape:persp3d" />
    <inkscape:perspective
       id="perspective4006"
       inkscape:persp3d-origin="0.5 : 0.33333333 : 1"
       inkscape:vp_z="1 : 0.5 : 1"
       inkscape:vp_y="0 : 1000 : 0"
       inkscape:vp_x="0 : 0.5 : 1"
       sodipodi:type="inkscape:persp3d" />
    <inkscape:perspective
       id="perspective4034"
       inkscape:persp3d-origin="0.5 : 0.33333333 : 1"
       inkscape:vp_z="1 : 0.5 : 1"
       inkscape:vp_y="0 : 1000 : 0"
       inkscape:vp_x="0 : 0.5 : 1"
       sodipodi:type="inkscape:persp3d" />
    <inkscape:perspective
       id="perspective4081"
       inkscape:persp3d-origin="0.5 : 0.33333333 : 1"
       inkscape:vp_z="1 : 0.5 : 1"
       inkscape:vp_y="0 : 1000 : 0"
       inkscape:vp_x="0 : 0.5 : 1"
       sodipodi:type="inkscape:persp3d" />
    <inkscape:perspective
       id="perspective4147"
       inkscape:persp3d-origin="0.5 : 0.33333333 : 1"
       inkscape:vp_z="1 : 0.5 : 1"
       inkscape:vp_y="0 : 1000 : 0"
       inkscape:vp_x="0 : 0.5 : 1"
       sodipodi:type="inkscape:persp3d" />
    <inkscape:perspective
       id="perspective3801"
       inkscape:persp3d-origin="0.5 : 0.33333333 : 1"
       inkscape:vp_z="1 : 0.5 : 1"
       inkscape:vp_y="0 : 1000 : 0"
       inkscape:vp_x="0 : 0.5 : 1"
       sodipodi:type="inkscape:persp3d" />
    <inkscape:perspective
       id="perspective3122"
       inkscape:persp3d-origin="0.5 : 0.33333333 : 1"
       inkscape:vp_z="1 : 0.5 : 1"
       inkscape:vp_y="0 : 1000 : 0"
       inkscape:vp_x="0 : 0.5 : 1"
       sodipodi:type="inkscape:persp3d" />
    <inkscape:perspective
       id="perspective3854"
       inkscape:persp3d-origin="0.5 : 0.33333333 : 1"
       inkscape:vp_z="1 : 0.5 : 1"
       inkscape:vp_y="0 : 1000 : 0"
       inkscape:vp_x="0 : 0.5 : 1"
       sodipodi:type="inkscape:persp3d" />
    <inkscape:perspective
       id="perspective3922"
       inkscape:persp3d-origin="0.5 : 0.33333333 : 1"
       inkscape:vp_z="1 : 0.5 : 1"
       inkscape:vp_y="0 : 1000 : 0"
       inkscape:vp_x="0 : 0.5 : 1"
       sodipodi:type="inkscape:persp3d" />
    <inkscape:perspective
       id="perspective3945"
       inkscape:persp3d-origin="0.5 : 0.33333333 : 1"
       inkscape:vp_z="1 : 0.5 : 1"
       inkscape:vp_y="0 : 1000 : 0"
       inkscape:vp_x="0 : 0.5 : 1"
       sodipodi:type="inkscape:persp3d" />
    <inkscape:perspective
       id="perspective3972"
       inkscape:persp3d-origin="0.5 : 0.33333333 : 1"
       inkscape:vp_z="1 : 0.5 : 1"
       inkscape:vp_y="0 : 1000 : 0"
       inkscape:vp_x="0 : 0.5 : 1"
       sodipodi:type="inkscape:persp3d" />
    <inkscape:perspective
       id="perspective3995"
       inkscape:persp3d-origin="0.5 : 0.33333333 : 1"
       inkscape:vp_z="1 : 0.5 : 1"
       inkscape:vp_y="0 : 1000 : 0"
       inkscape:vp_x="0 : 0.5 : 1"
       sodipodi:type="inkscape:persp3d" />
    <inkscape:perspective
       id="perspective3802"
       inkscape:persp3d-origin="0.5 : 0.33333333 : 1"
       inkscape:vp_z="1 : 0.5 : 1"
       inkscape:vp_y="0 : 1000 : 0"
       inkscape:vp_x="0 : 0.5 : 1"
       sodipodi:type="inkscape:persp3d" />
    <inkscape:perspective
       id="perspective3833"
       inkscape:persp3d-origin="0.5 : 0.33333333 : 1"
       inkscape:vp_z="1 : 0.5 : 1"
       inkscape:vp_y="0 : 1000 : 0"
       inkscape:vp_x="0 : 0.5 : 1"
       sodipodi:type="inkscape:persp3d" />
    <inkscape:perspective
       id="perspective3913"
       inkscape:persp3d-origin="0.5 : 0.33333333 : 1"
       inkscape:vp_z="1 : 0.5 : 1"
       inkscape:vp_y="0 : 1000 : 0"
       inkscape:vp_x="0 : 0.5 : 1"
       sodipodi:type="inkscape:persp3d" />
    <inkscape:perspective
       id="perspective4500"
       inkscape:persp3d-origin="0.5 : 0.33333333 : 1"
       inkscape:vp_z="1 : 0.5 : 1"
       inkscape:vp_y="0 : 1000 : 0"
       inkscape:vp_x="0 : 0.5 : 1"
       sodipodi:type="inkscape:persp3d" />
    <inkscape:perspective
       id="perspective5117"
       inkscape:persp3d-origin="0.5 : 0.33333333 : 1"
       inkscape:vp_z="1 : 0.5 : 1"
       inkscape:vp_y="0 : 1000 : 0"
       inkscape:vp_x="0 : 0.5 : 1"
       sodipodi:type="inkscape:persp3d" />
    <inkscape:perspective
       id="perspective5212"
       inkscape:persp3d-origin="0.5 : 0.33333333 : 1"
       inkscape:vp_z="1 : 0.5 : 1"
       inkscape:vp_y="0 : 1000 : 0"
       inkscape:vp_x="0 : 0.5 : 1"
       sodipodi:type="inkscape:persp3d" />
    <inkscape:perspective
       id="perspective5834"
       inkscape:persp3d-origin="0.5 : 0.33333333 : 1"
       inkscape:vp_z="1 : 0.5 : 1"
       inkscape:vp_y="0 : 1000 : 0"
       inkscape:vp_x="0 : 0.5 : 1"
       sodipodi:type="inkscape:persp3d" />
    <inkscape:perspective
       id="perspective5906"
       inkscape:persp3d-origin="0.5 : 0.33333333 : 1"
       inkscape:vp_z="1 : 0.5 : 1"
       inkscape:vp_y="0 : 1000 : 0"
       inkscape:vp_x="0 : 0.5 : 1"
       sodipodi:type="inkscape:persp3d" />
    <inkscape:perspective
       id="perspective3787"
       inkscape:persp3d-origin="0.5 : 0.33333333 : 1"
       inkscape:vp_z="1 : 0.5 : 1"
       inkscape:vp_y="0 : 1000 : 0"
       inkscape:vp_x="0 : 0.5 : 1"
       sodipodi:type="inkscape:persp3d" />
    <inkscape:perspective
       id="perspective3839"
       inkscape:persp3d-origin="0.5 : 0.33333333 : 1"
       inkscape:vp_z="1 : 0.5 : 1"
       inkscape:vp_y="0 : 1000 : 0"
       inkscape:vp_x="0 : 0.5 : 1"
       sodipodi:type="inkscape:persp3d" />
    <inkscape:perspective
       id="perspective3913-3"
       inkscape:persp3d-origin="0.5 : 0.33333333 : 1"
       inkscape:vp_z="1 : 0.5 : 1"
       inkscape:vp_y="0 : 1000 : 0"
       inkscape:vp_x="0 : 0.5 : 1"
       sodipodi:type="inkscape:persp3d" />
    <inkscape:perspective
       id="perspective3969"
       inkscape:persp3d-origin="0.5 : 0.33333333 : 1"
       inkscape:vp_z="1 : 0.5 : 1"
       inkscape:vp_y="0 : 1000 : 0"
       inkscape:vp_x="0 : 0.5 : 1"
       sodipodi:type="inkscape:persp3d" />
    <inkscape:perspective
       id="perspective4021"
       inkscape:persp3d-origin="0.5 : 0.33333333 : 1"
       inkscape:vp_z="1 : 0.5 : 1"
       inkscape:vp_y="0 : 1000 : 0"
       inkscape:vp_x="0 : 0.5 : 1"
       sodipodi:type="inkscape:persp3d" />
    <inkscape:perspective
       id="perspective4062"
       inkscape:persp3d-origin="0.5 : 0.33333333 : 1"
       inkscape:vp_z="1 : 0.5 : 1"
       inkscape:vp_y="0 : 1000 : 0"
       inkscape:vp_x="0 : 0.5 : 1"
       sodipodi:type="inkscape:persp3d" />
  </defs>
  <sodipodi:namedview
     id="base"
     pagecolor="#ffffff"
     bordercolor="#666666"
     borderopacity="1.0"
     inkscape:pageopacity="0.0"
     inkscape:pageshadow="2"
     inkscape:zoom="0.49497475"
     inkscape:cx="483.07102"
     inkscape:cy="534.97897"
     inkscape:document-units="px"
     inkscape:current-layer="g4634"
     showgrid="false"
     inkscape:window-width="1440"
     inkscape:window-height="840"
     inkscape:window-x="-4"
     inkscape:window-y="-4"
     inkscape:window-maximized="1" />
  <metadata
     id="metadata3178">
    <rdf:RDF>
      <cc:Work
         rdf:about="">
        <dc:format>image/svg+xml</dc:format>
        <dc:type
           rdf:resource="http://purl.org/dc/dcmitype/StillImage" />
        <dc:title>Zheng</dc:title>
        <dc:date>2010-08-21</dc:date>
        <dc:creator>
          <cc:Agent>
            <dc:title>Alex Amies</dc:title>
          </cc:Agent>
        </dc:creator>
        <dc:rights>
          <cc:Agent>
            <dc:title>@ Alex Amies 2010</dc:title>
          </cc:Agent>
        </dc:rights>
        <dc:publisher>
          <cc:Agent>
            <dc:title>chinesenotes.com</dc:title>
          </cc:Agent>
        </dc:publisher>
        <dc:source>Yan Qin Ceremonial Inscription</dc:source>
        <dc:language>Chinese 中文</dc:language>
        <dc:description>Tracing from Tang Dynasty Ceremonial Inscription by Yan Zhenqing 颜真卿 (709－785)</dc:description>
        <cc:license
           rdf:resource="http://creativecommons.org/licenses/by/3.0/" />
      </cc:Work>
      <cc:License
         rdf:about="http://creativecommons.org/licenses/by/3.0/">
        <cc:permits
           rdf:resource="http://creativecommons.org/ns#Reproduction" />
        <cc:permits
           rdf:resource="http://creativecommons.org/ns#Distribution" />
        <cc:requires
           rdf:resource="http://creativecommons.org/ns#Notice" />
        <cc:requires
           rdf:resource="http://creativecommons.org/ns#Attribution" />
        <cc:permits
           rdf:resource="http://creativecommons.org/ns#DerivativeWorks" />
      </cc:License>
    </rdf:RDF>
  </metadata>
  <g
     inkscape:label="Layer 1"
     inkscape:groupmode="layer"
     id="layer1"
     transform="translate(0,-52.362183)">
    <g
       transform="matrix(4.7609464,0,0,4.7609464,-444.07486,-2879.5352)"
       id="g4634"
       style="fill:#000000;fill-opacity:1">
      <path
         style="fill:#000000;stroke:#000000;stroke-width:4.74180651000000000px;stroke-linecap:butt;stroke-linejoin:miter;stroke-opacity:1;fill-opacity:1"
         d="M 593.625 117.28125 C 592.59986 117.3562 591.81752 117.81908 591.40625 118.75 C 584.54192 134.2874 592.10182 171.75915 587.5625 198.09375 C 583.64205 267.63347 528.50847 320.40678 511.8125 384.625 C 511.74836 385.38217 511.99092 385.99085 512.4375 386.5 C 509.89103 387.53184 507.35022 388.55097 504.78125 389.53125 C 500.5273 391.81908 496.42647 394.56323 493.1875 398.1875 C 490.19201 414.08304 501.6561 427.27966 515.90625 432.46875 C 510.56672 433.51155 505.59101 436.53848 501.65625 442.21875 C 501.84621 502.29099 533.14273 555.53647 552.21875 610.875 C 567.56602 645.68308 585.41044 679.40544 605.53125 711.71875 C 589.57455 735.67761 570.36779 757.20548 548.53125 774.78125 C 517.01669 801.71883 486.15689 832.35826 445.0625 843.78125 C 428.56953 848.70873 401.5543 850.32857 401.625 873.25 C 402.09919 903.44026 436.60658 900.30746 452.34375 884.21875 C 489.40915 864.74062 527.43906 847.09651 564.71875 828.125 C 591.51345 805.90586 614.65368 781.25843 634.1875 754.59375 C 649.74939 776.39724 666.3378 797.43571 683.9375 817.59375 C 721.18781 854.27132 768.31826 879.19543 804.625 916.9375 C 826.49479 929.0185 851.78423 915.68083 875.21875 917.96875 C 898.07782 914.83362 921.28091 909.31679 941.46875 900.65625 C 959.40266 875.9627 932.59259 854.88686 911.0625 850.3125 C 831.92704 796.69397 744.35564 750.36342 676.0625 682.90625 C 699.9758 630.16482 712.69177 572.31029 714.53125 511.84375 C 716.17811 487.43062 718.55523 462.95885 724.15625 439.09375 C 712.58448 413.24129 681.88856 432.05018 665.90625 442.21875 C 648.45581 476.82597 662.10127 516.17872 657.34375 552.875 C 656.55008 582.87909 650.52521 613.47438 640.0625 642.8125 C 637.18325 639.15891 634.35797 635.43409 631.59375 631.65625 C 593.23085 580.05092 567.37721 519.71754 554.40625 456.875 C 550.84525 447.54859 542.09485 438.85227 532.28125 434.65625 C 538.10601 434.0619 543.71443 431.90562 548.34375 427.84375 C 620.58011 382.24569 708.61977 377.33518 787.8125 348.3125 C 829.69731 336.94574 873.30678 344.11365 916 343.1875 C 936.55762 340.41834 963.6056 325.04569 957.78125 300.6875 C 939.91827 257.71672 872.12329 242.17112 830.34375 257.3125 C 814.60187 270.88724 799.61156 291.15687 776.53125 289.9375 C 714.78758 302.15099 653.71386 319.55469 596.25 345.40625 C 594.4484 346.36256 592.64557 347.32371 590.84375 348.28125 C 608.35666 324.33508 616.30582 295.08157 627.59375 267.21875 C 635.26421 249.52141 650.73399 235.96506 657.6875 218.5 C 660.57949 211.23632 664.11738 201.72625 660.84375 194.96875 C 650.53511 173.68932 634.58993 151.61508 617.96875 133.6875 C 612.25663 127.52639 599.16074 116.87652 593.625 117.28125 z M 430.53125 170.21875 C 421.88795 170.19926 412.6528 171.2311 403.125 172.59375 C 385.46717 171.95883 375.67736 189.27598 360.0625 194.21875 C 341.87035 201.16868 322.60822 205.07828 305.09375 213.84375 C 250.39886 236.20844 192.94862 251.37629 139.25 276.25 C 129.24754 292.19093 140.71301 313.9331 156.53125 321.09375 C 169.52749 327.92975 184.69105 332.24858 199.125 327.28125 C 288.9074 300.84943 376.38528 267.55947 466.09375 240.6875 C 475.65973 230.47675 486.54181 218.10466 480.375 203.0625 C 470.84859 177.19274 452.61969 170.26857 430.53125 170.21875 z M 290.40625 311.875 C 281.17163 311.92188 271.75538 313.21437 262.875 313.5 C 246.99567 326.78052 250.11857 349.18545 252.5 367.34375 C 262.63696 466.24789 257.47154 565.41644 257.6875 664.375 C 260.75098 682.47645 251.32762 705.03679 264.125 719.78125 C 264.84989 720.29338 265.62827 720.77983 266.40625 721.25 C 236.91397 732.16924 207.1535 742.38457 177.46875 752.8125 C 178.89531 746.71283 178.88625 739.65688 180.03125 734.25 C 184.39242 668.5338 199.05817 598.24869 187.9375 532.53125 C 185.53336 513.76831 184.18965 492.12377 168.09375 479.375 C 139.434 460.78036 105.47233 461.36639 72.6875 458.84375 C 64.640977 458.4543 49.983236 458.65869 49.5 469.3125 C 67.97471 514.50626 103.14662 552.19874 113.1875 600.9375 C 124.59101 651.66419 122.02646 703.84034 125.65625 755.3125 C 128.12556 761.469 132.96277 764.95726 138.71875 766.6875 C 122.58852 772.60029 106.51708 778.71381 90.59375 785.1875 C 76.247257 792.05731 61.605212 798.99264 51.1875 811.375 C 49.493984 823.22952 42.433963 836.47813 46.09375 846.9375 C 51.529846 862.47309 63.097415 887.78291 86.15625 883.4375 C 188.33149 839.34152 285.37357 782.31621 393 749.09375 C 405.04405 745.23686 419.98109 744.38151 429.3125 735.84375 C 437.17444 719.71195 439.23257 694.52502 423.21875 682.84375 C 410.68956 669.87093 392.9534 661.57617 376.90625 674 C 357.67766 683.81157 338.1191 692.69312 318.3125 700.96875 C 324.21017 682.74838 322.2947 662.0925 328 643.6875 C 340.37308 596.41959 344.5874 547.73348 345.84375 498.75 C 351.65621 501.73623 358.57039 503.78681 364.46875 506.5625 C 392.38075 508.50649 420.74826 503.1185 446.0625 491.21875 C 464.57911 487.66827 473.31601 461.64587 460.78125 447.59375 C 433.84439 422.95447 388.69584 430.60426 354.6875 433.84375 C 351.32601 435.06174 348.63848 437.05692 346.25 439.4375 C 346.09146 414.45848 345.69697 389.53483 345.75 364.8125 C 344.7363 345.02525 334.24756 327.14235 316.8125 317.75 C 308.67666 313.01843 299.64087 311.82812 290.40625 311.875 z "
         transform="matrix(0.21004227,0,0,0.21004227,93.274493,615.82239)"
         id="path4419" />
    </g>
  </g>
</svg>
