<?xml version="1.0" encoding="UTF-8" standalone="no"?>
<!-- Created with Inkscape (http://www.inkscape.org/) -->

<svg
   xmlns:dc="http://purl.org/dc/elements/1.1/"
   xmlns:cc="http://creativecommons.org/ns#"
   xmlns:rdf="http://www.w3.org/1999/02/22-rdf-syntax-ns#"
   xmlns:svg="http://www.w3.org/2000/svg"
   xmlns="http://www.w3.org/2000/svg"
   xmlns:sodipodi="http://sodipodi.sourceforge.net/DTD/sodipodi-0.dtd"
   xmlns:inkscape="http://www.inkscape.org/namespaces/inkscape"
   width="1000"
   height="1000"
   id="svg3173"
   version="1.1"
   inkscape:version="0.47 r22583"
   sodipodi:docname="6566.svg"
   inkscape:export-filename="E:\chinese\yan\6566.png"
   inkscape:export-xdpi="17.961918"
   inkscape:export-ydpi="17.961918">
  <title
     id="title2878">Dun</title>
  <defs
     id="defs3175">
    <inkscape:perspective
       sodipodi:type="inkscape:persp3d"
       inkscape:vp_x="0 : 526.18109 : 1"
       inkscape:vp_y="0 : 1000 : 0"
       inkscape:vp_z="744.09448 : 526.18109 : 1"
       inkscape:persp3d-origin="372.04724 : 350.78739 : 1"
       id="perspective3181" />
    <inkscape:perspective
       id="perspective3191"
       inkscape:persp3d-origin="0.5 : 0.33333333 : 1"
       inkscape:vp_z="1 : 0.5 : 1"
       inkscape:vp_y="0 : 1000 : 0"
       inkscape:vp_x="0 : 0.5 : 1"
       sodipodi:type="inkscape:persp3d" />
    <inkscape:perspective
       id="perspective4006"
       inkscape:persp3d-origin="0.5 : 0.33333333 : 1"
       inkscape:vp_z="1 : 0.5 : 1"
       inkscape:vp_y="0 : 1000 : 0"
       inkscape:vp_x="0 : 0.5 : 1"
       sodipodi:type="inkscape:persp3d" />
    <inkscape:perspective
       id="perspective4034"
       inkscape:persp3d-origin="0.5 : 0.33333333 : 1"
       inkscape:vp_z="1 : 0.5 : 1"
       inkscape:vp_y="0 : 1000 : 0"
       inkscape:vp_x="0 : 0.5 : 1"
       sodipodi:type="inkscape:persp3d" />
    <inkscape:perspective
       id="perspective4081"
       inkscape:persp3d-origin="0.5 : 0.33333333 : 1"
       inkscape:vp_z="1 : 0.5 : 1"
       inkscape:vp_y="0 : 1000 : 0"
       inkscape:vp_x="0 : 0.5 : 1"
       sodipodi:type="inkscape:persp3d" />
    <inkscape:perspective
       id="perspective4147"
       inkscape:persp3d-origin="0.5 : 0.33333333 : 1"
       inkscape:vp_z="1 : 0.5 : 1"
       inkscape:vp_y="0 : 1000 : 0"
       inkscape:vp_x="0 : 0.5 : 1"
       sodipodi:type="inkscape:persp3d" />
    <inkscape:perspective
       id="perspective3858"
       inkscape:persp3d-origin="0.5 : 0.33333333 : 1"
       inkscape:vp_z="1 : 0.5 : 1"
       inkscape:vp_y="0 : 1000 : 0"
       inkscape:vp_x="0 : 0.5 : 1"
       sodipodi:type="inkscape:persp3d" />
    <inkscape:perspective
       id="perspective3876"
       inkscape:persp3d-origin="0.5 : 0.33333333 : 1"
       inkscape:vp_z="1 : 0.5 : 1"
       inkscape:vp_y="0 : 1000 : 0"
       inkscape:vp_x="0 : 0.5 : 1"
       sodipodi:type="inkscape:persp3d" />
    <inkscape:perspective
       id="perspective3901"
       inkscape:persp3d-origin="0.5 : 0.33333333 : 1"
       inkscape:vp_z="1 : 0.5 : 1"
       inkscape:vp_y="0 : 1000 : 0"
       inkscape:vp_x="0 : 0.5 : 1"
       sodipodi:type="inkscape:persp3d" />
    <inkscape:perspective
       id="perspective5282"
       inkscape:persp3d-origin="0.5 : 0.33333333 : 1"
       inkscape:vp_z="1 : 0.5 : 1"
       inkscape:vp_y="0 : 1000 : 0"
       inkscape:vp_x="0 : 0.5 : 1"
       sodipodi:type="inkscape:persp3d" />
    <inkscape:perspective
       id="perspective6657"
       inkscape:persp3d-origin="0.5 : 0.33333333 : 1"
       inkscape:vp_z="1 : 0.5 : 1"
       inkscape:vp_y="0 : 1000 : 0"
       inkscape:vp_x="0 : 0.5 : 1"
       sodipodi:type="inkscape:persp3d" />
    <inkscape:perspective
       id="perspective7221"
       inkscape:persp3d-origin="0.5 : 0.33333333 : 1"
       inkscape:vp_z="1 : 0.5 : 1"
       inkscape:vp_y="0 : 1000 : 0"
       inkscape:vp_x="0 : 0.5 : 1"
       sodipodi:type="inkscape:persp3d" />
    <inkscape:perspective
       id="perspective7762"
       inkscape:persp3d-origin="0.5 : 0.33333333 : 1"
       inkscape:vp_z="1 : 0.5 : 1"
       inkscape:vp_y="0 : 1000 : 0"
       inkscape:vp_x="0 : 0.5 : 1"
       sodipodi:type="inkscape:persp3d" />
    <inkscape:perspective
       id="perspective3824"
       inkscape:persp3d-origin="0.5 : 0.33333333 : 1"
       inkscape:vp_z="1 : 0.5 : 1"
       inkscape:vp_y="0 : 1000 : 0"
       inkscape:vp_x="0 : 0.5 : 1"
       sodipodi:type="inkscape:persp3d" />
    <inkscape:perspective
       id="perspective3037"
       inkscape:persp3d-origin="0.5 : 0.33333333 : 1"
       inkscape:vp_z="1 : 0.5 : 1"
       inkscape:vp_y="0 : 1000 : 0"
       inkscape:vp_x="0 : 0.5 : 1"
       sodipodi:type="inkscape:persp3d" />
    <inkscape:perspective
       id="perspective7183"
       inkscape:persp3d-origin="0.5 : 0.33333333 : 1"
       inkscape:vp_z="1 : 0.5 : 1"
       inkscape:vp_y="0 : 1000 : 0"
       inkscape:vp_x="0 : 0.5 : 1"
       sodipodi:type="inkscape:persp3d" />
    <inkscape:perspective
       id="perspective7211"
       inkscape:persp3d-origin="0.5 : 0.33333333 : 1"
       inkscape:vp_z="1 : 0.5 : 1"
       inkscape:vp_y="0 : 1000 : 0"
       inkscape:vp_x="0 : 0.5 : 1"
       sodipodi:type="inkscape:persp3d" />
    <inkscape:perspective
       id="perspective3723"
       inkscape:persp3d-origin="0.5 : 0.33333333 : 1"
       inkscape:vp_z="1 : 0.5 : 1"
       inkscape:vp_y="0 : 1000 : 0"
       inkscape:vp_x="0 : 0.5 : 1"
       sodipodi:type="inkscape:persp3d" />
    <inkscape:perspective
       id="perspective3759"
       inkscape:persp3d-origin="0.5 : 0.33333333 : 1"
       inkscape:vp_z="1 : 0.5 : 1"
       inkscape:vp_y="0 : 1000 : 0"
       inkscape:vp_x="0 : 0.5 : 1"
       sodipodi:type="inkscape:persp3d" />
    <inkscape:perspective
       id="perspective3801"
       inkscape:persp3d-origin="0.5 : 0.33333333 : 1"
       inkscape:vp_z="1 : 0.5 : 1"
       inkscape:vp_y="0 : 1000 : 0"
       inkscape:vp_x="0 : 0.5 : 1"
       sodipodi:type="inkscape:persp3d" />
  </defs>
  <sodipodi:namedview
     id="base"
     pagecolor="#ffffff"
     bordercolor="#666666"
     borderopacity="1.0"
     inkscape:pageopacity="0.0"
     inkscape:pageshadow="2"
     inkscape:zoom="0.49497475"
     inkscape:cx="186.55262"
     inkscape:cy="501.15052"
     inkscape:document-units="px"
     inkscape:current-layer="g3804"
     showgrid="false"
     inkscape:window-width="1440"
     inkscape:window-height="840"
     inkscape:window-x="-4"
     inkscape:window-y="-4"
     inkscape:window-maximized="1" />
  <metadata
     id="metadata3178">
    <rdf:RDF>
      <cc:Work
         rdf:about="">
        <dc:format>image/svg+xml</dc:format>
        <dc:type
           rdf:resource="http://purl.org/dc/dcmitype/StillImage" />
        <dc:title>Dun</dc:title>
        <dc:date>2010-08-02</dc:date>
        <dc:creator>
          <cc:Agent>
            <dc:title>Alex Amies</dc:title>
          </cc:Agent>
        </dc:creator>
        <dc:rights>
          <cc:Agent>
            <dc:title>Copyright Alex Amies 2010</dc:title>
          </cc:Agent>
        </dc:rights>
        <dc:publisher>
          <cc:Agent>
            <dc:title>chinesenotes.com</dc:title>
          </cc:Agent>
        </dc:publisher>
        <dc:source>Yan Qin Ceremonial Inscription</dc:source>
        <dc:language>Chinese 中文</dc:language>
        <dc:description>Tracing from Tang Dynasty Ceremonial Inscription by Yan Zhenqing 颜真卿 (709－785)</dc:description>
        <cc:license
           rdf:resource="http://creativecommons.org/licenses/by/3.0/" />
      </cc:Work>
      <cc:License
         rdf:about="http://creativecommons.org/licenses/by/3.0/">
        <cc:permits
           rdf:resource="http://creativecommons.org/ns#Reproduction" />
        <cc:permits
           rdf:resource="http://creativecommons.org/ns#Distribution" />
        <cc:requires
           rdf:resource="http://creativecommons.org/ns#Notice" />
        <cc:requires
           rdf:resource="http://creativecommons.org/ns#Attribution" />
        <cc:permits
           rdf:resource="http://creativecommons.org/ns#DerivativeWorks" />
      </cc:License>
    </rdf:RDF>
  </metadata>
  <g
     inkscape:label="Layer 1"
     inkscape:groupmode="layer"
     id="layer1"
     transform="translate(0,-52.362183)">
    <g
       transform="matrix(4.7418067,0,0,4.7418067,-575.38835,-3945.1359)"
       id="g3804"
       style="fill:none;fill-opacity:1">
      <path
         style="fill:#000000;stroke:#000000;stroke-width:4.75137663000000020px;stroke-linecap:butt;stroke-linejoin:miter;stroke-opacity:1;fill-opacity:1"
         d="M 284.9375 2 C 275.04789 6.3354813 265.59456 13.036179 260.65625 22.90625 C 252.29379 25.892687 246.8244 38.661104 254.75 44.96875 C 267.54562 56.530982 286.90641 60.009989 296.1875 75.53125 C 307.30893 95.542767 314.01861 110.34266 321.59375 119.84375 C 306.90162 124.44958 292.19081 128.95187 277.4375 133.3125 C 244.68646 131.93102 162.96853 167.13937 136.59375 145.40625 C 128.47952 139.49853 120.40092 134.50094 110.15625 134.34375 C 92.442188 140.75429 100.9183 165.00754 110.03125 175.84375 C 122.34885 193.93758 137.1168 225.57033 163.03125 222.65625 C 212.95437 221.1513 256.77277 189.02115 301.5625 169.28125 C 354.41141 157.50194 406.99994 144.70703 459.3125 130.75 C 475.82432 126.75982 498.08569 132.1312 508.9375 119.0625 C 519.32979 106.54717 527.04766 79.145822 511.1875 70.3125 C 492.68056 55.218191 470.51089 75.993437 450.375 78.5625 C 432.66125 84.13993 414.96073 89.841728 397.28125 95.5625 C 386.00326 65.215967 365.95907 48.264048 340.21875 30.4375 C 322.86872 19.051901 304.70443 8.5913484 284.9375 2 z M 656.34375 125.875 C 648.12032 125.82488 639.2561 127.91603 631.125 127.5625 C 622.69198 135.05441 611.94259 140.76423 607.375 151.6875 C 595.43527 172.92966 582.39463 193.61343 571.5 215.40625 C 560.72045 241.28954 551.12003 267.73571 539.46875 293.21875 C 534.38387 301.3546 529.30363 309.48925 524.21875 317.625 C 526.4813 322.15011 526.5803 328.72541 531 331.1875 C 536.45801 334.2279 545.70689 334.3411 549.65625 329.5 C 594.2593 274.82536 611.64827 232.96112 646.125 194.40625 C 654.63616 184.88835 669.73454 184.00293 679.59375 175.78125 C 697.14901 163.09734 683.94229 141.55617 670.125 129.25 C 665.95565 126.70779 661.27781 125.90507 656.34375 125.875 z M 416.03125 153.5 C 412.39633 153.4675 408.77013 153.94321 405.40625 154.71875 C 396.79655 156.70367 391.85016 166.03109 385.0625 171.6875 C 380.16407 200.46292 381.9371 230.24295 389.46875 258.40625 C 393.97325 319.61047 386.20376 380.77438 387.96875 442.28125 C 385.5753 443.12922 383.17416 443.96417 380.78125 444.78125 C 374.78173 455.58038 368.78073 466.38841 362.78125 477.1875 C 317.47722 493.09925 272.59831 510.51926 227.03125 525.46875 C 194.13715 525.03867 167.76037 534.09466 139.59375 549.1875 C 131.30071 560.47224 131.63174 574.203 138.625 586.03125 C 142.14167 600.91137 157.08648 607.5707 169.6875 613.375 C 183.40853 608.53347 197.31162 601.39079 209.6875 593.375 C 226.99149 577.75089 243.97514 561.75007 261.53125 546.40625 C 291.27015 530.90334 321.26825 515.93418 350.78125 500 C 345.71459 516.76242 340.30717 533.65007 338.3125 551.09375 C 333.61672 547.58786 328.92025 544.14766 324.375 540.78125 C 317.97603 541.18051 311.58339 541.60449 305.1875 542 C 284.61143 554.71667 311.79318 575.34961 322.3125 585.78125 C 333.07341 599.87271 355.47737 609.641 352.375 629.8125 C 352.38089 629.89633 352.40042 629.97867 352.40625 630.0625 C 273.09148 666.29476 193.59538 702.15546 115.59375 741.15625 C 97.22162 734.48642 82.100994 734.64493 64 739.96875 C 60.800229 747.96832 57.606021 755.96932 54.40625 763.96875 C 62.677099 790.96433 81.037847 812.29772 100 832.375 C 117.26639 833.20956 135.76983 829.87329 148.875 817.8125 C 220.03502 770.46887 287.15478 717.31686 353.15625 662.96875 C 351.82384 726.62151 335.07356 789.84365 318.25 851 C 305.21966 881.62354 277.96547 920.65466 241.09375 897.21875 C 234.61801 890.92637 228.88719 881.34016 225.0625 878.625 C 214.73565 871.29322 221.32487 903.25834 225.0625 914.03125 C 237.66262 940.35207 245.11754 971.0315 268.65625 990.21875 C 286.3466 1008.2642 299.50018 976.81724 311.21875 966.8125 C 349.07378 925.67496 369.15951 874.71863 388.65625 823.5 C 414.11681 759.28029 412.76564 693.3188 397.6875 626.8125 C 397.64722 626.59225 397.60457 626.37556 397.5625 626.15625 C 400.92804 623.35323 404.29283 620.55345 407.65625 617.75 C 410.89011 613.75455 423.59778 608.89408 412.625 606.375 C 405.91882 604.54634 399.47921 607.59611 393.0625 611.15625 C 384.54028 590.43315 367.83607 574.24402 349.875 559.96875 C 360.33082 555.83938 367.09435 541.67508 376.25 534.8125 C 386.30514 522.15254 401.60352 515.66616 416.59375 510.75 C 444.44793 503.11275 497.87037 499.5539 491.1875 472.40625 C 486.44522 453.14162 461.09987 431.86066 432.46875 428.4375 C 428.18463 429.31338 423.94406 430.38798 419.71875 431.59375 C 443.61188 381.22929 449.99076 324.07803 455.84375 269.15625 C 461.09435 232.35514 443.72941 198.24891 437.59375 162.625 C 432.09167 156.00771 424.02808 153.5715 416.03125 153.5 z M 252.6875 209 C 239.82525 218.21769 223.87465 224.40428 215.5625 238.71875 C 201.72847 256.61983 209.11946 286.65732 215.3125 307.09375 C 232.43009 345.90027 228.18367 387.01326 230.40625 428.25 C 226.88622 445.39111 220.82133 473.26105 240.84375 480.25 L 252.6875 482.21875 C 263.61273 456.2804 269.9958 429.21324 273.5625 401.625 C 278.08765 402.50828 283.36042 402.46875 290.03125 402.46875 C 306.74119 394.69608 324.05403 388.08608 340.28125 379.34375 C 352.01476 370.20074 354.5 363.89377 354.5 349.84375 C 338.03493 333.08796 303.93139 353.88274 283.25 360.03125 C 280.91018 361.00021 278.8137 362.11034 276.875 363.28125 C 278.17318 335.76844 277.46983 307.99918 276.40625 280.5 C 292.32914 268.83656 307.07243 256.96647 326.09375 250.71875 C 341.05823 248.07396 346.56112 241.28329 354.5 229.375 C 352.8031 226.5468 352.73234 220.72582 349.4375 220.875 C 326.22786 221.92568 299.82202 233.98811 274.96875 245.25 C 274.9559 244.9291 274.95025 244.602 274.9375 244.28125 C 275.03234 225.55827 267.25291 217.73924 252.6875 209 z M 870.375 214.09375 C 842.40498 215.48054 814.35617 236.52156 786.53125 248.09375 C 733.40533 271.96216 678.25513 290.93239 624.84375 314.0625 C 609.40267 322.0321 593.94103 329.9991 578.5 337.96875 C 578.60195 347.8594 576.25873 359.77068 585.25 366.75 C 599.77719 385.13379 636.00826 375.47214 656 369.90625 C 667.51439 367.07291 679.03476 364.17317 690.53125 361.25 C 683.61901 366.42909 681.06066 376.8951 686.03125 387.6875 C 687.98995 413.02449 674.81781 436.69541 669.9375 461.25 C 662.49242 487.48134 654.81654 513.62804 647 539.75 C 601.43494 482.49461 568.86177 420.78049 531.65625 350.59375 C 524.64928 344.12578 517.63197 337.65542 510.625 331.1875 C 504.40299 332.3188 498.19081 333.46245 491.96875 334.59375 C 467.04752 355.13772 501.2091 374.51186 505.59375 395.5 C 537.08172 472.80117 568.41829 550.30788 605.0625 625.3125 C 608.33404 631.56659 611.76714 637.69781 615.34375 643.71875 C 613.81096 648.70936 612.28251 653.69689 610.75 658.6875 C 574.53673 704.07427 542.77678 760.42285 486 782.34375 C 463.59022 790.53001 441.46186 800.32589 418.28125 805.71875 C 409.86137 810.9978 409.62579 819.41733 415.34375 828 C 421.23597 836.84442 431.46166 839.84184 438.875 836.625 C 519.75121 824.92175 579.58803 774.22821 631.59375 715.28125 C 635.71477 705.68914 639.91687 696.14211 644.15625 686.59375 C 676.11565 729.53449 713.47848 768.3604 746.90625 810.34375 C 757.47939 834.17749 779.85215 825.13423 796.84375 831.75 C 840.21957 825.25799 875.63843 793.59229 919.5 784.90625 C 935.74837 785.82758 976.01443 801.34989 968.46875 772 C 877.35996 731.08357 797.58139 671.18546 716.6875 613.53125 C 706.43882 604.37608 696.82872 595.14197 687.6875 585.8125 C 695.36292 566.35893 702.44529 546.67363 708.5 526.59375 C 720.84729 492.85926 730.02804 456.82318 751.125 427.25 C 769.57177 411.93904 750.29011 386.99483 738.125 372.15625 L 710.875 360.03125 C 708.20976 358.89963 705.65278 358.24849 703.25 358 C 744.48342 347.457 785.67049 336.72478 827.15625 327.40625 L 861.90625 324.40625 C 885.67622 304.06452 896.86749 265.18911 892.4375 234.46875 C 889.26333 224.97831 880.36992 213.59818 870.375 214.09375 z "
         transform="matrix(0.21089008,0,0,0.21089008,121.3437,843.0327)"
         id="path4326" />
    </g>
  </g>
</svg>
