<?xml version="1.0" encoding="UTF-8" standalone="no"?>
<!-- Created with Inkscape (http://www.inkscape.org/) -->

<svg
   xmlns:dc="http://purl.org/dc/elements/1.1/"
   xmlns:cc="http://creativecommons.org/ns#"
   xmlns:rdf="http://www.w3.org/1999/02/22-rdf-syntax-ns#"
   xmlns:svg="http://www.w3.org/2000/svg"
   xmlns="http://www.w3.org/2000/svg"
   xmlns:sodipodi="http://sodipodi.sourceforge.net/DTD/sodipodi-0.dtd"
   xmlns:inkscape="http://www.inkscape.org/namespaces/inkscape"
   width="1000"
   height="1000"
   id="svg3173"
   version="1.1"
   inkscape:version="0.47 r22583"
   sodipodi:docname="65e9.svg"
   inkscape:export-filename="E:\chinese\images\yan_zao_long_horizontal.png"
   inkscape:export-xdpi="18.005705"
   inkscape:export-ydpi="18.005705">
  <title
     id="title3667">Zao</title>
  <defs
     id="defs3175">
    <inkscape:perspective
       sodipodi:type="inkscape:persp3d"
       inkscape:vp_x="0 : 526.18109 : 1"
       inkscape:vp_y="0 : 1000 : 0"
       inkscape:vp_z="744.09448 : 526.18109 : 1"
       inkscape:persp3d-origin="372.04724 : 350.78739 : 1"
       id="perspective3181" />
    <inkscape:perspective
       id="perspective3191"
       inkscape:persp3d-origin="0.5 : 0.33333333 : 1"
       inkscape:vp_z="1 : 0.5 : 1"
       inkscape:vp_y="0 : 1000 : 0"
       inkscape:vp_x="0 : 0.5 : 1"
       sodipodi:type="inkscape:persp3d" />
    <inkscape:perspective
       id="perspective4006"
       inkscape:persp3d-origin="0.5 : 0.33333333 : 1"
       inkscape:vp_z="1 : 0.5 : 1"
       inkscape:vp_y="0 : 1000 : 0"
       inkscape:vp_x="0 : 0.5 : 1"
       sodipodi:type="inkscape:persp3d" />
    <inkscape:perspective
       id="perspective4034"
       inkscape:persp3d-origin="0.5 : 0.33333333 : 1"
       inkscape:vp_z="1 : 0.5 : 1"
       inkscape:vp_y="0 : 1000 : 0"
       inkscape:vp_x="0 : 0.5 : 1"
       sodipodi:type="inkscape:persp3d" />
    <inkscape:perspective
       id="perspective4081"
       inkscape:persp3d-origin="0.5 : 0.33333333 : 1"
       inkscape:vp_z="1 : 0.5 : 1"
       inkscape:vp_y="0 : 1000 : 0"
       inkscape:vp_x="0 : 0.5 : 1"
       sodipodi:type="inkscape:persp3d" />
    <inkscape:perspective
       id="perspective4147"
       inkscape:persp3d-origin="0.5 : 0.33333333 : 1"
       inkscape:vp_z="1 : 0.5 : 1"
       inkscape:vp_y="0 : 1000 : 0"
       inkscape:vp_x="0 : 0.5 : 1"
       sodipodi:type="inkscape:persp3d" />
    <inkscape:perspective
       id="perspective3858"
       inkscape:persp3d-origin="0.5 : 0.33333333 : 1"
       inkscape:vp_z="1 : 0.5 : 1"
       inkscape:vp_y="0 : 1000 : 0"
       inkscape:vp_x="0 : 0.5 : 1"
       sodipodi:type="inkscape:persp3d" />
    <inkscape:perspective
       id="perspective3876"
       inkscape:persp3d-origin="0.5 : 0.33333333 : 1"
       inkscape:vp_z="1 : 0.5 : 1"
       inkscape:vp_y="0 : 1000 : 0"
       inkscape:vp_x="0 : 0.5 : 1"
       sodipodi:type="inkscape:persp3d" />
    <inkscape:perspective
       id="perspective4372"
       inkscape:persp3d-origin="0.5 : 0.33333333 : 1"
       inkscape:vp_z="1 : 0.5 : 1"
       inkscape:vp_y="0 : 1000 : 0"
       inkscape:vp_x="0 : 0.5 : 1"
       sodipodi:type="inkscape:persp3d" />
    <inkscape:perspective
       id="perspective5340"
       inkscape:persp3d-origin="0.5 : 0.33333333 : 1"
       inkscape:vp_z="1 : 0.5 : 1"
       inkscape:vp_y="0 : 1000 : 0"
       inkscape:vp_x="0 : 0.5 : 1"
       sodipodi:type="inkscape:persp3d" />
  </defs>
  <sodipodi:namedview
     id="base"
     pagecolor="#ffffff"
     bordercolor="#666666"
     borderopacity="1.0"
     inkscape:pageopacity="0.0"
     inkscape:pageshadow="2"
     inkscape:zoom="0.49497475"
     inkscape:cx="165.11595"
     inkscape:cy="538.32632"
     inkscape:document-units="px"
     inkscape:current-layer="layer1"
     showgrid="false"
     inkscape:window-width="1440"
     inkscape:window-height="840"
     inkscape:window-x="-4"
     inkscape:window-y="-4"
     inkscape:window-maximized="1" />
  <metadata
     id="metadata3178">
    <rdf:RDF>
      <cc:Work
         rdf:about="">
        <dc:format>image/svg+xml</dc:format>
        <dc:type
           rdf:resource="http://purl.org/dc/dcmitype/StillImage" />
        <dc:title>Zao</dc:title>
        <dc:date>2010-07-13</dc:date>
        <dc:creator>
          <cc:Agent>
            <dc:title>Alex Amies</dc:title>
          </cc:Agent>
        </dc:creator>
        <dc:rights>
          <cc:Agent>
            <dc:title>@ Alex Amies 2010</dc:title>
          </cc:Agent>
        </dc:rights>
        <dc:publisher>
          <cc:Agent>
            <dc:title>chinesenotes.com</dc:title>
          </cc:Agent>
        </dc:publisher>
        <dc:source>Yan Qin Ceremonial Inscription</dc:source>
        <dc:language>Chinese 中文</dc:language>
        <dc:description>Tracing from Tang Dynasty Ceremonial Inscription by Yan Zhenqing 颜真卿 (709－785)</dc:description>
        <cc:license
           rdf:resource="http://creativecommons.org/licenses/by/3.0/" />
      </cc:Work>
      <cc:License
         rdf:about="http://creativecommons.org/licenses/by/3.0/">
        <cc:permits
           rdf:resource="http://creativecommons.org/ns#Reproduction" />
        <cc:permits
           rdf:resource="http://creativecommons.org/ns#Distribution" />
        <cc:requires
           rdf:resource="http://creativecommons.org/ns#Notice" />
        <cc:requires
           rdf:resource="http://creativecommons.org/ns#Attribution" />
        <cc:permits
           rdf:resource="http://creativecommons.org/ns#DerivativeWorks" />
      </cc:License>
    </rdf:RDF>
  </metadata>
  <g
     inkscape:label="Layer 1"
     inkscape:groupmode="layer"
     id="layer1"
     transform="translate(0,-52.362183)">
    <path
       style="fill:#000000;stroke:#000000;stroke-width:4.73532724000000020px;stroke-linecap:butt;stroke-linejoin:miter;stroke-opacity:1;fill-opacity:1"
       d="M 622.03125 35.03125 C 616.00672 35.482953 617.92085 59.827787 609.71875 63 C 572.61504 84.58902 525.89944 94.79055 483.65625 104.46875 C 468.09876 105.30378 452.43654 104.96502 437.03125 107.625 C 417.12151 128.38372 425.90667 151.81028 448 168.5625 C 467.60714 182.1169 493.49245 160.48431 515.65625 157.84375 C 538.49843 142.92628 563.7142 130.93458 582.5 110.65625 C 592.43723 102.3529 607.0285 96.87195 610.375 114.40625 C 615.07657 131.9217 607.35907 150.99007 607.0625 169.15625 C 605.49505 221.72593 580.70349 273.84618 576.1875 326.40625 C 566.73721 320.82865 555.32572 318.03514 544.71875 322.15625 C 505.40211 336.4455 455.93476 345.26724 409.03125 357.46875 C 412.43066 342.97548 407.72957 321.13712 404.6875 311.15625 C 394.53538 276.37465 384.56223 241.55072 374.15625 206.84375 C 358.42209 172.01622 335.53132 142.25782 311.875 112.6875 C 287.87603 108.966 273.77348 107.10068 256.0625 122.84375 C 252.21382 152.32036 275.58753 175.55385 287 201.1875 C 314.07954 254.20763 341.47066 295.44618 363.25 344.5 C 367.88289 351.6044 372.54777 360.23601 379.21875 365.875 C 354.50577 373.567 331.39505 382.85021 311.9375 395.15625 C 294.7155 402.60701 290.09672 414.35674 283.125 430.625 C 300.84364 451.3592 320.50953 450.70148 345.125 440.28125 C 384.34991 422.49673 422.35686 410.52836 460.40625 397.8125 C 451.5994 412.19927 446.77938 430.87632 451.125 443.96875 C 451.41589 487.63469 452.81898 491.77157 454.15625 512.09375 C 390.48719 524.21298 326.38242 534.21467 262.71875 546 C 211.91138 559.24239 160.75831 572.43945 112.3125 592.96875 C 99.215962 623.77788 135.29256 644.74838 158.71875 655.09375 L 186.71875 664 C 225.15611 642.15901 256.69599 612.08142 299.6875 595 C 350.35092 575.33603 401.75054 554.89488 455.625 546.875 C 455.65362 547.98163 455.69097 548.93211 455.71875 550.09375 C 466.65432 641.38324 449.75929 740.6281 489.0625 924.375 C 546.51495 740.81359 539.30451 650.51897 551.3125 540.21875 C 551.22384 539.4842 551.16385 538.73546 551.09375 538 C 615.05162 532.08613 679.0481 526.40561 743.125 521.9375 C 779.48587 526.65128 795.95724 575.20981 834.84375 570.40625 C 856.44021 558.12589 886.74674 531.33754 874.0625 503.71875 C 857.17633 471.80624 818.45588 461.25858 785.5625 454.625 C 760.10576 446.06277 737.83133 463.2559 712.6875 464.84375 C 659.38493 471.973 606.66774 482.61001 553.90625 493.0625 C 556.10464 476.38575 557.93239 459.76808 553.875 443.59375 C 548.61614 406.89949 532.89648 392.30297 505.75 381.9375 C 522.2206 375.77057 538.7866 368.98884 555.5625 361.0625 C 565.13928 358.39132 571.67441 355.1822 575.65625 350.46875 C 575.91416 355.5268 576.42607 360.58725 577.21875 365.65625 C 578.66539 399.0567 610.00537 407.03031 633.1875 406.9375 C 647.28059 406.8811 662.5924 394.96968 667.03125 381.59375 C 689.41211 314.15152 709.81215 249.0074 723.625 181 L 729.59375 121.125 C 713.56808 85.0042 687.20171 70.96323 652.5 58.125 C 642.19985 53.84317 635.15193 44.220611 626.3125 37.53125 C 624.53636 35.689267 623.1469 34.947601 622.03125 35.03125 z M 520.21875 205.75 C 490.26647 210.56526 455.44364 208.71414 420.5625 215.40625 C 419.76166 216.02397 419.0298 216.73505 418.40625 217.53125 C 413.38349 233.51667 431.34187 239.90096 443.84375 250.96875 C 469.69874 268.9289 494.38845 279.16113 524.84375 265.53125 C 543.99649 248.07868 550.66728 215.65697 520.21875 205.75 z "
       transform="translate(0,52.362183)"
       id="path4407" />
  </g>
</svg>
