<?xml version="1.0" encoding="UTF-8" standalone="no"?>
<!-- Created with Inkscape (http://www.inkscape.org/) -->

<svg
   xmlns:dc="http://purl.org/dc/elements/1.1/"
   xmlns:cc="http://creativecommons.org/ns#"
   xmlns:rdf="http://www.w3.org/1999/02/22-rdf-syntax-ns#"
   xmlns:svg="http://www.w3.org/2000/svg"
   xmlns="http://www.w3.org/2000/svg"
   xmlns:sodipodi="http://sodipodi.sourceforge.net/DTD/sodipodi-0.dtd"
   xmlns:inkscape="http://www.inkscape.org/namespaces/inkscape"
   width="1000"
   height="1000"
   id="svg3173"
   version="1.1"
   inkscape:version="0.47 r22583"
   sodipodi:docname="660c.svg"
   inkscape:export-filename="E:\chinese\images\yan_chang_left_pointed.png"
   inkscape:export-xdpi="17.903368"
   inkscape:export-ydpi="17.903368">
  <title
     id="title4408">Chang</title>
  <defs
     id="defs3175">
    <inkscape:perspective
       sodipodi:type="inkscape:persp3d"
       inkscape:vp_x="0 : 526.18109 : 1"
       inkscape:vp_y="0 : 1000 : 0"
       inkscape:vp_z="744.09448 : 526.18109 : 1"
       inkscape:persp3d-origin="372.04724 : 350.78739 : 1"
       id="perspective3181" />
    <inkscape:perspective
       id="perspective3191"
       inkscape:persp3d-origin="0.5 : 0.33333333 : 1"
       inkscape:vp_z="1 : 0.5 : 1"
       inkscape:vp_y="0 : 1000 : 0"
       inkscape:vp_x="0 : 0.5 : 1"
       sodipodi:type="inkscape:persp3d" />
    <inkscape:perspective
       id="perspective4006"
       inkscape:persp3d-origin="0.5 : 0.33333333 : 1"
       inkscape:vp_z="1 : 0.5 : 1"
       inkscape:vp_y="0 : 1000 : 0"
       inkscape:vp_x="0 : 0.5 : 1"
       sodipodi:type="inkscape:persp3d" />
    <inkscape:perspective
       id="perspective4034"
       inkscape:persp3d-origin="0.5 : 0.33333333 : 1"
       inkscape:vp_z="1 : 0.5 : 1"
       inkscape:vp_y="0 : 1000 : 0"
       inkscape:vp_x="0 : 0.5 : 1"
       sodipodi:type="inkscape:persp3d" />
    <inkscape:perspective
       id="perspective4081"
       inkscape:persp3d-origin="0.5 : 0.33333333 : 1"
       inkscape:vp_z="1 : 0.5 : 1"
       inkscape:vp_y="0 : 1000 : 0"
       inkscape:vp_x="0 : 0.5 : 1"
       sodipodi:type="inkscape:persp3d" />
    <inkscape:perspective
       id="perspective4147"
       inkscape:persp3d-origin="0.5 : 0.33333333 : 1"
       inkscape:vp_z="1 : 0.5 : 1"
       inkscape:vp_y="0 : 1000 : 0"
       inkscape:vp_x="0 : 0.5 : 1"
       sodipodi:type="inkscape:persp3d" />
    <inkscape:perspective
       id="perspective3858"
       inkscape:persp3d-origin="0.5 : 0.33333333 : 1"
       inkscape:vp_z="1 : 0.5 : 1"
       inkscape:vp_y="0 : 1000 : 0"
       inkscape:vp_x="0 : 0.5 : 1"
       sodipodi:type="inkscape:persp3d" />
    <inkscape:perspective
       id="perspective3876"
       inkscape:persp3d-origin="0.5 : 0.33333333 : 1"
       inkscape:vp_z="1 : 0.5 : 1"
       inkscape:vp_y="0 : 1000 : 0"
       inkscape:vp_x="0 : 0.5 : 1"
       sodipodi:type="inkscape:persp3d" />
    <inkscape:perspective
       id="perspective3901"
       inkscape:persp3d-origin="0.5 : 0.33333333 : 1"
       inkscape:vp_z="1 : 0.5 : 1"
       inkscape:vp_y="0 : 1000 : 0"
       inkscape:vp_x="0 : 0.5 : 1"
       sodipodi:type="inkscape:persp3d" />
    <inkscape:perspective
       id="perspective5282"
       inkscape:persp3d-origin="0.5 : 0.33333333 : 1"
       inkscape:vp_z="1 : 0.5 : 1"
       inkscape:vp_y="0 : 1000 : 0"
       inkscape:vp_x="0 : 0.5 : 1"
       sodipodi:type="inkscape:persp3d" />
  </defs>
  <sodipodi:namedview
     id="base"
     pagecolor="#ffffff"
     bordercolor="#666666"
     borderopacity="1.0"
     inkscape:pageopacity="0.0"
     inkscape:pageshadow="2"
     inkscape:zoom="0.49497475"
     inkscape:cx="834.0604"
     inkscape:cy="501.96083"
     inkscape:document-units="px"
     inkscape:current-layer="layer1"
     showgrid="false"
     inkscape:window-width="1440"
     inkscape:window-height="840"
     inkscape:window-x="-4"
     inkscape:window-y="-4"
     inkscape:window-maximized="1" />
  <metadata
     id="metadata3178">
    <rdf:RDF>
      <cc:Work
         rdf:about="">
        <dc:format>image/svg+xml</dc:format>
        <dc:type
           rdf:resource="http://purl.org/dc/dcmitype/StillImage" />
        <dc:title>Chang</dc:title>
        <dc:date>2010-07-13</dc:date>
        <dc:creator>
          <cc:Agent>
            <dc:title>Alex Amies</dc:title>
          </cc:Agent>
        </dc:creator>
        <dc:rights>
          <cc:Agent>
            <dc:title>@ Alex Amies 2010</dc:title>
          </cc:Agent>
        </dc:rights>
        <dc:publisher>
          <cc:Agent>
            <dc:title>chinesenotes.com</dc:title>
          </cc:Agent>
        </dc:publisher>
        <dc:source>Yan Qin Ceremonial Inscription</dc:source>
        <dc:language>Chinese 中文</dc:language>
        <dc:description>Tracing from Tang Dynasty Ceremonial Inscription by Yan Zhenqing 颜真卿 (709－785)</dc:description>
        <cc:license
           rdf:resource="http://creativecommons.org/licenses/by/3.0/" />
      </cc:Work>
      <cc:License
         rdf:about="http://creativecommons.org/licenses/by/3.0/">
        <cc:permits
           rdf:resource="http://creativecommons.org/ns#Reproduction" />
        <cc:permits
           rdf:resource="http://creativecommons.org/ns#Distribution" />
        <cc:requires
           rdf:resource="http://creativecommons.org/ns#Notice" />
        <cc:requires
           rdf:resource="http://creativecommons.org/ns#Attribution" />
        <cc:permits
           rdf:resource="http://creativecommons.org/ns#DerivativeWorks" />
      </cc:License>
    </rdf:RDF>
  </metadata>
  <g
     inkscape:label="Layer 1"
     inkscape:groupmode="layer"
     id="layer1"
     transform="translate(0,-52.362183)">
    <path
       style="fill:#000000;stroke:#000000;stroke-width:4.76239491000000030px;stroke-linecap:butt;stroke-linejoin:miter;stroke-opacity:1;fill-opacity:1"
       d="m 217.00683,166.67314 0,0 z"
       id="path3846" />
    <path
       style="fill:#000000;stroke:#000000;stroke-width:4.76239491000000030px;stroke-linecap:butt;stroke-linejoin:miter;stroke-opacity:1;fill-opacity:1"
       d="M 219.875 121.0625 C 213.1392 121.29116 211.36886 125.60103 215.96875 131.84375 C 233.83506 170.99135 247.7276 211.93278 261.5625 252.65625 C 268.25681 298.9584 276.64944 338.4478 283.34375 384.75 C 290.50858 405.85941 304.19229 422.95124 309.9375 441.53125 C 318.71298 463.20257 335.47407 462.76641 354.78125 461.28125 C 358.7499 453.91088 362.71885 446.55788 366.6875 439.1875 C 366.03663 437.50431 365.38833 435.81384 364.75 434.125 C 368.5452 435.08002 372.33711 435.98937 375.96875 437.03125 C 423.33149 434.56405 471.3155 433.99794 518.21875 425.71875 C 528.94824 422.56553 542.31619 417.8266 545.3125 405.65625 C 548.40982 392.13019 546.4116 377.60101 541.3125 364.8125 C 536.01548 355.95854 524.7874 352.56738 515.03125 354.6875 C 460.64818 359.71812 406.91862 370.11073 353.59375 381.65625 C 351.57545 382.44045 349.68597 383.48278 347.875 384.71875 C 338.26537 353.72364 330.06213 322.12941 322.09375 290.4375 C 378.63824 298.09631 437.01935 287.10513 485.46875 277.9375 C 502.75567 274.15321 521.55937 260.48733 523.15625 243.5625 C 523.95509 235.09582 515.64317 226.54617 507.84375 223.15625 C 473.85082 208.38154 440.16443 216.55774 397.3125 235.0625 C 372.62872 245.72169 342.77869 249.70019 324.15625 269.09375 C 322.17403 271.15806 320.15121 273.61796 318.53125 276.28125 C 310.73622 245.05177 303.03888 213.8148 294.375 183.0625 C 292.57849 172.03032 293.98944 160.57768 293.53125 149.375 C 276.20699 132.33706 246.1053 127.44177 223.0625 121.21875 C 221.90112 121.07802 220.83726 121.02983 219.875 121.0625 z "
       transform="translate(0,52.362183)"
       id="path3848" />
    <path
       sodipodi:nodetypes="ccccccccccccccc"
       style="fill:#000000;stroke:#000000;stroke-width:4.76239491000000030px;stroke-linecap:butt;stroke-linejoin:miter;stroke-opacity:1;fill-opacity:1"
       d="m 385.39143,156.46815 c -33.32076,-0.37433 -35.45951,51.30076 -34.79396,77.15442 23.03818,24.69144 49.22764,-0.5742 71.49974,-11.19149 49.3066,-24.03662 133.5838,-45.0815 188.52764,-41.78278 3.4666,11.72616 -4.60652,25.06839 -6.12934,37.47848 -19.17426,78.66367 -38.34857,157.32739 -57.52283,235.99106 6.3598,26.14931 28.85797,48.96066 56.81323,46.92787 26.03901,2.91502 43.2705,-24.03142 47.40669,-46.86777 26.55188,-85.03761 50.20493,-171.02508 79.47247,-255.18841 -4.14514,-25.22517 -20.52026,-43.64683 -38.05021,-60.97261 -16.07256,-17.64125 -41.27005,-29.11486 -64.90201,-30.87361 -11.73307,-2.28709 -20.07192,1.1084 -23.21596,13.20112 -13.57911,22.28139 -51.6137,10.03746 -74.09363,19.81909 -40.71976,5.48561 -81.2647,14.81424 -122.15862,17.57424 -7.61774,-0.42338 -15.23547,-0.84642 -22.85321,-1.26961 z"
       id="path3850" />
    <path
       style="fill:#000000;stroke:#000000;stroke-width:4.76239491000000030px;stroke-linecap:butt;stroke-linejoin:miter;stroke-opacity:1;fill-opacity:1"
       d="M 722.15625 405.15625 C 695.12423 418.49124 713.44256 452.16615 708 475.9375 C 708.45886 479.78318 708.83107 483.61609 709.15625 487.4375 C 699.76868 483.92326 689.05612 483.25301 678.9375 485.09375 C 580.33859 491.14689 496.54807 518.89873 404.9375 551.625 C 377.57278 559.7636 364.9666 565.20076 344.5625 583.75 C 344.71061 598.09434 341.3085 614.22739 353.96875 624.21875 C 360.9389 631.7109 365.3868 643.65004 377.84375 641.1875 C 402.00386 648.9804 419.12799 625.60016 439.8125 617.3125 C 525.8257 570.05121 614.50807 546.0449 710.0625 533.03125 C 705.78425 633.7158 661.75658 727.11752 630.46875 822.4375 C 626.50376 819.19079 621.94402 816.67323 616.84375 815.1875 C 519.06638 813.28476 418.58262 842.36525 321.59375 866.09375 C 321.5213 851.53446 318.9046 837.00742 314.1875 823 C 308.45353 801.01031 303.17643 778.87773 297.78125 756.78125 C 300.47053 757.02381 303.32563 756.92668 306.34375 756.40625 C 340.3724 750.53803 376.57348 756.20792 410.9375 750.46875 C 467.84355 739.57716 528.32149 733.85368 581 707.90625 C 587.1665 704.43875 594.84578 695.40814 592.90625 689.1875 C 587.3503 671.36824 559.33914 673.15208 541.21875 667.21875 C 468.48741 666.83538 383.69839 690.88279 311.6875 706.5625 C 304.65665 710.06086 295.75812 714.42543 288.59375 720.03125 C 280.48588 688.70329 271.50863 657.6421 260.03125 627.3125 C 252.54548 604.81533 241.23557 580.74456 250.84375 557.0625 C 272.58871 530.91957 237.03253 498.82614 211.46875 488.59375 C 202.28252 484.68973 191.16456 486.47808 181.28125 485.09375 C 172.5324 506.81646 185.44243 528.05216 195.625 546.5625 C 212.01526 660.38159 243.38704 776.08112 253.28125 890.65625 C 260.62943 901.82009 275.01587 921.35892 289.0625 916.78125 C 291.30745 918.10047 293.79809 919.20966 296.5 920.0625 C 382.23749 919.07097 469.52906 893.72987 556.375 886.8125 C 574.63632 886.73674 593.4511 891.02226 611.5 888.75 C 608.15495 903.05925 605.36513 917.45292 603.28125 931.96875 C 622.31002 946.31451 657.11842 940.15694 678.6875 941.59375 C 696.16482 921.33452 718.90379 904.25482 725.65625 877.0625 C 774.60633 762.91408 794.66863 635.53794 822.59375 514.53125 C 828.41754 495.92024 819.60274 480.07679 810.125 465 C 794.38181 427.77184 761.58993 411.2464 722.15625 405.15625 z "
       transform="translate(0,52.362183)"
       id="path3856" />
  </g>
</svg>
