<?xml version="1.0" encoding="UTF-8" standalone="no"?>
<!-- Created with Inkscape (http://www.inkscape.org/) -->

<svg
   xmlns:dc="http://purl.org/dc/elements/1.1/"
   xmlns:cc="http://creativecommons.org/ns#"
   xmlns:rdf="http://www.w3.org/1999/02/22-rdf-syntax-ns#"
   xmlns:svg="http://www.w3.org/2000/svg"
   xmlns="http://www.w3.org/2000/svg"
   xmlns:sodipodi="http://sodipodi.sourceforge.net/DTD/sodipodi-0.dtd"
   xmlns:inkscape="http://www.inkscape.org/namespaces/inkscape"
   width="1000"
   height="1000"
   id="svg3173"
   version="1.1"
   inkscape:version="0.47 r22583"
   sodipodi:docname="660e.svg"
   inkscape:export-filename="E:\chinese\yan\660e.png"
   inkscape:export-xdpi="18.005705"
   inkscape:export-ydpi="18.005705">
  <title
     id="title3666">Ming</title>
  <defs
     id="defs3175">
    <inkscape:perspective
       sodipodi:type="inkscape:persp3d"
       inkscape:vp_x="0 : 526.18109 : 1"
       inkscape:vp_y="0 : 1000 : 0"
       inkscape:vp_z="744.09448 : 526.18109 : 1"
       inkscape:persp3d-origin="372.04724 : 350.78739 : 1"
       id="perspective3181" />
    <inkscape:perspective
       id="perspective3191"
       inkscape:persp3d-origin="0.5 : 0.33333333 : 1"
       inkscape:vp_z="1 : 0.5 : 1"
       inkscape:vp_y="0 : 1000 : 0"
       inkscape:vp_x="0 : 0.5 : 1"
       sodipodi:type="inkscape:persp3d" />
    <inkscape:perspective
       id="perspective4006"
       inkscape:persp3d-origin="0.5 : 0.33333333 : 1"
       inkscape:vp_z="1 : 0.5 : 1"
       inkscape:vp_y="0 : 1000 : 0"
       inkscape:vp_x="0 : 0.5 : 1"
       sodipodi:type="inkscape:persp3d" />
    <inkscape:perspective
       id="perspective4034"
       inkscape:persp3d-origin="0.5 : 0.33333333 : 1"
       inkscape:vp_z="1 : 0.5 : 1"
       inkscape:vp_y="0 : 1000 : 0"
       inkscape:vp_x="0 : 0.5 : 1"
       sodipodi:type="inkscape:persp3d" />
    <inkscape:perspective
       id="perspective4081"
       inkscape:persp3d-origin="0.5 : 0.33333333 : 1"
       inkscape:vp_z="1 : 0.5 : 1"
       inkscape:vp_y="0 : 1000 : 0"
       inkscape:vp_x="0 : 0.5 : 1"
       sodipodi:type="inkscape:persp3d" />
    <inkscape:perspective
       id="perspective4147"
       inkscape:persp3d-origin="0.5 : 0.33333333 : 1"
       inkscape:vp_z="1 : 0.5 : 1"
       inkscape:vp_y="0 : 1000 : 0"
       inkscape:vp_x="0 : 0.5 : 1"
       sodipodi:type="inkscape:persp3d" />
    <inkscape:perspective
       id="perspective3765"
       inkscape:persp3d-origin="0.5 : 0.33333333 : 1"
       inkscape:vp_z="1 : 0.5 : 1"
       inkscape:vp_y="0 : 1000 : 0"
       inkscape:vp_x="0 : 0.5 : 1"
       sodipodi:type="inkscape:persp3d" />
    <inkscape:perspective
       id="perspective3793"
       inkscape:persp3d-origin="0.5 : 0.33333333 : 1"
       inkscape:vp_z="1 : 0.5 : 1"
       inkscape:vp_y="0 : 1000 : 0"
       inkscape:vp_x="0 : 0.5 : 1"
       sodipodi:type="inkscape:persp3d" />
    <inkscape:perspective
       id="perspective3780"
       inkscape:persp3d-origin="0.5 : 0.33333333 : 1"
       inkscape:vp_z="1 : 0.5 : 1"
       inkscape:vp_y="0 : 1000 : 0"
       inkscape:vp_x="0 : 0.5 : 1"
       sodipodi:type="inkscape:persp3d" />
    <inkscape:perspective
       id="perspective2993"
       inkscape:persp3d-origin="0.5 : 0.33333333 : 1"
       inkscape:vp_z="1 : 0.5 : 1"
       inkscape:vp_y="0 : 1000 : 0"
       inkscape:vp_x="0 : 0.5 : 1"
       sodipodi:type="inkscape:persp3d" />
    <inkscape:perspective
       id="perspective3767"
       inkscape:persp3d-origin="0.5 : 0.33333333 : 1"
       inkscape:vp_z="1 : 0.5 : 1"
       inkscape:vp_y="0 : 1000 : 0"
       inkscape:vp_x="0 : 0.5 : 1"
       sodipodi:type="inkscape:persp3d" />
    <inkscape:perspective
       id="perspective3826"
       inkscape:persp3d-origin="0.5 : 0.33333333 : 1"
       inkscape:vp_z="1 : 0.5 : 1"
       inkscape:vp_y="0 : 1000 : 0"
       inkscape:vp_x="0 : 0.5 : 1"
       sodipodi:type="inkscape:persp3d" />
    <inkscape:perspective
       id="perspective2841"
       inkscape:persp3d-origin="0.5 : 0.33333333 : 1"
       inkscape:vp_z="1 : 0.5 : 1"
       inkscape:vp_y="0 : 1000 : 0"
       inkscape:vp_x="0 : 0.5 : 1"
       sodipodi:type="inkscape:persp3d" />
  </defs>
  <sodipodi:namedview
     id="base"
     pagecolor="#ffffff"
     bordercolor="#666666"
     borderopacity="1.0"
     inkscape:pageopacity="0.0"
     inkscape:pageshadow="2"
     inkscape:zoom="0.49497475"
     inkscape:cx="393.67717"
     inkscape:cy="521.18347"
     inkscape:document-units="px"
     inkscape:current-layer="g3747"
     showgrid="false"
     inkscape:window-width="1440"
     inkscape:window-height="840"
     inkscape:window-x="-4"
     inkscape:window-y="-4"
     inkscape:window-maximized="1" />
  <metadata
     id="metadata3178">
    <rdf:RDF>
      <cc:Work
         rdf:about="">
        <dc:format>image/svg+xml</dc:format>
        <dc:type
           rdf:resource="http://purl.org/dc/dcmitype/StillImage" />
        <dc:title>Ming</dc:title>
        <dc:date>2010-07-16</dc:date>
        <dc:creator>
          <cc:Agent>
            <dc:title>Alex Amies</dc:title>
          </cc:Agent>
        </dc:creator>
        <dc:rights>
          <cc:Agent>
            <dc:title>@ Alex Amies 2010</dc:title>
          </cc:Agent>
        </dc:rights>
        <dc:publisher>
          <cc:Agent>
            <dc:title>chinesenotes.com</dc:title>
          </cc:Agent>
        </dc:publisher>
        <dc:source>Yan Qin Ceremonial Inscription</dc:source>
        <dc:language>Chinese 中文</dc:language>
        <dc:description>Tracing from Tang Dynasty Ceremonial Inscription by Yan Zhenqing 颜真卿 (709－785)</dc:description>
        <cc:license
           rdf:resource="http://creativecommons.org/licenses/by/3.0/" />
      </cc:Work>
      <cc:License
         rdf:about="http://creativecommons.org/licenses/by/3.0/">
        <cc:permits
           rdf:resource="http://creativecommons.org/ns#Reproduction" />
        <cc:permits
           rdf:resource="http://creativecommons.org/ns#Distribution" />
        <cc:requires
           rdf:resource="http://creativecommons.org/ns#Notice" />
        <cc:requires
           rdf:resource="http://creativecommons.org/ns#Attribution" />
        <cc:permits
           rdf:resource="http://creativecommons.org/ns#DerivativeWorks" />
      </cc:License>
    </rdf:RDF>
  </metadata>
  <g
     inkscape:label="Layer 1"
     inkscape:groupmode="layer"
     id="layer1"
     transform="translate(0,-52.362183)">
    <g
       id="g3747"
       style="fill:#000000;fill-opacity:1">
      <path
         style="fill:#000000;fill-opacity:1;stroke:#000000;stroke-width:4.74180651000000000px;stroke-linecap:butt;stroke-linejoin:miter;stroke-opacity:1"
         d="M 857.5 111.5625 C 855.12492 111.592 852.70277 111.80619 850.21875 112.25 C 818.27723 123.56314 785.91907 134.33729 751.59375 135 C 703.35445 138.6979 651.93855 130.16929 606.375 150.125 C 579.80414 169.07245 559.39652 206.99319 573.0625 239.15625 C 579.73735 248.9515 587.78472 252.8927 596.5625 253.34375 C 590.42716 317.23597 598.03664 382.1946 586.15625 445.6875 C 562.3455 600.5504 557.37241 769.99574 444.6875 890.15625 C 459.33376 895.27702 483.36081 885.79514 498.96875 877.6875 C 564.55804 821.50771 601.71146 724.45751 621.84375 642 C 629.91805 609.14126 637.81296 576.05654 644.375 542.75 C 688.66158 557.37537 716.33155 563.3674 746.03125 563.375 C 769.65323 558.58412 783.12061 533.78178 758.71875 514.09375 C 726.05599 504.21376 691.21678 503.79105 649.9375 512.5 C 657.3922 468.20207 661.8322 423.49661 660.40625 378.375 C 660.39029 376.56265 660.37788 374.75218 660.375 372.9375 C 693.20193 398.01449 706.50813 401.69527 765.28125 395.5 C 784.62688 382.4056 761.08258 353.19093 749.625 342.59375 C 709.09796 336.35992 687.3114 354.26171 660.40625 362.625 C 660.70915 327.42906 662.42882 291.90867 657.28125 257.1875 C 655.89114 247.70619 653.3778 240.10725 649.8125 234.1875 C 658.09247 230.19864 666.10376 226.85599 673.40625 225.6875 C 718.10209 219.56312 761.48453 205.96369 804.75 193.28125 C 858.9608 280.81093 830.04919 461.8225 827.46875 564 C 824.87422 639.17556 822.23876 714.68813 815.21875 789.4375 C 809.2868 808.20458 763.97187 805.6057 754.90625 791.78125 C 757.7272 836.77421 803.90459 869.51244 821.90625 911.375 C 843.18918 946.22311 861.59965 897.73932 866.90625 877.6875 C 922.81694 660.9693 918.58222 409.70281 926.375 185.5 C 916.48843 155.32815 893.12621 111.12 857.5 111.5625 z M 396 210.03125 C 390.31293 209.98651 386.28227 214.46081 384.5625 225.25 C 375.42072 249.71717 349.82152 236.25881 334.6875 247 C 307.274 253.02374 231.4995 263.28175 203.96875 266.3125 C 198.84031 265.84759 193.72219 265.37096 188.59375 264.90625 C 175.60952 264.66833 169.65404 283.58506 167.03125 305.0625 C 163.74192 301.82044 160.01772 299.42793 156.3125 298.34375 C 145.91923 293.44162 135.63714 287.97135 125.125 283.71875 C 118.67409 282.48266 116.56872 287.57296 120.21875 295.40625 L 128 322.8125 C 135.85036 357.92143 144.51124 392.6879 151.84375 428.03125 C 156.49171 478.86814 162.32079 522.22554 166.96875 573.0625 C 171.94339 596.23933 181.44851 615.00654 185.4375 635.40625 C 187.75241 648.0283 196.53803 657.43343 204.40625 658.59375 C 208.46785 658.09964 212.53215 657.58781 216.59375 657.09375 C 219.34924 649.00153 222.08826 640.90473 224.84375 632.8125 C 224.17864 630.58584 223.51694 628.36753 222.875 626.125 C 225.30135 627.45995 227.73602 628.726 230.125 630.03125 C 236.52711 631.55189 242.94994 629.16798 249.375 628.84375 C 274.65375 625.80779 299.93999 622.786 325.21875 619.75 C 332.69794 613.5252 340.17706 607.28731 347.65625 601.0625 C 353.51618 625.64825 367.34293 645.268 384.09375 643.28125 C 401.62382 646.48221 413.21542 616.92031 416 591.84375 C 433.87535 498.46405 449.79642 404.0134 469.5 311.59375 C 466.7094 283.89402 455.70783 263.68167 443.90625 244.65625 C 433.08583 225.28442 416.12833 212.68128 400.21875 210.75 C 398.73769 210.2791 397.3124 210.04157 396 210.03125 z M 376.8125 290.21875 C 380.77954 290.1568 384.72788 290.52073 388.6875 291.46875 C 391.0213 304.34523 385.58771 318.99751 384.5625 332.625 C 372.10859 415.96306 359.67267 499.28694 347.21875 582.625 L 346.46875 552.53125 L 332.3125 539.4375 L 216.59375 569.34375 C 215.06749 571.22091 213.52625 573.09157 212 574.96875 C 205.85907 537.42813 199.88652 499.81223 193.71875 462.28125 C 233.08917 468.92454 273.73546 459.34005 307.46875 451.375 C 319.50895 448.08602 332.60654 436.24086 333.71875 421.53125 C 334.27513 414.17273 328.49474 406.72747 323.0625 403.78125 C 299.38672 390.94032 275.90851 398.04225 246.0625 414.125 C 228.87046 423.38906 208.09536 426.83227 195.125 443.6875 C 193.88266 445.30195 192.62593 447.23046 191.5625 449.28125 C 186.6492 419.61524 181.55983 390.01369 176.21875 360.53125 C 188.69201 364.74898 201.76331 346.29965 213.28125 337.34375 C 232.23839 316.17918 303.94806 313.67268 325.59375 304.4375 C 342.40329 298.9481 359.622 290.4872 376.8125 290.21875 z "
         transform="translate(0,52.362183)"
         id="path4131" />
    </g>
  </g>
</svg>
