<?xml version="1.0" encoding="UTF-8" standalone="no"?>
<!-- Created with Inkscape (http://www.inkscape.org/) -->

<svg
   xmlns:dc="http://purl.org/dc/elements/1.1/"
   xmlns:cc="http://creativecommons.org/ns#"
   xmlns:rdf="http://www.w3.org/1999/02/22-rdf-syntax-ns#"
   xmlns:svg="http://www.w3.org/2000/svg"
   xmlns="http://www.w3.org/2000/svg"
   xmlns:sodipodi="http://sodipodi.sourceforge.net/DTD/sodipodi-0.dtd"
   xmlns:inkscape="http://www.inkscape.org/namespaces/inkscape"
   width="1000"
   height="1000"
   id="svg3173"
   version="1.1"
   inkscape:version="0.47 r22583"
   sodipodi:docname="6649.svg"
   inkscape:export-filename="E:\chinese\yan\6649.png"
   inkscape:export-xdpi="18.005705"
   inkscape:export-ydpi="18.005705">
  <title
     id="title4182">Jin</title>
  <defs
     id="defs3175">
    <inkscape:perspective
       sodipodi:type="inkscape:persp3d"
       inkscape:vp_x="0 : 526.18109 : 1"
       inkscape:vp_y="0 : 1000 : 0"
       inkscape:vp_z="744.09448 : 526.18109 : 1"
       inkscape:persp3d-origin="372.04724 : 350.78739 : 1"
       id="perspective3181" />
    <inkscape:perspective
       id="perspective3191"
       inkscape:persp3d-origin="0.5 : 0.33333333 : 1"
       inkscape:vp_z="1 : 0.5 : 1"
       inkscape:vp_y="0 : 1000 : 0"
       inkscape:vp_x="0 : 0.5 : 1"
       sodipodi:type="inkscape:persp3d" />
    <inkscape:perspective
       id="perspective4006"
       inkscape:persp3d-origin="0.5 : 0.33333333 : 1"
       inkscape:vp_z="1 : 0.5 : 1"
       inkscape:vp_y="0 : 1000 : 0"
       inkscape:vp_x="0 : 0.5 : 1"
       sodipodi:type="inkscape:persp3d" />
    <inkscape:perspective
       id="perspective4034"
       inkscape:persp3d-origin="0.5 : 0.33333333 : 1"
       inkscape:vp_z="1 : 0.5 : 1"
       inkscape:vp_y="0 : 1000 : 0"
       inkscape:vp_x="0 : 0.5 : 1"
       sodipodi:type="inkscape:persp3d" />
    <inkscape:perspective
       id="perspective4081"
       inkscape:persp3d-origin="0.5 : 0.33333333 : 1"
       inkscape:vp_z="1 : 0.5 : 1"
       inkscape:vp_y="0 : 1000 : 0"
       inkscape:vp_x="0 : 0.5 : 1"
       sodipodi:type="inkscape:persp3d" />
    <inkscape:perspective
       id="perspective4147"
       inkscape:persp3d-origin="0.5 : 0.33333333 : 1"
       inkscape:vp_z="1 : 0.5 : 1"
       inkscape:vp_y="0 : 1000 : 0"
       inkscape:vp_x="0 : 0.5 : 1"
       sodipodi:type="inkscape:persp3d" />
    <inkscape:perspective
       id="perspective3737"
       inkscape:persp3d-origin="0.5 : 0.33333333 : 1"
       inkscape:vp_z="1 : 0.5 : 1"
       inkscape:vp_y="0 : 1000 : 0"
       inkscape:vp_x="0 : 0.5 : 1"
       sodipodi:type="inkscape:persp3d" />
    <inkscape:perspective
       id="perspective3736"
       inkscape:persp3d-origin="0.5 : 0.33333333 : 1"
       inkscape:vp_z="1 : 0.5 : 1"
       inkscape:vp_y="0 : 1000 : 0"
       inkscape:vp_x="0 : 0.5 : 1"
       sodipodi:type="inkscape:persp3d" />
  </defs>
  <sodipodi:namedview
     id="base"
     pagecolor="#ffffff"
     bordercolor="#666666"
     borderopacity="1.0"
     inkscape:pageopacity="0.0"
     inkscape:pageshadow="2"
     inkscape:zoom="0.49497475"
     inkscape:cx="421.0303"
     inkscape:cy="482.85714"
     inkscape:document-units="px"
     inkscape:current-layer="g4264"
     showgrid="false"
     inkscape:window-width="1440"
     inkscape:window-height="840"
     inkscape:window-x="-4"
     inkscape:window-y="-4"
     inkscape:window-maximized="1" />
  <metadata
     id="metadata3178">
    <rdf:RDF>
      <cc:Work
         rdf:about="">
        <dc:format>image/svg+xml</dc:format>
        <dc:type
           rdf:resource="http://purl.org/dc/dcmitype/StillImage" />
        <dc:title>Jin</dc:title>
        <dc:date>2010-08-08</dc:date>
        <dc:creator>
          <cc:Agent>
            <dc:title>Alex Amies</dc:title>
          </cc:Agent>
        </dc:creator>
        <dc:rights>
          <cc:Agent>
            <dc:title>@ Alex Amies 2010</dc:title>
          </cc:Agent>
        </dc:rights>
        <dc:publisher>
          <cc:Agent>
            <dc:title>chinesenotes.com</dc:title>
          </cc:Agent>
        </dc:publisher>
        <dc:source>Yan Qin Ceremonial Inscription</dc:source>
        <dc:language>Chinese 中文</dc:language>
        <dc:description>Tracing from Tang Dynasty Ceremonial Inscription by Yan Zhenqing 颜真卿 (709－785)</dc:description>
        <cc:license
           rdf:resource="http://creativecommons.org/licenses/by/3.0/" />
      </cc:Work>
      <cc:License
         rdf:about="http://creativecommons.org/licenses/by/3.0/">
        <cc:permits
           rdf:resource="http://creativecommons.org/ns#Reproduction" />
        <cc:permits
           rdf:resource="http://creativecommons.org/ns#Distribution" />
        <cc:requires
           rdf:resource="http://creativecommons.org/ns#Notice" />
        <cc:requires
           rdf:resource="http://creativecommons.org/ns#Attribution" />
        <cc:permits
           rdf:resource="http://creativecommons.org/ns#DerivativeWorks" />
      </cc:License>
    </rdf:RDF>
  </metadata>
  <g
     inkscape:label="Layer 1"
     inkscape:groupmode="layer"
     id="layer1"
     transform="translate(0,-52.362183)">
    <g
       transform="matrix(4.7609464,0,0,4.7609464,-696.12274,-2965.6673)"
       id="g4264"
       style="fill:none;fill-opacity:1">
      <g
         transform="matrix(0.99597986,0,0,0.99597986,0.3380276,-204.63902)"
         id="g4332"
         style="fill:none;fill-opacity:1">
        <g
           id="g4230"
           style="fill:#000000;fill-opacity:1">
          <path
             style="fill:#000000;fill-opacity:1;stroke:#000000;stroke-width:1px;stroke-linecap:butt;stroke-linejoin:miter;stroke-opacity:1"
             d="m 210.71429,868.07647 c -1.89604,7.57841 6.248,14.76131 13.52923,12.16331 19.26026,-6.60002 39.29717,-10.55836 58.97077,-15.73474 5.61129,-0.80137 10.75057,2.95039 16.15832,2.74487 4.92457,0.43655 6.69908,-4.19018 3.7241,-8.09884 -3.15885,-4.73781 -11.05854,-6.6544 -16.42607,-4.30107 -12.00337,3.58013 -23.81357,8.11349 -36.39565,9.26073 -10.49044,1.39969 -20.90863,3.70559 -31.26652,5.52831 -2.81376,-0.23684 -5.50884,-1.152 -8.29418,-1.56257 z"
             id="path4276" />
          <path
             sodipodi:nodetypes="cssssscc"
             style="fill:#000000;fill-opacity:1;stroke:#000000;stroke-width:1px;stroke-linecap:butt;stroke-linejoin:miter;stroke-opacity:1"
             d="m 215.35714,889.1479 c -0.14417,4.07951 -2.48602,7.77739 -4.14468,11.41606 -3.03659,6.66145 -7.22063,12.92557 -9.73749,19.72327 -0.28715,0.77557 -1.56884,3.11686 0.006,2.61221 1.25912,-0.40348 2.94531,0.0208 3.87572,-0.8944 8.69328,-8.55088 18.15067,-18.05283 25,-27.5 1.21347,-1.67371 0.0989,-5.32547 -1.42857,-6.42857 -9.34439,-3.08235 -9.00418,-4.42693 -13.57098,1.07143 z"
             id="path4278" />
          <path
             sodipodi:nodetypes="csssssccc"
             style="fill:#000000;fill-opacity:1;stroke:#000000;stroke-width:1px;stroke-linecap:butt;stroke-linejoin:miter;stroke-opacity:1"
             d="m 185.71429,928.07647 c -1.38598,2.28257 1.62952,5.54554 4.16679,7.10629 1.30405,0.80216 2.60221,2.29221 4.04749,2.17942 4.18531,-0.32662 8.51008,-2.4748 12.57713,-4.28399 7.41168,-3.29702 15.12025,-6.01816 22.40664,-9.52607 1.18183,-0.56897 3.00934,-1.25909 3.23052,-2.26137 0.26042,-1.18008 -0.54775,-4.02321 -1.78572,-4.28571 -8.02096,0.20213 -15.06555,5.15458 -22.73995,7.22569 -6.84824,2.26608 -15.59896,0.33602 -21.9029,3.84574 z"
             id="path4280" />
          <path
             sodipodi:nodetypes="csccccs"
             style="fill:#000000;fill-opacity:1;stroke:#000000;stroke-width:1px;stroke-linecap:butt;stroke-linejoin:miter;stroke-opacity:1"
             d="m 232.85714,903.07647 c -0.79168,0.43183 -2.13334,1.39146 -1.78571,2.14286 1.72851,3.7362 4.70367,8.34759 7.85714,11.42857 2.39254,1.76077 5.84863,2.60195 8.25679,0.61865 0.67403,-0.86142 1.54727,-2.05645 1.38607,-3.11865 -0.8376,-5.96574 -3.53834,-11.44948 -9.64286,-13.21429 -1.89394,-0.32467 -4.24406,1.14611 -6.07143,2.14286 z"
             id="path4282" />
          <path
             sodipodi:nodetypes="csssssssssssss"
             style="fill:#000000;fill-opacity:1;stroke:#000000;stroke-width:1px;stroke-linecap:butt;stroke-linejoin:miter;stroke-opacity:1"
             d="m 281.42857,873.07647 c -1.30805,-0.84441 -4.28424,-0.81617 -5,0.35714 -1.59773,2.61906 -0.64755,7.5736 -3.00886,10.76328 -4.65931,6.29384 -8.4416,13.26645 -13.06257,19.59386 -2.29208,3.13851 -9.47585,4.79823 -6.91894,9.91312 2.21536,4.43166 7.10273,6.28349 11.47857,4.72649 8.74941,-3.11318 17.92461,-5.78298 26.15466,-9.63964 1.43174,-0.67092 3.9191,-2.58375 3.13912,-3.82958 -1.78266,-2.84738 -7.25942,0.61361 -10.7914,0.76046 -6.59216,0.27408 -19.74186,4.37793 -19.84772,1.64055 -0.1546,-3.99768 14.04485,-13.54977 21.66224,-19.18371 1.21116,-0.8958 3.75333,0.6956 4.76633,-0.102 1.03956,-0.81852 2.15052,-3.38252 1.42857,-4.64286 -2.13966,-3.7353 -6.24281,-7.93164 -10,-10.35711 z"
             id="path4284" />
          <path
             sodipodi:nodetypes="csccccs"
             style="fill:#000000;fill-opacity:1;stroke:#000000;stroke-width:1px;stroke-linecap:butt;stroke-linejoin:miter;stroke-opacity:1"
             d="m 296.78571,894.50504 c -1.2773,0.81283 -2.3971,3.33365 -2.14285,5 0.53399,3.49977 4.021,6.4545 5.4219,9.9996 1.55234,3.08097 6.65384,2.47689 9.5781,2.14326 1.2371,-1.21991 2.81936,-3.29125 2.85714,-5 -0.67166,-5.35506 -5.57567,-9.59149 -10,-12.14286 -1.6154,-0.78222 -4.37255,-0.85384 -5.71429,0 z"
             id="path4286" />
          <path
             sodipodi:nodetypes="cccccccc"
             style="fill:#000000;fill-opacity:1;stroke:#000000;stroke-width:1px;stroke-linecap:butt;stroke-linejoin:miter;stroke-opacity:1"
             d="m 158.21429,952.00504 c 2.9528,11.26963 18.20587,15.03422 27.29033,8.58131 12.39884,-7.655 26.11689,-12.2274 40.18449,-15.70023 24.66872,-5.85045 50.20306,-7.72995 75.51599,-8.28512 11.98883,-0.61338 23.68177,5.30708 35.68169,2.5712 11.61971,-11.47474 -14.20379,-27.64413 -21.69652,-13.86824 -48.51365,4.73797 -95.71862,14.80626 -143.53337,24.7129 -4.50084,0.3654 -9.25564,-0.0368 -13.44261,1.98818 z"
             id="path4288" />
          <path
             id="path4290"
             transform="matrix(0.21089008,0,0,0.21089008,146.46599,841.9375)"
             d="M 697.53125 481.28125 C 643.56114 517.17151 652.5225 754.76889 648.96875 818.6875 C 648.14377 825.24533 646.66865 831.76961 644.84375 838.3125 C 645.63887 832.27095 644.73178 825.55771 641.65625 823.375 C 629.66152 814.86298 605.45627 809.37045 587.46875 811.5 C 542.09425 816.87232 488.60218 825.65538 450.21875 843.75 C 449.21325 838.35249 448.38138 833.01084 447.90625 827.75 C 445.66087 802.88853 443.92726 777.8872 442.15625 752.90625 C 448.59545 753.84453 455.46914 753.78632 459.9375 750.96875 C 491.93369 713.45584 547.12567 708.37483 590.84375 687.875 C 594.90112 685.64664 587.06744 675.3391 582.375 674.34375 C 568.43892 671.38761 549.8501 671.37864 534.96875 676.03125 C 508.15764 684.41366 463.49087 726.0399 440.78125 733.59375 C 437.60908 690.35314 433.84864 647.22696 426.59375 604.78125 C 425.35076 597.50891 424.11293 589.7336 422.46875 582.125 C 429.21975 584.59773 436.52213 586.65285 442.4375 588.96875 C 456.70038 594.55275 472.85827 594.03417 486.90625 587.59375 C 519.97319 567.71159 563.03729 561.77883 594.25 538.84375 C 598.42383 534.98321 604.21371 525.35345 601.03125 521.90625 C 593.70383 513.96937 575.53934 518.13072 562.3125 521.625 C 528.8849 530.4559 495.15316 538.63973 461.1875 545.28125 C 447.45788 547.96592 432.40764 547.57217 419.8125 552.40625 C 417.92389 553.1311 415.67473 554.19309 413.4375 555.46875 C 411.84216 552.5317 410.04126 549.77795 407.96875 547.3125 C 395.57329 532.56695 363.19027 522.93936 348.6875 532.09375 C 324.77647 547.18678 357.33303 589.10204 360.1875 618.75 C 369.2435 712.80952 387.80545 807.0446 400.0625 900.875 C 403.75466 929.13949 447.79298 944.62705 456.09375 920.96875 C 458.30264 914.67306 459.20988 908.06827 459.3125 901.25 C 463.9406 904.75813 469.08427 907.5212 474 909.71875 C 508.30067 882.65299 547.09564 861.78706 589.5625 850.40625 C 606.18808 848.50384 628.42558 854.73748 639.96875 848.75 C 640.98892 848.22085 641.85971 847.22176 642.59375 845.90625 C 633.71959 874.20966 620.46531 902.4214 627.25 930.71875 C 634.04961 971.01747 685.33044 973.26082 702.4375 938.78125 C 733.13686 907.56546 746.51831 868.19144 746.625 824.53125 C 755.65302 746.28148 766.94983 667.61912 770.9375 589.21875 C 768.49547 560.1234 764.84475 529.77139 743.15625 508 C 731.55253 494.2095 715.25665 484.5999 697.53125 481.28125 z "
             style="fill:#000000;stroke:#000000;stroke-width:4.74180651000000000px;stroke-linecap:butt;stroke-linejoin:miter;stroke-opacity:1;fill-opacity:1" />
        </g>
      </g>
    </g>
  </g>
</svg>
