<?xml version="1.0" encoding="UTF-8" standalone="no"?>
<!-- Created with Inkscape (http://www.inkscape.org/) -->

<svg
   xmlns:dc="http://purl.org/dc/elements/1.1/"
   xmlns:cc="http://creativecommons.org/ns#"
   xmlns:rdf="http://www.w3.org/1999/02/22-rdf-syntax-ns#"
   xmlns:svg="http://www.w3.org/2000/svg"
   xmlns="http://www.w3.org/2000/svg"
   xmlns:sodipodi="http://sodipodi.sourceforge.net/DTD/sodipodi-0.dtd"
   xmlns:inkscape="http://www.inkscape.org/namespaces/inkscape"
   width="1000"
   height="1000"
   id="svg3173"
   version="1.1"
   inkscape:version="0.47 r22583"
   sodipodi:docname="66f0.svg"
   inkscape:export-filename="E:\chinese\yan\66f0.png"
   inkscape:export-xdpi="17.903368"
   inkscape:export-ydpi="17.903368">
  <title
     id="title2845">Yue</title>
  <defs
     id="defs3175">
    <inkscape:perspective
       sodipodi:type="inkscape:persp3d"
       inkscape:vp_x="0 : 526.18109 : 1"
       inkscape:vp_y="0 : 1000 : 0"
       inkscape:vp_z="744.09448 : 526.18109 : 1"
       inkscape:persp3d-origin="372.04724 : 350.78739 : 1"
       id="perspective3181" />
    <inkscape:perspective
       id="perspective3191"
       inkscape:persp3d-origin="0.5 : 0.33333333 : 1"
       inkscape:vp_z="1 : 0.5 : 1"
       inkscape:vp_y="0 : 1000 : 0"
       inkscape:vp_x="0 : 0.5 : 1"
       sodipodi:type="inkscape:persp3d" />
    <inkscape:perspective
       id="perspective4006"
       inkscape:persp3d-origin="0.5 : 0.33333333 : 1"
       inkscape:vp_z="1 : 0.5 : 1"
       inkscape:vp_y="0 : 1000 : 0"
       inkscape:vp_x="0 : 0.5 : 1"
       sodipodi:type="inkscape:persp3d" />
    <inkscape:perspective
       id="perspective4034"
       inkscape:persp3d-origin="0.5 : 0.33333333 : 1"
       inkscape:vp_z="1 : 0.5 : 1"
       inkscape:vp_y="0 : 1000 : 0"
       inkscape:vp_x="0 : 0.5 : 1"
       sodipodi:type="inkscape:persp3d" />
    <inkscape:perspective
       id="perspective4081"
       inkscape:persp3d-origin="0.5 : 0.33333333 : 1"
       inkscape:vp_z="1 : 0.5 : 1"
       inkscape:vp_y="0 : 1000 : 0"
       inkscape:vp_x="0 : 0.5 : 1"
       sodipodi:type="inkscape:persp3d" />
    <inkscape:perspective
       id="perspective4147"
       inkscape:persp3d-origin="0.5 : 0.33333333 : 1"
       inkscape:vp_z="1 : 0.5 : 1"
       inkscape:vp_y="0 : 1000 : 0"
       inkscape:vp_x="0 : 0.5 : 1"
       sodipodi:type="inkscape:persp3d" />
    <inkscape:perspective
       id="perspective3858"
       inkscape:persp3d-origin="0.5 : 0.33333333 : 1"
       inkscape:vp_z="1 : 0.5 : 1"
       inkscape:vp_y="0 : 1000 : 0"
       inkscape:vp_x="0 : 0.5 : 1"
       sodipodi:type="inkscape:persp3d" />
    <inkscape:perspective
       id="perspective3876"
       inkscape:persp3d-origin="0.5 : 0.33333333 : 1"
       inkscape:vp_z="1 : 0.5 : 1"
       inkscape:vp_y="0 : 1000 : 0"
       inkscape:vp_x="0 : 0.5 : 1"
       sodipodi:type="inkscape:persp3d" />
    <inkscape:perspective
       id="perspective3901"
       inkscape:persp3d-origin="0.5 : 0.33333333 : 1"
       inkscape:vp_z="1 : 0.5 : 1"
       inkscape:vp_y="0 : 1000 : 0"
       inkscape:vp_x="0 : 0.5 : 1"
       sodipodi:type="inkscape:persp3d" />
    <inkscape:perspective
       id="perspective5282"
       inkscape:persp3d-origin="0.5 : 0.33333333 : 1"
       inkscape:vp_z="1 : 0.5 : 1"
       inkscape:vp_y="0 : 1000 : 0"
       inkscape:vp_x="0 : 0.5 : 1"
       sodipodi:type="inkscape:persp3d" />
    <inkscape:perspective
       id="perspective3825"
       inkscape:persp3d-origin="0.5 : 0.33333333 : 1"
       inkscape:vp_z="1 : 0.5 : 1"
       inkscape:vp_y="0 : 1000 : 0"
       inkscape:vp_x="0 : 0.5 : 1"
       sodipodi:type="inkscape:persp3d" />
  </defs>
  <sodipodi:namedview
     id="base"
     pagecolor="#ffffff"
     bordercolor="#666666"
     borderopacity="1.0"
     inkscape:pageopacity="0.0"
     inkscape:pageshadow="2"
     inkscape:zoom="0.49497475"
     inkscape:cx="537.07555"
     inkscape:cy="501.96083"
     inkscape:document-units="px"
     inkscape:current-layer="layer1"
     showgrid="false"
     inkscape:window-width="1440"
     inkscape:window-height="840"
     inkscape:window-x="-4"
     inkscape:window-y="-4"
     inkscape:window-maximized="1" />
  <metadata
     id="metadata3178">
    <rdf:RDF>
      <cc:Work
         rdf:about="">
        <dc:format>image/svg+xml</dc:format>
        <dc:type
           rdf:resource="http://purl.org/dc/dcmitype/StillImage" />
        <dc:title>Yue</dc:title>
        <dc:date>2010-06-06</dc:date>
        <dc:creator>
          <cc:Agent>
            <dc:title>Alex Amies</dc:title>
          </cc:Agent>
        </dc:creator>
        <dc:rights>
          <cc:Agent>
            <dc:title>@ Alex Amies 2010</dc:title>
          </cc:Agent>
        </dc:rights>
        <dc:publisher>
          <cc:Agent>
            <dc:title>chinesenotes.com</dc:title>
          </cc:Agent>
        </dc:publisher>
        <dc:source>Yan Qin Ceremonial Inscription</dc:source>
        <dc:language>Chinese 中文</dc:language>
        <dc:description>Tracing from Tang Dynasty Ceremonial Inscription by Yan Zhenqing 颜真卿 (709－785)</dc:description>
        <cc:license
           rdf:resource="http://creativecommons.org/licenses/by/3.0/" />
      </cc:Work>
      <cc:License
         rdf:about="http://creativecommons.org/licenses/by/3.0/">
        <cc:permits
           rdf:resource="http://creativecommons.org/ns#Reproduction" />
        <cc:permits
           rdf:resource="http://creativecommons.org/ns#Distribution" />
        <cc:requires
           rdf:resource="http://creativecommons.org/ns#Notice" />
        <cc:requires
           rdf:resource="http://creativecommons.org/ns#Attribution" />
        <cc:permits
           rdf:resource="http://creativecommons.org/ns#DerivativeWorks" />
      </cc:License>
    </rdf:RDF>
  </metadata>
  <g
     inkscape:label="Layer 1"
     inkscape:groupmode="layer"
     id="layer1"
     transform="translate(0,-52.362183)">
    <path
       style="fill:#000000;stroke:#000000;stroke-width:4.76239491000000030px;stroke-linecap:butt;stroke-linejoin:miter;stroke-opacity:1;fill-opacity:1"
       d="m 217.00683,166.67314 0,0 z"
       id="path3846" />
    <path
       style="fill:#000000;fill-opacity:1;stroke:#000000;stroke-width:5.25278807000000030px;stroke-linecap:butt;stroke-linejoin:miter;stroke-opacity:1"
       d="m 728.04962,199.16458 c -29.22873,3.88177 -8.70708,57.2332 -14.14551,86.17414 0.45851,4.682 0.83044,9.34846 1.15537,14.00091 -9.38044,-4.27848 -20.08487,-5.09449 -30.19581,-2.85344 -98.52407,7.36952 -182.25099,41.15659 -273.79202,80.99988 -27.34395,9.90851 -47.46993,13.66864 -60.32918,39.11126 -7.38136,14.60437 -3.25153,37.10534 9.39911,49.26954 6.96486,9.12147 11.40939,23.65703 23.85688,20.65896 24.14177,9.48763 41.2529,-18.97714 61.92171,-29.06712 85.94792,-57.53926 174.56297,-86.76625 270.04488,-102.61 -4.27501,122.58054 -48.26926,236.29444 -79.53334,352.34377 -3.96198,-3.95277 -8.51826,-7.01783 -13.61466,-8.82666 -97.70315,-2.31653 -198.11064,33.08813 -295.02589,61.97689 -0.0725,-17.72551 -2.68711,-35.41177 -7.40063,-52.4654 -5.72962,-26.77181 -11.00271,-53.71759 -16.3938,-80.61942 2.68724,0.29531 5.54017,0.17706 8.556,-0.45655 34.00282,-7.14439 70.17642,-0.24146 104.51436,-7.22874 56.86286,-13.26019 117.29489,-20.22836 169.93342,-51.81861 6.16182,-4.22158 13.83527,-15.21609 11.89721,-22.78954 -5.55173,-21.69444 -33.54163,-19.52266 -51.64827,-26.74632 -72.67613,-0.46674 -157.40079,28.81028 -229.35702,47.89988 -7.02552,4.25915 -15.91729,9.57289 -23.07623,16.39782 -8.10171,-38.14089 -17.07215,-75.957 -28.54082,-112.88241 -7.48008,-27.38966 -18.78141,-56.69513 -9.18052,-85.52735 21.72845,-31.82827 -13.80074,-70.90109 -39.34512,-83.35873 -9.17925,-4.75304 -25.23951,-10.81134 -30.16458,-4.26115 -13.69295,18.2112 4.15802,52.30062 14.33286,74.83643 16.37782,138.57146 47.72579,279.43231 57.61249,418.92423 7.3426,13.59165 21.71812,37.37961 35.75409,31.80643 2.24324,1.60612 4.73199,2.95652 7.43185,3.99483 85.67242,-1.20716 172.89773,-32.05922 259.67775,-40.48092 18.24746,-0.0923 37.04796,5.12526 55.08316,2.35885 -3.34251,17.4211 -6.13022,34.94498 -8.21251,52.61759 19.01432,17.46555 59.07597,21.27582 75.34901,11.71816 22.74372,-13.35809 40.18576,-45.45907 46.9331,-78.56494 48.91292,-138.97241 68.96,-294.0492 96.86392,-441.37136 5.81937,-22.65836 -2.98874,-41.94731 -12.45929,-60.30287 -15.73124,-45.32421 -50.71545,-77.79666 -87.90197,-72.85804 z"
       id="path3856"
       sodipodi:nodetypes="cccccscccccccccsccsccccccscccccccscccs" />
  </g>
</svg>
