<?xml version="1.0" encoding="UTF-8" standalone="no"?>
<!-- Created with Inkscape (http://www.inkscape.org/) -->

<svg
   xmlns:dc="http://purl.org/dc/elements/1.1/"
   xmlns:cc="http://creativecommons.org/ns#"
   xmlns:rdf="http://www.w3.org/1999/02/22-rdf-syntax-ns#"
   xmlns:svg="http://www.w3.org/2000/svg"
   xmlns="http://www.w3.org/2000/svg"
   xmlns:sodipodi="http://sodipodi.sourceforge.net/DTD/sodipodi-0.dtd"
   xmlns:inkscape="http://www.inkscape.org/namespaces/inkscape"
   width="1000"
   height="1000"
   id="svg3173"
   version="1.1"
   inkscape:version="0.47 r22583"
   sodipodi:docname="66f8.svg"
   inkscape:export-filename="E:\chinese\yan\66f8.png"
   inkscape:export-xdpi="18.005705"
   inkscape:export-ydpi="18.005705">
  <title
     id="title6559">Shu</title>
  <defs
     id="defs3175">
    <inkscape:perspective
       sodipodi:type="inkscape:persp3d"
       inkscape:vp_x="0 : 526.18109 : 1"
       inkscape:vp_y="0 : 1000 : 0"
       inkscape:vp_z="744.09448 : 526.18109 : 1"
       inkscape:persp3d-origin="372.04724 : 350.78739 : 1"
       id="perspective3181" />
    <inkscape:perspective
       id="perspective3191"
       inkscape:persp3d-origin="0.5 : 0.33333333 : 1"
       inkscape:vp_z="1 : 0.5 : 1"
       inkscape:vp_y="0 : 1000 : 0"
       inkscape:vp_x="0 : 0.5 : 1"
       sodipodi:type="inkscape:persp3d" />
    <inkscape:perspective
       id="perspective4006"
       inkscape:persp3d-origin="0.5 : 0.33333333 : 1"
       inkscape:vp_z="1 : 0.5 : 1"
       inkscape:vp_y="0 : 1000 : 0"
       inkscape:vp_x="0 : 0.5 : 1"
       sodipodi:type="inkscape:persp3d" />
    <inkscape:perspective
       id="perspective4034"
       inkscape:persp3d-origin="0.5 : 0.33333333 : 1"
       inkscape:vp_z="1 : 0.5 : 1"
       inkscape:vp_y="0 : 1000 : 0"
       inkscape:vp_x="0 : 0.5 : 1"
       sodipodi:type="inkscape:persp3d" />
    <inkscape:perspective
       id="perspective4081"
       inkscape:persp3d-origin="0.5 : 0.33333333 : 1"
       inkscape:vp_z="1 : 0.5 : 1"
       inkscape:vp_y="0 : 1000 : 0"
       inkscape:vp_x="0 : 0.5 : 1"
       sodipodi:type="inkscape:persp3d" />
    <inkscape:perspective
       id="perspective4147"
       inkscape:persp3d-origin="0.5 : 0.33333333 : 1"
       inkscape:vp_z="1 : 0.5 : 1"
       inkscape:vp_y="0 : 1000 : 0"
       inkscape:vp_x="0 : 0.5 : 1"
       sodipodi:type="inkscape:persp3d" />
    <inkscape:perspective
       id="perspective3758"
       inkscape:persp3d-origin="0.5 : 0.33333333 : 1"
       inkscape:vp_z="1 : 0.5 : 1"
       inkscape:vp_y="0 : 1000 : 0"
       inkscape:vp_x="0 : 0.5 : 1"
       sodipodi:type="inkscape:persp3d" />
    <inkscape:perspective
       id="perspective3719"
       inkscape:persp3d-origin="0.5 : 0.33333333 : 1"
       inkscape:vp_z="1 : 0.5 : 1"
       inkscape:vp_y="0 : 1000 : 0"
       inkscape:vp_x="0 : 0.5 : 1"
       sodipodi:type="inkscape:persp3d" />
    <inkscape:perspective
       id="perspective3803"
       inkscape:persp3d-origin="0.5 : 0.33333333 : 1"
       inkscape:vp_z="1 : 0.5 : 1"
       inkscape:vp_y="0 : 1000 : 0"
       inkscape:vp_x="0 : 0.5 : 1"
       sodipodi:type="inkscape:persp3d" />
    <inkscape:perspective
       id="perspective3801"
       inkscape:persp3d-origin="0.5 : 0.33333333 : 1"
       inkscape:vp_z="1 : 0.5 : 1"
       inkscape:vp_y="0 : 1000 : 0"
       inkscape:vp_x="0 : 0.5 : 1"
       sodipodi:type="inkscape:persp3d" />
    <inkscape:perspective
       id="perspective3838"
       inkscape:persp3d-origin="0.5 : 0.33333333 : 1"
       inkscape:vp_z="1 : 0.5 : 1"
       inkscape:vp_y="0 : 1000 : 0"
       inkscape:vp_x="0 : 0.5 : 1"
       sodipodi:type="inkscape:persp3d" />
    <inkscape:perspective
       id="perspective3862"
       inkscape:persp3d-origin="0.5 : 0.33333333 : 1"
       inkscape:vp_z="1 : 0.5 : 1"
       inkscape:vp_y="0 : 1000 : 0"
       inkscape:vp_x="0 : 0.5 : 1"
       sodipodi:type="inkscape:persp3d" />
    <inkscape:perspective
       id="perspective3917"
       inkscape:persp3d-origin="0.5 : 0.33333333 : 1"
       inkscape:vp_z="1 : 0.5 : 1"
       inkscape:vp_y="0 : 1000 : 0"
       inkscape:vp_x="0 : 0.5 : 1"
       sodipodi:type="inkscape:persp3d" />
    <inkscape:perspective
       id="perspective6545"
       inkscape:persp3d-origin="0.5 : 0.33333333 : 1"
       inkscape:vp_z="1 : 0.5 : 1"
       inkscape:vp_y="0 : 1000 : 0"
       inkscape:vp_x="0 : 0.5 : 1"
       sodipodi:type="inkscape:persp3d" />
    <inkscape:perspective
       id="perspective3945"
       inkscape:persp3d-origin="0.5 : 0.33333333 : 1"
       inkscape:vp_z="1 : 0.5 : 1"
       inkscape:vp_y="0 : 1000 : 0"
       inkscape:vp_x="0 : 0.5 : 1"
       sodipodi:type="inkscape:persp3d" />
  </defs>
  <sodipodi:namedview
     id="base"
     pagecolor="#ffffff"
     bordercolor="#666666"
     borderopacity="1.0"
     inkscape:pageopacity="0.0"
     inkscape:pageshadow="2"
     inkscape:zoom="0.49497475"
     inkscape:cx="571.51329"
     inkscape:cy="512.69615"
     inkscape:document-units="px"
     inkscape:current-layer="g4143"
     showgrid="false"
     inkscape:window-width="1440"
     inkscape:window-height="840"
     inkscape:window-x="-4"
     inkscape:window-y="-4"
     inkscape:window-maximized="1" />
  <metadata
     id="metadata3178">
    <rdf:RDF>
      <cc:Work
         rdf:about="">
        <dc:format>image/svg+xml</dc:format>
        <dc:type
           rdf:resource="http://purl.org/dc/dcmitype/StillImage" />
        <dc:title>Shu</dc:title>
        <dc:date>2010-08-14</dc:date>
        <dc:creator>
          <cc:Agent>
            <dc:title>Alex Amies</dc:title>
          </cc:Agent>
        </dc:creator>
        <dc:rights>
          <cc:Agent>
            <dc:title>@ Alex Amies 2010</dc:title>
          </cc:Agent>
        </dc:rights>
        <dc:publisher>
          <cc:Agent>
            <dc:title>chinesenotes.com</dc:title>
          </cc:Agent>
        </dc:publisher>
        <dc:source>Yan Qin Ceremonial Inscription</dc:source>
        <dc:language>Chinese 中文</dc:language>
        <dc:description>Tracing from Tang Dynasty Ceremonial Inscription by Yan Zhenqing 颜真卿 (709－785)</dc:description>
        <cc:license
           rdf:resource="http://creativecommons.org/licenses/by/3.0/" />
      </cc:Work>
      <cc:License
         rdf:about="http://creativecommons.org/licenses/by/3.0/">
        <cc:permits
           rdf:resource="http://creativecommons.org/ns#Reproduction" />
        <cc:permits
           rdf:resource="http://creativecommons.org/ns#Distribution" />
        <cc:requires
           rdf:resource="http://creativecommons.org/ns#Notice" />
        <cc:requires
           rdf:resource="http://creativecommons.org/ns#Attribution" />
        <cc:permits
           rdf:resource="http://creativecommons.org/ns#DerivativeWorks" />
      </cc:License>
    </rdf:RDF>
  </metadata>
  <g
     inkscape:label="Layer 1"
     inkscape:groupmode="layer"
     id="layer1"
     transform="translate(0,-52.362183)">
    <g
       transform="matrix(4.7609464,0,0,4.7609464,-1421.6669,-3910.0295)"
       id="g4143"
       style="fill:#000000;fill-opacity:1">
      <g
         transform="matrix(0.99759294,0,0,0.99759294,-247.18355,401.76444)"
         id="g4100"
         style="fill:none;fill-opacity:1">
        <path
           style="fill:#000000;stroke:#000000;stroke-width:4.74948645000000000px;stroke-linecap:butt;stroke-linejoin:miter;stroke-opacity:1;fill-opacity:1"
           d="M 455.21875 1.78125 C 440.19508 2.219898 426.64685 9.7321972 412.34375 14.0625 C 400.86046 53.109086 411.55452 93.276473 413.53125 133.0625 C 408.51051 133.42954 403.49729 133.76026 398.46875 134.03125 C 376.54422 132.13796 354.61227 130.38445 332.625 129.40625 C 312.67454 133.90036 320.46746 156.61037 336.1875 161.21875 C 353.69938 171.29355 347.38496 206.27061 372.40625 199 C 386.20525 192.79119 400.55489 187.98187 415.25 184.09375 C 416.20605 207.37848 417.10362 230.67632 417.90625 253.96875 C 363.80607 263.3106 309.85231 273.67024 256.09375 284.65625 C 227.38543 286.30513 198.28662 281.08555 169.78125 287.15625 C 142.4945 298.65286 137.78957 334.86716 149.5625 358.71875 C 167.39103 370.49463 190.52555 362.19639 209.6875 357.4375 C 274.25895 342.68583 334.78239 313.05912 400.625 303.0625 C 406.87417 301.8267 413.12549 300.58547 419.375 299.34375 C 420.11205 323.86018 420.75445 348.38576 421.3125 372.90625 C 411.24256 376.10391 401.13298 379.14805 390.9375 381.875 C 385.68371 383.28018 378.97503 382.35722 375.03125 385.53125 C 369.4042 390.05998 365.07866 397.77745 364 405.9375 C 363.94966 420.83954 381.55453 425.99744 394.1875 425 C 403.51403 423.28357 412.87487 421.89046 422.28125 420.65625 C 422.65891 441.76106 422.94911 462.86422 423.1875 483.96875 C 390.08602 492.64431 357.02894 501.5772 324.125 511.0625 C 317.90631 512.76187 310.38309 512.38226 305.46875 516.15625 C 296.12428 523.33239 302.56218 537.93232 315.0625 539.90625 C 332.90851 542.72431 351.53538 546.64362 368.90625 543 C 385.5286 539.51335 400.53909 529.17328 417.9375 526.78125 C 419.82551 526.52168 421.70723 526.24017 423.59375 525.96875 C 423.64108 532.90599 423.68699 539.8443 423.71875 546.78125 C 422.4059 556.31961 422.61546 565.80561 423.6875 575.21875 C 381.77036 583.12379 339.78234 590.64264 297.5625 596.78125 C 277.34356 600.46823 257.61877 606.44129 237.625 611.15625 C 224.9717 621.24592 224.35325 641.00672 238.875 649.78125 C 253.30128 659.67206 271.08603 658.88774 287.21875 654.03125 C 320.0586 647.35295 353.50934 641.49207 383.96875 626.90625 C 399.73288 622.28881 415.6357 618.08092 431.625 614.1875 C 441.59318 634.44155 470.09507 641.88811 488.875 630 C 503.73762 621.33144 524.23507 612.76697 525.875 595.1875 C 548.93677 591.43964 572.07529 588.2977 595.21875 585.65625 C 617.91237 584.74378 640.73097 583.05918 663.375 585.6875 C 676.70662 577.3758 691.20473 562.89906 685.9375 545.84375 C 680.22301 531.4671 663.211 523.26338 647.75 526.25 C 623.45419 525.61504 600.15451 534.23453 576.9375 540.3125 C 560.11973 546.61379 543.01748 552.03001 525.53125 555.9375 C 525.71803 540.20112 525.69155 524.4541 525.5 508.71875 C 534.5519 507.22899 543.63685 505.83177 552.71875 504.5625 C 576.4024 501.25249 600.76561 505.36458 624.03125 502.03125 C 630.7626 501.06682 640.09654 499.48038 643.03125 494.09375 C 650.62197 474.17227 647.35498 448.63647 627.75 438.125 C 612.58551 435.32518 594.60832 439.785 578.40625 444.40625 C 560.40129 448.98162 542.40927 453.48739 524.40625 458.03125 C 523.9438 442.37851 523.4045 426.71435 522.8125 411.0625 C 526.67635 410.68216 530.54948 410.29862 534.40625 409.875 C 558.4861 407.23011 582.81605 408.05023 606.8125 405.625 C 613.3714 404.96211 620.95842 404.53197 626.0625 400.8125 C 634.33644 394.78307 629.08105 383.1215 627.5625 373.71875 C 626.25209 365.60504 621.04815 359.12624 615.0625 354.46875 C 617.66799 347.46255 620.22274 340.42367 624.15625 334.6875 C 639.88673 310.75027 650.45614 284.34803 660.5 257.75 C 701.86842 255.00221 743.29643 253.7438 784.375 261.09375 C 811.01136 267.6147 776.13866 313.87358 803 311.09375 C 823.9877 307.16797 845.9968 299.93903 859.125 282.28125 C 877.23204 257.29311 865.40834 225.33953 845.21875 205.125 C 818.89339 186.85615 788.44505 188.15917 758.34375 194.125 C 729.70525 200.1668 704.1258 216.40697 675.0625 219.71875 C 679.29097 209.21808 683.79038 198.85664 688.84375 188.78125 C 699.85144 185.09194 721.28129 187.71053 722.34375 173.0625 C 720.44709 152.49931 701.721 140.00238 689.46875 125.25 C 676.49201 115.19158 664.35339 96.670855 647.90625 95.28125 C 630.68798 99.789415 616.68393 115.32097 598.5625 114.03125 C 572.73241 115.41644 547.00203 118.14707 521.3125 121.21875 C 522.43566 95.560626 523.41783 69.653137 519.78125 44.34375 C 512.24628 20.477058 487.53605 -0.36434513 461.75 2.0625 C 459.53705 1.8069539 457.36499 1.718586 455.21875 1.78125 z M 602.96875 160.6875 C 610.31295 160.53186 615.09335 163.4039 609.625 174.375 C 607.54219 192.68152 602.78347 210.1986 597 227.40625 C 570.54863 230.61412 544.14931 234.17938 517.78125 238.03125 C 517.69801 213.9554 518.04201 189.88702 519.03125 165.8125 C 523.96503 165.06309 528.89703 164.28201 533.78125 163.46875 C 550.10367 165.4007 566.79709 171.13013 582.875 164.6875 C 588.00901 163.32677 596.48857 160.82483 602.96875 160.6875 z M 582.625 266.6875 C 577.38222 280.68656 572.30078 294.75544 568.3125 309.125 C 572.11382 324.6144 548.18622 329.05564 550.5625 342.625 C 540.54233 343.35968 530.54821 344.58661 520.65625 346.59375 C 520.54203 346.61693 520.42676 346.63322 520.3125 346.65625 C 519.48591 324.28988 518.75125 301.92741 518.28125 279.5625 C 539.74073 275.25685 561.17631 270.96029 582.625 266.6875 z "
           transform="matrix(0.21054908,0,0,0.21054908,547.11062,431.54407)"
           id="path4041" />
        <path
           style="fill:#000000;stroke:#000000;stroke-width:4.74948645000000000px;stroke-linecap:butt;stroke-linejoin:miter;stroke-opacity:1;fill-opacity:1"
           d="M 690.625 608.40625 C 688.4563 608.38536 686.16628 608.64161 683.75 609.1875 C 663.19294 612.68265 645.25748 626.55233 623.6875 624.9375 C 599.61891 624.50672 575.32412 623.14785 551.78125 629.5 C 512.6784 637.66864 473.64057 646.03029 434.40625 653.5625 C 412.31758 658.93241 404.7684 693.51796 424.4375 706.21875 C 463.42214 705.16313 507.21182 691.98251 542.8125 674.84375 C 571.18304 663.61378 603.01561 661.14375 632.5625 668.71875 C 649.73147 678.48517 647.69606 703.06092 641.09375 718.84375 C 623.49226 772.28187 604.69841 825.34796 588.65625 879.28125 C 582.71522 875.10443 575.4868 872.33595 567.71875 871.0625 C 506.37092 861.05305 443.50454 874.40403 386.28125 897.09375 C 384.9958 897.88505 383.74967 898.73401 382.5625 899.59375 C 382.05013 893.73662 381.51971 887.87325 380.90625 882.03125 C 376.43133 859.43297 370.73843 835.80091 363.625 812.5625 C 372.65813 817.47912 383.74364 818.66796 394.15625 818.09375 C 431.86793 817.63447 493.17068 830.16416 522.65625 798.59375 C 530.84546 778.49739 510.3789 757.45524 490.21875 758.875 C 452.89771 759.57769 417.56191 773.48175 381.375 781.125 C 369.81995 782.32112 363.60588 786.61549 357.4375 793.5625 C 346.93229 763.19742 333.77621 734.22788 317.34375 709.96875 C 305.77258 699.5175 290.28591 702.6278 276.46875 699.03125 C 265.4745 694.09307 255.91733 683.70672 242.8125 685.78125 L 241.03125 685.78125 C 230.39834 699.38839 245.59784 713.20891 251.0625 725.34375 C 291.15235 793.27746 309.98455 870.41056 339.53125 942.875 C 345.84669 952.87381 351.31663 963.8709 361.34375 970.65625 C 366.14985 976.82745 373.55366 975.25588 380.03125 973.6875 C 388.20281 974.59589 387.35024 968.11734 386.59375 961.8125 C 391.32811 964.30071 396.31671 965.96434 401.9375 965.28125 C 445.99977 951.61357 489.68665 935.63881 536.1875 941.8125 C 537.35219 950.62633 537.72116 959.5435 536.75 968.625 C 535.44228 984.92348 547.20462 1008.8646 566.0625 996.40625 C 588.50715 986.66087 610.74868 974.8903 628.90625 958.34375 C 655.34161 931.75156 665.1813 894.53846 681.21875 861.6875 C 708.60153 795.42623 748.98891 724.11888 728.375 650.8125 C 721.41873 633.62316 711.58911 608.60819 690.625 608.40625 z "
           transform="matrix(0.21054908,0,0,0.21054908,547.11062,431.54407)"
           id="path4053" />
      </g>
    </g>
  </g>
</svg>
