<?xml version="1.0" encoding="UTF-8" standalone="no"?>
<!-- Created with Inkscape (http://www.inkscape.org/) -->

<svg
   xmlns:dc="http://purl.org/dc/elements/1.1/"
   xmlns:cc="http://creativecommons.org/ns#"
   xmlns:rdf="http://www.w3.org/1999/02/22-rdf-syntax-ns#"
   xmlns:svg="http://www.w3.org/2000/svg"
   xmlns="http://www.w3.org/2000/svg"
   xmlns:sodipodi="http://sodipodi.sourceforge.net/DTD/sodipodi-0.dtd"
   xmlns:inkscape="http://www.inkscape.org/namespaces/inkscape"
   width="1000"
   height="1000"
   id="svg3173"
   version="1.1"
   inkscape:version="0.47 r22583"
   sodipodi:docname="66fe.svg"
   inkscape:export-filename="E:\chinese\yan\66fe.png"
   inkscape:export-xdpi="18.005705"
   inkscape:export-ydpi="18.005705">
  <title
     id="title4898">Ceng</title>
  <defs
     id="defs3175">
    <inkscape:perspective
       sodipodi:type="inkscape:persp3d"
       inkscape:vp_x="0 : 526.18109 : 1"
       inkscape:vp_y="0 : 1000 : 0"
       inkscape:vp_z="744.09448 : 526.18109 : 1"
       inkscape:persp3d-origin="372.04724 : 350.78739 : 1"
       id="perspective3181" />
    <inkscape:perspective
       id="perspective3191"
       inkscape:persp3d-origin="0.5 : 0.33333333 : 1"
       inkscape:vp_z="1 : 0.5 : 1"
       inkscape:vp_y="0 : 1000 : 0"
       inkscape:vp_x="0 : 0.5 : 1"
       sodipodi:type="inkscape:persp3d" />
    <inkscape:perspective
       id="perspective4006"
       inkscape:persp3d-origin="0.5 : 0.33333333 : 1"
       inkscape:vp_z="1 : 0.5 : 1"
       inkscape:vp_y="0 : 1000 : 0"
       inkscape:vp_x="0 : 0.5 : 1"
       sodipodi:type="inkscape:persp3d" />
    <inkscape:perspective
       id="perspective4034"
       inkscape:persp3d-origin="0.5 : 0.33333333 : 1"
       inkscape:vp_z="1 : 0.5 : 1"
       inkscape:vp_y="0 : 1000 : 0"
       inkscape:vp_x="0 : 0.5 : 1"
       sodipodi:type="inkscape:persp3d" />
    <inkscape:perspective
       id="perspective4081"
       inkscape:persp3d-origin="0.5 : 0.33333333 : 1"
       inkscape:vp_z="1 : 0.5 : 1"
       inkscape:vp_y="0 : 1000 : 0"
       inkscape:vp_x="0 : 0.5 : 1"
       sodipodi:type="inkscape:persp3d" />
    <inkscape:perspective
       id="perspective4147"
       inkscape:persp3d-origin="0.5 : 0.33333333 : 1"
       inkscape:vp_z="1 : 0.5 : 1"
       inkscape:vp_y="0 : 1000 : 0"
       inkscape:vp_x="0 : 0.5 : 1"
       sodipodi:type="inkscape:persp3d" />
    <inkscape:perspective
       id="perspective3797"
       inkscape:persp3d-origin="0.5 : 0.33333333 : 1"
       inkscape:vp_z="1 : 0.5 : 1"
       inkscape:vp_y="0 : 1000 : 0"
       inkscape:vp_x="0 : 0.5 : 1"
       sodipodi:type="inkscape:persp3d" />
    <inkscape:perspective
       id="perspective3104"
       inkscape:persp3d-origin="0.5 : 0.33333333 : 1"
       inkscape:vp_z="1 : 0.5 : 1"
       inkscape:vp_y="0 : 1000 : 0"
       inkscape:vp_x="0 : 0.5 : 1"
       sodipodi:type="inkscape:persp3d" />
    <inkscape:perspective
       id="perspective3140"
       inkscape:persp3d-origin="0.5 : 0.33333333 : 1"
       inkscape:vp_z="1 : 0.5 : 1"
       inkscape:vp_y="0 : 1000 : 0"
       inkscape:vp_x="0 : 0.5 : 1"
       sodipodi:type="inkscape:persp3d" />
    <inkscape:perspective
       id="perspective3799"
       inkscape:persp3d-origin="0.5 : 0.33333333 : 1"
       inkscape:vp_z="1 : 0.5 : 1"
       inkscape:vp_y="0 : 1000 : 0"
       inkscape:vp_x="0 : 0.5 : 1"
       sodipodi:type="inkscape:persp3d" />
    <inkscape:perspective
       id="perspective3835"
       inkscape:persp3d-origin="0.5 : 0.33333333 : 1"
       inkscape:vp_z="1 : 0.5 : 1"
       inkscape:vp_y="0 : 1000 : 0"
       inkscape:vp_x="0 : 0.5 : 1"
       sodipodi:type="inkscape:persp3d" />
    <inkscape:perspective
       id="perspective3862"
       inkscape:persp3d-origin="0.5 : 0.33333333 : 1"
       inkscape:vp_z="1 : 0.5 : 1"
       inkscape:vp_y="0 : 1000 : 0"
       inkscape:vp_x="0 : 0.5 : 1"
       sodipodi:type="inkscape:persp3d" />
    <inkscape:perspective
       id="perspective3895"
       inkscape:persp3d-origin="0.5 : 0.33333333 : 1"
       inkscape:vp_z="1 : 0.5 : 1"
       inkscape:vp_y="0 : 1000 : 0"
       inkscape:vp_x="0 : 0.5 : 1"
       sodipodi:type="inkscape:persp3d" />
    <inkscape:perspective
       id="perspective3921"
       inkscape:persp3d-origin="0.5 : 0.33333333 : 1"
       inkscape:vp_z="1 : 0.5 : 1"
       inkscape:vp_y="0 : 1000 : 0"
       inkscape:vp_x="0 : 0.5 : 1"
       sodipodi:type="inkscape:persp3d" />
    <inkscape:perspective
       id="perspective3945"
       inkscape:persp3d-origin="0.5 : 0.33333333 : 1"
       inkscape:vp_z="1 : 0.5 : 1"
       inkscape:vp_y="0 : 1000 : 0"
       inkscape:vp_x="0 : 0.5 : 1"
       sodipodi:type="inkscape:persp3d" />
  </defs>
  <sodipodi:namedview
     id="base"
     pagecolor="#ffffff"
     bordercolor="#666666"
     borderopacity="1.0"
     inkscape:pageopacity="0.0"
     inkscape:pageshadow="2"
     inkscape:zoom="0.49497475"
     inkscape:cx="637.59461"
     inkscape:cy="519.65337"
     inkscape:document-units="px"
     inkscape:current-layer="g5879"
     showgrid="false"
     inkscape:window-width="1440"
     inkscape:window-height="840"
     inkscape:window-x="-4"
     inkscape:window-y="-4"
     inkscape:window-maximized="1" />
  <metadata
     id="metadata3178">
    <rdf:RDF>
      <cc:Work
         rdf:about="">
        <dc:format>image/svg+xml</dc:format>
        <dc:type
           rdf:resource="http://purl.org/dc/dcmitype/StillImage" />
        <dc:title>Ceng</dc:title>
        <dc:date>2010-08-12</dc:date>
        <dc:creator>
          <cc:Agent>
            <dc:title>Alex Amies</dc:title>
          </cc:Agent>
        </dc:creator>
        <dc:rights>
          <cc:Agent>
            <dc:title>@ Alex Amies 2010</dc:title>
          </cc:Agent>
        </dc:rights>
        <dc:publisher>
          <cc:Agent>
            <dc:title>chinesenotes.com</dc:title>
          </cc:Agent>
        </dc:publisher>
        <dc:source>Yan Qin Ceremonial Inscription</dc:source>
        <dc:language>Chinese 中文</dc:language>
        <dc:description>Tracing from Tang Dynasty Ceremonial Inscription by Yan Zhenqing 颜真卿 (709－785)</dc:description>
        <cc:license
           rdf:resource="http://creativecommons.org/licenses/by/3.0/" />
      </cc:Work>
      <cc:License
         rdf:about="http://creativecommons.org/licenses/by/3.0/">
        <cc:permits
           rdf:resource="http://creativecommons.org/ns#Reproduction" />
        <cc:permits
           rdf:resource="http://creativecommons.org/ns#Distribution" />
        <cc:requires
           rdf:resource="http://creativecommons.org/ns#Notice" />
        <cc:requires
           rdf:resource="http://creativecommons.org/ns#Attribution" />
        <cc:permits
           rdf:resource="http://creativecommons.org/ns#DerivativeWorks" />
      </cc:License>
    </rdf:RDF>
  </metadata>
  <g
     inkscape:label="Layer 1"
     inkscape:groupmode="layer"
     id="layer1"
     transform="translate(0,-52.362183)">
    <path
       style="fill:#000000;stroke:#000000;stroke-width:4.73223686000000040px;stroke-linecap:butt;stroke-linejoin:miter;stroke-opacity:1;fill-opacity:1"
       d="m 369.84328,287.58699 0,0 z"
       id="path5819" />
    <g
       transform="matrix(4.7322369,0,0,4.7322369,-536.04205,-3955.5633)"
       id="g5879"
       style="fill:#000000;fill-opacity:1">
      <path
         sodipodi:nodetypes="cccssccss"
         style="fill:#000000;stroke:#000000;stroke-width:0.97457558000000000px;stroke-linecap:butt;stroke-linejoin:miter;stroke-opacity:1;fill-opacity:1"
         d="m 179.04104,855.05392 c -0.71709,-0.15589 -2.09858,0.36649 -2.08838,1.04418 0.82209,6.57369 3.76737,13.07495 6.92282,18.88445 1.68162,2.75394 3.29791,5.84898 5.60744,7.91638 1.41595,1.26752 3.81245,2.08838 5.569,2.08838 1.02795,0 2.50867,-1.04022 2.7845,-2.08838 1.31811,-6.26733 1.68918,-13.6302 -2.08838,-19.14345 -2.05199,-2.41414 -5.48618,-3.97431 -8.50279,-5.41988 -2.65103,-1.27039 -5.49044,-2.69174 -8.20421,-3.28168 z"
         id="path4786" />
      <path
         sodipodi:nodetypes="csccssscccc"
         style="fill:#000000;stroke:#000000;stroke-width:0.97457558000000000px;stroke-linecap:butt;stroke-linejoin:miter;stroke-opacity:1;fill-opacity:1"
         d="m 227.76982,849.48492 c -0.59878,1.13104 0.94783,3.44168 0.34806,4.87288 -1.35252,3.2274 -4.65191,5.76085 -6.07163,9.19512 -2.65069,4.90704 -5.00999,10.16818 -3.67413,15.86539 0.43382,1.12618 2.90579,1.91981 4.17675,1.39224 4.87814,-2.02489 9.22831,-6.83408 14.27058,-9.04962 2.6151,-1.14907 6.10362,-0.0629 8.70156,-1.04419 1.55677,-0.58802 3.17833,-2.12522 3.8472,-3.6194 2.54946,-5.37745 -1.88172,-10.1993 -5.58751,-13.78373 -2.28159,-1.99447 -5.43863,-3.26796 -8.37443,-4.23353 -2.55023,-0.77577 -5.37208,-1.09316 -7.63645,0.40484 z"
         id="path4788" />
      <path
         style="fill:#000000;stroke:#000000;stroke-width:4.61192273999999980px;stroke-linecap:butt;stroke-linejoin:miter;stroke-opacity:1;fill-opacity:1"
         d="M 701.6875 142.15625 C 689.77428 142.21769 677.72421 143.1821 665.875 144.09375 C 596.59164 157.72903 527.46352 172.92789 457.40625 182.625 C 405.84905 191.42332 354.30392 202.05557 301.6875 199.1875 C 285.66383 199.34678 269.57201 199.70714 253.65625 201.65625 C 253.62267 201.59466 253.59654 201.53007 253.5625 201.46875 C 243.29842 184.20626 223.38632 181.34664 205.8125 181.6875 C 195.49622 193.63626 194.63952 215.59314 199.5 232.59375 C 220.4711 305.94479 233.31929 381.60437 255.75 454.5625 C 262.98904 482.8909 278.57969 501.40004 308.875 499.15625 C 316.08508 498.09703 330.72599 496.54948 329.34375 489.6875 C 328.94045 487.68539 328.52156 485.69977 328.09375 483.6875 C 357.08683 484.42306 389.03729 474.2701 418.84375 470.46875 C 475.75841 463.21016 532.13832 451.81473 588.1875 439.5625 C 592.70456 438.57508 598.14198 437.9552 603.71875 437.375 C 610.8334 466.39293 645.8205 487.90939 669.53125 461.125 C 718.45094 393.94801 766.24535 325.86543 808.875 254.46875 C 820.8345 219.41948 812.64716 178.12133 774.46875 164.78125 C 753.39975 146.2353 727.89658 142.02109 701.6875 142.15625 z M 703.25 189.9375 C 706.63762 228.73484 676.27888 260.9809 664.34375 296.8125 C 648.81262 330.83489 632.98206 364.76664 615.375 397.71875 C 613.51053 396.5651 611.61881 395.58386 609.71875 394.875 C 602.63928 392.23384 596.96421 384.64379 589.59375 384.28125 C 564.51663 383.04779 538.08483 387.14403 512.90625 393.90625 C 508.79803 395.00959 504.67407 396.11238 500.5625 397.21875 C 500.96917 387.71839 499.96656 378.06704 500.3125 368.5625 C 500.18438 355.50027 500.47171 342.33588 500.8125 329.15625 C 526.27878 327.17294 549.65094 323.25481 563.21875 313.46875 C 573.45765 306.08372 547.46655 275.25685 530.6875 273 C 521.48867 271.76271 511.58206 275.56169 501.59375 279.4375 C 501.46572 264.23973 500.81042 249.18277 499 234.40625 C 496.45956 225.10845 493.6425 217.13224 489.71875 211.03125 C 516.3793 206.74326 543.08421 202.7752 569.875 199.46875 C 614.26352 195.53503 658.65354 190.66201 703.25 189.9375 z M 429.0625 221.3125 C 428.26266 226.0963 427.9715 231.50927 428.09375 237.53125 C 428.36893 256.87148 428.86125 276.22902 429.46875 295.5625 C 405.40451 299.79305 381.52749 304.58607 359 313.46875 C 339.8149 321.03356 345.07383 348.98543 366.96875 350.71875 C 388.57789 352.42945 408.32184 335.40463 430.78125 332.8125 C 431.62961 355.83026 432.53102 378.85863 433.34375 401.875 C 432.94141 406.66424 433.16007 410.9062 433.875 414.71875 C 409.55168 420.78508 385.12379 426.37948 360.5625 430.9375 C 346.24012 433.5954 329.65337 431.97476 315.625 433.84375 C 299.03867 374.76986 276.57127 312.92079 261.34375 252.6875 C 261.24088 252.28057 261.15573 251.88014 261.0625 251.46875 C 271.54717 252.95467 282.67336 251.52433 291.4375 245.9375 C 337.34603 238.04264 383.15906 229.42457 429.0625 221.3125 z "
         transform="matrix(0.21131656,0,0,0.21131656,113.27456,846.94101)"
         id="path4790" />
      <path
         style="fill:#000000;stroke:#000000;stroke-width:4.61192273999999980px;stroke-linecap:butt;stroke-linejoin:miter;stroke-opacity:1;fill-opacity:1"
         d="M 605.125 507.3125 C 573.07739 528.7951 535.74394 537.63725 498 543.53125 C 453.66759 552.49399 409.33493 561.49395 365.375 572.15625 C 362.21811 569.04241 358.85975 566.18708 355.3125 563.625 C 351.46046 560.84278 346.8399 555.99064 342.53125 557.21875 C 324.04685 562.48753 321.62281 588.44666 324.6875 606.5 C 346.67068 701.31103 354.83739 798.55555 372.90625 894.0625 C 374.85688 901.47508 376.79937 908.9004 378.75 916.3125 C 385.75901 914.17779 396.74369 918.50145 399.8125 909.96875 C 402.71463 907.16542 404.62271 904.10865 405.84375 900.90625 C 411.58348 900.32266 417.42282 898.88392 422.5625 896.78125 C 436.70205 890.99656 451.58815 887.53302 466.84375 885.59375 C 499.88456 881.39342 533.27031 877.79926 565.78125 870.96875 C 571.83968 870.31756 577.193 869.20766 581.71875 867.46875 C 580.5924 877.75981 579.37691 888.05343 577.96875 898.3125 C 562.81845 924.84379 571.53466 965.10555 596.5 981.34375 C 634.15763 1007.3819 664.82898 967.14017 678.90625 935.4375 C 687.27128 912.01293 687.07662 885.64267 692.0625 861.03125 C 704.4365 789.99706 691.93677 716.8528 701.34375 645.90625 C 705.78827 612.3863 695.19516 581.49969 678.28125 555.96875 C 662.95159 532.82911 632.60169 516.10481 605.125 507.3125 z M 570.3125 562.5 C 600.48606 562.33394 589.58696 604.42673 594.4375 625.59375 C 591.89733 692.7538 590.8773 760.23349 585.53125 827.25 C 580.93095 825.09103 575.84709 823.78591 571.46875 824.0625 C 517.93334 835.04423 458.11521 836.0236 403.09375 851.03125 C 398.46878 814.11558 396.90475 776.95424 395.6875 739.78125 C 422.90359 743.63829 452.39315 743.30755 479.21875 738.40625 C 497.48798 733.02333 514.5213 721.36702 522.0625 703.8125 C 522.59024 696.03067 517.56913 682.1789 510.53125 679.125 C 473.1941 677.02377 431.59225 682.80652 394.09375 692.5 C 393.87238 686.6487 393.6464 680.81568 393.375 674.96875 C 392.78286 656.59281 395.85456 637.47193 391.9375 619.8125 C 390.7576 614.49301 389.03096 609.18448 386.84375 604 C 397.52443 602.23549 408.13663 599.09412 415.25 596.3125 C 466.27104 584.38073 517.55425 572.81101 568.84375 562.5625 C 569.34361 562.53832 569.83355 562.50264 570.3125 562.5 z "
         transform="matrix(0.21131656,0,0,0.21131656,113.27456,846.94101)"
         id="path4796" />
    </g>
    <path
       style="fill:#000000;stroke:#000000;stroke-width:4.73223686000000040px;stroke-linecap:butt;stroke-linejoin:miter;stroke-opacity:1;fill-opacity:1"
       d="m 594.62455,556.31042 0,0 z"
       id="path5837" />
  </g>
</svg>
