<?xml version="1.0" encoding="UTF-8" standalone="no"?>
<!-- Created with Inkscape (http://www.inkscape.org/) -->

<svg
   xmlns:dc="http://purl.org/dc/elements/1.1/"
   xmlns:cc="http://creativecommons.org/ns#"
   xmlns:rdf="http://www.w3.org/1999/02/22-rdf-syntax-ns#"
   xmlns:svg="http://www.w3.org/2000/svg"
   xmlns="http://www.w3.org/2000/svg"
   xmlns:sodipodi="http://sodipodi.sourceforge.net/DTD/sodipodi-0.dtd"
   xmlns:inkscape="http://www.inkscape.org/namespaces/inkscape"
   width="1000"
   height="1000"
   id="svg3173"
   version="1.1"
   inkscape:version="0.47 r22583"
   sodipodi:docname="6709.svg"
   inkscape:export-filename="E:\chinese\yan\6709.png"
   inkscape:export-xdpi="17.903368"
   inkscape:export-ydpi="17.903368">
  <title
     id="title4476">You</title>
  <defs
     id="defs3175">
    <inkscape:perspective
       sodipodi:type="inkscape:persp3d"
       inkscape:vp_x="0 : 526.18109 : 1"
       inkscape:vp_y="0 : 1000 : 0"
       inkscape:vp_z="744.09448 : 526.18109 : 1"
       inkscape:persp3d-origin="372.04724 : 350.78739 : 1"
       id="perspective3181" />
    <inkscape:perspective
       id="perspective3191"
       inkscape:persp3d-origin="0.5 : 0.33333333 : 1"
       inkscape:vp_z="1 : 0.5 : 1"
       inkscape:vp_y="0 : 1000 : 0"
       inkscape:vp_x="0 : 0.5 : 1"
       sodipodi:type="inkscape:persp3d" />
    <inkscape:perspective
       id="perspective4006"
       inkscape:persp3d-origin="0.5 : 0.33333333 : 1"
       inkscape:vp_z="1 : 0.5 : 1"
       inkscape:vp_y="0 : 1000 : 0"
       inkscape:vp_x="0 : 0.5 : 1"
       sodipodi:type="inkscape:persp3d" />
    <inkscape:perspective
       id="perspective4034"
       inkscape:persp3d-origin="0.5 : 0.33333333 : 1"
       inkscape:vp_z="1 : 0.5 : 1"
       inkscape:vp_y="0 : 1000 : 0"
       inkscape:vp_x="0 : 0.5 : 1"
       sodipodi:type="inkscape:persp3d" />
    <inkscape:perspective
       id="perspective4081"
       inkscape:persp3d-origin="0.5 : 0.33333333 : 1"
       inkscape:vp_z="1 : 0.5 : 1"
       inkscape:vp_y="0 : 1000 : 0"
       inkscape:vp_x="0 : 0.5 : 1"
       sodipodi:type="inkscape:persp3d" />
    <inkscape:perspective
       id="perspective4147"
       inkscape:persp3d-origin="0.5 : 0.33333333 : 1"
       inkscape:vp_z="1 : 0.5 : 1"
       inkscape:vp_y="0 : 1000 : 0"
       inkscape:vp_x="0 : 0.5 : 1"
       sodipodi:type="inkscape:persp3d" />
    <inkscape:perspective
       id="perspective3858"
       inkscape:persp3d-origin="0.5 : 0.33333333 : 1"
       inkscape:vp_z="1 : 0.5 : 1"
       inkscape:vp_y="0 : 1000 : 0"
       inkscape:vp_x="0 : 0.5 : 1"
       sodipodi:type="inkscape:persp3d" />
    <inkscape:perspective
       id="perspective3876"
       inkscape:persp3d-origin="0.5 : 0.33333333 : 1"
       inkscape:vp_z="1 : 0.5 : 1"
       inkscape:vp_y="0 : 1000 : 0"
       inkscape:vp_x="0 : 0.5 : 1"
       sodipodi:type="inkscape:persp3d" />
    <inkscape:perspective
       id="perspective3901"
       inkscape:persp3d-origin="0.5 : 0.33333333 : 1"
       inkscape:vp_z="1 : 0.5 : 1"
       inkscape:vp_y="0 : 1000 : 0"
       inkscape:vp_x="0 : 0.5 : 1"
       sodipodi:type="inkscape:persp3d" />
    <inkscape:perspective
       id="perspective5282"
       inkscape:persp3d-origin="0.5 : 0.33333333 : 1"
       inkscape:vp_z="1 : 0.5 : 1"
       inkscape:vp_y="0 : 1000 : 0"
       inkscape:vp_x="0 : 0.5 : 1"
       sodipodi:type="inkscape:persp3d" />
    <inkscape:perspective
       id="perspective6657"
       inkscape:persp3d-origin="0.5 : 0.33333333 : 1"
       inkscape:vp_z="1 : 0.5 : 1"
       inkscape:vp_y="0 : 1000 : 0"
       inkscape:vp_x="0 : 0.5 : 1"
       sodipodi:type="inkscape:persp3d" />
  </defs>
  <sodipodi:namedview
     id="base"
     pagecolor="#ffffff"
     bordercolor="#666666"
     borderopacity="1.0"
     inkscape:pageopacity="0.0"
     inkscape:pageshadow="2"
     inkscape:zoom="0.49497475"
     inkscape:cx="1032.029"
     inkscape:cy="584.58009"
     inkscape:document-units="px"
     inkscape:current-layer="layer1"
     showgrid="false"
     inkscape:window-width="1440"
     inkscape:window-height="840"
     inkscape:window-x="-4"
     inkscape:window-y="-4"
     inkscape:window-maximized="1" />
  <metadata
     id="metadata3178">
    <rdf:RDF>
      <cc:Work
         rdf:about="">
        <dc:format>image/svg+xml</dc:format>
        <dc:type
           rdf:resource="http://purl.org/dc/dcmitype/StillImage" />
        <dc:title>You</dc:title>
        <dc:date>2010-07-13</dc:date>
        <dc:creator>
          <cc:Agent>
            <dc:title>Alex Amies</dc:title>
          </cc:Agent>
        </dc:creator>
        <dc:rights>
          <cc:Agent>
            <dc:title>Copyright Alex Amies 2010</dc:title>
          </cc:Agent>
        </dc:rights>
        <dc:publisher>
          <cc:Agent>
            <dc:title>chinesenotes.com</dc:title>
          </cc:Agent>
        </dc:publisher>
        <dc:source>Yan Qin Ceremonial Inscription</dc:source>
        <dc:language>Chinese 中文</dc:language>
        <dc:description>Tracing from Tang Dynasty Ceremonial Inscription by Yan Zhenqing 颜真卿 (709－785)</dc:description>
        <cc:license
           rdf:resource="http://creativecommons.org/licenses/by/3.0/" />
      </cc:Work>
      <cc:License
         rdf:about="http://creativecommons.org/licenses/by/3.0/">
        <cc:permits
           rdf:resource="http://creativecommons.org/ns#Reproduction" />
        <cc:permits
           rdf:resource="http://creativecommons.org/ns#Distribution" />
        <cc:requires
           rdf:resource="http://creativecommons.org/ns#Notice" />
        <cc:requires
           rdf:resource="http://creativecommons.org/ns#Attribution" />
        <cc:permits
           rdf:resource="http://creativecommons.org/ns#DerivativeWorks" />
      </cc:License>
    </rdf:RDF>
  </metadata>
  <g
     inkscape:label="Layer 1"
     inkscape:groupmode="layer"
     id="layer1"
     transform="translate(0,-52.362183)">
    <path
       style="fill:#000000;stroke:#000000;stroke-width:4.76094626999999980px;stroke-linecap:butt;stroke-linejoin:miter;stroke-opacity:1;fill-opacity:1"
       d="m 442.15625,46.6875 c -15.51007,3.790671 -40.81401,6.21644 -42.5,22.09375 -2.96148,27.888896 -10.53538,54.76095 -17.9375,81.71875 -50.34689,12.28293 -100.34336,26.29157 -151.125,36.53125 C 183.97171,199.71708 135.64827,211.9736 97,242.21875 c -11.268066,42.41079 2.127375,104.98729 58.46875,77.4375 40.95337,-12.05829 78.29642,-33.98285 118.40625,-48.71875 28.62017,-14.90495 58.61166,-26.05662 89.1875,-35.625 -7.53718,30.33489 -21.80681,58.15764 -38.34375,85.03125 -30.09123,52.60803 -65.6941,102.03242 -101.8125,150.65625 -14.50322,22.38887 -41.78145,39.5281 -51.9375,62.25 -1.76731,28.47108 30.26408,19.14567 42.5,2.78125 35.37921,-29.67812 64.64547,-65.9097 100.84375,-94.8125 34.91902,-29.33476 56.87909,-70.39531 86.0625,-105.03125 34.90062,-42.81237 66.50067,-88.31032 91.84375,-137.375 3.60626,-1.08975 7.22183,-2.21227 10.8125,-3.34375 46.29316,-8.55266 92.61933,-17.63701 139.96875,-14.625 43.58779,-1.19105 87.88794,-5.59187 129.71875,9.65625 34.7322,20.80424 107.31989,22.46248 83.125,-37.625 C 842.38089,108.0795 791.5491,105.28475 752.5,106.71875 c -73.67773,0.74042 -147.52952,3.92159 -220.40625,14.90625 5.84665,-13.92575 7.10463,-27.692324 -4.625,-40.375 -20.05353,-11.83848 -38.30607,-33.618499 -62.4375,-34.5625 -7.61917,-0.298056 -15.46801,-1.810274 -22.875,0 z M 577.25,296.375 c -42.29597,0.55661 -80.07027,27.1425 -119.78125,39.34375 8.07423,58.82116 76.11071,4.3421 107.9375,-4.125 60.02696,-12.19393 43.38798,66.17558 49.71875,103.03125 -2.38447,132.50652 -1.69492,265.15671 -9.4375,397.53125 -1.09326,11.95288 -4.54873,30.60712 -14.4375,41.375 -13.01372,14.17067 -31.64306,-14.67494 -32.625,-6.53125 -1.41977,11.77511 21.1498,30.13073 27.5,44.875 11.68098,27.12173 16.72283,56.50465 34.125,66.53125 62.74932,-3.9561 71.11393,-86.36324 84,-134.625 11.79596,-99.6448 -0.2475,-200.25068 -2.65625,-300.21875 -2.74573,-62.1263 -5.05953,-124.30176 -4.625,-186.5 -16.75567,-44.58745 -74.95022,-40.8682 -111.1875,-60.4375 -2.86192,-0.20641 -5.71152,-0.28711 -8.53125,-0.25 z m -174.1875,61.46875 c -30.23244,24.48264 -9.97386,69.02816 -15.21875,102.3125 1.43418,39.96282 -1.33246,79.5805 -8.53125,118.90625 -8.01701,55.89213 -15.45425,111.90578 -16.15625,168.4375 -1.28165,31.52575 -14.93972,62.0996 -2.96875,93.15625 3.64213,25.87275 8.75493,52.519 29.25,70.59375 9.48914,13.77736 20.33333,25.71676 38.1875,21.3125 22.20791,-15.64937 33.7808,-51.55866 33.25,-79.96875 0.74322,-65.0622 -13.62753,-129.30386 -12.3125,-194.40625 3.82245,3.55326 8.51547,7.15613 14,10.8125 40.59173,-1.24313 69.05814,-9.66224 115.625,-59.53125 -30.2181,-12.69973 -77.80233,-2.25004 -109.90625,3.3125 -8.07213,3.03876 -14.44374,6.14983 -19.21875,9.375 0.0389,-41.09573 -0.97476,-82.2535 1.125,-123.25 5.53271,3.56946 10.92584,7.21688 14.09375,11.96875 51.47892,-8.86707 55.18198,-6.02662 108.34375,-52.625 -32.20925,-21.12868 -77.48582,-14.69781 -119.59375,3.84375 0.54166,-5.08511 1.12686,-10.17172 1.8125,-15.25 1.92223,-23.40062 0.61566,-46.86994 0.9375,-70.3125 -16.76339,-10.19476 -32.92035,-17.66652 -52.71875,-18.6875 z"
       transform="translate(0,52.362183)"
       id="path4377"
       sodipodi:nodetypes="csccccccccccccccccccccsscccccssscccccccccccccccccccccccccc" />
  </g>
</svg>
