<?xml version="1.0" encoding="UTF-8" standalone="no"?>
<!-- Created with Inkscape (http://www.inkscape.org/) -->

<svg
   xmlns:dc="http://purl.org/dc/elements/1.1/"
   xmlns:cc="http://creativecommons.org/ns#"
   xmlns:rdf="http://www.w3.org/1999/02/22-rdf-syntax-ns#"
   xmlns:svg="http://www.w3.org/2000/svg"
   xmlns="http://www.w3.org/2000/svg"
   xmlns:sodipodi="http://sodipodi.sourceforge.net/DTD/sodipodi-0.dtd"
   xmlns:inkscape="http://www.inkscape.org/namespaces/inkscape"
   width="1000"
   height="1000"
   id="svg3173"
   version="1.1"
   inkscape:version="0.47 r22583"
   sodipodi:docname="6719.svg"
   inkscape:export-filename="E:\chinese\yan\6719.png"
   inkscape:export-xdpi="18.005705"
   inkscape:export-ydpi="18.005705">
  <title
     id="title3666">Ming Variant</title>
  <defs
     id="defs3175">
    <inkscape:perspective
       sodipodi:type="inkscape:persp3d"
       inkscape:vp_x="0 : 526.18109 : 1"
       inkscape:vp_y="0 : 1000 : 0"
       inkscape:vp_z="744.09448 : 526.18109 : 1"
       inkscape:persp3d-origin="372.04724 : 350.78739 : 1"
       id="perspective3181" />
    <inkscape:perspective
       id="perspective3191"
       inkscape:persp3d-origin="0.5 : 0.33333333 : 1"
       inkscape:vp_z="1 : 0.5 : 1"
       inkscape:vp_y="0 : 1000 : 0"
       inkscape:vp_x="0 : 0.5 : 1"
       sodipodi:type="inkscape:persp3d" />
    <inkscape:perspective
       id="perspective4006"
       inkscape:persp3d-origin="0.5 : 0.33333333 : 1"
       inkscape:vp_z="1 : 0.5 : 1"
       inkscape:vp_y="0 : 1000 : 0"
       inkscape:vp_x="0 : 0.5 : 1"
       sodipodi:type="inkscape:persp3d" />
    <inkscape:perspective
       id="perspective4034"
       inkscape:persp3d-origin="0.5 : 0.33333333 : 1"
       inkscape:vp_z="1 : 0.5 : 1"
       inkscape:vp_y="0 : 1000 : 0"
       inkscape:vp_x="0 : 0.5 : 1"
       sodipodi:type="inkscape:persp3d" />
    <inkscape:perspective
       id="perspective4081"
       inkscape:persp3d-origin="0.5 : 0.33333333 : 1"
       inkscape:vp_z="1 : 0.5 : 1"
       inkscape:vp_y="0 : 1000 : 0"
       inkscape:vp_x="0 : 0.5 : 1"
       sodipodi:type="inkscape:persp3d" />
    <inkscape:perspective
       id="perspective4147"
       inkscape:persp3d-origin="0.5 : 0.33333333 : 1"
       inkscape:vp_z="1 : 0.5 : 1"
       inkscape:vp_y="0 : 1000 : 0"
       inkscape:vp_x="0 : 0.5 : 1"
       sodipodi:type="inkscape:persp3d" />
    <inkscape:perspective
       id="perspective3765"
       inkscape:persp3d-origin="0.5 : 0.33333333 : 1"
       inkscape:vp_z="1 : 0.5 : 1"
       inkscape:vp_y="0 : 1000 : 0"
       inkscape:vp_x="0 : 0.5 : 1"
       sodipodi:type="inkscape:persp3d" />
    <inkscape:perspective
       id="perspective3793"
       inkscape:persp3d-origin="0.5 : 0.33333333 : 1"
       inkscape:vp_z="1 : 0.5 : 1"
       inkscape:vp_y="0 : 1000 : 0"
       inkscape:vp_x="0 : 0.5 : 1"
       sodipodi:type="inkscape:persp3d" />
    <inkscape:perspective
       id="perspective3780"
       inkscape:persp3d-origin="0.5 : 0.33333333 : 1"
       inkscape:vp_z="1 : 0.5 : 1"
       inkscape:vp_y="0 : 1000 : 0"
       inkscape:vp_x="0 : 0.5 : 1"
       sodipodi:type="inkscape:persp3d" />
    <inkscape:perspective
       id="perspective2993"
       inkscape:persp3d-origin="0.5 : 0.33333333 : 1"
       inkscape:vp_z="1 : 0.5 : 1"
       inkscape:vp_y="0 : 1000 : 0"
       inkscape:vp_x="0 : 0.5 : 1"
       sodipodi:type="inkscape:persp3d" />
    <inkscape:perspective
       id="perspective3767"
       inkscape:persp3d-origin="0.5 : 0.33333333 : 1"
       inkscape:vp_z="1 : 0.5 : 1"
       inkscape:vp_y="0 : 1000 : 0"
       inkscape:vp_x="0 : 0.5 : 1"
       sodipodi:type="inkscape:persp3d" />
    <inkscape:perspective
       id="perspective3826"
       inkscape:persp3d-origin="0.5 : 0.33333333 : 1"
       inkscape:vp_z="1 : 0.5 : 1"
       inkscape:vp_y="0 : 1000 : 0"
       inkscape:vp_x="0 : 0.5 : 1"
       sodipodi:type="inkscape:persp3d" />
  </defs>
  <sodipodi:namedview
     id="base"
     pagecolor="#ffffff"
     bordercolor="#666666"
     borderopacity="1.0"
     inkscape:pageopacity="0.0"
     inkscape:pageshadow="2"
     inkscape:zoom="0.49497475"
     inkscape:cx="337.10863"
     inkscape:cy="523.20378"
     inkscape:document-units="px"
     inkscape:current-layer="layer1"
     showgrid="false"
     inkscape:window-width="1440"
     inkscape:window-height="840"
     inkscape:window-x="-4"
     inkscape:window-y="-4"
     inkscape:window-maximized="1" />
  <metadata
     id="metadata3178">
    <rdf:RDF>
      <cc:Work
         rdf:about="">
        <dc:format>image/svg+xml</dc:format>
        <dc:type
           rdf:resource="http://purl.org/dc/dcmitype/StillImage" />
        <dc:title>Ming Variant</dc:title>
        <dc:date>2010-07-16</dc:date>
        <dc:creator>
          <cc:Agent>
            <dc:title>Alex Amies</dc:title>
          </cc:Agent>
        </dc:creator>
        <dc:rights>
          <cc:Agent>
            <dc:title>@ Alex Amies 2010</dc:title>
          </cc:Agent>
        </dc:rights>
        <dc:publisher>
          <cc:Agent>
            <dc:title>chinesenotes.com</dc:title>
          </cc:Agent>
        </dc:publisher>
        <dc:source>Yan Qin Ceremonial Inscription</dc:source>
        <dc:language>Chinese 中文</dc:language>
        <dc:description>Tracing from Tang Dynasty Ceremonial Inscription by Yan Zhenqing 颜真卿 (709－785)</dc:description>
        <cc:license
           rdf:resource="http://creativecommons.org/licenses/by/3.0/" />
      </cc:Work>
      <cc:License
         rdf:about="http://creativecommons.org/licenses/by/3.0/">
        <cc:permits
           rdf:resource="http://creativecommons.org/ns#Reproduction" />
        <cc:permits
           rdf:resource="http://creativecommons.org/ns#Distribution" />
        <cc:requires
           rdf:resource="http://creativecommons.org/ns#Notice" />
        <cc:requires
           rdf:resource="http://creativecommons.org/ns#Attribution" />
        <cc:permits
           rdf:resource="http://creativecommons.org/ns#DerivativeWorks" />
      </cc:License>
    </rdf:RDF>
  </metadata>
  <g
     inkscape:label="Layer 1"
     inkscape:groupmode="layer"
     id="layer1"
     transform="translate(0,-52.362183)">
    <path
       style="fill:#000000;stroke:#000000;stroke-width:4.74180651000000000px;stroke-linecap:butt;stroke-linejoin:miter;stroke-opacity:1;fill-opacity:1"
       d="M 857.5 111.5625 C 855.12492 111.592 852.70277 111.80619 850.21875 112.25 C 818.27723 123.56314 785.91907 134.33729 751.59375 135 C 703.35445 138.6979 651.93855 130.16929 606.375 150.125 C 579.80414 169.07245 559.39652 206.99319 573.0625 239.15625 C 579.73735 248.9515 587.78472 252.8927 596.5625 253.34375 C 590.42716 317.23597 598.03664 382.1946 586.15625 445.6875 C 562.3455 600.5504 557.37241 769.99574 444.6875 890.15625 C 459.33376 895.27702 483.36081 885.79514 498.96875 877.6875 C 564.55804 821.50771 601.71146 724.45751 621.84375 642 C 629.91805 609.14126 637.81296 576.05654 644.375 542.75 C 688.66158 557.37537 716.33155 563.3674 746.03125 563.375 C 769.65323 558.58412 783.12061 533.78178 758.71875 514.09375 C 726.05599 504.21376 691.21678 503.79105 649.9375 512.5 C 657.3922 468.20207 661.8322 423.49661 660.40625 378.375 C 660.39029 376.56265 660.37788 374.75218 660.375 372.9375 C 693.20193 398.01449 706.50813 401.69527 765.28125 395.5 C 784.62688 382.4056 761.08258 353.19093 749.625 342.59375 C 709.09796 336.35992 687.3114 354.26171 660.40625 362.625 C 660.70915 327.42906 662.42882 291.90867 657.28125 257.1875 C 655.89114 247.70619 653.3778 240.10725 649.8125 234.1875 C 658.09247 230.19864 666.10376 226.85599 673.40625 225.6875 C 718.10209 219.56312 761.48453 205.96369 804.75 193.28125 C 858.9608 280.81093 830.04919 461.8225 827.46875 564 C 824.87422 639.17556 822.23876 714.68813 815.21875 789.4375 C 809.2868 808.20458 763.97187 805.6057 754.90625 791.78125 C 757.7272 836.77421 803.90459 869.51244 821.90625 911.375 C 843.18918 946.22311 861.59965 897.73932 866.90625 877.6875 C 922.81694 660.9693 918.58222 409.70281 926.375 185.5 C 916.48843 155.32815 893.12621 111.12 857.5 111.5625 z M 456.3125 170.15625 C 435.80618 169.94007 413.50224 180.32423 394.25 185.15625 C 302.72323 199.72989 210.71535 212.85809 126.1875 252.375 C 118.28003 250.10904 109.49516 249.28237 100 250.03125 C 79.735981 257.89596 83.110436 283.93015 86.9375 300.9375 C 133.75587 452.41034 103.44404 613.46801 138.96875 766.5625 C 150.44963 777.0623 171.31929 778.24797 178.625 767.78125 C 189.45518 773.06072 200.98125 777.26338 213.21875 775 C 234.78685 774.35288 256.78487 772.92738 276.96875 764.625 C 294.63279 759.07594 311.98184 752.00255 329.9375 747.71875 C 355.67384 746.12944 381.59613 744.3872 406.59375 737.6875 C 407.76221 737.54064 408.9738 737.49052 410.21875 737.5 C 407.32523 755.58425 404.41549 773.72112 401.46875 791.96875 C 420.82352 822.7656 463.4801 808.13664 463.875 772.84375 C 504.99557 610.88781 492.96514 441.33617 501.78125 275.75 C 502.99273 245.79905 508.45299 211.47628 490.25 185.5 C 480.28913 174.23782 468.61629 170.28596 456.3125 170.15625 z M 409.3125 248.125 C 414.6005 248.10317 419.8675 248.15929 425.15625 248.34375 C 452.67106 392.73209 441.36858 528.16109 421.3125 665.71875 C 418.08008 664.33343 414.85743 662.94783 411.625 661.5625 C 397.49103 665.22123 383.44813 669.24883 369.46875 673.4375 C 380.73265 633.08567 383.22387 587.49873 383.9375 545.375 C 385.05855 521.096 364.51819 516.08293 345.34375 514.90625 C 328.91016 513.16791 315.76268 528.69463 303.21875 537.9375 C 283.42105 541.68192 263.62975 545.36165 243.96875 549.78125 C 243.66984 553.62648 243.71738 557.12169 244.09375 560.375 C 238.17607 562.91938 232.27081 569.61164 227.03125 578.59375 C 228.24008 619.85842 231.9716 660.93952 232.09375 702.21875 C 235.19962 705.15975 237.97492 707.37721 240.5625 709.03125 C 224.10571 711.20632 207.4652 712.14965 190.875 712.125 C 188.31557 710.14816 183.74362 708.69964 179.0625 708.1875 C 178.13223 632.91759 177.39482 557.55832 175.6875 482.25 C 214.89358 478.76129 256.63029 467.736 277.84375 448.1875 C 280.79845 387.64925 274.851 327.76818 267.75 267.78125 C 292.6377 261.7884 317.73938 256.64588 342.96875 253.125 C 339.3644 261.05787 336.67889 269.20395 335.78125 278.25 C 333.50238 322.27929 341.27507 366.13978 341.9375 410.40625 C 346.56218 431.97341 360.08334 447.68052 374.375 463.4375 C 394.18129 467.15707 408.60594 464.10721 423.46875 457 C 448.82073 462.87302 441.00658 432.26165 422.96875 426.96875 C 398.64859 430.70719 387.72416 419.88335 382.8125 392.3125 C 384.0549 349.1796 385.96993 305.94715 382.9375 262.84375 C 380.42969 257.86448 376.98211 253.45391 372.90625 249.75 C 385.02206 248.73405 397.17543 248.17511 409.3125 248.125 z M 227.21875 278.25 C 236.34478 330.0008 238.875 382.21933 238.875 434.625 C 221.55863 446.70599 200.49046 452.28519 179.53125 451.5 C 177.88825 451.80961 176.38514 452.15223 174.96875 452.5 C 173.68392 403.96333 171.92682 355.45822 169.34375 307.03125 C 168.87142 303.87452 168.23725 300.85639 167.5 297.9375 C 170.17973 296.7328 172.78141 295.03364 175.28125 292.84375 C 192.41625 287.93097 209.75695 283.00043 227.21875 278.25 z M 309.28125 588.125 C 334.03524 603.101 340.11185 614.37522 327.875 678.53125 C 328.65111 681.2511 329.88972 683.44277 331.4375 685.15625 C 312.65912 691.04237 293.88259 696.95023 275 702.46875 C 274.1778 702.67804 273.35513 702.89211 272.53125 703.09375 C 270.55049 666.35673 271.5438 629.12132 268.40625 592.4375 C 282.11342 592.2167 295.70764 589.27375 309.28125 588.125 z "
       transform="translate(0,52.362183)"
       id="path4117" />
  </g>
</svg>
