<?xml version="1.0" encoding="UTF-8" standalone="no"?>
<!-- Created with Inkscape (http://www.inkscape.org/) -->

<svg
   xmlns:dc="http://purl.org/dc/elements/1.1/"
   xmlns:cc="http://creativecommons.org/ns#"
   xmlns:rdf="http://www.w3.org/1999/02/22-rdf-syntax-ns#"
   xmlns:svg="http://www.w3.org/2000/svg"
   xmlns="http://www.w3.org/2000/svg"
   xmlns:sodipodi="http://sodipodi.sourceforge.net/DTD/sodipodi-0.dtd"
   xmlns:inkscape="http://www.inkscape.org/namespaces/inkscape"
   width="1000"
   height="1000"
   id="svg3173"
   version="1.1"
   inkscape:version="0.47 r22583"
   sodipodi:docname="6728.svg"
   inkscape:export-filename="E:\chinese\yan\6728.png"
   inkscape:export-xdpi="18.005705"
   inkscape:export-ydpi="18.005705">
  <title
     id="title2853">Mu</title>
  <defs
     id="defs3175">
    <inkscape:perspective
       sodipodi:type="inkscape:persp3d"
       inkscape:vp_x="0 : 526.18109 : 1"
       inkscape:vp_y="0 : 1000 : 0"
       inkscape:vp_z="744.09448 : 526.18109 : 1"
       inkscape:persp3d-origin="372.04724 : 350.78739 : 1"
       id="perspective3181" />
    <inkscape:perspective
       id="perspective3191"
       inkscape:persp3d-origin="0.5 : 0.33333333 : 1"
       inkscape:vp_z="1 : 0.5 : 1"
       inkscape:vp_y="0 : 1000 : 0"
       inkscape:vp_x="0 : 0.5 : 1"
       sodipodi:type="inkscape:persp3d" />
    <inkscape:perspective
       id="perspective4006"
       inkscape:persp3d-origin="0.5 : 0.33333333 : 1"
       inkscape:vp_z="1 : 0.5 : 1"
       inkscape:vp_y="0 : 1000 : 0"
       inkscape:vp_x="0 : 0.5 : 1"
       sodipodi:type="inkscape:persp3d" />
    <inkscape:perspective
       id="perspective4034"
       inkscape:persp3d-origin="0.5 : 0.33333333 : 1"
       inkscape:vp_z="1 : 0.5 : 1"
       inkscape:vp_y="0 : 1000 : 0"
       inkscape:vp_x="0 : 0.5 : 1"
       sodipodi:type="inkscape:persp3d" />
    <inkscape:perspective
       id="perspective4081"
       inkscape:persp3d-origin="0.5 : 0.33333333 : 1"
       inkscape:vp_z="1 : 0.5 : 1"
       inkscape:vp_y="0 : 1000 : 0"
       inkscape:vp_x="0 : 0.5 : 1"
       sodipodi:type="inkscape:persp3d" />
    <inkscape:perspective
       id="perspective4147"
       inkscape:persp3d-origin="0.5 : 0.33333333 : 1"
       inkscape:vp_z="1 : 0.5 : 1"
       inkscape:vp_y="0 : 1000 : 0"
       inkscape:vp_x="0 : 0.5 : 1"
       sodipodi:type="inkscape:persp3d" />
    <inkscape:perspective
       id="perspective3797"
       inkscape:persp3d-origin="0.5 : 0.33333333 : 1"
       inkscape:vp_z="1 : 0.5 : 1"
       inkscape:vp_y="0 : 1000 : 0"
       inkscape:vp_x="0 : 0.5 : 1"
       sodipodi:type="inkscape:persp3d" />
    <inkscape:perspective
       id="perspective3861"
       inkscape:persp3d-origin="0.5 : 0.33333333 : 1"
       inkscape:vp_z="1 : 0.5 : 1"
       inkscape:vp_y="0 : 1000 : 0"
       inkscape:vp_x="0 : 0.5 : 1"
       sodipodi:type="inkscape:persp3d" />
  </defs>
  <sodipodi:namedview
     id="base"
     pagecolor="#ffffff"
     bordercolor="#666666"
     borderopacity="1.0"
     inkscape:pageopacity="0.0"
     inkscape:pageshadow="2"
     inkscape:zoom="0.49497475"
     inkscape:cx="172.92444"
     inkscape:cy="525.71429"
     inkscape:document-units="px"
     inkscape:current-layer="layer1"
     showgrid="false"
     inkscape:window-width="1440"
     inkscape:window-height="840"
     inkscape:window-x="-4"
     inkscape:window-y="-4"
     inkscape:window-maximized="1" />
  <metadata
     id="metadata3178">
    <rdf:RDF>
      <cc:Work
         rdf:about="">
        <dc:format>image/svg+xml</dc:format>
        <dc:type
           rdf:resource="http://purl.org/dc/dcmitype/StillImage" />
        <dc:title>Mu</dc:title>
        <dc:date>2010-08-06</dc:date>
        <dc:creator>
          <cc:Agent>
            <dc:title>Alex Amies</dc:title>
          </cc:Agent>
        </dc:creator>
        <dc:rights>
          <cc:Agent>
            <dc:title>@ Alex Amies 2010</dc:title>
          </cc:Agent>
        </dc:rights>
        <dc:publisher>
          <cc:Agent>
            <dc:title>chinesenotes.com</dc:title>
          </cc:Agent>
        </dc:publisher>
        <dc:source>Yan Qin Ceremonial Inscription</dc:source>
        <dc:language>Chinese 中文</dc:language>
        <dc:description>Tracing from Tang Dynasty Ceremonial Inscription by Yan Zhenqing 颜真卿 (709－785)</dc:description>
        <cc:license
           rdf:resource="http://creativecommons.org/licenses/by/3.0/" />
      </cc:Work>
      <cc:License
         rdf:about="http://creativecommons.org/licenses/by/3.0/">
        <cc:permits
           rdf:resource="http://creativecommons.org/ns#Reproduction" />
        <cc:permits
           rdf:resource="http://creativecommons.org/ns#Distribution" />
        <cc:requires
           rdf:resource="http://creativecommons.org/ns#Notice" />
        <cc:requires
           rdf:resource="http://creativecommons.org/ns#Attribution" />
        <cc:permits
           rdf:resource="http://creativecommons.org/ns#DerivativeWorks" />
      </cc:License>
    </rdf:RDF>
  </metadata>
  <g
     inkscape:label="Layer 1"
     inkscape:groupmode="layer"
     id="layer1"
     transform="translate(0,-52.362183)">
    <path
       style="fill:#000000;stroke:#000000;stroke-width:4.73223686000000040px;stroke-linecap:butt;stroke-linejoin:miter;stroke-opacity:1;fill-opacity:1"
       d="m 369.84328,287.58699 0,0 z"
       id="path5819" />
    <path
       id="path5829"
       d="m 688.01377,167.98338 c -7.35725,-0.0985 -15.01951,1.03634 -22.81717,3.52014 -61.37108,24.82472 -125.91277,39.7396 -187.58712,63.68265 -0.44122,-6.23986 -0.92877,-12.48784 -1.45881,-18.72078 -3.84392,-34.45388 -31.26157,-46.45787 -60.63384,-43.08178 l -4.82527,-0.44003 -4.78787,-0.44002 c -36.32189,3.51658 -20.60344,43.37875 -21.17134,70.00292 0.44165,8.82709 0.94921,17.6647 1.49621,26.4811 -66.36454,28.77247 -145.11439,70.09131 -197.61172,60.72252 -21.70639,-7.27283 -43.2945,9.83385 -25.847,33.08138 16.91595,19.69861 37.96809,60.62566 64.97284,28.96121 54.30106,-20.64958 109.03948,-41.81255 162.67526,-65.44273 0.29969,3.58714 0.58614,7.17453 0.89772,10.76046 -74.10778,107.83361 -157.51586,207.72365 -240.36587,307.97281 -11.4484,17.00466 -22.88957,33.99746 -34.33798,51.00212 4.22406,5.24096 7.04178,18.13983 13.95215,8.76036 21.99454,-16.49522 45.11465,-31.49822 66.39424,-48.96204 31.87154,-31.65838 64.55241,-62.4517 95.90696,-94.64393 37.93962,-44.44482 72.92103,-91.37849 106.71705,-139.3258 6.72363,63.79307 14.24671,127.50562 20.34844,191.36796 -5.47764,80.186 -11.40024,160.36254 -14.02696,240.73002 -13.49969,22.01241 -30.60919,53.32779 -10.062,76.64323 18.86811,14.73972 41.70287,7.86909 54.08793,-12.44046 17.09863,-19.55012 29.68723,-42.06084 37.21818,-67.68291 12.90018,-23.40927 12.81278,-49.42809 11.82005,-75.72315 1.26047,-101.83333 -2.15274,-203.57337 -7.55585,-305.2127 55.82403,94.12681 129.60488,176.22845 205.27978,252.29049 17.09597,18.43726 34.8033,36.02767 58.8758,42.80179 18.15837,13.09999 35.36957,1.21528 51.80621,-8.52036 17.51298,-8.49688 34.17542,-20.5293 52.62913,-25.96109 13.16979,-1.28054 26.33004,-2.5596 39.49989,-3.84015 17.02036,-13.46829 5.53801,-41.19835 -13.46586,-43.88182 -37.17296,-17.70007 -76.65707,-31.03314 -109.85911,-56.88237 -87.7319,-52.24717 -163.54542,-119.34977 -232.54817,-196.88819 -23.30079,-22.96824 -36.26623,-55.0535 -57.04294,-79.96333 -0.85872,-0.62936 -1.695,-1.21418 -2.50615,-1.76007 -0.31036,-4.82781 -0.62125,-9.65332 -0.93513,-14.48061 -0.61755,-9.97141 -1.15487,-19.94282 -1.68323,-29.92124 4.47338,-6.57216 8.94028,-13.1612 13.42847,-19.72083 0.64179,-2.74543 1.26585,-5.49491 1.90765,-8.24033 0.92154,-0.49951 1.84784,-0.97809 2.76799,-1.48007 62.47869,-14.26738 128.74141,-11.63747 192.89866,-16.96071 23.07179,16.54508 73.33496,17.70299 54.87344,-25.24104 -1.75682,-38.77536 -27.44325,-62.49546 -59.32466,-62.92262 z"
       style="fill:#000000;fill-opacity:1;stroke:#000000;stroke-width:5.85762452999999980px;stroke-linecap:butt;stroke-linejoin:miter;stroke-opacity:1" />
    <path
       style="fill:#000000;stroke:#000000;stroke-width:4.73223686000000040px;stroke-linecap:butt;stroke-linejoin:miter;stroke-opacity:1;fill-opacity:1"
       d="m 594.62455,556.31042 0,0 z"
       id="path5837" />
  </g>
</svg>
