<?xml version="1.0" encoding="UTF-8" standalone="no"?>
<!-- Created with Inkscape (http://www.inkscape.org/) -->

<svg
   xmlns:dc="http://purl.org/dc/elements/1.1/"
   xmlns:cc="http://creativecommons.org/ns#"
   xmlns:rdf="http://www.w3.org/1999/02/22-rdf-syntax-ns#"
   xmlns:svg="http://www.w3.org/2000/svg"
   xmlns="http://www.w3.org/2000/svg"
   xmlns:sodipodi="http://sodipodi.sourceforge.net/DTD/sodipodi-0.dtd"
   xmlns:inkscape="http://www.inkscape.org/namespaces/inkscape"
   width="1000"
   height="1000"
   id="svg3173"
   version="1.1"
   inkscape:version="0.47 r22583"
   sodipodi:docname="6821.svg"
   inkscape:export-filename="E:\chinese\yan\6821.png"
   inkscape:export-xdpi="18.005705"
   inkscape:export-ydpi="18.005705">
  <title
     id="title6518">Xiao</title>
  <defs
     id="defs3175">
    <inkscape:perspective
       sodipodi:type="inkscape:persp3d"
       inkscape:vp_x="0 : 526.18109 : 1"
       inkscape:vp_y="0 : 1000 : 0"
       inkscape:vp_z="744.09448 : 526.18109 : 1"
       inkscape:persp3d-origin="372.04724 : 350.78739 : 1"
       id="perspective3181" />
    <inkscape:perspective
       id="perspective3191"
       inkscape:persp3d-origin="0.5 : 0.33333333 : 1"
       inkscape:vp_z="1 : 0.5 : 1"
       inkscape:vp_y="0 : 1000 : 0"
       inkscape:vp_x="0 : 0.5 : 1"
       sodipodi:type="inkscape:persp3d" />
    <inkscape:perspective
       id="perspective4006"
       inkscape:persp3d-origin="0.5 : 0.33333333 : 1"
       inkscape:vp_z="1 : 0.5 : 1"
       inkscape:vp_y="0 : 1000 : 0"
       inkscape:vp_x="0 : 0.5 : 1"
       sodipodi:type="inkscape:persp3d" />
    <inkscape:perspective
       id="perspective4034"
       inkscape:persp3d-origin="0.5 : 0.33333333 : 1"
       inkscape:vp_z="1 : 0.5 : 1"
       inkscape:vp_y="0 : 1000 : 0"
       inkscape:vp_x="0 : 0.5 : 1"
       sodipodi:type="inkscape:persp3d" />
    <inkscape:perspective
       id="perspective4081"
       inkscape:persp3d-origin="0.5 : 0.33333333 : 1"
       inkscape:vp_z="1 : 0.5 : 1"
       inkscape:vp_y="0 : 1000 : 0"
       inkscape:vp_x="0 : 0.5 : 1"
       sodipodi:type="inkscape:persp3d" />
    <inkscape:perspective
       id="perspective4147"
       inkscape:persp3d-origin="0.5 : 0.33333333 : 1"
       inkscape:vp_z="1 : 0.5 : 1"
       inkscape:vp_y="0 : 1000 : 0"
       inkscape:vp_x="0 : 0.5 : 1"
       sodipodi:type="inkscape:persp3d" />
    <inkscape:perspective
       id="perspective3758"
       inkscape:persp3d-origin="0.5 : 0.33333333 : 1"
       inkscape:vp_z="1 : 0.5 : 1"
       inkscape:vp_y="0 : 1000 : 0"
       inkscape:vp_x="0 : 0.5 : 1"
       sodipodi:type="inkscape:persp3d" />
    <inkscape:perspective
       id="perspective3719"
       inkscape:persp3d-origin="0.5 : 0.33333333 : 1"
       inkscape:vp_z="1 : 0.5 : 1"
       inkscape:vp_y="0 : 1000 : 0"
       inkscape:vp_x="0 : 0.5 : 1"
       sodipodi:type="inkscape:persp3d" />
    <inkscape:perspective
       id="perspective3803"
       inkscape:persp3d-origin="0.5 : 0.33333333 : 1"
       inkscape:vp_z="1 : 0.5 : 1"
       inkscape:vp_y="0 : 1000 : 0"
       inkscape:vp_x="0 : 0.5 : 1"
       sodipodi:type="inkscape:persp3d" />
    <inkscape:perspective
       id="perspective3801"
       inkscape:persp3d-origin="0.5 : 0.33333333 : 1"
       inkscape:vp_z="1 : 0.5 : 1"
       inkscape:vp_y="0 : 1000 : 0"
       inkscape:vp_x="0 : 0.5 : 1"
       sodipodi:type="inkscape:persp3d" />
    <inkscape:perspective
       id="perspective3838"
       inkscape:persp3d-origin="0.5 : 0.33333333 : 1"
       inkscape:vp_z="1 : 0.5 : 1"
       inkscape:vp_y="0 : 1000 : 0"
       inkscape:vp_x="0 : 0.5 : 1"
       sodipodi:type="inkscape:persp3d" />
    <inkscape:perspective
       id="perspective3862"
       inkscape:persp3d-origin="0.5 : 0.33333333 : 1"
       inkscape:vp_z="1 : 0.5 : 1"
       inkscape:vp_y="0 : 1000 : 0"
       inkscape:vp_x="0 : 0.5 : 1"
       sodipodi:type="inkscape:persp3d" />
    <inkscape:perspective
       id="perspective3917"
       inkscape:persp3d-origin="0.5 : 0.33333333 : 1"
       inkscape:vp_z="1 : 0.5 : 1"
       inkscape:vp_y="0 : 1000 : 0"
       inkscape:vp_x="0 : 0.5 : 1"
       sodipodi:type="inkscape:persp3d" />
    <inkscape:perspective
       id="perspective6545"
       inkscape:persp3d-origin="0.5 : 0.33333333 : 1"
       inkscape:vp_z="1 : 0.5 : 1"
       inkscape:vp_y="0 : 1000 : 0"
       inkscape:vp_x="0 : 0.5 : 1"
       sodipodi:type="inkscape:persp3d" />
  </defs>
  <sodipodi:namedview
     id="base"
     pagecolor="#ffffff"
     bordercolor="#666666"
     borderopacity="1.0"
     inkscape:pageopacity="0.0"
     inkscape:pageshadow="2"
     inkscape:zoom="0.49497475"
     inkscape:cx="571.51329"
     inkscape:cy="512.69615"
     inkscape:document-units="px"
     inkscape:current-layer="g4143"
     showgrid="false"
     inkscape:window-width="1440"
     inkscape:window-height="840"
     inkscape:window-x="-4"
     inkscape:window-y="-4"
     inkscape:window-maximized="1" />
  <metadata
     id="metadata3178">
    <rdf:RDF>
      <cc:Work
         rdf:about="">
        <dc:format>image/svg+xml</dc:format>
        <dc:type
           rdf:resource="http://purl.org/dc/dcmitype/StillImage" />
        <dc:title>Xiao</dc:title>
        <dc:date>2010-08-14</dc:date>
        <dc:creator>
          <cc:Agent>
            <dc:title>Alex Amies</dc:title>
          </cc:Agent>
        </dc:creator>
        <dc:rights>
          <cc:Agent>
            <dc:title>@ Alex Amies 2010</dc:title>
          </cc:Agent>
        </dc:rights>
        <dc:publisher>
          <cc:Agent>
            <dc:title>chinesenotes.com</dc:title>
          </cc:Agent>
        </dc:publisher>
        <dc:source>Yan Qin Ceremonial Inscription</dc:source>
        <dc:language>Chinese 中文</dc:language>
        <dc:description>Tracing from Tang Dynasty Ceremonial Inscription by Yan Zhenqing 颜真卿 (709－785)</dc:description>
        <cc:license
           rdf:resource="http://creativecommons.org/licenses/by/3.0/" />
      </cc:Work>
      <cc:License
         rdf:about="http://creativecommons.org/licenses/by/3.0/">
        <cc:permits
           rdf:resource="http://creativecommons.org/ns#Reproduction" />
        <cc:permits
           rdf:resource="http://creativecommons.org/ns#Distribution" />
        <cc:requires
           rdf:resource="http://creativecommons.org/ns#Notice" />
        <cc:requires
           rdf:resource="http://creativecommons.org/ns#Attribution" />
        <cc:permits
           rdf:resource="http://creativecommons.org/ns#DerivativeWorks" />
      </cc:License>
    </rdf:RDF>
  </metadata>
  <g
     inkscape:label="Layer 1"
     inkscape:groupmode="layer"
     id="layer1"
     transform="translate(0,-52.362183)">
    <g
       transform="matrix(4.7609464,0,0,4.7609464,-1421.6669,-3910.0295)"
       id="g4143"
       style="fill:#000000;fill-opacity:1">
      <g
         transform="matrix(0.99798993,0,0,0.99798993,184.10982,426.00403)"
         id="g14334"
         style="fill:#000000;fill-opacity:1">
        <g
           id="g6512"
           style="fill:#000000;fill-opacity:1"
           transform="translate(4.6772457,0)">
          <path
             id="path14289"
             transform="matrix(0.21046532,0,0,0.21046532,114.73094,407.08399)"
             d="m 539.34375,84.125 c -8.0544,0.193219 -16.07835,1.386144 -23.90625,3.75 -19.35858,17.13536 -53.26461,27.89696 -39.46875,58.375 14.47312,21.36366 40.05064,22.18322 60.9375,32.125 15.76877,12.60506 25.50041,30.4129 39.21875,44.15625 -27.7738,4.2017 -55.6286,7.70372 -83.59375,10.15625 -16.67386,0.0608 -34.47494,-3.2044 -50.0625,4.5 -18.37315,7.56443 -12.61531,31.65793 -2.15625,43.5625 9.64544,19.08666 32.23262,24.51116 50.8125,15.75 62.42321,-21.18154 124.17411,-31.53337 186.90625,-44.5625 44.82762,-9.40449 86.86868,8.21872 128.8125,21.28125 18.62202,1.35409 30.73759,-19.67932 25.8125,-36.28125 C 827.14598,207.74756 800.49522,174.47856 775,177.375 c -41.96412,4.76743 -86.29474,23.89538 -130.6875,33.5 4.26974,-17.00609 8.41919,-36.31124 4.625,-53.625 -3.11937,-18.46927 -12.32604,-36.20373 -27.625,-47.4375 C 597.44819,95.228001 568.10945,83.434933 539.34375,84.125 z"
             style="fill:#000000;fill-opacity:1;stroke:#000000;stroke-width:4.75137663px;stroke-linecap:butt;stroke-linejoin:miter;stroke-opacity:1" />
          <path
             style="fill:#000000;fill-opacity:1;stroke:#000000;stroke-width:1px;stroke-linecap:butt;stroke-linejoin:miter;stroke-opacity:1"
             d="m 216.07143,479.1479 c -1.63636,-0.74829 -5.22624,-2.66585 -5.25209,0.58398 0.19484,3.32681 0.63008,6.6592 0.40279,9.99694 -1.22812,6.26371 -4.96205,11.65759 -8.55715,16.80206 -1.92898,0.85381 -4.80057,3.99055 -1.14035,4.72458 2.68293,0.32682 5.40721,-0.0648 8.10731,-0.052 8.50711,0.28347 13.94545,-5.93449 20.93324,-9.42127 3.08922,-6.40667 0.84238,-13.00308 -5.69244,-19.88068 -1.97769,-2.08143 -5.90522,-2.09591 -8.80131,-2.75357 l 0,-4e-5 z"
             id="path14298"
             sodipodi:nodetypes="cccccccscc" />
          <path
             style="fill:#000000;fill-opacity:1;stroke:#000000;stroke-width:1px;stroke-linecap:butt;stroke-linejoin:miter;stroke-opacity:1"
             d="m 254.01246,476.4995 c 4.03388,4.23294 7.62134,9.19844 8.93172,14.96372 0.90983,4.26248 4.39451,8.6116 9.096,8.45841 3.78648,-0.48728 7.98972,-2.35022 9.50152,-6.10395 1.07933,-3.4053 0.15079,-7.01333 -0.26839,-10.45172 -3.18476,-6.34255 -8.2505,-11.9847 -15.5453,-14.15942 -3.03288,0.0836 -14.60298,2.88807 -11.71555,7.29296 z"
             id="path14302"
             sodipodi:nodetypes="ccccccc" />
          <path
             id="path14306"
             transform="matrix(0.21046532,0,0,0.21046532,114.73094,407.08399)"
             d="m 634.59375,439.5 c -16.19585,0.74072 -14.20081,26.51056 -11.40625,40.1875 -2.61101,30.02868 -14.50345,59.35552 -30.71875,87.3125 -7.06103,-19.35682 -14.58734,-38.98605 -13.6875,-59.78125 -0.73304,-16.6971 -21.27516,-20.6208 -34.5,-18.875 -19.43142,5.18646 -41.4876,23.94369 -37.15625,46.1875 6.83933,33.76793 33.7674,57.70798 46.71875,88.8125 -14.50772,18.79644 -29.4861,36.61363 -42.96875,53.15625 -28.68596,33.83978 -58.819,66.57102 -91.15625,96.9375 -17.67797,13.26803 -35.03492,32.06985 -50.4375,50.90625 -5.18266,19.97664 35.79698,-2.98213 47.59375,-13.25 38.36005,-20.2573 83.3476,-49.37901 114.59375,-79.65625 17.0808,-20.03083 32.22706,-39.55208 46.21875,-58.53125 35.15713,74.67453 71.59374,152.77318 142.4375,197.5625 70.78396,-6.9153 133.44801,-6.17884 197.84375,-1.875 47.95859,10.90987 41.52622,-5.56631 22.1875,-21.90625 -17.14192,-16.32858 -41.01556,-22.39365 -60.375,-35.625 -103.4732,-46.24796 -202.92385,-98.23364 -262.46875,-193.875 26.01962,-37.27535 50.37875,-71.96913 80.15625,-103.59375 15.39489,-17.2197 2.15793,-43.33654 -13.9375,-55.15625 -11.88224,-9.05304 -25.61746,-16.61191 -40.8125,-17.625 -3.10659,-1.02361 -5.81131,-1.41832 -8.125,-1.3125 z"
             style="fill:#000000;fill-opacity:1;stroke:#000000;stroke-width:4.75137663px;stroke-linecap:butt;stroke-linejoin:miter;stroke-opacity:1" />
        </g>
        <path
           id="path5829"
           d="m 202.70916,422.41864 c -1.03984,-0.0223 -2.12282,0.23553 -3.22492,0.79998 -8.67401,5.64163 -17.79618,9.03115 -26.51306,14.47238 -0.0624,-1.41805 -0.13129,-2.83795 -0.20618,-4.25444 -0.54329,-7.8299 -4.41843,-10.55791 -8.56984,-9.79067 l -0.68199,-0.10001 -0.6767,-0.10002 c -5.13365,0.79916 -2.91205,9.85815 -2.9923,15.90869 0.0624,2.00603 0.13415,4.01444 0.21146,6.01804 -9.37978,6.53877 -20.51007,15.92878 -27.92992,13.79966 -3.06793,-1.65281 -6.11913,2.23481 -3.65314,7.51799 2.39084,4.47667 5.36632,13.77766 9.18309,6.58165 7.67477,-4.69277 15.41136,-9.50221 22.99208,-14.87235 0.0424,0.8152 0.0828,1.63046 0.12689,2.44539 -10.47419,24.50603 -22.26288,47.2068 -33.97268,69.9892 -1.61809,3.86443 -3.23516,7.72618 -4.85325,11.59062 0.59701,1.19104 0.99529,4.12241 1.97197,1.99085 3.10865,-3.74865 6.37639,-7.15821 9.384,-11.12699 4.50462,-7.19462 9.12366,-14.19262 13.55523,-21.50857 5.36228,-10.10041 10.30647,-20.76645 15.0831,-31.66286 0.9503,14.49747 2.01359,28.97663 2.876,43.48984 -0.77419,18.22288 -1.61128,36.44362 -1.98253,54.70774 -1.90801,5.0025 -4.32623,12.11916 -1.42214,17.41777 2.66677,3.34971 5.89416,1.78831 7.64465,-2.82718 2.41666,-4.44291 4.19592,-9.55865 5.26031,-15.38147 1.82328,-5.31994 1.81094,-11.23292 1.67062,-17.20865 0.17815,-23.14242 -0.30426,-46.26363 -1.06792,-69.36194 8.3671,7.16266 2.57363,4.62634 10.7445,13.92056 5.26879,6.21531 7.49336,1.81214 16.73793,-6.15808 2.40561,-3.06078 0.78273,-9.36264 -1.90323,-9.97247 -14.70603,-9.18888 -16.20185,-11.93208 -26.26119,-25.25298 -0.73983,-0.95837 -0.439,-2.51711 -0.48638,-3.69082 -0.0872,-2.26609 -0.16323,-4.53215 -0.23791,-6.79983 0.63226,-1.49358 1.26358,-2.99098 1.89795,-4.48171 0.0907,-0.62392 0.17889,-1.24876 0.26961,-1.87268 0.13025,-0.11352 0.26117,-0.22227 0.39122,-0.33635 8.83058,-3.24238 18.19597,-2.64471 27.26379,-3.85444 3.26092,3.75998 10.36498,4.02312 7.75568,-5.73624 -0.24831,-8.812 -3.87875,-14.20256 -8.3848,-14.29965 l 0,4e-5 z"
           style="fill:#000000;fill-opacity:1;stroke:#000000;stroke-width:1.04980671px;stroke-linecap:butt;stroke-linejoin:miter;stroke-opacity:1"
           sodipodi:nodetypes="cccccccccccccccccccccccccccccccccccccccc" />
      </g>
    </g>
  </g>
</svg>
