<?xml version="1.0" encoding="UTF-8" standalone="no"?>
<!-- Created with Inkscape (http://www.inkscape.org/) -->

<svg
   xmlns:dc="http://purl.org/dc/elements/1.1/"
   xmlns:cc="http://creativecommons.org/ns#"
   xmlns:rdf="http://www.w3.org/1999/02/22-rdf-syntax-ns#"
   xmlns:svg="http://www.w3.org/2000/svg"
   xmlns="http://www.w3.org/2000/svg"
   xmlns:sodipodi="http://sodipodi.sourceforge.net/DTD/sodipodi-0.dtd"
   xmlns:inkscape="http://www.inkscape.org/namespaces/inkscape"
   width="1000"
   height="1000"
   id="svg3173"
   version="1.1"
   inkscape:version="0.47 r22583"
   sodipodi:docname="6b63.svg"
   inkscape:export-filename="E:\chinese\yan\6b63.png"
   inkscape:export-xdpi="18.005705"
   inkscape:export-ydpi="18.005705">
  <title
     id="title4229">Zheng</title>
  <defs
     id="defs3175">
    <inkscape:perspective
       sodipodi:type="inkscape:persp3d"
       inkscape:vp_x="0 : 526.18109 : 1"
       inkscape:vp_y="0 : 1000 : 0"
       inkscape:vp_z="744.09448 : 526.18109 : 1"
       inkscape:persp3d-origin="372.04724 : 350.78739 : 1"
       id="perspective3181" />
    <inkscape:perspective
       id="perspective3191"
       inkscape:persp3d-origin="0.5 : 0.33333333 : 1"
       inkscape:vp_z="1 : 0.5 : 1"
       inkscape:vp_y="0 : 1000 : 0"
       inkscape:vp_x="0 : 0.5 : 1"
       sodipodi:type="inkscape:persp3d" />
    <inkscape:perspective
       id="perspective4006"
       inkscape:persp3d-origin="0.5 : 0.33333333 : 1"
       inkscape:vp_z="1 : 0.5 : 1"
       inkscape:vp_y="0 : 1000 : 0"
       inkscape:vp_x="0 : 0.5 : 1"
       sodipodi:type="inkscape:persp3d" />
    <inkscape:perspective
       id="perspective4034"
       inkscape:persp3d-origin="0.5 : 0.33333333 : 1"
       inkscape:vp_z="1 : 0.5 : 1"
       inkscape:vp_y="0 : 1000 : 0"
       inkscape:vp_x="0 : 0.5 : 1"
       sodipodi:type="inkscape:persp3d" />
    <inkscape:perspective
       id="perspective4081"
       inkscape:persp3d-origin="0.5 : 0.33333333 : 1"
       inkscape:vp_z="1 : 0.5 : 1"
       inkscape:vp_y="0 : 1000 : 0"
       inkscape:vp_x="0 : 0.5 : 1"
       sodipodi:type="inkscape:persp3d" />
    <inkscape:perspective
       id="perspective4147"
       inkscape:persp3d-origin="0.5 : 0.33333333 : 1"
       inkscape:vp_z="1 : 0.5 : 1"
       inkscape:vp_y="0 : 1000 : 0"
       inkscape:vp_x="0 : 0.5 : 1"
       sodipodi:type="inkscape:persp3d" />
    <inkscape:perspective
       id="perspective3758"
       inkscape:persp3d-origin="0.5 : 0.33333333 : 1"
       inkscape:vp_z="1 : 0.5 : 1"
       inkscape:vp_y="0 : 1000 : 0"
       inkscape:vp_x="0 : 0.5 : 1"
       sodipodi:type="inkscape:persp3d" />
    <inkscape:perspective
       id="perspective3719"
       inkscape:persp3d-origin="0.5 : 0.33333333 : 1"
       inkscape:vp_z="1 : 0.5 : 1"
       inkscape:vp_y="0 : 1000 : 0"
       inkscape:vp_x="0 : 0.5 : 1"
       sodipodi:type="inkscape:persp3d" />
    <inkscape:perspective
       id="perspective3803"
       inkscape:persp3d-origin="0.5 : 0.33333333 : 1"
       inkscape:vp_z="1 : 0.5 : 1"
       inkscape:vp_y="0 : 1000 : 0"
       inkscape:vp_x="0 : 0.5 : 1"
       sodipodi:type="inkscape:persp3d" />
    <inkscape:perspective
       id="perspective3801"
       inkscape:persp3d-origin="0.5 : 0.33333333 : 1"
       inkscape:vp_z="1 : 0.5 : 1"
       inkscape:vp_y="0 : 1000 : 0"
       inkscape:vp_x="0 : 0.5 : 1"
       sodipodi:type="inkscape:persp3d" />
    <inkscape:perspective
       id="perspective3838"
       inkscape:persp3d-origin="0.5 : 0.33333333 : 1"
       inkscape:vp_z="1 : 0.5 : 1"
       inkscape:vp_y="0 : 1000 : 0"
       inkscape:vp_x="0 : 0.5 : 1"
       sodipodi:type="inkscape:persp3d" />
  </defs>
  <sodipodi:namedview
     id="base"
     pagecolor="#ffffff"
     bordercolor="#666666"
     borderopacity="1.0"
     inkscape:pageopacity="0.0"
     inkscape:pageshadow="2"
     inkscape:zoom="0.49497475"
     inkscape:cx="571.51329"
     inkscape:cy="512.69615"
     inkscape:document-units="px"
     inkscape:current-layer="g4143"
     showgrid="false"
     inkscape:window-width="1440"
     inkscape:window-height="840"
     inkscape:window-x="-4"
     inkscape:window-y="-4"
     inkscape:window-maximized="1" />
  <metadata
     id="metadata3178">
    <rdf:RDF>
      <cc:Work
         rdf:about="">
        <dc:format>image/svg+xml</dc:format>
        <dc:type
           rdf:resource="http://purl.org/dc/dcmitype/StillImage" />
        <dc:title>Zheng</dc:title>
        <dc:date>2010-08-14</dc:date>
        <dc:creator>
          <cc:Agent>
            <dc:title>Alex Amies</dc:title>
          </cc:Agent>
        </dc:creator>
        <dc:rights>
          <cc:Agent>
            <dc:title>@ Alex Amies 2010</dc:title>
          </cc:Agent>
        </dc:rights>
        <dc:publisher>
          <cc:Agent>
            <dc:title>chinesenotes.com</dc:title>
          </cc:Agent>
        </dc:publisher>
        <dc:source>Yan Qin Ceremonial Inscription</dc:source>
        <dc:language>Chinese 中文</dc:language>
        <dc:description>Tracing from Tang Dynasty Ceremonial Inscription by Yan Zhenqing 颜真卿 (709－785)</dc:description>
        <cc:license
           rdf:resource="http://creativecommons.org/licenses/by/3.0/" />
      </cc:Work>
      <cc:License
         rdf:about="http://creativecommons.org/licenses/by/3.0/">
        <cc:permits
           rdf:resource="http://creativecommons.org/ns#Reproduction" />
        <cc:permits
           rdf:resource="http://creativecommons.org/ns#Distribution" />
        <cc:requires
           rdf:resource="http://creativecommons.org/ns#Notice" />
        <cc:requires
           rdf:resource="http://creativecommons.org/ns#Attribution" />
        <cc:permits
           rdf:resource="http://creativecommons.org/ns#DerivativeWorks" />
      </cc:License>
    </rdf:RDF>
  </metadata>
  <g
     inkscape:label="Layer 1"
     inkscape:groupmode="layer"
     id="layer1"
     transform="translate(0,-52.362183)">
    <g
       transform="matrix(4.7609464,0,0,4.7609464,-1421.6669,-3910.0295)"
       id="g4143"
       style="fill:#000000;fill-opacity:1">
      <path
         style="fill:#000000;stroke:#000000;stroke-width:4.75137663000000020px;stroke-linecap:butt;stroke-linejoin:miter;stroke-opacity:1;fill-opacity:1"
         d="M 670.84375 170.46875 C 655.96608 170.80103 641.08078 174.23878 626.625 177.65625 C 566.23016 189.28424 506.10874 202.40345 445.71875 214.03125 C 393.81715 225.81845 341.38694 236.91084 287.375 237.84375 C 272.22576 233.67221 264.26581 225.86847 242.25 229.78125 C 224.3785 235.71148 233.17035 249.80474 242.90625 264.78125 C 263.95663 292.80037 289.00224 312.87155 320 327.46875 C 344.85647 338.96691 344.48573 301.38582 365.625 299.4375 C 398.94115 293.19346 431.94959 285.31947 465.03125 277.8125 C 460.53355 289.69221 460.51611 304.3191 459.46875 316.34375 C 443.61194 425.67869 458.56332 535.92879 464.625 645.375 C 465.23984 668.90879 460.67749 695.32456 469.3125 717.59375 C 430.61563 724.15363 390.71903 731.95306 347.6875 743.90625 C 340.71307 747.17121 333.64472 750.06617 326.5 752.71875 C 327.11391 746.55871 327.39778 740.30517 328.5625 734.5625 C 333.86153 672.76551 366.78164 591.5197 322.0625 537.90625 C 296.71989 515.983 259.41631 504.87694 227.28125 517.78125 C 210.25506 523.91873 191.54255 532.40321 203.65625 552.375 C 234.92776 595.84235 262.5383 641.5011 275.21875 693.9375 C 280.97645 716.49863 263.06669 740.01562 275.90625 761.4375 C 276.61351 763.15389 277.4951 764.8953 278.53125 766.65625 C 241.15178 774.98691 202.61422 778.88839 164.875 784.625 C 160.51145 785.88365 157.96492 799.42956 154 801.65625 C 164.0843 826.05182 176.84237 831.57463 200.96875 842.75 C 285.43898 845.44089 362.57094 805.25855 444.53125 791.46875 C 526.09488 772.81398 610.21231 772.44365 693.375 771.71875 C 737.86195 777.4008 772.37584 809.32494 805.46875 836.25 C 847.2511 860.07663 860.47516 813.37221 853.25 782.25 C 833.11805 729.33875 791.56131 698.102 743.5625 678.25 C 703.87887 670.44633 663.5405 676.47121 625.9375 690.1875 C 601.07528 695.70094 576.78165 700.06645 552.5625 704.09375 C 553.61786 691.94418 552.88736 679.31918 553.0625 667.65625 C 552.68767 625.90672 550.77812 584.14377 548.65625 542.375 C 560.99293 544.37717 573.58799 538.83054 586.09375 540.46875 C 627.3504 541.89351 670.28272 545.15505 709.53125 529.59375 C 730.5146 517.38835 777.80129 523.18628 779.8125 492.0625 C 778.60422 478.62406 765.59909 470.66629 753.75 467.375 C 685.79235 450.81638 610.06001 471.71001 549.6875 503.65625 C 548.69916 504.38426 547.72915 505.2121 546.78125 506.0625 C 543.9575 450.60461 541.46744 395.15861 542.4375 339.71875 C 541.7831 314.29897 538.67362 284.65044 519.6875 266.09375 C 530.35398 264.00558 541.04214 262.0698 551.78125 260.34375 C 604.31763 251.31876 657.79797 253.92885 711.03125 247.25 C 725.27672 252.52151 749.5459 252.00096 746.96875 230.59375 C 743.75892 204.29366 721.48674 182.90682 697.5 173.90625 C 688.70356 171.19526 679.77035 170.26938 670.84375 170.46875 z "
         transform="matrix(0.21004227,0,0,0.21004227,298.61015,832.26975)"
         id="path12478" />
    </g>
  </g>
</svg>
