<?xml version="1.0" encoding="UTF-8" standalone="no"?>
<!-- Created with Inkscape (http://www.inkscape.org/) -->

<svg
   xmlns:dc="http://purl.org/dc/elements/1.1/"
   xmlns:cc="http://creativecommons.org/ns#"
   xmlns:rdf="http://www.w3.org/1999/02/22-rdf-syntax-ns#"
   xmlns:svg="http://www.w3.org/2000/svg"
   xmlns="http://www.w3.org/2000/svg"
   xmlns:sodipodi="http://sodipodi.sourceforge.net/DTD/sodipodi-0.dtd"
   xmlns:inkscape="http://www.inkscape.org/namespaces/inkscape"
   width="1000"
   height="1000"
   id="svg3173"
   version="1.1"
   inkscape:version="0.47 r22583"
   sodipodi:docname="6b66.svg"
   inkscape:export-filename="E:\chinese\yan\6b66.png"
   inkscape:export-xdpi="18.005705"
   inkscape:export-ydpi="18.005705">
  <title
     id="title3632">Wu</title>
  <defs
     id="defs3175">
    <inkscape:perspective
       sodipodi:type="inkscape:persp3d"
       inkscape:vp_x="0 : 526.18109 : 1"
       inkscape:vp_y="0 : 1000 : 0"
       inkscape:vp_z="744.09448 : 526.18109 : 1"
       inkscape:persp3d-origin="372.04724 : 350.78739 : 1"
       id="perspective3181" />
    <inkscape:perspective
       id="perspective3191"
       inkscape:persp3d-origin="0.5 : 0.33333333 : 1"
       inkscape:vp_z="1 : 0.5 : 1"
       inkscape:vp_y="0 : 1000 : 0"
       inkscape:vp_x="0 : 0.5 : 1"
       sodipodi:type="inkscape:persp3d" />
    <inkscape:perspective
       id="perspective4006"
       inkscape:persp3d-origin="0.5 : 0.33333333 : 1"
       inkscape:vp_z="1 : 0.5 : 1"
       inkscape:vp_y="0 : 1000 : 0"
       inkscape:vp_x="0 : 0.5 : 1"
       sodipodi:type="inkscape:persp3d" />
    <inkscape:perspective
       id="perspective4034"
       inkscape:persp3d-origin="0.5 : 0.33333333 : 1"
       inkscape:vp_z="1 : 0.5 : 1"
       inkscape:vp_y="0 : 1000 : 0"
       inkscape:vp_x="0 : 0.5 : 1"
       sodipodi:type="inkscape:persp3d" />
    <inkscape:perspective
       id="perspective4081"
       inkscape:persp3d-origin="0.5 : 0.33333333 : 1"
       inkscape:vp_z="1 : 0.5 : 1"
       inkscape:vp_y="0 : 1000 : 0"
       inkscape:vp_x="0 : 0.5 : 1"
       sodipodi:type="inkscape:persp3d" />
    <inkscape:perspective
       id="perspective4147"
       inkscape:persp3d-origin="0.5 : 0.33333333 : 1"
       inkscape:vp_z="1 : 0.5 : 1"
       inkscape:vp_y="0 : 1000 : 0"
       inkscape:vp_x="0 : 0.5 : 1"
       sodipodi:type="inkscape:persp3d" />
    <inkscape:perspective
       id="perspective3807"
       inkscape:persp3d-origin="0.5 : 0.33333333 : 1"
       inkscape:vp_z="1 : 0.5 : 1"
       inkscape:vp_y="0 : 1000 : 0"
       inkscape:vp_x="0 : 0.5 : 1"
       sodipodi:type="inkscape:persp3d" />
    <inkscape:perspective
       id="perspective3838"
       inkscape:persp3d-origin="0.5 : 0.33333333 : 1"
       inkscape:vp_z="1 : 0.5 : 1"
       inkscape:vp_y="0 : 1000 : 0"
       inkscape:vp_x="0 : 0.5 : 1"
       sodipodi:type="inkscape:persp3d" />
    <inkscape:perspective
       id="perspective2993"
       inkscape:persp3d-origin="0.5 : 0.33333333 : 1"
       inkscape:vp_z="1 : 0.5 : 1"
       inkscape:vp_y="0 : 1000 : 0"
       inkscape:vp_x="0 : 0.5 : 1"
       sodipodi:type="inkscape:persp3d" />
    <inkscape:perspective
       id="perspective3798"
       inkscape:persp3d-origin="0.5 : 0.33333333 : 1"
       inkscape:vp_z="1 : 0.5 : 1"
       inkscape:vp_y="0 : 1000 : 0"
       inkscape:vp_x="0 : 0.5 : 1"
       sodipodi:type="inkscape:persp3d" />
    <inkscape:perspective
       id="perspective3806"
       inkscape:persp3d-origin="0.5 : 0.33333333 : 1"
       inkscape:vp_z="1 : 0.5 : 1"
       inkscape:vp_y="0 : 1000 : 0"
       inkscape:vp_x="0 : 0.5 : 1"
       sodipodi:type="inkscape:persp3d" />
    <inkscape:perspective
       id="perspective3778"
       inkscape:persp3d-origin="0.5 : 0.33333333 : 1"
       inkscape:vp_z="1 : 0.5 : 1"
       inkscape:vp_y="0 : 1000 : 0"
       inkscape:vp_x="0 : 0.5 : 1"
       sodipodi:type="inkscape:persp3d" />
  </defs>
  <sodipodi:namedview
     id="base"
     pagecolor="#ffffff"
     bordercolor="#666666"
     borderopacity="1.0"
     inkscape:pageopacity="0.0"
     inkscape:pageshadow="2"
     inkscape:zoom="0.49497475"
     inkscape:cx="78.915694"
     inkscape:cy="518.65267"
     inkscape:document-units="px"
     inkscape:current-layer="g5800"
     showgrid="false"
     inkscape:window-width="1440"
     inkscape:window-height="840"
     inkscape:window-x="-4"
     inkscape:window-y="-4"
     inkscape:window-maximized="1" />
  <metadata
     id="metadata3178">
    <rdf:RDF>
      <cc:Work
         rdf:about="">
        <dc:format>image/svg+xml</dc:format>
        <dc:type
           rdf:resource="http://purl.org/dc/dcmitype/StillImage" />
        <dc:title>Wu</dc:title>
        <dc:date>2010-07-18</dc:date>
        <dc:creator>
          <cc:Agent>
            <dc:title>Alex Amies</dc:title>
          </cc:Agent>
        </dc:creator>
        <dc:rights>
          <cc:Agent>
            <dc:title>@ Alex Amies 2010</dc:title>
          </cc:Agent>
        </dc:rights>
        <dc:publisher>
          <cc:Agent>
            <dc:title>chinesenotes.com</dc:title>
          </cc:Agent>
        </dc:publisher>
        <dc:source>Yan Qin Ceremonial Inscription</dc:source>
        <dc:language>Chinese 中文</dc:language>
        <dc:description>Tracing from Tang Dynasty Ceremonial Inscription by Yan Zhenqing 颜真卿 (709－785)</dc:description>
        <cc:license
           rdf:resource="http://creativecommons.org/licenses/by/3.0/" />
      </cc:Work>
      <cc:License
         rdf:about="http://creativecommons.org/licenses/by/3.0/">
        <cc:permits
           rdf:resource="http://creativecommons.org/ns#Reproduction" />
        <cc:permits
           rdf:resource="http://creativecommons.org/ns#Distribution" />
        <cc:requires
           rdf:resource="http://creativecommons.org/ns#Notice" />
        <cc:requires
           rdf:resource="http://creativecommons.org/ns#Attribution" />
        <cc:permits
           rdf:resource="http://creativecommons.org/ns#DerivativeWorks" />
      </cc:License>
    </rdf:RDF>
  </metadata>
  <g
     inkscape:label="Layer 1"
     inkscape:groupmode="layer"
     id="layer1"
     transform="translate(0,-52.362183)">
    <g
       transform="matrix(4.7418067,0,0,4.7418067,-524.70921,-2979.6975)"
       id="g5800"
       style="fill:none;fill-opacity:1">
      <path
         style="fill:#000000;stroke:#000000;stroke-width:4.76094674999999960px;stroke-linecap:butt;stroke-linejoin:miter;stroke-opacity:1;fill-opacity:1"
         d="M 634.9375 29.40625 C 624.91257 29.25819 616.57592 34.661739 610.71875 47.71875 C 604.19682 76.077978 616.07329 105.03471 632.53125 127.78125 C 658.37367 164.84952 695.53623 191.93858 723.25 227.375 C 739.56727 257.092 771.30894 273.07585 803.9375 258.71875 C 824.58048 239.85418 810.44117 192.97147 797.03125 172.40625 C 761.21038 145.9713 680.70349 30.082176 634.9375 29.40625 z M 489.8125 62.21875 C 487.02139 62.177202 484.03283 62.404654 480.875 62.875 C 466.59903 61.742372 452.69787 67.313564 441.375 75.6875 C 400.76384 100.15299 436.88577 145.28074 439.03125 179.1875 C 451.40644 252.28027 458.9019 326.43278 475.71875 398.625 C 391.55537 424.27645 306.8592 449.01425 220.15625 471.96875 C 195.91979 477.36331 171.49367 481.89303 147.21875 487.15625 C 140.75605 508.20228 152.62502 526.82596 167.875 540.46875 C 183.62088 557.33422 207.19148 565.76662 229.875 562.25 C 264.43561 543.30743 294.60758 517.41747 327.09375 495.21875 C 379.79779 475.48579 433.31028 458.13095 487.40625 442.78125 C 487.79492 444.08525 488.16555 445.38523 488.5625 446.6875 C 543.38874 651.97942 646.19684 861.16068 840.65625 964.78125 C 870.02913 980.1972 913.74512 986.51367 935.59375 956.125 C 959.29558 919.68806 905.81263 910.83306 902.59375 881.6875 C 901.03474 831.31813 899.23651 780.78035 898.78125 730.3125 C 870.29006 712.29861 871.11646 776.86698 856.25 792.65625 C 845.77777 819.13677 830.31881 886.0443 797.6875 840.5625 C 689.55661 725.72115 589.64205 585.31825 554.125 424.90625 C 614.4175 409.6659 675.29066 396.67161 736.4375 385.375 C 756.45499 383.20368 794.90153 391.80076 792.4375 361.40625 C 782.58701 337.81093 762.95906 312.72673 734.75 314.0625 C 709.14443 309.10162 691.33389 327.00816 670.5625 337.9375 C 628.96791 351.03495 587.53497 364.08612 546.0625 376.96875 C 534.48006 293.39484 521.47188 209.65653 519.375 125.28125 C 530.40296 97.133102 522.74765 62.70902 489.8125 62.21875 z M 167.9375 177.78125 C 138.36595 178.62229 118.48558 209.90283 101.625 233.75 C 102.07168 260.27989 113.21673 273.79767 137.4375 284.0625 C 189.77889 292.84741 246.5342 293.53621 300.25 295.03125 C 302.51711 291.06383 304.79539 287.09247 307.0625 283.125 C 259.20226 255.26916 213.55408 225.14292 181.21875 179.40625 C 176.57895 178.17377 172.16201 177.6611 167.9375 177.78125 z M 384.6875 501.8125 C 375.62316 501.90986 366.44171 503.81596 356.375 507.5625 C 363.15716 585.9824 360.27366 665.23342 358.28125 743.875 C 358.34286 754.08496 359.21445 762.70719 362.65625 769.5 C 330.44704 779.25242 298.7267 790.59108 267.46875 803.1875 C 283.70241 751.88668 301.73108 701.25074 298.5625 647 C 278.01227 620.69492 255.00967 619.68181 227.125 638.5 C 235.73726 683.40477 231.17305 726.38776 225.4375 771.125 C 210.34276 792.39203 202.14507 808.59408 202.53125 831.3125 C 175.29786 843.8837 148.42141 857.21331 121.84375 871.0625 C 109.25359 882.09834 112.14293 895.46999 113.21875 910.53125 C 134.74978 920.78441 161.77118 923.05167 182.15625 908.875 C 258.54775 868.90541 328.27326 815.60226 417.0625 812.0625 C 451.24671 809.71772 487.73341 808.91171 518.65625 825.96875 C 531.99021 832.90018 546.62581 837.77088 561.5625 833.09375 C 579.57212 828.47419 578.09355 799.25355 564 789.125 C 538.66244 753.26328 494.57333 747.6628 453.375 746.8125 C 448.30232 747.80022 443.23558 748.85964 438.1875 749.9375 C 439.13121 710.62746 442.24797 671.41582 445.1875 632.1875 C 466.7964 633.65693 492.11529 625.33109 509.40625 616.375 C 521.04255 606.5606 527.19555 591.81674 523 577.28125 C 503.62895 563.04344 472.69845 572.15808 448.6875 581.65625 C 449.0295 575.99012 449.3697 570.325 449.65625 564.65625 C 449.07894 540.47906 445.25157 520.14582 420.5 510.28125 C 407.77589 504.56143 396.34165 501.68732 384.6875 501.8125 z "
         transform="matrix(0.21089008,0,0,0.21089008,110.65597,639.43131)"
         id="path4761" />
    </g>
  </g>
</svg>
