<?xml version="1.0" encoding="UTF-8" standalone="no"?>
<!-- Created with Inkscape (http://www.inkscape.org/) -->

<svg
   xmlns:dc="http://purl.org/dc/elements/1.1/"
   xmlns:cc="http://creativecommons.org/ns#"
   xmlns:rdf="http://www.w3.org/1999/02/22-rdf-syntax-ns#"
   xmlns:svg="http://www.w3.org/2000/svg"
   xmlns="http://www.w3.org/2000/svg"
   xmlns:sodipodi="http://sodipodi.sourceforge.net/DTD/sodipodi-0.dtd"
   xmlns:inkscape="http://www.inkscape.org/namespaces/inkscape"
   width="1000"
   height="1000"
   id="svg3173"
   version="1.1"
   inkscape:version="0.47 r22583"
   sodipodi:docname="6b72.svg"
   inkscape:export-filename="E:\chinese\yan\6b72.png"
   inkscape:export-xdpi="18.005705"
   inkscape:export-ydpi="18.005705">
  <title
     id="title5107">Sui</title>
  <defs
     id="defs3175">
    <inkscape:perspective
       sodipodi:type="inkscape:persp3d"
       inkscape:vp_x="0 : 526.18109 : 1"
       inkscape:vp_y="0 : 1000 : 0"
       inkscape:vp_z="744.09448 : 526.18109 : 1"
       inkscape:persp3d-origin="372.04724 : 350.78739 : 1"
       id="perspective3181" />
    <inkscape:perspective
       id="perspective3191"
       inkscape:persp3d-origin="0.5 : 0.33333333 : 1"
       inkscape:vp_z="1 : 0.5 : 1"
       inkscape:vp_y="0 : 1000 : 0"
       inkscape:vp_x="0 : 0.5 : 1"
       sodipodi:type="inkscape:persp3d" />
    <inkscape:perspective
       id="perspective4006"
       inkscape:persp3d-origin="0.5 : 0.33333333 : 1"
       inkscape:vp_z="1 : 0.5 : 1"
       inkscape:vp_y="0 : 1000 : 0"
       inkscape:vp_x="0 : 0.5 : 1"
       sodipodi:type="inkscape:persp3d" />
    <inkscape:perspective
       id="perspective4034"
       inkscape:persp3d-origin="0.5 : 0.33333333 : 1"
       inkscape:vp_z="1 : 0.5 : 1"
       inkscape:vp_y="0 : 1000 : 0"
       inkscape:vp_x="0 : 0.5 : 1"
       sodipodi:type="inkscape:persp3d" />
    <inkscape:perspective
       id="perspective4081"
       inkscape:persp3d-origin="0.5 : 0.33333333 : 1"
       inkscape:vp_z="1 : 0.5 : 1"
       inkscape:vp_y="0 : 1000 : 0"
       inkscape:vp_x="0 : 0.5 : 1"
       sodipodi:type="inkscape:persp3d" />
    <inkscape:perspective
       id="perspective4147"
       inkscape:persp3d-origin="0.5 : 0.33333333 : 1"
       inkscape:vp_z="1 : 0.5 : 1"
       inkscape:vp_y="0 : 1000 : 0"
       inkscape:vp_x="0 : 0.5 : 1"
       sodipodi:type="inkscape:persp3d" />
    <inkscape:perspective
       id="perspective3801"
       inkscape:persp3d-origin="0.5 : 0.33333333 : 1"
       inkscape:vp_z="1 : 0.5 : 1"
       inkscape:vp_y="0 : 1000 : 0"
       inkscape:vp_x="0 : 0.5 : 1"
       sodipodi:type="inkscape:persp3d" />
    <inkscape:perspective
       id="perspective3122"
       inkscape:persp3d-origin="0.5 : 0.33333333 : 1"
       inkscape:vp_z="1 : 0.5 : 1"
       inkscape:vp_y="0 : 1000 : 0"
       inkscape:vp_x="0 : 0.5 : 1"
       sodipodi:type="inkscape:persp3d" />
    <inkscape:perspective
       id="perspective3854"
       inkscape:persp3d-origin="0.5 : 0.33333333 : 1"
       inkscape:vp_z="1 : 0.5 : 1"
       inkscape:vp_y="0 : 1000 : 0"
       inkscape:vp_x="0 : 0.5 : 1"
       sodipodi:type="inkscape:persp3d" />
    <inkscape:perspective
       id="perspective3922"
       inkscape:persp3d-origin="0.5 : 0.33333333 : 1"
       inkscape:vp_z="1 : 0.5 : 1"
       inkscape:vp_y="0 : 1000 : 0"
       inkscape:vp_x="0 : 0.5 : 1"
       sodipodi:type="inkscape:persp3d" />
    <inkscape:perspective
       id="perspective3945"
       inkscape:persp3d-origin="0.5 : 0.33333333 : 1"
       inkscape:vp_z="1 : 0.5 : 1"
       inkscape:vp_y="0 : 1000 : 0"
       inkscape:vp_x="0 : 0.5 : 1"
       sodipodi:type="inkscape:persp3d" />
    <inkscape:perspective
       id="perspective3972"
       inkscape:persp3d-origin="0.5 : 0.33333333 : 1"
       inkscape:vp_z="1 : 0.5 : 1"
       inkscape:vp_y="0 : 1000 : 0"
       inkscape:vp_x="0 : 0.5 : 1"
       sodipodi:type="inkscape:persp3d" />
    <inkscape:perspective
       id="perspective3995"
       inkscape:persp3d-origin="0.5 : 0.33333333 : 1"
       inkscape:vp_z="1 : 0.5 : 1"
       inkscape:vp_y="0 : 1000 : 0"
       inkscape:vp_x="0 : 0.5 : 1"
       sodipodi:type="inkscape:persp3d" />
    <inkscape:perspective
       id="perspective3802"
       inkscape:persp3d-origin="0.5 : 0.33333333 : 1"
       inkscape:vp_z="1 : 0.5 : 1"
       inkscape:vp_y="0 : 1000 : 0"
       inkscape:vp_x="0 : 0.5 : 1"
       sodipodi:type="inkscape:persp3d" />
    <inkscape:perspective
       id="perspective3833"
       inkscape:persp3d-origin="0.5 : 0.33333333 : 1"
       inkscape:vp_z="1 : 0.5 : 1"
       inkscape:vp_y="0 : 1000 : 0"
       inkscape:vp_x="0 : 0.5 : 1"
       sodipodi:type="inkscape:persp3d" />
    <inkscape:perspective
       id="perspective3913"
       inkscape:persp3d-origin="0.5 : 0.33333333 : 1"
       inkscape:vp_z="1 : 0.5 : 1"
       inkscape:vp_y="0 : 1000 : 0"
       inkscape:vp_x="0 : 0.5 : 1"
       sodipodi:type="inkscape:persp3d" />
    <inkscape:perspective
       id="perspective4500"
       inkscape:persp3d-origin="0.5 : 0.33333333 : 1"
       inkscape:vp_z="1 : 0.5 : 1"
       inkscape:vp_y="0 : 1000 : 0"
       inkscape:vp_x="0 : 0.5 : 1"
       sodipodi:type="inkscape:persp3d" />
    <inkscape:perspective
       id="perspective5117"
       inkscape:persp3d-origin="0.5 : 0.33333333 : 1"
       inkscape:vp_z="1 : 0.5 : 1"
       inkscape:vp_y="0 : 1000 : 0"
       inkscape:vp_x="0 : 0.5 : 1"
       sodipodi:type="inkscape:persp3d" />
  </defs>
  <sodipodi:namedview
     id="base"
     pagecolor="#ffffff"
     bordercolor="#666666"
     borderopacity="1.0"
     inkscape:pageopacity="0.0"
     inkscape:pageshadow="2"
     inkscape:zoom="0.49497475"
     inkscape:cx="483.07102"
     inkscape:cy="534.97897"
     inkscape:document-units="px"
     inkscape:current-layer="g4634"
     showgrid="false"
     inkscape:window-width="1440"
     inkscape:window-height="840"
     inkscape:window-x="-4"
     inkscape:window-y="-4"
     inkscape:window-maximized="1" />
  <metadata
     id="metadata3178">
    <rdf:RDF>
      <cc:Work
         rdf:about="">
        <dc:format>image/svg+xml</dc:format>
        <dc:type
           rdf:resource="http://purl.org/dc/dcmitype/StillImage" />
        <dc:title>Sui</dc:title>
        <dc:date>2010-08-21</dc:date>
        <dc:creator>
          <cc:Agent>
            <dc:title>Alex Amies</dc:title>
          </cc:Agent>
        </dc:creator>
        <dc:rights>
          <cc:Agent>
            <dc:title>@ Alex Amies 2010</dc:title>
          </cc:Agent>
        </dc:rights>
        <dc:publisher>
          <cc:Agent>
            <dc:title>chinesenotes.com</dc:title>
          </cc:Agent>
        </dc:publisher>
        <dc:source>Yan Qin Ceremonial Inscription</dc:source>
        <dc:language>Chinese 中文</dc:language>
        <dc:description>Tracing from Tang Dynasty Ceremonial Inscription by Yan Zhenqing 颜真卿 (709－785)</dc:description>
        <cc:license
           rdf:resource="http://creativecommons.org/licenses/by/3.0/" />
      </cc:Work>
      <cc:License
         rdf:about="http://creativecommons.org/licenses/by/3.0/">
        <cc:permits
           rdf:resource="http://creativecommons.org/ns#Reproduction" />
        <cc:permits
           rdf:resource="http://creativecommons.org/ns#Distribution" />
        <cc:requires
           rdf:resource="http://creativecommons.org/ns#Notice" />
        <cc:requires
           rdf:resource="http://creativecommons.org/ns#Attribution" />
        <cc:permits
           rdf:resource="http://creativecommons.org/ns#DerivativeWorks" />
      </cc:License>
    </rdf:RDF>
  </metadata>
  <g
     inkscape:label="Layer 1"
     inkscape:groupmode="layer"
     id="layer1"
     transform="translate(0,-52.362183)">
    <g
       transform="matrix(4.7609464,0,0,4.7609464,-444.07486,-2879.5352)"
       id="g4634"
       style="fill:#000000;fill-opacity:1">
      <path
         style="fill:#000000;stroke:#000000;stroke-width:4.75137663000000020px;stroke-linecap:butt;stroke-linejoin:miter;stroke-opacity:1;fill-opacity:1"
         d="M 380.40625 62.34375 C 373.7159 62.717211 366.04415 68.83162 361.375 74.21875 C 339.35472 98.506432 332.6214 132.80821 329.21875 164.625 C 328.03799 189.03832 330.07081 213.79945 334.03125 238.09375 C 336.54527 253.51522 330.12589 272.7376 335.90625 284.65625 C 339.85845 292.80547 354.76849 296.22244 364.75 298.21875 C 365.51777 298.3723 366.3814 298.51855 367.25 298.65625 C 335.6045 308.77898 304.04198 319.15575 272.71875 330.15625 C 272.87505 329.69026 273.01549 329.21165 273.125 328.75 C 273.77054 290.4868 276.2675 252.72096 282.75 214.8125 C 284.08297 207.60119 285.16289 197.83812 281.59375 193 C 278.06432 188.21577 268.41233 185.41944 260.78125 186.71875 C 245.07884 184.62798 237.18118 197.35086 234.09375 211.6875 C 237.83704 252.69286 225.86107 301.0627 240.875 340.65625 C 241.00356 340.91317 241.17334 341.15368 241.34375 341.40625 C 235.05578 343.72964 228.79192 346.07385 222.53125 348.46875 C 213.06644 352.61001 204.2348 357.97478 195.0625 362.6875 C 181.63582 379.15014 170.74687 398.05749 168.15625 419.46875 C 160.65506 433.3813 167.90676 462.76467 185.28125 451.84375 C 183.71562 461.23551 182.96458 470.65415 185.84375 480.0625 C 191.02699 548.32709 179.71912 616.90087 170.625 684.46875 C 167.3668 702.43052 155.75646 717.3453 149.59375 734.3125 C 147.56516 741.12232 140.28408 750.04891 149.46875 754.03125 C 163.10024 761.6669 187.72757 748.83185 198.78125 738.875 C 201.8921 728.74609 196.45834 715.85397 198.375 704.6875 C 200.54709 687.29276 209.98281 671.83762 215.46875 655.34375 C 237.70413 612.8803 234.806 564.64613 247.28125 519.375 C 250.59412 509.13576 251.54939 500.12974 250.6875 492.125 C 263.75391 493.97676 279.10281 492.72509 292.875 490.65625 C 317.81365 483.13595 334.63359 460.73814 358.875 451.25 C 388.19965 442.024 417.67883 433.36605 447.5625 426.9375 C 448.7242 439.6945 452.68594 452.54135 458.40625 464.21875 C 459.69127 468.20268 461.01275 472.14689 462.3125 476.0625 C 460.44751 474.99097 458.46792 474.45026 456.375 474.6875 C 397.42234 493.03266 322.76483 499.79702 271.4375 537.5 C 261.83738 552.31821 263.29027 567.82724 273.125 581.59375 C 276.36459 584.37057 285.05864 584.45122 288.40625 581.59375 C 299.19284 566.02441 307.21203 553.7872 326.09375 548.21875 C 333.57374 547.49467 340.83247 546.07008 347.9375 544.125 C 347.32436 544.74273 346.70905 545.35345 346.09375 545.96875 C 345.76572 585.99326 345.40697 626.05039 343.9375 666.03125 C 345.69657 687.71846 329.11264 710.43034 336.4375 730.53125 C 341.02362 742.82135 356.57325 746.53133 366.9375 754.03125 C 388.06096 740.53463 387.94683 711.31676 391.9375 689.03125 C 400.61404 641.29229 401.56181 592.92932 399.0625 544.625 C 397.47686 538.38506 392.97949 533.49257 387.8125 529.09375 C 412.20401 518.44473 436.34723 507.35662 463.40625 507 C 465.521 506.96823 469.34903 507.02528 472.90625 506.8125 C 494.94962 568.15562 519.38154 620.95178 548.21875 668.34375 C 531.45803 701.95917 513.01322 734.77243 494.53125 767.5 C 487.6802 779.6317 481.26933 792.09211 471.59375 802.28125 C 468.02575 806.03868 461.50898 809.2551 461.46875 814.09375 C 461.33021 830.77039 478.7016 810.40515 485.8125 805.65625 C 512.42395 787.88407 533.78153 762.973 553.40625 737.875 C 561.61386 727.37829 567.18327 716.15888 571.96875 704.71875 C 630.88176 788.99151 707.34916 857.19463 814.9375 930.625 C 845.23559 942.84302 870.17741 958.85497 897.1875 939.84375 C 920.47538 928.48732 904.66449 894.74085 887.5625 885.5 C 865.99437 860.62605 869.91045 820.64715 868.78125 789.5625 C 857.90887 643.88225 849.73046 789.02761 848.65625 791.53125 C 843.62574 803.25608 841.44933 826.82191 840.5 842.96875 C 839.88674 853.40003 843.74642 861.23472 834.40625 859.125 C 725.28008 782.94551 660.47715 713.1054 608.5625 628.0625 C 619.214 609.46749 630.37327 591.17276 642.8125 573.71875 C 649.16536 564.80483 659.12734 555.84273 659.375 544.6875 C 659.61114 534.05626 651.35038 527.46461 645.15625 520.4375 C 642.35443 517.2589 640.1123 511.39195 635 512.4375 C 627.6183 513.94715 620.03967 515.06186 612.5 515.4375 C 595.68438 516.27533 589.53145 529.47337 585.875 543.375 C 583.25077 553.35204 584.19203 565.89373 580.59375 576.875 C 580.47467 577.23841 580.36723 577.6046 580.25 577.96875 C 555.38246 530.68116 532.33653 478.20667 506.84375 417.65625 C 514.07519 416.99669 521.32307 416.51406 528.625 416.25 C 541.42671 416.13145 556.67341 411.26037 563.40625 402.96875 C 555.97246 390.47822 542.14267 377.6472 526.84375 381.5 C 516.48148 384.10955 506.07971 386.53841 495.65625 388.875 C 492.17673 374.10026 489.81276 358.12927 471.21875 369.15625 L 469.96875 369.5 C 459.92163 377.68592 453.60643 387.64016 450.25 398.46875 C 422.58437 404.02784 394.83452 409.27331 367.21875 415.03125 C 328.67865 431.42643 275.13925 421.34968 240.875 447.5625 C 237.31733 451.37981 235.17044 455.94028 234.1875 460.78125 C 225.76606 452.96272 214.85401 446.73437 203 441.53125 C 230.36281 423.62298 248.45754 393.53863 277.65625 377.78125 C 356.35355 336.53208 446.41521 318.86365 531.71875 295.375 C 554.07858 287.80367 585.85796 281.10373 585.5625 253.09375 C 575.34479 238.5034 555.26425 242.37655 539.90625 242.5 C 489.64344 260.063 438.69818 275.93469 387.8125 292.09375 C 401.15636 256.45692 412.99763 219.55701 420.96875 182 C 425.4128 183.02989 430.29045 183.27521 435.125 183.09375 C 468.89539 177.1847 501.00037 161.26561 535.65625 160.90625 C 552.37998 157.58782 603.13986 175.34274 607.71875 152.75 C 617.16832 135.87697 597.08464 121.08895 583.65625 113.25 C 564.89288 104.75338 541.43453 100.06823 520.875 99.6875 C 510.88996 99.502299 499.52403 105.26701 492.03125 111.5625 C 478.64604 124.47976 460.53188 130.25092 442.5625 133.71875 C 438.28466 134.3162 433.43886 134.34487 428.78125 134.625 C 429.20894 130.8698 429.57567 127.10586 429.90625 123.34375 C 436.53982 91.215741 410.40736 70.418934 381.71875 62.34375 C 381.28271 62.315631 380.85227 62.318853 380.40625 62.34375 z M 588.75 344.03125 C 574.03687 355.18948 574.35477 370.64316 566.6875 388.15625 C 568.73271 409.10284 579.43457 426.44945 598.9375 433.96875 C 602.69174 434.80296 610.09788 432.67709 610.8125 428.875 C 613.79033 413.03181 611.80674 392.90841 610.34375 375.03125 C 611.35478 358.4783 604.59852 348.56953 588.75 344.03125 z M 308.65625 602.84375 C 306.67758 602.93933 303.6192 604.33538 301.96875 605.375 C 286.44045 616.6076 267.94196 627.52874 257.84375 644.40625 C 253.39398 659.05592 249.36235 676.91374 252.75 691.90625 C 256.9981 697.63991 268.22812 698.98744 276.375 701.46875 C 294.6935 707.94268 304.86331 682.01941 308.75 668.15625 C 310.65833 647.01412 312.38401 624.83184 310.4375 603.65625 C 310.22341 603.01608 309.55564 602.80031 308.65625 602.84375 z M 457.53125 630.59375 C 456.01233 630.61472 454.50538 630.69479 453 630.8125 C 447.11852 633.25791 439.81533 638.41255 437.71875 644.40625 C 433.87862 655.38475 435.56278 669.18517 432.53125 681.375 C 413.38977 729.9388 380.93899 774.10792 347.1875 813.5625 C 340.3942 820.32162 327.95211 826.72381 327.4375 834.4375 C 326.83638 843.44697 342.37907 834.84141 349.375 832.125 C 407.45079 810.99797 443.35616 757.09823 480.9375 711.21875 C 493.28187 695.29748 516.77446 679.00109 519.1875 657.96875 C 504.29434 640.73387 480.31504 630.27925 457.53125 630.59375 z "
         transform="matrix(0.21004227,0,0,0.21004227,93.274493,615.82239)"
         id="path4589" />
    </g>
  </g>
</svg>
