<?xml version="1.0" encoding="UTF-8" standalone="no"?>
<!-- Created with Inkscape (http://www.inkscape.org/) -->

<svg
   xmlns:dc="http://purl.org/dc/elements/1.1/"
   xmlns:cc="http://creativecommons.org/ns#"
   xmlns:rdf="http://www.w3.org/1999/02/22-rdf-syntax-ns#"
   xmlns:svg="http://www.w3.org/2000/svg"
   xmlns="http://www.w3.org/2000/svg"
   xmlns:sodipodi="http://sodipodi.sourceforge.net/DTD/sodipodi-0.dtd"
   xmlns:inkscape="http://www.inkscape.org/namespaces/inkscape"
   width="1000"
   height="1000"
   id="svg3173"
   version="1.1"
   inkscape:version="0.47 r22583"
   sodipodi:docname="6c34.svg"
   inkscape:export-filename="E:\chinese\yan\6c34.png"
   inkscape:export-xdpi="18.005705"
   inkscape:export-ydpi="18.005705">
  <title
     id="title3638">Water</title>
  <defs
     id="defs3175">
    <inkscape:perspective
       sodipodi:type="inkscape:persp3d"
       inkscape:vp_x="0 : 526.18109 : 1"
       inkscape:vp_y="0 : 1000 : 0"
       inkscape:vp_z="744.09448 : 526.18109 : 1"
       inkscape:persp3d-origin="372.04724 : 350.78739 : 1"
       id="perspective3181" />
    <inkscape:perspective
       id="perspective3191"
       inkscape:persp3d-origin="0.5 : 0.33333333 : 1"
       inkscape:vp_z="1 : 0.5 : 1"
       inkscape:vp_y="0 : 1000 : 0"
       inkscape:vp_x="0 : 0.5 : 1"
       sodipodi:type="inkscape:persp3d" />
    <inkscape:perspective
       id="perspective4006"
       inkscape:persp3d-origin="0.5 : 0.33333333 : 1"
       inkscape:vp_z="1 : 0.5 : 1"
       inkscape:vp_y="0 : 1000 : 0"
       inkscape:vp_x="0 : 0.5 : 1"
       sodipodi:type="inkscape:persp3d" />
    <inkscape:perspective
       id="perspective4034"
       inkscape:persp3d-origin="0.5 : 0.33333333 : 1"
       inkscape:vp_z="1 : 0.5 : 1"
       inkscape:vp_y="0 : 1000 : 0"
       inkscape:vp_x="0 : 0.5 : 1"
       sodipodi:type="inkscape:persp3d" />
    <inkscape:perspective
       id="perspective4081"
       inkscape:persp3d-origin="0.5 : 0.33333333 : 1"
       inkscape:vp_z="1 : 0.5 : 1"
       inkscape:vp_y="0 : 1000 : 0"
       inkscape:vp_x="0 : 0.5 : 1"
       sodipodi:type="inkscape:persp3d" />
    <inkscape:perspective
       id="perspective4147"
       inkscape:persp3d-origin="0.5 : 0.33333333 : 1"
       inkscape:vp_z="1 : 0.5 : 1"
       inkscape:vp_y="0 : 1000 : 0"
       inkscape:vp_x="0 : 0.5 : 1"
       sodipodi:type="inkscape:persp3d" />
    <inkscape:perspective
       id="perspective3765"
       inkscape:persp3d-origin="0.5 : 0.33333333 : 1"
       inkscape:vp_z="1 : 0.5 : 1"
       inkscape:vp_y="0 : 1000 : 0"
       inkscape:vp_x="0 : 0.5 : 1"
       sodipodi:type="inkscape:persp3d" />
    <inkscape:perspective
       id="perspective3793"
       inkscape:persp3d-origin="0.5 : 0.33333333 : 1"
       inkscape:vp_z="1 : 0.5 : 1"
       inkscape:vp_y="0 : 1000 : 0"
       inkscape:vp_x="0 : 0.5 : 1"
       sodipodi:type="inkscape:persp3d" />
    <inkscape:perspective
       id="perspective3780"
       inkscape:persp3d-origin="0.5 : 0.33333333 : 1"
       inkscape:vp_z="1 : 0.5 : 1"
       inkscape:vp_y="0 : 1000 : 0"
       inkscape:vp_x="0 : 0.5 : 1"
       sodipodi:type="inkscape:persp3d" />
    <inkscape:perspective
       id="perspective2993"
       inkscape:persp3d-origin="0.5 : 0.33333333 : 1"
       inkscape:vp_z="1 : 0.5 : 1"
       inkscape:vp_y="0 : 1000 : 0"
       inkscape:vp_x="0 : 0.5 : 1"
       sodipodi:type="inkscape:persp3d" />
    <inkscape:perspective
       id="perspective3767"
       inkscape:persp3d-origin="0.5 : 0.33333333 : 1"
       inkscape:vp_z="1 : 0.5 : 1"
       inkscape:vp_y="0 : 1000 : 0"
       inkscape:vp_x="0 : 0.5 : 1"
       sodipodi:type="inkscape:persp3d" />
    <inkscape:perspective
       id="perspective3879"
       inkscape:persp3d-origin="0.5 : 0.33333333 : 1"
       inkscape:vp_z="1 : 0.5 : 1"
       inkscape:vp_y="0 : 1000 : 0"
       inkscape:vp_x="0 : 0.5 : 1"
       sodipodi:type="inkscape:persp3d" />
    <inkscape:perspective
       id="perspective3897"
       inkscape:persp3d-origin="0.5 : 0.33333333 : 1"
       inkscape:vp_z="1 : 0.5 : 1"
       inkscape:vp_y="0 : 1000 : 0"
       inkscape:vp_x="0 : 0.5 : 1"
       sodipodi:type="inkscape:persp3d" />
  </defs>
  <sodipodi:namedview
     id="base"
     pagecolor="#ffffff"
     bordercolor="#666666"
     borderopacity="1.0"
     inkscape:pageopacity="0.0"
     inkscape:pageshadow="2"
     inkscape:zoom="0.49497475"
     inkscape:cx="543.17975"
     inkscape:cy="515.12255"
     inkscape:document-units="px"
     inkscape:current-layer="g5443"
     showgrid="false"
     inkscape:window-width="1440"
     inkscape:window-height="840"
     inkscape:window-x="-4"
     inkscape:window-y="-4"
     inkscape:window-maximized="1" />
  <metadata
     id="metadata3178">
    <rdf:RDF>
      <cc:Work
         rdf:about="">
        <dc:format>image/svg+xml</dc:format>
        <dc:type
           rdf:resource="http://purl.org/dc/dcmitype/StillImage" />
        <dc:title>Water</dc:title>
        <dc:date>2010-07-16</dc:date>
        <dc:creator>
          <cc:Agent>
            <dc:title>Alex Amies</dc:title>
          </cc:Agent>
        </dc:creator>
        <dc:rights>
          <cc:Agent>
            <dc:title>@ Alex Amies 2010</dc:title>
          </cc:Agent>
        </dc:rights>
        <dc:publisher>
          <cc:Agent>
            <dc:title>chinesenotes.com</dc:title>
          </cc:Agent>
        </dc:publisher>
        <dc:source>Yan Qin Ceremonial Inscription</dc:source>
        <dc:language>Chinese 中文</dc:language>
        <dc:description>Tracing from Tang Dynasty Ceremonial Inscription by Yan Zhenqing 颜真卿 (709－785)</dc:description>
        <cc:license
           rdf:resource="http://creativecommons.org/licenses/by/3.0/" />
      </cc:Work>
      <cc:License
         rdf:about="http://creativecommons.org/licenses/by/3.0/">
        <cc:permits
           rdf:resource="http://creativecommons.org/ns#Reproduction" />
        <cc:permits
           rdf:resource="http://creativecommons.org/ns#Distribution" />
        <cc:requires
           rdf:resource="http://creativecommons.org/ns#Notice" />
        <cc:requires
           rdf:resource="http://creativecommons.org/ns#Attribution" />
        <cc:permits
           rdf:resource="http://creativecommons.org/ns#DerivativeWorks" />
      </cc:License>
    </rdf:RDF>
  </metadata>
  <g
     inkscape:label="Layer 1"
     inkscape:groupmode="layer"
     id="layer1"
     transform="translate(0,-52.362183)">
    <g
       transform="matrix(4.7513766,0,0,4.7513766,-2223.1254,31.218808)"
       id="g5443"
       style="fill:#000000;fill-opacity:1">
      <path
         style="fill:#000000;stroke:#000000;stroke-width:5.35803508999999960px;stroke-linecap:butt;stroke-linejoin:miter;stroke-opacity:1;fill-opacity:1"
         d="m 778.03125,89.625 c -14.97653,0.273442 -30.23649,6.141485 -40.375,17.25 -53.82782,58.97777 -95.87809,139.12541 -143.8125,208.6875 -7.73766,15.0348 -10.20563,24.38132 -8.375,36.0625 -22.39016,-29.67536 -43.86145,-60.51887 -64.59375,-92.15625 -4.11099,-1.84739 -7.79207,-3.13111 -11.21875,-3.8125 -2.08962,-20.12409 -6.00443,-110.28782 -13.4375,-128.39818 -13.14188,-32.019698 -31.37577,-33.437498 -58.5,-33.437498 -16.64236,11.905038 -27.10432,26.789378 -22.40625,51.062498 4.09792,24.14325 10.47791,118.6168 9.53125,143.61693 3.6961,139.93733 8.7691,279.82587 11.1875,419.8125 -5.7628,7.34805 -11.59899,13.94479 -19.0625,5.75 -15.72188,-8.33524 -30.82459,-18.7491 -47.125,-25.1875 2.43161,11.64439 0.386,26.2298 9.40625,33.5625 12.72276,16.74152 26.5196,32.57885 38.59375,49.875 16.95158,34.29909 9.39165,65.91474 6.59375,103.65625 3.96692,44.19616 39.86401,32.76297 61.25,12.15625 5.66426,-19.2578 13.26928,-37.89102 13.59375,-58.875 5.93827,-61.49635 12.79969,-122.90033 18.15625,-184.4375 -1.47754,-89.1898 -1.76039,-178.44057 -4,-267.59375 -0.26683,-4.05648 -0.46023,-8.15336 -0.625,-12.25 31.99239,44.81888 64.26548,89.34603 95.5,135 50.75069,64.19305 84.77357,156.21786 146.625,205.625 5.87883,7.89446 12.88769,7.0141 20.25,3.21875 57.3762,-17.26246 118.39173,-32.38738 169.90625,-60.9375 5.53602,-3.06811 11.16024,-17.86841 1.4375,-22.8125 -19.8933,-10.11601 -38.3402,-25.46161 -59.21875,-33 -66.73095,-22.58054 -126.12416,-60.60492 -184.28125,-106.75 -38.37986,-36.58093 -73.97254,-77.11828 -107.4375,-120.375 62.89415,-56.08163 128.27254,-107.37294 192.71875,-160.46875 34.41441,-29.68841 49.22859,-47.28066 34.625,-87.4375 C 816.07662,98.165254 797.28678,89.273431 778.03125,89.625 z m -439.4375,169.9375 c -3.4306,-0.004 -6.44585,1.16066 -7.78125,4.21875 -10.93087,25.03195 -16.83483,55.63326 -23.09375,86.5 -1.44537,-0.30781 -2.96947,-0.32754 -4.53125,-0.0312 -60.14312,11.40976 -125.24707,26.52563 -181.09375,58.125 -24.532165,13.88088 -23.683539,46.67846 -18.65625,77.65625 3.95077,24.34415 20.00613,30.87336 37.3125,23.75 57.09201,-23.49916 110.87844,-70.82425 157.375,-116.46875 -3.23506,12.47634 -6.94438,24.55182 -11.5625,35.875 C 264.03979,484.41104 235.52207,536.78029 205.25,586.03125 161.14012,657.79547 87.708902,729.4573 66.09375,794.625 c -5.819771,17.54607 30.887898,-8.13394 44.875,-17.9375 16.4124,-11.50356 34.70866,-21.15373 47.96875,-37.84375 34.32575,-43.20479 66.64557,-89.40829 95.46875,-139.0625 23.59039,-40.63962 50.33377,-78.4481 69.78125,-122.78125 16.8136,-38.32888 36.50819,-74.88705 47.96875,-116.5625 5.00158,-18.18784 18.13733,-43.69814 7.5,-60.4375 -8.39834,-13.21594 -17.65861,-28.20462 -28.46875,-36.21875 -3.07544,-2.27999 -8.18298,-4.21339 -12.59375,-4.21875 z"
         transform="matrix(0.21046532,0,0,0.21046532,467.8908,4.4499472)"
         id="path5415"
         sodipodi:nodetypes="csccccscccccccccccccccccssccccsccscsssscssssssssssc" />
    </g>
  </g>
</svg>
