<?xml version="1.0" encoding="UTF-8" standalone="no"?>
<!-- Created with Inkscape (http://www.inkscape.org/) -->

<svg
   xmlns:dc="http://purl.org/dc/elements/1.1/"
   xmlns:cc="http://creativecommons.org/ns#"
   xmlns:rdf="http://www.w3.org/1999/02/22-rdf-syntax-ns#"
   xmlns:svg="http://www.w3.org/2000/svg"
   xmlns="http://www.w3.org/2000/svg"
   xmlns:sodipodi="http://sodipodi.sourceforge.net/DTD/sodipodi-0.dtd"
   xmlns:inkscape="http://www.inkscape.org/namespaces/inkscape"
   width="1000"
   height="1000"
   id="svg3173"
   version="1.1"
   inkscape:version="0.47 r22583"
   sodipodi:docname="6c5f.svg"
   inkscape:export-filename="E:\chinese\images\yan_jiang_dot_flick.png"
   inkscape:export-xdpi="17.908815"
   inkscape:export-ydpi="17.908815">
  <title
     id="title2820">Ma</title>
  <defs
     id="defs3175">
    <inkscape:perspective
       sodipodi:type="inkscape:persp3d"
       inkscape:vp_x="0 : 526.18109 : 1"
       inkscape:vp_y="0 : 1000 : 0"
       inkscape:vp_z="744.09448 : 526.18109 : 1"
       inkscape:persp3d-origin="372.04724 : 350.78739 : 1"
       id="perspective3181" />
    <inkscape:perspective
       id="perspective3191"
       inkscape:persp3d-origin="0.5 : 0.33333333 : 1"
       inkscape:vp_z="1 : 0.5 : 1"
       inkscape:vp_y="0 : 1000 : 0"
       inkscape:vp_x="0 : 0.5 : 1"
       sodipodi:type="inkscape:persp3d" />
    <inkscape:perspective
       id="perspective4006"
       inkscape:persp3d-origin="0.5 : 0.33333333 : 1"
       inkscape:vp_z="1 : 0.5 : 1"
       inkscape:vp_y="0 : 1000 : 0"
       inkscape:vp_x="0 : 0.5 : 1"
       sodipodi:type="inkscape:persp3d" />
    <inkscape:perspective
       id="perspective4034"
       inkscape:persp3d-origin="0.5 : 0.33333333 : 1"
       inkscape:vp_z="1 : 0.5 : 1"
       inkscape:vp_y="0 : 1000 : 0"
       inkscape:vp_x="0 : 0.5 : 1"
       sodipodi:type="inkscape:persp3d" />
    <inkscape:perspective
       id="perspective4081"
       inkscape:persp3d-origin="0.5 : 0.33333333 : 1"
       inkscape:vp_z="1 : 0.5 : 1"
       inkscape:vp_y="0 : 1000 : 0"
       inkscape:vp_x="0 : 0.5 : 1"
       sodipodi:type="inkscape:persp3d" />
    <inkscape:perspective
       id="perspective4147"
       inkscape:persp3d-origin="0.5 : 0.33333333 : 1"
       inkscape:vp_z="1 : 0.5 : 1"
       inkscape:vp_y="0 : 1000 : 0"
       inkscape:vp_x="0 : 0.5 : 1"
       sodipodi:type="inkscape:persp3d" />
    <inkscape:perspective
       id="perspective3777"
       inkscape:persp3d-origin="0.5 : 0.33333333 : 1"
       inkscape:vp_z="1 : 0.5 : 1"
       inkscape:vp_y="0 : 1000 : 0"
       inkscape:vp_x="0 : 0.5 : 1"
       sodipodi:type="inkscape:persp3d" />
    <inkscape:perspective
       id="perspective3826"
       inkscape:persp3d-origin="0.5 : 0.33333333 : 1"
       inkscape:vp_z="1 : 0.5 : 1"
       inkscape:vp_y="0 : 1000 : 0"
       inkscape:vp_x="0 : 0.5 : 1"
       sodipodi:type="inkscape:persp3d" />
    <inkscape:perspective
       id="perspective3851"
       inkscape:persp3d-origin="0.5 : 0.33333333 : 1"
       inkscape:vp_z="1 : 0.5 : 1"
       inkscape:vp_y="0 : 1000 : 0"
       inkscape:vp_x="0 : 0.5 : 1"
       sodipodi:type="inkscape:persp3d" />
  </defs>
  <sodipodi:namedview
     id="base"
     pagecolor="#ffffff"
     bordercolor="#666666"
     borderopacity="1.0"
     inkscape:pageopacity="0.0"
     inkscape:pageshadow="2"
     inkscape:zoom="0.49497475"
     inkscape:cx="565.05225"
     inkscape:cy="521.5301"
     inkscape:document-units="px"
     inkscape:current-layer="layer1"
     showgrid="false"
     inkscape:window-width="1440"
     inkscape:window-height="840"
     inkscape:window-x="-4"
     inkscape:window-y="-4"
     inkscape:window-maximized="1" />
  <metadata
     id="metadata3178">
    <rdf:RDF>
      <cc:Work
         rdf:about="">
        <dc:format>image/svg+xml</dc:format>
        <dc:type
           rdf:resource="http://purl.org/dc/dcmitype/StillImage" />
        <dc:title>Ma</dc:title>
        <dc:date>2010-07-15</dc:date>
        <dc:creator>
          <cc:Agent>
            <dc:title>Alex Amies</dc:title>
          </cc:Agent>
        </dc:creator>
        <dc:rights>
          <cc:Agent>
            <dc:title>@ Alex Amies 2010</dc:title>
          </cc:Agent>
        </dc:rights>
        <dc:publisher>
          <cc:Agent>
            <dc:title>chinesenotes.com</dc:title>
          </cc:Agent>
        </dc:publisher>
        <dc:source>Yan Qin Ceremonial Inscription</dc:source>
        <dc:language>Chinese 中文</dc:language>
        <dc:description>Tracing from Tang Dynasty Ceremonial Inscription by Yan Zhenqing 颜真卿 (709－785)</dc:description>
        <cc:license
           rdf:resource="http://creativecommons.org/licenses/by/3.0/" />
      </cc:Work>
      <cc:License
         rdf:about="http://creativecommons.org/licenses/by/3.0/">
        <cc:permits
           rdf:resource="http://creativecommons.org/ns#Reproduction" />
        <cc:permits
           rdf:resource="http://creativecommons.org/ns#Distribution" />
        <cc:requires
           rdf:resource="http://creativecommons.org/ns#Notice" />
        <cc:requires
           rdf:resource="http://creativecommons.org/ns#Attribution" />
        <cc:permits
           rdf:resource="http://creativecommons.org/ns#DerivativeWorks" />
      </cc:License>
    </rdf:RDF>
  </metadata>
  <g
     inkscape:label="Layer 1"
     inkscape:groupmode="layer"
     id="layer1"
     transform="translate(0,-52.362183)">
    <g
       transform="matrix(4.7609464,0,0,4.7609464,-2564.6703,-2004.3676)"
       id="g3711"
       style="fill:#000000;fill-opacity:1">
      <path
         id="path3686"
         d="m 602.14286,457.71934 c -6.95116,0.71036 -9.99338,3.35643 -11.07143,9.2857 2.89478,2.60931 10.17474,7.09383 13.92857,8.21429 4.08853,4.86629 0.38914,3.60498 3.0053,9.22108 3.56598,-7.66704 10.39921,-1.77065 15.59516,-4.31978 0.57569,-2.02662 2.30086,-6.18486 2.82811,-8.21846 -2.31595,-11.90216 -13.63877,-15.27088 -24.28571,-14.18283 z"
         style="fill:#000000;fill-opacity:1;stroke:#000000;stroke-width:1px;stroke-linecap:butt;stroke-linejoin:miter;stroke-opacity:1"
         sodipodi:nodetypes="ccccccs" />
      <path
         style="fill:#000000;fill-opacity:1;stroke:#000000;stroke-width:1px;stroke-linecap:butt;stroke-linejoin:miter;stroke-opacity:1"
         d="m 558.92857,509.86218 c -1.32748,6.39388 7.06013,8.66843 11.47523,11.04439 7.7039,3.36487 20.8452,11.98644 28.00895,3.55619 3.33168,-8.64462 -0.89786,-16.17883 -7.25974,-21.7603 -9.87775,-6.43503 -25.75582,-2.88284 -32.22444,7.15972 z"
         id="path3688"
         sodipodi:nodetypes="ccccc" />
      <path
         id="path3690"
         d="m 572.5,575.93361 c -2.67493,1.4039 -2.37269,4.9201 -2.82159,7.474 0.14,8.59781 -3.12488,18.64259 4.63282,24.59287 4.61234,4.01224 11.14267,3.17477 16.56671,1.47663 4.89454,-1.01722 5.74928,-6.94951 4.20684,-10.95052 -0.88117,-3.57184 -3.23856,-6.21717 -5.44201,-9.02155 0.27709,-3.41387 -0.82871,-7.16693 1.19183,-10.2408 4.11094,-6.97737 6.98022,-13.55804 7.37957,-21.54492 -1.28995,-1.93556 -2.4726,0.38159 -3.20922,1.50871 -5.23979,7.59234 -10.47957,15.18467 -15.71935,22.77701 -4.27827,1.14455 -4.94721,-2.76192 -6.78564,-6.07143 l 4e-5,0 z"
         style="fill:#000000;fill-opacity:1;stroke:#000000;stroke-width:1px;stroke-linecap:butt;stroke-linejoin:miter;stroke-opacity:1"
         sodipodi:nodetypes="cccccccccccc" />
      <path
         id="path3692"
         d="m 639.28572,500.93361 c -3.49449,3.85764 -5.76218,12.00717 0.53823,14.03957 4.38047,2.60331 8.30998,0.14463 11.69219,-2.21645 16.99462,-3.58389 33.98924,-7.16779 50.98386,-10.75169 3.86351,-0.11502 7.87469,0.76041 11.64932,-0.002 7.54174,-2.04954 4.71964,-9.49756 0.51261,-13.8106 -2.64298,-3.66516 -6.56802,-5.17711 -10.97689,-4.39999 -3.27058,1.53857 -6.09499,4.1954 -9.85419,4.73336 -14.72933,4.25514 -29.45866,8.51028 -44.18799,12.76542 -3.44584,-0.30644 -6.90374,-1.03811 -10.35714,-0.35714 l 0,-4.8e-4 z"
         style="fill:#000000;fill-opacity:1;stroke:#000000;stroke-width:1px;stroke-linecap:butt;stroke-linejoin:miter;stroke-opacity:1"
         sodipodi:nodetypes="ccccccccccc" />
      <path
         style="fill:#000000;stroke:#000000;stroke-width:4.76094626999999980px;stroke-linecap:butt;stroke-linejoin:miter;stroke-opacity:1;fill-opacity:1"
         d="M 643.875 370.6875 C 630.90423 372.12464 615.79078 384.41171 622.75 398.28125 C 625.72502 412.1147 634.10317 425.4697 633.09375 439.78125 C 628.18798 491.56411 623.28077 543.37339 618.375 595.15625 C 619.35935 607.213 622.65642 615.81158 627.875 623.25 C 535.38236 633.97267 418.75485 645.01686 388.8125 669.96875 C 385.1152 699.06008 397.9816 727.86662 420.28125 746.28125 C 514.39611 718.61653 611.33171 687.70399 710.15625 671.6875 C 747.3092 671.34852 784.90814 669.47735 820.625 681.78125 C 849.83007 698.19238 892.82743 714.94696 915.6875 681.0625 C 922.18491 659.57497 924.29772 626.144 900.71875 614.6875 C 847.64258 601.61556 784.19377 597.90093 729.6875 607.25 C 720.62089 609.84888 708.62961 612.22251 694.65625 614.46875 C 696.98246 606.49706 700.91742 598.85839 703.90625 591.0625 C 726.28027 542.32864 745.74881 494.68296 750.65625 441.25 C 738.7496 387.562 689.68963 380.95624 643.875 370.6875 z "
         transform="matrix(0.21004227,0,0,0.21004227,538.68918,432.0002)"
         id="path3694" />
    </g>
  </g>
</svg>
