<?xml version="1.0" encoding="UTF-8" standalone="no"?>
<!-- Created with Inkscape (http://www.inkscape.org/) -->

<svg
   xmlns:dc="http://purl.org/dc/elements/1.1/"
   xmlns:cc="http://creativecommons.org/ns#"
   xmlns:rdf="http://www.w3.org/1999/02/22-rdf-syntax-ns#"
   xmlns:svg="http://www.w3.org/2000/svg"
   xmlns="http://www.w3.org/2000/svg"
   xmlns:sodipodi="http://sodipodi.sourceforge.net/DTD/sodipodi-0.dtd"
   xmlns:inkscape="http://www.inkscape.org/namespaces/inkscape"
   width="1000"
   height="1000"
   id="svg3173"
   version="1.1"
   inkscape:version="0.47 r22583"
   sodipodi:docname="6c88.svg"
   inkscape:export-filename="E:\chinese\images\yan_shen_shuwangou.png"
   inkscape:export-xdpi="17.944885"
   inkscape:export-ydpi="17.944885">
  <title
     id="title2821">Shen</title>
  <defs
     id="defs3175">
    <inkscape:perspective
       sodipodi:type="inkscape:persp3d"
       inkscape:vp_x="0 : 526.18109 : 1"
       inkscape:vp_y="0 : 1000 : 0"
       inkscape:vp_z="744.09448 : 526.18109 : 1"
       inkscape:persp3d-origin="372.04724 : 350.78739 : 1"
       id="perspective3181" />
    <inkscape:perspective
       id="perspective3191"
       inkscape:persp3d-origin="0.5 : 0.33333333 : 1"
       inkscape:vp_z="1 : 0.5 : 1"
       inkscape:vp_y="0 : 1000 : 0"
       inkscape:vp_x="0 : 0.5 : 1"
       sodipodi:type="inkscape:persp3d" />
    <inkscape:perspective
       id="perspective4006"
       inkscape:persp3d-origin="0.5 : 0.33333333 : 1"
       inkscape:vp_z="1 : 0.5 : 1"
       inkscape:vp_y="0 : 1000 : 0"
       inkscape:vp_x="0 : 0.5 : 1"
       sodipodi:type="inkscape:persp3d" />
    <inkscape:perspective
       id="perspective4034"
       inkscape:persp3d-origin="0.5 : 0.33333333 : 1"
       inkscape:vp_z="1 : 0.5 : 1"
       inkscape:vp_y="0 : 1000 : 0"
       inkscape:vp_x="0 : 0.5 : 1"
       sodipodi:type="inkscape:persp3d" />
    <inkscape:perspective
       id="perspective4081"
       inkscape:persp3d-origin="0.5 : 0.33333333 : 1"
       inkscape:vp_z="1 : 0.5 : 1"
       inkscape:vp_y="0 : 1000 : 0"
       inkscape:vp_x="0 : 0.5 : 1"
       sodipodi:type="inkscape:persp3d" />
    <inkscape:perspective
       id="perspective4147"
       inkscape:persp3d-origin="0.5 : 0.33333333 : 1"
       inkscape:vp_z="1 : 0.5 : 1"
       inkscape:vp_y="0 : 1000 : 0"
       inkscape:vp_x="0 : 0.5 : 1"
       sodipodi:type="inkscape:persp3d" />
    <inkscape:perspective
       id="perspective3812"
       inkscape:persp3d-origin="0.5 : 0.33333333 : 1"
       inkscape:vp_z="1 : 0.5 : 1"
       inkscape:vp_y="0 : 1000 : 0"
       inkscape:vp_x="0 : 0.5 : 1"
       sodipodi:type="inkscape:persp3d" />
  </defs>
  <sodipodi:namedview
     id="base"
     pagecolor="#ffffff"
     bordercolor="#666666"
     borderopacity="1.0"
     inkscape:pageopacity="0.0"
     inkscape:pageshadow="2"
     inkscape:zoom="0.49497475"
     inkscape:cx="93.359414"
     inkscape:cy="493.73603"
     inkscape:document-units="px"
     inkscape:current-layer="layer1"
     showgrid="false"
     inkscape:window-width="1440"
     inkscape:window-height="840"
     inkscape:window-x="-4"
     inkscape:window-y="-4"
     inkscape:window-maximized="1" />
  <metadata
     id="metadata3178">
    <rdf:RDF>
      <cc:Work
         rdf:about="">
        <dc:format>image/svg+xml</dc:format>
        <dc:type
           rdf:resource="http://purl.org/dc/dcmitype/StillImage" />
        <dc:title>Shen</dc:title>
        <dc:date>2010-07-18</dc:date>
        <dc:creator>
          <cc:Agent>
            <dc:title>Alex Amies</dc:title>
          </cc:Agent>
        </dc:creator>
        <dc:rights>
          <cc:Agent>
            <dc:title>@ Alex Amies 2010</dc:title>
          </cc:Agent>
        </dc:rights>
        <dc:publisher>
          <cc:Agent>
            <dc:title>chinesenotes.com</dc:title>
          </cc:Agent>
        </dc:publisher>
        <dc:source>Yan Qin Ceremonial Inscription</dc:source>
        <dc:language>Chinese 中文</dc:language>
        <dc:description>Tracing from Tang Dynasty Ceremonial Inscription by Yan Zhenqing 颜真卿 (709－785)</dc:description>
        <cc:license
           rdf:resource="http://creativecommons.org/licenses/by/3.0/" />
      </cc:Work>
      <cc:License
         rdf:about="http://creativecommons.org/licenses/by/3.0/">
        <cc:permits
           rdf:resource="http://creativecommons.org/ns#Reproduction" />
        <cc:permits
           rdf:resource="http://creativecommons.org/ns#Distribution" />
        <cc:requires
           rdf:resource="http://creativecommons.org/ns#Notice" />
        <cc:requires
           rdf:resource="http://creativecommons.org/ns#Attribution" />
        <cc:permits
           rdf:resource="http://creativecommons.org/ns#DerivativeWorks" />
      </cc:License>
    </rdf:RDF>
  </metadata>
  <g
     inkscape:label="Layer 1"
     inkscape:groupmode="layer"
     id="layer1"
     transform="translate(0,-52.362183)">
    <path
       sodipodi:nodetypes="cccccc"
       id="path5263"
       d="m 196.9369,184.18272 c -3.79925,12.41916 5.33328,24.95041 16.65951,29.45338 48.71568,15.20849 62.4282,68.56746 96.15228,101.88169 31.3731,22.51518 75.40848,0.6279 81.87225,-35.41524 -0.38248,-60.89089 -40.19507,-94.71288 -91.76143,-118.00027 -31.96527,-10.56974 -78.62155,-2.06435 -102.92261,22.08044 z"
       style="fill:#000000;stroke:#000000;stroke-width:4.75137663000000020px;stroke-linecap:butt;stroke-linejoin:miter;stroke-opacity:1;fill-opacity:1" />
    <path
       sodipodi:nodetypes="cccccc"
       id="path5265"
       d="m 70.720904,388.87593 c -4.062475,14.39973 -8.293718,31.5585 1.469886,44.70497 28.64681,29.88581 69.26096,44.17486 105.28124,62.94124 35.2669,15.17541 78.16233,-10.11194 68.48625,-50.46505 -9.11153,-35.98856 -37.78803,-55.91619 -73.33821,-65.34996 -34.23643,-8.15883 -70.16287,-8.5243 -101.899166,8.1688 z"
       style="fill:#000000;stroke:#000000;stroke-width:4.75137663000000020px;stroke-linecap:butt;stroke-linejoin:miter;stroke-opacity:1;fill-opacity:1" />
    <path
       sodipodi:nodetypes="ccccccc"
       style="fill:#000000;stroke:#000000;stroke-width:4.75137663000000020px;stroke-linecap:butt;stroke-linejoin:miter;stroke-opacity:1;fill-opacity:1"
       d="m 220.04988,634.92938 c -30.84984,47.45052 -42.99017,103.67447 -60.47158,156.77685 -8.20995,28.06876 -34.0726,32.3115 -46.4344,57.0351 21.67916,30.66818 66.30204,57.47113 102.69322,35.86994 16.84191,-19.06261 18.54229,-46.52291 18.73681,-70.80582 -8.46025,-57.53679 -12.85395,-114.63717 -4.34257,-172.0884 -3.39381,-2.26256 -6.78767,-4.52511 -10.18148,-6.78767 z"
       id="path5267" />
    <path
       style="fill:#000000;stroke:#000000;stroke-width:4.75137663000000020px;stroke-linecap:butt;stroke-linejoin:miter;stroke-opacity:1;fill-opacity:1"
       d="M 557.75 117.625 C 532.50916 125.11992 510.45376 148.3066 518.125 176.1875 C 519.26923 218.22788 520.87556 260.54395 519.3125 302.46875 C 517.24084 310.95389 515.42928 319.50862 513.6875 328.09375 C 481.03525 334.23541 448.30452 339.77759 415.78125 345.375 C 407.90105 337.94515 398.06377 335.78872 382.96875 333.125 C 363.24616 352.06706 361.80567 381.46134 345.625 402.53125 C 329.77749 432.66256 338.35206 480.14752 373.9375 491.5 C 397.08563 501.89225 425.97796 482.11369 425.78125 457.46875 C 428.73071 432.43307 429.751 406.80427 428.6875 381.625 C 438.2267 378.49107 447.95353 373.78137 456.71875 372.34375 C 473.82822 367.92507 490.79527 362.97148 507.75 358.0625 C 503.39203 380.04456 498.62202 401.91646 491.125 422.96875 C 450.60498 544.2885 377.0225 648.67083 306.59375 753.96875 C 354.00208 767.69723 432.39419 672.17398 463.4375 639.71875 C 508.64822 577.49971 532.5233 502.88287 558.75 431.34375 C 575.59808 406.31498 578.28004 370.62815 583.40625 338.53125 C 601.74225 334.85942 620.29168 332.25906 639.1875 331.4375 C 661.1602 341.45836 665.67544 365.92412 645.5 381.0625 C 636.9261 397.45534 612.76942 418.84852 615.84375 433.3125 C 634.20102 443.82459 653.36941 423.92569 672.34375 421.4375 C 713.45137 427.61326 800.04142 420.8508 800.875 364.34375 C 786.39423 318.91839 758.33691 294.39057 718.9375 272.03125 C 676.84121 289.17621 633.13007 301.98107 588.71875 312.4375 C 591.44387 302.41347 595.04086 293.31139 600.1875 285.71875 C 612.62694 270.97575 625.06056 256.243 637.5 241.5 C 645.95227 213.54419 640.43465 186.90329 621.3125 164.90625 C 605.16704 142.22275 581.83833 129.66916 557.75 117.625 z M 609.875 480.25 C 603.81825 480.32975 597.5198 482.04862 591.6875 482.4375 C 551.15032 579.15311 512.37241 660.05035 518.34375 765.75 C 532.37575 876.36062 712.13488 877.47941 800.125 882.40625 C 857.49692 881.44106 902.24828 848.67246 912.40625 791.28125 C 903.79799 778.99775 891.2339 773.28376 879.40625 767.59375 C 877.96126 736.54778 872.00984 705.46405 873.375 674.1875 C 858.53873 671.54288 859.00077 687.06223 855.90625 696.84375 L 832.625 784.5 C 753.92044 830.65815 654.0341 801.05879 586 750.28125 C 549.82511 683.77124 593.60343 619.56232 635.96875 568.9375 C 660.65624 537.01523 647.42018 506.5812 618.75 482.21875 C 618.75 482.21875 618.26412 481.56578 617.90625 481.4375 C 615.33192 480.51462 612.62807 480.21375 609.875 480.25 z "
       transform="translate(0,52.362183)"
       id="path5269" />
  </g>
</svg>
