<?xml version="1.0" encoding="UTF-8" standalone="no"?>
<!-- Created with Inkscape (http://www.inkscape.org/) -->

<svg
   xmlns:dc="http://purl.org/dc/elements/1.1/"
   xmlns:cc="http://creativecommons.org/ns#"
   xmlns:rdf="http://www.w3.org/1999/02/22-rdf-syntax-ns#"
   xmlns:svg="http://www.w3.org/2000/svg"
   xmlns="http://www.w3.org/2000/svg"
   xmlns:sodipodi="http://sodipodi.sourceforge.net/DTD/sodipodi-0.dtd"
   xmlns:inkscape="http://www.inkscape.org/namespaces/inkscape"
   width="1000"
   height="1000"
   id="svg3173"
   version="1.1"
   inkscape:version="0.47 r22583"
   sodipodi:docname="6c92.svg"
   inkscape:export-filename="E:\chinese\yan\6c92.png"
   inkscape:export-xdpi="18.005705"
   inkscape:export-ydpi="18.005705">
  <title
     id="title2832">Mei</title>
  <defs
     id="defs3175">
    <inkscape:perspective
       sodipodi:type="inkscape:persp3d"
       inkscape:vp_x="0 : 526.18109 : 1"
       inkscape:vp_y="0 : 1000 : 0"
       inkscape:vp_z="744.09448 : 526.18109 : 1"
       inkscape:persp3d-origin="372.04724 : 350.78739 : 1"
       id="perspective3181" />
    <inkscape:perspective
       id="perspective3191"
       inkscape:persp3d-origin="0.5 : 0.33333333 : 1"
       inkscape:vp_z="1 : 0.5 : 1"
       inkscape:vp_y="0 : 1000 : 0"
       inkscape:vp_x="0 : 0.5 : 1"
       sodipodi:type="inkscape:persp3d" />
    <inkscape:perspective
       id="perspective4006"
       inkscape:persp3d-origin="0.5 : 0.33333333 : 1"
       inkscape:vp_z="1 : 0.5 : 1"
       inkscape:vp_y="0 : 1000 : 0"
       inkscape:vp_x="0 : 0.5 : 1"
       sodipodi:type="inkscape:persp3d" />
    <inkscape:perspective
       id="perspective4034"
       inkscape:persp3d-origin="0.5 : 0.33333333 : 1"
       inkscape:vp_z="1 : 0.5 : 1"
       inkscape:vp_y="0 : 1000 : 0"
       inkscape:vp_x="0 : 0.5 : 1"
       sodipodi:type="inkscape:persp3d" />
    <inkscape:perspective
       id="perspective4081"
       inkscape:persp3d-origin="0.5 : 0.33333333 : 1"
       inkscape:vp_z="1 : 0.5 : 1"
       inkscape:vp_y="0 : 1000 : 0"
       inkscape:vp_x="0 : 0.5 : 1"
       sodipodi:type="inkscape:persp3d" />
    <inkscape:perspective
       id="perspective4147"
       inkscape:persp3d-origin="0.5 : 0.33333333 : 1"
       inkscape:vp_z="1 : 0.5 : 1"
       inkscape:vp_y="0 : 1000 : 0"
       inkscape:vp_x="0 : 0.5 : 1"
       sodipodi:type="inkscape:persp3d" />
    <inkscape:perspective
       id="perspective3807"
       inkscape:persp3d-origin="0.5 : 0.33333333 : 1"
       inkscape:vp_z="1 : 0.5 : 1"
       inkscape:vp_y="0 : 1000 : 0"
       inkscape:vp_x="0 : 0.5 : 1"
       sodipodi:type="inkscape:persp3d" />
    <inkscape:perspective
       id="perspective3838"
       inkscape:persp3d-origin="0.5 : 0.33333333 : 1"
       inkscape:vp_z="1 : 0.5 : 1"
       inkscape:vp_y="0 : 1000 : 0"
       inkscape:vp_x="0 : 0.5 : 1"
       sodipodi:type="inkscape:persp3d" />
    <inkscape:perspective
       id="perspective2993"
       inkscape:persp3d-origin="0.5 : 0.33333333 : 1"
       inkscape:vp_z="1 : 0.5 : 1"
       inkscape:vp_y="0 : 1000 : 0"
       inkscape:vp_x="0 : 0.5 : 1"
       sodipodi:type="inkscape:persp3d" />
    <inkscape:perspective
       id="perspective3798"
       inkscape:persp3d-origin="0.5 : 0.33333333 : 1"
       inkscape:vp_z="1 : 0.5 : 1"
       inkscape:vp_y="0 : 1000 : 0"
       inkscape:vp_x="0 : 0.5 : 1"
       sodipodi:type="inkscape:persp3d" />
    <inkscape:perspective
       id="perspective3806"
       inkscape:persp3d-origin="0.5 : 0.33333333 : 1"
       inkscape:vp_z="1 : 0.5 : 1"
       inkscape:vp_y="0 : 1000 : 0"
       inkscape:vp_x="0 : 0.5 : 1"
       sodipodi:type="inkscape:persp3d" />
    <inkscape:perspective
       id="perspective3778"
       inkscape:persp3d-origin="0.5 : 0.33333333 : 1"
       inkscape:vp_z="1 : 0.5 : 1"
       inkscape:vp_y="0 : 1000 : 0"
       inkscape:vp_x="0 : 0.5 : 1"
       sodipodi:type="inkscape:persp3d" />
    <inkscape:perspective
       id="perspective5986"
       inkscape:persp3d-origin="0.5 : 0.33333333 : 1"
       inkscape:vp_z="1 : 0.5 : 1"
       inkscape:vp_y="0 : 1000 : 0"
       inkscape:vp_x="0 : 0.5 : 1"
       sodipodi:type="inkscape:persp3d" />
    <inkscape:perspective
       id="perspective6141"
       inkscape:persp3d-origin="0.5 : 0.33333333 : 1"
       inkscape:vp_z="1 : 0.5 : 1"
       inkscape:vp_y="0 : 1000 : 0"
       inkscape:vp_x="0 : 0.5 : 1"
       sodipodi:type="inkscape:persp3d" />
  </defs>
  <sodipodi:namedview
     id="base"
     pagecolor="#ffffff"
     bordercolor="#666666"
     borderopacity="1.0"
     inkscape:pageopacity="0.0"
     inkscape:pageshadow="2"
     inkscape:zoom="0.49497475"
     inkscape:cx="258.72284"
     inkscape:cy="520.67298"
     inkscape:document-units="px"
     inkscape:current-layer="g4097"
     showgrid="false"
     inkscape:window-width="1440"
     inkscape:window-height="840"
     inkscape:window-x="-4"
     inkscape:window-y="-4"
     inkscape:window-maximized="1" />
  <metadata
     id="metadata3178">
    <rdf:RDF>
      <cc:Work
         rdf:about="">
        <dc:format>image/svg+xml</dc:format>
        <dc:type
           rdf:resource="http://purl.org/dc/dcmitype/StillImage" />
        <dc:title>Mei</dc:title>
        <dc:date>2010-08-09</dc:date>
        <dc:creator>
          <cc:Agent>
            <dc:title>Alex Amies</dc:title>
          </cc:Agent>
        </dc:creator>
        <dc:rights>
          <cc:Agent>
            <dc:title>@ Alex Amies 2010</dc:title>
          </cc:Agent>
        </dc:rights>
        <dc:publisher>
          <cc:Agent>
            <dc:title>chinesenotes.com</dc:title>
          </cc:Agent>
        </dc:publisher>
        <dc:source>Yan Qin Ceremonial Inscription</dc:source>
        <dc:language>Chinese 中文</dc:language>
        <dc:description>Tracing from Tang Dynasty Ceremonial Inscription by Yan Zhenqing 颜真卿 (709－785)</dc:description>
        <cc:license
           rdf:resource="http://creativecommons.org/licenses/by/3.0/" />
      </cc:Work>
      <cc:License
         rdf:about="http://creativecommons.org/licenses/by/3.0/">
        <cc:permits
           rdf:resource="http://creativecommons.org/ns#Reproduction" />
        <cc:permits
           rdf:resource="http://creativecommons.org/ns#Distribution" />
        <cc:requires
           rdf:resource="http://creativecommons.org/ns#Notice" />
        <cc:requires
           rdf:resource="http://creativecommons.org/ns#Attribution" />
        <cc:permits
           rdf:resource="http://creativecommons.org/ns#DerivativeWorks" />
      </cc:License>
    </rdf:RDF>
  </metadata>
  <g
     inkscape:label="Layer 1"
     inkscape:groupmode="layer"
     id="layer1"
     transform="translate(0,-52.362183)">
    <g
       transform="matrix(4.7418067,0,0,4.7418067,-524.70921,-2979.6975)"
       id="g5800"
       style="fill:none;fill-opacity:1">
      <g
         transform="translate(-224.16253,197.89006)"
         id="g4097"
         style="fill:#000000;fill-opacity:1">
        <path
           sodipodi:nodetypes="ccssssscc"
           style="fill:#000000;stroke:#000000;stroke-width:1.00201820999999990px;stroke-linecap:butt;stroke-linejoin:miter;stroke-opacity:1;fill-opacity:1"
           d="m 366.88642,467.76767 c 7.9872,7.04121 16.60633,14.55454 25.76618,20.04037 1.0585,0.31372 2.91628,0.15578 3.57864,-0.71574 1.60412,-2.11068 3.6598,-5.68942 3.22077,-8.23085 -0.50406,-2.91794 -3.35706,-6.0595 -5.91804,-8.25383 -2.68024,-2.29651 -5.46035,-5.14793 -8.75437,-6.06073 -4.93457,-1.36739 -10.63423,-1.00536 -15.95006,-0.39196 -0.16979,0.0196 -0.51167,-0.13683 -0.51167,0.0341 -0.40091,1.26391 -1.07806,2.32274 -1.43145,3.57868 z"
           id="path5111" />
        <path
           sodipodi:nodetypes="cccccscc"
           style="fill:#000000;stroke:#000000;stroke-width:1.00201820999999990px;stroke-linecap:butt;stroke-linejoin:miter;stroke-opacity:1;fill-opacity:1"
           d="m 357.58196,520.73149 c -0.53478,0.6239 -1.23505,1.91578 -0.71572,2.50504 5.69801,2.85045 9.05896,9.30942 14.31454,12.52523 2.11359,0.92969 4.93673,0.89661 7.38492,0.59862 4.38495,-0.1705 8.12864,-0.93472 9.07681,-5.60871 -0.53858,-2.53896 -2.58555,-5.98384 -5.01009,-7.51514 -4.37488,-2.76306 -10.17881,-4.15244 -15.38814,-5.36795 -3.73975,-0.78317 -6.99976,0.28661 -9.66232,2.86291 z"
           id="path5113" />
        <path
           sodipodi:nodetypes="cssssccssss"
           style="fill:#000000;stroke:#000000;stroke-width:1.00201820999999990px;stroke-linecap:butt;stroke-linejoin:miter;stroke-opacity:1;fill-opacity:1"
           d="m 394.44192,567.96949 c -0.53875,-0.58943 -2.30498,-0.7394 -2.86291,0 -7.4512,9.87472 -14.69156,20.84944 -22.48989,30.8995 -2.22412,2.86632 -6.11537,4.18112 -8.39757,6.92078 -0.85372,1.02483 -1.85527,2.44749 -1.67814,3.6919 0.38849,2.72922 2.36717,5.39205 4.59885,7.50073 3.62552,2.93278 8.38807,7.02577 13.38475,5.64083 1.47246,-0.65179 3.02832,-2.27352 3.48822,-3.83706 0.79714,-2.71006 -0.75885,-6.17677 0.1531,-9.00248 3.99909,-12.39137 8.54142,-24.81666 14.08624,-36.62345 0.89066,-1.89653 0.74372,-4.06784 -0.28265,-5.19075 z"
           id="path5115" />
        <path
           style="fill:#000000;stroke:#000000;stroke-width:4.75137663000000020px;stroke-linecap:butt;stroke-linejoin:miter;stroke-opacity:1;fill-opacity:1"
           d="M 643.625 117.21875 C 632.20605 117.35239 621.27696 120.65595 610.90625 125.84375 C 573.28509 144.66322 534.5609 161.46817 495.0625 176.15625 C 484.1727 180.2058 471.42224 182.34942 462.59375 188.84375 C 460.82669 190.14362 458.85901 192.03985 457.09375 194.1875 C 449.71967 190.89398 441.30146 188.91827 433.75 187.15625 C 428.3516 185.89664 418.34652 184.44563 416.78125 188.84375 C 412.1064 201.9796 414.5286 222.83844 417.5625 239.78125 C 423.061 270.48786 424.08874 302.2338 431.46875 332.4375 C 434.11719 343.27689 437.05154 355.80605 443.9375 363.625 C 449.695 370.16262 461.27462 376.0786 469.375 375.5 C 477.11249 374.9473 489.46889 368.28698 491.4375 360.21875 C 492.59082 355.49193 493.4963 350.59177 494.21875 345.5625 C 495.55287 346.06581 496.87646 346.44481 498.21875 346.65625 C 512.12211 348.84635 528.27169 347.57532 542.625 343.875 C 572.20031 336.25041 606.08942 331.88291 630.59375 317.8125 C 631.02904 317.56255 631.43753 317.29661 631.84375 317 C 639.41231 321.26074 648.98811 323.91245 656.03125 322.90625 C 665.86884 321.50092 678.50297 312.44713 683.1875 302.53125 C 700.71341 265.43382 714.23077 223.33273 726.625 183.25 C 730.01468 172.2878 726.28475 159.81941 724.125 148.625 C 722.80554 141.78594 711.87734 139.0092 706.21875 134.0625 C 690.67909 120.47789 668.51925 118.7459 648.5625 117.375 C 646.91159 117.26159 645.25628 117.19966 643.625 117.21875 z M 625.21875 150.4375 C 627.8587 150.40268 629.78151 151.20505 630.59375 153.21875 C 638.37543 172.5107 625.49062 218.33185 617.8125 250.125 C 615.6142 259.22756 610.94135 268.83948 612.15625 277.75 C 612.24182 278.37757 612.34432 279.04342 612.4375 279.6875 C 598.3833 282.03135 583.98601 285.65062 570.28125 289.4375 C 546.71213 295.9501 519.67401 300.05689 496.6875 306.90625 C 496.78084 293.88488 496.40761 280.74886 496.125 268.125 C 495.90735 258.39733 496.65682 247.6987 492.6875 239.03125 C 487.89205 228.55981 482.13721 217.23727 474.78125 208.1875 C 479.69769 206.19867 484.52824 203.89615 488.375 202.53125 C 521.04306 190.94005 552.31494 175.13651 585.4375 164.875 C 597.03174 161.28304 615.79036 150.56185 625.21875 150.4375 z M 705.375 349.5625 C 697.0538 349.39039 688.67568 351.76325 681.53125 357.25 C 664.01753 366.40282 657.60237 390.51665 636.5625 392.5625 C 554.81958 416.29434 473.05537 440.01821 391.3125 463.75 C 387.35304 467.14385 383.39696 470.54365 379.4375 473.9375 C 365.70575 507.22688 412.20104 518.30607 433.625 501.75 C 434.65479 501.34049 435.689 500.94085 436.71875 500.53125 C 434.1909 505.4524 433.63163 511.87055 435.9375 519.875 C 442.17046 546.43315 446.99927 574.10443 462.53125 597.21875 C 476.10535 622.67099 490.12117 647.95275 505.125 672.625 C 452.40986 744.27068 382.47576 800.55995 301.65625 840.4375 C 290.25557 845.53143 278.83823 850.62482 267.4375 855.71875 C 281.35731 878.44846 315.86387 865.03456 336.0625 858.84375 C 415.34887 828.26962 479.28175 778.94616 533 715.8125 C 536.94771 721.53879 540.95334 727.23017 545.0625 732.84375 C 595.73786 795.50616 655.01456 850.40028 723.40625 893.21875 C 741.68867 901.62441 761.54776 899.60583 779.46875 891.5 C 805.12975 883.55852 829.14085 869.95461 855.15625 863.78125 C 876.70871 856.83441 916.7246 870.98998 924 845.8125 C 923.50064 824.63535 885.61117 826.79351 870.125 815.5 C 840.86383 803.71756 809.98756 794.74782 784.8125 775 C 733.88075 741.54911 681.57922 709.91743 634.5625 670.96875 C 621.09121 660.3835 608.38937 648.48829 596.53125 635.71875 C 636.47283 579.81519 667.61026 518.33869 695.0625 455.0625 C 695.44991 422.16816 742.04769 420.39494 746.625 390.21875 C 747.54821 366.96277 726.64029 350.00235 705.375 349.5625 z M 649.09375 420.40625 C 653.34358 420.27342 653.25318 423.75198 644.1875 434.71875 C 614.902 485.49558 590.08104 538.8693 559.125 588.65625 C 556.17689 584.31473 553.32396 579.91137 550.5625 575.5 C 539.17638 551.24699 537.95698 520.18505 516 502.65625 C 505.67135 489.33035 488.05437 490.79488 472.78125 489.1875 C 470.92714 488.81883 469.08361 488.54949 467.25 488.375 C 515.49566 469.22357 563.82317 450.32673 612.875 433.28125 C 622.83662 430.91079 642.01069 420.62763 649.09375 420.40625 z "
           transform="matrix(0.21089008,0,0,0.21089008,334.8185,441.54125)"
           id="path5117" />
      </g>
    </g>
  </g>
</svg>
