<?xml version="1.0" encoding="UTF-8" standalone="no"?>
<!-- Created with Inkscape (http://www.inkscape.org/) -->

<svg
   xmlns:dc="http://purl.org/dc/elements/1.1/"
   xmlns:cc="http://creativecommons.org/ns#"
   xmlns:rdf="http://www.w3.org/1999/02/22-rdf-syntax-ns#"
   xmlns:svg="http://www.w3.org/2000/svg"
   xmlns="http://www.w3.org/2000/svg"
   xmlns:sodipodi="http://sodipodi.sourceforge.net/DTD/sodipodi-0.dtd"
   xmlns:inkscape="http://www.inkscape.org/namespaces/inkscape"
   width="1000"
   height="1000"
   id="svg3173"
   version="1.1"
   inkscape:version="0.47 r22583"
   sodipodi:docname="6c9b.svg"
   inkscape:export-filename="E:\chinese\yan\6c9b.png"
   inkscape:export-xdpi="18.005705"
   inkscape:export-ydpi="18.005705">
  <title
     id="title5516">Pei</title>
  <defs
     id="defs3175">
    <inkscape:perspective
       sodipodi:type="inkscape:persp3d"
       inkscape:vp_x="0 : 526.18109 : 1"
       inkscape:vp_y="0 : 1000 : 0"
       inkscape:vp_z="744.09448 : 526.18109 : 1"
       inkscape:persp3d-origin="372.04724 : 350.78739 : 1"
       id="perspective3181" />
    <inkscape:perspective
       id="perspective3191"
       inkscape:persp3d-origin="0.5 : 0.33333333 : 1"
       inkscape:vp_z="1 : 0.5 : 1"
       inkscape:vp_y="0 : 1000 : 0"
       inkscape:vp_x="0 : 0.5 : 1"
       sodipodi:type="inkscape:persp3d" />
    <inkscape:perspective
       id="perspective4006"
       inkscape:persp3d-origin="0.5 : 0.33333333 : 1"
       inkscape:vp_z="1 : 0.5 : 1"
       inkscape:vp_y="0 : 1000 : 0"
       inkscape:vp_x="0 : 0.5 : 1"
       sodipodi:type="inkscape:persp3d" />
    <inkscape:perspective
       id="perspective4034"
       inkscape:persp3d-origin="0.5 : 0.33333333 : 1"
       inkscape:vp_z="1 : 0.5 : 1"
       inkscape:vp_y="0 : 1000 : 0"
       inkscape:vp_x="0 : 0.5 : 1"
       sodipodi:type="inkscape:persp3d" />
    <inkscape:perspective
       id="perspective4081"
       inkscape:persp3d-origin="0.5 : 0.33333333 : 1"
       inkscape:vp_z="1 : 0.5 : 1"
       inkscape:vp_y="0 : 1000 : 0"
       inkscape:vp_x="0 : 0.5 : 1"
       sodipodi:type="inkscape:persp3d" />
    <inkscape:perspective
       id="perspective4147"
       inkscape:persp3d-origin="0.5 : 0.33333333 : 1"
       inkscape:vp_z="1 : 0.5 : 1"
       inkscape:vp_y="0 : 1000 : 0"
       inkscape:vp_x="0 : 0.5 : 1"
       sodipodi:type="inkscape:persp3d" />
    <inkscape:perspective
       id="perspective3858"
       inkscape:persp3d-origin="0.5 : 0.33333333 : 1"
       inkscape:vp_z="1 : 0.5 : 1"
       inkscape:vp_y="0 : 1000 : 0"
       inkscape:vp_x="0 : 0.5 : 1"
       sodipodi:type="inkscape:persp3d" />
    <inkscape:perspective
       id="perspective3876"
       inkscape:persp3d-origin="0.5 : 0.33333333 : 1"
       inkscape:vp_z="1 : 0.5 : 1"
       inkscape:vp_y="0 : 1000 : 0"
       inkscape:vp_x="0 : 0.5 : 1"
       sodipodi:type="inkscape:persp3d" />
    <inkscape:perspective
       id="perspective3901"
       inkscape:persp3d-origin="0.5 : 0.33333333 : 1"
       inkscape:vp_z="1 : 0.5 : 1"
       inkscape:vp_y="0 : 1000 : 0"
       inkscape:vp_x="0 : 0.5 : 1"
       sodipodi:type="inkscape:persp3d" />
    <inkscape:perspective
       id="perspective4392"
       inkscape:persp3d-origin="0.5 : 0.33333333 : 1"
       inkscape:vp_z="1 : 0.5 : 1"
       inkscape:vp_y="0 : 1000 : 0"
       inkscape:vp_x="0 : 0.5 : 1"
       sodipodi:type="inkscape:persp3d" />
    <inkscape:perspective
       id="perspective3806"
       inkscape:persp3d-origin="0.5 : 0.33333333 : 1"
       inkscape:vp_z="1 : 0.5 : 1"
       inkscape:vp_y="0 : 1000 : 0"
       inkscape:vp_x="0 : 0.5 : 1"
       sodipodi:type="inkscape:persp3d" />
    <inkscape:perspective
       id="perspective3763"
       inkscape:persp3d-origin="0.5 : 0.33333333 : 1"
       inkscape:vp_z="1 : 0.5 : 1"
       inkscape:vp_y="0 : 1000 : 0"
       inkscape:vp_x="0 : 0.5 : 1"
       sodipodi:type="inkscape:persp3d" />
    <inkscape:perspective
       id="perspective3790"
       inkscape:persp3d-origin="0.5 : 0.33333333 : 1"
       inkscape:vp_z="1 : 0.5 : 1"
       inkscape:vp_y="0 : 1000 : 0"
       inkscape:vp_x="0 : 0.5 : 1"
       sodipodi:type="inkscape:persp3d" />
    <inkscape:perspective
       id="perspective3825"
       inkscape:persp3d-origin="0.5 : 0.33333333 : 1"
       inkscape:vp_z="1 : 0.5 : 1"
       inkscape:vp_y="0 : 1000 : 0"
       inkscape:vp_x="0 : 0.5 : 1"
       sodipodi:type="inkscape:persp3d" />
    <inkscape:perspective
       id="perspective3767"
       inkscape:persp3d-origin="0.5 : 0.33333333 : 1"
       inkscape:vp_z="1 : 0.5 : 1"
       inkscape:vp_y="0 : 1000 : 0"
       inkscape:vp_x="0 : 0.5 : 1"
       sodipodi:type="inkscape:persp3d" />
    <inkscape:perspective
       id="perspective3792"
       inkscape:persp3d-origin="0.5 : 0.33333333 : 1"
       inkscape:vp_z="1 : 0.5 : 1"
       inkscape:vp_y="0 : 1000 : 0"
       inkscape:vp_x="0 : 0.5 : 1"
       sodipodi:type="inkscape:persp3d" />
    <inkscape:perspective
       id="perspective4344"
       inkscape:persp3d-origin="0.5 : 0.33333333 : 1"
       inkscape:vp_z="1 : 0.5 : 1"
       inkscape:vp_y="0 : 1000 : 0"
       inkscape:vp_x="0 : 0.5 : 1"
       sodipodi:type="inkscape:persp3d" />
    <inkscape:perspective
       id="perspective4377"
       inkscape:persp3d-origin="0.5 : 0.33333333 : 1"
       inkscape:vp_z="1 : 0.5 : 1"
       inkscape:vp_y="0 : 1000 : 0"
       inkscape:vp_x="0 : 0.5 : 1"
       sodipodi:type="inkscape:persp3d" />
  </defs>
  <sodipodi:namedview
     id="base"
     pagecolor="#ffffff"
     bordercolor="#666666"
     borderopacity="1.0"
     inkscape:pageopacity="0.0"
     inkscape:pageshadow="2"
     inkscape:zoom="0.49497475"
     inkscape:cx="413.61348"
     inkscape:cy="540.34663"
     inkscape:document-units="px"
     inkscape:current-layer="g4371"
     showgrid="false"
     inkscape:window-width="1440"
     inkscape:window-height="840"
     inkscape:window-x="-4"
     inkscape:window-y="-4"
     inkscape:window-maximized="1" />
  <metadata
     id="metadata3178">
    <rdf:RDF>
      <cc:Work
         rdf:about="">
        <dc:format>image/svg+xml</dc:format>
        <dc:type
           rdf:resource="http://purl.org/dc/dcmitype/StillImage" />
        <dc:title>Pei</dc:title>
        <dc:date>2010-08-11</dc:date>
        <dc:creator>
          <cc:Agent>
            <dc:title>Alex Amies</dc:title>
          </cc:Agent>
        </dc:creator>
        <dc:rights>
          <cc:Agent>
            <dc:title>@ Alex Amies 2010</dc:title>
          </cc:Agent>
        </dc:rights>
        <dc:publisher>
          <cc:Agent>
            <dc:title>chinesenotes.com</dc:title>
          </cc:Agent>
        </dc:publisher>
        <dc:source>Yan Qin Ceremonial Inscription</dc:source>
        <dc:language>Chinese 中文</dc:language>
        <dc:description>Tracing from Tang Dynasty Ceremonial Inscription by Yan Zhenqing 颜真卿 (709－785)</dc:description>
        <cc:license
           rdf:resource="http://creativecommons.org/licenses/by/3.0/" />
      </cc:Work>
      <cc:License
         rdf:about="http://creativecommons.org/licenses/by/3.0/">
        <cc:permits
           rdf:resource="http://creativecommons.org/ns#Reproduction" />
        <cc:permits
           rdf:resource="http://creativecommons.org/ns#Distribution" />
        <cc:requires
           rdf:resource="http://creativecommons.org/ns#Notice" />
        <cc:requires
           rdf:resource="http://creativecommons.org/ns#Attribution" />
        <cc:permits
           rdf:resource="http://creativecommons.org/ns#DerivativeWorks" />
      </cc:License>
    </rdf:RDF>
  </metadata>
  <g
     inkscape:label="Layer 1"
     inkscape:groupmode="layer"
     id="layer1"
     transform="translate(0,-52.362183)">
    <g
       transform="matrix(4.7488612,0,0,4.7488612,-1416.4781,-3986.1517)"
       id="g4371"
       style="fill:#000000;fill-opacity:1">
      <g
         transform="matrix(0.99851449,0,0,0.99851449,153.174,222.52439)"
         id="g9724"
         style="fill:#000000;fill-opacity:1">
        <path
           id="path9689"
           d="m 196.07143,664.50504 c -0.91117,0.61822 -3.16925,0.81198 -3.13475,1.61947 0.0565,1.3231 0.48717,3.58372 1.70618,4.09482 3.19624,1.3401 7.20798,3.04434 9.07611,6.27693 1.87026,3.23628 4.74536,5.72638 8.49721,6.74945 3.84771,1.04921 5.15157,-1.71485 4.31192,-4.93588 -0.96305,-3.69441 0.2349,-8.25726 -2.14155,-11.41877 -2.25352,-2.99797 -5.62001,-6.14322 -9.55879,-6.1046 -3.24727,0.0318 -6.12203,1.93123 -8.75633,3.71858 z"
           style="fill:#000000;fill-opacity:1;stroke:#000000;stroke-width:1px;stroke-linecap:butt;stroke-linejoin:miter;stroke-opacity:1"
           sodipodi:nodetypes="cssssssss" />
        <path
           id="path9691"
           d="m 177.85714,706.29075 c -3.19552,1.36594 -3.98849,5.5651 -2.99974,8.60121 1.11632,3.42781 4.49229,5.44172 8.07007,6.18634 3.90776,0.81329 5.73502,4.95946 9.26475,6.6288 4.25956,2.01451 6.06227,-3.1177 5.83181,-6.35456 -0.20152,-2.83039 -0.50354,-5.96477 -1.95257,-8.27607 -2.09047,-3.33444 -6.26978,-5.10919 -9.74608,-7.22606 -3.34048,-2.03416 -5.50666,-0.82561 -8.46824,0.44034 z"
           style="fill:#000000;fill-opacity:1;stroke:#000000;stroke-width:1px;stroke-linecap:butt;stroke-linejoin:miter;stroke-opacity:1"
           sodipodi:nodetypes="csssssss" />
        <path
           id="path9693"
           d="m 201.78571,766.29075 c -2.53545,1.11623 -5.4643,2.00521 -6.87652,4.50738 -1.57603,2.79239 -2.11421,6.40278 -5.00221,8.22225 -1.6508,1.04002 -4.36798,1.08604 -5.26412,2.62752 -1.57276,2.70538 -2.32432,7.16823 -1.1716,10.51274 1.01211,2.93651 2.78419,5.43897 5.31978,7.19868 1.9509,1.35393 3.5265,3.93755 6.19908,3.71715 2.48697,-0.20509 5.37271,0.76769 7.50988,0 1.39327,-0.50048 2.7907,-2.29466 3.21429,-3.75355 0.39912,-1.37464 0.55907,-3.13912 0,-4.46074 -1.25303,-2.96211 -3.86053,-5.4418 -4.81567,-8.74977 -1.30257,-4.51128 0.46542,-8.89255 1.99012,-12.95675 0.86416,-2.30346 2.35497,-6.76244 0.93651,-7.73899 -0.51244,-0.3528 -1.3626,0.57605 -2.03954,0.87408 z"
           style="fill:#000000;fill-opacity:1;stroke:#000000;stroke-width:1px;stroke-linecap:butt;stroke-linejoin:miter;stroke-opacity:1"
           sodipodi:nodetypes="csssssssssssss" />
        <path
           style="fill:#000000;fill-opacity:1;stroke:#000000;stroke-width:1px;stroke-linecap:butt;stroke-linejoin:miter;stroke-opacity:1"
           d="m 271.4375,641.28125 c -2.46703,-0.0685 -5.24272,3.86102 -8.21875,5 -8.25064,3.15768 1.9108,10.32792 -0.25,15.84375 0.22384,8.39234 0.40041,16.79246 0.5625,25.1875 -7.33502,2.02094 -14.76186,3.76443 -21.96875,6.1875 l -15.125,6 c -2.75392,2.85424 0.38868,7.37955 3.90625,7.03125 4.26018,0.0876 8.01136,-2.6012 12.0625,-3.71875 6.54612,-2.56973 13.25777,-4.66322 20.125,-6.1875 0.38424,-0.0984 0.77183,-0.18341 1.15625,-0.28125 0.14133,7.73934 0.31838,15.47961 0.46875,23.21875 -0.9597,0.30966 -1.91427,0.6313 -2.875,0.9375 -6.06732,1.87543 -12.08272,4.14421 -18.1875,5.78125 l -2.75,0 c -1.05555,0.49697 -1.68759,1.18214 -2.03125,1.9375 l -0.46875,-0.15625 -3.90625,1.8125 3.90625,4.625 c 0.32416,3.86612 0.90273,7.73852 0.59375,11.625 -0.43293,12.5552 -2.01909,25.73484 -1.28125,37.65625 0.0863,1.39414 2.22298,2.34125 3.6875,2.5 1.25298,0.13582 2.95514,0.70103 3.8125,0 1.49518,-1.22256 1.46598,-3.96583 1.4375,-6.1875 -0.12857,-10.03084 0.32556,-20.08591 0.25,-30.125 -0.28542,-4.34969 -0.27905,-8.73821 -0.75,-13.0625 L 244.6875,733.75 c 3.77119,-0.95003 7.41828,-2.59031 11.09375,-3.84375 2.83637,-1.02201 5.66527,-2.0671 8.5,-3.09375 0.49056,23.43459 1.1659,46.85447 2.65625,70.25 1.45805,10.93312 2.43237,22.07096 4.65625,32.84375 3.88277,8.42605 6.83193,-5.11905 5.65625,-8.96875 0.43831,-25.56884 1.44731,-51.15554 0.21875,-76.71875 -0.19363,-7.3251 -0.39959,-14.64287 -0.625,-21.96875 7.36973,-2.68987 14.73658,-5.3698 22.09375,-8.09375 3.53518,2.83414 3.87949,7.22681 3.875,11.4375 -0.78627,12.60766 -0.92244,25.40901 -2.46875,37.84375 -0.33282,2.67639 -1.43525,6.68646 -3.1875,7.5 -1.58109,0.73408 -6.32921,-3.82274 -6.8125,-2.875 -0.66928,1.31249 0.97605,6.61915 1.46875,9.90625 1.37352,3.86312 5.16283,6.51182 8.15625,9.21875 3.04763,2.68701 5.86337,-2.46096 8.34375,-4 3.6957,-2.14413 3.2827,-6.51473 4.21875,-10.1875 2.66516,-11.83725 3.39544,-23.96833 4.71875,-36 0.75252,-5.2106 0.26993,-10.57497 1.40625,-15.71875 1.56479,-3.5808 -3.33268,-5.64101 -5.21875,-8.09375 -3.84693,-2.03676 -7.46432,-4.76904 -11.78125,-5.75 -8.37964,2.55265 -16.71062,5.30848 -25.03125,8.0625 -0.23038,-7.42003 -0.47626,-14.82996 -0.6875,-22.25 5.76299,-1.43781 11.53705,-2.8934 17.25,-4.5 4.59003,-1.8299 9.10347,-4.20504 14.125,-4.46875 3.54998,2.85704 8.29368,5.42098 12.8125,3.15625 3.08629,-1.51845 5.69322,-5.1773 4.59375,-8.78125 -1.24519,-3.06284 -4.46043,-5.30185 -7.25,-7.09375 -1.28373,-0.47683 -2.4988,-2.42135 -3.84375,-1.71875 -7.35414,4.05298 -15.54514,6.09984 -23.34375,9.09375 -4.83449,1.74813 -9.68952,3.43625 -14.59375,4.96875 -0.22623,-8.77443 -0.41609,-17.57059 -0.53125,-26.34375 0.3035,-3.64205 1.66183,-7.60986 0.90625,-10.90625 -0.48854,-2.13138 -2.80632,-5.32448 -4.625,-5.375 z"
           id="path9695" />
      </g>
    </g>
  </g>
</svg>
