<?xml version="1.0" encoding="UTF-8" standalone="no"?>
<!-- Created with Inkscape (http://www.inkscape.org/) -->

<svg
   xmlns:dc="http://purl.org/dc/elements/1.1/"
   xmlns:cc="http://creativecommons.org/ns#"
   xmlns:rdf="http://www.w3.org/1999/02/22-rdf-syntax-ns#"
   xmlns:svg="http://www.w3.org/2000/svg"
   xmlns="http://www.w3.org/2000/svg"
   xmlns:sodipodi="http://sodipodi.sourceforge.net/DTD/sodipodi-0.dtd"
   xmlns:inkscape="http://www.inkscape.org/namespaces/inkscape"
   width="1000"
   height="1000"
   id="svg3173"
   version="1.1"
   inkscape:version="0.47 r22583"
   sodipodi:docname="6cc9.svg"
   inkscape:export-filename="E:\chinese\images\yan_quan_with_zhipie.png"
   inkscape:export-xdpi="18.005705"
   inkscape:export-ydpi="18.005705">
  <title
     id="title3623">Quan</title>
  <defs
     id="defs3175">
    <inkscape:perspective
       sodipodi:type="inkscape:persp3d"
       inkscape:vp_x="0 : 526.18109 : 1"
       inkscape:vp_y="0 : 1000 : 0"
       inkscape:vp_z="744.09448 : 526.18109 : 1"
       inkscape:persp3d-origin="372.04724 : 350.78739 : 1"
       id="perspective3181" />
    <inkscape:perspective
       id="perspective3191"
       inkscape:persp3d-origin="0.5 : 0.33333333 : 1"
       inkscape:vp_z="1 : 0.5 : 1"
       inkscape:vp_y="0 : 1000 : 0"
       inkscape:vp_x="0 : 0.5 : 1"
       sodipodi:type="inkscape:persp3d" />
    <inkscape:perspective
       id="perspective4006"
       inkscape:persp3d-origin="0.5 : 0.33333333 : 1"
       inkscape:vp_z="1 : 0.5 : 1"
       inkscape:vp_y="0 : 1000 : 0"
       inkscape:vp_x="0 : 0.5 : 1"
       sodipodi:type="inkscape:persp3d" />
    <inkscape:perspective
       id="perspective4034"
       inkscape:persp3d-origin="0.5 : 0.33333333 : 1"
       inkscape:vp_z="1 : 0.5 : 1"
       inkscape:vp_y="0 : 1000 : 0"
       inkscape:vp_x="0 : 0.5 : 1"
       sodipodi:type="inkscape:persp3d" />
    <inkscape:perspective
       id="perspective4081"
       inkscape:persp3d-origin="0.5 : 0.33333333 : 1"
       inkscape:vp_z="1 : 0.5 : 1"
       inkscape:vp_y="0 : 1000 : 0"
       inkscape:vp_x="0 : 0.5 : 1"
       sodipodi:type="inkscape:persp3d" />
    <inkscape:perspective
       id="perspective4147"
       inkscape:persp3d-origin="0.5 : 0.33333333 : 1"
       inkscape:vp_z="1 : 0.5 : 1"
       inkscape:vp_y="0 : 1000 : 0"
       inkscape:vp_x="0 : 0.5 : 1"
       sodipodi:type="inkscape:persp3d" />
    <inkscape:perspective
       id="perspective3765"
       inkscape:persp3d-origin="0.5 : 0.33333333 : 1"
       inkscape:vp_z="1 : 0.5 : 1"
       inkscape:vp_y="0 : 1000 : 0"
       inkscape:vp_x="0 : 0.5 : 1"
       sodipodi:type="inkscape:persp3d" />
    <inkscape:perspective
       id="perspective3793"
       inkscape:persp3d-origin="0.5 : 0.33333333 : 1"
       inkscape:vp_z="1 : 0.5 : 1"
       inkscape:vp_y="0 : 1000 : 0"
       inkscape:vp_x="0 : 0.5 : 1"
       sodipodi:type="inkscape:persp3d" />
    <inkscape:perspective
       id="perspective3780"
       inkscape:persp3d-origin="0.5 : 0.33333333 : 1"
       inkscape:vp_z="1 : 0.5 : 1"
       inkscape:vp_y="0 : 1000 : 0"
       inkscape:vp_x="0 : 0.5 : 1"
       sodipodi:type="inkscape:persp3d" />
    <inkscape:perspective
       id="perspective2993"
       inkscape:persp3d-origin="0.5 : 0.33333333 : 1"
       inkscape:vp_z="1 : 0.5 : 1"
       inkscape:vp_y="0 : 1000 : 0"
       inkscape:vp_x="0 : 0.5 : 1"
       sodipodi:type="inkscape:persp3d" />
    <inkscape:perspective
       id="perspective3767"
       inkscape:persp3d-origin="0.5 : 0.33333333 : 1"
       inkscape:vp_z="1 : 0.5 : 1"
       inkscape:vp_y="0 : 1000 : 0"
       inkscape:vp_x="0 : 0.5 : 1"
       sodipodi:type="inkscape:persp3d" />
  </defs>
  <sodipodi:namedview
     id="base"
     pagecolor="#ffffff"
     bordercolor="#666666"
     borderopacity="1.0"
     inkscape:pageopacity="0.0"
     inkscape:pageshadow="2"
     inkscape:zoom="0.49497475"
     inkscape:cx="246.1949"
     inkscape:cy="515.12255"
     inkscape:document-units="px"
     inkscape:current-layer="layer1"
     showgrid="false"
     inkscape:window-width="1440"
     inkscape:window-height="840"
     inkscape:window-x="-4"
     inkscape:window-y="-4"
     inkscape:window-maximized="1" />
  <metadata
     id="metadata3178">
    <rdf:RDF>
      <cc:Work
         rdf:about="">
        <dc:format>image/svg+xml</dc:format>
        <dc:type
           rdf:resource="http://purl.org/dc/dcmitype/StillImage" />
        <dc:title>Quan</dc:title>
        <dc:date>2010-07-16</dc:date>
        <dc:creator>
          <cc:Agent>
            <dc:title>Alex Amies</dc:title>
          </cc:Agent>
        </dc:creator>
        <dc:rights>
          <cc:Agent>
            <dc:title>@ Alex Amies 2010</dc:title>
          </cc:Agent>
        </dc:rights>
        <dc:publisher>
          <cc:Agent>
            <dc:title>chinesenotes.com</dc:title>
          </cc:Agent>
        </dc:publisher>
        <dc:source>Yan Qin Ceremonial Inscription</dc:source>
        <dc:language>Chinese 中文</dc:language>
        <dc:description>Tracing from Tang Dynasty Ceremonial Inscription by Yan Zhenqing 颜真卿 (709－785)</dc:description>
        <cc:license
           rdf:resource="http://creativecommons.org/licenses/by/3.0/" />
      </cc:Work>
      <cc:License
         rdf:about="http://creativecommons.org/licenses/by/3.0/">
        <cc:permits
           rdf:resource="http://creativecommons.org/ns#Reproduction" />
        <cc:permits
           rdf:resource="http://creativecommons.org/ns#Distribution" />
        <cc:requires
           rdf:resource="http://creativecommons.org/ns#Notice" />
        <cc:requires
           rdf:resource="http://creativecommons.org/ns#Attribution" />
        <cc:permits
           rdf:resource="http://creativecommons.org/ns#DerivativeWorks" />
      </cc:License>
    </rdf:RDF>
  </metadata>
  <g
     inkscape:label="Layer 1"
     inkscape:groupmode="layer"
     id="layer1"
     transform="translate(0,-52.362183)">
    <path
       style="fill:#000000;stroke:#000000;stroke-width:4.75137663000000020px;stroke-linecap:butt;stroke-linejoin:miter;stroke-opacity:1;fill-opacity:1"
       d="M 420.84375 9.96875 C 411.85482 10.06174 403.03653 13.47942 395.46875 21.84375 C 376.44423 78.263238 345.07214 128.41519 312.65625 179.6875 C 307.44475 183.79143 304.79329 186.92306 304 189.28125 C 283.20467 175.13302 263.21002 158.67042 242.5 147.90625 C 233.70335 143.33411 230.38926 159.00165 230.875 168.15625 C 244.27607 217.60398 269.72395 262.55056 290.375 309.1875 C 294.77891 330.65668 299.18984 352.12457 303.59375 373.59375 C 309.67019 385.64666 317.09135 394.30036 325.875 399.6875 C 315.08826 402.59972 304.26469 405.74801 293.40625 409.21875 C 286.02195 420.1301 277.7845 436.64623 289.25 447.5 C 324.44792 440.48038 374.40693 432.62302 425.8125 424.71875 C 424.01914 429.89424 423.72437 435.76047 425.40625 442.59375 C 429.50417 461.57931 435.91541 480.27811 434.96875 499.9375 C 438.66484 609.98024 443.70659 719.98099 446.125 830.0625 C 440.36219 835.84079 434.52601 841.0379 427.0625 834.59375 C 411.34063 828.03913 396.2379 819.84422 379.9375 814.78125 C 382.36911 823.93805 380.35475 835.39003 389.375 841.15625 C 402.09776 854.32132 415.86335 866.7738 427.9375 880.375 C 444.88908 907.3468 437.32914 932.22738 434.53125 961.90625 C 438.49817 996.66085 474.39526 987.67335 495.78125 971.46875 C 501.44551 956.32495 509.05053 941.65745 509.375 925.15625 C 515.31327 876.79726 522.17469 828.51606 527.53125 780.125 C 526.05371 709.98865 525.77086 639.79501 523.53125 569.6875 C 523.26445 566.49795 523.07101 563.28362 522.90625 560.0625 C 554.9019 595.31049 587.1685 630.31406 618.40625 666.21875 C 669.15694 716.69833 703.17982 789.08511 765.03125 827.9375 C 770.91008 834.14546 777.91894 833.45328 785.28125 830.46875 C 842.65745 816.89402 903.70423 804.98222 955.21875 782.53125 C 960.75477 780.11855 966.34774 768.48166 956.625 764.59375 C 936.7317 756.63881 918.2848 744.55296 897.40625 738.625 C 830.6753 720.8683 771.28209 691.00596 713.125 654.71875 C 674.74418 625.95183 639.18444 594.04806 605.71875 560.03125 C 668.6106 515.9323 733.9626 475.59513 798.40625 433.84375 C 832.82066 410.49763 847.63484 396.67195 833.03125 365.09375 C 820.83413 338.71921 770.92375 337.15832 747.75 357.125 C 693.92218 403.50344 651.8719 466.5171 603.9375 521.21875 C 596.20085 533.04014 593.73324 540.37843 595.5625 549.5625 C 573.17242 526.22672 551.70098 501.9724 530.96875 477.09375 C 526.87047 475.6455 523.19894 474.66206 519.78125 474.125 C 517.69218 458.29407 513.77943 442.99646 506.34375 428.75 C 503.05828 422.45515 499.45072 417.64755 495.46875 414 C 529.96692 408.63153 562.37618 403.39222 588.34375 398.5625 L 591.9375 397.3125 C 594.76521 402.22077 598.79074 406.47157 604.4375 409.6875 C 622.11286 417.41013 643.77043 409.19057 649.5625 389.96875 C 686.07132 322.44074 720.23509 253.67133 754.96875 185.21875 C 770.53544 174.63635 780.28737 147.58853 768.46875 131.9375 C 747.83285 110.90485 725.18365 91.70628 702.59375 72.71875 C 696.24672 66.30736 693.69851 81.66564 689.1875 85.71875 C 680.09237 100.23891 656.06455 90.71427 641.25 96.15625 C 587.47199 101.97237 534.05064 110.51543 480.46875 117.90625 C 482.59407 116.58659 484.7117 115.26797 486.84375 113.96875 C 508.37091 87.95999 485.10387 55.874377 466.5 34.1875 C 455.77133 21.680896 438.00444 9.7912233 420.84375 9.96875 z M 654.84375 129.21875 C 681.8234 130.44049 653.44663 159.98446 652.78125 174.6875 C 631.34409 232.12965 609.65481 289.46602 588.71875 347.09375 C 582.51737 346.36346 575.90457 346.75075 569.28125 348.3125 C 502.41554 366.10804 434.98231 374.45464 366.28125 389.78125 C 362.66521 360.90404 358.79612 332.03833 353.78125 303.40625 C 353.20206 301.56006 352.49147 299.4169 351.84375 297.40625 C 352.31698 297.32227 352.82782 297.24215 353.28125 297.15625 C 410.88328 286.24452 469.8874 277.51037 525.875 263.28125 C 533.14124 261.43455 542.26176 254.30912 542.84375 248 C 543.73587 238.32928 533.19174 223.32396 522.5 224.25 C 463.31097 229.37649 401.51849 250.43642 341.28125 265.6875 C 333.23882 242.01471 324.42542 216.50442 318.875 198.8125 C 317.12943 197.77795 315.38691 196.7121 313.65625 195.625 C 320.21306 196.00861 328.82884 195.01209 335.71875 193.78125 C 358.60032 187.79624 379.94391 178.25627 400.53125 167.0625 C 414.48835 168.40118 428.51693 169.03629 442.46875 169.34375 C 516.17771 169.21475 584.88833 149.52838 654.84375 129.21875 z M 348.71875 477.1875 C 345.28815 477.18422 342.24164 478.0952 340.90625 480.5 C 329.97689 500.18168 324.07046 524.2307 317.8125 548.5 C 316.36712 548.25794 314.84303 548.26701 313.28125 548.5 C 253.13814 557.47231 188.03418 569.33866 132.1875 594.1875 C 107.65533 605.10303 108.50397 630.92118 113.53125 655.28125 C 117.48202 674.42478 133.56864 679.53909 150.875 673.9375 C 207.98288 655.4533 261.74457 618.21527 308.25 582.3125 C 305.01164 592.13886 301.28116 601.64518 296.65625 610.5625 C 274.13354 653.98871 245.64707 695.17669 215.375 733.90625 C 171.26512 790.33959 97.802652 846.69148 76.1875 897.9375 C 70.367728 911.73526 107.0754 891.553 121.0625 883.84375 C 137.47489 874.7977 155.77116 867.18709 169.03125 854.0625 C 203.357 820.0875 235.70807 783.76542 264.53125 744.71875 C 288.12164 712.76089 314.86502 683.01858 334.3125 648.15625 C 351.1261 618.01552 370.78945 589.27238 382.25 556.5 C 387.25159 542.19759 400.38733 522.1321 389.75 508.96875 C 381.35166 498.57611 372.09139 486.80208 361.28125 480.5 C 358.2058 478.70708 353.12952 477.19172 348.71875 477.1875 z "
       transform="translate(0,52.362183)"
       id="path5405" />
  </g>
</svg>
