<?xml version="1.0" encoding="UTF-8" standalone="no"?>
<!-- Created with Inkscape (http://www.inkscape.org/) -->

<svg
   xmlns:dc="http://purl.org/dc/elements/1.1/"
   xmlns:cc="http://creativecommons.org/ns#"
   xmlns:rdf="http://www.w3.org/1999/02/22-rdf-syntax-ns#"
   xmlns:svg="http://www.w3.org/2000/svg"
   xmlns="http://www.w3.org/2000/svg"
   xmlns:sodipodi="http://sodipodi.sourceforge.net/DTD/sodipodi-0.dtd"
   xmlns:inkscape="http://www.inkscape.org/namespaces/inkscape"
   width="1000"
   height="1000"
   id="svg3173"
   version="1.1"
   inkscape:version="0.47 r22583"
   sodipodi:docname="6e29.svg"
   inkscape:export-filename="E:\chinese\yan\6e29.png"
   inkscape:export-xdpi="18.005705"
   inkscape:export-ydpi="18.005705">
  <title
     id="title5202">Wen</title>
  <defs
     id="defs3175">
    <inkscape:perspective
       sodipodi:type="inkscape:persp3d"
       inkscape:vp_x="0 : 526.18109 : 1"
       inkscape:vp_y="0 : 1000 : 0"
       inkscape:vp_z="744.09448 : 526.18109 : 1"
       inkscape:persp3d-origin="372.04724 : 350.78739 : 1"
       id="perspective3181" />
    <inkscape:perspective
       id="perspective3191"
       inkscape:persp3d-origin="0.5 : 0.33333333 : 1"
       inkscape:vp_z="1 : 0.5 : 1"
       inkscape:vp_y="0 : 1000 : 0"
       inkscape:vp_x="0 : 0.5 : 1"
       sodipodi:type="inkscape:persp3d" />
    <inkscape:perspective
       id="perspective4006"
       inkscape:persp3d-origin="0.5 : 0.33333333 : 1"
       inkscape:vp_z="1 : 0.5 : 1"
       inkscape:vp_y="0 : 1000 : 0"
       inkscape:vp_x="0 : 0.5 : 1"
       sodipodi:type="inkscape:persp3d" />
    <inkscape:perspective
       id="perspective4034"
       inkscape:persp3d-origin="0.5 : 0.33333333 : 1"
       inkscape:vp_z="1 : 0.5 : 1"
       inkscape:vp_y="0 : 1000 : 0"
       inkscape:vp_x="0 : 0.5 : 1"
       sodipodi:type="inkscape:persp3d" />
    <inkscape:perspective
       id="perspective4081"
       inkscape:persp3d-origin="0.5 : 0.33333333 : 1"
       inkscape:vp_z="1 : 0.5 : 1"
       inkscape:vp_y="0 : 1000 : 0"
       inkscape:vp_x="0 : 0.5 : 1"
       sodipodi:type="inkscape:persp3d" />
    <inkscape:perspective
       id="perspective4147"
       inkscape:persp3d-origin="0.5 : 0.33333333 : 1"
       inkscape:vp_z="1 : 0.5 : 1"
       inkscape:vp_y="0 : 1000 : 0"
       inkscape:vp_x="0 : 0.5 : 1"
       sodipodi:type="inkscape:persp3d" />
    <inkscape:perspective
       id="perspective3801"
       inkscape:persp3d-origin="0.5 : 0.33333333 : 1"
       inkscape:vp_z="1 : 0.5 : 1"
       inkscape:vp_y="0 : 1000 : 0"
       inkscape:vp_x="0 : 0.5 : 1"
       sodipodi:type="inkscape:persp3d" />
    <inkscape:perspective
       id="perspective3122"
       inkscape:persp3d-origin="0.5 : 0.33333333 : 1"
       inkscape:vp_z="1 : 0.5 : 1"
       inkscape:vp_y="0 : 1000 : 0"
       inkscape:vp_x="0 : 0.5 : 1"
       sodipodi:type="inkscape:persp3d" />
    <inkscape:perspective
       id="perspective3854"
       inkscape:persp3d-origin="0.5 : 0.33333333 : 1"
       inkscape:vp_z="1 : 0.5 : 1"
       inkscape:vp_y="0 : 1000 : 0"
       inkscape:vp_x="0 : 0.5 : 1"
       sodipodi:type="inkscape:persp3d" />
    <inkscape:perspective
       id="perspective3922"
       inkscape:persp3d-origin="0.5 : 0.33333333 : 1"
       inkscape:vp_z="1 : 0.5 : 1"
       inkscape:vp_y="0 : 1000 : 0"
       inkscape:vp_x="0 : 0.5 : 1"
       sodipodi:type="inkscape:persp3d" />
    <inkscape:perspective
       id="perspective3945"
       inkscape:persp3d-origin="0.5 : 0.33333333 : 1"
       inkscape:vp_z="1 : 0.5 : 1"
       inkscape:vp_y="0 : 1000 : 0"
       inkscape:vp_x="0 : 0.5 : 1"
       sodipodi:type="inkscape:persp3d" />
    <inkscape:perspective
       id="perspective3972"
       inkscape:persp3d-origin="0.5 : 0.33333333 : 1"
       inkscape:vp_z="1 : 0.5 : 1"
       inkscape:vp_y="0 : 1000 : 0"
       inkscape:vp_x="0 : 0.5 : 1"
       sodipodi:type="inkscape:persp3d" />
    <inkscape:perspective
       id="perspective3995"
       inkscape:persp3d-origin="0.5 : 0.33333333 : 1"
       inkscape:vp_z="1 : 0.5 : 1"
       inkscape:vp_y="0 : 1000 : 0"
       inkscape:vp_x="0 : 0.5 : 1"
       sodipodi:type="inkscape:persp3d" />
    <inkscape:perspective
       id="perspective3802"
       inkscape:persp3d-origin="0.5 : 0.33333333 : 1"
       inkscape:vp_z="1 : 0.5 : 1"
       inkscape:vp_y="0 : 1000 : 0"
       inkscape:vp_x="0 : 0.5 : 1"
       sodipodi:type="inkscape:persp3d" />
    <inkscape:perspective
       id="perspective3833"
       inkscape:persp3d-origin="0.5 : 0.33333333 : 1"
       inkscape:vp_z="1 : 0.5 : 1"
       inkscape:vp_y="0 : 1000 : 0"
       inkscape:vp_x="0 : 0.5 : 1"
       sodipodi:type="inkscape:persp3d" />
    <inkscape:perspective
       id="perspective3913"
       inkscape:persp3d-origin="0.5 : 0.33333333 : 1"
       inkscape:vp_z="1 : 0.5 : 1"
       inkscape:vp_y="0 : 1000 : 0"
       inkscape:vp_x="0 : 0.5 : 1"
       sodipodi:type="inkscape:persp3d" />
    <inkscape:perspective
       id="perspective4500"
       inkscape:persp3d-origin="0.5 : 0.33333333 : 1"
       inkscape:vp_z="1 : 0.5 : 1"
       inkscape:vp_y="0 : 1000 : 0"
       inkscape:vp_x="0 : 0.5 : 1"
       sodipodi:type="inkscape:persp3d" />
    <inkscape:perspective
       id="perspective5117"
       inkscape:persp3d-origin="0.5 : 0.33333333 : 1"
       inkscape:vp_z="1 : 0.5 : 1"
       inkscape:vp_y="0 : 1000 : 0"
       inkscape:vp_x="0 : 0.5 : 1"
       sodipodi:type="inkscape:persp3d" />
    <inkscape:perspective
       id="perspective5212"
       inkscape:persp3d-origin="0.5 : 0.33333333 : 1"
       inkscape:vp_z="1 : 0.5 : 1"
       inkscape:vp_y="0 : 1000 : 0"
       inkscape:vp_x="0 : 0.5 : 1"
       sodipodi:type="inkscape:persp3d" />
  </defs>
  <sodipodi:namedview
     id="base"
     pagecolor="#ffffff"
     bordercolor="#666666"
     borderopacity="1.0"
     inkscape:pageopacity="0.0"
     inkscape:pageshadow="2"
     inkscape:zoom="0.49497475"
     inkscape:cx="483.07102"
     inkscape:cy="534.97897"
     inkscape:document-units="px"
     inkscape:current-layer="g4634"
     showgrid="false"
     inkscape:window-width="1440"
     inkscape:window-height="840"
     inkscape:window-x="-4"
     inkscape:window-y="-4"
     inkscape:window-maximized="1" />
  <metadata
     id="metadata3178">
    <rdf:RDF>
      <cc:Work
         rdf:about="">
        <dc:format>image/svg+xml</dc:format>
        <dc:type
           rdf:resource="http://purl.org/dc/dcmitype/StillImage" />
        <dc:title>Wen</dc:title>
        <dc:date>2010-08-21</dc:date>
        <dc:creator>
          <cc:Agent>
            <dc:title>Alex Amies</dc:title>
          </cc:Agent>
        </dc:creator>
        <dc:rights>
          <cc:Agent>
            <dc:title>@ Alex Amies 2010</dc:title>
          </cc:Agent>
        </dc:rights>
        <dc:publisher>
          <cc:Agent>
            <dc:title>chinesenotes.com</dc:title>
          </cc:Agent>
        </dc:publisher>
        <dc:source>Yan Qin Ceremonial Inscription</dc:source>
        <dc:language>Chinese 中文</dc:language>
        <dc:description>Tracing from Tang Dynasty Ceremonial Inscription by Yan Zhenqing 颜真卿 (709－785)</dc:description>
        <cc:license
           rdf:resource="http://creativecommons.org/licenses/by/3.0/" />
      </cc:Work>
      <cc:License
         rdf:about="http://creativecommons.org/licenses/by/3.0/">
        <cc:permits
           rdf:resource="http://creativecommons.org/ns#Reproduction" />
        <cc:permits
           rdf:resource="http://creativecommons.org/ns#Distribution" />
        <cc:requires
           rdf:resource="http://creativecommons.org/ns#Notice" />
        <cc:requires
           rdf:resource="http://creativecommons.org/ns#Attribution" />
        <cc:permits
           rdf:resource="http://creativecommons.org/ns#DerivativeWorks" />
      </cc:License>
    </rdf:RDF>
  </metadata>
  <g
     inkscape:label="Layer 1"
     inkscape:groupmode="layer"
     id="layer1"
     transform="translate(0,-52.362183)">
    <g
       transform="matrix(4.7609464,0,0,4.7609464,-444.07486,-2879.5352)"
       id="g4634"
       style="fill:#000000;fill-opacity:1">
      <path
         style="fill:#000000;stroke:#000000;stroke-width:4.76094626999999980px;stroke-linecap:butt;stroke-linejoin:miter;stroke-opacity:1;fill-opacity:1"
         d="M 264.4375 102.15625 C 248.27075 102.10997 234.27249 112.60634 225.75 127.09375 C 222.2089 135.79728 225.57725 149.35292 229.875 158.96875 C 249.59651 204.69321 286.54242 247.91701 331.15625 271.625 C 337.84233 273.80842 347.29465 274.82126 353.28125 271.625 C 368.21601 260.94886 386.23189 241.7424 387.28125 222.3125 C 373.98726 161.79202 334.3682 114.71221 273.625 103.3125 C 270.50329 102.53747 267.43134 102.16482 264.4375 102.15625 z M 776.3125 137.65625 C 768.57048 137.66846 760.82663 138.92375 753.375 141.625 C 682.1699 166.30822 606.66891 175.05579 531.8125 179.8125 C 526.71148 186.61385 517.64663 192.33143 516.5 200.21875 C 514.29735 215.37032 530.22302 240.75054 549.5 228.1875 C 580.81436 219.5461 614.27901 219.29272 644.21875 205.9375 C 676.55462 190.36097 707.84421 176.81336 742.65625 167.90625 C 765.26989 171.80694 750.97606 196.38571 749.875 211.25 C 747.04288 261.01437 700.4916 338.38837 692.59375 389.8125 C 688.3968 389.58165 684.02261 389.72337 679.65625 390.125 C 623.51225 395.33297 568.50508 406.70242 514.53125 422.375 C 512.32968 357.67666 496.70342 291.01828 456.53125 239.59375 C 448.07533 225.99892 430.81611 221.92443 417.875 232.53125 C 409.21603 243.48881 406.14039 258.76142 408.59375 272.96875 C 431.99685 322.26949 463.02628 368.83068 483.4375 420.15625 C 484.29009 423.74816 484.51909 427.74306 485.40625 431.28125 C 483.1434 432.00616 480.88416 432.72978 478.625 433.46875 C 466.35518 437.44981 460.65385 446.05641 462.09375 458.65625 C 466.07028 465.04915 476.8284 469.23079 486.875 468.96875 C 551.0407 455.86325 613.06795 432.6893 679.59375 436.59375 C 685.25631 438.81182 692.13202 440.52822 698.5625 440.1875 C 699.90597 443.32882 701.4321 446.3904 703.125 449.34375 C 718.93458 458.76719 732.55883 453.04296 743.59375 440.03125 C 785.65562 382.73155 819.07599 318.30963 850.75 254.65625 C 862.24073 223.24367 866.52509 189.33845 838.6875 165.1875 C 822.81944 148.72985 799.53857 137.61963 776.3125 137.65625 z M 640.28125 259.78125 C 634.00357 259.79138 627.54164 260.62573 621.9375 261.4375 C 594.51145 266.68621 571.69071 283.90556 546.125 293.84375 C 541.59772 295.3216 533.8249 292.15292 531.8125 295.4375 C 527.08659 308.37337 526.75328 324.73318 531.8125 336.25 C 572.43808 323.96024 612.69357 307.49736 651.5 289.875 C 657.2237 287.15464 666.52487 284.57111 667.84375 280.125 C 666.99774 263.64822 654.09214 259.75897 640.28125 259.78125 z M 156.03125 331.15625 C 131.05794 338.92702 122.61424 361.09078 123.4375 384.78125 C 139.53435 419.75288 178.19579 447.65147 207.46875 472.40625 C 211.9429 475.93297 218.89335 478.35809 224.0625 477.375 C 244.37651 471.74975 254.91495 451.4173 265.4375 434.5625 C 273.83648 411.65021 272.51679 387.29093 279.59375 363.5 C 280.68529 359.82726 281.01251 349.97674 274.1875 352.8125 C 266.33213 356.07637 257.78894 361.43708 249.5625 360.0625 C 218.21433 354.82455 186.53616 336.75784 156.03125 331.15625 z M 823.59375 481.71875 C 819.11994 481.66694 814.7359 481.92664 810.65625 482.46875 C 794.74626 484.58285 780.51325 498.48266 763.1875 498.8125 C 700.33744 507.63068 637.45557 516.431 575.25 529.15625 C 552.61151 536.58761 525.35414 527.82519 504.59375 540.28125 C 497.23118 553.64213 486.89444 576.22607 503.5 586.5 C 510.37412 590.61933 517.71774 591.39232 525.21875 590.78125 C 516.33788 642.18356 521.57465 700.1237 521.59375 754.53125 L 530.125 769.84375 C 536.7014 770.60256 543.26736 771.36618 549.84375 772.125 C 531.23355 774.99532 512.65491 777.98974 494.125 781.125 C 485.44068 710.91266 468.76985 639.51678 451.3125 571.3125 C 447.29588 556.6723 435.71007 544.36376 432.90625 529.40625 C 431.69535 522.9466 436.00466 513.2196 431.5 509.6875 C 412.77915 497.2012 387.40727 492.14678 365.1875 494.375 C 360.13723 496.95177 353.9839 505.49733 354.96875 511.375 C 357.29204 525.24035 374.07651 535.12542 385.375 545.25 C 423.96405 618.63731 428.35335 708.74259 449.40625 788.90625 C 430.7193 792.22815 412.06406 795.61445 393.5 799.03125 C 370.7831 803.97654 347.42956 804.0866 329.46875 820.84375 C 319.80336 841.36457 336.88679 861.27327 356.5625 865.8125 C 375.75897 870.44085 395.02881 878.15618 414.96875 873.125 C 504.5402 851.08625 594.98785 829.78146 687.5625 825.71875 C 746.20041 816.1403 804.69745 831.47264 863.15625 829.8125 C 886.14824 827.87727 907.07001 807.73516 902.21875 783.5625 C 904.73343 760.53609 887.29234 748.69018 866.90625 747 C 844.55196 746.50003 822.1627 746.61079 799.75 747.25 C 804.21807 742.02366 808.19276 735.97095 811.6875 729.125 C 836.68485 675.35206 859.19426 620.46358 882.09375 565.78125 C 898.88466 561.59576 903.30853 539.8 892.40625 531.5 C 882.16155 517.99572 875.19697 499.06917 861.6875 490.96875 C 851.38357 484.79039 837.01517 481.87417 823.59375 481.71875 z M 760.1875 547.8125 C 770.96845 547.68264 779.90439 553.09424 772.53125 566.59375 C 764.05315 598.25147 758.50512 631.04884 743.09375 660.34375 C 731.19786 685.24845 714.42415 712.14922 713.75 737.53125 C 713.6162 742.56464 716.30994 747.16436 719.9375 751.625 C 702.07629 753.04084 684.22373 754.7345 666.375 756.65625 C 667.54695 750.70229 668.4516 744.46379 669.78125 738.65625 C 684.32637 685.11979 681.74428 630.23183 681.25 575.3125 C 680.00893 570.96871 678.77234 566.62504 677.53125 562.28125 C 701.967 557.54358 726.41459 553.01148 751 549.15625 C 753.98951 548.30745 757.16883 547.84886 760.1875 547.8125 z M 634.96875 570.65625 C 619.21425 628.59377 621.22514 690.26788 622.1875 750.0625 L 626.84375 761.25 C 609.64995 763.41259 592.49567 765.78027 575.34375 768.28125 C 581.89701 721.90244 576.3778 675.28489 574.46875 628.6875 C 575.54763 617.35945 580.24443 604.97762 577.71875 594.6875 C 575.81913 589.91053 573.61051 585.95463 571 582.78125 C 592.36843 579.00162 613.67467 574.85525 634.96875 570.65625 z M 273.4375 599 C 272.74023 598.95783 272.10963 599.22524 271.65625 599.8125 C 235.90611 646.11846 203.73587 705.24796 167.9375 756.21875 C 164.69449 760.83625 159.01005 766.14589 154.34375 766.4375 C 149.94159 766.71268 145.69565 757.50292 140.71875 757.9375 C 125.8118 759.2391 123.41974 779.71434 122.125 793.40625 C 121.32568 817.72278 131.33829 844.60105 144.125 865.0625 C 170.68832 896.48855 215.23706 905.25241 253.46875 892.46875 C 264.64874 886.96848 259.25031 865.12507 256.84375 852.15625 C 253.81607 835.84011 235.58412 827.64774 230.34375 811.40625 C 225.7821 797.26833 228.38847 783.58861 231.8125 769.6875 C 244.2848 715.38153 264.81586 663.50128 279.5 609.84375 C 280.92561 604.6542 276.459 599.18272 273.4375 599 z "
         transform="matrix(0.21004227,0,0,0.21004227,93.274493,615.82239)"
         id="path4663" />
    </g>
  </g>
</svg>
