<?xml version="1.0" encoding="UTF-8" standalone="no"?>
<!-- Created with Inkscape (http://www.inkscape.org/) -->

<svg
   xmlns:dc="http://purl.org/dc/elements/1.1/"
   xmlns:cc="http://creativecommons.org/ns#"
   xmlns:rdf="http://www.w3.org/1999/02/22-rdf-syntax-ns#"
   xmlns:svg="http://www.w3.org/2000/svg"
   xmlns="http://www.w3.org/2000/svg"
   xmlns:sodipodi="http://sodipodi.sourceforge.net/DTD/sodipodi-0.dtd"
   xmlns:inkscape="http://www.inkscape.org/namespaces/inkscape"
   width="1000"
   height="1000"
   id="svg3173"
   version="1.1"
   inkscape:version="0.47 r22583"
   sodipodi:docname="6fec.svg"
   inkscape:export-filename="E:\chinese\yan\6fec.png"
   inkscape:export-xdpi="18.005705"
   inkscape:export-ydpi="18.005705">
  <title
     id="title4267">Jun</title>
  <defs
     id="defs3175">
    <inkscape:perspective
       sodipodi:type="inkscape:persp3d"
       inkscape:vp_x="0 : 526.18109 : 1"
       inkscape:vp_y="0 : 1000 : 0"
       inkscape:vp_z="744.09448 : 526.18109 : 1"
       inkscape:persp3d-origin="372.04724 : 350.78739 : 1"
       id="perspective3181" />
    <inkscape:perspective
       id="perspective3191"
       inkscape:persp3d-origin="0.5 : 0.33333333 : 1"
       inkscape:vp_z="1 : 0.5 : 1"
       inkscape:vp_y="0 : 1000 : 0"
       inkscape:vp_x="0 : 0.5 : 1"
       sodipodi:type="inkscape:persp3d" />
    <inkscape:perspective
       id="perspective4006"
       inkscape:persp3d-origin="0.5 : 0.33333333 : 1"
       inkscape:vp_z="1 : 0.5 : 1"
       inkscape:vp_y="0 : 1000 : 0"
       inkscape:vp_x="0 : 0.5 : 1"
       sodipodi:type="inkscape:persp3d" />
    <inkscape:perspective
       id="perspective4034"
       inkscape:persp3d-origin="0.5 : 0.33333333 : 1"
       inkscape:vp_z="1 : 0.5 : 1"
       inkscape:vp_y="0 : 1000 : 0"
       inkscape:vp_x="0 : 0.5 : 1"
       sodipodi:type="inkscape:persp3d" />
    <inkscape:perspective
       id="perspective4081"
       inkscape:persp3d-origin="0.5 : 0.33333333 : 1"
       inkscape:vp_z="1 : 0.5 : 1"
       inkscape:vp_y="0 : 1000 : 0"
       inkscape:vp_x="0 : 0.5 : 1"
       sodipodi:type="inkscape:persp3d" />
    <inkscape:perspective
       id="perspective4147"
       inkscape:persp3d-origin="0.5 : 0.33333333 : 1"
       inkscape:vp_z="1 : 0.5 : 1"
       inkscape:vp_y="0 : 1000 : 0"
       inkscape:vp_x="0 : 0.5 : 1"
       sodipodi:type="inkscape:persp3d" />
    <inkscape:perspective
       id="perspective3858"
       inkscape:persp3d-origin="0.5 : 0.33333333 : 1"
       inkscape:vp_z="1 : 0.5 : 1"
       inkscape:vp_y="0 : 1000 : 0"
       inkscape:vp_x="0 : 0.5 : 1"
       sodipodi:type="inkscape:persp3d" />
    <inkscape:perspective
       id="perspective3876"
       inkscape:persp3d-origin="0.5 : 0.33333333 : 1"
       inkscape:vp_z="1 : 0.5 : 1"
       inkscape:vp_y="0 : 1000 : 0"
       inkscape:vp_x="0 : 0.5 : 1"
       sodipodi:type="inkscape:persp3d" />
    <inkscape:perspective
       id="perspective3901"
       inkscape:persp3d-origin="0.5 : 0.33333333 : 1"
       inkscape:vp_z="1 : 0.5 : 1"
       inkscape:vp_y="0 : 1000 : 0"
       inkscape:vp_x="0 : 0.5 : 1"
       sodipodi:type="inkscape:persp3d" />
    <inkscape:perspective
       id="perspective4392"
       inkscape:persp3d-origin="0.5 : 0.33333333 : 1"
       inkscape:vp_z="1 : 0.5 : 1"
       inkscape:vp_y="0 : 1000 : 0"
       inkscape:vp_x="0 : 0.5 : 1"
       sodipodi:type="inkscape:persp3d" />
    <inkscape:perspective
       id="perspective3767"
       inkscape:persp3d-origin="0.5 : 0.33333333 : 1"
       inkscape:vp_z="1 : 0.5 : 1"
       inkscape:vp_y="0 : 1000 : 0"
       inkscape:vp_x="0 : 0.5 : 1"
       sodipodi:type="inkscape:persp3d" />
    <inkscape:perspective
       id="perspective3810"
       inkscape:persp3d-origin="0.5 : 0.33333333 : 1"
       inkscape:vp_z="1 : 0.5 : 1"
       inkscape:vp_y="0 : 1000 : 0"
       inkscape:vp_x="0 : 0.5 : 1"
       sodipodi:type="inkscape:persp3d" />
    <inkscape:perspective
       id="perspective3847"
       inkscape:persp3d-origin="0.5 : 0.33333333 : 1"
       inkscape:vp_z="1 : 0.5 : 1"
       inkscape:vp_y="0 : 1000 : 0"
       inkscape:vp_x="0 : 0.5 : 1"
       sodipodi:type="inkscape:persp3d" />
    <inkscape:perspective
       id="perspective3875"
       inkscape:persp3d-origin="0.5 : 0.33333333 : 1"
       inkscape:vp_z="1 : 0.5 : 1"
       inkscape:vp_y="0 : 1000 : 0"
       inkscape:vp_x="0 : 0.5 : 1"
       sodipodi:type="inkscape:persp3d" />
    <inkscape:perspective
       id="perspective3902"
       inkscape:persp3d-origin="0.5 : 0.33333333 : 1"
       inkscape:vp_z="1 : 0.5 : 1"
       inkscape:vp_y="0 : 1000 : 0"
       inkscape:vp_x="0 : 0.5 : 1"
       sodipodi:type="inkscape:persp3d" />
  </defs>
  <sodipodi:namedview
     id="base"
     pagecolor="#ffffff"
     bordercolor="#666666"
     borderopacity="1.0"
     inkscape:pageopacity="0.0"
     inkscape:pageshadow="2"
     inkscape:zoom="0.49497475"
     inkscape:cx="320.67944"
     inkscape:cy="518.12327"
     inkscape:document-units="px"
     inkscape:current-layer="layer1"
     showgrid="false"
     inkscape:window-width="1440"
     inkscape:window-height="840"
     inkscape:window-x="-4"
     inkscape:window-y="-4"
     inkscape:window-maximized="1" />
  <metadata
     id="metadata3178">
    <rdf:RDF>
      <cc:Work
         rdf:about="">
        <dc:format>image/svg+xml</dc:format>
        <dc:type
           rdf:resource="http://purl.org/dc/dcmitype/StillImage" />
        <dc:title>Jun</dc:title>
        <dc:date>2010-08-13</dc:date>
        <dc:creator>
          <cc:Agent>
            <dc:title>Alex Amies</dc:title>
          </cc:Agent>
        </dc:creator>
        <dc:rights>
          <cc:Agent>
            <dc:title>@ Alex Amies 2010</dc:title>
          </cc:Agent>
        </dc:rights>
        <dc:publisher>
          <cc:Agent>
            <dc:title>chinesenotes.com</dc:title>
          </cc:Agent>
        </dc:publisher>
        <dc:source>Yan Qin Ceremonial Inscription</dc:source>
        <dc:language>Chinese 中文</dc:language>
        <dc:description>Tracing from Tang Dynasty Ceremonial Inscription by Yan Zhenqing 颜真卿 (709－785)</dc:description>
        <cc:license
           rdf:resource="http://creativecommons.org/licenses/by/3.0/" />
      </cc:Work>
      <cc:License
         rdf:about="http://creativecommons.org/licenses/by/3.0/">
        <cc:permits
           rdf:resource="http://creativecommons.org/ns#Reproduction" />
        <cc:permits
           rdf:resource="http://creativecommons.org/ns#Distribution" />
        <cc:requires
           rdf:resource="http://creativecommons.org/ns#Notice" />
        <cc:requires
           rdf:resource="http://creativecommons.org/ns#Attribution" />
        <cc:permits
           rdf:resource="http://creativecommons.org/ns#DerivativeWorks" />
      </cc:License>
    </rdf:RDF>
  </metadata>
  <g
     inkscape:label="Layer 1"
     inkscape:groupmode="layer"
     id="layer1"
     transform="translate(0,-52.362183)">
    <path
       style="fill:#000000;stroke:#000000;stroke-width:4.76094626999999980px;stroke-linecap:butt;stroke-linejoin:miter;stroke-opacity:1;fill-opacity:1"
       d="M 514 73.65625 C 502.88039 73.709199 497.83339 75.760968 483.78125 83.40625 C 468.4072 98.88399 484.50668 121.41192 487.375 139 C 492.80967 169.35208 494.92378 200.48294 492.0625 231.21875 C 489.11376 248.36344 479.09234 264.83939 483.21875 282.71875 C 484.22388 292.51111 488.8866 305.1669 500.375 305.78125 C 511.36443 306.16837 521.3415 301.01508 529.0625 293.4375 C 530.4037 293.42984 531.72563 293.30573 533.03125 293.0625 C 596.76546 261.17783 666.66157 259.76977 735.09375 246.78125 C 745.32483 241.76369 769.74049 236.58915 769.78125 248.3125 C 761.96063 268.45497 760.17154 279.35805 750.59375 294.1875 C 742.21311 303.22634 731.94794 332.15227 750.4375 320.75 C 763.65584 310.83009 776.04019 296.92478 793.09375 294.625 C 811.99252 294.21604 830.38041 300.98626 849.40625 298.90625 C 869.48368 301.05449 889.21256 286.84489 893.625 267.21875 C 897.60687 241.77682 880.80576 219.69745 868.25 199.25 C 860.57002 189.03215 849.60441 181.75743 843.03125 170.625 C 827.72952 152.90833 822.12935 181.05786 815.625 190.59375 C 799.20911 203.03244 777.23316 200.50697 758.21875 205.78125 C 705.58792 215.29714 651.6527 217.20364 599.84375 231.25 C 584.81121 234.47487 568.81948 235.61195 553.53125 238.75 C 557.34922 222.7308 559.63184 206.37273 561.3125 189.90625 C 637.30708 179.99898 709.27981 153.56229 785.6875 142.15625 C 797.15595 139.30182 810.74582 129.55407 805.125 116.0625 C 795.33564 94.6741 778.88373 73.95346 753.46875 81.71875 C 737.29948 86.1979 725.96767 100.02883 709.875 104.78125 C 668.96676 131.02822 607.42938 121.86742 565.03125 144.15625 C 565.88876 122.82456 563.12656 100.13495 548.71875 83.53125 C 543.63601 77.2608 536.00673 72.83919 527.6875 74.15625 C 522.06617 73.868165 517.70654 73.6386 514 73.65625 z M 225.6875 101.53125 C 207.05678 108.50699 185.85081 102.93029 167.46875 109.03125 C 160.93387 115.46181 165.81313 125.58372 169.75 132.09375 C 181.88294 149.48015 204.61741 154.98197 217.1875 172.03125 C 231.64721 189.61576 242.00528 210.60118 259.5625 225.5625 C 272.1594 237.87403 286.60976 252.36203 305.59375 251.84375 C 322.19793 251.74375 337.49132 240.92086 344.09375 225.84375 C 350.54421 213.64683 349.35055 198.99235 343.6875 186.75 C 318.41297 143.56365 270.21701 120.43992 225.6875 101.53125 z M 377.84375 245.34375 C 370.63672 245.27197 364.07138 246.71948 359.28125 250.90625 C 352.49471 272.86864 360.98935 296.32349 366.59375 317.71875 C 368.88543 333.62117 359.45642 348.17191 350.5625 360.5 C 340.18663 380.74122 303.23521 387.90503 300.65625 411.65625 C 302.80196 423.79948 314.33919 431.61164 325 436 C 340.91679 440.92729 357.71271 430.76396 373.4375 437.3125 C 380.89367 439.92769 391.32409 443.57082 396.90625 435.6875 C 407.88219 416.05545 393.30379 392.9162 402.0625 373.28125 C 409.80251 358.79521 423.40958 348.43956 430.75 333.65625 C 438.23035 322.02197 447.69089 309.23119 444.59375 294.53125 C 441.95019 278.24367 432.83251 262.18242 418.4375 253.625 C 407.72241 251.1371 391.60262 245.48078 377.84375 245.34375 z M 170.6875 317.59375 C 158.01432 317.6924 145.36649 320.82944 133.9375 326.25 C 116.10347 334.40197 107.13669 358.87835 117.875 375.90625 C 122.64004 385.76917 130.15972 393.84139 137.1875 402.0625 C 143.7239 412.88094 136.79743 425.90833 141.34375 437.25 C 143.42186 445.69054 144.28017 456.45724 154.125 450.84375 C 170.08312 441.78286 177.51409 424.4197 195.25 418.15625 C 211.18084 428.0344 219.93885 442.39077 240.75 445.59375 C 252.98282 446.96128 264.14394 438.39101 268.6875 427.4375 C 274.5227 413.18266 274.62302 396.0297 267.625 382.15625 C 247.15169 355.60645 216.99567 326.41224 183.3125 318.53125 C 179.12809 317.86474 174.91189 317.56087 170.6875 317.59375 z M 664.5 323.0625 C 659.25451 322.9442 654.28463 325.12935 651.09375 330.84375 C 645.6508 341.70852 634.9401 346.78442 623.78125 349.6875 C 565.02423 379.30354 487.64422 373.24377 431.5 407.84375 C 424.80382 412.554 415.77204 421.10153 421.3125 429.875 C 431.40984 443.64504 450.57336 444.85409 466.125 442.40625 C 498.8191 433.20618 531.88602 425.22115 565.0625 417.5 C 508.01726 465.01075 452.83635 515.25864 393.40625 560.1875 C 380.40849 568.26183 361.21973 570.52793 354.96875 586.40625 C 350.17314 604.89891 374.25313 607.57399 385.6875 599.5625 C 406.21651 592.16295 426.5235 583.56856 443.8125 569.9375 C 452.78865 563.47612 461.38837 556.57843 469.75 549.40625 C 469.842 551.61631 470.13055 553.77963 470.59375 555.78125 C 498.71576 638.2356 501.78062 725.44618 498.8125 812.15625 C 495.32173 835.8592 484.10834 861.23882 495.59375 884.5 C 503.83813 902.18577 529.13436 908.67058 544.21875 895.65625 C 553.09676 887.84647 554.94601 876.95986 554.90625 865.75 C 558.56291 865.50049 562.23548 865.02402 565.75 865.09375 C 584.96123 863.46651 602.9337 854.81597 622.34375 854.46875 C 646.04644 851.08737 666.58344 864.11229 689.28125 867.59375 C 688.82387 873.23642 688.27831 878.88093 687.53125 884.5 C 683.98096 904.75035 678.91865 931.39438 697.6875 945.6875 C 718.4377 955.91062 740.72276 938.54603 746.9375 918.78125 C 754.58577 896.06263 760.59574 872.83504 768.34375 850.125 C 790.97239 777.92401 783.45947 701.35406 781.84375 626.96875 C 779.78402 595.30674 776.13053 562.40721 761.59375 533.78125 C 746.99925 511.31668 717.16828 509.33636 693 506.875 C 644.22516 506.9683 596.44688 519.10394 550.0625 533.15625 C 539.21796 535.8621 526.96844 537.84506 517.34375 543.875 C 514.69951 539.05131 511.88494 534.34028 508.875 529.78125 C 503.82302 527.98769 498.46608 528.01304 493.15625 528.28125 C 519.15536 503.77813 543.9666 477.8779 572.125 455.875 C 591.15607 442.53706 617.85499 436.72961 628.8125 414.3125 C 630.8686 410.71424 631.33558 406.41537 630.59375 402.3125 C 636.81712 400.85566 643.0364 399.39305 649.25 397.90625 C 662.87174 396.23016 678.93641 393.46777 685.90625 380 C 693.64698 366.38903 697.20827 346.73088 684.9375 334.5 C 680.48047 328.32458 672.16648 323.2354 664.5 323.0625 z M 703.625 420.90625 C 699.03882 420.85251 694.46325 421.49086 689.9375 423.15625 C 679.49689 427.20524 667.95972 438.28214 672.25 450.4375 C 690.46924 479.32812 728.40083 475.17802 756.875 486.21875 C 793.98905 501.84661 826.91085 527.1948 866.53125 536.78125 C 877.8634 540.09877 891.84652 545.89613 902.40625 537.59375 C 915.64316 525.44705 913.49604 503.75214 902.78125 490.65625 C 888.74483 472.91125 868.59283 467.58859 847.875 459.125 C 812.74741 452.25543 774.41864 438.38466 738.28125 428.8125 C 727.14324 425.65409 715.34524 421.04358 703.625 420.90625 z M 657.59375 539.46875 C 672.17732 539.30944 677.69771 558.33346 679 572.1875 C 692.64925 637.86123 687.27282 705.32163 690.625 771.875 C 690.49385 790.16293 690.93361 808.53493 690.84375 826.875 C 686.60949 825.63931 682.27341 824.70589 678.125 823.71875 C 640.15297 824.29779 592.6334 815.67944 554.25 826.75 C 554.69769 808.53143 555.17626 789.88629 555.375 770.71875 C 577.86345 775.71461 599.43535 767.39191 619.09375 755.84375 C 630.70327 746.93344 648.18947 745.60352 652.96875 731.0625 C 652.49242 721.36545 645.12141 713.55803 637.5625 708.25 C 624.12245 705.04741 609.16312 711.08047 592.65625 718.125 C 580.96255 722.82902 565.91748 720.9826 555.125 726.34375 C 554.68117 707.89761 553.71224 689.44683 551.9375 671.3125 C 553.59983 671.63211 555.27193 671.83838 556.90625 671.90625 C 573.52124 672.0248 587.52097 660.82014 603.90625 659.53125 C 615.13803 657.99775 627.30322 658.85962 637.46875 653.0625 C 643.56809 649.59053 646.96359 641.95604 644.5625 635.1875 C 640.99894 623.61507 631.23468 613.90965 619.25 611.40625 C 593.04894 606.99069 566.51261 615.74674 546.78125 632.9375 C 543.79221 616.0414 539.83744 599.65854 534.65625 584.0625 C 535.44658 583.8011 536.26002 583.51772 537.03125 583.15625 C 569.73043 559.11204 610.12805 552.73128 648.5 541.6875 C 651.85271 540.18793 654.89309 539.49825 657.59375 539.46875 z M 244.4375 608.5 C 240.15903 609.28742 230.80599 611.64456 232.3125 622.90625 C 211.2943 661.70063 184.58599 696.10166 154.65625 728.40625 C 145.88497 737.80408 132.91661 741.31194 120.4375 739.53125 C 109.32564 741.6633 97.808365 732.93378 87.4375 738.25 C 77.801535 748.79768 84.793298 764.09529 90.59375 774.75 C 102.84604 797.73861 119.03508 818.80545 140 834.5 C 159.10425 848.50147 180.40909 862.54406 204.75 863.9375 C 220.68099 864.95715 238.34747 854.94945 240.5625 838.09375 C 240.12259 764.80565 235.81453 692.23766 243.875 618.96875 C 242.94195 614.94627 247.5384 611.2326 244.4375 608.5 z "
       transform="translate(0,52.362183)"
       id="path11416" />
  </g>
</svg>
