<?xml version="1.0" encoding="UTF-8" standalone="no"?>
<!-- Created with Inkscape (http://www.inkscape.org/) -->

<svg
   xmlns:dc="http://purl.org/dc/elements/1.1/"
   xmlns:cc="http://creativecommons.org/ns#"
   xmlns:rdf="http://www.w3.org/1999/02/22-rdf-syntax-ns#"
   xmlns:svg="http://www.w3.org/2000/svg"
   xmlns="http://www.w3.org/2000/svg"
   xmlns:sodipodi="http://sodipodi.sourceforge.net/DTD/sodipodi-0.dtd"
   xmlns:inkscape="http://www.inkscape.org/namespaces/inkscape"
   width="1000"
   height="1000"
   id="svg3173"
   version="1.1"
   inkscape:version="0.47 r22583"
   sodipodi:docname="70ba.svg"
   inkscape:export-filename="E:\chinese\yan\7232.png"
   inkscape:export-xdpi="18.005705"
   inkscape:export-ydpi="18.005705">
  <title
     id="title2821">Wei</title>
  <defs
     id="defs3175">
    <inkscape:perspective
       sodipodi:type="inkscape:persp3d"
       inkscape:vp_x="0 : 526.18109 : 1"
       inkscape:vp_y="0 : 1000 : 0"
       inkscape:vp_z="744.09448 : 526.18109 : 1"
       inkscape:persp3d-origin="372.04724 : 350.78739 : 1"
       id="perspective3181" />
    <inkscape:perspective
       id="perspective3191"
       inkscape:persp3d-origin="0.5 : 0.33333333 : 1"
       inkscape:vp_z="1 : 0.5 : 1"
       inkscape:vp_y="0 : 1000 : 0"
       inkscape:vp_x="0 : 0.5 : 1"
       sodipodi:type="inkscape:persp3d" />
    <inkscape:perspective
       id="perspective4006"
       inkscape:persp3d-origin="0.5 : 0.33333333 : 1"
       inkscape:vp_z="1 : 0.5 : 1"
       inkscape:vp_y="0 : 1000 : 0"
       inkscape:vp_x="0 : 0.5 : 1"
       sodipodi:type="inkscape:persp3d" />
    <inkscape:perspective
       id="perspective4034"
       inkscape:persp3d-origin="0.5 : 0.33333333 : 1"
       inkscape:vp_z="1 : 0.5 : 1"
       inkscape:vp_y="0 : 1000 : 0"
       inkscape:vp_x="0 : 0.5 : 1"
       sodipodi:type="inkscape:persp3d" />
    <inkscape:perspective
       id="perspective4081"
       inkscape:persp3d-origin="0.5 : 0.33333333 : 1"
       inkscape:vp_z="1 : 0.5 : 1"
       inkscape:vp_y="0 : 1000 : 0"
       inkscape:vp_x="0 : 0.5 : 1"
       sodipodi:type="inkscape:persp3d" />
    <inkscape:perspective
       id="perspective4147"
       inkscape:persp3d-origin="0.5 : 0.33333333 : 1"
       inkscape:vp_z="1 : 0.5 : 1"
       inkscape:vp_y="0 : 1000 : 0"
       inkscape:vp_x="0 : 0.5 : 1"
       sodipodi:type="inkscape:persp3d" />
    <inkscape:perspective
       id="perspective3064"
       inkscape:persp3d-origin="0.5 : 0.33333333 : 1"
       inkscape:vp_z="1 : 0.5 : 1"
       inkscape:vp_y="0 : 1000 : 0"
       inkscape:vp_x="0 : 0.5 : 1"
       sodipodi:type="inkscape:persp3d" />
    <inkscape:perspective
       id="perspective3817"
       inkscape:persp3d-origin="0.5 : 0.33333333 : 1"
       inkscape:vp_z="1 : 0.5 : 1"
       inkscape:vp_y="0 : 1000 : 0"
       inkscape:vp_x="0 : 0.5 : 1"
       sodipodi:type="inkscape:persp3d" />
  </defs>
  <sodipodi:namedview
     id="base"
     pagecolor="#ffffff"
     bordercolor="#666666"
     borderopacity="1.0"
     inkscape:pageopacity="0.0"
     inkscape:pageshadow="2"
     inkscape:zoom="0.49497475"
     inkscape:cx="475.79179"
     inkscape:cy="524.18418"
     inkscape:document-units="px"
     inkscape:current-layer="g5655"
     showgrid="false"
     inkscape:window-width="1440"
     inkscape:window-height="840"
     inkscape:window-x="-4"
     inkscape:window-y="-4"
     inkscape:window-maximized="1" />
  <metadata
     id="metadata3178">
    <rdf:RDF>
      <cc:Work
         rdf:about="">
        <dc:format>image/svg+xml</dc:format>
        <dc:type
           rdf:resource="http://purl.org/dc/dcmitype/StillImage" />
        <dc:title>Wei</dc:title>
        <dc:date>2010-07-16</dc:date>
        <dc:creator>
          <cc:Agent>
            <dc:title>Alex Amies</dc:title>
          </cc:Agent>
        </dc:creator>
        <dc:rights>
          <cc:Agent>
            <dc:title>@ Alex Amies 2010</dc:title>
          </cc:Agent>
        </dc:rights>
        <dc:publisher>
          <cc:Agent>
            <dc:title>chinesenotes.com</dc:title>
          </cc:Agent>
        </dc:publisher>
        <dc:source>Yan Qin Ceremonial Inscription</dc:source>
        <dc:language>Chinese 中文</dc:language>
        <dc:description>Tracing from Tang Dynasty Ceremonial Inscription by Yan Zhenqing 颜真卿 (709－785)</dc:description>
        <cc:license
           rdf:resource="http://creativecommons.org/licenses/by/3.0/" />
      </cc:Work>
      <cc:License
         rdf:about="http://creativecommons.org/licenses/by/3.0/">
        <cc:permits
           rdf:resource="http://creativecommons.org/ns#Reproduction" />
        <cc:permits
           rdf:resource="http://creativecommons.org/ns#Distribution" />
        <cc:requires
           rdf:resource="http://creativecommons.org/ns#Notice" />
        <cc:requires
           rdf:resource="http://creativecommons.org/ns#Attribution" />
        <cc:permits
           rdf:resource="http://creativecommons.org/ns#DerivativeWorks" />
      </cc:License>
    </rdf:RDF>
  </metadata>
  <g
     inkscape:label="Layer 1"
     inkscape:groupmode="layer"
     id="layer1"
     transform="translate(0,-52.362183)">
    <g
       transform="matrix(4.5415106,0,0,4.5415106,-494.50922,-916.79329)"
       id="g5655"
       style="fill:none;fill-opacity:1">
      <path
         id="path5592"
         d="m 169.64286,262.00504 c -0.35714,1.07143 -0.71429,2.14286 -1.07143,3.21429 0.35714,1.19048 0.71429,2.38095 1.07143,3.57143 5.18435,2.55064 10.29003,5.27033 15.32703,8.09498 1.20051,0.8731 2.40103,1.7462 3.60154,2.6193 4.4202,-1.24073 4.1926,-1.2734 6.42857,-5 -2.3192,-6.1025 -5.87946,-9.09374 -10.35714,-13.57142 -5.079,-0.35203 -10.01481,0.2406 -15,1.07147 l 0,-5e-5 z"
         style="fill:#000000;fill-opacity:1;stroke:#000000;stroke-width:1px;stroke-linecap:butt;stroke-linejoin:miter;stroke-opacity:1"
         sodipodi:nodetypes="ccccccccc" />
      <path
         sodipodi:nodetypes="ccccccccccc"
         id="path5588"
         d="m 223.21428,215.57647 c -1.20676,0.0645 -2.52539,-0.12913 -3.66221,0.0968 -2.60077,2.71522 -5.02943,5.60698 -7.94262,8.00175 -9.65635,8.52524 -19.31818,17.04112 -28.39517,26.18712 0.47619,0.83333 0.95239,1.66667 1.42858,2.5 4.73787,-2.13876 9.55955,-4.10203 14.13379,-6.58341 7.52653,-4.5157 14.92514,-6.93525 23.30279,-9.26105 4.5534,-0.66 8.90938,-2.06178 13.2777,-3.44126 2.04264,-2.35598 1.91274,-3.69993 1.42857,-6.78571 -4.46887,-5.08266 -7.6893,-7.77322 -13.57143,-10.71429 l 0,5e-5 z"
         style="fill:#000000;fill-opacity:1;stroke:#000000;stroke-width:1px;stroke-linecap:butt;stroke-linejoin:miter;stroke-opacity:1" />
      <path
         id="path5590"
         d="m 197.98138,250.39399 c -0.39856,0.29893 -0.79711,0.59785 -1.19567,0.89677 3.71656,5.86635 8.84906,9.2351 13.27214,15.02479 1.64738,0.70602 3.29477,1.41205 4.94215,2.11807 4.87635,-2.70827 2.98264,-4.69092 2.5,-10 -2.33599,-5.67567 -5.10863,-8.44718 -10.35714,-11.07143 -3.13472,0.78567 -6.53399,1.01383 -9.16148,3.0318 z"
         style="fill:#000000;fill-opacity:1;stroke:#000000;stroke-width:1px;stroke-linecap:butt;stroke-linejoin:miter;stroke-opacity:1"
         sodipodi:nodetypes="ccccccc" />
      <path
         style="fill:#000000;stroke:#000000;stroke-width:4.54151057999999970px;stroke-linecap:butt;stroke-linejoin:miter;stroke-opacity:1;fill-opacity:1"
         d="M 618.15625 97.46875 C 590.57502 97.309797 564.25494 120.52503 579.3125 148.5625 C 578.18089 174.83459 550.75552 190.97082 538.0625 212.75 C 515.1105 242.26365 491.63181 271.37243 467.9375 300.28125 C 426.98797 309.06575 385.97656 317.5397 344.625 324.125 C 285.86921 328.5661 229.93089 345.50022 173.75 361.84375 C 158.4927 378.46936 148.84357 399.26895 144.375 421.25 C 139.97855 444.4717 155.01775 471.91988 181.03125 469.34375 C 195.91773 461.56805 201.20326 441.85094 215.03125 431.65625 C 234.15432 417.14086 251.4279 399.10486 275.15625 392.21875 C 328.20316 367.32173 384.59491 351.13243 440.40625 333.71875 C 382.6881 403.43509 324.18559 472.50967 268.71875 544.0625 C 244.04749 575.20582 219.4596 606.43131 194.8125 637.59375 C 201.56046 664.53585 228.72064 626.40836 243.375 622.71875 C 287.57457 588.29864 323.42776 544.83908 359.96875 502.6875 C 414.0691 432.03316 479.98108 370.75227 542.375 306.9375 C 557.56898 303.67979 572.87231 300.87065 588.28125 298.8125 C 612.52897 293.29861 613.20484 321.33947 598.65625 333.5 C 585.62389 353.64428 581.88676 377.773 574.15625 400.125 C 572.12164 405.80025 572.16292 410.42895 573.4375 413.84375 C 544.2593 415.65972 515.5686 417.44725 486.78125 425.125 C 463.50106 442.21003 461.92848 451.38411 462.375 480.84375 C 464.09682 490.37393 476.90247 498.44431 486.84375 495.8125 C 509.23458 496.14993 523.60323 475.60179 541.53125 464.6875 C 567.17916 455.83387 592.94216 446.38342 619.21875 440.09375 C 624.49667 469.18031 578.5375 508.63021 560.6875 531.0625 C 556.44794 538.94875 556.27657 550.06998 559.875 554.75 C 497.15973 562.97552 434.01496 568.32279 374.875 572.71875 C 339.21388 573.98937 333.90798 635.0318 373.25 631.53125 C 416.94069 615.03449 462.94356 606.16363 507.875 593.78125 C 582.44524 582.50904 656.92784 570.38715 730.78125 555.09375 C 748.87181 548.79504 766.79464 557.80651 762.53125 578.8125 C 759.62169 644.83539 738.69184 703.06083 717.3125 764.96875 C 698.9227 803.9776 670.91769 836.27141 644.125 869.53125 C 622.23537 871.49523 602.58987 848.59072 585.71875 835.46875 C 574.60236 840.92819 583.82619 849.50653 587.1875 857.1875 C 591.33817 867.71372 601.91018 877.17984 597.21875 889.1875 C 598.25358 916.16103 574.80699 930.37496 586 954.25 C 600.44945 989.75271 631.14108 987.03446 664.625 986.3125 C 689.59277 970.97782 713.6234 952.25282 732.5625 929.71875 C 776.9881 886.04454 802.75784 839.56087 830.625 785.1875 C 854.27941 722.19752 871.09111 664.73456 865.25 597.75 C 858.42479 566.47775 852.34758 548.09398 828 526.1875 C 809.30855 519.2854 791.87616 507.61839 771.40625 507.4375 C 761.53755 503.09504 755.82159 510.74852 749.75 517.34375 C 693.82878 533.4221 632.97628 544.7509 571.4375 553.1875 C 572.62953 552.10282 573.87997 550.78311 575.21875 549.15625 C 616.3177 506.98419 653.43053 475.37118 703.53125 446 C 713.34832 440.69129 720.37546 431.62758 728.8125 424.46875 C 732.36346 422.04113 734.38823 418.75143 734.5 414.40625 C 738.5721 400.94707 730.17599 396.21856 721.96875 386.1875 C 686.42312 383.35755 671.37606 385.39605 642.8125 407.46875 C 630.9473 411.25078 617.6669 409.85921 605.25 411.5625 C 601.46195 411.89634 597.70394 412.19347 593.9375 412.46875 C 594.94823 410.36612 595.74273 407.81858 596.15625 404.84375 C 604.98163 385.54855 615.65679 367.16769 632.03125 353.25 C 652.36691 337.97236 666.11982 305.97629 694.75 308.53125 C 715.91308 311.01809 732.13247 297.34595 726.46875 275.5625 C 717.38614 259.77648 704.27745 246.07158 693.40625 231.21875 C 676.04901 204.66876 664.53427 242.22385 652.78125 252.9375 C 632.85174 270.81952 605.55525 270.49081 580.875 276.53125 C 577.0526 277.27795 573.22528 278.01615 569.40625 278.78125 C 590.37414 256.52183 610.66676 233.77417 629.65625 210.03125 C 648.70257 190.52569 685.29045 190.18369 692.875 159.59375 C 696.21746 116.10565 653.99295 99.184351 618.15625 97.46875 z "
         transform="matrix(0.22019105,0,0,0.22019105,108.88651,213.39936)"
         id="path5594" />
      <path
         id="path5604"
         d="m 142.85714,364.86219 c -0.47619,1.66667 -0.95238,3.33333 -1.42857,5 2.96279,4.22467 6.36266,8.17535 8.74928,12.77648 4.22406,8.27738 9.70704,15.00661 19.82215,15.4378 3.09127,-3.80002 3.84231,-6.16259 2.23364,-11.11957 -1.41249,-6.31226 -4.8659,-11.4935 -8.38216,-16.79366 -6.38047,-6.50724 -12.54971,-5.27614 -20.99434,-5.30105 z"
         style="fill:#000000;fill-opacity:1;stroke:#000000;stroke-width:1px;stroke-linecap:butt;stroke-linejoin:miter;stroke-opacity:1"
         sodipodi:nodetypes="ccccccc" />
      <path
         sodipodi:nodetypes="cccccc"
         id="path5606"
         d="m 170.71428,355.21933 c -0.35714,0.83333 -0.71428,1.66667 -1.07142,2.5 5.79264,8.94235 11.66562,23.07779 22.14285,27.14286 4.22883,-0.61144 5.44332,-0.53303 8.57143,-3.21429 0.0853,-7.57229 -1.12342,-11.85326 -6.07143,-17.85714 -7.92446,-7.56438 -13.48428,-7.38471 -23.57143,-8.57143 z"
         style="fill:#000000;fill-opacity:1;stroke:#000000;stroke-width:1px;stroke-linecap:butt;stroke-linejoin:miter;stroke-opacity:1" />
      <path
         id="path5608"
         d="m 209.64286,356.29076 c 4.74004,7.58395 6.10812,15.96165 15.81217,17.80138 5.00218,1.03125 6.37247,1.37174 10.97354,-0.30138 1.34094,-4.91432 -0.45917,-7.51273 -2.14286,-12.14286 -4.58825,-6.25378 -10.17597,-7.77799 -17.51451,-8.48568 -4.4478,0.56417 -4.61649,-0.38805 -7.12834,3.12854 z"
         style="fill:#000000;fill-opacity:1;stroke:#000000;stroke-width:1px;stroke-linecap:butt;stroke-linejoin:miter;stroke-opacity:1"
         sodipodi:nodetypes="cccccc" />
      <path
         id="path5610"
         d="m 248.57143,343.07647 c -0.83333,1.07143 -1.66667,2.14286 -2.5,3.21429 0.96232,2.77537 1.83469,5.6956 3.81952,7.9426 4.60297,2.82682 6.07756,16.27522 11.79851,16.21339 5.45999,0.89724 4.7284,0.10894 8.31054,-3.79885 0.19409,-7.18972 0.34428,-11.98811 -5.10259,-17.49148 -4.66952,-5.19259 -9.45683,-5.59242 -16.32598,-6.07995 z"
         style="fill:#000000;fill-opacity:1;stroke:#000000;stroke-width:1px;stroke-linecap:butt;stroke-linejoin:miter;stroke-opacity:1"
         sodipodi:nodetypes="ccccccc" />
    </g>
  </g>
</svg>
