<?xml version="1.0" encoding="UTF-8" standalone="no"?>
<!-- Created with Inkscape (http://www.inkscape.org/) -->

<svg
   xmlns:dc="http://purl.org/dc/elements/1.1/"
   xmlns:cc="http://creativecommons.org/ns#"
   xmlns:rdf="http://www.w3.org/1999/02/22-rdf-syntax-ns#"
   xmlns:svg="http://www.w3.org/2000/svg"
   xmlns="http://www.w3.org/2000/svg"
   xmlns:sodipodi="http://sodipodi.sourceforge.net/DTD/sodipodi-0.dtd"
   xmlns:inkscape="http://www.inkscape.org/namespaces/inkscape"
   width="1000"
   height="1000"
   id="svg3173"
   version="1.1"
   inkscape:version="0.47 r22583"
   sodipodi:docname="7121.svg"
   inkscape:export-filename="E:\chinese\yan\7121.png"
   inkscape:export-xdpi="18.005705"
   inkscape:export-ydpi="18.005705">
  <title
     id="title3621">Wu</title>
  <defs
     id="defs3175">
    <inkscape:perspective
       sodipodi:type="inkscape:persp3d"
       inkscape:vp_x="0 : 526.18109 : 1"
       inkscape:vp_y="0 : 1000 : 0"
       inkscape:vp_z="744.09448 : 526.18109 : 1"
       inkscape:persp3d-origin="372.04724 : 350.78739 : 1"
       id="perspective3181" />
    <inkscape:perspective
       id="perspective3191"
       inkscape:persp3d-origin="0.5 : 0.33333333 : 1"
       inkscape:vp_z="1 : 0.5 : 1"
       inkscape:vp_y="0 : 1000 : 0"
       inkscape:vp_x="0 : 0.5 : 1"
       sodipodi:type="inkscape:persp3d" />
    <inkscape:perspective
       id="perspective4006"
       inkscape:persp3d-origin="0.5 : 0.33333333 : 1"
       inkscape:vp_z="1 : 0.5 : 1"
       inkscape:vp_y="0 : 1000 : 0"
       inkscape:vp_x="0 : 0.5 : 1"
       sodipodi:type="inkscape:persp3d" />
    <inkscape:perspective
       id="perspective4034"
       inkscape:persp3d-origin="0.5 : 0.33333333 : 1"
       inkscape:vp_z="1 : 0.5 : 1"
       inkscape:vp_y="0 : 1000 : 0"
       inkscape:vp_x="0 : 0.5 : 1"
       sodipodi:type="inkscape:persp3d" />
    <inkscape:perspective
       id="perspective4081"
       inkscape:persp3d-origin="0.5 : 0.33333333 : 1"
       inkscape:vp_z="1 : 0.5 : 1"
       inkscape:vp_y="0 : 1000 : 0"
       inkscape:vp_x="0 : 0.5 : 1"
       sodipodi:type="inkscape:persp3d" />
    <inkscape:perspective
       id="perspective4147"
       inkscape:persp3d-origin="0.5 : 0.33333333 : 1"
       inkscape:vp_z="1 : 0.5 : 1"
       inkscape:vp_y="0 : 1000 : 0"
       inkscape:vp_x="0 : 0.5 : 1"
       sodipodi:type="inkscape:persp3d" />
    <inkscape:perspective
       id="perspective3737"
       inkscape:persp3d-origin="0.5 : 0.33333333 : 1"
       inkscape:vp_z="1 : 0.5 : 1"
       inkscape:vp_y="0 : 1000 : 0"
       inkscape:vp_x="0 : 0.5 : 1"
       sodipodi:type="inkscape:persp3d" />
    <inkscape:perspective
       id="perspective3836"
       inkscape:persp3d-origin="0.5 : 0.33333333 : 1"
       inkscape:vp_z="1 : 0.5 : 1"
       inkscape:vp_y="0 : 1000 : 0"
       inkscape:vp_x="0 : 0.5 : 1"
       sodipodi:type="inkscape:persp3d" />
    <inkscape:perspective
       id="perspective3872"
       inkscape:persp3d-origin="0.5 : 0.33333333 : 1"
       inkscape:vp_z="1 : 0.5 : 1"
       inkscape:vp_y="0 : 1000 : 0"
       inkscape:vp_x="0 : 0.5 : 1"
       sodipodi:type="inkscape:persp3d" />
  </defs>
  <sodipodi:namedview
     id="base"
     pagecolor="#ffffff"
     bordercolor="#666666"
     borderopacity="1.0"
     inkscape:pageopacity="0.0"
     inkscape:pageshadow="2"
     inkscape:zoom="0.49497475"
     inkscape:cx="473.55823"
     inkscape:cy="474.77592"
     inkscape:document-units="px"
     inkscape:current-layer="g4264"
     showgrid="false"
     inkscape:window-width="1440"
     inkscape:window-height="840"
     inkscape:window-x="-4"
     inkscape:window-y="-4"
     inkscape:window-maximized="1" />
  <metadata
     id="metadata3178">
    <rdf:RDF>
      <cc:Work
         rdf:about="">
        <dc:format>image/svg+xml</dc:format>
        <dc:type
           rdf:resource="http://purl.org/dc/dcmitype/StillImage" />
        <dc:title>Wu</dc:title>
        <dc:date>2010-08-08</dc:date>
        <dc:creator>
          <cc:Agent>
            <dc:title>Alex Amies</dc:title>
          </cc:Agent>
        </dc:creator>
        <dc:rights>
          <cc:Agent>
            <dc:title>@ Alex Amies 2010</dc:title>
          </cc:Agent>
        </dc:rights>
        <dc:publisher>
          <cc:Agent>
            <dc:title>chinesenotes.com</dc:title>
          </cc:Agent>
        </dc:publisher>
        <dc:source>Yan Qin Ceremonial Inscription</dc:source>
        <dc:language>Chinese 中文</dc:language>
        <dc:description>Tracing from Tang Dynasty Ceremonial Inscription by Yan Zhenqing 颜真卿 (709－785)</dc:description>
        <cc:license
           rdf:resource="http://creativecommons.org/licenses/by/3.0/" />
      </cc:Work>
      <cc:License
         rdf:about="http://creativecommons.org/licenses/by/3.0/">
        <cc:permits
           rdf:resource="http://creativecommons.org/ns#Reproduction" />
        <cc:permits
           rdf:resource="http://creativecommons.org/ns#Distribution" />
        <cc:requires
           rdf:resource="http://creativecommons.org/ns#Notice" />
        <cc:requires
           rdf:resource="http://creativecommons.org/ns#Attribution" />
        <cc:permits
           rdf:resource="http://creativecommons.org/ns#DerivativeWorks" />
      </cc:License>
    </rdf:RDF>
  </metadata>
  <g
     inkscape:label="Layer 1"
     inkscape:groupmode="layer"
     id="layer1"
     transform="translate(0,-52.362183)">
    <g
       transform="matrix(4.7609464,0,0,4.7609464,-696.12274,-2965.6673)"
       id="g4264"
       style="fill:none;fill-opacity:1">
      <path
         style="fill:#000000;stroke:#000000;stroke-width:4.74180651000000000px;stroke-linecap:butt;stroke-linejoin:miter;stroke-opacity:1;fill-opacity:1"
         d="M 324.4375 89.78125 C 320.46531 89.831812 316.83819 90.661018 314.0625 92.96875 C 261.04408 135.03709 230.61991 196.7742 185.25 245.6875 C 178.6259 252.47885 168.6972 258.25251 165.71875 266.40625 C 161.8142 277.09534 178.19264 283.26681 188.25 275.15625 C 202.37582 263.76473 218.52654 254.0399 232.03125 241.40625 C 232.85091 240.34918 233.70512 239.31785 234.5625 238.28125 C 236.10814 253.70006 254.93235 257.50087 270.3125 257.03125 C 301.68342 256.07335 332.35227 248.57609 362.6875 241.40625 C 450.85394 207.0127 540.69035 188.66522 634.96875 182.875 C 657.77497 181.79712 684.78933 192.57196 703.5625 184.4375 C 717.32692 178.47337 703.11239 157.80991 695.375 146.40625 C 686.25974 132.90068 658.75751 103.22603 641.21875 119.15625 C 630.22425 133.49251 611.39818 139.14039 594.6875 144.625 C 490.9788 167.85404 387.02028 191.44134 282.5625 211.53125 C 276.65058 212.60042 269.87023 211.39561 263.4375 210.53125 C 299.53482 181.14018 343.98402 155.86562 359.5 113.1875 C 360.89591 103.73274 352.09225 97.286024 344.53125 92.96875 C 338.59188 91.796159 331.05782 89.696979 324.4375 89.78125 z M 613.8125 233.53125 C 610.13743 235.93486 604.41189 242.26372 605.34375 247.09375 C 625.06373 290.68683 628.63437 338.21221 627 386.03125 C 603.69234 389.68256 580.38955 393.35756 557.09375 397.09375 C 557.59502 369.51242 557.47457 341.90507 557.65625 314.40625 C 557.6134 303.81243 560.78321 291.28566 556.21875 282.65625 C 543.25836 261.93385 519.69156 249.03091 495.25 253.84375 C 489.90079 255.5555 484.36214 264.91638 485.09375 270.78125 C 486.57426 282.64953 499.55102 294.05297 502.09375 306.96875 C 506.80095 330.87851 509.49366 356.13917 508.5 380.71875 C 509.00339 388.68208 509.18715 396.7347 509.09375 404.84375 C 485.32259 408.67098 461.52763 412.5002 437.75 416.28125 C 440.71888 379.30892 444.41282 342.3694 446.15625 305.34375 C 446.56474 296.65907 450.09055 285.55897 446.15625 279.25 C 434.37448 267.06993 407.93192 264.63289 391.96875 269.09375 C 381.46987 306.87543 381.18994 366.74699 383.28125 424.8125 C 360.9024 428.2848 338.49568 431.69273 316.09375 435 C 315.46501 400.10807 316.74506 363.92654 312.375 331.75 C 303.28388 316.93336 279.94007 315.22694 263.25 314.8125 C 258.42073 315.14005 250.5838 317.46896 249.6875 321.59375 C 247.75051 330.50805 255.54889 342.36183 260.71875 351.96875 C 266.34372 380.89773 270.89101 410.23836 274.84375 439.75 C 261.23252 441.41586 247.68518 442.12676 234.5625 437.78125 C 218.01388 434.98948 201.33743 424.12266 184.4375 428.6875 C 158.14275 433.27629 162.39917 457.87751 180.75 470.9375 C 195.81287 485.35526 216.42231 490.46983 236.3125 493.875 C 251.57462 492.53628 266.03076 488.10972 280.1875 482.625 C 284.73553 521.32371 288.67611 560.14619 293 598.5625 C 294.01075 607.83421 291.41755 620.64905 295.4375 626.4375 C 297.67235 627.50891 299.91348 628.09899 302.125 628.28125 C 230.47626 638.39042 158.74251 647.56946 86.40625 651.25 C 79.302489 651.91715 72.207384 652.66519 65.125 653.53125 C 35.488347 681.33303 69.487778 724.47482 96.59375 738.5 C 130.23603 766.22775 161.46623 734.40085 181.4375 708.6875 C 351.25808 658.5753 531.34185 643.87237 707.03125 624.0625 C 748.12988 620.83315 789.28181 616.65659 830.5625 617.96875 C 858.94207 640.83205 888.31396 668.20551 927.125 667.96875 C 970.31878 679.8236 972.30301 621.96793 952.65625 599.21875 C 932.32601 573.07625 907.5438 545.2309 873.15625 540 C 844.47398 542.25626 814.75013 554.94799 784.875 557.75 C 727.82358 568.12614 670.58376 577.29036 613.21875 585.65625 C 631.44557 566.32326 639.43976 533.85162 648.5 506.59375 C 657.76703 477.22168 665.85115 447.10616 672 416.625 C 675.54281 416.71615 679.08303 416.81347 682.625 416.96875 C 696.95245 423.83832 710.99146 434.16257 727.65625 431.6875 C 743.05777 435.79582 748.01034 413.90344 743.84375 402.625 C 737.41005 382.30038 715.92193 371.27207 695.5625 369.65625 C 690.05224 370.65879 684.63511 372.2484 679.21875 374 C 680.84858 362.02559 682.14419 350.03546 683.03125 338.03125 C 683.54134 319.59782 684.14576 299.30138 678.15625 282.65625 C 667.13528 255.59913 641.44946 239.58098 613.8125 233.53125 z M 625.375 416.4375 C 624.01312 435.79081 622.1897 455.05724 620.59375 474 C 617.44995 503.55805 602.37691 531.60579 598.78125 561.1875 C 597.92144 568.26118 599.76632 581.98512 604.25 586.96875 C 554.63122 594.13055 504.91091 600.69592 455.15625 606.90625 C 406.7727 613.07066 358.49991 620.26455 310.1875 627.125 C 318.74356 624.04497 325.67323 615.36631 327.59375 606.09375 C 328.20017 560.97383 320.54246 513.64284 317.4375 466.90625 C 322.26975 464.88492 327.11317 462.94 332 461.15625 C 349.24259 456.39436 366.69594 452.21732 384.28125 448.5 C 385.8211 482.48298 387.78311 514.71276 388.5625 540.0625 C 385.94112 554.86576 409.26255 613.26135 426.875 589 C 429.92058 579.33609 434.83048 570.40622 433.71875 559.71875 C 430.30748 526.92492 432.94842 493.63358 434.6875 460.6875 C 435.07353 453.37435 435.55628 446.08883 436.0625 438.78125 C 460.00077 434.78818 484.08685 431.35459 508.1875 428.15625 C 505.94272 463.30479 500.18273 498.79433 496.9375 531.59375 C 499.11882 537.07679 505.03724 543.89796 510.5 545.125 C 528.05342 547.8016 544.06065 537.51029 547.75 519.84375 C 552.92452 487.46417 555.30389 454.77002 556.4375 421.96875 C 570.68845 420.16214 584.90166 418.3482 599.0625 416.46875 C 607.82782 416.55297 616.60793 416.49289 625.375 416.4375 z "
         transform="matrix(0.21004227,0,0,0.21004227,146.2152,633.91377)"
         id="path4336" />
      <path
         sodipodi:nodetypes="cccccccc"
         style="fill:#000000;stroke:#000000;stroke-width:0.99597985000000000px;stroke-linecap:butt;stroke-linejoin:miter;stroke-opacity:1;fill-opacity:1"
         d="m 201.50869,790.7452 c -4.09932,4.64585 -8.79518,8.52923 -13.39701,12.79042 -2.64393,2.62296 -4.15617,5.81841 -2.77739,9.47141 0.773,1.54415 1.7281,3.12153 1.94613,4.83055 -0.46108,3.1882 0.19957,5.16819 2.84567,7.0555 1.40235,0.57369 3.8671,0.98697 4.9799,0 4.2284,-5.2308 7.81201,-11.78321 9.96668,-18.22363 1.4781,-5.3194 1.39217,-12.35844 -3.56398,-15.92425 z"
         id="path4352" />
      <path
         sodipodi:nodetypes="ccccccc"
         style="fill:#000000;stroke:#000000;stroke-width:0.99597985000000000px;stroke-linecap:butt;stroke-linejoin:miter;stroke-opacity:1;fill-opacity:1"
         d="m 225.34107,781.85252 c -0.26552,9.04419 -1.3787,18.76428 0.3557,27.74516 1.21886,3.20042 3.94495,5.88268 7.11415,7.11413 4.07555,0.55122 6.73588,-2.3103 7.82555,-6.04702 0.52005,-3.04486 -0.12306,-6.6062 -0.87674,-9.78113 -0.96658,-7.90486 -5.15325,-13.31127 -10.77714,-18.59098 -0.96053,-1.41939 -2.41743,-0.85749 -3.64152,-0.44016 z"
         id="path4354" />
      <path
         sodipodi:nodetypes="ccccccccc"
         style="fill:#000000;stroke:#000000;stroke-width:0.99597985000000000px;stroke-linecap:butt;stroke-linejoin:miter;stroke-opacity:1;fill-opacity:1"
         d="m 256.64329,777.93974 c -0.73673,0.22102 -1.63939,1.41346 -1.42283,2.13425 3.189,5.21032 5.63138,10.84003 7.11731,16.80968 0.7131,3.79335 -0.0252,7.81898 0.62652,11.6624 0.37426,3.34718 0.51101,6.72125 3.6388,8.52146 3.65473,0.77328 6.95465,0.0118 8.89268,-3.20137 0.94928,-7.70818 1.76912,-16.0815 0.71141,-23.83237 -0.62579,-2.80308 -2.79501,-5.56509 -4.9799,-7.46985 -4.11868,-3.20486 -9.27829,-5.84589 -14.58399,-4.6242 z"
         id="path4356" />
      <path
         sodipodi:nodetypes="csccccccc"
         style="fill:#000000;stroke:#000000;stroke-width:0.99597985000000000px;stroke-linecap:butt;stroke-linejoin:miter;stroke-opacity:1;fill-opacity:1"
         d="m 285.81128,780.07399 c -0.62873,0.55697 -1.34976,2.30608 -0.71142,2.84565 2.31591,1.95759 6.15004,3.81014 8.11875,6.76066 5.3182,7.63651 8.49161,17.05144 15.71362,23.11874 1.14692,0.41381 3.02418,0.78296 3.91278,0 2.83283,-3.88038 6.45274,-9.27407 7.11414,-14.22828 -0.085,-3.26936 -0.92236,-7.04818 -2.48995,-9.9598 -3.11923,-4.89653 -8.21326,-9.08002 -13.97348,-10.31551 -5.78796,-0.54624 -12.23776,-0.43157 -17.68444,1.77854 z"
         id="path4358" />
    </g>
  </g>
</svg>
