<?xml version="1.0" encoding="UTF-8" standalone="no"?>
<!-- Created with Inkscape (http://www.inkscape.org/) -->

<svg
   xmlns:dc="http://purl.org/dc/elements/1.1/"
   xmlns:cc="http://creativecommons.org/ns#"
   xmlns:rdf="http://www.w3.org/1999/02/22-rdf-syntax-ns#"
   xmlns:svg="http://www.w3.org/2000/svg"
   xmlns="http://www.w3.org/2000/svg"
   xmlns:sodipodi="http://sodipodi.sourceforge.net/DTD/sodipodi-0.dtd"
   xmlns:inkscape="http://www.inkscape.org/namespaces/inkscape"
   width="1000"
   height="1000"
   id="svg3173"
   version="1.1"
   inkscape:version="0.47 r22583"
   sodipodi:docname="7232.svg"
   inkscape:export-filename="E:\chinese\yan\7232.png"
   inkscape:export-xdpi="18.005705"
   inkscape:export-ydpi="18.005705">
  <title
     id="title2821">Wei</title>
  <defs
     id="defs3175">
    <inkscape:perspective
       sodipodi:type="inkscape:persp3d"
       inkscape:vp_x="0 : 526.18109 : 1"
       inkscape:vp_y="0 : 1000 : 0"
       inkscape:vp_z="744.09448 : 526.18109 : 1"
       inkscape:persp3d-origin="372.04724 : 350.78739 : 1"
       id="perspective3181" />
    <inkscape:perspective
       id="perspective3191"
       inkscape:persp3d-origin="0.5 : 0.33333333 : 1"
       inkscape:vp_z="1 : 0.5 : 1"
       inkscape:vp_y="0 : 1000 : 0"
       inkscape:vp_x="0 : 0.5 : 1"
       sodipodi:type="inkscape:persp3d" />
    <inkscape:perspective
       id="perspective4006"
       inkscape:persp3d-origin="0.5 : 0.33333333 : 1"
       inkscape:vp_z="1 : 0.5 : 1"
       inkscape:vp_y="0 : 1000 : 0"
       inkscape:vp_x="0 : 0.5 : 1"
       sodipodi:type="inkscape:persp3d" />
    <inkscape:perspective
       id="perspective4034"
       inkscape:persp3d-origin="0.5 : 0.33333333 : 1"
       inkscape:vp_z="1 : 0.5 : 1"
       inkscape:vp_y="0 : 1000 : 0"
       inkscape:vp_x="0 : 0.5 : 1"
       sodipodi:type="inkscape:persp3d" />
    <inkscape:perspective
       id="perspective4081"
       inkscape:persp3d-origin="0.5 : 0.33333333 : 1"
       inkscape:vp_z="1 : 0.5 : 1"
       inkscape:vp_y="0 : 1000 : 0"
       inkscape:vp_x="0 : 0.5 : 1"
       sodipodi:type="inkscape:persp3d" />
    <inkscape:perspective
       id="perspective4147"
       inkscape:persp3d-origin="0.5 : 0.33333333 : 1"
       inkscape:vp_z="1 : 0.5 : 1"
       inkscape:vp_y="0 : 1000 : 0"
       inkscape:vp_x="0 : 0.5 : 1"
       sodipodi:type="inkscape:persp3d" />
    <inkscape:perspective
       id="perspective3064"
       inkscape:persp3d-origin="0.5 : 0.33333333 : 1"
       inkscape:vp_z="1 : 0.5 : 1"
       inkscape:vp_y="0 : 1000 : 0"
       inkscape:vp_x="0 : 0.5 : 1"
       sodipodi:type="inkscape:persp3d" />
    <inkscape:perspective
       id="perspective3817"
       inkscape:persp3d-origin="0.5 : 0.33333333 : 1"
       inkscape:vp_z="1 : 0.5 : 1"
       inkscape:vp_y="0 : 1000 : 0"
       inkscape:vp_x="0 : 0.5 : 1"
       sodipodi:type="inkscape:persp3d" />
  </defs>
  <sodipodi:namedview
     id="base"
     pagecolor="#ffffff"
     bordercolor="#666666"
     borderopacity="1.0"
     inkscape:pageopacity="0.0"
     inkscape:pageshadow="2"
     inkscape:zoom="0.49497475"
     inkscape:cx="-81.812406"
     inkscape:cy="534.28571"
     inkscape:document-units="px"
     inkscape:current-layer="layer1"
     showgrid="false"
     inkscape:window-width="1440"
     inkscape:window-height="840"
     inkscape:window-x="-4"
     inkscape:window-y="-4"
     inkscape:window-maximized="1" />
  <metadata
     id="metadata3178">
    <rdf:RDF>
      <cc:Work
         rdf:about="">
        <dc:format>image/svg+xml</dc:format>
        <dc:type
           rdf:resource="http://purl.org/dc/dcmitype/StillImage" />
        <dc:title>Wei</dc:title>
        <dc:date>2010-07-16</dc:date>
        <dc:creator>
          <cc:Agent>
            <dc:title>Alex Amies</dc:title>
          </cc:Agent>
        </dc:creator>
        <dc:rights>
          <cc:Agent>
            <dc:title>@ Alex Amies 2010</dc:title>
          </cc:Agent>
        </dc:rights>
        <dc:publisher>
          <cc:Agent>
            <dc:title>chinesenotes.com</dc:title>
          </cc:Agent>
        </dc:publisher>
        <dc:source>Yan Qin Ceremonial Inscription</dc:source>
        <dc:language>Chinese 中文</dc:language>
        <dc:description>Tracing from Tang Dynasty Ceremonial Inscription by Yan Zhenqing 颜真卿 (709－785)</dc:description>
        <cc:license
           rdf:resource="http://creativecommons.org/licenses/by/3.0/" />
      </cc:Work>
      <cc:License
         rdf:about="http://creativecommons.org/licenses/by/3.0/">
        <cc:permits
           rdf:resource="http://creativecommons.org/ns#Reproduction" />
        <cc:permits
           rdf:resource="http://creativecommons.org/ns#Distribution" />
        <cc:requires
           rdf:resource="http://creativecommons.org/ns#Notice" />
        <cc:requires
           rdf:resource="http://creativecommons.org/ns#Attribution" />
        <cc:permits
           rdf:resource="http://creativecommons.org/ns#DerivativeWorks" />
      </cc:License>
    </rdf:RDF>
  </metadata>
  <g
     inkscape:label="Layer 1"
     inkscape:groupmode="layer"
     id="layer1"
     transform="translate(0,-52.362183)">
    <path
       style="fill:#000000;stroke:#000000;stroke-width:4.54151057999999970px;stroke-linecap:butt;stroke-linejoin:miter;stroke-opacity:1;fill-opacity:1"
       d="M 508.6875 9.8125 C 506.58953 9.8236724 504.52983 9.927726 502.59375 10.3125 C 490.78233 22.6437 479.76153 35.780377 466.53125 46.65625 C 422.67683 85.373716 378.78575 124.05709 337.5625 165.59375 L 344.0625 176.9375 C 365.57958 167.2243 387.47604 158.33171 408.25 147.0625 C 442.43182 126.5544 476.01531 115.56265 514.0625 105 C 534.74182 102.0026 554.53622 95.63993 574.375 89.375 C 583.65167 78.67529 583.04262 72.54535 580.84375 58.53125 C 560.54833 35.448294 545.9325 23.2319 519.21875 9.875 C 515.79343 10.058079 512.18412 9.7938794 508.6875 9.8125 z M 618.15625 97.46875 C 590.57502 97.30979 564.25494 120.52503 579.3125 148.5625 C 578.18089 174.83459 550.75552 190.97082 538.0625 212.75 C 515.1105 242.26365 491.63181 271.37243 467.9375 300.28125 C 426.98797 309.06575 385.97656 317.5397 344.625 324.125 C 285.8692 328.5661 229.93089 345.50021 173.75 361.84375 C 158.4927 378.46935 148.84358 399.26896 144.375 421.25 C 139.97855 444.4717 155.01775 471.91988 181.03125 469.34375 C 195.91774 461.56805 201.20326 441.85094 215.03125 431.65625 C 234.15433 417.14085 251.42791 399.10486 275.15625 392.21875 C 328.20317 367.32172 384.59491 351.13243 440.40625 333.71875 C 382.6881 403.43509 324.18559 472.50967 268.71875 544.0625 C 244.0475 575.20582 219.4596 606.43131 194.8125 637.59375 C 201.56046 664.53585 228.72063 626.40837 243.375 622.71875 C 287.57457 588.29865 323.42775 544.83907 359.96875 502.6875 C 414.0691 432.03316 479.98108 370.75226 542.375 306.9375 C 557.56898 303.67979 572.87231 300.87065 588.28125 298.8125 C 612.52896 293.29861 613.20484 321.33947 598.65625 333.5 C 585.62388 353.64428 581.88677 377.77301 574.15625 400.125 C 572.12164 405.80026 572.16292 410.42894 573.4375 413.84375 C 544.2593 415.65972 515.5686 417.44725 486.78125 425.125 C 463.50106 442.21003 461.92848 451.3841 462.375 480.84375 C 464.09683 490.37393 476.90247 498.4443 486.84375 495.8125 C 509.23458 496.14993 523.60322 475.60179 541.53125 464.6875 C 567.17916 455.83387 592.94216 446.38343 619.21875 440.09375 C 624.49667 469.18031 578.5375 508.63021 560.6875 531.0625 C 556.44793 538.94875 556.27656 550.06998 559.875 554.75 C 497.15973 562.97553 434.01496 568.32279 374.875 572.71875 C 339.21388 573.98937 333.90799 635.0318 373.25 631.53125 C 416.9407 615.03449 462.94357 606.16363 507.875 593.78125 C 582.44524 582.50903 656.92784 570.38715 730.78125 555.09375 C 748.87181 548.79503 766.79464 557.80652 762.53125 578.8125 C 759.62169 644.8354 738.69185 703.06083 717.3125 764.96875 C 698.9227 803.9776 670.91769 836.2714 644.125 869.53125 C 622.23537 871.49522 602.58987 848.59072 585.71875 835.46875 C 574.60236 840.92819 583.82619 849.50654 587.1875 857.1875 C 591.33817 867.71373 601.91017 877.17984 597.21875 889.1875 C 598.25357 916.16103 574.80699 930.37492 586 954.25 C 600.44945 989.7527 631.14108 987.0345 664.625 986.3125 C 689.59277 970.9778 713.6234 952.25284 732.5625 929.71875 C 776.9881 886.04454 802.75784 839.56087 830.625 785.1875 C 854.27941 722.19752 871.09111 664.73456 865.25 597.75 C 858.42479 566.47775 852.34758 548.09398 828 526.1875 C 809.30855 519.28541 791.87616 507.61839 771.40625 507.4375 C 761.53755 503.09504 755.82159 510.74852 749.75 517.34375 C 693.82878 533.4221 632.97628 544.7509 571.4375 553.1875 C 572.62953 552.10282 573.87997 550.78311 575.21875 549.15625 C 616.31769 506.9842 653.43053 475.37118 703.53125 446 C 713.34832 440.69129 720.37546 431.62758 728.8125 424.46875 C 732.36346 422.04113 734.38823 418.75143 734.5 414.40625 C 738.5721 400.94708 730.17599 396.21856 721.96875 386.1875 C 686.42312 383.35755 671.37606 385.39606 642.8125 407.46875 C 630.94731 411.25079 617.6669 409.85921 605.25 411.5625 C 601.46195 411.89634 597.70394 412.19347 593.9375 412.46875 C 594.94823 410.36612 595.74273 407.81858 596.15625 404.84375 C 604.98163 385.54855 615.65678 367.16769 632.03125 353.25 C 652.3669 337.97236 666.11982 305.97628 694.75 308.53125 C 715.91308 311.01809 732.13247 297.34595 726.46875 275.5625 C 717.38614 259.77648 704.27744 246.07158 693.40625 231.21875 C 676.049 204.66876 664.53428 242.22384 652.78125 252.9375 C 632.85174 270.81951 605.55525 270.49082 580.875 276.53125 C 577.0526 277.27795 573.22528 278.01615 569.40625 278.78125 C 590.37414 256.52183 610.66676 233.77417 629.65625 210.03125 C 648.70257 190.52568 685.29045 190.18368 692.875 159.59375 C 696.21746 116.10565 653.99294 99.18435 618.15625 97.46875 z M 446.21875 154.25 C 431.98239 157.81813 416.55777 158.83537 404.625 168 C 402.81493 169.35759 400.99756 170.7362 399.1875 172.09375 C 416.06629 198.73584 439.38129 214.01856 459.46875 240.3125 L 481.90625 249.9375 C 504.05224 237.63786 495.47316 228.6425 493.28125 204.53125 C 482.67232 178.75514 470.05492 166.16806 446.21875 154.25 z M 331.125 215.40625 C 312.55676 215.32279 294.33274 217.68411 275.9375 220.75 C 274.31554 225.61591 272.68445 230.47784 271.0625 235.34375 C 272.68445 240.75033 274.31554 246.15592 275.9375 251.5625 C 299.48228 263.14625 322.65566 275.48433 345.53125 288.3125 C 350.98338 292.2777 356.42287 296.25356 361.875 300.21875 C 381.94938 294.58396 380.93907 294.42439 391.09375 277.5 C 380.56108 249.78543 364.39793 236.21043 344.0625 215.875 C 339.73756 215.57523 335.40998 215.42551 331.125 215.40625 z M 634.375 588.9375 C 630.59043 593.80341 626.81582 598.66534 623.03125 603.53125 C 627.40163 616.13562 631.36087 629.38897 640.375 639.59375 C 661.27944 652.43178 667.98699 713.49955 693.96875 713.21875 C 718.76535 717.29358 715.41918 713.71602 731.6875 695.96875 C 732.56896 663.31656 733.26826 641.52487 708.53125 616.53125 C 687.32457 592.94905 665.57132 591.15162 634.375 588.9375 z M 489.96875 634.75 C 469.76902 637.31218 469.00134 632.96687 457.59375 648.9375 C 479.12069 683.38009 485.3352 721.4261 529.40625 729.78125 C 552.1237 734.46468 558.32294 736.00474 579.21875 728.40625 C 585.30864 706.08781 577.14649 694.30904 569.5 673.28125 C 548.66241 644.87964 523.29681 637.96398 489.96875 634.75 z M 280.78125 644.0625 L 275.9375 655.4375 C 302.24483 696.04928 328.91755 760.22594 376.5 778.6875 C 395.70528 775.91063 401.1999 776.27072 415.40625 764.09375 C 415.79364 729.70412 410.31519 710.26669 387.84375 683 C 351.85473 648.64629 326.59215 649.452 280.78125 644.0625 z M 181.28125 687.53125 C 172.80867 687.57774 163.86909 687.90328 154.28125 687.875 L 147.78125 710.5625 C 161.23679 729.74888 176.69239 747.69767 187.53125 768.59375 C 206.71486 806.18555 231.62462 836.76049 277.5625 838.71875 C 291.60154 821.46092 294.99329 810.73093 287.6875 788.21875 C 281.27266 759.55156 265.59414 736.00823 249.625 711.9375 C 227.89227 689.77298 206.699 687.39178 181.28125 687.53125 z "
       transform="translate(0,52.362183)"
       id="path5592" />
  </g>
</svg>
