<?xml version="1.0" encoding="UTF-8" standalone="no"?>
<!-- Created with Inkscape (http://www.inkscape.org/) -->

<svg
   xmlns:dc="http://purl.org/dc/elements/1.1/"
   xmlns:cc="http://creativecommons.org/ns#"
   xmlns:rdf="http://www.w3.org/1999/02/22-rdf-syntax-ns#"
   xmlns:svg="http://www.w3.org/2000/svg"
   xmlns="http://www.w3.org/2000/svg"
   xmlns:sodipodi="http://sodipodi.sourceforge.net/DTD/sodipodi-0.dtd"
   xmlns:inkscape="http://www.inkscape.org/namespaces/inkscape"
   width="1000"
   height="1000"
   id="svg3173"
   version="1.1"
   inkscape:version="0.47 r22583"
   sodipodi:docname="7236.svg"
   inkscape:export-filename="E:\chinese\yan\7236.png"
   inkscape:export-xdpi="18.005705"
   inkscape:export-ydpi="18.005705">
  <title
     id="title3638">Water</title>
  <defs
     id="defs3175">
    <inkscape:perspective
       sodipodi:type="inkscape:persp3d"
       inkscape:vp_x="0 : 526.18109 : 1"
       inkscape:vp_y="0 : 1000 : 0"
       inkscape:vp_z="744.09448 : 526.18109 : 1"
       inkscape:persp3d-origin="372.04724 : 350.78739 : 1"
       id="perspective3181" />
    <inkscape:perspective
       id="perspective3191"
       inkscape:persp3d-origin="0.5 : 0.33333333 : 1"
       inkscape:vp_z="1 : 0.5 : 1"
       inkscape:vp_y="0 : 1000 : 0"
       inkscape:vp_x="0 : 0.5 : 1"
       sodipodi:type="inkscape:persp3d" />
    <inkscape:perspective
       id="perspective4006"
       inkscape:persp3d-origin="0.5 : 0.33333333 : 1"
       inkscape:vp_z="1 : 0.5 : 1"
       inkscape:vp_y="0 : 1000 : 0"
       inkscape:vp_x="0 : 0.5 : 1"
       sodipodi:type="inkscape:persp3d" />
    <inkscape:perspective
       id="perspective4034"
       inkscape:persp3d-origin="0.5 : 0.33333333 : 1"
       inkscape:vp_z="1 : 0.5 : 1"
       inkscape:vp_y="0 : 1000 : 0"
       inkscape:vp_x="0 : 0.5 : 1"
       sodipodi:type="inkscape:persp3d" />
    <inkscape:perspective
       id="perspective4081"
       inkscape:persp3d-origin="0.5 : 0.33333333 : 1"
       inkscape:vp_z="1 : 0.5 : 1"
       inkscape:vp_y="0 : 1000 : 0"
       inkscape:vp_x="0 : 0.5 : 1"
       sodipodi:type="inkscape:persp3d" />
    <inkscape:perspective
       id="perspective4147"
       inkscape:persp3d-origin="0.5 : 0.33333333 : 1"
       inkscape:vp_z="1 : 0.5 : 1"
       inkscape:vp_y="0 : 1000 : 0"
       inkscape:vp_x="0 : 0.5 : 1"
       sodipodi:type="inkscape:persp3d" />
    <inkscape:perspective
       id="perspective3765"
       inkscape:persp3d-origin="0.5 : 0.33333333 : 1"
       inkscape:vp_z="1 : 0.5 : 1"
       inkscape:vp_y="0 : 1000 : 0"
       inkscape:vp_x="0 : 0.5 : 1"
       sodipodi:type="inkscape:persp3d" />
    <inkscape:perspective
       id="perspective3793"
       inkscape:persp3d-origin="0.5 : 0.33333333 : 1"
       inkscape:vp_z="1 : 0.5 : 1"
       inkscape:vp_y="0 : 1000 : 0"
       inkscape:vp_x="0 : 0.5 : 1"
       sodipodi:type="inkscape:persp3d" />
    <inkscape:perspective
       id="perspective3780"
       inkscape:persp3d-origin="0.5 : 0.33333333 : 1"
       inkscape:vp_z="1 : 0.5 : 1"
       inkscape:vp_y="0 : 1000 : 0"
       inkscape:vp_x="0 : 0.5 : 1"
       sodipodi:type="inkscape:persp3d" />
    <inkscape:perspective
       id="perspective2993"
       inkscape:persp3d-origin="0.5 : 0.33333333 : 1"
       inkscape:vp_z="1 : 0.5 : 1"
       inkscape:vp_y="0 : 1000 : 0"
       inkscape:vp_x="0 : 0.5 : 1"
       sodipodi:type="inkscape:persp3d" />
    <inkscape:perspective
       id="perspective3767"
       inkscape:persp3d-origin="0.5 : 0.33333333 : 1"
       inkscape:vp_z="1 : 0.5 : 1"
       inkscape:vp_y="0 : 1000 : 0"
       inkscape:vp_x="0 : 0.5 : 1"
       sodipodi:type="inkscape:persp3d" />
    <inkscape:perspective
       id="perspective3879"
       inkscape:persp3d-origin="0.5 : 0.33333333 : 1"
       inkscape:vp_z="1 : 0.5 : 1"
       inkscape:vp_y="0 : 1000 : 0"
       inkscape:vp_x="0 : 0.5 : 1"
       sodipodi:type="inkscape:persp3d" />
    <inkscape:perspective
       id="perspective3897"
       inkscape:persp3d-origin="0.5 : 0.33333333 : 1"
       inkscape:vp_z="1 : 0.5 : 1"
       inkscape:vp_y="0 : 1000 : 0"
       inkscape:vp_x="0 : 0.5 : 1"
       sodipodi:type="inkscape:persp3d" />
    <inkscape:perspective
       id="perspective3767-1"
       inkscape:persp3d-origin="0.5 : 0.33333333 : 1"
       inkscape:vp_z="1 : 0.5 : 1"
       inkscape:vp_y="0 : 1000 : 0"
       inkscape:vp_x="0 : 0.5 : 1"
       sodipodi:type="inkscape:persp3d" />
  </defs>
  <sodipodi:namedview
     id="base"
     pagecolor="#ffffff"
     bordercolor="#666666"
     borderopacity="1.0"
     inkscape:pageopacity="0.0"
     inkscape:pageshadow="2"
     inkscape:zoom="0.49497475"
     inkscape:cx="246.1949"
     inkscape:cy="515.12255"
     inkscape:document-units="px"
     inkscape:current-layer="g5443"
     showgrid="false"
     inkscape:window-width="1440"
     inkscape:window-height="840"
     inkscape:window-x="-4"
     inkscape:window-y="-4"
     inkscape:window-maximized="1" />
  <metadata
     id="metadata3178">
    <rdf:RDF>
      <cc:Work
         rdf:about="">
        <dc:format>image/svg+xml</dc:format>
        <dc:type
           rdf:resource="http://purl.org/dc/dcmitype/StillImage" />
        <dc:title>Water</dc:title>
        <dc:date>2010-07-16</dc:date>
        <dc:creator>
          <cc:Agent>
            <dc:title>Alex Amies</dc:title>
          </cc:Agent>
        </dc:creator>
        <dc:rights>
          <cc:Agent>
            <dc:title>@ Alex Amies 2010</dc:title>
          </cc:Agent>
        </dc:rights>
        <dc:publisher>
          <cc:Agent>
            <dc:title>chinesenotes.com</dc:title>
          </cc:Agent>
        </dc:publisher>
        <dc:source>Yan Qin Ceremonial Inscription</dc:source>
        <dc:language>Chinese 中文</dc:language>
        <dc:description>Tracing from Tang Dynasty Ceremonial Inscription by Yan Zhenqing 颜真卿 (709－785)</dc:description>
        <cc:license
           rdf:resource="http://creativecommons.org/licenses/by/3.0/" />
      </cc:Work>
      <cc:License
         rdf:about="http://creativecommons.org/licenses/by/3.0/">
        <cc:permits
           rdf:resource="http://creativecommons.org/ns#Reproduction" />
        <cc:permits
           rdf:resource="http://creativecommons.org/ns#Distribution" />
        <cc:requires
           rdf:resource="http://creativecommons.org/ns#Notice" />
        <cc:requires
           rdf:resource="http://creativecommons.org/ns#Attribution" />
        <cc:permits
           rdf:resource="http://creativecommons.org/ns#DerivativeWorks" />
      </cc:License>
    </rdf:RDF>
  </metadata>
  <g
     inkscape:label="Layer 1"
     inkscape:groupmode="layer"
     id="layer1"
     transform="translate(0,-52.362183)">
    <g
       transform="matrix(4.7513766,0,0,4.7513766,-2223.1254,31.218808)"
       id="g5443"
       style="fill:#000000;fill-opacity:1">
      <path
         sodipodi:nodetypes="cssssssssss"
         id="path7266"
         d="m 534.14768,39.422311 c -3.05717,-0.529845 -6.27173,1.908897 -8.55844,4.389613 -7.50116,8.137567 -14.98992,16.352269 -22.47213,24.537542 -3.8103,4.168338 -8.83008,9.227317 -10.48144,13.300585 -0.42167,1.0401 2.67484,2.376617 3.93648,1.789306 12.5757,-5.854207 24.83727,-15.007927 37.57553,-21.11387 1.69552,-0.812723 3.96501,0.764196 5.72579,0.35787 1.34069,-0.309392 3.05332,-1.262117 3.57862,-2.505036 1.0738,-2.540717 0.26352,-5.98997 -0.97147,-8.776531 -1.19969,-2.706901 -1.354,-6.084861 -2.96501,-8.400856 -1.16664,-1.677171 -3.36639,-3.231736 -5.36793,-3.578623 z"
         style="fill:#000000;stroke:#000000;stroke-width:1.00201403999999990px;stroke-linecap:butt;stroke-linejoin:miter;stroke-opacity:1;fill-opacity:1" />
      <path
         sodipodi:nodetypes="cssssssss"
         id="path7268"
         d="m 590.33204,30.833617 c -1.2884,-0.639415 -3.41663,0.290263 -4.29435,1.431447 -3.21622,4.181605 0.26882,10.512952 4.12373,14.068118 8.77488,8.092576 15.7922,19.112086 24.8631,26.012446 1.98655,1.511188 5.43554,0.390846 7.87298,-0.357859 2.62914,-0.807593 6.7549,-1.963978 7.15724,-4.652211 0.50849,-3.397429 -0.61252,-7.881563 -3.52633,-10.768676 -4.13505,-4.097155 -7.12066,-9.625748 -11.86174,-12.850219 -7.46354,-5.076054 -16.48147,-8.985592 -24.33463,-12.883046 z"
         style="fill:#000000;stroke:#000000;stroke-width:1.00201403999999990px;stroke-linecap:butt;stroke-linejoin:miter;stroke-opacity:1;fill-opacity:1" />
      <path
         style="fill:#000000;stroke:#000000;stroke-width:4.76094626999999980px;stroke-linecap:butt;stroke-linejoin:miter;stroke-opacity:1;fill-opacity:1"
         d="M 613.28125 252 C 591.73829 252.18662 571.81909 267.76383 571.03125 290.71875 C 555.63945 329.01233 532.15338 363.44995 513.1875 400.03125 C 500.56026 422.20091 487.03754 443.67929 472.78125 464.5625 C 469.30929 460.19756 465.79686 455.86084 462.1875 451.65625 C 425.04471 401.63051 390.69597 346.85124 352.21875 300.5 C 349.39734 297.10121 342.5837 299.98985 338.625 302.1875 C 307.4152 319.51316 346.97554 349.94594 353.21875 371.875 C 374.27096 415.57216 392.26784 464.33209 422.1875 503.46875 C 425.76181 508.77684 429.27011 514.15345 432.71875 519.5625 C 401.11443 560.46307 367.0724 599.49261 332.0625 637.90625 C 260.59952 694.88941 188.56554 751.55623 113.25 803.53125 C 94.700721 813.8979 135.4727 832.47819 145.0625 815.8125 C 263.83124 776.05156 360.25015 697.27325 441.25 603.625 C 449.76664 593.55795 458.51624 583.64932 467.28125 573.75 C 478.90331 590.87128 491.43543 607.29096 506.21875 621.96875 C 528.71343 647.38614 551.08842 673.31718 579.625 692.15625 C 624.55207 725.96733 669.47918 759.78267 714.40625 793.59375 C 742.19957 804.20999 768.09878 800.92567 794.9375 776.21875 C 819.28716 765.95639 847.4466 764.74625 873.46875 759.03125 C 888.38869 757.12524 903.44976 759.46066 918.4375 759.59375 C 931.46321 737.90899 882.36177 736.93948 869.21875 725.25 C 796.51846 697.08493 729.98821 656.0776 661.5625 619.21875 C 617.44915 594.44574 578.74973 561.24628 537.3125 532.34375 C 529.72264 527.50268 522.81917 521.93823 516.375 515.875 C 517.64871 514.22631 518.90304 512.56947 520.15625 510.90625 C 557.364 443.4871 597.37576 377.14693 624.09375 304.625 C 631.65889 286.13434 630.96004 270.378 622.5625 252.875 C 619.4697 252.25033 616.35882 251.97334 613.28125 252 z "
         transform="matrix(0.21046532,0,0,0.21046532,467.8908,4.4499472)"
         id="path7270" />
    </g>
  </g>
</svg>
