<?xml version="1.0" encoding="UTF-8" standalone="no"?>
<!-- Created with Inkscape (http://www.inkscape.org/) -->

<svg
   xmlns:dc="http://purl.org/dc/elements/1.1/"
   xmlns:cc="http://creativecommons.org/ns#"
   xmlns:rdf="http://www.w3.org/1999/02/22-rdf-syntax-ns#"
   xmlns:svg="http://www.w3.org/2000/svg"
   xmlns="http://www.w3.org/2000/svg"
   xmlns:sodipodi="http://sodipodi.sourceforge.net/DTD/sodipodi-0.dtd"
   xmlns:inkscape="http://www.inkscape.org/namespaces/inkscape"
   width="1000"
   height="1000"
   id="svg3173"
   version="1.1"
   inkscape:version="0.47 r22583"
   sodipodi:docname="7384.svg"
   inkscape:export-filename="E:\chinese\yan\7384.png"
   inkscape:export-xdpi="17.961918"
   inkscape:export-ydpi="17.961918">
  <title
     id="title2854">Xuan</title>
  <defs
     id="defs3175">
    <inkscape:perspective
       sodipodi:type="inkscape:persp3d"
       inkscape:vp_x="0 : 526.18109 : 1"
       inkscape:vp_y="0 : 1000 : 0"
       inkscape:vp_z="744.09448 : 526.18109 : 1"
       inkscape:persp3d-origin="372.04724 : 350.78739 : 1"
       id="perspective3181" />
    <inkscape:perspective
       id="perspective3191"
       inkscape:persp3d-origin="0.5 : 0.33333333 : 1"
       inkscape:vp_z="1 : 0.5 : 1"
       inkscape:vp_y="0 : 1000 : 0"
       inkscape:vp_x="0 : 0.5 : 1"
       sodipodi:type="inkscape:persp3d" />
    <inkscape:perspective
       id="perspective4006"
       inkscape:persp3d-origin="0.5 : 0.33333333 : 1"
       inkscape:vp_z="1 : 0.5 : 1"
       inkscape:vp_y="0 : 1000 : 0"
       inkscape:vp_x="0 : 0.5 : 1"
       sodipodi:type="inkscape:persp3d" />
    <inkscape:perspective
       id="perspective4034"
       inkscape:persp3d-origin="0.5 : 0.33333333 : 1"
       inkscape:vp_z="1 : 0.5 : 1"
       inkscape:vp_y="0 : 1000 : 0"
       inkscape:vp_x="0 : 0.5 : 1"
       sodipodi:type="inkscape:persp3d" />
    <inkscape:perspective
       id="perspective4081"
       inkscape:persp3d-origin="0.5 : 0.33333333 : 1"
       inkscape:vp_z="1 : 0.5 : 1"
       inkscape:vp_y="0 : 1000 : 0"
       inkscape:vp_x="0 : 0.5 : 1"
       sodipodi:type="inkscape:persp3d" />
    <inkscape:perspective
       id="perspective4147"
       inkscape:persp3d-origin="0.5 : 0.33333333 : 1"
       inkscape:vp_z="1 : 0.5 : 1"
       inkscape:vp_y="0 : 1000 : 0"
       inkscape:vp_x="0 : 0.5 : 1"
       sodipodi:type="inkscape:persp3d" />
    <inkscape:perspective
       id="perspective3858"
       inkscape:persp3d-origin="0.5 : 0.33333333 : 1"
       inkscape:vp_z="1 : 0.5 : 1"
       inkscape:vp_y="0 : 1000 : 0"
       inkscape:vp_x="0 : 0.5 : 1"
       sodipodi:type="inkscape:persp3d" />
    <inkscape:perspective
       id="perspective3876"
       inkscape:persp3d-origin="0.5 : 0.33333333 : 1"
       inkscape:vp_z="1 : 0.5 : 1"
       inkscape:vp_y="0 : 1000 : 0"
       inkscape:vp_x="0 : 0.5 : 1"
       sodipodi:type="inkscape:persp3d" />
    <inkscape:perspective
       id="perspective3901"
       inkscape:persp3d-origin="0.5 : 0.33333333 : 1"
       inkscape:vp_z="1 : 0.5 : 1"
       inkscape:vp_y="0 : 1000 : 0"
       inkscape:vp_x="0 : 0.5 : 1"
       sodipodi:type="inkscape:persp3d" />
    <inkscape:perspective
       id="perspective5282"
       inkscape:persp3d-origin="0.5 : 0.33333333 : 1"
       inkscape:vp_z="1 : 0.5 : 1"
       inkscape:vp_y="0 : 1000 : 0"
       inkscape:vp_x="0 : 0.5 : 1"
       sodipodi:type="inkscape:persp3d" />
    <inkscape:perspective
       id="perspective6657"
       inkscape:persp3d-origin="0.5 : 0.33333333 : 1"
       inkscape:vp_z="1 : 0.5 : 1"
       inkscape:vp_y="0 : 1000 : 0"
       inkscape:vp_x="0 : 0.5 : 1"
       sodipodi:type="inkscape:persp3d" />
    <inkscape:perspective
       id="perspective7221"
       inkscape:persp3d-origin="0.5 : 0.33333333 : 1"
       inkscape:vp_z="1 : 0.5 : 1"
       inkscape:vp_y="0 : 1000 : 0"
       inkscape:vp_x="0 : 0.5 : 1"
       sodipodi:type="inkscape:persp3d" />
    <inkscape:perspective
       id="perspective7762"
       inkscape:persp3d-origin="0.5 : 0.33333333 : 1"
       inkscape:vp_z="1 : 0.5 : 1"
       inkscape:vp_y="0 : 1000 : 0"
       inkscape:vp_x="0 : 0.5 : 1"
       sodipodi:type="inkscape:persp3d" />
    <inkscape:perspective
       id="perspective3824"
       inkscape:persp3d-origin="0.5 : 0.33333333 : 1"
       inkscape:vp_z="1 : 0.5 : 1"
       inkscape:vp_y="0 : 1000 : 0"
       inkscape:vp_x="0 : 0.5 : 1"
       sodipodi:type="inkscape:persp3d" />
    <inkscape:perspective
       id="perspective3037"
       inkscape:persp3d-origin="0.5 : 0.33333333 : 1"
       inkscape:vp_z="1 : 0.5 : 1"
       inkscape:vp_y="0 : 1000 : 0"
       inkscape:vp_x="0 : 0.5 : 1"
       sodipodi:type="inkscape:persp3d" />
    <inkscape:perspective
       id="perspective7183"
       inkscape:persp3d-origin="0.5 : 0.33333333 : 1"
       inkscape:vp_z="1 : 0.5 : 1"
       inkscape:vp_y="0 : 1000 : 0"
       inkscape:vp_x="0 : 0.5 : 1"
       sodipodi:type="inkscape:persp3d" />
    <inkscape:perspective
       id="perspective7211"
       inkscape:persp3d-origin="0.5 : 0.33333333 : 1"
       inkscape:vp_z="1 : 0.5 : 1"
       inkscape:vp_y="0 : 1000 : 0"
       inkscape:vp_x="0 : 0.5 : 1"
       sodipodi:type="inkscape:persp3d" />
    <inkscape:perspective
       id="perspective3723"
       inkscape:persp3d-origin="0.5 : 0.33333333 : 1"
       inkscape:vp_z="1 : 0.5 : 1"
       inkscape:vp_y="0 : 1000 : 0"
       inkscape:vp_x="0 : 0.5 : 1"
       sodipodi:type="inkscape:persp3d" />
    <inkscape:perspective
       id="perspective3759"
       inkscape:persp3d-origin="0.5 : 0.33333333 : 1"
       inkscape:vp_z="1 : 0.5 : 1"
       inkscape:vp_y="0 : 1000 : 0"
       inkscape:vp_x="0 : 0.5 : 1"
       sodipodi:type="inkscape:persp3d" />
    <inkscape:perspective
       id="perspective3790"
       inkscape:persp3d-origin="0.5 : 0.33333333 : 1"
       inkscape:vp_z="1 : 0.5 : 1"
       inkscape:vp_y="0 : 1000 : 0"
       inkscape:vp_x="0 : 0.5 : 1"
       sodipodi:type="inkscape:persp3d" />
    <inkscape:perspective
       id="perspective3779"
       inkscape:persp3d-origin="0.5 : 0.33333333 : 1"
       inkscape:vp_z="1 : 0.5 : 1"
       inkscape:vp_y="0 : 1000 : 0"
       inkscape:vp_x="0 : 0.5 : 1"
       sodipodi:type="inkscape:persp3d" />
  </defs>
  <sodipodi:namedview
     id="base"
     pagecolor="#ffffff"
     bordercolor="#666666"
     borderopacity="1.0"
     inkscape:pageopacity="0.0"
     inkscape:pageshadow="2"
     inkscape:zoom="0.49497475"
     inkscape:cx="603.74562"
     inkscape:cy="487.00838"
     inkscape:document-units="px"
     inkscape:current-layer="g3804"
     showgrid="false"
     inkscape:window-width="1440"
     inkscape:window-height="840"
     inkscape:window-x="-4"
     inkscape:window-y="-4"
     inkscape:window-maximized="1" />
  <metadata
     id="metadata3178">
    <rdf:RDF>
      <cc:Work
         rdf:about="">
        <dc:format>image/svg+xml</dc:format>
        <dc:type
           rdf:resource="http://purl.org/dc/dcmitype/StillImage" />
        <dc:title>Xuan</dc:title>
        <dc:date>2010-08-06</dc:date>
        <dc:creator>
          <cc:Agent>
            <dc:title>Alex Amies</dc:title>
          </cc:Agent>
        </dc:creator>
        <dc:rights>
          <cc:Agent>
            <dc:title>Copyright Alex Amies 2010</dc:title>
          </cc:Agent>
        </dc:rights>
        <dc:publisher>
          <cc:Agent>
            <dc:title>chinesenotes.com</dc:title>
          </cc:Agent>
        </dc:publisher>
        <dc:source>Yan Qin Ceremonial Inscription</dc:source>
        <dc:language>Chinese 中文</dc:language>
        <dc:description>Tracing from Tang Dynasty Ceremonial Inscription by Yan Zhenqing 颜真卿 (709－785)</dc:description>
        <cc:license
           rdf:resource="http://creativecommons.org/licenses/by/3.0/" />
      </cc:Work>
      <cc:License
         rdf:about="http://creativecommons.org/licenses/by/3.0/">
        <cc:permits
           rdf:resource="http://creativecommons.org/ns#Reproduction" />
        <cc:permits
           rdf:resource="http://creativecommons.org/ns#Distribution" />
        <cc:requires
           rdf:resource="http://creativecommons.org/ns#Notice" />
        <cc:requires
           rdf:resource="http://creativecommons.org/ns#Attribution" />
        <cc:permits
           rdf:resource="http://creativecommons.org/ns#DerivativeWorks" />
      </cc:License>
    </rdf:RDF>
  </metadata>
  <g
     inkscape:label="Layer 1"
     inkscape:groupmode="layer"
     id="layer1"
     transform="translate(0,-52.362183)">
    <g
       transform="matrix(4.7418067,0,0,4.7418067,-575.38835,-3945.1359)"
       id="g3804"
       style="fill:none;fill-opacity:1">
      <g
         transform="matrix(1.0060546,0,0,1.0060546,-214.99321,617.5717)"
         id="g3271"
         style="fill:#000000;fill-opacity:1">
        <path
           style="fill:#000000;fill-opacity:1;stroke:#000000;stroke-width:1px;stroke-linecap:butt;stroke-linejoin:miter;stroke-opacity:1"
           d="m 430.34375,242.71875 c -3.50662,-0.14491 -6.28295,1.86611 -9.28125,3.21875 -2.81212,0.64412 -3.41065,2.9157 -3.21875,5.34375 4.08689,4.27749 9.36313,5.90257 13.3125,10.25 2.17833,3.29389 2.78183,7.48789 4.09375,11.21875 0.13916,0.16516 0.27707,0.33054 0.4375,0.46875 -23.62597,4.39438 -47.5327,7.96441 -72.125,13.78125 -5.30114,2.14481 -2.19828,9.92515 0.90625,12.875 5.42864,3.11448 12.12758,-0.10413 17.4375,-2.15625 33.59983,-14.81034 69.94989,-21.35339 106.25,-25.28125 6.1137,-0.43597 10.86468,2.12922 14.5625,6.78125 4.6046,3.32195 10.32406,4.82977 15.34375,1.375 4.60824,-3.8282 2.98582,-11.77357 -1.8125,-14.75 -4.55883,-4.36402 -10.99172,-6.44159 -17.1875,-4.78125 -9.27181,1.78145 -18.73885,2.28015 -27.9375,4.53125 -8.35998,2.12707 -16.73701,3.9532 -25.125,5.625 1.04796,-1.5125 2.10437,-3.02944 2.59375,-4.75 0.8059,-3.41191 -0.29754,-7.05426 -1.5,-10.25 -3.76443,-6.37108 -9.89506,-10.89063 -16.75,-13.5 z"
           id="path3250" />
        <path
           style="fill:#000000;fill-opacity:1;stroke:#000000;stroke-width:1px;stroke-linecap:butt;stroke-linejoin:miter;stroke-opacity:1"
           d="m 435.46875,290.8125 c -2.87805,0.19517 -4.38737,3.56845 -5.90625,5.78125 -1.90498,2.77529 -2.26515,6.07691 -3.90625,8.875 -3.55139,6.05513 -6.87534,12.3445 -11,17.96875 -2.9695,4.82835 -10.86201,7.75155 -12.65625,13.09375 -0.0858,2.96306 -1.23208,6.5755 1.40625,9.21875 8.77926,3.30185 18.84461,5.09978 28.5625,6.875 l -32.3125,28.3125 c -3.35644,2.10379 -7.26994,2.7843 -10.84375,4 -4.39976,1.73366 -2.15889,6.89723 -1.25,10.375 2.56882,5.0403 3.57153,11.82223 8,15 3.43757,2.46672 8.52555,-2.21183 10.96875,-5.4375 3.17324,-3.19335 4.45115,-8.59335 9.3125,-9.53125 12.89468,-5.18552 25.93726,-10.20415 39.15625,-14.40625 1.08057,-1.88879 2.17961,-2.53907 1.1875,-3.40625 -1.49096,-1.30321 -4.48768,-1.47442 -6.5625,-0.5625 -12.26468,2.09563 -24.58613,3.98665 -36.78125,6.46875 -1.84706,-3.38873 5.69711,-4.90671 7.6875,-7.375 20.3361,-15.16557 41.43935,-30.00325 60,-47.40625 3.28433,-4.43871 -2.32139,-9.34239 -5.34375,-11.75 -1.14494,-0.91206 -2.97912,-0.64954 -4.46875,-0.96875 -4.54285,-0.40544 -6.9832,4.06086 -8.96875,7.40625 -2.37898,3.90192 -4.7119,7.92528 -8.5,10.625 l -13.9375,12.21875 c -0.47177,-0.49719 -0.92898,-1.00101 -1.34375,-1.40625 -1.99735,-4.49206 -15.27491,-7.10968 -15.21875,-11.625 5.86905,-9.95099 17.02857,-19.89838 24.1875,-30.875 1.32489,-2.28019 0.0864,-5.99365 -1.21875,-8.125 -2.33893,-2.67596 -5.76229,-2.59433 -8.9375,-3.21875 -0.47092,-0.11481 -0.90135,-0.15288 -1.3125,-0.125 z"
           id="path3254" />
        <path
           id="path3258"
           d="m 476.78571,353.79075 c -1.14598,0.35852 -2.73135,1.40348 -2.85714,2.5 3.03338,10.11516 8.61542,19.6735 12.5,29.64286 1.27017,3.39638 1.07594,7.3038 2.31744,10.6869 0.74199,2.02191 1.41619,4.90697 3.0397,5.74167 3.90703,1.04144 8.70016,-0.55727 12.26024,-2.28785 2.28296,-2.07585 5.33635,-4.49865 5.95405,-7.355 0.89079,-4.11913 0.42426,-9.56424 -1.42857,-13.57143 -6.38752,-10.2259 -12.97865,-22.44155 -25.54341,-25.70394 -2.01431,-0.33282 -4.35514,-0.24362 -6.24231,0.34679 z"
           style="fill:#000000;fill-opacity:1;stroke:#000000;stroke-width:1px;stroke-linecap:butt;stroke-linejoin:miter;stroke-opacity:1"
           sodipodi:nodetypes="cccsccsccs" />
      </g>
    </g>
  </g>
</svg>
