<?xml version="1.0" encoding="UTF-8" standalone="no"?>
<!-- Created with Inkscape (http://www.inkscape.org/) -->

<svg
   xmlns:dc="http://purl.org/dc/elements/1.1/"
   xmlns:cc="http://creativecommons.org/ns#"
   xmlns:rdf="http://www.w3.org/1999/02/22-rdf-syntax-ns#"
   xmlns:svg="http://www.w3.org/2000/svg"
   xmlns="http://www.w3.org/2000/svg"
   xmlns:sodipodi="http://sodipodi.sourceforge.net/DTD/sodipodi-0.dtd"
   xmlns:inkscape="http://www.inkscape.org/namespaces/inkscape"
   width="1000"
   height="1000"
   id="svg3173"
   version="1.1"
   inkscape:version="0.47 r22583"
   sodipodi:docname="738b.svg"
   inkscape:export-filename="E:\chinese\yan\738b.png"
   inkscape:export-xdpi="18.005705"
   inkscape:export-ydpi="18.005705">
  <title
     id="title2831">Wang</title>
  <defs
     id="defs3175">
    <inkscape:perspective
       sodipodi:type="inkscape:persp3d"
       inkscape:vp_x="0 : 526.18109 : 1"
       inkscape:vp_y="0 : 1000 : 0"
       inkscape:vp_z="744.09448 : 526.18109 : 1"
       inkscape:persp3d-origin="372.04724 : 350.78739 : 1"
       id="perspective3181" />
    <inkscape:perspective
       id="perspective3191"
       inkscape:persp3d-origin="0.5 : 0.33333333 : 1"
       inkscape:vp_z="1 : 0.5 : 1"
       inkscape:vp_y="0 : 1000 : 0"
       inkscape:vp_x="0 : 0.5 : 1"
       sodipodi:type="inkscape:persp3d" />
    <inkscape:perspective
       id="perspective4006"
       inkscape:persp3d-origin="0.5 : 0.33333333 : 1"
       inkscape:vp_z="1 : 0.5 : 1"
       inkscape:vp_y="0 : 1000 : 0"
       inkscape:vp_x="0 : 0.5 : 1"
       sodipodi:type="inkscape:persp3d" />
    <inkscape:perspective
       id="perspective4034"
       inkscape:persp3d-origin="0.5 : 0.33333333 : 1"
       inkscape:vp_z="1 : 0.5 : 1"
       inkscape:vp_y="0 : 1000 : 0"
       inkscape:vp_x="0 : 0.5 : 1"
       sodipodi:type="inkscape:persp3d" />
    <inkscape:perspective
       id="perspective4081"
       inkscape:persp3d-origin="0.5 : 0.33333333 : 1"
       inkscape:vp_z="1 : 0.5 : 1"
       inkscape:vp_y="0 : 1000 : 0"
       inkscape:vp_x="0 : 0.5 : 1"
       sodipodi:type="inkscape:persp3d" />
    <inkscape:perspective
       id="perspective4147"
       inkscape:persp3d-origin="0.5 : 0.33333333 : 1"
       inkscape:vp_z="1 : 0.5 : 1"
       inkscape:vp_y="0 : 1000 : 0"
       inkscape:vp_x="0 : 0.5 : 1"
       sodipodi:type="inkscape:persp3d" />
    <inkscape:perspective
       id="perspective3801"
       inkscape:persp3d-origin="0.5 : 0.33333333 : 1"
       inkscape:vp_z="1 : 0.5 : 1"
       inkscape:vp_y="0 : 1000 : 0"
       inkscape:vp_x="0 : 0.5 : 1"
       sodipodi:type="inkscape:persp3d" />
    <inkscape:perspective
       id="perspective3122"
       inkscape:persp3d-origin="0.5 : 0.33333333 : 1"
       inkscape:vp_z="1 : 0.5 : 1"
       inkscape:vp_y="0 : 1000 : 0"
       inkscape:vp_x="0 : 0.5 : 1"
       sodipodi:type="inkscape:persp3d" />
    <inkscape:perspective
       id="perspective3854"
       inkscape:persp3d-origin="0.5 : 0.33333333 : 1"
       inkscape:vp_z="1 : 0.5 : 1"
       inkscape:vp_y="0 : 1000 : 0"
       inkscape:vp_x="0 : 0.5 : 1"
       sodipodi:type="inkscape:persp3d" />
    <inkscape:perspective
       id="perspective3922"
       inkscape:persp3d-origin="0.5 : 0.33333333 : 1"
       inkscape:vp_z="1 : 0.5 : 1"
       inkscape:vp_y="0 : 1000 : 0"
       inkscape:vp_x="0 : 0.5 : 1"
       sodipodi:type="inkscape:persp3d" />
  </defs>
  <sodipodi:namedview
     id="base"
     pagecolor="#ffffff"
     bordercolor="#666666"
     borderopacity="1.0"
     inkscape:pageopacity="0.0"
     inkscape:pageshadow="2"
     inkscape:zoom="0.49497475"
     inkscape:cx="400.23851"
     inkscape:cy="520.83683"
     inkscape:document-units="px"
     inkscape:current-layer="g4634"
     showgrid="false"
     inkscape:window-width="1440"
     inkscape:window-height="840"
     inkscape:window-x="-4"
     inkscape:window-y="-4"
     inkscape:window-maximized="1" />
  <metadata
     id="metadata3178">
    <rdf:RDF>
      <cc:Work
         rdf:about="">
        <dc:format>image/svg+xml</dc:format>
        <dc:type
           rdf:resource="http://purl.org/dc/dcmitype/StillImage" />
        <dc:title>Wang</dc:title>
        <dc:date>2010-08-21</dc:date>
        <dc:creator>
          <cc:Agent>
            <dc:title>Alex Amies</dc:title>
          </cc:Agent>
        </dc:creator>
        <dc:rights>
          <cc:Agent>
            <dc:title>@ Alex Amies 2010</dc:title>
          </cc:Agent>
        </dc:rights>
        <dc:publisher>
          <cc:Agent>
            <dc:title>chinesenotes.com</dc:title>
          </cc:Agent>
        </dc:publisher>
        <dc:source>Yan Qin Ceremonial Inscription</dc:source>
        <dc:language>Chinese 中文</dc:language>
        <dc:description>Tracing from Tang Dynasty Ceremonial Inscription by Yan Zhenqing 颜真卿 (709－785)</dc:description>
        <cc:license
           rdf:resource="http://creativecommons.org/licenses/by/3.0/" />
      </cc:Work>
      <cc:License
         rdf:about="http://creativecommons.org/licenses/by/3.0/">
        <cc:permits
           rdf:resource="http://creativecommons.org/ns#Reproduction" />
        <cc:permits
           rdf:resource="http://creativecommons.org/ns#Distribution" />
        <cc:requires
           rdf:resource="http://creativecommons.org/ns#Notice" />
        <cc:requires
           rdf:resource="http://creativecommons.org/ns#Attribution" />
        <cc:permits
           rdf:resource="http://creativecommons.org/ns#DerivativeWorks" />
      </cc:License>
    </rdf:RDF>
  </metadata>
  <g
     inkscape:label="Layer 1"
     inkscape:groupmode="layer"
     id="layer1"
     transform="translate(0,-52.362183)">
    <g
       transform="matrix(4.7609464,0,0,4.7609464,-444.07486,-2879.5352)"
       id="g4634"
       style="fill:#000000;fill-opacity:1">
      <path
         style="fill:#000000;stroke:#000000;stroke-width:4.76094626999999980px;stroke-linecap:butt;stroke-linejoin:miter;stroke-opacity:1;fill-opacity:1"
         d="M 660.53125 113.15625 C 652.51614 113.44075 643.77884 116.29537 636.25 118 C 544.61364 137.73041 453.28581 158.95739 361.5 177.96875 C 345.78093 180.6444 329.94845 183.07515 314.71875 187.9375 C 304.36141 199.16253 298.83581 220.28067 317.75 226.15625 C 357.13598 264.71473 400.05978 267.61599 451.90625 267.28125 C 453.61676 267.29037 455.32202 267.25866 457.03125 267.25 C 454.56499 280.24474 458.32965 296.69867 461.4375 309.90625 C 466.85817 332.94271 471.47042 355.94015 471.96875 379.875 C 472.69727 414.86476 473.1022 449.89569 473.375 484.90625 C 430.05848 500.81396 386.78793 516.77327 343.625 533.09375 C 326.27492 572.06833 390.25909 578.00968 416.65625 579 C 435.71501 578.25262 454.7419 576.02316 473.71875 573 C 473.71277 622.96745 473.45737 672.92608 473.09375 722.875 C 472.98044 738.40545 469.13024 756.19737 474.53125 769.46875 C 474.7441 769.81494 474.99463 770.13385 475.21875 770.46875 C 412.55867 775.61295 349.81963 780.13257 288.15625 792.375 C 260.29119 797.38947 232.29803 801.76027 204.1875 805.15625 C 179.30256 823.13273 200.19969 852.53793 219.90625 864 C 238.79202 885.77843 267.39796 888.45689 294.21875 889.1875 C 378.93165 872.51348 465.45026 860.69072 551.96875 851.5 C 622.43537 843.51037 691.04186 860.09493 757.59375 881.59375 C 782.85033 895.15369 787.59009 861.78527 782.9375 844.15625 C 785.31345 814.14443 757.85541 794.46175 744.90625 770.25 C 728.41843 751.69083 702.06981 743.99072 677.90625 743.03125 C 648.87124 742.91746 621.54353 754.88997 592.8125 757.9375 C 587.75158 758.69375 582.69599 759.41176 577.625 760.09375 C 580.83457 752.93829 582.64285 744.9012 582.59375 736.5625 C 585.13634 676.81578 589.56301 613.63523 589.40625 550.625 C 628.01616 546.1915 663.19245 527.04442 701.96875 524.6875 C 713.10184 517.37269 718.04212 500.17146 711.84375 488.09375 C 702.75196 472.65748 695.32543 454.66623 680.15625 444.15625 C 648.57719 434.82464 615.28611 437.14442 583.65625 445.5625 C 578.22275 399.94997 568.29615 355.56072 551.21875 313.84375 C 538.61149 296.40366 523.43697 278.86548 506.9375 264.71875 C 567.50666 259.09883 627.41352 245.25198 687.09375 233.84375 C 710.26994 221.78646 706.98974 178.59785 700 156.9375 C 697.18614 143.83138 690.534 132.61396 680.53125 123.71875 C 675.85183 115.15205 668.54636 112.87175 660.53125 113.15625 z "
         transform="matrix(0.21004227,0,0,0.21004227,93.274493,615.82239)"
         id="path4289" />
    </g>
  </g>
</svg>
