<?xml version="1.0" encoding="UTF-8" standalone="no"?>
<!-- Created with Inkscape (http://www.inkscape.org/) -->

<svg
   xmlns:dc="http://purl.org/dc/elements/1.1/"
   xmlns:cc="http://creativecommons.org/ns#"
   xmlns:rdf="http://www.w3.org/1999/02/22-rdf-syntax-ns#"
   xmlns:svg="http://www.w3.org/2000/svg"
   xmlns="http://www.w3.org/2000/svg"
   xmlns:sodipodi="http://sodipodi.sourceforge.net/DTD/sodipodi-0.dtd"
   xmlns:inkscape="http://www.inkscape.org/namespaces/inkscape"
   width="1000"
   height="1000"
   id="svg3173"
   version="1.1"
   inkscape:version="0.47 r22583"
   sodipodi:docname="7406.svg"
   inkscape:export-filename="E:\chinese\yan\7406.png"
   inkscape:export-xdpi="18.005705"
   inkscape:export-ydpi="18.005705">
  <title
     id="title2821">Li</title>
  <defs
     id="defs3175">
    <inkscape:perspective
       sodipodi:type="inkscape:persp3d"
       inkscape:vp_x="0 : 526.18109 : 1"
       inkscape:vp_y="0 : 1000 : 0"
       inkscape:vp_z="744.09448 : 526.18109 : 1"
       inkscape:persp3d-origin="372.04724 : 350.78739 : 1"
       id="perspective3181" />
    <inkscape:perspective
       id="perspective3191"
       inkscape:persp3d-origin="0.5 : 0.33333333 : 1"
       inkscape:vp_z="1 : 0.5 : 1"
       inkscape:vp_y="0 : 1000 : 0"
       inkscape:vp_x="0 : 0.5 : 1"
       sodipodi:type="inkscape:persp3d" />
    <inkscape:perspective
       id="perspective4006"
       inkscape:persp3d-origin="0.5 : 0.33333333 : 1"
       inkscape:vp_z="1 : 0.5 : 1"
       inkscape:vp_y="0 : 1000 : 0"
       inkscape:vp_x="0 : 0.5 : 1"
       sodipodi:type="inkscape:persp3d" />
    <inkscape:perspective
       id="perspective4034"
       inkscape:persp3d-origin="0.5 : 0.33333333 : 1"
       inkscape:vp_z="1 : 0.5 : 1"
       inkscape:vp_y="0 : 1000 : 0"
       inkscape:vp_x="0 : 0.5 : 1"
       sodipodi:type="inkscape:persp3d" />
    <inkscape:perspective
       id="perspective4081"
       inkscape:persp3d-origin="0.5 : 0.33333333 : 1"
       inkscape:vp_z="1 : 0.5 : 1"
       inkscape:vp_y="0 : 1000 : 0"
       inkscape:vp_x="0 : 0.5 : 1"
       sodipodi:type="inkscape:persp3d" />
    <inkscape:perspective
       id="perspective4147"
       inkscape:persp3d-origin="0.5 : 0.33333333 : 1"
       inkscape:vp_z="1 : 0.5 : 1"
       inkscape:vp_y="0 : 1000 : 0"
       inkscape:vp_x="0 : 0.5 : 1"
       sodipodi:type="inkscape:persp3d" />
    <inkscape:perspective
       id="perspective3801"
       inkscape:persp3d-origin="0.5 : 0.33333333 : 1"
       inkscape:vp_z="1 : 0.5 : 1"
       inkscape:vp_y="0 : 1000 : 0"
       inkscape:vp_x="0 : 0.5 : 1"
       sodipodi:type="inkscape:persp3d" />
  </defs>
  <sodipodi:namedview
     id="base"
     pagecolor="#ffffff"
     bordercolor="#666666"
     borderopacity="1.0"
     inkscape:pageopacity="0.0"
     inkscape:pageshadow="2"
     inkscape:zoom="0.49497475"
     inkscape:cx="836.62441"
     inkscape:cy="508.715"
     inkscape:document-units="px"
     inkscape:current-layer="g4634"
     showgrid="false"
     inkscape:window-width="1440"
     inkscape:window-height="840"
     inkscape:window-x="-4"
     inkscape:window-y="-4"
     inkscape:window-maximized="1" />
  <metadata
     id="metadata3178">
    <rdf:RDF>
      <cc:Work
         rdf:about="">
        <dc:format>image/svg+xml</dc:format>
        <dc:type
           rdf:resource="http://purl.org/dc/dcmitype/StillImage" />
        <dc:title>Li</dc:title>
        <dc:date>2010-07-17</dc:date>
        <dc:creator>
          <cc:Agent>
            <dc:title>Alex Amies</dc:title>
          </cc:Agent>
        </dc:creator>
        <dc:rights>
          <cc:Agent>
            <dc:title>@ Alex Amies 2010</dc:title>
          </cc:Agent>
        </dc:rights>
        <dc:publisher>
          <cc:Agent>
            <dc:title>chinesenotes.com</dc:title>
          </cc:Agent>
        </dc:publisher>
        <dc:source>Yan Qin Ceremonial Inscription</dc:source>
        <dc:language>Chinese 中文</dc:language>
        <dc:description>Tracing from Tang Dynasty Ceremonial Inscription by Yan Zhenqing 颜真卿 (709－785)</dc:description>
        <cc:license
           rdf:resource="http://creativecommons.org/licenses/by/3.0/" />
      </cc:Work>
      <cc:License
         rdf:about="http://creativecommons.org/licenses/by/3.0/">
        <cc:permits
           rdf:resource="http://creativecommons.org/ns#Reproduction" />
        <cc:permits
           rdf:resource="http://creativecommons.org/ns#Distribution" />
        <cc:requires
           rdf:resource="http://creativecommons.org/ns#Notice" />
        <cc:requires
           rdf:resource="http://creativecommons.org/ns#Attribution" />
        <cc:permits
           rdf:resource="http://creativecommons.org/ns#DerivativeWorks" />
      </cc:License>
    </rdf:RDF>
  </metadata>
  <g
     inkscape:label="Layer 1"
     inkscape:groupmode="layer"
     id="layer1"
     transform="translate(0,-52.362183)">
    <g
       transform="matrix(4.7609464,0,0,4.7609464,-444.07486,-2879.5352)"
       id="g4634"
       style="fill:#000000;fill-opacity:1">
      <path
         style="fill:#000000;stroke:#000000;stroke-width:4.76094626999999980px;stroke-linecap:butt;stroke-linejoin:miter;stroke-opacity:1;fill-opacity:1"
         d="m 305.90625,107.78125 c -9.01102,0.0324 -18.1216,1.00432 -27.3125,2.9375 -53.34241,15.09258 -99.63249,43.1197 -151.34375,66.65625 -2.24574,12.58442 -4.46697,31.11597 10.53125,33.4375 23.21879,-1.33053 46.54675,-5.03342 69.53125,-10.1875 -1.98051,12.55497 7.9157,32.51315 6.90625,44.25 3.86828,64.68033 2.82789,129.48531 2.5625,194.25 -30.72034,10.54118 -61.24289,21.61007 -91.25,34.09375 -4.69691,7.80114 -19.24086,17.17715 -13.59375,23.8125 21.20211,24.91249 63.24668,37.50584 99.34375,38.53125 2.13357,-0.47714 4.25027,-1.00122 6.34375,-1.5625 0.96946,34.60498 2.9139,69.16924 6.75,103.6875 2.43427,24.56253 4.49342,49.30973 2.9375,74 1.13947,-0.23913 2.30891,-0.52473 3.46875,-0.78125 -53.67074,31.58761 -105.89909,64.47364 -156.25,102.375 -3.583612,24.5274 7.319211,39.86859 22.03125,64.28125 17.88588,28.80254 79.73321,23.14427 96.375,1.84375 C 258.62576,795.32912 324.72459,710.26439 402.21875,636.75 429.35414,609.86356 422.00805,600.09167 378,626.625 c -28.14087,16.21616 -56.01056,31.92201 -83.5625,47.59375 4.99185,-20.35961 1.1951,-41.86511 2.5,-62.6875 -3.86478,-39.79565 -3.88554,-79.4798 -2.4375,-119.125 27.34104,-21.78501 52.13649,-47.79958 77.46875,-70.3125 0.13521,-23.01608 -30.16716,-24.63899 -46.9375,-19.125 -8.7419,2.96498 -17.51905,5.90089 -26.28125,8.8125 2.87039,-47.37141 5.63049,-94.77181 4.28125,-142.34375 -15.43363,-31.34916 -45.69533,-52.90891 -73.1875,-74.34375 7.98523,-2.1218 15.9098,-4.37029 23.75,-6.75 26.28633,-13.27319 58.88048,-4.49241 85.375,-13.875 19.41928,-5.6412 61.8265,-42.1403 24.6875,-53.4375 -18.61179,-8.83263 -37.92576,-13.32139 -57.75,-13.25 z m 517.59375,8 c -27.59676,-0.29209 -56.94002,8.95072 -83.65625,12.1875 C 674,134.52981 614.23851,161.63647 552.3125,180.75 c 11.57896,25.89049 34.50912,27.44711 58.625,22.625 -3.02334,30.65901 -5.23677,63.55383 -6.84375,97.6875 -22.40345,7.28544 -44.94273,17.16873 -68.375,27.84375 -6.61395,25.43221 25.3798,16.17035 40,16 9.05099,-1.55338 17.97353,-3.64765 26.84375,-6 -1.42037,41.94301 -2.08911,85.15328 -2.25,127.90625 -1.11933,0.52922 -2.23325,1.09684 -3.34375,1.65625 -33.10022,11.37173 -68.95585,13.31889 -101.65625,25.6875 2.44616,-10.94798 1.96318,-24.42886 -0.5,-31.8125 C 482.67033,395.09162 474.93985,327.09378 461.875,260 c -10.44514,-23.96437 -23.89649,-46.39728 -42.46875,-64.9375 -11.17485,-12.28529 -24.0463,-22.82876 -37.125,-33 -3.58771,40.71047 4.87384,81.48194 12.28125,121.375 13.74366,55.85223 22.52761,113.09684 40.8125,167.71875 7.95697,20.52787 19.53335,41.7794 36.0625,55.9375 2.35177,1.74472 4.51096,2.89118 6.5,3.53125 -4.43913,29.31128 35.34881,31.29716 57.96875,20.8125 21.49046,-4.85773 42.96016,-9.92555 64.4375,-14.9375 0.13349,36.07168 0.534,71.07166 0.96875,104.40625 -21.57807,7.75735 -42.92656,16.04693 -63.34375,26.5 l -2.9375,1.65625 c -14.413,35.95457 40.65369,31.412 61.78125,25.75 2.14427,-1.20415 4.40162,-2.31281 6.75,-3.34375 -1.27681,36.77074 -8.0523,76.30331 12.40625,103.90625 -55.45279,11.60526 -110.54054,25.21555 -165.65625,37.90625 -1.13358,2.26716 -2.27272,4.54534 -3.40625,6.8125 C 553.10468,872.4036 681.36992,844.27535 796.875,842 c 33.0274,11.89494 87.79682,15.94621 85.65625,-34.125 8.92387,-51.80786 -49.69898,-62.77644 -88.46875,-59.09375 -33.06907,2.33178 -65.89846,6.42689 -98.53125,11.6875 9.4054,-19.47134 9.99757,-45.41635 -0.65625,-68.15625 -1.13685,-11.5263 -2.14133,-23.05183 -3.0625,-34.59375 43.52656,-1.98539 87.55284,-2.82732 110.65625,-19.75 8.99762,-23.49508 -7.2272,-48.31456 -32.125,-50.625 -27.67422,-3.43178 -55.76749,-2.04151 -82.8125,4.3125 -1.62386,-31.15872 -2.78119,-62.35896 -3.75,-93.5625 21.41108,-4.27712 42.89984,-8.11376 64.53125,-11.1875 11.65103,2.68935 23.30356,0.34049 30.75,-5.40625 14.97655,4.06275 31.41727,-1.27532 41.875,-21.84375 36.83025,-70.99138 56.59527,-149.94789 96.75,-219.5625 C 935.73225,200.04253 900.40144,162.71656 876.28125,134.75 860.43144,120.64929 842.38199,115.9811 823.5,115.78125 z m -21.09375,52.65625 c 4.73168,-0.0293 9.47478,0.0377 14.1875,0.21875 43.14398,25.55133 -23.60966,73.24269 -25.15625,111.5625 -16.68093,47.1547 -38.85786,93.73887 -45.90625,143.40625 -0.76312,3.36708 -1.16693,6.70383 -1.21875,9.96875 -11.65178,2.64386 -23.9807,7.70823 -34.4375,8.3125 -9.13463,1.5744 -18.36469,2.89742 -27.59375,4.25 -1.01784,-35.7956 -2.06826,-71.59458 -3.625,-107.34375 -0.4474,-5.93338 -0.49607,-12.47836 -0.34375,-19.375 3.49255,-0.54709 6.99607,-0.98497 10.53125,-1.34375 15.85033,-3.00601 49.40971,-3.99046 41,-19.5625 -6.86964,-12.72032 -34.03046,-8.89194 -50.34375,-9.5 1.52921,-39.99212 0.31846,-82.17506 -35.125,-94.71875 7.482,-2.23305 14.60641,-4.26725 21,-5.46875 44.78843,-10.46163 91.29167,-20.12316 137.03125,-20.40625 z"
         transform="matrix(0.21004227,0,0,0.21004227,93.274493,615.82239)"
         id="path4564"
         sodipodi:nodetypes="ccccccccscccccccscccccccccccccccccccccccccccccccccccccccccccccccccccccccccccccccccccccscccc" />
    </g>
  </g>
</svg>
