<?xml version="1.0" encoding="UTF-8" standalone="no"?>
<!-- Created with Inkscape (http://www.inkscape.org/) -->

<svg
   xmlns:dc="http://purl.org/dc/elements/1.1/"
   xmlns:cc="http://creativecommons.org/ns#"
   xmlns:rdf="http://www.w3.org/1999/02/22-rdf-syntax-ns#"
   xmlns:svg="http://www.w3.org/2000/svg"
   xmlns="http://www.w3.org/2000/svg"
   xmlns:sodipodi="http://sodipodi.sourceforge.net/DTD/sodipodi-0.dtd"
   xmlns:inkscape="http://www.inkscape.org/namespaces/inkscape"
   width="1000"
   height="1000"
   id="svg3173"
   version="1.1"
   inkscape:version="0.47 r22583"
   sodipodi:docname="7528.svg"
   inkscape:export-filename="E:\chinese\yan\7528.png"
   inkscape:export-xdpi="17.908815"
   inkscape:export-ydpi="17.908815">
  <title
     id="title2820">Ma</title>
  <defs
     id="defs3175">
    <inkscape:perspective
       sodipodi:type="inkscape:persp3d"
       inkscape:vp_x="0 : 526.18109 : 1"
       inkscape:vp_y="0 : 1000 : 0"
       inkscape:vp_z="744.09448 : 526.18109 : 1"
       inkscape:persp3d-origin="372.04724 : 350.78739 : 1"
       id="perspective3181" />
    <inkscape:perspective
       id="perspective3191"
       inkscape:persp3d-origin="0.5 : 0.33333333 : 1"
       inkscape:vp_z="1 : 0.5 : 1"
       inkscape:vp_y="0 : 1000 : 0"
       inkscape:vp_x="0 : 0.5 : 1"
       sodipodi:type="inkscape:persp3d" />
    <inkscape:perspective
       id="perspective4006"
       inkscape:persp3d-origin="0.5 : 0.33333333 : 1"
       inkscape:vp_z="1 : 0.5 : 1"
       inkscape:vp_y="0 : 1000 : 0"
       inkscape:vp_x="0 : 0.5 : 1"
       sodipodi:type="inkscape:persp3d" />
    <inkscape:perspective
       id="perspective4034"
       inkscape:persp3d-origin="0.5 : 0.33333333 : 1"
       inkscape:vp_z="1 : 0.5 : 1"
       inkscape:vp_y="0 : 1000 : 0"
       inkscape:vp_x="0 : 0.5 : 1"
       sodipodi:type="inkscape:persp3d" />
    <inkscape:perspective
       id="perspective4081"
       inkscape:persp3d-origin="0.5 : 0.33333333 : 1"
       inkscape:vp_z="1 : 0.5 : 1"
       inkscape:vp_y="0 : 1000 : 0"
       inkscape:vp_x="0 : 0.5 : 1"
       sodipodi:type="inkscape:persp3d" />
    <inkscape:perspective
       id="perspective4147"
       inkscape:persp3d-origin="0.5 : 0.33333333 : 1"
       inkscape:vp_z="1 : 0.5 : 1"
       inkscape:vp_y="0 : 1000 : 0"
       inkscape:vp_x="0 : 0.5 : 1"
       sodipodi:type="inkscape:persp3d" />
    <inkscape:perspective
       id="perspective3777"
       inkscape:persp3d-origin="0.5 : 0.33333333 : 1"
       inkscape:vp_z="1 : 0.5 : 1"
       inkscape:vp_y="0 : 1000 : 0"
       inkscape:vp_x="0 : 0.5 : 1"
       sodipodi:type="inkscape:persp3d" />
    <inkscape:perspective
       id="perspective3826"
       inkscape:persp3d-origin="0.5 : 0.33333333 : 1"
       inkscape:vp_z="1 : 0.5 : 1"
       inkscape:vp_y="0 : 1000 : 0"
       inkscape:vp_x="0 : 0.5 : 1"
       sodipodi:type="inkscape:persp3d" />
    <inkscape:perspective
       id="perspective3851"
       inkscape:persp3d-origin="0.5 : 0.33333333 : 1"
       inkscape:vp_z="1 : 0.5 : 1"
       inkscape:vp_y="0 : 1000 : 0"
       inkscape:vp_x="0 : 0.5 : 1"
       sodipodi:type="inkscape:persp3d" />
    <inkscape:perspective
       id="perspective3829"
       inkscape:persp3d-origin="0.5 : 0.33333333 : 1"
       inkscape:vp_z="1 : 0.5 : 1"
       inkscape:vp_y="0 : 1000 : 0"
       inkscape:vp_x="0 : 0.5 : 1"
       sodipodi:type="inkscape:persp3d" />
    <inkscape:perspective
       id="perspective6091"
       inkscape:persp3d-origin="0.5 : 0.33333333 : 1"
       inkscape:vp_z="1 : 0.5 : 1"
       inkscape:vp_y="0 : 1000 : 0"
       inkscape:vp_x="0 : 0.5 : 1"
       sodipodi:type="inkscape:persp3d" />
  </defs>
  <sodipodi:namedview
     id="base"
     pagecolor="#ffffff"
     bordercolor="#666666"
     borderopacity="1.0"
     inkscape:pageopacity="0.0"
     inkscape:pageshadow="2"
     inkscape:zoom="0.49497475"
     inkscape:cx="375.14357"
     inkscape:cy="509.40826"
     inkscape:document-units="px"
     inkscape:current-layer="g3809"
     showgrid="false"
     inkscape:window-width="1440"
     inkscape:window-height="840"
     inkscape:window-x="-4"
     inkscape:window-y="-4"
     inkscape:window-maximized="1" />
  <metadata
     id="metadata3178">
    <rdf:RDF>
      <cc:Work
         rdf:about="">
        <dc:format>image/svg+xml</dc:format>
        <dc:type
           rdf:resource="http://purl.org/dc/dcmitype/StillImage" />
        <dc:title>Ma</dc:title>
        <dc:date>2010-07-15</dc:date>
        <dc:creator>
          <cc:Agent>
            <dc:title>Alex Amies</dc:title>
          </cc:Agent>
        </dc:creator>
        <dc:rights>
          <cc:Agent>
            <dc:title>@ Alex Amies 2010</dc:title>
          </cc:Agent>
        </dc:rights>
        <dc:publisher>
          <cc:Agent>
            <dc:title>chinesenotes.com</dc:title>
          </cc:Agent>
        </dc:publisher>
        <dc:source>Yan Qin Ceremonial Inscription</dc:source>
        <dc:language>Chinese 中文</dc:language>
        <dc:description>Tracing from Tang Dynasty Ceremonial Inscription by Yan Zhenqing 颜真卿 (709－785)</dc:description>
        <cc:license
           rdf:resource="http://creativecommons.org/licenses/by/3.0/" />
      </cc:Work>
      <cc:License
         rdf:about="http://creativecommons.org/licenses/by/3.0/">
        <cc:permits
           rdf:resource="http://creativecommons.org/ns#Reproduction" />
        <cc:permits
           rdf:resource="http://creativecommons.org/ns#Distribution" />
        <cc:requires
           rdf:resource="http://creativecommons.org/ns#Notice" />
        <cc:requires
           rdf:resource="http://creativecommons.org/ns#Attribution" />
        <cc:permits
           rdf:resource="http://creativecommons.org/ns#DerivativeWorks" />
      </cc:License>
    </rdf:RDF>
  </metadata>
  <g
     inkscape:label="Layer 1"
     inkscape:groupmode="layer"
     id="layer1"
     transform="translate(0,-52.362183)">
    <g
       transform="matrix(4.7513766,0,0,4.7513766,-1572.319,-3933.7772)"
       id="g3809"
       style="fill:#000000;fill-opacity:1">
      <path
         style="fill:#000000;stroke:#000000;stroke-width:6.51303387000000010px;stroke-linecap:butt;stroke-linejoin:miter;stroke-opacity:1;fill-opacity:1"
         d="M 609.84375 54.90625 C 581.05341 55.064697 552.17049 59.116125 524.5625 65.96875 C 446.43744 96.999008 358.73369 107.98463 284.5 148.5 C 274.52327 138.79083 262.94693 130.48562 251.15625 122.625 C 205.49134 151.43378 223.30505 247.59942 227.71875 294.65625 C 243.10019 465.54635 253.01647 638.29035 230.21875 808.8125 C 218.92007 819.65372 207.93437 831.58455 211.625 848.25 C 222.42882 890.16902 298.83433 891.78729 303.3125 841.59375 C 309.85524 782.60541 307.95375 723.03312 312.15625 663.84375 C 302.67724 578.12589 319.92283 462.00724 324.125 355.84375 C 347.07731 365.53806 375.98282 369.88593 406.40625 370.5625 C 408.20138 409.5942 410.47654 448.61896 413.25 487.59375 C 380.87366 498.50817 348.10385 508.60901 313.96875 515.75 C 342.12393 536.37987 378.68267 544.62549 417.6875 544.65625 C 421.02333 584.10401 424.89624 623.49671 429.40625 662.78125 C 433.82128 709.81232 429.84393 757.24484 435.15625 804.21875 C 470.53894 824.81502 513.25815 602.63229 517.9375 575.75 C 517.60699 560.43553 517.40532 545.13317 517.28125 529.8125 C 552.46794 519.95294 585.59098 506.16992 612.21875 491.46875 C 635.42286 474.1994 620.13538 434.12009 593.34375 431.84375 C 567.38234 437.15831 542.16551 444.2368 517.28125 452.125 C 517.47848 421.26583 517.8139 390.39245 518.125 359.53125 C 531.92112 356.6431 544.70265 353.37155 555.875 349.9375 C 585.16899 347.36829 598.64148 306.60546 579 288.8125 C 559.10409 283.40579 538.91341 281.20873 518.65625 281.4375 C 518.70657 252.11129 518.5328 222.77288 517.9375 193.46875 C 514.47308 176.12865 503.61904 161.08775 496.90625 144.75 C 488.45189 120.23408 457.31502 134.98997 439.5625 141.25 C 409.33662 145.94959 399.49941 180.77932 401.4375 207.15625 C 401.94364 239.3081 402.72122 271.47428 403.78125 303.65625 C 376.7582 312.71027 350.30167 323.53272 324.8125 334.1875 C 325.91578 282.36284 323.14167 233.65716 311.65625 193 C 321.06532 192.36981 330.84789 187.5574 338.90625 177.625 C 384.99912 154.93285 434.02272 138.36826 482.46875 121.34375 C 530.15295 108.24715 580.58312 87.085189 630.3125 101.6875 C 650.9692 190.30086 653.71784 281.65179 660.28125 372.0625 C 656.63424 511.1705 642.16264 651.44308 627.53125 790.28125 C 627.53462 831.72656 571.4404 818.42324 545.34375 810 C 501.90928 782.14363 533.1764 836.86721 560.1875 864.96875 C 583.75476 883.40837 592.60844 923.59323 630.5 913.125 C 661.3075 908.38503 663.37193 905.03398 689.3125 886.28125 C 724.42916 874.0379 730.39803 838.2374 738.125 806.46875 C 749.89991 756.52969 761.33016 706.16973 767.78125 655.28125 C 764.16521 504.21993 762.5607 353.00411 762.875 201.90625 C 750.49686 145.25378 746.48277 94.560351 694.59375 67.125 C 667.33684 58.46267 638.63409 54.747803 609.84375 54.90625 z "
         transform="matrix(0.21046532,0,0,0.21046532,330.91862,838.9441)"
         id="path4020" />
    </g>
  </g>
</svg>
