<?xml version="1.0" encoding="UTF-8" standalone="no"?>
<!-- Created with Inkscape (http://www.inkscape.org/) -->

<svg
   xmlns:dc="http://purl.org/dc/elements/1.1/"
   xmlns:cc="http://creativecommons.org/ns#"
   xmlns:rdf="http://www.w3.org/1999/02/22-rdf-syntax-ns#"
   xmlns:svg="http://www.w3.org/2000/svg"
   xmlns="http://www.w3.org/2000/svg"
   xmlns:sodipodi="http://sodipodi.sourceforge.net/DTD/sodipodi-0.dtd"
   xmlns:inkscape="http://www.inkscape.org/namespaces/inkscape"
   width="1000"
   height="1000"
   id="svg3173"
   version="1.1"
   inkscape:version="0.47 r22583"
   sodipodi:docname="7530.svg"
   inkscape:export-filename="E:\chinese\yan\7530.png"
   inkscape:export-xdpi="18.005705"
   inkscape:export-ydpi="18.005705">
  <title
     id="title2820">Tian</title>
  <defs
     id="defs3175">
    <inkscape:perspective
       sodipodi:type="inkscape:persp3d"
       inkscape:vp_x="0 : 526.18109 : 1"
       inkscape:vp_y="0 : 1000 : 0"
       inkscape:vp_z="744.09448 : 526.18109 : 1"
       inkscape:persp3d-origin="372.04724 : 350.78739 : 1"
       id="perspective3181" />
    <inkscape:perspective
       id="perspective3191"
       inkscape:persp3d-origin="0.5 : 0.33333333 : 1"
       inkscape:vp_z="1 : 0.5 : 1"
       inkscape:vp_y="0 : 1000 : 0"
       inkscape:vp_x="0 : 0.5 : 1"
       sodipodi:type="inkscape:persp3d" />
    <inkscape:perspective
       id="perspective4006"
       inkscape:persp3d-origin="0.5 : 0.33333333 : 1"
       inkscape:vp_z="1 : 0.5 : 1"
       inkscape:vp_y="0 : 1000 : 0"
       inkscape:vp_x="0 : 0.5 : 1"
       sodipodi:type="inkscape:persp3d" />
    <inkscape:perspective
       id="perspective4034"
       inkscape:persp3d-origin="0.5 : 0.33333333 : 1"
       inkscape:vp_z="1 : 0.5 : 1"
       inkscape:vp_y="0 : 1000 : 0"
       inkscape:vp_x="0 : 0.5 : 1"
       sodipodi:type="inkscape:persp3d" />
    <inkscape:perspective
       id="perspective4081"
       inkscape:persp3d-origin="0.5 : 0.33333333 : 1"
       inkscape:vp_z="1 : 0.5 : 1"
       inkscape:vp_y="0 : 1000 : 0"
       inkscape:vp_x="0 : 0.5 : 1"
       sodipodi:type="inkscape:persp3d" />
    <inkscape:perspective
       id="perspective4147"
       inkscape:persp3d-origin="0.5 : 0.33333333 : 1"
       inkscape:vp_z="1 : 0.5 : 1"
       inkscape:vp_y="0 : 1000 : 0"
       inkscape:vp_x="0 : 0.5 : 1"
       sodipodi:type="inkscape:persp3d" />
    <inkscape:perspective
       id="perspective3865"
       inkscape:persp3d-origin="0.5 : 0.33333333 : 1"
       inkscape:vp_z="1 : 0.5 : 1"
       inkscape:vp_y="0 : 1000 : 0"
       inkscape:vp_x="0 : 0.5 : 1"
       sodipodi:type="inkscape:persp3d" />
  </defs>
  <sodipodi:namedview
     id="base"
     pagecolor="#ffffff"
     bordercolor="#666666"
     borderopacity="1.0"
     inkscape:pageopacity="0.0"
     inkscape:pageshadow="2"
     inkscape:zoom="0.49497475"
     inkscape:cx="634.73747"
     inkscape:cy="505.8642"
     inkscape:document-units="px"
     inkscape:current-layer="g5024"
     showgrid="false"
     inkscape:window-width="1440"
     inkscape:window-height="840"
     inkscape:window-x="-4"
     inkscape:window-y="-4"
     inkscape:window-maximized="1" />
  <metadata
     id="metadata3178">
    <rdf:RDF>
      <cc:Work
         rdf:about="">
        <dc:format>image/svg+xml</dc:format>
        <dc:type
           rdf:resource="http://purl.org/dc/dcmitype/StillImage" />
        <dc:title>Tian</dc:title>
        <dc:date>2010-08-07</dc:date>
        <dc:creator>
          <cc:Agent>
            <dc:title>Alex Amies</dc:title>
          </cc:Agent>
        </dc:creator>
        <dc:rights>
          <cc:Agent>
            <dc:title>@ Alex Amies 2010</dc:title>
          </cc:Agent>
        </dc:rights>
        <dc:publisher>
          <cc:Agent>
            <dc:title>chinesenotes.com</dc:title>
          </cc:Agent>
        </dc:publisher>
        <dc:source>Yan Qin Ceremonial Inscription</dc:source>
        <dc:language>Chinese 中文</dc:language>
        <dc:description>Tracing from Tang Dynasty Ceremonial Inscription by Yan Zhenqing 颜真卿 (709－785)</dc:description>
        <cc:license
           rdf:resource="http://creativecommons.org/licenses/by/3.0/" />
      </cc:Work>
      <cc:License
         rdf:about="http://creativecommons.org/licenses/by/3.0/">
        <cc:permits
           rdf:resource="http://creativecommons.org/ns#Reproduction" />
        <cc:permits
           rdf:resource="http://creativecommons.org/ns#Distribution" />
        <cc:requires
           rdf:resource="http://creativecommons.org/ns#Notice" />
        <cc:requires
           rdf:resource="http://creativecommons.org/ns#Attribution" />
        <cc:permits
           rdf:resource="http://creativecommons.org/ns#DerivativeWorks" />
      </cc:License>
    </rdf:RDF>
  </metadata>
  <g
     inkscape:label="Layer 1"
     inkscape:groupmode="layer"
     id="layer1"
     transform="translate(0,-52.362183)">
    <g
       transform="matrix(4.7217936,0,0,4.7217936,-2374.5113,-1910.7159)"
       id="g5024"
       style="fill:none;fill-opacity:1;stroke:#000000;stroke-opacity:1">
      <path
         style="fill:#000000;stroke:#000000;stroke-width:4.75137663000000020px;stroke-linecap:butt;stroke-linejoin:miter;stroke-opacity:1;fill-opacity:1"
         d="M 802.5 168.34375 C 743.46946 191.28926 677.89987 186.10049 614.96875 194.875 C 516.48597 215.99402 412.66615 217.14238 314.28125 231.21875 C 274.94285 231.13329 282.30186 278.21357 316.4375 281.375 C 355.71492 274.17746 394.80435 265.76829 434 257.125 C 431.23897 298.9278 428.96491 363.37178 428.375 430.625 C 364.02998 444.79881 296.69439 450.91618 239.625 482.375 C 237.02403 484.15074 234.34196 486.36585 231.90625 488.875 C 220.41103 427.74119 210.85246 366.36153 207.5 304.34375 C 210.09236 280.23352 222.94014 248.63946 198.6875 231.09375 C 185.99508 219.85418 169.16646 217.96522 153.0625 215.96875 C 129.07291 201.85871 118.69779 230.22764 125.125 249.59375 C 184.46274 436.31963 167.55263 645.46502 255.5 823.28125 C 267.62835 842.27802 298.45674 871.02352 317.4375 844.59375 C 331.88109 826.24245 322.10451 800.81349 305.875 787.25 C 295.49097 774.9232 289.47451 760.03767 284.59375 744.6875 C 395.08172 726.61251 446.72133 718.26678 561.78125 737.21875 C 570.02907 739.16841 578.75583 742.68168 587.5625 745.59375 C 587.15267 771.29314 583.22092 797.29659 592.625 821.65625 C 615.5656 853.12261 661.04629 828.25129 678.96875 803.03125 C 737.61461 737.47854 748.98672 647.01336 775.4375 566.40625 C 798.43613 486.02598 820.59904 404.88885 828.09375 321.34375 C 828.95137 288.8538 850.88803 263.05198 856.9375 232.1875 C 863.12272 198.36128 830.30759 177.32569 802.5 168.34375 z M 706.25 206.34375 C 733.41345 206.21384 759.38005 215.62153 753.9375 250 C 721.02427 387.75715 681.09393 535.20911 631.125 668.9375 C 601.71604 649.50357 563.21178 650.98815 529.09375 650.53125 C 515.40795 652.22645 500.81059 653.25675 485.65625 653.9375 C 497.36925 596.37727 494.94465 530.81624 496.5 470.3125 C 521.38793 461.67444 546.91493 454.90492 574.03125 452.375 C 587.08304 447.65798 603.17848 462.8357 613.1875 449.75 C 628.79931 415.89833 585.05676 396.73301 561.625 381.375 C 546.54765 372.42054 535.02156 388.03806 525.09375 396.90625 C 516.50727 401.65187 507.7054 405.81386 498.71875 409.53125 C 502.09482 358.85374 508.02097 283.54653 491.1875 244.46875 C 551.67918 231.19929 612.7894 218.53068 675.625 209.96875 C 684.80783 207.92753 695.62082 206.39458 706.25 206.34375 z M 428.40625 497.21875 C 429.01619 558.00793 431.35812 615.68314 436.40625 655.28125 C 381.5184 656.20188 324.26895 656.65778 278.65625 669.03125 C 275.37355 670.13035 271.76222 671.55915 268.1875 673.28125 C 259.51443 625.47606 249.42271 577.74936 239.90625 529.9375 C 249.79085 535.16882 261.8176 536.67642 272.96875 536.53125 C 310.46772 540.05541 348.60829 528.46318 383.75 514.71875 C 398.86072 509.32997 413.67002 503.31002 428.40625 497.21875 z "
         transform="matrix(0.21178393,0,0,0.21178393,502.88333,415.74839)"
         id="path7327" />
    </g>
  </g>
</svg>
