<?xml version="1.0" encoding="UTF-8" standalone="no"?>
<!-- Created with Inkscape (http://www.inkscape.org/) -->

<svg
   xmlns:dc="http://purl.org/dc/elements/1.1/"
   xmlns:cc="http://creativecommons.org/ns#"
   xmlns:rdf="http://www.w3.org/1999/02/22-rdf-syntax-ns#"
   xmlns:svg="http://www.w3.org/2000/svg"
   xmlns="http://www.w3.org/2000/svg"
   xmlns:sodipodi="http://sodipodi.sourceforge.net/DTD/sodipodi-0.dtd"
   xmlns:inkscape="http://www.inkscape.org/namespaces/inkscape"
   width="1000"
   height="1000"
   id="svg3173"
   version="1.1"
   inkscape:version="0.47 r22583"
   sodipodi:docname="7531.svg"
   inkscape:export-filename="E:\chinese\yan\7531.png"
   inkscape:export-xdpi="18.005705"
   inkscape:export-ydpi="18.005705">
  <title
     id="title3631">You</title>
  <defs
     id="defs3175">
    <inkscape:perspective
       sodipodi:type="inkscape:persp3d"
       inkscape:vp_x="0 : 526.18109 : 1"
       inkscape:vp_y="0 : 1000 : 0"
       inkscape:vp_z="744.09448 : 526.18109 : 1"
       inkscape:persp3d-origin="372.04724 : 350.78739 : 1"
       id="perspective3181" />
    <inkscape:perspective
       id="perspective3191"
       inkscape:persp3d-origin="0.5 : 0.33333333 : 1"
       inkscape:vp_z="1 : 0.5 : 1"
       inkscape:vp_y="0 : 1000 : 0"
       inkscape:vp_x="0 : 0.5 : 1"
       sodipodi:type="inkscape:persp3d" />
    <inkscape:perspective
       id="perspective4006"
       inkscape:persp3d-origin="0.5 : 0.33333333 : 1"
       inkscape:vp_z="1 : 0.5 : 1"
       inkscape:vp_y="0 : 1000 : 0"
       inkscape:vp_x="0 : 0.5 : 1"
       sodipodi:type="inkscape:persp3d" />
    <inkscape:perspective
       id="perspective4034"
       inkscape:persp3d-origin="0.5 : 0.33333333 : 1"
       inkscape:vp_z="1 : 0.5 : 1"
       inkscape:vp_y="0 : 1000 : 0"
       inkscape:vp_x="0 : 0.5 : 1"
       sodipodi:type="inkscape:persp3d" />
    <inkscape:perspective
       id="perspective4081"
       inkscape:persp3d-origin="0.5 : 0.33333333 : 1"
       inkscape:vp_z="1 : 0.5 : 1"
       inkscape:vp_y="0 : 1000 : 0"
       inkscape:vp_x="0 : 0.5 : 1"
       sodipodi:type="inkscape:persp3d" />
    <inkscape:perspective
       id="perspective4147"
       inkscape:persp3d-origin="0.5 : 0.33333333 : 1"
       inkscape:vp_z="1 : 0.5 : 1"
       inkscape:vp_y="0 : 1000 : 0"
       inkscape:vp_x="0 : 0.5 : 1"
       sodipodi:type="inkscape:persp3d" />
    <inkscape:perspective
       id="perspective3865"
       inkscape:persp3d-origin="0.5 : 0.33333333 : 1"
       inkscape:vp_z="1 : 0.5 : 1"
       inkscape:vp_y="0 : 1000 : 0"
       inkscape:vp_x="0 : 0.5 : 1"
       sodipodi:type="inkscape:persp3d" />
    <inkscape:perspective
       id="perspective3889"
       inkscape:persp3d-origin="0.5 : 0.33333333 : 1"
       inkscape:vp_z="1 : 0.5 : 1"
       inkscape:vp_y="0 : 1000 : 0"
       inkscape:vp_x="0 : 0.5 : 1"
       sodipodi:type="inkscape:persp3d" />
  </defs>
  <sodipodi:namedview
     id="base"
     pagecolor="#ffffff"
     bordercolor="#666666"
     borderopacity="1.0"
     inkscape:pageopacity="0.0"
     inkscape:pageshadow="2"
     inkscape:zoom="0.49497475"
     inkscape:cx="725.6512"
     inkscape:cy="516.00712"
     inkscape:document-units="px"
     inkscape:current-layer="g5024"
     showgrid="false"
     inkscape:window-width="1440"
     inkscape:window-height="840"
     inkscape:window-x="-4"
     inkscape:window-y="-4"
     inkscape:window-maximized="1" />
  <metadata
     id="metadata3178">
    <rdf:RDF>
      <cc:Work
         rdf:about="">
        <dc:format>image/svg+xml</dc:format>
        <dc:type
           rdf:resource="http://purl.org/dc/dcmitype/StillImage" />
        <dc:title>You</dc:title>
        <dc:date>2010-08-07</dc:date>
        <dc:creator>
          <cc:Agent>
            <dc:title>Alex Amies</dc:title>
          </cc:Agent>
        </dc:creator>
        <dc:rights>
          <cc:Agent>
            <dc:title>@ Alex Amies 2010</dc:title>
          </cc:Agent>
        </dc:rights>
        <dc:publisher>
          <cc:Agent>
            <dc:title>chinesenotes.com</dc:title>
          </cc:Agent>
        </dc:publisher>
        <dc:source>Yan Qin Ceremonial Inscription</dc:source>
        <dc:language>Chinese 中文</dc:language>
        <dc:description>Tracing from Tang Dynasty Ceremonial Inscription by Yan Zhenqing 颜真卿 (709－785)</dc:description>
        <cc:license
           rdf:resource="http://creativecommons.org/licenses/by/3.0/" />
      </cc:Work>
      <cc:License
         rdf:about="http://creativecommons.org/licenses/by/3.0/">
        <cc:permits
           rdf:resource="http://creativecommons.org/ns#Reproduction" />
        <cc:permits
           rdf:resource="http://creativecommons.org/ns#Distribution" />
        <cc:requires
           rdf:resource="http://creativecommons.org/ns#Notice" />
        <cc:requires
           rdf:resource="http://creativecommons.org/ns#Attribution" />
        <cc:permits
           rdf:resource="http://creativecommons.org/ns#DerivativeWorks" />
      </cc:License>
    </rdf:RDF>
  </metadata>
  <g
     inkscape:label="Layer 1"
     inkscape:groupmode="layer"
     id="layer1"
     transform="translate(0,-52.362183)">
    <g
       transform="matrix(4.7217936,0,0,4.7217936,-2374.5113,-1910.7159)"
       id="g5024"
       style="fill:none;fill-opacity:1;stroke:#000000;stroke-opacity:1">
      <g
         transform="matrix(1.0103187,0,0,1.0103187,-2.923122,-231.1172)"
         id="g3850">
        <path
           style="fill:#000000;stroke:#000000;stroke-width:4.77051640000000000px;stroke-linecap:butt;stroke-linejoin:miter;stroke-opacity:1;fill-opacity:1"
           d="M 480.3125 69.84375 C 470.11194 70.04602 460.32527 75.83635 452 83.4375 L 436.8125 97.0625 C 435.14379 126.89454 433.60384 168.29981 432.4375 215.5625 C 393.07128 219.07047 353.88237 222.63793 315.53125 228.125 C 276.03438 228.03913 283.44564 275.29454 317.71875 278.46875 C 355.75863 271.49798 393.60915 263.38509 431.5625 255.03125 C 430.53066 309.87952 430.04998 370.01449 430.4375 428.25 C 365.73899 442.53007 297.98535 448.64481 240.59375 480.28125 C 237.9823 482.06414 235.28927 484.26199 232.84375 486.78125 C 221.30428 425.40927 211.70927 363.79058 208.34375 301.53125 C 210.94654 277.32388 223.85034 245.58512 199.5 227.96875 C 186.75647 216.6839 169.85631 214.78577 153.6875 212.78125 C 129.60126 198.61439 119.17187 227.1184 125.625 246.5625 C 185.20174 434.0406 168.22961 644.02998 256.53125 822.5625 C 268.70847 841.63579 299.66154 870.47374 318.71875 843.9375 C 333.22055 825.51229 323.41989 799.99315 307.125 786.375 C 296.70296 774.00311 290.64948 759.06225 285.75 743.65625 C 396.6799 725.50895 448.54067 717.09691 564.0625 736.125 C 572.34609 738.08312 581.09256 741.63819 589.9375 744.5625 C 589.52469 770.36046 585.55988 796.48454 595 820.9375 C 618.03301 852.53063 663.72412 827.54036 681.71875 802.21875 C 740.60085 736.40194 752.00518 645.55681 778.5625 564.625 C 801.65376 483.92093 823.91258 402.47541 831.4375 318.59375 C 832.29858 285.97296 854.33243 260.0513 860.40625 229.0625 C 866.61637 195.1 833.63834 173.98689 805.71875 164.96875 C 746.45043 188.00667 680.65338 182.81514 617.46875 191.625 C 580.27746 199.60046 542.32231 204.72061 504.1875 208.78125 C 504.46328 149.15641 499.86526 91.979503 480.3125 69.84375 z M 709.09375 203.125 C 736.36663 202.99457 762.43324 212.45179 756.96875 246.96875 C 723.92281 385.28144 683.82674 533.32619 633.65625 667.59375 C 604.1305 648.09072 565.46908 649.55242 531.21875 649.09375 C 516.93069 650.86355 501.67989 651.94336 485.8125 652.625 C 495.54445 595.27517 496.82593 531.44093 497.40625 468.53125 C 522.74185 459.67539 548.71904 452.73359 576.34375 450.15625 C 589.44812 445.42022 605.60692 460.63838 615.65625 447.5 C 631.33093 413.51193 587.40114 394.26363 563.875 378.84375 C 548.73691 369.85323 537.18655 385.56482 527.21875 394.46875 C 517.73824 399.70848 507.9923 404.24529 498.03125 408.25 C 498.22016 395.54331 498.46794 382.97676 498.875 370.625 C 497.90389 346.6975 502.16372 294.23406 503.6875 239.125 C 560.99273 226.64398 618.89154 214.85093 678.34375 206.75 C 687.56358 204.70055 698.42175 203.17604 709.09375 203.125 z M 431.3125 494.71875 C 432.57267 557.22732 435.11092 613.73589 439.40625 653.84375 C 383.91603 654.78259 325.92543 655.16986 279.78125 667.6875 C 276.48852 668.78996 272.86693 670.21075 269.28125 671.9375 C 260.57234 623.93444 250.39949 576.04101 240.84375 528.03125 C 250.77278 533.29422 262.85717 534.80211 274.0625 534.65625 C 311.71251 538.19459 349.99799 526.51857 385.28125 512.71875 C 400.85812 507.16373 416.12616 501.00294 431.3125 494.71875 z "
           transform="matrix(0.20962091,0,0,0.20962091,500.6405,640.25895)"
           id="path7327" />
      </g>
    </g>
  </g>
</svg>
