<?xml version="1.0" encoding="UTF-8" standalone="no"?>
<!-- Created with Inkscape (http://www.inkscape.org/) -->

<svg
   xmlns:dc="http://purl.org/dc/elements/1.1/"
   xmlns:cc="http://creativecommons.org/ns#"
   xmlns:rdf="http://www.w3.org/1999/02/22-rdf-syntax-ns#"
   xmlns:svg="http://www.w3.org/2000/svg"
   xmlns="http://www.w3.org/2000/svg"
   xmlns:sodipodi="http://sodipodi.sourceforge.net/DTD/sodipodi-0.dtd"
   xmlns:inkscape="http://www.inkscape.org/namespaces/inkscape"
   width="1000"
   height="1000"
   id="svg3173"
   version="1.1"
   inkscape:version="0.47 r22583"
   sodipodi:docname="7537.svg"
   inkscape:export-filename="E:\chinese\yan\7537.png"
   inkscape:export-xdpi="18.005705"
   inkscape:export-ydpi="18.005705">
  <title
     id="title2829">Nan</title>
  <defs
     id="defs3175">
    <inkscape:perspective
       sodipodi:type="inkscape:persp3d"
       inkscape:vp_x="0 : 526.18109 : 1"
       inkscape:vp_y="0 : 1000 : 0"
       inkscape:vp_z="744.09448 : 526.18109 : 1"
       inkscape:persp3d-origin="372.04724 : 350.78739 : 1"
       id="perspective3181" />
    <inkscape:perspective
       id="perspective3191"
       inkscape:persp3d-origin="0.5 : 0.33333333 : 1"
       inkscape:vp_z="1 : 0.5 : 1"
       inkscape:vp_y="0 : 1000 : 0"
       inkscape:vp_x="0 : 0.5 : 1"
       sodipodi:type="inkscape:persp3d" />
    <inkscape:perspective
       id="perspective4006"
       inkscape:persp3d-origin="0.5 : 0.33333333 : 1"
       inkscape:vp_z="1 : 0.5 : 1"
       inkscape:vp_y="0 : 1000 : 0"
       inkscape:vp_x="0 : 0.5 : 1"
       sodipodi:type="inkscape:persp3d" />
    <inkscape:perspective
       id="perspective4034"
       inkscape:persp3d-origin="0.5 : 0.33333333 : 1"
       inkscape:vp_z="1 : 0.5 : 1"
       inkscape:vp_y="0 : 1000 : 0"
       inkscape:vp_x="0 : 0.5 : 1"
       sodipodi:type="inkscape:persp3d" />
    <inkscape:perspective
       id="perspective4081"
       inkscape:persp3d-origin="0.5 : 0.33333333 : 1"
       inkscape:vp_z="1 : 0.5 : 1"
       inkscape:vp_y="0 : 1000 : 0"
       inkscape:vp_x="0 : 0.5 : 1"
       sodipodi:type="inkscape:persp3d" />
    <inkscape:perspective
       id="perspective4147"
       inkscape:persp3d-origin="0.5 : 0.33333333 : 1"
       inkscape:vp_z="1 : 0.5 : 1"
       inkscape:vp_y="0 : 1000 : 0"
       inkscape:vp_x="0 : 0.5 : 1"
       sodipodi:type="inkscape:persp3d" />
    <inkscape:perspective
       id="perspective3797"
       inkscape:persp3d-origin="0.5 : 0.33333333 : 1"
       inkscape:vp_z="1 : 0.5 : 1"
       inkscape:vp_y="0 : 1000 : 0"
       inkscape:vp_x="0 : 0.5 : 1"
       sodipodi:type="inkscape:persp3d" />
    <inkscape:perspective
       id="perspective3104"
       inkscape:persp3d-origin="0.5 : 0.33333333 : 1"
       inkscape:vp_z="1 : 0.5 : 1"
       inkscape:vp_y="0 : 1000 : 0"
       inkscape:vp_x="0 : 0.5 : 1"
       sodipodi:type="inkscape:persp3d" />
    <inkscape:perspective
       id="perspective3140"
       inkscape:persp3d-origin="0.5 : 0.33333333 : 1"
       inkscape:vp_z="1 : 0.5 : 1"
       inkscape:vp_y="0 : 1000 : 0"
       inkscape:vp_x="0 : 0.5 : 1"
       sodipodi:type="inkscape:persp3d" />
    <inkscape:perspective
       id="perspective3799"
       inkscape:persp3d-origin="0.5 : 0.33333333 : 1"
       inkscape:vp_z="1 : 0.5 : 1"
       inkscape:vp_y="0 : 1000 : 0"
       inkscape:vp_x="0 : 0.5 : 1"
       sodipodi:type="inkscape:persp3d" />
    <inkscape:perspective
       id="perspective3835"
       inkscape:persp3d-origin="0.5 : 0.33333333 : 1"
       inkscape:vp_z="1 : 0.5 : 1"
       inkscape:vp_y="0 : 1000 : 0"
       inkscape:vp_x="0 : 0.5 : 1"
       sodipodi:type="inkscape:persp3d" />
  </defs>
  <sodipodi:namedview
     id="base"
     pagecolor="#ffffff"
     bordercolor="#666666"
     borderopacity="1.0"
     inkscape:pageopacity="0.0"
     inkscape:pageshadow="2"
     inkscape:zoom="0.49497475"
     inkscape:cx="637.59461"
     inkscape:cy="519.65337"
     inkscape:document-units="px"
     inkscape:current-layer="g5879"
     showgrid="false"
     inkscape:window-width="1440"
     inkscape:window-height="840"
     inkscape:window-x="-4"
     inkscape:window-y="-4"
     inkscape:window-maximized="1" />
  <metadata
     id="metadata3178">
    <rdf:RDF>
      <cc:Work
         rdf:about="">
        <dc:format>image/svg+xml</dc:format>
        <dc:type
           rdf:resource="http://purl.org/dc/dcmitype/StillImage" />
        <dc:title>Nan</dc:title>
        <dc:date>2010-08-12</dc:date>
        <dc:creator>
          <cc:Agent>
            <dc:title>Alex Amies</dc:title>
          </cc:Agent>
        </dc:creator>
        <dc:rights>
          <cc:Agent>
            <dc:title>@ Alex Amies 2010</dc:title>
          </cc:Agent>
        </dc:rights>
        <dc:publisher>
          <cc:Agent>
            <dc:title>chinesenotes.com</dc:title>
          </cc:Agent>
        </dc:publisher>
        <dc:source>Yan Qin Ceremonial Inscription</dc:source>
        <dc:language>Chinese 中文</dc:language>
        <dc:description>Tracing from Tang Dynasty Ceremonial Inscription by Yan Zhenqing 颜真卿 (709－785)</dc:description>
        <cc:license
           rdf:resource="http://creativecommons.org/licenses/by/3.0/" />
      </cc:Work>
      <cc:License
         rdf:about="http://creativecommons.org/licenses/by/3.0/">
        <cc:permits
           rdf:resource="http://creativecommons.org/ns#Reproduction" />
        <cc:permits
           rdf:resource="http://creativecommons.org/ns#Distribution" />
        <cc:requires
           rdf:resource="http://creativecommons.org/ns#Notice" />
        <cc:requires
           rdf:resource="http://creativecommons.org/ns#Attribution" />
        <cc:permits
           rdf:resource="http://creativecommons.org/ns#DerivativeWorks" />
      </cc:License>
    </rdf:RDF>
  </metadata>
  <g
     inkscape:label="Layer 1"
     inkscape:groupmode="layer"
     id="layer1"
     transform="translate(0,-52.362183)">
    <path
       style="fill:#000000;stroke:#000000;stroke-width:4.73223686000000040px;stroke-linecap:butt;stroke-linejoin:miter;stroke-opacity:1;fill-opacity:1"
       d="m 369.84328,287.58699 0,0 z"
       id="path5819" />
    <g
       transform="matrix(4.7322369,0,0,4.7322369,-536.04205,-3955.5633)"
       id="g5879"
       style="fill:#000000;fill-opacity:1">
      <g
         transform="matrix(1.0040445,0,0,1.0040445,-396.72232,193.25354)"
         id="g4598"
         style="fill:none;fill-opacity:1">
        <path
           style="fill:#000000;stroke:#000000;stroke-width:4.75137663000000020px;stroke-linecap:butt;stroke-linejoin:miter;stroke-opacity:1;fill-opacity:1"
           d="M 698.78125 22.09375 C 695.24284 22.043604 692.09945 24.228942 689.6875 29.84375 C 682.52661 46.513717 663.30314 47.659114 648.53125 49 C 594.09663 53.941194 539.21577 56.234405 485.21875 64.40625 C 468.04409 67.005443 449.4194 67.042361 434.53125 77.1875 C 430.59692 79.868464 425.67817 81.192998 422.125 84.28125 C 416.45034 89.213416 408.30142 94.836212 406.84375 101.25 C 405.47322 107.28026 408.34203 117.84449 413.65625 121.59375 C 419.33058 125.59711 426.74071 126.70013 434.625 126.71875 C 433.10919 132.45328 432.48718 138.57608 433.1875 144.1875 C 436.10724 167.5822 437.85985 191.10087 439.5625 214.625 C 410.97743 223.44493 382.49195 232.57475 354.25 242.09375 C 352.16358 242.79698 349.83084 243.65066 347.65625 244.6875 C 341.15322 231.72218 332.43066 219.62163 325.78125 206.6875 C 311.7846 179.46173 294.52762 153.92119 278.3125 128.1875 C 275.50315 123.729 271.47562 125.56618 267.59375 125.625 C 262.54052 125.7015 257.17591 125.18502 252.4375 126.6875 C 245.3369 128.93941 233.73983 130.32794 232.0625 136.875 C 226.98542 156.69195 244.9004 179.66186 253.15625 200.34375 C 274.53792 253.9072 287.58081 310.42047 309.5 363.71875 C 314.79408 376.59165 319.04682 390.80551 327.09375 401.59375 C 328.0382 402.85993 329.1077 404.13234 330.28125 405.375 C 311.52419 410.48499 292.33415 415.42571 276.1875 423.65625 C 270.83607 426.38406 265.10925 435.89177 267.71875 440.625 C 275.08224 453.98102 297.04548 454.31111 313.5625 450.75 C 341.74462 444.67389 369.25776 435.30902 397.09375 427.625 C 409.57852 424.17861 421.99878 420.54623 434.4375 416.90625 C 422.71945 437.1502 413.36144 459.77787 397.65625 476.96875 C 331.06262 549.86204 257.87059 617.53027 187.1875 687 C 173.95705 700.00333 154.90239 711.52463 147.21875 725.71875 C 144.14352 731.39973 153.6274 735.007 161.0625 732.21875 C 170.71064 728.60058 182.59895 729.96157 191.3125 724.59375 C 230.44655 700.48588 270.63172 676.71675 306.5 648 C 343.94522 618.02067 380.44415 585.67304 412.5625 550.125 C 445.52285 513.64502 477.03618 473.59205 501.875 432.15625 C 505.57627 425.98184 506.13375 414.75808 501.875 410.09375 C 498.90985 406.8462 494.66035 403.77858 489.875 401.15625 C 498.13262 398.96182 506.40225 396.856 514.71875 394.90625 C 540.73886 388.80601 567.75134 386.07636 592.4375 375.3125 C 597.13146 373.2658 600.65938 369.40236 604 365.40625 C 613.15946 366.8738 624.39218 366.13287 633.53125 366.0625 C 649.86164 365.93659 664.40052 358.08843 678.40625 351.125 C 691.61479 344.55793 699.57624 327.99276 704.5 313.875 C 722.35216 262.68776 744.58006 212.55903 758.65625 160.5 C 763.11328 144.01624 766.33142 126.55339 761.21875 109.21875 C 754.76686 87.343555 749.94563 65.780233 731.96875 49.875 C 723.55917 42.434523 709.39647 22.244189 698.78125 22.09375 z M 675.59375 80.6875 C 679.9483 80.543297 682.77344 81.781875 682.59375 85.46875 C 680.69187 124.49014 658.33804 169.25493 642.40625 209.9375 C 626.04265 251.72267 609.22757 293.50166 595.53125 336.1875 C 595.17404 337.30076 594.7009 338.52126 594.1875 339.75 C 563.75205 345.38383 533.45472 352.6248 503.375 360.4375 C 503.48599 359.29917 503.56579 358.15388 503.5625 357.03125 C 503.45932 321.90379 503.83713 286.77439 503.09375 251.65625 C 520.01137 248.98831 536.69123 246.00736 552.78125 242.09375 C 558.64597 240.66724 561.99744 232.84257 561.78125 225.96875 C 561.63016 221.16264 564.97169 215.52336 562.96875 211.53125 C 559.15083 203.92173 552.18544 193.71599 544.3125 191.1875 C 534.30154 187.97234 520.44982 190.48704 509.21875 193.75 C 506.58416 194.51542 503.94699 195.29229 501.3125 196.0625 C 501.08439 184.69128 500.82997 173.32606 499.3125 162.09375 C 497.7111 150.24044 498.68802 136.61944 493.40625 126.6875 C 492.71507 125.3878 491.88607 124.1112 490.96875 122.84375 C 507.63165 121.15968 524.20278 118.7977 540.65625 115.34375 C 574.31144 108.27883 608.14004 101.81335 640.8125 90.84375 C 649.10711 88.058867 666.01374 81.004746 675.59375 80.6875 z M 443.1875 260.78125 C 443.81564 267.5446 444.50043 274.28208 445.28125 281.03125 C 448.68205 310.42645 448.11292 341.09515 454.375 369.34375 C 454.62456 370.46952 454.94002 371.6414 455.34375 372.8125 C 428.89933 379.33829 402.37538 385.55422 376.0625 392.53125 C 376.45646 384.5921 375.04239 375.85841 373.78125 368.09375 C 369.11559 339.36817 365.85711 310.08466 359.5 281.71875 C 364.77422 281.96313 370.14612 281.70562 374.625 281.125 C 389.48089 279.19917 403.04941 268.40796 418.125 265.34375 C 426.40433 263.66093 434.77519 262.17533 443.1875 260.78125 z "
           transform="matrix(0.21046533,0,0,0.21046533,507.94251,651.05428)"
           id="path4565" />
        <path
           style="fill:#000000;stroke:#000000;stroke-width:4.75137663000000020px;stroke-linecap:butt;stroke-linejoin:miter;stroke-opacity:1;fill-opacity:1"
           d="m 581.0625,444.90625 c -1.00362,-0.0336 -1.95168,0.21746 -2.8125,0.8125 -20.20789,13.96895 -19.6763,51.68811 -34.65625,76.09375 -5.53833,9.02315 -10.40817,18.44642 -15.03125,28.03125 -21.33563,0.92764 -42.66447,1.85371 -64,2.78125 -6.78767,7.91898 -22.18925,15.4112 -20.375,23.75 3.74244,17.20132 33.71928,18.38805 53.25,18.09375 3.61601,-0.48546 7.22812,-1.00405 10.84375,-1.5 -5.804,11.69149 -12.09385,23.07932 -19.625,33.71875 -30.75528,43.44858 -59.17474,89.08934 -94.3125,129 -37.83835,42.9781 -76.7317,85.48812 -117.96875,125.125 -12.59281,12.10418 -32.00452,17.90598 -38.75,35.09375 -6.99403,17.82104 21.83145,17.71651 34.8125,7.0625 36.81519,-30.21567 75.14589,-61.53799 112.125,-93.03125 24.83915,-21.15427 47.90313,-44.03545 69,-69.03125 27.02298,-32.0172 53.6387,-64.32388 76.09375,-99.75 17.36688,-27.3988 37.76771,-52.73469 56.375,-79.25 33.80992,-4.89226 67.63026,-9.7092 101.5,-13.75 l 29.875,3.125 c -13.541,38.1822 -24.98604,77.32464 -45.15625,112.75 -19.21989,37.18019 -35.38093,76.17046 -57.25,111.84375 -20.09357,28.71855 -38.43217,58.95497 -59.90625,86.53125 -6.23803,2.91525 -11.89434,14.34396 -18.53125,11.34375 -14.39924,-5.04758 -29.7526,-26.81177 -40.4375,-26.4375 -3.50998,19.04756 7.07764,36.38066 11.125,54.625 6.25946,19.64015 10.0926,40.32359 14.875,60.03125 15.75115,12.78776 36.42752,1.31366 50.59375,-8.65625 21.10224,-20.52922 47.31076,-36.4737 62.0625,-62.75 C 654.91982,881.27083 677.80372,853.65389 695.75,823 c 20.91333,-42.09696 42.50291,-83.98542 57.78125,-128.5625 14.96969,-40.06403 35.5464,-76.44083 43.25,-120.90625 3.33523,-19.2511 -9.08997,-43.62186 -29.96875,-53.25 -21.83343,-16.58273 -47.03777,-3.93261 -71.09375,-0.65625 -27.89566,3.31936 -51.9528,19.50536 -78.65625,26.375 -2.6253,0.11414 -5.2497,0.22961 -7.875,0.34375 11.98905,-18.76306 26.11038,-39.81878 16.53125,-60.03125 -5.4972,-11.59935 -17.21738,-20.24914 -27.125,-28.71875 -4.99165,-4.26715 -12.11169,-12.50612 -17.53125,-12.6875 z"
           transform="matrix(0.21046533,0,0,0.21046533,507.94251,651.05428)"
           id="path4575"
           sodipodi:nodetypes="cssccsccssssssssccccccccccccccsccccssc" />
      </g>
    </g>
    <path
       style="fill:#000000;stroke:#000000;stroke-width:4.73223686000000040px;stroke-linecap:butt;stroke-linejoin:miter;stroke-opacity:1;fill-opacity:1"
       d="m 594.62455,556.31042 0,0 z"
       id="path5837" />
  </g>
</svg>
