<?xml version="1.0" encoding="UTF-8" standalone="no"?>
<!-- Created with Inkscape (http://www.inkscape.org/) -->

<svg
   xmlns:dc="http://purl.org/dc/elements/1.1/"
   xmlns:cc="http://creativecommons.org/ns#"
   xmlns:rdf="http://www.w3.org/1999/02/22-rdf-syntax-ns#"
   xmlns:svg="http://www.w3.org/2000/svg"
   xmlns="http://www.w3.org/2000/svg"
   xmlns:sodipodi="http://sodipodi.sourceforge.net/DTD/sodipodi-0.dtd"
   xmlns:inkscape="http://www.inkscape.org/namespaces/inkscape"
   width="1000"
   height="1000"
   id="svg3173"
   version="1.1"
   inkscape:version="0.47 r22583"
   sodipodi:docname="76bf.svg"
   inkscape:export-filename="E:\chinese\yan\76bf.png"
   inkscape:export-xdpi="18.005705"
   inkscape:export-ydpi="18.005705">
  <title
     id="title6091">Min</title>
  <defs
     id="defs3175">
    <inkscape:perspective
       sodipodi:type="inkscape:persp3d"
       inkscape:vp_x="0 : 526.18109 : 1"
       inkscape:vp_y="0 : 1000 : 0"
       inkscape:vp_z="744.09448 : 526.18109 : 1"
       inkscape:persp3d-origin="372.04724 : 350.78739 : 1"
       id="perspective3181" />
    <inkscape:perspective
       id="perspective3191"
       inkscape:persp3d-origin="0.5 : 0.33333333 : 1"
       inkscape:vp_z="1 : 0.5 : 1"
       inkscape:vp_y="0 : 1000 : 0"
       inkscape:vp_x="0 : 0.5 : 1"
       sodipodi:type="inkscape:persp3d" />
    <inkscape:perspective
       id="perspective4006"
       inkscape:persp3d-origin="0.5 : 0.33333333 : 1"
       inkscape:vp_z="1 : 0.5 : 1"
       inkscape:vp_y="0 : 1000 : 0"
       inkscape:vp_x="0 : 0.5 : 1"
       sodipodi:type="inkscape:persp3d" />
    <inkscape:perspective
       id="perspective4034"
       inkscape:persp3d-origin="0.5 : 0.33333333 : 1"
       inkscape:vp_z="1 : 0.5 : 1"
       inkscape:vp_y="0 : 1000 : 0"
       inkscape:vp_x="0 : 0.5 : 1"
       sodipodi:type="inkscape:persp3d" />
    <inkscape:perspective
       id="perspective4081"
       inkscape:persp3d-origin="0.5 : 0.33333333 : 1"
       inkscape:vp_z="1 : 0.5 : 1"
       inkscape:vp_y="0 : 1000 : 0"
       inkscape:vp_x="0 : 0.5 : 1"
       sodipodi:type="inkscape:persp3d" />
    <inkscape:perspective
       id="perspective4147"
       inkscape:persp3d-origin="0.5 : 0.33333333 : 1"
       inkscape:vp_z="1 : 0.5 : 1"
       inkscape:vp_y="0 : 1000 : 0"
       inkscape:vp_x="0 : 0.5 : 1"
       sodipodi:type="inkscape:persp3d" />
    <inkscape:perspective
       id="perspective3797"
       inkscape:persp3d-origin="0.5 : 0.33333333 : 1"
       inkscape:vp_z="1 : 0.5 : 1"
       inkscape:vp_y="0 : 1000 : 0"
       inkscape:vp_x="0 : 0.5 : 1"
       sodipodi:type="inkscape:persp3d" />
    <inkscape:perspective
       id="perspective3104"
       inkscape:persp3d-origin="0.5 : 0.33333333 : 1"
       inkscape:vp_z="1 : 0.5 : 1"
       inkscape:vp_y="0 : 1000 : 0"
       inkscape:vp_x="0 : 0.5 : 1"
       sodipodi:type="inkscape:persp3d" />
    <inkscape:perspective
       id="perspective3140"
       inkscape:persp3d-origin="0.5 : 0.33333333 : 1"
       inkscape:vp_z="1 : 0.5 : 1"
       inkscape:vp_y="0 : 1000 : 0"
       inkscape:vp_x="0 : 0.5 : 1"
       sodipodi:type="inkscape:persp3d" />
    <inkscape:perspective
       id="perspective3799"
       inkscape:persp3d-origin="0.5 : 0.33333333 : 1"
       inkscape:vp_z="1 : 0.5 : 1"
       inkscape:vp_y="0 : 1000 : 0"
       inkscape:vp_x="0 : 0.5 : 1"
       sodipodi:type="inkscape:persp3d" />
    <inkscape:perspective
       id="perspective3835"
       inkscape:persp3d-origin="0.5 : 0.33333333 : 1"
       inkscape:vp_z="1 : 0.5 : 1"
       inkscape:vp_y="0 : 1000 : 0"
       inkscape:vp_x="0 : 0.5 : 1"
       sodipodi:type="inkscape:persp3d" />
    <inkscape:perspective
       id="perspective3862"
       inkscape:persp3d-origin="0.5 : 0.33333333 : 1"
       inkscape:vp_z="1 : 0.5 : 1"
       inkscape:vp_y="0 : 1000 : 0"
       inkscape:vp_x="0 : 0.5 : 1"
       sodipodi:type="inkscape:persp3d" />
    <inkscape:perspective
       id="perspective3895"
       inkscape:persp3d-origin="0.5 : 0.33333333 : 1"
       inkscape:vp_z="1 : 0.5 : 1"
       inkscape:vp_y="0 : 1000 : 0"
       inkscape:vp_x="0 : 0.5 : 1"
       sodipodi:type="inkscape:persp3d" />
    <inkscape:perspective
       id="perspective3921"
       inkscape:persp3d-origin="0.5 : 0.33333333 : 1"
       inkscape:vp_z="1 : 0.5 : 1"
       inkscape:vp_y="0 : 1000 : 0"
       inkscape:vp_x="0 : 0.5 : 1"
       sodipodi:type="inkscape:persp3d" />
    <inkscape:perspective
       id="perspective3945"
       inkscape:persp3d-origin="0.5 : 0.33333333 : 1"
       inkscape:vp_z="1 : 0.5 : 1"
       inkscape:vp_y="0 : 1000 : 0"
       inkscape:vp_x="0 : 0.5 : 1"
       sodipodi:type="inkscape:persp3d" />
    <inkscape:perspective
       id="perspective3975"
       inkscape:persp3d-origin="0.5 : 0.33333333 : 1"
       inkscape:vp_z="1 : 0.5 : 1"
       inkscape:vp_y="0 : 1000 : 0"
       inkscape:vp_x="0 : 0.5 : 1"
       sodipodi:type="inkscape:persp3d" />
  </defs>
  <sodipodi:namedview
     id="base"
     pagecolor="#ffffff"
     bordercolor="#666666"
     borderopacity="1.0"
     inkscape:pageopacity="0.0"
     inkscape:pageshadow="2"
     inkscape:zoom="0.49497475"
     inkscape:cx="637.59461"
     inkscape:cy="519.65337"
     inkscape:document-units="px"
     inkscape:current-layer="g5879"
     showgrid="false"
     inkscape:window-width="1440"
     inkscape:window-height="840"
     inkscape:window-x="-4"
     inkscape:window-y="-4"
     inkscape:window-maximized="1" />
  <metadata
     id="metadata3178">
    <rdf:RDF>
      <cc:Work
         rdf:about="">
        <dc:format>image/svg+xml</dc:format>
        <dc:type
           rdf:resource="http://purl.org/dc/dcmitype/StillImage" />
        <dc:title>Min</dc:title>
        <dc:date>2010-08-12</dc:date>
        <dc:creator>
          <cc:Agent>
            <dc:title>Alex Amies</dc:title>
          </cc:Agent>
        </dc:creator>
        <dc:rights>
          <cc:Agent>
            <dc:title>@ Alex Amies 2010</dc:title>
          </cc:Agent>
        </dc:rights>
        <dc:publisher>
          <cc:Agent>
            <dc:title>chinesenotes.com</dc:title>
          </cc:Agent>
        </dc:publisher>
        <dc:source>Yan Qin Ceremonial Inscription</dc:source>
        <dc:language>Chinese 中文</dc:language>
        <dc:description>Tracing from Tang Dynasty Ceremonial Inscription by Yan Zhenqing 颜真卿 (709－785)</dc:description>
        <cc:license
           rdf:resource="http://creativecommons.org/licenses/by/3.0/" />
      </cc:Work>
      <cc:License
         rdf:about="http://creativecommons.org/licenses/by/3.0/">
        <cc:permits
           rdf:resource="http://creativecommons.org/ns#Reproduction" />
        <cc:permits
           rdf:resource="http://creativecommons.org/ns#Distribution" />
        <cc:requires
           rdf:resource="http://creativecommons.org/ns#Notice" />
        <cc:requires
           rdf:resource="http://creativecommons.org/ns#Attribution" />
        <cc:permits
           rdf:resource="http://creativecommons.org/ns#DerivativeWorks" />
      </cc:License>
    </rdf:RDF>
  </metadata>
  <g
     inkscape:label="Layer 1"
     inkscape:groupmode="layer"
     id="layer1"
     transform="translate(0,-52.362183)">
    <path
       style="fill:#000000;stroke:#000000;stroke-width:4.73223686000000040px;stroke-linecap:butt;stroke-linejoin:miter;stroke-opacity:1;fill-opacity:1"
       d="m 369.84328,287.58699 0,0 z"
       id="path5819" />
    <g
       transform="matrix(4.7322369,0,0,4.7322369,-536.04205,-3955.5633)"
       id="g5879"
       style="fill:#000000;fill-opacity:1">
      <path
         style="fill:#000000;fill-opacity:1;stroke:#000000;stroke-width:0.98308867px;stroke-linecap:butt;stroke-linejoin:miter;stroke-opacity:1"
         d="m 267.29001,960.36986 c -0.34435,0.0127 -0.70718,0.0936 -1.083,0.25094 -1.63315,0.68383 -3.35681,0.65494 -3.2688,3.12352 0.12041,3.37803 -4.76257,4.59791 -7.62721,5.22348 -5.50673,1.20253 -11.10608,2.26974 -16.81948,2.26505 -15.71541,-0.19338 -31.61232,1.34738 -45.77645,8.54512 -2.15239,1.20878 -2.98457,4.08214 -3.35465,6.78194 -0.42745,3.1184 3.28553,3.83193 5.40838,4.04143 2.70732,-0.32702 5.40552,-0.74805 8.09607,-1.24809 -1.41037,8.5604 -0.85294,18.26875 -0.60754,26.63245 0.59019,0.595 1.2603,1.2885 1.96789,1.8755 -3.42538,0.7957 -6.8434,1.644 -10.26206,2.5028 -0.83938,-5.464 -3.06109,-11.3056 -5.14424,-16.7469 -2.5784,-7.97048 -4.48295,-16.72249 -12.60635,-20.68259 -1.81837,-0.708 -4.33604,0.15119 -6.31969,0.70659 -0.9422,0.2639 -2.21179,0.89447 -2.45655,1.75657 -0.47278,1.6651 0.54952,3.81077 1.42638,5.56687 1.85835,3.7217 4.11147,7.23348 6.43195,10.66486 2.7408,5.437 3.29107,11.6419 5.52065,17.3148 0.53559,1.6839 1.53894,3.0299 2.81315,4.0018 -3.04991,0.7415 -6.10385,1.451 -9.17246,2.1065 -7.51105,1.3203 -15.18283,1.3213 -22.76276,1.4198 -1.4882,0.019 -4.77245,-0.7868 -4.91971,0.601 -0.11346,1.0692 -0.20578,2.317 0.29716,3.2622 2.0638,3.8786 5.51234,9.1853 10.53281,8.8885 6.33684,-0.3746 12.21831,0.2197 18.37134,-2.4104 8.85167,-3.7837 19.6711,-5.0704 29.68337,-5.4216 22.87502,0.095 46.13164,-3.261 68.73732,1.3868 5.16577,1.2276 11.76121,2.4635 15.92798,0.3632 4.13109,-2.0824 5.65829,-10.5835 2.05373,-15.0101 -3.65821,-4.4925 -10.45202,-4.9492 -16.09307,-5.1442 -4.09158,-0.1415 -8.18766,-0.1089 -12.28278,-0.013 0.6338,-0.9418 1.20932,-1.9488 1.84242,-2.8528 3.15883,-4.5103 7.13293,-8.7909 9.02718,-13.84123 2.25402,-6.0094 4.0578,-12.99857 4.10746,-19.23641 0.0341,-4.28674 -2.25704,-9.21165 -5.87724,-12.22995 -1.70832,-1.4243 -3.40081,-4.53333 -5.8112,-4.44425 z m -14.55443,15.97421 c 2.29344,-0.0202 4.29646,0.66765 3.69804,3.2556 -2.22652,9.62875 -5.69131,19.05583 -7.92437,28.69283 -0.36405,1.5711 -1.01444,3.4843 -0.31698,4.8405 0.0619,0.1203 0.1293,0.2315 0.19811,0.3434 -1.23514,0.036 -2.46973,0.068 -3.70464,0.092 -4.70038,-0.3575 -9.33666,-0.3334 -13.92708,-0.026 0.0793,-0.2818 0.14415,-0.5648 0.17829,-0.8585 2.03503,-8.4971 5.52548,-16.36977 6.36592,-25.17967 -0.14695,-2.41529 -0.96106,-4.77285 -2.44996,-6.55742 4.51425,-1.35644 9.02028,-2.70899 13.51766,-3.94898 1.09208,-0.29635 2.79581,-0.63993 4.36501,-0.65376 z m -25.56931,6.89421 c -0.64503,1.05107 -1.14699,2.15931 -1.44619,3.20937 -0.68843,5.3769 0.34017,11.11457 -0.11227,16.63455 -0.30344,3.7023 -1.38046,7.531 -1.60468,11.114 -4.57477,0.5656 -9.11387,1.3703 -13.62992,2.3112 0.71912,-1.2541 1.11477,-2.7883 1.32073,-4.2065 0.48679,-6.9849 0.795,-14.01828 1.4528,-21.00618 0.12867,-1.3669 0.90238,-3.15943 0.93772,-4.43104 4.37635,-1.1062 8.73552,-2.34449 13.08181,-3.6254 z"
         id="path5329" />
    </g>
    <path
       style="fill:#000000;stroke:#000000;stroke-width:4.73223686000000040px;stroke-linecap:butt;stroke-linejoin:miter;stroke-opacity:1;fill-opacity:1"
       d="m 594.62455,556.31042 0,0 z"
       id="path5837" />
  </g>
</svg>
