<?xml version="1.0" encoding="UTF-8" standalone="no"?>
<!-- Created with Inkscape (http://www.inkscape.org/) -->

<svg
   xmlns:dc="http://purl.org/dc/elements/1.1/"
   xmlns:cc="http://creativecommons.org/ns#"
   xmlns:rdf="http://www.w3.org/1999/02/22-rdf-syntax-ns#"
   xmlns:svg="http://www.w3.org/2000/svg"
   xmlns="http://www.w3.org/2000/svg"
   xmlns:sodipodi="http://sodipodi.sourceforge.net/DTD/sodipodi-0.dtd"
   xmlns:inkscape="http://www.inkscape.org/namespaces/inkscape"
   width="1000"
   height="1000"
   id="svg3173"
   version="1.1"
   inkscape:version="0.47 r22583"
   sodipodi:docname="76c8.svg"
   inkscape:export-filename="E:\chinese\yan\76c8.png"
   inkscape:export-xdpi="18.005705"
   inkscape:export-ydpi="18.005705">
  <title
     id="title4898">Ying</title>
  <defs
     id="defs3175">
    <inkscape:perspective
       sodipodi:type="inkscape:persp3d"
       inkscape:vp_x="0 : 526.18109 : 1"
       inkscape:vp_y="0 : 1000 : 0"
       inkscape:vp_z="744.09448 : 526.18109 : 1"
       inkscape:persp3d-origin="372.04724 : 350.78739 : 1"
       id="perspective3181" />
    <inkscape:perspective
       id="perspective3191"
       inkscape:persp3d-origin="0.5 : 0.33333333 : 1"
       inkscape:vp_z="1 : 0.5 : 1"
       inkscape:vp_y="0 : 1000 : 0"
       inkscape:vp_x="0 : 0.5 : 1"
       sodipodi:type="inkscape:persp3d" />
    <inkscape:perspective
       id="perspective4006"
       inkscape:persp3d-origin="0.5 : 0.33333333 : 1"
       inkscape:vp_z="1 : 0.5 : 1"
       inkscape:vp_y="0 : 1000 : 0"
       inkscape:vp_x="0 : 0.5 : 1"
       sodipodi:type="inkscape:persp3d" />
    <inkscape:perspective
       id="perspective4034"
       inkscape:persp3d-origin="0.5 : 0.33333333 : 1"
       inkscape:vp_z="1 : 0.5 : 1"
       inkscape:vp_y="0 : 1000 : 0"
       inkscape:vp_x="0 : 0.5 : 1"
       sodipodi:type="inkscape:persp3d" />
    <inkscape:perspective
       id="perspective4081"
       inkscape:persp3d-origin="0.5 : 0.33333333 : 1"
       inkscape:vp_z="1 : 0.5 : 1"
       inkscape:vp_y="0 : 1000 : 0"
       inkscape:vp_x="0 : 0.5 : 1"
       sodipodi:type="inkscape:persp3d" />
    <inkscape:perspective
       id="perspective4147"
       inkscape:persp3d-origin="0.5 : 0.33333333 : 1"
       inkscape:vp_z="1 : 0.5 : 1"
       inkscape:vp_y="0 : 1000 : 0"
       inkscape:vp_x="0 : 0.5 : 1"
       sodipodi:type="inkscape:persp3d" />
    <inkscape:perspective
       id="perspective3797"
       inkscape:persp3d-origin="0.5 : 0.33333333 : 1"
       inkscape:vp_z="1 : 0.5 : 1"
       inkscape:vp_y="0 : 1000 : 0"
       inkscape:vp_x="0 : 0.5 : 1"
       sodipodi:type="inkscape:persp3d" />
    <inkscape:perspective
       id="perspective3104"
       inkscape:persp3d-origin="0.5 : 0.33333333 : 1"
       inkscape:vp_z="1 : 0.5 : 1"
       inkscape:vp_y="0 : 1000 : 0"
       inkscape:vp_x="0 : 0.5 : 1"
       sodipodi:type="inkscape:persp3d" />
    <inkscape:perspective
       id="perspective3140"
       inkscape:persp3d-origin="0.5 : 0.33333333 : 1"
       inkscape:vp_z="1 : 0.5 : 1"
       inkscape:vp_y="0 : 1000 : 0"
       inkscape:vp_x="0 : 0.5 : 1"
       sodipodi:type="inkscape:persp3d" />
    <inkscape:perspective
       id="perspective3799"
       inkscape:persp3d-origin="0.5 : 0.33333333 : 1"
       inkscape:vp_z="1 : 0.5 : 1"
       inkscape:vp_y="0 : 1000 : 0"
       inkscape:vp_x="0 : 0.5 : 1"
       sodipodi:type="inkscape:persp3d" />
    <inkscape:perspective
       id="perspective3835"
       inkscape:persp3d-origin="0.5 : 0.33333333 : 1"
       inkscape:vp_z="1 : 0.5 : 1"
       inkscape:vp_y="0 : 1000 : 0"
       inkscape:vp_x="0 : 0.5 : 1"
       sodipodi:type="inkscape:persp3d" />
    <inkscape:perspective
       id="perspective3862"
       inkscape:persp3d-origin="0.5 : 0.33333333 : 1"
       inkscape:vp_z="1 : 0.5 : 1"
       inkscape:vp_y="0 : 1000 : 0"
       inkscape:vp_x="0 : 0.5 : 1"
       sodipodi:type="inkscape:persp3d" />
    <inkscape:perspective
       id="perspective3895"
       inkscape:persp3d-origin="0.5 : 0.33333333 : 1"
       inkscape:vp_z="1 : 0.5 : 1"
       inkscape:vp_y="0 : 1000 : 0"
       inkscape:vp_x="0 : 0.5 : 1"
       sodipodi:type="inkscape:persp3d" />
    <inkscape:perspective
       id="perspective3921"
       inkscape:persp3d-origin="0.5 : 0.33333333 : 1"
       inkscape:vp_z="1 : 0.5 : 1"
       inkscape:vp_y="0 : 1000 : 0"
       inkscape:vp_x="0 : 0.5 : 1"
       sodipodi:type="inkscape:persp3d" />
    <inkscape:perspective
       id="perspective3945"
       inkscape:persp3d-origin="0.5 : 0.33333333 : 1"
       inkscape:vp_z="1 : 0.5 : 1"
       inkscape:vp_y="0 : 1000 : 0"
       inkscape:vp_x="0 : 0.5 : 1"
       sodipodi:type="inkscape:persp3d" />
    <inkscape:perspective
       id="perspective3975"
       inkscape:persp3d-origin="0.5 : 0.33333333 : 1"
       inkscape:vp_z="1 : 0.5 : 1"
       inkscape:vp_y="0 : 1000 : 0"
       inkscape:vp_x="0 : 0.5 : 1"
       sodipodi:type="inkscape:persp3d" />
  </defs>
  <sodipodi:namedview
     id="base"
     pagecolor="#ffffff"
     bordercolor="#666666"
     borderopacity="1.0"
     inkscape:pageopacity="0.0"
     inkscape:pageshadow="2"
     inkscape:zoom="0.49497475"
     inkscape:cx="637.59461"
     inkscape:cy="519.65337"
     inkscape:document-units="px"
     inkscape:current-layer="g5879"
     showgrid="false"
     inkscape:window-width="1440"
     inkscape:window-height="840"
     inkscape:window-x="-4"
     inkscape:window-y="-4"
     inkscape:window-maximized="1" />
  <metadata
     id="metadata3178">
    <rdf:RDF>
      <cc:Work
         rdf:about="">
        <dc:format>image/svg+xml</dc:format>
        <dc:type
           rdf:resource="http://purl.org/dc/dcmitype/StillImage" />
        <dc:title>Ying</dc:title>
        <dc:date>2010-08-12</dc:date>
        <dc:creator>
          <cc:Agent>
            <dc:title>Alex Amies</dc:title>
          </cc:Agent>
        </dc:creator>
        <dc:rights>
          <cc:Agent>
            <dc:title>@ Alex Amies 2010</dc:title>
          </cc:Agent>
        </dc:rights>
        <dc:publisher>
          <cc:Agent>
            <dc:title>chinesenotes.com</dc:title>
          </cc:Agent>
        </dc:publisher>
        <dc:source>Yan Qin Ceremonial Inscription</dc:source>
        <dc:language>Chinese 中文</dc:language>
        <dc:description>Tracing from Tang Dynasty Ceremonial Inscription by Yan Zhenqing 颜真卿 (709－785)</dc:description>
        <cc:license
           rdf:resource="http://creativecommons.org/licenses/by/3.0/" />
      </cc:Work>
      <cc:License
         rdf:about="http://creativecommons.org/licenses/by/3.0/">
        <cc:permits
           rdf:resource="http://creativecommons.org/ns#Reproduction" />
        <cc:permits
           rdf:resource="http://creativecommons.org/ns#Distribution" />
        <cc:requires
           rdf:resource="http://creativecommons.org/ns#Notice" />
        <cc:requires
           rdf:resource="http://creativecommons.org/ns#Attribution" />
        <cc:permits
           rdf:resource="http://creativecommons.org/ns#DerivativeWorks" />
      </cc:License>
    </rdf:RDF>
  </metadata>
  <g
     inkscape:label="Layer 1"
     inkscape:groupmode="layer"
     id="layer1"
     transform="translate(0,-52.362183)">
    <path
       style="fill:#000000;stroke:#000000;stroke-width:4.73223686000000040px;stroke-linecap:butt;stroke-linejoin:miter;stroke-opacity:1;fill-opacity:1"
       d="m 369.84328,287.58699 0,0 z"
       id="path5819" />
    <g
       transform="matrix(4.7322369,0,0,4.7322369,-536.04205,-3955.5633)"
       id="g5879"
       style="fill:#000000;fill-opacity:1">
      <path
         style="fill:#000000;stroke:#000000;stroke-width:4.65220832999999970px;stroke-linecap:butt;stroke-linejoin:miter;stroke-opacity:1;fill-opacity:1"
         d="M 666.125 7.125 C 662.17327 7.0549688 658.28205 8.0695117 656.28125 10.65625 C 633.89853 39.593973 615.36825 76.22927 599.625 111.25 C 584.39458 145.13002 572.4269 180.83976 561.375 216.25 C 559.2993 222.90064 557.33931 230.68156 558.5625 237.15625 C 559.32619 241.19886 561.6163 248.26675 564.90625 248.25 C 571.73586 248.21687 584.0694 244.73091 589.625 237.9375 C 608.57666 214.76364 621.28621 185.33626 642.96875 165.15625 C 668.07568 141.78917 700.20099 125.33835 730.65625 108.34375 C 735.26119 105.7741 744.50536 104.63335 744.34375 100.375 C 743.92826 89.426639 735.89862 74.297631 726.96875 63.65625 C 712.3901 43.036663 696.50162 22.297964 674.5625 9 C 672.32176 7.9026505 669.19857 7.1794687 666.125 7.125 z M 580.75 92 C 580.14656 92.032817 579.53732 92.094546 578.90625 92.1875 C 521.30892 100.67155 459.95733 93.49455 401 99.40625 C 360.11376 103.50593 318.88171 109.74436 279.125 118.65625 C 270.4943 120.59084 257.87639 124.19868 255.84375 131.9375 C 250.20037 153.42403 250.87837 188.6191 268.90625 205.46875 C 286.51987 221.93126 313.00647 209.29663 334.6875 201.21875 C 402.19177 176.06809 468.991 148.76366 537.28125 125.90625 C 552.78193 120.71801 568.29748 113.09606 585 115.3125 C 604.69773 117.92641 599.45654 90.982664 580.75 92 z M 428.65625 226.65625 C 410.30449 229.77219 405.18038 256.13466 395.53125 272 C 362.70935 325.96695 326.78651 378.0497 292.125 430.875 C 234.07167 519.35032 165.35313 603.70442 116.28125 695.1875 C 104.35104 717.42849 143.29413 687.80208 153.15625 681.78125 C 212.07951 632.74283 272.96832 578.56693 317.3125 515.125 C 325.43217 502.41686 333.52752 489.6425 341.71875 476.9375 C 351.81996 484.23967 366.19755 485.19075 377.15625 491.21875 C 390.51423 496.27249 403.80904 501.48325 417.09375 506.75 C 396.09873 542.3216 374.56944 575.83412 367.1875 603.8125 C 367.24997 613.86529 389.27106 594.16772 398 585.09375 C 418.16666 565.61439 435.83499 543.77191 451.375 520.40625 C 469.26109 527.54167 487.16244 534.62872 505.15625 541.4375 C 492.89104 565.04793 480.66832 588.69733 465.9375 610.71875 C 456.90976 624.21462 431.24815 641.21353 435.28125 648.65625 C 440.09744 657.5441 468.34808 636.41123 483.3125 627.84375 C 506.38102 606.46272 525.07809 580.21311 541.6875 552.59375 C 568.86529 556.67108 595.97089 561.40508 623.21875 564.75 C 608.9159 587.80571 593.53742 610.5981 589.8125 633.71875 C 586.97657 651.32149 613.48208 628.26312 620.90625 620.46875 C 707.09349 522.49351 743.22553 430.24521 700.6875 300.34375 C 685.72123 278.21501 669.50915 249.67993 649.625 238.28125 C 640.91456 233.28798 625.75299 244.06459 616.40625 249.90625 C 613.46143 261.79652 600.74707 268.13351 596.46875 278.15625 C 605.9947 298.51059 640.66191 310.48109 653.15625 332.15625 C 675.15492 392.07359 667.66439 460.08564 645.90625 519.8125 C 640.97241 514.31836 635.01289 509.85615 628 507.5 C 611.03667 501.2823 594.34278 494.28782 577.625 487.375 C 577.82872 486.99107 578.04642 486.60216 578.25 486.21875 C 591.5182 449.14286 620.4881 408.42923 613.9375 367.28125 C 613.82251 349.14074 600.28127 333.65658 583.15625 328 C 571.43403 326.60659 554.69274 334.20051 544.96875 342.9375 C 531.07637 355.41972 553.3845 374.28724 554.8125 390.8125 C 553.32164 417.8455 549.38094 446.38629 540.09375 472.46875 C 533.73119 470.11845 527.33134 467.86588 520.875 465.78125 C 509.51457 462.99887 498.12792 460.35234 486.71875 457.75 C 496.97546 436.29345 505.89953 414.23981 513.71875 392.09375 C 515.57947 385.32424 519.59032 376.50213 516.71875 371.1875 C 508.02686 359.8749 492.78738 350.24019 478.5 354.59375 C 471.85826 359.48887 465.95749 368.57017 464.9375 378.4375 C 465.32784 401.40325 458.31818 425.18049 447.84375 448.875 C 428.93727 444.47454 410.06493 439.86035 391.40625 434.53125 C 385.63243 432.52299 379.86757 430.50827 374.09375 428.5 C 383.4185 415.2432 393.07038 402.24768 403.21875 389.625 C 420.36345 368.30026 441.32967 350.21669 460.4375 330.78125 C 478.92223 311.97955 470.42808 285.41844 462.96875 262.03125 C 457.09481 247.59192 443.0971 232.32907 428.65625 226.65625 z "
         transform="matrix(0.21131656,0,0,0.21131656,113.27456,846.94101)"
         id="path5315" />
      <path
         style="fill:#000000;stroke:#000000;stroke-width:4.65220832999999970px;stroke-linecap:butt;stroke-linejoin:miter;stroke-opacity:1;fill-opacity:1"
         d="M 745 621.625 C 743.37049 621.68522 741.65346 622.06783 739.875 622.8125 C 732.14655 626.04855 723.98981 625.91184 724.40625 637.59375 C 724.97606 653.57939 701.86866 659.35215 688.3125 662.3125 C 662.25335 668.00311 635.75591 673.05344 608.71875 673.03125 C 534.34971 672.11613 459.12177 679.40734 392.09375 713.46875 C 381.90813 719.18898 377.97006 732.78641 376.21875 745.5625 C 374.19596 760.31951 391.76667 763.6961 401.8125 764.6875 C 414.62414 763.13997 427.39266 761.14756 440.125 758.78125 C 433.45082 799.29107 436.0887 845.23353 437.25 884.8125 C 440.04292 887.62818 443.21402 890.90974 446.5625 893.6875 C 430.35277 897.45291 414.1779 901.46753 398 905.53125 C 394.02787 879.67434 383.51422 852.03068 373.65625 826.28125 C 361.45465 788.56296 352.44185 747.14638 314 728.40625 C 305.39504 725.05583 293.48085 729.12172 284.09375 731.75 C 279.63504 732.99884 273.62701 735.98284 272.46875 740.0625 C 270.23144 747.94215 275.06924 758.09597 279.21875 766.40625 C 288.0129 784.01822 298.67519 800.6368 309.65625 816.875 C 322.62636 842.60417 325.23035 871.96699 335.78125 898.8125 C 338.31581 906.78148 343.0639 913.15079 349.09375 917.75 C 334.66086 921.25909 320.2089 924.61657 305.6875 927.71875 C 270.14343 933.96672 233.83877 933.97137 197.96875 934.4375 C 190.92624 934.52741 175.38437 930.71385 174.6875 937.28125 C 174.15058 942.34096 173.71372 948.24584 176.09375 952.71875 C 185.86014 971.0732 202.17945 996.18578 225.9375 994.78125 C 255.92493 993.00855 283.7574 995.82126 312.875 983.375 C 354.7632 965.46964 405.96332 959.38071 453.34375 957.71875 C 561.59376 958.16831 671.64957 942.28676 778.625 964.28125 C 803.07065 970.09054 834.28186 975.93912 854 966 C 873.5493 956.14559 880.77638 915.91647 863.71875 894.96875 C 846.40723 873.70918 814.25728 871.54779 787.5625 870.625 C 768.20018 869.95547 748.81659 870.10986 729.4375 870.5625 C 732.43677 866.10588 735.16028 861.3404 738.15625 857.0625 C 753.10458 835.71869 771.91096 815.46172 780.875 791.5625 C 791.54156 763.1246 800.0775 730.05019 800.3125 700.53125 C 800.47387 680.24538 789.63164 656.93956 772.5 642.65625 C 764.41581 635.91613 756.40657 621.20344 745 621.625 z M 676.125 697.21875 C 686.9781 697.12311 696.45688 700.37819 693.625 712.625 C 683.08858 758.19053 666.69237 802.80168 656.125 848.40625 C 654.40223 855.84107 651.32445 864.89464 654.625 871.3125 C 654.91793 871.88211 655.23688 872.4084 655.5625 872.9375 C 649.71754 873.10904 643.87514 873.26007 638.03125 873.375 C 615.78797 871.683 593.84796 871.7972 572.125 873.25 C 572.50019 871.91626 572.80718 870.57732 572.96875 869.1875 C 582.59899 828.97721 599.11659 791.72178 603.09375 750.03125 C 602.39839 738.60153 598.54579 727.44498 591.5 719 C 612.86247 712.581 634.18609 706.18042 655.46875 700.3125 C 660.63672 698.91006 668.69919 697.28419 676.125 697.21875 z M 555.125 729.84375 C 552.07253 734.8177 549.69714 740.06211 548.28125 745.03125 C 545.02344 770.47601 549.89105 797.62805 547.75 823.75 C 546.31402 841.27027 541.2173 859.38844 540.15625 876.34375 C 518.50734 879.02046 497.02727 882.82861 475.65625 887.28125 C 479.05928 881.3462 480.93159 874.08602 481.90625 867.375 C 484.20986 834.3208 485.66838 801.03715 488.78125 767.96875 C 489.39013 761.50025 493.05154 753.01757 493.21875 747 C 513.9287 741.76522 534.55733 735.90534 555.125 729.84375 z "
         transform="matrix(0.21131656,0,0,0.21131656,113.27456,846.94101)"
         id="path5329" />
    </g>
    <path
       style="fill:#000000;stroke:#000000;stroke-width:4.73223686000000040px;stroke-linecap:butt;stroke-linejoin:miter;stroke-opacity:1;fill-opacity:1"
       d="m 594.62455,556.31042 0,0 z"
       id="path5837" />
  </g>
</svg>
