<?xml version="1.0" encoding="UTF-8" standalone="no"?>
<!-- Created with Inkscape (http://www.inkscape.org/) -->

<svg
   xmlns:dc="http://purl.org/dc/elements/1.1/"
   xmlns:cc="http://creativecommons.org/ns#"
   xmlns:rdf="http://www.w3.org/1999/02/22-rdf-syntax-ns#"
   xmlns:svg="http://www.w3.org/2000/svg"
   xmlns="http://www.w3.org/2000/svg"
   xmlns:sodipodi="http://sodipodi.sourceforge.net/DTD/sodipodi-0.dtd"
   xmlns:inkscape="http://www.inkscape.org/namespaces/inkscape"
   width="1000"
   height="1000"
   id="svg3173"
   version="1.1"
   inkscape:version="0.47 r22583"
   sodipodi:docname="76e7.svg"
   inkscape:export-filename="E:\chinese\yan\76e7.png"
   inkscape:export-xdpi="18.005705"
   inkscape:export-ydpi="18.005705">
  <title
     id="title6158">Lu</title>
  <defs
     id="defs3175">
    <inkscape:perspective
       sodipodi:type="inkscape:persp3d"
       inkscape:vp_x="0 : 526.18109 : 1"
       inkscape:vp_y="0 : 1000 : 0"
       inkscape:vp_z="744.09448 : 526.18109 : 1"
       inkscape:persp3d-origin="372.04724 : 350.78739 : 1"
       id="perspective3181" />
    <inkscape:perspective
       id="perspective3191"
       inkscape:persp3d-origin="0.5 : 0.33333333 : 1"
       inkscape:vp_z="1 : 0.5 : 1"
       inkscape:vp_y="0 : 1000 : 0"
       inkscape:vp_x="0 : 0.5 : 1"
       sodipodi:type="inkscape:persp3d" />
    <inkscape:perspective
       id="perspective4006"
       inkscape:persp3d-origin="0.5 : 0.33333333 : 1"
       inkscape:vp_z="1 : 0.5 : 1"
       inkscape:vp_y="0 : 1000 : 0"
       inkscape:vp_x="0 : 0.5 : 1"
       sodipodi:type="inkscape:persp3d" />
    <inkscape:perspective
       id="perspective4034"
       inkscape:persp3d-origin="0.5 : 0.33333333 : 1"
       inkscape:vp_z="1 : 0.5 : 1"
       inkscape:vp_y="0 : 1000 : 0"
       inkscape:vp_x="0 : 0.5 : 1"
       sodipodi:type="inkscape:persp3d" />
    <inkscape:perspective
       id="perspective4081"
       inkscape:persp3d-origin="0.5 : 0.33333333 : 1"
       inkscape:vp_z="1 : 0.5 : 1"
       inkscape:vp_y="0 : 1000 : 0"
       inkscape:vp_x="0 : 0.5 : 1"
       sodipodi:type="inkscape:persp3d" />
    <inkscape:perspective
       id="perspective4147"
       inkscape:persp3d-origin="0.5 : 0.33333333 : 1"
       inkscape:vp_z="1 : 0.5 : 1"
       inkscape:vp_y="0 : 1000 : 0"
       inkscape:vp_x="0 : 0.5 : 1"
       sodipodi:type="inkscape:persp3d" />
    <inkscape:perspective
       id="perspective3797"
       inkscape:persp3d-origin="0.5 : 0.33333333 : 1"
       inkscape:vp_z="1 : 0.5 : 1"
       inkscape:vp_y="0 : 1000 : 0"
       inkscape:vp_x="0 : 0.5 : 1"
       sodipodi:type="inkscape:persp3d" />
    <inkscape:perspective
       id="perspective3104"
       inkscape:persp3d-origin="0.5 : 0.33333333 : 1"
       inkscape:vp_z="1 : 0.5 : 1"
       inkscape:vp_y="0 : 1000 : 0"
       inkscape:vp_x="0 : 0.5 : 1"
       sodipodi:type="inkscape:persp3d" />
    <inkscape:perspective
       id="perspective3140"
       inkscape:persp3d-origin="0.5 : 0.33333333 : 1"
       inkscape:vp_z="1 : 0.5 : 1"
       inkscape:vp_y="0 : 1000 : 0"
       inkscape:vp_x="0 : 0.5 : 1"
       sodipodi:type="inkscape:persp3d" />
    <inkscape:perspective
       id="perspective3799"
       inkscape:persp3d-origin="0.5 : 0.33333333 : 1"
       inkscape:vp_z="1 : 0.5 : 1"
       inkscape:vp_y="0 : 1000 : 0"
       inkscape:vp_x="0 : 0.5 : 1"
       sodipodi:type="inkscape:persp3d" />
    <inkscape:perspective
       id="perspective3835"
       inkscape:persp3d-origin="0.5 : 0.33333333 : 1"
       inkscape:vp_z="1 : 0.5 : 1"
       inkscape:vp_y="0 : 1000 : 0"
       inkscape:vp_x="0 : 0.5 : 1"
       sodipodi:type="inkscape:persp3d" />
    <inkscape:perspective
       id="perspective3862"
       inkscape:persp3d-origin="0.5 : 0.33333333 : 1"
       inkscape:vp_z="1 : 0.5 : 1"
       inkscape:vp_y="0 : 1000 : 0"
       inkscape:vp_x="0 : 0.5 : 1"
       sodipodi:type="inkscape:persp3d" />
    <inkscape:perspective
       id="perspective3895"
       inkscape:persp3d-origin="0.5 : 0.33333333 : 1"
       inkscape:vp_z="1 : 0.5 : 1"
       inkscape:vp_y="0 : 1000 : 0"
       inkscape:vp_x="0 : 0.5 : 1"
       sodipodi:type="inkscape:persp3d" />
    <inkscape:perspective
       id="perspective3921"
       inkscape:persp3d-origin="0.5 : 0.33333333 : 1"
       inkscape:vp_z="1 : 0.5 : 1"
       inkscape:vp_y="0 : 1000 : 0"
       inkscape:vp_x="0 : 0.5 : 1"
       sodipodi:type="inkscape:persp3d" />
    <inkscape:perspective
       id="perspective3945"
       inkscape:persp3d-origin="0.5 : 0.33333333 : 1"
       inkscape:vp_z="1 : 0.5 : 1"
       inkscape:vp_y="0 : 1000 : 0"
       inkscape:vp_x="0 : 0.5 : 1"
       sodipodi:type="inkscape:persp3d" />
    <inkscape:perspective
       id="perspective3975"
       inkscape:persp3d-origin="0.5 : 0.33333333 : 1"
       inkscape:vp_z="1 : 0.5 : 1"
       inkscape:vp_y="0 : 1000 : 0"
       inkscape:vp_x="0 : 0.5 : 1"
       sodipodi:type="inkscape:persp3d" />
    <inkscape:perspective
       id="perspective4049"
       inkscape:persp3d-origin="0.5 : 0.33333333 : 1"
       inkscape:vp_z="1 : 0.5 : 1"
       inkscape:vp_y="0 : 1000 : 0"
       inkscape:vp_x="0 : 0.5 : 1"
       sodipodi:type="inkscape:persp3d" />
    <inkscape:perspective
       id="perspective4076"
       inkscape:persp3d-origin="0.5 : 0.33333333 : 1"
       inkscape:vp_z="1 : 0.5 : 1"
       inkscape:vp_y="0 : 1000 : 0"
       inkscape:vp_x="0 : 0.5 : 1"
       sodipodi:type="inkscape:persp3d" />
  </defs>
  <sodipodi:namedview
     id="base"
     pagecolor="#ffffff"
     bordercolor="#666666"
     borderopacity="1.0"
     inkscape:pageopacity="0.0"
     inkscape:pageshadow="2"
     inkscape:zoom="0.49497475"
     inkscape:cx="637.59461"
     inkscape:cy="519.65337"
     inkscape:document-units="px"
     inkscape:current-layer="g5879"
     showgrid="false"
     inkscape:window-width="1440"
     inkscape:window-height="840"
     inkscape:window-x="-4"
     inkscape:window-y="-4"
     inkscape:window-maximized="1" />
  <metadata
     id="metadata3178">
    <rdf:RDF>
      <cc:Work
         rdf:about="">
        <dc:format>image/svg+xml</dc:format>
        <dc:type
           rdf:resource="http://purl.org/dc/dcmitype/StillImage" />
        <dc:title>Lu</dc:title>
        <dc:date>2010-08-12</dc:date>
        <dc:creator>
          <cc:Agent>
            <dc:title>Alex Amies</dc:title>
          </cc:Agent>
        </dc:creator>
        <dc:rights>
          <cc:Agent>
            <dc:title>@ Alex Amies 2010</dc:title>
          </cc:Agent>
        </dc:rights>
        <dc:publisher>
          <cc:Agent>
            <dc:title>chinesenotes.com</dc:title>
          </cc:Agent>
        </dc:publisher>
        <dc:source>Yan Qin Ceremonial Inscription</dc:source>
        <dc:language>Chinese 中文</dc:language>
        <dc:description>Tracing from Tang Dynasty Ceremonial Inscription by Yan Zhenqing 颜真卿 (709－785)</dc:description>
        <cc:license
           rdf:resource="http://creativecommons.org/licenses/by/3.0/" />
      </cc:Work>
      <cc:License
         rdf:about="http://creativecommons.org/licenses/by/3.0/">
        <cc:permits
           rdf:resource="http://creativecommons.org/ns#Reproduction" />
        <cc:permits
           rdf:resource="http://creativecommons.org/ns#Distribution" />
        <cc:requires
           rdf:resource="http://creativecommons.org/ns#Notice" />
        <cc:requires
           rdf:resource="http://creativecommons.org/ns#Attribution" />
        <cc:permits
           rdf:resource="http://creativecommons.org/ns#DerivativeWorks" />
      </cc:License>
    </rdf:RDF>
  </metadata>
  <g
     inkscape:label="Layer 1"
     inkscape:groupmode="layer"
     id="layer1"
     transform="translate(0,-52.362183)">
    <path
       style="fill:#000000;stroke:#000000;stroke-width:4.73223686000000040px;stroke-linecap:butt;stroke-linejoin:miter;stroke-opacity:1;fill-opacity:1"
       d="m 369.84328,287.58699 0,0 z"
       id="path5819" />
    <g
       transform="matrix(4.7322369,0,0,4.7322369,-536.04205,-3955.5633)"
       id="g5879"
       style="fill:#000000;fill-opacity:1">
      <path
         style="fill:#000000;stroke:#000000;stroke-width:4.75137663000000020px;stroke-linecap:butt;stroke-linejoin:miter;stroke-opacity:1;fill-opacity:1"
         d="M 600.65625 17.71875 C 599.35547 17.716909 598.0507 17.771799 596.78125 17.84375 C 535.09285 28.198263 473.26014 45.727454 411.9375 61.5 C 408.07495 66.659984 403.20982 74.585366 398.78125 80.5 C 394.98051 103.98065 421.78584 106.88487 439.71875 108.46875 C 451.44093 107.93128 463.18288 106.90352 474.90625 105.53125 C 473.56035 108.31635 472.32819 111.14961 471.1875 114.03125 C 470.38056 129.565 469.60994 145.28009 468.96875 161.0625 C 449.94293 165.7473 430.93386 170.44016 411.90625 175.09375 C 378.17349 182.82339 310.53125 162.98695 310.53125 197.59375 C 310.53125 204.68117 297.67346 210.52721 300.375 216.25 C 310.29803 237.27041 350.6125 242.62017 370.09375 223.65625 C 384.47611 210.98474 403.04215 206.97088 421.15625 203.03125 C 436.76037 199.16939 452.3546 195.24099 467.9375 191.28125 C 467.37451 211.66537 467.11747 232.11946 467.375 252.5625 C 436.03511 258.77358 404.8027 264.98158 375.03125 273.9375 C 367.88818 276.08631 360.17027 284.9459 359.75 290.90625 C 364.17805 306.34697 382.77107 310.51688 397.09375 312.96875 C 407.76504 311.48614 420.3624 307.93962 428.9375 299.6875 C 438.49562 290.48936 454.00635 291.12744 466.625 287.65625 C 467.18653 287.50178 467.75085 287.34269 468.3125 287.1875 C 469.1313 305.78782 470.49481 324.29726 472.5 342.625 C 437.55325 353.79221 402.78909 365.47189 368.25 377.46875 C 361.35996 379.99084 352.02572 383.21512 349.5625 389.34375 C 345.25238 400.06776 358.28384 417.49104 371.21875 418.84375 C 382.37561 420.01048 393.70542 422.62915 404.8125 418.3125 C 433.53926 407.14806 462.67639 395.82551 492.65625 388.59375 C 528.84414 379.86448 567.3877 378.44621 602.40625 367.28125 C 619.81473 361.7309 638.2042 350.57536 649.9375 338.4375 C 654.60779 333.60617 654.14061 322.66405 651.625 316.375 C 648.48421 308.52304 641.49813 294.83464 632.96875 296 C 603.2677 303.64375 573.62191 311.91307 544.0625 320.625 C 544.22557 318.01713 544.33284 315.41306 544.375 312.875 C 543.53724 297.72084 543.17684 282.55817 543.03125 267.375 C 552.65462 265.26832 562.30667 263.42494 572 262.0625 C 591.4546 259.32802 614.28805 266.91825 631.25 262.0625 C 637.9985 260.13061 642.82763 248.55901 643.125 241.71875 C 639.91612 219.03278 615.60152 213.63375 595.625 214.5625 C 577.67597 217.16664 560.99406 229.64139 543 235.78125 C 543.10108 214.54619 543.3218 193.31273 543.125 172.09375 C 593.06505 159.4005 643.07967 147.01614 693.4375 136.15625 C 699.55098 136.6219 710.56689 130.38069 713.125 135.71875 C 713.24283 151.45027 698.81215 161.48576 691.40625 174.125 C 688.85212 180.50387 675.26286 188.25608 685.1875 193.1875 C 701.46057 204.96088 718.26201 188.34172 734.96875 188.34375 C 754.65008 187.09832 768.73221 202.05871 786.59375 206.4375 C 808.2584 210.2301 826.50378 186.8673 822.03125 166.3125 C 823.33375 149.0563 826.21111 131.16879 806.96875 123.09375 C 789.98603 110.18246 770.08794 97.266081 748.0625 97.40625 C 678.41028 110.87238 609.27447 126.91815 540.3125 143.625 C 538.13911 127.99983 539.0064 110.81687 535.65625 95.59375 C 550.16733 92.646585 564.59648 89.377454 578.875 86 C 595.59664 81.557707 613.28603 77.072185 627.875 68.625 C 636.97211 63.357736 648.9832 52.827761 649.9375 44.875 C 642.60579 26.164356 620.16802 17.746365 600.65625 17.71875 z M 281.6875 268.875 C 260.98306 268.34423 255.16276 301.69837 246.96875 320.03125 C 207.10458 444.48515 148.4662 556.63932 72.46875 662.46875 C 66.041284 671.26924 62.015734 689.21669 67.875 691.40625 C 78.325388 695.31143 102.57714 685.38581 116.5 672.375 C 200.5573 607.28857 252.81741 516.04105 301.53125 423.46875 C 310.69669 405.78149 330.19569 388.86243 323.75 367.375 C 315.31943 339.27077 303.69561 311.95462 290.59375 285.65625 C 287.76714 279.98263 287.21153 269.01659 281.6875 268.875 z M 677.5 368.5 C 676.73732 368.51945 676.02991 368.67 675.375 368.96875 C 666.7124 372.9204 664.42658 393.91848 653.3125 397.8125 C 616.35691 410.76043 576.7686 419.52224 537 428.125 C 534.83371 423.96129 532.35245 420.04956 529.4375 416.5 C 516.82959 416.04334 501.80395 426.03934 495.5 436.84375 C 495.4609 436.98703 495.44487 437.13788 495.40625 437.28125 C 477.69723 441.30103 460.1314 445.55275 442.90625 450.4375 C 436.29872 452.31128 428.51548 457.15654 425.9375 462.3125 C 423.99037 466.20675 425.74401 474.6203 429.3125 477.59375 C 435.9259 483.10491 449.64221 491.16611 456.46875 487.75 C 466.39163 482.78448 478.05549 474.39447 490.375 470.53125 C 489.51464 487.76829 490.95292 505.25663 493.25 522.40625 C 471.61129 530.16836 450.05624 538.71402 429.3125 547.15625 C 426.47544 548.31087 423.619 550.27633 421.21875 552.59375 C 420.362 542.70368 419.62972 532.80225 419.21875 522.90625 C 418.82503 513.41736 423.60437 503.57857 421.90625 494.34375 C 420.74018 488.00236 419.8935 480.50734 415.75 475.875 C 400.54788 457.96822 380.61899 450.11799 358.0625 447.03125 C 345.38891 447.84931 343.92928 466.05872 342.9375 476.375 C 358.02756 536.9279 375.10068 600.01764 397.09375 657.46875 C 397.06836 660.03106 397.34729 662.54766 397.90625 664.625 C 399.28844 669.76175 399.70713 677.59362 403.875 679.5 C 411.62461 683.04473 423.86597 684.14377 433.75 681.09375 C 489.36117 663.93333 545.33966 647.02848 601.84375 633.59375 C 614.15708 630.66601 628.10543 633.74437 639.75 630.3125 C 645.26911 628.68589 653.53297 623.06724 653.3125 618.4375 C 653.20638 616.20764 652.38972 613.57863 651.09375 610.875 C 658.03144 605.53032 662.83201 596.46031 666.65625 588.6875 C 680.611 540.77076 729.71144 493.55924 731.65625 442.4375 C 726.91833 418.74059 711.10529 396.52545 695.03125 378.8125 C 690.4597 374.51631 682.83879 368.36384 677.5 368.5 z M 639.625 416.34375 C 640.22931 416.32161 640.83489 416.36893 641.4375 416.5 C 658.65409 420.24457 644.9768 444.0003 644.125 457.0625 C 642.78355 477.63282 639.46371 498.84824 633.25 518.65625 C 626.42867 540.40102 613.87634 560.85363 609.1875 582.78125 C 608.58493 585.59921 608.58992 588.47182 609.09375 591.28125 C 575.89087 602.62319 542.27207 612.73463 508.4375 622.09375 C 486.57707 628.1407 465.12847 636.46002 442.9375 640.625 C 440.05538 641.16594 436.94538 641.3511 433.78125 641.40625 C 431.11958 635.0916 427.27061 628.68754 426.9375 621.46875 C 426.31684 608.02019 425.145 594.56661 423.875 581.125 C 433.64591 583.86261 447.53969 583.43588 458.1875 581.09375 C 472.35878 575.60593 487.23045 570.78967 502.0625 565.6875 C 505.05175 577.42441 508.86451 589.00605 515.875 598.0625 C 519.51636 601.17882 527.50348 603.68751 531.15625 601.46875 C 536.59269 598.1665 542.72608 589.72463 543.5625 581.59375 C 544.36564 570.40499 545.62807 559.1555 546.9375 547.90625 C 550.88443 545.98859 554.77362 543.96222 558.5625 541.8125 C 569.73507 534.34044 579.09116 525.36831 575.25 511.53125 C 572.73605 507.13178 566.94407 500.06018 561.6875 501.34375 C 558.22493 502.18926 554.7451 503.09769 551.25 504.03125 C 551.8417 494.0761 552.03268 484.12074 551.5 474.1875 C 550.02377 467.95625 548.5189 461.35593 546.75 454.75 C 557.43878 451.58809 567.9872 448.09487 578.1875 443.78125 C 594.62871 436.82841 609.27822 425.67017 626.78125 421.125 C 631.11628 419.99931 635.39485 416.49875 639.625 416.34375 z M 721.375 613.5 C 710.07368 613.49576 699.4632 620.42424 688.78125 623.875 C 608.9636 645.91213 533.76163 680.13265 460.96875 719.125 C 451.87897 727.31324 441.20316 736.3314 436.125 747.40625 C 435.87561 761.75818 456.81984 769.84638 470.46875 762.59375 C 470.71898 762.48911 470.96858 762.38607 471.21875 762.28125 C 470.36265 796.15119 471.03962 834.30964 477.65625 865.5625 C 460.57431 867.07169 443.47719 868.4113 426.375 869.75 C 429.10399 853.86848 429.90641 836.32506 429.3125 820.34375 C 426.65464 790.72988 419.38903 759.70957 402.9375 734.5 C 387.69506 710.41561 365.91028 697.48255 337.6875 694.78125 C 332.98385 694.62461 326.71139 700.57061 325.8125 704.96875 C 324.48847 711.44666 330.27849 719.55553 335.0625 725.71875 C 366.01185 767.38231 376.85869 817.21251 383.34375 867.6875 C 383.54742 869.40102 383.42892 871.38273 383.375 873.3125 C 361.2552 875.32188 339.17874 877.70889 317.21875 880.96875 C 280.15332 892.125 241.687 892.37462 203.625 886.53125 C 184.50071 906.81598 200.81782 935.03058 217.3125 950.96875 C 231.01498 969.48931 254.35489 987.86404 278.3125 977.4375 C 304.21397 962.24181 333.21766 955.32083 362.21875 948.96875 C 406.18312 936.80927 450.77489 927.12013 496.3125 923.4375 C 604.68461 910.81899 713.55239 899.69106 822.8125 901.84375 C 849.91899 895.06529 870.31627 915.99296 895.6875 919.53125 C 926.44117 935.39797 943.86135 900.23851 934.75 873.40625 C 937.33806 848.44465 914.95063 833.0338 903.3125 813.625 C 889.90205 796.07929 879.2787 776.55896 868.90625 757.28125 C 846.07292 738.30782 811.37908 757.04292 818.25 787.625 C 818.25946 813.62486 777.48095 823.74388 754.71875 828.09375 C 732.99141 832.28033 711.16089 835.77765 689.28125 838.9375 C 690.1559 836.08729 691.03998 833.25255 692.1875 830.71875 C 710.7956 789.63016 730.15523 748.451 744 705.21875 C 748.24349 691.96778 763.32797 683.42801 767 671.03125 C 769.88657 661.28606 768.68315 647.46211 763.625 638.78125 C 757.33704 627.98981 744.04009 620.53941 731.0625 615.34375 C 727.77401 614.02716 724.53937 613.50119 721.375 613.5 z M 670.78125 680.21875 C 676.19616 680.22866 680.35967 681.7715 680.34375 686.5 C 680.24579 715.59791 675.83865 747.07532 668.65625 776.3125 C 664.20923 794.41425 654.6649 811.4329 651.71875 829.6875 C 651.05777 833.78292 651.24728 839.00603 652.53125 843.9375 C 634.51759 846.27321 616.49918 848.5214 598.46875 850.75 C 601.14731 846.96542 603.22906 842.50272 604.75 837.90625 C 618.22244 798.21603 617.97248 756.92452 617.6875 715.5625 C 616.26435 710.31636 611.56817 705.72806 606.21875 701.9375 C 620.66302 695.74845 635.22543 689.83354 649.90625 684.34375 C 654.79781 682.75775 663.81923 680.206 670.78125 680.21875 z M 567.71875 719 C 567.37513 730.26283 568.05259 742.05758 567.875 753.21875 C 567.39264 783.53109 566.81046 813.89833 565.34375 844.15625 C 564.92493 848.13638 566.68535 851.49904 569.25 854.40625 C 554.57889 856.28449 539.91736 858.22243 525.28125 860.34375 C 526.39545 857.32526 527.21283 853.87657 527.71875 849.96875 C 521.92388 818.83016 538.07514 769.72289 517.09375 742.15625 C 533.98345 734.49543 550.81872 726.67731 567.71875 719 z "
         transform="matrix(0.21131656,0,0,0.21131656,113.27456,846.94101)"
         id="path5383" />
    </g>
    <path
       style="fill:#000000;stroke:#000000;stroke-width:4.73223686000000040px;stroke-linecap:butt;stroke-linejoin:miter;stroke-opacity:1;fill-opacity:1"
       d="m 594.62455,556.31042 0,0 z"
       id="path5837" />
  </g>
</svg>
