<?xml version="1.0" encoding="UTF-8" standalone="no"?>
<!-- Created with Inkscape (http://www.inkscape.org/) -->

<svg
   xmlns:dc="http://purl.org/dc/elements/1.1/"
   xmlns:cc="http://creativecommons.org/ns#"
   xmlns:rdf="http://www.w3.org/1999/02/22-rdf-syntax-ns#"
   xmlns:svg="http://www.w3.org/2000/svg"
   xmlns="http://www.w3.org/2000/svg"
   xmlns:sodipodi="http://sodipodi.sourceforge.net/DTD/sodipodi-0.dtd"
   xmlns:inkscape="http://www.inkscape.org/namespaces/inkscape"
   width="1000"
   height="1000"
   id="svg3173"
   version="1.1"
   inkscape:version="0.47 r22583"
   sodipodi:docname="76ee.svg"
   inkscape:export-filename="E:\chinese\yan\76ee.png"
   inkscape:export-xdpi="18.005705"
   inkscape:export-ydpi="18.005705">
  <title
     id="title6428">Mu</title>
  <defs
     id="defs3175">
    <inkscape:perspective
       sodipodi:type="inkscape:persp3d"
       inkscape:vp_x="0 : 526.18109 : 1"
       inkscape:vp_y="0 : 1000 : 0"
       inkscape:vp_z="744.09448 : 526.18109 : 1"
       inkscape:persp3d-origin="372.04724 : 350.78739 : 1"
       id="perspective3181" />
    <inkscape:perspective
       id="perspective3191"
       inkscape:persp3d-origin="0.5 : 0.33333333 : 1"
       inkscape:vp_z="1 : 0.5 : 1"
       inkscape:vp_y="0 : 1000 : 0"
       inkscape:vp_x="0 : 0.5 : 1"
       sodipodi:type="inkscape:persp3d" />
    <inkscape:perspective
       id="perspective4006"
       inkscape:persp3d-origin="0.5 : 0.33333333 : 1"
       inkscape:vp_z="1 : 0.5 : 1"
       inkscape:vp_y="0 : 1000 : 0"
       inkscape:vp_x="0 : 0.5 : 1"
       sodipodi:type="inkscape:persp3d" />
    <inkscape:perspective
       id="perspective4034"
       inkscape:persp3d-origin="0.5 : 0.33333333 : 1"
       inkscape:vp_z="1 : 0.5 : 1"
       inkscape:vp_y="0 : 1000 : 0"
       inkscape:vp_x="0 : 0.5 : 1"
       sodipodi:type="inkscape:persp3d" />
    <inkscape:perspective
       id="perspective4081"
       inkscape:persp3d-origin="0.5 : 0.33333333 : 1"
       inkscape:vp_z="1 : 0.5 : 1"
       inkscape:vp_y="0 : 1000 : 0"
       inkscape:vp_x="0 : 0.5 : 1"
       sodipodi:type="inkscape:persp3d" />
    <inkscape:perspective
       id="perspective4147"
       inkscape:persp3d-origin="0.5 : 0.33333333 : 1"
       inkscape:vp_z="1 : 0.5 : 1"
       inkscape:vp_y="0 : 1000 : 0"
       inkscape:vp_x="0 : 0.5 : 1"
       sodipodi:type="inkscape:persp3d" />
    <inkscape:perspective
       id="perspective3758"
       inkscape:persp3d-origin="0.5 : 0.33333333 : 1"
       inkscape:vp_z="1 : 0.5 : 1"
       inkscape:vp_y="0 : 1000 : 0"
       inkscape:vp_x="0 : 0.5 : 1"
       sodipodi:type="inkscape:persp3d" />
    <inkscape:perspective
       id="perspective3719"
       inkscape:persp3d-origin="0.5 : 0.33333333 : 1"
       inkscape:vp_z="1 : 0.5 : 1"
       inkscape:vp_y="0 : 1000 : 0"
       inkscape:vp_x="0 : 0.5 : 1"
       sodipodi:type="inkscape:persp3d" />
    <inkscape:perspective
       id="perspective3803"
       inkscape:persp3d-origin="0.5 : 0.33333333 : 1"
       inkscape:vp_z="1 : 0.5 : 1"
       inkscape:vp_y="0 : 1000 : 0"
       inkscape:vp_x="0 : 0.5 : 1"
       sodipodi:type="inkscape:persp3d" />
    <inkscape:perspective
       id="perspective3801"
       inkscape:persp3d-origin="0.5 : 0.33333333 : 1"
       inkscape:vp_z="1 : 0.5 : 1"
       inkscape:vp_y="0 : 1000 : 0"
       inkscape:vp_x="0 : 0.5 : 1"
       sodipodi:type="inkscape:persp3d" />
    <inkscape:perspective
       id="perspective3834"
       inkscape:persp3d-origin="0.5 : 0.33333333 : 1"
       inkscape:vp_z="1 : 0.5 : 1"
       inkscape:vp_y="0 : 1000 : 0"
       inkscape:vp_x="0 : 0.5 : 1"
       sodipodi:type="inkscape:persp3d" />
    <inkscape:perspective
       id="perspective3867"
       inkscape:persp3d-origin="0.5 : 0.33333333 : 1"
       inkscape:vp_z="1 : 0.5 : 1"
       inkscape:vp_y="0 : 1000 : 0"
       inkscape:vp_x="0 : 0.5 : 1"
       sodipodi:type="inkscape:persp3d" />
  </defs>
  <sodipodi:namedview
     id="base"
     pagecolor="#ffffff"
     bordercolor="#666666"
     borderopacity="1.0"
     inkscape:pageopacity="0.0"
     inkscape:pageshadow="2"
     inkscape:zoom="0.49497475"
     inkscape:cx="571.51329"
     inkscape:cy="512.69615"
     inkscape:document-units="px"
     inkscape:current-layer="g4143"
     showgrid="false"
     inkscape:window-width="1440"
     inkscape:window-height="840"
     inkscape:window-x="-4"
     inkscape:window-y="-4"
     inkscape:window-maximized="1" />
  <metadata
     id="metadata3178">
    <rdf:RDF>
      <cc:Work
         rdf:about="">
        <dc:format>image/svg+xml</dc:format>
        <dc:type
           rdf:resource="http://purl.org/dc/dcmitype/StillImage" />
        <dc:title>Mu</dc:title>
        <dc:date>2010-08-14</dc:date>
        <dc:creator>
          <cc:Agent>
            <dc:title>Alex Amies</dc:title>
          </cc:Agent>
        </dc:creator>
        <dc:rights>
          <cc:Agent>
            <dc:title>@ Alex Amies 2010</dc:title>
          </cc:Agent>
        </dc:rights>
        <dc:publisher>
          <cc:Agent>
            <dc:title>chinesenotes.com</dc:title>
          </cc:Agent>
        </dc:publisher>
        <dc:source>Yan Qin Ceremonial Inscription</dc:source>
        <dc:language>Chinese 中文</dc:language>
        <dc:description>Tracing from Tang Dynasty Ceremonial Inscription by Yan Zhenqing 颜真卿 (709－785)</dc:description>
        <cc:license
           rdf:resource="http://creativecommons.org/licenses/by/3.0/" />
      </cc:Work>
      <cc:License
         rdf:about="http://creativecommons.org/licenses/by/3.0/">
        <cc:permits
           rdf:resource="http://creativecommons.org/ns#Reproduction" />
        <cc:permits
           rdf:resource="http://creativecommons.org/ns#Distribution" />
        <cc:requires
           rdf:resource="http://creativecommons.org/ns#Notice" />
        <cc:requires
           rdf:resource="http://creativecommons.org/ns#Attribution" />
        <cc:permits
           rdf:resource="http://creativecommons.org/ns#DerivativeWorks" />
      </cc:License>
    </rdf:RDF>
  </metadata>
  <g
     inkscape:label="Layer 1"
     inkscape:groupmode="layer"
     id="layer1"
     transform="translate(0,-52.362183)">
    <g
       transform="matrix(4.7609464,0,0,4.7609464,-1421.6669,-3910.0295)"
       id="g4143"
       style="fill:#000000;fill-opacity:1">
      <path
         style="fill:#000000;stroke:#000000;stroke-width:5.77094460000000000px;stroke-linecap:butt;stroke-linejoin:miter;stroke-opacity:1;fill-opacity:1"
         d="M 616.1875 72.59375 C 609.90532 72.507596 603.48284 74.357158 597.03125 78.65625 C 516.83063 102.67694 446.16641 132.93278 366.53125 174.0625 C 362.59672 174.93306 359.09157 176.97992 356.125 179.75 C 346.26195 164.02977 333.09311 151.61001 315.375 151 C 289.41051 160.67943 296.10062 196.47177 296.03125 220.0625 C 288.70715 397.09158 309.0817 572.3876 319.71875 748.59375 C 325.16211 768.27613 319.80331 794.60408 325.46875 812.40625 C 301.54656 816.14105 277.87499 821.41279 254.71875 829.21875 C 230.67349 834.92855 204.70669 844.23776 180.65625 833.6875 C 174.03506 831.6741 166.05524 829.85457 159.96875 834.53125 C 148.13751 857.72944 168.09997 880.55702 184.25 895.03125 C 207.82468 909.27124 239.41178 927.03357 264.03125 904.84375 C 402.08189 832.42833 576.82432 840.94419 727.5625 837.21875 C 757.04928 833.98892 783.43804 848.32558 808.40625 862.4375 C 858.73759 873.90376 866.4939 889.0003 878.84375 876.59375 C 893.67824 861.69056 878.26658 836.58151 865.1875 788.25 C 848.30104 756.08971 808.10622 758.32549 777.65625 758.46875 C 749.3241 755.04549 752.92089 788.15166 729.5625 794.34375 C 716.26595 796.27697 702.90446 797.71913 689.46875 798.84375 C 701.1215 793.35773 710.83368 784.06127 715.03125 771.625 C 694.045 584.22125 726.96653 363.62785 695.75 181.15625 C 688.08179 146.40063 654.57862 73.120244 616.1875 72.59375 z M 575.375 120.96875 C 601.55341 120.60236 595.68375 172.59696 599.21875 196.40625 C 598.85692 359.87853 608.18716 523.09096 609.40625 686.53125 C 606.07663 725.02188 605.39642 773.37927 638.40625 797.0625 C 641.00228 798.83049 643.79964 800.24665 646.75 801.375 C 574.95263 803.95539 501.64149 799.53527 428.1875 802.875 C 417.90361 803.47709 407.58441 804.12632 397.28125 804.84375 C 397.36615 803.17984 397.28018 801.44735 397.03125 799.65625 C 393.29963 766.10329 391.21562 732.46795 390.125 698.78125 C 391.11269 698.9608 392.12926 699.08155 393.1875 699.09375 C 454.14913 685.4624 501.30615 685.87791 561.71875 670.34375 C 571.81824 667.77541 603.17319 665.98666 607.46875 653.71875 C 608.98068 643.90144 601.97365 635.55031 596.8125 628.53125 C 550.81415 609.74072 447.74166 625.85324 389.125 642.8125 C 388.93391 606.96905 389.43949 571.11586 389.9375 535.28125 C 427.8749 526.67653 472.09149 515.70401 506.84375 503.53125 C 528.87774 485.32715 518.989 455.28598 492.90625 452.6875 C 467.56365 468.61736 425.40175 469.09154 390.59375 480.5625 C 390.93327 433.40221 390.51469 386.33428 387.59375 339.5 C 431.99956 344.96593 483.243 334.00797 520.3125 305.875 C 527.23601 300.64205 526.87931 289.50976 521.84375 282.875 C 487.85179 274.0525 422.93636 290.51388 385.21875 308 C 382.67435 279.26118 379.05852 250.61344 373.90625 222.09375 C 440.15938 204.41399 502.36051 161.07451 562.09375 124.5625 C 567.26219 122.13757 571.63523 121.02109 575.375 120.96875 z "
         transform="matrix(0.21004227,0,0,0.21004227,298.61015,832.26975)"
         id="path6351" />
    </g>
  </g>
</svg>
