<?xml version="1.0" encoding="UTF-8" standalone="no"?>
<!-- Created with Inkscape (http://www.inkscape.org/) -->

<svg
   xmlns:dc="http://purl.org/dc/elements/1.1/"
   xmlns:cc="http://creativecommons.org/ns#"
   xmlns:rdf="http://www.w3.org/1999/02/22-rdf-syntax-ns#"
   xmlns:svg="http://www.w3.org/2000/svg"
   xmlns="http://www.w3.org/2000/svg"
   xmlns:sodipodi="http://sodipodi.sourceforge.net/DTD/sodipodi-0.dtd"
   xmlns:inkscape="http://www.inkscape.org/namespaces/inkscape"
   width="1000"
   height="1000"
   id="svg3173"
   version="1.1"
   inkscape:version="0.47 r22583"
   sodipodi:docname="76f4.svg"
   inkscape:export-filename="E:\chinese\yan\76f4.png"
   inkscape:export-xdpi="18.005705"
   inkscape:export-ydpi="18.005705">
  <title
     id="title6379">Zhi</title>
  <defs
     id="defs3175">
    <inkscape:perspective
       sodipodi:type="inkscape:persp3d"
       inkscape:vp_x="0 : 526.18109 : 1"
       inkscape:vp_y="0 : 1000 : 0"
       inkscape:vp_z="744.09448 : 526.18109 : 1"
       inkscape:persp3d-origin="372.04724 : 350.78739 : 1"
       id="perspective3181" />
    <inkscape:perspective
       id="perspective3191"
       inkscape:persp3d-origin="0.5 : 0.33333333 : 1"
       inkscape:vp_z="1 : 0.5 : 1"
       inkscape:vp_y="0 : 1000 : 0"
       inkscape:vp_x="0 : 0.5 : 1"
       sodipodi:type="inkscape:persp3d" />
    <inkscape:perspective
       id="perspective4006"
       inkscape:persp3d-origin="0.5 : 0.33333333 : 1"
       inkscape:vp_z="1 : 0.5 : 1"
       inkscape:vp_y="0 : 1000 : 0"
       inkscape:vp_x="0 : 0.5 : 1"
       sodipodi:type="inkscape:persp3d" />
    <inkscape:perspective
       id="perspective4034"
       inkscape:persp3d-origin="0.5 : 0.33333333 : 1"
       inkscape:vp_z="1 : 0.5 : 1"
       inkscape:vp_y="0 : 1000 : 0"
       inkscape:vp_x="0 : 0.5 : 1"
       sodipodi:type="inkscape:persp3d" />
    <inkscape:perspective
       id="perspective4081"
       inkscape:persp3d-origin="0.5 : 0.33333333 : 1"
       inkscape:vp_z="1 : 0.5 : 1"
       inkscape:vp_y="0 : 1000 : 0"
       inkscape:vp_x="0 : 0.5 : 1"
       sodipodi:type="inkscape:persp3d" />
    <inkscape:perspective
       id="perspective4147"
       inkscape:persp3d-origin="0.5 : 0.33333333 : 1"
       inkscape:vp_z="1 : 0.5 : 1"
       inkscape:vp_y="0 : 1000 : 0"
       inkscape:vp_x="0 : 0.5 : 1"
       sodipodi:type="inkscape:persp3d" />
    <inkscape:perspective
       id="perspective3758"
       inkscape:persp3d-origin="0.5 : 0.33333333 : 1"
       inkscape:vp_z="1 : 0.5 : 1"
       inkscape:vp_y="0 : 1000 : 0"
       inkscape:vp_x="0 : 0.5 : 1"
       sodipodi:type="inkscape:persp3d" />
    <inkscape:perspective
       id="perspective3719"
       inkscape:persp3d-origin="0.5 : 0.33333333 : 1"
       inkscape:vp_z="1 : 0.5 : 1"
       inkscape:vp_y="0 : 1000 : 0"
       inkscape:vp_x="0 : 0.5 : 1"
       sodipodi:type="inkscape:persp3d" />
    <inkscape:perspective
       id="perspective3803"
       inkscape:persp3d-origin="0.5 : 0.33333333 : 1"
       inkscape:vp_z="1 : 0.5 : 1"
       inkscape:vp_y="0 : 1000 : 0"
       inkscape:vp_x="0 : 0.5 : 1"
       sodipodi:type="inkscape:persp3d" />
    <inkscape:perspective
       id="perspective3801"
       inkscape:persp3d-origin="0.5 : 0.33333333 : 1"
       inkscape:vp_z="1 : 0.5 : 1"
       inkscape:vp_y="0 : 1000 : 0"
       inkscape:vp_x="0 : 0.5 : 1"
       sodipodi:type="inkscape:persp3d" />
    <inkscape:perspective
       id="perspective3834"
       inkscape:persp3d-origin="0.5 : 0.33333333 : 1"
       inkscape:vp_z="1 : 0.5 : 1"
       inkscape:vp_y="0 : 1000 : 0"
       inkscape:vp_x="0 : 0.5 : 1"
       sodipodi:type="inkscape:persp3d" />
    <inkscape:perspective
       id="perspective3867"
       inkscape:persp3d-origin="0.5 : 0.33333333 : 1"
       inkscape:vp_z="1 : 0.5 : 1"
       inkscape:vp_y="0 : 1000 : 0"
       inkscape:vp_x="0 : 0.5 : 1"
       sodipodi:type="inkscape:persp3d" />
  </defs>
  <sodipodi:namedview
     id="base"
     pagecolor="#ffffff"
     bordercolor="#666666"
     borderopacity="1.0"
     inkscape:pageopacity="0.0"
     inkscape:pageshadow="2"
     inkscape:zoom="0.49497475"
     inkscape:cx="571.51329"
     inkscape:cy="512.69615"
     inkscape:document-units="px"
     inkscape:current-layer="g4143"
     showgrid="false"
     inkscape:window-width="1440"
     inkscape:window-height="840"
     inkscape:window-x="-4"
     inkscape:window-y="-4"
     inkscape:window-maximized="1" />
  <metadata
     id="metadata3178">
    <rdf:RDF>
      <cc:Work
         rdf:about="">
        <dc:format>image/svg+xml</dc:format>
        <dc:type
           rdf:resource="http://purl.org/dc/dcmitype/StillImage" />
        <dc:title>Zhi</dc:title>
        <dc:date>2010-08-14</dc:date>
        <dc:creator>
          <cc:Agent>
            <dc:title>Alex Amies</dc:title>
          </cc:Agent>
        </dc:creator>
        <dc:rights>
          <cc:Agent>
            <dc:title>@ Alex Amies 2010</dc:title>
          </cc:Agent>
        </dc:rights>
        <dc:publisher>
          <cc:Agent>
            <dc:title>chinesenotes.com</dc:title>
          </cc:Agent>
        </dc:publisher>
        <dc:source>Yan Qin Ceremonial Inscription</dc:source>
        <dc:language>Chinese 中文</dc:language>
        <dc:description>Tracing from Tang Dynasty Ceremonial Inscription by Yan Zhenqing 颜真卿 (709－785)</dc:description>
        <cc:license
           rdf:resource="http://creativecommons.org/licenses/by/3.0/" />
      </cc:Work>
      <cc:License
         rdf:about="http://creativecommons.org/licenses/by/3.0/">
        <cc:permits
           rdf:resource="http://creativecommons.org/ns#Reproduction" />
        <cc:permits
           rdf:resource="http://creativecommons.org/ns#Distribution" />
        <cc:requires
           rdf:resource="http://creativecommons.org/ns#Notice" />
        <cc:requires
           rdf:resource="http://creativecommons.org/ns#Attribution" />
        <cc:permits
           rdf:resource="http://creativecommons.org/ns#DerivativeWorks" />
      </cc:License>
    </rdf:RDF>
  </metadata>
  <g
     inkscape:label="Layer 1"
     inkscape:groupmode="layer"
     id="layer1"
     transform="translate(0,-52.362183)">
    <g
       transform="matrix(4.7609464,0,0,4.7609464,-1421.6669,-3910.0295)"
       id="g4143"
       style="fill:#000000;fill-opacity:1">
      <path
         style="fill:#000000;stroke:#000000;stroke-width:4.75137663000000020px;stroke-linecap:butt;stroke-linejoin:miter;stroke-opacity:1;fill-opacity:1"
         d="M 434.25 50.21875 C 429.61145 50.229556 424.89498 50.893961 420.125 52.375 C 418.61554 53.010253 417.13942 53.747712 415.71875 54.5625 C 409.01615 58.325885 399.55902 64.929925 402.90625 73.84375 C 419.21632 97.143815 427.95706 117.79803 431.625 136.9375 C 385.88517 144.35271 338.93086 151.2679 296.9375 159.78125 C 284.3199 161.02819 268.89836 172.33083 279.71875 185.40625 C 294.83266 208.40829 324.4637 214.71773 350.3125 214.28125 C 375.59256 212.57076 400.7224 209.62227 425.75 205.96875 C 417.3426 232.96846 404.28463 259.74943 396.375 290.75 C 395.27113 317.68701 384.07441 317.55631 416.46875 301.125 C 452.42329 286.3152 491.72363 234.11293 505.875 192.4375 C 544.37808 185.38827 582.86218 178.0157 621.53125 172.25 C 637.07674 170.76539 649.19505 156.2689 645.96875 140.625 C 643.72687 119.69702 627.32303 83.624858 608.03125 93.03125 C 583.10494 105.18492 549.88822 114.41944 512.75 122.25 C 511.30031 113.39736 508.72737 104.75914 504.71875 96.5625 C 488.00899 75.182403 462.59669 50.152712 434.25 50.21875 z M 601.46875 239.75 C 596.01634 239.68271 590.44319 241.14229 584.84375 244.5 C 515.23633 263.26089 453.89791 286.87647 384.78125 319 C 381.35891 319.68142 378.32831 321.29794 375.75 323.46875 C 367.18881 311.18536 355.75762 301.4766 340.375 301 C 317.84006 308.55995 323.65398 336.5124 323.59375 354.9375 C 317.23708 493.20243 334.9243 630.1278 344.15625 767.75 C 348.16881 780.8062 345.41312 797.58997 347.5 810.875 C 294.19617 814.66084 240.99566 820.93729 189.9375 837.4375 C 162.04345 843.78765 131.9313 854.17085 104.03125 842.4375 C 96.350225 840.1989 87.060769 838.17367 80 843.375 C 66.275048 869.17409 89.452462 894.55949 108.1875 910.65625 C 135.53566 926.49259 172.15859 946.24039 200.71875 921.5625 C 360.86623 841.02871 563.6029 850.48673 738.46875 846.34375 C 772.67529 842.75209 803.28531 858.71274 832.25 874.40625 C 890.63758 887.15844 899.61091 903.95395 913.9375 890.15625 C 931.14646 873.58244 913.29761 845.62523 898.125 791.875 C 878.53566 756.10929 831.91769 758.6219 796.59375 758.78125 C 763.7267 754.97421 767.87841 791.80112 740.78125 798.6875 C 716.85858 802.02183 692.73383 804.11959 668.4375 805.4375 C 677.04141 801.04294 684.04794 794.33913 687.28125 785.71875 C 669.06696 639.35088 697.62456 467.07819 670.53125 324.5625 C 663.87583 297.41732 634.78902 240.16123 601.46875 239.75 z M 566.0625 277.5625 C 588.78315 277.27634 583.68191 317.87295 586.75 336.46875 C 586.43625 464.14538 594.53563 591.62956 595.59375 719.28125 C 592.7039 749.34358 592.10024 787.09643 620.75 805.59375 C 621.62015 806.12702 622.51656 806.60463 623.4375 807.0625 C 553.53246 808.45431 482.46067 805.37962 411.21875 807.4375 C 407.99368 781.28665 406.22532 755.06725 405.28125 728.8125 C 406.13768 728.95247 407.01996 729.05298 407.9375 729.0625 C 460.84709 718.41602 501.75444 718.75765 554.1875 706.625 C 562.95297 704.61907 590.17805 703.2066 593.90625 693.625 C 595.21851 685.9574 589.13573 679.45084 584.65625 673.96875 C 544.73678 659.29402 455.28275 671.84908 404.40625 685.09375 C 404.24074 657.10669 404.69289 629.10513 405.125 601.125 C 438.05026 594.40463 476.40213 585.8505 506.5625 576.34375 C 525.68617 562.1258 517.10634 538.6545 494.46875 536.625 C 472.47139 549.0679 435.86831 549.44465 405.65625 558.40625 C 405.95106 521.56436 405.59896 484.80588 403.0625 448.21875 C 441.60677 452.49203 486.10342 443.94452 518.28125 421.96875 C 524.29033 417.88167 523.9642 409.18196 519.59375 404 C 490.09777 397.11084 433.77004 409.97104 401.03125 423.625 C 398.82274 401.17909 395.62826 378.80602 391.15625 356.53125 C 448.67782 342.73078 502.641 308.90052 554.5 280.375 C 558.98576 278.48106 562.81669 277.60338 566.0625 277.5625 z "
         transform="matrix(0.21004227,0,0,0.21004227,298.61015,832.26975)"
         id="path6345" />
    </g>
  </g>
</svg>
