<?xml version="1.0" encoding="UTF-8" standalone="no"?>
<!-- Created with Inkscape (http://www.inkscape.org/) -->

<svg
   xmlns:dc="http://purl.org/dc/elements/1.1/"
   xmlns:cc="http://creativecommons.org/ns#"
   xmlns:rdf="http://www.w3.org/1999/02/22-rdf-syntax-ns#"
   xmlns:svg="http://www.w3.org/2000/svg"
   xmlns="http://www.w3.org/2000/svg"
   xmlns:sodipodi="http://sodipodi.sourceforge.net/DTD/sodipodi-0.dtd"
   xmlns:inkscape="http://www.inkscape.org/namespaces/inkscape"
   width="1000"
   height="1000"
   id="svg3173"
   version="1.1"
   inkscape:version="0.47 r22583"
   sodipodi:docname="7701.svg"
   inkscape:export-filename="E:\chinese\yan\7701.png"
   inkscape:export-xdpi="18.005705"
   inkscape:export-ydpi="18.005705">
  <title
     id="title3684">Sheng</title>
  <defs
     id="defs3175">
    <inkscape:perspective
       sodipodi:type="inkscape:persp3d"
       inkscape:vp_x="0 : 526.18109 : 1"
       inkscape:vp_y="0 : 1000 : 0"
       inkscape:vp_z="744.09448 : 526.18109 : 1"
       inkscape:persp3d-origin="372.04724 : 350.78739 : 1"
       id="perspective3181" />
    <inkscape:perspective
       id="perspective3191"
       inkscape:persp3d-origin="0.5 : 0.33333333 : 1"
       inkscape:vp_z="1 : 0.5 : 1"
       inkscape:vp_y="0 : 1000 : 0"
       inkscape:vp_x="0 : 0.5 : 1"
       sodipodi:type="inkscape:persp3d" />
    <inkscape:perspective
       id="perspective4006"
       inkscape:persp3d-origin="0.5 : 0.33333333 : 1"
       inkscape:vp_z="1 : 0.5 : 1"
       inkscape:vp_y="0 : 1000 : 0"
       inkscape:vp_x="0 : 0.5 : 1"
       sodipodi:type="inkscape:persp3d" />
    <inkscape:perspective
       id="perspective4034"
       inkscape:persp3d-origin="0.5 : 0.33333333 : 1"
       inkscape:vp_z="1 : 0.5 : 1"
       inkscape:vp_y="0 : 1000 : 0"
       inkscape:vp_x="0 : 0.5 : 1"
       sodipodi:type="inkscape:persp3d" />
    <inkscape:perspective
       id="perspective4081"
       inkscape:persp3d-origin="0.5 : 0.33333333 : 1"
       inkscape:vp_z="1 : 0.5 : 1"
       inkscape:vp_y="0 : 1000 : 0"
       inkscape:vp_x="0 : 0.5 : 1"
       sodipodi:type="inkscape:persp3d" />
    <inkscape:perspective
       id="perspective4147"
       inkscape:persp3d-origin="0.5 : 0.33333333 : 1"
       inkscape:vp_z="1 : 0.5 : 1"
       inkscape:vp_y="0 : 1000 : 0"
       inkscape:vp_x="0 : 0.5 : 1"
       sodipodi:type="inkscape:persp3d" />
    <inkscape:perspective
       id="perspective3765"
       inkscape:persp3d-origin="0.5 : 0.33333333 : 1"
       inkscape:vp_z="1 : 0.5 : 1"
       inkscape:vp_y="0 : 1000 : 0"
       inkscape:vp_x="0 : 0.5 : 1"
       sodipodi:type="inkscape:persp3d" />
    <inkscape:perspective
       id="perspective3793"
       inkscape:persp3d-origin="0.5 : 0.33333333 : 1"
       inkscape:vp_z="1 : 0.5 : 1"
       inkscape:vp_y="0 : 1000 : 0"
       inkscape:vp_x="0 : 0.5 : 1"
       sodipodi:type="inkscape:persp3d" />
    <inkscape:perspective
       id="perspective3764"
       inkscape:persp3d-origin="0.5 : 0.33333333 : 1"
       inkscape:vp_z="1 : 0.5 : 1"
       inkscape:vp_y="0 : 1000 : 0"
       inkscape:vp_x="0 : 0.5 : 1"
       sodipodi:type="inkscape:persp3d" />
  </defs>
  <sodipodi:namedview
     id="base"
     pagecolor="#ffffff"
     bordercolor="#666666"
     borderopacity="1.0"
     inkscape:pageopacity="0.0"
     inkscape:pageshadow="2"
     inkscape:zoom="0.49497475"
     inkscape:cx="745.21026"
     inkscape:cy="500.98042"
     inkscape:document-units="px"
     inkscape:current-layer="g5429"
     showgrid="false"
     inkscape:window-width="1440"
     inkscape:window-height="840"
     inkscape:window-x="-4"
     inkscape:window-y="-4"
     inkscape:window-maximized="1" />
  <metadata
     id="metadata3178">
    <rdf:RDF>
      <cc:Work
         rdf:about="">
        <dc:format>image/svg+xml</dc:format>
        <dc:type
           rdf:resource="http://purl.org/dc/dcmitype/StillImage" />
        <dc:title>Sheng</dc:title>
        <dc:date>2010-07-19</dc:date>
        <dc:creator>
          <cc:Agent>
            <dc:title>Alex Amies</dc:title>
          </cc:Agent>
        </dc:creator>
        <dc:rights>
          <cc:Agent>
            <dc:title>@ Alex Amies 2010</dc:title>
          </cc:Agent>
        </dc:rights>
        <dc:publisher>
          <cc:Agent>
            <dc:title>chinesenotes.com</dc:title>
          </cc:Agent>
        </dc:publisher>
        <dc:source>Yan Qin Ceremonial Inscription</dc:source>
        <dc:language>Chinese 中文</dc:language>
        <dc:description>Tracing from Tang Dynasty Ceremonial Inscription by Yan Zhenqing 颜真卿 (709－785)</dc:description>
        <cc:license
           rdf:resource="http://creativecommons.org/licenses/by/3.0/" />
      </cc:Work>
      <cc:License
         rdf:about="http://creativecommons.org/licenses/by/3.0/">
        <cc:permits
           rdf:resource="http://creativecommons.org/ns#Reproduction" />
        <cc:permits
           rdf:resource="http://creativecommons.org/ns#Distribution" />
        <cc:requires
           rdf:resource="http://creativecommons.org/ns#Notice" />
        <cc:requires
           rdf:resource="http://creativecommons.org/ns#Attribution" />
        <cc:permits
           rdf:resource="http://creativecommons.org/ns#DerivativeWorks" />
      </cc:License>
    </rdf:RDF>
  </metadata>
  <g
     inkscape:label="Layer 1"
     inkscape:groupmode="layer"
     id="layer1"
     transform="translate(0,-52.362183)">
    <g
       transform="matrix(4.7513766,0,0,4.7513766,-1438.7404,-2863.5829)"
       id="g5429"
       style="fill:none;fill-opacity:1">
      <path
         sodipodi:nodetypes="ccccc"
         id="path5370"
         d="m 366.07142,663.07648 c -6.85234,4.56096 -14.01058,5.63737 -20.03566,3.16982 -8.92457,8.10657 0.98338,20.88042 10.32963,23.52474 7.72593,-0.31743 9.60377,-5.27215 6.97638,-10.86412 -3.65948,-6.54765 -2.73175,-6.61774 2.72965,-15.83044 z"
         style="fill:#000000;fill-opacity:1;stroke:#000000;stroke-width:1px;stroke-linecap:butt;stroke-linejoin:miter;stroke-opacity:1" />
      <path
         style="fill:#000000;stroke:#000000;stroke-width:4.75137663000000020px;stroke-linecap:butt;stroke-linejoin:miter;stroke-opacity:1;fill-opacity:1"
         d="M 448.875 86.8125 C 434.06495 86.89364 419.27848 92.164006 404.125 105.625 C 410.89918 118.2964 418.08541 130.71807 424.59375 143.53125 C 440.8732 203.65698 434.9227 265.91344 441.21875 327.34375 C 443.09834 333.00188 446.05897 337.63658 449.71875 341.28125 C 365.9266 429.75911 275.2341 511.77649 189.5 598.34375 C 148.45348 646.06311 110.07777 696.44435 63.03125 738.5625 C 76.063231 770.15559 105.07282 724.92354 123.53125 717.53125 C 288.26452 584.76781 441.59437 438.66001 601.1875 299.75 C 618.44369 280.76611 662.84668 277.65684 640.90625 245.8125 C 633.1568 221.22565 603.63053 212.51395 582.03125 202.625 L 577.1875 200.65625 C 547.65513 197.77521 554.05082 231.45787 535.03125 245.09375 C 527.44456 254.33534 519.72534 263.47724 511.9375 272.53125 C 516.02625 235.90851 518.99076 199.44178 526.84375 162.78125 C 533.81117 144.70464 531.63648 132.68365 524.59375 115.78125 C 498.25996 100.93679 473.55842 86.677267 448.875 86.8125 z "
         transform="matrix(0.21046532,0,0,0.21046532,302.80496,613.70532)"
         id="path5372" />
      <path
         style="fill:#000000;fill-opacity:1;stroke:#000000;stroke-width:1px;stroke-linecap:butt;stroke-linejoin:miter;stroke-opacity:1"
         d="m 459.64285,665.57647 c 2.37243,11.28617 11.60006,14.20876 14.64286,-2.5 -0.66437,-6.64872 -3.25359,-10.33304 -6.55575,-16.63639 -4.22592,-4.68597 -9.26786,-6.51777 -14.51568,-4.79218 -2.71703,3.06809 -0.76542,8.72225 -5.55246,12.36138 9.86025,1.25638 6.65991,4.50439 11.98103,11.56719 z"
         id="path5374"
         sodipodi:nodetypes="cccccc" />
      <path
         style="fill:#000000;stroke:#000000;stroke-width:4.75137663000000020px;stroke-linecap:butt;stroke-linejoin:miter;stroke-opacity:1;fill-opacity:1"
         d="M 670.15625 392.25 C 646.00945 392.30936 626.17392 411.38367 602.03125 413.90625 C 549.34428 427.12781 496.91931 441.41739 444.84375 456.875 L 419.375 472.15625 C 419.28228 473.99741 419.3298 475.67888 419.46875 477.25 C 409.60406 486.4686 408.64435 502.96923 409.4375 516.09375 C 410.19096 634.08389 411.26546 752.07491 412.78125 870.0625 C 404.23703 872.0422 395.69801 874.04207 387.15625 876.03125 C 376.19896 896.20412 395.89735 905.014 413.25 911.59375 C 415.06278 911.58498 416.88601 911.55109 418.6875 911.5 C 430.1666 931.64598 453.58572 935.37538 463.09375 906.40625 C 490.05745 901.26598 516.35451 893.09548 543.125 885.53125 C 586.26295 874.04415 630.21567 869.3124 674.4375 865.0625 C 673.65221 874.93044 672.88008 884.81037 672.21875 894.6875 C 692.01669 946.72491 733.12022 917.70054 747.96875 860.28125 C 756.08481 741.58136 761.45055 621.04366 754.8125 501.96875 C 750.27883 475.52392 739.51571 450.07094 725.5 427.28125 C 714.26556 408.99216 694.21183 399.65363 675.0625 392.5 C 673.41198 392.3243 671.76604 392.24604 670.15625 392.25 z M 646.5625 436.40625 C 677.08354 440.65517 675.54762 478.01755 676.3125 501.40625 C 682.09849 603.58484 682.62463 706.12561 678.6875 808.375 C 678.38859 813.22356 678.06522 818.06119 677.71875 822.90625 C 675.98074 821.38307 674.14115 819.84434 672.21875 818.3125 C 645.78499 820.76459 619.24305 822.60948 592.875 825.4375 C 550.80419 837.24989 508.39287 847.66883 465.875 857.6875 C 464.7865 820.25233 463.24973 782.76878 464.59375 745.375 C 469.36986 746.86181 474.48854 747.92094 479.1875 748.6875 C 523.26949 742.08028 566.33073 730.95928 609.4375 719.90625 C 629.64933 706.2296 632.31346 704.18896 619.625 684.25 C 564.51094 678.009 517.88861 702.48868 466.40625 714.78125 C 466.70237 711.31457 467.04112 707.87106 467.40625 704.40625 C 468.34375 671.94814 471.34882 638.94197 473.40625 605.90625 C 511.3501 611.12854 536.33651 601.60722 568.71875 596.03125 C 584.87714 582.60695 596.91155 572.19244 600.96875 551.90625 C 590.83891 533.19675 562.7276 548.28212 545.15625 552.46875 C 520.45005 565.4207 501.13275 564.27904 474.71875 581.25 C 476.10605 548.32029 475.78801 515.4539 470.75 483.15625 C 473.65353 481.44519 476.21914 479.68959 478.3125 478 C 534.22485 463.53624 594.07086 462.49682 646.5625 436.40625 z "
         transform="matrix(0.21046532,0,0,0.21046532,302.80496,613.70532)"
         id="path5378" />
    </g>
  </g>
</svg>
