<?xml version="1.0" encoding="UTF-8" standalone="no"?>
<!-- Created with Inkscape (http://www.inkscape.org/) -->

<svg
   xmlns:dc="http://purl.org/dc/elements/1.1/"
   xmlns:cc="http://creativecommons.org/ns#"
   xmlns:rdf="http://www.w3.org/1999/02/22-rdf-syntax-ns#"
   xmlns:svg="http://www.w3.org/2000/svg"
   xmlns="http://www.w3.org/2000/svg"
   xmlns:sodipodi="http://sodipodi.sourceforge.net/DTD/sodipodi-0.dtd"
   xmlns:inkscape="http://www.inkscape.org/namespaces/inkscape"
   width="1000"
   height="1000"
   id="svg3173"
   version="1.1"
   inkscape:version="0.47 r22583"
   sodipodi:docname="77e2.svg"
   inkscape:export-filename="E:\chinese\yan\77e2.png"
   inkscape:export-xdpi="18.005705"
   inkscape:export-ydpi="18.005705">
  <title
     id="title4425">Shi</title>
  <defs
     id="defs3175">
    <inkscape:perspective
       sodipodi:type="inkscape:persp3d"
       inkscape:vp_x="0 : 526.18109 : 1"
       inkscape:vp_y="0 : 1000 : 0"
       inkscape:vp_z="744.09448 : 526.18109 : 1"
       inkscape:persp3d-origin="372.04724 : 350.78739 : 1"
       id="perspective3181" />
    <inkscape:perspective
       id="perspective3191"
       inkscape:persp3d-origin="0.5 : 0.33333333 : 1"
       inkscape:vp_z="1 : 0.5 : 1"
       inkscape:vp_y="0 : 1000 : 0"
       inkscape:vp_x="0 : 0.5 : 1"
       sodipodi:type="inkscape:persp3d" />
    <inkscape:perspective
       id="perspective4006"
       inkscape:persp3d-origin="0.5 : 0.33333333 : 1"
       inkscape:vp_z="1 : 0.5 : 1"
       inkscape:vp_y="0 : 1000 : 0"
       inkscape:vp_x="0 : 0.5 : 1"
       sodipodi:type="inkscape:persp3d" />
    <inkscape:perspective
       id="perspective4034"
       inkscape:persp3d-origin="0.5 : 0.33333333 : 1"
       inkscape:vp_z="1 : 0.5 : 1"
       inkscape:vp_y="0 : 1000 : 0"
       inkscape:vp_x="0 : 0.5 : 1"
       sodipodi:type="inkscape:persp3d" />
    <inkscape:perspective
       id="perspective4081"
       inkscape:persp3d-origin="0.5 : 0.33333333 : 1"
       inkscape:vp_z="1 : 0.5 : 1"
       inkscape:vp_y="0 : 1000 : 0"
       inkscape:vp_x="0 : 0.5 : 1"
       sodipodi:type="inkscape:persp3d" />
    <inkscape:perspective
       id="perspective4147"
       inkscape:persp3d-origin="0.5 : 0.33333333 : 1"
       inkscape:vp_z="1 : 0.5 : 1"
       inkscape:vp_y="0 : 1000 : 0"
       inkscape:vp_x="0 : 0.5 : 1"
       sodipodi:type="inkscape:persp3d" />
    <inkscape:perspective
       id="perspective3801"
       inkscape:persp3d-origin="0.5 : 0.33333333 : 1"
       inkscape:vp_z="1 : 0.5 : 1"
       inkscape:vp_y="0 : 1000 : 0"
       inkscape:vp_x="0 : 0.5 : 1"
       sodipodi:type="inkscape:persp3d" />
    <inkscape:perspective
       id="perspective3122"
       inkscape:persp3d-origin="0.5 : 0.33333333 : 1"
       inkscape:vp_z="1 : 0.5 : 1"
       inkscape:vp_y="0 : 1000 : 0"
       inkscape:vp_x="0 : 0.5 : 1"
       sodipodi:type="inkscape:persp3d" />
    <inkscape:perspective
       id="perspective3854"
       inkscape:persp3d-origin="0.5 : 0.33333333 : 1"
       inkscape:vp_z="1 : 0.5 : 1"
       inkscape:vp_y="0 : 1000 : 0"
       inkscape:vp_x="0 : 0.5 : 1"
       sodipodi:type="inkscape:persp3d" />
    <inkscape:perspective
       id="perspective3922"
       inkscape:persp3d-origin="0.5 : 0.33333333 : 1"
       inkscape:vp_z="1 : 0.5 : 1"
       inkscape:vp_y="0 : 1000 : 0"
       inkscape:vp_x="0 : 0.5 : 1"
       sodipodi:type="inkscape:persp3d" />
    <inkscape:perspective
       id="perspective3945"
       inkscape:persp3d-origin="0.5 : 0.33333333 : 1"
       inkscape:vp_z="1 : 0.5 : 1"
       inkscape:vp_y="0 : 1000 : 0"
       inkscape:vp_x="0 : 0.5 : 1"
       sodipodi:type="inkscape:persp3d" />
    <inkscape:perspective
       id="perspective3972"
       inkscape:persp3d-origin="0.5 : 0.33333333 : 1"
       inkscape:vp_z="1 : 0.5 : 1"
       inkscape:vp_y="0 : 1000 : 0"
       inkscape:vp_x="0 : 0.5 : 1"
       sodipodi:type="inkscape:persp3d" />
    <inkscape:perspective
       id="perspective3995"
       inkscape:persp3d-origin="0.5 : 0.33333333 : 1"
       inkscape:vp_z="1 : 0.5 : 1"
       inkscape:vp_y="0 : 1000 : 0"
       inkscape:vp_x="0 : 0.5 : 1"
       sodipodi:type="inkscape:persp3d" />
    <inkscape:perspective
       id="perspective3802"
       inkscape:persp3d-origin="0.5 : 0.33333333 : 1"
       inkscape:vp_z="1 : 0.5 : 1"
       inkscape:vp_y="0 : 1000 : 0"
       inkscape:vp_x="0 : 0.5 : 1"
       sodipodi:type="inkscape:persp3d" />
  </defs>
  <sodipodi:namedview
     id="base"
     pagecolor="#ffffff"
     bordercolor="#666666"
     borderopacity="1.0"
     inkscape:pageopacity="0.0"
     inkscape:pageshadow="2"
     inkscape:zoom="0.49497475"
     inkscape:cx="58.806952"
     inkscape:cy="520.83683"
     inkscape:document-units="px"
     inkscape:current-layer="g4634"
     showgrid="false"
     inkscape:window-width="1440"
     inkscape:window-height="840"
     inkscape:window-x="-4"
     inkscape:window-y="-4"
     inkscape:window-maximized="1" />
  <metadata
     id="metadata3178">
    <rdf:RDF>
      <cc:Work
         rdf:about="">
        <dc:format>image/svg+xml</dc:format>
        <dc:type
           rdf:resource="http://purl.org/dc/dcmitype/StillImage" />
        <dc:title>Shi</dc:title>
        <dc:date>2010-08-21</dc:date>
        <dc:creator>
          <cc:Agent>
            <dc:title>Alex Amies</dc:title>
          </cc:Agent>
        </dc:creator>
        <dc:rights>
          <cc:Agent>
            <dc:title>@ Alex Amies 2010</dc:title>
          </cc:Agent>
        </dc:rights>
        <dc:publisher>
          <cc:Agent>
            <dc:title>chinesenotes.com</dc:title>
          </cc:Agent>
        </dc:publisher>
        <dc:source>Yan Qin Ceremonial Inscription</dc:source>
        <dc:language>Chinese 中文</dc:language>
        <dc:description>Tracing from Tang Dynasty Ceremonial Inscription by Yan Zhenqing 颜真卿 (709－785)</dc:description>
        <cc:license
           rdf:resource="http://creativecommons.org/licenses/by/3.0/" />
      </cc:Work>
      <cc:License
         rdf:about="http://creativecommons.org/licenses/by/3.0/">
        <cc:permits
           rdf:resource="http://creativecommons.org/ns#Reproduction" />
        <cc:permits
           rdf:resource="http://creativecommons.org/ns#Distribution" />
        <cc:requires
           rdf:resource="http://creativecommons.org/ns#Notice" />
        <cc:requires
           rdf:resource="http://creativecommons.org/ns#Attribution" />
        <cc:permits
           rdf:resource="http://creativecommons.org/ns#DerivativeWorks" />
      </cc:License>
    </rdf:RDF>
  </metadata>
  <g
     inkscape:label="Layer 1"
     inkscape:groupmode="layer"
     id="layer1"
     transform="translate(0,-52.362183)">
    <g
       transform="matrix(4.7609464,0,0,4.7609464,-444.07486,-2879.5352)"
       id="g4634"
       style="fill:#000000;fill-opacity:1">
      <path
         style="fill:#000000;fill-opacity:1;stroke:#000000;stroke-width:1.27738893000000010px;stroke-linecap:butt;stroke-linejoin:miter;stroke-opacity:1"
         d="m 196.6877,639.58207 c -0.17839,-8.4e-4 -0.3541,10e-4 -0.53291,0.008 -7.60369,1.3102 -12.73811,8.80041 -17.8793,14.20573 -6.82512,7.17576 -13.2774,13.11545 -20.76886,19.67697 -2.39674,2.99998 5.93311,3.4358 8.32236,3.53961 10.22494,-2.41321 20.26552,-6.73147 30.71366,-8.93968 6.20306,-1.31103 12.98986,-0.40369 19.0606,-2.00237 2.58116,-0.67972 4.49684,-3.87695 4.33437,-5.96767 2.02728,1.1008 5.81385,2.00567 8.35788,2.29405 7.32513,0.20184 20.08688,1.84905 25.2957,-4.23334 2.90911,-5.74467 -0.0573,-12.36191 -6.57262,-14.41859 -4.42868,1.14549 -9.3275,1.91115 -13.47386,3.7367 -2.99241,2.13279 -4.83245,5.63914 -8.34012,7.37878 -1.76115,0.87344 -4.88703,2.047 -6.11964,3.09814 -3.751,-8.07344 -12.05361,-18.32737 -22.39726,-18.37622 l 0,-1.1e-4 z m 1.56028,34.89177 c -2.3543,0.0238 -4.70569,0.24733 -6.75914,0.39416 -2.30482,7.58688 1.37358,15.11743 1.03031,22.73549 0.0845,3.60457 0.0358,7.23678 -0.14211,10.87897 -12.78107,3.94009 -31.61458,8.44836 -44.59499,11.93264 -3.72797,-0.0981 -7.52387,-0.0515 -11.13792,0.85929 -4.62028,3.04963 -0.6178,8.38521 2.42476,11.07606 4.96096,2.52118 12.19098,3.68304 17.09769,0.67796 7.42805,-3.22167 21.20762,-6.54202 28.39437,-10.19043 2.23489,-0.72079 4.47094,-1.44454 6.70585,-2.16791 -2.8381,21.35615 -19.84204,51.80627 -33.55668,69.43809 -3.49097,3.95004 -9.63849,6.39602 -11.77742,11.32832 -0.24065,7.15111 8.98642,-0.46999 12.53238,-2.04178 25.09657,-13.44914 41.41712,-47.00925 50.01487,-70.27372 1.49434,-4.85242 2.65876,-9.90005 3.4373,-15.03348 12.74659,-3.94349 33.23433,-9.29636 46.36345,-12.12703 4.87537,2.0074 9.46918,-3.54035 6.5815,-7.33148 -2.9947,-3.70002 -8.39896,-6.19836 -13.55381,-6.13322 -6.35832,0.23125 -10.54039,5.11874 -16.43154,6.64564 -4.72112,1.71285 -17.1003,5.07016 -21.85824,6.67965 0.19592,-7.4187 -0.48228,-14.82982 -2.18495,-21.89197 -2.19562,-4.62427 -7.4062,-5.50751 -12.58568,-5.45525 z m 13.8025,55.21474 c -1.19936,-10e-4 -2.41045,0.0606 -3.61494,0.1892 0.68767,3.67328 13.91959,14.94215 16.45209,17.46204 3.14728,2.72441 6.85191,5.58936 7.36311,9.72013 2.12489,7.6309 3.04429,15.96431 8.69539,22.35708 2.55484,3.0077 7.44462,4.54975 11.37774,2.77493 8.65018,-4.82607 9.4922,-16.4301 5.73771,-24.02046 -3.96689,-6.55595 -10.37252,-12.12608 -18.35003,-14.66297 -5.91188,-2.27056 -21.18453,-13.81282 -27.66107,-13.81995 z"
         id="path2844"
         sodipodi:nodetypes="ccsccsscccccscccccccccccccccccccccccccccccccccc" />
    </g>
  </g>
</svg>
