<?xml version="1.0" encoding="UTF-8" standalone="no"?>
<!-- Created with Inkscape (http://www.inkscape.org/) -->

<svg
   xmlns:dc="http://purl.org/dc/elements/1.1/"
   xmlns:cc="http://creativecommons.org/ns#"
   xmlns:rdf="http://www.w3.org/1999/02/22-rdf-syntax-ns#"
   xmlns:svg="http://www.w3.org/2000/svg"
   xmlns="http://www.w3.org/2000/svg"
   xmlns:sodipodi="http://sodipodi.sourceforge.net/DTD/sodipodi-0.dtd"
   xmlns:inkscape="http://www.inkscape.org/namespaces/inkscape"
   width="1000"
   height="1000"
   id="svg3173"
   version="1.1"
   inkscape:version="0.47 r22583"
   sodipodi:docname="77ed.svg"
   inkscape:export-filename="E:\chinese\yan\77ed.png"
   inkscape:export-xdpi="18.005705"
   inkscape:export-ydpi="18.005705">
  <title
     id="title4450">Duan</title>
  <defs
     id="defs3175">
    <inkscape:perspective
       sodipodi:type="inkscape:persp3d"
       inkscape:vp_x="0 : 526.18109 : 1"
       inkscape:vp_y="0 : 1000 : 0"
       inkscape:vp_z="744.09448 : 526.18109 : 1"
       inkscape:persp3d-origin="372.04724 : 350.78739 : 1"
       id="perspective3181" />
    <inkscape:perspective
       id="perspective3191"
       inkscape:persp3d-origin="0.5 : 0.33333333 : 1"
       inkscape:vp_z="1 : 0.5 : 1"
       inkscape:vp_y="0 : 1000 : 0"
       inkscape:vp_x="0 : 0.5 : 1"
       sodipodi:type="inkscape:persp3d" />
    <inkscape:perspective
       id="perspective4006"
       inkscape:persp3d-origin="0.5 : 0.33333333 : 1"
       inkscape:vp_z="1 : 0.5 : 1"
       inkscape:vp_y="0 : 1000 : 0"
       inkscape:vp_x="0 : 0.5 : 1"
       sodipodi:type="inkscape:persp3d" />
    <inkscape:perspective
       id="perspective4034"
       inkscape:persp3d-origin="0.5 : 0.33333333 : 1"
       inkscape:vp_z="1 : 0.5 : 1"
       inkscape:vp_y="0 : 1000 : 0"
       inkscape:vp_x="0 : 0.5 : 1"
       sodipodi:type="inkscape:persp3d" />
    <inkscape:perspective
       id="perspective4081"
       inkscape:persp3d-origin="0.5 : 0.33333333 : 1"
       inkscape:vp_z="1 : 0.5 : 1"
       inkscape:vp_y="0 : 1000 : 0"
       inkscape:vp_x="0 : 0.5 : 1"
       sodipodi:type="inkscape:persp3d" />
    <inkscape:perspective
       id="perspective4147"
       inkscape:persp3d-origin="0.5 : 0.33333333 : 1"
       inkscape:vp_z="1 : 0.5 : 1"
       inkscape:vp_y="0 : 1000 : 0"
       inkscape:vp_x="0 : 0.5 : 1"
       sodipodi:type="inkscape:persp3d" />
    <inkscape:perspective
       id="perspective3801"
       inkscape:persp3d-origin="0.5 : 0.33333333 : 1"
       inkscape:vp_z="1 : 0.5 : 1"
       inkscape:vp_y="0 : 1000 : 0"
       inkscape:vp_x="0 : 0.5 : 1"
       sodipodi:type="inkscape:persp3d" />
    <inkscape:perspective
       id="perspective3122"
       inkscape:persp3d-origin="0.5 : 0.33333333 : 1"
       inkscape:vp_z="1 : 0.5 : 1"
       inkscape:vp_y="0 : 1000 : 0"
       inkscape:vp_x="0 : 0.5 : 1"
       sodipodi:type="inkscape:persp3d" />
    <inkscape:perspective
       id="perspective3854"
       inkscape:persp3d-origin="0.5 : 0.33333333 : 1"
       inkscape:vp_z="1 : 0.5 : 1"
       inkscape:vp_y="0 : 1000 : 0"
       inkscape:vp_x="0 : 0.5 : 1"
       sodipodi:type="inkscape:persp3d" />
    <inkscape:perspective
       id="perspective3922"
       inkscape:persp3d-origin="0.5 : 0.33333333 : 1"
       inkscape:vp_z="1 : 0.5 : 1"
       inkscape:vp_y="0 : 1000 : 0"
       inkscape:vp_x="0 : 0.5 : 1"
       sodipodi:type="inkscape:persp3d" />
    <inkscape:perspective
       id="perspective3945"
       inkscape:persp3d-origin="0.5 : 0.33333333 : 1"
       inkscape:vp_z="1 : 0.5 : 1"
       inkscape:vp_y="0 : 1000 : 0"
       inkscape:vp_x="0 : 0.5 : 1"
       sodipodi:type="inkscape:persp3d" />
    <inkscape:perspective
       id="perspective3972"
       inkscape:persp3d-origin="0.5 : 0.33333333 : 1"
       inkscape:vp_z="1 : 0.5 : 1"
       inkscape:vp_y="0 : 1000 : 0"
       inkscape:vp_x="0 : 0.5 : 1"
       sodipodi:type="inkscape:persp3d" />
    <inkscape:perspective
       id="perspective3995"
       inkscape:persp3d-origin="0.5 : 0.33333333 : 1"
       inkscape:vp_z="1 : 0.5 : 1"
       inkscape:vp_y="0 : 1000 : 0"
       inkscape:vp_x="0 : 0.5 : 1"
       sodipodi:type="inkscape:persp3d" />
    <inkscape:perspective
       id="perspective3802"
       inkscape:persp3d-origin="0.5 : 0.33333333 : 1"
       inkscape:vp_z="1 : 0.5 : 1"
       inkscape:vp_y="0 : 1000 : 0"
       inkscape:vp_x="0 : 0.5 : 1"
       sodipodi:type="inkscape:persp3d" />
  </defs>
  <sodipodi:namedview
     id="base"
     pagecolor="#ffffff"
     bordercolor="#666666"
     borderopacity="1.0"
     inkscape:pageopacity="0.0"
     inkscape:pageshadow="2"
     inkscape:zoom="0.49497475"
     inkscape:cx="58.806952"
     inkscape:cy="520.83683"
     inkscape:document-units="px"
     inkscape:current-layer="g4634"
     showgrid="false"
     inkscape:window-width="1440"
     inkscape:window-height="840"
     inkscape:window-x="-4"
     inkscape:window-y="-4"
     inkscape:window-maximized="1" />
  <metadata
     id="metadata3178">
    <rdf:RDF>
      <cc:Work
         rdf:about="">
        <dc:format>image/svg+xml</dc:format>
        <dc:type
           rdf:resource="http://purl.org/dc/dcmitype/StillImage" />
        <dc:title>Duan</dc:title>
        <dc:date>2010-08-21</dc:date>
        <dc:creator>
          <cc:Agent>
            <dc:title>Alex Amies</dc:title>
          </cc:Agent>
        </dc:creator>
        <dc:rights>
          <cc:Agent>
            <dc:title>@ Alex Amies 2010</dc:title>
          </cc:Agent>
        </dc:rights>
        <dc:publisher>
          <cc:Agent>
            <dc:title>chinesenotes.com</dc:title>
          </cc:Agent>
        </dc:publisher>
        <dc:source>Yan Qin Ceremonial Inscription</dc:source>
        <dc:language>Chinese 中文</dc:language>
        <dc:description>Tracing from Tang Dynasty Ceremonial Inscription by Yan Zhenqing 颜真卿 (709－785)</dc:description>
        <cc:license
           rdf:resource="http://creativecommons.org/licenses/by/3.0/" />
      </cc:Work>
      <cc:License
         rdf:about="http://creativecommons.org/licenses/by/3.0/">
        <cc:permits
           rdf:resource="http://creativecommons.org/ns#Reproduction" />
        <cc:permits
           rdf:resource="http://creativecommons.org/ns#Distribution" />
        <cc:requires
           rdf:resource="http://creativecommons.org/ns#Notice" />
        <cc:requires
           rdf:resource="http://creativecommons.org/ns#Attribution" />
        <cc:permits
           rdf:resource="http://creativecommons.org/ns#DerivativeWorks" />
      </cc:License>
    </rdf:RDF>
  </metadata>
  <g
     inkscape:label="Layer 1"
     inkscape:groupmode="layer"
     id="layer1"
     transform="translate(0,-52.362183)">
    <g
       transform="matrix(4.7609464,0,0,4.7609464,-444.07486,-2879.5352)"
       id="g4634"
       style="fill:#000000;fill-opacity:1">
      <path
         style="fill:#000000;stroke:#000000;stroke-width:4.77051640000000000px;stroke-linecap:butt;stroke-linejoin:miter;stroke-opacity:1;fill-opacity:1"
         d="M 290.09375 209.4375 C 289.46611 209.43416 288.8479 209.44165 288.21875 209.46875 C 261.46604 214.66247 243.40119 244.35418 225.3125 265.78125 C 201.2991 294.22643 183.07659 327.86471 156.71875 353.875 C 148.28607 365.76713 177.59369 367.49476 186 367.90625 C 221.97528 358.34013 257.3019 341.22227 294.0625 332.46875 C 315.88725 327.27175 339.76582 330.8685 361.125 324.53125 C 370.20654 321.83677 376.94663 309.16273 376.375 300.875 C 383.50774 305.23864 396.83037 308.8256 405.78125 309.96875 C 431.55387 310.76887 476.45461 317.2985 494.78125 293.1875 C 505.01662 270.41523 494.57964 244.18404 471.65625 236.03125 C 456.07443 240.57205 438.83849 243.60716 424.25 250.84375 C 413.72155 259.29829 407.24758 273.19771 394.90625 280.09375 C 388.70985 283.55614 377.7118 288.20821 373.375 292.375 C 360.17753 260.37132 326.48669 209.63113 290.09375 209.4375 z M 300.0625 357.84375 C 291.77914 357.9379 283.50605 358.82418 276.28125 359.40625 C 268.17198 389.48115 281.11401 419.33276 279.90625 449.53125 C 280.20373 463.82004 280.03237 478.21835 279.40625 492.65625 C 234.43755 508.27504 189.07635 522.7818 143.40625 536.59375 C 130.28984 536.20478 116.93438 536.38968 104.21875 540 C 87.962832 552.08895 102.04511 573.23954 112.75 583.90625 C 130.20458 593.90038 155.64258 598.50611 172.90625 586.59375 C 199.04099 573.82284 226.62048 564.02506 251.90625 549.5625 C 259.76946 546.70525 267.63674 543.83624 275.5 540.96875 C 265.5145 625.62597 238.53462 709.32501 190.28125 779.21875 C 177.99867 794.87698 156.36933 804.57303 148.84375 824.125 C 147.99706 852.47248 180.46144 822.2619 192.9375 816.03125 C 281.23687 762.71793 305.8123 666.69066 336.0625 574.46875 C 341.32017 555.23342 345.41705 535.22425 348.15625 514.875 C 393.00367 499.24272 438.21298 484.75219 484.40625 473.53125 C 501.5597 481.4887 517.7225 459.49706 507.5625 444.46875 C 497.026 429.80161 478.01173 419.89802 459.875 420.15625 C 437.50398 421.07292 422.78985 440.44727 402.0625 446.5 C 385.45178 453.28989 368.7715 459.86987 352.03125 466.25 C 352.72057 436.84175 350.3344 407.46357 344.34375 379.46875 C 336.61872 361.13783 318.28588 357.63661 300.0625 357.84375 z M 348.625 576.71875 C 344.40519 576.71352 340.14412 576.9589 335.90625 577.46875 C 338.32572 592.02987 353.5272 598.01096 362.4375 608 C 373.51084 618.79973 386.54516 630.15659 388.34375 646.53125 C 395.81996 676.78064 399.05474 709.81487 418.9375 735.15625 C 427.9264 747.07895 445.13054 753.19174 458.96875 746.15625 C 489.40343 727.02539 492.36597 681.02621 479.15625 650.9375 C 465.1992 624.94926 442.66172 602.8689 414.59375 592.8125 C 393.79351 583.81186 371.41197 576.74699 348.625 576.71875 z "
         transform="matrix(0.21004227,0,0,0.21004227,93.274493,615.82239)"
         id="path2844" />
      <path
         style="fill:#000000;stroke:#000000;stroke-width:4.77051640000000000px;stroke-linecap:butt;stroke-linejoin:miter;stroke-opacity:1;fill-opacity:1"
         d="M 783.40625 141.46875 C 781.51777 141.47718 779.60498 141.60525 777.6875 141.84375 C 761.09836 147.10169 751.997 165.08781 734.5 168.625 C 678.43052 190.17571 622.43735 212.11732 567.625 236.71875 C 573.71725 251.45974 592.36835 253.97195 606.21875 250.875 C 674.69554 243.78252 744.80923 249.65718 811.90625 231.625 C 825.31569 224.90888 842.1558 222.34811 852.59375 211.34375 C 864.4158 193.49763 853.62765 167.27793 834.21875 160.03125 C 818.55979 151.46231 801.66158 141.38729 783.40625 141.46875 z M 860.875 332.78125 C 839.49126 332.59224 820.76744 344.671 800.40625 349.46875 C 766.92423 359.8329 732.95153 368.53338 698.8125 376.4375 C 680.29832 383.53388 653.64671 406.28154 678.15625 423.46875 C 706.15976 417.65383 733.68053 410.33811 762.9375 407.53125 C 774.06302 398.26711 793.42517 412.05628 788.125 425.59375 C 783.08406 445.44285 778.31338 465.42623 771 484.59375 C 770.76799 493.46735 776.63581 500.96844 784.34375 504.75 C 779.38888 505.84537 774.50144 507.09859 769.71875 508.46875 C 736.15832 518.74097 701.98416 526.95501 668.65625 537.96875 C 667.64737 538.32627 666.498 538.57862 665.3125 538.8125 C 663.34243 521.95735 660.53508 505.11639 659.25 488.3125 C 648.24869 439.5377 631.06676 381.10796 591.6875 347.28125 C 576.04174 340.40073 554.29071 335.23539 542.0625 340.65625 C 531.8944 345.16382 542.53915 367.62761 551.28125 377.09375 C 571.90462 434.13298 592.98523 491.5244 602.625 551.65625 C 604.70501 573.20544 611.39021 590.69034 625.5625 606.4375 C 639.3373 609.31297 655.80428 607.41971 665.40625 596.09375 C 665.93917 592.99091 666.3436 589.88376 666.65625 586.78125 C 690.20771 590.86669 722.84432 580.47714 747.5 572.28125 C 782.1296 561.63158 817.48455 552.01178 853.84375 550.15625 C 871.46773 544.19488 871.24912 515.0326 854.03125 508.6875 C 842.1549 503.05347 829.44293 500.84598 816.59375 500.84375 C 832.62961 492.25023 844.2972 476.41545 858.5625 465.25 C 873.61542 448.0229 881.90426 425.63523 899.09375 410.15625 C 913.61445 382.03439 893.09199 337.44636 860.875 332.78125 z M 824.0625 590.90625 C 820.42258 590.89005 816.7129 590.95371 812.96875 591.09375 C 807.97971 591.38464 801.8459 599.47428 802.75 604.71875 C 808.11668 653.629 775.75897 701.30366 737.34375 729.46875 C 726.6927 735.71863 713.72845 741.55782 708.625 753.15625 C 704.53863 762.44324 718.87537 759.99888 724.65625 758.65625 C 739.60462 755.18447 756.68699 757.87319 770.375 751.25 C 808.33822 732.88079 844.88251 707.01603 881 685.875 C 898.20792 668.79072 893.14112 642.21397 883.28125 622.96875 C 871.89954 596.1489 849.54194 591.01966 824.0625 590.90625 z M 682.5625 640.28125 C 681.90558 640.24443 680.77355 640.60016 679.03125 641.53125 C 664.83934 649.11534 649.14087 657.06869 633.78125 659.03125 C 624.31073 652.66858 625.18283 642.12334 611.9375 642.21875 C 590.5081 652.40008 575.81007 675.15185 567.625 696.71875 C 564.42441 721.74276 583.17136 748.50974 601.09375 764.40625 C 607.04389 768.76285 614.12116 775.0291 620.53125 774.9375 C 626.39597 774.85371 636.9207 771.85842 638.25 764.25 C 643.11673 736.39432 648.28847 707.9521 660.4375 682.3125 C 666.20239 670.14609 674.19993 659.03479 680.65625 647.28125 C 682.37794 644.14702 684.53327 640.39172 682.5625 640.28125 z M 777.875 785.34375 C 675.97768 785.43834 504.67427 848.80825 492.65625 863.6875 C 480.90657 878.23452 525.41935 884.40745 543.8125 884.5 C 667.90471 863.60759 795.30662 873.07446 919.5 855.90625 C 944.38066 845.75691 940.07584 803.0464 913.90625 797.65625 C 872.00583 781.4129 826.35381 789.58972 782.6875 785.375 C 781.10597 785.34415 779.49242 785.34225 777.875 785.34375 z "
         transform="matrix(0.21004227,0,0,0.21004227,93.274493,615.82239)"
         id="path2854" />
    </g>
  </g>
</svg>
