<?xml version="1.0" encoding="UTF-8" standalone="no"?>
<!-- Created with Inkscape (http://www.inkscape.org/) -->

<svg
   xmlns:dc="http://purl.org/dc/elements/1.1/"
   xmlns:cc="http://creativecommons.org/ns#"
   xmlns:rdf="http://www.w3.org/1999/02/22-rdf-syntax-ns#"
   xmlns:svg="http://www.w3.org/2000/svg"
   xmlns="http://www.w3.org/2000/svg"
   xmlns:sodipodi="http://sodipodi.sourceforge.net/DTD/sodipodi-0.dtd"
   xmlns:inkscape="http://www.inkscape.org/namespaces/inkscape"
   width="1000"
   height="1000"
   id="svg3173"
   version="1.1"
   inkscape:version="0.47 r22583"
   sodipodi:docname="793a.svg"
   inkscape:export-filename="E:\chinese\yan\793a.png"
   inkscape:export-xdpi="18.005705"
   inkscape:export-ydpi="18.005705">
  <title
     id="title3596">Shi</title>
  <defs
     id="defs3175">
    <inkscape:perspective
       sodipodi:type="inkscape:persp3d"
       inkscape:vp_x="0 : 526.18109 : 1"
       inkscape:vp_y="0 : 1000 : 0"
       inkscape:vp_z="744.09448 : 526.18109 : 1"
       inkscape:persp3d-origin="372.04724 : 350.78739 : 1"
       id="perspective3181" />
    <inkscape:perspective
       id="perspective3191"
       inkscape:persp3d-origin="0.5 : 0.33333333 : 1"
       inkscape:vp_z="1 : 0.5 : 1"
       inkscape:vp_y="0 : 1000 : 0"
       inkscape:vp_x="0 : 0.5 : 1"
       sodipodi:type="inkscape:persp3d" />
    <inkscape:perspective
       id="perspective4006"
       inkscape:persp3d-origin="0.5 : 0.33333333 : 1"
       inkscape:vp_z="1 : 0.5 : 1"
       inkscape:vp_y="0 : 1000 : 0"
       inkscape:vp_x="0 : 0.5 : 1"
       sodipodi:type="inkscape:persp3d" />
    <inkscape:perspective
       id="perspective4034"
       inkscape:persp3d-origin="0.5 : 0.33333333 : 1"
       inkscape:vp_z="1 : 0.5 : 1"
       inkscape:vp_y="0 : 1000 : 0"
       inkscape:vp_x="0 : 0.5 : 1"
       sodipodi:type="inkscape:persp3d" />
    <inkscape:perspective
       id="perspective4081"
       inkscape:persp3d-origin="0.5 : 0.33333333 : 1"
       inkscape:vp_z="1 : 0.5 : 1"
       inkscape:vp_y="0 : 1000 : 0"
       inkscape:vp_x="0 : 0.5 : 1"
       sodipodi:type="inkscape:persp3d" />
    <inkscape:perspective
       id="perspective4147"
       inkscape:persp3d-origin="0.5 : 0.33333333 : 1"
       inkscape:vp_z="1 : 0.5 : 1"
       inkscape:vp_y="0 : 1000 : 0"
       inkscape:vp_x="0 : 0.5 : 1"
       sodipodi:type="inkscape:persp3d" />
    <inkscape:perspective
       id="perspective3807"
       inkscape:persp3d-origin="0.5 : 0.33333333 : 1"
       inkscape:vp_z="1 : 0.5 : 1"
       inkscape:vp_y="0 : 1000 : 0"
       inkscape:vp_x="0 : 0.5 : 1"
       sodipodi:type="inkscape:persp3d" />
    <inkscape:perspective
       id="perspective3794"
       inkscape:persp3d-origin="0.5 : 0.33333333 : 1"
       inkscape:vp_z="1 : 0.5 : 1"
       inkscape:vp_y="0 : 1000 : 0"
       inkscape:vp_x="0 : 0.5 : 1"
       sodipodi:type="inkscape:persp3d" />
    <inkscape:perspective
       id="perspective3815"
       inkscape:persp3d-origin="0.5 : 0.33333333 : 1"
       inkscape:vp_z="1 : 0.5 : 1"
       inkscape:vp_y="0 : 1000 : 0"
       inkscape:vp_x="0 : 0.5 : 1"
       sodipodi:type="inkscape:persp3d" />
    <inkscape:perspective
       id="perspective3850"
       inkscape:persp3d-origin="0.5 : 0.33333333 : 1"
       inkscape:vp_z="1 : 0.5 : 1"
       inkscape:vp_y="0 : 1000 : 0"
       inkscape:vp_x="0 : 0.5 : 1"
       sodipodi:type="inkscape:persp3d" />
    <inkscape:perspective
       id="perspective3913"
       inkscape:persp3d-origin="0.5 : 0.33333333 : 1"
       inkscape:vp_z="1 : 0.5 : 1"
       inkscape:vp_y="0 : 1000 : 0"
       inkscape:vp_x="0 : 0.5 : 1"
       sodipodi:type="inkscape:persp3d" />
  </defs>
  <sodipodi:namedview
     id="base"
     pagecolor="#ffffff"
     bordercolor="#666666"
     borderopacity="1.0"
     inkscape:pageopacity="0.0"
     inkscape:pageshadow="2"
     inkscape:zoom="0.49497475"
     inkscape:cx="460.75335"
     inkscape:cy="557.20233"
     inkscape:document-units="px"
     inkscape:current-layer="g5975"
     showgrid="false"
     inkscape:window-width="1440"
     inkscape:window-height="840"
     inkscape:window-x="-4"
     inkscape:window-y="-4"
     inkscape:window-maximized="1" />
  <metadata
     id="metadata3178">
    <rdf:RDF>
      <cc:Work
         rdf:about="">
        <dc:format>image/svg+xml</dc:format>
        <dc:type
           rdf:resource="http://purl.org/dc/dcmitype/StillImage" />
        <dc:title>Shi</dc:title>
        <dc:date>2010-08-07</dc:date>
        <dc:creator>
          <cc:Agent>
            <dc:title>Alex Amies</dc:title>
          </cc:Agent>
        </dc:creator>
        <dc:rights>
          <cc:Agent>
            <dc:title>@ Alex Amies 2010</dc:title>
          </cc:Agent>
        </dc:rights>
        <dc:publisher>
          <cc:Agent>
            <dc:title>chinesenotes.com</dc:title>
          </cc:Agent>
        </dc:publisher>
        <dc:source>Yan Qin Ceremonial Inscription</dc:source>
        <dc:language>Chinese 中文</dc:language>
        <dc:description>Tracing from Tang Dynasty Ceremonial Inscription by Yan Zhenqing 颜真卿 (709－785)</dc:description>
        <cc:license
           rdf:resource="http://creativecommons.org/licenses/by/3.0/" />
      </cc:Work>
      <cc:License
         rdf:about="http://creativecommons.org/licenses/by/3.0/">
        <cc:permits
           rdf:resource="http://creativecommons.org/ns#Reproduction" />
        <cc:permits
           rdf:resource="http://creativecommons.org/ns#Distribution" />
        <cc:requires
           rdf:resource="http://creativecommons.org/ns#Notice" />
        <cc:requires
           rdf:resource="http://creativecommons.org/ns#Attribution" />
        <cc:permits
           rdf:resource="http://creativecommons.org/ns#DerivativeWorks" />
      </cc:License>
    </rdf:RDF>
  </metadata>
  <g
     inkscape:label="Layer 1"
     inkscape:groupmode="layer"
     id="layer1"
     transform="translate(0,-52.362183)">
    <g
       transform="matrix(4.762395,0,0,4.762395,-2523.1017,68.412668)"
       id="g5975"
       style="fill:none;fill-opacity:1">
      <path
         style="fill:#000000;stroke:#000000;stroke-width:1.20777618999999990px;stroke-linecap:butt;stroke-linejoin:miter;stroke-opacity:1;fill-opacity:1"
         d="m 626.42042,38.236625 c -7.48944,1.540999 -15.97872,0.112234 -22.70443,2.303905 -2.66925,0.869812 -3.9316,5.351991 -3.15342,8.601247 4.78462,6.555172 13.97354,4.046866 20.77531,3.801447 11.26076,-3.360872 29.13767,-4.012407 34.7245,-15.474584 0.61267,-1.256979 -0.57777,-3.842058 -1.89203,-3.954992 -9.63402,-1.60445 -18.1672,1.428569 -27.74993,4.722977 z m 39.69899,15.004555 c -7.30039,0.199547 -20.57756,4.463463 -27.2709,7.266528 -19.38761,8.618336 -45.14771,18.984606 -65.24388,25.51492 -1.6543,5.062723 2.9275,9.28519 6.75197,11.519526 4.05608,2.501346 8.62182,0.279711 12.31676,-1.766364 6.89145,-2.29869 19.29334,-8.858034 26.21601,-11.115478 -0.53654,14.238978 -1.25667,35.270988 -1.22428,49.524948 0.0944,3.33535 -2.75216,2.90313 -4.63735,1.68952 -1.55925,-0.47282 -3.22742,-1.97738 -4.78571,-0.57582 -1.1793,2.62161 2.02845,5.2717 1.81784,8.17882 -0.16339,3.93504 -0.27421,7.88623 -0.4082,11.82674 1.6557,2.09601 2.48251,5.43774 5.4164,5.95175 6.29627,2.21701 14.84851,-3.92193 17.80744,-9.56117 5.35906,-18.77787 8.54748,-41.02651 6.45519,-60.506938 -0.47715,-6.139417 -2.66378,-9.666519 -5.78742,-11.173929 8.6792,-2.683457 23.3142,-7.359326 32.09376,-9.608764 5.77742,-0.457026 12.21872,-1.533281 16.21218,-6.297342 2.36009,-3.249494 1.87834,-8.848768 -2.78242,-8.870022 -4.20322,-1.548081 -8.56729,-2.116407 -12.9475,-1.99675 l 1.1e-4,-1.75e-4 z m -3.46777,39.418809 c -1.39313,2.249889 0.0718,4.844238 1.15004,6.873339 4.9612,10.329682 10.07996,20.585422 15.8041,30.488342 1.52932,1.81148 3.07624,4.37654 5.71319,4.2622 8.97191,0.0175 13.94099,-5.34758 13.02168,-14.28422 -1.1615,-5.85307 -4.45689,-12.29841 -8.90366,-16.20411 -4.41008,-4.116862 -9.13927,-6.20068 -14.76534,-7.794884 l -12.02012,-3.340667 1.1e-4,0 z m -78.86398,17.549941 c -4.03308,0.46404 -8.78889,3.22914 -13.17008,4.8382 -2.54389,-0.43887 -6.06576,-1.81561 -7.60522,-1.34397 -0.6737,0.2064 -2.64151,2.2209 -2.96794,3.53265 -0.89088,3.58012 0.15154,7.84481 0.85327,11.71154 0.34431,6.31033 0.44156,11.2805 5.49063,15.05215 3.31913,0.62104 6.65167,1.5021 9.34889,-0.88316 1.2304,-4.6122 0.60739,-10.58634 0,-15.85851 -0.10573,-1.22959 1.01458,-1.95282 1.59526,-2.87992 2.86048,-3.70082 6.86785,-7.36357 8.56981,-11.09713 0.45173,-0.99125 -1.0599,-3.19315 -2.11462,-3.07185 z"
         id="path2867"
         sodipodi:nodetypes="csccsccccccccccccccccccccccccccccccccscsccccscc" />
    </g>
  </g>
</svg>
