<?xml version="1.0" encoding="UTF-8" standalone="no"?>
<!-- Created with Inkscape (http://www.inkscape.org/) -->

<svg
   xmlns:dc="http://purl.org/dc/elements/1.1/"
   xmlns:cc="http://creativecommons.org/ns#"
   xmlns:rdf="http://www.w3.org/1999/02/22-rdf-syntax-ns#"
   xmlns:svg="http://www.w3.org/2000/svg"
   xmlns="http://www.w3.org/2000/svg"
   xmlns:sodipodi="http://sodipodi.sourceforge.net/DTD/sodipodi-0.dtd"
   xmlns:inkscape="http://www.inkscape.org/namespaces/inkscape"
   width="1000"
   height="1000"
   id="svg3173"
   version="1.1"
   inkscape:version="0.47 r22583"
   sodipodi:docname="7acb.svg"
   inkscape:export-filename="E:\chinese\yan\7acb.png"
   inkscape:export-xdpi="17.944885"
   inkscape:export-ydpi="17.944885">
  <title
     id="title3638">La</title>
  <defs
     id="defs3175">
    <inkscape:perspective
       sodipodi:type="inkscape:persp3d"
       inkscape:vp_x="0 : 526.18109 : 1"
       inkscape:vp_y="0 : 1000 : 0"
       inkscape:vp_z="744.09448 : 526.18109 : 1"
       inkscape:persp3d-origin="372.04724 : 350.78739 : 1"
       id="perspective3181" />
    <inkscape:perspective
       id="perspective3191"
       inkscape:persp3d-origin="0.5 : 0.33333333 : 1"
       inkscape:vp_z="1 : 0.5 : 1"
       inkscape:vp_y="0 : 1000 : 0"
       inkscape:vp_x="0 : 0.5 : 1"
       sodipodi:type="inkscape:persp3d" />
    <inkscape:perspective
       id="perspective4006"
       inkscape:persp3d-origin="0.5 : 0.33333333 : 1"
       inkscape:vp_z="1 : 0.5 : 1"
       inkscape:vp_y="0 : 1000 : 0"
       inkscape:vp_x="0 : 0.5 : 1"
       sodipodi:type="inkscape:persp3d" />
    <inkscape:perspective
       id="perspective4034"
       inkscape:persp3d-origin="0.5 : 0.33333333 : 1"
       inkscape:vp_z="1 : 0.5 : 1"
       inkscape:vp_y="0 : 1000 : 0"
       inkscape:vp_x="0 : 0.5 : 1"
       sodipodi:type="inkscape:persp3d" />
    <inkscape:perspective
       id="perspective4081"
       inkscape:persp3d-origin="0.5 : 0.33333333 : 1"
       inkscape:vp_z="1 : 0.5 : 1"
       inkscape:vp_y="0 : 1000 : 0"
       inkscape:vp_x="0 : 0.5 : 1"
       sodipodi:type="inkscape:persp3d" />
    <inkscape:perspective
       id="perspective4147"
       inkscape:persp3d-origin="0.5 : 0.33333333 : 1"
       inkscape:vp_z="1 : 0.5 : 1"
       inkscape:vp_y="0 : 1000 : 0"
       inkscape:vp_x="0 : 0.5 : 1"
       sodipodi:type="inkscape:persp3d" />
    <inkscape:perspective
       id="perspective3005"
       inkscape:persp3d-origin="0.5 : 0.33333333 : 1"
       inkscape:vp_z="1 : 0.5 : 1"
       inkscape:vp_y="0 : 1000 : 0"
       inkscape:vp_x="0 : 0.5 : 1"
       sodipodi:type="inkscape:persp3d" />
    <inkscape:perspective
       id="perspective3931"
       inkscape:persp3d-origin="0.5 : 0.33333333 : 1"
       inkscape:vp_z="1 : 0.5 : 1"
       inkscape:vp_y="0 : 1000 : 0"
       inkscape:vp_x="0 : 0.5 : 1"
       sodipodi:type="inkscape:persp3d" />
  </defs>
  <sodipodi:namedview
     id="base"
     pagecolor="#ffffff"
     bordercolor="#666666"
     borderopacity="1.0"
     inkscape:pageopacity="0.0"
     inkscape:pageshadow="2"
     inkscape:zoom="0.49497475"
     inkscape:cx="672.08338"
     inkscape:cy="529.81437"
     inkscape:document-units="px"
     inkscape:current-layer="layer1"
     showgrid="false"
     inkscape:window-width="1440"
     inkscape:window-height="840"
     inkscape:window-x="-4"
     inkscape:window-y="-4"
     inkscape:window-maximized="1" />
  <metadata
     id="metadata3178">
    <rdf:RDF>
      <cc:Work
         rdf:about="">
        <dc:format>image/svg+xml</dc:format>
        <dc:type
           rdf:resource="http://purl.org/dc/dcmitype/StillImage" />
        <dc:title>La</dc:title>
        <dc:date>2010-08-07</dc:date>
        <dc:creator>
          <cc:Agent>
            <dc:title>Alex Amies</dc:title>
          </cc:Agent>
        </dc:creator>
        <dc:rights>
          <cc:Agent>
            <dc:title>@ Alex Amies 2010</dc:title>
          </cc:Agent>
        </dc:rights>
        <dc:publisher>
          <cc:Agent>
            <dc:title>chinesenotes.com</dc:title>
          </cc:Agent>
        </dc:publisher>
        <dc:source>Yan Qin Ceremonial Inscription</dc:source>
        <dc:language>Chinese 中文</dc:language>
        <dc:description>Tracing from Tang Dynasty Ceremonial Inscription by Yan Zhenqing 颜真卿 (709－785)</dc:description>
        <cc:license
           rdf:resource="http://creativecommons.org/licenses/by/3.0/" />
      </cc:Work>
      <cc:License
         rdf:about="http://creativecommons.org/licenses/by/3.0/">
        <cc:permits
           rdf:resource="http://creativecommons.org/ns#Reproduction" />
        <cc:permits
           rdf:resource="http://creativecommons.org/ns#Distribution" />
        <cc:requires
           rdf:resource="http://creativecommons.org/ns#Notice" />
        <cc:requires
           rdf:resource="http://creativecommons.org/ns#Attribution" />
        <cc:permits
           rdf:resource="http://creativecommons.org/ns#DerivativeWorks" />
      </cc:License>
    </rdf:RDF>
  </metadata>
  <g
     inkscape:label="Layer 1"
     inkscape:groupmode="layer"
     id="layer1"
     transform="translate(0,-52.362183)">
    <g
       id="g3631"
       transform="matrix(1.0484133,0,0,1.0325907,-183.11189,24.808434)">
      <path
         id="path4664"
         d="m 620.07311,147.48267 c -15.09993,22.10645 -17.61802,49.55495 -17.01529,75.70551 3.44796,42.68762 21.68797,73.35533 65.65146,77.5773 30.82734,-2.1427 43.76037,-18.77438 51.36271,-47.2365 7.18134,-20.15679 15.40094,-41.25402 6.28013,-62.25122 -9.44029,-15.78848 -23.9517,-32.37496 -39.62945,-41.97025 -19.10047,-8.86512 -49.36343,-19.53554 -66.64956,-1.82484 z"
         style="fill:#000000;fill-opacity:1;stroke:#000000;stroke-width:5.07648182px;stroke-linecap:butt;stroke-linejoin:miter;stroke-opacity:1"
         sodipodi:nodetypes="ccccccc" />
      <path
         id="path4668"
         d="m 493.68146,361.29429 c -18.4083,8.85802 -22.60494,29.39922 -7.7124,41.38566 24.22771,25.44296 137.19509,12.38678 170.87326,5.61378 49.55924,-11.09691 97.7125,-25.15469 144.96278,-40.5221 16.62103,-4.61731 34.37622,-7.67559 52.29496,-7.19304 11.74089,-4.48497 5.06771,-24.50025 -9.70657,-21.10366 -108.13086,5.86507 -247.09761,-0.51035 -350.71203,21.81936 z"
         style="fill:#000000;fill-opacity:1;stroke:#000000;stroke-width:5.55010509px;stroke-linecap:butt;stroke-linejoin:miter;stroke-opacity:1"
         sodipodi:nodetypes="ccccccc" />
      <path
         id="path4674"
         d="m 557.74543,531.17239 c -9.46802,1.21383 -22.85963,9.67428 -25.45383,18.66616 -4.75428,16.4792 -2.6163,39.55312 2.64566,57.81665 10.86131,35.89518 35.27788,64.45352 75.41266,43.99856 12.5719,-13.51482 17.68386,-36.24374 19.22778,-56.57146 1.69367,-22.29954 12.32773,-44.11487 20.36159,-63.96911 3.06896,-7.58439 -12.78334,-9.99633 -19.39117,-6.12823 -10.358,6.06342 -20.87104,15.41916 -32.07664,16.36896 -13.06358,1.10731 -28.13409,-11.79591 -40.72605,-10.18153 z"
         style="fill:#000000;fill-opacity:1;stroke:#000000;stroke-width:4.75137663px;stroke-linecap:butt;stroke-linejoin:miter;stroke-opacity:1"
         sodipodi:nodetypes="csccsssss" />
      <path
         id="path4676"
         d="m 763.07275,458.20483 c -9.92558,14.3466 -4.28498,40.86883 -11.70991,59.50149 -25.20358,63.24748 -59.59134,124.04386 -98.21319,180.95533 -4.82103,7.10406 -14.00653,20.10763 1.72594,16.55412 13.52318,-3.05451 22.75834,-14.91357 34.84684,-21.6695 56.78222,-52.87508 149.53313,-85.50473 194.91919,-148.50609 1.78746,-23.2022 -18.09367,-58.43903 -31.63229,-76.65381 -23.95568,-25.3724 -59.37667,-22.04401 -89.93658,-10.18154 z"
         style="fill:#000000;fill-opacity:1;stroke:#000000;stroke-width:4.75137663px;stroke-linecap:butt;stroke-linejoin:miter;stroke-opacity:1"
         sodipodi:nodetypes="cssscccc" />
      <path
         id="path4680"
         d="m 428.95566,782.4023 c -15.11921,5.05057 -37.96361,6.32532 -45.3577,15.15165 -9.01953,10.76667 0.32419,35.32343 22.84858,41.20086 165.11394,15.72348 341.35794,6.56188 508.16726,3.8111 19.48654,-7.59161 40.36901,-15.42751 48.52144,-31.12498 4.59138,-26.54977 -22.01961,-44.61666 -44.79367,-62.70923 -41.36864,-4.89168 -82.85216,-12.50445 -125.14063,-9.39789 -121.98404,1.02276 -244.05044,26.70966 -364.24528,43.06849 z"
         style="fill:#000000;fill-opacity:1;stroke:#000000;stroke-width:5.61327124px;stroke-linecap:butt;stroke-linejoin:miter;stroke-opacity:1"
         sodipodi:nodetypes="cscccccc" />
    </g>
  </g>
</svg>
