<?xml version="1.0" encoding="UTF-8" standalone="no"?>
<!-- Created with Inkscape (http://www.inkscape.org/) -->

<svg
   xmlns:dc="http://purl.org/dc/elements/1.1/"
   xmlns:cc="http://creativecommons.org/ns#"
   xmlns:rdf="http://www.w3.org/1999/02/22-rdf-syntax-ns#"
   xmlns:svg="http://www.w3.org/2000/svg"
   xmlns="http://www.w3.org/2000/svg"
   xmlns:sodipodi="http://sodipodi.sourceforge.net/DTD/sodipodi-0.dtd"
   xmlns:inkscape="http://www.inkscape.org/namespaces/inkscape"
   width="1000"
   height="1000"
   id="svg3173"
   version="1.1"
   inkscape:version="0.47 r22583"
   sodipodi:docname="7add.svg"
   inkscape:export-filename="E:\chinese\yan\7add.png"
   inkscape:export-xdpi="17.944885"
   inkscape:export-ydpi="17.944885">
  <title
     id="title2864">Bing</title>
  <defs
     id="defs3175">
    <inkscape:perspective
       sodipodi:type="inkscape:persp3d"
       inkscape:vp_x="0 : 526.18109 : 1"
       inkscape:vp_y="0 : 1000 : 0"
       inkscape:vp_z="744.09448 : 526.18109 : 1"
       inkscape:persp3d-origin="372.04724 : 350.78739 : 1"
       id="perspective3181" />
    <inkscape:perspective
       id="perspective3191"
       inkscape:persp3d-origin="0.5 : 0.33333333 : 1"
       inkscape:vp_z="1 : 0.5 : 1"
       inkscape:vp_y="0 : 1000 : 0"
       inkscape:vp_x="0 : 0.5 : 1"
       sodipodi:type="inkscape:persp3d" />
    <inkscape:perspective
       id="perspective4006"
       inkscape:persp3d-origin="0.5 : 0.33333333 : 1"
       inkscape:vp_z="1 : 0.5 : 1"
       inkscape:vp_y="0 : 1000 : 0"
       inkscape:vp_x="0 : 0.5 : 1"
       sodipodi:type="inkscape:persp3d" />
    <inkscape:perspective
       id="perspective4034"
       inkscape:persp3d-origin="0.5 : 0.33333333 : 1"
       inkscape:vp_z="1 : 0.5 : 1"
       inkscape:vp_y="0 : 1000 : 0"
       inkscape:vp_x="0 : 0.5 : 1"
       sodipodi:type="inkscape:persp3d" />
    <inkscape:perspective
       id="perspective4081"
       inkscape:persp3d-origin="0.5 : 0.33333333 : 1"
       inkscape:vp_z="1 : 0.5 : 1"
       inkscape:vp_y="0 : 1000 : 0"
       inkscape:vp_x="0 : 0.5 : 1"
       sodipodi:type="inkscape:persp3d" />
    <inkscape:perspective
       id="perspective4147"
       inkscape:persp3d-origin="0.5 : 0.33333333 : 1"
       inkscape:vp_z="1 : 0.5 : 1"
       inkscape:vp_y="0 : 1000 : 0"
       inkscape:vp_x="0 : 0.5 : 1"
       sodipodi:type="inkscape:persp3d" />
    <inkscape:perspective
       id="perspective3005"
       inkscape:persp3d-origin="0.5 : 0.33333333 : 1"
       inkscape:vp_z="1 : 0.5 : 1"
       inkscape:vp_y="0 : 1000 : 0"
       inkscape:vp_x="0 : 0.5 : 1"
       sodipodi:type="inkscape:persp3d" />
  </defs>
  <sodipodi:namedview
     id="base"
     pagecolor="#ffffff"
     bordercolor="#666666"
     borderopacity="1.0"
     inkscape:pageopacity="0.0"
     inkscape:pageshadow="2"
     inkscape:zoom="0.49497475"
     inkscape:cx="423.58586"
     inkscape:cy="491.42857"
     inkscape:document-units="px"
     inkscape:current-layer="layer1"
     showgrid="false"
     inkscape:window-width="1440"
     inkscape:window-height="840"
     inkscape:window-x="-4"
     inkscape:window-y="-4"
     inkscape:window-maximized="1" />
  <metadata
     id="metadata3178">
    <rdf:RDF>
      <cc:Work
         rdf:about="">
        <dc:format>image/svg+xml</dc:format>
        <dc:type
           rdf:resource="http://purl.org/dc/dcmitype/StillImage" />
        <dc:title>Bing</dc:title>
        <dc:date>2010-07-16</dc:date>
        <dc:creator>
          <cc:Agent>
            <dc:title>Alex Amies</dc:title>
          </cc:Agent>
        </dc:creator>
        <dc:rights>
          <cc:Agent>
            <dc:title>@ Alex Amies 2010</dc:title>
          </cc:Agent>
        </dc:rights>
        <dc:publisher>
          <cc:Agent>
            <dc:title>chinesenotes.com</dc:title>
          </cc:Agent>
        </dc:publisher>
        <dc:source>Yan Qin Ceremonial Inscription</dc:source>
        <dc:language>Chinese 中文</dc:language>
        <dc:description>Tracing from Tang Dynasty Ceremonial Inscription by Yan Zhenqing 颜真卿 (709－785)</dc:description>
        <cc:license
           rdf:resource="http://creativecommons.org/licenses/by/3.0/" />
      </cc:Work>
      <cc:License
         rdf:about="http://creativecommons.org/licenses/by/3.0/">
        <cc:permits
           rdf:resource="http://creativecommons.org/ns#Reproduction" />
        <cc:permits
           rdf:resource="http://creativecommons.org/ns#Distribution" />
        <cc:requires
           rdf:resource="http://creativecommons.org/ns#Notice" />
        <cc:requires
           rdf:resource="http://creativecommons.org/ns#Attribution" />
        <cc:permits
           rdf:resource="http://creativecommons.org/ns#DerivativeWorks" />
      </cc:License>
    </rdf:RDF>
  </metadata>
  <g
     inkscape:label="Layer 1"
     inkscape:groupmode="layer"
     id="layer1"
     transform="translate(0,-52.362183)">
    <g
       transform="matrix(4.7513766,0,0,4.7513766,-711.5509,-1979.6147)"
       id="g4746"
       style="fill:#000000;fill-opacity:1">
      <path
         id="path4662"
         d="m 208.57143,462.71933 c -1.19048,1.78571 -2.38095,3.57143 -3.57143,5.35714 0,1.30952 0,2.61905 0,3.92857 2.59519,2.36841 5.55249,4.31898 8.75156,5.7674 0.93519,0.26598 1.4962,0.93141 1.69874,1.8432 0.80228,2.10599 1.60456,4.21198 2.40684,6.31797 3.58346,-0.006 7.28595,-0.27179 10.70344,1.03101 0.956,0.25157 1.91199,0.50315 2.86799,0.75473 1.30952,-0.83333 2.61905,-1.66667 3.92857,-2.5 -0.0582,-4.34506 -0.13258,-8.7593 0.98622,-12.99287 0.25881,-0.84114 -0.6829,-1.29889 -1.08088,-1.91128 -1.3111,-1.46174 -2.56379,-3.00305 -3.91105,-4.41553 -2.95046,-1.2982 -5.90093,-2.59641 -8.85139,-3.89461 -3.94163,-0.22473 -7.96404,-0.59928 -11.83915,0.38435 -0.69649,0.10997 -1.39297,0.21995 -2.08946,0.32992 z"
         style="fill:#000000;fill-opacity:1;stroke:#000000;stroke-width:1px;stroke-linecap:butt;stroke-linejoin:miter;stroke-opacity:1" />
      <path
         id="path4664"
         d="m 282.85714,454.50504 c -1.154,2.59908 -2.69365,5.10414 -3.0111,7.98734 -0.54442,2.23531 -0.60438,4.55187 -0.36244,6.82949 -0.0784,2.05704 0.55097,4.01541 1.41683,5.8519 1.0133,2.46766 2.12344,4.90211 3.46668,7.20965 2.71096,0.70721 5.42193,1.41441 8.13289,2.12162 2.2619,-0.83333 4.52381,-1.66667 6.78571,-2.5 1.36374,-2.11748 2.90302,-4.22081 3.39773,-6.74497 0.63501,-2.09406 1.42485,-4.16057 1.93978,-6.27915 -0.23155,-1.96815 -0.4631,-3.9363 -0.69465,-5.90445 -2.61905,-2.73809 -5.23809,-5.47619 -7.85714,-8.21428 -3.09524,-0.71429 -6.19048,-1.42857 -9.28572,-2.14286 -1.30952,0.59524 -2.61905,1.19047 -3.92857,1.78571 z"
         style="fill:#000000;fill-opacity:1;stroke:#000000;stroke-width:1px;stroke-linecap:butt;stroke-linejoin:miter;stroke-opacity:1" />
      <path
         id="path4666"
         d="m 191.42857,510.93361 c -1.30173,3.04515 -3.51204,6.83306 -1.37752,10.00232 1.14175,2.86025 4.23372,3.77594 6.98913,2.89634 5.17378,-1.15749 10.30209,-2.52766 15.51709,-3.51237 6.9276,-1.50354 14.04708,-2.2345 20.75595,-4.62154 5.38881,-1.8021 10.8091,-3.77647 15.62983,-6.82823 2.68207,-2.1245 5.55512,-4.48959 6.56381,-7.89778 -2.7817,-2.36878 -2.85791,-7.06727 -5.87416,-8.72926 -2.21272,-1.29724 -4.0969,-0.76049 -5.57505,1.14502 -2.30492,2.03897 -4.60983,4.07793 -6.91475,6.11689 -7.1311,1.88678 -14.12436,4.35172 -21.35122,5.8394 -5.97817,0.55353 -11.95633,1.10707 -17.9345,1.6606 -2.14287,1.30954 -4.28576,2.61905 -6.42861,3.92861 z"
         style="fill:#000000;fill-opacity:1;stroke:#000000;stroke-width:1px;stroke-linecap:butt;stroke-linejoin:miter;stroke-opacity:1" />
      <path
         id="path4668"
         d="m 269.64286,501.29076 c -2.81066,1.88339 -3.45142,6.25085 -1.17756,8.7994 0.77739,2.65688 4.20183,1.82134 6.28985,2.68259 2.9443,0.66278 5.97503,0.69177 8.95592,0.32436 3.6796,-0.0787 7.40364,-0.41351 10.8439,-1.81335 7.56692,-2.35942 14.91917,-5.34838 22.13355,-8.61579 2.53777,-0.98173 5.24871,-1.63198 7.98462,-1.52938 1.79265,-0.95359 0.77376,-5.20923 -1.48204,-4.48705 -7.13096,-0.16025 -14.27085,0.0341 -21.36231,0.83561 -9.61547,0.9549 -19.24671,1.75237 -28.8528,2.80359 -1.11102,0.33336 -2.22227,0.66659 -3.33313,1.00002 z"
         style="fill:#000000;fill-opacity:1;stroke:#000000;stroke-width:1px;stroke-linecap:butt;stroke-linejoin:miter;stroke-opacity:1" />
      <path
         id="path4670"
         d="m 238.21428,517.00504 c -1.66667,1.07143 -3.33333,2.14286 -5,3.21429 -2.61087,9.24892 -5.57236,18.39235 -8.44503,27.56068 -1.84265,7.07503 -3.07952,14.31183 -5.44755,21.24697 -0.4773,1.771 -1.42196,3.5609 -0.82134,5.4088 0.2484,0.64588 0.13657,2.6408 0.64812,2.30119 6.88399,-8.21981 14.50562,-15.78175 21.62421,-23.79325 1.29006,-2.93194 2.58011,-5.86388 3.87017,-8.79582 2.86885,-0.97337 6.14094,2.34899 8.41395,0.54865 0.95004,-2.81624 2.48927,-5.50407 3.04248,-8.41605 0.10976,-2.85372 0.21952,-5.70745 0.32928,-8.56117 -1.48512,-2.13451 -2.15097,-5.00041 -4.33954,-6.52685 -1.74762,-1.01921 -3.1587,-2.99323 -5.24077,-3.22811 -2.87799,-0.31978 -5.75599,-0.63955 -8.63398,-0.95933 z"
         style="fill:#000000;fill-opacity:1;stroke:#000000;stroke-width:1px;stroke-linecap:butt;stroke-linejoin:miter;stroke-opacity:1" />
      <path
         id="path4672"
         d="m 194.28571,540.21933 c -0.83333,0.11905 -1.66667,0.23809 -2.5,0.35714 0.0805,2.51874 -0.46839,5.32742 1.08077,7.53328 0.93016,2.04049 2.47815,4.00379 2.23502,6.37511 0.08,1.94693 0.13683,3.89602 0.30724,5.83781 0.61617,1.45635 1.42135,3.23855 3.17579,3.50336 0.82894,0.34538 1.65789,0.69077 2.48683,1.03616 2.9333,-0.88814 6.07953,-1.80233 8.18188,-4.17836 1.54416,-1.10488 2.81707,-2.67318 3.23928,-4.5531 0.8358,-2.08951 1.67161,-4.17903 2.50741,-6.26854 -0.96999,-3.95765 -1.54031,-8.06489 -3.29099,-11.78387 -0.69745,-0.95476 -2.08158,-1.99061 -3.26801,-1.28097 -0.76915,1.00777 -1.1354,2.29439 -1.78559,3.39403 -1.5453,3.03636 -3.26496,6.02981 -5.58332,8.54986 -1.90589,0.60819 -2.62769,-1.80459 -2.95334,-3.20899 -0.78158,-2.07642 -2.31367,-3.74529 -3.83297,-5.31292 z"
         style="fill:#000000;fill-opacity:1;stroke:#000000;stroke-width:1px;stroke-linecap:butt;stroke-linejoin:miter;stroke-opacity:1" />
      <path
         id="path4674"
         d="m 267.14286,528.43361 c -1.78572,1.30953 -3.57143,2.61905 -5.35715,3.92858 0.23912,4.05125 0.008,8.14669 0.55682,12.1684 1.36201,2.61053 2.72403,5.22107 4.08604,7.8316 2.02381,0.95238 4.04762,1.90476 6.07143,2.85714 1.90476,-0.47619 3.80952,-0.95238 5.71428,-1.42857 1.9794,-3.69929 4.01502,-7.60668 4.04678,-11.90633 0.64964,-4.67191 1.59942,-9.48765 4.28541,-13.46328 -0.34923,-1.79925 -2.71683,-2.14835 -4.08117,-1.28978 -2.20638,1.23167 -4.50034,2.29786 -6.75102,3.4451 -2.85714,-0.71429 -5.71428,-1.42857 -8.57142,-2.14286 z"
         style="fill:#000000;fill-opacity:1;stroke:#000000;stroke-width:1px;stroke-linecap:butt;stroke-linejoin:miter;stroke-opacity:1" />
      <path
         id="path4676"
         d="m 316.42857,512.00504 c -2.02381,0.35714 -4.04762,0.71429 -6.07143,1.07143 -1.07355,4.11983 -1.85392,8.31118 -2.46453,12.523 -6.25656,13.02111 -12.59193,26.0719 -20.67047,38.08482 -1.06468,1.46013 -2.99928,4.0101 0.36325,3.48407 2.79477,-0.86473 4.65199,-3.40697 7.33405,-4.56068 7.64152,-4.61586 14.83744,-9.96018 21.41391,-15.99864 4.11818,-3.53769 8.74273,-6.41964 13.32887,-9.27748 2.23462,-1.75774 5.76459,-2.78811 6.28095,-5.97926 0.37554,-2.68195 -0.21153,-5.44823 -1.90018,-7.61986 -1.58577,-2.8377 -3.17155,-5.67541 -4.75732,-8.51311 -2.14286,-1.30952 -4.28571,-2.61905 -6.42857,-3.92857 -2.14284,0.23809 -4.28569,0.47619 -6.42853,0.71428 z"
         style="fill:#000000;fill-opacity:1;stroke:#000000;stroke-width:1px;stroke-linecap:butt;stroke-linejoin:miter;stroke-opacity:1" />
      <path
         id="path4678"
         d="m 183.92857,588.79076 c -1.19048,0.95238 -2.38095,1.90476 -3.57143,2.85714 2.80369,4.26416 4.72055,9.07185 7.38931,13.38425 3.37023,2.3243 6.74046,4.64859 10.11069,6.97289 2.98315,0.98369 5.37644,-1.60703 7.08129,-3.69889 3.19171,-3.92945 7.95203,-5.97668 11.89743,-9.00124 8.04753,-5.46153 16.97007,-9.72399 24.24128,-16.26735 3.05683,-2.38439 1.19797,-6.17418 0.70857,-9.2468 -2.98882,-0.0197 -6.13107,-0.89752 -8.95766,0.51612 -11.60471,4.13398 -23.4626,7.48827 -35.29257,10.90207 -4.51842,1.25793 -9.05656,2.44674 -13.60691,3.58181 z"
         style="fill:#000000;fill-opacity:1;stroke:#000000;stroke-width:1px;stroke-linecap:butt;stroke-linejoin:miter;stroke-opacity:1" />
      <path
         id="path4680"
         d="m 259.28571,581.29076 c -2.2619,1.07143 -4.52381,2.14285 -6.78571,3.21428 -0.19365,3.08504 0.0485,7.49353 3.41825,8.74037 4.67208,1.37863 9.62885,1.29231 14.46579,1.42198 15.16572,0.33556 30.34702,0.33164 45.49701,-0.49838 5.35328,-0.10105 10.7093,0.0784 16.06126,-0.11511 2.91527,-1.61049 6.03938,-3.2728 7.25902,-6.60287 0.5504,-2.89988 -0.88041,-6.2779 -2.594,-8.72752 -1.43101,-1.46646 -2.73561,-3.05287 -4.10733,-4.57565 -6.18893,-1.03772 -12.39505,-2.6527 -18.72159,-1.99367 -6.39258,-0.0405 -12.88284,0.005 -19.04153,1.94113 -11.75146,2.7112 -23.61479,4.89603 -35.45117,7.19544 z"
         style="fill:#000000;fill-opacity:1;stroke:#000000;stroke-width:1px;stroke-linecap:butt;stroke-linejoin:miter;stroke-opacity:1" />
    </g>
  </g>
</svg>
