<?xml version="1.0" encoding="UTF-8" standalone="no"?>
<!-- Created with Inkscape (http://www.inkscape.org/) -->

<svg
   xmlns:dc="http://purl.org/dc/elements/1.1/"
   xmlns:cc="http://creativecommons.org/ns#"
   xmlns:rdf="http://www.w3.org/1999/02/22-rdf-syntax-ns#"
   xmlns:svg="http://www.w3.org/2000/svg"
   xmlns="http://www.w3.org/2000/svg"
   xmlns:sodipodi="http://sodipodi.sourceforge.net/DTD/sodipodi-0.dtd"
   xmlns:inkscape="http://www.inkscape.org/namespaces/inkscape"
   width="1000"
   height="1000"
   id="svg3173"
   version="1.1"
   inkscape:version="0.47 r22583"
   sodipodi:docname="7bc0.svg"
   inkscape:export-filename="E:\chinese\yan\7bc0.png"
   inkscape:export-xdpi="18.005705"
   inkscape:export-ydpi="18.005705">
  <title
     id="title2831">Jie</title>
  <defs
     id="defs3175">
    <inkscape:perspective
       sodipodi:type="inkscape:persp3d"
       inkscape:vp_x="0 : 526.18109 : 1"
       inkscape:vp_y="0 : 1000 : 0"
       inkscape:vp_z="744.09448 : 526.18109 : 1"
       inkscape:persp3d-origin="372.04724 : 350.78739 : 1"
       id="perspective3181" />
    <inkscape:perspective
       id="perspective3191"
       inkscape:persp3d-origin="0.5 : 0.33333333 : 1"
       inkscape:vp_z="1 : 0.5 : 1"
       inkscape:vp_y="0 : 1000 : 0"
       inkscape:vp_x="0 : 0.5 : 1"
       sodipodi:type="inkscape:persp3d" />
    <inkscape:perspective
       id="perspective4006"
       inkscape:persp3d-origin="0.5 : 0.33333333 : 1"
       inkscape:vp_z="1 : 0.5 : 1"
       inkscape:vp_y="0 : 1000 : 0"
       inkscape:vp_x="0 : 0.5 : 1"
       sodipodi:type="inkscape:persp3d" />
    <inkscape:perspective
       id="perspective4034"
       inkscape:persp3d-origin="0.5 : 0.33333333 : 1"
       inkscape:vp_z="1 : 0.5 : 1"
       inkscape:vp_y="0 : 1000 : 0"
       inkscape:vp_x="0 : 0.5 : 1"
       sodipodi:type="inkscape:persp3d" />
    <inkscape:perspective
       id="perspective4081"
       inkscape:persp3d-origin="0.5 : 0.33333333 : 1"
       inkscape:vp_z="1 : 0.5 : 1"
       inkscape:vp_y="0 : 1000 : 0"
       inkscape:vp_x="0 : 0.5 : 1"
       sodipodi:type="inkscape:persp3d" />
    <inkscape:perspective
       id="perspective4147"
       inkscape:persp3d-origin="0.5 : 0.33333333 : 1"
       inkscape:vp_z="1 : 0.5 : 1"
       inkscape:vp_y="0 : 1000 : 0"
       inkscape:vp_x="0 : 0.5 : 1"
       sodipodi:type="inkscape:persp3d" />
    <inkscape:perspective
       id="perspective3765"
       inkscape:persp3d-origin="0.5 : 0.33333333 : 1"
       inkscape:vp_z="1 : 0.5 : 1"
       inkscape:vp_y="0 : 1000 : 0"
       inkscape:vp_x="0 : 0.5 : 1"
       sodipodi:type="inkscape:persp3d" />
    <inkscape:perspective
       id="perspective3793"
       inkscape:persp3d-origin="0.5 : 0.33333333 : 1"
       inkscape:vp_z="1 : 0.5 : 1"
       inkscape:vp_y="0 : 1000 : 0"
       inkscape:vp_x="0 : 0.5 : 1"
       sodipodi:type="inkscape:persp3d" />
    <inkscape:perspective
       id="perspective3764"
       inkscape:persp3d-origin="0.5 : 0.33333333 : 1"
       inkscape:vp_z="1 : 0.5 : 1"
       inkscape:vp_y="0 : 1000 : 0"
       inkscape:vp_x="0 : 0.5 : 1"
       sodipodi:type="inkscape:persp3d" />
    <inkscape:perspective
       id="perspective3825"
       inkscape:persp3d-origin="0.5 : 0.33333333 : 1"
       inkscape:vp_z="1 : 0.5 : 1"
       inkscape:vp_y="0 : 1000 : 0"
       inkscape:vp_x="0 : 0.5 : 1"
       sodipodi:type="inkscape:persp3d" />
  </defs>
  <sodipodi:namedview
     id="base"
     pagecolor="#ffffff"
     bordercolor="#666666"
     borderopacity="1.0"
     inkscape:pageopacity="0.0"
     inkscape:pageshadow="2"
     inkscape:zoom="0.49497475"
     inkscape:cx="731.06813"
     inkscape:cy="507.04133"
     inkscape:document-units="px"
     inkscape:current-layer="g5741"
     showgrid="false"
     inkscape:window-width="1440"
     inkscape:window-height="840"
     inkscape:window-x="-4"
     inkscape:window-y="-4"
     inkscape:window-maximized="1" />
  <metadata
     id="metadata3178">
    <rdf:RDF>
      <cc:Work
         rdf:about="">
        <dc:format>image/svg+xml</dc:format>
        <dc:type
           rdf:resource="http://purl.org/dc/dcmitype/StillImage" />
        <dc:title>Jie</dc:title>
        <dc:date>2010-07-19</dc:date>
        <dc:creator>
          <cc:Agent>
            <dc:title>Alex Amies</dc:title>
          </cc:Agent>
        </dc:creator>
        <dc:rights>
          <cc:Agent>
            <dc:title>@ Alex Amies 2010</dc:title>
          </cc:Agent>
        </dc:rights>
        <dc:publisher>
          <cc:Agent>
            <dc:title>chinesenotes.com</dc:title>
          </cc:Agent>
        </dc:publisher>
        <dc:source>Yan Qin Ceremonial Inscription</dc:source>
        <dc:language>Chinese 中文</dc:language>
        <dc:description>Tracing from Tang Dynasty Ceremonial Inscription by Yan Zhenqing 颜真卿 (709－785)</dc:description>
        <cc:license
           rdf:resource="http://creativecommons.org/licenses/by/3.0/" />
      </cc:Work>
      <cc:License
         rdf:about="http://creativecommons.org/licenses/by/3.0/">
        <cc:permits
           rdf:resource="http://creativecommons.org/ns#Reproduction" />
        <cc:permits
           rdf:resource="http://creativecommons.org/ns#Distribution" />
        <cc:requires
           rdf:resource="http://creativecommons.org/ns#Notice" />
        <cc:requires
           rdf:resource="http://creativecommons.org/ns#Attribution" />
        <cc:permits
           rdf:resource="http://creativecommons.org/ns#DerivativeWorks" />
      </cc:License>
    </rdf:RDF>
  </metadata>
  <g
     inkscape:label="Layer 1"
     inkscape:groupmode="layer"
     id="layer1"
     transform="translate(0,-52.362183)">
    <g
       transform="matrix(4.7582168,0,0,4.7582168,-491.96094,-2016.0355)"
       id="g5741"
       style="fill:none;fill-opacity:1">
      <path
         id="path5668"
         d="m 163.57143,442.71933 c -4.94958,13.74172 -12.00219,26.35314 -18.28653,39.53395 -1.96933,2.52245 -7.56351,12.56633 -0.52201,9.20059 13.3054,-6.59793 22.1361,-18.4441 31.72977,-29.43185 3.76471,-4.26316 3.66958,-12.4726 -1.59687,-15.22848 -3.55855,-1.73237 -7.06025,-5.06077 -11.32436,-4.07421 z"
         style="fill:#000000;fill-opacity:1;stroke:#000000;stroke-width:1px;stroke-linecap:butt;stroke-linejoin:miter;stroke-opacity:1"
         sodipodi:nodetypes="cccccc" />
      <path
         style="fill:#000000;stroke:#000000;stroke-width:4.75821686000000010px;stroke-linecap:butt;stroke-linejoin:miter;stroke-opacity:1;fill-opacity:1"
         d="M 484.5 60.09375 C 443.94455 60.223218 405.69106 77.9296 369.625 95.9375 C 366.29243 107.22457 363.89532 116.25931 369.53125 120.90625 C 366.93125 122.36182 364.16453 124.25152 361.125 126.53125 C 353.11226 151.61762 351.84587 178.22957 352.8125 204.3125 C 365.74766 239.62822 398.83766 243.61611 419.5625 211.875 C 427.58466 189.50063 413.02618 157.00116 407.15625 134.03125 C 403.2534 129.60814 399.76882 126.06497 396.5 123.375 C 438.06122 120.55854 478.7389 116.31364 512.375 89.125 C 510.67565 80.061739 508.94935 71.000761 507.25 61.9375 C 499.58158 60.647168 492.01027 60.069775 484.5 60.09375 z "
         transform="matrix(0.21016277,0,0,0.21016277,103.39187,434.70018)"
         id="path5670" />
      <path
         style="fill:#000000;stroke:#000000;stroke-width:4.75821686000000010px;stroke-linecap:butt;stroke-linejoin:miter;stroke-opacity:1;fill-opacity:1"
         d="M 616.03125 -9.4375 C 578.12154 31.34884 556.48138 85.828253 519 129.4375 C 504.44124 147.05661 489.24511 164.39671 476.40625 183.25 C 536.46137 155.84648 619.83235 83.264782 668.71875 31.375 C 658.17887 12.957513 642.53443 -5.618565 620.28125 -8.375 C 618.86202 -8.729963 617.45048 -9.0826798 616.03125 -9.4375 z M 780.875 38.15625 L 653.5625 59.09375 L 650 58.5625 L 643.21875 87.4375 C 723.60973 103.81799 746.94297 93.792709 788.125 87.71875 C 800.32521 87.544123 816.6137 74.663607 811.375 61.5 C 808.84777 48.14459 791.99809 44.044972 780.875 38.15625 z M 628.90625 89.03125 C 623.53831 89.226741 617.68413 90.691265 610.9375 92.53125 C 600.0959 131.67434 596.72039 172.33034 589.53125 212.1875 C 586.97066 224.3219 589.72571 237.52403 605.09375 233.21875 C 632.23643 216.36567 652.78719 193.83704 672.09375 169 C 667.82653 146.47679 664.45807 122.91092 653.25 102.6875 C 645.39294 91.902228 637.85282 88.705432 628.90625 89.03125 z "
         transform="matrix(0.21016277,0,0,0.21016277,103.39187,434.70018)"
         id="path5674" />
      <path
         style="fill:#000000;stroke:#000000;stroke-width:4.75821686000000010px;stroke-linecap:butt;stroke-linejoin:miter;stroke-opacity:1;fill-opacity:1"
         d="M 506.4375 231.8125 C 487.83079 231.61158 469.84952 243.76483 450.84375 245.1875 C 397.12071 252.64896 346.83992 272.33597 296.4375 291.1875 C 288.35989 283.39412 280.45045 275.12631 269.34375 272.65625 C 252.24058 275.40935 242.92105 296.00858 245.21875 311.75 C 265.02502 453.16411 253.75174 597.50582 252.375 740 C 253.45854 741.18208 254.49639 742.29856 255.53125 743.34375 C 249.95076 746.21303 244.34431 749.04244 238.75 751.875 C 211.93892 759.70065 181.49662 752.24303 155.46875 761.625 C 137.47674 774.45886 140.32995 803.26254 140.59375 823 C 145.38194 846.53552 153.94755 865.66708 180.71875 864.53125 C 267.29607 805.68586 357.31757 743.21091 442.6875 680.53125 L 430.78125 661.8125 C 387.32094 676.8544 346.01789 696.84826 305.125 717.75 C 308.78872 671.50671 309.47348 624.82623 308.8125 578 C 359.61762 564.61007 412.59635 560.51591 463.625 548.96875 C 467.01956 545.25962 469.8163 541.71471 472.0625 538.3125 C 475.03767 542.46581 478.93162 545.98787 484.03125 548.65625 C 511.82323 551.19828 532.30122 526.27025 530.25 499.125 C 538.49789 435.14373 549.60244 371.41368 558.0625 307.5625 C 557.67994 280.22102 552.964 244.55797 522.25 235.40625 C 516.90675 232.90325 511.64738 231.86876 506.4375 231.8125 z M 459.03125 273.09375 C 500.08419 281.44409 473.94549 438.9681 466.0625 471.5625 C 465.09282 479.93596 463.81648 489.68813 463.5 499.5 C 460.01594 497.42023 455.926 495.44972 451.1875 493.59375 C 402.0215 498.06933 354.66265 509.52076 307.5 522.9375 C 306.6791 496.70623 305.66741 470.47921 304.6875 444.3125 L 362.8125 444.3125 C 382.94252 427.14119 400.5893 407.26837 418.90625 388.21875 C 427.06888 372.83515 424.26817 369.9964 412.09375 359.34375 C 372.93348 371.0025 338.52784 391.95788 303.53125 412.34375 C 302.88544 393.2038 302.30888 374.11814 301.96875 355.09375 C 308.59341 345.99101 312.80583 334.41201 312.9375 323.125 C 322.68082 323.38805 333.01081 321.1176 339.65625 316.78125 C 380.92774 306.82996 421.94085 293.47196 459.03125 273.09375 z "
         transform="matrix(0.21016277,0,0,0.21016277,103.39187,434.70018)"
         id="path5680" />
      <path
         id="path5690"
         d="m 205.71428,551.6479 c -5.77836,7.85077 -0.5341,18.12567 2.61543,26.3296 1.39709,3.65416 4.05404,8.466 8.74755,6.42178 3.90147,-0.63838 5.378,-4.69342 5.50536,-8.19103 0.51393,-5.08582 -2.2271,-9.75734 -4.36488,-14.16691 -3.26673,-3.85928 -6.24048,-9.91052 -11.76236,-10.46216 l -0.7411,0.0687 0,0 0,2e-5 z"
         style="fill:#000000;fill-opacity:1;stroke:#000000;stroke-width:1px;stroke-linecap:butt;stroke-linejoin:miter;stroke-opacity:1"
         sodipodi:nodetypes="ccccccccc" />
      <path
         style="fill:#000000;stroke:#000000;stroke-width:4.75821686000000010px;stroke-linecap:butt;stroke-linejoin:miter;stroke-opacity:1;fill-opacity:1"
         d="M 829.0625 397.96875 C 824.4665 398.01608 820.01178 399.07255 815.78125 401.53125 C 802.21134 410.25068 785.26778 414.52152 771.3125 422.625 C 732.70231 428.44477 695.36676 440.07681 657.75 450.28125 L 655.09375 444.3125 C 637.08918 437.10623 623.38512 442.22729 605.8125 447.71875 C 589.83565 574.31011 593.78397 704.17201 594.15625 831.78125 C 598.46462 887.90385 599.66159 944.42036 609.21875 1000 C 616.89532 1002.0397 623.81956 1002.919 623.5 992.84375 C 640.58528 933.88602 651.96344 872.99828 655.53125 811.65625 C 660.73761 711.14208 661.87131 610.69535 666.8125 510.15625 C 699.17007 505.54581 734.31107 480.99417 760.1875 465.0625 C 767.53937 459.14723 775.06108 453.44893 782.5625 447.71875 C 807.07155 487.50058 757.55514 608.91488 736.6875 644.84375 L 692.5 631.25 C 677.65765 643.38003 699.3412 652.99203 706.03125 662.90625 C 729.30402 680.26608 717.64238 711.19805 730.15625 731.9375 C 753.6488 762.00881 799.61059 710.22827 813.1875 690.90625 C 839.52913 620.58038 894.21739 494.7924 887.9375 423.90625 C 871.38895 416.63316 848.9785 397.76364 829.0625 397.96875 z "
         transform="matrix(0.21016277,0,0,0.21016277,103.39187,434.70018)"
         id="path5692" />
    </g>
  </g>
</svg>
