<?xml version="1.0" encoding="UTF-8" standalone="no"?>
<!-- Created with Inkscape (http://www.inkscape.org/) -->

<svg
   xmlns:dc="http://purl.org/dc/elements/1.1/"
   xmlns:cc="http://creativecommons.org/ns#"
   xmlns:rdf="http://www.w3.org/1999/02/22-rdf-syntax-ns#"
   xmlns:svg="http://www.w3.org/2000/svg"
   xmlns="http://www.w3.org/2000/svg"
   xmlns:sodipodi="http://sodipodi.sourceforge.net/DTD/sodipodi-0.dtd"
   xmlns:inkscape="http://www.inkscape.org/namespaces/inkscape"
   width="1000"
   height="1000"
   id="svg3173"
   version="1.1"
   inkscape:version="0.47 r22583"
   sodipodi:docname="7cf8.svg"
   inkscape:export-filename="E:\chinese\yan\7cf8.png"
   inkscape:export-xdpi="18.005705"
   inkscape:export-ydpi="18.005705">
  <title
     id="title3595">Si</title>
  <defs
     id="defs3175">
    <inkscape:perspective
       sodipodi:type="inkscape:persp3d"
       inkscape:vp_x="0 : 526.18109 : 1"
       inkscape:vp_y="0 : 1000 : 0"
       inkscape:vp_z="744.09448 : 526.18109 : 1"
       inkscape:persp3d-origin="372.04724 : 350.78739 : 1"
       id="perspective3181" />
    <inkscape:perspective
       id="perspective3191"
       inkscape:persp3d-origin="0.5 : 0.33333333 : 1"
       inkscape:vp_z="1 : 0.5 : 1"
       inkscape:vp_y="0 : 1000 : 0"
       inkscape:vp_x="0 : 0.5 : 1"
       sodipodi:type="inkscape:persp3d" />
    <inkscape:perspective
       id="perspective4006"
       inkscape:persp3d-origin="0.5 : 0.33333333 : 1"
       inkscape:vp_z="1 : 0.5 : 1"
       inkscape:vp_y="0 : 1000 : 0"
       inkscape:vp_x="0 : 0.5 : 1"
       sodipodi:type="inkscape:persp3d" />
    <inkscape:perspective
       id="perspective4034"
       inkscape:persp3d-origin="0.5 : 0.33333333 : 1"
       inkscape:vp_z="1 : 0.5 : 1"
       inkscape:vp_y="0 : 1000 : 0"
       inkscape:vp_x="0 : 0.5 : 1"
       sodipodi:type="inkscape:persp3d" />
    <inkscape:perspective
       id="perspective4081"
       inkscape:persp3d-origin="0.5 : 0.33333333 : 1"
       inkscape:vp_z="1 : 0.5 : 1"
       inkscape:vp_y="0 : 1000 : 0"
       inkscape:vp_x="0 : 0.5 : 1"
       sodipodi:type="inkscape:persp3d" />
    <inkscape:perspective
       id="perspective4147"
       inkscape:persp3d-origin="0.5 : 0.33333333 : 1"
       inkscape:vp_z="1 : 0.5 : 1"
       inkscape:vp_y="0 : 1000 : 0"
       inkscape:vp_x="0 : 0.5 : 1"
       sodipodi:type="inkscape:persp3d" />
    <inkscape:perspective
       id="perspective3816"
       inkscape:persp3d-origin="0.5 : 0.33333333 : 1"
       inkscape:vp_z="1 : 0.5 : 1"
       inkscape:vp_y="0 : 1000 : 0"
       inkscape:vp_x="0 : 0.5 : 1"
       sodipodi:type="inkscape:persp3d" />
    <inkscape:perspective
       id="perspective3897"
       inkscape:persp3d-origin="0.5 : 0.33333333 : 1"
       inkscape:vp_z="1 : 0.5 : 1"
       inkscape:vp_y="0 : 1000 : 0"
       inkscape:vp_x="0 : 0.5 : 1"
       sodipodi:type="inkscape:persp3d" />
    <inkscape:perspective
       id="perspective3964"
       inkscape:persp3d-origin="0.5 : 0.33333333 : 1"
       inkscape:vp_z="1 : 0.5 : 1"
       inkscape:vp_y="0 : 1000 : 0"
       inkscape:vp_x="0 : 0.5 : 1"
       sodipodi:type="inkscape:persp3d" />
    <inkscape:perspective
       id="perspective3784"
       inkscape:persp3d-origin="0.5 : 0.33333333 : 1"
       inkscape:vp_z="1 : 0.5 : 1"
       inkscape:vp_y="0 : 1000 : 0"
       inkscape:vp_x="0 : 0.5 : 1"
       sodipodi:type="inkscape:persp3d" />
    <inkscape:perspective
       id="perspective2976"
       inkscape:persp3d-origin="0.5 : 0.33333333 : 1"
       inkscape:vp_z="1 : 0.5 : 1"
       inkscape:vp_y="0 : 1000 : 0"
       inkscape:vp_x="0 : 0.5 : 1"
       sodipodi:type="inkscape:persp3d" />
  </defs>
  <sodipodi:namedview
     id="base"
     pagecolor="#ffffff"
     bordercolor="#666666"
     borderopacity="1.0"
     inkscape:pageopacity="0.0"
     inkscape:pageshadow="2"
     inkscape:zoom="0.49497475"
     inkscape:cx="328.56782"
     inkscape:cy="513.93908"
     inkscape:document-units="px"
     inkscape:current-layer="layer1"
     showgrid="false"
     inkscape:window-width="1440"
     inkscape:window-height="840"
     inkscape:window-x="-4"
     inkscape:window-y="-4"
     inkscape:window-maximized="1" />
  <metadata
     id="metadata3178">
    <rdf:RDF>
      <cc:Work
         rdf:about="">
        <dc:format>image/svg+xml</dc:format>
        <dc:type
           rdf:resource="http://purl.org/dc/dcmitype/StillImage" />
        <dc:title>Si</dc:title>
        <dc:date>2010-08-06</dc:date>
        <dc:creator>
          <cc:Agent>
            <dc:title>Alex Amies</dc:title>
          </cc:Agent>
        </dc:creator>
        <dc:rights>
          <cc:Agent>
            <dc:title>@ Alex Amies 2010</dc:title>
          </cc:Agent>
        </dc:rights>
        <dc:publisher>
          <cc:Agent>
            <dc:title>chinesenotes.com</dc:title>
          </cc:Agent>
        </dc:publisher>
        <dc:source>Yan Qin Ceremonial Inscription</dc:source>
        <dc:language>Chinese 中文</dc:language>
        <dc:description>Tracing from Tang Dynasty Ceremonial Inscription by Yan Zhenqing 颜真卿 (709－785)</dc:description>
        <cc:license
           rdf:resource="http://creativecommons.org/licenses/by/3.0/" />
      </cc:Work>
      <cc:License
         rdf:about="http://creativecommons.org/licenses/by/3.0/">
        <cc:permits
           rdf:resource="http://creativecommons.org/ns#Reproduction" />
        <cc:permits
           rdf:resource="http://creativecommons.org/ns#Distribution" />
        <cc:requires
           rdf:resource="http://creativecommons.org/ns#Notice" />
        <cc:requires
           rdf:resource="http://creativecommons.org/ns#Attribution" />
        <cc:permits
           rdf:resource="http://creativecommons.org/ns#DerivativeWorks" />
      </cc:License>
    </rdf:RDF>
  </metadata>
  <g
     inkscape:label="Layer 1"
     inkscape:groupmode="layer"
     id="layer1"
     transform="translate(0,-52.362183)">
    <path
       style="fill:#000000;fill-opacity:1;stroke:#000000;stroke-width:4.75137663000000020px;stroke-linecap:butt;stroke-linejoin:miter;stroke-opacity:1"
       d="m 476.88853,169.33276 c -13.28632,0.46373 -28.27397,9.05128 -31.92331,22.56904 -4.22407,15.64671 -9.50532,30.25045 -18.41159,44.09866 -33.65186,60.28447 -88.85896,106.06318 -124.12971,164.81338 -2.45632,4.95977 7.62587,12.32954 13.66021,13.51173 25.83499,5.06145 54.0212,-4.70624 80.92188,-8.46339 14.89267,-2.08001 33.43815,-1.21374 44.69264,-6.83011 4.01862,-2.00536 6.17175,-16.31461 2.37568,-16.92678 -26.8314,-4.32688 -93.78157,10.09616 -87.30654,-3.41505 13.52741,-28.22707 70.99782,-87.2165 110.32102,-125.61452 8.75617,-8.5501 27.42628,-6.52577 34.00204,-15.29349 12.98813,-22.11143 9.8374,-51.11835 -11.87844,-66.07378 -3.5451,-1.78443 -7.89512,-2.53025 -12.32388,-2.37569 z m 46.17744,95.32444 c -3.5823,0.19814 -6.67041,1.08004 -8.76035,3.8605 -15.14435,25.90265 -33.68146,50.03636 -43.80175,78.54619 L 351.71945,623.08917 c -2.64495,24.28619 36.41702,14.43706 52.41363,15.14502 l 215.29675,-19.74767 c 4.85804,9.57877 10.11107,18.60021 15.59045,26.57777 7.32054,4.08571 25.98826,4.90723 30.58699,-1.63305 8.72836,-12.41343 12.19075,-34.88588 6.8301,-49.29553 -7.35964,-19.78302 -23.72643,-43.72573 -42.46543,-55.97739 -13.58684,1.29755 -23.72775,13.52565 -28.80522,25.53865 1.03799,8.66945 3.30392,17.73784 6.38466,26.87521 -4.14001,-0.70178 -8.43953,-0.76117 -12.62084,0 l -161.84376,-1.48481 c 43.20987,-92.48982 87.96389,-184.3373 130.21741,-277.21336 4.19029,-13.5533 9.55174,-38.40205 -9.50275,-41.72303 l -12.02692,-5.19681 c -5.5384,1.07789 -12.73807,-0.62714 -18.70855,-0.29697 z m -11.58148,366.44992 c -1.91794,0.0855 -4.00318,0.26133 -6.23618,0.44663 -11.50066,6.03663 -33.74105,4.30285 -36.52621,18.26334 -3.38996,61.51275 2.82707,123.68294 5.93922,185.30355 l -18.56006,18.70854 c -9.00838,-5.32487 -18.82253,-9.86766 -23.60841,-19.74814 -0.49105,21.76463 12.78686,36.34945 27.91434,50.03817 11.14079,13.55615 25.1479,24.11276 38.01101,35.93228 20.37376,6.69851 49.42439,11.86531 52.71059,-5.19705 7.87022,-40.86308 -1.35139,-94.8389 -4.30594,-142.24434 l -5.93922,-125.76262 c -9.56742,-13.76759 -15.97356,-16.32478 -29.39914,-15.73893 l 0,-0.001 0,-4.3e-4 z m -116.11177,80.7734 c -2.69103,0.19481 -6.71621,5.71577 -8.90883,8.31477 -24.25896,28.75438 -48.53383,57.55723 -71.71609,87.1583 -5.53516,7.06767 -12.07975,14.51783 -14.40261,22.71728 -5.48076,16.99568 10.28436,29.99687 25.09321,36.08101 12.29875,2.65887 29.744,3.31741 39.94126,-3.8605 13.50883,-9.50988 23.82744,-27.99368 28.50826,-44.54415 1.99677,-32.91326 10.25228,-70.99079 3.56353,-103.93622 -0.48236,-1.40023 -1.18171,-1.99558 -2.07873,-1.93049 z m 207.42729,1.78177 c -4.22084,0 -8.43503,0.46564 -12.62085,1.48481 -8.16063,4.30365 -16.49768,18.12635 -13.21476,26.42938 9.55744,24.17263 33.70769,46.79726 52.71058,68.30104 7.90772,8.94875 14.85642,21.28807 25.24169,25.24169 12.8644,4.89724 33.42788,6.31791 44.39567,1.18785 10.59192,-14.14058 14.65662,-38.52417 10.83908,-56.27388 -4.0456,-11.48741 -12.30887,-24.39072 -22.71752,-31.32963 -25.01481,-11.93071 -55.08803,-34.93483 -84.63389,-35.04126 z"
       id="path2830"
       sodipodi:nodetypes="csccssssssccccccccccsscccccccccccccccccsccccccsccscccccsssccccc" />
  </g>
</svg>
