<?xml version="1.0" encoding="UTF-8" standalone="no"?>
<!-- Created with Inkscape (http://www.inkscape.org/) -->

<svg
   xmlns:dc="http://purl.org/dc/elements/1.1/"
   xmlns:cc="http://creativecommons.org/ns#"
   xmlns:rdf="http://www.w3.org/1999/02/22-rdf-syntax-ns#"
   xmlns:svg="http://www.w3.org/2000/svg"
   xmlns="http://www.w3.org/2000/svg"
   xmlns:sodipodi="http://sodipodi.sourceforge.net/DTD/sodipodi-0.dtd"
   xmlns:inkscape="http://www.inkscape.org/namespaces/inkscape"
   width="1000"
   height="1000"
   id="svg3173"
   version="1.1"
   inkscape:version="0.47 r22583"
   sodipodi:docname="7d18.svg"
   inkscape:export-filename="E:\chinese\yan\7d18.png"
   inkscape:export-xdpi="18.005705"
   inkscape:export-ydpi="18.005705">
  <title
     id="title3611">Hong</title>
  <defs
     id="defs3175">
    <inkscape:perspective
       sodipodi:type="inkscape:persp3d"
       inkscape:vp_x="0 : 526.18109 : 1"
       inkscape:vp_y="0 : 1000 : 0"
       inkscape:vp_z="744.09448 : 526.18109 : 1"
       inkscape:persp3d-origin="372.04724 : 350.78739 : 1"
       id="perspective3181" />
    <inkscape:perspective
       id="perspective3191"
       inkscape:persp3d-origin="0.5 : 0.33333333 : 1"
       inkscape:vp_z="1 : 0.5 : 1"
       inkscape:vp_y="0 : 1000 : 0"
       inkscape:vp_x="0 : 0.5 : 1"
       sodipodi:type="inkscape:persp3d" />
    <inkscape:perspective
       id="perspective4006"
       inkscape:persp3d-origin="0.5 : 0.33333333 : 1"
       inkscape:vp_z="1 : 0.5 : 1"
       inkscape:vp_y="0 : 1000 : 0"
       inkscape:vp_x="0 : 0.5 : 1"
       sodipodi:type="inkscape:persp3d" />
    <inkscape:perspective
       id="perspective4034"
       inkscape:persp3d-origin="0.5 : 0.33333333 : 1"
       inkscape:vp_z="1 : 0.5 : 1"
       inkscape:vp_y="0 : 1000 : 0"
       inkscape:vp_x="0 : 0.5 : 1"
       sodipodi:type="inkscape:persp3d" />
    <inkscape:perspective
       id="perspective4081"
       inkscape:persp3d-origin="0.5 : 0.33333333 : 1"
       inkscape:vp_z="1 : 0.5 : 1"
       inkscape:vp_y="0 : 1000 : 0"
       inkscape:vp_x="0 : 0.5 : 1"
       sodipodi:type="inkscape:persp3d" />
    <inkscape:perspective
       id="perspective4147"
       inkscape:persp3d-origin="0.5 : 0.33333333 : 1"
       inkscape:vp_z="1 : 0.5 : 1"
       inkscape:vp_y="0 : 1000 : 0"
       inkscape:vp_x="0 : 0.5 : 1"
       sodipodi:type="inkscape:persp3d" />
    <inkscape:perspective
       id="perspective3807"
       inkscape:persp3d-origin="0.5 : 0.33333333 : 1"
       inkscape:vp_z="1 : 0.5 : 1"
       inkscape:vp_y="0 : 1000 : 0"
       inkscape:vp_x="0 : 0.5 : 1"
       sodipodi:type="inkscape:persp3d" />
    <inkscape:perspective
       id="perspective3838"
       inkscape:persp3d-origin="0.5 : 0.33333333 : 1"
       inkscape:vp_z="1 : 0.5 : 1"
       inkscape:vp_y="0 : 1000 : 0"
       inkscape:vp_x="0 : 0.5 : 1"
       sodipodi:type="inkscape:persp3d" />
    <inkscape:perspective
       id="perspective2993"
       inkscape:persp3d-origin="0.5 : 0.33333333 : 1"
       inkscape:vp_z="1 : 0.5 : 1"
       inkscape:vp_y="0 : 1000 : 0"
       inkscape:vp_x="0 : 0.5 : 1"
       sodipodi:type="inkscape:persp3d" />
    <inkscape:perspective
       id="perspective3798"
       inkscape:persp3d-origin="0.5 : 0.33333333 : 1"
       inkscape:vp_z="1 : 0.5 : 1"
       inkscape:vp_y="0 : 1000 : 0"
       inkscape:vp_x="0 : 0.5 : 1"
       sodipodi:type="inkscape:persp3d" />
    <inkscape:perspective
       id="perspective3806"
       inkscape:persp3d-origin="0.5 : 0.33333333 : 1"
       inkscape:vp_z="1 : 0.5 : 1"
       inkscape:vp_y="0 : 1000 : 0"
       inkscape:vp_x="0 : 0.5 : 1"
       sodipodi:type="inkscape:persp3d" />
    <inkscape:perspective
       id="perspective3778"
       inkscape:persp3d-origin="0.5 : 0.33333333 : 1"
       inkscape:vp_z="1 : 0.5 : 1"
       inkscape:vp_y="0 : 1000 : 0"
       inkscape:vp_x="0 : 0.5 : 1"
       sodipodi:type="inkscape:persp3d" />
    <inkscape:perspective
       id="perspective5986"
       inkscape:persp3d-origin="0.5 : 0.33333333 : 1"
       inkscape:vp_z="1 : 0.5 : 1"
       inkscape:vp_y="0 : 1000 : 0"
       inkscape:vp_x="0 : 0.5 : 1"
       sodipodi:type="inkscape:persp3d" />
    <inkscape:perspective
       id="perspective6062"
       inkscape:persp3d-origin="0.5 : 0.33333333 : 1"
       inkscape:vp_z="1 : 0.5 : 1"
       inkscape:vp_y="0 : 1000 : 0"
       inkscape:vp_x="0 : 0.5 : 1"
       sodipodi:type="inkscape:persp3d" />
  </defs>
  <sodipodi:namedview
     id="base"
     pagecolor="#ffffff"
     bordercolor="#666666"
     borderopacity="1.0"
     inkscape:pageopacity="0.0"
     inkscape:pageshadow="2"
     inkscape:zoom="0.49497475"
     inkscape:cx="325.39291"
     inkscape:cy="514.61206"
     inkscape:document-units="px"
     inkscape:current-layer="g4154"
     showgrid="false"
     inkscape:window-width="1440"
     inkscape:window-height="840"
     inkscape:window-x="-4"
     inkscape:window-y="-4"
     inkscape:window-maximized="1" />
  <metadata
     id="metadata3178">
    <rdf:RDF>
      <cc:Work
         rdf:about="">
        <dc:format>image/svg+xml</dc:format>
        <dc:type
           rdf:resource="http://purl.org/dc/dcmitype/StillImage" />
        <dc:title>Hong</dc:title>
        <dc:date>2010-08-09</dc:date>
        <dc:creator>
          <cc:Agent>
            <dc:title>Alex Amies</dc:title>
          </cc:Agent>
        </dc:creator>
        <dc:rights>
          <cc:Agent>
            <dc:title>@ Alex Amies 2010</dc:title>
          </cc:Agent>
        </dc:rights>
        <dc:publisher>
          <cc:Agent>
            <dc:title>chinesenotes.com</dc:title>
          </cc:Agent>
        </dc:publisher>
        <dc:source>Yan Qin Ceremonial Inscription</dc:source>
        <dc:language>Chinese 中文</dc:language>
        <dc:description>Tracing from Tang Dynasty Ceremonial Inscription by Yan Zhenqing 颜真卿 (709－785)</dc:description>
        <cc:license
           rdf:resource="http://creativecommons.org/licenses/by/3.0/" />
      </cc:Work>
      <cc:License
         rdf:about="http://creativecommons.org/licenses/by/3.0/">
        <cc:permits
           rdf:resource="http://creativecommons.org/ns#Reproduction" />
        <cc:permits
           rdf:resource="http://creativecommons.org/ns#Distribution" />
        <cc:requires
           rdf:resource="http://creativecommons.org/ns#Notice" />
        <cc:requires
           rdf:resource="http://creativecommons.org/ns#Attribution" />
        <cc:permits
           rdf:resource="http://creativecommons.org/ns#DerivativeWorks" />
      </cc:License>
    </rdf:RDF>
  </metadata>
  <g
     inkscape:label="Layer 1"
     inkscape:groupmode="layer"
     id="layer1"
     transform="translate(0,-52.362183)">
    <g
       transform="matrix(4.7418067,0,0,4.7418067,-524.70921,-2979.6975)"
       id="g5800"
       style="fill:none;fill-opacity:1">
      <g
         transform="translate(-224.16253,205.13312)"
         id="g4097"
         style="fill:none;fill-opacity:1">
        <g
           transform="translate(-3.5355043,-208.67552)"
           id="g4154"
           style="fill:none;fill-opacity:1">
          <path
             id="path4109"
             d="m 388.57143,667.71933 c -1.54578,-0.0422 -4.15962,0.73183 -4.64286,2.14285 -1.14868,3.35403 1.07823,8.20916 0.35714,12.14286 -4.1256,15.27308 -7.73233,31.22565 -14.28571,45.71429 -0.72457,1.41401 -3.48843,1.30408 -4.28571,2.5 -0.63129,0.94693 -0.82718,3.07429 0,3.92857 5.62772,5.19525 13.41964,7.21392 20.90233,7.69031 1.59046,0.0426 5.19023,1.90536 3.89887,-1.14466 -0.72261,-1.70671 -1.41206,-3.16614 -2.85949,-4.2728 -2.26655,-1.73294 -7.19364,-3.14932 -6.58457,-5.48714 6.99051,-12.08993 12.96358,-25.2431 20.35714,-37.14286 1.02412,-1.42652 3.97296,-1.41429 4.64286,-2.85714 0.87772,-1.89048 1.24434,-5.29698 0,-7.14286 -5.73227,-3.98473 -10.08774,-11.78712 -17.5,-16.07142 z"
             style="fill:#000000;fill-opacity:1;stroke:#000000;stroke-width:1px;stroke-linecap:butt;stroke-linejoin:miter;stroke-opacity:1"
             sodipodi:nodetypes="csccsccssccscc" />
          <path
             id="path4111"
             d="m 410,704.1479 c -1.99926,2.02495 -2.40941,5.60377 -2.66803,8.72449 -9.3759,18.66988 -20.23869,37.54438 -32.68911,54.48979 -1.77611,2.18309 -6.80513,-0.32351 -6.49105,3.8752 0.21203,2.8344 -0.28827,6.56684 1.92668,8.70329 2.55233,4.1343 7.06076,3.35921 10.80151,0.95795 8.11252,-6.61351 17.7257,-12.13001 25.19143,-18.89358 0.93141,-0.84381 0.96409,-3.55457 0,-3.92857 -2.6954,-1.04562 -6.56706,2.23057 -9.69064,3.76575 -2.39785,1.1785 -8.13146,5.4676 -7.09508,3.73425 6.9128,-11.56171 20.91125,-28.88581 30.59752,-43.86002 2.64039,-4.08183 8.48961,-8.76637 7.97391,-12.21141 -0.45975,-3.07124 -6.86607,-5.49138 -11.1048,-6.74361 -2.07514,-0.88525 -4.98609,0.11968 -6.75234,1.38647 z"
             style="fill:#000000;fill-opacity:1;stroke:#000000;stroke-width:1px;stroke-linecap:butt;stroke-linejoin:miter;stroke-opacity:1"
             sodipodi:nodetypes="cccsccsssssscc" />
          <path
             id="path4113"
             d="m 411.07143,754.1479 c -4.4522,6.43948 -8.51153,16.06414 -10.71429,23.21428 -0.29191,0.94752 2.27451,1.59524 3.21429,1.07143 6.32213,-3.52381 12.75142,-8.44379 18.57143,-13.21428 1.4419,-1.18189 2.68788,-2.98847 3.21428,-4.64286 0.30694,-0.96466 0.10453,-2.64742 -0.71428,-3.21429 -3.8175,-1.89779 -9.3984,-4.8403 -13.57143,-3.21428 z"
             style="fill:#000000;fill-opacity:1;stroke:#000000;stroke-width:1px;stroke-linecap:butt;stroke-linejoin:miter;stroke-opacity:1"
             sodipodi:nodetypes="csssscc" />
          <path
             id="path4115"
             d="m 353.92857,798.07647 c -1.28802,0.40983 -3.35451,1.8188 -3.21428,3.21428 1.92373,8.51725 1.95292,20.3778 9.64285,26.07143 1.13573,0.75716 3.13273,1.20843 4.28572,0.71429 3.93461,-2.78433 5.0355,-8.26595 4.64285,-12.85714 -1.56371,-6.62923 -4.55547,-13.11098 -10.71428,-16.42858 -1.35476,-0.67738 -3.31183,-1.13779 -4.64286,-0.71428 z"
             style="fill:#000000;fill-opacity:1;stroke:#000000;stroke-width:1px;stroke-linecap:butt;stroke-linejoin:miter;stroke-opacity:1"
             sodipodi:nodetypes="ccccccs" />
          <path
             id="path4117"
             d="m 384.64286,795.21933 c -3.2863,3.35934 -2.29341,8.09448 -1.03842,12.20652 2.29722,5.66902 5.30862,11.93592 10.68127,15.29348 1.16717,0.5776 3.34383,0.18275 4.28572,-0.71429 1.55811,-1.48392 2.99479,-4.17884 3.21428,-6.42857 0.14439,-6.21529 -3.21918,-11.85329 -7.14285,-16.42857 -1.87089,-2.03597 -4.40811,-4.06594 -6.78572,-5 -0.95573,-0.37547 -2.44483,0.35328 -3.21428,1.07143 z"
             style="fill:#000000;fill-opacity:1;stroke:#000000;stroke-width:1px;stroke-linecap:butt;stroke-linejoin:miter;stroke-opacity:1"
             sodipodi:nodetypes="cccsccsc" />
          <path
             id="path4119"
             d="m 407.5,787.71933 c 0.7171,3.94667 4.84638,5.86748 7.14286,8.92857 2.17049,3.32717 1.19721,7.78123 2.33589,11.52187 0.47927,1.57445 0.86189,3.44602 1.94982,4.54956 3.1619,2.88629 7.9004,3.44957 11.78572,1.78571 4.09494,-2.89542 4.4458,-7.86637 2.5,-12.14286 -4.33021,-5.32606 -9.16214,-11.53302 -15,-15.35714 -3.25732,-1.14472 -7.90869,-1.50308 -10.71429,0.71429 z"
             style="fill:#000000;fill-opacity:1;stroke:#000000;stroke-width:1px;stroke-linecap:butt;stroke-linejoin:miter;stroke-opacity:1"
             sodipodi:nodetypes="ccsccccc" />
          <path
             style="fill:#000000;stroke:#000000;stroke-width:4.74180651000000000px;stroke-linecap:butt;stroke-linejoin:miter;stroke-opacity:1;fill-opacity:1"
             d="M 659.25 113.3125 C 642.55001 113.82866 639.35894 137.64563 633.6875 150.75 C 622.71189 194.24225 611.0263 237.496 598.59375 280.5 C 556.82492 289.70372 514.98137 298.26652 473.53125 307 C 463.8765 317.0046 452.794 335.43964 462.6875 348.40625 C 467.00823 354.06911 471.97594 363.56038 478.59375 362.90625 C 507.58876 360.04035 538.32249 343.54561 567.75 332.53125 C 573.36133 331.04931 578.96142 329.48275 584.5625 327.90625 C 557.08584 418.50462 526.21077 508.00647 491.59375 596.375 C 483.87769 613.95051 476.15356 631.51824 468.4375 649.09375 C 478.96071 674.0017 499.49803 640.16912 507.875 629.75 C 534.18895 594.7191 557.94022 557.77454 581.15625 520.65625 C 623.28186 449.32756 655.45955 373.23571 687.5625 297.09375 C 723.32458 286.76371 759.37043 277.7791 796.1875 273.3125 C 816.85746 271.90262 838.45968 287.25609 857.9375 286.6875 C 875.07956 283.74009 883.48827 263.17951 885.03125 247.75 C 879.74926 236.42566 870.07269 223.15575 856.125 217.5625 C 838.47974 210.48649 820.51843 215.48602 805.21875 225.59375 C 772.48981 236.51379 739.11018 246.19599 705.375 255.03125 C 710.99938 241.83911 716.68884 228.68207 722.46875 215.5625 C 724.00619 195.02265 727.34638 169.90738 709.90625 154.84375 C 699.00578 136.53402 681.81169 125.71288 664.875 113.9375 C 662.8404 113.45505 660.97759 113.2591 659.25 113.3125 z "
             transform="matrix(0.21089008,0,0,0.21089008,338.354,642.97371)"
             id="path4121" />
          <path
             id="path4125"
             d="m 483.92857,740.21933 c -0.98988,4.34771 1.02998,10.30073 -0.0634,15.17652 -1.59707,7.12189 -4.77305,14.01218 -8.22784,20.5798 -4.48698,6.7026 -5.61465,14.54595 -12.42307,21.74368 -3.90315,1.00398 -9.54515,-1.37015 -14.32058,-0.68844 -3.7591,0.53662 -0.60725,4.62018 0.39091,6.42428 2.96505,3.447 8.11204,7.8842 12.78381,8.46669 13.23463,-0.85474 24.6648,-7.85362 36.73555,-12.51568 1.70002,-0.59261 3.22315,-1.15827 3.9787,-3.08922 0.92197,-2.35624 -0.1014,-2.84535 -2.28941,-3.29543 -8.24639,1.13941 -16.56704,2.44766 -24.97913,3.10495 -1.266,0.11037 -3.12628,0.8294 -1.21254,-1.00589 3.83467,-3.67746 7.92055,-7.36958 10.83155,-11.81657 6.05577,-10.91517 14.97808,-22.19537 16.65256,-34.87041 10e-4,-3.79683 -4.36259,-7.51605 -7.68755,-9.28571 -2.85913,-0.64103 -7.80455,-0.80607 -10.16956,1.07143 z"
             style="fill:#000000;fill-opacity:1;stroke:#000000;stroke-width:1px;stroke-linecap:butt;stroke-linejoin:miter;stroke-opacity:1"
             sodipodi:nodetypes="csccscccsccscccc" />
          <path
             id="path4127"
             d="m 502.5,778.43361 c 5.13982,7.95285 7.75342,17.7276 13.64449,25.18243 2.82853,4.30421 5.92772,7.47075 11.35551,7.67471 5.51205,-0.77608 8.0154,-6.23927 9.28571,-11.07142 1.06848,-6.13324 0.76513,-13.02671 -3.57142,-17.85715 -6.90377,-5.74469 -15.3227,-11.39962 -24.64286,-11.42857 -4.03575,0.53578 -6.15681,3.71385 -6.07143,7.5 z"
             style="fill:#000000;fill-opacity:1;stroke:#000000;stroke-width:1px;stroke-linecap:butt;stroke-linejoin:miter;stroke-opacity:1"
             sodipodi:nodetypes="ccccccc" />
        </g>
      </g>
    </g>
  </g>
</svg>
