<?xml version="1.0" encoding="UTF-8" standalone="no"?>
<!-- Created with Inkscape (http://www.inkscape.org/) -->

<svg
   xmlns:dc="http://purl.org/dc/elements/1.1/"
   xmlns:cc="http://creativecommons.org/ns#"
   xmlns:rdf="http://www.w3.org/1999/02/22-rdf-syntax-ns#"
   xmlns:svg="http://www.w3.org/2000/svg"
   xmlns="http://www.w3.org/2000/svg"
   xmlns:sodipodi="http://sodipodi.sourceforge.net/DTD/sodipodi-0.dtd"
   xmlns:inkscape="http://www.inkscape.org/namespaces/inkscape"
   width="1000"
   height="1000"
   id="svg3173"
   version="1.1"
   inkscape:version="0.47 r22583"
   sodipodi:docname="7d93.svg"
   inkscape:export-filename="E:\chinese\yan\7d93.png"
   inkscape:export-xdpi="18.005705"
   inkscape:export-ydpi="18.005705">
  <title
     id="title2825">Jing</title>
  <defs
     id="defs3175">
    <inkscape:perspective
       sodipodi:type="inkscape:persp3d"
       inkscape:vp_x="0 : 526.18109 : 1"
       inkscape:vp_y="0 : 1000 : 0"
       inkscape:vp_z="744.09448 : 526.18109 : 1"
       inkscape:persp3d-origin="372.04724 : 350.78739 : 1"
       id="perspective3181" />
    <inkscape:perspective
       id="perspective3191"
       inkscape:persp3d-origin="0.5 : 0.33333333 : 1"
       inkscape:vp_z="1 : 0.5 : 1"
       inkscape:vp_y="0 : 1000 : 0"
       inkscape:vp_x="0 : 0.5 : 1"
       sodipodi:type="inkscape:persp3d" />
    <inkscape:perspective
       id="perspective4006"
       inkscape:persp3d-origin="0.5 : 0.33333333 : 1"
       inkscape:vp_z="1 : 0.5 : 1"
       inkscape:vp_y="0 : 1000 : 0"
       inkscape:vp_x="0 : 0.5 : 1"
       sodipodi:type="inkscape:persp3d" />
    <inkscape:perspective
       id="perspective4034"
       inkscape:persp3d-origin="0.5 : 0.33333333 : 1"
       inkscape:vp_z="1 : 0.5 : 1"
       inkscape:vp_y="0 : 1000 : 0"
       inkscape:vp_x="0 : 0.5 : 1"
       sodipodi:type="inkscape:persp3d" />
    <inkscape:perspective
       id="perspective4081"
       inkscape:persp3d-origin="0.5 : 0.33333333 : 1"
       inkscape:vp_z="1 : 0.5 : 1"
       inkscape:vp_y="0 : 1000 : 0"
       inkscape:vp_x="0 : 0.5 : 1"
       sodipodi:type="inkscape:persp3d" />
    <inkscape:perspective
       id="perspective4147"
       inkscape:persp3d-origin="0.5 : 0.33333333 : 1"
       inkscape:vp_z="1 : 0.5 : 1"
       inkscape:vp_y="0 : 1000 : 0"
       inkscape:vp_x="0 : 0.5 : 1"
       sodipodi:type="inkscape:persp3d" />
    <inkscape:perspective
       id="perspective3758"
       inkscape:persp3d-origin="0.5 : 0.33333333 : 1"
       inkscape:vp_z="1 : 0.5 : 1"
       inkscape:vp_y="0 : 1000 : 0"
       inkscape:vp_x="0 : 0.5 : 1"
       sodipodi:type="inkscape:persp3d" />
    <inkscape:perspective
       id="perspective3719"
       inkscape:persp3d-origin="0.5 : 0.33333333 : 1"
       inkscape:vp_z="1 : 0.5 : 1"
       inkscape:vp_y="0 : 1000 : 0"
       inkscape:vp_x="0 : 0.5 : 1"
       sodipodi:type="inkscape:persp3d" />
    <inkscape:perspective
       id="perspective3803"
       inkscape:persp3d-origin="0.5 : 0.33333333 : 1"
       inkscape:vp_z="1 : 0.5 : 1"
       inkscape:vp_y="0 : 1000 : 0"
       inkscape:vp_x="0 : 0.5 : 1"
       sodipodi:type="inkscape:persp3d" />
    <inkscape:perspective
       id="perspective3801"
       inkscape:persp3d-origin="0.5 : 0.33333333 : 1"
       inkscape:vp_z="1 : 0.5 : 1"
       inkscape:vp_y="0 : 1000 : 0"
       inkscape:vp_x="0 : 0.5 : 1"
       sodipodi:type="inkscape:persp3d" />
    <inkscape:perspective
       id="perspective3834"
       inkscape:persp3d-origin="0.5 : 0.33333333 : 1"
       inkscape:vp_z="1 : 0.5 : 1"
       inkscape:vp_y="0 : 1000 : 0"
       inkscape:vp_x="0 : 0.5 : 1"
       sodipodi:type="inkscape:persp3d" />
  </defs>
  <sodipodi:namedview
     id="base"
     pagecolor="#ffffff"
     bordercolor="#666666"
     borderopacity="1.0"
     inkscape:pageopacity="0.0"
     inkscape:pageshadow="2"
     inkscape:zoom="0.49497475"
     inkscape:cx="571.51329"
     inkscape:cy="512.69615"
     inkscape:document-units="px"
     inkscape:current-layer="g4143"
     showgrid="false"
     inkscape:window-width="1440"
     inkscape:window-height="840"
     inkscape:window-x="-4"
     inkscape:window-y="-4"
     inkscape:window-maximized="1" />
  <metadata
     id="metadata3178">
    <rdf:RDF>
      <cc:Work
         rdf:about="">
        <dc:format>image/svg+xml</dc:format>
        <dc:type
           rdf:resource="http://purl.org/dc/dcmitype/StillImage" />
        <dc:title>Jing</dc:title>
        <dc:date>2010-08-14</dc:date>
        <dc:creator>
          <cc:Agent>
            <dc:title>Alex Amies</dc:title>
          </cc:Agent>
        </dc:creator>
        <dc:rights>
          <cc:Agent>
            <dc:title>@ Alex Amies 2010</dc:title>
          </cc:Agent>
        </dc:rights>
        <dc:publisher>
          <cc:Agent>
            <dc:title>chinesenotes.com</dc:title>
          </cc:Agent>
        </dc:publisher>
        <dc:source>Yan Qin Ceremonial Inscription</dc:source>
        <dc:language>Chinese 中文</dc:language>
        <dc:description>Tracing from Tang Dynasty Ceremonial Inscription by Yan Zhenqing 颜真卿 (709－785)</dc:description>
        <cc:license
           rdf:resource="http://creativecommons.org/licenses/by/3.0/" />
      </cc:Work>
      <cc:License
         rdf:about="http://creativecommons.org/licenses/by/3.0/">
        <cc:permits
           rdf:resource="http://creativecommons.org/ns#Reproduction" />
        <cc:permits
           rdf:resource="http://creativecommons.org/ns#Distribution" />
        <cc:requires
           rdf:resource="http://creativecommons.org/ns#Notice" />
        <cc:requires
           rdf:resource="http://creativecommons.org/ns#Attribution" />
        <cc:permits
           rdf:resource="http://creativecommons.org/ns#DerivativeWorks" />
      </cc:License>
    </rdf:RDF>
  </metadata>
  <g
     inkscape:label="Layer 1"
     inkscape:groupmode="layer"
     id="layer1"
     transform="translate(0,-52.362183)">
    <g
       transform="matrix(4.7609464,0,0,4.7609464,-1421.6669,-3910.0295)"
       id="g4143"
       style="fill:#000000;fill-opacity:1">
      <g
         transform="matrix(0.99798993,0,0,0.99798993,-41.460075,620.32179)"
         id="g5530"
         style="fill:#000000;fill-opacity:1">
        <path
           style="fill:#000000;stroke:#000000;stroke-width:4.75137663000000020px;stroke-linecap:butt;stroke-linejoin:miter;stroke-opacity:1;fill-opacity:1"
           d="M 277.84375 115.3125 C 266.66417 115.896 261.85603 128.68625 264.25 140.78125 C 247.314 224.75466 192.64427 299.53653 152.4375 375.34375 C 152.19297 376.37197 151.86684 377.4363 151.53125 378.5 C 145.20286 377.41732 138.73885 377.27084 132.15625 378.34375 C 104.59494 390.01498 90.546932 420.63126 105.3125 447.375 C 131.6313 472.77209 183.72956 475.82445 222.59375 474.59375 C 201.15926 502.36522 179.22205 528.00899 158.09375 548 C 140.13911 561.91583 124.78529 571.02448 117.375 594.53125 C 115.36669 611.58926 128.0239 633.11765 147.4375 629.5 C 205.38894 616.23817 252.66031 580.07111 308.90625 564.78125 C 292.32595 593.71532 277.24703 624.20781 268.5625 650.8125 C 322.21528 605.83958 435.29587 513.78317 434.15625 481.9375 C 433.43309 461.72923 398.88447 442.94066 385 454.71875 C 378.44159 460.28221 358.90395 485.6183 337.21875 518.71875 C 299.50885 526.56911 280.86205 548.53607 233.96875 558.21875 C 269.61833 472.53756 415.04821 346.72561 434.375 305.90625 C 446.17761 280.97844 383.93519 237.94763 369.75 256.1875 C 355.16042 274.94736 305.04119 361.3002 247.25 441.46875 C 228.63943 428.25148 207.85568 406.79457 185.0625 392.4375 C 258.75734 349.73339 285.33395 248.77324 349.40625 198.40625 C 385.72748 155.39883 326.03322 122.44905 286.59375 117.03125 C 283.34677 115.70862 280.42365 115.17785 277.84375 115.3125 z M 360.28125 654.25 C 340.58537 654.10973 334.21634 660.00339 346.15625 673.6875 C 379.03188 711.36568 392.16785 742.26482 417.90625 822.3125 C 431.49333 829.13819 447.7687 821.2623 456.34375 810.0625 C 475.60265 763.84382 452.46472 689.85042 409.03125 660.65625 C 388.69688 656.60822 372.09878 654.33416 360.28125 654.25 z M 235.78125 678.0625 C 226.83082 678.41137 229.99715 697.56595 230.78125 709.875 C 258.80159 748.33136 250.00589 826.9413 256.875 854.5 C 264.00302 883.0974 311.79294 871.88015 316 850.1875 C 324.02023 808.83318 302.90589 734.84459 259.25 694 C 247.41125 682.21558 240.15239 677.89212 235.78125 678.0625 z M 93.78125 703.0625 C 84.830822 703.41137 87.99715 722.56595 88.78125 734.875 C 116.80159 773.33136 104.61207 857.03207 114.875 879.5 C 127.12039 906.30798 170.33799 896.98396 173.96875 875.1875 C 180.29207 837.22699 160.90589 759.84459 117.25 719 C 105.41125 707.21558 98.152389 702.89212 93.78125 703.0625 z "
           transform="matrix(0.21046532,0,0,0.21046532,340.75516,212.37485)"
           id="path5447" />
        <path
           sodipodi:nodetypes="cccsccc"
           id="path5488"
           d="m 437.5,244.50504 c -3.15768,2.98701 -2.48827,7.94652 -1.82917,11.83974 0.49521,5.6053 7.77427,4.5721 11.16511,2.33391 30.20563,-14.0512 68.08602,-5.88704 83.76077,-6.26042 8.07353,-0.19231 -0.52402,-10.16095 -7.32929,-17.7142 -7.55413,-2.74816 -14.50491,3.14578 -21.77528,4.62026 -19.51248,4.04322 -45.21842,4.0457 -63.99214,5.18071 z"
           style="fill:#000000;fill-opacity:1;stroke:#000000;stroke-width:1px;stroke-linecap:butt;stroke-linejoin:miter;stroke-opacity:1" />
        <path
           sodipodi:nodetypes="cccccccccc"
           id="path5491"
           d="m 446.64217,267.79737 c 2.51472,5.26749 2.19257,10.05707 1.57214,15.99338 -1.07341,4.90737 -4.34463,7.09407 -5.3582,11.89601 -0.30694,8.75441 7.34191,9.47217 13.71425,11.28654 2.23318,1.05351 4.54716,-1.01168 3.90496,-3.34541 -2.5433,-3.97047 -5.22092,-6.72655 -8.20592,-9.62019 -2.44788,-4.04892 1.45879,-8.79258 4.52723,-11.36224 1.79728,-1.91103 4.73647,-2.938 5.45543,-5.69534 1.42151,-5.19719 -1.97729,-13.10647 -8.46853,-12.69324 -2.60116,1.21393 -6.00241,0.68385 -7.14136,3.54049 z"
           style="fill:#000000;fill-opacity:1;stroke:#000000;stroke-width:1px;stroke-linecap:butt;stroke-linejoin:miter;stroke-opacity:1" />
        <path
           sodipodi:nodetypes="cccccccc"
           id="path5494"
           d="m 475.77409,257.31209 c 0.0562,11.62667 6.0045,13.36084 -0.5802,23.691 -4.49707,10.61692 1.85769,22.84103 9.98825,30.04125 2.8368,1.84842 6.32426,-0.97027 6.88592,-3.86025 2.12478,-8.55774 -4.93022,-13.66839 -10.76267,-18.55263 -6.23396,-5.43703 3.31535,-11.55911 8.19031,-15.44704 10.82308,-3.72049 2.80682,-13.96674 -3.91903,-17.20386 -3.29829,-0.79935 -7.74556,-2.16132 -9.80258,1.33153 z"
           style="fill:#000000;fill-opacity:1;stroke:#000000;stroke-width:1px;stroke-linecap:butt;stroke-linejoin:miter;stroke-opacity:1" />
        <path
           sodipodi:nodetypes="cccccccc"
           id="path5494-7"
           d="m 504.02267,256.33809 c 0.0562,11.62667 6.0045,13.36084 -0.5802,23.691 -4.49707,10.61692 8.6434,17.48389 16.77396,24.68411 2.8368,1.84842 6.32426,-0.97027 6.88592,-3.86025 2.12478,-8.55774 -9.57307,-8.31125 -15.40552,-13.19549 -6.23396,-5.43703 1.17249,-11.55911 6.04745,-15.44704 10.82308,-3.72049 2.80682,-13.96674 -3.91903,-17.20386 -3.29829,-0.79935 -7.74556,-2.16132 -9.80258,1.33153 z"
           style="fill:#000000;fill-opacity:1;stroke:#000000;stroke-width:1px;stroke-linecap:butt;stroke-linejoin:miter;stroke-opacity:1" />
        <path
           sodipodi:nodetypes="ccsccs"
           id="path5520"
           d="m 448.21429,324.50504 c -6.37189,1.59806 4.30441,9.30084 8.19184,8.94453 14.73639,-4.94467 58.73724,-3.36249 63.94257,-4.67564 4.69735,-1.185 -0.39048,-8.20138 -4.33234,-10.69477 -2.80557,-1.81443 -5.88728,-6.25687 -9.50628,-5.10407 -19.04279,13.02271 -47.73659,8.88171 -58.29579,11.52995 z"
           style="fill:#000000;fill-opacity:1;stroke:#000000;stroke-width:1px;stroke-linecap:butt;stroke-linejoin:miter;stroke-opacity:1" />
        <path
           sodipodi:nodetypes="cccccc"
           id="path5523"
           d="m 491.07143,325.93361 c -2.71259,-0.47553 -6.15526,0.63563 -7.07269,3.46235 3.24265,12.63366 -3.99858,25.57648 -0.24252,37.68017 3.59969,3.98696 8.19403,0.0626 11.08709,-2.76751 4.49221,-10.34825 10.4418,-31.64185 -3.77184,-38.37501 l -4e-5,0 z"
           style="fill:#000000;fill-opacity:1;stroke:#000000;stroke-width:1px;stroke-linecap:butt;stroke-linejoin:miter;stroke-opacity:1" />
        <path
           sodipodi:nodetypes="ccssc"
           id="path5527"
           d="m 452.14286,367.71933 c -4.8198,2.1258 -1.35221,9.44021 4.13015,9.34611 19.51246,-6.98826 60.18751,-2.03429 74.83386,-4.08476 2.41205,-0.33768 1.50359,-7.183 -1.02134,-8.25595 -7.34143,-3.11969 -59.81917,-2.15431 -77.94267,2.9946 z"
           style="fill:#000000;fill-opacity:1;stroke:#000000;stroke-width:1px;stroke-linecap:butt;stroke-linejoin:miter;stroke-opacity:1" />
      </g>
    </g>
  </g>
</svg>
