<?xml version="1.0" encoding="UTF-8" standalone="no"?>
<!-- Created with Inkscape (http://www.inkscape.org/) -->

<svg
   xmlns:dc="http://purl.org/dc/elements/1.1/"
   xmlns:cc="http://creativecommons.org/ns#"
   xmlns:rdf="http://www.w3.org/1999/02/22-rdf-syntax-ns#"
   xmlns:svg="http://www.w3.org/2000/svg"
   xmlns="http://www.w3.org/2000/svg"
   xmlns:sodipodi="http://sodipodi.sourceforge.net/DTD/sodipodi-0.dtd"
   xmlns:inkscape="http://www.inkscape.org/namespaces/inkscape"
   width="1000"
   height="1000"
   id="svg3173"
   version="1.1"
   inkscape:version="0.47 r22583"
   sodipodi:docname="7dbf.svg"
   inkscape:export-filename="E:\chinese\yan\7dbf.png"
   inkscape:export-xdpi="18.005705"
   inkscape:export-ydpi="18.005705">
  <title
     id="title6019">Mian</title>
  <defs
     id="defs3175">
    <inkscape:perspective
       sodipodi:type="inkscape:persp3d"
       inkscape:vp_x="0 : 526.18109 : 1"
       inkscape:vp_y="0 : 1000 : 0"
       inkscape:vp_z="744.09448 : 526.18109 : 1"
       inkscape:persp3d-origin="372.04724 : 350.78739 : 1"
       id="perspective3181" />
    <inkscape:perspective
       id="perspective3191"
       inkscape:persp3d-origin="0.5 : 0.33333333 : 1"
       inkscape:vp_z="1 : 0.5 : 1"
       inkscape:vp_y="0 : 1000 : 0"
       inkscape:vp_x="0 : 0.5 : 1"
       sodipodi:type="inkscape:persp3d" />
    <inkscape:perspective
       id="perspective4006"
       inkscape:persp3d-origin="0.5 : 0.33333333 : 1"
       inkscape:vp_z="1 : 0.5 : 1"
       inkscape:vp_y="0 : 1000 : 0"
       inkscape:vp_x="0 : 0.5 : 1"
       sodipodi:type="inkscape:persp3d" />
    <inkscape:perspective
       id="perspective4034"
       inkscape:persp3d-origin="0.5 : 0.33333333 : 1"
       inkscape:vp_z="1 : 0.5 : 1"
       inkscape:vp_y="0 : 1000 : 0"
       inkscape:vp_x="0 : 0.5 : 1"
       sodipodi:type="inkscape:persp3d" />
    <inkscape:perspective
       id="perspective4081"
       inkscape:persp3d-origin="0.5 : 0.33333333 : 1"
       inkscape:vp_z="1 : 0.5 : 1"
       inkscape:vp_y="0 : 1000 : 0"
       inkscape:vp_x="0 : 0.5 : 1"
       sodipodi:type="inkscape:persp3d" />
    <inkscape:perspective
       id="perspective4147"
       inkscape:persp3d-origin="0.5 : 0.33333333 : 1"
       inkscape:vp_z="1 : 0.5 : 1"
       inkscape:vp_y="0 : 1000 : 0"
       inkscape:vp_x="0 : 0.5 : 1"
       sodipodi:type="inkscape:persp3d" />
    <inkscape:perspective
       id="perspective3801"
       inkscape:persp3d-origin="0.5 : 0.33333333 : 1"
       inkscape:vp_z="1 : 0.5 : 1"
       inkscape:vp_y="0 : 1000 : 0"
       inkscape:vp_x="0 : 0.5 : 1"
       sodipodi:type="inkscape:persp3d" />
    <inkscape:perspective
       id="perspective3122"
       inkscape:persp3d-origin="0.5 : 0.33333333 : 1"
       inkscape:vp_z="1 : 0.5 : 1"
       inkscape:vp_y="0 : 1000 : 0"
       inkscape:vp_x="0 : 0.5 : 1"
       sodipodi:type="inkscape:persp3d" />
    <inkscape:perspective
       id="perspective3854"
       inkscape:persp3d-origin="0.5 : 0.33333333 : 1"
       inkscape:vp_z="1 : 0.5 : 1"
       inkscape:vp_y="0 : 1000 : 0"
       inkscape:vp_x="0 : 0.5 : 1"
       sodipodi:type="inkscape:persp3d" />
    <inkscape:perspective
       id="perspective3922"
       inkscape:persp3d-origin="0.5 : 0.33333333 : 1"
       inkscape:vp_z="1 : 0.5 : 1"
       inkscape:vp_y="0 : 1000 : 0"
       inkscape:vp_x="0 : 0.5 : 1"
       sodipodi:type="inkscape:persp3d" />
    <inkscape:perspective
       id="perspective3945"
       inkscape:persp3d-origin="0.5 : 0.33333333 : 1"
       inkscape:vp_z="1 : 0.5 : 1"
       inkscape:vp_y="0 : 1000 : 0"
       inkscape:vp_x="0 : 0.5 : 1"
       sodipodi:type="inkscape:persp3d" />
    <inkscape:perspective
       id="perspective3972"
       inkscape:persp3d-origin="0.5 : 0.33333333 : 1"
       inkscape:vp_z="1 : 0.5 : 1"
       inkscape:vp_y="0 : 1000 : 0"
       inkscape:vp_x="0 : 0.5 : 1"
       sodipodi:type="inkscape:persp3d" />
    <inkscape:perspective
       id="perspective3995"
       inkscape:persp3d-origin="0.5 : 0.33333333 : 1"
       inkscape:vp_z="1 : 0.5 : 1"
       inkscape:vp_y="0 : 1000 : 0"
       inkscape:vp_x="0 : 0.5 : 1"
       sodipodi:type="inkscape:persp3d" />
    <inkscape:perspective
       id="perspective3802"
       inkscape:persp3d-origin="0.5 : 0.33333333 : 1"
       inkscape:vp_z="1 : 0.5 : 1"
       inkscape:vp_y="0 : 1000 : 0"
       inkscape:vp_x="0 : 0.5 : 1"
       sodipodi:type="inkscape:persp3d" />
    <inkscape:perspective
       id="perspective3833"
       inkscape:persp3d-origin="0.5 : 0.33333333 : 1"
       inkscape:vp_z="1 : 0.5 : 1"
       inkscape:vp_y="0 : 1000 : 0"
       inkscape:vp_x="0 : 0.5 : 1"
       sodipodi:type="inkscape:persp3d" />
    <inkscape:perspective
       id="perspective3913"
       inkscape:persp3d-origin="0.5 : 0.33333333 : 1"
       inkscape:vp_z="1 : 0.5 : 1"
       inkscape:vp_y="0 : 1000 : 0"
       inkscape:vp_x="0 : 0.5 : 1"
       sodipodi:type="inkscape:persp3d" />
    <inkscape:perspective
       id="perspective4500"
       inkscape:persp3d-origin="0.5 : 0.33333333 : 1"
       inkscape:vp_z="1 : 0.5 : 1"
       inkscape:vp_y="0 : 1000 : 0"
       inkscape:vp_x="0 : 0.5 : 1"
       sodipodi:type="inkscape:persp3d" />
    <inkscape:perspective
       id="perspective5117"
       inkscape:persp3d-origin="0.5 : 0.33333333 : 1"
       inkscape:vp_z="1 : 0.5 : 1"
       inkscape:vp_y="0 : 1000 : 0"
       inkscape:vp_x="0 : 0.5 : 1"
       sodipodi:type="inkscape:persp3d" />
    <inkscape:perspective
       id="perspective5212"
       inkscape:persp3d-origin="0.5 : 0.33333333 : 1"
       inkscape:vp_z="1 : 0.5 : 1"
       inkscape:vp_y="0 : 1000 : 0"
       inkscape:vp_x="0 : 0.5 : 1"
       sodipodi:type="inkscape:persp3d" />
    <inkscape:perspective
       id="perspective5834"
       inkscape:persp3d-origin="0.5 : 0.33333333 : 1"
       inkscape:vp_z="1 : 0.5 : 1"
       inkscape:vp_y="0 : 1000 : 0"
       inkscape:vp_x="0 : 0.5 : 1"
       sodipodi:type="inkscape:persp3d" />
    <inkscape:perspective
       id="perspective5906"
       inkscape:persp3d-origin="0.5 : 0.33333333 : 1"
       inkscape:vp_z="1 : 0.5 : 1"
       inkscape:vp_y="0 : 1000 : 0"
       inkscape:vp_x="0 : 0.5 : 1"
       sodipodi:type="inkscape:persp3d" />
    <inkscape:perspective
       id="perspective3787"
       inkscape:persp3d-origin="0.5 : 0.33333333 : 1"
       inkscape:vp_z="1 : 0.5 : 1"
       inkscape:vp_y="0 : 1000 : 0"
       inkscape:vp_x="0 : 0.5 : 1"
       sodipodi:type="inkscape:persp3d" />
  </defs>
  <sodipodi:namedview
     id="base"
     pagecolor="#ffffff"
     bordercolor="#666666"
     borderopacity="1.0"
     inkscape:pageopacity="0.0"
     inkscape:pageshadow="2"
     inkscape:zoom="0.49497475"
     inkscape:cx="483.07102"
     inkscape:cy="534.97897"
     inkscape:document-units="px"
     inkscape:current-layer="g4634"
     showgrid="false"
     inkscape:window-width="1440"
     inkscape:window-height="840"
     inkscape:window-x="-4"
     inkscape:window-y="-4"
     inkscape:window-maximized="1" />
  <metadata
     id="metadata3178">
    <rdf:RDF>
      <cc:Work
         rdf:about="">
        <dc:format>image/svg+xml</dc:format>
        <dc:type
           rdf:resource="http://purl.org/dc/dcmitype/StillImage" />
        <dc:title>Mian</dc:title>
        <dc:date>2010-08-21</dc:date>
        <dc:creator>
          <cc:Agent>
            <dc:title>Alex Amies</dc:title>
          </cc:Agent>
        </dc:creator>
        <dc:rights>
          <cc:Agent>
            <dc:title>@ Alex Amies 2010</dc:title>
          </cc:Agent>
        </dc:rights>
        <dc:publisher>
          <cc:Agent>
            <dc:title>chinesenotes.com</dc:title>
          </cc:Agent>
        </dc:publisher>
        <dc:source>Yan Qin Ceremonial Inscription</dc:source>
        <dc:language>Chinese 中文</dc:language>
        <dc:description>Tracing from Tang Dynasty Ceremonial Inscription by Yan Zhenqing 颜真卿 (709－785)</dc:description>
        <cc:license
           rdf:resource="http://creativecommons.org/licenses/by/3.0/" />
      </cc:Work>
      <cc:License
         rdf:about="http://creativecommons.org/licenses/by/3.0/">
        <cc:permits
           rdf:resource="http://creativecommons.org/ns#Reproduction" />
        <cc:permits
           rdf:resource="http://creativecommons.org/ns#Distribution" />
        <cc:requires
           rdf:resource="http://creativecommons.org/ns#Notice" />
        <cc:requires
           rdf:resource="http://creativecommons.org/ns#Attribution" />
        <cc:permits
           rdf:resource="http://creativecommons.org/ns#DerivativeWorks" />
      </cc:License>
    </rdf:RDF>
  </metadata>
  <g
     inkscape:label="Layer 1"
     inkscape:groupmode="layer"
     id="layer1"
     transform="translate(0,-52.362183)">
    <g
       transform="matrix(4.7609464,0,0,4.7609464,-444.07486,-2879.5352)"
       id="g4634"
       style="fill:#000000;fill-opacity:1">
      <path
         id="path2831"
         d="m 153.79546,628.29697 c -14.4105,18.18071 -29.74185,35.65922 -44.23445,53.72985 -8.00554,11.24688 10.61082,12.40118 17.44001,14.26605 6.06794,0.38629 19.37436,0.86846 9.84314,8.9 -5.95266,6.79028 -18.78058,10.57713 -17.27513,22.11756 3.09347,9.96539 16.63384,10.95772 22.81956,3.19425 4.42444,-3.21487 13.25967,-10.08736 8.15413,-0.28318 3.06915,8.84778 11.55197,-3.96963 16.80471,-5.38877 6.62413,-5.21687 8.7575,-23.23133 -3.52633,-16.958 -1.78989,11.24623 -13.84375,8.80886 -21.30431,10.70381 -1.26644,-6.93858 7.49225,-12.36399 10.49555,-18.62967 4.45565,-6.82754 10.24739,-12.84426 14.0033,-19.99194 6.52759,-4.11009 18.0358,-21.13826 3.1811,-19.94742 -10.15312,4.30441 -11.5974,20.49763 -19.98529,28.31977 -5.76047,-0.23424 -18.96873,-6.2329 -11.54917,-13.73319 4.23058,-5.48024 6.42624,-12.42281 11.31307,-17.2761 5.30587,-5.30591 10.61173,-10.61177 15.91759,-15.91763 0.94429,-6.48573 -6.59443,-11.585 -12.09748,-13.10558 z"
         style="fill:#000000;fill-opacity:1;stroke:#000000;stroke-width:0.99798989000000005px;stroke-linecap:butt;stroke-linejoin:miter;stroke-opacity:1" />
      <path
         id="path2833"
         d="m 120.52747,759.35286 c -7.74769,2.05492 -22.718725,13.32367 -12.23439,19.98823 6.97988,5.06715 12.73424,-7.76574 12.23439,-13.82304 0,-2.05506 0,-4.11013 0,-6.16519 z"
         style="fill:#000000;fill-opacity:1;stroke:#000000;stroke-width:0.99798989000000005px;stroke-linecap:butt;stroke-linejoin:miter;stroke-opacity:1" />
      <path
         id="path2835"
         d="m 131.6168,749.27162 c 7.58067,7.00334 3.54794,21.00579 13.59083,24.42626 9.08768,1.25033 12.4966,-12.20719 5.51759,-17.07626 -4.4902,-5.57184 -11.9501,-8.93068 -19.10842,-7.35 z"
         style="fill:#000000;fill-opacity:1;stroke:#000000;stroke-width:0.99798989000000005px;stroke-linecap:butt;stroke-linejoin:miter;stroke-opacity:1" />
      <path
         id="path2837"
         d="m 162.36452,745.7432 c 4.78269,7.24604 4.99579,18.50415 9.83331,24.1665 9.0747,3.63219 13.87288,-4.68718 7.49482,-11.69442 -3.6005,-6.89367 -10.62113,-9.62914 -17.32813,-12.47208 z"
         style="fill:#000000;fill-opacity:1;stroke:#000000;stroke-width:0.99798989000000005px;stroke-linecap:butt;stroke-linejoin:miter;stroke-opacity:1" />
      <path
         style="fill:#000000;stroke:#000000;stroke-width:4.75137614999999960px;stroke-linecap:butt;stroke-linejoin:miter;stroke-opacity:1;fill-opacity:1"
         d="M 659.125 26.96875 C 654.92061 27.10942 651.00877 28.315133 648.09375 30.59375 C 611.58996 59.127911 590.5994 119.79784 581.15625 170.9375 C 581.03782 171.96297 580.96927 172.92819 580.90625 173.875 C 569.5672 177.99087 560.28515 183.48353 554.46875 191.40625 C 540.98051 209.77884 572.35335 233.76653 608.0625 217.25 C 663.54876 188.88728 727.23813 201.40367 787 198.53125 C 803.54005 204.61969 824.11358 195.49739 826.1875 199.28125 C 829.36643 205.07899 821.5738 228.79954 816.84375 246.78125 C 819.96841 297.70957 777.02475 337.23746 780.75 390.375 C 779.5355 391.17313 778.40729 391.97093 777.34375 392.8125 C 748.10968 378.60528 703.94537 385.99068 669.46875 394.53125 C 641.83497 401.377 604.41018 402.77959 578.78125 413.875 C 580.85123 409.88737 582.56985 404.18799 583.71875 396.375 C 583.11684 371.99181 584.36601 346.73628 582.75 322.1875 C 598.1263 329.47958 615.7294 330.63585 633.71875 326.65625 C 672.60368 311.43931 726.84762 331.82225 755.15625 302.4375 C 757.83957 255.9569 710.45828 235.93613 673.75 260.15625 C 645.92776 283.69004 609.66722 278.80134 578.3125 289.28125 C 574.84145 273.60841 569.13348 258.55052 559.8125 244.59375 C 554.82255 228.27332 556.48844 214.88978 542.53125 203.375 C 511.47569 251.03779 524.35875 311.87316 532.78125 364.40625 C 533.65822 383.18079 551.44245 416.86965 566.09375 421 C 561.29295 424.521 557.35223 428.68992 554.53125 433.75 C 546.53015 448.10197 580.63014 462.27303 597.71875 462.5625 C 613.49021 462.8294 629.54454 461.44456 645.71875 459.65625 C 645.87202 492.12713 645.81547 524.63243 645.75 557.125 C 615.11481 561.90139 582.20264 553.20337 551.375 559.0625 C 554.0327 535.62781 551.99414 514.67532 518.46875 508.875 C 503.14883 507.66248 475.42219 500.66132 472.9375 512.96875 C 468.31967 535.84248 472.87541 629.14427 486.25 684.96875 C 470.34173 730.94511 509.94808 779.22678 555.59375 750.5625 C 580.21192 703.86137 545.62211 647.0864 547.125 595.8125 C 549.60836 595.65847 552.54512 595.22572 556.03125 594.5 C 585.73272 592.28614 615.98934 592.5673 645.6875 589.625 C 645.65084 667.00431 646.29909 744.37655 651.375 821.53125 C 659.70428 874.51044 656.85447 928.90217 670.03125 981.03125 C 680.01505 1005.7984 707.62765 963.46268 712.90625 940.125 C 727.39324 876.07418 742.15555 783.3884 734.40625 703.1875 C 733.00847 657.66787 732.37984 612.14025 732.125 566.59375 C 752.97453 561.79307 774.43737 559.63627 796.1875 558.15625 C 835.14223 539.90311 840.40531 567.69946 835.1875 601.96875 C 830.10728 640.9937 840.04775 708.27222 782.75 702.09375 C 804.72862 720.19082 774.51055 790.88005 814.125 796.53125 C 858.42946 800.0334 872.31619 753.21186 880.125 718.8125 C 905.23571 664.0381 943.94964 602.32199 919 540.75 C 901.67111 506.5386 846.64866 467.67924 815.875 509.84375 C 789.59745 523.07727 761.10774 532.04491 732 538.09375 C 731.93169 509.75817 731.98056 481.43143 732.0625 453.09375 C 739.17471 453.37428 746.24704 453.99993 753.25 455.09375 C 770.20112 457.74148 782.32267 454.00743 789.84375 447.15625 C 799.76849 449.10588 811.05911 445.70945 820.5625 433.4375 C 843.9884 401.19099 870.3308 372.77895 885.71875 336.03125 C 905.9612 294.26942 929.06062 255.05598 926.40625 215 C 923.7992 175.65949 904.75413 129.86005 854.84375 129.625 C 843.88567 139.40884 838.90398 148.80993 834.4375 151.75 C 831.66868 153.57325 823.02479 148.78592 810.46875 144.625 C 774.59992 136.71193 736.83567 143.58793 700.875 145.375 C 690.41034 150.24248 678.36893 153.64115 665.75 156.375 C 668.05475 154.81797 670.20502 153.3808 672 152.25 C 701.1239 132.57263 691.49713 78.360582 686.8125 46.65625 C 682.69284 33.212273 669.86955 26.609261 659.125 26.96875 z "
         transform="matrix(0.21004227,0,0,0.21004227,93.274493,615.82239)"
         id="path2841" />
    </g>
  </g>
</svg>
