<?xml version="1.0" encoding="UTF-8" standalone="no"?>
<!-- Created with Inkscape (http://www.inkscape.org/) -->

<svg
   xmlns:dc="http://purl.org/dc/elements/1.1/"
   xmlns:cc="http://creativecommons.org/ns#"
   xmlns:rdf="http://www.w3.org/1999/02/22-rdf-syntax-ns#"
   xmlns:svg="http://www.w3.org/2000/svg"
   xmlns="http://www.w3.org/2000/svg"
   xmlns:sodipodi="http://sodipodi.sourceforge.net/DTD/sodipodi-0.dtd"
   xmlns:inkscape="http://www.inkscape.org/namespaces/inkscape"
   width="1000"
   height="1000"
   id="svg3173"
   version="1.1"
   inkscape:version="0.47 r22583"
   sodipodi:docname="7e23.svg"
   inkscape:export-filename="E:\chinese\yan\7e23.png"
   inkscape:export-xdpi="18.005705"
   inkscape:export-ydpi="18.005705">
  <title
     id="title4718">Xian</title>
  <defs
     id="defs3175">
    <inkscape:perspective
       sodipodi:type="inkscape:persp3d"
       inkscape:vp_x="0 : 526.18109 : 1"
       inkscape:vp_y="0 : 1000 : 0"
       inkscape:vp_z="744.09448 : 526.18109 : 1"
       inkscape:persp3d-origin="372.04724 : 350.78739 : 1"
       id="perspective3181" />
    <inkscape:perspective
       id="perspective3191"
       inkscape:persp3d-origin="0.5 : 0.33333333 : 1"
       inkscape:vp_z="1 : 0.5 : 1"
       inkscape:vp_y="0 : 1000 : 0"
       inkscape:vp_x="0 : 0.5 : 1"
       sodipodi:type="inkscape:persp3d" />
    <inkscape:perspective
       id="perspective4006"
       inkscape:persp3d-origin="0.5 : 0.33333333 : 1"
       inkscape:vp_z="1 : 0.5 : 1"
       inkscape:vp_y="0 : 1000 : 0"
       inkscape:vp_x="0 : 0.5 : 1"
       sodipodi:type="inkscape:persp3d" />
    <inkscape:perspective
       id="perspective4034"
       inkscape:persp3d-origin="0.5 : 0.33333333 : 1"
       inkscape:vp_z="1 : 0.5 : 1"
       inkscape:vp_y="0 : 1000 : 0"
       inkscape:vp_x="0 : 0.5 : 1"
       sodipodi:type="inkscape:persp3d" />
    <inkscape:perspective
       id="perspective4081"
       inkscape:persp3d-origin="0.5 : 0.33333333 : 1"
       inkscape:vp_z="1 : 0.5 : 1"
       inkscape:vp_y="0 : 1000 : 0"
       inkscape:vp_x="0 : 0.5 : 1"
       sodipodi:type="inkscape:persp3d" />
    <inkscape:perspective
       id="perspective4147"
       inkscape:persp3d-origin="0.5 : 0.33333333 : 1"
       inkscape:vp_z="1 : 0.5 : 1"
       inkscape:vp_y="0 : 1000 : 0"
       inkscape:vp_x="0 : 0.5 : 1"
       sodipodi:type="inkscape:persp3d" />
    <inkscape:perspective
       id="perspective3816"
       inkscape:persp3d-origin="0.5 : 0.33333333 : 1"
       inkscape:vp_z="1 : 0.5 : 1"
       inkscape:vp_y="0 : 1000 : 0"
       inkscape:vp_x="0 : 0.5 : 1"
       sodipodi:type="inkscape:persp3d" />
    <inkscape:perspective
       id="perspective3897"
       inkscape:persp3d-origin="0.5 : 0.33333333 : 1"
       inkscape:vp_z="1 : 0.5 : 1"
       inkscape:vp_y="0 : 1000 : 0"
       inkscape:vp_x="0 : 0.5 : 1"
       sodipodi:type="inkscape:persp3d" />
    <inkscape:perspective
       id="perspective3964"
       inkscape:persp3d-origin="0.5 : 0.33333333 : 1"
       inkscape:vp_z="1 : 0.5 : 1"
       inkscape:vp_y="0 : 1000 : 0"
       inkscape:vp_x="0 : 0.5 : 1"
       sodipodi:type="inkscape:persp3d" />
    <inkscape:perspective
       id="perspective3784"
       inkscape:persp3d-origin="0.5 : 0.33333333 : 1"
       inkscape:vp_z="1 : 0.5 : 1"
       inkscape:vp_y="0 : 1000 : 0"
       inkscape:vp_x="0 : 0.5 : 1"
       sodipodi:type="inkscape:persp3d" />
  </defs>
  <sodipodi:namedview
     id="base"
     pagecolor="#ffffff"
     bordercolor="#666666"
     borderopacity="1.0"
     inkscape:pageopacity="0.0"
     inkscape:pageshadow="2"
     inkscape:zoom="0.49497475"
     inkscape:cx="31.582974"
     inkscape:cy="513.93908"
     inkscape:document-units="px"
     inkscape:current-layer="layer1"
     showgrid="false"
     inkscape:window-width="1440"
     inkscape:window-height="840"
     inkscape:window-x="-4"
     inkscape:window-y="-4"
     inkscape:window-maximized="1" />
  <metadata
     id="metadata3178">
    <rdf:RDF>
      <cc:Work
         rdf:about="">
        <dc:format>image/svg+xml</dc:format>
        <dc:type
           rdf:resource="http://purl.org/dc/dcmitype/StillImage" />
        <dc:title>Xian</dc:title>
        <dc:date>2010-08-03</dc:date>
        <dc:creator>
          <cc:Agent>
            <dc:title>Alex Amies</dc:title>
          </cc:Agent>
        </dc:creator>
        <dc:rights>
          <cc:Agent>
            <dc:title>@ Alex Amies 2010</dc:title>
          </cc:Agent>
        </dc:rights>
        <dc:publisher>
          <cc:Agent>
            <dc:title>chinesenotes.com</dc:title>
          </cc:Agent>
        </dc:publisher>
        <dc:source>Yan Qin Ceremonial Inscription</dc:source>
        <dc:language>Chinese 中文</dc:language>
        <dc:description>Tracing from Tang Dynasty Ceremonial Inscription by Yan Zhenqing 颜真卿 (709－785)</dc:description>
        <cc:license
           rdf:resource="http://creativecommons.org/licenses/by/3.0/" />
      </cc:Work>
      <cc:License
         rdf:about="http://creativecommons.org/licenses/by/3.0/">
        <cc:permits
           rdf:resource="http://creativecommons.org/ns#Reproduction" />
        <cc:permits
           rdf:resource="http://creativecommons.org/ns#Distribution" />
        <cc:requires
           rdf:resource="http://creativecommons.org/ns#Notice" />
        <cc:requires
           rdf:resource="http://creativecommons.org/ns#Attribution" />
        <cc:permits
           rdf:resource="http://creativecommons.org/ns#DerivativeWorks" />
      </cc:License>
    </rdf:RDF>
  </metadata>
  <g
     inkscape:label="Layer 1"
     inkscape:groupmode="layer"
     id="layer1"
     transform="translate(0,-52.362183)">
    <path
       style="fill:#000000;fill-opacity:1;stroke:#000000;stroke-width:4.75137663000000020px;stroke-linecap:butt;stroke-linejoin:miter;stroke-opacity:1"
       d="m 676.08082,90.43835 c -2.06134,0.07222 -4.03159,0.194331 -6.0877,0.445204 -13.04253,3.333138 -28.11262,14.282206 -34.89293,28.211296 -31.20038,57.31443 -77.56356,104.5329 -114.92392,157.83479 -6.54274,9.78988 -14.45278,25.12224 -13.21476,32.96263 0.66875,4.23509 14.38783,9.28623 19.30247,4.75138 47.33079,-37.23103 92.40705,-79.12667 142.98673,-112.10275 7.93476,-4.76724 17.69717,-10.86492 26.13257,-9.79971 10.8961,1.37595 22.17045,8.05159 34.00204,9.65123 7.63285,1.03195 10.99592,-3.72037 14.99654,-8.46339 14.396,-14.25498 15.88869,-41.79306 10.39363,-60.58005 -16.71667,-25.37282 -47.77428,-43.991378 -78.69467,-42.910867 l 0,2.37e-4 z m -351.30491,69.78584 c -28.56893,1.40822 -52.81031,19.12914 -78.39771,30.14155 -19.81329,10.00074 -39.32828,20.52989 -58.79829,31.18091 -4.41844,-4.87914 -9.22536,-9.33 -15.88741,-11.13604 -15.38985,-10.21518 -22.2678,2.89601 -28.2113,17.5207 -2.65958,6.69706 -6.17736,13.35792 -3.41505,20.63879 4.63354,31.02872 5.4818,62.47067 8.46339,93.69116 8.96447,114.20718 18.19416,228.40865 26.13257,342.69304 l -24.05384,-8.01795 -20.34184,8.46362 c -8.83608,4.39313 -11.53933,9.70327 -2.82113,16.92678 14.33743,13.04443 34.92714,11.51069 53.00755,13.66021 83.51865,0.17105 167.6699,8.65701 250.93207,-0.59392 9.54785,-20.39196 -13.31549,-33.57465 -31.03242,-29.84482 9.19391,-59.01823 12.83323,-118.81578 19.59942,-178.17662 11.96426,-90.07261 8.038,-180.95243 15.14502,-271.42234 -4.04694,-20.04815 -14.56825,-40.13018 -30.43851,-53.15603 -22.69975,-16.79554 -51.9993,-23.43878 -79.88252,-22.56904 z m 0.74241,35.93229 c 27.54016,3.22538 13.76464,37.17458 16.77829,55.53171 -0.82023,128.57049 0.79149,257.06444 -2.2272,385.60386 -1.79279,17.86494 -6.43403,39.15681 -0.29696,56.42283 -39.56904,1.61547 -79.2035,0.41337 -118.78442,-0.74264 0.70368,-1.97514 1.51027,-3.92273 2.52417,-5.64226 1.89456,-9.71514 -0.44806,-20.13538 -0.14824,-30.14154 l -1.33633,-39.6443 c 4.55676,4.31786 10.94656,6.67578 17.22374,5.64226 18.84505,-3.70698 41.19163,-19.78587 52.56211,-35.33836 3.41334,-9.60339 0.84232,-21.88294 -8.16643,-27.4689 -6.77817,-3.95352 -15.53339,-1.81769 -21.3812,2.82113 -11.52669,12.20952 -28.00281,17.987 -41.1291,27.32042 l -3.26681,-95.47298 c 5.94397,0.92011 12.48025,0.77652 17.66918,-0.29696 21.36319,-15.20155 47.31929,-21.56498 66.22231,-40.68366 2.9173,-4.63924 4.11099,-11.57877 3.26657,-16.92678 -3.28733,-16.75673 -19.66723,-23.53566 -35.63532,-20.34183 -18.21635,6.8741 -36.54426,19.08942 -53.00755,31.62635 l -2.96961,-87.6035 c 30.29882,1.99548 60.59773,-15.47339 84.6339,-32.22028 3.608,-3.30035 4.90993,-11.5324 3.11809,-15.88741 -6.33743,-12.62688 -21.22397,-19.33411 -35.0414,-18.11463 -17.60029,4.40011 -37.57617,11.69423 -54.19539,20.78728 l -1.93025,-56.42255 c -1.0645,-2.20445 -1.89285,-4.53771 -2.82113,-6.83011 3.55142,-0.47803 7.04724,-1.86482 10.09668,-4.30593 l 108.2423,-51.67122 z M 705.183,248.12466 c -13.28632,0.46373 -28.27397,9.05128 -31.92331,22.56904 -4.22407,15.64671 -9.50532,30.25045 -18.41159,44.09866 -33.65186,60.28447 -88.85896,106.06318 -124.12971,164.81338 -2.45632,4.95977 7.62587,12.32954 13.66021,13.51173 25.83499,5.06145 54.0212,-4.70624 80.92188,-8.46339 14.89267,-2.08001 33.43815,-1.21374 44.69264,-6.83011 4.01862,-2.00536 6.17175,-16.31461 2.37568,-16.92678 -26.8314,-4.32688 -93.78157,10.09616 -87.30654,-3.41505 13.52741,-28.22707 70.99782,-87.2165 110.32102,-125.61452 8.75617,-8.5501 27.42628,-6.52577 34.00204,-15.29349 12.98813,-22.11143 9.8374,-51.11835 -11.87844,-66.07378 -3.5451,-1.78443 -7.89512,-2.53025 -12.32388,-2.37569 z m 46.17744,95.32444 c -3.5823,0.19814 -6.67041,1.08004 -8.76035,3.8605 -15.14435,25.90265 -33.68146,50.03636 -43.80175,78.54619 L 580.01392,701.88107 c -2.64495,24.28619 36.41702,14.43706 52.41363,15.14502 L 847.7243,697.27842 c 4.85804,9.57877 10.11107,18.60021 15.59045,26.57777 7.32054,4.08571 24.05142,3.31836 30.58699,-1.63305 6.79152,-14.0023 8.02597,-33.51763 6.8301,-49.29553 -11.52442,-18.41477 -23.72643,-43.72573 -42.46543,-55.97739 -13.58684,1.29755 -23.72775,13.52565 -28.80522,25.53865 1.03799,8.66945 3.30392,17.73784 6.38466,26.87521 -4.14001,-0.70178 -8.43953,-0.76117 -12.62084,0 l -161.84376,-1.48481 c 43.20987,-92.48982 87.96389,-184.3373 130.21741,-277.21336 4.19029,-13.5533 9.55174,-38.40205 -9.50275,-41.72303 l -12.02692,-5.19681 c -5.5384,1.07789 -12.73807,-0.62714 -18.70855,-0.29697 z m -11.58148,366.44992 c -1.91794,0.0855 -4.00318,0.26133 -6.23618,0.44663 -11.50066,6.03663 -33.74105,4.30285 -36.52621,18.26334 -3.38996,61.51275 2.82707,123.68294 5.93922,185.30355 l -18.56006,18.70854 c -9.00838,-5.32487 -18.82253,-9.86766 -23.60841,-19.74814 -0.49105,21.76463 12.78686,36.34945 27.91434,50.03817 11.14079,13.55615 25.1479,24.11276 38.01101,35.93228 20.37376,6.69851 49.42439,11.86531 52.71059,-5.19705 7.87022,-40.86308 -1.35139,-94.8389 -4.30594,-142.24434 L 769.1781,725.63938 c -9.56742,-13.76759 -15.97356,-16.32478 -29.39914,-15.73893 l 0,-0.001 z m -448.26268,13.95717 -20.34183,1.78177 c -11.06026,5.77102 -25.91943,3.56686 -34.59596,13.6602 -8.87505,62.02481 0.81153,127.2384 4.00897,189.90668 -6.22202,6.22193 -5.69885,17.57724 -18.70855,18.70855 -9.29212,-1.59932 -18.47164,-16.51911 -23.90536,-16.18462 6.74078,32.57116 37.89185,58.93608 63.2527,78.99163 15.41903,9.469 31.53655,8.7905 47.21681,1.9305 23.22753,-20.83147 5.20423,-128.22398 3.41505,-163.03162 l -5.04834,-108.68759 -15.29349,-17.0755 z m 62.36181,65.48015 c -2.95716,0.20431 -5.71386,0.86332 -8.01794,2.07872 -8.16064,4.30318 -16.49769,18.12589 -13.21477,26.42939 21.66466,29.73459 44.31001,74.6389 77.95227,93.54273 12.8644,4.89724 33.42788,6.31743 44.39568,1.18784 10.59191,-14.14057 14.65662,-38.67288 10.83907,-56.42259 -4.0456,-11.48741 -12.45734,-24.242 -22.866,-31.18091 -21.98875,-14.65942 -49.06423,-24.80266 -74.38873,-33.55646 -4.42059,-1.52851 -9.77093,-2.42225 -14.69958,-2.07872 z m 269.7891,1.33608 c -2.69103,0.19481 -6.71621,5.71577 -8.90883,8.31477 -24.25896,28.75438 -48.53383,57.55723 -71.71609,87.1583 -5.53516,7.06767 -12.07975,14.51783 -14.40261,22.71728 -5.48076,16.99568 10.28436,29.99687 25.09321,36.08101 12.29875,2.65887 29.744,3.31741 39.94126,-3.8605 13.50883,-9.50988 23.82744,-27.99368 28.50826,-44.54415 1.99677,-32.91326 10.25228,-70.99079 3.56353,-103.93622 -0.48236,-1.40023 -1.18171,-1.99558 -2.07873,-1.93049 z m 207.42729,1.78177 c -4.22084,0 -8.43503,0.46564 -12.62085,1.48481 -8.16063,4.30365 -16.49768,18.12635 -13.21476,26.42938 9.55744,24.17263 33.70769,46.79726 52.71058,68.30104 7.90772,8.94875 14.85642,21.28807 25.24169,25.24169 12.8644,4.89724 33.42788,6.31791 44.39567,1.18785 10.59192,-14.14058 14.65662,-38.52417 10.83908,-56.27388 -4.0456,-11.48741 -12.30887,-24.39072 -22.71752,-31.32963 -25.01481,-11.93071 -55.08803,-34.93483 -84.63389,-35.04126 z m -669.64714,20.04497 c -34.95264,23.71317 -76.562206,78.12308 -97.106255,116.40872 -5.480761,16.99567 10.284354,29.84815 25.093207,35.93229 12.298748,2.65887 29.595518,3.31741 39.792778,-3.8605 13.50883,-9.50988 23.97592,-27.84544 28.65674,-44.39591 1.99677,-32.91326 10.25228,-71.13903 3.56353,-104.0846 z"
       id="path2830"
       sodipodi:nodetypes="ccccsccsscccccccccccccccccccccccccccccccccccccccccccccccccccsccsssssscccccccccccccccccccccccccccccsccccccccccccccccsccccscccssccscccccssscccccccscc" />
  </g>
</svg>
