<?xml version="1.0" encoding="UTF-8" standalone="no"?>
<!-- Created with Inkscape (http://www.inkscape.org/) -->

<svg
   xmlns:dc="http://purl.org/dc/elements/1.1/"
   xmlns:cc="http://creativecommons.org/ns#"
   xmlns:rdf="http://www.w3.org/1999/02/22-rdf-syntax-ns#"
   xmlns:svg="http://www.w3.org/2000/svg"
   xmlns="http://www.w3.org/2000/svg"
   xmlns:sodipodi="http://sodipodi.sourceforge.net/DTD/sodipodi-0.dtd"
   xmlns:inkscape="http://www.inkscape.org/namespaces/inkscape"
   width="1000"
   height="1000"
   id="svg3173"
   version="1.1"
   inkscape:version="0.47 r22583"
   sodipodi:docname="7f36.svg"
   inkscape:export-filename="E:\chinese\yan\7f36.png"
   inkscape:export-xdpi="18.005705"
   inkscape:export-ydpi="18.005705">
  <title
     id="title3613">Fou</title>
  <defs
     id="defs3175">
    <inkscape:perspective
       sodipodi:type="inkscape:persp3d"
       inkscape:vp_x="0 : 526.18109 : 1"
       inkscape:vp_y="0 : 1000 : 0"
       inkscape:vp_z="744.09448 : 526.18109 : 1"
       inkscape:persp3d-origin="372.04724 : 350.78739 : 1"
       id="perspective3181" />
    <inkscape:perspective
       id="perspective3191"
       inkscape:persp3d-origin="0.5 : 0.33333333 : 1"
       inkscape:vp_z="1 : 0.5 : 1"
       inkscape:vp_y="0 : 1000 : 0"
       inkscape:vp_x="0 : 0.5 : 1"
       sodipodi:type="inkscape:persp3d" />
    <inkscape:perspective
       id="perspective4006"
       inkscape:persp3d-origin="0.5 : 0.33333333 : 1"
       inkscape:vp_z="1 : 0.5 : 1"
       inkscape:vp_y="0 : 1000 : 0"
       inkscape:vp_x="0 : 0.5 : 1"
       sodipodi:type="inkscape:persp3d" />
    <inkscape:perspective
       id="perspective4034"
       inkscape:persp3d-origin="0.5 : 0.33333333 : 1"
       inkscape:vp_z="1 : 0.5 : 1"
       inkscape:vp_y="0 : 1000 : 0"
       inkscape:vp_x="0 : 0.5 : 1"
       sodipodi:type="inkscape:persp3d" />
    <inkscape:perspective
       id="perspective4081"
       inkscape:persp3d-origin="0.5 : 0.33333333 : 1"
       inkscape:vp_z="1 : 0.5 : 1"
       inkscape:vp_y="0 : 1000 : 0"
       inkscape:vp_x="0 : 0.5 : 1"
       sodipodi:type="inkscape:persp3d" />
    <inkscape:perspective
       id="perspective4147"
       inkscape:persp3d-origin="0.5 : 0.33333333 : 1"
       inkscape:vp_z="1 : 0.5 : 1"
       inkscape:vp_y="0 : 1000 : 0"
       inkscape:vp_x="0 : 0.5 : 1"
       sodipodi:type="inkscape:persp3d" />
    <inkscape:perspective
       id="perspective3750"
       inkscape:persp3d-origin="0.5 : 0.33333333 : 1"
       inkscape:vp_z="1 : 0.5 : 1"
       inkscape:vp_y="0 : 1000 : 0"
       inkscape:vp_x="0 : 0.5 : 1"
       sodipodi:type="inkscape:persp3d" />
    <inkscape:perspective
       id="perspective3756"
       inkscape:persp3d-origin="0.5 : 0.33333333 : 1"
       inkscape:vp_z="1 : 0.5 : 1"
       inkscape:vp_y="0 : 1000 : 0"
       inkscape:vp_x="0 : 0.5 : 1"
       sodipodi:type="inkscape:persp3d" />
    <inkscape:perspective
       id="perspective3730"
       inkscape:persp3d-origin="0.5 : 0.33333333 : 1"
       inkscape:vp_z="1 : 0.5 : 1"
       inkscape:vp_y="0 : 1000 : 0"
       inkscape:vp_x="0 : 0.5 : 1"
       sodipodi:type="inkscape:persp3d" />
    <inkscape:perspective
       id="perspective3014"
       inkscape:persp3d-origin="0.5 : 0.33333333 : 1"
       inkscape:vp_z="1 : 0.5 : 1"
       inkscape:vp_y="0 : 1000 : 0"
       inkscape:vp_x="0 : 0.5 : 1"
       sodipodi:type="inkscape:persp3d" />
  </defs>
  <sodipodi:namedview
     id="base"
     pagecolor="#ffffff"
     bordercolor="#666666"
     borderopacity="1.0"
     inkscape:pageopacity="0.0"
     inkscape:pageshadow="2"
     inkscape:zoom="0.49497475"
     inkscape:cx="337.80612"
     inkscape:cy="545.16461"
     inkscape:document-units="px"
     inkscape:current-layer="layer1"
     showgrid="false"
     inkscape:window-width="1440"
     inkscape:window-height="840"
     inkscape:window-x="-4"
     inkscape:window-y="-4"
     inkscape:window-maximized="1" />
  <metadata
     id="metadata3178">
    <rdf:RDF>
      <cc:Work
         rdf:about="">
        <dc:format>image/svg+xml</dc:format>
        <dc:type
           rdf:resource="http://purl.org/dc/dcmitype/StillImage" />
        <dc:title>Fou</dc:title>
        <dc:date>2010-08-07</dc:date>
        <dc:creator>
          <cc:Agent>
            <dc:title>Alex Amies</dc:title>
          </cc:Agent>
        </dc:creator>
        <dc:rights>
          <cc:Agent>
            <dc:title>@ Alex Amies 2010</dc:title>
          </cc:Agent>
        </dc:rights>
        <dc:publisher>
          <cc:Agent>
            <dc:title>chinesenotes.com</dc:title>
          </cc:Agent>
        </dc:publisher>
        <dc:source>Yan Qin Ceremonial Inscription</dc:source>
        <dc:language>Chinese 中文</dc:language>
        <dc:description>Tracing from Tang Dynasty Ceremonial Inscription by Yan Zhenqing 颜真卿 (709－785)</dc:description>
        <cc:license
           rdf:resource="http://creativecommons.org/licenses/by/3.0/" />
      </cc:Work>
      <cc:License
         rdf:about="http://creativecommons.org/licenses/by/3.0/">
        <cc:permits
           rdf:resource="http://creativecommons.org/ns#Reproduction" />
        <cc:permits
           rdf:resource="http://creativecommons.org/ns#Distribution" />
        <cc:requires
           rdf:resource="http://creativecommons.org/ns#Notice" />
        <cc:requires
           rdf:resource="http://creativecommons.org/ns#Attribution" />
        <cc:permits
           rdf:resource="http://creativecommons.org/ns#DerivativeWorks" />
      </cc:License>
    </rdf:RDF>
  </metadata>
  <g
     inkscape:label="Layer 1"
     inkscape:groupmode="layer"
     id="layer1"
     transform="translate(0,-52.362183)">
    <path
       style="fill:#000000;stroke:#000000;stroke-width:5.93174839000000010px;stroke-linecap:butt;stroke-linejoin:miter;stroke-opacity:1;fill-opacity:1"
       d="m 443.83088,168.82933 c -30.56045,6.92942 -39.94975,33.69055 -65.91699,68.62957 -72.19548,95.37484 -82.55462,141.28629 -149.63001,237.18029 -5.96091,8.52196 -3.24755,36.22193 4.31695,31.30489 68.47266,-62.13736 76.11089,-64.20347 144.93767,-124.77558 43.55348,-43.25558 57.09947,-77.30796 84.12327,-65.70046 -1.64124,42.46587 -1.36827,84.93045 -0.56278,127.41641 l -217.91224,82.19823 c -9.75616,16.36771 -3.93376,32.04397 4.31695,47.04887 40.91864,21.87274 130.85667,-40.94408 174.17964,-58.21612 13.59526,-2.3598 27.14783,-4.83397 40.72951,-7.32278 0.60735,27.71784 1.12946,55.40077 1.12617,83.11358 0.72704,58.06146 5.77975,115.97571 9.19698,173.91607 2.40109,1.83914 4.7984,3.84358 7.13235,5.85823 -36.58457,8.65512 -73.18469,17.63413 -109.42535,27.27737 -9.86776,4.92981 -19.79678,9.62494 -29.84329,14.27941 2.04115,-9.85394 4.21516,-19.7554 3.1908,-29.84033 -1.31866,-46.30166 7.91472,-92.64813 -4.12925,-138.94978 -17.93192,-42.67408 -48.41282,-47.86698 -90.09292,-54.37167 -3.73718,11.79167 -0.11897,23.42137 3.37848,34.78322 8.25299,30.45398 23.04907,60.82654 24.58786,91.35171 0.33935,23.34262 -0.64266,46.8624 0.56278,70.11564 l 14.4524,44.30282 6.19389,2.56298 c -5.42106,2.785 -10.67426,5.59935 -15.95395,8.60427 -16.21595,8.52899 -23.2131,24.0462 -30.96944,39.17689 9.92308,23.88427 38.6501,18.40448 58.56039,9.88546 107.51755,-29.66776 216.7765,-64.82701 327.90061,-80.91646 2.67325,22.25821 19.63461,38.08778 44.67107,31.3049 11.38384,-5.86602 23.33192,-21.69998 25.52634,-37.52925 4.50818,-32.51955 15.32624,-64.52058 17.4555,-97.20994 2.74603,-42.15832 -9.43051,-83.3192 2.06462,-126.8672 2.06368,-7.81798 13.43147,-13.68376 12.95086,-20.86993 -0.72994,-10.91451 -9.29675,-23.73173 -21.02168,-30.38955 -17.76806,-17.32968 -41.50737,-23.8889 -64.94197,-11.53338 -9.20732,7.27416 -16.78377,22.4653 -17.08011,35.33243 -1.55015,67.31452 -2.59006,135.13128 -1.31386,202.47492 -14.70809,-7.40937 -31.3479,-11.3035 -46.73571,-8.97041 -14.19887,3.49561 -28.36887,6.86602 -42.60644,10.2519 -6.59711,-37.82089 -9.86046,-76.06736 -6.94463,-114.41847 0.33995,-49.17324 3.18526,-98.55328 2.44001,-147.73712 36.25277,-6.70299 72.66507,-13.20216 109.04994,-18.6731 29.11942,0.68582 62.21421,10.70262 86.90213,-4.2106 11.15927,-6.74095 25.06229,-21.98323 19.33243,-33.50173 -21.24385,-42.70593 -40.2105,-53.57524 -78.08052,-62.42672 -17.64914,-4.36256 -34.58421,-1.39397 -50.48958,6.40744 l -91.40672,34.60015 c -1.69045,-20.57368 -4.30261,-41.28661 -4.69234,-61.69445 2.73936,-9.74434 8.76116,-19.59161 9.57236,-29.29112 l -5.6308,-13.54715 c 22.6826,-6.14317 45.30553,-13.60925 66.63118,-16.47626 35.43331,-3.16855 72.22707,0.92953 106.98534,-4.02753 29.22086,-3.65665 59.03633,-26.89423 53.49267,-58.58226 -28.22768,-22.51088 -82.33484,-18.71943 -116.37002,-12.26566 -48.29683,13.79788 -98.80621,30.58346 -145.08707,50.16105 14.95306,-14.16101 38.49312,-34.62319 25.5263,-56.75155 -18.33332,-17.8817 -50.96073,-34.10571 -77.14203,-41.92293 -2.21371,-0.66098 -4.83865,-0.78805 -7.50775,-0.54892 l 0,-2.9e-4 z"
       id="path4028"
       sodipodi:nodetypes="ccsccccccccccccccccccccccccccssssccsccccccssccccccccccccscc" />
  </g>
</svg>
