<?xml version="1.0" encoding="UTF-8" standalone="no"?>
<!-- Created with Inkscape (http://www.inkscape.org/) -->

<svg
   xmlns:dc="http://purl.org/dc/elements/1.1/"
   xmlns:cc="http://creativecommons.org/ns#"
   xmlns:rdf="http://www.w3.org/1999/02/22-rdf-syntax-ns#"
   xmlns:svg="http://www.w3.org/2000/svg"
   xmlns="http://www.w3.org/2000/svg"
   xmlns:sodipodi="http://sodipodi.sourceforge.net/DTD/sodipodi-0.dtd"
   xmlns:inkscape="http://www.inkscape.org/namespaces/inkscape"
   width="1000"
   height="1000"
   id="svg3173"
   version="1.1"
   inkscape:version="0.47 r22583"
   sodipodi:docname="7fa9.svg"
   inkscape:export-filename="E:\chinese\yan\7fa9.png"
   inkscape:export-xdpi="17.908815"
   inkscape:export-ydpi="17.908815">
  <title
     id="title4784">Yi</title>
  <defs
     id="defs3175">
    <inkscape:perspective
       sodipodi:type="inkscape:persp3d"
       inkscape:vp_x="0 : 526.18109 : 1"
       inkscape:vp_y="0 : 1000 : 0"
       inkscape:vp_z="744.09448 : 526.18109 : 1"
       inkscape:persp3d-origin="372.04724 : 350.78739 : 1"
       id="perspective3181" />
    <inkscape:perspective
       id="perspective3191"
       inkscape:persp3d-origin="0.5 : 0.33333333 : 1"
       inkscape:vp_z="1 : 0.5 : 1"
       inkscape:vp_y="0 : 1000 : 0"
       inkscape:vp_x="0 : 0.5 : 1"
       sodipodi:type="inkscape:persp3d" />
    <inkscape:perspective
       id="perspective4006"
       inkscape:persp3d-origin="0.5 : 0.33333333 : 1"
       inkscape:vp_z="1 : 0.5 : 1"
       inkscape:vp_y="0 : 1000 : 0"
       inkscape:vp_x="0 : 0.5 : 1"
       sodipodi:type="inkscape:persp3d" />
    <inkscape:perspective
       id="perspective4034"
       inkscape:persp3d-origin="0.5 : 0.33333333 : 1"
       inkscape:vp_z="1 : 0.5 : 1"
       inkscape:vp_y="0 : 1000 : 0"
       inkscape:vp_x="0 : 0.5 : 1"
       sodipodi:type="inkscape:persp3d" />
    <inkscape:perspective
       id="perspective4081"
       inkscape:persp3d-origin="0.5 : 0.33333333 : 1"
       inkscape:vp_z="1 : 0.5 : 1"
       inkscape:vp_y="0 : 1000 : 0"
       inkscape:vp_x="0 : 0.5 : 1"
       sodipodi:type="inkscape:persp3d" />
    <inkscape:perspective
       id="perspective4147"
       inkscape:persp3d-origin="0.5 : 0.33333333 : 1"
       inkscape:vp_z="1 : 0.5 : 1"
       inkscape:vp_y="0 : 1000 : 0"
       inkscape:vp_x="0 : 0.5 : 1"
       sodipodi:type="inkscape:persp3d" />
    <inkscape:perspective
       id="perspective3777"
       inkscape:persp3d-origin="0.5 : 0.33333333 : 1"
       inkscape:vp_z="1 : 0.5 : 1"
       inkscape:vp_y="0 : 1000 : 0"
       inkscape:vp_x="0 : 0.5 : 1"
       sodipodi:type="inkscape:persp3d" />
    <inkscape:perspective
       id="perspective3826"
       inkscape:persp3d-origin="0.5 : 0.33333333 : 1"
       inkscape:vp_z="1 : 0.5 : 1"
       inkscape:vp_y="0 : 1000 : 0"
       inkscape:vp_x="0 : 0.5 : 1"
       sodipodi:type="inkscape:persp3d" />
    <inkscape:perspective
       id="perspective3851"
       inkscape:persp3d-origin="0.5 : 0.33333333 : 1"
       inkscape:vp_z="1 : 0.5 : 1"
       inkscape:vp_y="0 : 1000 : 0"
       inkscape:vp_x="0 : 0.5 : 1"
       sodipodi:type="inkscape:persp3d" />
    <inkscape:perspective
       id="perspective3829"
       inkscape:persp3d-origin="0.5 : 0.33333333 : 1"
       inkscape:vp_z="1 : 0.5 : 1"
       inkscape:vp_y="0 : 1000 : 0"
       inkscape:vp_x="0 : 0.5 : 1"
       sodipodi:type="inkscape:persp3d" />
    <inkscape:perspective
       id="perspective6109"
       inkscape:persp3d-origin="0.5 : 0.33333333 : 1"
       inkscape:vp_z="1 : 0.5 : 1"
       inkscape:vp_y="0 : 1000 : 0"
       inkscape:vp_x="0 : 0.5 : 1"
       sodipodi:type="inkscape:persp3d" />
  </defs>
  <sodipodi:namedview
     id="base"
     pagecolor="#ffffff"
     bordercolor="#666666"
     borderopacity="1.0"
     inkscape:pageopacity="0.0"
     inkscape:pageshadow="2"
     inkscape:zoom="0.49497475"
     inkscape:cx="534.74768"
     inkscape:cy="485.1646"
     inkscape:document-units="px"
     inkscape:current-layer="g3809"
     showgrid="false"
     inkscape:window-width="1440"
     inkscape:window-height="840"
     inkscape:window-x="-4"
     inkscape:window-y="-4"
     inkscape:window-maximized="1" />
  <metadata
     id="metadata3178">
    <rdf:RDF>
      <cc:Work
         rdf:about="">
        <dc:format>image/svg+xml</dc:format>
        <dc:type
           rdf:resource="http://purl.org/dc/dcmitype/StillImage" />
        <dc:title>Yi</dc:title>
        <dc:date>2010-08-09</dc:date>
        <dc:creator>
          <cc:Agent>
            <dc:title>Alex Amies</dc:title>
          </cc:Agent>
        </dc:creator>
        <dc:rights>
          <cc:Agent>
            <dc:title>@ Alex Amies 2010</dc:title>
          </cc:Agent>
        </dc:rights>
        <dc:publisher>
          <cc:Agent>
            <dc:title>chinesenotes.com</dc:title>
          </cc:Agent>
        </dc:publisher>
        <dc:source>Yan Qin Ceremonial Inscription</dc:source>
        <dc:language>Chinese 中文</dc:language>
        <dc:description>Tracing from Tang Dynasty Ceremonial Inscription by Yan Zhenqing 颜真卿 (709－785)</dc:description>
        <cc:license
           rdf:resource="http://creativecommons.org/licenses/by/3.0/" />
      </cc:Work>
      <cc:License
         rdf:about="http://creativecommons.org/licenses/by/3.0/">
        <cc:permits
           rdf:resource="http://creativecommons.org/ns#Reproduction" />
        <cc:permits
           rdf:resource="http://creativecommons.org/ns#Distribution" />
        <cc:requires
           rdf:resource="http://creativecommons.org/ns#Notice" />
        <cc:requires
           rdf:resource="http://creativecommons.org/ns#Attribution" />
        <cc:permits
           rdf:resource="http://creativecommons.org/ns#DerivativeWorks" />
      </cc:License>
    </rdf:RDF>
  </metadata>
  <g
     inkscape:label="Layer 1"
     inkscape:groupmode="layer"
     id="layer1"
     transform="translate(0,-52.362183)">
    <g
       transform="matrix(4.7513766,0,0,4.7513766,-1572.319,-3933.7772)"
       id="g3809"
       style="fill:#000000;fill-opacity:1">
      <path
         style="fill:#000000;stroke:#000000;stroke-width:4.54354810999999970px;stroke-linecap:butt;stroke-linejoin:miter;stroke-opacity:1;fill-opacity:1"
         d="M 533.84375 6.125 C 530.88798 6.1943637 527.91285 6.6414069 524.96875 7.4375 C 500.8434 29.2266 499.1502 61.91645 489.0625 90.5625 C 479.26825 111.06412 462.64871 130.46256 456.8125 151.84375 C 462.498 154.96612 478.24664 157.67662 486.03125 153.46875 C 498.25992 146.85863 503.99331 126.96607 516.875 119.40625 C 540.53315 105.52225 574.39729 102.80767 594.75 86.9375 C 601.50299 81.671834 601.94396 67.665549 599.625 59.34375 C 591.33551 38.180026 573.52854 20.224808 552.71875 11.1875 C 546.79159 7.6141649 540.34645 5.9723999 533.84375 6.125 z M 323.96875 40.25 C 314.15355 40.522111 304.83473 42.849276 297.8125 49.625 C 295.92335 54.806376 299.03261 64.425046 303.09375 70.46875 C 321.92403 98.491466 339.55201 128.15161 361.09375 153.46875 C 366.65942 160.00978 376.62514 166.75621 383.8125 166.46875 C 411.72109 156.22801 408.02248 118.82195 401.65625 95.0625 C 387.34396 77.503835 371.83803 55.968969 352.96875 43.125 C 344.08011 41.751591 333.78395 39.977889 323.96875 40.25 z M 622.40625 116.40625 C 610.81403 116.72754 599.35816 124.61206 588.46875 127.90625 C 545.93166 140.77426 503.91643 155.97582 461.34375 169.28125 C 456.47102 166.17596 451.21142 164.1338 447.09375 164.84375 C 440.88979 165.91338 433.66881 172.21873 428.625 179.03125 C 424.5216 180.18285 420.43249 181.31327 416.3125 182.40625 C 376.16361 198.16115 327.64506 201.57082 289.6875 221.625 C 286.8735 225.73836 288.13155 236.95718 291.9375 241.5625 C 297.41588 248.19148 305.67206 257.56983 314.03125 257.3125 C 336.24873 256.62868 358.89638 240.63237 380.21875 229.625 C 393.81887 224.47451 407.47052 219.07099 421.1875 213.6875 C 419.93691 233.65447 420.67626 254.13896 422.25 274.59375 C 392.68032 283.58013 363.49898 293.37855 336.75 309.25 C 329.16362 313.90654 318.26861 324.44387 320.5 330.34375 C 325.57528 343.76254 345.28823 344.48282 357.65625 337.8125 C 379.50667 326.22628 402.15178 315.98759 425.25 306.84375 C 426.56302 319.41519 427.93498 331.8736 429.125 344.0625 C 430.23223 352.52196 432.92272 362.95995 439.0625 369.46875 C 374.83302 388.05684 309.97634 406.58773 255.59375 434.1875 C 244.72132 439.70537 259.96382 466.41852 275.25 467.125 C 293.22051 467.95549 309.07125 454.28263 326.15625 448.5625 C 366.27331 435.13112 404.09793 414.41229 444.75 402.78125 C 469.38907 395.73172 494.36123 389.14667 519.625 384.03125 C 502.89042 400.1467 514.52264 428.75024 519.78125 450.125 C 527.8928 482.96606 536.52471 515.69954 545.78125 548.25 C 509.63207 560.8467 473.31037 572.95384 436.90625 584.78125 C 436.57163 582.41989 436.25858 580.04222 435.90625 577.6875 C 433.89371 564.23688 421.42828 552.12298 410.5625 544.25 C 393.74092 533.87261 371.83932 534.32621 352.96875 538.0625 C 343.10133 549.03509 356.21657 565.88118 361.8125 578.75 C 363.80905 588.16725 365.43119 597.68964 366.75 607.28125 C 306.60843 626.33518 246.34102 645.01255 186.28125 664.28125 C 176.93719 667.64513 167.59406 671.01112 158.25 674.375 C 155.63361 692.53239 176.50399 711.00663 193.9375 703.96875 C 227.46165 699.34195 255.60615 679.17259 286.21875 666.28125 C 313.65601 653.62816 341.12654 640.65581 369.28125 629.5625 C 371.59839 654.72728 372.21687 680.21111 372.375 705.53125 C 351.96375 721.42023 331.68838 737.55278 310.21875 751.875 C 275.13107 775.28156 239.92906 799.00033 203.25 819.59375 C 193.75418 824.92479 178.96091 824.77783 172.84375 831.75 C 168.28628 836.94468 168.62645 848.77045 171.21875 856.09375 C 175.91316 869.35627 192.81203 882.39314 208.21875 878.8125 C 219.1978 876.26054 228.97469 868.26649 237.3125 860.53125 C 281.45708 819.57699 327.45639 780.01598 372.4375 739.90625 C 372.43686 740.94557 372.43776 741.99339 372.4375 743.03125 C 372.03458 786.66376 384.26211 837.23502 372.4375 873.9375 C 367.11244 890.46611 333.96743 881.24151 316 878.375 C 306.65266 876.88402 328.60232 896.78911 335.09375 901.0625 C 358.00612 913.17043 372.70454 951.01746 401.65625 950.21875 C 412.01221 947.71572 419.59127 933.1965 424.6875 921.21875 C 431.40633 905.42707 438.78795 890.17194 439.9375 872.59375 C 441.96059 841.65896 450.69359 810.90175 450.03125 779.9375 C 449.26801 744.25893 448.09254 708.24438 445.71875 672.4375 C 446.17454 671.99865 446.63856 671.56423 447.09375 671.125 C 451.85662 666.52909 455.77807 654.59531 451.96875 651.65625 C 449.93024 650.08347 447.24708 650.31784 444.25 651.65625 C 443.0688 637.01844 441.61283 622.45106 439.90625 607.96875 C 478.18365 598.44082 516.13141 587.57374 554.0625 576.75 C 565.99642 616.98919 578.88845 656.92908 592.9375 696.46875 C 602.0951 723.61454 613.59528 749.69133 626.9375 774.78125 C 605.44024 815.16925 578.94671 853.37708 548.125 896.1875 C 543.82196 903.43477 539.96533 912.30875 537.96875 919.375 C 532.11415 940.09433 566.70266 926.63566 573.96875 915.8125 C 598.71413 882.31044 625.52878 849.3881 650.59375 815.34375 C 672.10021 849.21816 696.77919 881.18671 723.34375 911.4375 C 762.04262 960.42989 807.51052 1004.3919 874.21875 992.1875 C 902.2331 982.89381 874.20781 958.7812 864.53125 945.59375 C 850.1456 924.04626 853.66102 895.7853 853.5 870.9375 C 856.5167 857.67071 855.59218 830.16581 837.21875 837.21875 C 830.41164 860.02156 815.14851 880.24952 812.8125 904.34375 C 755.22122 875.09907 716.47336 821.30457 686.125 763.625 C 704.16334 734.92135 719.82023 704.94233 731.0625 672.75 C 729.51341 651.28646 714.46186 624.02253 695.34375 612.6875 C 690.69857 610.76115 681.11407 611.34301 679.125 615.9375 C 670.20933 636.53153 672.42942 665.62581 663.25 688.4375 C 661.53429 693.94059 659.71268 699.36265 657.84375 704.6875 C 653.03876 693.91256 648.40677 683.24132 643.875 672.8125 C 629.34535 636.95996 618.30815 600.15685 608.96875 562.90625 C 628.33002 563.9858 644.04094 581.67459 665.09375 578 C 677.0035 581.69847 686.33868 574.76255 696.125 569.34375 C 703.59331 563.78473 716.11443 562.64195 717.65625 551.875 C 731.08027 525.71273 704.16298 506.27142 681.375 501.40625 C 659.07299 496.69003 632.98188 498.98977 616.78125 516.875 C 611.99749 521.70349 606.55538 525.37831 600.75 528.375 C 593.51117 496.2215 587.13935 463.82889 580.5625 431.53125 C 574.19043 407.68235 558.42088 391.22305 537.21875 380.75 C 556.14424 377.48084 575.1887 375.13507 594.375 374.15625 C 609.61471 373.37878 627.42036 378.50595 640.1875 374.15625 C 646.4721 372.01514 650.85879 361.84497 651.53125 354.6875 C 652.95652 339.51697 640.40077 328.847 626.5 321.9375 C 613.37561 315.41386 596.04329 311.77097 582.46875 319 C 560.35798 330.77505 536.83151 339.57908 512.9375 347.28125 C 508.46132 348.72413 503.96094 350.12237 499.4375 351.53125 C 504.22934 327.57225 506.37425 303.37971 504.96875 279.65625 C 510.21961 278.10882 515.45956 276.5658 520.71875 275.09375 C 544.52557 269.25749 570.14742 270.38081 593.59375 262.3125 C 605.85453 258.09328 605.49091 243.57775 599.3125 234.90625 C 584.46986 214.15209 554.24889 205.60777 531.46875 218.375 C 527.76515 221.45836 529.69575 235.62533 524.96875 237.84375 C 517.12991 241.87107 509.1215 245.4835 501 248.78125 C 497.00609 228.95615 490.13058 209.70962 479.875 191.5 C 509.56359 180.98629 539.65379 171.90267 570.34375 166.46875 C 596.49395 163.20242 629.33092 176.00253 649.9375 166.46875 C 663.72975 160.08765 651.336 130.00027 636.03125 120.21875 C 631.48187 117.31117 626.94234 116.28053 622.40625 116.40625 z M 651.25 386.90625 C 646.96775 386.85026 643.12621 387.38533 640.1875 388.75 C 634.9072 391.20204 634.94682 404.59489 636.9375 411.46875 C 639.64426 420.81523 646.12623 430.71597 653.84375 437.75 C 665.35524 448.24189 679.94712 455.87989 688.4375 469.5 C 693.05997 476.91524 696.75458 486.60165 703.46875 491 C 709.34197 494.84743 719.29986 495.74735 726.1875 494.25 C 731.74053 493.04287 738.44828 488.00748 740.78125 482.875 C 743.85729 476.10771 744.36876 466.18505 742.40625 458.53125 C 738.95979 445.09003 733.95322 429.47866 724.5625 419.59375 C 713.39905 407.84274 696.22623 400.08554 680.75 393.625 C 672.19393 390.05333 660.67094 387.02942 651.25 386.90625 z M 474.5625 430.78125 C 452.80493 431.15243 426.50755 439.97854 403.28125 443.9375 C 393.76914 445.55881 384.23439 449.89075 376.90625 457 C 333.90045 498.72098 287.09619 537.92288 245.875 580.25 C 242.87702 583.32842 241.1751 591.90689 244.25 593.21875 C 252.9425 596.92734 266.55203 588.89431 276.21875 581.4375 C 335.34103 530.43242 403.65338 497.47737 473.9375 465.84375 C 480.55374 462.17279 489.67189 456.40129 490.90625 450.4375 C 492.07889 444.77196 487.4675 431.43134 481.15625 430.96875 C 479.0113 430.81153 476.81328 430.74285 474.5625 430.78125 z "
         transform="matrix(0.21046532,0,0,0.21046532,330.91862,838.9441)"
         id="path4570" />
    </g>
  </g>
</svg>
