<?xml version="1.0" encoding="UTF-8" standalone="no"?>
<!-- Created with Inkscape (http://www.inkscape.org/) -->

<svg
   xmlns:dc="http://purl.org/dc/elements/1.1/"
   xmlns:cc="http://creativecommons.org/ns#"
   xmlns:rdf="http://www.w3.org/1999/02/22-rdf-syntax-ns#"
   xmlns:svg="http://www.w3.org/2000/svg"
   xmlns="http://www.w3.org/2000/svg"
   xmlns:sodipodi="http://sodipodi.sourceforge.net/DTD/sodipodi-0.dtd"
   xmlns:inkscape="http://www.inkscape.org/namespaces/inkscape"
   width="1000"
   height="1000"
   id="svg3173"
   version="1.1"
   inkscape:version="0.47 r22583"
   sodipodi:docname="7fbd.svg"
   inkscape:export-filename="E:\chinese\yan\7fbd.png"
   inkscape:export-xdpi="18.005705"
   inkscape:export-ydpi="18.005705">
  <title
     id="title3615">Yu</title>
  <defs
     id="defs3175">
    <inkscape:perspective
       sodipodi:type="inkscape:persp3d"
       inkscape:vp_x="0 : 526.18109 : 1"
       inkscape:vp_y="0 : 1000 : 0"
       inkscape:vp_z="744.09448 : 526.18109 : 1"
       inkscape:persp3d-origin="372.04724 : 350.78739 : 1"
       id="perspective3181" />
    <inkscape:perspective
       id="perspective3191"
       inkscape:persp3d-origin="0.5 : 0.33333333 : 1"
       inkscape:vp_z="1 : 0.5 : 1"
       inkscape:vp_y="0 : 1000 : 0"
       inkscape:vp_x="0 : 0.5 : 1"
       sodipodi:type="inkscape:persp3d" />
    <inkscape:perspective
       id="perspective4006"
       inkscape:persp3d-origin="0.5 : 0.33333333 : 1"
       inkscape:vp_z="1 : 0.5 : 1"
       inkscape:vp_y="0 : 1000 : 0"
       inkscape:vp_x="0 : 0.5 : 1"
       sodipodi:type="inkscape:persp3d" />
    <inkscape:perspective
       id="perspective4034"
       inkscape:persp3d-origin="0.5 : 0.33333333 : 1"
       inkscape:vp_z="1 : 0.5 : 1"
       inkscape:vp_y="0 : 1000 : 0"
       inkscape:vp_x="0 : 0.5 : 1"
       sodipodi:type="inkscape:persp3d" />
    <inkscape:perspective
       id="perspective4081"
       inkscape:persp3d-origin="0.5 : 0.33333333 : 1"
       inkscape:vp_z="1 : 0.5 : 1"
       inkscape:vp_y="0 : 1000 : 0"
       inkscape:vp_x="0 : 0.5 : 1"
       sodipodi:type="inkscape:persp3d" />
    <inkscape:perspective
       id="perspective4147"
       inkscape:persp3d-origin="0.5 : 0.33333333 : 1"
       inkscape:vp_z="1 : 0.5 : 1"
       inkscape:vp_y="0 : 1000 : 0"
       inkscape:vp_x="0 : 0.5 : 1"
       sodipodi:type="inkscape:persp3d" />
    <inkscape:perspective
       id="perspective3750"
       inkscape:persp3d-origin="0.5 : 0.33333333 : 1"
       inkscape:vp_z="1 : 0.5 : 1"
       inkscape:vp_y="0 : 1000 : 0"
       inkscape:vp_x="0 : 0.5 : 1"
       sodipodi:type="inkscape:persp3d" />
    <inkscape:perspective
       id="perspective3756"
       inkscape:persp3d-origin="0.5 : 0.33333333 : 1"
       inkscape:vp_z="1 : 0.5 : 1"
       inkscape:vp_y="0 : 1000 : 0"
       inkscape:vp_x="0 : 0.5 : 1"
       sodipodi:type="inkscape:persp3d" />
    <inkscape:perspective
       id="perspective3730"
       inkscape:persp3d-origin="0.5 : 0.33333333 : 1"
       inkscape:vp_z="1 : 0.5 : 1"
       inkscape:vp_y="0 : 1000 : 0"
       inkscape:vp_x="0 : 0.5 : 1"
       sodipodi:type="inkscape:persp3d" />
    <inkscape:perspective
       id="perspective3014"
       inkscape:persp3d-origin="0.5 : 0.33333333 : 1"
       inkscape:vp_z="1 : 0.5 : 1"
       inkscape:vp_y="0 : 1000 : 0"
       inkscape:vp_x="0 : 0.5 : 1"
       sodipodi:type="inkscape:persp3d" />
    <inkscape:perspective
       id="perspective2855"
       inkscape:persp3d-origin="0.5 : 0.33333333 : 1"
       inkscape:vp_z="1 : 0.5 : 1"
       inkscape:vp_y="0 : 1000 : 0"
       inkscape:vp_x="0 : 0.5 : 1"
       sodipodi:type="inkscape:persp3d" />
    <inkscape:perspective
       id="perspective3032"
       inkscape:persp3d-origin="0.5 : 0.33333333 : 1"
       inkscape:vp_z="1 : 0.5 : 1"
       inkscape:vp_y="0 : 1000 : 0"
       inkscape:vp_x="0 : 0.5 : 1"
       sodipodi:type="inkscape:persp3d" />
  </defs>
  <sodipodi:namedview
     id="base"
     pagecolor="#ffffff"
     bordercolor="#666666"
     borderopacity="1.0"
     inkscape:pageopacity="0.0"
     inkscape:pageshadow="2"
     inkscape:zoom="0.49497475"
     inkscape:cx="337.80612"
     inkscape:cy="545.16461"
     inkscape:document-units="px"
     inkscape:current-layer="layer1"
     showgrid="false"
     inkscape:window-width="1440"
     inkscape:window-height="840"
     inkscape:window-x="-4"
     inkscape:window-y="-4"
     inkscape:window-maximized="1" />
  <metadata
     id="metadata3178">
    <rdf:RDF>
      <cc:Work
         rdf:about="">
        <dc:format>image/svg+xml</dc:format>
        <dc:type
           rdf:resource="http://purl.org/dc/dcmitype/StillImage" />
        <dc:title>Yu</dc:title>
        <dc:date>2010-08-07</dc:date>
        <dc:creator>
          <cc:Agent>
            <dc:title>Alex Amies</dc:title>
          </cc:Agent>
        </dc:creator>
        <dc:rights>
          <cc:Agent>
            <dc:title>@ Alex Amies 2010</dc:title>
          </cc:Agent>
        </dc:rights>
        <dc:publisher>
          <cc:Agent>
            <dc:title>chinesenotes.com</dc:title>
          </cc:Agent>
        </dc:publisher>
        <dc:source>Yan Qin Ceremonial Inscription</dc:source>
        <dc:language>Chinese 中文</dc:language>
        <dc:description>Tracing from Tang Dynasty Ceremonial Inscription by Yan Zhenqing 颜真卿 (709－785)</dc:description>
        <cc:license
           rdf:resource="http://creativecommons.org/licenses/by/3.0/" />
      </cc:Work>
      <cc:License
         rdf:about="http://creativecommons.org/licenses/by/3.0/">
        <cc:permits
           rdf:resource="http://creativecommons.org/ns#Reproduction" />
        <cc:permits
           rdf:resource="http://creativecommons.org/ns#Distribution" />
        <cc:requires
           rdf:resource="http://creativecommons.org/ns#Notice" />
        <cc:requires
           rdf:resource="http://creativecommons.org/ns#Attribution" />
        <cc:permits
           rdf:resource="http://creativecommons.org/ns#DerivativeWorks" />
      </cc:License>
    </rdf:RDF>
  </metadata>
  <g
     inkscape:label="Layer 1"
     inkscape:groupmode="layer"
     id="layer1"
     transform="translate(0,-52.362183)">
    <g
       id="g3647"
       transform="matrix(1.1905163,0,0,1.2589831,-63.783035,-129.05641)">
      <path
         style="fill:#000000;fill-opacity:1;stroke:#000000;stroke-width:4.73223686px;stroke-linecap:butt;stroke-linejoin:miter;stroke-opacity:1"
         d="m 253.39823,413.26729 c -4.03205,16.17156 -6.73094,33.51043 3.30542,48.14544 8.26329,17.32846 43.20821,25.203 54.49161,6.8503 8.59152,-23.98435 -0.0331,-52.80069 -21.90774,-66.62086 -12.66129,-12.37575 -25.77905,4.54508 -35.88929,11.62512 z"
         id="path9747" />
      <path
         sodipodi:nodetypes="cccccc"
         style="fill:#000000;fill-opacity:1;stroke:#000000;stroke-width:4.73223686px;stroke-linecap:butt;stroke-linejoin:miter;stroke-opacity:1"
         d="m 222.97671,573.82532 c -25.85093,14.25932 -22.42479,52.47984 3.08301,64.71168 28.02558,14.0679 54.1437,-9.44521 64.70974,-34.33072 5.78062,-24.37377 5.82662,-49.4321 15.70502,-72.87919 13.38021,-38.93235 -36.75462,11.14479 -50.0595,17.66563 -11.15752,8.26201 -22.36265,16.46051 -33.43827,24.8326 z"
         id="path9749" />
      <path
         sodipodi:nodetypes="ccccccccccccc"
         style="fill:#000000;fill-opacity:1;stroke:#000000;stroke-width:4.73223686px;stroke-linecap:butt;stroke-linejoin:miter;stroke-opacity:1"
         d="m 195.93539,305.10184 c -5.42002,34.23958 49.78417,65.0896 67.75475,31.91695 16.35612,-22.55417 36.12646,-42.23493 60.69164,-55.57813 25.07409,34.09003 34.58366,77.26237 32.13942,119.06984 1.06716,111.76318 -3.71864,223.44956 -7.06888,335.13626 -3.65811,35.35904 -48.26919,-8.78459 -60.81042,-1.24765 14.14919,25.97103 42.18727,46.98822 39.09154,79.94139 17.6943,38.46107 72.55091,20.83065 85.80662,-12.87542 8.76955,-44.64894 17.51723,-90.47554 22.75009,-136.00359 2.53913,-93.85971 9.66181,-187.80213 2.14422,-281.60728 -0.584,-84.65323 4.96577,-106.56169 -90.39363,-133.51637 -19.83133,-8.33607 -38.75777,-4.98422 -55.87049,6.64657 -32.07832,16.03916 -64.15659,32.07827 -96.23486,48.11743 z"
         id="path9751" />
      <path
         style="fill:#000000;fill-opacity:1;stroke:#000000;stroke-width:4.73223686px;stroke-linecap:butt;stroke-linejoin:miter;stroke-opacity:1"
         d="m 541.35035,390.39904 c -4.03206,16.17156 -6.73095,33.51043 3.30542,48.14544 8.26329,17.32846 43.20821,25.203 54.49161,6.85029 8.59152,-23.98434 -0.0331,-52.80069 -21.90775,-66.62085 -12.66129,-12.37575 -25.77905,4.54507 -35.88928,11.62512 z"
         id="path9747-2" />
      <path
         sodipodi:nodetypes="cccccc"
         style="fill:#000000;fill-opacity:1;stroke:#000000;stroke-width:4.73223686px;stroke-linecap:butt;stroke-linejoin:miter;stroke-opacity:1"
         d="m 510.92883,559.40752 c -25.85093,14.25932 -22.42479,52.47984 3.08301,64.71168 28.02558,14.0679 54.1437,-9.44521 64.70974,-34.33072 5.78062,-24.37377 5.82662,-49.4321 15.70502,-72.87919 11.69009,-35.55221 -36.75462,11.14479 -50.0595,17.66562 -11.15752,8.26202 -22.36266,16.46052 -33.43827,24.83261 z"
         id="path9749-6" />
      <path
         style="fill:#000000;fill-opacity:1;stroke:#000000;stroke-width:4.73223686px;stroke-linecap:butt;stroke-linejoin:miter;stroke-opacity:1"
         d="m 483.88751,263.64267 c -5.42002,34.23958 49.78417,65.08959 67.75474,31.91695 16.35613,-22.55418 36.12647,-42.23493 60.69165,-55.57813 25.07409,34.09003 34.58366,77.26237 32.13942,119.06984 1.06716,111.76318 -15.54924,311.33396 -18.89947,423.02066 -5.22907,38.18693 -44.66919,-9.4419 -58.80249,-0.39419 11.11806,28.33289 27.35256,58.63019 25.55048,85.89119 19.17493,31.94591 88.14104,-14.31029 105.79015,-56.86076 8.76955,-44.64894 20.89742,-141.17811 26.13028,-186.70615 2.53913,-93.85971 9.66181,-187.80214 2.14422,-281.60728 -0.584,-84.65323 4.96577,-106.56169 -90.39363,-133.51637 -19.83133,-8.33607 -38.75777,-4.98423 -55.87049,6.64657 -32.07832,16.03916 -64.15659,32.07827 -96.23486,48.11743 l 0,2.4e-4 z"
         id="path9751-2"
         sodipodi:nodetypes="cccccccccccccc" />
    </g>
  </g>
</svg>
