<?xml version="1.0" encoding="UTF-8" standalone="no"?>
<!-- Created with Inkscape (http://www.inkscape.org/) -->

<svg
   xmlns:dc="http://purl.org/dc/elements/1.1/"
   xmlns:cc="http://creativecommons.org/ns#"
   xmlns:rdf="http://www.w3.org/1999/02/22-rdf-syntax-ns#"
   xmlns:svg="http://www.w3.org/2000/svg"
   xmlns="http://www.w3.org/2000/svg"
   xmlns:sodipodi="http://sodipodi.sourceforge.net/DTD/sodipodi-0.dtd"
   xmlns:inkscape="http://www.inkscape.org/namespaces/inkscape"
   width="1000"
   height="1000"
   id="svg3173"
   version="1.1"
   inkscape:version="0.47 r22583"
   sodipodi:docname="7fca.svg"
   inkscape:export-filename="E:\chinese\yan\7fca.png"
   inkscape:export-xdpi="18.005705"
   inkscape:export-ydpi="18.005705">
  <title
     id="title2821">Yi</title>
  <defs
     id="defs3175">
    <inkscape:perspective
       sodipodi:type="inkscape:persp3d"
       inkscape:vp_x="0 : 526.18109 : 1"
       inkscape:vp_y="0 : 1000 : 0"
       inkscape:vp_z="744.09448 : 526.18109 : 1"
       inkscape:persp3d-origin="372.04724 : 350.78739 : 1"
       id="perspective3181" />
    <inkscape:perspective
       id="perspective3191"
       inkscape:persp3d-origin="0.5 : 0.33333333 : 1"
       inkscape:vp_z="1 : 0.5 : 1"
       inkscape:vp_y="0 : 1000 : 0"
       inkscape:vp_x="0 : 0.5 : 1"
       sodipodi:type="inkscape:persp3d" />
    <inkscape:perspective
       id="perspective4006"
       inkscape:persp3d-origin="0.5 : 0.33333333 : 1"
       inkscape:vp_z="1 : 0.5 : 1"
       inkscape:vp_y="0 : 1000 : 0"
       inkscape:vp_x="0 : 0.5 : 1"
       sodipodi:type="inkscape:persp3d" />
    <inkscape:perspective
       id="perspective4034"
       inkscape:persp3d-origin="0.5 : 0.33333333 : 1"
       inkscape:vp_z="1 : 0.5 : 1"
       inkscape:vp_y="0 : 1000 : 0"
       inkscape:vp_x="0 : 0.5 : 1"
       sodipodi:type="inkscape:persp3d" />
    <inkscape:perspective
       id="perspective4081"
       inkscape:persp3d-origin="0.5 : 0.33333333 : 1"
       inkscape:vp_z="1 : 0.5 : 1"
       inkscape:vp_y="0 : 1000 : 0"
       inkscape:vp_x="0 : 0.5 : 1"
       sodipodi:type="inkscape:persp3d" />
    <inkscape:perspective
       id="perspective4147"
       inkscape:persp3d-origin="0.5 : 0.33333333 : 1"
       inkscape:vp_z="1 : 0.5 : 1"
       inkscape:vp_y="0 : 1000 : 0"
       inkscape:vp_x="0 : 0.5 : 1"
       sodipodi:type="inkscape:persp3d" />
    <inkscape:perspective
       id="perspective3799"
       inkscape:persp3d-origin="0.5 : 0.33333333 : 1"
       inkscape:vp_z="1 : 0.5 : 1"
       inkscape:vp_y="0 : 1000 : 0"
       inkscape:vp_x="0 : 0.5 : 1"
       sodipodi:type="inkscape:persp3d" />
  </defs>
  <sodipodi:namedview
     id="base"
     pagecolor="#ffffff"
     bordercolor="#666666"
     borderopacity="1.0"
     inkscape:pageopacity="0.0"
     inkscape:pageshadow="2"
     inkscape:zoom="0.49497475"
     inkscape:cx="655.15801"
     inkscape:cy="511.42857"
     inkscape:document-units="px"
     inkscape:current-layer="g9840"
     showgrid="false"
     inkscape:window-width="1440"
     inkscape:window-height="840"
     inkscape:window-x="-4"
     inkscape:window-y="-4"
     inkscape:window-maximized="1" />
  <metadata
     id="metadata3178">
    <rdf:RDF>
      <cc:Work
         rdf:about="">
        <dc:format>image/svg+xml</dc:format>
        <dc:type
           rdf:resource="http://purl.org/dc/dcmitype/StillImage" />
        <dc:title>Yi</dc:title>
        <dc:date>2010-07-27</dc:date>
        <dc:creator>
          <cc:Agent>
            <dc:title>Alex Amies</dc:title>
          </cc:Agent>
        </dc:creator>
        <dc:rights>
          <cc:Agent>
            <dc:title>@ Alex Amies 2010</dc:title>
          </cc:Agent>
        </dc:rights>
        <dc:publisher>
          <cc:Agent>
            <dc:title>chinesenotes.com</dc:title>
          </cc:Agent>
        </dc:publisher>
        <dc:source>Yan Qin Ceremonial Inscription</dc:source>
        <dc:language>Chinese 中文</dc:language>
        <dc:description>Tracing from Tang Dynasty Ceremonial Inscription by Yan Zhenqing 颜真卿 (709－785)</dc:description>
        <cc:license
           rdf:resource="http://creativecommons.org/licenses/by/3.0/" />
      </cc:Work>
      <cc:License
         rdf:about="http://creativecommons.org/licenses/by/3.0/">
        <cc:permits
           rdf:resource="http://creativecommons.org/ns#Reproduction" />
        <cc:permits
           rdf:resource="http://creativecommons.org/ns#Distribution" />
        <cc:requires
           rdf:resource="http://creativecommons.org/ns#Notice" />
        <cc:requires
           rdf:resource="http://creativecommons.org/ns#Attribution" />
        <cc:permits
           rdf:resource="http://creativecommons.org/ns#DerivativeWorks" />
      </cc:License>
    </rdf:RDF>
  </metadata>
  <g
     inkscape:label="Layer 1"
     inkscape:groupmode="layer"
     id="layer1"
     transform="translate(0,-52.362183)">
    <g
       transform="matrix(4.7322369,0,0,4.7322369,-665.87847,-3863.0687)"
       id="g9840"
       style="fill:none;fill-opacity:1">
      <path
         style="fill:#000000;stroke:#000000;stroke-width:4.73223686000000040px;stroke-linecap:butt;stroke-linejoin:miter;stroke-opacity:1;fill-opacity:1"
         d="M 224.78125 89.40625 C 205.90502 95.279003 188.01213 105.08237 187.9375 127.4375 C 230.91511 162.26809 273.92166 201.85328 311.59375 224.875 C 226.92597 252.53713 143.94469 285.14891 59.15625 312.5 C 56.254584 324.83988 52.567516 337.41788 56.59375 349.90625 C 62.743481 362.07572 87.591923 358.2889 98.78125 350.78125 C 154.27189 328.17133 210.12669 306.41799 266.03125 284.875 C 293.9727 277.75265 321.9336 270.62235 349.875 263.5 C 354.70146 257.42362 361.40836 252.08873 365.0625 245.5625 C 367.33114 230.31895 362.48504 224.21465 352.8125 215.4375 C 353.50857 214.5445 354.21834 213.63116 354.9375 212.78125 C 346.40121 140.16933 290.80163 106.99948 224.78125 89.40625 z "
         transform="matrix(0.21131656,0,0,0.21131656,140.71114,827.39537)"
         id="path9733" />
      <path
         id="path9737"
         d="m 157.85714,918.07647 c -3.29176,3.41517 -3.8582,8.40393 -3.00687,12.84475 3.1451,6.0306 9.21915,0.0372 13.36409,-1.4054 15.54452,-6.63963 30.81848,-14.05711 46.78564,-19.65364 -1.11437,-2.46241 -1.16144,-5.90283 -4.3268,-6.71949 -4.62477,-1.21196 -9.84292,-0.98548 -14.38144,0.46723 -11.47344,4.769 -23.0087,9.39552 -34.50605,14.10941 -1.30952,0.11905 -2.61905,0.23809 -3.92857,0.35714 z"
         style="fill:#000000;fill-opacity:1;stroke:#000000;stroke-width:1px;stroke-linecap:butt;stroke-linejoin:miter;stroke-opacity:1"
         sodipodi:nodetypes="cccccccc" />
      <path
         id="path9739"
         d="m 166.42857,957.00504 c 3.01059,1.76008 6.4673,0.24299 9.45564,-0.74357 11.11398,-3.74149 21.72867,-8.79703 32.71521,-12.88288 1.53829,-0.21975 3.07658,-0.43951 4.61487,-0.65926 0.35714,-1.19048 0.71428,-2.38095 1.07142,-3.57143 -3.21855,-3.66997 -6.50752,-4.13575 -11.07142,-4.64286 -12.44824,4.80614 -24.45613,10.56971 -36.42858,16.42857 -1.73027,2.17437 -1.09723,3.60448 -0.35714,6.07143 z"
         style="fill:#000000;fill-opacity:1;stroke:#000000;stroke-width:1px;stroke-linecap:butt;stroke-linejoin:miter;stroke-opacity:1"
         sodipodi:nodetypes="cccccccc" />
      <path
         style="fill:#000000;stroke:#000000;stroke-width:4.73223686000000040px;stroke-linecap:butt;stroke-linejoin:miter;stroke-opacity:1;fill-opacity:1"
         d="M 324.71875 630 C 313.63309 630.1869 302.79805 632.84462 293.3125 639.28125 C 250.5354 652.88776 212.28519 688.04919 167.34375 694.46875 C 163.52412 707.99684 168.62815 727.04911 183.78125 730.75 C 227.92815 713.32959 266.43438 693.92344 305.90625 674.1875 C 318.37849 677.08562 319.10863 691.80573 316.46875 701.9375 C 313.58485 729.09874 308.64253 757.22751 310.875 784.625 C 306.32479 784.95933 301.8136 785.55631 297.4375 786.21875 C 264.78204 800.79889 232.58454 816.64705 200.5 832.53125 C 181.83996 787.71015 179.77381 719.0581 141.53125 689.375 C 125.15071 680.00456 99.652039 689.8864 81.125 692.78125 C 70.988454 709.63525 69.760938 731.95858 81.6875 748.28125 C 90.086558 767.80296 106.91607 781.21607 124.03125 792.75 C 141.45071 828.5931 150.61561 869.01267 162.25 907.40625 C 174.51662 923.72206 204.10698 934.3263 216.5 913 C 221.15927 903.10815 220.75668 893.05824 218.40625 883.03125 C 222.79635 882.63684 227.20898 882.06854 231.5625 882.0625 C 254.2266 866.12101 276.32695 849.25999 299.34375 833.90625 C 315.05539 826.86279 330.75711 819.82471 346.46875 812.78125 C 346.41427 812.07302 346.36698 811.36448 346.3125 810.65625 C 374.94085 770.58064 385.992 719.21946 392.125 670.8125 C 381.98448 659.54528 371.82802 648.26722 361.6875 637 C 350.14434 632.74779 337.2825 629.78818 324.71875 630 z "
         transform="matrix(0.21131656,0,0,0.21131656,140.71114,827.39537)"
         id="path9741" />
      <path
         id="path9747"
         d="m 240.35714,915.21933 c -0.85204,3.41732 -1.42236,7.08131 0.69849,10.17393 1.74617,3.66179 9.13061,5.32581 11.51498,1.44758 1.81553,-5.06829 -0.007,-11.15766 -4.62947,-14.07809 -2.67554,-2.6152 -5.44754,0.96045 -7.584,2.45658 z"
         style="fill:#000000;fill-opacity:1;stroke:#000000;stroke-width:1px;stroke-linecap:butt;stroke-linejoin:miter;stroke-opacity:1" />
      <path
         id="path9749"
         d="m 233.92857,949.1479 c -5.46273,3.01323 -4.73873,11.08986 0.65149,13.67465 5.92227,2.97278 11.44146,-1.99593 13.67424,-7.25465 1.22154,-5.15058 1.23126,-10.44582 3.31873,-15.40058 2.82746,-8.22705 -7.76686,2.35508 -10.5784,3.73304 -2.35777,1.7459 -4.7256,3.47838 -7.06606,5.24754 z"
         style="fill:#000000;fill-opacity:1;stroke:#000000;stroke-width:1px;stroke-linecap:butt;stroke-linejoin:miter;stroke-opacity:1"
         sodipodi:nodetypes="cccccc" />
      <path
         id="path9751"
         d="m 228.21429,892.36218 c -1.14534,7.23539 10.52022,13.75451 14.3177,6.74458 3.45632,-4.76607 7.63412,-8.92494 12.82515,-11.74458 5.29857,7.20379 7.3081,16.32682 6.79159,25.16143 0.22551,23.61741 -0.78581,47.21859 -1.49377,70.81984 -0.77302,7.47195 -10.20008,-1.85633 -12.85025,-0.26365 2.98996,5.48811 8.91487,9.92939 8.26069,16.89294 3.7391,8.12746 15.33121,4.40186 18.13236,-2.72079 1.85315,-9.43506 3.70168,-19.11898 4.80747,-28.73981 0.53656,-19.83411 2.0417,-39.6857 0.45311,-59.50828 -0.12341,-17.88863 1.04935,-22.51825 -19.10167,-28.21422 -4.19069,-1.76155 -8.19016,-1.05325 -11.80636,1.40453 -6.77868,3.38934 -13.55735,6.77867 -20.33602,10.16801 z"
         style="fill:#000000;fill-opacity:1;stroke:#000000;stroke-width:1px;stroke-linecap:butt;stroke-linejoin:miter;stroke-opacity:1"
         sodipodi:nodetypes="ccccccccccccc" />
      <path
         id="path9747-2"
         d="m 301.20619,910.38689 c -0.85204,3.41732 -1.42236,7.08131 0.69849,10.17393 1.74617,3.66179 9.13061,5.32581 11.51498,1.44758 1.81553,-5.06829 -0.007,-11.15766 -4.62947,-14.07809 -2.67554,-2.6152 -5.44754,0.96045 -7.584,2.45658 z"
         style="fill:#000000;fill-opacity:1;stroke:#000000;stroke-width:1px;stroke-linecap:butt;stroke-linejoin:miter;stroke-opacity:1" />
      <path
         id="path9749-6"
         d="m 294.77762,946.10118 c -5.46273,3.01323 -4.73873,11.08986 0.65149,13.67465 5.92227,2.97278 11.44146,-1.99593 13.67424,-7.25465 1.22154,-5.15058 1.23126,-10.44582 3.31873,-15.40058 2.47031,-7.51277 -7.76686,2.35508 -10.5784,3.73304 -2.35777,1.7459 -4.7256,3.47838 -7.06606,5.24754 z"
         style="fill:#000000;fill-opacity:1;stroke:#000000;stroke-width:1px;stroke-linecap:butt;stroke-linejoin:miter;stroke-opacity:1"
         sodipodi:nodetypes="cccccc" />
      <path
         sodipodi:nodetypes="cccccccccccccc"
         id="path9751-2"
         d="m 289.06334,883.60117 c -1.14534,7.23539 10.52022,13.75451 14.3177,6.74458 3.45632,-4.76607 7.63412,-8.92494 12.82515,-11.74458 5.29857,7.20379 7.3081,16.32682 6.79159,25.16143 0.22551,23.61741 -3.28581,65.79002 -3.99377,89.39127 -1.10499,8.06953 -9.43934,-1.99523 -12.42594,-0.0833 2.34943,5.98721 5.78005,12.38953 5.39924,18.15023 4.05198,6.7507 18.62566,-3.024 22.35521,-12.01562 1.85315,-9.43506 4.41597,-29.83327 5.52176,-39.4541 0.53656,-19.83411 2.0417,-39.6857 0.45311,-59.50828 -0.12341,-17.88863 1.04935,-22.51825 -19.10167,-28.21422 -4.19069,-1.76155 -8.19016,-1.05325 -11.80636,1.40453 -6.77868,3.38934 -13.55735,6.77867 -20.33602,10.16801 l 0,5e-5 z"
         style="fill:#000000;fill-opacity:1;stroke:#000000;stroke-width:1px;stroke-linecap:butt;stroke-linejoin:miter;stroke-opacity:1" />
    </g>
  </g>
</svg>
