<?xml version="1.0" encoding="UTF-8" standalone="no"?>
<!-- Created with Inkscape (http://www.inkscape.org/) -->

<svg
   xmlns:dc="http://purl.org/dc/elements/1.1/"
   xmlns:cc="http://creativecommons.org/ns#"
   xmlns:rdf="http://www.w3.org/1999/02/22-rdf-syntax-ns#"
   xmlns:svg="http://www.w3.org/2000/svg"
   xmlns="http://www.w3.org/2000/svg"
   xmlns:sodipodi="http://sodipodi.sourceforge.net/DTD/sodipodi-0.dtd"
   xmlns:inkscape="http://www.inkscape.org/namespaces/inkscape"
   width="1000"
   height="1000"
   id="svg3173"
   version="1.1"
   inkscape:version="0.47 r22583"
   sodipodi:docname="7fd4.svg"
   inkscape:export-filename="E:\chinese\yan\7fd4.png"
   inkscape:export-xdpi="18.005705"
   inkscape:export-ydpi="18.005705">
  <title
     id="title2823">Xiang</title>
  <defs
     id="defs3175">
    <inkscape:perspective
       sodipodi:type="inkscape:persp3d"
       inkscape:vp_x="0 : 526.18109 : 1"
       inkscape:vp_y="0 : 1000 : 0"
       inkscape:vp_z="744.09448 : 526.18109 : 1"
       inkscape:persp3d-origin="372.04724 : 350.78739 : 1"
       id="perspective3181" />
    <inkscape:perspective
       id="perspective3191"
       inkscape:persp3d-origin="0.5 : 0.33333333 : 1"
       inkscape:vp_z="1 : 0.5 : 1"
       inkscape:vp_y="0 : 1000 : 0"
       inkscape:vp_x="0 : 0.5 : 1"
       sodipodi:type="inkscape:persp3d" />
    <inkscape:perspective
       id="perspective4006"
       inkscape:persp3d-origin="0.5 : 0.33333333 : 1"
       inkscape:vp_z="1 : 0.5 : 1"
       inkscape:vp_y="0 : 1000 : 0"
       inkscape:vp_x="0 : 0.5 : 1"
       sodipodi:type="inkscape:persp3d" />
    <inkscape:perspective
       id="perspective4034"
       inkscape:persp3d-origin="0.5 : 0.33333333 : 1"
       inkscape:vp_z="1 : 0.5 : 1"
       inkscape:vp_y="0 : 1000 : 0"
       inkscape:vp_x="0 : 0.5 : 1"
       sodipodi:type="inkscape:persp3d" />
    <inkscape:perspective
       id="perspective4081"
       inkscape:persp3d-origin="0.5 : 0.33333333 : 1"
       inkscape:vp_z="1 : 0.5 : 1"
       inkscape:vp_y="0 : 1000 : 0"
       inkscape:vp_x="0 : 0.5 : 1"
       sodipodi:type="inkscape:persp3d" />
    <inkscape:perspective
       id="perspective4147"
       inkscape:persp3d-origin="0.5 : 0.33333333 : 1"
       inkscape:vp_z="1 : 0.5 : 1"
       inkscape:vp_y="0 : 1000 : 0"
       inkscape:vp_x="0 : 0.5 : 1"
       sodipodi:type="inkscape:persp3d" />
    <inkscape:perspective
       id="perspective3895"
       inkscape:persp3d-origin="0.5 : 0.33333333 : 1"
       inkscape:vp_z="1 : 0.5 : 1"
       inkscape:vp_y="0 : 1000 : 0"
       inkscape:vp_x="0 : 0.5 : 1"
       sodipodi:type="inkscape:persp3d" />
    <inkscape:perspective
       id="perspective5047"
       inkscape:persp3d-origin="0.5 : 0.33333333 : 1"
       inkscape:vp_z="1 : 0.5 : 1"
       inkscape:vp_y="0 : 1000 : 0"
       inkscape:vp_x="0 : 0.5 : 1"
       sodipodi:type="inkscape:persp3d" />
    <inkscape:perspective
       id="perspective5086"
       inkscape:persp3d-origin="0.5 : 0.33333333 : 1"
       inkscape:vp_z="1 : 0.5 : 1"
       inkscape:vp_y="0 : 1000 : 0"
       inkscape:vp_x="0 : 0.5 : 1"
       sodipodi:type="inkscape:persp3d" />
    <inkscape:perspective
       id="perspective5119"
       inkscape:persp3d-origin="0.5 : 0.33333333 : 1"
       inkscape:vp_z="1 : 0.5 : 1"
       inkscape:vp_y="0 : 1000 : 0"
       inkscape:vp_x="0 : 0.5 : 1"
       sodipodi:type="inkscape:persp3d" />
  </defs>
  <sodipodi:namedview
     id="base"
     pagecolor="#ffffff"
     bordercolor="#666666"
     borderopacity="1.0"
     inkscape:pageopacity="0.0"
     inkscape:pageshadow="2"
     inkscape:zoom="0.49497475"
     inkscape:cx="679.96666"
     inkscape:cy="519.73747"
     inkscape:document-units="px"
     inkscape:current-layer="layer1"
     showgrid="false"
     inkscape:window-width="1440"
     inkscape:window-height="840"
     inkscape:window-x="-4"
     inkscape:window-y="-4"
     inkscape:window-maximized="1" />
  <metadata
     id="metadata3178">
    <rdf:RDF>
      <cc:Work
         rdf:about="">
        <dc:format>image/svg+xml</dc:format>
        <dc:type
           rdf:resource="http://purl.org/dc/dcmitype/StillImage" />
        <dc:title>Xiang</dc:title>
        <dc:date>2010-08-14</dc:date>
        <dc:creator>
          <cc:Agent>
            <dc:title>Alex Amies</dc:title>
          </cc:Agent>
        </dc:creator>
        <dc:rights>
          <cc:Agent>
            <dc:title>@ Alex Amies 2010</dc:title>
          </cc:Agent>
        </dc:rights>
        <dc:publisher>
          <cc:Agent>
            <dc:title>chinesenotes.com</dc:title>
          </cc:Agent>
        </dc:publisher>
        <dc:source>Yan Qin Ceremonial Inscription</dc:source>
        <dc:language>Chinese 中文</dc:language>
        <dc:description>Tracing from Tang Dynasty Ceremonial Inscription by Yan Zhenqing 颜真卿 (709－785)</dc:description>
        <cc:license
           rdf:resource="http://creativecommons.org/licenses/by/3.0/" />
      </cc:Work>
      <cc:License
         rdf:about="http://creativecommons.org/licenses/by/3.0/">
        <cc:permits
           rdf:resource="http://creativecommons.org/ns#Reproduction" />
        <cc:permits
           rdf:resource="http://creativecommons.org/ns#Distribution" />
        <cc:requires
           rdf:resource="http://creativecommons.org/ns#Notice" />
        <cc:requires
           rdf:resource="http://creativecommons.org/ns#Attribution" />
        <cc:permits
           rdf:resource="http://creativecommons.org/ns#DerivativeWorks" />
      </cc:License>
    </rdf:RDF>
  </metadata>
  <g
     inkscape:label="Layer 1"
     inkscape:groupmode="layer"
     id="layer1"
     transform="translate(0,-52.362183)">
    <g
       transform="matrix(4.7418067,0,0,4.7418067,-1422.3873,-2948.7554)"
       id="g8291"
       style="fill:none;fill-opacity:1">
      <path
         sodipodi:nodetypes="ccccccccc"
         id="path8240"
         d="m 325.71429,653.43361 c -1.55873,1.32528 -0.30325,3.64791 -0.80027,5.3882 -0.72528,10.95986 0.62898,23.11158 8.84856,31.13919 3.76218,2.81002 9.34113,3.9515 13.45557,1.21416 7.4402,-4.76936 3.9193,-11.54496 1.82081,-18.17954 -1.59383,-4.74129 -3.45918,-9.84686 -7.64594,-12.91879 -5.05009,-0.82684 -10.24188,-6.90941 -15.31728,-6.80026 l -0.36145,0.15704 0,0 z"
         style="fill:#000000;fill-opacity:1;stroke:#000000;stroke-width:1px;stroke-linecap:butt;stroke-linejoin:miter;stroke-opacity:1" />
      <path
         sodipodi:nodetypes="ccccc"
         id="path8243"
         d="m 369.23612,647.68663 c -7.0658,7.49723 -8.42488,15.19426 -8.34754,24.92545 11.29836,-4.21713 22.57319,-2.10395 26.4303,-16.01523 -0.88492,-4.8368 -3.81367,-9.19472 -7.65402,-12.2027 -4.50683,-3.54862 -7.61821,-0.51328 -10.42874,3.29248 z"
         style="fill:#000000;fill-opacity:1;stroke:#000000;stroke-width:1px;stroke-linecap:butt;stroke-linejoin:miter;stroke-opacity:1" />
      <path
         style="fill:#000000;stroke:#000000;stroke-width:4.74180651000000000px;stroke-linecap:butt;stroke-linejoin:miter;stroke-opacity:1;fill-opacity:1"
         d="M 326.78125 278.34375 C 310.52582 278.31858 295.44005 289.48036 281.1875 296.5625 C 227.96968 318.89935 180.49173 353.47171 125.46875 371.6875 C 108.12199 376.81003 88.370227 372.57133 72.84375 383.78125 C 57.971642 388.15756 47.700271 404.14748 61.90625 419.15625 C 74.792442 425.6153 90.514136 427.89397 104.5 424.0625 C 120.83211 417.71768 133.02572 403.54901 150.34375 399.15625 C 169.2107 392.11658 188.26879 385.32665 207.53125 379.1875 C 205.29999 386.34402 204.34721 393.97991 204.75 401.5625 C 204.9479 425.98661 204.20725 450.49657 202.90625 475.03125 C 176.35872 486.43419 151.74546 499.40788 132.25 512.25 C 127.09058 519.82129 118.19822 531.0107 126.28125 539.625 C 136.72498 548.00548 152.16235 547.75105 163.78125 541.84375 C 173.0476 535.70505 185.42659 530.60814 199.5 526.03125 C 197.22337 554.99703 194.51381 583.99314 191.875 612.96875 C 154.31814 627.40395 115.48954 640.13831 76.375 656.1875 C 66.269878 662.72802 44.633129 670.09132 53 685.78125 C 71.259085 695.10706 87.728598 702.54332 102.28125 691.25 C 130.45402 675.85451 159.33294 661.42645 188.75 648.0625 C 181.07704 738.27299 176.62604 828.12291 192.625 916.15625 C 189.1384 939.77329 215.5448 952.47621 228.1875 931 C 263.59286 891.46817 262.05501 836.51763 272.03125 786.6875 C 272.35433 727.91546 279.08608 668.45666 285.53125 608.78125 C 301.37751 603.10919 317.30053 597.76499 333.3125 592.78125 C 346.20851 587.65649 359.57062 591.88032 372.71875 591.15625 C 384.75687 587.82466 400.50441 577.33409 395.5 562.78125 C 386.74459 542.9155 364.07141 531.99047 343.09375 531.09375 C 323.05241 526.55565 318.99489 547.49887 305.34375 555.5625 C 300.2937 559.11594 295.18618 562.49642 290.03125 565.75 C 292.22428 543.62955 294.13295 521.49639 295.46875 499.375 C 317.66111 492.21508 337.19426 483.68639 349.4375 471.96875 C 353.80731 459.46845 347.85244 444.95499 336.21875 438.8125 C 323.98588 439.65031 310.92262 441.6117 297.40625 444.4375 C 297.55241 415.60347 296.16949 386.82584 292.5625 358.15625 C 302.14543 356.61013 311.77044 355.37399 321.46875 354.5 C 343.14146 356.46875 383.95019 364.49758 379.6875 330.78125 C 374.00279 309.33136 359.49656 288.46518 338.21875 280.34375 C 334.33965 278.9606 330.5325 278.34956 326.78125 278.34375 z "
         transform="matrix(0.21089008,0,0,0.21089008,299.96737,632.90593)"
         id="path8246" />
      <path
         sodipodi:nodetypes="cccccccccccccccc"
         id="path8258"
         d="m 391.07143,698.07647 c 3.7289,0.2221 7.22859,1.12899 13.71682,1.91393 2.6134,-3.53835 6.01063,-12.63612 11.18127,-7.69074 1.53404,20.22442 2.20993,41.63591 -1.08179,62.07773 -1.4882,10.29299 -1.43565,20.51519 -1.79695,30.92707 -0.0162,4.20639 1.14362,11.68643 -4.40318,12.35534 -5.06258,-2.38035 -9.11581,-8.33169 -7.25188,-1.98648 1.46056,4.81342 4.64436,9.59543 3.64766,14.78006 -2.59836,6.79434 6.68862,8.03971 11.10771,6.03407 7.63744,-2.91606 9.06536,-11.83994 10.40869,-18.88413 0.32252,-18.63272 1.31572,-37.59487 1.98478,-56.38029 -0.22443,-12.77947 -1.15477,-25.80018 0.70115,-38.5037 4.44783,-2.90868 8.08535,-8.95024 3.5502,-13.69357 -8.55962,-4.28184 -14.01205,-6.94229 -20.41935,-11.47076 -6.85175,-3.90364 -9.21074,6.019 -14.63183,8.16026 -3.8269,2.62766 -7.95291,7.42204 -6.7133,12.36121 z"
         style="fill:#000000;fill-opacity:1;stroke:#000000;stroke-width:1px;stroke-linecap:butt;stroke-linejoin:miter;stroke-opacity:1" />
      <path
         sodipodi:nodetypes="ccccccc"
         id="path8261"
         d="m 387.55666,721.08442 c -0.57866,4.19312 3.1308,7.28212 4.69779,10.91194 1.45048,2.13094 0.55357,5.70156 3.1276,6.05588 1.73444,-0.84581 2.39334,-2.85163 3.74975,-4.1203 4.79119,-3.16707 8.50166,-6.41923 7.04788,-12.62494 -2.50887,-4.87143 -8.53493,-5.15622 -13.32254,-4.30199 -2.44335,0.5756 -4.16263,1.87539 -5.30048,4.07941 z"
         style="fill:#000000;fill-opacity:1;stroke:#000000;stroke-width:1px;stroke-linecap:butt;stroke-linejoin:miter;stroke-opacity:1" />
      <path
         sodipodi:nodetypes="cccccc"
         id="path8264"
         d="m 390,760.57647 c -1.02782,1.69955 -1.06208,3.89869 -0.12471,5.64628 1.7537,3.41443 6.12061,4.65954 8.93149,1.81238 0.34236,-6.44272 9.3609,-13.4738 6.93984,-20.14097 -1.31112,-0.71456 -2.80692,0.85726 -3.7356,1.81252 -3.09729,4.67178 -8.71416,6.45446 -12.01102,10.86979 z"
         style="fill:#000000;fill-opacity:1;stroke:#000000;stroke-width:1px;stroke-linecap:butt;stroke-linejoin:miter;stroke-opacity:1" />
      <path
         sodipodi:nodetypes="ccccc"
         id="path8267"
         d="m 439.31096,712.2452 c -0.38027,1.67255 0.87092,3.11333 2.00915,4.1642 5.63428,6.32739 10.1618,10.12527 18.81267,8.37538 4.68853,-1.8765 1.91381,-7.28112 -0.95621,-9.65011 -5.11625,-2.09468 -15.18573,-8.70715 -19.86561,-2.88947 z"
         style="fill:#000000;fill-opacity:1;stroke:#000000;stroke-width:1px;stroke-linecap:butt;stroke-linejoin:miter;stroke-opacity:1" />
      <path
         sodipodi:nodetypes="ccccc"
         id="path8270"
         d="m 445.60806,758.18261 c 3.60858,6.25536 10.31497,9.09674 15.79993,3.60464 2.38911,-5.89207 1.14959,-14.54563 -0.83295,-20.83578 -1.67306,-0.98406 -3.63132,2.77089 -5.57504,2.83924 -10.29576,2.49352 -8.69886,3.94923 -9.39194,14.3919 z"
         style="fill:#000000;fill-opacity:1;stroke:#000000;stroke-width:1px;stroke-linecap:butt;stroke-linejoin:miter;stroke-opacity:1" />
      <path
         sodipodi:nodetypes="cccccccccccccccccc"
         id="path8273"
         d="m 455.35714,678.43361 c -8.35582,2.9488 -0.36449,13.89999 6.15002,9.8012 8.89835,-5.10655 10.70285,-6.15548 13.60622,3.12205 0.38562,14.07737 2.82164,28.64892 3.13542,43.14733 -1.10455,16.22402 0.9623,32.50789 -0.30894,48.74252 -0.90631,5.80747 2.22905,14.39388 -4.16488,17.75902 -5.51145,1.06516 -10.9858,-1.47117 -15.62145,-4.19752 -0.83647,-2.78002 -6.98934,-6.08018 -4.83612,-0.95838 3.09745,5.36068 6.08584,10.79727 9.48903,15.9934 3.52442,4.9868 3.86539,11.04493 2.3808,16.79159 -0.50733,7.57718 8.4199,7.11758 11.93549,2.34713 5.19494,-5.69514 11.32683,-9.79649 17.42286,-14.75338 4.3234,-10.53508 2.53395,-22.18313 3.52742,-33.26206 0.21613,-17.73946 -2.19933,-35.43509 -1.00312,-53.18241 0.64115,-10.07743 0.4513,-20.31232 2.42207,-30.23896 0.43663,-5.91175 -0.7753,-13.01874 -3.30434,-17.37871 -7.35677,-4.81134 -14.89756,-11.87046 -24.17192,-9.87283 -5.89938,0.88677 -11.4665,3.27753 -16.65856,6.14001 z"
         style="fill:#000000;fill-opacity:1;stroke:#000000;stroke-width:1px;stroke-linecap:butt;stroke-linejoin:miter;stroke-opacity:1" />
    </g>
  </g>
</svg>
