<?xml version="1.0" encoding="UTF-8" standalone="no"?>
<!-- Created with Inkscape (http://www.inkscape.org/) -->

<svg
   xmlns:dc="http://purl.org/dc/elements/1.1/"
   xmlns:cc="http://creativecommons.org/ns#"
   xmlns:rdf="http://www.w3.org/1999/02/22-rdf-syntax-ns#"
   xmlns:svg="http://www.w3.org/2000/svg"
   xmlns="http://www.w3.org/2000/svg"
   xmlns:sodipodi="http://sodipodi.sourceforge.net/DTD/sodipodi-0.dtd"
   xmlns:inkscape="http://www.inkscape.org/namespaces/inkscape"
   width="1000"
   height="1000"
   id="svg3173"
   version="1.1"
   inkscape:version="0.47 r22583"
   sodipodi:docname="7ff9.svg"
   inkscape:export-filename="E:\chinese\yan\7ff9.png"
   inkscape:export-xdpi="18.005705"
   inkscape:export-ydpi="18.005705">
  <title
     id="title2825">Qiao</title>
  <defs
     id="defs3175">
    <inkscape:perspective
       sodipodi:type="inkscape:persp3d"
       inkscape:vp_x="0 : 526.18109 : 1"
       inkscape:vp_y="0 : 1000 : 0"
       inkscape:vp_z="744.09448 : 526.18109 : 1"
       inkscape:persp3d-origin="372.04724 : 350.78739 : 1"
       id="perspective3181" />
    <inkscape:perspective
       id="perspective3191"
       inkscape:persp3d-origin="0.5 : 0.33333333 : 1"
       inkscape:vp_z="1 : 0.5 : 1"
       inkscape:vp_y="0 : 1000 : 0"
       inkscape:vp_x="0 : 0.5 : 1"
       sodipodi:type="inkscape:persp3d" />
    <inkscape:perspective
       id="perspective4006"
       inkscape:persp3d-origin="0.5 : 0.33333333 : 1"
       inkscape:vp_z="1 : 0.5 : 1"
       inkscape:vp_y="0 : 1000 : 0"
       inkscape:vp_x="0 : 0.5 : 1"
       sodipodi:type="inkscape:persp3d" />
    <inkscape:perspective
       id="perspective4034"
       inkscape:persp3d-origin="0.5 : 0.33333333 : 1"
       inkscape:vp_z="1 : 0.5 : 1"
       inkscape:vp_y="0 : 1000 : 0"
       inkscape:vp_x="0 : 0.5 : 1"
       sodipodi:type="inkscape:persp3d" />
    <inkscape:perspective
       id="perspective4081"
       inkscape:persp3d-origin="0.5 : 0.33333333 : 1"
       inkscape:vp_z="1 : 0.5 : 1"
       inkscape:vp_y="0 : 1000 : 0"
       inkscape:vp_x="0 : 0.5 : 1"
       sodipodi:type="inkscape:persp3d" />
    <inkscape:perspective
       id="perspective4147"
       inkscape:persp3d-origin="0.5 : 0.33333333 : 1"
       inkscape:vp_z="1 : 0.5 : 1"
       inkscape:vp_y="0 : 1000 : 0"
       inkscape:vp_x="0 : 0.5 : 1"
       sodipodi:type="inkscape:persp3d" />
    <inkscape:perspective
       id="perspective3758"
       inkscape:persp3d-origin="0.5 : 0.33333333 : 1"
       inkscape:vp_z="1 : 0.5 : 1"
       inkscape:vp_y="0 : 1000 : 0"
       inkscape:vp_x="0 : 0.5 : 1"
       sodipodi:type="inkscape:persp3d" />
    <inkscape:perspective
       id="perspective3719"
       inkscape:persp3d-origin="0.5 : 0.33333333 : 1"
       inkscape:vp_z="1 : 0.5 : 1"
       inkscape:vp_y="0 : 1000 : 0"
       inkscape:vp_x="0 : 0.5 : 1"
       sodipodi:type="inkscape:persp3d" />
    <inkscape:perspective
       id="perspective3803"
       inkscape:persp3d-origin="0.5 : 0.33333333 : 1"
       inkscape:vp_z="1 : 0.5 : 1"
       inkscape:vp_y="0 : 1000 : 0"
       inkscape:vp_x="0 : 0.5 : 1"
       sodipodi:type="inkscape:persp3d" />
    <inkscape:perspective
       id="perspective3801"
       inkscape:persp3d-origin="0.5 : 0.33333333 : 1"
       inkscape:vp_z="1 : 0.5 : 1"
       inkscape:vp_y="0 : 1000 : 0"
       inkscape:vp_x="0 : 0.5 : 1"
       sodipodi:type="inkscape:persp3d" />
  </defs>
  <sodipodi:namedview
     id="base"
     pagecolor="#ffffff"
     bordercolor="#666666"
     borderopacity="1.0"
     inkscape:pageopacity="0.0"
     inkscape:pageshadow="2"
     inkscape:zoom="0.49497475"
     inkscape:cx="571.51329"
     inkscape:cy="512.69615"
     inkscape:document-units="px"
     inkscape:current-layer="g4143"
     showgrid="false"
     inkscape:window-width="1440"
     inkscape:window-height="840"
     inkscape:window-x="-4"
     inkscape:window-y="-4"
     inkscape:window-maximized="1" />
  <metadata
     id="metadata3178">
    <rdf:RDF>
      <cc:Work
         rdf:about="">
        <dc:format>image/svg+xml</dc:format>
        <dc:type
           rdf:resource="http://purl.org/dc/dcmitype/StillImage" />
        <dc:title>Qiao</dc:title>
        <dc:date>2010-08-14</dc:date>
        <dc:creator>
          <cc:Agent>
            <dc:title>Alex Amies</dc:title>
          </cc:Agent>
        </dc:creator>
        <dc:rights>
          <cc:Agent>
            <dc:title>@ Alex Amies 2010</dc:title>
          </cc:Agent>
        </dc:rights>
        <dc:publisher>
          <cc:Agent>
            <dc:title>chinesenotes.com</dc:title>
          </cc:Agent>
        </dc:publisher>
        <dc:source>Yan Qin Ceremonial Inscription</dc:source>
        <dc:language>Chinese 中文</dc:language>
        <dc:description>Tracing from Tang Dynasty Ceremonial Inscription by Yan Zhenqing 颜真卿 (709－785)</dc:description>
        <cc:license
           rdf:resource="http://creativecommons.org/licenses/by/3.0/" />
      </cc:Work>
      <cc:License
         rdf:about="http://creativecommons.org/licenses/by/3.0/">
        <cc:permits
           rdf:resource="http://creativecommons.org/ns#Reproduction" />
        <cc:permits
           rdf:resource="http://creativecommons.org/ns#Distribution" />
        <cc:requires
           rdf:resource="http://creativecommons.org/ns#Notice" />
        <cc:requires
           rdf:resource="http://creativecommons.org/ns#Attribution" />
        <cc:permits
           rdf:resource="http://creativecommons.org/ns#DerivativeWorks" />
      </cc:License>
    </rdf:RDF>
  </metadata>
  <g
     inkscape:label="Layer 1"
     inkscape:groupmode="layer"
     id="layer1"
     transform="translate(0,-52.362183)">
    <g
       transform="matrix(4.7609464,0,0,4.7609464,-1421.6669,-3910.0295)"
       id="g4143"
       style="fill:#000000;fill-opacity:1">
      <path
         style="fill:#000000;stroke:#000000;stroke-width:4.75137663000000020px;stroke-linecap:butt;stroke-linejoin:miter;stroke-opacity:1;fill-opacity:1"
         d="M 339.9375 16.59375 C 317.17032 17.932195 284.83102 14.77074 267.46875 31.8125 C 259.92851 44.014472 261.33783 58.89631 262.625 72.5 C 262.49013 86.108795 258.13807 98.754345 253.3125 111.28125 C 246.48356 112.70361 239.6083 113.96718 232.6875 115 C 219.37942 115.9977 205.63342 111.52398 192.6875 116.21875 C 181.55422 119.71695 172.77639 129.67147 172.53125 141.65625 C 170.1911 157.81904 180.44375 176.97778 197.96875 178.25 C 211.05949 177.81123 223.60454 173.16464 236.28125 170.09375 C 234.44812 180.59362 233.79168 191.20299 236.4375 201.6875 C 238.2107 210.23296 244.53268 216.45607 252.03125 220.3125 C 245.03225 221.76497 238.02391 223.17261 231 224.5 C 203.46245 239.00784 160.02668 225.51784 135 243.46875 C 126.69548 256.29288 131.01625 274.29618 139.6875 285.78125 C 153.66431 296.35688 172.7607 290.7463 189 294.125 C 213.84433 296.02609 239.45426 292.24488 261.1875 279.53125 C 314.78938 262.55895 379.41774 227.70145 438 233.5 C 457.33773 233.67996 469.30416 214.01702 473.0625 197.1875 C 476.2739 182.84039 465.28283 169.23114 451.46875 166.375 C 425.91094 160.21453 403.21367 177.38784 380.1875 185.28125 C 357.25802 193.25573 334.01516 200.31015 310.5625 206.53125 C 324.37819 193.78843 335.0894 176.30082 340.90625 160.96875 C 343.93197 151.1731 347.28461 141.47856 350.625 131.78125 C 360.5515 129.70689 370.63553 128.32407 380.96875 127.9375 C 405.13208 126.97917 429.41488 125.38173 453.5625 126.875 C 462.09488 130.17243 476.46246 130.4229 476.125 117.78125 C 472.80962 91.488114 447.17764 63.929188 423.46875 52.03125 C 405.4588 49.069608 392.76721 65.339288 377.40625 71.5 C 374.38413 72.623181 371.36887 73.747256 368.34375 74.875 C 374.69633 50.295808 368.2621 22.248664 339.9375 16.59375 z M 776.9375 268.9375 C 756.24183 268.97546 736.11604 280.44424 718.75 291 C 687.59199 296.55969 710.68688 339.44056 735.46875 328.5 C 760.02143 323.57175 785.48595 336.82738 789.5 362.78125 C 795.10675 381.27221 797.75957 400.31495 799 419.53125 C 785.73265 410.29103 768.53197 404.8906 752.5625 409.40625 C 741.31729 412.79504 738.70432 423.50621 739.53125 434.25 C 748.06377 458.92018 767.172 478.63004 785.21875 496.84375 C 788.80339 500.86168 793.34414 505.00897 798.65625 506.25 C 795.30926 562.89568 788.58159 619.37438 785 675.9375 C 785.6145 698.11232 774.37837 737.02967 745.40625 717.46875 C 736.225 708.9168 720.31538 712.72393 733.03125 725.875 C 749.82482 750.7478 747.80017 787.13272 774.71875 805.125 C 793.14285 820.63426 822.1683 818.88307 838.4375 801 C 861.89663 777.085 862.44637 740.41323 854.6875 709.78125 C 851.92191 613.67383 854.97293 516.31379 857.25 419.8125 C 858.33178 389.51184 871.04333 358.84183 860.875 328.71875 C 852.17985 298.70194 820.69301 283.77806 794.40625 271.84375 C 788.57295 269.79144 782.73229 268.92687 776.9375 268.9375 z M 605.71875 288.8125 C 591.66809 288.57744 577.59365 292.64198 566.1875 301.5625 C 548.68045 312.33052 554.28858 343.39264 531.21875 347.1875 C 525.73981 348.17302 519.5111 348.17987 515.09375 352.09375 C 500.44032 366.94724 509.4057 399.25356 532.75 397.59375 C 552.55235 397.49615 572.2598 393.29206 592.1875 393.78125 C 618.69483 384.22498 615.4189 420.26655 609.5 435.4375 C 608.37022 451.20659 608.36845 467.01924 608.6875 482.84375 C 605.2566 479.38142 601.49955 476.25428 597.40625 473.5625 C 583.43425 463.26843 565.6457 461.63079 549.65625 456.1875 C 548.43231 455.61581 546.99931 454.96407 545.65625 455.59375 C 536.0071 460.4085 534.45909 475.02004 542.15625 482.28125 C 559.46429 503.0644 570.97014 527.13432 595.4375 540.6875 C 600.02296 542.28615 605.02822 542.6487 609.84375 541.90625 C 609.81328 546.38049 609.71788 550.84139 609.5625 555.3125 C 610.04997 604.93503 597.62275 653.21442 585.34375 700.90625 C 575.95402 717.92806 586.47961 743.04964 572.90625 755.8125 C 554.50691 757.73868 536.05398 741.43238 527.0625 731.65625 C 527.60049 739.1884 526.43072 748.40535 526.96875 755.9375 C 546.09057 765.45154 564.57062 779.05451 566.15625 801.65625 C 575.27822 821.43703 594.97314 843.12396 618.53125 840.03125 C 642.52571 834.61377 644.50255 806.55849 643.5625 786.5 C 645.95745 660.7774 653.22489 535.38409 664.90625 410.15625 C 669.92472 379.30132 680.29708 343.06979 658.96875 315.84375 C 646.77335 298.7081 626.25433 289.15606 605.71875 288.8125 z M 403.25 306.5625 C 401.40174 306.63237 399.57966 306.82761 397.75 307.125 C 384.82217 308.26539 370.89118 307.37326 366.78125 322.21875 C 365.74571 336.31275 365.77129 350.42965 366.34375 364.53125 C 357.94945 366.0377 349.76425 368.32938 342.03125 372.4375 C 330.93615 377.48148 320.76589 389.30509 324.8125 402.1875 C 327.25986 413.5395 339.03024 417.68495 349 420.09375 C 356.1369 421.51846 363.34963 422.81536 370.59375 423.875 C 371.69846 437.71117 372.66942 451.55109 373 465.40625 C 373.22233 468.05334 373.71031 470.7931 374.40625 473.5 C 361.72626 477.91426 349.62867 483.90001 338.625 491.21875 C 328.0277 498.49962 316.92309 509.74646 319.34375 523.78125 C 322.2794 540.32897 340.69358 547.82839 355.875 547.625 C 386.77335 541.27528 418.10317 536.48598 449.25 530.90625 C 459.69099 530.40868 473.84795 528.56226 476.3125 516.125 C 480.03613 498.17019 472.80611 476.03493 454.96875 468.375 C 451.56591 467.55822 448.14636 466.9046 444.6875 466.375 C 448.78362 458.05395 451.24046 449.04284 451.625 440.6875 C 451.16111 433.12126 450.78911 425.57108 450.40625 418 C 452.18745 417.27945 453.95792 416.51586 455.71875 415.6875 C 465.89594 409.24775 479.14549 410.87972 488.71875 403.6875 C 501.90852 390.77429 500.15904 368.41641 490.5625 353.875 C 483.09286 342.51353 469.09687 330.72629 454.75 336.71875 C 451.81712 337.98371 449.04487 339.58006 446.34375 341.3125 C 445.24717 334.04271 442.79145 327.13097 437.34375 321.59375 C 429.23896 311.13865 416.18782 306.07338 403.25 306.5625 z M 183.03125 323.78125 C 179.27492 323.77065 175.14997 324.15495 170.625 324.9375 C 153.8957 325.62512 147.64824 335.38154 143.46875 350.375 C 144.57303 365.27468 145.8478 380.27061 147.34375 395.28125 C 133.77555 400.2774 120.25547 405.16984 107.84375 409.78125 C 100.78646 415.03791 90.920126 421.53332 92.90625 431.71875 C 96.875737 442.67135 109.33188 446.37598 119.375 449.6875 C 130.81292 451.88795 142.37988 450.56068 153.71875 448.15625 C 156.10988 464.88758 158.8777 481.52835 162.15625 498 C 163.56957 503.95235 165.12869 510.41357 167.21875 516.71875 C 148.38483 524.34272 127.02273 521.60546 108.3125 529.53125 C 106.96087 530.23159 105.64821 531.04446 104.4375 531.96875 C 97.204575 537.27859 87.572381 544.12261 89.40625 554.40625 C 93.582981 569.13652 108.22385 578.56127 122.875 580.375 C 162.95836 585.1678 202.82069 580.62554 242.15625 572.96875 C 261.95355 563.50423 284.83563 563.49863 286.6875 537.09375 C 284.81626 519.14098 270.04755 497.56818 252.3125 492.1875 C 244.20571 493.92392 236.28394 496.37941 228.4375 499.09375 C 228.40326 497.04489 228.34813 495.00295 228.3125 492.9375 C 228.71912 469.84672 228.77258 446.58711 227.25 423.5 C 233.01529 421.48 238.80878 419.56892 244.6875 417.875 C 259.34445 412.60749 273.36065 405.53442 286.84375 397.8125 C 296.47057 392.62473 296.49806 379.93275 290.875 371.78125 C 284.7181 361.08978 271.54534 355.14909 259.5 358.3125 C 246.11915 360.76418 233.0422 364.64232 219.71875 367.375 C 219.22487 365.10096 218.70337 362.8278 218.15625 360.5625 C 212.97735 335.58317 203.31541 323.83848 183.03125 323.78125 z M 478.75 544.5625 C 448.93829 553.14363 413.48985 560.837 381.5 570.34375 C 310.86712 591.79581 272.95487 603.75963 186.8125 616.125 C 171.85732 622.20349 140.66614 630.25191 123.125 633.78125 C 106.81852 642.60681 119.49272 663.46269 136.6875 667.28125 C 170.70775 669.74471 195.8218 665.54919 223.5625 657.25 C 227.28906 656.28712 231.02142 655.33281 234.75 654.375 C 216.19798 679.30726 210.39112 711.87587 191.375 736.78125 C 157.67902 785.89646 115.86799 828.68463 79.78125 875.9375 C 71.78843 880.45469 55.022315 897.94574 72.96875 900.15625 C 85.196574 897.53535 96.16536 890.90944 108.125 887.21875 C 135.21174 877.24123 156.71586 856.78601 173.34375 833.71875 C 211.70926 780.35754 254.12933 730.24249 290.625 675.53125 C 291.62908 677.87322 293.03688 680.18387 294.875 682.4375 C 307.80587 703.44613 310.35886 727.97942 306.53125 751.9375 C 300.64901 801.97652 299.10283 855.25749 321.71875 901.65625 C 403.80923 1038.423 649.67148 991.26275 781.40625 962.9375 C 829.77613 948.07716 874.59397 923.9295 921.59375 905.78125 C 949.48671 895.42667 953.65762 853.21891 925.59375 840.40625 C 901.33597 830.47634 880.80621 812.47544 877.28125 785.1875 C 866.66801 760.34702 860.55348 809.3297 857 820.875 C 853.22143 853.26753 821.07769 868.43369 792.4375 872.84375 C 746.50989 880.31748 699.36599 879.15761 653.71875 882.96875 C 581.04966 893.26953 506.90597 904.43616 433.5625 895.09375 C 400.61704 889.52487 361.45328 871.97034 356.65625 834.625 C 351.03909 799.54682 361.53003 760.05831 390.03125 737.25 C 411.35282 723.14151 412.17776 695.35128 396.1875 677.03125 C 381.53055 656.72339 357.53556 646.42583 333.53125 642.25 C 323.17696 634.91643 311.42768 636.14235 302.53125 641.84375 C 302.11633 640.48387 301.5867 639.15611 300.90625 637.84375 C 350.69656 625.86545 400.76201 615.07583 451.34375 607.0625 C 465.68244 603.71727 480.94728 601.37658 493.8125 594.03125 C 510.75504 579.63458 501.2619 546.85456 478.75 544.5625 z M 785.09375 552.90625 C 760.71009 558.18462 736.47932 568.81789 713.65625 579.46875 C 705.60935 583.28703 693.84403 583.90593 690.5625 593.75 C 686.65138 604.40428 689.24998 617.29853 696.90625 625.625 C 715.23028 636.37731 738.72033 638.44364 756.8125 626.65625 C 774.3544 612.12184 788.16313 588.18497 793.34375 565.9375 C 796.11733 559.88857 791.649 553.06036 785.09375 552.90625 z M 555.625 574.03125 C 554.52391 574.07361 553.44639 574.19765 552.4375 574.375 C 528.57173 585.62397 500.86688 595.06656 483.25 615.9375 C 482.54824 616.77809 481.83549 617.64108 481.15625 618.5 C 473.78245 627.67163 469.77188 640.74249 474.78125 651.96875 C 478.28878 661.06897 486.56732 668.61275 496.5625 669.34375 C 516.55195 671.07212 536.8827 661.16315 548.71875 645.125 C 562.36238 625.34622 563.02573 602.38301 567.28125 580.0625 C 565.58234 575.16945 560.39638 573.84768 555.625 574.03125 z "
         transform="matrix(0.21004227,0,0,0.21004227,298.61015,832.26975)"
         id="path12335" />
    </g>
  </g>
</svg>
