<?xml version="1.0" encoding="UTF-8" standalone="no"?>
<!-- Created with Inkscape (http://www.inkscape.org/) -->

<svg
   xmlns:dc="http://purl.org/dc/elements/1.1/"
   xmlns:cc="http://creativecommons.org/ns#"
   xmlns:rdf="http://www.w3.org/1999/02/22-rdf-syntax-ns#"
   xmlns:svg="http://www.w3.org/2000/svg"
   xmlns="http://www.w3.org/2000/svg"
   xmlns:sodipodi="http://sodipodi.sourceforge.net/DTD/sodipodi-0.dtd"
   xmlns:inkscape="http://www.inkscape.org/namespaces/inkscape"
   width="1000"
   height="1000"
   id="svg3173"
   version="1.1"
   inkscape:version="0.47 r22583"
   sodipodi:docname="8002.svg"
   inkscape:export-filename="E:\chinese\yan\8002.png"
   inkscape:export-xdpi="18.005705"
   inkscape:export-ydpi="18.005705">
  <title
     id="title2823">Xiao</title>
  <defs
     id="defs3175">
    <inkscape:perspective
       sodipodi:type="inkscape:persp3d"
       inkscape:vp_x="0 : 526.18109 : 1"
       inkscape:vp_y="0 : 1000 : 0"
       inkscape:vp_z="744.09448 : 526.18109 : 1"
       inkscape:persp3d-origin="372.04724 : 350.78739 : 1"
       id="perspective3181" />
    <inkscape:perspective
       id="perspective3191"
       inkscape:persp3d-origin="0.5 : 0.33333333 : 1"
       inkscape:vp_z="1 : 0.5 : 1"
       inkscape:vp_y="0 : 1000 : 0"
       inkscape:vp_x="0 : 0.5 : 1"
       sodipodi:type="inkscape:persp3d" />
    <inkscape:perspective
       id="perspective4006"
       inkscape:persp3d-origin="0.5 : 0.33333333 : 1"
       inkscape:vp_z="1 : 0.5 : 1"
       inkscape:vp_y="0 : 1000 : 0"
       inkscape:vp_x="0 : 0.5 : 1"
       sodipodi:type="inkscape:persp3d" />
    <inkscape:perspective
       id="perspective4034"
       inkscape:persp3d-origin="0.5 : 0.33333333 : 1"
       inkscape:vp_z="1 : 0.5 : 1"
       inkscape:vp_y="0 : 1000 : 0"
       inkscape:vp_x="0 : 0.5 : 1"
       sodipodi:type="inkscape:persp3d" />
    <inkscape:perspective
       id="perspective4081"
       inkscape:persp3d-origin="0.5 : 0.33333333 : 1"
       inkscape:vp_z="1 : 0.5 : 1"
       inkscape:vp_y="0 : 1000 : 0"
       inkscape:vp_x="0 : 0.5 : 1"
       sodipodi:type="inkscape:persp3d" />
    <inkscape:perspective
       id="perspective4147"
       inkscape:persp3d-origin="0.5 : 0.33333333 : 1"
       inkscape:vp_z="1 : 0.5 : 1"
       inkscape:vp_y="0 : 1000 : 0"
       inkscape:vp_x="0 : 0.5 : 1"
       sodipodi:type="inkscape:persp3d" />
    <inkscape:perspective
       id="perspective3801"
       inkscape:persp3d-origin="0.5 : 0.33333333 : 1"
       inkscape:vp_z="1 : 0.5 : 1"
       inkscape:vp_y="0 : 1000 : 0"
       inkscape:vp_x="0 : 0.5 : 1"
       sodipodi:type="inkscape:persp3d" />
    <inkscape:perspective
       id="perspective3122"
       inkscape:persp3d-origin="0.5 : 0.33333333 : 1"
       inkscape:vp_z="1 : 0.5 : 1"
       inkscape:vp_y="0 : 1000 : 0"
       inkscape:vp_x="0 : 0.5 : 1"
       sodipodi:type="inkscape:persp3d" />
    <inkscape:perspective
       id="perspective3854"
       inkscape:persp3d-origin="0.5 : 0.33333333 : 1"
       inkscape:vp_z="1 : 0.5 : 1"
       inkscape:vp_y="0 : 1000 : 0"
       inkscape:vp_x="0 : 0.5 : 1"
       sodipodi:type="inkscape:persp3d" />
    <inkscape:perspective
       id="perspective3767"
       inkscape:persp3d-origin="0.5 : 0.33333333 : 1"
       inkscape:vp_z="1 : 0.5 : 1"
       inkscape:vp_y="0 : 1000 : 0"
       inkscape:vp_x="0 : 0.5 : 1"
       sodipodi:type="inkscape:persp3d" />
  </defs>
  <sodipodi:namedview
     id="base"
     pagecolor="#ffffff"
     bordercolor="#666666"
     borderopacity="1.0"
     inkscape:pageopacity="0.0"
     inkscape:pageshadow="2"
     inkscape:zoom="0.49497475"
     inkscape:cx="444.68522"
     inkscape:cy="520.83683"
     inkscape:document-units="px"
     inkscape:current-layer="g4634"
     showgrid="false"
     inkscape:window-width="1440"
     inkscape:window-height="840"
     inkscape:window-x="-4"
     inkscape:window-y="-4"
     inkscape:window-maximized="1" />
  <metadata
     id="metadata3178">
    <rdf:RDF>
      <cc:Work
         rdf:about="">
        <dc:format>image/svg+xml</dc:format>
        <dc:type
           rdf:resource="http://purl.org/dc/dcmitype/StillImage" />
        <dc:title>Xiao</dc:title>
        <dc:date>2010-08-10</dc:date>
        <dc:creator>
          <cc:Agent>
            <dc:title>Alex Amies</dc:title>
          </cc:Agent>
        </dc:creator>
        <dc:rights>
          <cc:Agent>
            <dc:title>@ Alex Amies 2010</dc:title>
          </cc:Agent>
        </dc:rights>
        <dc:publisher>
          <cc:Agent>
            <dc:title>chinesenotes.com</dc:title>
          </cc:Agent>
        </dc:publisher>
        <dc:source>Yan Qin Ceremonial Inscription</dc:source>
        <dc:language>Chinese 中文</dc:language>
        <dc:description>Tracing from Tang Dynasty Ceremonial Inscription by Yan Zhenqing 颜真卿 (709－785)</dc:description>
        <cc:license
           rdf:resource="http://creativecommons.org/licenses/by/3.0/" />
      </cc:Work>
      <cc:License
         rdf:about="http://creativecommons.org/licenses/by/3.0/">
        <cc:permits
           rdf:resource="http://creativecommons.org/ns#Reproduction" />
        <cc:permits
           rdf:resource="http://creativecommons.org/ns#Distribution" />
        <cc:requires
           rdf:resource="http://creativecommons.org/ns#Notice" />
        <cc:requires
           rdf:resource="http://creativecommons.org/ns#Attribution" />
        <cc:permits
           rdf:resource="http://creativecommons.org/ns#DerivativeWorks" />
      </cc:License>
    </rdf:RDF>
  </metadata>
  <g
     inkscape:label="Layer 1"
     inkscape:groupmode="layer"
     id="layer1"
     transform="translate(0,-52.362183)">
    <g
       transform="matrix(4.7609464,0,0,4.7609464,-444.07486,-2879.5352)"
       id="g4634"
       style="fill:#000000;fill-opacity:1">
      <g
         transform="matrix(0.97028095,0,0,0.97028095,-365.9088,208.62447)"
         id="g5893"
         style="fill:none;fill-opacity:1">
        <path
           style="fill:#000000;stroke:#000000;stroke-width:4.61945580999999980px;stroke-linecap:butt;stroke-linejoin:miter;stroke-opacity:1;fill-opacity:1"
           d="M 514.59375 4.1875 C 497.42587 4.1875 479.92074 17.375 461.78125 17.375 C 457.34754 17.375 450.04938 19.879908 450.25 24 C 453.714 56.907391 457.87905 89.722626 461.75 122.59375 C 426.50847 127.85023 391.31104 133.34029 356.21875 139.46875 C 348.41363 134.84421 333.0432 128.65188 323.125 132.40625 C 322.05001 132.55962 320.98124 132.72163 319.90625 132.875 C 312.32207 138.99024 310.7582 151.66818 315.46875 159.375 C 338.39132 178.03293 361.32743 196.71707 384.25 215.375 C 390.29927 216.47489 396.35698 217.55636 402.40625 218.65625 C 414.21556 209.83725 422.54138 194.5942 437.125 190.71875 C 447.35735 187.25484 457.70609 184.27231 468.125 181.59375 C 469.54778 196.73502 470.77629 211.89998 471.6875 227.09375 C 472.51165 247.12902 466.53478 270.04987 471.53125 287.375 C 396.24248 297.18765 321.03353 307.53908 246.6875 323.96875 C 223.25282 329.00848 199.80968 334.05402 176.375 339.09375 C 159.89583 337.95635 140.56361 323.72159 125.21875 334.15625 C 113.63565 360.7354 138.65265 387.31514 158.5 402.28125 C 178.84344 421.2564 211.11558 419.35882 229.875 399.125 C 257.57367 381.84944 290.29506 375.20089 320.65625 363.875 C 381.74889 348.99615 443.46464 335.92011 505.5625 324.46875 C 499.84947 330.19194 494.10274 335.88527 488.28125 341.5 C 383.15898 445.20327 276.82165 547.69373 172.46875 652.15625 C 141.87493 684.18418 111.28132 716.22211 80.6875 748.25 C 96.709065 754.46622 107.45473 738.7518 120.34375 731.9375 C 236.07954 660.83576 334.71263 567.22801 430.4375 471.625 C 485.09608 417.60603 539.57783 363.39204 594.125 309.25 C 662.0635 298.4124 730.28254 289.38878 798.4375 281.96875 C 834.46329 286.14566 868.66921 301.90453 904.96875 304.90625 C 941.0437 295.86334 897.87515 253.23319 894.9375 231.03125 C 890.52971 196.48012 860.72008 201.49409 838.875 216.65625 C 799.05012 237.67482 753.52335 240.62777 710.5 251.40625 C 686.97676 256.08865 663.3645 260.26094 639.71875 264.0625 C 678.69636 225.44258 717.70516 186.87635 756.875 148.46875 C 767.9519 137.94605 786.67082 130.69395 791.75 117.6875 C 796.24662 106.17295 792.09903 93.401755 780.9375 84.78125 C 770.8985 77.027863 764.22566 61.226266 753.46875 57.21875 C 734.28577 57.111117 727.7447 63.513811 717.75 79.9375 C 662.74672 145.82974 609.03801 213.56731 550.90625 277 C 542.26024 278.16114 533.61856 279.30461 524.96875 280.4375 C 533.30204 261.93018 537.12323 240.72127 538.0625 220.90625 C 540.22976 202.99918 539.91117 184.98699 538.90625 166.96875 C 566.50254 162.04448 594.12506 157.31061 621.15625 150.375 C 629.55405 147.30172 631.98691 130.41297 625.625 123.375 C 614.57651 106.89098 621.74363 92.594727 601.53125 85.21875 C 594.78943 81.77587 587.55705 86.036711 580.5625 86.6875 C 577.81282 93.286716 575.06218 99.869534 572.3125 106.46875 C 560.07111 108.25782 547.84055 110.0118 535.59375 111.78125 C 535.27229 100.98074 535.38034 90.195192 536.28125 79.46875 C 537.96038 68.163325 548.08587 58.152588 549.21875 47.09375 C 550.2063 37.453362 548.34518 24.457087 542.625 17.375 C 536.79654 10.158764 524.37268 4.1875 514.59375 4.1875 z "
           transform="matrix(0.21647573,0,0,0.21647573,473.24777,419.67012)"
           id="path5864" />
      </g>
    </g>
  </g>
</svg>
