<?xml version="1.0" encoding="UTF-8" standalone="no"?>
<!-- Created with Inkscape (http://www.inkscape.org/) -->

<svg
   xmlns:dc="http://purl.org/dc/elements/1.1/"
   xmlns:cc="http://creativecommons.org/ns#"
   xmlns:rdf="http://www.w3.org/1999/02/22-rdf-syntax-ns#"
   xmlns:svg="http://www.w3.org/2000/svg"
   xmlns="http://www.w3.org/2000/svg"
   xmlns:sodipodi="http://sodipodi.sourceforge.net/DTD/sodipodi-0.dtd"
   xmlns:inkscape="http://www.inkscape.org/namespaces/inkscape"
   width="1000"
   height="1000"
   id="svg3173"
   version="1.1"
   inkscape:version="0.47 r22583"
   sodipodi:docname="805e.svg"
   inkscape:export-filename="E:\chinese\yan\805e.png"
   inkscape:export-xdpi="17.961918"
   inkscape:export-ydpi="17.961918">
  <title
     id="title3657">Wen</title>
  <defs
     id="defs3175">
    <inkscape:perspective
       sodipodi:type="inkscape:persp3d"
       inkscape:vp_x="0 : 526.18109 : 1"
       inkscape:vp_y="0 : 1000 : 0"
       inkscape:vp_z="744.09448 : 526.18109 : 1"
       inkscape:persp3d-origin="372.04724 : 350.78739 : 1"
       id="perspective3181" />
    <inkscape:perspective
       id="perspective3191"
       inkscape:persp3d-origin="0.5 : 0.33333333 : 1"
       inkscape:vp_z="1 : 0.5 : 1"
       inkscape:vp_y="0 : 1000 : 0"
       inkscape:vp_x="0 : 0.5 : 1"
       sodipodi:type="inkscape:persp3d" />
    <inkscape:perspective
       id="perspective4006"
       inkscape:persp3d-origin="0.5 : 0.33333333 : 1"
       inkscape:vp_z="1 : 0.5 : 1"
       inkscape:vp_y="0 : 1000 : 0"
       inkscape:vp_x="0 : 0.5 : 1"
       sodipodi:type="inkscape:persp3d" />
    <inkscape:perspective
       id="perspective4034"
       inkscape:persp3d-origin="0.5 : 0.33333333 : 1"
       inkscape:vp_z="1 : 0.5 : 1"
       inkscape:vp_y="0 : 1000 : 0"
       inkscape:vp_x="0 : 0.5 : 1"
       sodipodi:type="inkscape:persp3d" />
    <inkscape:perspective
       id="perspective4081"
       inkscape:persp3d-origin="0.5 : 0.33333333 : 1"
       inkscape:vp_z="1 : 0.5 : 1"
       inkscape:vp_y="0 : 1000 : 0"
       inkscape:vp_x="0 : 0.5 : 1"
       sodipodi:type="inkscape:persp3d" />
    <inkscape:perspective
       id="perspective4147"
       inkscape:persp3d-origin="0.5 : 0.33333333 : 1"
       inkscape:vp_z="1 : 0.5 : 1"
       inkscape:vp_y="0 : 1000 : 0"
       inkscape:vp_x="0 : 0.5 : 1"
       sodipodi:type="inkscape:persp3d" />
    <inkscape:perspective
       id="perspective3858"
       inkscape:persp3d-origin="0.5 : 0.33333333 : 1"
       inkscape:vp_z="1 : 0.5 : 1"
       inkscape:vp_y="0 : 1000 : 0"
       inkscape:vp_x="0 : 0.5 : 1"
       sodipodi:type="inkscape:persp3d" />
    <inkscape:perspective
       id="perspective3876"
       inkscape:persp3d-origin="0.5 : 0.33333333 : 1"
       inkscape:vp_z="1 : 0.5 : 1"
       inkscape:vp_y="0 : 1000 : 0"
       inkscape:vp_x="0 : 0.5 : 1"
       sodipodi:type="inkscape:persp3d" />
    <inkscape:perspective
       id="perspective3901"
       inkscape:persp3d-origin="0.5 : 0.33333333 : 1"
       inkscape:vp_z="1 : 0.5 : 1"
       inkscape:vp_y="0 : 1000 : 0"
       inkscape:vp_x="0 : 0.5 : 1"
       sodipodi:type="inkscape:persp3d" />
    <inkscape:perspective
       id="perspective5282"
       inkscape:persp3d-origin="0.5 : 0.33333333 : 1"
       inkscape:vp_z="1 : 0.5 : 1"
       inkscape:vp_y="0 : 1000 : 0"
       inkscape:vp_x="0 : 0.5 : 1"
       sodipodi:type="inkscape:persp3d" />
    <inkscape:perspective
       id="perspective6657"
       inkscape:persp3d-origin="0.5 : 0.33333333 : 1"
       inkscape:vp_z="1 : 0.5 : 1"
       inkscape:vp_y="0 : 1000 : 0"
       inkscape:vp_x="0 : 0.5 : 1"
       sodipodi:type="inkscape:persp3d" />
    <inkscape:perspective
       id="perspective7221"
       inkscape:persp3d-origin="0.5 : 0.33333333 : 1"
       inkscape:vp_z="1 : 0.5 : 1"
       inkscape:vp_y="0 : 1000 : 0"
       inkscape:vp_x="0 : 0.5 : 1"
       sodipodi:type="inkscape:persp3d" />
    <inkscape:perspective
       id="perspective3026"
       inkscape:persp3d-origin="0.5 : 0.33333333 : 1"
       inkscape:vp_z="1 : 0.5 : 1"
       inkscape:vp_y="0 : 1000 : 0"
       inkscape:vp_x="0 : 0.5 : 1"
       sodipodi:type="inkscape:persp3d" />
    <inkscape:perspective
       id="perspective3843"
       inkscape:persp3d-origin="0.5 : 0.33333333 : 1"
       inkscape:vp_z="1 : 0.5 : 1"
       inkscape:vp_y="0 : 1000 : 0"
       inkscape:vp_x="0 : 0.5 : 1"
       sodipodi:type="inkscape:persp3d" />
    <inkscape:perspective
       id="perspective3794"
       inkscape:persp3d-origin="0.5 : 0.33333333 : 1"
       inkscape:vp_z="1 : 0.5 : 1"
       inkscape:vp_y="0 : 1000 : 0"
       inkscape:vp_x="0 : 0.5 : 1"
       sodipodi:type="inkscape:persp3d" />
    <inkscape:perspective
       id="perspective3814"
       inkscape:persp3d-origin="0.5 : 0.33333333 : 1"
       inkscape:vp_z="1 : 0.5 : 1"
       inkscape:vp_y="0 : 1000 : 0"
       inkscape:vp_x="0 : 0.5 : 1"
       sodipodi:type="inkscape:persp3d" />
  </defs>
  <sodipodi:namedview
     id="base"
     pagecolor="#ffffff"
     bordercolor="#666666"
     borderopacity="1.0"
     inkscape:pageopacity="0.0"
     inkscape:pageshadow="2"
     inkscape:zoom="0.49497475"
     inkscape:cx="215.27273"
     inkscape:cy="515.73061"
     inkscape:document-units="px"
     inkscape:current-layer="layer1"
     showgrid="false"
     inkscape:window-width="1440"
     inkscape:window-height="840"
     inkscape:window-x="-4"
     inkscape:window-y="-4"
     inkscape:window-maximized="1" />
  <metadata
     id="metadata3178">
    <rdf:RDF>
      <cc:Work
         rdf:about="">
        <dc:format>image/svg+xml</dc:format>
        <dc:type
           rdf:resource="http://purl.org/dc/dcmitype/StillImage" />
        <dc:title>Wen</dc:title>
        <dc:date>2010-07-14</dc:date>
        <dc:creator>
          <cc:Agent>
            <dc:title>Alex Amies</dc:title>
          </cc:Agent>
        </dc:creator>
        <dc:rights>
          <cc:Agent>
            <dc:title>Copyright Alex Amies 2010</dc:title>
          </cc:Agent>
        </dc:rights>
        <dc:publisher>
          <cc:Agent>
            <dc:title>chinesenotes.com</dc:title>
          </cc:Agent>
        </dc:publisher>
        <dc:source>Yan Qin Ceremonial Inscription</dc:source>
        <dc:language>Chinese 中文</dc:language>
        <dc:description>Tracing from Tang Dynasty Ceremonial Inscription by Yan Zhenqing 颜真卿 (709－785)</dc:description>
        <cc:license
           rdf:resource="http://creativecommons.org/licenses/by/3.0/" />
      </cc:Work>
      <cc:License
         rdf:about="http://creativecommons.org/licenses/by/3.0/">
        <cc:permits
           rdf:resource="http://creativecommons.org/ns#Reproduction" />
        <cc:permits
           rdf:resource="http://creativecommons.org/ns#Distribution" />
        <cc:requires
           rdf:resource="http://creativecommons.org/ns#Notice" />
        <cc:requires
           rdf:resource="http://creativecommons.org/ns#Attribution" />
        <cc:permits
           rdf:resource="http://creativecommons.org/ns#DerivativeWorks" />
      </cc:License>
    </rdf:RDF>
  </metadata>
  <g
     inkscape:label="Layer 1"
     inkscape:groupmode="layer"
     id="layer1"
     transform="translate(0,-52.362183)">
    <g
       transform="matrix(4.7418067,0,0,4.7418067,-2414.6579,-998.95331)"
       id="g3771"
       style="fill:#000000;fill-opacity:1">
      <path
         sodipodi:nodetypes="ccccccccccc"
         id="path4886"
         d="m 533.74944,260.03457 c 0.666,22.30045 4.88044,45.00601 2.8337,67.34382 -2.02419,26.27902 -3.76432,52.58745 -5.58036,78.87564 -2.81387,8.53916 5.55134,9.69192 12.46821,9.80661 5.02677,-2.27516 5.86465,-12.9794 5.88044,-17.958 0.0625,-12.87586 0.51554,-25.73886 1.28337,-38.59149 1.17152,-18.65957 1.09201,-37.36318 1.50079,-56.048 -0.026,-6.64676 -0.57295,-13.37123 -0.21409,-19.97071 1.0726,-2.63849 2.61314,-5.1998 3.40322,-7.88489 -1.12515,-8.54404 -6.05624,-14.43438 -13.53882,-18.95965 -3.43357,-1.08659 -8.05843,-1.51689 -8.03646,3.38667 z"
         style="fill:#000000;fill-opacity:1;stroke:#000000;stroke-width:1px;stroke-linecap:butt;stroke-linejoin:miter;stroke-opacity:1" />
      <path
         style="fill:#000000;stroke:#000000;stroke-width:4.74180651000000000px;stroke-linecap:butt;stroke-linejoin:miter;stroke-opacity:1;fill-opacity:1"
         d="M 366.03125 33.5625 C 323.89513 36.212743 298.0511 47.737956 256 60.65625 C 241.71289 62.841132 226.24148 61.132907 212.6875 65.84375 C 210.19378 67.50618 207.68122 69.150023 205.1875 70.8125 C 205.76406 80.962574 202.20079 93.128184 211.4375 100.21875 C 228.00324 125.92878 253.07796 114.40152 275.96875 101.78125 C 289.97605 96.511396 304.44743 92.499204 318.65625 87.75 C 331.02141 102.37705 321.52956 121.8191 321.90625 138.875 C 321.2145 152.91325 320.39546 166.97832 319.59375 181.0625 C 301.90465 181.30686 283.99332 181.0144 267.0625 175.40625 C 247.31894 168.5174 236.73022 171.80994 230.59375 192.75 C 255.37418 245.66711 270.54032 232.71136 316.65625 236.875 C 314.97439 273.50861 314.1031 310.16173 315.78125 346.6875 C 316.39593 349.4518 316.99508 351.96116 317.625 354.21875 C 309.43292 358.16849 300.67512 362.06856 291.21875 365.875 C 271.45504 370.27521 251.15843 373.06841 232.28125 380.71875 C 217.41398 409.01017 251.0973 431.62393 267.90625 452.9375 C 282.40873 464.02674 300.55075 452.59961 312.6875 443.28125 C 373.9552 370.76414 447.3986 345.89981 491.71875 232.0625 C 443.65066 259.76145 416.55143 289.15264 378.90625 317.09375 C 380.06465 311.80341 380.98642 306.5292 381.59375 301.3125 C 382.65629 247.56682 383.24867 193.74743 385.15625 140.03125 C 390.68098 111.68573 393.93885 91.73758 394.4375 63.0625 C 394.55842 56.098872 376.03129 43.398809 366.03125 33.5625 z "
         transform="matrix(0.21089008,0,0,0.21089008,509.2274,221.71201)"
         id="path4888" />
      <path
         style="fill:#000000;stroke:#000000;stroke-width:4.74180651000000000px;stroke-linecap:butt;stroke-linejoin:miter;stroke-opacity:1;fill-opacity:1"
         d="M 808.59375 19.1875 C 770.41168 20.903181 732.38915 28.281732 695.0625 36.375 C 663.60834 50.302682 627.18916 39.55101 596.53125 50.15625 C 596.39709 50.252074 596.25916 50.341673 596.125 50.4375 C 590.00221 45.947442 583.87279 41.427545 577.75 36.9375 C 571.06073 44.377442 559.62804 49.055301 558.78125 60.15625 C 555.69618 74.379868 549.14591 88.315958 551.09375 103.125 C 553.86377 171.98632 551.85052 240.91153 550.65625 309.78125 L 550.65625 350.25 C 568.24318 358.28547 587.20886 362.52442 605.53125 368.46875 C 606.25404 367.41082 606.93824 366.31988 607.59375 365.1875 C 617.2933 371.60233 631.59436 374.23159 647.1875 373.96875 C 671.56209 346.3821 706.5231 334.61322 728.46875 304.53125 C 697.41438 290.53292 650.21512 308.28621 613.4375 320.15625 C 611.25323 285.00012 611.12505 249.77081 611.9375 214.5625 C 622.03716 217.58015 631.803 216.65823 644.09375 214.625 C 667.34079 201.8556 694.00066 200.99854 716.78125 187.40625 C 724.46217 175.1511 722.51792 154.86485 702.53125 150.75 C 673.45975 145.20283 645.2081 153.08132 613.96875 156 C 614.03535 137.1316 616.40649 118.43245 618.4375 99.71875 C 628.34318 100.85821 638.7832 99.516374 647.28125 95.25 C 683.4482 91.537782 719.42316 85.432731 751.78125 68 C 781.42665 70.744795 781.72976 118.89644 780 143.90625 C 771.87847 370.29082 762.24694 596.70373 756.84375 823.1875 C 754.82488 880.45454 682.53893 807.8187 673.625 832.34375 C 684.39578 858.28281 713.35253 873.48279 721.5 902.25 C 732.41099 937.08483 747.45829 974.31088 784.625 988.0625 C 819.09504 985.24999 819.83322 945.13256 835.5625 921.6875 C 849.98371 883.00085 851.86836 840.81806 859.84375 800.46875 C 875.83692 662.98059 877.78855 524.26174 878.65625 385.96875 C 874.89282 284.33377 877.14983 182.50131 870.75 80.96875 C 859.90914 56.462761 841.55651 20.110018 808.59375 19.1875 z "
         transform="matrix(0.21089008,0,0,0.21089008,509.2274,221.71201)"
         id="path4892" />
      <path
         style="fill:#000000;stroke:#000000;stroke-width:4.74180651000000000px;stroke-linecap:butt;stroke-linejoin:miter;stroke-opacity:1;fill-opacity:1"
         d="M 565.8125 368.46875 C 552.95699 368.58006 540.04944 369.52359 527.3125 369.40625 C 490.83146 375.41948 454.03071 380.97362 417.875 388.625 C 403.87743 392.89674 393.97661 400.30521 384.875 409.5 C 380.29232 406.1301 374.37469 405.21596 364.375 406.125 C 355.0693 417.27645 338.93017 424.34901 335.3125 439.0625 C 325.46932 509.85473 329.83049 583.76794 331.125 655.46875 C 333.40081 710.86453 345.55597 764.03094 356.28125 817.875 C 341.01445 826.74326 325.75594 835.64296 309.875 843.28125 C 294.258 846.29514 288.32029 854.49333 279.71875 866.78125 C 281.90662 878.28122 284.78585 890.85733 295.75 897.15625 C 310.56468 908.47276 338.51819 926.53459 356 911.15625 C 368.01877 894.1032 380.62464 877.23514 396.84375 863.90625 C 426.54534 830.67766 455.83886 801.06669 491.40625 774.71875 C 511.58311 767.30361 491.93524 740.92396 477.375 751.40625 C 450.99651 762.7476 426.13542 777.17628 401.375 791.71875 C 401.00057 752.28959 400.80067 712.86269 400.6875 673.4375 C 455.90665 673.32422 484.66969 665.45813 486.4375 627.0625 C 460.63836 612.73249 439.2068 609.39185 400.625 647.4375 C 400.5561 614.82641 400.51831 582.20623 400.46875 549.59375 C 430.19201 552.2771 454.53874 554.06878 479.53125 534.84375 L 489.6875 511.125 C 482.26074 499.46238 477.93603 502.08384 466 506.0625 C 448.91859 500.47561 432.14466 493.75347 414.84375 488.90625 C 409.12258 487.67723 404.38363 486.9524 400.3125 486.71875 C 400.29674 481.50205 400.30015 476.27933 400.28125 471.0625 C 399.43555 464.18971 400.75916 456.80972 401.375 449.59375 C 408.93826 449.9538 416.81373 448.95897 423.5625 447.40625 C 447.71873 446.00215 472.23388 446.01318 496.0625 449.9375 C 514.9182 462.1303 506.11907 486.07476 507.09375 504.53125 C 503.94253 590.6528 500.21397 676.77342 502.5 762.96875 C 502.29041 799.75692 503.41676 836.51975 510.0625 872.78125 C 513.80473 903.53623 520.70571 933.73812 527.5625 963.875 C 544.18234 982.23063 548.38096 939.65592 557.09375 929.78125 C 570.73887 906.8778 574.01251 880.88452 575.875 854.8125 C 584.28118 774.44997 595.84113 694.37627 602.59375 613.875 C 606.94308 555.70626 602.98175 495.81584 621.0625 439.625 C 634.87088 411.08136 640.19994 380.68574 603.875 372.59375 C 591.44767 369.07512 578.66801 368.35744 565.8125 368.46875 z "
         transform="matrix(0.21089008,0,0,0.21089008,509.2274,221.71201)"
         id="path4902" />
    </g>
  </g>
</svg>
