<?xml version="1.0" encoding="UTF-8" standalone="no"?>
<!-- Created with Inkscape (http://www.inkscape.org/) -->

<svg
   xmlns:dc="http://purl.org/dc/elements/1.1/"
   xmlns:cc="http://creativecommons.org/ns#"
   xmlns:rdf="http://www.w3.org/1999/02/22-rdf-syntax-ns#"
   xmlns:svg="http://www.w3.org/2000/svg"
   xmlns="http://www.w3.org/2000/svg"
   xmlns:sodipodi="http://sodipodi.sourceforge.net/DTD/sodipodi-0.dtd"
   xmlns:inkscape="http://www.inkscape.org/namespaces/inkscape"
   width="1000"
   height="1000"
   id="svg3173"
   version="1.1"
   inkscape:version="0.47 r22583"
   sodipodi:docname="80fd.svg"
   inkscape:export-filename="E:\chinese\yan\80df.png"
   inkscape:export-xdpi="18.005705"
   inkscape:export-ydpi="18.005705">
  <title
     id="title4672">Neng</title>
  <defs
     id="defs3175">
    <inkscape:perspective
       sodipodi:type="inkscape:persp3d"
       inkscape:vp_x="0 : 526.18109 : 1"
       inkscape:vp_y="0 : 1000 : 0"
       inkscape:vp_z="744.09448 : 526.18109 : 1"
       inkscape:persp3d-origin="372.04724 : 350.78739 : 1"
       id="perspective3181" />
    <inkscape:perspective
       id="perspective3191"
       inkscape:persp3d-origin="0.5 : 0.33333333 : 1"
       inkscape:vp_z="1 : 0.5 : 1"
       inkscape:vp_y="0 : 1000 : 0"
       inkscape:vp_x="0 : 0.5 : 1"
       sodipodi:type="inkscape:persp3d" />
    <inkscape:perspective
       id="perspective4006"
       inkscape:persp3d-origin="0.5 : 0.33333333 : 1"
       inkscape:vp_z="1 : 0.5 : 1"
       inkscape:vp_y="0 : 1000 : 0"
       inkscape:vp_x="0 : 0.5 : 1"
       sodipodi:type="inkscape:persp3d" />
    <inkscape:perspective
       id="perspective4034"
       inkscape:persp3d-origin="0.5 : 0.33333333 : 1"
       inkscape:vp_z="1 : 0.5 : 1"
       inkscape:vp_y="0 : 1000 : 0"
       inkscape:vp_x="0 : 0.5 : 1"
       sodipodi:type="inkscape:persp3d" />
    <inkscape:perspective
       id="perspective4081"
       inkscape:persp3d-origin="0.5 : 0.33333333 : 1"
       inkscape:vp_z="1 : 0.5 : 1"
       inkscape:vp_y="0 : 1000 : 0"
       inkscape:vp_x="0 : 0.5 : 1"
       sodipodi:type="inkscape:persp3d" />
    <inkscape:perspective
       id="perspective4147"
       inkscape:persp3d-origin="0.5 : 0.33333333 : 1"
       inkscape:vp_z="1 : 0.5 : 1"
       inkscape:vp_y="0 : 1000 : 0"
       inkscape:vp_x="0 : 0.5 : 1"
       sodipodi:type="inkscape:persp3d" />
    <inkscape:perspective
       id="perspective3816"
       inkscape:persp3d-origin="0.5 : 0.33333333 : 1"
       inkscape:vp_z="1 : 0.5 : 1"
       inkscape:vp_y="0 : 1000 : 0"
       inkscape:vp_x="0 : 0.5 : 1"
       sodipodi:type="inkscape:persp3d" />
    <inkscape:perspective
       id="perspective3897"
       inkscape:persp3d-origin="0.5 : 0.33333333 : 1"
       inkscape:vp_z="1 : 0.5 : 1"
       inkscape:vp_y="0 : 1000 : 0"
       inkscape:vp_x="0 : 0.5 : 1"
       sodipodi:type="inkscape:persp3d" />
  </defs>
  <sodipodi:namedview
     id="base"
     pagecolor="#ffffff"
     bordercolor="#666666"
     borderopacity="1.0"
     inkscape:pageopacity="0.0"
     inkscape:pageshadow="2"
     inkscape:zoom="0.49497475"
     inkscape:cx="625.55267"
     inkscape:cy="513.93908"
     inkscape:document-units="px"
     inkscape:current-layer="layer1"
     showgrid="false"
     inkscape:window-width="1440"
     inkscape:window-height="840"
     inkscape:window-x="-4"
     inkscape:window-y="-4"
     inkscape:window-maximized="1" />
  <metadata
     id="metadata3178">
    <rdf:RDF>
      <cc:Work
         rdf:about="">
        <dc:format>image/svg+xml</dc:format>
        <dc:type
           rdf:resource="http://purl.org/dc/dcmitype/StillImage" />
        <dc:title>Neng</dc:title>
        <dc:date>2010-08-03</dc:date>
        <dc:creator>
          <cc:Agent>
            <dc:title>Alex Amies</dc:title>
          </cc:Agent>
        </dc:creator>
        <dc:rights>
          <cc:Agent>
            <dc:title>@ Alex Amies 2010</dc:title>
          </cc:Agent>
        </dc:rights>
        <dc:publisher>
          <cc:Agent>
            <dc:title>chinesenotes.com</dc:title>
          </cc:Agent>
        </dc:publisher>
        <dc:source>Yan Qin Ceremonial Inscription</dc:source>
        <dc:language>Chinese 中文</dc:language>
        <dc:description>Tracing from Tang Dynasty Ceremonial Inscription by Yan Zhenqing 颜真卿 (709－785)</dc:description>
        <cc:license
           rdf:resource="http://creativecommons.org/licenses/by/3.0/" />
      </cc:Work>
      <cc:License
         rdf:about="http://creativecommons.org/licenses/by/3.0/">
        <cc:permits
           rdf:resource="http://creativecommons.org/ns#Reproduction" />
        <cc:permits
           rdf:resource="http://creativecommons.org/ns#Distribution" />
        <cc:requires
           rdf:resource="http://creativecommons.org/ns#Notice" />
        <cc:requires
           rdf:resource="http://creativecommons.org/ns#Attribution" />
        <cc:permits
           rdf:resource="http://creativecommons.org/ns#DerivativeWorks" />
      </cc:License>
    </rdf:RDF>
  </metadata>
  <g
     inkscape:label="Layer 1"
     inkscape:groupmode="layer"
     id="layer1"
     transform="translate(0,-52.362183)">
    <path
       style="fill:#000000;fill-opacity:1;stroke:#000000;stroke-width:4.75137663px;stroke-linecap:butt;stroke-linejoin:miter;stroke-opacity:1"
       d="m 697.77156,107.68039 c -5.14882,-0.21618 -10.43554,0.36681 -14.69957,1.33633 -14.33618,3.25939 -28.22983,13.61991 -34.00204,28.2113 -11.57516,15.3381 -4.78254,35.1972 -6.8301,52.85906 -2.90689,99.13362 -17.29596,198.71449 -1.63328,297.40648 12.10161,40.0168 62.33297,43.87217 97.84866,40.98062 47.50212,-6.50131 94.15769,1.51132 142.98673,-15.44197 5.51783,-1.91576 3.08574,-11.651 5.19682,-16.7783 2.71532,-21.87662 -33.36939,-41.08791 -52.26514,-43.05935 -33.00867,13.82513 -124.70643,33.14033 -142.83826,-14.84805 -5.50523,-50.65253 -0.31311,-95.74765 0.29696,-143.58066 8.67844,-34.0917 19.44012,-67.82914 26.7265,-102.1546 -0.54394,-25.02146 7.19467,-50.33376 -1.63329,-74.98266 -2.45736,-6.86132 -10.57262,-9.58762 -19.15399,-9.9482 z m -369.41953,40.3867 c -24.3366,2.45884 -44.17478,24.96478 -56.12563,47.36529 -36.13541,51.43042 -68.98714,105.06272 -105.42117,156.2015 -18.50057,17.7607 -50.30904,-6.41013 -67.855598,16.62982 -9.643869,24.02762 0.444729,53.11768 6.681628,77.50683 5.79867,29.05073 36.15294,26.30134 51.52274,7.27555 46.1514,-21.56593 91.47663,-44.83865 135.56271,-70.37977 54.56718,-30.18559 109.39735,-59.97164 162.88313,-92.05792 28.1109,1.16651 52.66649,21.00479 81.36732,17.96614 27.1278,3.98037 44.34408,-31.78965 25.09321,-50.92881 -16.79032,-30.18612 -45.25406,-53.98923 -79.43708,-61.32246 -24.56219,-6.12025 -50.16062,-5.51858 -74.83418,-10.6906 -14.9351,12.91857 13.39327,29.77721 16.62982,43.5048 3.99818,18.19611 11.65793,41.14782 -8.61187,52.26514 -12.90949,9.26138 -29.30825,10.88136 -43.80176,16.92678 l -148.77747,50.03793 c -4.74768,-18.63024 20.28709,-22.7923 29.6961,-34.15052 l 78.84315,-60.87701 c 22.18028,-4.32185 53.74815,-12.13083 57.90741,-38.15949 -2.51287,-21.29463 -18.71335,-39.69467 -34.89293,-52.71059 -8.49218,-5.3347 -16.46741,-15.40914 -26.42953,-14.40261 z m 553.3869,118.48746 c -0.62091,0.0613 -1.1573,0.10975 -1.78177,0.29696 -48.13767,24.68806 -112.31836,26.58552 -157.83479,55.97715 -6.97806,5.87313 -14.0541,14.64474 -13.66021,23.75689 0.38629,8.9352 7.29973,18.11272 15.29349,22.12359 15.80774,7.93152 35.34435,-0.99855 53.00755,-1.93024 20.4285,-7.99396 40.59847,-16.61661 61.17397,-24.20233 14.16823,-4.01567 29.42936,-5.14574 42.61391,-11.72996 17.49134,-9.12107 27.99411,-23.43336 23.16296,-43.65327 -3.80661,-9.00666 -12.66118,-21.55818 -21.97511,-20.63879 z m -464.59555,132.5931 c -38.167,-0.50712 -76.43929,17.74748 -112.54823,28.9537 -2.70582,2.21039 -4.80635,4.53894 -6.83011,6.8301 -0.1031,-4.35653 -0.18435,-8.70941 -0.29696,-13.06628 -1.01213,-12.69178 -9.42022,-17.33222 -20.04487,-20.93575 -8.48458,2.26255 -21.61101,-1.09615 -25.39016,6.8301 -14.84991,31.14551 -12.90375,76.59323 -11.433,115.36936 4.82378,150.88685 2.51632,301.35558 -5.19682,451.9747 3.83398,12.22291 11.19334,28.15852 26.57801,27.02342 12.1612,3.7037 22.46494,3.9912 25.83561,-11.43321 7.33608,-18.94516 3.15924,-40.48315 5.19682,-60.58005 1.7945,-50.98084 3.3339,-101.97974 4.45441,-152.93469 l 20.78728,8.90883 c 31.11225,-15.25734 50.4293,-33.49089 66.37079,-63.54966 5.69823,-15.7883 28.87943,-42.86973 9.94819,-55.23476 -24.27312,10.22544 -43.43632,25.57647 -65.47991,37.71406 l -30.58698,9.79971 c 0.52265,-34.11355 0.94457,-68.18686 1.03936,-102.30308 3.68964,1.35894 7.61061,2.10144 11.58148,2.07873 30.46949,-1.92108 66.13099,-30.60338 81.81277,-55.82867 2.26227,-5.68474 -4.17798,-16.08299 -10.24516,-15.2935 -29.31447,3.81446 -55.93705,17.77067 -83.29757,28.80522 -0.0855,-31.81274 -0.20478,-63.64877 -0.7424,-95.47297 14.9999,2.46672 30.77851,-2.8848 45.732,-6.97858 20.18798,-6.29724 37.87826,-20.49692 58.94676,-23.45993 33.69387,109.4654 34.86556,239.66058 45.43504,355.75909 l -5.04834,72.31025 c -15.71384,7.07147 -31.0635,-2.74677 -46.4744,-5.79098 -17.44449,-9.49848 -9.65019,16.22357 -0.7424,21.97512 12.10147,15.28755 24.25654,31.11201 29.10218,50.33513 4.02052,16.61509 31.90725,12.77978 44.69264,9.20579 25.97259,-9.4139 25.49841,-41.13457 33.40812,-63.2527 8.20211,-28.4769 18.45843,-57.00226 12.9178,-87.00958 C 513.4259,675.0292 496.81456,551.32635 477.72344,428.10135 460.3821,417.96291 446.51283,398.35631 424.71589,399.59309 c -2.54379,-0.20811 -5.02805,-0.41147 -7.57251,-0.4452 z m 244.6959,140.01713 c -7.23568,0.17295 -14.55632,1.61756 -21.23271,4.30593 -17.73138,5.37333 -14.51413,26.87607 -8.90884,40.23822 12.83761,91.55836 10.26407,184.27635 31.03243,275.43113 54.55626,38.71801 116.63057,22.33622 172.53436,14.40284 25.37768,-11.56152 89.51185,-15.56551 94.43361,-51.37426 l -4.00897,-22.42079 c -23.76487,-16.53517 -52.88696,-4.30807 -78.39771,0.14729 -33.43406,4.1413 -66.67702,13.44355 -100.07587,15.59069 l -21.67816,-12.32412 c -6.26573,-58.43257 -15.3498,-117.17493 -10.98756,-176.09765 0.50878,-26.21577 3.52818,-58.34125 -19.30246,-76.76443 -9.39333,-7.99837 -21.34865,-11.4245 -33.40812,-11.13604 z m 128.13869,89.53375 c -23.92898,0.91421 -46.26587,5.91352 -66.22232,16.62982 -8.35363,4.48577 -10.02017,17.81875 -8.46338,27.17193 1.72745,10.37872 8.25832,24.1675 18.70854,25.39017 40.65112,4.75622 83.72078,3.9799 121.75403,-12.02692 25.12618,-16.10508 6.20444,-56.67794 -21.08424,-54.78931 -15.28242,-1.9618 -30.33526,-2.92419 -44.69263,-2.37569 z"
       id="path4586" />
  </g>
</svg>
