<?xml version="1.0" encoding="UTF-8" standalone="no"?>
<!-- Created with Inkscape (http://www.inkscape.org/) -->

<svg
   xmlns:dc="http://purl.org/dc/elements/1.1/"
   xmlns:cc="http://creativecommons.org/ns#"
   xmlns:rdf="http://www.w3.org/1999/02/22-rdf-syntax-ns#"
   xmlns:svg="http://www.w3.org/2000/svg"
   xmlns="http://www.w3.org/2000/svg"
   xmlns:sodipodi="http://sodipodi.sourceforge.net/DTD/sodipodi-0.dtd"
   xmlns:inkscape="http://www.inkscape.org/namespaces/inkscape"
   width="1000"
   height="1000"
   id="svg3173"
   version="1.1"
   inkscape:version="0.47 r22583"
   sodipodi:docname="81e7.svg"
   inkscape:export-filename="E:\chinese\yan\81e7.png"
   inkscape:export-xdpi="17.961918"
   inkscape:export-ydpi="17.961918">
  <title
     id="title2855">Zang</title>
  <defs
     id="defs3175">
    <inkscape:perspective
       sodipodi:type="inkscape:persp3d"
       inkscape:vp_x="0 : 526.18109 : 1"
       inkscape:vp_y="0 : 1000 : 0"
       inkscape:vp_z="744.09448 : 526.18109 : 1"
       inkscape:persp3d-origin="372.04724 : 350.78739 : 1"
       id="perspective3181" />
    <inkscape:perspective
       id="perspective3191"
       inkscape:persp3d-origin="0.5 : 0.33333333 : 1"
       inkscape:vp_z="1 : 0.5 : 1"
       inkscape:vp_y="0 : 1000 : 0"
       inkscape:vp_x="0 : 0.5 : 1"
       sodipodi:type="inkscape:persp3d" />
    <inkscape:perspective
       id="perspective4006"
       inkscape:persp3d-origin="0.5 : 0.33333333 : 1"
       inkscape:vp_z="1 : 0.5 : 1"
       inkscape:vp_y="0 : 1000 : 0"
       inkscape:vp_x="0 : 0.5 : 1"
       sodipodi:type="inkscape:persp3d" />
    <inkscape:perspective
       id="perspective4034"
       inkscape:persp3d-origin="0.5 : 0.33333333 : 1"
       inkscape:vp_z="1 : 0.5 : 1"
       inkscape:vp_y="0 : 1000 : 0"
       inkscape:vp_x="0 : 0.5 : 1"
       sodipodi:type="inkscape:persp3d" />
    <inkscape:perspective
       id="perspective4081"
       inkscape:persp3d-origin="0.5 : 0.33333333 : 1"
       inkscape:vp_z="1 : 0.5 : 1"
       inkscape:vp_y="0 : 1000 : 0"
       inkscape:vp_x="0 : 0.5 : 1"
       sodipodi:type="inkscape:persp3d" />
    <inkscape:perspective
       id="perspective4147"
       inkscape:persp3d-origin="0.5 : 0.33333333 : 1"
       inkscape:vp_z="1 : 0.5 : 1"
       inkscape:vp_y="0 : 1000 : 0"
       inkscape:vp_x="0 : 0.5 : 1"
       sodipodi:type="inkscape:persp3d" />
    <inkscape:perspective
       id="perspective3858"
       inkscape:persp3d-origin="0.5 : 0.33333333 : 1"
       inkscape:vp_z="1 : 0.5 : 1"
       inkscape:vp_y="0 : 1000 : 0"
       inkscape:vp_x="0 : 0.5 : 1"
       sodipodi:type="inkscape:persp3d" />
    <inkscape:perspective
       id="perspective3876"
       inkscape:persp3d-origin="0.5 : 0.33333333 : 1"
       inkscape:vp_z="1 : 0.5 : 1"
       inkscape:vp_y="0 : 1000 : 0"
       inkscape:vp_x="0 : 0.5 : 1"
       sodipodi:type="inkscape:persp3d" />
    <inkscape:perspective
       id="perspective3901"
       inkscape:persp3d-origin="0.5 : 0.33333333 : 1"
       inkscape:vp_z="1 : 0.5 : 1"
       inkscape:vp_y="0 : 1000 : 0"
       inkscape:vp_x="0 : 0.5 : 1"
       sodipodi:type="inkscape:persp3d" />
    <inkscape:perspective
       id="perspective5282"
       inkscape:persp3d-origin="0.5 : 0.33333333 : 1"
       inkscape:vp_z="1 : 0.5 : 1"
       inkscape:vp_y="0 : 1000 : 0"
       inkscape:vp_x="0 : 0.5 : 1"
       sodipodi:type="inkscape:persp3d" />
    <inkscape:perspective
       id="perspective6657"
       inkscape:persp3d-origin="0.5 : 0.33333333 : 1"
       inkscape:vp_z="1 : 0.5 : 1"
       inkscape:vp_y="0 : 1000 : 0"
       inkscape:vp_x="0 : 0.5 : 1"
       sodipodi:type="inkscape:persp3d" />
    <inkscape:perspective
       id="perspective7221"
       inkscape:persp3d-origin="0.5 : 0.33333333 : 1"
       inkscape:vp_z="1 : 0.5 : 1"
       inkscape:vp_y="0 : 1000 : 0"
       inkscape:vp_x="0 : 0.5 : 1"
       sodipodi:type="inkscape:persp3d" />
    <inkscape:perspective
       id="perspective7762"
       inkscape:persp3d-origin="0.5 : 0.33333333 : 1"
       inkscape:vp_z="1 : 0.5 : 1"
       inkscape:vp_y="0 : 1000 : 0"
       inkscape:vp_x="0 : 0.5 : 1"
       sodipodi:type="inkscape:persp3d" />
    <inkscape:perspective
       id="perspective3824"
       inkscape:persp3d-origin="0.5 : 0.33333333 : 1"
       inkscape:vp_z="1 : 0.5 : 1"
       inkscape:vp_y="0 : 1000 : 0"
       inkscape:vp_x="0 : 0.5 : 1"
       sodipodi:type="inkscape:persp3d" />
    <inkscape:perspective
       id="perspective3037"
       inkscape:persp3d-origin="0.5 : 0.33333333 : 1"
       inkscape:vp_z="1 : 0.5 : 1"
       inkscape:vp_y="0 : 1000 : 0"
       inkscape:vp_x="0 : 0.5 : 1"
       sodipodi:type="inkscape:persp3d" />
    <inkscape:perspective
       id="perspective7183"
       inkscape:persp3d-origin="0.5 : 0.33333333 : 1"
       inkscape:vp_z="1 : 0.5 : 1"
       inkscape:vp_y="0 : 1000 : 0"
       inkscape:vp_x="0 : 0.5 : 1"
       sodipodi:type="inkscape:persp3d" />
    <inkscape:perspective
       id="perspective7211"
       inkscape:persp3d-origin="0.5 : 0.33333333 : 1"
       inkscape:vp_z="1 : 0.5 : 1"
       inkscape:vp_y="0 : 1000 : 0"
       inkscape:vp_x="0 : 0.5 : 1"
       sodipodi:type="inkscape:persp3d" />
    <inkscape:perspective
       id="perspective3723"
       inkscape:persp3d-origin="0.5 : 0.33333333 : 1"
       inkscape:vp_z="1 : 0.5 : 1"
       inkscape:vp_y="0 : 1000 : 0"
       inkscape:vp_x="0 : 0.5 : 1"
       sodipodi:type="inkscape:persp3d" />
    <inkscape:perspective
       id="perspective3759"
       inkscape:persp3d-origin="0.5 : 0.33333333 : 1"
       inkscape:vp_z="1 : 0.5 : 1"
       inkscape:vp_y="0 : 1000 : 0"
       inkscape:vp_x="0 : 0.5 : 1"
       sodipodi:type="inkscape:persp3d" />
  </defs>
  <sodipodi:namedview
     id="base"
     pagecolor="#ffffff"
     bordercolor="#666666"
     borderopacity="1.0"
     inkscape:pageopacity="0.0"
     inkscape:pageshadow="2"
     inkscape:zoom="0.49497475"
     inkscape:cx="468.38518"
     inkscape:cy="501.15052"
     inkscape:document-units="px"
     inkscape:current-layer="g3804"
     showgrid="false"
     inkscape:window-width="1440"
     inkscape:window-height="840"
     inkscape:window-x="-4"
     inkscape:window-y="-4"
     inkscape:window-maximized="1" />
  <metadata
     id="metadata3178">
    <rdf:RDF>
      <cc:Work
         rdf:about="">
        <dc:format>image/svg+xml</dc:format>
        <dc:type
           rdf:resource="http://purl.org/dc/dcmitype/StillImage" />
        <dc:title>Zang</dc:title>
        <dc:date>2010-08-02</dc:date>
        <dc:creator>
          <cc:Agent>
            <dc:title>Alex Amies</dc:title>
          </cc:Agent>
        </dc:creator>
        <dc:rights>
          <cc:Agent>
            <dc:title>Copyright Alex Amies 2010</dc:title>
          </cc:Agent>
        </dc:rights>
        <dc:publisher>
          <cc:Agent>
            <dc:title>chinesenotes.com</dc:title>
          </cc:Agent>
        </dc:publisher>
        <dc:source>Yan Qin Ceremonial Inscription</dc:source>
        <dc:language>Chinese 中文</dc:language>
        <dc:description>Tracing from Tang Dynasty Ceremonial Inscription by Yan Zhenqing 颜真卿 (709－785)</dc:description>
        <cc:license
           rdf:resource="http://creativecommons.org/licenses/by/3.0/" />
      </cc:Work>
      <cc:License
         rdf:about="http://creativecommons.org/licenses/by/3.0/">
        <cc:permits
           rdf:resource="http://creativecommons.org/ns#Reproduction" />
        <cc:permits
           rdf:resource="http://creativecommons.org/ns#Distribution" />
        <cc:requires
           rdf:resource="http://creativecommons.org/ns#Notice" />
        <cc:requires
           rdf:resource="http://creativecommons.org/ns#Attribution" />
        <cc:permits
           rdf:resource="http://creativecommons.org/ns#DerivativeWorks" />
      </cc:License>
    </rdf:RDF>
  </metadata>
  <g
     inkscape:label="Layer 1"
     inkscape:groupmode="layer"
     id="layer1"
     transform="translate(0,-52.362183)">
    <g
       transform="matrix(4.7418067,0,0,4.7418067,-575.38835,-3945.1359)"
       id="g3804"
       style="fill:none;fill-opacity:1">
      <path
         style="fill:#000000;fill-opacity:1;stroke:#000000;stroke-width:1.00403643px;stroke-linecap:butt;stroke-linejoin:miter;stroke-opacity:1"
         d="m 226.75134,849.24058 c -2.2464,0.0667 -3.52119,1.7387 -4.36126,4.17297 -0.93343,3.46835 -1.82935,6.94956 -4.32994,9.66377 -0.70372,3.32457 -0.85821,6.63295 0.59617,9.78946 2.63532,8.48448 5.70032,16.80709 8.8167,25.13208 -8.58309,2.10815 -17.13703,4.28152 -25.69707,6.46346 -3.29219,1.43686 -3.83751,1.7706 -7.49892,3.20031 -0.78508,0.18568 -4.10965,1.13311 -4.89463,1.31783 -1.10478,1.30069 -2.57048,3.20555 -1.78845,4.67525 1.80854,3.39884 7.35771,3.24221 11.26402,2.57282 3.64074,0.0476 6.67018,-2.39095 10.07173,-3.35742 6.98155,-3.19888 14.18243,-5.35178 21.49268,-6.96527 1.23998,3.33695 2.48878,6.68437 3.67097,10.04036 0.12569,0.38564 0.2509,0.74747 0.37659,1.1293 -1.82925,-0.52513 -4.01376,-0.5775 -5.64772,-0.18568 -10.44394,2.4895 -20.28815,7.32424 -30.15245,11.76621 -0.31803,-2.6747 -1.58902,-4.20963 -4.26714,-6.40062 -4.4124,2.36905 -7.78387,4.96709 -7.5303,10.41695 -0.0333,33.82367 -0.23614,67.64684 -0.34517,101.47054 1.3732,5.3451 4.6852,13.3106 11.51502,11.1696 1.16091,-1.005 2.78458,-1.8505 1.66295,-3.5454 -0.99275,-4.6562 -2.85214,-9.092 -4.20439,-13.6173 0.0771,-3.585 0.14854,-7.1766 0.21948,-10.7621 1.76626,2.7128 4.44701,4.7538 7.37337,6.432 1.89038,1.6016 4.38121,0.6813 6.62038,0.7218 7.83376,-2.191 15.68675,-4.2434 23.689,-5.836 6.24164,-0.8941 9.96394,4.2392 15.15466,4.6753 2.1449,0.1809 3.66102,-2.1001 5.1143,-3.8907 0.10379,1.1726 0.57475,2.3757 0.62754,3.5455 1.67462,0.7875 3.34447,1.4116 4.95743,0.1238 2.00041,-0.4666 1.59145,-3.0656 2.41595,-4.581 2.5412,-7.2481 5.15048,-14.4718 7.71854,-21.71229 7.14332,11.68769 15.39371,23.18149 25.25777,34.95299 7.81281,9.6323 15.98631,14.4037 28.14438,16.3157 1.79769,-2.1314 5.9808,-3.6054 4.73781,-6.9343 -1.3154,-2.539 -3.93321,-4.5595 -5.08293,-7.3733 -3.32937,-4.4762 -4.56022,-9.7618 -6.18109,-14.9351 -0.91643,-2.0905 -2.51716,1.1017 -3.07485,2.4786 -1.05441,1.9239 -2.28888,6.5668 -4.98881,4.5496 -11.49659,-13.7839 -25.08909,-26.86844 -34.10585,-42.60861 0.21424,-0.62797 0.4461,-1.25451 0.65887,-1.88248 3.74082,-9.63044 4.88449,-19.96407 7.40479,-29.93302 1.20433,-2.33429 2.04531,-4.95234 4.42402,-6.36919 1.35325,-5.22895 -3.43283,-6.9048 -7.4675,-8.87965 -3.09485,-0.11426 -6.34472,-0.0476 -8.34608,2.2905 -0.17949,8.23786 -1.21766,16.43859 -1.75707,24.6617 -0.40469,2.58138 -0.87826,5.14849 -1.38054,7.71844 -10.92742,-21.37855 -18.27727,-44.22062 -24.88127,-67.27026 6.67822,-0.99885 13.40849,-1.72251 20.17484,-2.50997 4.34836,-0.71891 7.40022,1.45494 10.10316,4.54908 2.50325,3.09271 6.29525,1.38924 8.72253,-0.78413 1.52897,-0.94505 1.08511,-3.02177 1.6002,-4.54956 0.2928,-5.30465 -7.67931,-10.10463 -12.33085,-10.60501 -0.0957,0 -0.18663,-0.0476 -0.28233,-0.0619 2.96322,-3.17936 3.28144,-9.6352 2.19632,-14.74703 -3.40193,-5.97594 -7.19203,-8.92344 -13.27209,-11.4834 -3.74015,0.28565 -6.53244,0.84316 -9.31869,3.23173 1.5025,6.69865 5.83782,12.2561 10.00898,17.57027 1.03222,1.64015 2.19475,3.86541 3.57685,5.42843 -1.56006,0.22853 -3.13379,0.57322 -4.67501,0.97266 -6.34115,1.35497 -12.63636,2.81182 -18.95118,4.29818 -0.44896,-1.60158 -0.90277,-3.1984 -1.34921,-4.80046 -3.14408,-11.66813 -6.92056,-23.23104 -9.66381,-34.98438 l -0.81579,-5.71028 c -0.62564,-0.16664 -1.20728,-0.23329 -1.7257,-0.21901 z m -65.70163,35.36098 c -5.37111,2.16195 -5.54645,10.05179 0.56479,11.35819 5.74208,4.29342 7.6667,11.61433 7.27925,18.48057 -0.0624,10.17795 -0.0709,20.3778 -0.15663,30.59146 -2.62895,-1.97722 -6.196,-2.52235 -9.3815,-3.01225 -2.87356,-0.42373 -6.17385,0.63511 -8.78528,-0.53323 -2.03911,-1.08883 -0.98266,-3.46835 -0.94128,-5.27132 1.82653,-8.21692 1.0565,-14.68276 -1.94533,-22.30837 -3.47468,-4.13297 -7.23682,-5.75503 -12.45635,-4.20439 -3.07933,1.20119 -4.85759,5.26894 -1.97669,7.65608 4.48167,4.47719 6.48898,9.5238 6.87138,15.84491 -0.41897,5.98308 -1.40758,11.26059 -4.51814,16.31528 -2.22636,0.42373 -4.38236,1.29831 -5.45947,3.42027 -1.39577,2.42951 1.51179,5.18229 3.20035,6.87099 5.52179,2.99607 10.44247,9.82279 13.20939,-0.87839 1.00765,-3.15794 4.94267,-2.8499 7.24787,-4.51814 3.90365,-1.59396 7.57005,-3.96349 11.79744,-4.6124 1.4399,-0.1 2.33915,-0.48276 3.10623,-1.16072 -0.0866,8.43782 -0.25471,16.88898 -0.53342,25.32062 -2.40061,-2.11244 -7.10123,-2.70613 -10.04036,-1.1612 -2.60942,0.27137 -5.22404,0.56751 -7.84404,0.72176 -0.52594,0.13807 -0.99137,0.34279 -1.4119,0.56465 -2.01826,-1.71918 -4.90221,-2.6528 -8.97358,-2.35286 -1.77164,1.64491 -1.5772,4.44244 -1.31778,6.74578 8.75814,15.20932 -1.77636,29.47025 -4.83193,44.27155 -0.36897,1.9463 -0.83683,3.8964 -0.94129,5.8674 1.60958,0.1714 3.70621,0 4.26714,-1.8825 6.83572,-8.7539 11.14595,-18.7852 15.71946,-28.80322 0.36754,-4.73666 0.78979,-10.13796 0.15663,-14.8094 5.00552,0.219 10.57516,-0.19044 14.96642,-2.54187 -0.35374,8.45735 -0.84169,16.90089 -1.56883,25.32059 -1.24579,6.1636 -1.71622,12.617 -4.9888,18.1354 -1.60901,5.3889 -5.44638,10.865 -4.45539,16.5981 3.54843,7.1291 7.65584,-3.1127 10.44823,-5.836 8.08694,-12.5979 8.32256,-29.0922 10.00898,-43.58118 3.818,-25.15779 1.08617,-50.73455 3.10628,-75.96185 2.23222,-3.8678 3.94983,-8.05219 3.48273,-12.61318 -1.32121,-6.43299 -7.36328,-9.5895 -12.61322,-12.58175 -3.29296,-2.05435 -6.63914,-4.10203 -10.29136,-5.45938 z m 75.45962,38.62365 c 3.00392,8.88536 6.05802,17.33604 9.25595,25.44631 -1.49689,-1.30259 -3.14718,-2.38571 -5.27118,-2.29049 -3.60523,0.26661 -6.69275,2.52425 -10.13448,3.48263 -2.25488,0.73652 -4.53657,1.41638 -6.80863,2.07101 2.95569,-4.62811 5.31083,-8.84964 4.92605,-14.62134 -1.39933,-2.05387 -2.32053,-4.56813 -4.48681,-5.96166 l -0.0943,-0.0619 -0.0943,-0.0619 c -0.26138,-0.0666 -0.52318,-0.12379 -0.78442,-0.18568 2.14748,-1.24165 4.23991,-2.54234 6.62039,-3.67069 2.30972,-1.35687 4.61878,-2.69184 6.87138,-4.14202 z m -37.871,9.6014 c 3.94597,2.03293 8.11761,3.84352 12.26806,3.0432 3.44259,-0.66367 6.17766,-1.73822 8.65983,-2.98035 0.12854,3.63546 0.3942,7.28853 -0.0628,10.88733 -0.4361,3.4355 -2.41684,6.4568 -2.79248,9.97752 -5.80679,1.4259 -11.67384,2.57186 -17.63341,3.29457 -0.84397,3.81495 2.80254,6.70722 5.6791,8.44021 5.84697,2.20527 9.57798,-2.39904 14.84092,-4.54956 2.50521,-1.13358 5.13934,-2.07958 7.56162,-3.326 0.82907,-0.66844 1.35772,-2.21527 2.38461,-2.29049 1.32969,0.45229 3.6606,0.0809 2.88661,2.22765 0.55618,3.27077 -0.85287,6.20398 -2.63561,8.81679 -2.32834,4.11441 -5.13359,8.12551 -6.08697,12.83313 -1.02636,1.78345 -0.29803,3.28506 1.94533,2.25907 7.64484,-4.16868 14.30459,-9.2748 19.70422,-16.00201 1.4719,-1.62444 0.86635,-4.11918 1.44328,-6.1183 0.28233,-2.07863 0.51971,-4.15916 0.75304,-6.24398 4.90135,12.01568 10.19985,23.35959 16.34695,34.38832 -1.73956,6.93765 -3.64055,13.82289 -5.45943,20.70819 -1.33701,2.2867 -2.82186,4.5191 -3.79652,6.9658 -0.76194,-2.4376 -3.38622,-4.542 -5.1143,-6.244 -5.59573,-7.1619 -12.13384,-2.0658 -19.57873,-0.062 -0.31422,0.052 -0.62716,0.1047 -0.94128,0.1571 0.96556,-1.6435 1.63262,-3.4507 2.51011,-5.1771 3.35352,-3.2726 8.20773,-7.17613 5.55355,-9.85226 -3.07138,-3.09604 -8.14598,-3.52833 -12.8328,-3.5769 4.53171,-1.84724 9.07337,-3.7878 13.80546,-4.98852 l 4.42406,0.65892 c -0.0238,-1.11454 0.89854,-2.54854 -0.40801,-3.23173 -2.04787,-2.78754 -5.44038,-2.67946 -8.56566,-3.20031 -2.24521,1.09978 -4.41511,2.4695 -6.9655,2.69803 -9.51051,2.39428 -18.79203,4.14059 -28.5523,3.73401 l -1.50603,1.50589 c 0.14759,-4.24153 0.28994,-8.49924 0.50199,-12.73887 0.5289,-14.01194 1.2339,-28.00055 1.66295,-42.01249 z m 24.25374,58.10831 c -1.87167,5.1761 -0.87854,11.20348 -0.87854,16.66098 l 1.44333,2.3533 c -8.56889,1.4511 -17.0916,2.7013 -25.82256,2.3219 l -1.81983,0.7213 c 0.14521,-7.189 0.30899,-14.36855 0.53342,-21.5552 l 0.21948,0.75318 c 9.59593,3.05891 17.16126,2.29525 26.32456,-1.25546 z"
         id="path4235" />
    </g>
  </g>
</svg>
