<?xml version="1.0" encoding="UTF-8" standalone="no"?>
<!-- Created with Inkscape (http://www.inkscape.org/) -->

<svg
   xmlns:dc="http://purl.org/dc/elements/1.1/"
   xmlns:cc="http://creativecommons.org/ns#"
   xmlns:rdf="http://www.w3.org/1999/02/22-rdf-syntax-ns#"
   xmlns:svg="http://www.w3.org/2000/svg"
   xmlns="http://www.w3.org/2000/svg"
   xmlns:sodipodi="http://sodipodi.sourceforge.net/DTD/sodipodi-0.dtd"
   xmlns:inkscape="http://www.inkscape.org/namespaces/inkscape"
   width="1000"
   height="1000"
   id="svg3173"
   version="1.1"
   inkscape:version="0.47 r22583"
   sodipodi:docname="8209.svg"
   inkscape:export-filename="E:\chinese\yan\8209.png"
   inkscape:export-xdpi="18.005705"
   inkscape:export-ydpi="18.005705">
  <title
     id="title4716">Ju</title>
  <defs
     id="defs3175">
    <inkscape:perspective
       sodipodi:type="inkscape:persp3d"
       inkscape:vp_x="0 : 526.18109 : 1"
       inkscape:vp_y="0 : 1000 : 0"
       inkscape:vp_z="744.09448 : 526.18109 : 1"
       inkscape:persp3d-origin="372.04724 : 350.78739 : 1"
       id="perspective3181" />
    <inkscape:perspective
       id="perspective3191"
       inkscape:persp3d-origin="0.5 : 0.33333333 : 1"
       inkscape:vp_z="1 : 0.5 : 1"
       inkscape:vp_y="0 : 1000 : 0"
       inkscape:vp_x="0 : 0.5 : 1"
       sodipodi:type="inkscape:persp3d" />
    <inkscape:perspective
       id="perspective4006"
       inkscape:persp3d-origin="0.5 : 0.33333333 : 1"
       inkscape:vp_z="1 : 0.5 : 1"
       inkscape:vp_y="0 : 1000 : 0"
       inkscape:vp_x="0 : 0.5 : 1"
       sodipodi:type="inkscape:persp3d" />
    <inkscape:perspective
       id="perspective4034"
       inkscape:persp3d-origin="0.5 : 0.33333333 : 1"
       inkscape:vp_z="1 : 0.5 : 1"
       inkscape:vp_y="0 : 1000 : 0"
       inkscape:vp_x="0 : 0.5 : 1"
       sodipodi:type="inkscape:persp3d" />
    <inkscape:perspective
       id="perspective4081"
       inkscape:persp3d-origin="0.5 : 0.33333333 : 1"
       inkscape:vp_z="1 : 0.5 : 1"
       inkscape:vp_y="0 : 1000 : 0"
       inkscape:vp_x="0 : 0.5 : 1"
       sodipodi:type="inkscape:persp3d" />
    <inkscape:perspective
       id="perspective4147"
       inkscape:persp3d-origin="0.5 : 0.33333333 : 1"
       inkscape:vp_z="1 : 0.5 : 1"
       inkscape:vp_y="0 : 1000 : 0"
       inkscape:vp_x="0 : 0.5 : 1"
       sodipodi:type="inkscape:persp3d" />
    <inkscape:perspective
       id="perspective3816"
       inkscape:persp3d-origin="0.5 : 0.33333333 : 1"
       inkscape:vp_z="1 : 0.5 : 1"
       inkscape:vp_y="0 : 1000 : 0"
       inkscape:vp_x="0 : 0.5 : 1"
       sodipodi:type="inkscape:persp3d" />
    <inkscape:perspective
       id="perspective3897"
       inkscape:persp3d-origin="0.5 : 0.33333333 : 1"
       inkscape:vp_z="1 : 0.5 : 1"
       inkscape:vp_y="0 : 1000 : 0"
       inkscape:vp_x="0 : 0.5 : 1"
       sodipodi:type="inkscape:persp3d" />
    <inkscape:perspective
       id="perspective3964"
       inkscape:persp3d-origin="0.5 : 0.33333333 : 1"
       inkscape:vp_z="1 : 0.5 : 1"
       inkscape:vp_y="0 : 1000 : 0"
       inkscape:vp_x="0 : 0.5 : 1"
       sodipodi:type="inkscape:persp3d" />
  </defs>
  <sodipodi:namedview
     id="base"
     pagecolor="#ffffff"
     bordercolor="#666666"
     borderopacity="1.0"
     inkscape:pageopacity="0.0"
     inkscape:pageshadow="2"
     inkscape:zoom="0.49497475"
     inkscape:cx="625.55267"
     inkscape:cy="513.93908"
     inkscape:document-units="px"
     inkscape:current-layer="layer1"
     showgrid="false"
     inkscape:window-width="1440"
     inkscape:window-height="840"
     inkscape:window-x="-4"
     inkscape:window-y="-4"
     inkscape:window-maximized="1" />
  <metadata
     id="metadata3178">
    <rdf:RDF>
      <cc:Work
         rdf:about="">
        <dc:format>image/svg+xml</dc:format>
        <dc:type
           rdf:resource="http://purl.org/dc/dcmitype/StillImage" />
        <dc:title>Ju</dc:title>
        <dc:date>2010-08-03</dc:date>
        <dc:creator>
          <cc:Agent>
            <dc:title>Alex Amies</dc:title>
          </cc:Agent>
        </dc:creator>
        <dc:rights>
          <cc:Agent>
            <dc:title>@ Alex Amies 2010</dc:title>
          </cc:Agent>
        </dc:rights>
        <dc:publisher>
          <cc:Agent>
            <dc:title>chinesenotes.com</dc:title>
          </cc:Agent>
        </dc:publisher>
        <dc:source>Yan Qin Ceremonial Inscription</dc:source>
        <dc:language>Chinese 中文</dc:language>
        <dc:description>Tracing from Tang Dynasty Ceremonial Inscription by Yan Zhenqing 颜真卿 (709－785)</dc:description>
        <cc:license
           rdf:resource="http://creativecommons.org/licenses/by/3.0/" />
      </cc:Work>
      <cc:License
         rdf:about="http://creativecommons.org/licenses/by/3.0/">
        <cc:permits
           rdf:resource="http://creativecommons.org/ns#Reproduction" />
        <cc:permits
           rdf:resource="http://creativecommons.org/ns#Distribution" />
        <cc:requires
           rdf:resource="http://creativecommons.org/ns#Notice" />
        <cc:requires
           rdf:resource="http://creativecommons.org/ns#Attribution" />
        <cc:permits
           rdf:resource="http://creativecommons.org/ns#DerivativeWorks" />
      </cc:License>
    </rdf:RDF>
  </metadata>
  <g
     inkscape:label="Layer 1"
     inkscape:groupmode="layer"
     id="layer1"
     transform="translate(0,-52.362183)">
    <path
       style="fill:#000000;fill-opacity:1;stroke:#000000;stroke-width:4.41868305px;stroke-linecap:butt;stroke-linejoin:miter;stroke-opacity:1"
       d="m 432.15286,55.556096 c -8.33726,0.192213 -20.59301,4.076278 -21.26491,11.322875 -6.58684,64.948759 6.74887,128.248679 -1.93317,192.765039 -1.51896,13.62774 5.01082,15.57612 15.18922,14.77496 12.61309,-0.99282 26.79533,4.11697 38.11114,0 13.08995,-4.76241 39.0627,-29.43597 42.80599,-19.6079 9.28302,24.37261 -7.67738,61.70125 -7.59462,92.93042 0.0968,36.59107 -9.8123,76.95862 -4.00443,109.63856 0.41933,2.36006 1.76368,3.77179 3.59018,4.41869 -17.5727,3.09198 -35.17563,6.27361 -52.74803,9.3897 5.91769,-5.83483 10.29973,-17.31341 11.32289,-26.5121 5.18805,-46.6444 10.08077,-99.53634 8.83736,-141.25976 -0.34599,-11.60576 -28.88644,-16.58619 -37.83497,-13.39413 -7.21951,2.57529 -11.12532,19.93984 -11.18479,30.6546 -0.23949,43.14738 6.0084,86.83597 6.62802,130.07499 0.0981,6.82872 -7.46475,16.63765 -4.41869,20.02215 1.47011,1.63346 4.83224,3.00386 8.69928,3.72826 -45.987,8.21124 -91.8838,16.76121 -137.66957,25.95971 0.53549,-1.05734 0.98859,-2.18454 1.38083,-3.45208 9.30005,-22.96871 0.54226,-47.97475 -1.10467,-71.52739 -0.0893,-0.7829 -0.18735,-1.56434 -0.27616,-2.34743 27.98475,6.44735 56.27558,-9.29937 81.74563,-19.46982 3.80692,-1.46704 11.33878,-1.64353 11.46095,-4.28059 -3.96859,-13.60826 -16.06576,-24.53363 -28.9976,-28.99761 -20.34283,5.52848 -48.79013,11.35058 -67.10875,26.09785 -3.13302,-27.38837 -6.61592,-54.77166 -11.46096,-81.88372 2.41517,1.9417 4.9392,3.52222 7.18036,4.41868 21.50441,4.93249 46.8368,-7.95496 60.20455,-24.44085 3.89666,-6.59434 0.74552,-21.25513 -4.41868,-26.78825 -5.25071,-5.62578 -18.46342,-8.43107 -26.78825,-6.76611 -14.79916,5.66453 -30.80981,15.95652 -41.01091,28.99761 -1.96088,-9.01722 -4.06767,-17.99884 -6.48995,-26.92635 -7.90011,-34.60492 -2.12587,-75.4639 -19.46981,-104.66755 -3.81766,-6.42817 -16.42177,-2.49629 -22.2315,2.20933 -13.43059,10.87828 -19.55082,31.18642 -15.87964,49.43403 14.8538,98.53684 35.20303,196.29945 53.71462,294.25661 0.84003,0.57287 1.74696,1.03592 2.62358,1.51892 -54.75773,11.38955 -109.19621,23.99857 -163.215094,38.66348 -26.511613,59.93413 52.960084,59.37838 86.026234,33.96862 46.98248,-19.72134 93.62804,-41.39117 144.71187,-47.77701 22.05261,-4.70881 44.18187,-9.36765 66.28024,-13.94647 -65.52558,71.74508 -122.54326,151.71998 -183.65151,227.28599 -12.76765,15.70882 -32.43044,31.86097 -39.76815,45.98175 -1.69563,3.2632 7.15968,7.94789 12.70372,4.97101 13.87007,-7.4468 32.72427,-7.89485 43.63449,-19.05555 37.21905,-38.07236 72.88997,-67.42527 104.80562,-104.94355 34.09435,-54.36623 85.64858,-102.74626 111.1575,-162.2485 0.2015,-0.65702 0.10384,-1.26097 0,-1.93318 35.8003,-7.0702 71.70055,-13.79548 107.7054,-19.60786 9.07628,24.68846 17.69037,49.56582 31.34503,71.52738 27.72731,44.59542 61.45632,86.64308 96.93486,125.6563 36.2174,39.82571 75.46225,79.19963 116.68083,112.26197 8.45549,6.78268 21.31873,4.97632 32.58779,2.89998 25.68439,-4.73285 52.278,-4.99267 77.7412,-10.63267 14.02596,-3.10633 37.12462,-5.07794 41.42515,-12.28924 3.12979,-5.24807 -13.70491,-15.39116 -22.64575,-21.12687 -29.62391,-19.00405 -59.88663,-37.48038 -87.68324,-59.09988 -51.92946,-40.38946 -107.4324,-77.68234 -153.8254,-123.86121 -28.06539,-27.93584 -51.64688,-61.3292 -75.39377,-93.75887 25.89998,-3.47946 51.82651,-6.52053 77.87928,-8.83738 40.03698,-0.6517 81.19869,-9.20605 119.58061,6.35186 28.69916,14.96409 60.18211,-2.66119 33.55437,-32.72587 -16.79431,-33.88874 -59.54895,-53.70167 -91.27341,-28.44528 -14.7512,3.77347 -29.67195,7.05682 -44.60109,10.08013 1.63562,-10.49207 0.40432,-23.38238 1.79509,-31.20695 6.60156,-37.13805 4.39023,-76.30874 11.87521,-113.36682 5.15912,-25.5426 11.65327,-51.27582 20.85066,-75.39378 3.60874,-9.46315 12.70717,-15.4699 23.33618,-16.84623 7.04351,-0.91206 4.6629,-11.51826 5.79951,-17.1224 4.17371,-16.34417 -6.91421,-36.6007 -20.16024,-46.39617 -14.71001,-6.4465 -31.61249,9.27404 -47.777,11.46096 -24.66725,3.33735 -51.84171,-1.34844 -74.97953,4.14252 -7.78615,1.84781 -16.56817,10.37837 -17.81281,17.9509 -2.58206,15.70894 20.15463,33.01105 37.28263,33.41629 13.58197,0.32124 41.37342,-10.36124 40.73473,0 -2.34984,38.12171 -22.94488,89.95465 -26.65017,135.59833 -0.37516,4.62407 -0.62595,9.48218 -0.96659,14.22264 -17.38757,-19.22128 -40.20117,-20.01749 -63.79473,-13.67031 -9.27903,3.24675 -17.11679,12.4363 -16.2939,22.64575 2.62673,12.18598 0.84238,31.57083 12.70371,37.69689 18.46029,7.53571 23.3588,-0.67991 33.14013,-13.8084 10.69206,-7.14098 22.34642,-12.6965 33.27819,-19.46981 -1.383,25.35308 -1.21477,51.14307 4.14252,73.32251 0.41537,1.71914 1.16716,3.30364 2.20935,4.69486 -26.08291,4.54634 -52.34199,8.59969 -78.43162,13.11797 -8.55811,-10.87938 -17.35403,-21.43401 -26.51209,-31.20695 -4.89397,-5.22252 -19.23731,-2.55245 -22.23151,2.20933 -4.4318,7.04803 -3.87695,22.23071 1.24276,33.00204 0.66621,1.40162 1.29087,2.8653 1.93317,4.28061 -9.92754,1.75947 -19.89428,3.49813 -29.82612,5.24718 7.46693,-3.39965 15.14867,-9.64758 17.26049,-14.77497 19.96767,-71.05971 19.29649,-146.17298 36.17796,-217.8963 4.58969,-15.08931 5.27384,-37.89554 -13.39412,-37.42072 -13.41256,0.34112 -28.75167,-5.217 -40.1824,0 -16.0384,7.32 -23.50253,36.38552 -44.87724,36.31605 -21.15225,-0.0684 -6.55605,-24.06131 -5.93761,-36.59221 0.63107,-12.78704 1.26453,-25.84147 1.93317,-38.80156 2.09861,1.62064 4.37145,2.74413 6.48993,3.31401 29.04393,4.5983 60.35299,2.50026 87.40707,-9.52779 12.52613,-4.88136 30.76588,-6.7726 37.55881,-14.91304 4.2023,-5.03598 -0.11091,-18.22504 -4.55675,-24.57892 -5.96722,-8.524615 -16.72348,-22.53427 -26.78828,-20.160245 -29.08881,6.861242 -63.58625,10.68296 -91.4115,22.369575 -2.20572,0.92642 -4.45867,2.30541 -6.62801,4.00444 0.68934,-12.599305 1.35214,-25.306726 2.07125,-37.558805 0.60053,-10.231814 -19.03206,-16.5671 -28.99762,-17.812814 -0.98606,-0.123282 -2.12295,-0.165702 -3.314,-0.137864 z m -68.07533,76.084184 c -13.61247,1.35902 -31.78124,20.69226 -49.01976,28.44528 -13.17444,5.92518 -30.25057,7.49682 -40.1824,16.1558 -6.46533,5.63675 -9.77749,18.36706 -8.97545,26.78827 0.68582,7.20122 6.96401,19.66411 13.39413,20.02215 25.43893,-7.15697 54.71863,-20.9682 75.80803,-37.83498 8.28047,-8.08582 16.16685,-20.64075 17.95089,-31.34502 1.19168,-7.14991 -3.20389,-22.80769 -8.97544,-22.2315 z m 286.38588,90.99726 c -24.91271,-0.13168 -53.15565,6.15521 -67.66108,27.20251 -1.12818,16.00765 10.60404,26.30814 24.57892,31.34503 8.38003,1.25699 20.23315,-0.18647 26.78827,-4.55676 4.60374,-3.06918 2.24778,-13.69028 6.62802,-17.81283 8.26647,-7.78022 26.98295,-10.30347 31.20694,-17.81281 2.47133,-4.39345 -5.02416,-16.87543 -11.04671,-17.9509 -3.37189,-0.25672 -6.93543,-0.39547 -10.49436,-0.41402 z m -163.62936,317.3166 c -9.807,0.24172 -24.03926,9.61501 -29.41185,18.91749 -7.42772,12.86094 -10.83354,29.28195 -11.46096,45.15342 -0.71189,18.00811 -1.00224,35.95919 -1.10467,53.99079 -12.77171,3.43017 -25.54772,6.68762 -38.38731,9.2516 -11.62025,2.32052 -27.83473,-8.22308 -35.62563,-4.55676 -4.85582,2.28507 -5.86601,16.48482 -2.34741,22.36958 8.1521,13.63425 30.38458,15.13678 47.22466,15.05114 9.86693,-0.0505 19.58507,-0.92642 29.27377,-2.34742 0.0354,9.84818 -0.0133,19.70502 0,29.54993 0.0309,22.2391 -0.27352,44.73103 -0.55233,67.24687 -35.15297,2.52838 -70.64405,6.09116 -107.15306,13.25606 -16.45217,3.22873 -18.61966,28.03388 -23.75041,44.32512 5.93075,10.22441 27.17892,14.87242 35.21137,0 14.60039,-17.63892 39.08175,-11.08249 59.09988,-15.74199 11.98934,-2.38034 24.07998,-4.26049 36.17797,-5.79908 -1.05501,74.87678 -2.09326,149.93783 2.62359,220.51971 0.45252,6.7716 11.89699,2.7665 16.01773,-4.6949 8.1659,-14.7863 23.09601,-26.3304 29.27377,-41.9775 12.52984,-31.73536 24.70659,-64.73545 30.7927,-98.31568 4.99152,-27.54032 8.42223,-55.58481 10.63245,-83.67881 5.73311,-0.50858 11.39971,-1.06711 17.1224,-1.65699 20.07169,-4.56716 38.96726,3.26981 58.13329,8.28503 17.85558,8.89083 39.23865,1.30661 45.01534,-13.25605 3.67952,-9.27569 -10.02308,-17.34024 -15.05115,-25.95975 -19.82556,-3.24023 -39.63686,-9.0181 -59.7903,-4.41869 -14.50688,1.42147 -28.97175,2.49787 -43.35833,3.45187 0.17189,-3.66972 0.41537,-7.38141 0.55234,-11.04671 1.25667,-33.62356 2.52196,-67.59409 2.48551,-101.35336 14.01425,-3.63631 28.05479,-7.12897 42.25366,-9.25162 7.28923,-1.08969 16.38986,3.05371 22.0934,0 5.41215,-2.89768 12.41134,-12.43143 11.18481,-17.9509 -1.74918,-7.87117 -11.3969,-19.17252 -20.02216,-22.23149 -12.03694,-4.26894 -28.41174,-4.31401 -42.11558,-0.55234 -4.81494,1.32167 -9.55265,2.74895 -14.36072,4.14253 -0.38442,-7.94754 -0.87882,-15.86247 -1.51892,-23.75044 -1.39325,-17.16931 -8.25983,-35.80467 -17.95089,-49.01976 -6.67527,-9.10261 -21.01839,-18.20197 -31.20696,-17.9509 z"
       id="path4649" />
  </g>
</svg>
