<?xml version="1.0" encoding="UTF-8" standalone="no"?>
<!-- Created with Inkscape (http://www.inkscape.org/) -->

<svg
   xmlns:dc="http://purl.org/dc/elements/1.1/"
   xmlns:cc="http://creativecommons.org/ns#"
   xmlns:rdf="http://www.w3.org/1999/02/22-rdf-syntax-ns#"
   xmlns:svg="http://www.w3.org/2000/svg"
   xmlns="http://www.w3.org/2000/svg"
   xmlns:sodipodi="http://sodipodi.sourceforge.net/DTD/sodipodi-0.dtd"
   xmlns:inkscape="http://www.inkscape.org/namespaces/inkscape"
   width="1000"
   height="1000"
   id="svg3173"
   version="1.1"
   inkscape:version="0.47 r22583"
   sodipodi:docname="8278.svg"
   inkscape:export-filename="E:\chinese\yan\8278.png"
   inkscape:export-xdpi="17.903368"
   inkscape:export-ydpi="17.903368">
  <title
     id="title2841">Grass Radical</title>
  <defs
     id="defs3175">
    <inkscape:perspective
       sodipodi:type="inkscape:persp3d"
       inkscape:vp_x="0 : 526.18109 : 1"
       inkscape:vp_y="0 : 1000 : 0"
       inkscape:vp_z="744.09448 : 526.18109 : 1"
       inkscape:persp3d-origin="372.04724 : 350.78739 : 1"
       id="perspective3181" />
    <inkscape:perspective
       id="perspective3191"
       inkscape:persp3d-origin="0.5 : 0.33333333 : 1"
       inkscape:vp_z="1 : 0.5 : 1"
       inkscape:vp_y="0 : 1000 : 0"
       inkscape:vp_x="0 : 0.5 : 1"
       sodipodi:type="inkscape:persp3d" />
    <inkscape:perspective
       id="perspective4006"
       inkscape:persp3d-origin="0.5 : 0.33333333 : 1"
       inkscape:vp_z="1 : 0.5 : 1"
       inkscape:vp_y="0 : 1000 : 0"
       inkscape:vp_x="0 : 0.5 : 1"
       sodipodi:type="inkscape:persp3d" />
    <inkscape:perspective
       id="perspective4034"
       inkscape:persp3d-origin="0.5 : 0.33333333 : 1"
       inkscape:vp_z="1 : 0.5 : 1"
       inkscape:vp_y="0 : 1000 : 0"
       inkscape:vp_x="0 : 0.5 : 1"
       sodipodi:type="inkscape:persp3d" />
    <inkscape:perspective
       id="perspective4081"
       inkscape:persp3d-origin="0.5 : 0.33333333 : 1"
       inkscape:vp_z="1 : 0.5 : 1"
       inkscape:vp_y="0 : 1000 : 0"
       inkscape:vp_x="0 : 0.5 : 1"
       sodipodi:type="inkscape:persp3d" />
    <inkscape:perspective
       id="perspective4147"
       inkscape:persp3d-origin="0.5 : 0.33333333 : 1"
       inkscape:vp_z="1 : 0.5 : 1"
       inkscape:vp_y="0 : 1000 : 0"
       inkscape:vp_x="0 : 0.5 : 1"
       sodipodi:type="inkscape:persp3d" />
    <inkscape:perspective
       id="perspective3858"
       inkscape:persp3d-origin="0.5 : 0.33333333 : 1"
       inkscape:vp_z="1 : 0.5 : 1"
       inkscape:vp_y="0 : 1000 : 0"
       inkscape:vp_x="0 : 0.5 : 1"
       sodipodi:type="inkscape:persp3d" />
    <inkscape:perspective
       id="perspective3876"
       inkscape:persp3d-origin="0.5 : 0.33333333 : 1"
       inkscape:vp_z="1 : 0.5 : 1"
       inkscape:vp_y="0 : 1000 : 0"
       inkscape:vp_x="0 : 0.5 : 1"
       sodipodi:type="inkscape:persp3d" />
    <inkscape:perspective
       id="perspective3901"
       inkscape:persp3d-origin="0.5 : 0.33333333 : 1"
       inkscape:vp_z="1 : 0.5 : 1"
       inkscape:vp_y="0 : 1000 : 0"
       inkscape:vp_x="0 : 0.5 : 1"
       sodipodi:type="inkscape:persp3d" />
    <inkscape:perspective
       id="perspective5282"
       inkscape:persp3d-origin="0.5 : 0.33333333 : 1"
       inkscape:vp_z="1 : 0.5 : 1"
       inkscape:vp_y="0 : 1000 : 0"
       inkscape:vp_x="0 : 0.5 : 1"
       sodipodi:type="inkscape:persp3d" />
    <inkscape:perspective
       id="perspective6657"
       inkscape:persp3d-origin="0.5 : 0.33333333 : 1"
       inkscape:vp_z="1 : 0.5 : 1"
       inkscape:vp_y="0 : 1000 : 0"
       inkscape:vp_x="0 : 0.5 : 1"
       sodipodi:type="inkscape:persp3d" />
    <inkscape:perspective
       id="perspective7221"
       inkscape:persp3d-origin="0.5 : 0.33333333 : 1"
       inkscape:vp_z="1 : 0.5 : 1"
       inkscape:vp_y="0 : 1000 : 0"
       inkscape:vp_x="0 : 0.5 : 1"
       sodipodi:type="inkscape:persp3d" />
    <inkscape:perspective
       id="perspective3073"
       inkscape:persp3d-origin="0.5 : 0.33333333 : 1"
       inkscape:vp_z="1 : 0.5 : 1"
       inkscape:vp_y="0 : 1000 : 0"
       inkscape:vp_x="0 : 0.5 : 1"
       sodipodi:type="inkscape:persp3d" />
  </defs>
  <sodipodi:namedview
     id="base"
     pagecolor="#ffffff"
     bordercolor="#666666"
     borderopacity="1.0"
     inkscape:pageopacity="0.0"
     inkscape:pageshadow="2"
     inkscape:zoom="0.49497475"
     inkscape:cx="262.31406"
     inkscape:cy="484.98808"
     inkscape:document-units="px"
     inkscape:current-layer="layer1"
     showgrid="false"
     inkscape:window-width="1440"
     inkscape:window-height="840"
     inkscape:window-x="-4"
     inkscape:window-y="-4"
     inkscape:window-maximized="1" />
  <metadata
     id="metadata3178">
    <rdf:RDF>
      <cc:Work
         rdf:about="">
        <dc:format>image/svg+xml</dc:format>
        <dc:type
           rdf:resource="http://purl.org/dc/dcmitype/StillImage" />
        <dc:title>Grass Radical</dc:title>
        <dc:date>2010-07-21</dc:date>
        <dc:creator>
          <cc:Agent>
            <dc:title>Alex Amies</dc:title>
          </cc:Agent>
        </dc:creator>
        <dc:rights>
          <cc:Agent>
            <dc:title>Copyright Alex Amies 2010</dc:title>
          </cc:Agent>
        </dc:rights>
        <dc:publisher>
          <cc:Agent>
            <dc:title>chinesenotes.com</dc:title>
          </cc:Agent>
        </dc:publisher>
        <dc:source>Yan Qin Ceremonial Inscription</dc:source>
        <dc:language>Chinese 中文</dc:language>
        <dc:description>Tracing from Tang Dynasty Ceremonial Inscription by Yan Zhenqing 颜真卿 (709－785)</dc:description>
        <cc:license
           rdf:resource="http://creativecommons.org/licenses/by/3.0/" />
      </cc:Work>
      <cc:License
         rdf:about="http://creativecommons.org/licenses/by/3.0/">
        <cc:permits
           rdf:resource="http://creativecommons.org/ns#Reproduction" />
        <cc:permits
           rdf:resource="http://creativecommons.org/ns#Distribution" />
        <cc:requires
           rdf:resource="http://creativecommons.org/ns#Notice" />
        <cc:requires
           rdf:resource="http://creativecommons.org/ns#Attribution" />
        <cc:permits
           rdf:resource="http://creativecommons.org/ns#DerivativeWorks" />
      </cc:License>
    </rdf:RDF>
  </metadata>
  <g
     inkscape:label="Layer 1"
     inkscape:groupmode="layer"
     id="layer1"
     transform="translate(0,-52.362183)">
    <g
       transform="matrix(4.7468709,0,0,4.7468709,-2397.0203,-2008.7694)"
       id="g12464"
       style="fill:#000000;fill-opacity:1">
      <path
         style="fill:#000000;stroke:#000000;stroke-width:4.74687098999999970px;stroke-linecap:butt;stroke-linejoin:miter;stroke-opacity:1;fill-opacity:1"
         d="M 362.3125 53.40625 C 358.60457 53.435684 354.86874 54.050133 351.15625 55.375 C 343.33075 57.805873 336.132 61.83179 329.03125 65.84375 C 318.85458 71.777291 304.99085 77.448255 303.5 90.8125 C 304.06051 105.81973 319.83062 112.67834 326.34375 124.6875 C 331.86512 133.38916 337.27316 142.17866 342.65625 150.96875 C 314.11639 157.83216 285.66934 165.12417 257.65625 173.90625 C 253.44013 174.73007 248.51051 175.48785 245.96875 179.40625 C 240.72493 191.63072 248.63544 204.49443 255 214.65625 C 266.49697 230.36009 289.79349 237.41288 307.09375 227.09375 C 329.16468 217.55418 352.28588 210.85469 375.25 203.78125 C 381.28732 213.27549 387.42873 222.69688 393.8125 231.96875 C 404.29843 249.83749 414.67986 270.50537 435.25 278.40625 C 446.06527 284.57324 460.44617 276.07472 458.875 263.34375 C 459.40836 248.23342 453.25428 233.98039 450.5 219.34375 C 447.16162 208.02683 442.1808 197.39315 436.71875 186.9375 C 443.98304 185.5061 451.30189 184.39755 458.6875 183.75 C 472.66585 184.06567 487.91255 185.51978 500.0625 177.09375 C 510.233 171.89882 521.14635 160.39126 516.0625 148.15625 C 505.47854 125.77561 477.42648 111.56528 453.625 121.21875 C 439.43688 126.0724 425.3978 131.41847 410.84375 135.03125 C 408.28059 128.01464 406.27365 120.78638 405.125 113.21875 C 405.93083 101.34711 411.95949 87.625217 402.34375 77.59375 C 393.71548 64.277418 378.38019 53.278704 362.3125 53.40625 z "
         transform="matrix(0.21066509,0,0,0.21066509,504.9685,434.20848)"
         id="path12422" />
      <path
         style="fill:#000000;stroke:#000000;stroke-width:4.74687098999999970px;stroke-linecap:butt;stroke-linejoin:miter;stroke-opacity:1;fill-opacity:1"
         d="M 621.65625 7.21875 C 614.39306 7.8019031 607.19749 9.3029101 600.28125 11.59375 C 590.27708 15.019709 577.37635 21.723325 578.375 34.125 C 582.85614 45.474578 593.87461 53.689209 595.5625 66.4375 C 598.21798 73.96675 599.78718 81.868279 600.1875 89.8125 C 582.79689 90.902458 563.80487 93.398954 551.125 106.53125 C 541.18425 117.34842 542.58322 136.37791 554.59375 145.15625 C 561.82812 151.14383 571.03353 155.02637 580.40625 155.125 C 573.83427 168.93167 567.42034 182.79673 563.8125 197.75 C 559.04033 210.56551 555.3701 226.60824 564.96875 238.21875 C 573.37418 246.77968 586.42089 240.82867 593.96875 234.125 C 609.28045 222.69866 619.15385 205.74084 625.375 187.96875 C 631.37059 173.90238 637.32879 159.80126 642.8125 145.53125 C 664.04937 142.3655 685.50357 138.81345 707.03125 140.90625 C 718.37252 141.58107 729.68977 139.89101 740.90625 138.46875 C 748.67099 137.49901 756.31249 131.28633 755.34375 122.8125 C 754.4792 108.35287 741.2136 98.736625 729.1875 93.0625 C 709.68947 83.492311 687.77213 82.5348 666.4375 84.28125 C 669.4469 78.28188 672.80361 72.484551 676.6875 66.96875 C 686.12447 61.581811 695.16512 50.7691 687.53125 39.9375 C 666.01421 24.073315 643.82442 11.458608 621.65625 7.21875 z "
         transform="matrix(0.21066509,0,0,0.21066509,504.9685,434.20848)"
         id="path12430" />
    </g>
  </g>
</svg>
