<?xml version="1.0" encoding="UTF-8" standalone="no"?>
<!-- Created with Inkscape (http://www.inkscape.org/) -->

<svg
   xmlns:dc="http://purl.org/dc/elements/1.1/"
   xmlns:cc="http://creativecommons.org/ns#"
   xmlns:rdf="http://www.w3.org/1999/02/22-rdf-syntax-ns#"
   xmlns:svg="http://www.w3.org/2000/svg"
   xmlns="http://www.w3.org/2000/svg"
   xmlns:sodipodi="http://sodipodi.sourceforge.net/DTD/sodipodi-0.dtd"
   xmlns:inkscape="http://www.inkscape.org/namespaces/inkscape"
   width="1000"
   height="1000"
   id="svg3173"
   version="1.1"
   inkscape:version="0.47 r22583"
   sodipodi:docname="834a.svg"
   inkscape:export-filename="E:\chinese\yan\834a.png"
   inkscape:export-xdpi="18.005705"
   inkscape:export-ydpi="18.005705">
  <title
     id="title4305">Jing</title>
  <defs
     id="defs3175">
    <inkscape:perspective
       sodipodi:type="inkscape:persp3d"
       inkscape:vp_x="0 : 526.18109 : 1"
       inkscape:vp_y="0 : 1000 : 0"
       inkscape:vp_z="744.09448 : 526.18109 : 1"
       inkscape:persp3d-origin="372.04724 : 350.78739 : 1"
       id="perspective3181" />
    <inkscape:perspective
       id="perspective3191"
       inkscape:persp3d-origin="0.5 : 0.33333333 : 1"
       inkscape:vp_z="1 : 0.5 : 1"
       inkscape:vp_y="0 : 1000 : 0"
       inkscape:vp_x="0 : 0.5 : 1"
       sodipodi:type="inkscape:persp3d" />
    <inkscape:perspective
       id="perspective4006"
       inkscape:persp3d-origin="0.5 : 0.33333333 : 1"
       inkscape:vp_z="1 : 0.5 : 1"
       inkscape:vp_y="0 : 1000 : 0"
       inkscape:vp_x="0 : 0.5 : 1"
       sodipodi:type="inkscape:persp3d" />
    <inkscape:perspective
       id="perspective4034"
       inkscape:persp3d-origin="0.5 : 0.33333333 : 1"
       inkscape:vp_z="1 : 0.5 : 1"
       inkscape:vp_y="0 : 1000 : 0"
       inkscape:vp_x="0 : 0.5 : 1"
       sodipodi:type="inkscape:persp3d" />
    <inkscape:perspective
       id="perspective4081"
       inkscape:persp3d-origin="0.5 : 0.33333333 : 1"
       inkscape:vp_z="1 : 0.5 : 1"
       inkscape:vp_y="0 : 1000 : 0"
       inkscape:vp_x="0 : 0.5 : 1"
       sodipodi:type="inkscape:persp3d" />
    <inkscape:perspective
       id="perspective4147"
       inkscape:persp3d-origin="0.5 : 0.33333333 : 1"
       inkscape:vp_z="1 : 0.5 : 1"
       inkscape:vp_y="0 : 1000 : 0"
       inkscape:vp_x="0 : 0.5 : 1"
       sodipodi:type="inkscape:persp3d" />
    <inkscape:perspective
       id="perspective3765"
       inkscape:persp3d-origin="0.5 : 0.33333333 : 1"
       inkscape:vp_z="1 : 0.5 : 1"
       inkscape:vp_y="0 : 1000 : 0"
       inkscape:vp_x="0 : 0.5 : 1"
       sodipodi:type="inkscape:persp3d" />
    <inkscape:perspective
       id="perspective3793"
       inkscape:persp3d-origin="0.5 : 0.33333333 : 1"
       inkscape:vp_z="1 : 0.5 : 1"
       inkscape:vp_y="0 : 1000 : 0"
       inkscape:vp_x="0 : 0.5 : 1"
       sodipodi:type="inkscape:persp3d" />
    <inkscape:perspective
       id="perspective3780"
       inkscape:persp3d-origin="0.5 : 0.33333333 : 1"
       inkscape:vp_z="1 : 0.5 : 1"
       inkscape:vp_y="0 : 1000 : 0"
       inkscape:vp_x="0 : 0.5 : 1"
       sodipodi:type="inkscape:persp3d" />
    <inkscape:perspective
       id="perspective4273"
       inkscape:persp3d-origin="0.5 : 0.33333333 : 1"
       inkscape:vp_z="1 : 0.5 : 1"
       inkscape:vp_y="0 : 1000 : 0"
       inkscape:vp_x="0 : 0.5 : 1"
       sodipodi:type="inkscape:persp3d" />
    <inkscape:perspective
       id="perspective4326"
       inkscape:persp3d-origin="0.5 : 0.33333333 : 1"
       inkscape:vp_z="1 : 0.5 : 1"
       inkscape:vp_y="0 : 1000 : 0"
       inkscape:vp_x="0 : 0.5 : 1"
       sodipodi:type="inkscape:persp3d" />
  </defs>
  <sodipodi:namedview
     id="base"
     pagecolor="#ffffff"
     bordercolor="#666666"
     borderopacity="1.0"
     inkscape:pageopacity="0.0"
     inkscape:pageshadow="2"
     inkscape:zoom="0.49497475"
     inkscape:cx="696.72294"
     inkscape:cy="498.40013"
     inkscape:document-units="px"
     inkscape:current-layer="g3743"
     showgrid="false"
     inkscape:window-width="1440"
     inkscape:window-height="840"
     inkscape:window-x="-4"
     inkscape:window-y="-4"
     inkscape:window-maximized="1" />
  <metadata
     id="metadata3178">
    <rdf:RDF>
      <cc:Work
         rdf:about="">
        <dc:format>image/svg+xml</dc:format>
        <dc:type
           rdf:resource="http://purl.org/dc/dcmitype/StillImage" />
        <dc:title>Jing</dc:title>
        <dc:date>2010-08-05</dc:date>
        <dc:creator>
          <cc:Agent>
            <dc:title>Alex Amies</dc:title>
          </cc:Agent>
        </dc:creator>
        <dc:rights>
          <cc:Agent>
            <dc:title>@ Alex Amies 2010</dc:title>
          </cc:Agent>
        </dc:rights>
        <dc:publisher>
          <cc:Agent>
            <dc:title>chinesenotes.com</dc:title>
          </cc:Agent>
        </dc:publisher>
        <dc:source>Yan Qin Ceremonial Inscription</dc:source>
        <dc:language>Chinese 中文</dc:language>
        <dc:description>Tracing from Tang Dynasty Ceremonial Inscription by Yan Zhenqing 颜真卿 (709－785)</dc:description>
        <cc:license
           rdf:resource="http://creativecommons.org/licenses/by/3.0/" />
      </cc:Work>
      <cc:License
         rdf:about="http://creativecommons.org/licenses/by/3.0/">
        <cc:permits
           rdf:resource="http://creativecommons.org/ns#Reproduction" />
        <cc:permits
           rdf:resource="http://creativecommons.org/ns#Distribution" />
        <cc:requires
           rdf:resource="http://creativecommons.org/ns#Notice" />
        <cc:requires
           rdf:resource="http://creativecommons.org/ns#Attribution" />
        <cc:permits
           rdf:resource="http://creativecommons.org/ns#DerivativeWorks" />
      </cc:License>
    </rdf:RDF>
  </metadata>
  <g
     inkscape:label="Layer 1"
     inkscape:groupmode="layer"
     id="layer1"
     transform="translate(0,-52.362183)">
    <g
       transform="matrix(4.7609464,0,0,4.7609464,-2504.5543,-3925.2914)"
       id="g3743"
       style="fill:none;fill-opacity:1">
      <path
         style="fill:#000000;fill-opacity:1;stroke:#000000;stroke-width:0.9757219px;stroke-linecap:butt;stroke-linejoin:miter;stroke-opacity:1"
         d="m 702.99819,836.20087 c -2.00585,0.004 -3.84499,1.70427 -5.78899,2.31932 -1.55791,2.25423 -2.70014,4.52892 -0.82264,6.9877 3.33953,22.9979 4.56439,46.59041 6.09365,69.84726 l 1.34061,106.25055 c -2.96776,2.1552 -6.22037,-0.484 -9.35377,-0.946 -1.80647,-0.4045 -6.6094,-2.37 -5.94135,0.8851 -0.88089,3.0139 1.40179,4.6266 3.47342,6.3164 2.67269,2.801 6.71064,4.6591 7.43427,8.7882 0.62725,3.3839 3.24647,5.5484 5.45386,7.9639 2.69265,0.6458 5.30951,1.0907 7.12957,-1.4643 5.08753,-10.2917 4.8792,-23.8788 6.09364,-35.3054 -0.13971,-26.50765 -0.34488,-53.02521 -1.24917,-79.52 -0.47535,-16.44674 -0.53788,-32.893 -2.16324,-49.2807 -0.95098,-12.46081 -0.23813,-25.76538 -2.86402,-37.38009 -0.64521,-2.85346 -3.98425,-5.2295 -7.43432,-5.15651 -0.4861,-0.21385 -0.93863,-0.30683 -1.40152,-0.30683 z m -56.82349,5.03518 c -1.82602,0.0931 -3.5812,0.59923 -5.02728,1.80004 -2.25473,6.9361 -5.05113,13.67879 -8.04365,20.32249 -3.15939,0.60853 -6.21852,1.32306 -9.01863,2.34953 -2.08708,0.76567 1.16567,3.31603 2.89453,4.30252 0.8683,0.22315 1.76177,0.51649 2.65073,0.85447 -4.92107,10.50224 -9.99783,20.94403 -13.89356,31.82655 -0.29429,0.9572 1.83331,2.02784 2.77258,1.73914 3.0304,-0.9307 6.62774,-2.97481 9.17098,-5.37037 7.32667,-8.00998 12.96176,-17.26214 18.2201,-26.76115 5.43553,-1.3942 10.90152,-3.14542 16.4529,-3.9971 6.88754,-1.45462 14.1619,-1.50204 21.02318,-2.34953 1.06304,-0.89677 2.97181,-2.24028 2.71167,-3.38716 -2.34101,-3.61402 -3.91154,-8.37725 -8.50067,-8.36097 -7.05216,-0.0976 -13.30776,3.79626 -20.04817,5.43126 -1.71043,0.34402 -3.47638,0.6155 -5.24057,0.88514 1.14928,-2.1143 2.29378,-4.23325 3.47341,-6.3164 0.81981,-1.31563 3.03621,-1.74891 3.50387,-3.1431 0.99763,-2.97433 -0.94541,-7.02535 -4.11325,-8.14713 -2.66289,-0.84842 -5.94473,-1.83629 -8.98817,-1.67823 z m -61.94217,12.84619 c -0.30916,0 -0.61978,0.0464 -0.88358,0.12087 -2.77515,1.01066 -6.57874,2.8795 -8.01316,5.21787 0.13647,4.54009 1.55582,9.13084 3.41246,13.67045 -3.25673,1.33375 -6.52376,2.64752 -9.8108,3.81439 -4.76246,1.93067 -10.6988,1.04879 -15.17328,3.44807 -0.4549,1.3119 -1.007,3.82321 0,4.88222 4.48107,3.54568 11.14321,9.03692 17.36698,7.96443 1.91653,-0.62109 3.8215,-1.14735 5.51476,-2.31886 2.2986,-2.21611 4.79243,-4.22348 7.40383,-6.07234 0.9019,1.98646 1.75484,3.95386 2.46793,5.88918 1.2189,5.05424 1.1624,11.01315 4.84447,15.10462 0.94932,0.74102 3.34688,0.26497 4.50929,-0.67131 4.92799,-2.96783 5.00487,-8.01603 4.08281,-13.27389 -1.81595,-4.54798 -2.96658,-9.46367 -4.1437,-14.37241 4.45981,-2.56989 8.99565,-5.10026 13.31468,-7.93373 0.57196,-0.71827 0.45304,-2.2575 0,-3.14263 -1.00113,-1.95533 -3.4621,-2.24262 -5.69762,-2.34954 -3.50424,0.89722 -6.93317,2.06223 -10.35925,3.32578 -1.44681,-4.37317 -3.34585,-8.53297 -6.24599,-12.14467 -0.64114,-0.58064 -1.66244,-1.10085 -2.58983,-1.15943 z m 89.97308,26.94433 c -0.21632,0.005 -0.45119,0 -0.67034,0.0464 -1.4043,0.57506 -3.44013,2.1566 -3.47336,3.84462 -0.35326,17.95714 2.56059,36.75851 2.37653,55.07827 -0.0635,6.32339 -2.71826,12.68814 -2.74217,18.8581 -0.01,2.27469 1.34335,4.75905 3.44291,6.07234 0.89532,0.55974 1.5334,2.08734 2.77264,1.61687 2.54057,-0.96371 4.45066,-2.68749 6.0632,-4.79063 1.92358,-2.50853 0.8404,-6.05607 0.94453,-9.0625 -0.3514,-22.0751 0.3718,-44.39102 -1.70623,-66.39919 -0.88255,-3.36112 -3.76073,-5.31458 -7.00771,-5.24857 z m -29.12774,15.34867 c -0.61059,-0.0464 -1.20642,-4.6e-4 -1.79765,0.0464 -3.35361,1.92463 -5.97018,5.36757 -10.20691,5.82828 -29.52669,8.94719 -59.26576,20.87384 -90.12537,23.80123 -0.34814,1.51087 -1.83294,3.41459 -1.03592,4.54658 2.38573,3.38716 8.47079,2.92459 12.67483,4.455 5.2336,2.06874 10.51948,-0.24174 15.44742,-1.98366 14.52592,-4.11937 29.30278,-7.46421 43.56978,-12.44965 1.82304,-0.74569 3.63443,-1.50298 5.45382,-2.25795 0.60078,7.42748 1.02752,14.82475 1.34061,22.21411 -7.69314,2.27562 -15.40964,4.51683 -23.12548,6.71342 -0.1114,-4.07705 -0.34814,-8.1434 -0.70079,-12.17535 -0.81199,-4.12634 -5.81852,-3.52246 -9.56707,-3.72281 -2.29562,-0.12088 -4.05841,0.49648 -6.09365,1.28167 -3.80767,1.46905 -2.40117,4.50893 -1.94998,7.65901 0.55237,3.85622 1.22474,7.71292 1.79764,11.59565 -8.49884,2.35046 -17.00584,4.67769 -25.53246,6.92679 l -10.5116,0 c -4.6051,2.09246 -1.44171,7.93003 2.65074,8.14713 5.4863,2.85533 11.52356,2.95621 17.51932,3.35648 5.04426,-4.16026 11.03575,-6.88869 16.94038,-9.5813 0.28873,3.03849 0.48725,6.06444 0.45721,9.09317 0.66654,27.64305 -10.64562,39.80676 -24.00905,61.85256 -0.33931,2.8871 5.44012,2.3547 8.10462,0.5798 11.27905,-6.4601 18.5919,-17.278 23.64341,-29.0498 4.69086,-14.93728 6.98391,-30.74852 7.31241,-46.53418 7.81615,-1.91115 15.63556,-3.82508 23.46062,-5.70601 0.31704,11.04662 0.40525,22.07696 0.45722,33.13846 0.0635,13.53749 -1.96011,27.10623 -1.55391,40.61433 0.21585,5.2728 -0.76562,14.5817 4.38745,18.1254 8.79671,-4.1983 12.68477,-56.49433 12.79674,-64.568 -0.19125,-10.35441 -0.18801,-20.69301 -0.39595,-31.033 2.54225,-0.58437 5.10186,-1.14269 7.64755,-1.70893 4.03398,-0.72753 8.13622,-1.9381 12.18736,-0.61039 4.04268,0.15807 9.93447,2.68053 12.27875,-1.92229 1.75346,-4.38016 0.13786,-10.41671 -3.56482,-13.51795 -2.84621,-3.82835 -8.91664,-3.14172 -12.03499,0.0605 -4.33004,3.21748 -9.90463,3.76791 -14.8381,5.67579 -0.66982,0.20455 -1.34094,0.40911 -2.0109,0.6104 -0.20518,-4.77717 -0.49134,-9.54365 -0.91408,-14.34172 -0.80168,-3.94921 -3.96211,-5.85246 -7.46471,-6.74365 1.40584,-0.5616 2.8203,-1.10875 4.23509,-1.64802 7.10902,-0.34402 14.20611,-0.83355 21.32783,-0.67129 4.50108,-1.24729 5.44616,-7.0923 2.74213,-10.40508 -2.16487,-3.77534 -6.72522,-5.47961 -10.99902,-5.67579 z"
         id="path3850" />
    </g>
  </g>
</svg>
