<?xml version="1.0" encoding="UTF-8" standalone="no"?>
<!-- Created with Inkscape (http://www.inkscape.org/) -->

<svg
   xmlns:dc="http://purl.org/dc/elements/1.1/"
   xmlns:cc="http://creativecommons.org/ns#"
   xmlns:rdf="http://www.w3.org/1999/02/22-rdf-syntax-ns#"
   xmlns:svg="http://www.w3.org/2000/svg"
   xmlns="http://www.w3.org/2000/svg"
   xmlns:sodipodi="http://sodipodi.sourceforge.net/DTD/sodipodi-0.dtd"
   xmlns:inkscape="http://www.inkscape.org/namespaces/inkscape"
   width="1000"
   height="1000"
   id="svg3173"
   version="1.1"
   inkscape:version="0.47 r22583"
   sodipodi:docname="8350.svg"
   inkscape:export-filename="E:\chinese\yan\8350.png"
   inkscape:export-xdpi="18.005705"
   inkscape:export-ydpi="18.005705">
  <title
     id="title3774">Jian</title>
  <defs
     id="defs3175">
    <inkscape:perspective
       sodipodi:type="inkscape:persp3d"
       inkscape:vp_x="0 : 526.18109 : 1"
       inkscape:vp_y="0 : 1000 : 0"
       inkscape:vp_z="744.09448 : 526.18109 : 1"
       inkscape:persp3d-origin="372.04724 : 350.78739 : 1"
       id="perspective3181" />
    <inkscape:perspective
       id="perspective3191"
       inkscape:persp3d-origin="0.5 : 0.33333333 : 1"
       inkscape:vp_z="1 : 0.5 : 1"
       inkscape:vp_y="0 : 1000 : 0"
       inkscape:vp_x="0 : 0.5 : 1"
       sodipodi:type="inkscape:persp3d" />
    <inkscape:perspective
       id="perspective4006"
       inkscape:persp3d-origin="0.5 : 0.33333333 : 1"
       inkscape:vp_z="1 : 0.5 : 1"
       inkscape:vp_y="0 : 1000 : 0"
       inkscape:vp_x="0 : 0.5 : 1"
       sodipodi:type="inkscape:persp3d" />
    <inkscape:perspective
       id="perspective4034"
       inkscape:persp3d-origin="0.5 : 0.33333333 : 1"
       inkscape:vp_z="1 : 0.5 : 1"
       inkscape:vp_y="0 : 1000 : 0"
       inkscape:vp_x="0 : 0.5 : 1"
       sodipodi:type="inkscape:persp3d" />
    <inkscape:perspective
       id="perspective4081"
       inkscape:persp3d-origin="0.5 : 0.33333333 : 1"
       inkscape:vp_z="1 : 0.5 : 1"
       inkscape:vp_y="0 : 1000 : 0"
       inkscape:vp_x="0 : 0.5 : 1"
       sodipodi:type="inkscape:persp3d" />
    <inkscape:perspective
       id="perspective4147"
       inkscape:persp3d-origin="0.5 : 0.33333333 : 1"
       inkscape:vp_z="1 : 0.5 : 1"
       inkscape:vp_y="0 : 1000 : 0"
       inkscape:vp_x="0 : 0.5 : 1"
       sodipodi:type="inkscape:persp3d" />
    <inkscape:perspective
       id="perspective3765"
       inkscape:persp3d-origin="0.5 : 0.33333333 : 1"
       inkscape:vp_z="1 : 0.5 : 1"
       inkscape:vp_y="0 : 1000 : 0"
       inkscape:vp_x="0 : 0.5 : 1"
       sodipodi:type="inkscape:persp3d" />
    <inkscape:perspective
       id="perspective3793"
       inkscape:persp3d-origin="0.5 : 0.33333333 : 1"
       inkscape:vp_z="1 : 0.5 : 1"
       inkscape:vp_y="0 : 1000 : 0"
       inkscape:vp_x="0 : 0.5 : 1"
       sodipodi:type="inkscape:persp3d" />
    <inkscape:perspective
       id="perspective3764"
       inkscape:persp3d-origin="0.5 : 0.33333333 : 1"
       inkscape:vp_z="1 : 0.5 : 1"
       inkscape:vp_y="0 : 1000 : 0"
       inkscape:vp_x="0 : 0.5 : 1"
       sodipodi:type="inkscape:persp3d" />
    <inkscape:perspective
       id="perspective4294"
       inkscape:persp3d-origin="0.5 : 0.33333333 : 1"
       inkscape:vp_z="1 : 0.5 : 1"
       inkscape:vp_y="0 : 1000 : 0"
       inkscape:vp_x="0 : 0.5 : 1"
       sodipodi:type="inkscape:persp3d" />
    <inkscape:perspective
       id="perspective4367"
       inkscape:persp3d-origin="0.5 : 0.33333333 : 1"
       inkscape:vp_z="1 : 0.5 : 1"
       inkscape:vp_y="0 : 1000 : 0"
       inkscape:vp_x="0 : 0.5 : 1"
       sodipodi:type="inkscape:persp3d" />
  </defs>
  <sodipodi:namedview
     id="base"
     pagecolor="#ffffff"
     bordercolor="#666666"
     borderopacity="1.0"
     inkscape:pageopacity="0.0"
     inkscape:pageshadow="2"
     inkscape:zoom="0.49497475"
     inkscape:cx="745.21026"
     inkscape:cy="500.98042"
     inkscape:document-units="px"
     inkscape:current-layer="g5429"
     showgrid="false"
     inkscape:window-width="1440"
     inkscape:window-height="840"
     inkscape:window-x="-4"
     inkscape:window-y="-4"
     inkscape:window-maximized="1" />
  <metadata
     id="metadata3178">
    <rdf:RDF>
      <cc:Work
         rdf:about="">
        <dc:format>image/svg+xml</dc:format>
        <dc:type
           rdf:resource="http://purl.org/dc/dcmitype/StillImage" />
        <dc:title>Jian</dc:title>
        <dc:date>2010-08-02</dc:date>
        <dc:creator>
          <cc:Agent>
            <dc:title>Alex Amies</dc:title>
          </cc:Agent>
        </dc:creator>
        <dc:rights>
          <cc:Agent>
            <dc:title>@ Alex Amies 2010</dc:title>
          </cc:Agent>
        </dc:rights>
        <dc:publisher>
          <cc:Agent>
            <dc:title>chinesenotes.com</dc:title>
          </cc:Agent>
        </dc:publisher>
        <dc:source>Yan Qin Ceremonial Inscription</dc:source>
        <dc:language>Chinese 中文</dc:language>
        <dc:description>Tracing from Tang Dynasty Ceremonial Inscription by Yan Zhenqing 颜真卿 (709－785)</dc:description>
        <cc:license
           rdf:resource="http://creativecommons.org/licenses/by/3.0/" />
      </cc:Work>
      <cc:License
         rdf:about="http://creativecommons.org/licenses/by/3.0/">
        <cc:permits
           rdf:resource="http://creativecommons.org/ns#Reproduction" />
        <cc:permits
           rdf:resource="http://creativecommons.org/ns#Distribution" />
        <cc:requires
           rdf:resource="http://creativecommons.org/ns#Notice" />
        <cc:requires
           rdf:resource="http://creativecommons.org/ns#Attribution" />
        <cc:permits
           rdf:resource="http://creativecommons.org/ns#DerivativeWorks" />
      </cc:License>
    </rdf:RDF>
  </metadata>
  <g
     inkscape:label="Layer 1"
     inkscape:groupmode="layer"
     id="layer1"
     transform="translate(0,-52.362183)">
    <g
       transform="matrix(4.7513766,0,0,4.7513766,-1438.7404,-2863.5829)"
       id="g5429"
       style="fill:none;fill-opacity:1">
      <g
         transform="matrix(1.0020141,0,0,1.0020141,191.4486,611.25145)"
         id="g5576"
         style="fill:#000000;fill-opacity:1">
        <path
           style="fill:#000000;fill-opacity:1;stroke:#000000;stroke-width:1px;stroke-linecap:butt;stroke-linejoin:miter;stroke-opacity:1"
           d="m 190.4375,8.78125 c -0.77421,0.01525 -1.63702,0.2610334 -2.65625,0.78125 -2.65342,1.184184 -5.0068,3.593616 -5.4375,6.53125 -0.80079,3.337021 1.97651,6.02793 2.96875,9.03125 0.69776,3.866352 1.33517,7.761375 1.96875,11.65625 -9.07939,1.19971 -18.20468,2.08407 -26.5625,4.5 -1.29052,0.373041 -2.28453,2.83109 -1.4375,3.9375 3.67019,4.794073 7.26258,6.723853 10.90625,10.03125 1.57476,1.581173 3.93248,3.096532 5.84375,2.3125 4.70638,-1.930627 9.1418,-4.411211 13.4375,-7.09375 0.51859,3.254649 1.04766,6.50697 1.59375,9.75 -0.2381,0.833333 -1.09492,1.808523 -0.71875,2.5 1.13697,2.090013 3.75697,3.606146 5.96875,5 2.3143,2.058522 6.89276,-0.494998 6.90625,-2.84375 0.0368,-6.410601 -1.12287,-14.086546 -2.5,-21.78125 3.04274,-1.997221 6.11675,-3.940952 9.28125,-5.71875 2.34266,-1.316094 7.68271,-1.152728 7.125,-3.78125 -0.70697,-3.332013 -4.67988,-1.993588 -10.1875,-0.71875 -2.53023,0.791951 -5.13066,1.423842 -7.75,1.96875 -0.47051,-2.517061 -0.9375,-4.998431 -1.34375,-7.375 -0.0726,-2.843995 0.1669,-5.741571 -0.0937,-8.5625 -2.11267,-3.788034 -3.13175,-10.2073518 -7.3125,-10.125 z"
           id="path5535" />
        <path
           style="fill:#000000;fill-opacity:1;stroke:#000000;stroke-width:1px;stroke-linecap:butt;stroke-linejoin:miter;stroke-opacity:1"
           d="m 248.90625,6.46875 c -1.00648,0.031798 -2.05685,0.1309675 -3.1875,0.1875 -7.58107,3.3300712 -5.21396,4.037736 -8.125,20.6875 -1.36082,0.476985 -2.72458,0.953283 -4.03125,1.4375 -1.06717,0.395464 -0.91943,2.764371 -0.34375,3.59375 0.55779,0.803603 1.70115,1.676955 2.9375,2.125 -1.35654,6.599564 -2.96422,13.194305 -6.1875,19.125 -1.30378,1.875835 -0.72552,2.274472 0.75,3.75 4.72778,-1.33255 8.75238,-3.863259 10.875,-8.34375 3.35612,-5.296727 6.29945,-10.685302 8.9375,-16.21875 7.81778,-1.187973 15.63227,-2.287321 23.46875,-3.34375 3.44562,-1.764151 5.23929,-2.653645 5.65625,-6.40625 -2.03494,-0.908752 -3.79908,-2.717026 -6.0625,-2.90625 -6.07316,-0.08745 -12.33266,0.747491 -18.46875,2.09375 0.93902,-2.388922 1.84277,-4.826232 2.6875,-7.28125 0.70005,-1.900472 -0.21574,-3.903595 -0.65625,-5.8125 -2.65864,-2.4535062 -5.23055,-2.7828952 -8.25,-2.6875 z"
           id="path5541" />
        <path
           style="fill:#000000;fill-opacity:1;stroke:#000000;stroke-width:1px;stroke-linecap:butt;stroke-linejoin:miter;stroke-opacity:1"
           d="m 214.53125,54.09375 c -0.67626,-0.0157 -1.35391,0.01553 -2.03125,0.0625 -2.53529,4.779618 -4.80812,9.679553 -7,14.625 -13.95418,4.763263 -27.93342,9.491671 -42.28125,12.875 -0.83333,1.428571 -2.90899,2.871555 -2.5,4.28125 1.08719,3.747258 3.36901,10.096429 9.125,7.53125 10.09101,-3.907473 19.81507,-8.686388 29.8125,-12.78125 0.24867,-0.09723 0.50122,-0.184853 0.75,-0.28125 -3.17088,7.228783 -6.45677,14.395875 -10.4375,21.25 -2.42152,4.44812 -5.02359,8.78359 -7.71875,13.0625 -0.14693,-2.44954 -0.29147,-4.89479 -0.46875,-7.34375 -2.38439,-3.98533 -6.44209,-5.26956 -10.78125,-5.90625 -1.86104,-0.50713 -3.74432,-0.59255 -5.65625,-0.53125 -3.25108,2.94524 -1.00673,7.72779 1.03125,10.75 1.6686,7.25906 2.55364,14.70205 3.09375,22.1875 -2.52985,3.65633 -5.0508,7.30475 -7.5625,10.96875 -8.97658,10.09839 -17.16183,20.98337 -27.25,30.03125 2.83529,3.80083 8.48404,-2.07166 11.65625,-3.75 8.94373,-6.62619 16.62208,-14.62957 23.875,-23.03125 0.11719,3.19756 0.2194,6.38888 0.34375,9.5625 0.36659,9.7624 -0.68612,19.51418 -0.5625,29.28125 0.15244,2.82335 -0.8087,6.20105 2.03125,8.03125 2.39111,2.64811 7.20116,4.4708 9.21875,0.5 2.16057,-2.27636 2.81355,-5.57232 3.75,-8.5 -0.87762,-18.14387 -1.14522,-36.30356 -1.84375,-54.4375 1.45352,-1.78216 2.91128,-3.58074 4.375,-5.34375 11.4858,-16.70428 19.90275,-35.227584 30.15625,-52.65625 12.86596,-3.678357 25.99777,-5.697293 39.6875,-4.90625 4.87783,0.54335 4.22604,5.116335 4.09375,8.8125 0.23833,1.754424 -0.13074,3.381756 -0.78125,4.9375 -13.41194,4.774331 -27.29394,11.100306 -40.3125,17.90625 l -1.78125,3.9375 c 0,0 4.02446,7.34202 6.78125,9.28125 2.13771,1.50375 2.76149,-4.42922 3.9375,-6.78125 5.07105,-4.67657 10.90792,-7.04951 17.5,-8.5625 0,0 3.07567,0.01386 3.9375,1.0625 1.06092,1.29089 0.34375,5 0.34375,5 l -4.5,12.125 c -0.62472,-0.0413 -1.24424,-0.0293 -1.90625,0.0312 -0.53671,3.18165 -0.95432,6.40842 -0.21875,9.59375 0.23158,1.40958 0.39644,2.81344 0.53125,4.21875 -17.88478,3.47965 -35.80845,6.73357 -53.53125,11.1875 4.14735,4.45101 11.69483,10.62318 16,8.15625 5.74945,-2.22144 11.1954,-5.49606 17.40625,-6.21875 6.74446,-1.21023 13.54886,-2.5052 20.375,-3.5625 -0.4608,11.92589 -3.55058,23.70659 -6.71875,35.3125 -1.09023,4.07269 -2.27386,8.13897 -3.75,12.0625 -4.61621,0.2675 -9.15648,-3.05153 -13.3125,-5.0625 -4.31137,2.35279 1.05021,5.57642 2.34375,8.21875 2.58536,3.31181 3.49714,7.55358 5.09375,11.375 1.13279,5.39726 4.19344,5.10657 8.96875,6.125 10.39237,-7.77962 13.49077,-14.95858 17.1875,-26.71875 3.64805,-11.48664 5.00975,-23.11568 5.28125,-35.0625 -0.117,-2.73821 -0.36612,-5.38379 -0.75,-7.96875 2.78104,-0.22153 5.55631,-0.39744 8.34375,-0.4375 6.60966,1.27927 16.12346,0.46157 20,7.1875 0.65485,1.44781 0.52298,4.6709 2.71875,2.53125 3.81957,-1.5143 5.30429,-6.14415 7.21875,-9.53125 -0.43858,-7.65676 -4.51414,-12.31784 -11.5,-15.40625 -4.66981,-1.20738 -9.66384,1.50754 -14.40625,2.1875 -4.96156,1.1414 -9.92365,2.19705 -14.90625,3.21875 -1.2041,-3.30749 -2.78746,-6.50109 -4.875,-9.625 -0.54761,-0.32102 -1.10632,-0.6047 -1.65625,-0.84375 12.4858,-5.72439 18.48118,-18.3116 23.4375,-30.59375 -0.7082,-1.521553 -1.69954,-3.007795 -2.84375,-4.15625 2.28158,-1.1127 4.32976,-2.190434 5.34375,-2.625 3.72892,-2.995398 3.45513,-8.734841 -1,-10.9375 C 267.4364,62.557529 258.19447,56.702195 247,58.34375 c -7.12249,1.209785 -14.31738,2.149971 -21.375,3.6875 -0.022,0.0071 -0.0405,0.02417 -0.0625,0.03125 0.0552,-0.08086 0.10087,-0.169225 0.15625,-0.25 2.42667,-2.607803 -2.06355,-7.368089 -5.125,-7.0625 -2.00267,-0.314924 -4.03371,-0.609164 -6.0625,-0.65625 z"
           id="path5545" />
      </g>
    </g>
  </g>
</svg>
