<?xml version="1.0" encoding="UTF-8" standalone="no"?>
<!-- Created with Inkscape (http://www.inkscape.org/) -->

<svg
   xmlns:dc="http://purl.org/dc/elements/1.1/"
   xmlns:cc="http://creativecommons.org/ns#"
   xmlns:rdf="http://www.w3.org/1999/02/22-rdf-syntax-ns#"
   xmlns:svg="http://www.w3.org/2000/svg"
   xmlns="http://www.w3.org/2000/svg"
   xmlns:sodipodi="http://sodipodi.sourceforge.net/DTD/sodipodi-0.dtd"
   xmlns:inkscape="http://www.inkscape.org/namespaces/inkscape"
   width="1000"
   height="1000"
   id="svg3173"
   version="1.1"
   inkscape:version="0.47 r22583"
   sodipodi:docname="83ef.svg"
   inkscape:export-filename="E:\chinese\yan\right_pointed.png"
   inkscape:export-xdpi="17.903368"
   inkscape:export-ydpi="17.903368">
  <title
     id="title4490">Hua--</title>
  <defs
     id="defs3175">
    <inkscape:perspective
       sodipodi:type="inkscape:persp3d"
       inkscape:vp_x="0 : 526.18109 : 1"
       inkscape:vp_y="0 : 1000 : 0"
       inkscape:vp_z="744.09448 : 526.18109 : 1"
       inkscape:persp3d-origin="372.04724 : 350.78739 : 1"
       id="perspective3181" />
    <inkscape:perspective
       id="perspective3191"
       inkscape:persp3d-origin="0.5 : 0.33333333 : 1"
       inkscape:vp_z="1 : 0.5 : 1"
       inkscape:vp_y="0 : 1000 : 0"
       inkscape:vp_x="0 : 0.5 : 1"
       sodipodi:type="inkscape:persp3d" />
    <inkscape:perspective
       id="perspective4006"
       inkscape:persp3d-origin="0.5 : 0.33333333 : 1"
       inkscape:vp_z="1 : 0.5 : 1"
       inkscape:vp_y="0 : 1000 : 0"
       inkscape:vp_x="0 : 0.5 : 1"
       sodipodi:type="inkscape:persp3d" />
    <inkscape:perspective
       id="perspective4034"
       inkscape:persp3d-origin="0.5 : 0.33333333 : 1"
       inkscape:vp_z="1 : 0.5 : 1"
       inkscape:vp_y="0 : 1000 : 0"
       inkscape:vp_x="0 : 0.5 : 1"
       sodipodi:type="inkscape:persp3d" />
    <inkscape:perspective
       id="perspective4081"
       inkscape:persp3d-origin="0.5 : 0.33333333 : 1"
       inkscape:vp_z="1 : 0.5 : 1"
       inkscape:vp_y="0 : 1000 : 0"
       inkscape:vp_x="0 : 0.5 : 1"
       sodipodi:type="inkscape:persp3d" />
    <inkscape:perspective
       id="perspective4147"
       inkscape:persp3d-origin="0.5 : 0.33333333 : 1"
       inkscape:vp_z="1 : 0.5 : 1"
       inkscape:vp_y="0 : 1000 : 0"
       inkscape:vp_x="0 : 0.5 : 1"
       sodipodi:type="inkscape:persp3d" />
    <inkscape:perspective
       id="perspective3858"
       inkscape:persp3d-origin="0.5 : 0.33333333 : 1"
       inkscape:vp_z="1 : 0.5 : 1"
       inkscape:vp_y="0 : 1000 : 0"
       inkscape:vp_x="0 : 0.5 : 1"
       sodipodi:type="inkscape:persp3d" />
    <inkscape:perspective
       id="perspective3876"
       inkscape:persp3d-origin="0.5 : 0.33333333 : 1"
       inkscape:vp_z="1 : 0.5 : 1"
       inkscape:vp_y="0 : 1000 : 0"
       inkscape:vp_x="0 : 0.5 : 1"
       sodipodi:type="inkscape:persp3d" />
    <inkscape:perspective
       id="perspective3901"
       inkscape:persp3d-origin="0.5 : 0.33333333 : 1"
       inkscape:vp_z="1 : 0.5 : 1"
       inkscape:vp_y="0 : 1000 : 0"
       inkscape:vp_x="0 : 0.5 : 1"
       sodipodi:type="inkscape:persp3d" />
    <inkscape:perspective
       id="perspective5282"
       inkscape:persp3d-origin="0.5 : 0.33333333 : 1"
       inkscape:vp_z="1 : 0.5 : 1"
       inkscape:vp_y="0 : 1000 : 0"
       inkscape:vp_x="0 : 0.5 : 1"
       sodipodi:type="inkscape:persp3d" />
    <inkscape:perspective
       id="perspective6657"
       inkscape:persp3d-origin="0.5 : 0.33333333 : 1"
       inkscape:vp_z="1 : 0.5 : 1"
       inkscape:vp_y="0 : 1000 : 0"
       inkscape:vp_x="0 : 0.5 : 1"
       sodipodi:type="inkscape:persp3d" />
    <inkscape:perspective
       id="perspective7221"
       inkscape:persp3d-origin="0.5 : 0.33333333 : 1"
       inkscape:vp_z="1 : 0.5 : 1"
       inkscape:vp_y="0 : 1000 : 0"
       inkscape:vp_x="0 : 0.5 : 1"
       sodipodi:type="inkscape:persp3d" />
  </defs>
  <sodipodi:namedview
     id="base"
     pagecolor="#ffffff"
     bordercolor="#666666"
     borderopacity="1.0"
     inkscape:pageopacity="0.0"
     inkscape:pageshadow="2"
     inkscape:zoom="0.49497475"
     inkscape:cx="239.08055"
     inkscape:cy="434.48045"
     inkscape:document-units="px"
     inkscape:current-layer="layer1"
     showgrid="false"
     inkscape:window-width="1440"
     inkscape:window-height="840"
     inkscape:window-x="-4"
     inkscape:window-y="-4"
     inkscape:window-maximized="1" />
  <metadata
     id="metadata3178">
    <rdf:RDF>
      <cc:Work
         rdf:about="">
        <dc:format>image/svg+xml</dc:format>
        <dc:type
           rdf:resource="http://purl.org/dc/dcmitype/StillImage" />
        <dc:title>Hua--</dc:title>
        <dc:date>2010-07-13</dc:date>
        <dc:creator>
          <cc:Agent>
            <dc:title>Alex Amies</dc:title>
          </cc:Agent>
        </dc:creator>
        <dc:rights>
          <cc:Agent>
            <dc:title>Copyright Alex Amies 2010</dc:title>
          </cc:Agent>
        </dc:rights>
        <dc:publisher>
          <cc:Agent>
            <dc:title>chinesenotes.com</dc:title>
          </cc:Agent>
        </dc:publisher>
        <dc:source>Yan Qin Ceremonial Inscription</dc:source>
        <dc:language>Chinese 中文</dc:language>
        <dc:description>Tracing from Tang Dynasty Ceremonial Inscription by Yan Zhenqing 颜真卿 (709－785)</dc:description>
        <cc:license
           rdf:resource="http://creativecommons.org/licenses/by/3.0/" />
      </cc:Work>
      <cc:License
         rdf:about="http://creativecommons.org/licenses/by/3.0/">
        <cc:permits
           rdf:resource="http://creativecommons.org/ns#Reproduction" />
        <cc:permits
           rdf:resource="http://creativecommons.org/ns#Distribution" />
        <cc:requires
           rdf:resource="http://creativecommons.org/ns#Notice" />
        <cc:requires
           rdf:resource="http://creativecommons.org/ns#Attribution" />
        <cc:permits
           rdf:resource="http://creativecommons.org/ns#DerivativeWorks" />
      </cc:License>
    </rdf:RDF>
  </metadata>
  <g
     inkscape:label="Layer 1"
     inkscape:groupmode="layer"
     id="layer1"
     transform="translate(0,-52.362183)">
    <path
       style="fill:#000000;stroke:#000000;stroke-width:4.74687098999999970px;stroke-linecap:butt;stroke-linejoin:miter;stroke-opacity:1;fill-opacity:1"
       d="M 621.65625 7.21875 C 614.39306 7.801903 607.19749 9.30291 600.28125 11.59375 C 590.27708 15.019709 577.37636 21.723325 578.375 34.125 C 582.85614 45.474579 593.8746 53.68921 595.5625 66.4375 C 598.21798 73.966752 599.78718 81.868279 600.1875 89.8125 C 582.79688 90.902462 563.80487 93.398951 551.125 106.53125 C 541.18424 117.34842 542.58322 136.37791 554.59375 145.15625 C 561.82812 151.14383 571.03354 155.02637 580.40625 155.125 C 573.83427 168.93166 567.42034 182.79673 563.8125 197.75 C 559.25552 209.98761 555.70286 225.13964 563.75 236.59375 C 528.77072 246.28568 494.20468 257.87056 458.9375 266.40625 C 459.01674 265.41005 459.00593 264.40466 458.875 263.34375 C 459.40836 248.23342 453.25428 233.98039 450.5 219.34375 C 447.16162 208.02683 442.1808 197.39315 436.71875 186.9375 C 443.98304 185.5061 451.3019 184.39755 458.6875 183.75 C 472.66585 184.06567 487.91255 185.51978 500.0625 177.09375 C 510.233 171.89882 521.14635 160.39126 516.0625 148.15625 C 505.47855 125.77561 477.42647 111.56527 453.625 121.21875 C 439.43688 126.07241 425.39781 131.41847 410.84375 135.03125 C 408.28059 128.01464 406.27365 120.78638 405.125 113.21875 C 405.93083 101.34711 411.95948 87.62522 402.34375 77.59375 C 391.72433 61.20442 370.95621 48.30905 351.15625 55.375 C 343.33075 57.80588 336.13199 61.83179 329.03125 65.84375 C 318.85457 71.77729 304.99085 77.44825 303.5 90.8125 C 304.06051 105.81973 319.83061 112.67835 326.34375 124.6875 C 331.86512 133.38916 337.27316 142.17866 342.65625 150.96875 C 314.11639 157.83216 285.66934 165.12416 257.65625 173.90625 C 253.44013 174.73007 248.51051 175.48785 245.96875 179.40625 C 240.72493 191.63072 248.63545 204.49444 255 214.65625 C 266.49697 230.36009 289.7935 237.41288 307.09375 227.09375 C 329.16468 217.55418 352.28588 210.85469 375.25 203.78125 C 381.28732 213.27549 387.42873 222.69688 393.8125 231.96875 C 402.80534 247.29316 411.72979 264.66179 427.0625 274.28125 C 389.55428 283.9182 351.48359 292.9582 312.5625 290.0625 C 290.73316 289.95855 267.18297 293.96914 251.0625 309.96875 C 234.51145 322.74258 234.77863 354.97219 257.40625 360.8125 C 280.33032 367.70786 300.20919 350.12985 321.3125 344.25 C 369.34034 325.79748 417.93255 308.37512 468.4375 297.96875 C 469.43515 297.74 470.43911 297.50925 471.4375 297.28125 C 469.97293 311.9475 473.20436 328.39976 473.15625 342.15625 C 473.57761 410.67044 475.45636 479.16476 478.15625 547.625 C 455.13922 553.27182 432.08822 558.82727 408.96875 564.1875 C 414.58119 558.1218 415.96906 548.15952 415.4375 540.125 C 413.68273 520.32679 404.74998 502.17502 399.96875 483.0625 C 398.36552 478.25071 396.37226 473.5785 394.21875 468.96875 C 396.45703 466.86305 398.56149 464.58954 400.46875 462.125 C 405.07303 455.51764 413.44779 454.10985 419.21875 449.0625 C 427.42144 438.29869 424.57492 423.84489 423.46875 411.375 C 424.0746 403.99485 418.56437 394.5376 410.125 398.21875 C 399.62597 402.84771 394.0528 414.39688 383.1875 418.5625 C 379.609 420.39268 376.02808 422.20719 372.4375 424.03125 C 370.17711 417.80751 368.46641 411.40271 367.6875 404.65625 C 367.37326 391.85465 375.75455 378.17631 368.125 366.125 C 360.34896 351.82267 343.03892 341.04219 326.625 346.6875 C 317.42903 349.41083 309.27411 354.79916 301.90625 360.8125 C 294.31396 366.61493 286.89149 376.57532 291.375 386.46875 C 296.57377 398.27364 308.65975 405.67508 312.53125 418.28125 C 316.46796 427.91673 319.54834 437.83933 322.4375 447.84375 C 305.30467 455.1872 287.82063 461.59112 269.71875 466.21875 C 265.79508 466.68205 261.35083 465.19688 257.84375 467.625 C 245.61932 477.55697 244.87795 496.87201 253.4375 509.4375 C 259.86757 519.25697 270.06351 530.19734 282.9375 528.5 C 293.59854 526.32427 301.61081 518.09285 311.8125 514.65625 C 321.33381 510.26706 330.78968 505.75362 340.1875 501.09375 C 341.05452 502.94756 341.9857 504.7705 342.9375 506.59375 C 350.68885 523.58185 361.93302 538.57158 371.71875 554.375 C 375.61562 560.54423 381.66198 566.44507 388.65625 568.84375 C 307.54077 587.10122 225.65992 601.96334 142.53125 606 C 125.2383 607.24463 108.04346 604.97759 91.6875 601.5625 C 63.306244 626.38294 95.658292 660.92936 106.21875 687.0625 C 127.54535 718.49561 158.84991 699.28056 177.1875 677.0625 C 246.92957 639.07766 325.19122 619.75046 402.6875 604.875 C 429.66258 601.63356 454.23781 593.85661 479.78125 586.375 C 481.31915 621.75345 483.01397 657.13469 484.8125 692.5 C 414.2864 707.70032 343.04273 719.48408 272.59375 735.0625 C 270.30723 736.032 268.23722 737.30862 266.3125 738.875 C 253.69689 756.29616 247.71053 790.4857 273.6875 798.84375 C 294.50082 801.56846 313.0131 787.87961 331.9375 781.125 C 373.51952 761.41518 415.49412 741.76647 460.53125 731.28125 C 469.19279 728.91243 477.826 726.37121 486.4375 723.78125 C 487.57511 745.65454 488.74916 767.50645 489.90625 789.375 C 494.30152 845.5704 505.86274 900.26534 518.125 955.375 C 524.73972 979.5524 529.50183 1017.0968 546.96875 982.21875 C 553.01062 950.03995 563.16599 921.64393 570.59375 890.96875 C 578.67553 826.52405 577.50799 761.84983 575.0625 697.15625 C 594.04617 692.0582 613.19073 687.68428 632.6875 684.75 C 651.84274 679.96549 670.19951 688.53877 684.5625 700.65625 C 698.76457 711.03167 715.43912 725.8131 734.1875 721.21875 C 753.35033 705.84026 738.69417 676.96298 731.125 658.5625 C 723.71409 632.87998 695.98193 624.24271 672.71875 633.90625 C 638.51137 642.13185 607.0277 658.49486 574 670.1875 C 572.58442 635.61105 571.11589 601.02952 570.8125 566.46875 C 616.29497 557.26677 655.5713 549.69064 696.3125 543.875 C 729.8311 546.47505 761.60537 533.55931 794.6875 532.6875 C 829.24894 535.95933 853.04692 571.44484 889.5 569.59375 C 929.98914 564.24374 898.12416 510.6086 882.9375 492.21875 C 867.81392 454.38191 817.87306 450.78373 801.125 489.53125 C 761.92463 511.56276 721.92569 506.26333 676 514.03125 C 640.36373 514.53735 606.11605 521.55873 571 528.59375 C 571.67769 474.98168 569.64857 421.35862 570.3125 367.78125 C 572.1208 338.95627 576.99959 303.92632 557.53125 280.4375 C 584.6163 276.48868 611.88418 274.22545 639.28125 275 C 655.24635 278.6794 678.57632 276.92386 682.65625 257.40625 C 687.78501 235.94413 665.7638 214.69631 644.40625 219.96875 C 630.14059 221.52889 616.09622 223.98999 602.15625 227 C 612.90918 216.18534 620.34446 202.33961 625.375 187.96875 C 631.37059 173.90238 637.32879 159.80126 642.8125 145.53125 C 664.04937 142.3655 685.50358 138.81345 707.03125 140.90625 C 718.37252 141.58106 729.68978 139.89101 740.90625 138.46875 C 748.67099 137.49902 756.31249 131.28633 755.34375 122.8125 C 754.4792 108.35287 741.2136 98.73663 729.1875 93.0625 C 709.68947 83.492312 687.77213 82.534799 666.4375 84.28125 C 669.4469 78.28188 672.80361 72.484554 676.6875 66.96875 C 686.12447 61.58182 695.16512 50.769103 687.53125 39.9375 C 666.0142 24.073315 643.82442 11.458607 621.65625 7.21875 z M 689.15625 320.8125 C 682.63733 320.92731 676.16655 322.15326 669.8125 323.53125 C 661.34062 325.40926 650.34425 326.90308 646.6875 336.0625 C 645.30592 342.94417 647.18544 349.95528 647.6875 356.9375 C 637.33138 358.31289 627.17228 360.61099 617.53125 365.09375 C 610.7474 368.42316 604.64548 373.26137 600.28125 379.46875 C 594.62455 388.29466 596.482 401.18602 603.8125 408.5 C 611.20053 413.74448 621.03027 413.7493 629.71875 413 C 633.22942 412.41433 636.67318 411.49803 640.09375 410.5 C 637.20081 424.07757 633.36091 437.42091 627.71875 450.1875 C 622.19908 458.50658 615.12229 466.35187 613.125 476.4375 C 608.1715 484.87549 614.47223 496.52121 624.3125 496.75 C 636.18755 498.72978 649.51145 495.51187 658.09375 486.84375 C 666.22533 476.76235 667.70156 463.18349 675.125 452.65625 C 684.40273 436.66811 692.26168 419.92526 700.125 403.21875 C 707.15521 403.22185 714.19699 403.32104 721.21875 403.375 C 733.66803 404.32428 746.46934 405.75964 758.59375 401.84375 C 767.9711 399.66821 778.75493 395.61584 781.96875 385.53125 C 785.89745 374.9866 785.74405 361.21202 777.15625 352.96875 C 769.10471 347.57431 759.17754 351.68576 750.25 350.5 C 740.71199 349.98673 731.13916 349.85222 721.59375 350.1875 C 721.72601 348.13756 721.74582 346.0734 721.625 343.96875 C 721.00173 330.65102 707.94625 322.1382 695.6875 321.09375 C 693.51459 320.85557 691.32922 320.77423 689.15625 320.8125 z "
       transform="translate(0,52.362183)"
       id="path12422" />
  </g>
</svg>
