<?xml version="1.0" encoding="UTF-8" standalone="no"?>
<!-- Created with Inkscape (http://www.inkscape.org/) -->

<svg
   xmlns:dc="http://purl.org/dc/elements/1.1/"
   xmlns:cc="http://creativecommons.org/ns#"
   xmlns:rdf="http://www.w3.org/1999/02/22-rdf-syntax-ns#"
   xmlns:svg="http://www.w3.org/2000/svg"
   xmlns="http://www.w3.org/2000/svg"
   xmlns:sodipodi="http://sodipodi.sourceforge.net/DTD/sodipodi-0.dtd"
   xmlns:inkscape="http://www.inkscape.org/namespaces/inkscape"
   width="1000"
   height="1000"
   id="svg3173"
   version="1.1"
   inkscape:version="0.47 r22583"
   sodipodi:docname="842c.svg"
   inkscape:export-filename="E:\chinese\yan\842c.png"
   inkscape:export-xdpi="18.005705"
   inkscape:export-ydpi="18.005705">
  <title
     id="title7007">Wan</title>
  <defs
     id="defs3175">
    <inkscape:perspective
       sodipodi:type="inkscape:persp3d"
       inkscape:vp_x="0 : 526.18109 : 1"
       inkscape:vp_y="0 : 1000 : 0"
       inkscape:vp_z="744.09448 : 526.18109 : 1"
       inkscape:persp3d-origin="372.04724 : 350.78739 : 1"
       id="perspective3181" />
    <inkscape:perspective
       id="perspective3191"
       inkscape:persp3d-origin="0.5 : 0.33333333 : 1"
       inkscape:vp_z="1 : 0.5 : 1"
       inkscape:vp_y="0 : 1000 : 0"
       inkscape:vp_x="0 : 0.5 : 1"
       sodipodi:type="inkscape:persp3d" />
    <inkscape:perspective
       id="perspective4006"
       inkscape:persp3d-origin="0.5 : 0.33333333 : 1"
       inkscape:vp_z="1 : 0.5 : 1"
       inkscape:vp_y="0 : 1000 : 0"
       inkscape:vp_x="0 : 0.5 : 1"
       sodipodi:type="inkscape:persp3d" />
    <inkscape:perspective
       id="perspective4034"
       inkscape:persp3d-origin="0.5 : 0.33333333 : 1"
       inkscape:vp_z="1 : 0.5 : 1"
       inkscape:vp_y="0 : 1000 : 0"
       inkscape:vp_x="0 : 0.5 : 1"
       sodipodi:type="inkscape:persp3d" />
    <inkscape:perspective
       id="perspective4081"
       inkscape:persp3d-origin="0.5 : 0.33333333 : 1"
       inkscape:vp_z="1 : 0.5 : 1"
       inkscape:vp_y="0 : 1000 : 0"
       inkscape:vp_x="0 : 0.5 : 1"
       sodipodi:type="inkscape:persp3d" />
    <inkscape:perspective
       id="perspective4147"
       inkscape:persp3d-origin="0.5 : 0.33333333 : 1"
       inkscape:vp_z="1 : 0.5 : 1"
       inkscape:vp_y="0 : 1000 : 0"
       inkscape:vp_x="0 : 0.5 : 1"
       sodipodi:type="inkscape:persp3d" />
    <inkscape:perspective
       id="perspective3758"
       inkscape:persp3d-origin="0.5 : 0.33333333 : 1"
       inkscape:vp_z="1 : 0.5 : 1"
       inkscape:vp_y="0 : 1000 : 0"
       inkscape:vp_x="0 : 0.5 : 1"
       sodipodi:type="inkscape:persp3d" />
    <inkscape:perspective
       id="perspective3719"
       inkscape:persp3d-origin="0.5 : 0.33333333 : 1"
       inkscape:vp_z="1 : 0.5 : 1"
       inkscape:vp_y="0 : 1000 : 0"
       inkscape:vp_x="0 : 0.5 : 1"
       sodipodi:type="inkscape:persp3d" />
    <inkscape:perspective
       id="perspective3803"
       inkscape:persp3d-origin="0.5 : 0.33333333 : 1"
       inkscape:vp_z="1 : 0.5 : 1"
       inkscape:vp_y="0 : 1000 : 0"
       inkscape:vp_x="0 : 0.5 : 1"
       sodipodi:type="inkscape:persp3d" />
    <inkscape:perspective
       id="perspective3801"
       inkscape:persp3d-origin="0.5 : 0.33333333 : 1"
       inkscape:vp_z="1 : 0.5 : 1"
       inkscape:vp_y="0 : 1000 : 0"
       inkscape:vp_x="0 : 0.5 : 1"
       sodipodi:type="inkscape:persp3d" />
    <inkscape:perspective
       id="perspective3834"
       inkscape:persp3d-origin="0.5 : 0.33333333 : 1"
       inkscape:vp_z="1 : 0.5 : 1"
       inkscape:vp_y="0 : 1000 : 0"
       inkscape:vp_x="0 : 0.5 : 1"
       sodipodi:type="inkscape:persp3d" />
    <inkscape:perspective
       id="perspective3867"
       inkscape:persp3d-origin="0.5 : 0.33333333 : 1"
       inkscape:vp_z="1 : 0.5 : 1"
       inkscape:vp_y="0 : 1000 : 0"
       inkscape:vp_x="0 : 0.5 : 1"
       sodipodi:type="inkscape:persp3d" />
    <inkscape:perspective
       id="perspective3894"
       inkscape:persp3d-origin="0.5 : 0.33333333 : 1"
       inkscape:vp_z="1 : 0.5 : 1"
       inkscape:vp_y="0 : 1000 : 0"
       inkscape:vp_x="0 : 0.5 : 1"
       sodipodi:type="inkscape:persp3d" />
    <inkscape:perspective
       id="perspective3925"
       inkscape:persp3d-origin="0.5 : 0.33333333 : 1"
       inkscape:vp_z="1 : 0.5 : 1"
       inkscape:vp_y="0 : 1000 : 0"
       inkscape:vp_x="0 : 0.5 : 1"
       sodipodi:type="inkscape:persp3d" />
  </defs>
  <sodipodi:namedview
     id="base"
     pagecolor="#ffffff"
     bordercolor="#666666"
     borderopacity="1.0"
     inkscape:pageopacity="0.0"
     inkscape:pageshadow="2"
     inkscape:zoom="0.49497475"
     inkscape:cx="571.51329"
     inkscape:cy="512.69615"
     inkscape:document-units="px"
     inkscape:current-layer="g4143"
     showgrid="false"
     inkscape:window-width="1440"
     inkscape:window-height="840"
     inkscape:window-x="-4"
     inkscape:window-y="-4"
     inkscape:window-maximized="1" />
  <metadata
     id="metadata3178">
    <rdf:RDF>
      <cc:Work
         rdf:about="">
        <dc:format>image/svg+xml</dc:format>
        <dc:type
           rdf:resource="http://purl.org/dc/dcmitype/StillImage" />
        <dc:title>Wan</dc:title>
        <dc:date>2010-08-14</dc:date>
        <dc:creator>
          <cc:Agent>
            <dc:title>Alex Amies</dc:title>
          </cc:Agent>
        </dc:creator>
        <dc:rights>
          <cc:Agent>
            <dc:title>@ Alex Amies 2010</dc:title>
          </cc:Agent>
        </dc:rights>
        <dc:publisher>
          <cc:Agent>
            <dc:title>chinesenotes.com</dc:title>
          </cc:Agent>
        </dc:publisher>
        <dc:source>Yan Qin Ceremonial Inscription</dc:source>
        <dc:language>Chinese 中文</dc:language>
        <dc:description>Tracing from Tang Dynasty Ceremonial Inscription by Yan Zhenqing 颜真卿 (709－785)</dc:description>
        <cc:license
           rdf:resource="http://creativecommons.org/licenses/by/3.0/" />
      </cc:Work>
      <cc:License
         rdf:about="http://creativecommons.org/licenses/by/3.0/">
        <cc:permits
           rdf:resource="http://creativecommons.org/ns#Reproduction" />
        <cc:permits
           rdf:resource="http://creativecommons.org/ns#Distribution" />
        <cc:requires
           rdf:resource="http://creativecommons.org/ns#Notice" />
        <cc:requires
           rdf:resource="http://creativecommons.org/ns#Attribution" />
        <cc:permits
           rdf:resource="http://creativecommons.org/ns#DerivativeWorks" />
      </cc:License>
    </rdf:RDF>
  </metadata>
  <g
     inkscape:label="Layer 1"
     inkscape:groupmode="layer"
     id="layer1"
     transform="translate(0,-52.362183)">
    <g
       transform="matrix(4.7609464,0,0,4.7609464,-1421.6669,-3910.0295)"
       id="g4143"
       style="fill:#000000;fill-opacity:1">
      <path
         style="fill:#000000;stroke:#000000;stroke-width:4.44940519000000020px;stroke-linecap:butt;stroke-linejoin:miter;stroke-opacity:1;fill-opacity:1"
         d="M 623.4375 10.0625 C 620.89404 10.084741 618.39942 10.17093 615.96875 10.3125 C 602.59116 11.091629 590.71186 19.401838 577.8125 23.03125 C 571.00968 24.945341 559.81905 21.266389 557.15625 27.8125 C 553.83459 35.97857 567.48203 42.168404 571.46875 50.03125 C 574.80513 56.611544 578.69725 63.375133 579.40625 70.71875 C 582.04248 98.023397 572.12786 125.23558 565.09375 151.75 C 555.42722 188.18709 540.98993 223.22579 526.96875 258.21875 C 523.08801 267.90394 510.6224 277.02971 514.25 286.8125 C 514.47586 287.42158 514.76169 288.01711 515.0625 288.59375 C 475.11829 296.92955 435.88012 307.38752 399.84375 326.53125 C 384.96917 330.33201 379.2253 354.51842 395.875 359.8125 C 411.26914 360.42657 429.82758 376.528 442.3125 360.71875 C 443.9421 359.96864 445.58215 359.23863 447.21875 358.5 C 446.27553 370.63962 448.57118 383.64237 446.90625 395.46875 C 446.77813 400.28985 446.61582 405.17697 446.46875 410.03125 C 420.17773 416.20909 395.4673 423.55488 380.125 430.6875 C 367.1518 396.12953 350.14456 363.53221 326.5 335.46875 C 315.78063 332.1677 304.3306 333.08276 293.375 334.5 C 270.52455 334.25862 270.30318 370.14081 287.34375 377.8125 C 329.97724 418.84776 344.81527 477.34137 360.6875 530.03125 C 353.11929 532.38429 346.00815 535.00444 339.46875 537.90625 C 315.87645 549.26125 330.85182 576.35698 353.125 574.125 C 364.86548 572.84731 376.47224 570.92802 388 568.6875 C 390.39361 569.57885 392.92108 570.17779 395.625 570.3125 C 402.45373 572.65162 412.02176 570.52148 413.59375 563.21875 C 422.57955 561.17579 431.53031 559.08504 440.5 557 C 439.5353 578.81229 438.61587 600.66431 437.78125 622.5 C 396.88679 634.90822 356.2534 646.77617 316.5625 656.1875 C 312.87856 638.02501 309.68632 619.82682 307.625 601.53125 C 318.4712 560.71604 306.84845 536.40996 261.59375 536.3125 C 246.00989 533.94326 232.66914 544.60362 238.28125 560.5625 C 247.49317 595.99273 255.74317 631.58529 262.5625 667.40625 C 233.34217 672.50268 204.85239 675.71028 177.375 676.15625 C 138.70926 664.56858 143.68366 722.1254 151.8125 743.75 C 182.56764 780.10759 204.13403 719.1095 232.15625 710.65625 C 244.08978 708.90161 256.38621 706.57687 268.9375 703.75 C 275.90446 747.03204 280.57038 790.6969 282.0625 834.875 C 280.04262 852.5343 273.57545 871.54475 282.8125 888.34375 C 288.13614 901.95434 302.14131 912.71663 317.21875 909.5625 C 333.79751 908.53509 342.86657 892.19423 345 877.40625 C 353.00363 813.38951 337.58301 751.37035 323.65625 689.25 C 360.1175 678.41017 398.18707 665.21904 436.71875 652.15625 C 435.11781 700.5405 434.22383 748.50584 434.96875 794.90625 C 417.86751 802.30747 400.44574 808.96099 382.375 814.375 C 374.86104 845.832 416.81894 894.19145 450.78125 893.125 C 485.5263 837.85613 536.23384 794.63201 585.9375 747.125 C 590.31709 740.10722 597.70439 725.15147 584.90625 722.5 C 555.21867 735.20522 526.99832 749.87912 498.84375 764.21875 C 500.1799 727.43465 504.28724 679.57953 508.84375 628.53125 C 590.68828 603.25918 671.67586 585.39741 741.5 598.28125 C 760.3563 624.61742 743.75313 658.01097 745.28125 687.46875 C 740.14824 746.9851 729.63177 808.27857 699.375 860.59375 C 688.3965 888.48147 654.78319 899.50102 637.34375 869.6875 C 608.6898 847.94521 604.07754 850.76762 616.5625 873.8125 C 630.24475 891.21376 647.49197 910.51794 625.125 931.34375 C 606.5584 959.08245 636.49707 993.05263 665.8125 993.125 C 715.25345 997.53411 751.21264 955.14301 778.59375 919.8125 C 838.16114 836.97965 850.43377 732.7174 852.625 632.5 C 852.06464 579.25362 801.56219 541.76536 752.125 548.59375 C 676.32778 552.60567 594.18789 575.071 511.375 600.0625 C 513.05371 581.28425 514.70452 562.33373 516.28125 543.46875 C 520.61788 543.09069 524.96759 542.80578 529.34375 542.625 C 549.01099 540.85754 596.18377 561.08055 609.375 540.5625 C 611.57331 540.54882 613.81928 540.25646 616.15625 539.59375 C 658.3887 502.05326 722.63443 388.61828 748.5625 338.15625 C 733.08485 307.31498 729.53082 272.41686 702.375 244.59375 C 682.76785 248.96168 663.21236 256.19355 643.40625 261.09375 C 618.33905 268.34813 592.44378 273.58478 566.40625 278.5625 C 582.63091 258.82089 597.77133 237.93624 609.59375 215.3125 C 613.31878 208.18418 616.7384 200.90202 619.9375 193.53125 C 642.80318 204.3864 674.15302 207.5315 690.90625 204.9375 C 737.94988 191.37433 776.90694 169.29075 811.625 135.21875 C 820.1409 124.21277 826.43076 110.61727 826.96875 96.53125 C 826.63596 78.760399 809.66679 60.811285 791.125 64.53125 C 745.62816 90.221031 703.86029 121.92345 652.4375 137.3125 C 648.58681 138.16728 644.40391 138.63147 640.09375 138.9375 C 644.26335 126.25279 648.30542 113.53578 652.5 100.90625 C 657.88934 84.679374 667.50846 68.709323 666.8125 51.625 C 666.32807 39.731537 663.15093 25.973779 654.09375 18.25 C 646.06578 11.40386 634.45916 9.9661228 623.4375 10.0625 z M 348.1875 49.71875 C 340.36982 49.856695 332.49224 52.782929 326.40625 57.8125 C 315.69469 65.808414 307.11807 77.04329 302.90625 89.78125 C 313.49477 117.91283 326.67016 146.53254 341.0625 174.65625 C 329.27031 175.88569 317.56499 177.52932 306.09375 180.34375 C 296.81966 182.61915 286.87745 184.38753 279.0625 189.875 C 272.90136 194.20113 267.5824 200.38722 264.78125 207.375 C 262.21153 213.78547 261.02379 221.47262 263.1875 228.03125 C 266.4815 238.016 274.55157 246.92431 283.84375 251.84375 C 291.8569 256.08609 301.801 255.69207 310.84375 255.03125 C 325.06817 253.99184 338.50824 248.04708 352.15625 243.90625 C 359.79963 241.58722 367.42684 239.19455 375.03125 236.75 C 384.80226 253.62407 394.66954 270.00124 404.3125 285.625 C 413.62791 294.07078 427.84495 300.10182 439.71875 293.1875 C 453.77497 285.32185 459.72001 267.41619 454.9375 252.34375 C 449.21172 242.42575 442.97558 229.87281 436.5 215.875 C 444.42073 213.06541 452.31602 210.22989 460.21875 207.375 C 474.09643 202.36163 496.01027 205.15238 501.53125 191.46875 C 504.81197 183.33767 496.73445 173.69387 490.40625 167.625 C 480.46644 158.09254 466.05024 151.46196 452.28125 151.75 C 443.51525 151.9333 436.84119 160.37398 428.4375 162.875 C 423.93312 164.21554 419.39531 165.34005 414.8125 166.3125 C 397.04785 124.2058 379.59137 80.468135 367.4375 56.375 C 361.93651 51.661551 355.08546 49.597034 348.1875 49.71875 z M 650.46875 298.15625 C 666.50862 297.69476 659.16249 321.32634 652.5 331.3125 C 657.28854 369.11896 581.53747 468.58399 574.21875 504.625 C 557.38205 505.73346 538.74208 506.73446 519.15625 507.9375 C 520.61453 488.62244 521.8883 469.73271 522.84375 451.65625 C 537.2901 448.8038 551.28879 444.50026 564.5625 437.96875 C 592.32958 424.46256 572.55233 403.11309 552.46875 394.6875 C 546.2889 394.14912 536.5359 394.64512 524.6875 395.96875 C 524.85004 375.45308 524.25168 357.10564 522.625 341.875 C 520.01363 338.01964 517.11775 334.78897 514 332.125 C 556.60732 317.55104 600.6272 306.5439 644.71875 299.125 C 646.90525 298.52008 648.80945 298.20399 650.46875 298.15625 z M 444.8125 457.40625 C 444.07367 476.22943 443.25101 495.2476 442.40625 514.34375 C 429.82218 515.80573 417.43952 517.52376 405.53125 519.59375 C 401.03854 499.25572 395.94204 478.86297 389.75 458.875 C 407.62778 457.59239 426.17954 457.56599 444.8125 457.40625 z M 588.75 656.8125 C 586.17978 656.80884 583.5919 656.87773 581 657.0625 C 571.18288 658.66384 549.05633 684.43329 553.4375 690.125 C 587.86371 722.37246 630.41058 758.8871 675.625 773.28125 C 695.56461 761.21868 684.89352 731.94768 678.90625 714.25 C 662.84613 677.92387 627.30325 656.86738 588.75 656.8125 z "
         transform="matrix(0.21004227,0,0,0.21004227,298.61015,832.26975)"
         id="path6793" />
    </g>
  </g>
</svg>
