<?xml version="1.0" encoding="UTF-8" standalone="no"?>
<!-- Created with Inkscape (http://www.inkscape.org/) -->

<svg
   xmlns:dc="http://purl.org/dc/elements/1.1/"
   xmlns:cc="http://creativecommons.org/ns#"
   xmlns:rdf="http://www.w3.org/1999/02/22-rdf-syntax-ns#"
   xmlns:svg="http://www.w3.org/2000/svg"
   xmlns="http://www.w3.org/2000/svg"
   xmlns:sodipodi="http://sodipodi.sourceforge.net/DTD/sodipodi-0.dtd"
   xmlns:inkscape="http://www.inkscape.org/namespaces/inkscape"
   width="1000"
   height="1000"
   id="svg3173"
   version="1.1"
   inkscape:version="0.47 r22583"
   sodipodi:docname="8499.svg"
   inkscape:export-filename="E:\chinese\images\yan_ren_short_horizontal.png"
   inkscape:export-xdpi="18.005705"
   inkscape:export-ydpi="18.005705">
  <title
     id="title3790">Meng</title>
  <defs
     id="defs3175">
    <inkscape:perspective
       sodipodi:type="inkscape:persp3d"
       inkscape:vp_x="0 : 526.18109 : 1"
       inkscape:vp_y="0 : 1000 : 0"
       inkscape:vp_z="744.09448 : 526.18109 : 1"
       inkscape:persp3d-origin="372.04724 : 350.78739 : 1"
       id="perspective3181" />
    <inkscape:perspective
       id="perspective3191"
       inkscape:persp3d-origin="0.5 : 0.33333333 : 1"
       inkscape:vp_z="1 : 0.5 : 1"
       inkscape:vp_y="0 : 1000 : 0"
       inkscape:vp_x="0 : 0.5 : 1"
       sodipodi:type="inkscape:persp3d" />
    <inkscape:perspective
       id="perspective4006"
       inkscape:persp3d-origin="0.5 : 0.33333333 : 1"
       inkscape:vp_z="1 : 0.5 : 1"
       inkscape:vp_y="0 : 1000 : 0"
       inkscape:vp_x="0 : 0.5 : 1"
       sodipodi:type="inkscape:persp3d" />
    <inkscape:perspective
       id="perspective4034"
       inkscape:persp3d-origin="0.5 : 0.33333333 : 1"
       inkscape:vp_z="1 : 0.5 : 1"
       inkscape:vp_y="0 : 1000 : 0"
       inkscape:vp_x="0 : 0.5 : 1"
       sodipodi:type="inkscape:persp3d" />
    <inkscape:perspective
       id="perspective4081"
       inkscape:persp3d-origin="0.5 : 0.33333333 : 1"
       inkscape:vp_z="1 : 0.5 : 1"
       inkscape:vp_y="0 : 1000 : 0"
       inkscape:vp_x="0 : 0.5 : 1"
       sodipodi:type="inkscape:persp3d" />
    <inkscape:perspective
       id="perspective4147"
       inkscape:persp3d-origin="0.5 : 0.33333333 : 1"
       inkscape:vp_z="1 : 0.5 : 1"
       inkscape:vp_y="0 : 1000 : 0"
       inkscape:vp_x="0 : 0.5 : 1"
       sodipodi:type="inkscape:persp3d" />
    <inkscape:perspective
       id="perspective3858"
       inkscape:persp3d-origin="0.5 : 0.33333333 : 1"
       inkscape:vp_z="1 : 0.5 : 1"
       inkscape:vp_y="0 : 1000 : 0"
       inkscape:vp_x="0 : 0.5 : 1"
       sodipodi:type="inkscape:persp3d" />
    <inkscape:perspective
       id="perspective3876"
       inkscape:persp3d-origin="0.5 : 0.33333333 : 1"
       inkscape:vp_z="1 : 0.5 : 1"
       inkscape:vp_y="0 : 1000 : 0"
       inkscape:vp_x="0 : 0.5 : 1"
       sodipodi:type="inkscape:persp3d" />
    <inkscape:perspective
       id="perspective3901"
       inkscape:persp3d-origin="0.5 : 0.33333333 : 1"
       inkscape:vp_z="1 : 0.5 : 1"
       inkscape:vp_y="0 : 1000 : 0"
       inkscape:vp_x="0 : 0.5 : 1"
       sodipodi:type="inkscape:persp3d" />
    <inkscape:perspective
       id="perspective4392"
       inkscape:persp3d-origin="0.5 : 0.33333333 : 1"
       inkscape:vp_z="1 : 0.5 : 1"
       inkscape:vp_y="0 : 1000 : 0"
       inkscape:vp_x="0 : 0.5 : 1"
       sodipodi:type="inkscape:persp3d" />
    <inkscape:perspective
       id="perspective4888"
       inkscape:persp3d-origin="0.5 : 0.33333333 : 1"
       inkscape:vp_z="1 : 0.5 : 1"
       inkscape:vp_y="0 : 1000 : 0"
       inkscape:vp_x="0 : 0.5 : 1"
       sodipodi:type="inkscape:persp3d" />
  </defs>
  <sodipodi:namedview
     id="base"
     pagecolor="#ffffff"
     bordercolor="#666666"
     borderopacity="1.0"
     inkscape:pageopacity="0.0"
     inkscape:pageshadow="2"
     inkscape:zoom="0.49497475"
     inkscape:cx="156.02458"
     inkscape:cy="514.50449"
     inkscape:document-units="px"
     inkscape:current-layer="layer1"
     showgrid="false"
     inkscape:window-width="1440"
     inkscape:window-height="840"
     inkscape:window-x="-4"
     inkscape:window-y="-4"
     inkscape:window-maximized="1" />
  <metadata
     id="metadata3178">
    <rdf:RDF>
      <cc:Work
         rdf:about="">
        <dc:format>image/svg+xml</dc:format>
        <dc:type
           rdf:resource="http://purl.org/dc/dcmitype/StillImage" />
        <dc:title>Meng</dc:title>
        <dc:date>2010-07-13</dc:date>
        <dc:creator>
          <cc:Agent>
            <dc:title>Alex Amies</dc:title>
          </cc:Agent>
        </dc:creator>
        <dc:rights>
          <cc:Agent>
            <dc:title>@ Alex Amies 2010</dc:title>
          </cc:Agent>
        </dc:rights>
        <dc:publisher>
          <cc:Agent>
            <dc:title>chinesenotes.com</dc:title>
          </cc:Agent>
        </dc:publisher>
        <dc:source>Yan Qin Ceremonial Inscription</dc:source>
        <dc:language>Chinese 中文</dc:language>
        <dc:description>Tracing from Tang Dynasty Ceremonial Inscription by Yan Zhenqing 颜真卿 (709－785)</dc:description>
        <cc:license
           rdf:resource="http://creativecommons.org/licenses/by/3.0/" />
      </cc:Work>
      <cc:License
         rdf:about="http://creativecommons.org/licenses/by/3.0/">
        <cc:permits
           rdf:resource="http://creativecommons.org/ns#Reproduction" />
        <cc:permits
           rdf:resource="http://creativecommons.org/ns#Distribution" />
        <cc:requires
           rdf:resource="http://creativecommons.org/ns#Notice" />
        <cc:requires
           rdf:resource="http://creativecommons.org/ns#Attribution" />
        <cc:permits
           rdf:resource="http://creativecommons.org/ns#DerivativeWorks" />
      </cc:License>
    </rdf:RDF>
  </metadata>
  <g
     inkscape:label="Layer 1"
     inkscape:groupmode="layer"
     id="layer1"
     transform="translate(0,-52.362183)">
    <path
       style="fill:#000000;stroke:#000000;stroke-width:4.51651859000000040px;stroke-linecap:butt;stroke-linejoin:miter;stroke-opacity:1;fill-opacity:1"
       d="M 599 11.40625 C 589.80684 11.514733 580.59583 12.698125 571.46875 13.46875 C 568.6592 14.026947 565.8298 15.107409 563.84375 17.25 C 558.96623 23.496346 561.02167 32.095266 560.75 39.4375 C 562.83284 51.586874 562.2911 63.91158 561.46875 76.1875 C 551.84 78.597608 542.26844 81.219925 532.78125 84.09375 C 524.73133 87.56375 517.45364 87.63705 506.84375 89.625 C 505.97576 89.35672 504.94475 89.31486 504.15625 89.84375 C 496.56317 98.82823 502.71581 112.06164 510.96875 118.25 C 520.02889 125.82704 532.26361 127.02521 543.59375 126.96875 C 547.79284 127.3188 551.99023 127.7075 556.1875 128.09375 C 554.28718 140.60804 551.83433 153.02753 548.34375 165.1875 C 542.66725 180.75458 534.97764 195.84415 533.40625 212.59375 C 530.99005 222.31813 534.08789 232.67624 541.5625 239.34375 C 543.24736 241.10831 545.127 242.71326 547.125 244.125 C 499.48828 249.3055 451.55044 252.21043 404.53125 262.0625 C 395.78241 263.74945 387.01346 265.45389 378.25 267.21875 C 384.60349 256.39238 377.56525 243.4502 376.15625 232.03125 C 371.82448 213.29806 364.25142 195.52639 358.65625 177.15625 C 376.29443 172.72679 393.53811 167.10062 409.6875 158.125 C 420.81381 154.84542 435.08824 142.77973 424.96875 130.84375 C 409.33789 112.39436 382.53787 102.04617 359.09375 110.75 C 352.62516 112.40127 346.19747 114.20584 339.8125 116.125 C 336.35859 106.69254 332.58012 97.369384 328.3125 88.25 C 321.71464 72.2874 312.42082 54.74826 294.5 49.65625 C 283.98852 46.894398 273.98001 42.694301 263.75 39.21875 C 261.62105 38.835298 259.3629 38.925497 257.375 39.84375 C 248.17399 44.981832 247.19213 56.9081 245.03125 66.15625 C 242.18769 86.42811 250.11724 105.85533 258.59375 123.78125 C 261.00902 129.73449 263.4022 135.6982 265.8125 141.65625 C 244.4375 148.75213 222.42466 154.99626 199.8125 154.25 C 189.08883 154.48441 181.08992 148.13442 171.875 144.6875 C 154.34133 146.71682 142.55725 165.7092 146.21875 182.5625 C 148.19671 202.57962 165.18148 215.43536 176.375 230.59375 C 183.87879 240.86558 197.56851 246.76768 209.71875 241 C 232.11852 231.48631 244.95338 207.60703 268.59375 200.09375 C 274.82012 197.6599 281.1587 195.55854 287.5625 193.6875 C 293.35575 206.79642 299.43859 219.77283 306 232.53125 C 313.36244 249.03166 321.53695 268.18305 339.03125 275.84375 C 317.98994 280.95624 297.23771 286.99477 277.09375 294.875 C 274.19871 296.26798 271.36427 297.80124 268.65625 299.53125 C 247.55639 304.3188 253.90946 329.1257 274.53125 326.375 C 350.03877 308.50978 417.92693 296.94079 489.75 282.84375 C 535.23193 272.66758 581.79325 267.31143 628.40625 268.53125 C 647.47992 262.2462 676.59815 277.81249 659.78125 299.78125 C 649.48671 315.49376 634.10695 326.98987 623.15625 342.1875 C 609.89932 360.5233 628.71839 351.35768 641.84375 347.625 C 663.83084 333.37814 687.60427 322.06827 711.5625 311.375 C 730.81868 299.18948 736.40749 320.48318 742.875 333.40625 C 759.27471 343.35745 780.78556 337.13488 796.6875 329.03125 C 818.87499 313.80146 803.93471 284.14413 793.40625 266.28125 C 781.63932 241.24 757.74397 216.71165 728.40625 216.8125 C 685.10528 224.46419 641.52272 230.88658 597.96875 237.3125 C 600.12525 229.06237 595.06107 218.94482 596.1875 210.40625 C 596.2056 191.268 599.99405 172.28435 607.71875 154.75 C 610.63071 147.63783 613.92522 140.59252 617.28125 133.5625 C 629.56681 134.4341 641.85612 135.05663 654.1875 135.15625 C 666.8478 135.88011 681.47114 138.91501 691.96875 129.6875 C 699.31166 122.06804 705.1524 112.68938 709.46875 103.03125 C 713.47513 90.92161 704.78627 79.0557 695.90625 71.65625 C 689.09688 65.62791 680.78858 61.05598 671.5 60.84375 C 662.13139 60.620601 652.7522 60.939217 643.40625 61.6875 C 643.79165 58.509235 644.06627 55.288364 644.15625 52.03125 C 645.54941 32.917523 630.8214 13.989698 611.5 12.0625 C 607.33792 11.537497 603.17871 11.35694 599 11.40625 z M 205.46875 305.9375 C 200.6529 305.84817 195.96461 307.39648 193.46875 311.875 C 187.93453 320.64617 188.46397 331.60136 190.71875 341.3125 C 192.08441 352.31605 190.48313 363.64663 187.03125 374.125 C 184.93134 381.48629 177.70899 384.41723 172.15625 388.59375 C 166.44182 393.39774 166.39523 401.61371 166.0625 408.46875 C 166.28877 420.37989 170.81753 433.71273 181.84375 439.71875 C 192.88226 446.41959 207.80008 446.27988 218.28125 438.5 C 231.59138 429.37441 237.12393 413.06075 239.9375 397.875 C 242.40736 384.54061 245.12176 371.16416 246.40625 357.65625 C 247.22347 346.48066 244.45226 334.44536 235.96875 326.59375 C 229.87235 320.31222 223.88644 313.66844 216.5625 308.8125 C 215.67758 308.3347 214.76725 307.91117 213.8125 307.59375 C 211.29564 306.62433 208.35826 305.9911 205.46875 305.9375 z M 551.09375 320.3125 C 547.36898 320.43975 543.60804 321.48779 540.375 323.375 C 529.93462 328.88733 520.32121 336.25777 508.5625 338.84375 C 465.41756 352.74451 422.39812 371.97202 376.1875 371.15625 C 365.29022 372.14862 355.46056 367.52192 347.375 360.46875 C 344.16001 358.41531 340.29682 356.77273 336.40625 357.625 C 321.88655 361.05615 311.41424 379.48866 319.90625 392.96875 C 330.52088 412.79744 355.08431 425.98335 377.375 419.3125 C 422.82748 410.54508 465.37042 391.78621 509.71875 379.09375 C 522.54273 375.19148 535.97975 369.60722 549.53125 373.40625 C 558.67742 375.82688 565.44819 367.44953 567.1875 359.40625 C 570.24333 349.41191 574.95818 337.08818 567.125 328 C 563.45053 322.49736 557.3017 320.10041 551.09375 320.3125 z M 542.1875 420.65625 C 528.37521 420.66517 514.47089 425.11568 503.625 433.4375 C 469.45071 454.78311 429.76773 464.48556 391.1875 474.59375 C 366.80272 480.19414 341.90758 485.00675 316.8125 484.875 C 305.02529 483.73128 293.57847 477.39796 281.5625 480.21875 C 269.74187 483.69494 263.253 496.0082 251.28125 499.40625 C 235.08822 504.83673 245.89659 522.75609 256.03125 528.09375 C 265.23587 535.39267 280.78945 542.22196 290.4375 532.0625 C 297.55395 520.49655 308.92529 513.37788 321.53125 508.90625 C 347.551 498.06587 374.86615 491.99303 402.5 487.15625 C 399.01755 492.66566 396.84143 499.28925 395.34375 505.21875 C 389.14939 523.36143 377.08094 538.96915 365.125 553.75 C 331.69567 592.62001 286.65975 618.40429 245.9375 648.625 C 231.24581 658.07676 217.66466 663.21545 206.78125 677.96875 C 197.61688 690.00762 207.44335 696.49091 218.40625 693.3125 C 235.89037 680.63991 248.39287 673.67439 263.90625 665.90625 C 289.53659 649.65613 313.62444 633.81565 339.28125 617.5625 C 357.25653 605.36247 374.82123 592.59342 392.40625 579.84375 C 394.27182 582.1118 396.56554 584.37209 399.09375 586.59375 C 392.36543 591.96729 386.99524 600.41439 381.15625 605.90625 C 369.70633 622.1243 361.76833 640.69796 348.375 655.5625 C 326.38136 684.90952 304.29231 712.36616 273.1875 732.21875 C 260.82863 741.37906 247.13019 756.16935 234 764.3125 C 216.04286 782.06563 205.33643 791.98308 187.34375 802.65625 C 175.90449 813.01131 188.23049 820.70808 201.0625 814.21875 C 224.89793 800.54842 246.0799 788.71256 270.21875 775.3125 C 298.772 745.07183 340.86752 729.1318 363 692.59375 C 382.04223 676.37434 393.87572 652.5146 406 638.03125 C 414.59955 629.74672 420.24531 618.37982 421.9375 606.53125 C 422.27924 606.97074 422.58738 607.40907 422.875 607.84375 C 431.88368 615.55683 440.63651 623.59363 449.25 631.78125 C 445.01003 636.87944 441.77913 643.18582 439.28125 648.625 C 420.63598 682.28626 408.25292 720.03781 382.15625 749.09375 C 338.72513 798.49864 282.8445 834.41817 228.25 870.125 C 212.25885 880.13685 196.13784 889.92465 179.9375 899.59375 C 198.81488 904.56978 214.40233 902.97381 233.03125 895.09375 C 263.28221 884.27059 293.25892 863.93182 318.625 844.59375 C 340.64226 825.26581 361.83382 809.77345 384.375 791 C 413.01565 767.24483 430.69383 732.91433 447.6875 701.1875 C 457.9668 687.28585 467.87492 670.23667 474.34375 656.28125 C 476.15247 658.08037 477.94334 659.886 479.75 661.6875 C 470.49979 669.30151 472.45882 685.25115 481.25 694.6875 C 489.17296 710.71301 482.4659 729.17981 478.21875 745.34375 C 469.27424 769.59538 464.38392 795.04991 456.34375 819.5625 C 441.83868 859.19382 407.14589 886.1105 376.125 912.625 C 362.84603 927.03129 344.18873 927.46943 326.75 927.71875 C 314.39841 933.11508 303.59529 947.44326 310.09375 961.15625 C 317.99766 983.02675 344.9838 987.12555 365.15625 983.71875 C 390.20599 979.96305 407.5816 959.57548 425.625 943.71875 C 450.05982 918.67502 472.27428 891.45768 493.03125 863.3125 C 512.99769 833.26125 527.75728 798.02145 526.40625 761.34375 C 525.60034 744.11577 528.0626 727.09786 529.78125 710.03125 C 549.55211 727.86798 570.36098 744.4402 593.4375 758.28125 C 637.65909 786.52611 678.44916 819.65701 720.3125 851.1875 C 780.49818 845.78868 833.09292 801.49082 894.15625 801.25 C 930.56734 803.73761 923.75285 781.91763 895.875 778.34375 C 854.94889 769.96502 824.3966 767.87125 783.03125 762.34375 C 707.05365 756.27572 635.85758 722.91886 573.53125 680.5625 C 537.30809 653.29239 508.5781 617.58394 473.03125 589.46875 C 458.91436 576.22013 441.41762 561.22036 422.03125 556.6875 C 435.15431 543.67113 445.33433 527.06648 444.96875 508.28125 C 444.02452 497.63419 437.0205 488.89903 428.34375 482.875 C 442.40247 480.64719 456.45313 478.47074 470.375 475.875 C 498.00083 471.84816 525.96833 468.62641 553.90625 469.21875 C 564.76938 472.06655 577.82652 472.73279 585.84375 463.21875 C 593.15319 452.47869 584.55407 438.93826 576.3125 431.4375 C 566.48897 424.11105 554.37482 420.64838 542.1875 420.65625 z M 688.03125 506 C 677.51278 507.23337 671.09385 517.01349 664.15625 523.9375 C 654.96658 535.84173 647.0386 548.83789 635.6875 558.90625 C 616.62847 578.42028 594.28855 594.18521 571.84375 609.5 C 559.35549 618.80128 547.89528 629.42395 536.40625 639.90625 C 545.54683 641.51928 554.70317 643.10572 563.84375 644.71875 C 583.67312 641.05509 604.13641 635.86134 619.6875 622.25 C 636.85985 609.43537 655.86402 599.47917 675.21875 590.4375 C 687.20414 583.98145 700.3645 578.03328 714.3125 579.375 C 725.39234 579.384 737.76908 576.11085 744.46875 566.71875 C 749.4329 557.82225 742.85875 548.67415 736.90625 542.28125 C 728.10838 533.27124 719.76427 523.79575 710.25 515.53125 C 703.96057 510.38061 696.35962 506.11973 688.03125 506 z "
       transform="translate(0,52.362183)"
       id="path10759" />
  </g>
</svg>
