<?xml version="1.0" encoding="UTF-8" standalone="no"?>
<!-- Created with Inkscape (http://www.inkscape.org/) -->

<svg
   xmlns:dc="http://purl.org/dc/elements/1.1/"
   xmlns:cc="http://creativecommons.org/ns#"
   xmlns:rdf="http://www.w3.org/1999/02/22-rdf-syntax-ns#"
   xmlns:svg="http://www.w3.org/2000/svg"
   xmlns="http://www.w3.org/2000/svg"
   xmlns:sodipodi="http://sodipodi.sourceforge.net/DTD/sodipodi-0.dtd"
   xmlns:inkscape="http://www.inkscape.org/namespaces/inkscape"
   width="1000"
   height="1000"
   id="svg3173"
   version="1.1"
   inkscape:version="0.47 r22583"
   sodipodi:docname="84ec.svg"
   inkscape:export-filename="E:\chinese\yan\84ec.png"
   inkscape:export-xdpi="18.005705"
   inkscape:export-ydpi="18.005705">
  <title
     id="title9070">Peng</title>
  <defs
     id="defs3175">
    <inkscape:perspective
       sodipodi:type="inkscape:persp3d"
       inkscape:vp_x="0 : 526.18109 : 1"
       inkscape:vp_y="0 : 1000 : 0"
       inkscape:vp_z="744.09448 : 526.18109 : 1"
       inkscape:persp3d-origin="372.04724 : 350.78739 : 1"
       id="perspective3181" />
    <inkscape:perspective
       id="perspective3191"
       inkscape:persp3d-origin="0.5 : 0.33333333 : 1"
       inkscape:vp_z="1 : 0.5 : 1"
       inkscape:vp_y="0 : 1000 : 0"
       inkscape:vp_x="0 : 0.5 : 1"
       sodipodi:type="inkscape:persp3d" />
    <inkscape:perspective
       id="perspective4006"
       inkscape:persp3d-origin="0.5 : 0.33333333 : 1"
       inkscape:vp_z="1 : 0.5 : 1"
       inkscape:vp_y="0 : 1000 : 0"
       inkscape:vp_x="0 : 0.5 : 1"
       sodipodi:type="inkscape:persp3d" />
    <inkscape:perspective
       id="perspective4034"
       inkscape:persp3d-origin="0.5 : 0.33333333 : 1"
       inkscape:vp_z="1 : 0.5 : 1"
       inkscape:vp_y="0 : 1000 : 0"
       inkscape:vp_x="0 : 0.5 : 1"
       sodipodi:type="inkscape:persp3d" />
    <inkscape:perspective
       id="perspective4081"
       inkscape:persp3d-origin="0.5 : 0.33333333 : 1"
       inkscape:vp_z="1 : 0.5 : 1"
       inkscape:vp_y="0 : 1000 : 0"
       inkscape:vp_x="0 : 0.5 : 1"
       sodipodi:type="inkscape:persp3d" />
    <inkscape:perspective
       id="perspective4147"
       inkscape:persp3d-origin="0.5 : 0.33333333 : 1"
       inkscape:vp_z="1 : 0.5 : 1"
       inkscape:vp_y="0 : 1000 : 0"
       inkscape:vp_x="0 : 0.5 : 1"
       sodipodi:type="inkscape:persp3d" />
    <inkscape:perspective
       id="perspective3801"
       inkscape:persp3d-origin="0.5 : 0.33333333 : 1"
       inkscape:vp_z="1 : 0.5 : 1"
       inkscape:vp_y="0 : 1000 : 0"
       inkscape:vp_x="0 : 0.5 : 1"
       sodipodi:type="inkscape:persp3d" />
    <inkscape:perspective
       id="perspective3122"
       inkscape:persp3d-origin="0.5 : 0.33333333 : 1"
       inkscape:vp_z="1 : 0.5 : 1"
       inkscape:vp_y="0 : 1000 : 0"
       inkscape:vp_x="0 : 0.5 : 1"
       sodipodi:type="inkscape:persp3d" />
    <inkscape:perspective
       id="perspective3854"
       inkscape:persp3d-origin="0.5 : 0.33333333 : 1"
       inkscape:vp_z="1 : 0.5 : 1"
       inkscape:vp_y="0 : 1000 : 0"
       inkscape:vp_x="0 : 0.5 : 1"
       sodipodi:type="inkscape:persp3d" />
    <inkscape:perspective
       id="perspective3922"
       inkscape:persp3d-origin="0.5 : 0.33333333 : 1"
       inkscape:vp_z="1 : 0.5 : 1"
       inkscape:vp_y="0 : 1000 : 0"
       inkscape:vp_x="0 : 0.5 : 1"
       sodipodi:type="inkscape:persp3d" />
    <inkscape:perspective
       id="perspective3945"
       inkscape:persp3d-origin="0.5 : 0.33333333 : 1"
       inkscape:vp_z="1 : 0.5 : 1"
       inkscape:vp_y="0 : 1000 : 0"
       inkscape:vp_x="0 : 0.5 : 1"
       sodipodi:type="inkscape:persp3d" />
    <inkscape:perspective
       id="perspective3972"
       inkscape:persp3d-origin="0.5 : 0.33333333 : 1"
       inkscape:vp_z="1 : 0.5 : 1"
       inkscape:vp_y="0 : 1000 : 0"
       inkscape:vp_x="0 : 0.5 : 1"
       sodipodi:type="inkscape:persp3d" />
    <inkscape:perspective
       id="perspective3995"
       inkscape:persp3d-origin="0.5 : 0.33333333 : 1"
       inkscape:vp_z="1 : 0.5 : 1"
       inkscape:vp_y="0 : 1000 : 0"
       inkscape:vp_x="0 : 0.5 : 1"
       sodipodi:type="inkscape:persp3d" />
    <inkscape:perspective
       id="perspective3802"
       inkscape:persp3d-origin="0.5 : 0.33333333 : 1"
       inkscape:vp_z="1 : 0.5 : 1"
       inkscape:vp_y="0 : 1000 : 0"
       inkscape:vp_x="0 : 0.5 : 1"
       sodipodi:type="inkscape:persp3d" />
    <inkscape:perspective
       id="perspective3833"
       inkscape:persp3d-origin="0.5 : 0.33333333 : 1"
       inkscape:vp_z="1 : 0.5 : 1"
       inkscape:vp_y="0 : 1000 : 0"
       inkscape:vp_x="0 : 0.5 : 1"
       sodipodi:type="inkscape:persp3d" />
    <inkscape:perspective
       id="perspective3913"
       inkscape:persp3d-origin="0.5 : 0.33333333 : 1"
       inkscape:vp_z="1 : 0.5 : 1"
       inkscape:vp_y="0 : 1000 : 0"
       inkscape:vp_x="0 : 0.5 : 1"
       sodipodi:type="inkscape:persp3d" />
    <inkscape:perspective
       id="perspective4500"
       inkscape:persp3d-origin="0.5 : 0.33333333 : 1"
       inkscape:vp_z="1 : 0.5 : 1"
       inkscape:vp_y="0 : 1000 : 0"
       inkscape:vp_x="0 : 0.5 : 1"
       sodipodi:type="inkscape:persp3d" />
    <inkscape:perspective
       id="perspective5117"
       inkscape:persp3d-origin="0.5 : 0.33333333 : 1"
       inkscape:vp_z="1 : 0.5 : 1"
       inkscape:vp_y="0 : 1000 : 0"
       inkscape:vp_x="0 : 0.5 : 1"
       sodipodi:type="inkscape:persp3d" />
    <inkscape:perspective
       id="perspective5212"
       inkscape:persp3d-origin="0.5 : 0.33333333 : 1"
       inkscape:vp_z="1 : 0.5 : 1"
       inkscape:vp_y="0 : 1000 : 0"
       inkscape:vp_x="0 : 0.5 : 1"
       sodipodi:type="inkscape:persp3d" />
    <inkscape:perspective
       id="perspective5834"
       inkscape:persp3d-origin="0.5 : 0.33333333 : 1"
       inkscape:vp_z="1 : 0.5 : 1"
       inkscape:vp_y="0 : 1000 : 0"
       inkscape:vp_x="0 : 0.5 : 1"
       sodipodi:type="inkscape:persp3d" />
    <inkscape:perspective
       id="perspective5906"
       inkscape:persp3d-origin="0.5 : 0.33333333 : 1"
       inkscape:vp_z="1 : 0.5 : 1"
       inkscape:vp_y="0 : 1000 : 0"
       inkscape:vp_x="0 : 0.5 : 1"
       sodipodi:type="inkscape:persp3d" />
    <inkscape:perspective
       id="perspective3787"
       inkscape:persp3d-origin="0.5 : 0.33333333 : 1"
       inkscape:vp_z="1 : 0.5 : 1"
       inkscape:vp_y="0 : 1000 : 0"
       inkscape:vp_x="0 : 0.5 : 1"
       sodipodi:type="inkscape:persp3d" />
    <inkscape:perspective
       id="perspective3839"
       inkscape:persp3d-origin="0.5 : 0.33333333 : 1"
       inkscape:vp_z="1 : 0.5 : 1"
       inkscape:vp_y="0 : 1000 : 0"
       inkscape:vp_x="0 : 0.5 : 1"
       sodipodi:type="inkscape:persp3d" />
    <inkscape:perspective
       id="perspective3913-3"
       inkscape:persp3d-origin="0.5 : 0.33333333 : 1"
       inkscape:vp_z="1 : 0.5 : 1"
       inkscape:vp_y="0 : 1000 : 0"
       inkscape:vp_x="0 : 0.5 : 1"
       sodipodi:type="inkscape:persp3d" />
    <inkscape:perspective
       id="perspective3969"
       inkscape:persp3d-origin="0.5 : 0.33333333 : 1"
       inkscape:vp_z="1 : 0.5 : 1"
       inkscape:vp_y="0 : 1000 : 0"
       inkscape:vp_x="0 : 0.5 : 1"
       sodipodi:type="inkscape:persp3d" />
    <inkscape:perspective
       id="perspective4021"
       inkscape:persp3d-origin="0.5 : 0.33333333 : 1"
       inkscape:vp_z="1 : 0.5 : 1"
       inkscape:vp_y="0 : 1000 : 0"
       inkscape:vp_x="0 : 0.5 : 1"
       sodipodi:type="inkscape:persp3d" />
    <inkscape:perspective
       id="perspective4062"
       inkscape:persp3d-origin="0.5 : 0.33333333 : 1"
       inkscape:vp_z="1 : 0.5 : 1"
       inkscape:vp_y="0 : 1000 : 0"
       inkscape:vp_x="0 : 0.5 : 1"
       sodipodi:type="inkscape:persp3d" />
    <inkscape:perspective
       id="perspective4096"
       inkscape:persp3d-origin="0.5 : 0.33333333 : 1"
       inkscape:vp_z="1 : 0.5 : 1"
       inkscape:vp_y="0 : 1000 : 0"
       inkscape:vp_x="0 : 0.5 : 1"
       sodipodi:type="inkscape:persp3d" />
  </defs>
  <sodipodi:namedview
     id="base"
     pagecolor="#ffffff"
     bordercolor="#666666"
     borderopacity="1.0"
     inkscape:pageopacity="0.0"
     inkscape:pageshadow="2"
     inkscape:zoom="0.49497475"
     inkscape:cx="483.07102"
     inkscape:cy="534.97897"
     inkscape:document-units="px"
     inkscape:current-layer="g4634"
     showgrid="false"
     inkscape:window-width="1440"
     inkscape:window-height="840"
     inkscape:window-x="-4"
     inkscape:window-y="-4"
     inkscape:window-maximized="1" />
  <metadata
     id="metadata3178">
    <rdf:RDF>
      <cc:Work
         rdf:about="">
        <dc:format>image/svg+xml</dc:format>
        <dc:type
           rdf:resource="http://purl.org/dc/dcmitype/StillImage" />
        <dc:title>Peng</dc:title>
        <dc:date>2010-08-21</dc:date>
        <dc:creator>
          <cc:Agent>
            <dc:title>Alex Amies</dc:title>
          </cc:Agent>
        </dc:creator>
        <dc:rights>
          <cc:Agent>
            <dc:title>@ Alex Amies 2010</dc:title>
          </cc:Agent>
        </dc:rights>
        <dc:publisher>
          <cc:Agent>
            <dc:title>chinesenotes.com</dc:title>
          </cc:Agent>
        </dc:publisher>
        <dc:source>Yan Qin Ceremonial Inscription</dc:source>
        <dc:language>Chinese 中文</dc:language>
        <dc:description>Tracing from Tang Dynasty Ceremonial Inscription by Yan Zhenqing 颜真卿 (709－785)</dc:description>
        <cc:license
           rdf:resource="http://creativecommons.org/licenses/by/3.0/" />
      </cc:Work>
      <cc:License
         rdf:about="http://creativecommons.org/licenses/by/3.0/">
        <cc:permits
           rdf:resource="http://creativecommons.org/ns#Reproduction" />
        <cc:permits
           rdf:resource="http://creativecommons.org/ns#Distribution" />
        <cc:requires
           rdf:resource="http://creativecommons.org/ns#Notice" />
        <cc:requires
           rdf:resource="http://creativecommons.org/ns#Attribution" />
        <cc:permits
           rdf:resource="http://creativecommons.org/ns#DerivativeWorks" />
      </cc:License>
    </rdf:RDF>
  </metadata>
  <g
     inkscape:label="Layer 1"
     inkscape:groupmode="layer"
     id="layer1"
     transform="translate(0,-52.362183)">
    <g
       transform="matrix(4.7609464,0,0,4.7609464,-444.07486,-2879.5352)"
       id="g4634"
       style="fill:#000000;fill-opacity:1">
      <path
         style="fill:#000000;stroke:#000000;stroke-width:4.39747000000000020px;stroke-linecap:butt;stroke-linejoin:miter;stroke-opacity:1;fill-opacity:1"
         d="M 575.375 11.28125 C 566.56479 11.50692 560.28416 24.053067 560.0625 32.25 C 559.31307 46.904845 558.55804 61.836476 557.28125 76.75 C 555.09007 77.789734 552.90024 78.786407 550.6875 79.78125 C 552.97713 81.290161 554.71902 83.785189 556.4375 86.25 C 552.81328 121.53877 545.49739 156.39899 527.25 186.96875 C 520.94046 200.28674 527.2268 217.02923 539.8125 224.1875 C 550.0781 231.70437 565.80008 235.4064 576.125 225.9375 C 587.52252 216.52216 593.59267 202.24652 595.5 187.84375 C 607.9216 155.64732 626.69257 126.49063 640.65625 95.0625 C 661.56274 95.532382 682.46509 95.907419 703.375 95.59375 C 721.76963 97.58373 752.61834 87.846473 746.5 64.46875 C 737.11756 52.962542 722.58034 48.257511 707.90625 48.3125 C 688.12425 49.787945 668.57225 51.790142 648.96875 53.6875 C 645.27099 41.229116 635.48047 30.472367 623.21875 25.84375 C 609.34521 19.052736 594.18387 15.545125 579.28125 11.96875 C 577.92893 11.449158 576.6336 11.249011 575.375 11.28125 z M 363.34375 58.3125 C 357.69548 58.256531 352.01525 59.176854 346.53125 60.9375 C 339.6823 66.853357 334.29203 76.902466 338.8125 85.78125 C 346.77801 99.662079 354.78101 115.04668 361.8125 131.125 C 346.59139 135.45682 331.23677 139.27832 316.125 143.375 C 303.02868 152.112 291.5737 175.81715 301.96875 190.09375 C 313.91592 205.90114 337.78092 215.29377 355.78125 204 C 363.25959 196.72787 371.29739 190.3043 379.625 184.375 C 381.08117 191.15461 382.19123 197.92468 382.84375 204.59375 C 385.17257 224.87414 410.6673 232.90914 427.34375 224.375 C 428.7715 223.31517 430.07626 222.15867 431.25 220.90625 C 410.66989 262.1123 386.02851 298.7725 356.5 334.5625 C 348.65267 344.13395 340.99962 353.87036 333.96875 364.0625 C 341.57479 376.14512 358.4887 372.63297 367.46875 364.15625 C 414.58541 330.85895 466.70129 304.46627 500.59375 256.125 C 506.83535 246.11916 508.69728 231.30574 498.34375 223.21875 C 488.50792 217.82784 481.49529 209.157 471.6875 203.90625 C 460.728 198.5987 446.56032 200.51341 438.1875 209.28125 C 441.10208 201.24813 441.57977 192.09735 440.71875 183.8125 C 436.33787 174.19207 432.37902 164.07162 428.5 153.78125 C 450.3963 140.42335 471.49075 126.07901 488.0625 105.09375 C 491.60779 97.295605 496.12768 86.398005 489.4375 79.03125 C 480.6377 71.757524 468.35219 76.817589 460.4375 82.9375 C 445.93833 95.763917 429.90219 105.3529 413 113.03125 C 406.45869 96.970839 399.12654 81.419488 389.8125 67.59375 C 382.01106 61.235923 372.75754 58.405782 363.34375 58.3125 z M 632.34375 188.15625 C 602.58592 232.24394 570.25071 278.98645 535.3125 323.84375 C 526.2325 323.40156 517.13773 323.47569 508 324.4375 C 489.25068 325.86083 469.82184 325.5579 452 332.21875 C 449.87886 333.28882 447.42098 334.74642 447.03125 337.34375 C 449.41239 348.75464 464.97243 348.61851 474.3125 351.21875 C 486.09625 352.44149 497.79765 354.09858 509.4375 356.03125 C 476.58446 395.68333 441.61611 432.90357 404.5 464.28125 C 362.13567 501.63897 308.78991 523.01269 264.125 557.15625 C 293.15268 551.7541 328.22583 557.19012 350.4375 533.5625 C 413.83168 501.30812 465.68309 454.55659 513.4375 403.28125 C 512.67774 419.7451 513.26308 436.14966 514.65625 452.5 C 497.20809 454.84187 479.8474 457.15935 463.21875 461.375 L 462.0625 462.09375 L 461.15625 463 C 458.03702 469.47132 460.73455 477.11052 463.15625 483.40625 C 465.08924 489.40276 471.10046 492.783 477.21875 492.4375 C 491.40133 492.36097 505.07827 490.00503 518.53125 486.5625 C 520.7376 502.66247 523.30598 518.74545 525.78125 534.84375 C 519.44394 538.20355 513.06736 541.43644 506.53125 544.375 C 485.62698 554.86341 463.72727 564.33037 445.46875 579.21875 C 441.94222 587.28641 454.94962 592.15541 461.6875 592.1875 C 484.31811 583.657 507.62298 577.88401 531.15625 572.96875 C 532.95425 587.97918 534.27771 603.01948 534.6875 618.125 C 535.30372 625.36093 535.87502 632.60412 536.4375 639.84375 C 508.27152 647.74058 480.24475 656.13624 452.46875 665.40625 C 417.72336 676.62323 381.16523 680.6517 346.53125 692.3125 C 326.16706 725.66955 372.45613 738.96061 394.46875 719.1875 C 423.40631 710.86498 452.80876 703.3896 480.40625 690.75 C 499.59806 683.22127 519.06816 676.51928 538.65625 670.09375 C 542.53852 726.13878 545.31262 782.27969 548.90625 838.34375 C 551.5426 857.18202 560.62404 868.70421 572 874.15625 C 562.56545 874.12925 553.12159 874.08557 543.6875 874.0625 C 484.34545 867.27368 425.04963 858.04028 367.375 842.0625 C 308.35179 826.71316 249.54535 809.20908 192.78125 787.125 C 171.47382 767.47534 123.54291 754.71375 108.5625 786.6875 C 104.76374 799.28849 106.81487 812.80605 106.21875 825.78125 C 91.476622 852.17175 126.84091 896.92259 146.75 863.0625 C 158.88927 842.20484 144.11878 784.60779 182.75 812.5625 C 270.65497 855.88859 361.11987 890.3869 452.75 923.8125 C 503.34177 942.79639 555.70455 956.57187 608.03125 969.46875 C 644.45782 982.54859 683.03065 1001.3422 722.3125 988.34375 C 756.56799 976.01147 786.28643 950.42118 821.84375 939.09375 C 850.39476 923.61596 888.59231 925.7475 911.96875 902.3125 C 910.99904 869.81518 868.04008 876.45075 845.25 875.96875 C 765.87625 875.00407 686.49985 874.56077 607.125 874.28125 C 626.21853 866.31659 640.91114 845.8669 634 818.0625 C 634.89914 759.37937 631.92154 700.83606 626.5 642.5 C 651.67034 639.15462 675.6175 648.48223 697.5 659.53125 C 734.00765 664.07562 727.67835 617.85479 702.3125 607.28125 C 676.65684 595.45516 649.8593 609.19282 623.96875 616.875 C 621.82458 596.41019 619.41279 575.94379 616.78125 555.53125 C 618.89664 555.02673 621.0152 554.56031 623.125 554.03125 C 640.31316 550.50682 660.60229 549.64063 672.40625 534.6875 C 678.37762 527.23738 669.56627 519.49597 663.125 516.5 C 646.76827 507.80785 628.03844 501.94912 609.4375 502.125 C 607.4815 488.64617 605.45138 475.17166 603.375 461.71875 C 610.42583 460.72693 618.4258 459.58742 622.9375 453.59375 C 625.20371 448.61732 631.07084 438.65043 622.90625 436.1875 C 615.53309 433.86463 608.02882 434.2225 600.5625 435.40625 C 603.75316 400.59864 572.11544 368.04225 541.9375 371.75 C 544.35994 368.99888 546.77814 366.23218 549.1875 363.46875 C 590.1458 371.78537 630.83988 381.20835 672.75 384.5 C 703.32066 386.88395 735.0735 392.04842 765 382.84375 C 774.30817 379.26461 778.34867 364.96847 773.46875 356.5625 C 761.51825 349.7771 753.46317 336.04945 739.21875 333.59375 C 699.90895 326.19657 659.63215 327.18116 619.96875 330.6875 C 606.41027 331.06568 592.9348 329.81868 579.46875 328.28125 C 590.46686 315.40209 601.43144 302.52834 612.46875 289.8125 C 628.77618 270.98919 646.1483 252.61901 660.0625 232.03125 C 671.24044 211.51781 652.93356 190.62437 632.34375 188.15625 z M 173.90625 251.65625 C 168.36974 251.7669 162.93853 252.80604 158.0625 255.6875 C 153.35092 261.96957 142.31105 267.62926 143.90625 274.53125 C 149.48589 298.67306 181.41943 315.94382 208.375 319.34375 C 226.28663 330.76002 254.80764 306.23228 232.3125 291.59375 C 219.95761 276.54145 208.05225 254.42347 186.78125 252.65625 C 182.59474 252.06139 178.21242 251.57019 173.90625 251.65625 z M 100.375 407.1875 C 98.752689 407.18127 97.045061 407.44866 95.25 408.03125 C 65.015991 448.92745 85.899774 502.32681 81.40625 548.8125 C 98.180254 597.15344 124.9327 492.98249 152.84375 550.34375 C 176.82211 577.5029 184.99644 502.19404 188.375 547.53125 C 201.13596 589.11731 192.51699 634.46054 207.625 675.15625 C 232.05613 693.69399 263.49707 735.59356 227.875 760.375 C 194.29105 768.83058 222.43532 809.4988 240.6875 778.65625 C 256.1392 744.5534 329.97226 765.09202 312.9375 710.4375 C 307.63757 665.72331 241.53613 680.04815 239.78125 637.75 C 241.68934 600.9326 243.23001 564.81131 248.40625 528.25 C 255.3629 492.74986 233.10096 454.7749 193.875 457.125 C 166.88015 442.87139 106.39863 472.73091 107.0625 429 C 118.00392 420.4316 111.73118 407.23112 100.375 407.1875 z "
         transform="matrix(0.21004227,0,0,0.21004227,93.274493,615.82239)"
         id="path4647" />
    </g>
  </g>
</svg>
