<?xml version="1.0" encoding="UTF-8" standalone="no"?>
<!-- Created with Inkscape (http://www.inkscape.org/) -->

<svg
   xmlns:dc="http://purl.org/dc/elements/1.1/"
   xmlns:cc="http://creativecommons.org/ns#"
   xmlns:rdf="http://www.w3.org/1999/02/22-rdf-syntax-ns#"
   xmlns:svg="http://www.w3.org/2000/svg"
   xmlns="http://www.w3.org/2000/svg"
   xmlns:sodipodi="http://sodipodi.sourceforge.net/DTD/sodipodi-0.dtd"
   xmlns:inkscape="http://www.inkscape.org/namespaces/inkscape"
   width="1000"
   height="1000"
   id="svg3173"
   version="1.1"
   inkscape:version="0.47 r22583"
   sodipodi:docname="883b.svg"
   inkscape:export-filename="E:\chinese\yan\883b.png"
   inkscape:export-xdpi="18.005705"
   inkscape:export-ydpi="18.005705">
  <title
     id="title3790">Man</title>
  <defs
     id="defs3175">
    <inkscape:perspective
       sodipodi:type="inkscape:persp3d"
       inkscape:vp_x="0 : 526.18109 : 1"
       inkscape:vp_y="0 : 1000 : 0"
       inkscape:vp_z="744.09448 : 526.18109 : 1"
       inkscape:persp3d-origin="372.04724 : 350.78739 : 1"
       id="perspective3181" />
    <inkscape:perspective
       id="perspective3191"
       inkscape:persp3d-origin="0.5 : 0.33333333 : 1"
       inkscape:vp_z="1 : 0.5 : 1"
       inkscape:vp_y="0 : 1000 : 0"
       inkscape:vp_x="0 : 0.5 : 1"
       sodipodi:type="inkscape:persp3d" />
    <inkscape:perspective
       id="perspective4006"
       inkscape:persp3d-origin="0.5 : 0.33333333 : 1"
       inkscape:vp_z="1 : 0.5 : 1"
       inkscape:vp_y="0 : 1000 : 0"
       inkscape:vp_x="0 : 0.5 : 1"
       sodipodi:type="inkscape:persp3d" />
    <inkscape:perspective
       id="perspective4034"
       inkscape:persp3d-origin="0.5 : 0.33333333 : 1"
       inkscape:vp_z="1 : 0.5 : 1"
       inkscape:vp_y="0 : 1000 : 0"
       inkscape:vp_x="0 : 0.5 : 1"
       sodipodi:type="inkscape:persp3d" />
    <inkscape:perspective
       id="perspective4081"
       inkscape:persp3d-origin="0.5 : 0.33333333 : 1"
       inkscape:vp_z="1 : 0.5 : 1"
       inkscape:vp_y="0 : 1000 : 0"
       inkscape:vp_x="0 : 0.5 : 1"
       sodipodi:type="inkscape:persp3d" />
    <inkscape:perspective
       id="perspective4147"
       inkscape:persp3d-origin="0.5 : 0.33333333 : 1"
       inkscape:vp_z="1 : 0.5 : 1"
       inkscape:vp_y="0 : 1000 : 0"
       inkscape:vp_x="0 : 0.5 : 1"
       sodipodi:type="inkscape:persp3d" />
    <inkscape:perspective
       id="perspective3797"
       inkscape:persp3d-origin="0.5 : 0.33333333 : 1"
       inkscape:vp_z="1 : 0.5 : 1"
       inkscape:vp_y="0 : 1000 : 0"
       inkscape:vp_x="0 : 0.5 : 1"
       sodipodi:type="inkscape:persp3d" />
    <inkscape:perspective
       id="perspective3780"
       inkscape:persp3d-origin="0.5 : 0.33333333 : 1"
       inkscape:vp_z="1 : 0.5 : 1"
       inkscape:vp_y="0 : 1000 : 0"
       inkscape:vp_x="0 : 0.5 : 1"
       sodipodi:type="inkscape:persp3d" />
    <inkscape:perspective
       id="perspective3777"
       inkscape:persp3d-origin="0.5 : 0.33333333 : 1"
       inkscape:vp_z="1 : 0.5 : 1"
       inkscape:vp_y="0 : 1000 : 0"
       inkscape:vp_x="0 : 0.5 : 1"
       sodipodi:type="inkscape:persp3d" />
    <inkscape:perspective
       id="perspective4310"
       inkscape:persp3d-origin="0.5 : 0.33333333 : 1"
       inkscape:vp_z="1 : 0.5 : 1"
       inkscape:vp_y="0 : 1000 : 0"
       inkscape:vp_x="0 : 0.5 : 1"
       sodipodi:type="inkscape:persp3d" />
  </defs>
  <sodipodi:namedview
     id="base"
     pagecolor="#ffffff"
     bordercolor="#666666"
     borderopacity="1.0"
     inkscape:pageopacity="0.0"
     inkscape:pageshadow="2"
     inkscape:zoom="0.49497475"
     inkscape:cx="510.3154"
     inkscape:cy="539.85643"
     inkscape:document-units="px"
     inkscape:current-layer="layer1"
     showgrid="false"
     inkscape:window-width="1440"
     inkscape:window-height="840"
     inkscape:window-x="-4"
     inkscape:window-y="-4"
     inkscape:window-maximized="1" />
  <metadata
     id="metadata3178">
    <rdf:RDF>
      <cc:Work
         rdf:about="">
        <dc:format>image/svg+xml</dc:format>
        <dc:type
           rdf:resource="http://purl.org/dc/dcmitype/StillImage" />
        <dc:title>Man</dc:title>
        <dc:date>2010-08-10</dc:date>
        <dc:creator>
          <cc:Agent>
            <dc:title>Alex Amies</dc:title>
          </cc:Agent>
        </dc:creator>
        <dc:rights>
          <cc:Agent>
            <dc:title>@ Alex Amies 2010</dc:title>
          </cc:Agent>
        </dc:rights>
        <dc:publisher>
          <cc:Agent>
            <dc:title>chinesenotes.com</dc:title>
          </cc:Agent>
        </dc:publisher>
        <dc:source>Yan Qin Ceremonial Inscription</dc:source>
        <dc:language>Chinese 中文</dc:language>
        <dc:description>Tracing from Tang Dynasty Ceremonial Inscription by Yan Zhenqing 颜真卿 (709－785)</dc:description>
        <cc:license
           rdf:resource="http://creativecommons.org/licenses/by/3.0/" />
      </cc:Work>
      <cc:License
         rdf:about="http://creativecommons.org/licenses/by/3.0/">
        <cc:permits
           rdf:resource="http://creativecommons.org/ns#Reproduction" />
        <cc:permits
           rdf:resource="http://creativecommons.org/ns#Distribution" />
        <cc:requires
           rdf:resource="http://creativecommons.org/ns#Notice" />
        <cc:requires
           rdf:resource="http://creativecommons.org/ns#Attribution" />
        <cc:permits
           rdf:resource="http://creativecommons.org/ns#DerivativeWorks" />
      </cc:License>
    </rdf:RDF>
  </metadata>
  <g
     inkscape:label="Layer 1"
     inkscape:groupmode="layer"
     id="layer1"
     transform="translate(0,-52.362183)">
    <path
       style="fill:#000000;stroke:#000000;stroke-width:4.70278740000000010px;stroke-linecap:butt;stroke-linejoin:miter;stroke-opacity:1;fill-opacity:1"
       d="M 440.25 5.8125 C 432.26766 5.785018 424.29658 6.96247 416.78125 9.40625 C 404.4022 17.484746 400.44819 30.868876 403.34375 44.6875 C 419.73545 63.078735 442.24463 75.88837 454.375 98.03125 C 456.7625 103.36005 458.51383 109.55128 461.3125 114.625 C 439.58741 118.32103 417.91813 122.31205 396.3125 126.65625 C 310.22191 146.39728 222.96352 160.34239 136.3125 177.375 C 121.80618 202.62393 145.94628 236.82633 173.4375 232.8125 C 221.84578 225.36978 260.65022 190.4 308.6875 181.09375 C 428.06819 144.88675 552.88937 124.13719 677.59375 120.6875 C 735.31106 117.91667 799.26278 122.29078 849.46875 153.21875 C 872.52045 164.59752 899.25541 139.93674 893.25 115.71875 C 895.34227 88.7263 865.59628 72.94355 844.8125 61.90625 C 823.1493 51.05819 799.28105 59.31938 779.875 70.84375 C 738.27231 93.19022 690.38528 80.57125 645.75 87.5 C 607.88643 92.703862 569.98254 97.833568 532.15625 103.4375 C 532.33981 102.87954 532.52769 102.32728 532.6875 101.78125 C 536.65971 88.20966 540.37442 70.49182 536.03125 58.125 C 520.28167 35.109696 488.94293 20.708883 463.8125 9.40625 C 456.22933 7.072398 448.23234 5.839982 440.25 5.8125 z M 705.375 132.5625 C 695.13278 132.85939 685.53764 137.34234 678.8125 145.4375 C 675.16916 159.21653 683.27196 177.78966 678.8125 192.46875 C 669.83544 222.01824 654.89697 251.88979 638.5 278.125 C 632.50277 287.72056 615.91027 291.39825 611.625 299.96875 C 609.19201 304.83477 613.68724 315.49656 618.34375 318.4375 C 624.32448 322.21482 635.8674 322.38652 643.53125 320.125 C 652.85223 317.37448 659.68664 306.63126 669.1875 303.25 C 681.95599 298.70589 696.45522 298.9604 709.3125 293.6875 C 710.81015 293.27296 712.27618 292.7591 713.71875 292.15625 C 700.86308 325.63813 687.28038 358.99357 668.71875 389.75 C 661.08142 402.40496 643.12622 419.40516 648.5625 429.28125 C 654.4914 440.05223 678.78792 450.06657 693.90625 447.78125 C 726.93548 442.78844 763.19827 423.60791 793.03125 407.46875 C 795.31745 406.23197 796.46598 403.27172 796.875 400.125 C 799.00559 405.18903 801.63552 409.96847 804.78125 414.1875 C 809.82894 416.89056 819.66426 416.96289 824.9375 414.1875 C 839.28025 401.2443 844.2781 379.21098 845.09375 360.4375 C 842.23281 347.89479 833.67543 337.70961 821.5625 333.5625 C 812.51213 332.83846 798.19087 332.8412 793.03125 338.59375 C 787.58227 344.6689 789.24591 358.93436 789.6875 369.03125 C 790.06346 374.25516 790.86156 379.68636 792.09375 385.0625 C 789.93857 382.60591 787.28916 380.69625 784.625 380.59375 C 765.78906 379.86915 727.11952 397.4456 724.15625 387.3125 C 719.80189 372.42235 746.94109 331.23981 762.78125 306.6875 C 769.33529 296.52873 784.37417 292.93412 791.34375 283.1875 C 799.70695 271.49205 802.0884 254.26278 798.90625 239.71875 C 796.62338 229.28477 784.43382 221.25166 774.53125 222.71875 C 751.90059 226.0716 731.81509 244.71809 723.1875 267.3125 C 722.8823 268.11176 722.58616 268.91893 722.28125 269.71875 C 711.47665 267.99306 698.48492 272.61335 687.21875 271.40625 C 682.87361 270.94068 673.20734 267.86377 675.4375 264.6875 C 691.68262 241.55054 725.43358 218.36662 742.625 192.46875 C 747.17669 185.6119 744.39628 174.51275 740.34375 166.4375 C 736.4308 152.27848 727.63747 141.84015 715.75 133.6875 C 712.28065 132.83406 708.78907 132.46354 705.375 132.5625 z M 528.1875 190.8125 C 522.28289 191.08505 515.94813 193.1124 510.46875 194.875 C 469.43152 208.07567 428.29984 222.27073 388.25 237.8125 C 373.59367 242.56852 378.66584 252.98278 386.34375 262.25 C 394.30811 268.17791 402.51279 275.7215 411.75 278.125 C 421.37769 280.63009 433.39434 282.06269 443.15625 277.9375 C 482.84354 256.15729 530.95097 255.7562 569.625 232.78125 C 569.25583 216.25791 551.45686 199.09653 535.84375 191.71875 C 533.44602 190.93494 530.87141 190.68861 528.1875 190.8125 z M 264.21875 218.34375 C 255.70183 218.23854 246.29991 220.87892 238.75 226.375 C 212.1127 258.76498 196.35685 297.51867 170.78125 331.59375 C 157.64684 349.90349 145.46481 369.713 129.34375 385.09375 C 104.83964 393.66228 80.801927 385.40122 69.125 414.1875 C 70.690088 434.82549 92.442328 456.93933 111.125 464.5625 C 129.1439 466.47872 199.33307 473.92258 224.75 463.3125 C 208.91659 487.72796 192.66563 511.88874 176.34375 535.9375 C 166.0288 547.81265 155.23598 557.27138 159.8125 573.75 C 168.78608 586.79482 183.46726 590.87244 198.4375 588.84375 C 230.5906 569.72198 262.62348 551.22585 289.25 524.9375 C 292.10808 522.26745 296.99438 520.24356 297.53125 516.625 C 299.123 505.89611 284.62795 507.63372 276.71875 509.53125 C 262.38052 512.97124 246.1374 520.33715 233.71875 520 C 230.12827 519.9026 226.48058 511.70213 228.6875 508.25 C 252.98869 470.23789 286.74862 434.33039 313.625 395.875 C 326.13583 381.56305 329.70385 364.09224 322.34375 346.875 C 315.85936 336.0711 308.52742 327.47698 295.875 325.15625 C 286.31691 327.64863 287.33209 341.90109 288.71875 352.0625 C 290.4412 364.68478 279.10755 374.37269 273.125 384.75 C 260.26124 407.06345 246.71396 429.01241 232.8125 450.75 C 230.33624 441.71328 217.47827 437.77083 208.84375 438.125 C 194.60635 438.70894 180.67855 432.97207 169.59375 425.8125 C 155.76248 416.87904 172.77725 398.99149 180.71875 389.25 C 209.50343 341.57817 253.41625 305.98487 287.46875 263.03125 C 292.27547 256.08152 296.59034 244.7541 294.1875 237.8125 C 291.55168 230.1978 280.80999 221.47722 272.34375 219.34375 C 269.8024 218.70334 267.05772 218.37882 264.21875 218.34375 z M 517.9375 312.8125 C 501.92365 313.08489 485.69126 315.84639 471.09375 320.6875 C 439.4621 336.23933 405.23211 350.59854 374.8125 367.15625 C 373.49163 372.11623 374.59779 381.84041 380.03125 386.59375 C 386.54221 392.28967 395.34499 394.08416 403.0625 397.71875 C 428.71705 394.52669 454.07756 378.56563 478.96875 369.46875 C 505.5688 360.63602 537.10773 355.88535 559.5625 345.3125 C 563.9011 343.26965 560.60749 334.00451 556.59375 329.5 C 552.66279 325.0884 551.24648 316.79945 546.125 315.09375 C 537.07745 313.38563 527.54581 312.64906 517.9375 312.8125 z M 574.4375 417.34375 C 568.93091 417.4275 563.36273 417.86273 558 417.96875 C 519.88875 428.46331 481.76675 438.94276 443.65625 449.4375 L 425.1875 459.53125 L 428.5625 472.96875 C 438.60177 476.80462 447.52384 485.37286 458.6875 484.71875 C 468.95411 485.95751 477.8804 480.07226 487.3125 477.09375 C 501.51172 471.85743 515.6177 466.13768 529.875 461.21875 L 549.46875 461.21875 C 550.18216 478.17583 545.34296 494.65609 543.09375 511.34375 C 540.96302 525.38704 537.95008 539.35702 536.4375 553.46875 C 532.95153 554.36691 529.47304 555.41888 525.96875 556.15625 C 498.53217 563.13166 471.09278 570.11834 443.65625 577.09375 C 442.88336 577.73781 442.11666 578.38716 441.34375 579.03125 C 434.46839 549.8492 425.54381 520.4672 418 491.21875 C 417.39231 488.8626 417.19621 486.39327 414.75 484.96875 C 409.59881 481.96893 405.32694 476.39436 400 474.65625 C 396.48834 473.51046 392.16898 475.75263 388.25 476.3125 C 384.33103 476.87236 379.34695 475.84133 376.46875 478 C 372.62868 480.88003 368.17205 486.35755 368.09375 491.4375 C 367.80218 510.36706 371.64663 530.74561 375.1875 550.0625 C 376.83629 559.05742 378.3686 568.38978 382.1875 576.65625 C 387.85412 588.92234 392.68317 603.16167 401.6875 612.375 C 408.53175 619.37811 420.21773 625.9803 428.5625 627.5 C 432.74694 628.26204 437.92165 621.70982 440.3125 617.40625 C 440.68043 616.74397 441.04593 616.05263 441.40625 615.34375 L 455.4375 619.09375 C 492.38796 610.69594 529.33079 602.30406 566.28125 593.90625 C 570.76009 590.5471 575.23991 587.17165 579.71875 583.8125 L 579.15625 581.4375 C 580.45938 581.11172 581.75937 580.79453 583.0625 580.46875 C 595.38441 555.0832 608.01328 529.81612 620.15625 504.34375 C 622.98568 490.9005 627.87822 477.67688 626.78125 463.75 C 629.0409 452.83986 621.41665 444.77895 616.09375 436.15625 C 611.37733 426.06764 599.43275 424.09794 590.5625 418.84375 C 585.40293 417.52643 579.94409 417.26 574.4375 417.34375 z M 856.21875 467.0625 C 845.92223 467.0256 835.77925 468.57162 828.28125 472.96875 C 824.83015 476.09055 825.74042 484.94873 828.28125 489.75 C 838.09709 508.29821 848.10317 529.43288 861.875 545.1875 C 869.22484 553.59557 881.5275 561.07376 892.125 561.96875 C 904.11654 562.98145 917.4852 551.81918 924.59375 541.125 C 928.71767 534.92085 926.43856 526.351 925.78125 519.15625 C 920.52918 497.35267 903.66778 481.59178 885.09375 470.59375 C 876.96597 468.72618 866.51527 467.0994 856.21875 467.0625 z M 310.78125 468.53125 C 306.80093 468.5882 302.71874 469.64194 299.21875 471.28125 C 294.1997 473.63203 288.74213 477.6372 287.46875 483.03125 C 287.36247 503.70625 305.93392 522.47514 319.375 536.78125 C 324.40426 539.241 330.7033 537.90691 336.1875 536.78125 C 340.36414 535.92398 346.12556 535.60958 347.9375 531.75 C 352.14861 510.81333 337.73069 479.71105 317.6875 469.59375 C 315.50709 468.80434 313.16944 468.49708 310.78125 468.53125 z M 747.65625 491.4375 C 741.75716 495.85135 733.51614 506.34229 732.5625 514.96875 C 731.12679 527.95578 740.27812 542.16804 740.9375 556.21875 C 741.42095 566.52101 738.63708 577.81847 740.9375 587.1875 C 747.05921 600.50499 763.60583 601.02206 776.21875 597.25 C 792.80069 586.65956 792.74537 567.9056 789.65625 550.21875 C 787.16763 538.56275 782.23355 526.68924 776.0625 516.4375 C 769.81443 504.98094 758.97346 496.11719 747.65625 491.4375 z M 670.40625 509.90625 C 663.23577 512.53957 659.18313 533.75439 652.8125 545.28125 C 650.47616 554.49142 647.2749 564.23908 646.90625 573.75 C 650.99175 593.11128 665.68243 599.20194 683.84375 595.5625 C 691.79997 588.93228 695.63015 571.17341 697.28125 558.625 C 699.17807 538.19826 688.11629 518.65503 670.40625 509.90625 z M 308.625 587.84375 C 306.4801 587.92837 304.43851 588.22884 302.59375 588.84375 C 299.11524 590.00327 295.3687 593.7065 294.1875 597.25 C 292.00954 603.78392 290.14663 612.4917 292.5 619.09375 C 297.56081 633.291 307.23178 647.0731 316.34375 659.71875 C 320.85622 665.98122 326.749 674.20908 332.8125 676.1875 C 336.72098 677.4628 343.66958 673.20295 346.25 669.46875 C 349.61879 664.5937 349.79484 656.83527 350.09375 650.25 C 350.31431 645.39212 352.44157 640.28969 351.21875 635.6875 C 347.60668 622.09329 343.64758 606.53429 336.1875 595.5625 C 333.03649 590.92814 325.18121 590.00501 319.375 588.84375 C 316.00566 588.1699 312.19984 587.70271 308.625 587.84375 z M 218.875 598.78125 C 215.41622 599.27065 210.94809 605.14619 210.21875 609 C 207.70253 622.29615 210.33763 637.76842 208.21875 652 C 207.63795 655.90096 206.14313 660.12873 207.28125 663.90625 C 209.04822 669.77105 209.61926 677.40197 213.5625 681.21875 C 217.31622 684.85207 224.75527 686.28125 230.375 686.28125 C 236.51224 686.28125 247.29719 686.42064 248.84375 681.21875 C 253.45559 665.70618 254.55374 640.58339 248.84375 624.125 C 245.03633 613.15043 229.6508 602.60417 220.28125 598.9375 C 219.8429 598.76596 219.36911 598.71134 218.875 598.78125 z M 118.34375 603.625 C 118.18725 603.62257 118.02033 603.72064 117.84375 603.96875 C 111.03519 613.53516 100.28642 637.32681 94.21875 654.84375 C 90.954969 664.26602 89.264837 674.74936 89.28125 684.59375 C 89.29065 691.37865 90.818753 699.35055 94.3125 704.75 C 96.977147 708.86809 102.88271 712.94462 107.75 713.15625 C 115.75936 713.50426 126.70809 711.09688 132.9375 706.4375 C 137.31551 703.16285 138.77862 695.3277 139.65625 689.375 C 140.78125 681.74431 141.48278 673.37571 139.5625 665.875 C 135.46562 649.87184 126.94957 634.86918 121.90625 618.9375 C 120.49164 614.46882 119.85654 603.64851 118.34375 603.625 z M 481.28125 632.21875 C 479.31503 632.21698 477.36901 632.33493 475.5625 632.53125 C 468.63694 633.28388 459.41427 634.02652 455.4375 639.25 C 446.1763 651.41451 455.08629 670.6161 456.5 686.125 C 457.03371 691.98026 457.53754 697.85649 458.0625 703.71875 C 448.23158 707.03781 438.45655 710.45384 428.71875 714.03125 C 424.09102 715.73136 416.83305 715.73146 415.125 719.875 C 409.94422 732.44296 423.81529 752.69112 440.21875 750.875 C 447.44509 748.8895 454.58494 746.63401 461.6875 744.25 C 463.84569 768.33422 466.06403 792.43537 468.53125 816.46875 C 451.68873 821.65109 434.8425 826.84872 418 832.03125 C 401.26556 783.00431 383.48375 731.37934 349.625 693 C 343.89343 689.97902 332.42356 697.38859 327.78125 703.0625 C 322.34614 709.70542 319.0253 720.98039 319.375 729.9375 C 322.96205 754.4316 341.48875 772.25471 350.3125 795.03125 C 356.8742 813.24937 362.34324 832.34164 371.4375 849.1875 C 377.22493 859.90797 385.63452 871.40265 394.96875 877.75 C 399.63105 880.92015 408.13713 880.13573 413.4375 877.75 C 419.77324 874.89795 424.2913 868.44267 425.40625 860.84375 C 427.45596 861.21247 429.47118 861.64422 431.34375 862.28125 C 439.40865 861.30448 447.19646 858.40522 455.15625 856.65625 C 460.91765 855.18081 466.67611 853.69421 472.4375 852.21875 C 474.35397 868.82908 476.43596 885.38116 478.75 901.875 C 432.12293 908.00795 385.51408 914.75621 338.8125 919.71875 C 325.81334 921.09996 312.32549 918.3706 299.5 920.15625 C 281.87828 926.13725 277.70375 929.20173 275.71875 949.96875 C 281.55961 965.73155 293.63307 982.4863 307.625 991.9375 C 317.89043 994.8326 331.07881 993.5581 342.375 991.3125 C 423.5239 974.0011 502.37196 945.79606 580.34375 917.6875 C 593.92733 912.58733 619.99335 900.31488 618.34375 896.21875 C 616.50416 891.65094 585.94701 889.86379 569.875 891.34375 C 552.44831 892.94839 535.03421 894.87829 517.625 896.96875 C 519.11704 888.48514 520.68521 879.94684 520.125 871.21875 C 519.46738 860.97259 518.95379 850.70573 518.5 840.4375 C 535.54181 836.07315 552.58315 831.708 569.625 827.34375 L 584.625 815.8125 C 589.11087 822.62325 596.58777 827.67515 605.0625 826.25 C 615.54581 824.48692 626.56849 821.66303 634.96875 815.78125 C 645.56046 808.36449 645.40444 792.3925 649.5 780.375 C 656.53777 759.72412 668.45581 741.55008 678.71875 722.53125 C 691.89911 705.46714 693.67942 683.44574 688.875 662.75 C 685.76199 653.74661 676.49512 641.10518 667.0625 640.90625 C 636.55138 640.26282 603.3584 659.73676 571.46875 669.03125 C 551.68355 674.79779 531.86861 680.55525 512.125 686.53125 C 511.54068 678.7197 510.86337 670.91704 510.09375 663.125 C 509.28788 654.96618 509.2207 644.43101 504.125 639.25 C 499.18756 634.22991 489.80154 632.22644 481.28125 632.21875 z M 590.40625 697.75 C 599.78398 697.73803 609.18657 700.9539 605.53125 712.25 C 597.88761 739.2497 584.00802 765.65557 580.96875 793.65625 C 570.22658 793.66799 559.47357 794.24212 548.875 796.125 C 538.17916 797.20304 527.37244 798.14935 517.09375 801.40625 C 516.28413 775.64604 515.5888 749.8758 514.375 724.15625 C 535.71389 715.43699 557.0107 706.56249 578.84375 699.3125 C 581.86473 698.42385 586.14365 697.75544 590.40625 697.75 z M 665.3125 843.28125 C 658.06853 843.31635 649.92484 845.8484 645.21875 849.1875 C 641.3057 851.96355 641.33616 860.12989 643.3125 866.125 C 654.05767 896.05965 660.03756 928.67208 675.4375 956.6875 C 678.99755 962.0181 686.19185 967.51405 693.71875 965.96875 C 703.95216 963.86755 716.80692 964.0169 724.15625 958.375 C 734.83468 943.80105 735.82699 922.12266 732.5625 904.625 C 724.88464 873.40414 701.36818 854.64347 672.09375 844.15625 C 670.03763 843.55441 667.72716 843.26955 665.3125 843.28125 z "
       transform="translate(0,52.362183)"
       id="path5186" />
  </g>
</svg>
