<?xml version="1.0" encoding="UTF-8" standalone="no"?>
<!-- Created with Inkscape (http://www.inkscape.org/) -->

<svg
   xmlns:dc="http://purl.org/dc/elements/1.1/"
   xmlns:cc="http://creativecommons.org/ns#"
   xmlns:rdf="http://www.w3.org/1999/02/22-rdf-syntax-ns#"
   xmlns:svg="http://www.w3.org/2000/svg"
   xmlns="http://www.w3.org/2000/svg"
   xmlns:sodipodi="http://sodipodi.sourceforge.net/DTD/sodipodi-0.dtd"
   xmlns:inkscape="http://www.inkscape.org/namespaces/inkscape"
   width="1000"
   height="1000"
   id="svg3173"
   version="1.1"
   inkscape:version="0.47 r22583"
   sodipodi:docname="884c.svg"
   inkscape:export-filename="E:\chinese\yan\884c.png"
   inkscape:export-xdpi="18.005705"
   inkscape:export-ydpi="18.005705">
  <title
     id="title2821">Xing</title>
  <defs
     id="defs3175">
    <inkscape:perspective
       sodipodi:type="inkscape:persp3d"
       inkscape:vp_x="0 : 526.18109 : 1"
       inkscape:vp_y="0 : 1000 : 0"
       inkscape:vp_z="744.09448 : 526.18109 : 1"
       inkscape:persp3d-origin="372.04724 : 350.78739 : 1"
       id="perspective3181" />
    <inkscape:perspective
       id="perspective3191"
       inkscape:persp3d-origin="0.5 : 0.33333333 : 1"
       inkscape:vp_z="1 : 0.5 : 1"
       inkscape:vp_y="0 : 1000 : 0"
       inkscape:vp_x="0 : 0.5 : 1"
       sodipodi:type="inkscape:persp3d" />
    <inkscape:perspective
       id="perspective4006"
       inkscape:persp3d-origin="0.5 : 0.33333333 : 1"
       inkscape:vp_z="1 : 0.5 : 1"
       inkscape:vp_y="0 : 1000 : 0"
       inkscape:vp_x="0 : 0.5 : 1"
       sodipodi:type="inkscape:persp3d" />
    <inkscape:perspective
       id="perspective4034"
       inkscape:persp3d-origin="0.5 : 0.33333333 : 1"
       inkscape:vp_z="1 : 0.5 : 1"
       inkscape:vp_y="0 : 1000 : 0"
       inkscape:vp_x="0 : 0.5 : 1"
       sodipodi:type="inkscape:persp3d" />
    <inkscape:perspective
       id="perspective4081"
       inkscape:persp3d-origin="0.5 : 0.33333333 : 1"
       inkscape:vp_z="1 : 0.5 : 1"
       inkscape:vp_y="0 : 1000 : 0"
       inkscape:vp_x="0 : 0.5 : 1"
       sodipodi:type="inkscape:persp3d" />
    <inkscape:perspective
       id="perspective4147"
       inkscape:persp3d-origin="0.5 : 0.33333333 : 1"
       inkscape:vp_z="1 : 0.5 : 1"
       inkscape:vp_y="0 : 1000 : 0"
       inkscape:vp_x="0 : 0.5 : 1"
       sodipodi:type="inkscape:persp3d" />
    <inkscape:perspective
       id="perspective3737"
       inkscape:persp3d-origin="0.5 : 0.33333333 : 1"
       inkscape:vp_z="1 : 0.5 : 1"
       inkscape:vp_y="0 : 1000 : 0"
       inkscape:vp_x="0 : 0.5 : 1"
       sodipodi:type="inkscape:persp3d" />
  </defs>
  <sodipodi:namedview
     id="base"
     pagecolor="#ffffff"
     bordercolor="#666666"
     borderopacity="1.0"
     inkscape:pageopacity="0.0"
     inkscape:pageshadow="2"
     inkscape:zoom="0.49497475"
     inkscape:cx="771.19728"
     inkscape:cy="511.57215"
     inkscape:document-units="px"
     inkscape:current-layer="layer1"
     showgrid="false"
     inkscape:window-width="1440"
     inkscape:window-height="840"
     inkscape:window-x="-4"
     inkscape:window-y="-4"
     inkscape:window-maximized="1" />
  <metadata
     id="metadata3178">
    <rdf:RDF>
      <cc:Work
         rdf:about="">
        <dc:format>image/svg+xml</dc:format>
        <dc:type
           rdf:resource="http://purl.org/dc/dcmitype/StillImage" />
        <dc:title>Xing</dc:title>
        <dc:date>2010-07-15</dc:date>
        <dc:creator>
          <cc:Agent>
            <dc:title>Alex Amies</dc:title>
          </cc:Agent>
        </dc:creator>
        <dc:rights>
          <cc:Agent>
            <dc:title>@ Alex Amies 2010</dc:title>
          </cc:Agent>
        </dc:rights>
        <dc:publisher>
          <cc:Agent>
            <dc:title>chinesenotes.com</dc:title>
          </cc:Agent>
        </dc:publisher>
        <dc:source>Yan Qin Ceremonial Inscription</dc:source>
        <dc:language>Chinese 中文</dc:language>
        <dc:description>Tracing from Tang Dynasty Ceremonial Inscription by Yan Zhenqing 颜真卿 (709－785)</dc:description>
        <cc:license
           rdf:resource="http://creativecommons.org/licenses/by/3.0/" />
      </cc:Work>
      <cc:License
         rdf:about="http://creativecommons.org/licenses/by/3.0/">
        <cc:permits
           rdf:resource="http://creativecommons.org/ns#Reproduction" />
        <cc:permits
           rdf:resource="http://creativecommons.org/ns#Distribution" />
        <cc:requires
           rdf:resource="http://creativecommons.org/ns#Notice" />
        <cc:requires
           rdf:resource="http://creativecommons.org/ns#Attribution" />
        <cc:permits
           rdf:resource="http://creativecommons.org/ns#DerivativeWorks" />
      </cc:License>
    </rdf:RDF>
  </metadata>
  <g
     inkscape:label="Layer 1"
     inkscape:groupmode="layer"
     id="layer1"
     transform="translate(0,-52.362183)">
    <path
       style="fill:#000000;stroke:#000000;stroke-width:4.70825958000000000px;stroke-linecap:butt;stroke-linejoin:miter;stroke-opacity:1;fill-opacity:1"
       d="M 283.875,64.875 C 240.54686,122.65707 184.57266,174.47426 140.9375,228 c -3.54105,4.34369 -5.59461,17.13966 0,16.8125 66.75508,-3.90366 182.8615,-51.94091 224.75,-84.875 C 358.13399,99.63985 336.95808,68.51307 283.875,64.875 z m 374.96875,38.6875 c -15.37678,5.91637 -25.90276,23.97717 -39.21875,35.5625 -51.26462,21.63818 -100.77492,54.42911 -157.53125,58.59375 -8.81908,8.86062 -8.11429,17.39577 -6,26.75 1.98674,19.38 37.99774,9.66163 51.96875,7.6875 58.68973,-7.29997 110.52901,-31.59303 164.3125,-53.96875 11.74245,-3.57381 23.4763,-7.14495 35.21875,-10.71875 15.06177,-20.08511 11.98279,-34.57044 -1.65625,-52.125 C 695.07551,101.36347 674.15998,97.669423 658.84375,103.5625 z M 325.90625,280.125 c -8.31253,26.2049 -22.89057,50.38355 -42.5,69.65625 -66.00594,72.61068 -131.97797,145.25056 -197.96875,217.875 -1.681508,5.60509 -3.349742,11.20741 -5.03125,16.8125 43.42857,-6.76688 102.98588,-48.32736 159.5,-92.84375 -0.0119,5.16181 -0.17124,10.19989 -1.40625,14.46875 -8.30782,81.26277 -11.7371,163.17931 -25.375,243.8125 -22.44041,25.25176 -20.17268,61.41001 -0.8125,88 23.59888,39.11773 56.95652,5.20104 73.21875,-23.0625 -9.80509,-49.96659 -7.98502,-101.7259 1.03125,-151.6875 11.18603,-58.48229 22.18103,-116.66826 9.40625,-175.65625 -4.37777,-12.12001 -12.65885,-18.54178 -22.5625,-22.8125 33.278,-27.11086 64.04541,-52.94195 87.8125,-70.21875 14.62338,0.64353 30.34981,1.39715 41.9375,-9.09375 5.00535,-44.93191 -33.13944,-97.68096 -77.25,-105.25 z M 879.125,322.25 c -3.05769,-0.009 -6.11748,0.26489 -9.15625,0.84375 -22.69183,10.25412 -45.22707,20.64958 -69.53125,26.90625 -34.47706,11.49212 -69.69799,20.21025 -105.0625,28.40625 -4.84217,-8.171 -11.1381,-13.83054 -19.65625,-14.8125 -9.45249,-3.7482 -18.98308,-2.18147 -28.65625,-1.0625 -22.49427,-1.57719 -24.57354,14.92083 -23.34375,32.40625 -2.66621,0.63795 -5.33694,1.28807 -8,1.9375 -85.12218,28.06655 -182.94843,18.33638 -264.59375,56.4375 -4.86034,25.50328 26.32207,35.77461 41.1875,50.09375 27.48626,5.55028 52.60085,-13.9997 78.75,-19.875 50.77545,-21.83242 103.54156,-36.57219 156.875,-49.34375 16.38071,127.21307 16.99704,232.40511 -3.25,360.625 -3.4423,7.39122 0.0471,21.14889 -9.28125,23.125 -35.15719,12.4404 -68.00698,3.67079 -101.1875,-8.125 8.48617,23.49158 37.03893,30.20778 53.15625,47.75 26.41051,11.92296 23.8915,41.69481 18.3125,65.25 0.84,25.66856 35.57218,30.28518 54.5,19.5 65.95528,-18.51749 65.6242,-58.32821 82.46875,-123.0625 30.70776,-134.23024 9.90426,-269.67698 -14.71875,-403.34375 33.45352,-7.57535 66.8545,-15.41024 99.84375,-24.75 25.76402,-2.15003 50.51436,9.56444 76.5,6.90625 15.5349,-1.72157 37.60948,2.9651 46.15625,-13.46875 9.98188,-8.42416 11.30035,-20.09987 2.625,-30.84375 -11.33881,-17.64738 -32.53368,-31.43596 -53.9375,-31.5 z"
       transform="translate(0,52.362183)"
       id="path3951"
       sodipodi:nodetypes="csscccccccccsscccccccccccccccccccccccccccccccccccccccc" />
  </g>
</svg>
