<?xml version="1.0" encoding="UTF-8" standalone="no"?>
<!-- Created with Inkscape (http://www.inkscape.org/) -->

<svg
   xmlns:dc="http://purl.org/dc/elements/1.1/"
   xmlns:cc="http://creativecommons.org/ns#"
   xmlns:rdf="http://www.w3.org/1999/02/22-rdf-syntax-ns#"
   xmlns:svg="http://www.w3.org/2000/svg"
   xmlns="http://www.w3.org/2000/svg"
   xmlns:sodipodi="http://sodipodi.sourceforge.net/DTD/sodipodi-0.dtd"
   xmlns:inkscape="http://www.inkscape.org/namespaces/inkscape"
   width="1000"
   height="1000"
   id="svg3173"
   version="1.1"
   inkscape:version="0.47 r22583"
   sodipodi:docname="89bf.svg"
   inkscape:export-filename="E:\chinese\yan\89bf.png"
   inkscape:export-xdpi="18.005705"
   inkscape:export-ydpi="18.005705">
  <title
     id="title5896">Di</title>
  <defs
     id="defs3175">
    <inkscape:perspective
       sodipodi:type="inkscape:persp3d"
       inkscape:vp_x="0 : 526.18109 : 1"
       inkscape:vp_y="0 : 1000 : 0"
       inkscape:vp_z="744.09448 : 526.18109 : 1"
       inkscape:persp3d-origin="372.04724 : 350.78739 : 1"
       id="perspective3181" />
    <inkscape:perspective
       id="perspective3191"
       inkscape:persp3d-origin="0.5 : 0.33333333 : 1"
       inkscape:vp_z="1 : 0.5 : 1"
       inkscape:vp_y="0 : 1000 : 0"
       inkscape:vp_x="0 : 0.5 : 1"
       sodipodi:type="inkscape:persp3d" />
    <inkscape:perspective
       id="perspective4006"
       inkscape:persp3d-origin="0.5 : 0.33333333 : 1"
       inkscape:vp_z="1 : 0.5 : 1"
       inkscape:vp_y="0 : 1000 : 0"
       inkscape:vp_x="0 : 0.5 : 1"
       sodipodi:type="inkscape:persp3d" />
    <inkscape:perspective
       id="perspective4034"
       inkscape:persp3d-origin="0.5 : 0.33333333 : 1"
       inkscape:vp_z="1 : 0.5 : 1"
       inkscape:vp_y="0 : 1000 : 0"
       inkscape:vp_x="0 : 0.5 : 1"
       sodipodi:type="inkscape:persp3d" />
    <inkscape:perspective
       id="perspective4081"
       inkscape:persp3d-origin="0.5 : 0.33333333 : 1"
       inkscape:vp_z="1 : 0.5 : 1"
       inkscape:vp_y="0 : 1000 : 0"
       inkscape:vp_x="0 : 0.5 : 1"
       sodipodi:type="inkscape:persp3d" />
    <inkscape:perspective
       id="perspective4147"
       inkscape:persp3d-origin="0.5 : 0.33333333 : 1"
       inkscape:vp_z="1 : 0.5 : 1"
       inkscape:vp_y="0 : 1000 : 0"
       inkscape:vp_x="0 : 0.5 : 1"
       sodipodi:type="inkscape:persp3d" />
    <inkscape:perspective
       id="perspective3801"
       inkscape:persp3d-origin="0.5 : 0.33333333 : 1"
       inkscape:vp_z="1 : 0.5 : 1"
       inkscape:vp_y="0 : 1000 : 0"
       inkscape:vp_x="0 : 0.5 : 1"
       sodipodi:type="inkscape:persp3d" />
    <inkscape:perspective
       id="perspective3122"
       inkscape:persp3d-origin="0.5 : 0.33333333 : 1"
       inkscape:vp_z="1 : 0.5 : 1"
       inkscape:vp_y="0 : 1000 : 0"
       inkscape:vp_x="0 : 0.5 : 1"
       sodipodi:type="inkscape:persp3d" />
    <inkscape:perspective
       id="perspective3854"
       inkscape:persp3d-origin="0.5 : 0.33333333 : 1"
       inkscape:vp_z="1 : 0.5 : 1"
       inkscape:vp_y="0 : 1000 : 0"
       inkscape:vp_x="0 : 0.5 : 1"
       sodipodi:type="inkscape:persp3d" />
    <inkscape:perspective
       id="perspective3922"
       inkscape:persp3d-origin="0.5 : 0.33333333 : 1"
       inkscape:vp_z="1 : 0.5 : 1"
       inkscape:vp_y="0 : 1000 : 0"
       inkscape:vp_x="0 : 0.5 : 1"
       sodipodi:type="inkscape:persp3d" />
    <inkscape:perspective
       id="perspective3945"
       inkscape:persp3d-origin="0.5 : 0.33333333 : 1"
       inkscape:vp_z="1 : 0.5 : 1"
       inkscape:vp_y="0 : 1000 : 0"
       inkscape:vp_x="0 : 0.5 : 1"
       sodipodi:type="inkscape:persp3d" />
    <inkscape:perspective
       id="perspective3972"
       inkscape:persp3d-origin="0.5 : 0.33333333 : 1"
       inkscape:vp_z="1 : 0.5 : 1"
       inkscape:vp_y="0 : 1000 : 0"
       inkscape:vp_x="0 : 0.5 : 1"
       sodipodi:type="inkscape:persp3d" />
    <inkscape:perspective
       id="perspective3995"
       inkscape:persp3d-origin="0.5 : 0.33333333 : 1"
       inkscape:vp_z="1 : 0.5 : 1"
       inkscape:vp_y="0 : 1000 : 0"
       inkscape:vp_x="0 : 0.5 : 1"
       sodipodi:type="inkscape:persp3d" />
    <inkscape:perspective
       id="perspective3802"
       inkscape:persp3d-origin="0.5 : 0.33333333 : 1"
       inkscape:vp_z="1 : 0.5 : 1"
       inkscape:vp_y="0 : 1000 : 0"
       inkscape:vp_x="0 : 0.5 : 1"
       sodipodi:type="inkscape:persp3d" />
    <inkscape:perspective
       id="perspective3833"
       inkscape:persp3d-origin="0.5 : 0.33333333 : 1"
       inkscape:vp_z="1 : 0.5 : 1"
       inkscape:vp_y="0 : 1000 : 0"
       inkscape:vp_x="0 : 0.5 : 1"
       sodipodi:type="inkscape:persp3d" />
    <inkscape:perspective
       id="perspective3913"
       inkscape:persp3d-origin="0.5 : 0.33333333 : 1"
       inkscape:vp_z="1 : 0.5 : 1"
       inkscape:vp_y="0 : 1000 : 0"
       inkscape:vp_x="0 : 0.5 : 1"
       sodipodi:type="inkscape:persp3d" />
    <inkscape:perspective
       id="perspective4500"
       inkscape:persp3d-origin="0.5 : 0.33333333 : 1"
       inkscape:vp_z="1 : 0.5 : 1"
       inkscape:vp_y="0 : 1000 : 0"
       inkscape:vp_x="0 : 0.5 : 1"
       sodipodi:type="inkscape:persp3d" />
    <inkscape:perspective
       id="perspective5117"
       inkscape:persp3d-origin="0.5 : 0.33333333 : 1"
       inkscape:vp_z="1 : 0.5 : 1"
       inkscape:vp_y="0 : 1000 : 0"
       inkscape:vp_x="0 : 0.5 : 1"
       sodipodi:type="inkscape:persp3d" />
    <inkscape:perspective
       id="perspective5212"
       inkscape:persp3d-origin="0.5 : 0.33333333 : 1"
       inkscape:vp_z="1 : 0.5 : 1"
       inkscape:vp_y="0 : 1000 : 0"
       inkscape:vp_x="0 : 0.5 : 1"
       sodipodi:type="inkscape:persp3d" />
    <inkscape:perspective
       id="perspective5834"
       inkscape:persp3d-origin="0.5 : 0.33333333 : 1"
       inkscape:vp_z="1 : 0.5 : 1"
       inkscape:vp_y="0 : 1000 : 0"
       inkscape:vp_x="0 : 0.5 : 1"
       sodipodi:type="inkscape:persp3d" />
    <inkscape:perspective
       id="perspective5906"
       inkscape:persp3d-origin="0.5 : 0.33333333 : 1"
       inkscape:vp_z="1 : 0.5 : 1"
       inkscape:vp_y="0 : 1000 : 0"
       inkscape:vp_x="0 : 0.5 : 1"
       sodipodi:type="inkscape:persp3d" />
  </defs>
  <sodipodi:namedview
     id="base"
     pagecolor="#ffffff"
     bordercolor="#666666"
     borderopacity="1.0"
     inkscape:pageopacity="0.0"
     inkscape:pageshadow="2"
     inkscape:zoom="0.49497475"
     inkscape:cx="483.07102"
     inkscape:cy="534.97897"
     inkscape:document-units="px"
     inkscape:current-layer="g4634"
     showgrid="false"
     inkscape:window-width="1440"
     inkscape:window-height="840"
     inkscape:window-x="-4"
     inkscape:window-y="-4"
     inkscape:window-maximized="1" />
  <metadata
     id="metadata3178">
    <rdf:RDF>
      <cc:Work
         rdf:about="">
        <dc:format>image/svg+xml</dc:format>
        <dc:type
           rdf:resource="http://purl.org/dc/dcmitype/StillImage" />
        <dc:title>Di</dc:title>
        <dc:date>2010-08-21</dc:date>
        <dc:creator>
          <cc:Agent>
            <dc:title>Alex Amies</dc:title>
          </cc:Agent>
        </dc:creator>
        <dc:rights>
          <cc:Agent>
            <dc:title>@ Alex Amies 2010</dc:title>
          </cc:Agent>
        </dc:rights>
        <dc:publisher>
          <cc:Agent>
            <dc:title>chinesenotes.com</dc:title>
          </cc:Agent>
        </dc:publisher>
        <dc:source>Yan Qin Ceremonial Inscription</dc:source>
        <dc:language>Chinese 中文</dc:language>
        <dc:description>Tracing from Tang Dynasty Ceremonial Inscription by Yan Zhenqing 颜真卿 (709－785)</dc:description>
        <cc:license
           rdf:resource="http://creativecommons.org/licenses/by/3.0/" />
      </cc:Work>
      <cc:License
         rdf:about="http://creativecommons.org/licenses/by/3.0/">
        <cc:permits
           rdf:resource="http://creativecommons.org/ns#Reproduction" />
        <cc:permits
           rdf:resource="http://creativecommons.org/ns#Distribution" />
        <cc:requires
           rdf:resource="http://creativecommons.org/ns#Notice" />
        <cc:requires
           rdf:resource="http://creativecommons.org/ns#Attribution" />
        <cc:permits
           rdf:resource="http://creativecommons.org/ns#DerivativeWorks" />
      </cc:License>
    </rdf:RDF>
  </metadata>
  <g
     inkscape:label="Layer 1"
     inkscape:groupmode="layer"
     id="layer1"
     transform="translate(0,-52.362183)">
    <g
       transform="matrix(4.7609464,0,0,4.7609464,-444.07486,-2879.5352)"
       id="g4634"
       style="fill:#000000;fill-opacity:1">
      <path
         style="fill:#000000;stroke:#000000;stroke-width:4.65648316999999960px;stroke-linecap:butt;stroke-linejoin:miter;stroke-opacity:1;fill-opacity:1"
         d="M 301.8125 11.96875 C 281.73449 19.826406 263.36036 28.91713 256.625 49.96875 C 264.57006 70.607607 268.7489 91.911694 271.6875 113.40625 C 214.93611 124.9897 158.04415 137.69295 104.34375 142.53125 C 100.73005 157.74676 99.822737 174.74777 109.21875 188.25 C 115.96906 206.30503 134.92162 220.75693 154.84375 215.5625 C 193.02315 190.43435 234.59837 175.64306 277.6875 165.375 C 278.95154 175.95846 280.40099 186.50872 282.34375 196.96875 C 283.80725 207.70135 287.48132 215.77964 292.78125 221.46875 C 241.78528 231.39143 190.29897 238.84952 139.5 249.59375 C 132.66704 249.71801 126.16546 247.20062 119.40625 246.65625 C 113.73487 263.57884 99.339483 282.25678 110.90625 300.03125 C 120.8662 317.08844 142.81836 318.94508 159.59375 311.75 C 248.47367 283.14466 370.0549 243.73212 465.375 246.8125 C 488.80857 248.00812 510.62985 260.55404 534.25 258.875 C 554.39399 252.54832 533.57958 226.84133 530.03125 213.53125 C 520.98921 197.36503 504.60964 183.36915 485.6875 180.53125 C 468.25049 181.41079 452.34174 190.53572 434.5 191.25 C 411.57957 194.55246 388.79601 198.76833 366.34375 204.28125 C 370.10078 193.67135 370.05619 180.96059 370.25 167.71875 C 370.24771 161.16711 370.75835 154.65324 371.5625 148.15625 C 379.23621 146.97725 386.92034 145.81367 394.59375 144.625 C 432.25988 148.43671 470.69695 148.0931 504.90625 130.375 C 521.77171 117.41637 517.98877 88.874382 499.53125 79.0625 C 481.80577 67.827476 459.33579 60.049084 438.46875 67.03125 C 426.61994 76.805187 419.17501 95.269273 400.59375 92.78125 C 393.63291 93.361442 386.63664 94.08283 379.59375 94.90625 C 379.82175 92.228944 380.01051 89.558738 380.09375 86.875 C 380.41035 76.657485 379.08642 64.983775 373.78125 56.59375 C 356.5282 31.937475 331.84131 14.208585 301.8125 11.96875 z M 788.5 162.96875 C 785.99419 163.10411 783.02581 163.87686 779.59375 165.375 C 735.84579 179.72592 692.02764 195.65161 646.25 202.25 C 620.42951 200.0272 597.40492 201.03007 573.90625 208.59375 C 566.74141 208.2652 552.96028 210.16271 549.5 216.90625 C 539.92517 235.56587 543.82223 263.69645 547.53125 286.59375 C 579.84924 387.74672 544.19824 505.46879 551.15625 602.40625 C 544.39927 604.81123 537.75845 607.54578 531.09375 610.21875 C 526.07328 612.42226 521.05172 614.64024 516.03125 616.84375 C 519.37824 624.5561 522.71555 632.2564 526.0625 639.96875 C 531.75374 641.62586 537.40154 644.8033 543.28125 645.8125 C 542.94467 649.64368 543.27732 653.56891 544.71875 657.65625 C 549.18323 670.3158 570.86229 682.371 574.5625 663.96875 C 575.77053 655.53756 576.94539 647.0998 578.03125 638.65625 C 585.6188 631.66531 592.60689 622.97998 604 623.3125 C 621.59179 620.35438 638.89536 615.88968 656.59375 613.53125 C 655.86442 630.28721 639.14225 638.52347 629.65625 650.28125 C 617.00389 664.2402 606.40431 680.3691 590.3125 690.84375 C 582.08163 697.53407 572.03618 703.19435 567.90625 713.40625 C 555.03532 737.18513 537.82123 758.17875 522.46875 780.375 C 519.55657 784.1829 514.49606 789.4285 523.84375 788.53125 C 536.85889 788.73026 544.07961 776.20989 553.5 769.34375 C 567.43805 756.32908 583.73038 746.29808 600.09375 736.59375 C 611.79611 729.08498 619.08297 716.90213 628.46875 706.96875 C 644.85288 688.06198 660.62297 668.43036 678.96875 651.34375 C 694.91721 640.70894 707.39734 622.26995 704.53125 602.625 C 703.21499 595.20692 696.85635 590.1645 692.96875 583.96875 L 686.71875 575.53125 C 671.01624 575.95117 655.26074 574.66295 639.59375 576.1875 C 621.02472 582.95953 602.43626 589.96059 583.15625 594.4375 C 587.05875 556.71002 589.74097 518.87344 591.3125 481 C 604.80763 481.91996 618.64791 481.40951 630.8125 475.125 C 641.37595 471.56229 650.88123 464.06199 662.46875 464.09375 C 671.04559 462.64952 673.63296 450.92132 668.25 444.90625 C 663.44668 439.8137 657.36036 435.02987 649.96875 434.875 C 645.5575 435.0802 641.26398 435.9659 636.8125 435.90625 C 625.55081 436.73066 614.77176 440.48944 604.6875 445.34375 C 600.5811 446.96871 596.4558 448.54523 592.34375 450.15625 C 592.9473 426.22412 593.09657 402.291 592.8125 378.34375 C 599.08763 378.43074 605.92335 376.73424 612.09375 375.8125 C 633.77286 371.11811 659.84606 367.26028 672.40625 346.875 C 680.30428 336.12202 666.50733 319.23065 654.875 319.375 L 628.15625 319.375 C 616.26642 326.24802 603.42085 331.82147 591.96875 339.40625 C 591.32691 319.04197 590.38295 298.69241 589.125 278.34375 C 606.00151 274.9295 619.03508 259.44512 636.59375 254.875 C 662.42017 244.90729 684.69886 228.06185 710.25 217.625 C 727.7122 215.98543 746.50383 229.86629 741.46875 248.53125 C 730.03596 359.46792 742.19936 473.14031 723.625 583.34375 C 719.9605 612.07378 711.79307 641.17768 716.46875 670.125 C 726.5103 688.99044 744.05217 712.27625 768.28125 708.4375 C 788.47837 707.7036 803.78153 691.88679 804.75 672.21875 C 815.98874 533.09961 823.09849 393.30841 823.625 253.71875 C 822.73723 227.96965 796.98538 213.16758 801 186.40625 C 802.03581 173.47687 799.35852 162.3822 788.5 162.96875 z M 476.5625 285.375 C 469.52961 285.27565 462.46568 285.81718 455.40625 287.1875 C 389.22533 298.71061 320.79004 306.12598 255.96875 324 C 193.31146 339.94074 127.50247 348.37778 72.53125 383.8125 C 52.551748 399.30905 73.082931 428.82312 95.15625 426.125 C 99.447671 425.53917 103.73917 424.82616 108.03125 424.03125 C 106.78705 428.28806 105.99201 432.52649 106 436.6875 C 113.48742 466.91294 118.42166 496.62596 150.84375 506.84375 C 150.35036 508.22795 149.91451 509.62786 149.53125 511.0625 C 163.87508 519.96875 179.97473 510.48841 193.84375 505.5625 C 273.59055 475.5972 355.15394 450.54126 441.0625 460.78125 C 445.3717 461.04451 449.59027 459.69849 453.09375 457.3125 C 461.8468 455.99871 470.29139 452.3582 475.71875 447.1875 C 492.41739 408.5987 517.5209 375.88599 544.5625 343.96875 C 555.50544 325.02666 543.70382 298.8195 522.15625 293.90625 C 507.36491 288.99904 492.03486 285.59356 476.5625 285.375 z M 446.78125 310.15625 C 457.37372 309.9432 466.53271 314.11985 461.5625 328.34375 C 455.48791 346.73871 447.25746 364.62145 437.90625 381.59375 C 432.2217 389.38524 427.47284 398.07591 424.21875 407.25 C 414.88582 404.27698 404.69249 402.48648 393.84375 400.34375 C 390.90331 401.65257 387.81002 402.92047 384.59375 404.15625 C 386.98385 390.37166 385.41399 375.5911 387.1875 361.8125 C 389.49386 350.4979 386.28953 337.67149 378.40625 329.28125 C 396.22441 322.05736 414.16587 315.80458 432.625 312.625 C 436.83813 311.23848 441.96649 310.25309 446.78125 310.15625 z M 341.65625 344.90625 C 342.27766 357.45684 354.63323 372.45044 353.5 385.25 C 353.81548 391.53494 354.7177 403.61878 357.625 413.0625 C 340.68033 418.01871 321.95338 422.64451 302.84375 427.4375 C 302.13118 414.00228 292.45898 401.00299 294.5625 386.625 C 294.15386 375.28506 286.16675 369.12129 276.625 366.46875 C 298.92802 362.32534 320.38876 353.94268 341.65625 344.90625 z M 248.78125 375.78125 C 243.09158 397.3603 250.99665 417.86158 256.40625 439.8125 C 227.70733 448.18689 200.86315 458.03644 181.03125 471.40625 C 180.71902 460.06421 178.54835 448.4142 177.0625 439.96875 C 174.50194 429.74352 171.33868 418.22436 166.40625 408.0625 C 194.21325 398.45058 221.7656 386.70863 248.78125 375.78125 z M 389.71875 485.28125 C 368.73155 485.41697 347.92149 488.75147 328.84375 497.96875 C 290.29451 511.75393 243.04717 516.42602 213.125 539.15625 C 209.64553 541.7994 208.44249 545.89025 208.90625 550.4375 C 208.08199 550.53534 207.27026 550.62737 206.4375 550.71875 C 201.49126 611.97566 200.05172 673.80157 198.46875 735.34375 C 199.81309 762.13845 200.3763 787.50802 213.03125 809.25 C 201.25013 811.57741 189.53937 814.22622 178.09375 818.03125 C 174.70643 819.83222 169.39449 820.10829 167.9375 823.40625 C 162.18294 836.43144 167.30201 855.86727 180.9375 864.34375 C 192.4448 874.84611 208.44884 861.97334 219.90625 857.09375 C 225.91556 850.85277 248.76845 845.99234 244.875 858.9375 C 232.82162 867.69855 220.70156 875.98822 210.15625 886.59375 C 189.24765 902.85214 168.80478 919.89644 152.03125 940.4375 C 135.77643 959.04428 118.53775 976.9746 99.28125 992.5 C 106.84601 1002.8529 119.35134 987.56239 128.125 984.4375 C 221.11604 948.4127 282.58276 869.55004 357.28125 808 C 373.88557 796.81373 357.76749 776.61658 343.46875 773.03125 C 330.17114 767.98369 318.65079 778.04725 306.40625 781.46875 C 292.54152 789.88019 277.88449 795.16048 262.875 799.0625 C 260.23682 775.79616 258.42053 752.51036 257.125 729.21875 C 257.87194 729.14884 258.61121 729.0777 259.375 728.90625 C 280.1382 730.86281 298.48861 720.00492 317.625 714.0625 C 329.70862 710.57444 343.30959 688.84068 325.3125 684.21875 C 305.00734 678.75171 276.87619 686.8559 255.46875 692.15625 C 255.01647 679.5019 254.66756 666.82039 254.375 654.15625 C 280.00357 663.59533 324.82917 653.8072 333.03125 629.53125 C 340.83768 614.7786 329.36925 599.59572 313.125 600.03125 C 293.18769 600.07492 272.70427 599.69782 253.40625 605.125 C 253.24907 596.53319 253.08633 587.94101 252.90625 579.34375 C 252.92492 577.80996 252.85833 576.33424 252.78125 574.90625 C 265.10966 570.78621 276.76497 564.24638 288.875 559.65625 C 304.76375 552.21213 321.13316 545.97209 337.34375 539.4375 C 349.79534 533.76131 364.67078 521.50688 378.40625 530.625 C 389.15494 540.00559 386.0217 556.06749 388.28125 568.8125 C 390.22091 606.67026 387.47052 644.6555 390.84375 682.46875 C 392.61525 720.9571 395.01527 759.39398 396.9375 797.875 C 390.04946 815.92603 389.38525 840.35392 369.53125 849.96875 C 361.47716 850.61381 350.58412 850.6504 363 859.25 C 365.59855 861.54732 368.37833 863.35729 371.3125 864.78125 C 370.4661 865.31663 369.62502 865.81561 368.75 866.375 C 356.12202 870.30921 342.76655 887.98811 360.625 895.0625 C 391.63095 920.55304 426.0298 942.19371 455.03125 970.03125 C 465.12727 975.6406 475.6349 984.69763 484.625 988.4375 C 495.22434 977.28779 477.04489 960.7355 479.53125 946.46875 C 485.026 910.00881 465.10865 885.61146 440.5 863 C 446.73758 860.8734 452.92105 858.55964 459.125 856.46875 C 472.04626 823.61513 477.07791 787.18382 468.9375 752.5625 C 459.98906 690.42587 457.30895 627.61678 452.53125 565.09375 C 451.64762 547.13832 453.40966 528.37622 449.125 511 C 441.85689 503.30974 434.58061 495.62776 427.3125 487.9375 C 414.96025 486.2713 402.31107 485.19982 389.71875 485.28125 z M 669.96875 694.5 C 659.93686 703.41697 650.32213 716.02876 651.5625 730 L 651.5625 835 C 656.0335 846.31725 659.3882 858.48986 668.46875 867.25 C 716.25132 917.44437 845.82049 910.49516 911.0625 910.53125 C 928.15739 908.23052 947.74949 909.44136 953.25 889.5625 C 955.12124 879.42892 955.84778 867.43036 952.21875 857.375 C 946.49581 842.33412 941.80551 826.55835 931.03125 814.125 C 921.4268 801.7374 923.88829 784.70022 919.71875 770.21875 C 916.66018 752.7207 913.61793 735.22048 910.96875 717.65625 C 895.76676 712.57484 898.34192 728.9267 896.59375 738.59375 C 893.41815 758.69489 891.77271 778.96536 892.5625 799.3125 C 893.22808 811.43492 885.8687 822.01032 882.5 833.34375 C 820.78718 846.55595 710.24593 865.6504 692.625 786.09375 C 694.26329 762.21499 699.20353 738.63582 698.5 714.59375 C 701.28911 701.5947 683.52437 698.45042 673.75 695.4375 L 671.875 694.96875 L 669.96875 694.5 z "
         transform="matrix(0.21004227,0,0,0.21004227,93.274493,615.82239)"
         id="path4817" />
    </g>
  </g>
</svg>
