<?xml version="1.0" encoding="UTF-8" standalone="no"?>
<!-- Created with Inkscape (http://www.inkscape.org/) -->

<svg
   xmlns:dc="http://purl.org/dc/elements/1.1/"
   xmlns:cc="http://creativecommons.org/ns#"
   xmlns:rdf="http://www.w3.org/1999/02/22-rdf-syntax-ns#"
   xmlns:svg="http://www.w3.org/2000/svg"
   xmlns="http://www.w3.org/2000/svg"
   xmlns:sodipodi="http://sodipodi.sourceforge.net/DTD/sodipodi-0.dtd"
   xmlns:inkscape="http://www.inkscape.org/namespaces/inkscape"
   width="1000"
   height="1000"
   id="svg3173"
   version="1.1"
   inkscape:version="0.47 r22583"
   sodipodi:docname="89c0.svg"
   inkscape:export-filename="E:\chinese\yan\89c0.png"
   inkscape:export-xdpi="18.005705"
   inkscape:export-ydpi="18.005705">
  <title
     id="title2832">Guan</title>
  <defs
     id="defs3175">
    <inkscape:perspective
       sodipodi:type="inkscape:persp3d"
       inkscape:vp_x="0 : 526.18109 : 1"
       inkscape:vp_y="0 : 1000 : 0"
       inkscape:vp_z="744.09448 : 526.18109 : 1"
       inkscape:persp3d-origin="372.04724 : 350.78739 : 1"
       id="perspective3181" />
    <inkscape:perspective
       id="perspective3191"
       inkscape:persp3d-origin="0.5 : 0.33333333 : 1"
       inkscape:vp_z="1 : 0.5 : 1"
       inkscape:vp_y="0 : 1000 : 0"
       inkscape:vp_x="0 : 0.5 : 1"
       sodipodi:type="inkscape:persp3d" />
    <inkscape:perspective
       id="perspective4006"
       inkscape:persp3d-origin="0.5 : 0.33333333 : 1"
       inkscape:vp_z="1 : 0.5 : 1"
       inkscape:vp_y="0 : 1000 : 0"
       inkscape:vp_x="0 : 0.5 : 1"
       sodipodi:type="inkscape:persp3d" />
    <inkscape:perspective
       id="perspective4034"
       inkscape:persp3d-origin="0.5 : 0.33333333 : 1"
       inkscape:vp_z="1 : 0.5 : 1"
       inkscape:vp_y="0 : 1000 : 0"
       inkscape:vp_x="0 : 0.5 : 1"
       sodipodi:type="inkscape:persp3d" />
    <inkscape:perspective
       id="perspective4081"
       inkscape:persp3d-origin="0.5 : 0.33333333 : 1"
       inkscape:vp_z="1 : 0.5 : 1"
       inkscape:vp_y="0 : 1000 : 0"
       inkscape:vp_x="0 : 0.5 : 1"
       sodipodi:type="inkscape:persp3d" />
    <inkscape:perspective
       id="perspective4147"
       inkscape:persp3d-origin="0.5 : 0.33333333 : 1"
       inkscape:vp_z="1 : 0.5 : 1"
       inkscape:vp_y="0 : 1000 : 0"
       inkscape:vp_x="0 : 0.5 : 1"
       sodipodi:type="inkscape:persp3d" />
    <inkscape:perspective
       id="perspective3807"
       inkscape:persp3d-origin="0.5 : 0.33333333 : 1"
       inkscape:vp_z="1 : 0.5 : 1"
       inkscape:vp_y="0 : 1000 : 0"
       inkscape:vp_x="0 : 0.5 : 1"
       sodipodi:type="inkscape:persp3d" />
    <inkscape:perspective
       id="perspective3794"
       inkscape:persp3d-origin="0.5 : 0.33333333 : 1"
       inkscape:vp_z="1 : 0.5 : 1"
       inkscape:vp_y="0 : 1000 : 0"
       inkscape:vp_x="0 : 0.5 : 1"
       sodipodi:type="inkscape:persp3d" />
    <inkscape:perspective
       id="perspective3815"
       inkscape:persp3d-origin="0.5 : 0.33333333 : 1"
       inkscape:vp_z="1 : 0.5 : 1"
       inkscape:vp_y="0 : 1000 : 0"
       inkscape:vp_x="0 : 0.5 : 1"
       sodipodi:type="inkscape:persp3d" />
  </defs>
  <sodipodi:namedview
     id="base"
     pagecolor="#ffffff"
     bordercolor="#666666"
     borderopacity="1.0"
     inkscape:pageopacity="0.0"
     inkscape:pageshadow="2"
     inkscape:zoom="0.49497475"
     inkscape:cx="460.75335"
     inkscape:cy="557.20233"
     inkscape:document-units="px"
     inkscape:current-layer="g5975"
     showgrid="false"
     inkscape:window-width="1440"
     inkscape:window-height="840"
     inkscape:window-x="-4"
     inkscape:window-y="-4"
     inkscape:window-maximized="1" />
  <metadata
     id="metadata3178">
    <rdf:RDF>
      <cc:Work
         rdf:about="">
        <dc:format>image/svg+xml</dc:format>
        <dc:type
           rdf:resource="http://purl.org/dc/dcmitype/StillImage" />
        <dc:title>Guan</dc:title>
        <dc:date>2010-08-02</dc:date>
        <dc:creator>
          <cc:Agent>
            <dc:title>Alex Amies</dc:title>
          </cc:Agent>
        </dc:creator>
        <dc:rights>
          <cc:Agent>
            <dc:title>@ Alex Amies 2010</dc:title>
          </cc:Agent>
        </dc:rights>
        <dc:publisher>
          <cc:Agent>
            <dc:title>chinesenotes.com</dc:title>
          </cc:Agent>
        </dc:publisher>
        <dc:source>Yan Qin Ceremonial Inscription</dc:source>
        <dc:language>Chinese 中文</dc:language>
        <dc:description>Tracing from Tang Dynasty Ceremonial Inscription by Yan Zhenqing 颜真卿 (709－785)</dc:description>
        <cc:license
           rdf:resource="http://creativecommons.org/licenses/by/3.0/" />
      </cc:Work>
      <cc:License
         rdf:about="http://creativecommons.org/licenses/by/3.0/">
        <cc:permits
           rdf:resource="http://creativecommons.org/ns#Reproduction" />
        <cc:permits
           rdf:resource="http://creativecommons.org/ns#Distribution" />
        <cc:requires
           rdf:resource="http://creativecommons.org/ns#Notice" />
        <cc:requires
           rdf:resource="http://creativecommons.org/ns#Attribution" />
        <cc:permits
           rdf:resource="http://creativecommons.org/ns#DerivativeWorks" />
      </cc:License>
    </rdf:RDF>
  </metadata>
  <g
     inkscape:label="Layer 1"
     inkscape:groupmode="layer"
     id="layer1"
     transform="translate(0,-52.362183)">
    <g
       transform="matrix(4.762395,0,0,4.762395,-2523.1017,68.412668)"
       id="g5975"
       style="fill:none;fill-opacity:1">
      <g
         transform="matrix(0.99768636,0,0,0.99768636,-6.3394566,-206.95474)"
         id="g6158"
         style="fill:none;fill-opacity:1">
        <path
           style="fill:#000000;fill-opacity:1;stroke:#000000;stroke-width:1px;stroke-linecap:butt;stroke-linejoin:miter;stroke-opacity:1"
           d="m 618.15625,207.6875 c -0.78874,-0.0521 -1.40266,0.17883 -1.71875,0.75 l -1.78125,3.21875 c -1.86497,3.37003 0.90149,26.92077 0.6875,40.34375 0.82131,1.43451 2.03263,2.67698 3.4375,3.5625 -0.78346,0 -1.56029,2e-5 -2.34375,0 -1.36658,1.97974 -4.02165,3.9284 -3.34375,6.625 L 617.5,264.875 c 0.14719,-0.0691 0.29099,-0.14768 0.4375,-0.21875 -0.16851,1.1189 -0.33792,2.21878 -0.4375,3.34375 0.0247,2.19309 -0.0707,4.40363 0.0312,6.59375 0.15854,1.65406 0.3157,3.306 0.625,4.9375 -0.0397,0.50639 0.56474,0.28822 0.875,0.34375 l 5.625,0 c 0.10325,-0.18651 0.2061,-0.37774 0.3125,-0.5625 l 0.375,0.5625 17.15625,-2.15625 -0.3125,-2.34375 c 1.6708,-1.32651 3.39784,-2.62858 4.34375,-4.59375 2.57677,-4.00449 5.39958,-7.85234 8.21875,-11.6875 0.46628,-1.80407 0.34115,-3.75522 0.0312,-5.5625 0,0 -0.92707,-4.43704 -2.28115,-6.15625 -1.06362,-1.35043 -3.18755,-4.20119 -4.28125,-2.875 -1.41849,1.72002 -3.57206,2.93867 -4.46875,5.03125 l -0.53125,2.125 c -2.65791,0.11727 -5.41813,-0.42671 -7.9375,0.71875 -3.38242,1.06464 -6.72362,2.45323 -10.1875,3.1875 l -1.3125,0 c 0.49054,-0.83568 0.63454,-1.93267 0.4375,-2.84375 -0.54939,-9.80811 1.34829,-19.51794 1.5,-29.28125 2.06153,-2.90756 2.31968,-7.23282 0.25,-10.125 -1.57514,-2.85883 -5.44627,-5.46858 -7.8125,-5.625 z m -29.625,4.28125 c -0.36797,0.0432 -0.70366,0.17284 -1.03125,0.40625 -0.83333,0.59375 -1.66667,1.1875 -2.5,1.78125 -1.68699,1.20198 1.19791,7.55604 2.625,11.125 0.90327,2.88534 2.08962,5.72303 2.78125,8.65625 0.35458,6.33219 0.69287,12.68126 1.5625,18.96875 0.29589,2.27804 0.50712,4.54961 0.53125,6.84375 -8.46812,2.08464 -17.40724,5.54442 -25.96875,8.25 -1.59263,-0.0981 -3.3548,-1.40203 -4.75,-0.625 -1.01828,0.56711 -2.17693,2.28653 -1.4375,3.1875 1.00727,1.22733 1.88612,4.24382 3.75,3.5625 1.53149,1.31392 2.26579,6.83084 1.96875,9.78125 0.72969,3.59316 -1.86448,8.80811 2.1875,10.65625 2.288,2.73756 5.78382,0.73875 6.0625,-2.15625 1.27065,0.3492 2.69977,0.15585 4.03125,-0.78125 2.50448,-1.47617 9.33231,-2.38706 6.75,-6.40625 -2.35617,-2.75966 -6.05355,-0.6802 -9.03125,-0.71875 l -1.875,1.125 c 0.0299,-3.60189 -0.11541,-7.21657 -0.65625,-10.78125 -0.67305,-1.12243 -1.54219,-2.15677 -2.5625,-2.875 L 587.5,269.5 c 0,0 -1.21612,3.863 -0.71875,5.71875 0.30797,1.14905 1.16347,3.49915 2.15625,2.84375 2.03508,-1.34349 4.12046,-2.61036 6.125,-4 2.51698,-3.2709 4.87819,-6.62749 4.9375,-10.90625 -1.71436,-8.98072 -1.34654,-20.5449 -1.75,-30.4375 0.30322,-2.57034 1.6559,-5.23251 0.96875,-7.71875 -0.57292,-2.07292 -0.25166,-4.64622 -1.71875,-6.21875 -2.91615,-3.12574 -6.39297,-7.11474 -8.96875,-6.8125 z m 53.625,2.90625 c -3.66032,-0.12465 -0.68017,6.22135 -2.3125,9.3125 -2.81014,3.26385 -6.37357,5.88103 -9.5,8.875 1.83685,3.58629 6.61945,0.79521 9.75,1.40625 3.84055,-0.33792 6.4156,2.95621 9.875,3.8125 2.58058,0.68048 5.73448,-0.64163 6.25,-3.40625 1.38606,-2.91738 -1.64486,-6.02238 -2.40625,-8.84375 -3.19762,-4.65333 -6.72821,-10.98842 -11.65625,-11.15625 z m -75.875,24.34375 c -0.77939,-0.0381 -2.12713,-0.39752 -2.34375,0.28125 -1.63217,5.11419 -0.53179,13.49455 1.71875,19.0625 1.3941,2.22356 4.4787,2.97178 6.875,2.15625 4.6377,-2.46369 2.53006,-6.89644 2.59375,-10.96875 0.64972,-4.38893 4.65484,-7.05075 7.71875,-9.875 -1.07838,-0.89774 -2.51532,-0.29227 -3.65625,0.125 -2.219,0.70086 -4.46111,1.3226 -6.6875,2 -1.92893,-0.5182 -4.21149,-0.82075 -5.4375,-2.59375 -0.25337,-0.12133 -0.52145,-0.1748 -0.78125,-0.1875 z M 697.21875,247 c -1.92452,-0.0543 -3.94625,0.86033 -5.46875,2.28125 -4.89267,2.92759 -10.57798,4.0987 -15.8125,6.28125 -3.62042,1.49392 -8.73813,1.32026 -10.90625,4.5625 l -3.40625,5.09375 c 0,0 -0.83196,-1.73069 -1.625,-2.15625 -1.68272,-0.90297 -5.71875,-0.34375 -5.71875,-0.34375 -1.47628,-0.0887 -1.81542,2.92098 -1.0625,4.34375 2.52938,3.59906 2.74754,7.72181 2.28125,11.9375 -0.40534,12.12538 0.45294,24.28868 0.0312,36.40625 l -1.25,14.09375 2.03125,2.90625 c -1.20941,0.3792 -2.41731,0.74033 -3.625,1.125 -2.08367,1.15756 -4.1663,2.31126 -6.25,3.46875 -1.35419,1.8126 0.22974,3.45276 1.3125,4.84375 1.73012,0.59665 3.75619,-0.32554 5.375,-1.09375 5.26011,-2.73065 10.73433,-5.04295 16.15625,-7.4375 -6.62645,9.8619 -13.27009,19.70808 -19.9375,29.53125 -0.0214,-0.0436 -0.0359,-0.0804 -0.0625,-0.125 l -2.125,-3.5625 c -1.69077,-2.83453 -6.15763,0.66141 -8.90625,2.28125 -2.86641,1.21713 -4.58724,4.38773 -8.09375,3.84375 -1.60412,0.19292 -3.20824,0.37066 -4.8125,0.5625 0.9147,-0.75739 1.56373,-1.88757 1.65625,-3.46875 1.34641,-4.62653 0.98112,-9.46197 1,-14.25 2.27395,-0.50659 4.55493,-0.91225 6.875,-1.125 4.18142,0.0739 10.12411,1.11693 10.78125,-4.65625 0.21405,-5.54969 -7.14223,-2.59665 -10.40625,-2.28125 -2.37458,0.26326 -4.74838,0.65846 -7.09375,1.09375 0.0294,-4.29934 -0.006,-8.60556 -0.0625,-12.90625 2.71341,-0.5245 5.42865,-1.0197 8.125,-1.625 0,0 2.33656,0.0659 3.0625,-0.6875 1.3453,-1.3962 1.44219,-3.81742 1.0625,-5.71875 -0.16804,-0.84148 -0.54837,-2.13708 -1.40625,-2.15625 -1.66496,-0.0372 -3.44957,-0.72088 -5.03125,-0.21875 l -5.9062,1.875 c -0.92859,-3.68726 1.60293,-9.2591 -0.375,-12.09375 l -1.46875,-0.6875 c 4.36024,-0.89883 8.72036,-1.79754 13.0625,-2.78125 2.30698,-1.08226 6.69256,0.19953 6.59375,-3.71875 -1.70477,-2.13323 -3.81948,-4.54966 -6.5625,-5.03125 -1.41377,0.0728 -2.9564,0.91137 -4.0625,1.5625 -13.10439,4.57223 -27.12608,8.26925 -40.90625,10.40625 l -0.71875,3.5625 c 2.19273,1.75184 5.25179,2.42813 8,2.21875 3.06755,-0.87195 5.91554,-2.48301 9.09375,-3.03125 2.28156,-0.48019 4.55936,-0.93852 6.84375,-1.40625 -1.77081,3.22113 -3.55321,6.47125 -3.59375,10.25 -0.16985,1.75894 -0.2409,3.52031 -0.25,5.28125 l -15.4375,4.90625 -1.4375,3.21875 1.4375,2.125 c 5.10057,-1.63906 10.37323,-2.54667 15.625,-3.53125 0.19488,3.93171 0.48162,7.84875 0.40625,11.78125 -0.003,0.46795 -0.002,0.93732 0,1.40625 -4.41942,2.51151 -12.16687,0.1659 -15.71875,3.125 -1.90617,2.78154 -1.43486,4.77711 0.46875,7.46875 4.60458,-0.0523 10.2016,-2.42034 15.3125,-3.40625 0.0116,2.73765 -0.0249,5.4545 -0.3125,8.15625 -1.55872,2.5998 0.19131,4.66387 2.65625,5.875 0.69589,0.53737 1.50923,0.964 2.375,1.25 -6.93935,0.82968 -13.87907,1.65397 -20.8125,2.53125 -1.4007,1.46082 -0.85637,3.03146 0,4.53125 0.6273,1.82403 3.29592,-0.041 4.78125,0.21875 11.32644,-1.92031 22.84007,-1.12273 34.25,-1.65625 2.81147,-0.0447 4.1023,-2.68218 5.90625,-4.40625 0.98488,-1.00239 3.00269,-1.726 4.5,-2.53125 -3.89863,5.73671 -7.78936,11.46557 -11.71875,17.1875 -4.53394,4.65091 -8.88951,9.49507 -13.78125,13.78125 2.5886,2.93082 6.21063,-0.7035 9.28125,-0.96875 3.25648,-0.55166 4.86945,-3.641 7.15625,-5.6875 5.17469,-5.4779 9.28084,-11.85256 13.90625,-17.78125 4.92952,-6.39813 9.10527,-13.30359 12.8125,-20.46875 3.45812,-6.17177 7.90207,-11.74172 11.90625,-17.5625 1.21746,-1.7249 2.48776,-3.39395 3.78125,-5.0625 0.43644,-0.1524 0.87462,-0.32042 1.3125,-0.46875 2.46886,0.0973 5.26714,2.29625 7.4375,0.15625 -0.0304,2.57972 4.8e-4,5.1678 0.125,7.75 0.12979,1.50788 0.0616,3.10822 0.15625,4.65625 -2.20222,-0.43943 -5.70096,-2.12442 -6.8125,-0.28125 -7.64866,12.68311 -19.18446,31.65162 -4.53125,45.03125 2.97659,2.71788 7.21235,4.11865 11.1875,4.71875 10.6471,1.60731 39.89862,4.35066 47.34375,-6.3125 2.39497,-3.7182 3.88296,-8.91639 1.09375,-12.84375 -2.63327,-3.22763 -7.51975,-3.98938 -9.125,-8.21875 -2.52709,-2.35661 -3.21711,-6.95297 -6.25,-8.34375 -2.78586,1.41743 -1.15569,5.30048 -2.09375,7.8125 -0.54403,3.8461 -0.50643,7.73282 -0.625,11.59375 -1.03761,4.887 -6.587,3.86833 -10.25,3.6875 -10.4098,0.7404 -22.38795,1.65691 -28.1875,-6.03125 -2.47718,-3.28388 -0.57349,-9.51415 1.75,-13.4375 2.42672,-4.09768 6.53113,-7.17688 9,-11.25 2.46967,3.02912 7.0764,2.08638 8.5,-1.65625 1.4538,-2.97849 2.49007,-6.44662 2.28125,-9.84375 0.59185,-19.91816 1.07103,-39.83447 1.75,-59.75 1.32257,-5.99912 4.00047,-12.09604 2.6875,-18.3125 -0.47307,-3.81168 -3.73534,-6.07782 -6.5,-8.3125 -1.10681,-1.42571 -2.5344,-2.05153 -4.03125,-2.09375 z m -55.0625,9.65625 c -0.19058,2.85062 0.57559,5.89853 -0.90625,8.53125 -0.80232,1.99023 -1.93864,3.91286 -2.3125,6.03125 l 0,0.9375 -1.78125,-0.15625 -7.875,1.78125 -3.03125,0.9375 c 0.0629,-0.82759 0.13782,-1.6734 0.15625,-2.5 l -1.75,-8.78125 -1.125,-1.5 c 1.08435,-0.45313 2.17133,-0.84236 3.34375,-1.0625 5.09885,-1.35447 10.21918,-2.73175 15.28125,-4.21875 z m 47.34375,0.5 c 3.56295,-0.0146 1.8093,6.43338 2.28125,9.25 0.68962,19.12393 -1.05884,38.17084 -1.90625,57.25 -0.51381,-0.33464 -1.15935,-0.51233 -1.9375,-0.46875 -1.05871,0.1873 -2.11323,0.41787 -3.15625,0.6875 0.2397,-0.31245 0.48118,-0.62365 0.71875,-0.9375 0.63769,-2.28804 0.98646,-4.81731 -0.84375,-6.65625 -4.27023,-1.25077 -5.85297,3.29784 -8,6.03125 -1.09653,1.63414 -2.18437,3.27232 -3.28125,4.90625 -3.26148,0.96414 -6.52798,1.91475 -9.78125,2.90625 0.32158,-0.5656 0.55361,-1.17787 0.65625,-1.875 0.92283,-3.73681 0.54515,-7.70119 0.9375,-11.53125 0.14081,-2.40293 0.24952,-4.81319 0.375,-7.21875 1.18249,1.22174 2.67413,1.90896 4.59375,1.03125 4.2705,-0.61827 8.77606,-1.43869 12.3125,-4.0625 2.7837,-2.07701 0.95975,-5.62412 -2.03125,-6.09375 -3.47552,-0.55987 -7.14587,-0.73155 -10.46875,0.65625 l -4.125,2.9375 c 0.2529,-6.26211 0.33781,-12.52191 0.0625,-18.78125 l 2.65625,2.1875 c 0.84361,0.69474 2.30623,0.1459 3.25,-0.40625 0,0 9.31656,-3.34689 12.125,-7.09375 0.59247,-0.79043 0.86915,-1.89869 0.71875,-2.875 -0.10608,-0.68863 -0.45312,-1.50729 -1.09375,-1.78125 -4.14403,-1.77218 -9.23453,0.73672 -13.21875,2.84375 -1.86928,0.98856 -4.59375,4.375 -4.59375,4.375 -0.0666,-1.07248 -0.12735,-2.1468 -0.21875,-3.21875 -0.25496,-3.52992 -0.57275,-7.15544 -1.4375,-10.5625 2.45533,-0.48227 5.11548,-3.14493 7.5,-3.625 5.91715,-2.71941 11.54457,-6.29853 17.90625,-7.875 z m -90,14.09375 c -0.19264,0.009 -0.36994,0.0251 -0.5625,0.0312 -2.4741,2.58173 -5.06673,5.14941 -6.1875,8.65625 -8.3908,18.79612 -18.8097,36.60862 -29.875,53.9375 -4.29203,5.68385 -7.86823,11.94676 -12.875,17.0625 2.35209,5.08417 5.95823,-1.47808 8.78125,-2.875 9.30505,-8.58397 17.42212,-18.4572 25.03125,-28.5625 2.18587,24.46512 2.01304,49.21076 2.59375,73.78125 -0.19273,4.07956 -1.48255,8.47122 0.15625,12.375 1.9347,2.63826 5.34092,7.72581 8.40625,3.75 0.83512,-24.82263 1.01216,-48.97324 1.1875,-73.15625 0.0309,-4.33334 1.43843,-8.79862 -0.5625,-12.90625 -0.75626,-3.9057 -3.81623,-6.80176 -6.46875,-9.5625 -0.49883,-0.60749 -1.11394,-0.66555 -1.78125,-0.5625 2.99078,-5.6098 5.89745,-11.27078 9.34375,-16.59375 3.06498,-4.20175 6.01133,-8.47405 9.1875,-12.59375 1.99858,-1.37021 4.60576,-2.40086 4.90625,-5.09375 1.72256,-2.45687 -1.66592,-3.40739 -3.15625,-4.875 -2.25585,-1.39405 -4.83558,-2.74636 -7.53125,-2.8125 -0.19315,-0.0124 -0.40111,-0.009 -0.59375,0 l 0,5e-5 z m 19.59375,8.96875 c 0,0 -3.51374,-0.60478 -4.8125,0.34375 -1.04191,0.76094 -1.4375,3.59375 -1.4375,3.59375 -1.13458,2.83644 1.24063,5.96775 1.8125,8.96875 0.029,2.56725 0.006,5.1618 -0.25,7.71875 0.033,0.64384 -0.506,1.83828 0.53125,1.4375 L 617.5,302 c 4.63745,-3.45957 14.34021,-4.57157 13.9375,-10.34375 l -0.375,-5.375 c -0.35961,-5.15439 -7.09445,-5.10686 -11.96875,-6.0625 z"
           id="path5989"
           sodipodi:nodetypes="ccsccccccccccccccccccssccccccccccsscccccsscccccccccccsscccssccccccccscscccccccscccscssccccccccccccsccccccccccsssssccccccccccccccccccccccccccccccccccccccccccccssscccccccssccccccccccccccccccccccccccccccccccccccsssssscccccccccccccccccccccccccccssccccssc" />
      </g>
    </g>
  </g>
</svg>
