<?xml version="1.0" encoding="UTF-8" standalone="no"?>
<!-- Created with Inkscape (http://www.inkscape.org/) -->

<svg
   xmlns:dc="http://purl.org/dc/elements/1.1/"
   xmlns:cc="http://creativecommons.org/ns#"
   xmlns:rdf="http://www.w3.org/1999/02/22-rdf-syntax-ns#"
   xmlns:svg="http://www.w3.org/2000/svg"
   xmlns="http://www.w3.org/2000/svg"
   xmlns:sodipodi="http://sodipodi.sourceforge.net/DTD/sodipodi-0.dtd"
   xmlns:inkscape="http://www.inkscape.org/namespaces/inkscape"
   width="1000"
   height="1000"
   id="svg3173"
   version="1.1"
   inkscape:version="0.47 r22583"
   sodipodi:docname="8a2a.svg"
   inkscape:export-filename="E:\chinese\yan\8a2a.png"
   inkscape:export-xdpi="18.005705"
   inkscape:export-ydpi="18.005705">
  <title
     id="title2832">Fang</title>
  <defs
     id="defs3175">
    <inkscape:perspective
       sodipodi:type="inkscape:persp3d"
       inkscape:vp_x="0 : 526.18109 : 1"
       inkscape:vp_y="0 : 1000 : 0"
       inkscape:vp_z="744.09448 : 526.18109 : 1"
       inkscape:persp3d-origin="372.04724 : 350.78739 : 1"
       id="perspective3181" />
    <inkscape:perspective
       id="perspective3191"
       inkscape:persp3d-origin="0.5 : 0.33333333 : 1"
       inkscape:vp_z="1 : 0.5 : 1"
       inkscape:vp_y="0 : 1000 : 0"
       inkscape:vp_x="0 : 0.5 : 1"
       sodipodi:type="inkscape:persp3d" />
    <inkscape:perspective
       id="perspective4006"
       inkscape:persp3d-origin="0.5 : 0.33333333 : 1"
       inkscape:vp_z="1 : 0.5 : 1"
       inkscape:vp_y="0 : 1000 : 0"
       inkscape:vp_x="0 : 0.5 : 1"
       sodipodi:type="inkscape:persp3d" />
    <inkscape:perspective
       id="perspective4034"
       inkscape:persp3d-origin="0.5 : 0.33333333 : 1"
       inkscape:vp_z="1 : 0.5 : 1"
       inkscape:vp_y="0 : 1000 : 0"
       inkscape:vp_x="0 : 0.5 : 1"
       sodipodi:type="inkscape:persp3d" />
    <inkscape:perspective
       id="perspective4081"
       inkscape:persp3d-origin="0.5 : 0.33333333 : 1"
       inkscape:vp_z="1 : 0.5 : 1"
       inkscape:vp_y="0 : 1000 : 0"
       inkscape:vp_x="0 : 0.5 : 1"
       sodipodi:type="inkscape:persp3d" />
    <inkscape:perspective
       id="perspective4147"
       inkscape:persp3d-origin="0.5 : 0.33333333 : 1"
       inkscape:vp_z="1 : 0.5 : 1"
       inkscape:vp_y="0 : 1000 : 0"
       inkscape:vp_x="0 : 0.5 : 1"
       sodipodi:type="inkscape:persp3d" />
    <inkscape:perspective
       id="perspective3807"
       inkscape:persp3d-origin="0.5 : 0.33333333 : 1"
       inkscape:vp_z="1 : 0.5 : 1"
       inkscape:vp_y="0 : 1000 : 0"
       inkscape:vp_x="0 : 0.5 : 1"
       sodipodi:type="inkscape:persp3d" />
  </defs>
  <sodipodi:namedview
     id="base"
     pagecolor="#ffffff"
     bordercolor="#666666"
     borderopacity="1.0"
     inkscape:pageopacity="0.0"
     inkscape:pageshadow="2"
     inkscape:zoom="0.49497475"
     inkscape:cx="757.7382"
     inkscape:cy="557.20233"
     inkscape:document-units="px"
     inkscape:current-layer="g5975"
     showgrid="false"
     inkscape:window-width="1440"
     inkscape:window-height="840"
     inkscape:window-x="-4"
     inkscape:window-y="-4"
     inkscape:window-maximized="1" />
  <metadata
     id="metadata3178">
    <rdf:RDF>
      <cc:Work
         rdf:about="">
        <dc:format>image/svg+xml</dc:format>
        <dc:type
           rdf:resource="http://purl.org/dc/dcmitype/StillImage" />
        <dc:title>Fang</dc:title>
        <dc:date>2010-07-13</dc:date>
        <dc:creator>
          <cc:Agent>
            <dc:title>Alex Amies</dc:title>
          </cc:Agent>
        </dc:creator>
        <dc:rights>
          <cc:Agent>
            <dc:title>@ Alex Amies 2010</dc:title>
          </cc:Agent>
        </dc:rights>
        <dc:publisher>
          <cc:Agent>
            <dc:title>chinesenotes.com</dc:title>
          </cc:Agent>
        </dc:publisher>
        <dc:source>Yan Qin Ceremonial Inscription</dc:source>
        <dc:language>Chinese 中文</dc:language>
        <dc:description>Tracing from Tang Dynasty Ceremonial Inscription by Yan Zhenqing 颜真卿 (709－785)</dc:description>
        <cc:license
           rdf:resource="http://creativecommons.org/licenses/by/3.0/" />
      </cc:Work>
      <cc:License
         rdf:about="http://creativecommons.org/licenses/by/3.0/">
        <cc:permits
           rdf:resource="http://creativecommons.org/ns#Reproduction" />
        <cc:permits
           rdf:resource="http://creativecommons.org/ns#Distribution" />
        <cc:requires
           rdf:resource="http://creativecommons.org/ns#Notice" />
        <cc:requires
           rdf:resource="http://creativecommons.org/ns#Attribution" />
        <cc:permits
           rdf:resource="http://creativecommons.org/ns#DerivativeWorks" />
      </cc:License>
    </rdf:RDF>
  </metadata>
  <g
     inkscape:label="Layer 1"
     inkscape:groupmode="layer"
     id="layer1"
     transform="translate(0,-52.362183)">
    <g
       transform="matrix(4.762395,0,0,4.762395,-2523.1017,68.412668)"
       id="g5975"
       style="fill:none;fill-opacity:1">
      <path
         style="fill:#000000;stroke:#000000;stroke-width:4.76239491000000030px;stroke-linecap:butt;stroke-linejoin:miter;stroke-opacity:1;fill-opacity:1"
         d="M 323.34375 59.9375 C 315.60114 59.834109 307.44468 60.831527 298.625 63.03125 C 289.27389 67.78604 277.35629 72.26981 274.125 83.34375 C 292.44027 126.13019 330.13054 157.74091 359.125 194.125 C 363.53947 198.62753 369.1008 202.08774 375.125 204.21875 C 299.82106 223.17157 225.6975 246.15625 151.34375 268.8125 C 124.2251 269.57289 96.83549 267.2501 69.875 270.09375 C 54.934272 271.53538 42.802807 278.88261 29.875 285.84375 C 28.902471 306.84551 52.075397 318.95105 60.9375 336.40625 C 68.447321 354.43843 91.709661 362.20288 108.1875 351.21875 C 222.31063 288.61436 348.07831 259.81179 474.46875 235.53125 C 493.14458 234.64387 500.96889 212.35728 493.9375 197.1875 C 490.45176 183.63035 471.04122 184.73482 459.4375 185 C 441.91315 188.51556 424.48813 192.34167 407.125 196.40625 C 420.68807 162.95032 414.71022 110.65141 387.125 86.34375 C 365.91835 70.305599 346.57157 60.247672 323.34375 59.9375 z "
         transform="matrix(0.20997838,0,0,0.20997838,529.79681,-3.3702549)"
         id="path5906" />
      <path
         id="path5912"
         d="m 560.71428,85.933616 c -1.55876,3.574083 2.44704,6.332374 5.62894,7.437556 4.19069,1.862217 8.9072,0.53306 13.29963,0.06244 6.37672,-3.440097 13.16768,-9.095561 20.78109,-9.091206 4.79217,0.07041 9.09877,-3.242843 12.65508,-6.185839 0.26288,-4.002886 -2.05302,-4.506268 -5.31164,-5.716583 -2.71622,-0.76808 -4.6729,1.612564 -6.84251,2.738687 -12.53053,6.236392 -26.43715,8.918474 -40.21059,10.754941 z"
         style="fill:#000000;fill-opacity:1;stroke:#000000;stroke-width:1px;stroke-linecap:butt;stroke-linejoin:miter;stroke-opacity:1"
         sodipodi:nodetypes="cccccccc" />
      <path
         id="path5914"
         d="m 551.78571,117.36219 c -0.8355,5.30147 6.14129,9.073 10.14174,11.42857 3.09611,-0.23214 6.37573,0.4836 9.35459,-0.39541 13.31393,-5.02858 25.73567,-12.04142 38.88507,-17.43432 2.03988,0.0701 5.96972,0.2651 5.90432,-2.58991 0.47566,-3.35537 -3.4409,-5.10769 -6.40457,-5.17149 -13.95901,3.15111 -27.0217,9.37281 -39.66686,15.9483 -3.6961,-0.30661 -7.55014,0.14955 -11.03682,-1.36629 -2.43777,-1.22332 -4.66251,-0.92238 -7.17747,-0.41945 z"
         style="fill:#000000;fill-opacity:1;stroke:#000000;stroke-width:1px;stroke-linecap:butt;stroke-linejoin:miter;stroke-opacity:1"
         sodipodi:nodetypes="ccccccccc" />
      <path
         style="fill:#000000;stroke:#000000;stroke-width:4.76239491000000030px;stroke-linecap:butt;stroke-linejoin:miter;stroke-opacity:1;fill-opacity:1"
         d="M 398.96875 632.8125 C 386.47489 636.07884 372.15462 642.68717 370.5625 657.25 C 369.79597 661.66341 369.01351 666.07286 368.1875 670.46875 C 363.59256 668.08017 357.37937 667.60024 349.84375 669.3125 C 323.63615 674.45579 300.78772 691.41612 273.53125 688.1875 C 265.10253 686.93099 255.52286 683.70419 247.78125 688.90625 C 247.09694 689.41921 246.47645 689.9886 245.90625 690.625 C 240.06655 709.46965 255.22498 728.44732 265.625 743.375 C 282.64413 749.84786 303.04895 736.90447 318.0625 728.78125 C 328.14581 718.18873 345.8599 716.71919 359.625 711.125 C 348.80478 757.2676 334.37384 802.31994 315.75 846.03125 C 288.74293 840.24006 259.55082 846.87229 232.34375 850.375 C 232.03163 850.47489 231.71884 850.55905 231.40625 850.65625 C 223.55427 791.2239 214.6132 733.04162 190.03125 677.9375 C 176.3868 666.13524 160.35502 658.37456 143.84375 651.5 C 135.67729 676.52396 130.43567 702.23783 139.78125 727.5 C 150.09784 760.12074 159.35697 793.13632 170.5625 825.4375 C 176.34442 839.16032 182.84893 848.97162 191.71875 857.0625 C 184.75075 857.38829 177.83608 857.42168 171.0625 857.3125 C 169.53301 863.57024 161.9623 868.40303 164.8125 875.5 C 176.26263 891.87273 193.00682 918.40414 214.09375 922.28125 C 240.96955 901.43396 282.6196 903.5938 315.84375 894.6875 C 319.62404 900.08003 324.22766 905.04016 329.21875 910.03125 C 339.83356 908.00256 352.83977 909.19811 359.09375 898.34375 C 411.51405 836.13897 438.90542 759.5585 451.6875 680.4375 C 438.3197 654.79743 424.89756 642.53583 398.96875 632.8125 z "
         transform="matrix(0.20997838,0,0,0.20997838,529.79681,-3.3702549)"
         id="path5916" />
      <path
         style="fill:#000000;fill-opacity:1;stroke:#000000;stroke-width:1px;stroke-linecap:butt;stroke-linejoin:miter;stroke-opacity:1"
         d="m 657.39872,20.311641 c 4.28234,4.643556 9.14433,8.3472 13.06265,13.511515 4.45202,4.199471 1.9925,11.240916 7.4599,14.198934 3.43718,0.848107 12.75258,2.520034 15.53434,-0.644536 1.80268,-3.089228 0.49739,-6.78301 -0.6371,-9.86264 -2.81316,-5.434177 -2.10887,-12.333138 -6.83979,-16.61897 -4.32382,-3.441228 -9.92993,-4.452461 -15.17684,-5.658169 -3.71148,-0.950936 -15.10579,-1.564647 -13.40316,5.073866 z"
         id="path5924"
         sodipodi:nodetypes="cccccccc" />
      <path
         id="path5926"
         d="m 620.71428,68.076473 c -3.28645,4.1361 2.27233,8.035918 5.63518,9.764181 3.94834,2.001107 8.14077,3.35108 12.62281,3.035402 13.08869,-3.948145 25.68298,-9.875776 38.41302,-14.975076 18.2005,-3.338861 36.70606,-2.386728 55.11471,-2.824507 5.61094,-2.234432 1.96762,-7.629251 -0.65434,-10.720729 -2.39747,-4.399701 -7.79434,-4.593882 -12.19614,-4.593704 -3.56291,1.67074 -7.26627,3.841583 -11.39517,4.708084 -28.65289,7.646636 -58.34785,10.609224 -87.54007,15.606349 z"
         style="fill:#000000;fill-opacity:1;stroke:#000000;stroke-width:1px;stroke-linecap:butt;stroke-linejoin:miter;stroke-opacity:1"
         sodipodi:nodetypes="ccccccccc" />
      <path
         style="fill:#000000;stroke:#000000;stroke-width:4.76239491000000030px;stroke-linecap:butt;stroke-linejoin:miter;stroke-opacity:1;fill-opacity:1"
         d="M 719 345.0625 C 713.70373 345.04201 708.44032 345.21594 703.40625 345.375 C 679.01607 350.38292 689.25804 373.14508 694.375 389.1875 C 696.23686 459.17684 664.5526 526.68503 635.125 588.875 C 596.26038 692.13915 522.78388 774.1715 451.90625 856.9375 C 440.89655 862.85106 439.56821 881.74774 455.46875 875.84375 C 489.08235 843.90765 528.53316 818.4534 563.5 788.09375 C 630.28349 729.72507 673.83505 650.89038 715.1875 573.4375 C 726.09313 555.21629 734.40663 535.94546 741.15625 516.0625 C 742.05182 516.34818 742.9823 516.63616 744 516.84375 C 763.04463 524.89024 783.19614 531.21077 803.65625 534.03125 C 825.65051 525.56709 849.14574 542.32094 844.59375 566.3125 C 836.25932 622.75364 810.0005 679.81159 783.1875 730.3125 C 758.17545 769.50792 736.04682 842.58275 685.65625 855.28125 C 669.76942 847.25871 657.90289 832.11458 640.5 826.6875 C 629.28232 840.28528 647.59789 865.96801 654.09375 881.125 C 647.83687 899.00446 628.12916 919.51721 655.40625 930.34375 C 683.19663 941.88246 723.68918 925.89769 742.75 903.84375 C 795.13039 850.49383 835.04927 786.47888 860.78125 716.375 C 890.78577 648.53197 906.43146 575.69142 919.125 502.9375 C 917.96231 477.21321 912.30781 455.38682 899.03125 433.8125 L 871.8125 433.8125 C 864.06932 449.27907 857.23852 461.44642 837.53125 458.4375 C 809.7432 461.77764 782.05893 465.8091 754.3125 469.46875 C 761.94986 437.33748 767.55738 404.48373 774.84375 372.5625 C 765.61152 348.80571 741.95051 345.15128 719 345.0625 z "
         transform="matrix(0.20997838,0,0,0.20997838,529.79681,-3.3702549)"
         id="path5928" />
    </g>
  </g>
</svg>
