<?xml version="1.0" encoding="UTF-8" standalone="no"?>
<!-- Created with Inkscape (http://www.inkscape.org/) -->

<svg
   xmlns:dc="http://purl.org/dc/elements/1.1/"
   xmlns:cc="http://creativecommons.org/ns#"
   xmlns:rdf="http://www.w3.org/1999/02/22-rdf-syntax-ns#"
   xmlns:svg="http://www.w3.org/2000/svg"
   xmlns="http://www.w3.org/2000/svg"
   xmlns:sodipodi="http://sodipodi.sourceforge.net/DTD/sodipodi-0.dtd"
   xmlns:inkscape="http://www.inkscape.org/namespaces/inkscape"
   width="1000"
   height="1000"
   id="svg3173"
   version="1.1"
   inkscape:version="0.47 r22583"
   sodipodi:docname="8a95.svg"
   inkscape:export-filename="E:\chinese\yan\8a95.png"
   inkscape:export-xdpi="18.005705"
   inkscape:export-ydpi="18.005705">
  <title
     id="title4229">Dan</title>
  <defs
     id="defs3175">
    <inkscape:perspective
       sodipodi:type="inkscape:persp3d"
       inkscape:vp_x="0 : 526.18109 : 1"
       inkscape:vp_y="0 : 1000 : 0"
       inkscape:vp_z="744.09448 : 526.18109 : 1"
       inkscape:persp3d-origin="372.04724 : 350.78739 : 1"
       id="perspective3181" />
    <inkscape:perspective
       id="perspective3191"
       inkscape:persp3d-origin="0.5 : 0.33333333 : 1"
       inkscape:vp_z="1 : 0.5 : 1"
       inkscape:vp_y="0 : 1000 : 0"
       inkscape:vp_x="0 : 0.5 : 1"
       sodipodi:type="inkscape:persp3d" />
    <inkscape:perspective
       id="perspective4006"
       inkscape:persp3d-origin="0.5 : 0.33333333 : 1"
       inkscape:vp_z="1 : 0.5 : 1"
       inkscape:vp_y="0 : 1000 : 0"
       inkscape:vp_x="0 : 0.5 : 1"
       sodipodi:type="inkscape:persp3d" />
    <inkscape:perspective
       id="perspective4034"
       inkscape:persp3d-origin="0.5 : 0.33333333 : 1"
       inkscape:vp_z="1 : 0.5 : 1"
       inkscape:vp_y="0 : 1000 : 0"
       inkscape:vp_x="0 : 0.5 : 1"
       sodipodi:type="inkscape:persp3d" />
    <inkscape:perspective
       id="perspective4081"
       inkscape:persp3d-origin="0.5 : 0.33333333 : 1"
       inkscape:vp_z="1 : 0.5 : 1"
       inkscape:vp_y="0 : 1000 : 0"
       inkscape:vp_x="0 : 0.5 : 1"
       sodipodi:type="inkscape:persp3d" />
    <inkscape:perspective
       id="perspective4147"
       inkscape:persp3d-origin="0.5 : 0.33333333 : 1"
       inkscape:vp_z="1 : 0.5 : 1"
       inkscape:vp_y="0 : 1000 : 0"
       inkscape:vp_x="0 : 0.5 : 1"
       sodipodi:type="inkscape:persp3d" />
    <inkscape:perspective
       id="perspective3797"
       inkscape:persp3d-origin="0.5 : 0.33333333 : 1"
       inkscape:vp_z="1 : 0.5 : 1"
       inkscape:vp_y="0 : 1000 : 0"
       inkscape:vp_x="0 : 0.5 : 1"
       sodipodi:type="inkscape:persp3d" />
    <inkscape:perspective
       id="perspective3104"
       inkscape:persp3d-origin="0.5 : 0.33333333 : 1"
       inkscape:vp_z="1 : 0.5 : 1"
       inkscape:vp_y="0 : 1000 : 0"
       inkscape:vp_x="0 : 0.5 : 1"
       sodipodi:type="inkscape:persp3d" />
    <inkscape:perspective
       id="perspective3140"
       inkscape:persp3d-origin="0.5 : 0.33333333 : 1"
       inkscape:vp_z="1 : 0.5 : 1"
       inkscape:vp_y="0 : 1000 : 0"
       inkscape:vp_x="0 : 0.5 : 1"
       sodipodi:type="inkscape:persp3d" />
    <inkscape:perspective
       id="perspective3799"
       inkscape:persp3d-origin="0.5 : 0.33333333 : 1"
       inkscape:vp_z="1 : 0.5 : 1"
       inkscape:vp_y="0 : 1000 : 0"
       inkscape:vp_x="0 : 0.5 : 1"
       sodipodi:type="inkscape:persp3d" />
    <inkscape:perspective
       id="perspective3835"
       inkscape:persp3d-origin="0.5 : 0.33333333 : 1"
       inkscape:vp_z="1 : 0.5 : 1"
       inkscape:vp_y="0 : 1000 : 0"
       inkscape:vp_x="0 : 0.5 : 1"
       sodipodi:type="inkscape:persp3d" />
    <inkscape:perspective
       id="perspective3862"
       inkscape:persp3d-origin="0.5 : 0.33333333 : 1"
       inkscape:vp_z="1 : 0.5 : 1"
       inkscape:vp_y="0 : 1000 : 0"
       inkscape:vp_x="0 : 0.5 : 1"
       sodipodi:type="inkscape:persp3d" />
  </defs>
  <sodipodi:namedview
     id="base"
     pagecolor="#ffffff"
     bordercolor="#666666"
     borderopacity="1.0"
     inkscape:pageopacity="0.0"
     inkscape:pageshadow="2"
     inkscape:zoom="0.49497475"
     inkscape:cx="637.59461"
     inkscape:cy="519.65337"
     inkscape:document-units="px"
     inkscape:current-layer="g5879"
     showgrid="false"
     inkscape:window-width="1440"
     inkscape:window-height="840"
     inkscape:window-x="-4"
     inkscape:window-y="-4"
     inkscape:window-maximized="1" />
  <metadata
     id="metadata3178">
    <rdf:RDF>
      <cc:Work
         rdf:about="">
        <dc:format>image/svg+xml</dc:format>
        <dc:type
           rdf:resource="http://purl.org/dc/dcmitype/StillImage" />
        <dc:title>Dan</dc:title>
        <dc:date>2010-08-12</dc:date>
        <dc:creator>
          <cc:Agent>
            <dc:title>Alex Amies</dc:title>
          </cc:Agent>
        </dc:creator>
        <dc:rights>
          <cc:Agent>
            <dc:title>@ Alex Amies 2010</dc:title>
          </cc:Agent>
        </dc:rights>
        <dc:publisher>
          <cc:Agent>
            <dc:title>chinesenotes.com</dc:title>
          </cc:Agent>
        </dc:publisher>
        <dc:source>Yan Qin Ceremonial Inscription</dc:source>
        <dc:language>Chinese 中文</dc:language>
        <dc:description>Tracing from Tang Dynasty Ceremonial Inscription by Yan Zhenqing 颜真卿 (709－785)</dc:description>
        <cc:license
           rdf:resource="http://creativecommons.org/licenses/by/3.0/" />
      </cc:Work>
      <cc:License
         rdf:about="http://creativecommons.org/licenses/by/3.0/">
        <cc:permits
           rdf:resource="http://creativecommons.org/ns#Reproduction" />
        <cc:permits
           rdf:resource="http://creativecommons.org/ns#Distribution" />
        <cc:requires
           rdf:resource="http://creativecommons.org/ns#Notice" />
        <cc:requires
           rdf:resource="http://creativecommons.org/ns#Attribution" />
        <cc:permits
           rdf:resource="http://creativecommons.org/ns#DerivativeWorks" />
      </cc:License>
    </rdf:RDF>
  </metadata>
  <g
     inkscape:label="Layer 1"
     inkscape:groupmode="layer"
     id="layer1"
     transform="translate(0,-52.362183)">
    <path
       style="fill:#000000;stroke:#000000;stroke-width:4.73223686000000040px;stroke-linecap:butt;stroke-linejoin:miter;stroke-opacity:1;fill-opacity:1"
       d="m 369.84328,287.58699 0,0 z"
       id="path5819" />
    <g
       transform="matrix(4.7322369,0,0,4.7322369,-536.04205,-3955.5633)"
       id="g5879"
       style="fill:#000000;fill-opacity:1">
      <g
         transform="matrix(1.0060668,0,0,1.0060668,-391.14348,-3.7772752)"
         id="g4681"
         style="fill:none;fill-opacity:1">
        <path
           id="path4608"
           d="m 549.28571,868.07647 c -1.00035,0.89258 -2.83822,1.77385 -2.85714,2.85714 -0.0263,1.50344 1.53746,3.52584 3.22211,4.62345 2.84483,1.85352 5.87365,3.72002 7.75739,6.69637 1.34878,2.13111 2.44442,5.03676 4.37764,6.18018 3.73074,1.51678 7.45317,-0.11575 10,-2.85714 2.40841,-3.69595 1.28735,-7.83182 -0.71428,-11.42857 -2.95116,-4.12758 -6.88145,-8.97462 -12.14286,-10 -3.78793,-0.24819 -6.6366,2.06263 -9.64286,3.92857 z"
           style="fill:#000000;fill-opacity:1;stroke:#000000;stroke-width:1px;stroke-linecap:butt;stroke-linejoin:miter;stroke-opacity:1"
           sodipodi:nodetypes="csssccccc" />
        <path
           id="path4610"
           d="m 519.64285,915.57647 c -1.1699,0.79343 -1.71702,3.01655 -1.42857,4.28571 0.30679,1.34989 1.76675,3.45616 3.21429,3.57143 4.11414,0.32763 8.94331,-1.75147 13.12922,-3.67963 8.73821,-4.0251 17.48596,-8.29266 26.64552,-11.20894 4.69808,-1.4958 9.71522,-2.13555 14.68957,-1.86689 1.52323,-0.89393 2.65487,-3.05912 3.39283,-4.67311 -0.32357,-1.65645 -1.41069,-3.89853 -2.85714,-5 -2.14867,-1.63621 -5.5957,-0.71139 -8.31983,0.28272 -15.62492,6.92916 -32.84051,10.81993 -48.46589,18.28871 z"
           style="fill:#000000;fill-opacity:1;stroke:#000000;stroke-width:1px;stroke-linecap:butt;stroke-linejoin:miter;stroke-opacity:1"
           sodipodi:nodetypes="cssssccscc" />
        <path
           id="path4612"
           d="m 527.14285,947.36218 c -0.0942,0.98954 1.10042,2.62811 2.14286,2.85715 2.36494,0.51961 5.55831,0.40428 8.07053,-1.15191 7.92307,-4.90794 16.01707,-9.65096 24.33093,-13.9071 2.2464,-1.15001 5.14867,-1.60171 6.88426,-3.15528 1.03535,-0.92676 2.01714,-3.23575 1.42857,-4.28571 -0.91806,-1.63775 -3.66111,-3.52287 -6.26538,-3.34031 -10.27464,3.44932 -23.88899,11.74908 -33.73462,18.34033 -1.46965,1.02889 -2.7133,3.13238 -2.85715,4.64283 z"
           style="fill:#000000;fill-opacity:1;stroke:#000000;stroke-width:1px;stroke-linecap:butt;stroke-linejoin:miter;stroke-opacity:1"
           sodipodi:nodetypes="csssssccs" />
        <path
           id="path4614"
           d="m 522.5,975.93361 c -2.14431,1.60503 -3.73224,3.84254 -2.5,6.42857 1.05563,0.98023 3.18486,2.4839 4.64285,1.78572 14.44366,-6.91659 27.62673,-15.00561 41.82007,-21.65315 2.01213,-0.94239 4.79071,-0.7198 6.39422,-1.91828 1.00409,-0.75047 1.95422,-2.82855 1.42857,-3.92857 -1.20954,-2.5312 -5.26638,-5.86606 -7.85714,-5.35715 -3.66268,0.71947 -7.36306,5.05658 -11.32493,7.1335 -10.92417,5.72675 -22.08353,11.25534 -32.60364,17.50936 z"
           style="fill:#000000;fill-opacity:1;stroke:#000000;stroke-width:1px;stroke-linecap:butt;stroke-linejoin:miter;stroke-opacity:1"
           sodipodi:nodetypes="ccssssssc" />
        <path
           style="fill:#000000;stroke:#000000;stroke-width:4.76094626999999980px;stroke-linecap:butt;stroke-linejoin:miter;stroke-opacity:1;fill-opacity:1"
           d="M 312.46875 635.09375 C 310.94233 635.1024 309.45012 635.34952 308 635.875 C 272.76543 648.64291 235.82414 672.15821 204.28125 693.6875 C 200.11704 696.52974 199.20838 704.71439 200.875 709 C 203.17587 714.91643 209.86911 723.03874 216.1875 724.28125 C 225.96872 726.20472 238.73746 722.06357 248.78125 716.375 C 264.20629 707.63862 279.92905 694.5947 296.09375 691.96875 C 306.59706 690.26252 303.81734 708.64182 302.96875 717.40625 C 300.53989 742.49123 298.29881 767.65285 295.59375 792.6875 C 258.92598 806.66407 222.63348 822.54401 188.75 840.4375 C 186.69362 803.68118 182.91791 766.84518 175.375 731.09375 C 166.45979 717.46706 144.50877 714.51846 129.46875 717.5 C 124.42129 719.65414 118.57511 725.72107 117.5625 731.09375 C 126.90862 783.90074 139.9003 836.38207 150.125 889.25 C 151.48492 896.56139 149.79748 906.21781 153.28125 911.3125 C 155.51728 914.58279 162.73574 915.09365 167.28125 914.59375 C 182.5098 913.9177 187.27271 903.91444 190.6875 890.5 C 190.54395 884.9945 190.37196 879.46761 190.1875 873.9375 C 200.0084 875.21077 210.76164 873.04224 220.0625 870.34375 C 262.06957 855.6867 303.70327 838.57325 344.59375 820.71875 C 357.28743 815.17606 370.5775 809.14797 381.125 800.8125 C 386.15237 796.83949 391.3125 789.61086 391.3125 783.8125 C 391.3125 777.14146 386.90726 764.73408 381.125 763.40625 C 367.69271 767.52881 354.07894 771.8894 340.40625 776.53125 C 342.39277 770.30611 344.61488 764.17355 347.15625 758.1875 C 354.60751 740.63627 368.44833 724.67722 372.5625 706.78125 C 375.24001 695.13464 374.86499 679.65241 369.21875 669.875 C 363.15011 659.36616 349.84833 650.7711 337.84375 645.28125 C 329.8914 641.64454 320.71142 635.04706 312.46875 635.09375 z "
           transform="matrix(0.21004227,0,0,0.21004227,501.37629,845.58827)"
           id="path4616" />
        <path
           style="fill:#000000;stroke:#000000;stroke-width:4.76094626999999980px;stroke-linecap:butt;stroke-linejoin:miter;stroke-opacity:1;fill-opacity:1"
           d="M 485.46875 241.0625 C 466.74154 241.26733 445.92152 247.21515 430.0625 256.65625 C 416.18682 264.91663 423.54266 283.36278 436.5 291.25 C 446.17177 297.13729 476.4954 290.18466 472.84375 302.3125 C 457.52502 353.18869 436.91686 403.00661 418.40625 453.125 C 413.12089 467.43545 425.42295 467.22176 433.96875 473.125 C 449.55723 483.89312 471.37858 498.89052 474.65625 521.53125 C 476.89894 537.02256 472.23153 552.05463 467.09375 566.84375 C 462.36912 580.4437 456.95243 594.20831 451.59375 608.03125 C 446.71389 603.38793 441.92918 598.66379 437.21875 593.875 C 426.34556 578.97628 419.80653 560.20786 406.6875 547.3125 C 402.69587 545.09499 398.71038 542.8738 394.71875 540.65625 C 370.29157 540.77813 379.85636 570.57243 392.84375 580.34375 C 405.54501 606.53709 419.6532 630.60231 435.5 652.6875 C 430.49156 668.74798 426.69662 684.73182 425.34375 700.46875 C 423.75117 718.99383 446.55027 689.30799 454.34375 682.21875 C 455.17574 681.46193 455.96907 680.66673 456.71875 679.84375 C 492.22266 721.55023 535.48728 755.15803 589.15625 781.71875 C 646.5507 807.41548 703.78846 833.8232 762.78125 855.625 C 790.7252 867.22743 817.6591 846.33414 843.15625 837.03125 C 868.89435 826.2796 894.47169 815.17464 920.125 804.21875 C 918.77713 781.28622 892.93591 773.41193 873.4375 773.84375 C 837.51483 770.46015 800.60717 772.17824 766.15625 759.875 C 671.88208 739.42578 583.36849 705.35582 503.5 650.75 C 495.05172 644.91964 486.86114 638.71516 478.90625 632.21875 C 489.48312 609.76884 498.21766 586.53673 504.25 562.375 C 508.84069 543.98756 518.45401 525.17772 516.625 506.75 C 514.63754 486.72608 489.37653 481.76216 474.34375 470.90625 C 462.91762 462.65486 433.66469 462.21917 447.34375 442 C 477.88546 396.85604 494.94996 343.11288 520.34375 294.65625 C 526.1531 283.57081 532.12263 268.89436 527.40625 260.09375 C 522.25372 250.47921 505.62233 242.35469 493.34375 241.34375 C 490.77511 241.13226 488.14407 241.03324 485.46875 241.0625 z "
           transform="matrix(0.21004227,0,0,0.21004227,501.37629,845.58827)"
           id="path4622" />
        <path
           id="path4629"
           d="m 626.42857,904.86218 c -0.87625,0.97227 -1.01191,2.88691 -0.71429,3.92857 0.17857,0.625 1.44151,1.38543 2.14286,1.07143 10.83892,-5.88548 22.46642,-10.38912 33.21429,-16.42857 1.56492,-0.9514 3.16147,-2.39437 3.92857,-3.92857 0.54242,-1.08484 0.5928,-2.87942 0,-3.92857 -2.72541,-4.6227 -8.02603,-6.76795 -13.21429,-5.71429 -8.81717,7.52689 -17.54291,16.32942 -25.35714,25 z"
           style="fill:#000000;fill-opacity:1;stroke:#000000;stroke-width:1px;stroke-linecap:butt;stroke-linejoin:miter;stroke-opacity:1"
           sodipodi:nodetypes="csccsccs" />
        <path
           style="fill:#000000;stroke:#000000;stroke-width:4.76094626999999980px;stroke-linecap:butt;stroke-linejoin:miter;stroke-opacity:1;fill-opacity:1"
           d="M 703.6875 300.75 C 696.63335 300.70139 687.93862 300.90625 692.28125 300.90625 C 699.67114 300.90625 674.47914 306.22111 673.59375 312.8125 C 670.56584 335.35434 678.98577 363.08508 678.6875 388.4375 C 678.13033 435.79344 676.83002 483.33762 678.9375 530.5625 C 679.46071 542.28702 679.35903 555.37726 682.375 566.40625 C 656.1903 570.89106 629.95934 575.16542 604.46875 580.53125 C 604.95014 542.71884 601.84304 503.28061 602.15625 464.875 C 600.64522 448.96416 600.52271 431.86264 597.0625 416.53125 C 593.1998 412.87089 585.55544 408.70157 580.0625 409.71875 C 560.72939 414.21651 543.19621 426.77479 540.96875 447.5 C 540.95447 458.62895 539.24407 470.10078 541.40625 480.9375 C 552.4317 510.90828 553.79312 542.79526 560.4375 573.71875 C 561.06885 580.18584 562.3675 585.67394 564.46875 590.28125 C 562.86383 590.73726 561.25079 591.18392 559.65625 591.65625 C 551.63872 594.03115 545.48823 606.88997 546.0625 613.78125 C 546.62177 620.49266 555.52783 630.62231 563.0625 632.46875 C 578.90893 636.35211 598.63753 633.43568 616.0625 628.84375 C 645.51776 621.08146 675.09643 612.63145 705.21875 608.40625 C 737.32691 603.90249 769.90157 601.44556 802.34375 600.15625 C 811.56132 599.79013 822.17753 602.96511 830 600.15625 C 834.80513 598.43088 840.66223 591.6112 840.21875 586.5625 C 839.18248 574.76606 833.97913 559.76649 826.53125 549.0625 C 822.92045 543.87307 818.69457 537.38566 813 535.5625 C 802.85438 532.3143 789.43966 531.0635 779 533.84375 C 768.6418 536.60229 761.90744 550.50992 751.03125 553.0625 C 742.95225 554.95859 734.77024 556.69538 726.5625 558.34375 C 728.96637 518.5051 729.72808 478.41534 729.84375 438.3125 C 734.96372 439.91535 740.32631 440.73871 745 440.34375 C 774.20764 437.87548 804.52206 427.1062 833.40625 418.21875 C 841.36274 415.77062 853.19805 412.14552 855.53125 406.3125 C 855.87975 387.36531 844.78549 380.31998 827.53125 381.21875 C 797.37699 385.79369 767.40601 392.10286 737.21875 396.125 C 734.56731 395.84021 732.09807 395.64623 729.78125 395.6875 C 729.67603 375.49096 729.52309 355.29073 729.40625 335.15625 C 729.3296 327.68975 731.39384 318.46989 728 312.8125 C 724.7308 307.36288 717.01777 301.3473 709.65625 300.90625 C 708.21334 300.81984 706.03888 300.7662 703.6875 300.75 z "
           transform="matrix(0.21004227,0,0,0.21004227,501.37629,845.58827)"
           id="path4631" />
      </g>
    </g>
    <path
       style="fill:#000000;stroke:#000000;stroke-width:4.73223686000000040px;stroke-linecap:butt;stroke-linejoin:miter;stroke-opacity:1;fill-opacity:1"
       d="m 594.62455,556.31042 0,0 z"
       id="path5837" />
  </g>
</svg>
