<?xml version="1.0" encoding="UTF-8" standalone="no"?>
<!-- Created with Inkscape (http://www.inkscape.org/) -->

<svg
   xmlns:dc="http://purl.org/dc/elements/1.1/"
   xmlns:cc="http://creativecommons.org/ns#"
   xmlns:rdf="http://www.w3.org/1999/02/22-rdf-syntax-ns#"
   xmlns:svg="http://www.w3.org/2000/svg"
   xmlns="http://www.w3.org/2000/svg"
   xmlns:sodipodi="http://sodipodi.sourceforge.net/DTD/sodipodi-0.dtd"
   xmlns:inkscape="http://www.inkscape.org/namespaces/inkscape"
   width="1000"
   height="1000"
   id="svg3173"
   version="1.1"
   inkscape:version="0.47 r22583"
   sodipodi:docname="8b00.svg"
   inkscape:export-filename="E:\chinese\yan\8b00.png"
   inkscape:export-xdpi="18.005705"
   inkscape:export-ydpi="18.005705">
  <title
     id="title3647">Mo</title>
  <defs
     id="defs3175">
    <inkscape:perspective
       sodipodi:type="inkscape:persp3d"
       inkscape:vp_x="0 : 526.18109 : 1"
       inkscape:vp_y="0 : 1000 : 0"
       inkscape:vp_z="744.09448 : 526.18109 : 1"
       inkscape:persp3d-origin="372.04724 : 350.78739 : 1"
       id="perspective3181" />
    <inkscape:perspective
       id="perspective3191"
       inkscape:persp3d-origin="0.5 : 0.33333333 : 1"
       inkscape:vp_z="1 : 0.5 : 1"
       inkscape:vp_y="0 : 1000 : 0"
       inkscape:vp_x="0 : 0.5 : 1"
       sodipodi:type="inkscape:persp3d" />
    <inkscape:perspective
       id="perspective4006"
       inkscape:persp3d-origin="0.5 : 0.33333333 : 1"
       inkscape:vp_z="1 : 0.5 : 1"
       inkscape:vp_y="0 : 1000 : 0"
       inkscape:vp_x="0 : 0.5 : 1"
       sodipodi:type="inkscape:persp3d" />
    <inkscape:perspective
       id="perspective4034"
       inkscape:persp3d-origin="0.5 : 0.33333333 : 1"
       inkscape:vp_z="1 : 0.5 : 1"
       inkscape:vp_y="0 : 1000 : 0"
       inkscape:vp_x="0 : 0.5 : 1"
       sodipodi:type="inkscape:persp3d" />
    <inkscape:perspective
       id="perspective4081"
       inkscape:persp3d-origin="0.5 : 0.33333333 : 1"
       inkscape:vp_z="1 : 0.5 : 1"
       inkscape:vp_y="0 : 1000 : 0"
       inkscape:vp_x="0 : 0.5 : 1"
       sodipodi:type="inkscape:persp3d" />
    <inkscape:perspective
       id="perspective4147"
       inkscape:persp3d-origin="0.5 : 0.33333333 : 1"
       inkscape:vp_z="1 : 0.5 : 1"
       inkscape:vp_y="0 : 1000 : 0"
       inkscape:vp_x="0 : 0.5 : 1"
       sodipodi:type="inkscape:persp3d" />
    <inkscape:perspective
       id="perspective3858"
       inkscape:persp3d-origin="0.5 : 0.33333333 : 1"
       inkscape:vp_z="1 : 0.5 : 1"
       inkscape:vp_y="0 : 1000 : 0"
       inkscape:vp_x="0 : 0.5 : 1"
       sodipodi:type="inkscape:persp3d" />
    <inkscape:perspective
       id="perspective3876"
       inkscape:persp3d-origin="0.5 : 0.33333333 : 1"
       inkscape:vp_z="1 : 0.5 : 1"
       inkscape:vp_y="0 : 1000 : 0"
       inkscape:vp_x="0 : 0.5 : 1"
       sodipodi:type="inkscape:persp3d" />
    <inkscape:perspective
       id="perspective3901"
       inkscape:persp3d-origin="0.5 : 0.33333333 : 1"
       inkscape:vp_z="1 : 0.5 : 1"
       inkscape:vp_y="0 : 1000 : 0"
       inkscape:vp_x="0 : 0.5 : 1"
       sodipodi:type="inkscape:persp3d" />
    <inkscape:perspective
       id="perspective4392"
       inkscape:persp3d-origin="0.5 : 0.33333333 : 1"
       inkscape:vp_z="1 : 0.5 : 1"
       inkscape:vp_y="0 : 1000 : 0"
       inkscape:vp_x="0 : 0.5 : 1"
       sodipodi:type="inkscape:persp3d" />
    <inkscape:perspective
       id="perspective3806"
       inkscape:persp3d-origin="0.5 : 0.33333333 : 1"
       inkscape:vp_z="1 : 0.5 : 1"
       inkscape:vp_y="0 : 1000 : 0"
       inkscape:vp_x="0 : 0.5 : 1"
       sodipodi:type="inkscape:persp3d" />
    <inkscape:perspective
       id="perspective3763"
       inkscape:persp3d-origin="0.5 : 0.33333333 : 1"
       inkscape:vp_z="1 : 0.5 : 1"
       inkscape:vp_y="0 : 1000 : 0"
       inkscape:vp_x="0 : 0.5 : 1"
       sodipodi:type="inkscape:persp3d" />
    <inkscape:perspective
       id="perspective3790"
       inkscape:persp3d-origin="0.5 : 0.33333333 : 1"
       inkscape:vp_z="1 : 0.5 : 1"
       inkscape:vp_y="0 : 1000 : 0"
       inkscape:vp_x="0 : 0.5 : 1"
       sodipodi:type="inkscape:persp3d" />
  </defs>
  <sodipodi:namedview
     id="base"
     pagecolor="#ffffff"
     bordercolor="#666666"
     borderopacity="1.0"
     inkscape:pageopacity="0.0"
     inkscape:pageshadow="2"
     inkscape:zoom="0.49497475"
     inkscape:cx="413.61348"
     inkscape:cy="540.34663"
     inkscape:document-units="px"
     inkscape:current-layer="g4371"
     showgrid="false"
     inkscape:window-width="1440"
     inkscape:window-height="840"
     inkscape:window-x="-4"
     inkscape:window-y="-4"
     inkscape:window-maximized="1" />
  <metadata
     id="metadata3178">
    <rdf:RDF>
      <cc:Work
         rdf:about="">
        <dc:format>image/svg+xml</dc:format>
        <dc:type
           rdf:resource="http://purl.org/dc/dcmitype/StillImage" />
        <dc:title>Mo</dc:title>
        <dc:date>2010-08-11</dc:date>
        <dc:creator>
          <cc:Agent>
            <dc:title>Alex Amies</dc:title>
          </cc:Agent>
        </dc:creator>
        <dc:rights>
          <cc:Agent>
            <dc:title>@ Alex Amies 2010</dc:title>
          </cc:Agent>
        </dc:rights>
        <dc:publisher>
          <cc:Agent>
            <dc:title>chinesenotes.com</dc:title>
          </cc:Agent>
        </dc:publisher>
        <dc:source>Yan Qin Ceremonial Inscription</dc:source>
        <dc:language>Chinese 中文</dc:language>
        <dc:description>Tracing from Tang Dynasty Ceremonial Inscription by Yan Zhenqing 颜真卿 (709－785)</dc:description>
        <cc:license
           rdf:resource="http://creativecommons.org/licenses/by/3.0/" />
      </cc:Work>
      <cc:License
         rdf:about="http://creativecommons.org/licenses/by/3.0/">
        <cc:permits
           rdf:resource="http://creativecommons.org/ns#Reproduction" />
        <cc:permits
           rdf:resource="http://creativecommons.org/ns#Distribution" />
        <cc:requires
           rdf:resource="http://creativecommons.org/ns#Notice" />
        <cc:requires
           rdf:resource="http://creativecommons.org/ns#Attribution" />
        <cc:permits
           rdf:resource="http://creativecommons.org/ns#DerivativeWorks" />
      </cc:License>
    </rdf:RDF>
  </metadata>
  <g
     inkscape:label="Layer 1"
     inkscape:groupmode="layer"
     id="layer1"
     transform="translate(0,-52.362183)">
    <g
       transform="matrix(4.7488612,0,0,4.7488612,-1416.4781,-3986.1517)"
       id="g4371"
       style="fill:#000000;fill-opacity:1">
      <g
         transform="matrix(0.9964993,0,0,0.9964993,209.77239,219.94193)"
         id="g7636"
         style="fill:none;fill-opacity:1">
        <path
           id="path7554"
           d="m 147.5,645.21933 c -0.67957,0.53399 -0.76903,2.27017 -0.35714,3.21428 4.48037,6.3033 6.4167,13.92493 10.45454,20.45011 3.50639,5.83861 13.1401,12.08009 19.04012,5.62578 -0.80566,-3.85506 -0.18005,-8.23249 -1.63752,-11.7902 -4.06967,-9.71147 -13.62224,-14.42131 -22.85714,-18.21429 -1.41059,-0.54443 -3.65582,-0.0613 -4.64286,0.71432 z"
           style="fill:#000000;fill-opacity:1;stroke:#000000;stroke-width:1px;stroke-linecap:butt;stroke-linejoin:miter;stroke-opacity:1"
           sodipodi:nodetypes="ccccccs" />
        <path
           id="path7556"
           d="m 101.78571,699.50504 c -0.95018,1.69039 -2.376734,4.10368 -2.142853,6.07143 0.310619,2.61337 2.565323,5.06894 5.235613,6.42101 1.55791,0.78883 2.76324,3.08585 4.40724,2.8647 7.29947,-0.98195 14.79551,-4.7149 21.91668,-7.89009 13.62899,-6.07691 27.07986,-13.13424 41.40657,-17.10991 2.51765,-0.69865 5.66592,0.77635 7.94593,-0.19775 2.9035,-1.24048 2.43437,-3.94803 1.52797,-7.02136 -0.76058,-2.57891 -2.19651,-6.28199 -4.22572,-5.99517 -19.16487,8.15205 -39.08891,14.81096 -59.09062,20.87903 -5.09031,1.45342 -10.37734,2.32117 -15.71085,1.97811 -0.42238,-0.0272 -1.08254,-0.33342 -1.26996,0 z"
           style="fill:#000000;fill-opacity:1;stroke:#000000;stroke-width:1px;stroke-linecap:butt;stroke-linejoin:miter;stroke-opacity:1"
           sodipodi:nodetypes="csssssssccss" />
        <path
           id="path7558"
           d="m 130.71429,727.36218 c -1.83505,2.18003 -1.19713,5.88769 0.69676,7.87161 1.61505,0.66839 3.04539,2.89988 4.66038,2.48554 12.62843,-5.44837 26.99124,-9.48851 38.57143,-17.14286 1.06939,-0.85906 0.5224,-3.62319 -0.35715,-4.64286 -1.26488,-1.46639 -3.72643,-2.77644 -6.08754,-2.85742 -6.7768,1.35527 -12.52262,5.89282 -19.04987,8.2421 -6.18541,1.87698 -13.26219,3.09972 -18.43401,6.04389 z"
           style="fill:#000000;fill-opacity:1;stroke:#000000;stroke-width:1px;stroke-linecap:butt;stroke-linejoin:miter;stroke-opacity:1"
           sodipodi:nodetypes="ccccsccc" />
        <path
           id="path7560"
           d="m 123.21429,757.00504 c -0.73735,0.95764 -2.03257,2.25714 -1.29989,3.80424 1.20853,2.55187 2.86887,5.52903 5.22846,6.19576 2.82084,0.79705 6.67982,0.22608 9.65624,-1.42778 4.10649,-2.28179 8.36389,-4.32744 12.93996,-5.57802 9.90033,-2.70564 20.20005,-5.04126 29.54665,-8.70849 1.69276,-0.66417 3.75582,-2.72394 3.57143,-4.28571 -0.35719,-3.02542 -4.50091,-7.80432 -8.60882,-6.08063 -2.9495,1.23762 -4.89436,4.34836 -8.09194,5.377 -9.86971,3.17503 -19.42047,7.80145 -29.37067,10.34649 -4.45246,1.06744 -9.27984,-1.27476 -13.57142,0.35714 z"
           style="fill:#000000;fill-opacity:1;stroke:#000000;stroke-width:1px;stroke-linecap:butt;stroke-linejoin:miter;stroke-opacity:1"
           sodipodi:nodetypes="csssssssscc" />
        <path
           style="fill:#000000;stroke:#000000;stroke-width:4.73223686000000040px;stroke-linecap:butt;stroke-linejoin:miter;stroke-opacity:1;fill-opacity:1"
           d="M 414.78125 646.90625 C 411.81948 646.89567 408.90753 647.09348 406.15625 647.4375 C 398.91645 659.40055 389.0148 674.62669 373.1875 679.40625 C 339.10849 689.69749 304.37566 701.86937 272.625 716.71875 C 266.9201 719.38683 259.74434 726.67341 260.8125 731.9375 C 262.97811 742.61007 278.27201 761.25918 291.90625 758.84375 C 304.58566 756.5975 316.49735 749.27035 326.625 740.84375 C 340.21679 729.53484 354.47139 717.78528 371.09375 711.875 C 383.29142 707.53795 385.05277 726.71799 383.71875 735.46875 C 381.23546 763.22318 376.82417 791.41237 376.875 819.4375 C 369.06943 819.10931 361.27339 818.37412 353.65625 821.46875 C 326.17725 827.8197 301.67084 839.62168 278.4375 854.5625 C 276.87848 844.94773 273.74809 835.46112 270.65625 827.3125 C 247.84654 788.24784 249.61867 720.65598 210.09375 693.0625 C 205.41679 691.3394 197.97406 695.16462 193.1875 698.15625 C 188.96048 700.79821 183.93389 705.17386 183.0625 709.96875 C 186.25648 767.41469 218.24595 826.94229 244.5 878.59375 C 241.77704 880.80941 239.26779 883.1601 237.15625 885.75 C 233.2478 897.46834 229.52684 910.67012 230.375 922.9375 C 235.19298 932.29749 251.22181 929.62826 262.4375 930.90625 C 273.44189 932.1602 282.78349 926.31954 292.59375 922.6875 C 327.47228 898.1075 376.34191 895.61021 417.96875 880.65625 C 419.78335 878.50989 420.75654 876.08391 421.09375 873.4375 C 424.80603 871.09178 428.26403 868.32118 431.3125 865.53125 C 442.51621 855.27772 450.56109 841.09469 454.53125 826.75 C 462.21782 784.62249 484.38414 736.62255 473.75 693.0625 C 468.10861 677.93818 453.98535 664.97614 440.3125 654.34375 C 433.0474 648.84806 423.66657 646.93798 414.78125 646.90625 z "
           transform="matrix(0.21131656,0,0,0.21131656,88.815955,632.69026)"
           id="path7562" />
        <path
           style="fill:#000000;stroke:#000000;stroke-width:4.73223686000000040px;stroke-linecap:butt;stroke-linejoin:miter;stroke-opacity:1;fill-opacity:1"
           d="M 718.8125 55.90625 C 698.2771 72.608633 721.57305 95.063916 720.78125 114.1875 C 721.15403 131.70843 721.53347 149.22907 721.90625 166.75 C 684.83246 170.89532 647.55538 174.84396 613.375 188.125 C 608.29648 190.54643 603.16691 192.85514 598 195.09375 C 592.16434 171.68953 581.37347 149.31876 565.15625 131.75 C 547.79788 115.60143 528.39753 123.44284 509.25 130.28125 C 502.65984 158.96906 541.11703 170.05182 547.09375 196.59375 C 547.82525 202.42803 548.48975 208.28153 549.09375 214.125 C 544.32348 215.84048 539.55608 217.52822 534.78125 219.21875 C 525.36135 222.55389 516.19309 226.63927 505.8125 222.125 C 495.8395 217.788 482.23168 212.47984 473.75 218.15625 C 454.20037 231.23989 480.28889 258.77863 500.65625 260.125 C 518.15741 257.82768 535.18049 253.31977 551.96875 247.8125 C 558.52211 343.97686 552.52579 441.04796 565.59375 536.65625 C 566.71225 542.27342 566.50721 548.72433 568 554.09375 C 546.61803 560.05769 525.21334 565.95524 503.875 571.875 C 477.64738 580.64402 452.30249 591.99675 426.4375 601.8125 C 422.84824 622.4353 449.45485 628.50959 464.84375 630.1875 C 484.41505 643.29939 504.85301 630.70707 512.96875 611.25 C 519.70201 592.38697 543.97304 595.83516 559.8125 588.9375 C 639.93438 569.2486 720.10454 549.59897 800.40625 530.65625 C 835.85482 526.4182 871.54066 527.63673 907.125 527.1875 C 928.40686 529.3384 927.06953 504.00739 915.1875 493.46875 C 899.81909 474.699 879.99361 456.23711 855.625 450.8125 C 830.74777 439.38263 821.42752 466.56535 804.96875 477.8125 C 793.17115 482.49116 781.29919 487.00866 769.375 491.375 C 774.26335 395.48303 780.31565 299.59728 787.0625 203.78125 C 791.96376 203.37424 796.85142 202.89001 801.71875 202.28125 C 808.84701 201.3897 817.54918 199.88443 821.90625 194.5 C 836.28657 176.72884 815.93364 152.77556 793.84375 155.59375 C 792.71973 155.86451 791.59748 156.11698 790.46875 156.375 C 791.80929 137.94704 793.17811 119.51579 794.5625 101.09375 C 790.41782 78.076812 774.80486 49.191586 746.8125 57.625 C 737.45753 57.575312 728.08191 57.254748 718.8125 55.90625 z M 722.75 206.28125 C 724.82402 303.76068 726.89471 401.23932 728.96875 498.71875 C 728.72606 501.02861 728.82919 503.31172 729.1875 505.53125 C 689.29046 519.01002 648.86508 531.14835 608.3125 542.75 C 610.47239 491.94404 603.65072 441.10484 602.375 390.3125 C 601.98007 372.58366 600.469 354.82306 599.3125 337.0625 C 600.7864 340.50568 605.35197 344.2468 608.96875 344.90625 C 623.47112 347.55053 641.1609 346.75819 655.25 339.03125 C 663.63974 334.43005 678.01375 330.67845 680.1875 321.40625 C 681.60783 315.34776 683.74022 307.88343 681.625 302.65625 C 674.46077 289.32985 662.0142 285.6287 647.84375 287.4375 C 634.00759 292.52636 620.89473 303.30428 610.65625 314.5 C 605.87068 319.73297 600.24264 327.11218 599.0625 333.15625 C 597.93983 314.94776 597.29821 296.75129 598.78125 278.625 C 599.93817 262.07684 604.3987 245.20214 604.53125 228.65625 C 621.01036 222.5454 637.57829 216.7425 654.53125 212.5 C 676.9515 208.11998 699.82245 206.93136 722.75 206.28125 z M 682.375 409.34375 C 675.89072 409.33769 669.21132 411.54947 663.03125 414.21875 C 649.27185 423.20479 636.55421 435.2624 624.1875 446.3125 C 620.84753 449.29689 616.23947 454.88935 617.40625 458.15625 C 619.05629 462.77638 626.77118 468.63118 632.625 469.96875 C 651.53 473.26603 671.55436 466.67465 685.03125 453.09375 C 690.92246 445.8522 693.44875 434.88045 695.46875 425.1875 C 696.22032 421.58106 698.64257 416.46287 696.84375 414.21875 C 692.35245 410.69312 687.41833 409.34847 682.375 409.34375 z M 704.375 556.03125 C 693.90487 555.99382 680.70048 558.02442 674.875 564.625 C 666.25192 574.39541 669.49258 594.06877 672.6875 609.03125 C 678.2598 635.12755 678.76695 662.00119 679.03125 688.6875 C 679.47561 733.53259 683.87395 779.49624 681.625 823.21875 C 681.36473 828.28201 676.13376 834.50223 671.5 835.03125 C 659.76647 836.3708 646.61465 824.30456 636.78125 818.5 C 632.14508 815.7633 633.1318 840.80529 636.1875 848.5 C 644.07647 868.3655 660.27092 885.31551 666.6875 905.875 C 668.37715 911.28892 664.50437 919.3861 668.125 922.9375 C 675.76747 930.43393 689.21398 936.22816 702.1875 934.75 C 735.02724 940.86727 746.74771 911.58885 754.78125 883.3125 C 758.42214 867.03801 751.27037 850.03002 750.6875 833.21875 C 748.10365 758.69317 748.39653 683.68157 741.84375 609.625 C 739.83269 586.37533 735.09499 560.4335 708.6875 556.1875 C 707.33342 556.10544 705.87073 556.0366 704.375 556.03125 z "
           transform="matrix(0.21131656,0,0,0.21131656,88.815955,632.69026)"
           id="path7568" />
        <path
           id="path7580"
           d="m 208.92857,765.21933 c -1.60124,-0.16027 -3.55808,2.20601 -4.28571,3.92857 -1.73114,6.80983 -7.50864,28.49227 1.7234,32.51827 3.50113,0.20588 5.92755,-2.22617 8.24162,-4.53276 2.10352,-3.5228 3.12529,-8.438 3.11277,-12.55733 -0.41724,-3.74971 -1.00761,-7.6542 -2.36355,-11.14247 -1.23883,-3.18697 -3.42089,-7.91323 -6.42853,-8.21428 z"
           style="fill:#000000;fill-opacity:1;stroke:#000000;stroke-width:1px;stroke-linecap:butt;stroke-linejoin:miter;stroke-opacity:1"
           sodipodi:nodetypes="cccccss" />
        <path
           id="path7584"
           d="m 258.57143,760.57647 c -1.1078,0.28641 -3.42127,1.51091 -2.85714,2.5 4.29986,7.53896 8.87591,16.9659 13.49356,25.3468 1.7877,2.53677 2.29138,6.38174 5.20648,7.81779 2.5379,1.98063 5.68362,1.14295 7.72843,-1.08236 2.62279,-1.25645 1.52785,-4.75065 2.1081,-7.08272 0.31737,-4.83396 -0.41252,-9.9093 -2.89679,-14.12535 -4.70954,-5.86089 -12.15395,-9.05987 -18.63973,-12.68372 -1.38097,-0.23013 -2.91735,-1.00729 -4.14291,-0.69044 z"
           style="fill:#000000;fill-opacity:1;stroke:#000000;stroke-width:1px;stroke-linecap:butt;stroke-linejoin:miter;stroke-opacity:1"
           sodipodi:nodetypes="csccccccs" />
      </g>
    </g>
  </g>
</svg>
