<?xml version="1.0" encoding="UTF-8" standalone="no"?>
<!-- Created with Inkscape (http://www.inkscape.org/) -->

<svg
   xmlns:dc="http://purl.org/dc/elements/1.1/"
   xmlns:cc="http://creativecommons.org/ns#"
   xmlns:rdf="http://www.w3.org/1999/02/22-rdf-syntax-ns#"
   xmlns:svg="http://www.w3.org/2000/svg"
   xmlns="http://www.w3.org/2000/svg"
   xmlns:sodipodi="http://sodipodi.sourceforge.net/DTD/sodipodi-0.dtd"
   xmlns:inkscape="http://www.inkscape.org/namespaces/inkscape"
   width="1000"
   height="1000"
   id="svg3173"
   version="1.1"
   inkscape:version="0.47 r22583"
   sodipodi:docname="8c46.svg"
   inkscape:export-filename="E:\chinese\yan\8c46.png"
   inkscape:export-xdpi="18.005705"
   inkscape:export-ydpi="18.005705">
  <title
     id="title4401">Dou</title>
  <defs
     id="defs3175">
    <inkscape:perspective
       sodipodi:type="inkscape:persp3d"
       inkscape:vp_x="0 : 526.18109 : 1"
       inkscape:vp_y="0 : 1000 : 0"
       inkscape:vp_z="744.09448 : 526.18109 : 1"
       inkscape:persp3d-origin="372.04724 : 350.78739 : 1"
       id="perspective3181" />
    <inkscape:perspective
       id="perspective3191"
       inkscape:persp3d-origin="0.5 : 0.33333333 : 1"
       inkscape:vp_z="1 : 0.5 : 1"
       inkscape:vp_y="0 : 1000 : 0"
       inkscape:vp_x="0 : 0.5 : 1"
       sodipodi:type="inkscape:persp3d" />
    <inkscape:perspective
       id="perspective4006"
       inkscape:persp3d-origin="0.5 : 0.33333333 : 1"
       inkscape:vp_z="1 : 0.5 : 1"
       inkscape:vp_y="0 : 1000 : 0"
       inkscape:vp_x="0 : 0.5 : 1"
       sodipodi:type="inkscape:persp3d" />
    <inkscape:perspective
       id="perspective4034"
       inkscape:persp3d-origin="0.5 : 0.33333333 : 1"
       inkscape:vp_z="1 : 0.5 : 1"
       inkscape:vp_y="0 : 1000 : 0"
       inkscape:vp_x="0 : 0.5 : 1"
       sodipodi:type="inkscape:persp3d" />
    <inkscape:perspective
       id="perspective4081"
       inkscape:persp3d-origin="0.5 : 0.33333333 : 1"
       inkscape:vp_z="1 : 0.5 : 1"
       inkscape:vp_y="0 : 1000 : 0"
       inkscape:vp_x="0 : 0.5 : 1"
       sodipodi:type="inkscape:persp3d" />
    <inkscape:perspective
       id="perspective4147"
       inkscape:persp3d-origin="0.5 : 0.33333333 : 1"
       inkscape:vp_z="1 : 0.5 : 1"
       inkscape:vp_y="0 : 1000 : 0"
       inkscape:vp_x="0 : 0.5 : 1"
       sodipodi:type="inkscape:persp3d" />
    <inkscape:perspective
       id="perspective3801"
       inkscape:persp3d-origin="0.5 : 0.33333333 : 1"
       inkscape:vp_z="1 : 0.5 : 1"
       inkscape:vp_y="0 : 1000 : 0"
       inkscape:vp_x="0 : 0.5 : 1"
       sodipodi:type="inkscape:persp3d" />
    <inkscape:perspective
       id="perspective3122"
       inkscape:persp3d-origin="0.5 : 0.33333333 : 1"
       inkscape:vp_z="1 : 0.5 : 1"
       inkscape:vp_y="0 : 1000 : 0"
       inkscape:vp_x="0 : 0.5 : 1"
       sodipodi:type="inkscape:persp3d" />
    <inkscape:perspective
       id="perspective3854"
       inkscape:persp3d-origin="0.5 : 0.33333333 : 1"
       inkscape:vp_z="1 : 0.5 : 1"
       inkscape:vp_y="0 : 1000 : 0"
       inkscape:vp_x="0 : 0.5 : 1"
       sodipodi:type="inkscape:persp3d" />
    <inkscape:perspective
       id="perspective3922"
       inkscape:persp3d-origin="0.5 : 0.33333333 : 1"
       inkscape:vp_z="1 : 0.5 : 1"
       inkscape:vp_y="0 : 1000 : 0"
       inkscape:vp_x="0 : 0.5 : 1"
       sodipodi:type="inkscape:persp3d" />
    <inkscape:perspective
       id="perspective3945"
       inkscape:persp3d-origin="0.5 : 0.33333333 : 1"
       inkscape:vp_z="1 : 0.5 : 1"
       inkscape:vp_y="0 : 1000 : 0"
       inkscape:vp_x="0 : 0.5 : 1"
       sodipodi:type="inkscape:persp3d" />
    <inkscape:perspective
       id="perspective3972"
       inkscape:persp3d-origin="0.5 : 0.33333333 : 1"
       inkscape:vp_z="1 : 0.5 : 1"
       inkscape:vp_y="0 : 1000 : 0"
       inkscape:vp_x="0 : 0.5 : 1"
       sodipodi:type="inkscape:persp3d" />
    <inkscape:perspective
       id="perspective3995"
       inkscape:persp3d-origin="0.5 : 0.33333333 : 1"
       inkscape:vp_z="1 : 0.5 : 1"
       inkscape:vp_y="0 : 1000 : 0"
       inkscape:vp_x="0 : 0.5 : 1"
       sodipodi:type="inkscape:persp3d" />
    <inkscape:perspective
       id="perspective3802"
       inkscape:persp3d-origin="0.5 : 0.33333333 : 1"
       inkscape:vp_z="1 : 0.5 : 1"
       inkscape:vp_y="0 : 1000 : 0"
       inkscape:vp_x="0 : 0.5 : 1"
       sodipodi:type="inkscape:persp3d" />
  </defs>
  <sodipodi:namedview
     id="base"
     pagecolor="#ffffff"
     bordercolor="#666666"
     borderopacity="1.0"
     inkscape:pageopacity="0.0"
     inkscape:pageshadow="2"
     inkscape:zoom="0.49497475"
     inkscape:cx="400.23851"
     inkscape:cy="520.83683"
     inkscape:document-units="px"
     inkscape:current-layer="g4634"
     showgrid="false"
     inkscape:window-width="1440"
     inkscape:window-height="840"
     inkscape:window-x="-4"
     inkscape:window-y="-4"
     inkscape:window-maximized="1" />
  <metadata
     id="metadata3178">
    <rdf:RDF>
      <cc:Work
         rdf:about="">
        <dc:format>image/svg+xml</dc:format>
        <dc:type
           rdf:resource="http://purl.org/dc/dcmitype/StillImage" />
        <dc:title>Dou</dc:title>
        <dc:date>2010-08-21</dc:date>
        <dc:creator>
          <cc:Agent>
            <dc:title>Alex Amies</dc:title>
          </cc:Agent>
        </dc:creator>
        <dc:rights>
          <cc:Agent>
            <dc:title>@ Alex Amies 2010</dc:title>
          </cc:Agent>
        </dc:rights>
        <dc:publisher>
          <cc:Agent>
            <dc:title>chinesenotes.com</dc:title>
          </cc:Agent>
        </dc:publisher>
        <dc:source>Yan Qin Ceremonial Inscription</dc:source>
        <dc:language>Chinese 中文</dc:language>
        <dc:description>Tracing from Tang Dynasty Ceremonial Inscription by Yan Zhenqing 颜真卿 (709－785)</dc:description>
        <cc:license
           rdf:resource="http://creativecommons.org/licenses/by/3.0/" />
      </cc:Work>
      <cc:License
         rdf:about="http://creativecommons.org/licenses/by/3.0/">
        <cc:permits
           rdf:resource="http://creativecommons.org/ns#Reproduction" />
        <cc:permits
           rdf:resource="http://creativecommons.org/ns#Distribution" />
        <cc:requires
           rdf:resource="http://creativecommons.org/ns#Notice" />
        <cc:requires
           rdf:resource="http://creativecommons.org/ns#Attribution" />
        <cc:permits
           rdf:resource="http://creativecommons.org/ns#DerivativeWorks" />
      </cc:License>
    </rdf:RDF>
  </metadata>
  <g
     inkscape:label="Layer 1"
     inkscape:groupmode="layer"
     id="layer1"
     transform="translate(0,-52.362183)">
    <g
       transform="matrix(4.7609464,0,0,4.7609464,-444.07486,-2879.5352)"
       id="g4634"
       style="fill:#000000;fill-opacity:1">
      <path
         style="fill:#000000;stroke:#000000;stroke-width:1.20136939999999990px;stroke-linecap:butt;stroke-linejoin:miter;stroke-opacity:1;fill-opacity:1"
         d="m 224.16239,629.93557 c -0.50738,0.002 -1.0213,0.0322 -1.53648,0.0885 -4.4571,1.24111 -6.90241,5.48664 -11.60342,6.32158 -15.06449,5.08693 -47.08246,11.11483 -61.80919,16.92187 1.63684,3.47954 6.64793,4.07253 10.36919,3.34151 18.39803,-1.67414 54.20983,-1.13616 72.23715,-5.39256 3.60279,-1.58531 8.12731,-2.18976 10.93173,-4.78728 3.1763,-4.21249 0.27779,-10.40151 -4.93691,-12.11205 -4.20718,-2.02266 -8.74731,-4.40081 -13.65207,-4.38159 l 0,2e-5 z m 13.17566,45.58268 c -5.74528,-0.0446 -10.77591,2.80651 -16.24646,3.939 -8.9958,2.4464 -18.12343,4.5001 -27.29574,6.36583 -4.97431,1.67506 -12.13494,7.04453 -5.54983,11.10148 7.52385,-1.37258 14.91801,-3.09942 22.77863,-3.76196 2.98916,-2.18675 8.19129,1.06811 6.76727,4.26356 -1.35438,4.68527 -2.63615,9.40225 -4.60107,13.92664 -0.0623,2.09457 1.5142,3.86516 3.58514,4.75778 -1.33125,0.25856 -2.64439,0.55437 -3.92938,0.87779 -9.01686,2.42471 -18.19862,4.36359 -27.15301,6.96332 -0.27106,0.0844 -0.57987,0.14396 -0.89838,0.19917 -0.52931,-3.97857 -1.28358,-7.9538 -1.62884,-11.92027 -2.95579,-11.51304 -7.57215,-25.30507 -18.15239,-33.28969 -4.20363,-1.62411 -10.04759,-2.84337 -13.33301,-1.5638 -2.73192,1.06399 0.12806,6.36645 2.47685,8.60088 5.54099,13.46382 11.20483,27.01077 13.7948,41.20458 0.55885,5.08657 2.355,9.21379 6.16274,12.93083 3.70095,0.67874 8.12522,0.23184 10.70504,-2.44159 0.14318,-0.73241 0.25184,-1.46584 0.33584,-2.19817 6.3277,0.96435 15.09635,-1.48805 21.72073,-3.42265 9.30412,-2.5138 18.80312,-4.7845 28.57195,-5.22249 4.73513,-1.40715 4.67639,-8.29076 0.0504,-9.78848 -3.19088,-1.32989 -6.60627,-1.85095 -10.05853,-1.85148 4.30844,-2.02846 7.44323,-5.76617 11.27597,-8.40172 4.04435,-4.06637 6.27135,-9.35086 10.88975,-13.00459 3.90135,-6.63802 -1.61253,-17.1628 -10.26844,-18.26397 l -3e-5,0 z m -9.89061,60.92907 c -0.97796,-0.004 -1.97466,0.0112 -2.98062,0.0443 -1.34043,0.0687 -2.98844,1.97818 -2.74553,3.21611 1.4419,11.54502 -7.25182,22.79837 -17.57305,29.4466 -2.86167,1.47525 -6.34485,2.85356 -7.71602,5.59131 -1.0979,2.19214 2.75402,1.61516 4.3072,1.29824 4.01626,-0.81949 8.60588,-0.18483 12.28351,-1.7482 10.19978,-4.33596 20.01833,-10.4412 29.72221,-15.43143 4.62335,-4.03266 3.26202,-10.30596 0.61292,-14.8487 -3.05799,-6.33068 -9.06492,-7.54141 -15.91062,-7.56818 l 0,-5e-5 z m -38.01757,11.65471 c -0.1765,-0.009 -0.48065,0.0753 -0.94876,0.29505 -3.81302,1.79019 -8.03081,3.66754 -12.15756,4.13079 -2.5445,-1.50188 -2.31019,-3.99103 -5.86888,-3.9685 -5.75755,2.40325 -9.70655,7.77368 -11.90568,12.86444 -0.85992,5.90679 4.17693,12.22499 8.99223,15.97728 1.59866,1.02835 3.50015,2.50747 5.22238,2.48585 1.57571,-0.0198 4.40344,-0.7268 4.76059,-2.52273 1.30757,-6.57519 2.69709,-13.28883 5.96124,-19.34092 1.54888,-2.87182 3.69762,-5.49459 5.43228,-8.26895 0.46257,-0.73982 1.04166,-1.62624 0.51216,-1.65231 z m 35.36816,35.5143 c -27.3773,0.0223 -87.40584,13.70742 -90.63479,17.21959 -3.15685,3.43374 8.80264,4.89083 13.74443,4.91268 33.34052,-4.93155 81.57381,-1.42389 114.94152,-5.47636 6.68482,-2.3957 5.52822,-12.47729 -1.50291,-13.74961 -11.25761,-3.83416 -23.52318,-1.90406 -35.25525,-2.89892 -0.42491,-0.007 -0.85844,-0.008 -1.293,-0.007 l 0,-3.8e-4 z"
         id="path2854"
         sodipodi:nodetypes="cccccccccccccccccccccccscccccccccccccccccssscccccsccccssssccscccccc" />
    </g>
  </g>
</svg>
