<?xml version="1.0" encoding="UTF-8" standalone="no"?>
<!-- Created with Inkscape (http://www.inkscape.org/) -->

<svg
   xmlns:dc="http://purl.org/dc/elements/1.1/"
   xmlns:cc="http://creativecommons.org/ns#"
   xmlns:rdf="http://www.w3.org/1999/02/22-rdf-syntax-ns#"
   xmlns:svg="http://www.w3.org/2000/svg"
   xmlns="http://www.w3.org/2000/svg"
   xmlns:sodipodi="http://sodipodi.sourceforge.net/DTD/sodipodi-0.dtd"
   xmlns:inkscape="http://www.inkscape.org/namespaces/inkscape"
   width="1000"
   height="1000"
   id="svg3173"
   version="1.1"
   inkscape:version="0.47 r22583"
   sodipodi:docname="8c55.svg"
   inkscape:export-filename="E:\chinese\yan\8c55.png"
   inkscape:export-xdpi="18.005705"
   inkscape:export-ydpi="18.005705">
  <title
     id="title2857">Shi</title>
  <defs
     id="defs3175">
    <inkscape:perspective
       sodipodi:type="inkscape:persp3d"
       inkscape:vp_x="0 : 526.18109 : 1"
       inkscape:vp_y="0 : 1000 : 0"
       inkscape:vp_z="744.09448 : 526.18109 : 1"
       inkscape:persp3d-origin="372.04724 : 350.78739 : 1"
       id="perspective3181" />
    <inkscape:perspective
       id="perspective3191"
       inkscape:persp3d-origin="0.5 : 0.33333333 : 1"
       inkscape:vp_z="1 : 0.5 : 1"
       inkscape:vp_y="0 : 1000 : 0"
       inkscape:vp_x="0 : 0.5 : 1"
       sodipodi:type="inkscape:persp3d" />
    <inkscape:perspective
       id="perspective4006"
       inkscape:persp3d-origin="0.5 : 0.33333333 : 1"
       inkscape:vp_z="1 : 0.5 : 1"
       inkscape:vp_y="0 : 1000 : 0"
       inkscape:vp_x="0 : 0.5 : 1"
       sodipodi:type="inkscape:persp3d" />
    <inkscape:perspective
       id="perspective4034"
       inkscape:persp3d-origin="0.5 : 0.33333333 : 1"
       inkscape:vp_z="1 : 0.5 : 1"
       inkscape:vp_y="0 : 1000 : 0"
       inkscape:vp_x="0 : 0.5 : 1"
       sodipodi:type="inkscape:persp3d" />
    <inkscape:perspective
       id="perspective4081"
       inkscape:persp3d-origin="0.5 : 0.33333333 : 1"
       inkscape:vp_z="1 : 0.5 : 1"
       inkscape:vp_y="0 : 1000 : 0"
       inkscape:vp_x="0 : 0.5 : 1"
       sodipodi:type="inkscape:persp3d" />
    <inkscape:perspective
       id="perspective4147"
       inkscape:persp3d-origin="0.5 : 0.33333333 : 1"
       inkscape:vp_z="1 : 0.5 : 1"
       inkscape:vp_y="0 : 1000 : 0"
       inkscape:vp_x="0 : 0.5 : 1"
       sodipodi:type="inkscape:persp3d" />
    <inkscape:perspective
       id="perspective3858"
       inkscape:persp3d-origin="0.5 : 0.33333333 : 1"
       inkscape:vp_z="1 : 0.5 : 1"
       inkscape:vp_y="0 : 1000 : 0"
       inkscape:vp_x="0 : 0.5 : 1"
       sodipodi:type="inkscape:persp3d" />
    <inkscape:perspective
       id="perspective3876"
       inkscape:persp3d-origin="0.5 : 0.33333333 : 1"
       inkscape:vp_z="1 : 0.5 : 1"
       inkscape:vp_y="0 : 1000 : 0"
       inkscape:vp_x="0 : 0.5 : 1"
       sodipodi:type="inkscape:persp3d" />
    <inkscape:perspective
       id="perspective3901"
       inkscape:persp3d-origin="0.5 : 0.33333333 : 1"
       inkscape:vp_z="1 : 0.5 : 1"
       inkscape:vp_y="0 : 1000 : 0"
       inkscape:vp_x="0 : 0.5 : 1"
       sodipodi:type="inkscape:persp3d" />
    <inkscape:perspective
       id="perspective4392"
       inkscape:persp3d-origin="0.5 : 0.33333333 : 1"
       inkscape:vp_z="1 : 0.5 : 1"
       inkscape:vp_y="0 : 1000 : 0"
       inkscape:vp_x="0 : 0.5 : 1"
       sodipodi:type="inkscape:persp3d" />
    <inkscape:perspective
       id="perspective4888"
       inkscape:persp3d-origin="0.5 : 0.33333333 : 1"
       inkscape:vp_z="1 : 0.5 : 1"
       inkscape:vp_y="0 : 1000 : 0"
       inkscape:vp_x="0 : 0.5 : 1"
       sodipodi:type="inkscape:persp3d" />
    <inkscape:perspective
       id="perspective3068"
       inkscape:persp3d-origin="0.5 : 0.33333333 : 1"
       inkscape:vp_z="1 : 0.5 : 1"
       inkscape:vp_y="0 : 1000 : 0"
       inkscape:vp_x="0 : 0.5 : 1"
       sodipodi:type="inkscape:persp3d" />
  </defs>
  <sodipodi:namedview
     id="base"
     pagecolor="#ffffff"
     bordercolor="#666666"
     borderopacity="1.0"
     inkscape:pageopacity="0.0"
     inkscape:pageshadow="2"
     inkscape:zoom="0.49497475"
     inkscape:cx="155.01443"
     inkscape:cy="514.50449"
     inkscape:document-units="px"
     inkscape:current-layer="g10806"
     showgrid="false"
     inkscape:window-width="1440"
     inkscape:window-height="840"
     inkscape:window-x="-4"
     inkscape:window-y="-4"
     inkscape:window-maximized="1" />
  <metadata
     id="metadata3178">
    <rdf:RDF>
      <cc:Work
         rdf:about="">
        <dc:format>image/svg+xml</dc:format>
        <dc:type
           rdf:resource="http://purl.org/dc/dcmitype/StillImage" />
        <dc:title>Shi</dc:title>
        <dc:date>2010-08-08</dc:date>
        <dc:creator>
          <cc:Agent>
            <dc:title>Alex Amies</dc:title>
          </cc:Agent>
        </dc:creator>
        <dc:rights>
          <cc:Agent>
            <dc:title>@ Alex Amies 2010</dc:title>
          </cc:Agent>
        </dc:rights>
        <dc:publisher>
          <cc:Agent>
            <dc:title>chinesenotes.com</dc:title>
          </cc:Agent>
        </dc:publisher>
        <dc:source>Yan Qin Ceremonial Inscription</dc:source>
        <dc:language>Chinese 中文</dc:language>
        <dc:description>Tracing from Tang Dynasty Ceremonial Inscription by Yan Zhenqing 颜真卿 (709－785)</dc:description>
        <cc:license
           rdf:resource="http://creativecommons.org/licenses/by/3.0/" />
      </cc:Work>
      <cc:License
         rdf:about="http://creativecommons.org/licenses/by/3.0/">
        <cc:permits
           rdf:resource="http://creativecommons.org/ns#Reproduction" />
        <cc:permits
           rdf:resource="http://creativecommons.org/ns#Distribution" />
        <cc:requires
           rdf:resource="http://creativecommons.org/ns#Notice" />
        <cc:requires
           rdf:resource="http://creativecommons.org/ns#Attribution" />
        <cc:permits
           rdf:resource="http://creativecommons.org/ns#DerivativeWorks" />
      </cc:License>
    </rdf:RDF>
  </metadata>
  <g
     inkscape:label="Layer 1"
     inkscape:groupmode="layer"
     id="layer1"
     transform="translate(0,-52.362183)">
    <g
       transform="matrix(4.5165186,0,0,4.5165186,-1484.7249,-997.58926)"
       id="g10806"
       style="fill:#000000;fill-opacity:1">
      <g
         id="g2859"
         transform="matrix(1.0461789,0,0,1.4547613,-28.627317,-218.52092)">
        <path
           style="fill:#000000;fill-opacity:1;stroke:#000000;stroke-width:1px;stroke-linecap:butt;stroke-linejoin:miter;stroke-opacity:1"
           d="m 391.07143,338.79075 c -2.6172,0.76966 -4.05471,3.49694 -6.70537,4.2493 -3.58529,1.20236 -1.18894,5.17366 1.05497,6.35547 2.03799,1.61605 5.4817,3.12961 7.61787,0.88021 1.57565,-2.56081 4.08954,-4.13734 6.88062,-5.1274 10.47395,-4.36367 21.90742,-5.25272 32.95909,-7.31331 6.11662,-0.89158 12.30503,-1.60909 18.49075,-1.47794 2.4052,0.63053 5.29846,0.7801 7.07355,-1.3264 1.61838,-2.37795 -0.28536,-5.37898 -2.11012,-7.03972 -4.64005,-3.46058 -11.57473,-3.02225 -16.09498,0.44604 -7.56651,4.72612 -16.35245,6.87359 -24.89448,9.11164 -5.39902,1.23998 -10.91111,2.30578 -16.4674,2.27661 -2.6098,-0.25323 -5.14405,-1.65905 -7.8045,-1.0345 z"
           id="path10783" />
        <path
           style="fill:#000000;fill-opacity:1;stroke:#000000;stroke-width:1px;stroke-linecap:butt;stroke-linejoin:miter;stroke-opacity:1"
           d="m 420.35714,338.07647 c -2.42188,1.01642 -3.49117,3.88624 -4.08947,6.25499 -1.37149,4.01696 -4.04723,7.47366 -6.69439,10.74628 -7.40157,8.60619 -17.37444,14.31038 -26.39073,21.00153 -3.25288,2.09271 -6.26003,3.2294 -8.66972,6.49592 -2.02908,2.66552 0.15029,4.10238 2.57758,3.39865 3.87115,-2.80583 6.63904,-4.34553 10.07385,-6.06547 5.6748,-3.59793 11.00535,-7.10935 16.68601,-10.70795 5.35388,-3.63374 10.54605,-7.49727 15.80123,-11.2686 4.01398,-3.08219 7.70086,-7.61509 7.59752,-12.92516 -0.29426,-3.31808 -3.2383,-5.79792 -6.14698,-6.94489 l -0.37297,-0.032 -0.37193,0.0467 0,0 z"
           id="path10786"
           sodipodi:nodetypes="cccccccccccccc" />
        <path
           style="fill:#000000;fill-opacity:1;stroke:#000000;stroke-width:1px;stroke-linecap:butt;stroke-linejoin:miter;stroke-opacity:1"
           d="m 416.42857,355.93361 c -5.77976,3.89776 3.7536,7.82583 5.93369,11.12065 12.74966,10.91604 23.21327,24.5796 37.7636,33.30673 9.79108,6.25368 18.81949,13.59147 28.08843,20.57262 13.32568,-1.19535 24.9745,-11.00851 38.4945,-11.06183 8.06176,0.55078 6.54808,-4.27901 0.37566,-5.0703 -9.06143,-1.85513 -15.82041,-2.31733 -24.97909,-3.54117 -16.82216,-1.34352 -32.58645,-8.72866 -46.38609,-18.10676 -8.02015,-6.03786 -14.38199,-13.9426 -22.2524,-20.16757 -4.4705,-4.19554 -10.46913,-9.1947 -17.0383,-7.05237 z"
           id="path10789"
           sodipodi:nodetypes="cccccccccc" />
        <path
           style="fill:#000000;fill-opacity:1;stroke:#000000;stroke-width:1px;stroke-linecap:butt;stroke-linejoin:miter;stroke-opacity:1"
           d="m 420.71429,361.29075 c -3.51206,-0.63173 -5.4127,3.28068 -7.5938,5.33211 -2.53512,3.59083 -4.28738,7.70551 -7.25279,10.99666 -4.8696,6.49771 -9.76113,12.57712 -16.64803,16.97267 -2.73637,2.02818 -5.7739,5.29781 -8.68105,7.10078 -3.97588,3.93071 -6.34536,6.13221 -10.32911,8.49535 -2.53276,2.29271 0.1973,3.99421 3.03843,2.55741 5.27739,-3.02674 9.9692,-5.64756 15.31377,-8.61446 8.03224,-5.77312 13.5056,-10.52988 20.54379,-18.31227 4.21613,-3.59113 6.8323,-8.87808 9.51673,-12.08483 2.81629,-2.71312 4.20737,-6.91945 3.44029,-10.75531 -0.21756,-0.70543 -0.6893,-1.33928 -1.34823,-1.68811 z"
           id="path10792"
           sodipodi:nodetypes="cccccccccccc" />
        <path
           style="fill:#000000;fill-opacity:1;stroke:#000000;stroke-width:1px;stroke-linecap:butt;stroke-linejoin:miter;stroke-opacity:1"
           d="m 432.14286,370.21933 c -3.10973,-0.0276 -4.99397,3.3424 -6.15195,5.86392 -4.12824,7.45292 -6.86661,15.80787 -12.64466,22.24113 -9.61606,10.93871 -21.98844,18.8925 -34.07618,26.79833 -3.54059,2.21672 -7.11173,4.38436 -10.69864,6.52519 4.17963,1.10174 7.63399,0.74629 11.75861,-0.99843 6.69785,-2.39635 13.33155,-6.89924 18.94784,-11.18087 4.87483,-4.27939 9.56998,-7.70579 14.56081,-11.86241 6.34131,-5.25962 10.25589,-12.86221 14.01845,-19.88683 2.50567,-3.38865 4.91253,-7.62713 6.31233,-10.8601 -0.12059,-2.19548 0.0259,-5.32839 -2.02661,-6.6399 l 0,-3e-5 z"
           id="path10796"
           sodipodi:nodetypes="cccccccccccc" />
        <path
           style="fill:#000000;fill-opacity:1;stroke:#000000;stroke-width:1px;stroke-linecap:butt;stroke-linejoin:miter;stroke-opacity:1"
           d="m 437.14286,378.07647 c -4.36983,0.58179 -4.32723,5.55668 -1.86011,8.20486 1.75422,3.5482 0.27069,7.6371 -0.66967,11.21595 -1.9804,5.36954 -3.06372,11.00288 -4.84389,16.4302 -3.21156,8.77475 -10.89399,14.7325 -17.76231,20.60306 -2.94009,3.18969 -7.06616,3.28799 -10.92726,3.34319 -2.73476,1.1948 -5.1288,4.36941 -3.68998,7.40559 1.75,4.84235 7.72304,5.74905 12.18941,4.99476 5.54625,-0.83154 9.39465,-5.34613 13.38963,-8.85696 5.4101,-5.54492 10.33236,-11.57194 14.92815,-17.80355 4.42076,-6.65363 7.68371,-14.4534 7.38458,-22.57419 -0.19708,-4.21298 0.49503,-8.3693 0.86525,-12.54598 0.14892,-4.6858 -3.32052,-9.55478 -7.98761,-10.4722 l -0.51197,-0.009 -0.50422,0.0641 0,0 z"
           id="path10799" />
        <path
           style="fill:#000000;fill-opacity:1;stroke:#000000;stroke-width:1px;stroke-linecap:butt;stroke-linejoin:miter;stroke-opacity:1"
           d="m 481.07143,344.50504 c -2.32889,0.27308 -3.74986,2.43279 -5.28591,3.96583 -2.03468,2.63571 -3.79325,5.513 -6.30649,7.74223 -4.21985,4.32059 -9.16851,7.81749 -14.138,11.20833 -2.76502,2.05939 -5.29725,4.40559 -7.84103,6.72647 2.02381,0.35714 4.05139,1.21442 6.07143,1.07143 4.39418,-0.31104 8.92457,-1.96162 12.36773,-4.9753 3.80212,-2.83728 8.01028,-5.04505 12.2956,-7.04696 2.65368,-1.42943 5.56784,-2.74862 8.65606,-2.45155 2.45318,0.002 5.1933,-0.72167 6.67667,-2.80117 1.09911,-1.96977 -0.35608,-3.9925 -1.67402,-5.40795 -1.94793,-1.9949 -3.80136,-4.09727 -5.90791,-5.92711 -1.39254,-1.1404 -3.07015,-2.07774 -4.91413,-2.10425 z"
           id="path10802"
           sodipodi:nodetypes="cccccsccccccc" />
      </g>
    </g>
  </g>
</svg>
