<?xml version="1.0" encoding="UTF-8" standalone="no"?>
<!-- Created with Inkscape (http://www.inkscape.org/) -->

<svg
   xmlns:dc="http://purl.org/dc/elements/1.1/"
   xmlns:cc="http://creativecommons.org/ns#"
   xmlns:rdf="http://www.w3.org/1999/02/22-rdf-syntax-ns#"
   xmlns:svg="http://www.w3.org/2000/svg"
   xmlns="http://www.w3.org/2000/svg"
   xmlns:sodipodi="http://sodipodi.sourceforge.net/DTD/sodipodi-0.dtd"
   xmlns:inkscape="http://www.inkscape.org/namespaces/inkscape"
   width="1000"
   height="1000"
   id="svg3173"
   version="1.1"
   inkscape:version="0.47 r22583"
   sodipodi:docname="8c9d.svg"
   inkscape:export-filename="E:\chinese\yan\8c9d.png"
   inkscape:export-xdpi="17.961918"
   inkscape:export-ydpi="17.961918">
  <title
     id="title2844">Bei</title>
  <defs
     id="defs3175">
    <inkscape:perspective
       sodipodi:type="inkscape:persp3d"
       inkscape:vp_x="0 : 526.18109 : 1"
       inkscape:vp_y="0 : 1000 : 0"
       inkscape:vp_z="744.09448 : 526.18109 : 1"
       inkscape:persp3d-origin="372.04724 : 350.78739 : 1"
       id="perspective3181" />
    <inkscape:perspective
       id="perspective3191"
       inkscape:persp3d-origin="0.5 : 0.33333333 : 1"
       inkscape:vp_z="1 : 0.5 : 1"
       inkscape:vp_y="0 : 1000 : 0"
       inkscape:vp_x="0 : 0.5 : 1"
       sodipodi:type="inkscape:persp3d" />
    <inkscape:perspective
       id="perspective4006"
       inkscape:persp3d-origin="0.5 : 0.33333333 : 1"
       inkscape:vp_z="1 : 0.5 : 1"
       inkscape:vp_y="0 : 1000 : 0"
       inkscape:vp_x="0 : 0.5 : 1"
       sodipodi:type="inkscape:persp3d" />
    <inkscape:perspective
       id="perspective4034"
       inkscape:persp3d-origin="0.5 : 0.33333333 : 1"
       inkscape:vp_z="1 : 0.5 : 1"
       inkscape:vp_y="0 : 1000 : 0"
       inkscape:vp_x="0 : 0.5 : 1"
       sodipodi:type="inkscape:persp3d" />
    <inkscape:perspective
       id="perspective4081"
       inkscape:persp3d-origin="0.5 : 0.33333333 : 1"
       inkscape:vp_z="1 : 0.5 : 1"
       inkscape:vp_y="0 : 1000 : 0"
       inkscape:vp_x="0 : 0.5 : 1"
       sodipodi:type="inkscape:persp3d" />
    <inkscape:perspective
       id="perspective4147"
       inkscape:persp3d-origin="0.5 : 0.33333333 : 1"
       inkscape:vp_z="1 : 0.5 : 1"
       inkscape:vp_y="0 : 1000 : 0"
       inkscape:vp_x="0 : 0.5 : 1"
       sodipodi:type="inkscape:persp3d" />
    <inkscape:perspective
       id="perspective3858"
       inkscape:persp3d-origin="0.5 : 0.33333333 : 1"
       inkscape:vp_z="1 : 0.5 : 1"
       inkscape:vp_y="0 : 1000 : 0"
       inkscape:vp_x="0 : 0.5 : 1"
       sodipodi:type="inkscape:persp3d" />
    <inkscape:perspective
       id="perspective3876"
       inkscape:persp3d-origin="0.5 : 0.33333333 : 1"
       inkscape:vp_z="1 : 0.5 : 1"
       inkscape:vp_y="0 : 1000 : 0"
       inkscape:vp_x="0 : 0.5 : 1"
       sodipodi:type="inkscape:persp3d" />
    <inkscape:perspective
       id="perspective3901"
       inkscape:persp3d-origin="0.5 : 0.33333333 : 1"
       inkscape:vp_z="1 : 0.5 : 1"
       inkscape:vp_y="0 : 1000 : 0"
       inkscape:vp_x="0 : 0.5 : 1"
       sodipodi:type="inkscape:persp3d" />
    <inkscape:perspective
       id="perspective5282"
       inkscape:persp3d-origin="0.5 : 0.33333333 : 1"
       inkscape:vp_z="1 : 0.5 : 1"
       inkscape:vp_y="0 : 1000 : 0"
       inkscape:vp_x="0 : 0.5 : 1"
       sodipodi:type="inkscape:persp3d" />
    <inkscape:perspective
       id="perspective6657"
       inkscape:persp3d-origin="0.5 : 0.33333333 : 1"
       inkscape:vp_z="1 : 0.5 : 1"
       inkscape:vp_y="0 : 1000 : 0"
       inkscape:vp_x="0 : 0.5 : 1"
       sodipodi:type="inkscape:persp3d" />
    <inkscape:perspective
       id="perspective7221"
       inkscape:persp3d-origin="0.5 : 0.33333333 : 1"
       inkscape:vp_z="1 : 0.5 : 1"
       inkscape:vp_y="0 : 1000 : 0"
       inkscape:vp_x="0 : 0.5 : 1"
       sodipodi:type="inkscape:persp3d" />
    <inkscape:perspective
       id="perspective7762"
       inkscape:persp3d-origin="0.5 : 0.33333333 : 1"
       inkscape:vp_z="1 : 0.5 : 1"
       inkscape:vp_y="0 : 1000 : 0"
       inkscape:vp_x="0 : 0.5 : 1"
       sodipodi:type="inkscape:persp3d" />
    <inkscape:perspective
       id="perspective3824"
       inkscape:persp3d-origin="0.5 : 0.33333333 : 1"
       inkscape:vp_z="1 : 0.5 : 1"
       inkscape:vp_y="0 : 1000 : 0"
       inkscape:vp_x="0 : 0.5 : 1"
       sodipodi:type="inkscape:persp3d" />
    <inkscape:perspective
       id="perspective3037"
       inkscape:persp3d-origin="0.5 : 0.33333333 : 1"
       inkscape:vp_z="1 : 0.5 : 1"
       inkscape:vp_y="0 : 1000 : 0"
       inkscape:vp_x="0 : 0.5 : 1"
       sodipodi:type="inkscape:persp3d" />
    <inkscape:perspective
       id="perspective7183"
       inkscape:persp3d-origin="0.5 : 0.33333333 : 1"
       inkscape:vp_z="1 : 0.5 : 1"
       inkscape:vp_y="0 : 1000 : 0"
       inkscape:vp_x="0 : 0.5 : 1"
       sodipodi:type="inkscape:persp3d" />
    <inkscape:perspective
       id="perspective7211"
       inkscape:persp3d-origin="0.5 : 0.33333333 : 1"
       inkscape:vp_z="1 : 0.5 : 1"
       inkscape:vp_y="0 : 1000 : 0"
       inkscape:vp_x="0 : 0.5 : 1"
       sodipodi:type="inkscape:persp3d" />
    <inkscape:perspective
       id="perspective3723"
       inkscape:persp3d-origin="0.5 : 0.33333333 : 1"
       inkscape:vp_z="1 : 0.5 : 1"
       inkscape:vp_y="0 : 1000 : 0"
       inkscape:vp_x="0 : 0.5 : 1"
       sodipodi:type="inkscape:persp3d" />
    <inkscape:perspective
       id="perspective3759"
       inkscape:persp3d-origin="0.5 : 0.33333333 : 1"
       inkscape:vp_z="1 : 0.5 : 1"
       inkscape:vp_y="0 : 1000 : 0"
       inkscape:vp_x="0 : 0.5 : 1"
       sodipodi:type="inkscape:persp3d" />
    <inkscape:perspective
       id="perspective3801"
       inkscape:persp3d-origin="0.5 : 0.33333333 : 1"
       inkscape:vp_z="1 : 0.5 : 1"
       inkscape:vp_y="0 : 1000 : 0"
       inkscape:vp_x="0 : 0.5 : 1"
       sodipodi:type="inkscape:persp3d" />
    <inkscape:perspective
       id="perspective3837"
       inkscape:persp3d-origin="0.5 : 0.33333333 : 1"
       inkscape:vp_z="1 : 0.5 : 1"
       inkscape:vp_y="0 : 1000 : 0"
       inkscape:vp_x="0 : 0.5 : 1"
       sodipodi:type="inkscape:persp3d" />
    <inkscape:perspective
       id="perspective3086"
       inkscape:persp3d-origin="0.5 : 0.33333333 : 1"
       inkscape:vp_z="1 : 0.5 : 1"
       inkscape:vp_y="0 : 1000 : 0"
       inkscape:vp_x="0 : 0.5 : 1"
       sodipodi:type="inkscape:persp3d" />
  </defs>
  <sodipodi:namedview
     id="base"
     pagecolor="#ffffff"
     bordercolor="#666666"
     borderopacity="1.0"
     inkscape:pageopacity="0.0"
     inkscape:pageshadow="2"
     inkscape:zoom="0.49497475"
     inkscape:cx="359.2887"
     inkscape:cy="511.25205"
     inkscape:document-units="px"
     inkscape:current-layer="g4505"
     showgrid="false"
     inkscape:window-width="1440"
     inkscape:window-height="840"
     inkscape:window-x="-4"
     inkscape:window-y="-4"
     inkscape:window-maximized="1" />
  <metadata
     id="metadata3178">
    <rdf:RDF>
      <cc:Work
         rdf:about="">
        <dc:format>image/svg+xml</dc:format>
        <dc:type
           rdf:resource="http://purl.org/dc/dcmitype/StillImage" />
        <dc:title>Bei</dc:title>
        <dc:date>2010-08-08</dc:date>
        <dc:creator>
          <cc:Agent>
            <dc:title>Alex Amies</dc:title>
          </cc:Agent>
        </dc:creator>
        <dc:rights>
          <cc:Agent>
            <dc:title>Copyright Alex Amies 2010</dc:title>
          </cc:Agent>
        </dc:rights>
        <dc:publisher>
          <cc:Agent>
            <dc:title>chinesenotes.com</dc:title>
          </cc:Agent>
        </dc:publisher>
        <dc:source>Yan Qin Ceremonial Inscription</dc:source>
        <dc:language>Chinese 中文</dc:language>
        <dc:description>Tracing from Tang Dynasty Ceremonial Inscription by Yan Zhenqing 颜真卿 (709－785)</dc:description>
        <cc:license
           rdf:resource="http://creativecommons.org/licenses/by/3.0/" />
      </cc:Work>
      <cc:License
         rdf:about="http://creativecommons.org/licenses/by/3.0/">
        <cc:permits
           rdf:resource="http://creativecommons.org/ns#Reproduction" />
        <cc:permits
           rdf:resource="http://creativecommons.org/ns#Distribution" />
        <cc:requires
           rdf:resource="http://creativecommons.org/ns#Notice" />
        <cc:requires
           rdf:resource="http://creativecommons.org/ns#Attribution" />
        <cc:permits
           rdf:resource="http://creativecommons.org/ns#DerivativeWorks" />
      </cc:License>
    </rdf:RDF>
  </metadata>
  <g
     inkscape:label="Layer 1"
     inkscape:groupmode="layer"
     id="layer1"
     transform="translate(0,-52.362183)">
    <g
       transform="matrix(4.7418067,0,0,4.7418067,-575.38835,-3945.1359)"
       id="g3804"
       style="fill:none;fill-opacity:1">
      <g
         transform="matrix(0.93082599,0,0,0.93082599,6.9379247,837.85682)"
         id="g4505"
         style="fill:#000000;fill-opacity:1">
        <path
           style="fill:#000000;stroke:#000000;stroke-width:6.19824743000000030px;stroke-linecap:butt;stroke-linejoin:miter;stroke-opacity:1;fill-opacity:1"
           d="M 347.75 98.1875 C 346.07723 98.241717 344.35728 98.464884 342.625 98.875 C 329.98009 100.24375 331.71557 115.04057 338.0625 131.28125 C 336.37141 135.74337 334.97224 140.53455 333.8125 145.5625 C 323.62952 252.14949 334.82308 365.48833 337.53125 473.53125 C 334.76495 501.55453 329.35592 529.32647 328.375 557.53125 C 326.80316 585.15544 335.41378 592.12374 351.15625 607.21875 C 360.79559 603.8297 370.42316 600.45159 380.0625 597.0625 C 382.8428 554.96202 388.36749 513.0464 389.40625 470.8125 C 390.78913 472.2306 392.17961 473.64441 393.5625 475.0625 C 422.42666 471.55512 448.30429 455.98594 474.46875 440.59375 C 490.30025 421.60807 539.05493 412.4888 515.03125 386.09375 C 473.34856 399.51792 431.66905 413.02901 389.9375 426.1875 C 390.14881 389.14288 389.8715 352.25642 389.09375 315.40625 C 391.2263 316.93988 393.36747 318.46636 395.5 320 C 432.21423 311.13755 466.96456 292.29496 501.53125 274.25 C 503.62401 243.80228 499.70463 243.28991 478.125 241.34375 C 448.69838 256.28092 418.59122 267.75739 388.09375 277.9375 C 387.20501 248.36858 386.03617 218.81892 384.53125 189.21875 C 398.45334 195.19748 413.7725 195.61285 427.40625 188.71875 C 464.7852 178.21681 500.99891 162.18221 536.71875 144.53125 C 551.75294 139.94786 569.15224 135.46843 582.5 148.40625 C 588.14944 154.4838 600.51183 154.6863 600.15625 166.03125 C 603.79212 259.97108 600.54662 354.08477 601.875 448.09375 C 602.56109 482.51996 601.32918 516.86823 600.0625 551.21875 C 584.3804 550.47595 568.36195 546.31097 553.125 552.96875 C 465.24136 579.52228 377.35239 606.10263 289.46875 632.65625 C 274.26538 629.53336 259.07276 620.64218 243.8125 621.21875 C 227.19191 625.50658 212.98264 641.9008 215.71875 666.1875 C 216.13453 697.47629 234.47176 708.13328 256.8125 706.4375 C 326.22405 683.03122 396.30273 656.88761 464.03125 625.03125 C 489.92884 598.01675 566.54548 603.3636 598.96875 581.375 C 598.77326 587.38472 598.62135 593.3957 598.46875 599.40625 C 600.4795 620.7372 602.45702 643.31952 612.375 661.21875 C 614.70226 678.12346 628.48734 673.75947 637.9375 676.34375 C 653.49256 684.92408 660.03782 665.0086 668.375 650.8125 C 679.37317 623.10229 674.42346 587.98053 678.71875 557.1875 C 685.59019 452.3374 697.07325 346.9645 699.46875 242.65625 C 700.08377 215.87737 688.206 185.82598 675.625 163.65625 C 661.17295 146.49359 648.75497 124.98408 629.53125 117.09375 C 610.59156 103.82441 588.50367 106.54834 567.90625 102.1875 C 535.45531 103.38658 503.19242 110.85507 470.78125 114.1875 C 444.5983 116.81192 418.22563 121.80519 392.03125 120.46875 C 382.66463 115.3913 373.69834 107.41577 364.1875 102.5 C 363.69506 102.1393 363.21119 101.76695 362.71875 101.40625 C 362.59268 101.46773 362.46891 101.53114 362.34375 101.59375 C 357.65905 99.398519 352.83739 98.022609 347.75 98.1875 z M 545.75 647.9375 C 538.4183 647.77774 531.11442 650.87149 522.75 660.59375 C 526.32774 676.14011 524.79483 695.66236 536.21875 706.0625 C 558.13581 751.55003 614.32429 777.72343 627.96875 825.4375 C 629.22598 853.91174 632.54463 876.74806 641.59375 902.9375 C 653.95454 909.13429 667.6269 918.07889 680.8125 914.78125 C 695.34771 911.14609 705.16119 892.57285 717.46875 881.75 C 725.78576 827.42945 694.78856 793.29021 680.1875 741.34375 C 652.45636 708.24138 625.1327 664.61317 587.59375 660.59375 C 570.25641 657.5463 557.96949 648.20377 545.75 647.9375 z M 400.5625 682.15625 C 371.4777 693.30709 358.90127 729.59358 337.8125 751.8125 C 316.51717 776.18196 276.8664 836.45355 255.78125 860.8125 C 247.09115 870.38475 224.98497 880.87569 231.5 892.46875 C 242.78171 912.54371 282.86681 892.91116 302.1875 885.0625 C 338.11144 854.95679 397.06183 793.81807 435.34375 768.75 C 448.82724 762.42662 444.6875 746.38309 444.6875 730.1875 C 435.27649 714.94154 425.87985 699.68337 416.46875 684.4375 L 400.5625 682.15625 z "
           transform="matrix(0.2265623,0,0,0.2265623,122.9078,5.5605187)"
           id="path4436" />
      </g>
    </g>
  </g>
</svg>
