<?xml version="1.0" encoding="UTF-8" standalone="no"?>
<!-- Created with Inkscape (http://www.inkscape.org/) -->

<svg
   xmlns:dc="http://purl.org/dc/elements/1.1/"
   xmlns:cc="http://creativecommons.org/ns#"
   xmlns:rdf="http://www.w3.org/1999/02/22-rdf-syntax-ns#"
   xmlns:svg="http://www.w3.org/2000/svg"
   xmlns="http://www.w3.org/2000/svg"
   xmlns:sodipodi="http://sodipodi.sourceforge.net/DTD/sodipodi-0.dtd"
   xmlns:inkscape="http://www.inkscape.org/namespaces/inkscape"
   width="1000"
   height="1000"
   id="svg3173"
   version="1.1"
   inkscape:version="0.47 r22583"
   sodipodi:docname="8cca.svg"
   inkscape:export-filename="E:\chinese\yan\8cca.png"
   inkscape:export-xdpi="18.005705"
   inkscape:export-ydpi="18.005705">
  <title
     id="title3640">Zei</title>
  <defs
     id="defs3175">
    <inkscape:perspective
       sodipodi:type="inkscape:persp3d"
       inkscape:vp_x="0 : 526.18109 : 1"
       inkscape:vp_y="0 : 1000 : 0"
       inkscape:vp_z="744.09448 : 526.18109 : 1"
       inkscape:persp3d-origin="372.04724 : 350.78739 : 1"
       id="perspective3181" />
    <inkscape:perspective
       id="perspective3191"
       inkscape:persp3d-origin="0.5 : 0.33333333 : 1"
       inkscape:vp_z="1 : 0.5 : 1"
       inkscape:vp_y="0 : 1000 : 0"
       inkscape:vp_x="0 : 0.5 : 1"
       sodipodi:type="inkscape:persp3d" />
    <inkscape:perspective
       id="perspective4006"
       inkscape:persp3d-origin="0.5 : 0.33333333 : 1"
       inkscape:vp_z="1 : 0.5 : 1"
       inkscape:vp_y="0 : 1000 : 0"
       inkscape:vp_x="0 : 0.5 : 1"
       sodipodi:type="inkscape:persp3d" />
    <inkscape:perspective
       id="perspective4034"
       inkscape:persp3d-origin="0.5 : 0.33333333 : 1"
       inkscape:vp_z="1 : 0.5 : 1"
       inkscape:vp_y="0 : 1000 : 0"
       inkscape:vp_x="0 : 0.5 : 1"
       sodipodi:type="inkscape:persp3d" />
    <inkscape:perspective
       id="perspective4081"
       inkscape:persp3d-origin="0.5 : 0.33333333 : 1"
       inkscape:vp_z="1 : 0.5 : 1"
       inkscape:vp_y="0 : 1000 : 0"
       inkscape:vp_x="0 : 0.5 : 1"
       sodipodi:type="inkscape:persp3d" />
    <inkscape:perspective
       id="perspective4147"
       inkscape:persp3d-origin="0.5 : 0.33333333 : 1"
       inkscape:vp_z="1 : 0.5 : 1"
       inkscape:vp_y="0 : 1000 : 0"
       inkscape:vp_x="0 : 0.5 : 1"
       sodipodi:type="inkscape:persp3d" />
    <inkscape:perspective
       id="perspective3758"
       inkscape:persp3d-origin="0.5 : 0.33333333 : 1"
       inkscape:vp_z="1 : 0.5 : 1"
       inkscape:vp_y="0 : 1000 : 0"
       inkscape:vp_x="0 : 0.5 : 1"
       sodipodi:type="inkscape:persp3d" />
    <inkscape:perspective
       id="perspective3719"
       inkscape:persp3d-origin="0.5 : 0.33333333 : 1"
       inkscape:vp_z="1 : 0.5 : 1"
       inkscape:vp_y="0 : 1000 : 0"
       inkscape:vp_x="0 : 0.5 : 1"
       sodipodi:type="inkscape:persp3d" />
    <inkscape:perspective
       id="perspective3803"
       inkscape:persp3d-origin="0.5 : 0.33333333 : 1"
       inkscape:vp_z="1 : 0.5 : 1"
       inkscape:vp_y="0 : 1000 : 0"
       inkscape:vp_x="0 : 0.5 : 1"
       sodipodi:type="inkscape:persp3d" />
    <inkscape:perspective
       id="perspective3810"
       inkscape:persp3d-origin="0.5 : 0.33333333 : 1"
       inkscape:vp_z="1 : 0.5 : 1"
       inkscape:vp_y="0 : 1000 : 0"
       inkscape:vp_x="0 : 0.5 : 1"
       sodipodi:type="inkscape:persp3d" />
    <inkscape:perspective
       id="perspective3838"
       inkscape:persp3d-origin="0.5 : 0.33333333 : 1"
       inkscape:vp_z="1 : 0.5 : 1"
       inkscape:vp_y="0 : 1000 : 0"
       inkscape:vp_x="0 : 0.5 : 1"
       sodipodi:type="inkscape:persp3d" />
  </defs>
  <sodipodi:namedview
     id="base"
     pagecolor="#ffffff"
     bordercolor="#666666"
     borderopacity="1.0"
     inkscape:pageopacity="0.0"
     inkscape:pageshadow="2"
     inkscape:zoom="0.49497475"
     inkscape:cx="571.51329"
     inkscape:cy="512.69615"
     inkscape:document-units="px"
     inkscape:current-layer="g4143"
     showgrid="false"
     inkscape:window-width="1440"
     inkscape:window-height="840"
     inkscape:window-x="-4"
     inkscape:window-y="-4"
     inkscape:window-maximized="1" />
  <metadata
     id="metadata3178">
    <rdf:RDF>
      <cc:Work
         rdf:about="">
        <dc:format>image/svg+xml</dc:format>
        <dc:type
           rdf:resource="http://purl.org/dc/dcmitype/StillImage" />
        <dc:title>Zei</dc:title>
        <dc:date>2010-08-13</dc:date>
        <dc:creator>
          <cc:Agent>
            <dc:title>Alex Amies</dc:title>
          </cc:Agent>
        </dc:creator>
        <dc:rights>
          <cc:Agent>
            <dc:title>@ Alex Amies 2010</dc:title>
          </cc:Agent>
        </dc:rights>
        <dc:publisher>
          <cc:Agent>
            <dc:title>chinesenotes.com</dc:title>
          </cc:Agent>
        </dc:publisher>
        <dc:source>Yan Qin Ceremonial Inscription</dc:source>
        <dc:language>Chinese 中文</dc:language>
        <dc:description>Tracing from Tang Dynasty Ceremonial Inscription by Yan Zhenqing 颜真卿 (709－785)</dc:description>
        <cc:license
           rdf:resource="http://creativecommons.org/licenses/by/3.0/" />
      </cc:Work>
      <cc:License
         rdf:about="http://creativecommons.org/licenses/by/3.0/">
        <cc:permits
           rdf:resource="http://creativecommons.org/ns#Reproduction" />
        <cc:permits
           rdf:resource="http://creativecommons.org/ns#Distribution" />
        <cc:requires
           rdf:resource="http://creativecommons.org/ns#Notice" />
        <cc:requires
           rdf:resource="http://creativecommons.org/ns#Attribution" />
        <cc:permits
           rdf:resource="http://creativecommons.org/ns#DerivativeWorks" />
      </cc:License>
    </rdf:RDF>
  </metadata>
  <g
     inkscape:label="Layer 1"
     inkscape:groupmode="layer"
     id="layer1"
     transform="translate(0,-52.362183)">
    <g
       transform="matrix(4.7609464,0,0,4.7609464,-1421.6669,-3910.0295)"
       id="g4143"
       style="fill:#000000;fill-opacity:1">
      <path
         style="fill:#000000;stroke:#000000;stroke-width:4.73223686000000040px;stroke-linecap:butt;stroke-linejoin:miter;stroke-opacity:1;fill-opacity:1"
         d="M 583.21875 65.53125 C 556.17743 75.67178 552.8125 101 552.8125 101 C 552.8125 101 561.27348 139.88041 566.34375 156.78125 C 570.00215 168.97602 578.93894 220.00406 593.15625 291.21875 C 501.95873 318.08828 413.37756 345.22131 412.53125 344.375 C 412.53125 344.375 397.06822 348.06212 388.5 353.96875 C 387.62641 329.04835 386.63806 310.86846 385.5 303.8125 C 377.04956 251.4199 381.28665 262.64994 370.28125 226.0625 C 358.63074 187.3302 329.71597 165.23706 311.125 173.6875 C 284.92366 185.5972 152.25264 246.37236 150.5625 248.0625 C 137.22565 263.7529 135.18924 275.78042 137.5 284.1875 C 131.90547 305.19427 137.0625 325.78125 137.0625 325.78125 L 143.8125 658.75 C 143.8125 658.75 144.59305 667.13113 148.6875 672.125 C 142.47164 675.32806 136.75013 678.27528 131.96875 680.71875 C 102.95111 695.54791 79.59375 685.78125 79.59375 685.78125 C 62.135026 697.61187 65.239661 704.38037 71.125 721.28125 C 76.682929 737.24204 86.354293 753.38794 99.875 744.9375 C 113.39566 736.48706 245.21117 648.60664 270.5625 640.15625 C 289.48162 633.84989 324.37277 620.02148 340.875 613.40625 C 342.95531 666.06337 342.86643 703.45146 339.875 706.0625 C 326.33587 717.87988 288.68158 691.24148 294.21875 697.625 C 298.61686 702.69527 325.64227 797.03874 326.34375 844.65625 C 326.94387 885.39472 341.54179 883.51064 355.0625 897.03125 C 366.08052 908.04951 402.40625 895.34375 402.40625 895.34375 C 402.40625 895.34375 417.60147 886.88751 412.53125 837.875 C 407.46098 788.86253 393.9375 739.875 393.9375 739.875 C 393.9375 739.875 392.73943 496.60743 389.09375 372.125 C 398.10328 383.0087 413.14854 395.09375 422.6875 395.09375 C 434.51807 395.09375 445.48818 385.32989 464.9375 371.4375 C 487.47933 355.3362 542.47739 350.37677 601.46875 332 C 604.75893 347.90034 608.23976 364.40916 611.96875 381.5625 C 621.68151 426.24119 627.14939 451.82369 633.75 475.40625 C 614.5644 482.53706 597.01905 493.88055 577.6875 500.96875 C 579.18011 471.1095 572.25882 440.83595 552.96875 417.4375 C 545.54582 406.99755 537.02212 391.27982 522 393.40625 L 507.1875 393.40625 C 493.86923 395.87775 465.55571 414.21994 489.71875 423.78125 C 506.4171 437.32786 498.94278 461.05979 502.9375 479.46875 C 504.86404 494.52963 506.67379 509.64674 507.96875 524.78125 C 485.4146 532.42451 462.80573 539.90603 440.09375 547.03125 C 435.97791 546.51673 431.86584 546.01452 427.75 545.5 C 396.03743 567.61279 452.80904 595.54257 474.4375 578.65625 C 486.61908 575.7656 498.36029 571.71633 509.875 567.03125 C 509.84977 574.69011 509.61046 582.36365 509.0625 590.03125 C 504.84406 658.06103 486.04706 723.92366 485.21875 792.25 C 489.71946 810.88487 512.16551 821.24728 528.71875 810.6875 C 538.24274 805.83229 556.28857 803.3723 556.59375 790.3125 C 561.52661 706.45419 566.47339 622.60831 571.40625 538.75 C 571.44757 538.60491 571.49029 538.45777 571.53125 538.3125 C 579.14 534.76578 586.78757 531.35081 594.5625 528.25 C 609.93666 518.77324 627.59604 514.99496 644.6875 510.09375 C 654.40113 538.05941 668.79848 574.19442 694.15625 639.25 C 668.84383 698.3473 635.90862 754.29164 602 809.375 C 582.22912 840.852 562.45833 872.33503 542.6875 903.8125 C 561.61336 954.2214 599.102 892.93396 610.96875 867.0625 C 646.85475 810.66332 682.91895 754.28433 719.34375 698.1875 C 779.6965 825.00286 853.65625 893.65625 853.65625 893.65625 C 853.65625 893.65625 924.64096 912.24473 955.0625 915.625 C 985.484 919.00527 946.59375 868.3125 946.59375 868.3125 C 946.59375 868.3125 919.57027 873.39025 914.5 842.96875 C 909.42978 812.54725 914.5 741.5625 914.5 741.5625 C 914.5 741.5625 909.42432 711.12783 897.59375 729.71875 C 887.82119 745.07575 875.625 787.1875 875.625 787.1875 C 875.625 787.1875 875.62994 805.79137 851.96875 778.75 C 828.30756 751.70868 783.65205 685.63848 769.15625 648.59375 C 767.12483 643.40236 764.77254 638.04325 762.21875 632.5625 C 769.05892 622.1629 775.91289 611.77466 782.78125 601.40625 C 805.8387 581.64266 828.91125 561.88859 851.96875 542.125 C 851.12254 508.81571 855.02996 472.49083 830.65625 445.625 C 821.90116 434.00301 808.38676 428.98129 796.1875 422.125 C 752.05848 411.75147 732.28149 466.98589 735.0625 502.0625 C 732.16494 520.23784 728.30907 538.03647 723.59375 555.5 C 717.0422 541.27753 711.10672 526.62655 706.625 511.6875 C 694.60559 471.62267 672.01831 385.14108 658.90625 312.25 C 719.49596 290.54072 786.03125 264.9375 786.03125 264.9375 C 786.03125 264.9375 813.09864 242.97397 789.4375 239.59375 C 780.23495 238.27912 721.30536 254.15645 652.78125 273.875 C 652.04526 268.46829 651.39178 263.22935 650.84375 258.1875 C 642.39331 180.44363 647.45298 97.635306 637.3125 90.875 C 627.17202 84.114647 606.89566 65.53125 593.375 65.53125 C 585.27127 65.53125 582.66914 66.096156 582.21875 66.21875 C 582.4036 66.139527 582.79623 65.953772 583.21875 65.53125 z M 710 117.90625 C 701.42044 118.01623 690.34958 126.88177 691.4375 137.28125 C 692.23372 144.8931 698.93596 149.73682 702.34375 156.3125 C 707.80008 166.84095 711.57172 179.41527 720.125 187.21875 C 736.10507 201.79801 758.9808 212.31973 781.875 212.46875 C 792.50553 212.53778 804.76267 207.38637 808.6875 197.375 C 813.12427 186.05761 802.60997 174.88932 793.65625 168.5625 C 779.95301 158.87959 767.70064 147.39572 754.6875 136.84375 C 743.16444 124.23219 726.78405 119.00365 710 117.90625 z M 291.59375 229.34375 C 313.31916 228.84099 332.93221 446.26532 339.75 587.65625 C 311.26329 589.86455 268.875 609.71875 268.875 609.71875 C 268.875 609.71875 227.61621 631.24753 187.90625 651.84375 C 188.23846 637.37751 187.40544 587.01459 186.25 528.34375 C 192.08034 530.75651 200.35794 533.6875 206.34375 533.6875 C 216.48423 533.6875 251.98965 515.07544 258.75 506.625 C 265.51035 498.17461 290.84347 472.82281 270.5625 466.0625 C 252.91988 460.18158 200.78288 474.77504 185.28125 479.78125 C 184.67945 451.35461 184.06113 423.37946 183.46875 397.34375 C 199.87314 401.39431 213.96742 395.50064 241.84375 381.5625 C 275.64537 364.66162 302.66895 344.39053 273.9375 334.25 C 245.20605 324.10952 240.16119 327.48969 216.5 334.25 C 202.25346 338.32045 189.93146 343.58631 182.3125 347.15625 C 181.53556 314.05229 181 292 181 292 C 181 292 180.96702 290.41011 180.90625 288.28125 C 182.05213 287.82123 183.20145 287.34633 184.375 286.90625 C 197.89566 281.83598 265.2689 236.01743 290.84375 229.46875 C 291.09516 229.40437 291.3429 229.34956 291.59375 229.34375 z M 206.34375 697.625 C 169.16185 714.52584 162.40625 750 162.40625 750 C 133.95017 802.87859 100.35829 848.29183 59.3125 891.96875 L 32.28125 932.53125 L 49.15625 932.53125 C 49.184816 932.39794 49.300872 943.09478 126.90625 873.375 C 225.54235 784.7605 217.56005 777.60218 238.46875 743.25 C 260.20699 707.53505 208.03384 697.625 206.34375 697.625 z "
         transform="matrix(0.21004227,0,0,0.21004227,298.61015,832.26975)"
         id="path10032" />
    </g>
  </g>
</svg>
