<?xml version="1.0" encoding="UTF-8" standalone="no"?>
<!-- Created with Inkscape (http://www.inkscape.org/) -->

<svg
   xmlns:dc="http://purl.org/dc/elements/1.1/"
   xmlns:cc="http://creativecommons.org/ns#"
   xmlns:rdf="http://www.w3.org/1999/02/22-rdf-syntax-ns#"
   xmlns:svg="http://www.w3.org/2000/svg"
   xmlns="http://www.w3.org/2000/svg"
   xmlns:sodipodi="http://sodipodi.sourceforge.net/DTD/sodipodi-0.dtd"
   xmlns:inkscape="http://www.inkscape.org/namespaces/inkscape"
   width="1000"
   height="1000"
   id="svg3173"
   version="1.1"
   inkscape:version="0.47 r22583"
   sodipodi:docname="8Cea.svg"
   inkscape:export-filename="E:\chinese\yan\8cea.png"
   inkscape:export-xdpi="18.005705"
   inkscape:export-ydpi="18.005705">
  <title
     id="title4801">Zhi</title>
  <defs
     id="defs3175">
    <inkscape:perspective
       sodipodi:type="inkscape:persp3d"
       inkscape:vp_x="0 : 526.18109 : 1"
       inkscape:vp_y="0 : 1000 : 0"
       inkscape:vp_z="744.09448 : 526.18109 : 1"
       inkscape:persp3d-origin="372.04724 : 350.78739 : 1"
       id="perspective3181" />
    <inkscape:perspective
       id="perspective3191"
       inkscape:persp3d-origin="0.5 : 0.33333333 : 1"
       inkscape:vp_z="1 : 0.5 : 1"
       inkscape:vp_y="0 : 1000 : 0"
       inkscape:vp_x="0 : 0.5 : 1"
       sodipodi:type="inkscape:persp3d" />
    <inkscape:perspective
       id="perspective4006"
       inkscape:persp3d-origin="0.5 : 0.33333333 : 1"
       inkscape:vp_z="1 : 0.5 : 1"
       inkscape:vp_y="0 : 1000 : 0"
       inkscape:vp_x="0 : 0.5 : 1"
       sodipodi:type="inkscape:persp3d" />
    <inkscape:perspective
       id="perspective4034"
       inkscape:persp3d-origin="0.5 : 0.33333333 : 1"
       inkscape:vp_z="1 : 0.5 : 1"
       inkscape:vp_y="0 : 1000 : 0"
       inkscape:vp_x="0 : 0.5 : 1"
       sodipodi:type="inkscape:persp3d" />
    <inkscape:perspective
       id="perspective4081"
       inkscape:persp3d-origin="0.5 : 0.33333333 : 1"
       inkscape:vp_z="1 : 0.5 : 1"
       inkscape:vp_y="0 : 1000 : 0"
       inkscape:vp_x="0 : 0.5 : 1"
       sodipodi:type="inkscape:persp3d" />
    <inkscape:perspective
       id="perspective4147"
       inkscape:persp3d-origin="0.5 : 0.33333333 : 1"
       inkscape:vp_z="1 : 0.5 : 1"
       inkscape:vp_y="0 : 1000 : 0"
       inkscape:vp_x="0 : 0.5 : 1"
       sodipodi:type="inkscape:persp3d" />
    <inkscape:perspective
       id="perspective3737"
       inkscape:persp3d-origin="0.5 : 0.33333333 : 1"
       inkscape:vp_z="1 : 0.5 : 1"
       inkscape:vp_y="0 : 1000 : 0"
       inkscape:vp_x="0 : 0.5 : 1"
       sodipodi:type="inkscape:persp3d" />
    <inkscape:perspective
       id="perspective3736"
       inkscape:persp3d-origin="0.5 : 0.33333333 : 1"
       inkscape:vp_z="1 : 0.5 : 1"
       inkscape:vp_y="0 : 1000 : 0"
       inkscape:vp_x="0 : 0.5 : 1"
       sodipodi:type="inkscape:persp3d" />
    <inkscape:perspective
       id="perspective2978"
       inkscape:persp3d-origin="0.5 : 0.33333333 : 1"
       inkscape:vp_z="1 : 0.5 : 1"
       inkscape:vp_y="0 : 1000 : 0"
       inkscape:vp_x="0 : 0.5 : 1"
       sodipodi:type="inkscape:persp3d" />
    <inkscape:perspective
       id="perspective3776"
       inkscape:persp3d-origin="0.5 : 0.33333333 : 1"
       inkscape:vp_z="1 : 0.5 : 1"
       inkscape:vp_y="0 : 1000 : 0"
       inkscape:vp_x="0 : 0.5 : 1"
       sodipodi:type="inkscape:persp3d" />
  </defs>
  <sodipodi:namedview
     id="base"
     pagecolor="#ffffff"
     bordercolor="#666666"
     borderopacity="1.0"
     inkscape:pageopacity="0.0"
     inkscape:pageshadow="2"
     inkscape:zoom="0.49497475"
     inkscape:cx="421.0303"
     inkscape:cy="482.85714"
     inkscape:document-units="px"
     inkscape:current-layer="g4264"
     showgrid="false"
     inkscape:window-width="1440"
     inkscape:window-height="840"
     inkscape:window-x="-4"
     inkscape:window-y="-4"
     inkscape:window-maximized="1" />
  <metadata
     id="metadata3178">
    <rdf:RDF>
      <cc:Work
         rdf:about="">
        <dc:format>image/svg+xml</dc:format>
        <dc:type
           rdf:resource="http://purl.org/dc/dcmitype/StillImage" />
        <dc:title>Zhi</dc:title>
        <dc:date>2010-08-08</dc:date>
        <dc:creator>
          <cc:Agent>
            <dc:title>Alex Amies</dc:title>
          </cc:Agent>
        </dc:creator>
        <dc:rights>
          <cc:Agent>
            <dc:title>@ Alex Amies 2010</dc:title>
          </cc:Agent>
        </dc:rights>
        <dc:publisher>
          <cc:Agent>
            <dc:title>chinesenotes.com</dc:title>
          </cc:Agent>
        </dc:publisher>
        <dc:source>Yan Qin Ceremonial Inscription</dc:source>
        <dc:language>Chinese 中文</dc:language>
        <dc:description>Tracing from Tang Dynasty Ceremonial Inscription by Yan Zhenqing 颜真卿 (709－785)</dc:description>
        <cc:license
           rdf:resource="http://creativecommons.org/licenses/by/3.0/" />
      </cc:Work>
      <cc:License
         rdf:about="http://creativecommons.org/licenses/by/3.0/">
        <cc:permits
           rdf:resource="http://creativecommons.org/ns#Reproduction" />
        <cc:permits
           rdf:resource="http://creativecommons.org/ns#Distribution" />
        <cc:requires
           rdf:resource="http://creativecommons.org/ns#Notice" />
        <cc:requires
           rdf:resource="http://creativecommons.org/ns#Attribution" />
        <cc:permits
           rdf:resource="http://creativecommons.org/ns#DerivativeWorks" />
      </cc:License>
    </rdf:RDF>
  </metadata>
  <g
     inkscape:label="Layer 1"
     inkscape:groupmode="layer"
     id="layer1"
     transform="translate(0,-52.362183)">
    <g
       transform="matrix(4.7609464,0,0,4.7609464,-696.12274,-2965.6673)"
       id="g4264"
       style="fill:none;fill-opacity:1">
      <g
         transform="matrix(0.92804706,0,0,0.9397211,-112.92452,622.54502)"
         id="g4276"
         style="fill:#000000;fill-opacity:1">
        <path
           sodipodi:nodetypes="csccccccc"
           id="path4183"
           d="m 329.64286,38.43361 c -4.27679,1.586819 -7.60036,7.264154 -5.32917,11.459975 2.26009,4.175306 8.12405,4.409707 8.45565,10.241968 1.75916,11.985031 0.33148,24.268632 -2.81179,35.935228 -2.71363,18.881609 -12.83801,31.838709 -24.12137,46.088399 -2.36488,3.21279 4.97495,3.17409 6.90223,1.76607 22.00034,-13.6012 31.23054,-36.66188 35.1944,-61.266808 0.39159,-13.446786 3.78825,-28.719025 -5.76564,-39.743144 -3.30306,-3.883897 -7.70717,-4.953453 -12.52431,-4.481688 z"
           style="fill:#000000;fill-opacity:1;stroke:#000000;stroke-width:1px;stroke-linecap:butt;stroke-linejoin:miter;stroke-opacity:1" />
        <path
           id="path4185"
           d="m 365.35714,21.647895 c -6.89702,8.835174 -15.15753,16.588949 -22.14285,25.357143 -0.54906,0.740704 -0.52433,2.145044 0,2.857143 1.39521,1.894828 4.41006,0.317949 6.39304,-0.52485 6.86639,-2.918332 13.65671,-6.558086 20.74981,-8.403721 5.67734,-1.867847 10.69965,1.314897 16.07143,2.142848 4.27797,0.05654 5.72794,-2.862251 4.64286,-6.785715 -1.38307,-3.41699 -3.74982,-7.015223 -6.42857,-9.642857 -5.02898,-3.978354 -12.95291,-5.906888 -19.28572,-4.999991 z"
           style="fill:#000000;fill-opacity:1;stroke:#000000;stroke-width:1px;stroke-linecap:butt;stroke-linejoin:miter;stroke-opacity:1"
           sodipodi:nodetypes="ccssccccc" />
        <path
           id="path4189"
           d="m 345.71429,75.93361 c -0.90776,1.359155 -1.19381,4.352395 -0.35715,5.714285 0.92941,1.512856 3.75929,1.932443 6.00317,1.81383 9.49902,-1.085239 18.54386,-4.746643 27.52249,-7.874444 4.96113,-2.209873 11.17691,-3.810282 13.26006,-9.296532 -0.3183,-1.909518 -1.95405,-4.012313 -3.80575,-5.353902 -2.41236,-2.705822 -5.353,-4.255181 -9.0514,-3.217526 -10.35558,7.572274 -22.56053,11.819336 -33.57142,18.214289 z"
           style="fill:#000000;fill-opacity:1;stroke:#000000;stroke-width:1px;stroke-linecap:butt;stroke-linejoin:miter;stroke-opacity:1"
           sodipodi:nodetypes="cscccccc" />
        <path
           id="path4191"
           d="m 363.20667,85.777741 c 0.26968,13.014026 -0.57322,26.529609 0.36476,39.084439 0.0977,1.30791 2.03307,2.69687 3.21428,2.5 3.10451,-0.51742 7.04058,-2.42282 9.64286,-4.64286 9.69383,-10.85904 5.67881,-31.131201 0.97898,-43.282407 -1.10921,-2.404917 -4.40135,-4.42421 -6.69326,-4.931875 -5.02869,0.817165 -7.16396,6.704146 -7.50762,11.272703 z"
           style="fill:#000000;fill-opacity:1;stroke:#000000;stroke-width:1px;stroke-linecap:butt;stroke-linejoin:miter;stroke-opacity:1"
           sodipodi:nodetypes="csscccc" />
        <path
           id="path4193"
           d="m 415,32.005038 c -3.39322,2.365304 -0.15817,7.879549 0.32022,11.682868 1.11133,8.835301 1.72065,17.751205 1.31502,26.661949 0.85697,15.269844 -3.51046,28.04065 -14.73411,38.685685 -2.68894,2.09815 -8.41545,2.95751 -8.68684,5.4695 -0.37517,3.47259 7.03831,-0.0754 10.14091,-0.8899 24.16941,-6.40423 28.3157,-26.65238 28.23352,-49.620458 C 432.05588,51.722662 427.86436,41.76242 419.28571,33.076467 418.19392,32.172672 416.08113,31.251415 415,32.005038 z"
           style="fill:#000000;fill-opacity:1;stroke:#000000;stroke-width:1px;stroke-linecap:butt;stroke-linejoin:miter;stroke-opacity:1"
           sodipodi:nodetypes="csccscccs" />
        <path
           id="path4195"
           d="m 451.78572,13.43361 c -2.28772,0.08879 -4.92811,0.569984 -6.86744,1.856294 -6.03549,5.465002 -13.43519,10.657369 -18.13257,17.42942 -0.93189,1.685795 -1.658,6.365917 -0.33551,6.624119 1.5411,0.300882 3.49094,-2.218163 5.44349,-2.338405 8.94492,-0.55085 18.11699,0.140423 27.14588,-0.469001 3.06674,-0.206996 6.85431,0.447699 9.17472,-0.95957 1.92884,-1.169793 3.84471,-4.649601 3.57143,-6.785715 -3.12803,-7.512983 -12.20874,-13.95968 -20,-15.357142 z"
           style="fill:#000000;fill-opacity:1;stroke:#000000;stroke-width:1px;stroke-linecap:butt;stroke-linejoin:miter;stroke-opacity:1"
           sodipodi:nodetypes="cccsssscc" />
        <path
           id="path4197"
           d="m 429.64286,61.290752 c -1.4297,1.041662 -2.14286,3.874578 -2.14286,5.714286 0,1.25553 0.97622,3.027457 2.14286,3.571429 13.32569,2.980175 28.29677,0.127869 41.42857,-2.857143 3.77166,-2.153327 5.47994,-7.786872 3.92857,-11.785714 -3.01405,-3.835367 -9.43471,-4.413293 -14.02843,-3.894775 -8.05552,1.900415 -15.77551,5.74533 -23.8414,7.949775 -2.44031,0.666948 -5.70695,0.005 -7.48731,1.302142 z"
           style="fill:#000000;fill-opacity:1;stroke:#000000;stroke-width:1px;stroke-linecap:butt;stroke-linejoin:miter;stroke-opacity:1"
           sodipodi:nodetypes="csccccss" />
        <path
           id="path4199"
           d="m 451.78572,68.076467 c -1.11603,0.46076 -2.52638,1.580335 -2.85715,2.857143 -2.18553,8.436383 -1.87522,17.796157 -4.87357,26.270348 -1.3799,3.900002 -0.23775,8.666072 2.58459,11.566972 5.61668,2.35059 10.45226,0.39574 14.43184,-3.90875 5.41188,-9.168381 1.78176,-22.207311 -1.69368,-31.476623 -1.35011,-3.279981 -3.95341,-5.750062 -7.59203,-5.30909 z"
           style="fill:#000000;fill-opacity:1;stroke:#000000;stroke-width:1px;stroke-linecap:butt;stroke-linejoin:miter;stroke-opacity:1"
           sodipodi:nodetypes="csscccc" />
        <path
           id="path4201"
           d="m 369.28571,123.07647 c 0.20262,7.09677 5.27409,12.31351 4.93456,19.62543 -0.19607,16.79178 -0.43316,33.58304 -0.64884,50.37457 2.31894,1.00271 4.50204,2.85405 7.1808,2.5 5.77532,0.58544 6.48125,-6.43324 6.36396,-10.92391 -0.0524,-12.35009 -0.34167,-24.71163 -0.2468,-37.05454 0.91517,-4.41669 2.0613,-9.07828 0.46787,-13.49441 -1.27698,-4.50475 -5.14873,-7.52303 -6.98012,-11.74143 -4.26095,-0.89325 -7.3425,-1.35734 -11.07143,0.71429 z"
           style="fill:#000000;fill-opacity:1;stroke:#000000;stroke-width:1px;stroke-linecap:butt;stroke-linejoin:miter;stroke-opacity:1"
           sodipodi:nodetypes="ccccccccc" />
        <path
           id="path4203"
           d="m 378.92857,124.1479 c -2.27706,4.3 2.18834,9.60928 6.80704,8.49729 9.55956,-3.74465 18.36532,-9.13203 28.93363,-8.89087 4.79858,-0.86244 7.14527,3.72389 6.24403,7.87103 1.4595,24.05242 0.40679,48.23653 -0.13904,72.17637 5.29239,1.61652 10.73899,3.3396 16.33845,3.87509 3.57767,-1.95844 1.90917,-7.47562 2.62728,-11.0074 0.70377,-22.37672 0.0438,-58.68215 -5.5579,-77.96997 -2.58472,-3.89416 -7.2913,-6.29658 -11.9012,-4.56526 -4.60336,0.94834 -8.29687,4.74909 -13.24176,4.22663 -6.8859,0.43386 -13.9869,0.12751 -20.57679,2.50963 -3.2431,0.88336 -6.4891,1.83177 -9.53374,3.27746 z"
           style="fill:#000000;fill-opacity:1;stroke:#000000;stroke-width:1px;stroke-linecap:butt;stroke-linejoin:miter;stroke-opacity:1"
           sodipodi:nodetypes="cccccccccccc" />
        <path
           id="path4205"
           d="m 382.14286,143.79075 c -0.46832,0.78052 -0.41368,2.72872 0.35714,3.21429 5.00531,2.417 11.54399,2.38194 16.78571,0.71428 2.94608,-1.25535 5.52016,-3.85932 7.69128,-6.44269 2.17151,-1.5463 2.06919,-3.90328 0.88015,-6.05731 -1.5132,-0.63973 -4.63855,0.14509 -6.74668,1.0294 -3.40104,1.42667 -6.58972,3.47527 -10.03903,4.68489 -3.3481,0.45368 -6.35515,0.45343 -8.92857,2.85714 z"
           style="fill:#000000;fill-opacity:1;stroke:#000000;stroke-width:1px;stroke-linecap:butt;stroke-linejoin:miter;stroke-opacity:1"
           sodipodi:nodetypes="cccccscc" />
        <path
           id="path4207"
           d="m 385,165.93361 c -0.49622,0.74022 -1.14244,2.26562 -0.71429,2.85714 3.59291,2.43018 9.10618,1.80695 13.21429,1.07143 3.49074,-0.89072 7.00262,-2.70338 10,-4.64286 1.05024,-0.67957 2.24833,-2.15957 2.14286,-3.21428 -0.13262,-1.32624 -1.47693,-3.69196 -2.85715,-3.92857 -7.83234,-0.2867 -15.12134,4.21183 -21.78571,7.85714 z"
           style="fill:#000000;fill-opacity:1;stroke:#000000;stroke-width:1px;stroke-linecap:butt;stroke-linejoin:miter;stroke-opacity:1"
           sodipodi:nodetypes="cccsscc" />
        <path
           id="path4209"
           d="m 358.21429,192.00504 c -1.52969,2.76313 -1.49089,6.38408 -0.0965,9.17524 0.86551,1.34635 1.73102,2.69269 2.59653,4.03904 2.97666,0.0636 6.05811,0.2203 8.76636,-1.24787 16.8798,-6.17432 33.76216,-12.34457 50.68787,-18.39049 1.83662,-0.33333 3.19029,-2.28558 0.98617,-3.34585 -4.02727,-3.1641 -11.1397,-2.78169 -15.73034,-0.77809 -11.55847,5.0468 -23.52389,8.99834 -35.56755,12.69091 -3.2578,-0.24947 -6.85929,0.78151 -9.75546,-1.19929 -0.62903,-0.3145 -1.25806,-0.62902 -1.88705,-0.9436 l -3e-5,0 z"
           style="fill:#000000;fill-opacity:1;stroke:#000000;stroke-width:1px;stroke-linecap:butt;stroke-linejoin:miter;stroke-opacity:1"
           sodipodi:nodetypes="ccccccccccc" />
        <path
           id="path4211"
           d="m 382.14286,193.79075 c -2.06967,0.61548 -4.55534,1.8371 -5.71429,3.57143 -1.42219,2.12827 -0.40747,5.80306 -1.93729,8.04983 -6.28512,9.23059 -14.22308,17.58739 -20.91985,26.59303 -0.51461,0.69203 -1.19067,2.43026 -0.71429,2.5 1.0031,0.14686 3.92685,-0.36019 5.26301,-1.68394 6.22952,-5.35475 11.29314,-12.43445 17.95128,-17.24463 2.77057,-1.1845 5.89535,-2.21656 8.93878,-2.4833 2.47182,-0.21664 5.26157,0.97095 7.48979,0.34044 1.5779,-0.44649 3.44871,-2.0045 3.92857,-3.57143 0.71642,-4.21219 1.48428,-9.84475 -1.07143,-13.57143 -3.79767,-2.37234 -8.79173,-3.39515 -13.21428,-2.5 z"
           style="fill:#000000;fill-opacity:1;stroke:#000000;stroke-width:1px;stroke-linecap:butt;stroke-linejoin:miter;stroke-opacity:1"
           sodipodi:nodetypes="cssssccssccc" />
        <path
           id="path4213"
           d="m 410.35714,197.71932 c -0.82792,0.50253 -2.62772,1.86655 -2.14285,2.85715 3.47509,7.09964 9.57524,14.14338 13.72544,21.60882 2.57966,4.59698 4.53331,10.59467 9.84598,12.67689 1.9483,0.52951 4.50985,0.44643 6.46796,-0.81527 2.45088,-1.55033 4.2639,-4.90297 4.60347,-7.75615 -1.56443,-9.77537 -9.37653,-17.02143 -17.17072,-22.33265 -4.67865,-3.0982 -10.20063,-3.99264 -15.32928,-6.23879 z"
           style="fill:#000000;fill-opacity:1;stroke:#000000;stroke-width:1px;stroke-linecap:butt;stroke-linejoin:miter;stroke-opacity:1"
           sodipodi:nodetypes="cscccccc" />
      </g>
    </g>
  </g>
</svg>
