<?xml version="1.0" encoding="UTF-8" standalone="no"?>
<!-- Created with Inkscape (http://www.inkscape.org/) -->

<svg
   xmlns:dc="http://purl.org/dc/elements/1.1/"
   xmlns:cc="http://creativecommons.org/ns#"
   xmlns:rdf="http://www.w3.org/1999/02/22-rdf-syntax-ns#"
   xmlns:svg="http://www.w3.org/2000/svg"
   xmlns="http://www.w3.org/2000/svg"
   xmlns:sodipodi="http://sodipodi.sourceforge.net/DTD/sodipodi-0.dtd"
   xmlns:inkscape="http://www.inkscape.org/namespaces/inkscape"
   width="1000"
   height="1000"
   id="svg3173"
   version="1.1"
   inkscape:version="0.47 r22583"
   sodipodi:docname="8d08.svg"
   inkscape:export-filename="E:\chinese\yan\8d08.png"
   inkscape:export-xdpi="18.005705"
   inkscape:export-ydpi="18.005705">
  <title
     id="title2826">Zeng</title>
  <defs
     id="defs3175">
    <inkscape:perspective
       sodipodi:type="inkscape:persp3d"
       inkscape:vp_x="0 : 526.18109 : 1"
       inkscape:vp_y="0 : 1000 : 0"
       inkscape:vp_z="744.09448 : 526.18109 : 1"
       inkscape:persp3d-origin="372.04724 : 350.78739 : 1"
       id="perspective3181" />
    <inkscape:perspective
       id="perspective3191"
       inkscape:persp3d-origin="0.5 : 0.33333333 : 1"
       inkscape:vp_z="1 : 0.5 : 1"
       inkscape:vp_y="0 : 1000 : 0"
       inkscape:vp_x="0 : 0.5 : 1"
       sodipodi:type="inkscape:persp3d" />
    <inkscape:perspective
       id="perspective4006"
       inkscape:persp3d-origin="0.5 : 0.33333333 : 1"
       inkscape:vp_z="1 : 0.5 : 1"
       inkscape:vp_y="0 : 1000 : 0"
       inkscape:vp_x="0 : 0.5 : 1"
       sodipodi:type="inkscape:persp3d" />
    <inkscape:perspective
       id="perspective4034"
       inkscape:persp3d-origin="0.5 : 0.33333333 : 1"
       inkscape:vp_z="1 : 0.5 : 1"
       inkscape:vp_y="0 : 1000 : 0"
       inkscape:vp_x="0 : 0.5 : 1"
       sodipodi:type="inkscape:persp3d" />
    <inkscape:perspective
       id="perspective4081"
       inkscape:persp3d-origin="0.5 : 0.33333333 : 1"
       inkscape:vp_z="1 : 0.5 : 1"
       inkscape:vp_y="0 : 1000 : 0"
       inkscape:vp_x="0 : 0.5 : 1"
       sodipodi:type="inkscape:persp3d" />
    <inkscape:perspective
       id="perspective4147"
       inkscape:persp3d-origin="0.5 : 0.33333333 : 1"
       inkscape:vp_z="1 : 0.5 : 1"
       inkscape:vp_y="0 : 1000 : 0"
       inkscape:vp_x="0 : 0.5 : 1"
       sodipodi:type="inkscape:persp3d" />
    <inkscape:perspective
       id="perspective3858"
       inkscape:persp3d-origin="0.5 : 0.33333333 : 1"
       inkscape:vp_z="1 : 0.5 : 1"
       inkscape:vp_y="0 : 1000 : 0"
       inkscape:vp_x="0 : 0.5 : 1"
       sodipodi:type="inkscape:persp3d" />
    <inkscape:perspective
       id="perspective3876"
       inkscape:persp3d-origin="0.5 : 0.33333333 : 1"
       inkscape:vp_z="1 : 0.5 : 1"
       inkscape:vp_y="0 : 1000 : 0"
       inkscape:vp_x="0 : 0.5 : 1"
       sodipodi:type="inkscape:persp3d" />
    <inkscape:perspective
       id="perspective3901"
       inkscape:persp3d-origin="0.5 : 0.33333333 : 1"
       inkscape:vp_z="1 : 0.5 : 1"
       inkscape:vp_y="0 : 1000 : 0"
       inkscape:vp_x="0 : 0.5 : 1"
       sodipodi:type="inkscape:persp3d" />
    <inkscape:perspective
       id="perspective4392"
       inkscape:persp3d-origin="0.5 : 0.33333333 : 1"
       inkscape:vp_z="1 : 0.5 : 1"
       inkscape:vp_y="0 : 1000 : 0"
       inkscape:vp_x="0 : 0.5 : 1"
       sodipodi:type="inkscape:persp3d" />
    <inkscape:perspective
       id="perspective3767"
       inkscape:persp3d-origin="0.5 : 0.33333333 : 1"
       inkscape:vp_z="1 : 0.5 : 1"
       inkscape:vp_y="0 : 1000 : 0"
       inkscape:vp_x="0 : 0.5 : 1"
       sodipodi:type="inkscape:persp3d" />
    <inkscape:perspective
       id="perspective3810"
       inkscape:persp3d-origin="0.5 : 0.33333333 : 1"
       inkscape:vp_z="1 : 0.5 : 1"
       inkscape:vp_y="0 : 1000 : 0"
       inkscape:vp_x="0 : 0.5 : 1"
       sodipodi:type="inkscape:persp3d" />
  </defs>
  <sodipodi:namedview
     id="base"
     pagecolor="#ffffff"
     bordercolor="#666666"
     borderopacity="1.0"
     inkscape:pageopacity="0.0"
     inkscape:pageshadow="2"
     inkscape:zoom="0.49497475"
     inkscape:cx="320.67944"
     inkscape:cy="518.12327"
     inkscape:document-units="px"
     inkscape:current-layer="layer1"
     showgrid="false"
     inkscape:window-width="1440"
     inkscape:window-height="840"
     inkscape:window-x="-4"
     inkscape:window-y="-4"
     inkscape:window-maximized="1" />
  <metadata
     id="metadata3178">
    <rdf:RDF>
      <cc:Work
         rdf:about="">
        <dc:format>image/svg+xml</dc:format>
        <dc:type
           rdf:resource="http://purl.org/dc/dcmitype/StillImage" />
        <dc:title>Zeng</dc:title>
        <dc:date>2010-08-13</dc:date>
        <dc:creator>
          <cc:Agent>
            <dc:title>Alex Amies</dc:title>
          </cc:Agent>
        </dc:creator>
        <dc:rights>
          <cc:Agent>
            <dc:title>@ Alex Amies 2010</dc:title>
          </cc:Agent>
        </dc:rights>
        <dc:publisher>
          <cc:Agent>
            <dc:title>chinesenotes.com</dc:title>
          </cc:Agent>
        </dc:publisher>
        <dc:source>Yan Qin Ceremonial Inscription</dc:source>
        <dc:language>Chinese 中文</dc:language>
        <dc:description>Tracing from Tang Dynasty Ceremonial Inscription by Yan Zhenqing 颜真卿 (709－785)</dc:description>
        <cc:license
           rdf:resource="http://creativecommons.org/licenses/by/3.0/" />
      </cc:Work>
      <cc:License
         rdf:about="http://creativecommons.org/licenses/by/3.0/">
        <cc:permits
           rdf:resource="http://creativecommons.org/ns#Reproduction" />
        <cc:permits
           rdf:resource="http://creativecommons.org/ns#Distribution" />
        <cc:requires
           rdf:resource="http://creativecommons.org/ns#Notice" />
        <cc:requires
           rdf:resource="http://creativecommons.org/ns#Attribution" />
        <cc:permits
           rdf:resource="http://creativecommons.org/ns#DerivativeWorks" />
      </cc:License>
    </rdf:RDF>
  </metadata>
  <g
     inkscape:label="Layer 1"
     inkscape:groupmode="layer"
     id="layer1"
     transform="translate(0,-52.362183)">
    <path
       style="fill:#000000;stroke:#000000;stroke-width:4.75137663000000020px;stroke-linecap:butt;stroke-linejoin:miter;stroke-opacity:1;fill-opacity:1"
       d="M 726.84375 52.46875 C 720.71214 52.592671 715.01465 54.264544 710.53125 59.09375 C 708.34101 67.42097 711.80432 75.84846 711.3125 84.28125 C 712.35719 95.21845 714.79662 106.40186 711.4375 117.21875 C 706.25531 138.79926 694.48286 158.04267 688.4375 179.34375 C 684.93849 184.1426 681.4979 195.17769 691.25 194.5 C 699.09144 192.87266 706.19939 188.80057 713.875 186.5 C 749.053 165.18185 791.90947 155.39496 823.84375 128.96875 C 832.45686 123.11786 833.50258 111.62629 829.46875 102.71875 C 823.6677 88.99677 812.63851 77.79328 800.21875 69.84375 C 785.89933 62.30892 769.46279 61.02943 754.09375 56.625 C 745.69796 55.379194 735.80534 52.287634 726.84375 52.46875 z M 514.5625 106.4375 C 505.22023 106.7225 497.28192 109.87274 495.03125 120.9375 C 510.96599 146.36549 529.37102 170.80592 549.40625 193.375 C 562.19714 209.46815 566.84396 222.65508 586.34375 228.84375 C 596.1448 231.45558 606.00153 234.40975 616.125 235.40625 C 628.00154 236.82378 638.68028 224.7214 636.25 213.125 C 633.5602 195.75824 619.39481 183.68986 607.65625 171.90625 C 590.83006 156.92583 580.99993 135.84324 564.03125 121.03125 C 554.23605 111.88518 540.82303 108.27581 527.75 107.375 C 523.34115 106.79719 518.80899 106.30795 514.5625 106.4375 z M 319.9375 123.0625 C 305.09832 123.06641 289.89603 126.16667 276.25 129.78125 C 249.55937 141.85659 214.80487 140.91851 191.9375 160.4375 C 175.74295 174.15905 184.00509 205.20497 206.46875 204.90625 C 230.56792 207.26688 233.01642 175.83917 255.65625 172.8125 C 275.55431 167.27396 298.98653 155.95922 318.90625 165.75 C 336.39003 181.91362 338.07535 207.84361 341.71875 230.03125 C 347.50136 289.37129 335.38379 348.46495 335.46875 407.8125 C 334.11953 436.67956 331.09196 479.97127 328.4375 524.6875 C 323.54244 524.6804 318.65262 525.08117 314 525.78125 C 287.77867 529.54886 261.97835 535.94982 237.25 545.5 C 220.57951 551.69346 203.92631 558.25953 186.4375 561.65625 C 187.59107 523.22617 187.09843 484.76581 186.40625 446.3125 C 201.97116 449.68439 221.51234 444.2836 235.96875 440.75 C 251.33166 435.64246 269.83739 431.9053 275.53125 415.53125 C 276.15088 404.24403 269.54991 393.19303 260.15625 387.21875 C 244.83577 380.50985 225.76083 390.62798 212.96875 399.4375 C 205.7047 404.5592 198.49236 411.39963 189.0625 411.53125 C 188.02191 411.64333 186.90439 411.70973 185.78125 411.78125 C 185.30338 384.52396 184.95473 357.28387 185.25 330.03125 C 187.87885 333.53093 191.58417 336.18351 196 337.09375 C 208.33547 340.5309 221.39178 337.1972 232.96875 332.625 C 251.4776 318.96736 269.7137 301.06024 279.6875 280 C 282.57353 274.09252 285.26629 266.28006 280.71875 260.46875 C 272.66764 250.15997 257.10579 247.12621 245.34375 252.34375 C 225.80709 264.63993 217.84215 287.4426 197.21875 298.59375 C 193.20778 300.79781 188.83929 303.18149 185.65625 306.5625 C 185.71157 304.44049 185.77851 302.30943 185.84375 300.1875 C 185.49357 273.78657 185.23104 247.3421 183.46875 221 C 180.99181 202.83325 174.62915 182.23566 158 172.3125 C 154.81002 170.76888 151.05389 171.207 147.8125 172.3125 C 128.27318 178.39764 124.08357 200.98163 121.59375 218.59375 C 117.97435 256.57982 128.01409 294.2432 125.625 332.28125 C 125.29815 412.52481 125.85765 493.35114 139.125 572.6875 C 129.71808 576.62329 121.35753 582.34039 115.5625 591.4375 C 109.84835 603.24519 119.52033 616.57489 129.96875 621.875 C 142.33223 629.36152 156.44835 629.72993 170.3125 627.78125 C 157.81038 634.39409 148.44662 646.84759 142.8125 659.5625 C 127.20223 700.25434 110.56369 740.54574 94.8125 781.1875 C 93.310827 790.60073 81.85258 798.85995 86.71875 808.65625 C 93.667923 815.28665 105.42256 810.71624 111.71875 805.21875 C 146.15359 768.69597 176.95432 729.02209 208.40625 689.9375 C 217.34739 679.98926 230.94346 671.78053 232.59375 657.34375 C 232.99334 644.29652 221.18516 635.23984 210.96875 629.3125 C 204.82922 626.06233 197.98423 623.89988 191.03125 623.375 C 232.25602 608.92151 272.53364 588.33547 317.1875 589.4375 C 319.8026 589.58807 322.45827 589.59494 325.09375 589.46875 C 323.79871 621.00238 323.2551 649.97014 324.3125 671.1875 C 331.12079 695.39913 365.60589 694.12699 379.15625 676.28125 C 392.81051 660.94433 408.47665 646.53413 402.9375 623.65625 C 404.07783 525.86119 405.11443 356.75012 408.03125 259 C 410.08879 232.57935 420.07384 202.20361 403.09375 178.625 C 390.44321 165.61093 377.9962 152.44052 366.0625 138.75 C 353.10501 127.03546 336.75523 123.05807 319.9375 123.0625 z M 868.5 179.84375 C 865.46168 179.97162 862.55123 180.86558 859.875 182.8125 C 858.14621 199.75781 841.97156 201.46169 827.59375 205.4375 C 786.51112 216.19381 743.36761 211.17569 702.03125 220.65625 C 656.82898 228.14067 611.8757 240.66106 565.75 239.875 C 545.86919 238.08434 525.68934 224.10932 505.875 233.40625 C 489.95494 242.29935 498.95051 268.13679 516.59375 267.5625 C 552.20902 268.90146 586.87152 264.36746 621.5 258.21875 C 618.47148 263.69505 616.31997 270.0253 615 276.5625 C 614.22735 285.93878 614.32792 295.30567 615.09375 304.65625 C 602.66196 304.93928 589.91576 306.04427 580.53125 314.84375 C 574.00951 321.87223 575.17978 332.25302 575.78125 341.0625 C 580.07805 362.23001 604.38779 359.8387 621.5625 358.25 C 622.61435 369.12359 623.6104 380.00028 624.90625 390.84375 C 623.32264 405.93668 628.93983 413.25779 638.625 417.5 C 631.53623 420.08878 624.53149 422.88521 617.59375 425.84375 C 597.53757 433.60522 576.37456 441.97244 554.4375 438.53125 C 546.53653 437.97239 537.86733 438.1142 529.90625 440.1875 C 528.18545 427.44053 526.888 414.62207 523.9375 402.0625 C 515.99804 365.34257 513.94455 327.12789 499.75 291.96875 C 493.02495 273.18119 486.28656 251.40607 467.71875 241.03125 C 458.07968 236.29304 443.82533 235.33208 437.375 245.65625 L 436.28125 246.96875 C 430.9933 252.7076 424.78615 260.95093 429.53125 268.90625 C 435.11878 276.87236 439.79571 285.32424 442.90625 294.59375 C 454.86299 324.66739 461.70209 348.53859 465.90625 380.8125 C 466.45437 395.27199 469.43055 416.73768 473.28125 430.9375 C 476.46572 448.53152 478.58876 469.41881 494.21875 480.78125 C 502.21801 484.46009 511.455 483.26419 519.90625 481.46875 C 529.13366 486.16583 540.72052 486.71399 550.78125 484.71875 C 573.88572 481.18809 596.68846 475.62209 618.21875 466.375 C 650.43884 453.41534 683.9151 437.95253 719.5625 441.5 C 733.73034 442.706 748.32073 443.0997 761.375 449.40625 C 770.30457 453.9185 782.71545 453.05643 788 444 C 791.97792 443.29825 795.68201 442.10443 798.71875 440.46875 C 815.79302 427.23688 822.0057 405.21554 834.90625 388.5 C 858.20843 351.51505 877.76316 312.38772 899.09375 274.28125 C 909.60755 252.11185 917.47509 224.50038 906.34375 201.15625 C 897.22163 193.39677 881.66604 179.28967 868.5 179.84375 z M 814.90625 227.21875 C 826.73906 226.81071 841.31741 232.62878 838.5 236.21875 C 836.45102 281.66833 805.26151 317.71452 787.375 357.65625 C 778.58484 374.31757 766.04443 389.86844 758.96875 407.40625 C 738.468 400.71982 716.07384 400.23693 694.75 402.5 C 689.13191 403.4028 683.56899 404.49142 678.03125 405.75 C 681.52102 394.05379 680.31005 378.63018 679.40625 368.28125 C 678.69861 358.54666 679.02227 348.7537 679.5625 338.9375 C 683.86519 337.83261 688.21481 336.98911 692.71875 336.625 C 702.45509 336.615 712.87004 340.39858 722 335.28125 C 731.85264 331.35243 736.0246 319.53757 733.8125 309.71875 C 724.83034 291.31453 700.10869 290.87095 681 293.90625 C 680.5411 284.70099 679.26771 275.56699 676.53125 266.53125 C 674.882 260.51596 672.2512 254.19218 668.125 249.375 C 687.77115 245.56762 707.49869 241.84739 727.53125 239 C 753.24104 236.76614 780.0952 238.45579 804.75 230 C 807.33747 228.17279 810.96198 227.35476 814.90625 227.21875 z M 757.6875 508.25 C 749.15753 508.1671 740.60776 508.78622 732.34375 509.5625 C 682.68341 516.32875 634.61062 531.01152 585.78125 541.625 C 578.81612 542.48082 571.05104 542.27637 564.53125 545.0625 C 560.05726 540.37409 554.7773 536.54711 548.5625 534.125 C 543.58016 532.4968 538.0611 532.00829 533.03125 533.75 C 518.70537 539.56164 509.98328 556.40806 513.6875 571.5 C 515.08583 598.67521 515.84972 625.92739 516 653.15625 C 515.15929 691.55906 508.86465 730.7716 519.71875 768.40625 C 525.48392 793.91549 526.36848 817.63097 532.53125 845.96875 C 530.06966 859.45772 537.99814 873.73646 551.75 876.71875 C 559.49149 879.68976 568.47065 878.72048 575.0625 874.40625 C 584.76345 875.6205 594.61422 875.5909 604.3125 874.09375 C 625.52312 871.15545 646.79659 868.74015 665.6875 857.15625 C 679.52512 849.18695 698.14379 852.86457 703.65625 836.03125 C 703.17788 825.65381 696.2135 816.69787 688.78125 810 C 672.59498 803.28792 651.70175 807.16368 631.75 810.5 C 615.65526 813.07802 598.99351 810.9545 582.53125 810.71875 C 581.97339 804.45088 581.73383 798.1882 582.40625 791.90625 C 582.35248 768.89413 582.17992 745.85424 582.34375 722.84375 C 600.70103 729.23415 625.46861 733.48059 645.28125 731.8125 C 663.03881 729.93628 679.92283 723.51038 696.1875 716.46875 C 706.93022 711.56114 712.3944 699.71185 714.34375 688.65625 C 716.16656 679.17906 711.99362 669.10544 703.90625 663.8125 C 694.09447 657.0264 681.02333 653.1675 669.46875 657.71875 C 645.8946 664.06274 628.82607 683.10746 606.03125 690.75 C 598.4544 692.21033 590.3738 689.98714 582.84375 691.28125 C 583.08043 681.71685 583.38459 672.15467 583.84375 662.59375 C 584.60677 635.39901 584.82167 608.08301 582.6875 580.96875 C 582.5509 580.41088 582.3968 579.84167 582.25 579.28125 C 583.0143 579.21595 583.76326 579.15359 584.5 579.03125 C 615.75845 579.4774 644.34069 564.85172 674.375 558.3125 C 695.56229 557.45288 719.44911 532.72486 737.875 550.71875 C 753.79411 576.76133 743.21243 608.40615 747.5625 636.9375 C 752.88191 710.658 762.37179 785.6118 747.4375 858.8125 C 737.99703 881.17576 708.38943 854.77457 699.3125 854.9375 C 700.526 884.22113 709.34128 913.24524 722.65625 939.25 C 731.96938 961.11625 761.77181 972.4139 778 950.625 C 796.13258 931.96328 800.82496 904.63938 806.0625 880.15625 C 816.85473 808.92413 825.63165 737.31432 828.0625 665.25 C 827.9984 640.72872 834.60798 617.09566 837.8125 593 C 837.60297 563.73442 822.92389 533.72144 798.6875 516.875 C 786.03948 510.46546 771.90411 508.38817 757.6875 508.25 z M 298.84375 672.90625 C 290.33779 673.3353 297.12112 686.07811 297.40625 692.65625 C 305.7356 719.46941 311.20003 747.352 322.1875 773.25 C 332.60612 799.21494 352.31376 830.57778 384.375 824.375 C 415.09517 814.11245 419.97548 776.65295 414.625 748.71875 C 409.66508 733.2247 399.05898 718.82305 383.5625 712.6875 C 355.81789 698.41337 328.51709 682.93066 298.84375 672.90625 z "
       transform="translate(0,52.362183)"
       id="path10822" />
  </g>
</svg>
