<?xml version="1.0" encoding="UTF-8" standalone="no"?>
<!-- Created with Inkscape (http://www.inkscape.org/) -->

<svg
   xmlns:dc="http://purl.org/dc/elements/1.1/"
   xmlns:cc="http://creativecommons.org/ns#"
   xmlns:rdf="http://www.w3.org/1999/02/22-rdf-syntax-ns#"
   xmlns:svg="http://www.w3.org/2000/svg"
   xmlns="http://www.w3.org/2000/svg"
   xmlns:sodipodi="http://sodipodi.sourceforge.net/DTD/sodipodi-0.dtd"
   xmlns:inkscape="http://www.inkscape.org/namespaces/inkscape"
   width="1000"
   height="1000"
   id="svg3173"
   version="1.1"
   inkscape:version="0.47 r22583"
   sodipodi:docname="che.svg"
   inkscape:export-filename="E:\chinese\yan\che.png"
   inkscape:export-xdpi="18.005705"
   inkscape:export-ydpi="18.005705">
  <title
     id="title3696">Che</title>
  <defs
     id="defs3175">
    <inkscape:perspective
       sodipodi:type="inkscape:persp3d"
       inkscape:vp_x="0 : 526.18109 : 1"
       inkscape:vp_y="0 : 1000 : 0"
       inkscape:vp_z="744.09448 : 526.18109 : 1"
       inkscape:persp3d-origin="372.04724 : 350.78739 : 1"
       id="perspective3181" />
    <inkscape:perspective
       id="perspective3191"
       inkscape:persp3d-origin="0.5 : 0.33333333 : 1"
       inkscape:vp_z="1 : 0.5 : 1"
       inkscape:vp_y="0 : 1000 : 0"
       inkscape:vp_x="0 : 0.5 : 1"
       sodipodi:type="inkscape:persp3d" />
    <inkscape:perspective
       id="perspective4006"
       inkscape:persp3d-origin="0.5 : 0.33333333 : 1"
       inkscape:vp_z="1 : 0.5 : 1"
       inkscape:vp_y="0 : 1000 : 0"
       inkscape:vp_x="0 : 0.5 : 1"
       sodipodi:type="inkscape:persp3d" />
    <inkscape:perspective
       id="perspective4034"
       inkscape:persp3d-origin="0.5 : 0.33333333 : 1"
       inkscape:vp_z="1 : 0.5 : 1"
       inkscape:vp_y="0 : 1000 : 0"
       inkscape:vp_x="0 : 0.5 : 1"
       sodipodi:type="inkscape:persp3d" />
    <inkscape:perspective
       id="perspective4081"
       inkscape:persp3d-origin="0.5 : 0.33333333 : 1"
       inkscape:vp_z="1 : 0.5 : 1"
       inkscape:vp_y="0 : 1000 : 0"
       inkscape:vp_x="0 : 0.5 : 1"
       sodipodi:type="inkscape:persp3d" />
    <inkscape:perspective
       id="perspective4147"
       inkscape:persp3d-origin="0.5 : 0.33333333 : 1"
       inkscape:vp_z="1 : 0.5 : 1"
       inkscape:vp_y="0 : 1000 : 0"
       inkscape:vp_x="0 : 0.5 : 1"
       sodipodi:type="inkscape:persp3d" />
    <inkscape:perspective
       id="perspective3737"
       inkscape:persp3d-origin="0.5 : 0.33333333 : 1"
       inkscape:vp_z="1 : 0.5 : 1"
       inkscape:vp_y="0 : 1000 : 0"
       inkscape:vp_x="0 : 0.5 : 1"
       sodipodi:type="inkscape:persp3d" />
    <inkscape:perspective
       id="perspective3750"
       inkscape:persp3d-origin="0.5 : 0.33333333 : 1"
       inkscape:vp_z="1 : 0.5 : 1"
       inkscape:vp_y="0 : 1000 : 0"
       inkscape:vp_x="0 : 0.5 : 1"
       sodipodi:type="inkscape:persp3d" />
    <inkscape:perspective
       id="perspective3778"
       inkscape:persp3d-origin="0.5 : 0.33333333 : 1"
       inkscape:vp_z="1 : 0.5 : 1"
       inkscape:vp_y="0 : 1000 : 0"
       inkscape:vp_x="0 : 0.5 : 1"
       sodipodi:type="inkscape:persp3d" />
  </defs>
  <sodipodi:namedview
     id="base"
     pagecolor="#ffffff"
     bordercolor="#666666"
     borderopacity="1.0"
     inkscape:pageopacity="0.0"
     inkscape:pageshadow="2"
     inkscape:zoom="0.49497475"
     inkscape:cx="771.19728"
     inkscape:cy="511.57215"
     inkscape:document-units="px"
     inkscape:current-layer="layer1"
     showgrid="false"
     inkscape:window-width="1440"
     inkscape:window-height="840"
     inkscape:window-x="-4"
     inkscape:window-y="-4"
     inkscape:window-maximized="1" />
  <metadata
     id="metadata3178">
    <rdf:RDF>
      <cc:Work
         rdf:about="">
        <dc:format>image/svg+xml</dc:format>
        <dc:type
           rdf:resource="http://purl.org/dc/dcmitype/StillImage" />
        <dc:title>Che</dc:title>
        <dc:date>2010-08-05</dc:date>
        <dc:creator>
          <cc:Agent>
            <dc:title>Alex Amies</dc:title>
          </cc:Agent>
        </dc:creator>
        <dc:rights>
          <cc:Agent>
            <dc:title>@ Alex Amies 2010</dc:title>
          </cc:Agent>
        </dc:rights>
        <dc:publisher>
          <cc:Agent>
            <dc:title>chinesenotes.com</dc:title>
          </cc:Agent>
        </dc:publisher>
        <dc:source>Yan Qin Ceremonial Inscription</dc:source>
        <dc:language>Chinese 中文</dc:language>
        <dc:description>Tracing from Tang Dynasty Ceremonial Inscription by Yan Zhenqing 颜真卿 (709－785)</dc:description>
        <cc:license
           rdf:resource="http://creativecommons.org/licenses/by/3.0/" />
      </cc:Work>
      <cc:License
         rdf:about="http://creativecommons.org/licenses/by/3.0/">
        <cc:permits
           rdf:resource="http://creativecommons.org/ns#Reproduction" />
        <cc:permits
           rdf:resource="http://creativecommons.org/ns#Distribution" />
        <cc:requires
           rdf:resource="http://creativecommons.org/ns#Notice" />
        <cc:requires
           rdf:resource="http://creativecommons.org/ns#Attribution" />
        <cc:permits
           rdf:resource="http://creativecommons.org/ns#DerivativeWorks" />
      </cc:License>
    </rdf:RDF>
  </metadata>
  <g
     inkscape:label="Layer 1"
     inkscape:groupmode="layer"
     id="layer1"
     transform="translate(0,-52.362183)">
    <g
       transform="matrix(4.7418068,0,0,4.7418068,-1654.468,-3953.8655)"
       id="g4043"
       style="fill:none;fill-opacity:1">
      <path
         style="fill:#000000;fill-opacity:1;stroke:#000000;stroke-width:1.05136204px;stroke-linecap:butt;stroke-linejoin:miter;stroke-opacity:1"
         d="m 453.18862,848.1874 c -0.56978,0.006 -1.16021,0.0767 -1.77378,0.21479 -6.22077,2.54422 -7.74488,9.73145 -7.48311,15.79075 -0.1143,4.19841 -0.20732,8.39733 -0.29101,12.59657 -1.16326,0.31125 -2.32653,0.61788 -3.49212,0.90075 -5.7852,1.40397 -12.58903,-1.1599 -18.02182,0.74831 -2.59737,0.9123 -2.29595,5.32434 0.39494,7.19903 3.25573,2.2682 7.03358,3.70278 10.98909,3.88013 3.31704,-0.29575 6.63017,-0.82631 9.93591,-1.53127 -0.0645,4.41101 -0.11617,8.82241 -0.15937,13.23402 -4.3533,1.29528 -8.66337,2.69567 -12.90143,4.25429 l -0.37416,4.50372 c 4.45175,2.71711 9.08604,-0.12712 13.22016,-1.79456 -0.0392,4.98547 -0.0711,9.97341 -0.097,14.9593 -3.43663,1.03365 -6.82907,2.13001 -10.12299,3.36047 -3.03833,2.0543 -1.70998,5.54543 0.38109,7.88498 1.39345,1.26074 3.73887,2.38495 5.63312,2.25186 1.32915,-0.45362 2.67506,-0.92148 4.04642,-1.39962 -0.0249,5.56763 -0.045,11.13779 -0.0762,16.70536 -4.73653,1.53644 -9.47242,3.07667 -14.19712,4.64922 -0.68395,0.34806 -1.15284,0.65758 -1.47584,0.99775 -3.60897,-16.73701 -8.19693,-33.62802 -10.08141,-50.61493 -0.0921,-1.45563 2.9012,-2.53957 2.63295,-3.75541 -2.86948,-5.66755 -11.55035,-6.3263 -16.89936,-4.51066 -2.43969,1.99752 -3.05503,6.60503 -0.57509,9.41625 11.39517,19.52579 9.39149,37.46488 17.94561,58.8325 0.32736,2.43473 1.478,4.19642 4.03256,4.22657 2.22486,-1.27256 4.0877,-4.37553 4.21964,-7.47618 -0.2154,-1.08532 -0.43173,-2.16986 -0.65823,-3.25654 1.81863,0.18983 3.65059,0.19335 5.41832,-0.36723 3.21405,-0.68777 6.40658,-1.44392 9.5964,-2.23107 -0.0485,7.33907 -0.11232,14.67476 -0.20786,22.01282 -20.64654,3.97351 -41.34917,7.65436 -61.92275,11.96604 -0.40769,5.66177 5.26917,9.07329 8.93816,12.41639 4.92473,1.683 11.57469,5.9743 16.05405,1.3996 9.44338,-9.36225 23.72478,-15.66348 36.81968,-18.22964 -0.0297,1.82921 -0.0625,3.65853 -0.097,5.48762 0.0449,13.65442 1.96803,27.25402 3.10411,40.85912 1.12963,6.0127 1.25928,12.7433 4.98181,17.8694 6.02509,1.8603 3.1697,-9.6774 5.04417,-13.525 2.27427,-16.6487 5.16164,-33.2417 7.03274,-49.92897 0.0103,-1.55014 0.0269,-3.09904 0.0416,-4.64923 14.02201,-2.73224 28.05825,-5.38476 42.22415,-7.17824 6.67058,-0.52465 13.00861,2.566 17.52295,7.33761 3.85539,2.53384 12.86195,5.50756 14.20405,-1.12247 0.64072,-6.66271 -6.24425,-10.18379 -10.67729,-13.74675 -4.4205,-2.88411 -9.90953,-7.52603 -15.45816,-5.15503 -4.54155,3.97711 -10.58955,3.45419 -16.07484,5.03724 -10.50377,2.62889 -21.06602,4.9801 -31.65771,7.17131 0.10242,-7.72455 0.24026,-15.45187 0.37415,-23.17685 2.80081,-0.69237 5.60689,-1.35506 8.42543,-1.97471 0.10697,3.97034 0.98453,8.72217 4.26122,11.03066 4.12682,1.69107 8.62569,1.88754 11.4741,-2.12715 8.94291,-19.65612 18.87291,-39.23544 24.50719,-60.16283 -3.2621,-5.9131 -5.45056,-12.60286 -10.12299,-17.61302 -3.33214,-3.1085 -7.20125,-0.42359 -7.39996,3.54062 -2.00111,4.84986 -7.68655,4.85817 -12.0492,5.8202 -6.22245,1.58099 -12.5282,3.07623 -18.83249,4.62844 -0.0881,-4.56658 -0.22135,-9.13241 -0.39494,-13.69825 5.16708,-1.859 10.26374,-3.85049 15.24337,-5.73705 3.2047,-1.13748 5.09697,-3.89103 6.45072,-6.72787 -1.0989,-5.55601 -6.23286,-5.18928 -10.73272,-3.63763 -3.76173,1.58681 -7.57405,3.12895 -11.4256,4.57994 -0.0903,-6.15084 -0.0212,-12.35864 -1.91235,-18.17426 -1.973,-2.49982 -4.42712,-4.2925 -7.5039,-4.26121 z m 33.868,48.12749 c 0.49782,-0.005 1.00543,0.0289 1.51048,0.11086 4.06252,2.78444 0.42961,7.38279 -0.72059,10.69808 -5.17621,12.89972 -10.00722,25.92988 -14.84151,38.96068 -2.6505,-2.22695 -6.11613,-1.96003 -9.40239,-0.86611 -0.0922,0.0307 -0.18492,0.0594 -0.27715,0.0901 0.10293,-6.30778 0.19506,-12.61514 0.24944,-18.92257 3.019,-1.71021 5.99765,-3.64542 8.86887,-5.88949 0.52814,-0.83076 -0.2921,-2.77764 -1.12939,-3.38125 -1.18277,-0.85267 -3.26787,-1.31421 -5.03032,-0.74139 -0.88326,0.28708 -1.77034,0.56993 -2.66066,0.84532 0.0104,-4.6354 10e-4,-9.27121 -0.0485,-13.90612 4.56979,-1.0731 9.13167,-2.17509 13.66361,-3.40204 3.03636,-1.57969 6.3334,-3.56401 9.81811,-3.59605 z"
         id="path3991" />
    </g>
  </g>
</svg>
