<?xml version="1.0" encoding="UTF-8" standalone="no"?>
<!-- Created with Inkscape (http://www.inkscape.org/) -->

<svg
   xmlns:dc="http://purl.org/dc/elements/1.1/"
   xmlns:cc="http://creativecommons.org/ns#"
   xmlns:rdf="http://www.w3.org/1999/02/22-rdf-syntax-ns#"
   xmlns:svg="http://www.w3.org/2000/svg"
   xmlns="http://www.w3.org/2000/svg"
   xmlns:sodipodi="http://sodipodi.sourceforge.net/DTD/sodipodi-0.dtd"
   xmlns:inkscape="http://www.inkscape.org/namespaces/inkscape"
   width="1000"
   height="1000"
   id="svg3173"
   version="1.1"
   inkscape:version="0.47 r22583"
   sodipodi:docname="8ecd.svg"
   inkscape:export-filename="E:\chinese\yan\8ecd.png"
   inkscape:export-xdpi="18.005705"
   inkscape:export-ydpi="18.005705">
  <title
     id="title3655">Jun</title>
  <defs
     id="defs3175">
    <inkscape:perspective
       sodipodi:type="inkscape:persp3d"
       inkscape:vp_x="0 : 526.18109 : 1"
       inkscape:vp_y="0 : 1000 : 0"
       inkscape:vp_z="744.09448 : 526.18109 : 1"
       inkscape:persp3d-origin="372.04724 : 350.78739 : 1"
       id="perspective3181" />
    <inkscape:perspective
       id="perspective3191"
       inkscape:persp3d-origin="0.5 : 0.33333333 : 1"
       inkscape:vp_z="1 : 0.5 : 1"
       inkscape:vp_y="0 : 1000 : 0"
       inkscape:vp_x="0 : 0.5 : 1"
       sodipodi:type="inkscape:persp3d" />
    <inkscape:perspective
       id="perspective4006"
       inkscape:persp3d-origin="0.5 : 0.33333333 : 1"
       inkscape:vp_z="1 : 0.5 : 1"
       inkscape:vp_y="0 : 1000 : 0"
       inkscape:vp_x="0 : 0.5 : 1"
       sodipodi:type="inkscape:persp3d" />
    <inkscape:perspective
       id="perspective4034"
       inkscape:persp3d-origin="0.5 : 0.33333333 : 1"
       inkscape:vp_z="1 : 0.5 : 1"
       inkscape:vp_y="0 : 1000 : 0"
       inkscape:vp_x="0 : 0.5 : 1"
       sodipodi:type="inkscape:persp3d" />
    <inkscape:perspective
       id="perspective4081"
       inkscape:persp3d-origin="0.5 : 0.33333333 : 1"
       inkscape:vp_z="1 : 0.5 : 1"
       inkscape:vp_y="0 : 1000 : 0"
       inkscape:vp_x="0 : 0.5 : 1"
       sodipodi:type="inkscape:persp3d" />
    <inkscape:perspective
       id="perspective4147"
       inkscape:persp3d-origin="0.5 : 0.33333333 : 1"
       inkscape:vp_z="1 : 0.5 : 1"
       inkscape:vp_y="0 : 1000 : 0"
       inkscape:vp_x="0 : 0.5 : 1"
       sodipodi:type="inkscape:persp3d" />
    <inkscape:perspective
       id="perspective3737"
       inkscape:persp3d-origin="0.5 : 0.33333333 : 1"
       inkscape:vp_z="1 : 0.5 : 1"
       inkscape:vp_y="0 : 1000 : 0"
       inkscape:vp_x="0 : 0.5 : 1"
       sodipodi:type="inkscape:persp3d" />
    <inkscape:perspective
       id="perspective3750"
       inkscape:persp3d-origin="0.5 : 0.33333333 : 1"
       inkscape:vp_z="1 : 0.5 : 1"
       inkscape:vp_y="0 : 1000 : 0"
       inkscape:vp_x="0 : 0.5 : 1"
       sodipodi:type="inkscape:persp3d" />
    <inkscape:perspective
       id="perspective3778"
       inkscape:persp3d-origin="0.5 : 0.33333333 : 1"
       inkscape:vp_z="1 : 0.5 : 1"
       inkscape:vp_y="0 : 1000 : 0"
       inkscape:vp_x="0 : 0.5 : 1"
       sodipodi:type="inkscape:persp3d" />
  </defs>
  <sodipodi:namedview
     id="base"
     pagecolor="#ffffff"
     bordercolor="#666666"
     borderopacity="1.0"
     inkscape:pageopacity="0.0"
     inkscape:pageshadow="2"
     inkscape:zoom="0.49497475"
     inkscape:cx="474.21243"
     inkscape:cy="511.57215"
     inkscape:document-units="px"
     inkscape:current-layer="layer1"
     showgrid="false"
     inkscape:window-width="1440"
     inkscape:window-height="840"
     inkscape:window-x="-4"
     inkscape:window-y="-4"
     inkscape:window-maximized="1" />
  <metadata
     id="metadata3178">
    <rdf:RDF>
      <cc:Work
         rdf:about="">
        <dc:format>image/svg+xml</dc:format>
        <dc:type
           rdf:resource="http://purl.org/dc/dcmitype/StillImage" />
        <dc:title>Jun</dc:title>
        <dc:date>2010-08-05</dc:date>
        <dc:creator>
          <cc:Agent>
            <dc:title>Alex Amies</dc:title>
          </cc:Agent>
        </dc:creator>
        <dc:rights>
          <cc:Agent>
            <dc:title>@ Alex Amies 2010</dc:title>
          </cc:Agent>
        </dc:rights>
        <dc:publisher>
          <cc:Agent>
            <dc:title>chinesenotes.com</dc:title>
          </cc:Agent>
        </dc:publisher>
        <dc:source>Yan Qin Ceremonial Inscription</dc:source>
        <dc:language>Chinese 中文</dc:language>
        <dc:description>Tracing from Tang Dynasty Ceremonial Inscription by Yan Zhenqing 颜真卿 (709－785)</dc:description>
        <cc:license
           rdf:resource="http://creativecommons.org/licenses/by/3.0/" />
      </cc:Work>
      <cc:License
         rdf:about="http://creativecommons.org/licenses/by/3.0/">
        <cc:permits
           rdf:resource="http://creativecommons.org/ns#Reproduction" />
        <cc:permits
           rdf:resource="http://creativecommons.org/ns#Distribution" />
        <cc:requires
           rdf:resource="http://creativecommons.org/ns#Notice" />
        <cc:requires
           rdf:resource="http://creativecommons.org/ns#Attribution" />
        <cc:permits
           rdf:resource="http://creativecommons.org/ns#DerivativeWorks" />
      </cc:License>
    </rdf:RDF>
  </metadata>
  <g
     inkscape:label="Layer 1"
     inkscape:groupmode="layer"
     id="layer1"
     transform="translate(0,-52.362183)">
    <path
       style="fill:#000000;stroke:#000000;stroke-width:4.74180697999999980px;stroke-linecap:butt;stroke-linejoin:miter;stroke-opacity:1;fill-opacity:1"
       d="M 787.96875 16.8125 C 781.95114 16.73389 776.10563 18.417788 770.84375 22.6875 C 753.80027 36.517359 736.8495 36.070786 717.25 33.8125 C 593.13487 23.73507 472.91494 43.339552 348.15625 57.6875 C 333.93297 60.84351 315.25889 69.59668 311.6875 81.21875 C 307.37943 95.23814 319.74073 121.83967 344.09375 117.96875 C 368.34671 114.11371 386.43638 94.1257 409.75 90.90625 C 420.73618 91.67052 435.33034 91.32384 452.25 90.25 C 445.2191 104.33581 443.23159 121.60186 443.90625 137.21875 C 443.39073 156.15424 442.9712 175.09201 442.59375 194.03125 C 437.34725 195.43502 432.10072 196.81797 426.84375 198.09375 C 400.75158 204.42591 370.06522 192.86242 345.5625 201.46875 C 333.84796 205.58336 335.20743 225.48238 347.34375 233.9375 C 362.02761 244.16743 379.06629 250.63765 396.90625 251.4375 C 411.86665 250.10361 426.80937 247.71072 441.71875 244.53125 C 441.42776 264.4256 441.19484 284.32169 441 304.21875 C 421.36594 310.06065 401.92683 316.37663 382.8125 323.40625 L 381.125 343.71875 C 401.20307 355.97333 422.10448 343.1454 440.75 335.625 C 440.57301 358.11023 440.42933 380.60664 440.3125 403.09375 C 424.81278 407.75571 409.51231 412.70044 394.65625 418.25 C 380.9529 427.51521 386.94397 443.26075 396.375 453.8125 C 402.6597 459.49864 413.23789 464.56901 421.78125 463.96875 C 427.77595 461.92286 433.84621 459.81271 440.03125 457.65625 C 439.91881 482.76711 439.82844 507.88941 439.6875 533 C 418.32501 539.9296 396.96539 546.8763 375.65625 553.96875 C 372.57155 555.53855 370.45675 556.93454 369 558.46875 C 352.72295 482.98221 332.03056 406.80109 323.53125 330.1875 C 323.11587 323.62237 336.61612 318.73366 335.40625 313.25 C 322.46448 287.68848 283.31239 284.71743 259.1875 292.90625 C 248.18414 301.91535 245.40887 322.69593 256.59375 335.375 C 307.98777 423.43936 298.95087 504.34745 337.53125 600.71875 C 339.00771 611.69978 344.19729 619.64525 355.71875 619.78125 C 365.75322 614.04181 374.15491 600.04694 374.75 586.0625 C 373.77849 581.16756 372.80281 576.2761 371.78125 571.375 C 379.98356 572.23116 388.24601 572.24705 396.21875 569.71875 C 410.71461 566.61677 425.11343 563.20645 439.5 559.65625 C 439.28137 592.75661 438.99342 625.84171 438.5625 658.9375 C 345.4434 676.85865 252.0713 693.45989 159.28125 712.90625 C 157.44247 738.44168 183.04603 753.82826 199.59375 768.90625 C 221.80503 776.49694 251.79739 795.8513 272 775.21875 C 314.59112 732.99331 379.00248 704.57376 438.0625 693 C 437.92877 701.24998 437.78045 709.50052 437.625 717.75 C 437.82748 779.33374 446.5011 840.6699 451.625 902.03125 C 456.71983 929.14965 457.30457 959.5053 474.09375 982.625 C 501.26786 991.0151 488.38959 938.97859 496.84375 921.625 C 507.10109 846.53706 520.12356 771.69993 528.5625 696.4375 C 528.60879 689.44612 528.68362 682.46034 528.75 675.46875 C 591.99145 663.1459 655.29709 651.18263 719.1875 643.09375 C 749.27284 640.7275 777.85838 654.66681 798.21875 676.1875 C 815.60715 687.61554 856.22814 701.02745 862.28125 671.125 C 865.171 641.07513 834.11868 625.19451 814.125 609.125 C 794.18783 596.11722 769.43146 575.18142 744.40625 585.875 C 723.92316 603.8124 696.64573 601.45397 671.90625 608.59375 C 624.53259 620.45047 576.89518 631.05478 529.125 640.9375 C 529.58692 606.09858 530.20863 571.24713 530.8125 536.40625 C 543.44458 533.28356 556.10044 530.29474 568.8125 527.5 C 569.29468 545.40687 573.25287 566.83838 588.03125 577.25 C 606.64389 584.877 626.93446 585.76312 639.78125 567.65625 C 680.11515 479.00404 724.90102 390.69825 750.3125 296.3125 C 735.59991 269.64348 725.7296 239.4716 704.65625 216.875 C 689.62776 202.85518 672.17745 214.96453 671.28125 232.84375 C 662.25593 254.71737 636.61372 254.75486 616.9375 259.09375 C 588.87324 266.22428 560.43334 272.96804 532 279.96875 C 531.60284 259.37277 531.0017 238.78018 530.21875 218.1875 C 553.52309 209.80314 576.50984 200.82119 598.96875 192.3125 C 613.42244 187.18229 621.9569 174.76338 628.0625 161.96875 C 623.10627 136.91029 599.95132 138.5643 579.65625 145.5625 C 562.69029 152.71926 545.4961 159.67453 528.125 166.21875 C 527.71796 138.47747 528.02965 110.47932 519.5 84.25 C 519.44015 84.174173 519.37254 84.106788 519.3125 84.03125 C 602.53405 74.808951 701.13964 60.549415 738.4375 64.3125 C 751.38723 73.44138 723.57751 96.53098 712.09375 109.78125 C 694.42834 130.164 664.87649 146.61523 657.15625 169.28125 C 651.183 186.81826 680.74826 174.77803 691.875 168.875 C 718.14651 154.93727 742.82127 135.60785 770.625 126.96875 C 793.95379 119.7201 790.9732 165.59941 818.71875 163.0625 C 844.19439 160.73313 855.64113 133.60519 851.90625 113.03125 C 847.78125 90.30832 852.68979 61.805063 836.9375 45.1875 C 825.7602 33.396191 806.02158 17.048331 787.96875 16.8125 z M 208.375 71.0625 C 199.11648 71.0625 189.48567 80.22391 186.375 88 C 183.37367 118.70809 182.13411 150.55402 169.4375 179.46875 C 160.94331 194.44618 144.22944 204.74348 133.625 219.125 C 129.65829 234.12685 133.73474 254.1855 141.71875 267.875 C 149.37687 283.71098 159.86954 297.91077 179.59375 296.3125 C 203.58454 280.05611 218.56377 248.55969 232.3125 223.40625 C 254.39756 193.82454 259.18821 161.98286 254.125 125.78125 C 248.04131 106.57887 229.42365 76.37788 208.375 71.0625 z M 638.40625 282.09375 C 640.65148 282.0731 642.94088 282.22416 645.21875 282.59375 C 663.54133 295.152 647.15633 315.89127 641.96875 330.84375 C 618.62322 389.02352 596.83463 447.79158 575.03125 506.5625 C 563.07705 496.51861 547.44654 497.72249 532.625 502.65625 C 532.20907 502.79466 531.79097 502.92419 531.375 503.0625 C 531.83922 474.61345 532.25474 446.16624 532.5 417.71875 C 546.11615 410.00543 559.55035 401.27734 572.5 391.15625 C 574.882 387.40937 571.18258 378.62866 567.40625 375.90625 C 562.07182 372.06059 552.66768 369.97898 544.71875 372.5625 C 540.73509 373.85726 536.73422 375.13295 532.71875 376.375 C 532.76586 355.46862 532.72354 334.56039 532.5 313.65625 C 553.11045 308.81639 573.68526 303.84623 594.125 298.3125 C 607.8195 291.18786 622.68965 282.23828 638.40625 282.09375 z "
       transform="translate(0,52.362183)"
       id="path3987" />
  </g>
</svg>
