<?xml version="1.0" encoding="UTF-8" standalone="no"?>
<!-- Created with Inkscape (http://www.inkscape.org/) -->

<svg
   xmlns:dc="http://purl.org/dc/elements/1.1/"
   xmlns:cc="http://creativecommons.org/ns#"
   xmlns:rdf="http://www.w3.org/1999/02/22-rdf-syntax-ns#"
   xmlns:svg="http://www.w3.org/2000/svg"
   xmlns="http://www.w3.org/2000/svg"
   xmlns:sodipodi="http://sodipodi.sourceforge.net/DTD/sodipodi-0.dtd"
   xmlns:inkscape="http://www.inkscape.org/namespaces/inkscape"
   width="1000"
   height="1000"
   id="svg3173"
   version="1.1"
   inkscape:version="0.47 r22583"
   sodipodi:docname="9006.svg"
   inkscape:export-filename="E:\chinese\yan\9006.png"
   inkscape:export-xdpi="18.005705"
   inkscape:export-ydpi="18.005705">
  <title
     id="title2825">Ni</title>
  <defs
     id="defs3175">
    <inkscape:perspective
       sodipodi:type="inkscape:persp3d"
       inkscape:vp_x="0 : 526.18109 : 1"
       inkscape:vp_y="0 : 1000 : 0"
       inkscape:vp_z="744.09448 : 526.18109 : 1"
       inkscape:persp3d-origin="372.04724 : 350.78739 : 1"
       id="perspective3181" />
    <inkscape:perspective
       id="perspective3191"
       inkscape:persp3d-origin="0.5 : 0.33333333 : 1"
       inkscape:vp_z="1 : 0.5 : 1"
       inkscape:vp_y="0 : 1000 : 0"
       inkscape:vp_x="0 : 0.5 : 1"
       sodipodi:type="inkscape:persp3d" />
    <inkscape:perspective
       id="perspective4006"
       inkscape:persp3d-origin="0.5 : 0.33333333 : 1"
       inkscape:vp_z="1 : 0.5 : 1"
       inkscape:vp_y="0 : 1000 : 0"
       inkscape:vp_x="0 : 0.5 : 1"
       sodipodi:type="inkscape:persp3d" />
    <inkscape:perspective
       id="perspective4034"
       inkscape:persp3d-origin="0.5 : 0.33333333 : 1"
       inkscape:vp_z="1 : 0.5 : 1"
       inkscape:vp_y="0 : 1000 : 0"
       inkscape:vp_x="0 : 0.5 : 1"
       sodipodi:type="inkscape:persp3d" />
    <inkscape:perspective
       id="perspective4081"
       inkscape:persp3d-origin="0.5 : 0.33333333 : 1"
       inkscape:vp_z="1 : 0.5 : 1"
       inkscape:vp_y="0 : 1000 : 0"
       inkscape:vp_x="0 : 0.5 : 1"
       sodipodi:type="inkscape:persp3d" />
    <inkscape:perspective
       id="perspective4147"
       inkscape:persp3d-origin="0.5 : 0.33333333 : 1"
       inkscape:vp_z="1 : 0.5 : 1"
       inkscape:vp_y="0 : 1000 : 0"
       inkscape:vp_x="0 : 0.5 : 1"
       sodipodi:type="inkscape:persp3d" />
    <inkscape:perspective
       id="perspective3758"
       inkscape:persp3d-origin="0.5 : 0.33333333 : 1"
       inkscape:vp_z="1 : 0.5 : 1"
       inkscape:vp_y="0 : 1000 : 0"
       inkscape:vp_x="0 : 0.5 : 1"
       sodipodi:type="inkscape:persp3d" />
    <inkscape:perspective
       id="perspective3719"
       inkscape:persp3d-origin="0.5 : 0.33333333 : 1"
       inkscape:vp_z="1 : 0.5 : 1"
       inkscape:vp_y="0 : 1000 : 0"
       inkscape:vp_x="0 : 0.5 : 1"
       sodipodi:type="inkscape:persp3d" />
    <inkscape:perspective
       id="perspective3803"
       inkscape:persp3d-origin="0.5 : 0.33333333 : 1"
       inkscape:vp_z="1 : 0.5 : 1"
       inkscape:vp_y="0 : 1000 : 0"
       inkscape:vp_x="0 : 0.5 : 1"
       sodipodi:type="inkscape:persp3d" />
    <inkscape:perspective
       id="perspective3810"
       inkscape:persp3d-origin="0.5 : 0.33333333 : 1"
       inkscape:vp_z="1 : 0.5 : 1"
       inkscape:vp_y="0 : 1000 : 0"
       inkscape:vp_x="0 : 0.5 : 1"
       sodipodi:type="inkscape:persp3d" />
  </defs>
  <sodipodi:namedview
     id="base"
     pagecolor="#ffffff"
     bordercolor="#666666"
     borderopacity="1.0"
     inkscape:pageopacity="0.0"
     inkscape:pageshadow="2"
     inkscape:zoom="0.49497475"
     inkscape:cx="571.51329"
     inkscape:cy="512.69615"
     inkscape:document-units="px"
     inkscape:current-layer="g4143"
     showgrid="false"
     inkscape:window-width="1440"
     inkscape:window-height="840"
     inkscape:window-x="-4"
     inkscape:window-y="-4"
     inkscape:window-maximized="1" />
  <metadata
     id="metadata3178">
    <rdf:RDF>
      <cc:Work
         rdf:about="">
        <dc:format>image/svg+xml</dc:format>
        <dc:type
           rdf:resource="http://purl.org/dc/dcmitype/StillImage" />
        <dc:title>Ni</dc:title>
        <dc:date>2010-08-13</dc:date>
        <dc:creator>
          <cc:Agent>
            <dc:title>Alex Amies</dc:title>
          </cc:Agent>
        </dc:creator>
        <dc:rights>
          <cc:Agent>
            <dc:title>@ Alex Amies 2010</dc:title>
          </cc:Agent>
        </dc:rights>
        <dc:publisher>
          <cc:Agent>
            <dc:title>chinesenotes.com</dc:title>
          </cc:Agent>
        </dc:publisher>
        <dc:source>Yan Qin Ceremonial Inscription</dc:source>
        <dc:language>Chinese 中文</dc:language>
        <dc:description>Tracing from Tang Dynasty Ceremonial Inscription by Yan Zhenqing 颜真卿 (709－785)</dc:description>
        <cc:license
           rdf:resource="http://creativecommons.org/licenses/by/3.0/" />
      </cc:Work>
      <cc:License
         rdf:about="http://creativecommons.org/licenses/by/3.0/">
        <cc:permits
           rdf:resource="http://creativecommons.org/ns#Reproduction" />
        <cc:permits
           rdf:resource="http://creativecommons.org/ns#Distribution" />
        <cc:requires
           rdf:resource="http://creativecommons.org/ns#Notice" />
        <cc:requires
           rdf:resource="http://creativecommons.org/ns#Attribution" />
        <cc:permits
           rdf:resource="http://creativecommons.org/ns#DerivativeWorks" />
      </cc:License>
    </rdf:RDF>
  </metadata>
  <g
     inkscape:label="Layer 1"
     inkscape:groupmode="layer"
     id="layer1"
     transform="translate(0,-52.362183)">
    <g
       transform="matrix(4.7609464,0,0,4.7609464,-1421.6669,-3910.0295)"
       id="g4143"
       style="fill:#000000;fill-opacity:1">
      <g
         transform="matrix(0.99798993,0,0,0.99798993,-236.95604,598.06863)"
         id="g6734"
         style="fill:none;fill-opacity:1">
        <path
           id="path6686"
           d="m 571.78571,271.6479 c -1.34865,1.80005 -4.25033,2.91987 -3.65988,5.57313 -1.04627,6.79501 3.29945,13.02019 9.85682,14.7843 6.6664,2.3768 15.58388,-0.007 18.88895,-6.58622 1.15553,-4.71435 -1.60352,-10.44084 -5.83752,-12.80045 -4.10381,-4.52233 -10.50136,-0.91026 -15.73275,-1.28325 -1.17187,0.10417 -2.34375,0.20833 -3.51562,0.31249 z"
           style="fill:#000000;fill-opacity:1;stroke:#000000;stroke-width:1px;stroke-linecap:butt;stroke-linejoin:miter;stroke-opacity:1" />
        <path
           style="fill:#000000;stroke:#000000;stroke-width:4.75137663000000020px;stroke-linecap:butt;stroke-linejoin:miter;stroke-opacity:1;fill-opacity:1"
           d="M 197.84375 385.53125 C 169.80805 385.75923 142.1094 390.39095 114.375 394.59375 C 101.2871 405.81061 95.294796 424.65023 105.09375 439.9375 C 113.7385 454.90657 118.41327 475.41208 139.96875 471.53125 C 154.79067 479.5424 182.24793 470.06995 177.875 494.90625 C 180.24622 522.69957 177.90328 550.64871 179.125 578.5 C 182.24898 601.04728 206.00991 607.03304 216.28125 624.8125 C 226.11717 639.08526 206.63157 659.17936 207.59375 669.46875 C 173.76818 655.75619 137.957 648.52732 102.125 657.5625 C 93.164712 660.88742 84.441353 664.81924 75.34375 667.78125 C 36.638656 703.25132 82.503543 762.77568 121.625 720.96875 C 181.62781 699.29544 223.10947 764.85775 268 792.5625 C 390.00608 859.43789 524.6994 898.73439 656.65625 941.0625 C 699.26712 948.76149 755.94273 982.37847 790.46875 942.4375 C 826.39828 912.95635 862.31987 875.08298 917.21875 882.25 C 1004.2071 855.49053 960.78237 833.95506 915.71875 834.9375 C 851.64349 815.77681 782.57765 818.53024 716.78125 805.78125 C 569.63444 775.99449 402.63629 781.65741 270.3125 701.65625 C 252.14941 690.87255 232.81149 680.16847 212.71875 671.59375 C 233.43835 661.54188 256.79768 660.67219 279.34375 660.40625 C 295.18945 645.31326 286.2445 621.85225 277.78125 605.0625 C 261.27658 575.1838 230.51102 560.18682 209.375 533.71875 C 209.13933 511.81125 215.29034 491.59522 229.71875 474.90625 C 238.1418 457.12313 263.77649 448.39401 258.625 426.28125 C 253.3935 407.9207 235.20585 391.885 217.3125 386.125 C 210.80219 385.64962 204.31353 385.47864 197.84375 385.53125 z "
           transform="matrix(0.21046532,0,0,0.21046532,536.64488,234.67283)"
           id="path6688" />
        <path
           id="path6692"
           d="m 619.64285,256.29076 c -0.65984,1.61293 -1.26127,4.11893 -0.35714,5.71428 3.6939,6.5179 9.82789,12.40788 16.2485,16.78218 2.45703,1.67396 5.36367,3.57192 8.31004,3.62125 2.46539,0.0413 1.55712,-4.06049 2.10338,-6.0649 1.13201,-4.15368 1.47474,-8.90995 0.48094,-12.90995 -0.80608,-3.24446 -3.13668,-6.42509 -5.96242,-8.65008 -2.71729,-3.29073 -7.54157,-3.26983 -11.53758,-3.13564 -3.2088,0.78288 -7.09147,2.05573 -9.28572,4.64286 z"
           style="fill:#000000;fill-opacity:1;stroke:#000000;stroke-width:1px;stroke-linecap:butt;stroke-linejoin:miter;stroke-opacity:1"
           sodipodi:nodetypes="csssssccc" />
        <path
           id="path6694"
           d="m 675.71428,245.21933 c -6.00225,1.81481 -6.92237,9.48201 -9.06106,14.74099 -1.88606,4.63775 -4.05195,8.90271 -4.58879,13.94392 -0.40781,3.82964 1.74996,7.59717 5.31946,4.92597 4.4997,-3.3673 9.57902,-6.82561 15.1405,-7.42496 4.06698,-0.43829 9.97307,0.51134 10.59239,-4.7948 0.54226,-4.64595 -0.27794,-9.22186 -2.88015,-13.29108 -3.19297,-4.8776 -8.34149,-9.37189 -14.52235,-8.10004 z"
           style="fill:#000000;fill-opacity:1;stroke:#000000;stroke-width:1px;stroke-linecap:butt;stroke-linejoin:miter;stroke-opacity:1"
           sodipodi:nodetypes="cssssscc" />
        <path
           style="fill:#000000;stroke:#000000;stroke-width:4.75137663000000020px;stroke-linecap:butt;stroke-linejoin:miter;stroke-opacity:1;fill-opacity:1"
           d="M 658.5 245.15625 C 641.57297 245.03689 624.14124 247.82755 607.09375 250.5 C 553.04195 263.80937 504.79848 293.31709 452.4375 311.53125 C 444.7818 313.85491 433.96784 309.01615 428.28125 313.125 C 421.67807 317.89609 411.84576 327.72268 423.75 337.6875 C 443.89793 354.55289 468.6694 350.65722 491.59375 346.90625 C 511.47042 343.65395 531.15305 339.29908 550.625 334.15625 C 544.30298 353.23517 541.68841 376.29664 540.9375 390.21875 C 539.07293 421.35499 539.92861 452.4775 541.71875 483.5625 C 516.97692 489.74579 492.70143 497.19882 468.8125 505.875 C 471.03864 498.48031 471.08253 489.863 470.75 481.65625 C 469.40498 468.38238 464.73037 454.5587 457.15625 443.78125 C 439.62947 431.54893 416.65297 424.87262 397.96875 412.53125 C 388.54188 405.4784 375.50027 411.23874 365.5 414.9375 C 352.13043 425.74674 351.32994 440.11301 355.3125 455.6875 C 366.08691 479.68913 384.23433 501.26809 404.71875 518.59375 C 410.47258 521.36979 417.30924 522.9398 424.4375 523.59375 C 402.03821 533.36191 379.99865 544.2348 358.28125 556.1875 C 339.62587 563.28031 335.70765 581.50735 328.1875 598.21875 C 339.28591 625.88815 374.98927 606.37505 390.40625 592.53125 C 440.21019 567.63215 491.41288 544.50474 544.75 528.5 C 548.62519 581.19473 552.7634 633.90429 548.5 686.75 C 549.29951 725.27815 539.83799 771.5975 567.125 803.1875 C 591.6088 847.78701 658.58463 818.24563 645.5 769.875 C 647.39397 682.27663 656.83811 592.71473 652.3125 505.78125 C 671.00268 503.70256 689.80333 502.38482 708.25 499.03125 C 732.31016 488.70328 764.5448 493.10102 779.625 468.28125 C 782.64493 454.82792 781.71754 442.93469 766.03125 438.40625 C 744.87579 432.59736 721.10979 428.23351 703.1875 444.3125 C 686.97801 455.66104 667.97939 459.42384 648.8125 462.71875 C 647.79554 453.76823 646.57867 444.84072 645.15625 435.96875 C 638.82885 396.50331 634.54357 345.01288 607.34375 316.90625 C 618.57217 313.07191 629.71647 309.07255 640.75 304.90625 C 661.19565 297.18593 680.86571 299.3403 701.3125 298.46875 C 716.2848 297.83055 728.67523 268.35882 712.96875 261.03125 C 696.24389 249.13759 677.68397 245.29153 658.5 245.15625 z "
           transform="matrix(0.21046532,0,0,0.21046532,536.64488,234.67283)"
           id="path6696" />
      </g>
    </g>
  </g>
</svg>
