<?xml version="1.0" encoding="UTF-8" standalone="no"?>
<!-- Created with Inkscape (http://www.inkscape.org/) -->

<svg
   xmlns:dc="http://purl.org/dc/elements/1.1/"
   xmlns:cc="http://creativecommons.org/ns#"
   xmlns:rdf="http://www.w3.org/1999/02/22-rdf-syntax-ns#"
   xmlns:svg="http://www.w3.org/2000/svg"
   xmlns="http://www.w3.org/2000/svg"
   xmlns:sodipodi="http://sodipodi.sourceforge.net/DTD/sodipodi-0.dtd"
   xmlns:inkscape="http://www.inkscape.org/namespaces/inkscape"
   width="1000"
   height="1000"
   id="svg3173"
   version="1.1"
   inkscape:version="0.47 r22583"
   sodipodi:docname="9016.svg"
   inkscape:export-filename="E:\chinese\yan\9016.png"
   inkscape:export-xdpi="18.005705"
   inkscape:export-ydpi="18.005705">
  <title
     id="title6093">Ti</title>
  <defs
     id="defs3175">
    <inkscape:perspective
       sodipodi:type="inkscape:persp3d"
       inkscape:vp_x="0 : 526.18109 : 1"
       inkscape:vp_y="0 : 1000 : 0"
       inkscape:vp_z="744.09448 : 526.18109 : 1"
       inkscape:persp3d-origin="372.04724 : 350.78739 : 1"
       id="perspective3181" />
    <inkscape:perspective
       id="perspective3191"
       inkscape:persp3d-origin="0.5 : 0.33333333 : 1"
       inkscape:vp_z="1 : 0.5 : 1"
       inkscape:vp_y="0 : 1000 : 0"
       inkscape:vp_x="0 : 0.5 : 1"
       sodipodi:type="inkscape:persp3d" />
    <inkscape:perspective
       id="perspective4006"
       inkscape:persp3d-origin="0.5 : 0.33333333 : 1"
       inkscape:vp_z="1 : 0.5 : 1"
       inkscape:vp_y="0 : 1000 : 0"
       inkscape:vp_x="0 : 0.5 : 1"
       sodipodi:type="inkscape:persp3d" />
    <inkscape:perspective
       id="perspective4034"
       inkscape:persp3d-origin="0.5 : 0.33333333 : 1"
       inkscape:vp_z="1 : 0.5 : 1"
       inkscape:vp_y="0 : 1000 : 0"
       inkscape:vp_x="0 : 0.5 : 1"
       sodipodi:type="inkscape:persp3d" />
    <inkscape:perspective
       id="perspective4081"
       inkscape:persp3d-origin="0.5 : 0.33333333 : 1"
       inkscape:vp_z="1 : 0.5 : 1"
       inkscape:vp_y="0 : 1000 : 0"
       inkscape:vp_x="0 : 0.5 : 1"
       sodipodi:type="inkscape:persp3d" />
    <inkscape:perspective
       id="perspective4147"
       inkscape:persp3d-origin="0.5 : 0.33333333 : 1"
       inkscape:vp_z="1 : 0.5 : 1"
       inkscape:vp_y="0 : 1000 : 0"
       inkscape:vp_x="0 : 0.5 : 1"
       sodipodi:type="inkscape:persp3d" />
    <inkscape:perspective
       id="perspective3797"
       inkscape:persp3d-origin="0.5 : 0.33333333 : 1"
       inkscape:vp_z="1 : 0.5 : 1"
       inkscape:vp_y="0 : 1000 : 0"
       inkscape:vp_x="0 : 0.5 : 1"
       sodipodi:type="inkscape:persp3d" />
    <inkscape:perspective
       id="perspective3104"
       inkscape:persp3d-origin="0.5 : 0.33333333 : 1"
       inkscape:vp_z="1 : 0.5 : 1"
       inkscape:vp_y="0 : 1000 : 0"
       inkscape:vp_x="0 : 0.5 : 1"
       sodipodi:type="inkscape:persp3d" />
    <inkscape:perspective
       id="perspective3140"
       inkscape:persp3d-origin="0.5 : 0.33333333 : 1"
       inkscape:vp_z="1 : 0.5 : 1"
       inkscape:vp_y="0 : 1000 : 0"
       inkscape:vp_x="0 : 0.5 : 1"
       sodipodi:type="inkscape:persp3d" />
    <inkscape:perspective
       id="perspective3799"
       inkscape:persp3d-origin="0.5 : 0.33333333 : 1"
       inkscape:vp_z="1 : 0.5 : 1"
       inkscape:vp_y="0 : 1000 : 0"
       inkscape:vp_x="0 : 0.5 : 1"
       sodipodi:type="inkscape:persp3d" />
    <inkscape:perspective
       id="perspective3835"
       inkscape:persp3d-origin="0.5 : 0.33333333 : 1"
       inkscape:vp_z="1 : 0.5 : 1"
       inkscape:vp_y="0 : 1000 : 0"
       inkscape:vp_x="0 : 0.5 : 1"
       sodipodi:type="inkscape:persp3d" />
    <inkscape:perspective
       id="perspective3862"
       inkscape:persp3d-origin="0.5 : 0.33333333 : 1"
       inkscape:vp_z="1 : 0.5 : 1"
       inkscape:vp_y="0 : 1000 : 0"
       inkscape:vp_x="0 : 0.5 : 1"
       sodipodi:type="inkscape:persp3d" />
    <inkscape:perspective
       id="perspective3895"
       inkscape:persp3d-origin="0.5 : 0.33333333 : 1"
       inkscape:vp_z="1 : 0.5 : 1"
       inkscape:vp_y="0 : 1000 : 0"
       inkscape:vp_x="0 : 0.5 : 1"
       sodipodi:type="inkscape:persp3d" />
    <inkscape:perspective
       id="perspective3921"
       inkscape:persp3d-origin="0.5 : 0.33333333 : 1"
       inkscape:vp_z="1 : 0.5 : 1"
       inkscape:vp_y="0 : 1000 : 0"
       inkscape:vp_x="0 : 0.5 : 1"
       sodipodi:type="inkscape:persp3d" />
    <inkscape:perspective
       id="perspective3945"
       inkscape:persp3d-origin="0.5 : 0.33333333 : 1"
       inkscape:vp_z="1 : 0.5 : 1"
       inkscape:vp_y="0 : 1000 : 0"
       inkscape:vp_x="0 : 0.5 : 1"
       sodipodi:type="inkscape:persp3d" />
    <inkscape:perspective
       id="perspective3975"
       inkscape:persp3d-origin="0.5 : 0.33333333 : 1"
       inkscape:vp_z="1 : 0.5 : 1"
       inkscape:vp_y="0 : 1000 : 0"
       inkscape:vp_x="0 : 0.5 : 1"
       sodipodi:type="inkscape:persp3d" />
    <inkscape:perspective
       id="perspective4049"
       inkscape:persp3d-origin="0.5 : 0.33333333 : 1"
       inkscape:vp_z="1 : 0.5 : 1"
       inkscape:vp_y="0 : 1000 : 0"
       inkscape:vp_x="0 : 0.5 : 1"
       sodipodi:type="inkscape:persp3d" />
  </defs>
  <sodipodi:namedview
     id="base"
     pagecolor="#ffffff"
     bordercolor="#666666"
     borderopacity="1.0"
     inkscape:pageopacity="0.0"
     inkscape:pageshadow="2"
     inkscape:zoom="0.49497475"
     inkscape:cx="637.59461"
     inkscape:cy="519.65337"
     inkscape:document-units="px"
     inkscape:current-layer="g5879"
     showgrid="false"
     inkscape:window-width="1440"
     inkscape:window-height="840"
     inkscape:window-x="-4"
     inkscape:window-y="-4"
     inkscape:window-maximized="1" />
  <metadata
     id="metadata3178">
    <rdf:RDF>
      <cc:Work
         rdf:about="">
        <dc:format>image/svg+xml</dc:format>
        <dc:type
           rdf:resource="http://purl.org/dc/dcmitype/StillImage" />
        <dc:title>Ti</dc:title>
        <dc:date>2010-08-12</dc:date>
        <dc:creator>
          <cc:Agent>
            <dc:title>Alex Amies</dc:title>
          </cc:Agent>
        </dc:creator>
        <dc:rights>
          <cc:Agent>
            <dc:title>@ Alex Amies 2010</dc:title>
          </cc:Agent>
        </dc:rights>
        <dc:publisher>
          <cc:Agent>
            <dc:title>chinesenotes.com</dc:title>
          </cc:Agent>
        </dc:publisher>
        <dc:source>Yan Qin Ceremonial Inscription</dc:source>
        <dc:language>Chinese 中文</dc:language>
        <dc:description>Tracing from Tang Dynasty Ceremonial Inscription by Yan Zhenqing 颜真卿 (709－785)</dc:description>
        <cc:license
           rdf:resource="http://creativecommons.org/licenses/by/3.0/" />
      </cc:Work>
      <cc:License
         rdf:about="http://creativecommons.org/licenses/by/3.0/">
        <cc:permits
           rdf:resource="http://creativecommons.org/ns#Reproduction" />
        <cc:permits
           rdf:resource="http://creativecommons.org/ns#Distribution" />
        <cc:requires
           rdf:resource="http://creativecommons.org/ns#Notice" />
        <cc:requires
           rdf:resource="http://creativecommons.org/ns#Attribution" />
        <cc:permits
           rdf:resource="http://creativecommons.org/ns#DerivativeWorks" />
      </cc:License>
    </rdf:RDF>
  </metadata>
  <g
     inkscape:label="Layer 1"
     inkscape:groupmode="layer"
     id="layer1"
     transform="translate(0,-52.362183)">
    <path
       style="fill:#000000;stroke:#000000;stroke-width:4.73223686000000040px;stroke-linecap:butt;stroke-linejoin:miter;stroke-opacity:1;fill-opacity:1"
       d="m 369.84328,287.58699 0,0 z"
       id="path5819" />
    <g
       transform="matrix(4.7322369,0,0,4.7322369,-536.04205,-3955.5633)"
       id="g5879"
       style="fill:#000000;fill-opacity:1">
      <g
         transform="matrix(1.0020223,0,0,1.0020223,0.48673707,214.33211)"
         id="g5521"
         style="fill:none;fill-opacity:1">
        <path
           id="path5469"
           d="m 137.85714,665.57647 c -0.6929,0.73621 -1.24073,2.38703 -0.71428,3.21429 1.39479,2.19176 4.27526,4.03522 6.98283,5.25877 1.91367,0.86479 2.91353,3.36019 4.80288,4.02694 3.37219,1.19005 7.49983,1.27347 11.15503,0.68823 3.89741,-1.1379 4.88106,-3.78094 4.53491,-7.52555 -0.88304,-5.90074 -3.82849,-9.29177 -9.46462,-10.59569 -5.94078,-0.15771 -12.47931,1.41709 -17.29675,4.93301 z"
           style="fill:#000000;fill-opacity:1;stroke:#000000;stroke-width:1px;stroke-linecap:butt;stroke-linejoin:miter;stroke-opacity:1"
           sodipodi:nodetypes="cssscccc" />
        <path
           style="fill:#000000;stroke:#000000;stroke-width:4.74180697999999980px;stroke-linecap:butt;stroke-linejoin:miter;stroke-opacity:1;fill-opacity:1"
           d="M 416.5625 121.5 C 411.5241 121.45903 406.7005 122.34248 402.78125 125.125 C 396.79747 129.37328 395.75169 138.24152 394.3125 145.4375 C 392.43048 154.84766 395.53361 164.73149 394.3125 174.25 C 390.89774 200.8679 383.26317 226.94985 373.96875 252.125 C 372.23835 256.812 370.39209 261.458 368.46875 266.0625 C 353.33446 252.7789 334.24938 242.29207 314.59375 240.875 C 301.66057 243.27317 286.86261 242.38128 275.75 248.75 C 263.67319 272.38336 286.8145 299.57843 304.8125 318.375 C 313.69946 327.61828 321.41487 337.26827 328.15625 347.21875 C 324.1306 354.99319 320.18169 362.80477 316.40625 370.6875 C 306.69835 390.95654 287.37255 409.18374 287.625 431.65625 C 287.66768 435.44282 288.96902 441.09639 292.6875 441.8125 C 299.36235 443.09796 302.64223 432.51213 307.9375 428.25 C 319.89999 418.62148 333.64646 411.28608 345.1875 401.15625 C 347.66669 398.98021 350.1203 396.78014 352.5625 394.5625 C 367.4383 433.75551 372.71376 476.49166 376.1875 520.9375 C 377.33236 545.31086 383.69069 570.03301 377.0625 594.0625 C 370.68173 627.42258 367.66625 662.10395 352.625 693.03125 C 336.32456 708.56403 314.16688 690.85522 296.5625 703.625 C 285.99747 709.22754 298.79512 732.11004 277.375 724.625 L 248.65625 724.625 C 239.72407 740.93987 236.4487 758.28799 246.90625 771.28125 C 203.72342 762.26186 162.39727 745.06416 119.34375 735.0625 C 97.596259 729.09171 75.778783 723.33898 53.90625 717.84375 C 32.161367 725.16112 42.118077 774.07106 59 785.59375 C 80.628756 786.25708 53.668919 738.89061 81.625 760 C 128.98745 794.7527 184.36779 816.00775 237.875 839.3125 C 337.03405 880.76116 443.61384 900.1187 549.40625 916.21875 C 627.62406 917.98972 705.7716 922.41433 783.8125 927.84375 C 830.11885 917.76641 859.15077 877.41604 898.28125 853.96875 C 912.22031 831.97658 972.99273 838.37526 958.84375 806.03125 C 922.13481 790.41084 880.64897 790.59848 841.375 786.4375 C 768.76442 780.86735 696.17075 792.50273 623.46875 791.125 C 509.03784 793.15562 394.09446 792.87531 280.59375 776.53125 C 287.47139 768.56416 294.31613 758.1243 303.1875 757.25 C 320.21087 744.51114 340.10815 763.6988 355.75 756.09375 C 373.78181 745.07042 384.17855 725.95329 394.40625 708.15625 C 404.10628 685.9563 403.12055 660.98238 412.28125 638.5625 C 430.39851 578.34928 441.12493 513.50941 438.6875 450.46875 C 438.37929 407.26768 433.86596 364.81 417.0625 327.96875 C 424.26234 319.71432 431.35138 311.34393 438.34375 302.9375 C 457.98365 279.32581 477.17752 255.03638 492.53125 228.4375 C 498.09007 218.80736 505.79938 209.05377 506.0625 197.9375 C 506.32045 187.03822 500.01831 176.70053 494.21875 167.46875 C 488.05729 157.66094 479.83861 148.91422 470.5 142.0625 C 458.89623 133.54882 445.6854 126.20747 431.5625 123.4375 C 426.8458 122.5124 421.6009 121.54097 416.5625 121.5 z "
           transform="matrix(0.21089007,0,0,0.21089007,112.56019,631.33215)"
           id="path5471" />
        <path
           id="path5477"
           d="m 223.92857,711.6479 c -1.77867,1.41715 -3.26553,5.8652 -3.89704,8.87698 -0.33672,1.6059 0.95689,3.30975 1.40981,4.97201 0.94165,4.02855 2.80893,5.92871 6.77294,6.86529 4.30064,-1.45782 4.60663,-5.66965 3.92858,-9.64285 -1.25089,-4.26414 -3.25167,-10.46177 -8.21429,-11.07143 z"
           style="fill:#000000;fill-opacity:1;stroke:#000000;stroke-width:1px;stroke-linecap:butt;stroke-linejoin:miter;stroke-opacity:1"
           sodipodi:nodetypes="cscccc" />
        <path
           id="path5479"
           d="m 241.42267,666.31595 c -0.12878,5.73766 2.74079,11.5008 1.81876,17.39288 -1.60557,25.10863 -2.25893,52.17291 -13.30542,75.37016 -2.95486,6.0944 -5.90972,12.18879 -8.86458,18.28319 -0.528,4.42096 2.57716,3.8615 4.60096,0.96091 4.13714,-5.09951 8.6398,-9.94687 11.81587,-15.74915 8.79275,-13.17063 13.16327,-28.19271 14.43142,-43.87512 1.74309,-19.32651 3.51228,-38.94292 2.62809,-58.37195 -0.21236,-2.54715 -0.92038,-5.95531 -2.76206,-7.2504 -10.27308,-3.13587 -10.21712,6.73841 -10.36304,13.23948 z"
           style="fill:#000000;fill-opacity:1;stroke:#000000;stroke-width:1px;stroke-linecap:butt;stroke-linejoin:miter;stroke-opacity:1"
           sodipodi:nodetypes="cccccccccs" />
        <path
           id="path5481"
           d="m 264.28571,696.29076 c -2.29543,1.35852 -4.11163,3.62151 -5.76367,5.81636 -1.18078,1.56875 -2.55699,3.00408 -4.13912,4.14322 1.73883,3.74285 9.82411,5.57583 14.26607,6.08769 1.99386,0.0622 4.19618,0.36696 5.99387,-0.33299 3.5535,-1.82327 8.33423,-4.47585 9.28571,-8.57143 -0.8821,-2.48589 -3.8672,-5.45774 -6.42857,-7.14285 -4.19852,-2.43661 -9.01824,-2.21164 -13.21429,0 z"
           style="fill:#000000;fill-opacity:1;stroke:#000000;stroke-width:1px;stroke-linecap:butt;stroke-linejoin:miter;stroke-opacity:1"
           sodipodi:nodetypes="cscccccc" />
        <path
           id="path5483"
           d="m 258.92857,738.07647 c -0.68976,-0.17732 -1.75189,-0.17665 -2.14286,0.35714 -1.24867,1.70483 0.8315,4.06643 2.12316,5.55683 8.942,7.32609 14.64331,17.6421 22.3197,25.97545 1.19503,1.10456 3.96662,0.82935 5.18279,-0.80078 2.53252,-3.39456 6.91376,-2.73656 10.01721,-4.30293 1.03775,-0.52377 1.10356,-2.7356 0.71429,-3.92857 -1.98852,-5.69648 -7.23979,-9.41342 -12.4354,-12.05691 -8.31897,-4.25925 -16.76543,-8.24181 -25.77889,-10.80023 z"
           style="fill:#000000;fill-opacity:1;stroke:#000000;stroke-width:1px;stroke-linecap:butt;stroke-linejoin:miter;stroke-opacity:1"
           sodipodi:nodetypes="csccssccc" />
      </g>
    </g>
    <path
       style="fill:#000000;stroke:#000000;stroke-width:4.73223686000000040px;stroke-linecap:butt;stroke-linejoin:miter;stroke-opacity:1;fill-opacity:1"
       d="m 594.62455,556.31042 0,0 z"
       id="path5837" />
  </g>
</svg>
