<?xml version="1.0" encoding="UTF-8" standalone="no"?>
<!-- Created with Inkscape (http://www.inkscape.org/) -->

<svg
   xmlns:dc="http://purl.org/dc/elements/1.1/"
   xmlns:cc="http://creativecommons.org/ns#"
   xmlns:rdf="http://www.w3.org/1999/02/22-rdf-syntax-ns#"
   xmlns:svg="http://www.w3.org/2000/svg"
   xmlns="http://www.w3.org/2000/svg"
   xmlns:sodipodi="http://sodipodi.sourceforge.net/DTD/sodipodi-0.dtd"
   xmlns:inkscape="http://www.inkscape.org/namespaces/inkscape"
   width="1000"
   height="1000"
   id="svg3173"
   version="1.1"
   inkscape:version="0.47 r22583"
   sodipodi:docname="901a.svg"
   inkscape:export-filename="E:\chinese\images\yan_tong_dot_flick.png"
   inkscape:export-xdpi="17.908815"
   inkscape:export-ydpi="17.908815">
  <title
     id="title2820">Ma</title>
  <defs
     id="defs3175">
    <inkscape:perspective
       sodipodi:type="inkscape:persp3d"
       inkscape:vp_x="0 : 526.18109 : 1"
       inkscape:vp_y="0 : 1000 : 0"
       inkscape:vp_z="744.09448 : 526.18109 : 1"
       inkscape:persp3d-origin="372.04724 : 350.78739 : 1"
       id="perspective3181" />
    <inkscape:perspective
       id="perspective3191"
       inkscape:persp3d-origin="0.5 : 0.33333333 : 1"
       inkscape:vp_z="1 : 0.5 : 1"
       inkscape:vp_y="0 : 1000 : 0"
       inkscape:vp_x="0 : 0.5 : 1"
       sodipodi:type="inkscape:persp3d" />
    <inkscape:perspective
       id="perspective4006"
       inkscape:persp3d-origin="0.5 : 0.33333333 : 1"
       inkscape:vp_z="1 : 0.5 : 1"
       inkscape:vp_y="0 : 1000 : 0"
       inkscape:vp_x="0 : 0.5 : 1"
       sodipodi:type="inkscape:persp3d" />
    <inkscape:perspective
       id="perspective4034"
       inkscape:persp3d-origin="0.5 : 0.33333333 : 1"
       inkscape:vp_z="1 : 0.5 : 1"
       inkscape:vp_y="0 : 1000 : 0"
       inkscape:vp_x="0 : 0.5 : 1"
       sodipodi:type="inkscape:persp3d" />
    <inkscape:perspective
       id="perspective4081"
       inkscape:persp3d-origin="0.5 : 0.33333333 : 1"
       inkscape:vp_z="1 : 0.5 : 1"
       inkscape:vp_y="0 : 1000 : 0"
       inkscape:vp_x="0 : 0.5 : 1"
       sodipodi:type="inkscape:persp3d" />
    <inkscape:perspective
       id="perspective4147"
       inkscape:persp3d-origin="0.5 : 0.33333333 : 1"
       inkscape:vp_z="1 : 0.5 : 1"
       inkscape:vp_y="0 : 1000 : 0"
       inkscape:vp_x="0 : 0.5 : 1"
       sodipodi:type="inkscape:persp3d" />
    <inkscape:perspective
       id="perspective3777"
       inkscape:persp3d-origin="0.5 : 0.33333333 : 1"
       inkscape:vp_z="1 : 0.5 : 1"
       inkscape:vp_y="0 : 1000 : 0"
       inkscape:vp_x="0 : 0.5 : 1"
       sodipodi:type="inkscape:persp3d" />
    <inkscape:perspective
       id="perspective3826"
       inkscape:persp3d-origin="0.5 : 0.33333333 : 1"
       inkscape:vp_z="1 : 0.5 : 1"
       inkscape:vp_y="0 : 1000 : 0"
       inkscape:vp_x="0 : 0.5 : 1"
       sodipodi:type="inkscape:persp3d" />
    <inkscape:perspective
       id="perspective3851"
       inkscape:persp3d-origin="0.5 : 0.33333333 : 1"
       inkscape:vp_z="1 : 0.5 : 1"
       inkscape:vp_y="0 : 1000 : 0"
       inkscape:vp_x="0 : 0.5 : 1"
       sodipodi:type="inkscape:persp3d" />
    <inkscape:perspective
       id="perspective3829"
       inkscape:persp3d-origin="0.5 : 0.33333333 : 1"
       inkscape:vp_z="1 : 0.5 : 1"
       inkscape:vp_y="0 : 1000 : 0"
       inkscape:vp_x="0 : 0.5 : 1"
       sodipodi:type="inkscape:persp3d" />
  </defs>
  <sodipodi:namedview
     id="base"
     pagecolor="#ffffff"
     bordercolor="#666666"
     borderopacity="1.0"
     inkscape:pageopacity="0.0"
     inkscape:pageshadow="2"
     inkscape:zoom="0.49497475"
     inkscape:cx="534.74768"
     inkscape:cy="485.1646"
     inkscape:document-units="px"
     inkscape:current-layer="g3809"
     showgrid="false"
     inkscape:window-width="1440"
     inkscape:window-height="840"
     inkscape:window-x="-4"
     inkscape:window-y="-4"
     inkscape:window-maximized="1" />
  <metadata
     id="metadata3178">
    <rdf:RDF>
      <cc:Work
         rdf:about="">
        <dc:format>image/svg+xml</dc:format>
        <dc:type
           rdf:resource="http://purl.org/dc/dcmitype/StillImage" />
        <dc:title>Ma</dc:title>
        <dc:date>2010-07-15</dc:date>
        <dc:creator>
          <cc:Agent>
            <dc:title>Alex Amies</dc:title>
          </cc:Agent>
        </dc:creator>
        <dc:rights>
          <cc:Agent>
            <dc:title>@ Alex Amies 2010</dc:title>
          </cc:Agent>
        </dc:rights>
        <dc:publisher>
          <cc:Agent>
            <dc:title>chinesenotes.com</dc:title>
          </cc:Agent>
        </dc:publisher>
        <dc:source>Yan Qin Ceremonial Inscription</dc:source>
        <dc:language>Chinese 中文</dc:language>
        <dc:description>Tracing from Tang Dynasty Ceremonial Inscription by Yan Zhenqing 颜真卿 (709－785)</dc:description>
        <cc:license
           rdf:resource="http://creativecommons.org/licenses/by/3.0/" />
      </cc:Work>
      <cc:License
         rdf:about="http://creativecommons.org/licenses/by/3.0/">
        <cc:permits
           rdf:resource="http://creativecommons.org/ns#Reproduction" />
        <cc:permits
           rdf:resource="http://creativecommons.org/ns#Distribution" />
        <cc:requires
           rdf:resource="http://creativecommons.org/ns#Notice" />
        <cc:requires
           rdf:resource="http://creativecommons.org/ns#Attribution" />
        <cc:permits
           rdf:resource="http://creativecommons.org/ns#DerivativeWorks" />
      </cc:License>
    </rdf:RDF>
  </metadata>
  <g
     inkscape:label="Layer 1"
     inkscape:groupmode="layer"
     id="layer1"
     transform="translate(0,-52.362183)">
    <g
       transform="matrix(4.7513766,0,0,4.7513766,-1572.319,-3933.7772)"
       id="g3809"
       style="fill:#000000;fill-opacity:1">
      <path
         style="fill:#000000;stroke:#000000;stroke-width:4.75137663000000020px;stroke-linecap:butt;stroke-linejoin:miter;stroke-opacity:1;fill-opacity:1"
         d="m 698.25,22 c -2.17167,0.0024 -4.39213,0.1534 -6.65625,0.4375 -55.75013,26.087813 -118.31726,39.56818 -178.5,52.8125 -9.85274,-9.333604 -19.94026,-18.478176 -32.28125,-24.34375 l -1.5,-0.96875 c -34.38248,12.370732 -47.01736,52.12961 -68.1875,79.59375 -5.72018,36.99607 -2.9857,69.33771 41.375,70 18.31936,3.30173 37.48886,-10.90765 37.875,-29.875 0.2694,-18.16456 14.68508,-31.53432 29.78125,-39.28125 39.85431,-13.581 77.6121,-36.08818 118.65625,-46.46875 -9.41476,21.73878 -19.25008,43.54042 -33.75,62.4375 -5.91343,12.19898 -20.74846,32.38096 -21.875,46.71875 -57.0521,-11.97162 -52.85026,-3.55687 -50.375,24.125 15.91752,23.83736 28.04937,42.58613 47.0625,59.34375 -40.58803,11.53552 -81.90056,21.66639 -118.6875,41.75 -7.27461,-7.0764 -15.71721,-13.1447 -24.3125,-18.875 -33.31337,21.01653 -20.31362,91.13991 -17.09375,125.46875 11.22104,124.66743 18.47509,250.72612 1.84375,375.125 -8.24259,7.90914 -16.28612,16.59218 -13.59375,28.75 0.72304,2.80542 1.86138,5.3837 3.3125,7.6875 -76.8932,-25.06192 -149.91826,-58.97364 -207.9375,-99.375 41.62055,-19.87494 89.19967,-34.06661 127.5,-59.625 1.78709,-30.63797 -10.70841,-78.48539 -34.875,-99.5625 -18.65989,-8.44857 -38.35307,2.6275 -57.34375,2.03125 -19.65222,-6.04047 -18.53412,-31.55634 -10.5625,-46.53125 1.51412,-39.32254 47.64676,-63.67604 47.3125,-100.875 -3.58363,-28.26518 -31.83276,-52.24511 -60.71875,-46.53125 -32.87031,6.31715 -59.32598,26.57165 -69.6875,57.65625 11.12426,16.10555 32.11751,18.71701 50.03125,20.90625 20.11918,-11.47652 23.95099,23.18005 8.625,30.03125 -9.99267,27.09682 -10.54368,56.43827 -18.0625,84.1875 -4.641,34.68529 31.16932,51.4462 55.4375,66.84375 4.17271,16.91894 -12.88392,29.33973 -24.3125,38.8125 -12.68527,16.01627 -34.21958,12.37216 -49.59375,23.4375 -2.36286,2.26928 -3.85561,4.66635 -4.65625,7.09375 -15.86259,-7.21889 -32.29847,-11.08185 -48.78125,-1.625 -33.872279,20.99035 -62.002009,52.43862 -61.125,86.28125 19.278093,37.48646 59.05925,19.57532 76.75,-1.125 6.59738,-30.472 22.01051,-51.53196 38.34375,-21.53125 128.06746,141.91839 359.06853,184.5643 541.90625,199.5625 62.17167,1.32611 137.36367,8.18312 196.78125,-13.96875 27.14918,-28.87697 44.77162,-43.2172 70,-74.96875 10.67691,-15.92804 14.31695,-47.91577 -13,-28.4375 -93.68864,27.95282 -197.92615,26.8201 -295.71875,24.90625 -66.60706,-2.24388 -140.57799,-14.38354 -213,-34.53125 10.57359,-3.59573 19.06594,-12.00324 20.28125,-25.625 4.77304,-43.03322 3.37167,-86.47655 6.4375,-129.65625 -6.91506,-62.53219 5.6843,-147.23985 8.75,-224.6875 16.74866,7.07235 37.83178,10.25817 60.03125,10.75 1.30956,28.47295 2.94554,56.94355 4.96875,85.375 -23.61314,7.95988 -47.51055,15.32312 -72.40625,20.53125 20.53448,15.04604 47.17842,21.06825 75.625,21.09375 2.43375,28.78136 5.27196,57.49399 8.5625,86.15625 3.22082,34.31002 0.34324,68.919 4.21875,103.1875 25.81233,15.02528 56.96133,-147.04513 60.375,-166.65625 -0.24118,-11.17525 -0.4095,-22.35148 -0.5,-33.53125 25.67647,-7.19309 49.85097,-17.24131 69.28125,-27.96875 16.92782,-12.59832 5.79498,-41.83939 -13.75,-43.5 -18.93969,3.87714 -37.34614,9.05778 -55.5,14.8125 0.1439,-22.5266 0.3979,-45.03442 0.625,-67.5625 10.05524,-2.10572 19.38736,-4.49681 27.53125,-7 21.3705,-1.87428 31.17257,-31.61346 16.84375,-44.59375 -14.52023,-3.94587 -29.21608,-5.54338 -44,-5.375 0.0368,-21.39657 -0.0658,-42.77579 -0.5,-64.15625 -2.52735,-12.64992 -10.4779,-23.64381 -15.375,-35.5625 -6.16762,-17.8848 -28.86172,-7.12929 -41.8125,-2.5625 -22.05033,3.42845 -29.25762,28.85129 -27.84375,48.09375 0.36923,23.45475 0.94547,46.92953 1.71875,70.40625 -19.74065,6.61531 -39.00723,14.5294 -57.625,22.3125 0.80796,-37.83595 -1.17436,-73.38438 -9.5625,-103.0625 6.8599,-0.46349 14.00018,-3.94644 19.875,-11.1875 33.62559,-16.55432 69.37649,-28.64283 104.71875,-41.0625 34.78649,-9.55421 71.59653,-24.99638 107.875,-14.34375 15.06947,64.64509 17.0556,131.29377 21.84375,197.25 -2.66058,101.48185 -13.23238,203.8087 -23.90625,305.09375 0.002,30.23491 -40.89954,20.51996 -59.9375,14.375 -31.68627,-20.32164 -8.86135,19.59346 10.84375,40.09375 17.19276,13.4521 23.63864,42.76189 51.28125,35.125 22.47463,-3.45805 47.54463,-4.41311 66.46875,-18.09375 25.61823,-8.93164 29.98806,-35.04296 35.625,-58.21875 8.59001,-36.43142 21.10083,-72.94337 21.625,-110.28125 1.54406,-109.98819 -3.7918,-220.52134 -3.5625,-330.75 -9.03009,-41.32899 -35.55227,-79.7979 -73.40625,-99.8125 -39.76883,-12.63866 -83.75017,-10.84198 -124.03125,-0.84375 -1.6784,0.66664 -3.37241,1.32654 -5.0625,1.96875 -6.30774,-24.28072 -25.83743,-44.03841 -40.4375,-63.90625 45.1568,-22.82105 79.26692,-60.89147 138.75,-50.78125 13.25249,6.78097 28.09891,15.39083 43.34375,10.59375 12.01561,-18.18024 -0.0163,-55.00297 -4.53125,-77.34375 C 753.1101,52.449226 730.82503,21.964185 698.25,22 z M 210.28125,151.3125 c -31.15136,14.81916 -47.47153,15.92156 -52.59375,44.09375 13.75419,12.39781 48.35164,33.70752 66.1875,39.03125 19.42615,23.12158 1.85089,17.12829 14.28125,43.8125 16.94331,-36.42899 49.40583,-8.38812 74.09375,-20.5 2.73532,-9.62923 10.93234,-29.4001 13.4375,-39.0625 -11.00395,-56.55164 -62.9424,-61.10076 -115.40625,-67.375 z"
         transform="matrix(0.21046532,0,0,0.21046532,330.91862,838.9441)"
         id="path4012"
         sodipodi:nodetypes="ccccccccccccccccccccccccccccccccccccccccccccccccccccccccccccccccccccccccccccccccscccccccccccccccc" />
    </g>
  </g>
</svg>
