<?xml version="1.0" encoding="UTF-8" standalone="no"?>
<!-- Created with Inkscape (http://www.inkscape.org/) -->

<svg
   xmlns:dc="http://purl.org/dc/elements/1.1/"
   xmlns:cc="http://creativecommons.org/ns#"
   xmlns:rdf="http://www.w3.org/1999/02/22-rdf-syntax-ns#"
   xmlns:svg="http://www.w3.org/2000/svg"
   xmlns="http://www.w3.org/2000/svg"
   xmlns:sodipodi="http://sodipodi.sourceforge.net/DTD/sodipodi-0.dtd"
   xmlns:inkscape="http://www.inkscape.org/namespaces/inkscape"
   width="1000"
   height="1000"
   id="svg3173"
   version="1.1"
   inkscape:version="0.47 r22583"
   sodipodi:docname="9053.svg"
   inkscape:export-filename="E:\chinese\yan\9053.png"
   inkscape:export-xdpi="18.005705"
   inkscape:export-ydpi="18.005705">
  <title
     id="title4687">Dao</title>
  <defs
     id="defs3175">
    <inkscape:perspective
       sodipodi:type="inkscape:persp3d"
       inkscape:vp_x="0 : 526.18109 : 1"
       inkscape:vp_y="0 : 1000 : 0"
       inkscape:vp_z="744.09448 : 526.18109 : 1"
       inkscape:persp3d-origin="372.04724 : 350.78739 : 1"
       id="perspective3181" />
    <inkscape:perspective
       id="perspective3191"
       inkscape:persp3d-origin="0.5 : 0.33333333 : 1"
       inkscape:vp_z="1 : 0.5 : 1"
       inkscape:vp_y="0 : 1000 : 0"
       inkscape:vp_x="0 : 0.5 : 1"
       sodipodi:type="inkscape:persp3d" />
    <inkscape:perspective
       id="perspective4006"
       inkscape:persp3d-origin="0.5 : 0.33333333 : 1"
       inkscape:vp_z="1 : 0.5 : 1"
       inkscape:vp_y="0 : 1000 : 0"
       inkscape:vp_x="0 : 0.5 : 1"
       sodipodi:type="inkscape:persp3d" />
    <inkscape:perspective
       id="perspective4034"
       inkscape:persp3d-origin="0.5 : 0.33333333 : 1"
       inkscape:vp_z="1 : 0.5 : 1"
       inkscape:vp_y="0 : 1000 : 0"
       inkscape:vp_x="0 : 0.5 : 1"
       sodipodi:type="inkscape:persp3d" />
    <inkscape:perspective
       id="perspective4081"
       inkscape:persp3d-origin="0.5 : 0.33333333 : 1"
       inkscape:vp_z="1 : 0.5 : 1"
       inkscape:vp_y="0 : 1000 : 0"
       inkscape:vp_x="0 : 0.5 : 1"
       sodipodi:type="inkscape:persp3d" />
    <inkscape:perspective
       id="perspective4147"
       inkscape:persp3d-origin="0.5 : 0.33333333 : 1"
       inkscape:vp_z="1 : 0.5 : 1"
       inkscape:vp_y="0 : 1000 : 0"
       inkscape:vp_x="0 : 0.5 : 1"
       sodipodi:type="inkscape:persp3d" />
    <inkscape:perspective
       id="perspective3801"
       inkscape:persp3d-origin="0.5 : 0.33333333 : 1"
       inkscape:vp_z="1 : 0.5 : 1"
       inkscape:vp_y="0 : 1000 : 0"
       inkscape:vp_x="0 : 0.5 : 1"
       sodipodi:type="inkscape:persp3d" />
    <inkscape:perspective
       id="perspective3122"
       inkscape:persp3d-origin="0.5 : 0.33333333 : 1"
       inkscape:vp_z="1 : 0.5 : 1"
       inkscape:vp_y="0 : 1000 : 0"
       inkscape:vp_x="0 : 0.5 : 1"
       sodipodi:type="inkscape:persp3d" />
    <inkscape:perspective
       id="perspective3854"
       inkscape:persp3d-origin="0.5 : 0.33333333 : 1"
       inkscape:vp_z="1 : 0.5 : 1"
       inkscape:vp_y="0 : 1000 : 0"
       inkscape:vp_x="0 : 0.5 : 1"
       sodipodi:type="inkscape:persp3d" />
    <inkscape:perspective
       id="perspective3767"
       inkscape:persp3d-origin="0.5 : 0.33333333 : 1"
       inkscape:vp_z="1 : 0.5 : 1"
       inkscape:vp_y="0 : 1000 : 0"
       inkscape:vp_x="0 : 0.5 : 1"
       sodipodi:type="inkscape:persp3d" />
    <inkscape:perspective
       id="perspective3795"
       inkscape:persp3d-origin="0.5 : 0.33333333 : 1"
       inkscape:vp_z="1 : 0.5 : 1"
       inkscape:vp_y="0 : 1000 : 0"
       inkscape:vp_x="0 : 0.5 : 1"
       sodipodi:type="inkscape:persp3d" />
  </defs>
  <sodipodi:namedview
     id="base"
     pagecolor="#ffffff"
     bordercolor="#666666"
     borderopacity="1.0"
     inkscape:pageopacity="0.0"
     inkscape:pageshadow="2"
     inkscape:zoom="0.49497475"
     inkscape:cx="444.68522"
     inkscape:cy="520.83683"
     inkscape:document-units="px"
     inkscape:current-layer="g4634"
     showgrid="false"
     inkscape:window-width="1440"
     inkscape:window-height="840"
     inkscape:window-x="-4"
     inkscape:window-y="-4"
     inkscape:window-maximized="1" />
  <metadata
     id="metadata3178">
    <rdf:RDF>
      <cc:Work
         rdf:about="">
        <dc:format>image/svg+xml</dc:format>
        <dc:type
           rdf:resource="http://purl.org/dc/dcmitype/StillImage" />
        <dc:title>Dao</dc:title>
        <dc:date>2010-08-10</dc:date>
        <dc:creator>
          <cc:Agent>
            <dc:title>Alex Amies</dc:title>
          </cc:Agent>
        </dc:creator>
        <dc:rights>
          <cc:Agent>
            <dc:title>@ Alex Amies 2010</dc:title>
          </cc:Agent>
        </dc:rights>
        <dc:publisher>
          <cc:Agent>
            <dc:title>chinesenotes.com</dc:title>
          </cc:Agent>
        </dc:publisher>
        <dc:source>Yan Qin Ceremonial Inscription</dc:source>
        <dc:language>Chinese 中文</dc:language>
        <dc:description>Tracing from Tang Dynasty Ceremonial Inscription by Yan Zhenqing 颜真卿 (709－785)</dc:description>
        <cc:license
           rdf:resource="http://creativecommons.org/licenses/by/3.0/" />
      </cc:Work>
      <cc:License
         rdf:about="http://creativecommons.org/licenses/by/3.0/">
        <cc:permits
           rdf:resource="http://creativecommons.org/ns#Reproduction" />
        <cc:permits
           rdf:resource="http://creativecommons.org/ns#Distribution" />
        <cc:requires
           rdf:resource="http://creativecommons.org/ns#Notice" />
        <cc:requires
           rdf:resource="http://creativecommons.org/ns#Attribution" />
        <cc:permits
           rdf:resource="http://creativecommons.org/ns#DerivativeWorks" />
      </cc:License>
    </rdf:RDF>
  </metadata>
  <g
     inkscape:label="Layer 1"
     inkscape:groupmode="layer"
     id="layer1"
     transform="translate(0,-52.362183)">
    <g
       transform="matrix(4.7609464,0,0,4.7609464,-444.07486,-2879.5352)"
       id="g4634"
       style="fill:#000000;fill-opacity:1">
      <g
         transform="matrix(0.99597986,0,0,0.99597986,-185.01989,389.54691)"
         id="g7252"
         style="fill:#000000;fill-opacity:1">
        <path
           id="path7191"
           d="m 327.5,250.21933 c -1.44748,0.79276 -2.96773,1.91027 -3.92857,3.21428 -0.70582,0.9579 -1.23342,2.40507 -1.07143,3.57143 0.27663,1.9918 2.47378,3.36251 4.21071,4.51466 2.59465,1.7211 4.78169,4.24423 7.575,5.48534 3.09831,1.37663 6.87326,1.20753 10.01537,2.78825 1.53143,0.77042 3.79439,0.71951 5.08459,-0.46435 1.43342,-1.31527 3.68795,-2.69223 3.82862,-4.46672 0.28489,-3.59376 -1.82447,-7.92398 -4.23864,-11.12412 -1.40102,-1.85714 -3.56501,-2.94864 -5.34542,-4.42538 -0.36732,-0.30467 -0.66401,-0.84989 -1.13023,-0.87907 -3.77566,-0.23634 -7.82247,-0.22927 -11.56858,0.96875 -1.11894,0.35784 -2.42555,0.26604 -3.43142,0.81693 z"
           style="fill:#000000;fill-opacity:1;stroke:#000000;stroke-width:1px;stroke-linecap:butt;stroke-linejoin:miter;stroke-opacity:1"
           sodipodi:nodetypes="cssssssssssss" />
        <path
           id="path7193"
           d="m 314.64286,293.79075 c -2.63849,2.93303 -7.58632,6.05702 -5.99547,10.62795 2.46661,3.22612 7.19247,2.65691 10.82626,3.1104 4.20209,0.17435 8.01976,2.45305 11.19469,5.05937 3.56901,2.0632 1.70475,6.80806 0.65859,9.94881 -2.36264,3.23277 -4.06169,7.36383 -5.06447,10.99126 2.02551,4.84551 6.17673,8.44088 8.36836,13.15144 1.50486,3.36648 2.60954,6.9432 1.60996,10.62981 -0.82761,5.6754 -3.46486,10.83596 -5.52649,16.12382 1.21513,5.08664 4.5155,-0.26752 6.44233,-1.90378 2.25702,-2.36108 4.33105,-4.8889 6.34523,-7.45793 1.08874,-3.87536 3.09285,-8.75177 7.71992,-9.09329 3.4727,-0.0507 7.4674,-0.80362 7.76178,-5.01216 -0.17152,-3.15755 -1.99383,-6.13118 -3.99283,-8.51141 -3.01512,-3.67424 -7.44457,-5.99842 -11.94228,-7.31288 -2.57391,-1.50056 -9.38956,0.24757 -8.80662,-3.85347 3.88747,-5.86234 8.08804,-11.68928 10.61568,-18.28426 1.80159,-4.48263 -0.48875,-8.75246 -3.84722,-11.66184 -3.74763,-2.75662 -7.80304,-5.56116 -12.33767,-6.76145 -4.02847,-0.58461 -8.14826,-1.14484 -12.15079,-0.0722 -0.62391,0.10897 -1.24956,0.20986 -1.87896,0.28182 z"
           style="fill:#000000;fill-opacity:1;stroke:#000000;stroke-width:1px;stroke-linecap:butt;stroke-linejoin:miter;stroke-opacity:1" />
        <path
           sodipodi:nodetypes="cccccccccscccccc"
           id="path7195"
           d="m 300,368.43361 c -4.56913,2.80349 -6.22966,12.39774 -1.19627,14.71749 6.16209,3.57015 12.78957,-2.24565 18.47956,0.85372 8.54467,4.86688 15.684,11.70824 23.01132,18.15202 6.50616,4.7104 13.3631,8.9196 21.10967,11.22287 11.32136,4.08858 22.65624,8.55999 34.73567,9.71579 18.19055,2.64363 36.10812,7.47862 54.57434,7.83811 4.98472,-4.25381 9.21895,-9.71348 14.29943,-13.59934 3.32876,-1.18117 6.65752,-2.36235 9.98628,-3.54352 -0.0218,-1.97777 0.77509,-3.3667 -2.51499,-3.52793 -3.83108,-0.18773 -10.24854,0.48442 -13.54111,-0.85714 -16.8122,-0.9368 -33.58324,-2.42704 -50.21159,-5.11147 -10.81607,-1.63662 -21.74848,-2.81341 -32.47246,-4.87122 -9.41927,-3.50993 -19.25414,-6.08084 -28.3713,-10.29289 -11.00024,-5.9982 -19.82459,-14.98859 -30.03141,-22.12506 -5.76971,-2.99041 -12.01724,0.57519 -17.85714,1.42857 z"
           style="fill:#000000;fill-opacity:1;stroke:#000000;stroke-width:1px;stroke-linecap:butt;stroke-linejoin:miter;stroke-opacity:1" />
        <path
           id="path7197"
           d="m 361.78571,241.6479 c -1.35987,1.00183 -3.27313,1.86201 -3.92857,3.21428 -0.54932,1.13333 -0.27439,2.9722 0.63647,4.23271 1.07824,1.49213 1.50992,3.60903 2.93491,4.69586 3.12474,2.38322 7.75591,3.11091 10.71429,5.71429 2.994,2.63471 4.37873,7.32802 7.14285,10 0.80731,0.7804 2.52596,0.67542 3.57143,0.35714 0.93601,-0.28496 1.54281,-1.53845 1.68089,-2.69015 0.23675,-1.97465 1.43375,-3.96504 1.17626,-5.88128 -0.42185,-3.13943 -1.32598,-6.7145 -3.21429,-9.28571 -3.22419,-4.39021 -7.73473,-8.45876 -12.04122,-11.68407 -1.37846,-1.03238 -3.87958,-1.65955 -5.48109,-0.70432 -1.0828,0.64584 -2.17833,1.28453 -3.19193,2.03125 z"
           style="fill:#000000;fill-opacity:1;stroke:#000000;stroke-width:1px;stroke-linecap:butt;stroke-linejoin:miter;stroke-opacity:1"
           sodipodi:nodetypes="cssssssssssss" />
        <path
           id="path7199"
           d="m 429.28571,233.43361 c -5.05448,2.19191 -10.35016,4.46782 -15.00588,7.586 -3.93698,2.63681 -8.45575,5.06734 -11.42269,8.48543 -1.5549,1.79134 -2.26005,4.79896 -2.14285,7.14286 0.1209,2.418 0.77163,6.59072 2.85714,7.14285 5.02295,1.32981 12.00847,-2.80276 17.41048,-5.75882 3.7956,-2.07701 8.36492,-2.90622 11.87523,-5.3126 3.06715,-2.10259 6.72754,-5.10785 7.85715,-8.21429 0.77515,-2.13166 -0.68128,-5.57302 -2.14286,-7.5 -1.42311,-1.87627 -4.07788,-3.48344 -6.84436,-3.38362 -0.81414,0.0294 -1.70508,-0.5071 -2.44136,-0.18781 z"
           style="fill:#000000;fill-opacity:1;stroke:#000000;stroke-width:1px;stroke-linecap:butt;stroke-linejoin:miter;stroke-opacity:1"
           sodipodi:nodetypes="cssssssssss" />
        <path
           style="fill:#000000;fill-opacity:1;stroke:#000000;stroke-width:1px;stroke-linecap:butt;stroke-linejoin:miter;stroke-opacity:1"
           d="m 446.78125,262.65625 c -1.95397,-0.008 -3.82603,0.55318 -5.4375,1.96875 -4.05687,1.77042 -6.91055,6.12682 -11.4375,6.625 -21.08949,2.75865 -42.14042,5.93541 -63.03125,9.9375 -6.91544,1.33506 -13.7087,3.65024 -20.8125,3.6875 -2.22319,5.11603 5.48187,7.05367 8.375,9.90625 3.14653,3.86239 7.6702,1.76087 11.375,-0.0625 4.60672,-2.77324 8.95076,-6.20664 13.875,-8.3125 3.12623,-0.66118 6.26043,-1.41854 9.375,-2.15625 -0.35133,0.86876 -0.63274,1.78328 -0.875,2.625 -0.46824,1.62691 -0.19428,3.48701 -0.8125,5.0625 -1.67113,4.25872 -4.73403,8.76437 -5.59375,12.5625 -0.16993,0.75071 1.69569,1.38732 2.5,1.0625 5.38616,-2.17518 10.50926,-6.27587 16.0625,-8.5625 2.542,-1.0467 6.36533,-0.10303 8.21875,-1.4375 1.12277,-0.8084 1.52316,-3.7148 0.71875,-5 -1.85066,-2.95679 -5.62198,-5.31715 -8.40625,-8 -0.38556,-0.37151 -0.9041,-0.53765 -1.4375,-0.6875 2.93572,-0.63913 5.88345,-1.23565 8.84375,-1.71875 10.62628,-0.38883 21.24648,-1.15041 31.875,-1.28125 3.99292,0.0636 8.2373,1.64659 12.0625,0.5625 1.94668,-0.5517 4.60474,-0.85884 5.71875,-2.3125 1.19038,-1.55331 2.66732,-4.1517 2.0625,-5.84375 -1.01164,-2.83017 -3.92363,-5.82198 -7.34375,-7.25 -1.88619,-0.78755 -3.92103,-1.36653 -5.875,-1.375 z"
           id="path7201" />
        <path
           style="fill:#000000;fill-opacity:1;stroke:#000000;stroke-width:1px;stroke-linecap:butt;stroke-linejoin:miter;stroke-opacity:1"
           d="m 376.46875,305.28125 c -0.52583,3.4e-4 -1.04288,0.10435 -1.46875,0.28125 -1.32069,0.54859 -3.526,1.38599 -3.5625,2.875 -0.55874,22.7967 0.0239,46.84125 1.78125,70 0.45081,5.941 2.5634,12.53564 5.34375,17.125 0.72076,1.18971 4.07603,1.58538 4.65625,0.375 1.11221,-2.32013 1.611,-5.20099 1.875,-8.25 1.00796,0.0964 2.15902,0.0605 3.09375,0.0312 3.6289,-0.11356 7.251,0.0813 10.875,-0.25 3.52086,-0.32196 7.18165,-0.12878 10.59375,-0.8125 1.54131,-0.30885 3.27701,-1.08506 4.28125,-2.15625 0.78147,-0.83358 1.3276,-2.49086 1.0625,-3.5625 -0.32624,-1.31878 -1.51863,-2.86234 -2.75,-3.71875 -1.22024,-0.84866 -2.58125,-2.08078 -4.03125,-2 -5.72654,0.31905 -11.88903,1.62896 -17.5,3.21875 -1.53188,0.43403 -2.73469,1.77308 -3.9375,2.84375 -0.46637,0.41514 -0.96931,0.84151 -1.4375,1.28125 0.0452,-2.43653 0.0617,-4.87005 0.125,-7.15625 0.36141,-13.05315 0.43898,-26.13057 0.71875,-39.1875 0.42434,0.34988 0.89779,0.65178 1.3125,0.78125 1.86509,0.58227 4.23842,0.76166 6.25,0.3125 5.00304,-1.1171 10.25706,-2.43305 14.8125,-4.59375 1.9292,-0.91504 4.17449,-2.93567 4.65625,-4.65625 0.35157,-1.25561 -0.96677,-3.52431 -2.15625,-4.28125 -1.42957,-0.90972 -3.95977,-1.33173 -5.71875,-0.71875 -6.09816,2.12512 -12.07892,5.7011 -17.84375,8.9375 -0.39374,0.22105 -0.83108,0.54391 -1.25,0.875 0.0844,-3.47009 0.1849,-6.93792 0.3125,-10.40625 0.10218,-2.77735 1.70256,-6.03 0.59375,-8.3125 -1.66438,-3.42617 -5.67967,-6.38053 -9.21875,-8.5 -0.41834,-0.25054 -0.94292,-0.37534 -1.46875,-0.375 z m 31.75,42.4375 c -3.53853,-0.0804 -7.60908,1.20497 -11.0625,2.5 -1.30849,0.49068 -2.0812,1.97704 -3.21875,2.84375 -1.36245,1.03805 -3.63495,1.65422 -4.28125,2.875 -0.42513,0.80303 0.16982,2.69546 1.0625,3.21875 2.5597,1.50052 6.19632,2.77811 9.28125,2.84375 2.51031,0.0534 4.94326,-2.01629 7.5,-2.5 1.84802,-0.34962 4.05923,-2.42383 4.65625,-4.28125 0.4744,-1.47591 1.29362,-3.49912 0.6875,-4.65625 -0.70341,-1.34287 -2.92543,-2.80512 -4.625,-2.84375 z"
           id="path7205" />
        <path
           sodipodi:nodetypes="cccccccccccccccc"
           id="path7207"
           d="m 389.64286,308.79075 c -1.45956,4.89486 4.70266,7.44616 8.32855,5.07808 5.77242,-2.69249 11.59249,-5.28557 17.38573,-7.93522 1.42857,0.71429 2.85715,1.42857 4.28572,2.14286 0.75516,14.47541 2.02039,28.93761 2.43763,43.42223 -0.24445,7.38952 0.26925,14.88422 -1.61322,22.11175 -1.03423,6.51631 -3.0937,12.95335 -2.97891,19.58826 0.95131,3.39873 4.80282,6.9918 8.49613,6.24346 2.69151,-1.50059 5.23173,-3.29272 6.91888,-5.91918 1.77031,-2.17265 3.54061,-4.3453 5.31092,-6.51795 1.59662,-24.886 -0.71671,-51.91024 -0.77548,-77.86421 -0.90528,-5.21182 -5.39687,-8.19369 -9.22477,-11.31469 -2.66896,-1.63427 -6.79176,-6.7663 -9.59847,-2.92695 -2.26951,2.982 -4.71113,5.39415 -8.66856,5.70183 -5.16106,1.56659 -10.52528,2.7171 -15.52028,4.68156 -1.59463,1.16939 -3.18925,2.33878 -4.78387,3.50817 z"
           style="fill:#000000;fill-opacity:1;stroke:#000000;stroke-width:1px;stroke-linecap:butt;stroke-linejoin:miter;stroke-opacity:1" />
      </g>
    </g>
  </g>
</svg>
