<?xml version="1.0" encoding="UTF-8" standalone="no"?>
<!-- Created with Inkscape (http://www.inkscape.org/) -->

<svg
   xmlns:dc="http://purl.org/dc/elements/1.1/"
   xmlns:cc="http://creativecommons.org/ns#"
   xmlns:rdf="http://www.w3.org/1999/02/22-rdf-syntax-ns#"
   xmlns:svg="http://www.w3.org/2000/svg"
   xmlns="http://www.w3.org/2000/svg"
   xmlns:sodipodi="http://sodipodi.sourceforge.net/DTD/sodipodi-0.dtd"
   xmlns:inkscape="http://www.inkscape.org/namespaces/inkscape"
   width="1000"
   height="1000"
   id="svg3173"
   version="1.1"
   inkscape:version="0.47 r22583"
   sodipodi:docname="909b.svg"
   inkscape:export-filename="E:\chinese\yan\909b.png"
   inkscape:export-xdpi="18.005705"
   inkscape:export-ydpi="18.005705">
  <title
     id="title5387">Qiong</title>
  <defs
     id="defs3175">
    <inkscape:perspective
       sodipodi:type="inkscape:persp3d"
       inkscape:vp_x="0 : 526.18109 : 1"
       inkscape:vp_y="0 : 1000 : 0"
       inkscape:vp_z="744.09448 : 526.18109 : 1"
       inkscape:persp3d-origin="372.04724 : 350.78739 : 1"
       id="perspective3181" />
    <inkscape:perspective
       id="perspective3191"
       inkscape:persp3d-origin="0.5 : 0.33333333 : 1"
       inkscape:vp_z="1 : 0.5 : 1"
       inkscape:vp_y="0 : 1000 : 0"
       inkscape:vp_x="0 : 0.5 : 1"
       sodipodi:type="inkscape:persp3d" />
    <inkscape:perspective
       id="perspective4006"
       inkscape:persp3d-origin="0.5 : 0.33333333 : 1"
       inkscape:vp_z="1 : 0.5 : 1"
       inkscape:vp_y="0 : 1000 : 0"
       inkscape:vp_x="0 : 0.5 : 1"
       sodipodi:type="inkscape:persp3d" />
    <inkscape:perspective
       id="perspective4034"
       inkscape:persp3d-origin="0.5 : 0.33333333 : 1"
       inkscape:vp_z="1 : 0.5 : 1"
       inkscape:vp_y="0 : 1000 : 0"
       inkscape:vp_x="0 : 0.5 : 1"
       sodipodi:type="inkscape:persp3d" />
    <inkscape:perspective
       id="perspective4081"
       inkscape:persp3d-origin="0.5 : 0.33333333 : 1"
       inkscape:vp_z="1 : 0.5 : 1"
       inkscape:vp_y="0 : 1000 : 0"
       inkscape:vp_x="0 : 0.5 : 1"
       sodipodi:type="inkscape:persp3d" />
    <inkscape:perspective
       id="perspective4147"
       inkscape:persp3d-origin="0.5 : 0.33333333 : 1"
       inkscape:vp_z="1 : 0.5 : 1"
       inkscape:vp_y="0 : 1000 : 0"
       inkscape:vp_x="0 : 0.5 : 1"
       sodipodi:type="inkscape:persp3d" />
    <inkscape:perspective
       id="perspective3858"
       inkscape:persp3d-origin="0.5 : 0.33333333 : 1"
       inkscape:vp_z="1 : 0.5 : 1"
       inkscape:vp_y="0 : 1000 : 0"
       inkscape:vp_x="0 : 0.5 : 1"
       sodipodi:type="inkscape:persp3d" />
    <inkscape:perspective
       id="perspective3876"
       inkscape:persp3d-origin="0.5 : 0.33333333 : 1"
       inkscape:vp_z="1 : 0.5 : 1"
       inkscape:vp_y="0 : 1000 : 0"
       inkscape:vp_x="0 : 0.5 : 1"
       sodipodi:type="inkscape:persp3d" />
    <inkscape:perspective
       id="perspective3901"
       inkscape:persp3d-origin="0.5 : 0.33333333 : 1"
       inkscape:vp_z="1 : 0.5 : 1"
       inkscape:vp_y="0 : 1000 : 0"
       inkscape:vp_x="0 : 0.5 : 1"
       sodipodi:type="inkscape:persp3d" />
    <inkscape:perspective
       id="perspective4392"
       inkscape:persp3d-origin="0.5 : 0.33333333 : 1"
       inkscape:vp_z="1 : 0.5 : 1"
       inkscape:vp_y="0 : 1000 : 0"
       inkscape:vp_x="0 : 0.5 : 1"
       sodipodi:type="inkscape:persp3d" />
    <inkscape:perspective
       id="perspective3806"
       inkscape:persp3d-origin="0.5 : 0.33333333 : 1"
       inkscape:vp_z="1 : 0.5 : 1"
       inkscape:vp_y="0 : 1000 : 0"
       inkscape:vp_x="0 : 0.5 : 1"
       sodipodi:type="inkscape:persp3d" />
    <inkscape:perspective
       id="perspective3763"
       inkscape:persp3d-origin="0.5 : 0.33333333 : 1"
       inkscape:vp_z="1 : 0.5 : 1"
       inkscape:vp_y="0 : 1000 : 0"
       inkscape:vp_x="0 : 0.5 : 1"
       sodipodi:type="inkscape:persp3d" />
    <inkscape:perspective
       id="perspective3790"
       inkscape:persp3d-origin="0.5 : 0.33333333 : 1"
       inkscape:vp_z="1 : 0.5 : 1"
       inkscape:vp_y="0 : 1000 : 0"
       inkscape:vp_x="0 : 0.5 : 1"
       sodipodi:type="inkscape:persp3d" />
    <inkscape:perspective
       id="perspective3825"
       inkscape:persp3d-origin="0.5 : 0.33333333 : 1"
       inkscape:vp_z="1 : 0.5 : 1"
       inkscape:vp_y="0 : 1000 : 0"
       inkscape:vp_x="0 : 0.5 : 1"
       sodipodi:type="inkscape:persp3d" />
    <inkscape:perspective
       id="perspective3767"
       inkscape:persp3d-origin="0.5 : 0.33333333 : 1"
       inkscape:vp_z="1 : 0.5 : 1"
       inkscape:vp_y="0 : 1000 : 0"
       inkscape:vp_x="0 : 0.5 : 1"
       sodipodi:type="inkscape:persp3d" />
  </defs>
  <sodipodi:namedview
     id="base"
     pagecolor="#ffffff"
     bordercolor="#666666"
     borderopacity="1.0"
     inkscape:pageopacity="0.0"
     inkscape:pageshadow="2"
     inkscape:zoom="0.49497475"
     inkscape:cx="413.61348"
     inkscape:cy="540.34663"
     inkscape:document-units="px"
     inkscape:current-layer="g4371"
     showgrid="false"
     inkscape:window-width="1440"
     inkscape:window-height="840"
     inkscape:window-x="-4"
     inkscape:window-y="-4"
     inkscape:window-maximized="1" />
  <metadata
     id="metadata3178">
    <rdf:RDF>
      <cc:Work
         rdf:about="">
        <dc:format>image/svg+xml</dc:format>
        <dc:type
           rdf:resource="http://purl.org/dc/dcmitype/StillImage" />
        <dc:title>Qiong</dc:title>
        <dc:date>2010-08-11</dc:date>
        <dc:creator>
          <cc:Agent>
            <dc:title>Alex Amies</dc:title>
          </cc:Agent>
        </dc:creator>
        <dc:rights>
          <cc:Agent>
            <dc:title>@ Alex Amies 2010</dc:title>
          </cc:Agent>
        </dc:rights>
        <dc:publisher>
          <cc:Agent>
            <dc:title>chinesenotes.com</dc:title>
          </cc:Agent>
        </dc:publisher>
        <dc:source>Yan Qin Ceremonial Inscription</dc:source>
        <dc:language>Chinese 中文</dc:language>
        <dc:description>Tracing from Tang Dynasty Ceremonial Inscription by Yan Zhenqing 颜真卿 (709－785)</dc:description>
        <cc:license
           rdf:resource="http://creativecommons.org/licenses/by/3.0/" />
      </cc:Work>
      <cc:License
         rdf:about="http://creativecommons.org/licenses/by/3.0/">
        <cc:permits
           rdf:resource="http://creativecommons.org/ns#Reproduction" />
        <cc:permits
           rdf:resource="http://creativecommons.org/ns#Distribution" />
        <cc:requires
           rdf:resource="http://creativecommons.org/ns#Notice" />
        <cc:requires
           rdf:resource="http://creativecommons.org/ns#Attribution" />
        <cc:permits
           rdf:resource="http://creativecommons.org/ns#DerivativeWorks" />
      </cc:License>
    </rdf:RDF>
  </metadata>
  <g
     inkscape:label="Layer 1"
     inkscape:groupmode="layer"
     id="layer1"
     transform="translate(0,-52.362183)">
    <g
       transform="matrix(4.7488612,0,0,4.7488612,-1416.4781,-3986.1517)"
       id="g4371"
       style="fill:#000000;fill-opacity:1">
      <g
         transform="matrix(1.0005297,0,0,1.0005297,-47.816642,855.10294)"
         id="g9045"
         style="fill:none;fill-opacity:1">
        <path
           style="fill:#000000;stroke:#000000;stroke-width:4.75137663000000020px;stroke-linecap:butt;stroke-linejoin:miter;stroke-opacity:1;fill-opacity:1"
           d="M 379.125 141.4375 C 373.43751 141.49416 367.58183 142.18854 362.46875 142.25 C 315.12665 142.81908 268.09896 148.52264 221.125 154 C 195.23784 157.01855 169.28131 162.36464 143.28125 161.96875 C 126.84633 161.71849 107.12036 151.82233 94.09375 157.34375 C 82.874562 162.0991 76.338898 179.84884 76.25 195.59375 C 76.104133 221.41949 78.537319 250.07966 94.71875 269.75 C 103.14722 279.99572 117.26363 283.38024 131.3125 284.5625 C 145.61172 285.76582 158.44056 282.79582 171.28125 277.34375 C 174.22148 276.19546 177.17265 275.08218 180.125 273.96875 C 178.74104 277.24687 177.58295 280.6313 176.75 284.1875 C 157.95954 380.02128 184.78012 475.51875 196.1875 570.78125 C 186.63608 575.87636 176.94689 580.64511 167.0625 584.96875 C 156.1312 588.90593 143.18014 589.88932 131.875 584.5625 C 117.46517 579.5755 111.73371 573.44292 94.09375 578.1875 C 87.422152 580.49686 79.964091 589.38447 78.8125 596.84375 C 76.250368 613.43979 87.758086 630.29066 98.1875 644.53125 C 120.56957 665.34295 144.21148 700.26257 175.6875 706.84375 C 188.31884 707.29276 202.62523 704.65684 212.78125 694.46875 C 270.9219 644.39508 314.56671 580.95417 366.5625 524.96875 C 385.75331 505.07611 410.0901 490.16506 428.875 470 C 435.18934 463.22176 445.11298 454.46069 445.34375 447.53125 C 445.5129 442.44804 436.11826 432.70891 430.09375 433.9375 C 406.25928 438.7981 380.42251 454.8831 357.78125 469.84375 C 323.79314 488.53051 291.3703 511.31922 258.40625 533.03125 C 262.07527 472.11827 266.69785 411.19366 271.21875 350.3125 C 272.28477 321.5011 282.80505 292.57437 280.15625 264.5 C 279.45565 257.07441 276.55305 250.00815 273.15625 243.03125 C 308.11781 232.21801 343.09988 221.48904 377.3125 208.5 C 386.05864 204.93905 398.32306 203.56895 402.9375 196.375 C 410.14353 185.14071 408.41626 166.02588 402.09375 152.53125 C 397.65691 143.06137 388.60414 141.34307 379.125 141.4375 z "
           transform="matrix(0.21046532,0,0,0.21046532,345.91084,-4.683125)"
           id="path9018" />
        <path
           style="fill:#000000;stroke:#000000;stroke-width:4.75137663000000020px;stroke-linecap:butt;stroke-linejoin:miter;stroke-opacity:1;fill-opacity:1"
           d="M 743.625 74.1875 C 696.35262 74.028249 650.97599 96.091672 610 117.9375 C 593.25781 130.60742 573.48569 135.09968 553.96875 138.6875 C 552.01873 141.15209 549.50824 144.08618 547.28125 147.21875 C 540.17037 144.89516 532.78059 143.15138 525.125 142.0625 C 492.66359 135.66051 509.21119 172.24221 509.65625 190.53125 C 516.10871 233.69606 527.36311 276.49567 528.25 320.25 C 525.56234 393.49907 520.04879 466.8554 521.1875 540.15625 C 528.14081 655.76333 531.29467 771.93673 548.03125 886.65625 C 550.8358 906.57511 552.73801 935.53566 579.1875 918.34375 C 594.05223 900.51202 600.48 873.83942 605.5625 850.625 C 612.76658 799.24547 626.97847 748.6422 630.5 696.875 C 633.41202 607.34818 630.4851 517.86797 626.34375 428.4375 C 624.48629 361.24567 628.99789 294.1133 630.3125 226.9375 C 625.47256 215.02176 619.24644 203.96792 611.8125 194.03125 C 623.42271 193.54005 634.95228 191.75088 643.90625 186.1875 C 667.09016 171.78262 681.87682 141.924 707.5 128.25 C 717.19585 123.07572 727.80931 108.26596 738.8125 113.53125 C 754.69573 117.29608 760.1631 139.32197 757.59375 153.96875 C 718.63341 207.66191 688.23517 266.32933 663.4375 328.0625 C 660.82481 335.2992 656.97138 343.82571 659.15625 350.8125 C 664.08595 366.57688 686.30313 352.04091 695.53125 344.84375 C 755.61203 292.04013 835.37959 251.39414 879.78125 182.8125 C 886.37141 169.64515 876.99508 149.18932 864.5 136.1875 C 836.16056 98.928249 793.60276 81.677077 748.21875 74.28125 C 746.68997 74.229105 745.14992 74.192637 743.625 74.1875 z "
           transform="matrix(0.21046532,0,0,0.21046532,345.91084,-4.683125)"
           id="path9024" />
        <path
           id="path9028"
           d="m 501.01172,79.99654 c -1.87611,2.357021 -1.46754,4.951068 -0.19346,7.469608 4.76855,5.378048 10.85217,9.958608 15.25317,15.610322 1.57671,2.02479 2.22258,4.80249 2.85714,7.28989 0.22076,0.86533 0.32333,1.69561 -1.02756,1.69684 -5.97682,0.005 -12.0888,0.33265 -18.0432,1.05069 -2.2653,0.27317 -6.10633,0.4509 -6.64352,1.74829 -0.54576,1.31809 1.60301,4.70956 3.33845,6.15017 7.87833,2.247 18.10076,14.68148 25.77529,16.24225 1.24728,-0.0903 2.83443,0.4547 3.7434,-0.24956 5.46359,-4.7393 7.45621,-12.49091 8.19558,-19.43155 0.37871,-8.80707 -2.0052,-17.37578 -7.59798,-24.229336 -3.07832,-3.373939 -7.51586,-5.49451 -11.02454,-8.529302 -2.20688,-1.908818 -3.97173,-4.562052 -6.35878,-6.024098 -3.00025,-1.411614 -5.81244,-0.850862 -8.27399,1.205786 z"
           style="fill:#000000;fill-opacity:1;stroke:#000000;stroke-width:1px;stroke-linecap:butt;stroke-linejoin:miter;stroke-opacity:1"
           sodipodi:nodetypes="ccssssscccccscc" />
      </g>
    </g>
  </g>
</svg>
