<?xml version="1.0" encoding="UTF-8" standalone="no"?>
<!-- Created with Inkscape (http://www.inkscape.org/) -->

<svg
   xmlns:dc="http://purl.org/dc/elements/1.1/"
   xmlns:cc="http://creativecommons.org/ns#"
   xmlns:rdf="http://www.w3.org/1999/02/22-rdf-syntax-ns#"
   xmlns:svg="http://www.w3.org/2000/svg"
   xmlns="http://www.w3.org/2000/svg"
   xmlns:sodipodi="http://sodipodi.sourceforge.net/DTD/sodipodi-0.dtd"
   xmlns:inkscape="http://www.inkscape.org/namespaces/inkscape"
   width="1000"
   height="1000"
   id="svg3173"
   version="1.1"
   inkscape:version="0.47 r22583"
   sodipodi:docname="90a0.svg"
   inkscape:export-filename="E:\chinese\yan\90a0.png"
   inkscape:export-xdpi="18.005705"
   inkscape:export-ydpi="18.005705">
  <title
     id="title4240">Bin</title>
  <defs
     id="defs3175">
    <inkscape:perspective
       sodipodi:type="inkscape:persp3d"
       inkscape:vp_x="0 : 526.18109 : 1"
       inkscape:vp_y="0 : 1000 : 0"
       inkscape:vp_z="744.09448 : 526.18109 : 1"
       inkscape:persp3d-origin="372.04724 : 350.78739 : 1"
       id="perspective3181" />
    <inkscape:perspective
       id="perspective3191"
       inkscape:persp3d-origin="0.5 : 0.33333333 : 1"
       inkscape:vp_z="1 : 0.5 : 1"
       inkscape:vp_y="0 : 1000 : 0"
       inkscape:vp_x="0 : 0.5 : 1"
       sodipodi:type="inkscape:persp3d" />
    <inkscape:perspective
       id="perspective4006"
       inkscape:persp3d-origin="0.5 : 0.33333333 : 1"
       inkscape:vp_z="1 : 0.5 : 1"
       inkscape:vp_y="0 : 1000 : 0"
       inkscape:vp_x="0 : 0.5 : 1"
       sodipodi:type="inkscape:persp3d" />
    <inkscape:perspective
       id="perspective4034"
       inkscape:persp3d-origin="0.5 : 0.33333333 : 1"
       inkscape:vp_z="1 : 0.5 : 1"
       inkscape:vp_y="0 : 1000 : 0"
       inkscape:vp_x="0 : 0.5 : 1"
       sodipodi:type="inkscape:persp3d" />
    <inkscape:perspective
       id="perspective4081"
       inkscape:persp3d-origin="0.5 : 0.33333333 : 1"
       inkscape:vp_z="1 : 0.5 : 1"
       inkscape:vp_y="0 : 1000 : 0"
       inkscape:vp_x="0 : 0.5 : 1"
       sodipodi:type="inkscape:persp3d" />
    <inkscape:perspective
       id="perspective4147"
       inkscape:persp3d-origin="0.5 : 0.33333333 : 1"
       inkscape:vp_z="1 : 0.5 : 1"
       inkscape:vp_y="0 : 1000 : 0"
       inkscape:vp_x="0 : 0.5 : 1"
       sodipodi:type="inkscape:persp3d" />
    <inkscape:perspective
       id="perspective3737"
       inkscape:persp3d-origin="0.5 : 0.33333333 : 1"
       inkscape:vp_z="1 : 0.5 : 1"
       inkscape:vp_y="0 : 1000 : 0"
       inkscape:vp_x="0 : 0.5 : 1"
       sodipodi:type="inkscape:persp3d" />
    <inkscape:perspective
       id="perspective3736"
       inkscape:persp3d-origin="0.5 : 0.33333333 : 1"
       inkscape:vp_z="1 : 0.5 : 1"
       inkscape:vp_y="0 : 1000 : 0"
       inkscape:vp_x="0 : 0.5 : 1"
       sodipodi:type="inkscape:persp3d" />
    <inkscape:perspective
       id="perspective2978"
       inkscape:persp3d-origin="0.5 : 0.33333333 : 1"
       inkscape:vp_z="1 : 0.5 : 1"
       inkscape:vp_y="0 : 1000 : 0"
       inkscape:vp_x="0 : 0.5 : 1"
       sodipodi:type="inkscape:persp3d" />
  </defs>
  <sodipodi:namedview
     id="base"
     pagecolor="#ffffff"
     bordercolor="#666666"
     borderopacity="1.0"
     inkscape:pageopacity="0.0"
     inkscape:pageshadow="2"
     inkscape:zoom="0.49497475"
     inkscape:cx="421.0303"
     inkscape:cy="482.85714"
     inkscape:document-units="px"
     inkscape:current-layer="g4264"
     showgrid="false"
     inkscape:window-width="1440"
     inkscape:window-height="840"
     inkscape:window-x="-4"
     inkscape:window-y="-4"
     inkscape:window-maximized="1" />
  <metadata
     id="metadata3178">
    <rdf:RDF>
      <cc:Work
         rdf:about="">
        <dc:format>image/svg+xml</dc:format>
        <dc:type
           rdf:resource="http://purl.org/dc/dcmitype/StillImage" />
        <dc:title>Bin</dc:title>
        <dc:date>2010-08-08</dc:date>
        <dc:creator>
          <cc:Agent>
            <dc:title>Alex Amies</dc:title>
          </cc:Agent>
        </dc:creator>
        <dc:rights>
          <cc:Agent>
            <dc:title>@ Alex Amies 2010</dc:title>
          </cc:Agent>
        </dc:rights>
        <dc:publisher>
          <cc:Agent>
            <dc:title>chinesenotes.com</dc:title>
          </cc:Agent>
        </dc:publisher>
        <dc:source>Yan Qin Ceremonial Inscription</dc:source>
        <dc:language>Chinese 中文</dc:language>
        <dc:description>Tracing from Tang Dynasty Ceremonial Inscription by Yan Zhenqing 颜真卿 (709－785)</dc:description>
        <cc:license
           rdf:resource="http://creativecommons.org/licenses/by/3.0/" />
      </cc:Work>
      <cc:License
         rdf:about="http://creativecommons.org/licenses/by/3.0/">
        <cc:permits
           rdf:resource="http://creativecommons.org/ns#Reproduction" />
        <cc:permits
           rdf:resource="http://creativecommons.org/ns#Distribution" />
        <cc:requires
           rdf:resource="http://creativecommons.org/ns#Notice" />
        <cc:requires
           rdf:resource="http://creativecommons.org/ns#Attribution" />
        <cc:permits
           rdf:resource="http://creativecommons.org/ns#DerivativeWorks" />
      </cc:License>
    </rdf:RDF>
  </metadata>
  <g
     inkscape:label="Layer 1"
     inkscape:groupmode="layer"
     id="layer1"
     transform="translate(0,-52.362183)">
    <g
       transform="matrix(4.7609464,0,0,4.7609464,-696.12274,-2965.6673)"
       id="g4264"
       style="fill:none;fill-opacity:1">
      <g
         transform="matrix(0.99396979,0,0,0.99396979,-338.85637,422.0739)"
         id="g3700"
         style="fill:#000000;fill-opacity:1">
        <path
           id="path3666"
           d="m 535,232.36218 c -1.18766,-0.0109 -3.03581,0.98869 -3.57143,2.14286 -1.08064,2.3286 -0.45765,5.63824 -1.86406,8.16917 -1.80296,3.24455 -2.89325,6.91023 -5.30731,9.81212 -5.6105,6.74427 -10.79674,13.85546 -16.8235,20.25283 -1.95327,2.07339 -3.80889,4.231 -5.21718,6.72858 -1.37455,2.43774 -5.02335,5.31672 -4.35938,7.18016 0.80538,2.26033 5.36077,-1.09902 7.78444,-2.43258 3.47163,-1.91018 7.3473,-3.50258 10.1559,-6.26436 7.54201,-7.41629 13.98541,-16.07868 21.47014,-23.52909 1.78177,-1.7736 4.77628,-2.32445 6.30381,-4.20255 1.64517,-2.02275 3.79759,-5.24646 3.21429,-7.5 -0.82483,-3.18671 -4.93185,-5.9621 -8.22535,-8.05744 -1.19197,-0.75833 -2.35166,-2.28857 -3.56037,-2.2997 z"
           style="fill:#000000;fill-opacity:1;stroke:#000000;stroke-width:1px;stroke-linecap:butt;stroke-linejoin:miter;stroke-opacity:1"
           sodipodi:nodetypes="csssssssssssss" />
        <path
           id="path3668"
           d="m 538.21429,279.86218 c -1.02767,-0.14626 -2.78963,0.53206 -3.21429,1.42857 -0.64677,1.3654 1.0013,3.96695 0,5.35715 -4.57766,6.35562 -9.61488,13.10239 -14.13404,19.84769 -6.56413,9.7976 -14.43524,20.04583 -19.08024,29.79516 -0.5646,1.18503 2.13876,3.54916 3.21428,2.85715 6.93478,-4.46202 12.60444,-13.45285 18.8081,-20.26588 7.42702,-8.15656 14.55382,-16.59857 22.22582,-24.52568 2.63139,-2.71889 -0.2944,-5.90033 -1.13041,-8.6814 -0.47168,-1.56907 -1.36522,-2.61775 -2.7818,-3.37062 -1.3531,-0.71914 -2.56119,-2.25054 -3.90742,-2.44214 z"
           style="fill:#000000;fill-opacity:1;stroke:#000000;stroke-width:1px;stroke-linecap:butt;stroke-linejoin:miter;stroke-opacity:1"
           sodipodi:nodetypes="cssssssssss" />
        <path
           id="path3670"
           d="m 566.78572,229.1479 c -0.95387,-0.49131 -1.82341,2.05659 -1.78572,3.21428 0.0957,2.94115 2.61492,5.54295 4.49297,7.96338 6.20324,7.99475 11.76728,16.61929 18.36417,24.17948 1.78641,2.04726 4.27734,4.00869 6.78572,4.64286 2.74752,0.69464 6.247,0.59674 8.97437,-1.15195 1.45488,-0.93282 4.2019,-1.04876 4.59706,-2.41951 0.661,-2.29289 0.0711,-6.29181 -1.42857,-8.57143 -2.19329,-3.33398 -5.60041,-6.81611 -9.99394,-7.93278 -2.98212,-0.75794 -5.49754,-2.64697 -7.97253,-4.44134 -7.26515,-5.26722 -15.04762,-11.88477 -22.03353,-15.48299 z"
           style="fill:#000000;fill-opacity:1;stroke:#000000;stroke-width:1px;stroke-linecap:butt;stroke-linejoin:miter;stroke-opacity:1"
           sodipodi:nodetypes="cssssssssss" />
        <path
           id="path3672"
           d="m 553.92857,281.6479 c -2.94806,2.24885 -2.75017,9.32991 1.68255,10.84524 3.28074,1.12153 6.87734,-0.6702 10.11151,-1.54383 2.35211,-0.63536 5.12365,-4.75024 6.42023,-3.58713 2.70224,2.42405 -1.58286,9.11244 -3.09969,13.45392 -2.45081,7.0147 -4.99172,14.09888 -8.97935,20.45794 -5.13568,8.18985 -9.46378,16.90944 -14.89054,24.90478 -1.61351,2.37722 -2.86264,6.10043 -5.17324,6.89765 -2.6281,0.90676 -8.61385,-3.36204 -9.64286,-1.78572 -1.36741,2.09472 -0.0693,8.21626 -2.29027,11.93374 -1.76059,2.94696 -2.63587,7.3897 -1.26713,9.8867 1.70809,3.11606 9.17092,2.04686 12.71062,-0.37321 3.88063,-2.65316 7.98487,-5.23136 10.58528,-9.3794 5.4121,-8.63311 11.78411,-16.80867 16.08804,-26.04941 5.35002,-11.48675 9.88207,-23.37464 14.17842,-35.32175 2.25172,-6.2615 5.48679,-12.63035 5.61602,-19.12423 0.0387,-1.94644 -0.84024,-4.52275 -2.40669,-5.50101 -3.46298,-2.16267 -8.34684,-0.6686 -12.44278,0.88764 -3.66951,1.39422 -7.45785,2.97275 -11.34407,3.39808 -1.9347,0.21175 -4.45151,-1.07142 -5.85605,0 z"
           style="fill:#000000;fill-opacity:1;stroke:#000000;stroke-width:1px;stroke-linecap:butt;stroke-linejoin:miter;stroke-opacity:1"
           sodipodi:nodetypes="csssssssssssssssssss" />
        <path
           id="path3674"
           d="m 619.64286,232.36218 c -7.29424,0.89619 -2.67552,11.2994 -4.04607,16.86355 -0.39929,42.98878 -1.32807,85.9789 -1.56089,128.96477 1.0721,14.00706 0.49115,28.25771 3.20391,42.06227 4.48435,6.54199 5.19555,-6.91679 5.85195,-10.12402 3.65102,-23.06631 5.72906,-46.34553 7.56239,-69.61814 1.44861,-28.19233 4.89504,-56.66883 4.34585,-84.577 -0.12607,-6.40658 -3.44622,-12.57919 -7.65514,-17.80445 -2.25791,-2.80314 -4.38843,-6.17409 -7.702,-5.76698 z"
           style="fill:#000000;fill-opacity:1;stroke:#000000;stroke-width:1px;stroke-linecap:butt;stroke-linejoin:miter;stroke-opacity:1"
           sodipodi:nodetypes="ccccccsss" />
        <path
           id="path3676"
           d="m 634.28572,238.43361 c -1.09474,2.52724 -1.78595,7.53674 1.7887,8.7052 2.94174,0.96158 5.94387,1.13675 8.80334,-0.91615 6.14882,-4.41444 13.19791,-10.586 19.40796,-12.07476 2.31596,-0.55521 -0.31859,4.41544 -1.29301,6.34806 -7.49539,14.86611 -15.99202,29.31293 -22.99271,44.36622 -1.94548,4.18329 3.94798,3.04047 5.83919,0.54824 3.8373,-5.05677 8.95953,-9.25793 12.64555,-14.58767 5.11254,-7.39241 10.03742,-15.01132 15.92238,-21.78938 3.85389,-4.43875 9.18039,-7.7755 12.96575,-11.99805 1.99799,-2.22874 1.25827,-6.56631 0.19208,-9.42299 -1.08878,-2.91718 -2.53221,-5.95131 -5.22539,-7.78283 -1.57181,-1.06892 -2.75087,-2.95425 -4.48242,-3.53875 -2.50304,-0.84492 -7.37696,-1.13345 -8.11978,2.51592 -0.43329,2.12867 0.0586,4.81495 -1.16593,6.41265 -1.81526,2.36841 -5.55357,3.19377 -8.74655,3.85376 -7.01038,1.44906 -14.31659,2.66324 -20.89631,5.07482 -1.93334,0.7086 -3.85664,2.47071 -4.64285,4.28571 z"
           style="fill:#000000;fill-opacity:1;stroke:#000000;stroke-width:1px;stroke-linecap:butt;stroke-linejoin:miter;stroke-opacity:1"
           sodipodi:nodetypes="csssssssssssssssss" />
        <path
           id="path3678"
           d="m 646.07143,291.6479 c 0.59338,2.90852 3.16214,5.84771 6.04151,7.87312 6.5709,4.62212 12.92936,9.68786 18.57896,15.46252 1.18324,1.20943 3.01406,2.13905 3.61553,3.61292 0.63736,1.56184 1.61244,4.11281 0.69257,5.19429 -1.55171,1.82434 -5.52245,1.91755 -8.52568,1.94293 -8.25717,0.0698 -16.62618,0.11319 -24.7995,1.07023 -1.69877,0.19892 -5.07148,0.63277 -4.8891,1.6297 0.33078,1.8082 3.80213,5.64142 6.42857,6.78571 2.59575,1.13091 6.26188,-0.23035 9.13408,1.19843 1.64729,0.81945 3.91513,0.73225 5.15163,2.01586 3.34471,3.47214 5.22363,9.15869 9.0615,11.90397 2.36625,1.69261 6.38526,1.12213 9.24753,-0.0272 2.9341,-1.17817 4.19479,-4.53309 5.63348,-7.17563 2.19935,-4.0397 3.3372,-8.58679 4.92449,-12.90591 1.38185,-3.76012 1.99478,-7.83327 2.01789,-11.81558 0.0191,-3.29223 -1.536,-6.39636 -2.29099,-9.59748 -0.58963,-2.50002 -2.61133,-4.25831 -4.07248,-6.28274 -1.79529,-2.48738 -3.1695,-5.58195 -5.59285,-7.31373 -3.59218,-2.56706 -7.9212,-4.76283 -12.67631,-5.09387 -10.55579,-1.95199 -11.14166,-6.98014 -17.68083,1.52246 z"
           style="fill:#000000;fill-opacity:1;stroke:#000000;stroke-width:1px;stroke-linecap:butt;stroke-linejoin:miter;stroke-opacity:1"
           sodipodi:nodetypes="csssssssssssssssssscc" />
      </g>
    </g>
  </g>
</svg>
