<?xml version="1.0" encoding="UTF-8" standalone="no"?>
<!-- Created with Inkscape (http://www.inkscape.org/) -->

<svg
   xmlns:dc="http://purl.org/dc/elements/1.1/"
   xmlns:cc="http://creativecommons.org/ns#"
   xmlns:rdf="http://www.w3.org/1999/02/22-rdf-syntax-ns#"
   xmlns:svg="http://www.w3.org/2000/svg"
   xmlns="http://www.w3.org/2000/svg"
   xmlns:sodipodi="http://sodipodi.sourceforge.net/DTD/sodipodi-0.dtd"
   xmlns:inkscape="http://www.inkscape.org/namespaces/inkscape"
   width="1000"
   height="1000"
   id="svg3173"
   version="1.1"
   inkscape:version="0.47 r22583"
   sodipodi:docname="90ce.svg"
   inkscape:export-filename="E:\chinese\yan\90ce.png"
   inkscape:export-xdpi="17.961918"
   inkscape:export-ydpi="17.961918">
  <title
     id="title4539">Lang</title>
  <defs
     id="defs3175">
    <inkscape:perspective
       sodipodi:type="inkscape:persp3d"
       inkscape:vp_x="0 : 526.18109 : 1"
       inkscape:vp_y="0 : 1000 : 0"
       inkscape:vp_z="744.09448 : 526.18109 : 1"
       inkscape:persp3d-origin="372.04724 : 350.78739 : 1"
       id="perspective3181" />
    <inkscape:perspective
       id="perspective3191"
       inkscape:persp3d-origin="0.5 : 0.33333333 : 1"
       inkscape:vp_z="1 : 0.5 : 1"
       inkscape:vp_y="0 : 1000 : 0"
       inkscape:vp_x="0 : 0.5 : 1"
       sodipodi:type="inkscape:persp3d" />
    <inkscape:perspective
       id="perspective4006"
       inkscape:persp3d-origin="0.5 : 0.33333333 : 1"
       inkscape:vp_z="1 : 0.5 : 1"
       inkscape:vp_y="0 : 1000 : 0"
       inkscape:vp_x="0 : 0.5 : 1"
       sodipodi:type="inkscape:persp3d" />
    <inkscape:perspective
       id="perspective4034"
       inkscape:persp3d-origin="0.5 : 0.33333333 : 1"
       inkscape:vp_z="1 : 0.5 : 1"
       inkscape:vp_y="0 : 1000 : 0"
       inkscape:vp_x="0 : 0.5 : 1"
       sodipodi:type="inkscape:persp3d" />
    <inkscape:perspective
       id="perspective4081"
       inkscape:persp3d-origin="0.5 : 0.33333333 : 1"
       inkscape:vp_z="1 : 0.5 : 1"
       inkscape:vp_y="0 : 1000 : 0"
       inkscape:vp_x="0 : 0.5 : 1"
       sodipodi:type="inkscape:persp3d" />
    <inkscape:perspective
       id="perspective4147"
       inkscape:persp3d-origin="0.5 : 0.33333333 : 1"
       inkscape:vp_z="1 : 0.5 : 1"
       inkscape:vp_y="0 : 1000 : 0"
       inkscape:vp_x="0 : 0.5 : 1"
       sodipodi:type="inkscape:persp3d" />
    <inkscape:perspective
       id="perspective3858"
       inkscape:persp3d-origin="0.5 : 0.33333333 : 1"
       inkscape:vp_z="1 : 0.5 : 1"
       inkscape:vp_y="0 : 1000 : 0"
       inkscape:vp_x="0 : 0.5 : 1"
       sodipodi:type="inkscape:persp3d" />
    <inkscape:perspective
       id="perspective3876"
       inkscape:persp3d-origin="0.5 : 0.33333333 : 1"
       inkscape:vp_z="1 : 0.5 : 1"
       inkscape:vp_y="0 : 1000 : 0"
       inkscape:vp_x="0 : 0.5 : 1"
       sodipodi:type="inkscape:persp3d" />
    <inkscape:perspective
       id="perspective3901"
       inkscape:persp3d-origin="0.5 : 0.33333333 : 1"
       inkscape:vp_z="1 : 0.5 : 1"
       inkscape:vp_y="0 : 1000 : 0"
       inkscape:vp_x="0 : 0.5 : 1"
       sodipodi:type="inkscape:persp3d" />
    <inkscape:perspective
       id="perspective5282"
       inkscape:persp3d-origin="0.5 : 0.33333333 : 1"
       inkscape:vp_z="1 : 0.5 : 1"
       inkscape:vp_y="0 : 1000 : 0"
       inkscape:vp_x="0 : 0.5 : 1"
       sodipodi:type="inkscape:persp3d" />
    <inkscape:perspective
       id="perspective6657"
       inkscape:persp3d-origin="0.5 : 0.33333333 : 1"
       inkscape:vp_z="1 : 0.5 : 1"
       inkscape:vp_y="0 : 1000 : 0"
       inkscape:vp_x="0 : 0.5 : 1"
       sodipodi:type="inkscape:persp3d" />
    <inkscape:perspective
       id="perspective7221"
       inkscape:persp3d-origin="0.5 : 0.33333333 : 1"
       inkscape:vp_z="1 : 0.5 : 1"
       inkscape:vp_y="0 : 1000 : 0"
       inkscape:vp_x="0 : 0.5 : 1"
       sodipodi:type="inkscape:persp3d" />
    <inkscape:perspective
       id="perspective7762"
       inkscape:persp3d-origin="0.5 : 0.33333333 : 1"
       inkscape:vp_z="1 : 0.5 : 1"
       inkscape:vp_y="0 : 1000 : 0"
       inkscape:vp_x="0 : 0.5 : 1"
       sodipodi:type="inkscape:persp3d" />
    <inkscape:perspective
       id="perspective3824"
       inkscape:persp3d-origin="0.5 : 0.33333333 : 1"
       inkscape:vp_z="1 : 0.5 : 1"
       inkscape:vp_y="0 : 1000 : 0"
       inkscape:vp_x="0 : 0.5 : 1"
       sodipodi:type="inkscape:persp3d" />
  </defs>
  <sodipodi:namedview
     id="base"
     pagecolor="#ffffff"
     bordercolor="#666666"
     borderopacity="1.0"
     inkscape:pageopacity="0.0"
     inkscape:pageshadow="2"
     inkscape:zoom="0.49497475"
     inkscape:cx="-43.762158"
     inkscape:cy="434.48045"
     inkscape:document-units="px"
     inkscape:current-layer="g3804"
     showgrid="false"
     inkscape:window-width="1440"
     inkscape:window-height="840"
     inkscape:window-x="-4"
     inkscape:window-y="-4"
     inkscape:window-maximized="1" />
  <metadata
     id="metadata3178">
    <rdf:RDF>
      <cc:Work
         rdf:about="">
        <dc:format>image/svg+xml</dc:format>
        <dc:type
           rdf:resource="http://purl.org/dc/dcmitype/StillImage" />
        <dc:title>Lang</dc:title>
        <dc:date>2010-07-18</dc:date>
        <dc:creator>
          <cc:Agent>
            <dc:title>Alex Amies</dc:title>
          </cc:Agent>
        </dc:creator>
        <dc:rights>
          <cc:Agent>
            <dc:title>Copyright Alex Amies 2010</dc:title>
          </cc:Agent>
        </dc:rights>
        <dc:publisher>
          <cc:Agent>
            <dc:title>chinesenotes.com</dc:title>
          </cc:Agent>
        </dc:publisher>
        <dc:source>Yan Qin Ceremonial Inscription</dc:source>
        <dc:language>Chinese 中文</dc:language>
        <dc:description>Tracing from Tang Dynasty Ceremonial Inscription by Yan Zhenqing 颜真卿 (709－785)</dc:description>
        <cc:license
           rdf:resource="http://creativecommons.org/licenses/by/3.0/" />
      </cc:Work>
      <cc:License
         rdf:about="http://creativecommons.org/licenses/by/3.0/">
        <cc:permits
           rdf:resource="http://creativecommons.org/ns#Reproduction" />
        <cc:permits
           rdf:resource="http://creativecommons.org/ns#Distribution" />
        <cc:requires
           rdf:resource="http://creativecommons.org/ns#Notice" />
        <cc:requires
           rdf:resource="http://creativecommons.org/ns#Attribution" />
        <cc:permits
           rdf:resource="http://creativecommons.org/ns#DerivativeWorks" />
      </cc:License>
    </rdf:RDF>
  </metadata>
  <g
     inkscape:label="Layer 1"
     inkscape:groupmode="layer"
     id="layer1"
     transform="translate(0,-52.362183)">
    <g
       transform="matrix(4.7418067,0,0,4.7418067,-575.38835,-3945.1359)"
       id="g3804"
       style="fill:none;fill-opacity:1">
      <path
         style="fill:#000000;stroke:#000000;stroke-width:4.74180651000000000px;stroke-linecap:butt;stroke-linejoin:miter;stroke-opacity:1;fill-opacity:1"
         d="M 330.15625 8.21875 C 329.27608 8.2194132 328.41978 8.2198021 327.53125 8.25 C 307.19867 17.048754 271.74174 32.591852 265.59375 56.375 C 265.41641 81.081235 272.88244 106.46811 265.78125 130.71875 C 262.35592 138.00162 255.67062 143.62366 251.875 150.65625 C 226.59978 154.7355 201.84726 159.69979 179.90625 169.5625 C 174.02131 171.17941 169.70038 174.37424 166.84375 178.3125 C 165.60828 177.63075 164.31965 176.98678 162.96875 176.34375 C 142.96316 171.58445 125.60692 192.17034 129.25 211.1875 C 143.06151 346.02784 129.74816 482.82769 127.0625 618.15625 C 125.47603 647.51154 117.0651 681.51812 137.65625 706.4375 C 140.13793 710.35428 143.41615 713.39761 147.125 715.53125 C 142.05627 716.81405 136.79695 718.02714 131.34375 719.15625 C 124.51939 716.92461 119.30391 711.2937 112.1875 709.78125 C 94.792799 700.23547 85.267124 722.42352 88.34375 736.53125 C 86.247919 762.76145 88.906728 789.05843 91.96875 815.0625 C 87.807767 827.34188 94.552567 844.96714 109.96875 837.03125 C 177.15963 780.81808 267.50318 726.49388 344.90625 663.875 C 355.53591 636.0074 350.67037 632.80635 322.625 644.9375 C 272.71338 654.93911 240.60274 682.25676 186.6875 702.96875 C 192.55576 685.76016 180.99743 665.51535 183.8125 647.78125 C 186.77817 603.61808 186.05983 558.94718 184.90625 514.1875 C 186.45794 514.80199 188.09805 515.31652 189.875 515.65625 C 230.88094 509.59967 351.66628 475.25986 411.375 460.5 C 416.58978 470.06597 424.38007 477.30151 436.375 477.03125 C 464.56542 475.61482 479.59686 446.25729 486.03125 422.28125 C 484.40429 379.25135 494.3843 341.18876 501.46875 301 C 507.29354 257.16958 510.10329 212.95365 511.28125 168.8125 C 486.35357 137.42971 464.07466 119.69078 421.84375 113.96875 C 397.63759 121.34122 376.83438 125.63783 351.46875 129.1875 C 348.13984 130.51041 344.77729 131.73588 341.34375 132.875 C 343.82875 129.84944 346.06056 126.60281 347.96875 123.09375 C 359.77419 99.42782 380.3386 80.251476 380.78125 52.59375 C 380.42524 22.389745 357.44149 8.1981897 330.15625 8.21875 z M 401.0625 155.65625 C 420.517 155.00558 431.66886 178.10768 427.625 195.4375 C 424.00743 233.0019 419.35758 270.47408 412.03125 307.53125 C 405.9281 346.23331 396.96565 385.71633 401.375 425 C 339.06078 431.04481 231.27706 448.54981 183.46875 456.8125 C 182.69209 420.29951 182.49351 383.81052 184.6875 347.59375 C 194.19761 350.54057 205.62772 350.53924 213.90625 348.15625 C 246.74857 339.16654 281.53098 337.40827 311.53125 320.0625 C 330.80105 308.866 321.04093 285.8516 302.25 280.5 C 276.15636 288.2421 221.63804 295.23526 188.03125 308.84375 C 190.35353 288.46591 193.63962 268.19085 198.1875 248.0625 C 196.29154 234.09906 195.2101 221.52591 192.09375 210.5625 C 241.58131 202.75784 292.12423 189.55656 339.5 172.59375 C 359.1923 163.28122 377.97545 161.56265 399.125 155.78125 C 399.76959 155.70979 400.43494 155.67724 401.0625 155.65625 z M 449.375 501.34375 C 418.3689 508.55613 398.96193 535.58363 410.0625 566.9375 C 426.16354 590.35975 425.87239 625.28866 458.65625 630.40625 C 478.85862 630.58739 494.61067 613.05696 501.46875 595.46875 C 497.40237 561.57294 485.48443 533.39903 449.375 501.34375 z "
         transform="matrix(0.21089008,0,0,0.21089008,121.3437,843.0327)"
         id="path14703" />
      <path
         style="fill:#000000;stroke:#000000;stroke-width:4.74180651000000000px;stroke-linecap:butt;stroke-linejoin:miter;stroke-opacity:1;fill-opacity:1"
         d="M 836.34375 68.6875 C 835.83557 68.705413 835.33942 68.756479 834.84375 68.8125 C 818.98222 70.605235 801.39114 94.094507 793.78125 112.90625 C 778.56147 150.52974 693.94297 288.94639 691.28125 344.96875 C 762.05822 286.06228 850.80769 233.13983 897.96875 152.625 C 896.31964 133.41414 895.81515 106.20646 880.8125 92.21875 C 873.54557 85.443428 852.09748 68.132206 836.34375 68.6875 z M 799.6875 74.03125 C 741.96435 92.390719 682.71757 104.51297 625.3125 123.84375 L 621.59375 130.4375 C 591.44293 115.54393 534.84031 110.55866 547.40625 159.40625 C 562.60151 416.06849 522.86111 728.93395 578.5 985.09375 C 584.84022 1011.8764 599.91435 942.11006 609.71875 924.21875 C 653.92453 698.49244 639.94432 465.50489 640.78125 236.4375 C 642.24194 214.19526 644.77182 189.27655 639.96875 166.84375 C 645.23405 166.71029 650.62384 166.17665 655.75 165.78125 C 673.92857 159.46455 692.38761 150.81667 709.1875 140.8125 C 740.76419 120.42453 769.0347 110.99592 788.6875 95.1875 C 812.92482 76.573206 812.71339 80.372847 799.6875 74.03125 z M 738.25 390.71875 C 735.61036 390.75134 732.97846 390.9802 730.3125 391.40625 C 715.66421 393.51872 712.75449 411.20139 723.25 420.03125 C 764.942 468.23119 814.81686 508.31992 840.59375 568.3125 C 847.22507 580.0535 847.2612 603.46106 828.53125 601.40625 C 793.23115 603.69294 761.83399 583.58806 727.21875 580.59375 C 715.52285 574.18245 698.13653 580.96483 705.1875 596.25 C 741.54165 624.1267 762.27849 636.37011 789.90625 659.125 C 805.302 667.32249 798.50246 686.86448 809.34375 696.96875 C 826.87539 707.13329 850.13581 703.964 867.03125 693.875 C 886.45013 665.35531 909.38967 628.07788 925.6875 590.6875 C 901.53805 516.96402 863.6961 464.65363 808.46875 420.6875 C 787.95022 407.40548 763.76656 390.40367 738.25 390.71875 z "
         transform="matrix(0.21089008,0,0,0.21089008,121.3437,843.0327)"
         id="path14728" />
    </g>
  </g>
</svg>
