<?xml version="1.0" encoding="UTF-8" standalone="no"?>
<!-- Created with Inkscape (http://www.inkscape.org/) -->

<svg
   xmlns:dc="http://purl.org/dc/elements/1.1/"
   xmlns:cc="http://creativecommons.org/ns#"
   xmlns:rdf="http://www.w3.org/1999/02/22-rdf-syntax-ns#"
   xmlns:svg="http://www.w3.org/2000/svg"
   xmlns="http://www.w3.org/2000/svg"
   xmlns:sodipodi="http://sodipodi.sourceforge.net/DTD/sodipodi-0.dtd"
   xmlns:inkscape="http://www.inkscape.org/namespaces/inkscape"
   width="1000"
   height="1000"
   id="svg3173"
   version="1.1"
   inkscape:version="0.47 r22583"
   sodipodi:docname="90e1.svg"
   inkscape:export-filename="E:\chinese\yan\90e1.png"
   inkscape:export-xdpi="18.005705"
   inkscape:export-ydpi="18.005705">
  <title
     id="title6683">Jun</title>
  <defs
     id="defs3175">
    <inkscape:perspective
       sodipodi:type="inkscape:persp3d"
       inkscape:vp_x="0 : 526.18109 : 1"
       inkscape:vp_y="0 : 1000 : 0"
       inkscape:vp_z="744.09448 : 526.18109 : 1"
       inkscape:persp3d-origin="372.04724 : 350.78739 : 1"
       id="perspective3181" />
    <inkscape:perspective
       id="perspective3191"
       inkscape:persp3d-origin="0.5 : 0.33333333 : 1"
       inkscape:vp_z="1 : 0.5 : 1"
       inkscape:vp_y="0 : 1000 : 0"
       inkscape:vp_x="0 : 0.5 : 1"
       sodipodi:type="inkscape:persp3d" />
    <inkscape:perspective
       id="perspective4006"
       inkscape:persp3d-origin="0.5 : 0.33333333 : 1"
       inkscape:vp_z="1 : 0.5 : 1"
       inkscape:vp_y="0 : 1000 : 0"
       inkscape:vp_x="0 : 0.5 : 1"
       sodipodi:type="inkscape:persp3d" />
    <inkscape:perspective
       id="perspective4034"
       inkscape:persp3d-origin="0.5 : 0.33333333 : 1"
       inkscape:vp_z="1 : 0.5 : 1"
       inkscape:vp_y="0 : 1000 : 0"
       inkscape:vp_x="0 : 0.5 : 1"
       sodipodi:type="inkscape:persp3d" />
    <inkscape:perspective
       id="perspective4081"
       inkscape:persp3d-origin="0.5 : 0.33333333 : 1"
       inkscape:vp_z="1 : 0.5 : 1"
       inkscape:vp_y="0 : 1000 : 0"
       inkscape:vp_x="0 : 0.5 : 1"
       sodipodi:type="inkscape:persp3d" />
    <inkscape:perspective
       id="perspective4147"
       inkscape:persp3d-origin="0.5 : 0.33333333 : 1"
       inkscape:vp_z="1 : 0.5 : 1"
       inkscape:vp_y="0 : 1000 : 0"
       inkscape:vp_x="0 : 0.5 : 1"
       sodipodi:type="inkscape:persp3d" />
    <inkscape:perspective
       id="perspective3807"
       inkscape:persp3d-origin="0.5 : 0.33333333 : 1"
       inkscape:vp_z="1 : 0.5 : 1"
       inkscape:vp_y="0 : 1000 : 0"
       inkscape:vp_x="0 : 0.5 : 1"
       sodipodi:type="inkscape:persp3d" />
    <inkscape:perspective
       id="perspective3794"
       inkscape:persp3d-origin="0.5 : 0.33333333 : 1"
       inkscape:vp_z="1 : 0.5 : 1"
       inkscape:vp_y="0 : 1000 : 0"
       inkscape:vp_x="0 : 0.5 : 1"
       sodipodi:type="inkscape:persp3d" />
    <inkscape:perspective
       id="perspective3815"
       inkscape:persp3d-origin="0.5 : 0.33333333 : 1"
       inkscape:vp_z="1 : 0.5 : 1"
       inkscape:vp_y="0 : 1000 : 0"
       inkscape:vp_x="0 : 0.5 : 1"
       sodipodi:type="inkscape:persp3d" />
    <inkscape:perspective
       id="perspective3850"
       inkscape:persp3d-origin="0.5 : 0.33333333 : 1"
       inkscape:vp_z="1 : 0.5 : 1"
       inkscape:vp_y="0 : 1000 : 0"
       inkscape:vp_x="0 : 0.5 : 1"
       sodipodi:type="inkscape:persp3d" />
    <inkscape:perspective
       id="perspective3878"
       inkscape:persp3d-origin="0.5 : 0.33333333 : 1"
       inkscape:vp_z="1 : 0.5 : 1"
       inkscape:vp_y="0 : 1000 : 0"
       inkscape:vp_x="0 : 0.5 : 1"
       sodipodi:type="inkscape:persp3d" />
    <inkscape:perspective
       id="perspective3924"
       inkscape:persp3d-origin="0.5 : 0.33333333 : 1"
       inkscape:vp_z="1 : 0.5 : 1"
       inkscape:vp_y="0 : 1000 : 0"
       inkscape:vp_x="0 : 0.5 : 1"
       sodipodi:type="inkscape:persp3d" />
    <inkscape:perspective
       id="perspective3974"
       inkscape:persp3d-origin="0.5 : 0.33333333 : 1"
       inkscape:vp_z="1 : 0.5 : 1"
       inkscape:vp_y="0 : 1000 : 0"
       inkscape:vp_x="0 : 0.5 : 1"
       sodipodi:type="inkscape:persp3d" />
  </defs>
  <sodipodi:namedview
     id="base"
     pagecolor="#ffffff"
     bordercolor="#666666"
     borderopacity="1.0"
     inkscape:pageopacity="0.0"
     inkscape:pageshadow="2"
     inkscape:zoom="0.49497475"
     inkscape:cx="825.73108"
     inkscape:cy="418.19003"
     inkscape:document-units="px"
     inkscape:current-layer="g5975"
     showgrid="false"
     inkscape:window-width="1440"
     inkscape:window-height="840"
     inkscape:window-x="-4"
     inkscape:window-y="-4"
     inkscape:window-maximized="1" />
  <metadata
     id="metadata3178">
    <rdf:RDF>
      <cc:Work
         rdf:about="">
        <dc:format>image/svg+xml</dc:format>
        <dc:type
           rdf:resource="http://purl.org/dc/dcmitype/StillImage" />
        <dc:title>Jun</dc:title>
        <dc:date>2010-08-02</dc:date>
        <dc:creator>
          <cc:Agent>
            <dc:title>Alex Amies</dc:title>
          </cc:Agent>
        </dc:creator>
        <dc:rights>
          <cc:Agent>
            <dc:title>@ Alex Amies 2010</dc:title>
          </cc:Agent>
        </dc:rights>
        <dc:publisher>
          <cc:Agent>
            <dc:title>chinesenotes.com</dc:title>
          </cc:Agent>
        </dc:publisher>
        <dc:source>Yan Qin Ceremonial Inscription</dc:source>
        <dc:language>Chinese 中文</dc:language>
        <dc:description>Tracing from Tang Dynasty Ceremonial Inscription by Yan Zhenqing 颜真卿 (709－785)</dc:description>
        <cc:license
           rdf:resource="http://creativecommons.org/licenses/by/3.0/" />
      </cc:Work>
      <cc:License
         rdf:about="http://creativecommons.org/licenses/by/3.0/">
        <cc:permits
           rdf:resource="http://creativecommons.org/ns#Reproduction" />
        <cc:permits
           rdf:resource="http://creativecommons.org/ns#Distribution" />
        <cc:requires
           rdf:resource="http://creativecommons.org/ns#Notice" />
        <cc:requires
           rdf:resource="http://creativecommons.org/ns#Attribution" />
        <cc:permits
           rdf:resource="http://creativecommons.org/ns#DerivativeWorks" />
      </cc:License>
    </rdf:RDF>
  </metadata>
  <g
     inkscape:label="Layer 1"
     inkscape:groupmode="layer"
     id="layer1"
     transform="translate(0,-52.362183)">
    <g
       transform="matrix(4.762395,0,0,4.762395,-2523.1017,68.412668)"
       id="g5975"
       style="fill:none;fill-opacity:1">
      <path
         style="fill:#000000;fill-opacity:1;stroke:#000000;stroke-width:0.99366748px;stroke-linecap:butt;stroke-linejoin:miter;stroke-opacity:1"
         d="m 633.93967,5.5050524 c -1.95366,1.1300582 -0.99723,5.0721066 -4.47149,3.9746531 -15.75187,-2.2692022 -30.96488,-0.4088652 -46.54709,1.8320855 -2.56331,1.431549 -2.88818,4.76347 -1.45947,7.110943 2.29144,2.741196 5.58546,4.236251 9.0672,4.68889 -1.06371,2.370614 -1.3917,5.230352 -1.45942,7.762998 -0.17273,4.526905 -0.47942,8.93328 -0.93159,13.290298 -3.52991,0.925484 -7.06504,1.822858 -10.55771,2.608409 -5.9258,0.907501 -11.86717,-1.271552 -18.07232,-0.714236 l -0.71419,0.03313 c -1.41953,0.591483 -3.69644,0.336936 -4.25414,1.769999 -1.31201,3.371529 2.75946,6.944983 4.56467,9.843526 7.60717,4.244864 16.05108,1.289913 23.69275,-1.024719 1.29237,-0.668901 2.59653,-1.300844 3.91256,-1.894172 -1.02897,6.451932 -2.34373,12.749498 -3.97465,18.910728 -6.29047,1.694804 -12.58524,3.314223 -18.94182,4.750977 -2.25846,0.334569 -4.51086,0.659059 -6.76932,0.993628 -2.37648,4.240368 0.0937,7.696463 2.11152,11.365082 4.78207,1.995821 10.09599,0.507343 14.78081,-0.931541 1.46733,-0.610553 2.93451,-1.207477 4.40941,-1.801042 -6.13937,17.647081 -14.69705,34.450031 -25.2454,51.391251 -4.28201,7.17534 -8.71858,14.30541 -14.3771,20.49437 -3.388,1.89748 -4.15207,9.0822 1.17998,6.14836 10.79376,-6.89005 18.80757,-16.99607 26.79795,-26.798 6.48245,-8.1978 11.91875,-17.0175 16.70603,-26.17694 1.09286,2.4584 2.70381,5.38997 3.63312,8.4462 3.59996,11.85865 7.20616,23.47861 10.80611,35.33731 0.38615,2.97809 -0.40508,5.39258 0.83841,8.07353 1.61308,0.34545 3.39846,1.85045 4.84416,1.05576 3.01136,-1.65533 3.30689,-6.21622 3.57099,-9.68826 0.005,-1.52657 -0.0719,-3.02717 -0.18645,-4.53358 0.13392,0.0331 0.25886,0.0615 0.40366,0.062 8.56175,1.0258 16.62284,-0.10979 23.75489,-4.59572 0.0497,0.87906 0.1112,1.7604 0.18645,2.63941 2.33848,4.67261 4.76427,5.16712 9.53299,5.46516 1.7037,-2.18567 3.15536,-4.55979 3.85043,-7.2662 5.02554,-15.74936 6.99165,-32.2555 9.56404,-48.534446 -1.75419,-2.320358 -3.74154,-5.675466 -7.04881,-5.58934 -3.35941,-0.484439 -6.71537,-1.041991 -10.09192,-1.397382 -11.63008,2.834421 -22.90748,6.838792 -34.25051,10.619858 -0.59143,0.94635 -2.0341,1.74146 -1.76995,2.82571 0.56867,2.33403 3.7618,3.14358 6.21045,3.66417 2.7242,0.79071 5.68304,2.00557 8.25983,0.18645 3.74907,-1.96194 7.2117,-4.42729 10.8372,-6.6141 1.03087,-0.4065 1.95456,-1.81406 3.1052,-1.24207 2.93177,0.4718 3.98412,4.61241 3.69522,7.20407 -0.9243,11.73609 -2.52096,23.52603 -2.17366,35.30622 l -1.5526,-2.29783 c -8.28908,-1.50565 -16.15562,-0.70292 -23.227,3.66413 -2.02516,-12.00266 -7.08217,-23.47266 -11.17873,-34.90257 -2.23324,-2.54154 -4.96833,-3.05788 -7.45252,-4.59571 -0.31185,0.002 -0.55859,0.0142 -0.83841,0.0331 4.02255,-8.334606 7.61432,-16.894749 11.02351,-25.524835 13.09344,-4.300089 26.50171,-7.586675 40.24351,-9.160333 4.88557,0.04259 9.89104,3.228095 14.65659,0.931541 3.08348,-2.56686 0.0142,-7.449299 -2.57731,-9.315645 -6.35649,-3.883984 -14.46603,-2.723876 -22.01593,-1.211027 0.41975,-0.328891 0.77793,-0.71542 1.0868,-1.179984 3.30041,-3.869171 6.46878,-7.858116 9.56404,-11.892963 1.00352,-2.54088 1.99464,-5.09113 2.98103,-7.638777 0.52892,-0.112154 1.05605,-0.225254 1.58364,-0.341667 4.0321,0.561527 9.0664,4.108765 12.60715,1.707864 2.97568,-1.723528 2.71707,-6.661333 -0.2172,-8.32197 -2.34847,-2.137788 -5.72757,-3.738704 -8.81881,-3.788392 -0.3412,0.08234 -0.68391,0.165155 -1.02472,0.248442 0.36817,-0.920846 0.74339,-1.845288 1.1179,-2.763626 3.04117,-3.82704 3.22284,-8.009391 3.41572,-12.638228 C 647.11828,9.3121844 641.09173,5.3668711 633.93981,5.5091221 z m -3.85043,10.4956286 c 2.07778,0.761937 -4.32333,15.847125 -5.7757,20.308063 -4.52165,1.018188 -9.0584,1.901555 -13.66291,2.515232 -1.71535,0.300023 -3.43466,0.624087 -5.15469,0.993675 0.30854,-2.847009 0.55386,-5.701778 0.68315,-8.570413 -0.37054,-3.353074 -1.33156,-7.318783 -3.50886,-9.936656 5.51244,-1.463965 11.00188,-3.048697 16.5818,-4.192052 3.57138,-0.829609 7.36327,0.04732 10.83721,-1.117849 z m 90.67216,0.931541 c -3.72739,0.143386 -6.44483,1.851109 -9.71935,4.657846 -11.61698,-2.587635 -22.12084,0.207272 -33.38101,2.856757 l -2.32887,1.863129 c -2.0448,-3.340534 -4.72779,-4.633996 -10.77512,-7.545647 -1.65084,1.006074 -5.99579,0.20254 -5.15464,2.887848 4.05501,27.32422 4.3477,55.012822 5.27886,82.567545 0.16516,31.03193 3.83136,61.85706 6.95568,92.69057 1.36066,1.59717 1.63821,4.95772 4.34732,4.37831 2.53189,0.70179 4.37277,-0.0189 5.37199,-2.51519 1.26166,-2.28647 0.34687,-5.27776 0.71418,-7.85622 -1.20255,-22.49199 0.62196,-44.7485 1.92527,-67.16568 -0.15238,-23.33797 -3.56778,-46.375069 -5.58939,-69.556736 0.0142,-6.548138 0.40745,-13.182592 0.18645,-19.687004 1.95238,0.203486 3.95303,0.311854 5.65148,-0.838411 l 12.94872,-6.024137 c 2.72847,0.306648 5.81441,-0.714616 8.29093,0.652102 0.56815,2.61953 -3.26392,5.574433 -4.25414,8.32197 -6.27353,9.36344 -11.03932,19.591366 -14.03558,30.462119 -0.80831,2.939381 -3.4418,5.945913 -2.42205,8.818807 0.34024,0.958988 1.47035,1.857876 2.48418,1.769951 9.42918,-10.53642 18.57247,-21.501912 27.45005,-32.045762 2.11588,-3.380899 6.89908,-0.105055 9.22247,-3.53995 2.37913,-1.45909 1.60054,-4.760677 2.48419,-7.110943 0.78683,-3.815271 2.06269,-7.483228 3.07415,-11.240861 -1.53783,-2.12927 -2.58706,-4.267436 -4.62675,-6.396706 -1.52548,-0.315641 -2.85643,-0.451456 -4.09887,-0.40366 z m -98.18677,28.071109 c -1.90439,6.084757 -4.66324,12.294446 -2.17366,17.761836 0.56338,0.257907 1.186,0.437258 1.83209,0.558924 -0.6539,0.126351 -1.32384,0.265005 -1.95631,0.372427 -6.64865,1.569778 -13.25334,3.351986 -19.84227,5.154637 1.41788,-6.664078 2.80986,-13.337999 3.88148,-20.059669 6.0098,-1.526809 12.1177,-2.692643 18.25867,-3.788345 z m 76.3882,36.20677 -3.19838,1.769951 c 1.50272,3.328041 1.81742,7.400746 4.81306,9.87457 3.61264,3.829042 7.57419,7.382668 10.89929,11.458258 2.31184,4.10739 5.31208,7.97799 6.4278,12.6382 0.10222,0.84153 1.0427,1.85134 0.0932,2.48414 -0.82937,1.67635 -2.1455,1.68614 -3.72625,0.71423 -6.72806,-2.48428 -13.59511,-4.85177 -20.77386,-5.49625 -2.08493,1.15831 -8.01116,1.87884 -6.24144,3.47786 9.17685,4.01691 14.02095,6.97551 20.1528,15.24656 l 2.91889,7.45251 c 3.39646,-0.83055 7.23109,-0.63553 10.12301,-2.8568 l 7.9804,-4.93728 c 3.89742,-8.0714 3.58438,-15.5295 2.82571,-24.12746 -8.2862,-12.3376 -20.17315,-19.689935 -32.29421,-27.698489 z"
         id="path4144" />
    </g>
  </g>
</svg>
