<?xml version="1.0" encoding="UTF-8" standalone="no"?>
<!-- Created with Inkscape (http://www.inkscape.org/) -->

<svg
   xmlns:dc="http://purl.org/dc/elements/1.1/"
   xmlns:cc="http://creativecommons.org/ns#"
   xmlns:rdf="http://www.w3.org/1999/02/22-rdf-syntax-ns#"
   xmlns:svg="http://www.w3.org/2000/svg"
   xmlns="http://www.w3.org/2000/svg"
   xmlns:sodipodi="http://sodipodi.sourceforge.net/DTD/sodipodi-0.dtd"
   xmlns:inkscape="http://www.inkscape.org/namespaces/inkscape"
   width="1000"
   height="1000"
   id="svg3173"
   version="1.1"
   inkscape:version="0.47 r22583"
   sodipodi:docname="90ed.svg"
   inkscape:export-filename="E:\chinese\yan\90ed.png"
   inkscape:export-xdpi="17.872889"
   inkscape:export-ydpi="17.872889">
  <title
     id="title2821">Guo</title>
  <defs
     id="defs3175">
    <inkscape:perspective
       sodipodi:type="inkscape:persp3d"
       inkscape:vp_x="0 : 526.18109 : 1"
       inkscape:vp_y="0 : 1000 : 0"
       inkscape:vp_z="744.09448 : 526.18109 : 1"
       inkscape:persp3d-origin="372.04724 : 350.78739 : 1"
       id="perspective3181" />
    <inkscape:perspective
       id="perspective3191"
       inkscape:persp3d-origin="0.5 : 0.33333333 : 1"
       inkscape:vp_z="1 : 0.5 : 1"
       inkscape:vp_y="0 : 1000 : 0"
       inkscape:vp_x="0 : 0.5 : 1"
       sodipodi:type="inkscape:persp3d" />
    <inkscape:perspective
       id="perspective4006"
       inkscape:persp3d-origin="0.5 : 0.33333333 : 1"
       inkscape:vp_z="1 : 0.5 : 1"
       inkscape:vp_y="0 : 1000 : 0"
       inkscape:vp_x="0 : 0.5 : 1"
       sodipodi:type="inkscape:persp3d" />
    <inkscape:perspective
       id="perspective4034"
       inkscape:persp3d-origin="0.5 : 0.33333333 : 1"
       inkscape:vp_z="1 : 0.5 : 1"
       inkscape:vp_y="0 : 1000 : 0"
       inkscape:vp_x="0 : 0.5 : 1"
       sodipodi:type="inkscape:persp3d" />
    <inkscape:perspective
       id="perspective4081"
       inkscape:persp3d-origin="0.5 : 0.33333333 : 1"
       inkscape:vp_z="1 : 0.5 : 1"
       inkscape:vp_y="0 : 1000 : 0"
       inkscape:vp_x="0 : 0.5 : 1"
       sodipodi:type="inkscape:persp3d" />
    <inkscape:perspective
       id="perspective4147"
       inkscape:persp3d-origin="0.5 : 0.33333333 : 1"
       inkscape:vp_z="1 : 0.5 : 1"
       inkscape:vp_y="0 : 1000 : 0"
       inkscape:vp_x="0 : 0.5 : 1"
       sodipodi:type="inkscape:persp3d" />
    <inkscape:perspective
       id="perspective3774"
       inkscape:persp3d-origin="0.5 : 0.33333333 : 1"
       inkscape:vp_z="1 : 0.5 : 1"
       inkscape:vp_y="0 : 1000 : 0"
       inkscape:vp_x="0 : 0.5 : 1"
       sodipodi:type="inkscape:persp3d" />
  </defs>
  <sodipodi:namedview
     id="base"
     pagecolor="#ffffff"
     bordercolor="#666666"
     borderopacity="1.0"
     inkscape:pageopacity="0.0"
     inkscape:pageshadow="2"
     inkscape:zoom="0.49497475"
     inkscape:cx="691.95424"
     inkscape:cy="513.18635"
     inkscape:document-units="px"
     inkscape:current-layer="layer1"
     showgrid="false"
     inkscape:window-width="1440"
     inkscape:window-height="840"
     inkscape:window-x="-4"
     inkscape:window-y="-4"
     inkscape:window-maximized="1" />
  <metadata
     id="metadata3178">
    <rdf:RDF>
      <cc:Work
         rdf:about="">
        <dc:format>image/svg+xml</dc:format>
        <dc:type
           rdf:resource="http://purl.org/dc/dcmitype/StillImage" />
        <dc:title>Guo</dc:title>
        <dc:date>2010-07-18</dc:date>
        <dc:creator>
          <cc:Agent>
            <dc:title>Alex Amies</dc:title>
          </cc:Agent>
        </dc:creator>
        <dc:rights>
          <cc:Agent>
            <dc:title>@ Alex Amies 2010</dc:title>
          </cc:Agent>
        </dc:rights>
        <dc:publisher>
          <cc:Agent>
            <dc:title>chinesenotes.com</dc:title>
          </cc:Agent>
        </dc:publisher>
        <dc:source>Yan Qin Ceremonial Inscription</dc:source>
        <dc:language>Chinese 中文</dc:language>
        <dc:description>Tracing from Tang Dynasty Ceremonial Inscription by Yan Zhenqing 颜真卿 (709－785)</dc:description>
        <cc:license
           rdf:resource="http://creativecommons.org/licenses/by/3.0/" />
      </cc:Work>
      <cc:License
         rdf:about="http://creativecommons.org/licenses/by/3.0/">
        <cc:permits
           rdf:resource="http://creativecommons.org/ns#Reproduction" />
        <cc:permits
           rdf:resource="http://creativecommons.org/ns#Distribution" />
        <cc:requires
           rdf:resource="http://creativecommons.org/ns#Notice" />
        <cc:requires
           rdf:resource="http://creativecommons.org/ns#Attribution" />
        <cc:permits
           rdf:resource="http://creativecommons.org/ns#DerivativeWorks" />
      </cc:License>
    </rdf:RDF>
  </metadata>
  <g
     inkscape:label="Layer 1"
     inkscape:groupmode="layer"
     id="layer1"
     transform="translate(0,-52.362183)">
    <path
       style="fill:#000000;stroke:#000000;stroke-width:4.77051640000000000px;stroke-linecap:butt;stroke-linejoin:miter;stroke-opacity:1;fill-opacity:1"
       d="M 322.1875 15.21875 C 304.43574 15.533127 293.42329 32.018471 297.8125 50.25 C 304.07064 76.244184 317.25094 105.10635 336.125 122.25 C 306.9559 129.33185 277.81903 136.55975 248.84375 144.34375 C 215.31804 155.34441 181.77557 166.34294 148.25 177.34375 C 140.88242 189.67744 143.34233 211.28825 161.625 210.1875 C 175.89958 216.69334 188.65429 208.00066 201.53125 202.71875 C 284.72633 160.25881 377.22316 146.94835 467.75 127.9375 C 485.57408 127.47667 503.54131 127.51009 520.71875 132.96875 C 530.42374 136.79962 540.18065 136.59913 549 131.1875 C 581.2837 115.3834 546.68019 82.07001 529.90625 75.125 C 518.36112 70.34494 501.32248 71.75669 488.96875 78.59375 C 474.96977 87.58508 459.43286 93.39795 443.0625 96.28125 C 425.46275 100.67201 407.82681 104.93767 390.1875 109.1875 C 395.30018 94.671623 396.51534 77.659367 392.25 67.03125 C 381.4173 40.039098 349.97003 14.726576 322.1875 15.21875 z M 832.53125 141.15625 C 814.59564 150.60459 797.75834 162.52873 779 170.1875 L 657.6875 204.59375 C 657.6875 211.9767 652.20742 221.80264 657.6875 226.75 C 683.70184 250.2354 729.1274 227.86556 762.28125 216.03125 C 777.39334 204.83713 792.51291 193.63162 807.625 182.4375 C 824.87242 185.88673 816.75575 202.6998 814.65625 214.625 C 778.17 288.76497 739.31525 361.75816 701.8125 435.40625 C 700.17078 442.52052 698.51672 449.63573 696.875 456.75 C 703.12208 459.02167 709.37792 461.29082 715.625 463.5625 C 781.06475 384.2571 840.3579 301.96252 904.71875 219.9375 C 913.26885 209.04078 905.41639 189.49236 897.625 177.03125 C 884.59786 152.30652 859.92957 141.02745 832.53125 141.15625 z M 434.5 143.25 C 423.34625 149.86322 415.17408 159.40516 412.625 172.3125 C 411.66718 185.40736 410.67982 198.49864 409.71875 211.59375 C 368.49756 202.10123 317.96099 230.48158 280.8125 249.09375 C 275.81324 232.3231 266.13871 218.11613 247.6875 205.28125 C 238.27083 196.91925 227.98267 195.93999 224.9375 204.59375 C 221.49572 214.3746 233.17588 229.86136 232.4375 243.25 C 234.26246 338.81294 233.4375 434.44737 233.4375 530.03125 C 235.08221 533.64959 236.7303 537.25664 238.375 540.875 C 223.66544 546.33253 208.94507 551.79273 194.25 557.28125 C 176.78715 583.16407 168.89248 632.1579 201.09375 627.125 C 221.19795 623.98285 230.06773 589.35906 249.5 577.40625 C 283.86389 556.2689 324.51275 544.54133 361.4375 527 L 408.9375 494.25 C 414.95026 499.91509 416.574 506.95308 409.875 512.53125 C 393.5375 534.93694 377.21249 557.34431 360.875 579.75 C 357.61531 579.08752 354.31249 578.45486 351 577.71875 C 336.58794 586.42422 328.19149 600.40463 342.875 614.3125 C 355.13259 624.55434 361.42375 637.08257 364.40625 650.8125 C 285.52415 689.93782 204.627 730.92351 127.8125 778.75 C 116.15608 786.00758 122.40109 807.8478 127.09375 821.625 C 139.81848 833.98245 156.03399 833.76332 172.09375 828.0625 C 192.96476 827.40756 208.16308 814.3691 223 801.1875 C 269.13162 765.06292 318.33372 730.3963 365.9375 695.5 C 365.19554 705.78454 364.15445 716.11315 363.625 726.1875 C 356.70799 784.45931 342.92656 837.52169 316.9375 889.5 C 298.17707 892.83888 279.26721 879.88758 262.40625 872.46875 C 252.65674 878.12463 264.31849 887.36267 266.90625 894.25 C 279.13538 910.93078 312.03746 991.1092 328.875 973 C 401.09088 895.32998 420.30965 789.96134 429 693.28125 C 427.77466 679.52888 426.25428 665.69841 423.28125 652.4375 C 437.64567 641.27565 451.64077 630.02086 465.15625 618.625 C 469.06998 615.32509 461.27292 602.64575 456.65625 604.96875 C 442.78494 611.94845 428.75245 618.9327 414.625 625.9375 C 409.73254 615.21435 403.07952 605.30983 393.875 596.6875 C 393.1177 595.67496 392.34058 594.7607 391.53125 593.875 C 394.72293 592.66868 397.7667 591.14891 400.5625 589.09375 C 438.81245 562.3739 480.94391 546.23686 514.5625 507.875 C 518.69682 503.15734 516.26774 494.40119 512.875 489.125 C 502.51344 473.01129 480.35093 468.53819 462.9375 460.65625 C 458.62797 457.74935 454.34122 456.53332 450.09375 456.40625 C 475.47628 364.07447 481.98297 272.24893 480.5 177.34375 C 469.50158 149.75461 462.46987 144.8953 434.5 143.25 z M 596.28125 217.65625 C 582.26448 218.00875 568.81655 223.892 562.75 237.75 C 558.07294 246.69205 565.18129 257.19724 565.53125 266.8125 C 574.08269 434.84115 568.71923 604.60456 571.09375 773.1875 C 577.02641 825.99654 581.7426 879.1489 588.4375 931.75 C 592.94816 939.24314 597.32842 950.623 605.25 949.125 C 612.5809 947.7386 611.01241 935.36243 613.875 928.46875 C 629.26335 863.27764 638.6161 798.36697 643.53125 731.75 C 646.13829 575.8772 654.01521 380.80053 640 243.65625 C 638.44074 228.3982 616.7673 217.14105 596.28125 217.65625 z M 407.21875 245.65625 C 404.72986 279.68396 402.28275 313.71388 399.90625 347.75 C 380.9975 338.76742 362.03551 344.30559 339.59375 348.125 C 318.10681 353.69031 299.11849 360.51067 281.59375 372.21875 C 283.66007 346.49867 284.97448 320.64886 285.96875 294.6875 C 285.92495 289.06068 285.77271 283.69922 285.46875 278.53125 C 288.99527 279.09958 292.75663 278.92187 296.53125 278.15625 C 332.78862 265.45326 372.9296 262.11781 407.21875 245.65625 z M 397.625 380.90625 C 395.62195 410.39983 393.70129 439.90013 391.90625 469.40625 L 391.90625 479.875 C 346.45153 500.16726 299.96074 517.96576 253.3125 535.34375 C 255.04792 529.42688 255.66078 522.71985 257.625 517.25 C 268.44773 478.26498 274.9595 438.886 279.125 399.1875 C 303.70655 404.15408 328.77753 398.41596 353.625 395.125 L 397.625 380.90625 z M 744.5625 470.375 C 734.26577 482.99717 747.98474 496.9925 752.78125 508.78125 C 759.79739 523.53875 766.34813 539.20818 779.65625 549.5 C 799.06166 568.75252 820.79454 586.2282 835.90625 609.28125 C 838.75372 613.81958 843.03503 617.98254 845.03125 622.75 C 844.48784 628.18452 843.94971 633.62798 843.40625 639.0625 C 799.6765 643.03792 753.17807 642.57952 712.21875 650.96875 C 706.04079 652.23413 697.31292 665.23773 701.96875 668.03125 C 725.70885 682.2753 769.63164 682.88331 797.40625 702.09375 C 817.62064 716.07513 820.15445 754.30823 845.09375 758.3125 C 872.53367 762.71826 902.16832 732.83445 909.84375 702.3125 C 920.24109 668.56691 927.72882 632.26228 906.65625 600.90625 C 886.13449 573.44229 860.64209 550.35652 837.3125 525.375 C 812.16158 490.11821 784.38181 480.65093 744.5625 470.375 z "
       transform="translate(0,52.362183)"
       id="path4236" />
  </g>
</svg>
