<?xml version="1.0" encoding="UTF-8" standalone="no"?>
<!-- Created with Inkscape (http://www.inkscape.org/) -->

<svg
   xmlns:dc="http://purl.org/dc/elements/1.1/"
   xmlns:cc="http://creativecommons.org/ns#"
   xmlns:rdf="http://www.w3.org/1999/02/22-rdf-syntax-ns#"
   xmlns:svg="http://www.w3.org/2000/svg"
   xmlns="http://www.w3.org/2000/svg"
   xmlns:sodipodi="http://sodipodi.sourceforge.net/DTD/sodipodi-0.dtd"
   xmlns:inkscape="http://www.inkscape.org/namespaces/inkscape"
   width="1000"
   height="1000"
   id="svg3173"
   version="1.1"
   inkscape:version="0.47 r22583"
   sodipodi:docname="912d.svg"
   inkscape:export-filename="E:\chinese\yan\912d.png"
   inkscape:export-xdpi="18.005705"
   inkscape:export-ydpi="18.005705">
  <title
     id="title5912">Zheng</title>
  <defs
     id="defs3175">
    <inkscape:perspective
       sodipodi:type="inkscape:persp3d"
       inkscape:vp_x="0 : 526.18109 : 1"
       inkscape:vp_y="0 : 1000 : 0"
       inkscape:vp_z="744.09448 : 526.18109 : 1"
       inkscape:persp3d-origin="372.04724 : 350.78739 : 1"
       id="perspective3181" />
    <inkscape:perspective
       id="perspective3191"
       inkscape:persp3d-origin="0.5 : 0.33333333 : 1"
       inkscape:vp_z="1 : 0.5 : 1"
       inkscape:vp_y="0 : 1000 : 0"
       inkscape:vp_x="0 : 0.5 : 1"
       sodipodi:type="inkscape:persp3d" />
    <inkscape:perspective
       id="perspective4006"
       inkscape:persp3d-origin="0.5 : 0.33333333 : 1"
       inkscape:vp_z="1 : 0.5 : 1"
       inkscape:vp_y="0 : 1000 : 0"
       inkscape:vp_x="0 : 0.5 : 1"
       sodipodi:type="inkscape:persp3d" />
    <inkscape:perspective
       id="perspective4034"
       inkscape:persp3d-origin="0.5 : 0.33333333 : 1"
       inkscape:vp_z="1 : 0.5 : 1"
       inkscape:vp_y="0 : 1000 : 0"
       inkscape:vp_x="0 : 0.5 : 1"
       sodipodi:type="inkscape:persp3d" />
    <inkscape:perspective
       id="perspective4081"
       inkscape:persp3d-origin="0.5 : 0.33333333 : 1"
       inkscape:vp_z="1 : 0.5 : 1"
       inkscape:vp_y="0 : 1000 : 0"
       inkscape:vp_x="0 : 0.5 : 1"
       sodipodi:type="inkscape:persp3d" />
    <inkscape:perspective
       id="perspective4147"
       inkscape:persp3d-origin="0.5 : 0.33333333 : 1"
       inkscape:vp_z="1 : 0.5 : 1"
       inkscape:vp_y="0 : 1000 : 0"
       inkscape:vp_x="0 : 0.5 : 1"
       sodipodi:type="inkscape:persp3d" />
    <inkscape:perspective
       id="perspective3758"
       inkscape:persp3d-origin="0.5 : 0.33333333 : 1"
       inkscape:vp_z="1 : 0.5 : 1"
       inkscape:vp_y="0 : 1000 : 0"
       inkscape:vp_x="0 : 0.5 : 1"
       sodipodi:type="inkscape:persp3d" />
    <inkscape:perspective
       id="perspective3719"
       inkscape:persp3d-origin="0.5 : 0.33333333 : 1"
       inkscape:vp_z="1 : 0.5 : 1"
       inkscape:vp_y="0 : 1000 : 0"
       inkscape:vp_x="0 : 0.5 : 1"
       sodipodi:type="inkscape:persp3d" />
    <inkscape:perspective
       id="perspective3803"
       inkscape:persp3d-origin="0.5 : 0.33333333 : 1"
       inkscape:vp_z="1 : 0.5 : 1"
       inkscape:vp_y="0 : 1000 : 0"
       inkscape:vp_x="0 : 0.5 : 1"
       sodipodi:type="inkscape:persp3d" />
    <inkscape:perspective
       id="perspective3746"
       inkscape:persp3d-origin="0.5 : 0.33333333 : 1"
       inkscape:vp_z="1 : 0.5 : 1"
       inkscape:vp_y="0 : 1000 : 0"
       inkscape:vp_x="0 : 0.5 : 1"
       sodipodi:type="inkscape:persp3d" />
    <inkscape:perspective
       id="perspective3794"
       inkscape:persp3d-origin="0.5 : 0.33333333 : 1"
       inkscape:vp_z="1 : 0.5 : 1"
       inkscape:vp_y="0 : 1000 : 0"
       inkscape:vp_x="0 : 0.5 : 1"
       sodipodi:type="inkscape:persp3d" />
    <inkscape:perspective
       id="perspective3830"
       inkscape:persp3d-origin="0.5 : 0.33333333 : 1"
       inkscape:vp_z="1 : 0.5 : 1"
       inkscape:vp_y="0 : 1000 : 0"
       inkscape:vp_x="0 : 0.5 : 1"
       sodipodi:type="inkscape:persp3d" />
    <inkscape:perspective
       id="perspective3859"
       inkscape:persp3d-origin="0.5 : 0.33333333 : 1"
       inkscape:vp_z="1 : 0.5 : 1"
       inkscape:vp_y="0 : 1000 : 0"
       inkscape:vp_x="0 : 0.5 : 1"
       sodipodi:type="inkscape:persp3d" />
  </defs>
  <sodipodi:namedview
     id="base"
     pagecolor="#ffffff"
     bordercolor="#666666"
     borderopacity="1.0"
     inkscape:pageopacity="0.0"
     inkscape:pageshadow="2"
     inkscape:zoom="0.49497475"
     inkscape:cx="571.51329"
     inkscape:cy="516.9897"
     inkscape:document-units="px"
     inkscape:current-layer="g4143"
     showgrid="false"
     inkscape:window-width="1440"
     inkscape:window-height="840"
     inkscape:window-x="-4"
     inkscape:window-y="-4"
     inkscape:window-maximized="1" />
  <metadata
     id="metadata3178">
    <rdf:RDF>
      <cc:Work
         rdf:about="">
        <dc:format>image/svg+xml</dc:format>
        <dc:type
           rdf:resource="http://purl.org/dc/dcmitype/StillImage" />
        <dc:title>Zheng</dc:title>
        <dc:date>2010-08-21</dc:date>
        <dc:creator>
          <cc:Agent>
            <dc:title>Alex Amies</dc:title>
          </cc:Agent>
        </dc:creator>
        <dc:rights>
          <cc:Agent>
            <dc:title>@ Alex Amies 2010</dc:title>
          </cc:Agent>
        </dc:rights>
        <dc:publisher>
          <cc:Agent>
            <dc:title>chinesenotes.com</dc:title>
          </cc:Agent>
        </dc:publisher>
        <dc:source>Yan Qin Ceremonial Inscription</dc:source>
        <dc:language>Chinese 中文</dc:language>
        <dc:description>Tracing from Tang Dynasty Ceremonial Inscription by Yan Zhenqing 颜真卿 (709－785)</dc:description>
        <cc:license
           rdf:resource="http://creativecommons.org/licenses/by/3.0/" />
      </cc:Work>
      <cc:License
         rdf:about="http://creativecommons.org/licenses/by/3.0/">
        <cc:permits
           rdf:resource="http://creativecommons.org/ns#Reproduction" />
        <cc:permits
           rdf:resource="http://creativecommons.org/ns#Distribution" />
        <cc:requires
           rdf:resource="http://creativecommons.org/ns#Notice" />
        <cc:requires
           rdf:resource="http://creativecommons.org/ns#Attribution" />
        <cc:permits
           rdf:resource="http://creativecommons.org/ns#DerivativeWorks" />
      </cc:License>
    </rdf:RDF>
  </metadata>
  <g
     inkscape:label="Layer 1"
     inkscape:groupmode="layer"
     id="layer1"
     transform="translate(0,-52.362183)">
    <g
       transform="matrix(4.7609464,0,0,4.7609464,-1421.6669,-3910.0295)"
       id="g4143"
       style="fill:#000000;fill-opacity:1">
      <path
         style="fill:#000000;stroke:#000000;stroke-width:4.53320788999999990px;stroke-linecap:butt;stroke-linejoin:miter;stroke-opacity:1;fill-opacity:1"
         d="M 450.125 10.1875 C 429.10671 10.09366 413.68829 22.561072 407.125 43.8125 C 400.29424 81.303085 393.37731 127.70235 399.96875 161.9375 C 366.94979 171.33211 333.31237 178.76258 299.65625 186.0625 C 305.55213 169.55589 296.86478 149.94938 287.46875 136.25 C 266.63499 105.38345 238.51934 83.288891 200 84.875 C 193.38028 85.76682 185.33444 85.039698 180.46875 89.15625 C 175.05979 93.732329 169.78992 99.46596 177.96875 107.84375 C 202.44301 132.91337 233.55049 153.94632 248.59375 187.15625 C 250.13094 190.5498 252.35749 193.47152 255.0625 195.84375 C 240.57113 199.08582 226.13401 202.44296 211.78125 206.0625 C 179.73218 214.33079 144.80679 214.16434 117.34375 234.84375 C 95.486721 272.73241 152.73552 276.16901 173.4375 258.40625 C 208.30514 246.6092 242.95881 233.70828 277.40625 220.625 C 277.41431 221.0688 277.49017 221.49664 277.625 221.90625 C 280.61825 230.99937 289.38685 241.89633 288.875 254.46875 C 288.50332 263.59864 288.41196 272.73531 288.5 281.90625 C 276.53229 285.87544 264.58385 289.88064 252.65625 293.875 C 242.89987 296.09434 234.76916 296.1676 228.28125 304.40625 C 225.35846 298.2994 221.15532 293.23896 213.6875 291.0625 C 210.1743 289.05495 205.6981 282.65002 203.125 285.03125 C 190.42508 296.78388 200.19757 321.53467 199.40625 339.59375 C 205.40081 418.66136 207.41846 497.97886 207.53125 577.25 C 206.91894 600.73865 206.7347 624.26079 204.75 647.6875 C 209.19334 660.57391 228.23063 667.05524 238.8125 658.59375 C 253.17766 652.0176 257.62917 637.23466 256.53125 622.59375 C 258.04585 601.39916 262.13067 580.03147 259.84375 558.8125 C 252.89348 530.91278 241.73893 502.99084 245.3125 473.6875 C 245.40111 465.7773 245.16407 457.88573 244.75 450 C 253.39869 453.97562 262.56459 455.38729 272.09375 454.9375 C 292.29692 455.57556 313.11986 453.22965 331.03125 443.71875 C 340.06672 434.65381 344.67258 420.57232 348.75 407.65625 C 349.67658 374.25682 345.1969 340.33659 340.125 306.53125 C 358.29921 299.61515 376.99448 294.36254 395.8125 289.5 C 395.44797 325.60591 396.6145 361.87809 397.5 397.9375 C 397.84374 411.92616 409.97625 421.75772 419.34375 430.59375 C 436.98258 436.28525 465.23077 438.92477 485.5 434.21875 C 485.23684 446.1271 485.04167 458.00806 485.15625 469.90625 C 485.92403 502.75276 477.0286 534.8245 474.125 567.34375 C 468.22463 565.17932 460.54193 566.00438 454.4375 564.71875 C 402.50567 561.45903 354.32038 587.0488 303.96875 595.34375 C 291.08415 596.37421 276.02667 596.70561 266.28125 604 C 261.92651 607.25944 259.07065 614.88233 259.8125 620.1875 C 261.0403 628.96711 266.56665 643.5094 277.375 643.53125 C 303.39014 643.58362 327.81272 629.54902 352.3125 620.5625 C 387.92243 607.23504 423.97751 589.81883 461.5 582.78125 C 464.47912 582.55483 469.1784 582.44962 473.3125 581.78125 C 473.18854 586.89172 473.22132 592.03986 473.5625 597.1875 C 473.91414 613.7217 470.51956 629.79151 465.53125 645.40625 C 426.2095 654.31345 386.90427 663.31582 347.625 672.40625 C 338.31737 662.34861 328.37087 652.85375 316.46875 647.6875 C 307.33135 646.94241 294.95377 649.10914 287.3125 654.1875 C 281.48842 666.13257 275.99218 678.22476 270.59375 690.375 C 232.59091 699.30196 194.61185 708.31213 156.65625 717.4375 C 122.58687 726.28624 87.460761 727.32868 52.5625 723.78125 C 42.787991 742.34818 60.118298 756.62596 71.59375 768.65625 C 81.869634 781.45458 85.754541 809.89766 107.78125 800.0625 C 150.94632 786.36145 189.43581 760.77756 233.0625 748.0625 C 237.87774 746.45659 242.69104 744.82147 247.5 743.1875 C 225.4521 793.18088 201.67289 842.03809 164.9375 883.65625 C 152.61022 897.09355 134.27093 911.45847 128.65625 924.5625 C 127.35813 927.59237 136.18442 932.16333 140.46875 930.09375 C 152.98928 924.04497 166.17598 919.36209 177.5625 911.09375 C 209.57834 887.84557 244.64658 868.19904 274.90625 843.03125 C 314.06951 806.39148 342.70778 760.14335 374.75 717.3125 C 375.37614 712.93359 374.30732 707.16527 372.1875 701.96875 C 407.52862 696.20238 443.10428 692.4406 478.78125 689.8125 C 479.1876 690.34389 479.59365 690.87486 480 691.40625 C 491.90943 693.37014 507.87176 693.92582 517.6875 687.375 C 539.56305 687.79544 558.37744 669.24917 580.53125 675.4375 C 594.94587 677.50028 618.75731 678.80452 617.15625 657.90625 C 611.30966 640.96323 597.01496 619.58659 576.65625 623.25 C 563.12835 623.06009 549.9711 625.535 536.90625 628.6875 C 542.43788 605.29749 547.3482 581.74268 552.40625 558.3125 C 550.13023 476.6816 548.00837 394.21598 557.3125 312.90625 C 550.77382 296.21328 539.472 280.4357 526.8125 267.375 C 514.35534 249.9566 493.64082 235.96239 471.8125 237.71875 C 462.25826 238.61414 452.75897 239.81737 443.3125 241.25 C 442.88343 230.09038 442.17392 218.97697 440.6875 207.96875 C 437.70929 192.4573 432.28183 185.64633 416.84375 186.28125 C 397.57596 186.28125 398.54583 221.66116 397.40625 240.8125 C 397.22083 243.92857 397.08822 247.06613 396.9375 250.1875 C 375.85244 255.06367 354.96135 260.8869 334.21875 267.21875 C 333.174 259.89332 332.18448 252.56691 331.3125 245.28125 C 330.17235 235.64409 334.02202 223.71968 325.78125 216.5625 C 321.34375 213.88801 316.3799 211.82307 311.28125 210.0625 C 377.63649 195.92435 441.53913 172.3796 508 158.65625 C 526.31327 155.657 540.49108 143.44013 556.09375 134.46875 C 556.23848 95.614762 505.61323 118.56653 486.3125 130.96875 C 467.24548 139.61228 447.74665 146.95491 427.96875 153.40625 C 429.08082 152.03064 430.13027 150.7309 431 149.53125 C 453.29199 118.78292 481.18154 90.000967 499.40625 58.375 C 503.81512 50.724112 502.38404 38.02437 497.78125 30.875 C 489.98092 18.758915 473.13022 11.487731 456.8125 10.625 C 454.52158 10.342151 452.29931 10.197208 450.125 10.1875 z M 447.9375 275.09375 C 453.68012 275.16907 459.46581 276.54658 465.28125 279.90625 C 479.92102 294.32435 483.79072 315.35798 484.1875 335.375 C 486.69693 360.53148 486.56673 385.75849 486.03125 411 C 484.64835 410.2595 483.21297 409.68722 481.71875 409.34375 C 470.41707 406.74594 459.30142 402.35745 447.46875 403.21875 C 442.67457 403.56773 433.37661 406.77165 433.03125 403.21875 C 439.4829 369.10676 439.89104 334.65534 445.1875 300.21875 C 444.63298 291.93776 444.35741 283.58102 444.15625 275.21875 C 445.41618 275.11823 446.67412 275.07718 447.9375 275.09375 z M 289.65625 323.5625 C 290.46769 345.34618 291.26848 367.14104 290.5 388.8125 C 290.12579 399.35666 289.70079 411.62154 277.1875 413.9375 C 267.03145 415.81717 256.5325 416.41512 246.65625 419.125 C 245.32755 419.48958 243.91847 419.97693 242.53125 420.5625 C 239.69747 390.52753 235.88624 360.5538 237.0625 330.34375 C 242.88321 332.80672 249.73374 332.90239 255.34375 328.9375 C 266.86626 327.61956 278.34651 325.96915 289.65625 323.5625 z M 386.1875 473.96875 C 354.44983 473.78615 320.84929 485.80816 292.1875 495.5 C 288.94944 499.81732 285.70676 504.15143 282.46875 508.46875 C 281.90586 519.29067 282.10704 531.85038 290.53125 539.875 C 297.23514 544.20532 305.36674 541.46457 312.6875 541 C 339.73672 534.40766 363.86606 518.68103 391.625 514.53125 C 403.98051 511.26534 417.1158 504.38256 426.4375 495.9375 C 426.54319 487.57109 418.09354 482.08678 412.25 477.3125 C 403.80553 475.02695 395.07405 474.01988 386.1875 473.96875 z M 426.5625 697.90625 C 421.72071 698.14335 413.80247 702.68045 413.59375 707.59375 C 412.76201 727.1759 429.86962 746.61609 439.4375 765.34375 C 462.54694 792.92477 470.41946 829.06719 489.09375 858.875 C 498.03081 871.32011 509.5589 883.56985 524.0625 887.84375 C 531.77009 890.1152 542.54344 886.63782 546.375 880.84375 C 553.86478 869.51746 555.27249 850.84281 553.8125 835.8125 C 537.21337 797.134 508.10354 761.47383 480.34375 729.71875 C 465.55025 714.34556 448.94914 698.58321 426.5625 697.90625 z "
         transform="matrix(0.21004227,0,0,0.21004227,298.61015,832.26975)"
         id="path4159" />
      <path
         style="fill:#000000;stroke:#000000;stroke-width:4.53320788999999990px;stroke-linecap:butt;stroke-linejoin:miter;stroke-opacity:1;fill-opacity:1"
         d="M 847.59375 99.6875 C 842.81134 99.834696 837.97438 106.83215 833.3125 108.84375 C 825.13843 116.98197 819.11892 127.08956 811.875 136.09375 C 775.92595 139.03092 739.96652 141.76553 703.90625 142.75 C 688.67432 142.70509 674.89584 146.14243 661.03125 151.03125 C 654.9082 149.31271 648.14984 148.31178 640.28125 147.4375 C 632.40731 154.38924 622.7215 160.28213 623.1875 172.09375 C 624.08394 291.45182 641.01018 411.58205 649.90625 530.9375 C 656.49245 655.58812 664.68067 780.17858 670.21875 904.875 C 672.34665 931.26064 668.71431 958.41438 673.53125 984.3125 C 676.07421 994.14814 693.95731 994.06026 697.625 985.3125 C 710.50536 969.8818 709.81104 948.31176 716.0625 929.875 C 721.31754 906.24785 730.1517 883.07124 728.0625 858.5 C 728.87643 783.80904 730.90731 709.07046 730.4375 634.40625 C 709.42114 491.58462 706.6448 330.55316 693.625 186.09375 C 696.93213 185.24203 700.20468 184.56773 703.34375 184.40625 C 727.11163 179.23082 750.78609 173.68305 774.21875 167.1875 C 784.89479 162.16418 804.00395 166.41221 793.125 180.65625 C 777.7649 220.07598 761.20879 259.12316 746.71875 298.8125 C 745.09089 311.39787 739.19355 324.93738 746.21875 336.84375 C 762.09903 340.94983 768.8424 323.33793 778.875 314.65625 C 798.05766 293.28907 817.51455 272.12618 839.3125 253.375 C 850.28396 243.99232 860.1622 232.96596 872.09375 224.90625 C 886.53551 217.36791 900.87471 209.64969 915.5 202.46875 C 918.08991 189.84777 910.05766 179.79976 904.9375 169.125 C 892.57251 143.71992 876.0396 118.4496 852.34375 102.25 C 850.77464 100.33592 849.18789 99.638435 847.59375 99.6875 z M 764.53125 400.09375 C 759.6765 399.80558 756.84375 403.57243 756.84375 412.9375 C 756.84375 418.02867 746.69756 421.51599 748.75 425.90625 C 767.79112 466.63558 805.74299 501.59936 826.34375 544.1875 C 831.10674 554.03414 842.84614 563.51203 834.59375 575.5 C 827.67767 585.54674 827.70252 602.74365 810.21875 605.75 C 789.99039 606.61692 769.69424 597.20512 753.78125 585.25 C 749.81662 582.28898 745.38344 579.29875 740.65625 578.09375 C 733.99007 576.39443 734.56334 587.96483 733.71875 593.90625 C 732.63568 601.52486 734.57372 609.05075 739.84375 614.0625 C 751.38714 625.04015 762.90349 636.18778 777.46875 643.125 C 791.75802 649.93077 804.71639 660.26062 813.75 672.6875 C 820.4388 681.88874 819.94687 695.80085 826.875 705 C 831.53554 711.18823 843.92994 721.30559 858.84375 720.5625 C 880.55386 719.48077 888.91464 716.68614 906.1875 703.71875 C 930.37682 685.55898 940.58534 665.96099 943.5625 647.65625 C 927.88418 599.25714 906.95586 546.23629 873.21875 506.90625 C 844.36274 478.75357 785.56852 401.34251 764.53125 400.09375 z "
         transform="matrix(0.21004227,0,0,0.21004227,298.61015,832.26975)"
         id="path4183" />
    </g>
  </g>
</svg>
