<?xml version="1.0" encoding="UTF-8" standalone="no"?>
<!-- Created with Inkscape (http://www.inkscape.org/) -->

<svg
   xmlns:dc="http://purl.org/dc/elements/1.1/"
   xmlns:cc="http://creativecommons.org/ns#"
   xmlns:rdf="http://www.w3.org/1999/02/22-rdf-syntax-ns#"
   xmlns:svg="http://www.w3.org/2000/svg"
   xmlns="http://www.w3.org/2000/svg"
   xmlns:sodipodi="http://sodipodi.sourceforge.net/DTD/sodipodi-0.dtd"
   xmlns:inkscape="http://www.inkscape.org/namespaces/inkscape"
   width="1000"
   height="1000"
   id="svg3173"
   version="1.1"
   inkscape:version="0.47 r22583"
   sodipodi:docname="91c7.svg"
   inkscape:export-filename="E:\chinese\yan\91c7.png"
   inkscape:export-xdpi="18.005705"
   inkscape:export-ydpi="18.005705">
  <title
     id="title2821">Cai</title>
  <defs
     id="defs3175">
    <inkscape:perspective
       sodipodi:type="inkscape:persp3d"
       inkscape:vp_x="0 : 526.18109 : 1"
       inkscape:vp_y="0 : 1000 : 0"
       inkscape:vp_z="744.09448 : 526.18109 : 1"
       inkscape:persp3d-origin="372.04724 : 350.78739 : 1"
       id="perspective3181" />
    <inkscape:perspective
       id="perspective3191"
       inkscape:persp3d-origin="0.5 : 0.33333333 : 1"
       inkscape:vp_z="1 : 0.5 : 1"
       inkscape:vp_y="0 : 1000 : 0"
       inkscape:vp_x="0 : 0.5 : 1"
       sodipodi:type="inkscape:persp3d" />
    <inkscape:perspective
       id="perspective4006"
       inkscape:persp3d-origin="0.5 : 0.33333333 : 1"
       inkscape:vp_z="1 : 0.5 : 1"
       inkscape:vp_y="0 : 1000 : 0"
       inkscape:vp_x="0 : 0.5 : 1"
       sodipodi:type="inkscape:persp3d" />
    <inkscape:perspective
       id="perspective4034"
       inkscape:persp3d-origin="0.5 : 0.33333333 : 1"
       inkscape:vp_z="1 : 0.5 : 1"
       inkscape:vp_y="0 : 1000 : 0"
       inkscape:vp_x="0 : 0.5 : 1"
       sodipodi:type="inkscape:persp3d" />
    <inkscape:perspective
       id="perspective4081"
       inkscape:persp3d-origin="0.5 : 0.33333333 : 1"
       inkscape:vp_z="1 : 0.5 : 1"
       inkscape:vp_y="0 : 1000 : 0"
       inkscape:vp_x="0 : 0.5 : 1"
       sodipodi:type="inkscape:persp3d" />
    <inkscape:perspective
       id="perspective4147"
       inkscape:persp3d-origin="0.5 : 0.33333333 : 1"
       inkscape:vp_z="1 : 0.5 : 1"
       inkscape:vp_y="0 : 1000 : 0"
       inkscape:vp_x="0 : 0.5 : 1"
       sodipodi:type="inkscape:persp3d" />
    <inkscape:perspective
       id="perspective3797"
       inkscape:persp3d-origin="0.5 : 0.33333333 : 1"
       inkscape:vp_z="1 : 0.5 : 1"
       inkscape:vp_y="0 : 1000 : 0"
       inkscape:vp_x="0 : 0.5 : 1"
       sodipodi:type="inkscape:persp3d" />
    <inkscape:perspective
       id="perspective3104"
       inkscape:persp3d-origin="0.5 : 0.33333333 : 1"
       inkscape:vp_z="1 : 0.5 : 1"
       inkscape:vp_y="0 : 1000 : 0"
       inkscape:vp_x="0 : 0.5 : 1"
       sodipodi:type="inkscape:persp3d" />
    <inkscape:perspective
       id="perspective3140"
       inkscape:persp3d-origin="0.5 : 0.33333333 : 1"
       inkscape:vp_z="1 : 0.5 : 1"
       inkscape:vp_y="0 : 1000 : 0"
       inkscape:vp_x="0 : 0.5 : 1"
       sodipodi:type="inkscape:persp3d" />
  </defs>
  <sodipodi:namedview
     id="base"
     pagecolor="#ffffff"
     bordercolor="#666666"
     borderopacity="1.0"
     inkscape:pageopacity="0.0"
     inkscape:pageshadow="2"
     inkscape:zoom="0.49497475"
     inkscape:cx="187.06658"
     inkscape:cy="525.71429"
     inkscape:document-units="px"
     inkscape:current-layer="g5879"
     showgrid="false"
     inkscape:window-width="1440"
     inkscape:window-height="840"
     inkscape:window-x="-4"
     inkscape:window-y="-4"
     inkscape:window-maximized="1" />
  <metadata
     id="metadata3178">
    <rdf:RDF>
      <cc:Work
         rdf:about="">
        <dc:format>image/svg+xml</dc:format>
        <dc:type
           rdf:resource="http://purl.org/dc/dcmitype/StillImage" />
        <dc:title>Cai</dc:title>
        <dc:date>2010-08-08</dc:date>
        <dc:creator>
          <cc:Agent>
            <dc:title>Alex Amies</dc:title>
          </cc:Agent>
        </dc:creator>
        <dc:rights>
          <cc:Agent>
            <dc:title>@ Alex Amies 2010</dc:title>
          </cc:Agent>
        </dc:rights>
        <dc:publisher>
          <cc:Agent>
            <dc:title>chinesenotes.com</dc:title>
          </cc:Agent>
        </dc:publisher>
        <dc:source>Yan Qin Ceremonial Inscription</dc:source>
        <dc:language>Chinese 中文</dc:language>
        <dc:description>Tracing from Tang Dynasty Ceremonial Inscription by Yan Zhenqing 颜真卿 (709－785)</dc:description>
        <cc:license
           rdf:resource="http://creativecommons.org/licenses/by/3.0/" />
      </cc:Work>
      <cc:License
         rdf:about="http://creativecommons.org/licenses/by/3.0/">
        <cc:permits
           rdf:resource="http://creativecommons.org/ns#Reproduction" />
        <cc:permits
           rdf:resource="http://creativecommons.org/ns#Distribution" />
        <cc:requires
           rdf:resource="http://creativecommons.org/ns#Notice" />
        <cc:requires
           rdf:resource="http://creativecommons.org/ns#Attribution" />
        <cc:permits
           rdf:resource="http://creativecommons.org/ns#DerivativeWorks" />
      </cc:License>
    </rdf:RDF>
  </metadata>
  <g
     inkscape:label="Layer 1"
     inkscape:groupmode="layer"
     id="layer1"
     transform="translate(0,-52.362183)">
    <path
       style="fill:#000000;stroke:#000000;stroke-width:4.73223686000000040px;stroke-linecap:butt;stroke-linejoin:miter;stroke-opacity:1;fill-opacity:1"
       d="m 369.84328,287.58699 0,0 z"
       id="path5819" />
    <g
       transform="matrix(4.7322369,0,0,4.7322369,-536.04205,-3955.5633)"
       id="g5879"
       style="fill:#000000;fill-opacity:1">
      <g
         id="g2847"
         transform="matrix(1.1365625,0,0,1,-58.325699,-2.1346195)">
        <path
           sodipodi:nodetypes="cccccccc"
           style="fill:#000000;fill-opacity:1;stroke:#000000;stroke-width:1px;stroke-linecap:butt;stroke-linejoin:miter;stroke-opacity:1"
           d="m 195.71428,881.6479 c -0.97152,2.74564 2.66878,3.35323 4.43239,2.14016 9.22526,-4.00223 19.14016,-5.76181 28.92036,-7.85445 9.8561,-0.43978 19.23765,2.66227 28.07583,-2.5 0.72039,-6.34754 -1.13547,-10.11556 -6.25381,-13.99276 -6.24229,-3.7695 -12.8218,-4.4029 -19.98037,-3.35609 -5.88623,3.69897 -10.52662,9.98683 -15.67473,14.85768 -6.44585,3.7041 -12.50861,8.156 -19.51967,10.70546 z"
           id="path5817" />
        <path
           sodipodi:nodetypes="cccccc"
           style="fill:#000000;fill-opacity:1;stroke:#000000;stroke-width:1px;stroke-linecap:butt;stroke-linejoin:miter;stroke-opacity:1"
           d="m 192.5,895.93361 c -2.67418,4.7853 1.86289,10.01989 2.43004,15.02935 0.27305,4.71327 -2.15442,9.53059 -0.39347,13.98333 0.38383,3.72945 3.93909,10.10301 8.25374,6.94282 6.18372,-7.65773 9.78079,-24.17602 1.88171,-31.89616 -3.33105,-3.00506 -7.52853,-7.14935 -12.17202,-4.05934 z"
           id="path5823" />
        <path
           sodipodi:nodetypes="ccccs"
           style="fill:#000000;fill-opacity:1;stroke:#000000;stroke-width:1px;stroke-linecap:butt;stroke-linejoin:miter;stroke-opacity:1"
           d="m 230.71428,887.71933 c -7.84492,1.68034 -2.77658,16.75989 -1.2694,24.18146 0.62827,4.80968 6.98723,8.81203 9.31633,2.67576 1.63756,-5.16119 0.14615,-10.70685 0.91998,-16.02588 0.10075,-5.40141 -4.58337,-11.77027 -8.96691,-10.83134 z"
           id="path5825" />
        <path
           sodipodi:nodetypes="cccccs"
           style="fill:#000000;fill-opacity:1;stroke:#000000;stroke-width:1px;stroke-linecap:butt;stroke-linejoin:miter;stroke-opacity:1"
           d="m 255.35714,880.57647 c -1.71102,9.67896 3.97989,12.08259 6.42857,31.57084 -0.6988,2.17614 1.73182,2.0595 3.27115,1.76964 6.66928,-5.43143 6.03183,-15.98019 8.94138,-23.56107 2.95066,-3.0514 -1.69164,-6.25572 -3.33228,-8.78132 -4.78271,-5.05779 -14.33849,-6.48711 -15.30882,-0.99809 z"
           id="path5827" />
        <path
           id="path5829"
           transform="matrix(0.21131656,0,0,0.21131656,113.27456,846.94101)"
           d="m 809.75342,369.61564 c -6.14658,-0.077 -12.54798,0.80961 -19.0625,2.75 -51.27217,19.3935 -133.63413,35.08588 -185.15967,53.79061 -0.36861,-4.87469 -0.77593,-9.75572 -1.21875,-14.625 -3.21139,-26.91597 -26.11733,-36.29371 -50.65625,-33.65625 l -4.03125,-0.34375 -4,-0.34375 c -30.34495,2.74721 -17.21305,33.88823 -17.6875,54.6875 0.36898,6.89588 0.79302,13.79998 1.25,20.6875 -55.44393,22.47756 -140.78824,54.75656 -184.64688,47.4375 -18.1345,-5.68167 -36.17018,7.68237 -21.59375,25.84375 14.13235,15.3889 31.72026,47.36182 54.28125,22.625 45.36555,-16.13181 110.64963,-32.66469 155.45938,-51.125 0.25038,2.80233 0.48969,5.60486 0.75,8.40625 -61.91299,84.24151 -131.59586,162.27735 -200.8125,240.59375 -9.56451,13.28434 -19.12299,26.55941 -28.6875,39.84375 3.52897,4.09433 5.88302,14.17115 11.65625,6.84375 18.37523,-12.88635 37.69082,-24.60696 55.46875,-38.25 26.62692,-24.73209 53.92999,-48.78836 80.125,-73.9375 31.69647,-34.72107 60.92152,-71.38647 89.15625,-108.84375 5.61722,49.83626 11.90234,99.60962 17,149.5 -4.57626,62.6427 -9.52427,125.27802 -11.71875,188.0625 -11.27825,17.19648 -25.5723,41.66062 -8.40625,59.875 15.76327,11.51495 34.84046,6.14749 45.1875,-9.71875 14.28497,-15.27282 24.80205,-32.85858 31.09375,-52.875 10.77739,-18.28773 10.70437,-38.61408 9.875,-59.15625 1.05306,-79.55398 -1.7985,-159.03507 -6.3125,-238.4375 46.63791,73.53351 108.27777,137.67275 171.5,197.09375 14.28274,14.40351 29.07625,28.14544 49.1875,33.4375 15.17032,10.23394 29.54934,0.9494 43.28125,-6.65625 14.63113,-6.63791 28.55169,-16.03785 43.96875,-20.28125 11.00264,-1.00039 21.99731,-1.99961 33,-3 14.21957,-10.52166 4.6267,-32.18487 -11.25,-34.28125 -31.05597,-13.8276 -64.04277,-24.24363 -91.78125,-44.4375 -73.2952,-40.8164 -136.63323,-93.23812 -194.28125,-153.8125 -19.46653,-17.94318 -30.29845,-43.00875 -47.65625,-62.46875 -0.71741,-0.49166 -1.41608,-0.94853 -2.09375,-1.375 -0.25929,-3.77157 -0.51902,-7.54134 -0.78125,-11.3125 -0.51593,-7.78984 -0.96483,-15.57968 -1.40625,-23.375 3.73727,-5.13428 7.46912,-10.28176 11.21875,-15.40625 0.53619,-2.14478 1.05755,-4.29272 1.59375,-6.4375 0.76989,-0.39022 1.54376,-0.7641 2.3125,-1.15625 52.19752,-11.14593 135.9973,-13.13201 189.59717,-17.29061 19.27521,12.9253 61.26734,13.82988 45.84375,-19.71875 -1.46773,-30.29199 -22.92733,-48.82254 -49.5625,-49.15625 z"
           style="fill:#000000;fill-opacity:1;stroke:#000000;stroke-width:4.73223686px;stroke-linecap:butt;stroke-linejoin:miter;stroke-opacity:1"
           sodipodi:nodetypes="ccccccccccccccccccccccccccccccccccccccccccccc" />
      </g>
    </g>
    <path
       style="fill:#000000;stroke:#000000;stroke-width:4.73223686000000040px;stroke-linecap:butt;stroke-linejoin:miter;stroke-opacity:1;fill-opacity:1"
       d="m 594.62455,556.31042 0,0 z"
       id="path5837" />
  </g>
</svg>
