<?xml version="1.0" encoding="UTF-8" standalone="no"?>
<!-- Created with Inkscape (http://www.inkscape.org/) -->

<svg
   xmlns:dc="http://purl.org/dc/elements/1.1/"
   xmlns:cc="http://creativecommons.org/ns#"
   xmlns:rdf="http://www.w3.org/1999/02/22-rdf-syntax-ns#"
   xmlns:svg="http://www.w3.org/2000/svg"
   xmlns="http://www.w3.org/2000/svg"
   xmlns:sodipodi="http://sodipodi.sourceforge.net/DTD/sodipodi-0.dtd"
   xmlns:inkscape="http://www.inkscape.org/namespaces/inkscape"
   width="1000"
   height="1000"
   id="svg3173"
   version="1.1"
   inkscape:version="0.47 r22583"
   sodipodi:docname="91cc.svg"
   inkscape:export-filename="E:\chinese\yan\91cc.png"
   inkscape:export-xdpi="18.005705"
   inkscape:export-ydpi="18.005705">
  <title
     id="title2821">Li</title>
  <defs
     id="defs3175">
    <inkscape:perspective
       sodipodi:type="inkscape:persp3d"
       inkscape:vp_x="0 : 526.18109 : 1"
       inkscape:vp_y="0 : 1000 : 0"
       inkscape:vp_z="744.09448 : 526.18109 : 1"
       inkscape:persp3d-origin="372.04724 : 350.78739 : 1"
       id="perspective3181" />
    <inkscape:perspective
       id="perspective3191"
       inkscape:persp3d-origin="0.5 : 0.33333333 : 1"
       inkscape:vp_z="1 : 0.5 : 1"
       inkscape:vp_y="0 : 1000 : 0"
       inkscape:vp_x="0 : 0.5 : 1"
       sodipodi:type="inkscape:persp3d" />
    <inkscape:perspective
       id="perspective4006"
       inkscape:persp3d-origin="0.5 : 0.33333333 : 1"
       inkscape:vp_z="1 : 0.5 : 1"
       inkscape:vp_y="0 : 1000 : 0"
       inkscape:vp_x="0 : 0.5 : 1"
       sodipodi:type="inkscape:persp3d" />
    <inkscape:perspective
       id="perspective4034"
       inkscape:persp3d-origin="0.5 : 0.33333333 : 1"
       inkscape:vp_z="1 : 0.5 : 1"
       inkscape:vp_y="0 : 1000 : 0"
       inkscape:vp_x="0 : 0.5 : 1"
       sodipodi:type="inkscape:persp3d" />
    <inkscape:perspective
       id="perspective4081"
       inkscape:persp3d-origin="0.5 : 0.33333333 : 1"
       inkscape:vp_z="1 : 0.5 : 1"
       inkscape:vp_y="0 : 1000 : 0"
       inkscape:vp_x="0 : 0.5 : 1"
       sodipodi:type="inkscape:persp3d" />
    <inkscape:perspective
       id="perspective4147"
       inkscape:persp3d-origin="0.5 : 0.33333333 : 1"
       inkscape:vp_z="1 : 0.5 : 1"
       inkscape:vp_y="0 : 1000 : 0"
       inkscape:vp_x="0 : 0.5 : 1"
       sodipodi:type="inkscape:persp3d" />
    <inkscape:perspective
       id="perspective3801"
       inkscape:persp3d-origin="0.5 : 0.33333333 : 1"
       inkscape:vp_z="1 : 0.5 : 1"
       inkscape:vp_y="0 : 1000 : 0"
       inkscape:vp_x="0 : 0.5 : 1"
       sodipodi:type="inkscape:persp3d" />
    <inkscape:perspective
       id="perspective3158"
       inkscape:persp3d-origin="0.5 : 0.33333333 : 1"
       inkscape:vp_z="1 : 0.5 : 1"
       inkscape:vp_y="0 : 1000 : 0"
       inkscape:vp_x="0 : 0.5 : 1"
       sodipodi:type="inkscape:persp3d" />
  </defs>
  <sodipodi:namedview
     id="base"
     pagecolor="#ffffff"
     bordercolor="#666666"
     borderopacity="1.0"
     inkscape:pageopacity="0.0"
     inkscape:pageshadow="2"
     inkscape:zoom="0.49497475"
     inkscape:cx="95.172444"
     inkscape:cy="522.85714"
     inkscape:document-units="px"
     inkscape:current-layer="g4634"
     showgrid="false"
     inkscape:window-width="1440"
     inkscape:window-height="840"
     inkscape:window-x="-4"
     inkscape:window-y="-4"
     inkscape:window-maximized="1" />
  <metadata
     id="metadata3178">
    <rdf:RDF>
      <cc:Work
         rdf:about="">
        <dc:format>image/svg+xml</dc:format>
        <dc:type
           rdf:resource="http://purl.org/dc/dcmitype/StillImage" />
        <dc:title>Li</dc:title>
        <dc:date>2010-08-08</dc:date>
        <dc:creator>
          <cc:Agent>
            <dc:title>Alex Amies</dc:title>
          </cc:Agent>
        </dc:creator>
        <dc:rights>
          <cc:Agent>
            <dc:title>@ Alex Amies 2010</dc:title>
          </cc:Agent>
        </dc:rights>
        <dc:publisher>
          <cc:Agent>
            <dc:title>chinesenotes.com</dc:title>
          </cc:Agent>
        </dc:publisher>
        <dc:source>Yan Qin Ceremonial Inscription</dc:source>
        <dc:language>Chinese 中文</dc:language>
        <dc:description>Tracing from Tang Dynasty Ceremonial Inscription by Yan Zhenqing 颜真卿 (709－785)</dc:description>
        <cc:license
           rdf:resource="http://creativecommons.org/licenses/by/3.0/" />
      </cc:Work>
      <cc:License
         rdf:about="http://creativecommons.org/licenses/by/3.0/">
        <cc:permits
           rdf:resource="http://creativecommons.org/ns#Reproduction" />
        <cc:permits
           rdf:resource="http://creativecommons.org/ns#Distribution" />
        <cc:requires
           rdf:resource="http://creativecommons.org/ns#Notice" />
        <cc:requires
           rdf:resource="http://creativecommons.org/ns#Attribution" />
        <cc:permits
           rdf:resource="http://creativecommons.org/ns#DerivativeWorks" />
      </cc:License>
    </rdf:RDF>
  </metadata>
  <g
     inkscape:label="Layer 1"
     inkscape:groupmode="layer"
     id="layer1"
     transform="translate(0,-52.362183)">
    <g
       transform="matrix(4.7609464,0,0,4.7609464,-444.07486,-2879.5352)"
       id="g4634"
       style="fill:#000000;fill-opacity:1">
      <path
         style="fill:#000000;stroke:#000000;stroke-width:5.73955869999999990px;stroke-linecap:butt;stroke-linejoin:miter;stroke-opacity:1;fill-opacity:1"
         d="M 737.78125 77.65625 C 701.7083 77.331488 663.35945 87.619907 628.4375 91.21875 C 542.37021 98.513663 464.25873 128.65486 383.3125 149.90625 C 398.44766 178.69225 428.38377 180.45494 459.90625 175.09375 C 456.22258 206.87481 453.43543 240.79679 451.375 276 C 419.3935 283.76845 389.10515 296.76393 361.625 314.625 C 338.63501 329.56761 394.76428 332.59564 413.875 332.40625 C 425.69459 330.68078 437.35383 328.33116 448.9375 325.71875 C 447.08012 372.36448 446.30397 420.42196 446.09375 467.96875 C 444.61624 468.56258 443.15324 469.1532 441.6875 469.78125 C 398.41984 482.42519 351.49485 484.59096 308.75 498.34375 C 311.94337 486.17368 311.34351 471.17515 308.125 462.96875 C 292.25343 388.19433 282.14011 312.62957 265.0625 238.03125 C 251.4092 211.38642 241.93289 164.20774 217.65625 143.59375 C 203.04914 129.93436 177.09204 110.51508 161.0625 129.125 C 139.1442 154.57169 167.41118 219.70733 177.09375 264.0625 C 195.05866 326.1619 206.50525 389.79976 230.40625 450.53125 C 240.80716 473.35518 255.95652 497.00831 277.5625 512.75 C 280.6475 514.69674 283.48621 515.97735 286.09375 516.6875 C 280.30866 549.26384 332.28045 551.46822 361.84375 539.8125 C 389.94873 534.40877 418.00592 528.76271 446.09375 523.1875 C 446.2679 563.22375 446.74545 602.27541 447.3125 639.28125 C 419.11482 647.90423 391.21206 657.13094 364.53125 668.75 L 360.6875 670.59375 C 341.84763 710.56989 413.85198 705.51405 441.46875 699.21875 C 444.26369 697.8837 447.22097 696.67478 450.28125 695.53125 C 448.60865 736.40494 439.76536 780.34964 466.5 811.03125 C 394.01653 823.93442 321.98037 839.0776 249.9375 853.1875 C 248.45575 855.70828 246.9817 858.22922 245.5 860.75 C 384.31672 918.91077 551.98695 887.62357 702.96875 885.09375 C 746.14035 898.31914 817.73556 902.828 814.9375 847.15625 C 826.60229 789.55361 749.95891 777.37415 699.28125 781.46875 C 656.03828 784.06236 613.14102 788.64767 570.46875 794.5 C 582.78451 772.84635 583.59082 743.98632 569.65625 718.6875 C 568.17086 705.8775 566.85995 693.0461 565.65625 680.21875 C 622.54828 678.01159 680.08363 677.06431 710.28125 658.25 C 722.04241 632.12693 700.82627 604.53761 668.28125 601.96875 C 632.09946 598.15234 595.38986 599.71274 560.03125 606.78125 C 557.90736 572.12032 556.42312 537.42955 555.15625 502.71875 C 583.13523 497.96496 611.20193 493.69777 639.46875 490.28125 C 654.68755 493.2693 669.92174 490.66089 679.65625 484.28125 C 699.24407 488.81669 720.75791 482.88547 734.4375 460 C 782.57995 381.06813 808.38699 293.27609 860.875 215.875 C 884.46211 171.34396 838.30986 129.84465 806.78125 98.75 C 786.06327 83.072099 762.46274 77.878455 737.78125 77.65625 z M 710.21875 136.21875 C 716.40374 136.18619 722.55854 136.26741 728.71875 136.46875 C 785.11416 164.87803 697.86539 217.89405 695.84375 260.5 C 674.03938 312.92902 645.05704 364.71476 635.84375 419.9375 C 634.84511 423.68542 634.34808 427.39722 634.28125 431.03125 C 619.04974 433.97066 602.91951 439.60935 589.25 440.28125 C 577.30265 442.03279 565.25838 443.49521 553.1875 445 C 551.85687 405.19551 550.47265 365.37787 548.4375 325.625 C 547.85247 319.0255 547.83188 311.76497 548.03125 304.09375 C 552.5782 303.4887 557.14776 302.99104 561.75 302.59375 C 582.46869 299.25152 612.64805 305.69056 615.34375 280.84375 C 593.38417 274.44025 571.38689 270.40568 549.625 268.59375 C 551.49995 224.65138 549.36451 178.74635 503.65625 164.96875 C 513.4388 162.48525 522.73446 160.24245 531.09375 158.90625 C 589.6387 147.27446 650.43051 136.5335 710.21875 136.21875 z "
         transform="matrix(0.21004227,0,0,0.21004227,93.274493,615.82239)"
         id="path4572" />
    </g>
  </g>
</svg>
