<?xml version="1.0" encoding="UTF-8" standalone="no"?>
<!-- Created with Inkscape (http://www.inkscape.org/) -->

<svg
   xmlns:dc="http://purl.org/dc/elements/1.1/"
   xmlns:cc="http://creativecommons.org/ns#"
   xmlns:rdf="http://www.w3.org/1999/02/22-rdf-syntax-ns#"
   xmlns:svg="http://www.w3.org/2000/svg"
   xmlns="http://www.w3.org/2000/svg"
   xmlns:sodipodi="http://sodipodi.sourceforge.net/DTD/sodipodi-0.dtd"
   xmlns:inkscape="http://www.inkscape.org/namespaces/inkscape"
   width="1000"
   height="1000"
   id="svg3173"
   version="1.1"
   inkscape:version="0.47 r22583"
   sodipodi:docname="9577.svg"
   inkscape:export-filename="E:\chinese\yan\9577.png"
   inkscape:export-xdpi="18.005705"
   inkscape:export-ydpi="18.005705">
  <title
     id="title3639">Zhang</title>
  <defs
     id="defs3175">
    <inkscape:perspective
       sodipodi:type="inkscape:persp3d"
       inkscape:vp_x="0 : 526.18109 : 1"
       inkscape:vp_y="0 : 1000 : 0"
       inkscape:vp_z="744.09448 : 526.18109 : 1"
       inkscape:persp3d-origin="372.04724 : 350.78739 : 1"
       id="perspective3181" />
    <inkscape:perspective
       id="perspective3191"
       inkscape:persp3d-origin="0.5 : 0.33333333 : 1"
       inkscape:vp_z="1 : 0.5 : 1"
       inkscape:vp_y="0 : 1000 : 0"
       inkscape:vp_x="0 : 0.5 : 1"
       sodipodi:type="inkscape:persp3d" />
    <inkscape:perspective
       id="perspective4006"
       inkscape:persp3d-origin="0.5 : 0.33333333 : 1"
       inkscape:vp_z="1 : 0.5 : 1"
       inkscape:vp_y="0 : 1000 : 0"
       inkscape:vp_x="0 : 0.5 : 1"
       sodipodi:type="inkscape:persp3d" />
    <inkscape:perspective
       id="perspective4034"
       inkscape:persp3d-origin="0.5 : 0.33333333 : 1"
       inkscape:vp_z="1 : 0.5 : 1"
       inkscape:vp_y="0 : 1000 : 0"
       inkscape:vp_x="0 : 0.5 : 1"
       sodipodi:type="inkscape:persp3d" />
    <inkscape:perspective
       id="perspective4081"
       inkscape:persp3d-origin="0.5 : 0.33333333 : 1"
       inkscape:vp_z="1 : 0.5 : 1"
       inkscape:vp_y="0 : 1000 : 0"
       inkscape:vp_x="0 : 0.5 : 1"
       sodipodi:type="inkscape:persp3d" />
    <inkscape:perspective
       id="perspective4147"
       inkscape:persp3d-origin="0.5 : 0.33333333 : 1"
       inkscape:vp_z="1 : 0.5 : 1"
       inkscape:vp_y="0 : 1000 : 0"
       inkscape:vp_x="0 : 0.5 : 1"
       sodipodi:type="inkscape:persp3d" />
    <inkscape:perspective
       id="perspective3801"
       inkscape:persp3d-origin="0.5 : 0.33333333 : 1"
       inkscape:vp_z="1 : 0.5 : 1"
       inkscape:vp_y="0 : 1000 : 0"
       inkscape:vp_x="0 : 0.5 : 1"
       sodipodi:type="inkscape:persp3d" />
    <inkscape:perspective
       id="perspective3158"
       inkscape:persp3d-origin="0.5 : 0.33333333 : 1"
       inkscape:vp_z="1 : 0.5 : 1"
       inkscape:vp_y="0 : 1000 : 0"
       inkscape:vp_x="0 : 0.5 : 1"
       sodipodi:type="inkscape:persp3d" />
    <inkscape:perspective
       id="perspective3712"
       inkscape:persp3d-origin="0.5 : 0.33333333 : 1"
       inkscape:vp_z="1 : 0.5 : 1"
       inkscape:vp_y="0 : 1000 : 0"
       inkscape:vp_x="0 : 0.5 : 1"
       sodipodi:type="inkscape:persp3d" />
  </defs>
  <sodipodi:namedview
     id="base"
     pagecolor="#ffffff"
     bordercolor="#666666"
     borderopacity="1.0"
     inkscape:pageopacity="0.0"
     inkscape:pageshadow="2"
     inkscape:zoom="0.49497475"
     inkscape:cx="513.37559"
     inkscape:cy="516.79622"
     inkscape:document-units="px"
     inkscape:current-layer="g4634"
     showgrid="false"
     inkscape:window-width="1440"
     inkscape:window-height="840"
     inkscape:window-x="-4"
     inkscape:window-y="-4"
     inkscape:window-maximized="1" />
  <metadata
     id="metadata3178">
    <rdf:RDF>
      <cc:Work
         rdf:about="">
        <dc:format>image/svg+xml</dc:format>
        <dc:type
           rdf:resource="http://purl.org/dc/dcmitype/StillImage" />
        <dc:title>Zhang</dc:title>
        <dc:date>2010-08-08</dc:date>
        <dc:creator>
          <cc:Agent>
            <dc:title>Alex Amies</dc:title>
          </cc:Agent>
        </dc:creator>
        <dc:rights>
          <cc:Agent>
            <dc:title>@ Alex Amies 2010</dc:title>
          </cc:Agent>
        </dc:rights>
        <dc:publisher>
          <cc:Agent>
            <dc:title>chinesenotes.com</dc:title>
          </cc:Agent>
        </dc:publisher>
        <dc:source>Yan Qin Ceremonial Inscription</dc:source>
        <dc:language>Chinese 中文</dc:language>
        <dc:description>Tracing from Tang Dynasty Ceremonial Inscription by Yan Zhenqing 颜真卿 (709－785)</dc:description>
        <cc:license
           rdf:resource="http://creativecommons.org/licenses/by/3.0/" />
      </cc:Work>
      <cc:License
         rdf:about="http://creativecommons.org/licenses/by/3.0/">
        <cc:permits
           rdf:resource="http://creativecommons.org/ns#Reproduction" />
        <cc:permits
           rdf:resource="http://creativecommons.org/ns#Distribution" />
        <cc:requires
           rdf:resource="http://creativecommons.org/ns#Notice" />
        <cc:requires
           rdf:resource="http://creativecommons.org/ns#Attribution" />
        <cc:permits
           rdf:resource="http://creativecommons.org/ns#DerivativeWorks" />
      </cc:License>
    </rdf:RDF>
  </metadata>
  <g
     inkscape:label="Layer 1"
     inkscape:groupmode="layer"
     id="layer1"
     transform="translate(0,-52.362183)">
    <g
       transform="matrix(4.7609464,0,0,4.7609464,-444.07486,-2879.5352)"
       id="g4634"
       style="fill:#000000;fill-opacity:1">
      <path
         style="fill:#000000;stroke:#000000;stroke-width:4.76094626999999980px;stroke-linecap:butt;stroke-linejoin:miter;stroke-opacity:1;fill-opacity:1"
         d="M 560.625 56.0625 C 549.54639 55.9552 537.61353 61.178361 527.09375 66.875 C 489.35406 87.311743 447.30747 98.225948 407.4375 113.9375 C 390.09156 120.77303 369.68814 120.56226 353.6875 127.84375 C 347.71132 130.56339 340.93109 140.0261 341.78125 144.84375 C 342.63141 149.66135 352.14287 156.46596 358.78125 156.75 C 430.48843 150.17847 503.15396 135.06924 572.5 115.15625 C 587.11687 110.27347 597.31418 99.017187 596.84375 83.625 C 592.30352 74.071256 581.78263 62.401568 571.3125 58.125 C 567.8957 56.7294 564.31787 56.098267 560.625 56.0625 z M 284.71875 118.625 C 280.03088 118.61315 275.23577 118.87345 270.375 119.34375 C 263.74557 120.5695 253.04643 129.24715 255.0625 134.65625 C 260.52854 149.32144 271.41855 167.86554 272.65625 186.875 C 273.77712 274.71975 270.88521 362.59858 270.34375 450.46875 C 270.4182 451.16094 270.54769 451.82108 270.75 452.4375 C 225.38292 464.93584 180.36162 478.55234 136.46875 495.71875 C 117.76456 501.82009 97.560761 501.98574 78.21875 505.3125 C 51.805162 567.3432 133.78756 564.34275 168.25 543.40625 C 281.50773 486.90114 384.95072 460.75407 497.9375 445.90625 C 489.10446 454.17481 482.71541 465.77435 474.8125 475.15625 C 413.74646 541.98313 349.08729 605.6222 285.65625 670.25 C 280.8018 683.23886 282.2081 693.11669 299.90625 690.21875 C 341.52473 661.59556 381.88194 631.24875 421.28125 599.65625 C 442.63454 582.87868 463.99046 566.09008 485.34375 549.3125 C 484.82723 562.85648 488.46864 578.19918 486.84375 590.71875 C 507.41904 727.12186 607.08206 816.49933 703.96875 903.1875 C 722.59295 907.31134 743.05441 917.01027 761.71875 909.125 C 783.12154 891.97226 806.82499 878.5544 834 870.78125 C 872.71383 873.26099 906.54855 869.38784 945.40625 870.90625 C 957.5987 867.05483 972.0739 861.02711 952.71875 854.25 C 932.61646 839.81771 910.65882 828.47462 886.78125 821.78125 C 856.43645 810.65273 825.17008 801.37887 795.59375 788.5625 C 682.93824 721.32037 599.27817 656.617 521.9375 549.96875 L 520.3125 525.71875 C 518.95797 525.49299 517.60453 525.25701 516.25 525.03125 C 521.00954 521.29162 525.77171 517.55213 530.53125 513.8125 C 541.4361 514.71089 552.24812 514.2575 560.875 506.84375 C 573.03793 499.0994 551.78746 480.42824 550.75 468.53125 C 546.3018 456.98591 534.97848 450.62735 526.09375 442.4375 C 566.39992 437.82948 608.09791 434.43845 652 431.40625 C 687.45596 426.30528 720.74359 468.94997 751.9375 446.03125 C 770.12617 411.37437 731.6712 380.40846 701.15625 373 C 656.11603 370.45556 614.41077 390.54371 570 394.34375 C 494.62513 408.41011 418.27623 417.77798 343.25 433.09375 C 335.97478 435.00999 328.68229 436.92583 321.40625 438.84375 C 321.29575 436.2424 321.23143 433.64069 321.4375 431.15625 C 326.67326 382.59012 336.61476 334.47447 341.9375 285.90625 C 342.8695 240.97225 346.21678 195.98074 344.71875 151.0625 C 332.20392 126.58514 310.03326 118.68897 284.71875 118.625 z M 556.8125 165.1875 C 555.00979 165.19578 553.20658 165.20569 551.4375 165.21875 C 500.44253 178.30721 452.74461 204.08823 402.84375 221.6875 C 387.19942 226.79714 370.16145 229.88255 357.09375 240.0625 C 348.48596 246.7681 354.61302 252.28488 363.8125 255.15625 C 377.41938 259.40325 393.70948 260.93715 407.5625 257.875 C 440.22783 250.65445 471.40492 236.08035 504.53125 229.59375 C 528.01057 224.99615 552.92447 222.68039 574.71875 214.5625 C 593.72992 206.50036 599.44226 192.9416 590.03125 175.4375 C 582.45694 165.75799 569.43148 165.12951 556.8125 165.1875 z M 583.21875 279.1875 C 506.64431 286.51821 428.37468 313.6776 353.3125 333.3125 C 348.8931 334.49898 342.17847 334.00874 340.09375 337 C 337.76969 340.33466 337.12825 348.65422 340.09375 352.28125 C 348.08271 362.05233 364.44874 359.19127 377.375 359.125 C 439.71912 352.37545 501.02289 337.14839 562.40625 324.46875 C 578.99858 319.59111 595.70445 313.32599 594.78125 294.03125 C 592.28809 288.53402 588.56967 281.10764 583.21875 279.1875 z M 202.46875 552.53125 C 200.20257 552.56215 197.89998 552.69778 195.5625 552.9375 C 187.82553 554.38649 175.48437 560.72873 175.15625 568.21875 C 174.18416 590.40843 178.57916 618.05813 178.96875 643.03125 C 179.86167 700.27278 176.50037 758.23744 180.25 814.78125 C 180.72047 822.32834 182.54473 828.39768 185.5 833.15625 C 163.97551 840.78608 142.40386 848.27174 120.75 855.59375 C 116.5706 876.75559 115.91362 899.69835 129.46875 917.84375 C 136.0011 935.43668 161.35535 943.36438 175.21875 932 C 198.54039 906.72385 226.26557 886.24687 255.9375 869.09375 L 431.90625 760.375 C 435.49062 749.88678 437.03767 740.72873 421.96875 743.625 C 366.02102 765.92232 309.92397 787.65767 253.46875 808.53125 C 253.4879 808.33443 253.51449 808.13364 253.53125 807.9375 C 249.87894 736.32925 282.07534 651.82009 252.75 582.8125 C 242.69904 561.75368 224.37518 552.23252 202.46875 552.53125 z "
         transform="matrix(0.21004227,0,0,0.21004227,93.274493,615.82239)"
         id="path4147" />
    </g>
  </g>
</svg>
