<?xml version="1.0" encoding="UTF-8" standalone="no"?>
<!-- Created with Inkscape (http://www.inkscape.org/) -->

<svg
   xmlns:dc="http://purl.org/dc/elements/1.1/"
   xmlns:cc="http://creativecommons.org/ns#"
   xmlns:rdf="http://www.w3.org/1999/02/22-rdf-syntax-ns#"
   xmlns:svg="http://www.w3.org/2000/svg"
   xmlns="http://www.w3.org/2000/svg"
   xmlns:sodipodi="http://sodipodi.sourceforge.net/DTD/sodipodi-0.dtd"
   xmlns:inkscape="http://www.inkscape.org/namespaces/inkscape"
   width="1000"
   height="1000"
   id="svg3173"
   version="1.1"
   inkscape:version="0.47 r22583"
   sodipodi:docname="958b.svg"
   inkscape:export-filename="E:\chinese\yan\958b.png"
   inkscape:export-xdpi="18.005705"
   inkscape:export-ydpi="18.005705">
  <title
     id="title5267">Kai</title>
  <defs
     id="defs3175">
    <inkscape:perspective
       sodipodi:type="inkscape:persp3d"
       inkscape:vp_x="0 : 526.18109 : 1"
       inkscape:vp_y="0 : 1000 : 0"
       inkscape:vp_z="744.09448 : 526.18109 : 1"
       inkscape:persp3d-origin="372.04724 : 350.78739 : 1"
       id="perspective3181" />
    <inkscape:perspective
       id="perspective3191"
       inkscape:persp3d-origin="0.5 : 0.33333333 : 1"
       inkscape:vp_z="1 : 0.5 : 1"
       inkscape:vp_y="0 : 1000 : 0"
       inkscape:vp_x="0 : 0.5 : 1"
       sodipodi:type="inkscape:persp3d" />
    <inkscape:perspective
       id="perspective4006"
       inkscape:persp3d-origin="0.5 : 0.33333333 : 1"
       inkscape:vp_z="1 : 0.5 : 1"
       inkscape:vp_y="0 : 1000 : 0"
       inkscape:vp_x="0 : 0.5 : 1"
       sodipodi:type="inkscape:persp3d" />
    <inkscape:perspective
       id="perspective4034"
       inkscape:persp3d-origin="0.5 : 0.33333333 : 1"
       inkscape:vp_z="1 : 0.5 : 1"
       inkscape:vp_y="0 : 1000 : 0"
       inkscape:vp_x="0 : 0.5 : 1"
       sodipodi:type="inkscape:persp3d" />
    <inkscape:perspective
       id="perspective4081"
       inkscape:persp3d-origin="0.5 : 0.33333333 : 1"
       inkscape:vp_z="1 : 0.5 : 1"
       inkscape:vp_y="0 : 1000 : 0"
       inkscape:vp_x="0 : 0.5 : 1"
       sodipodi:type="inkscape:persp3d" />
    <inkscape:perspective
       id="perspective4147"
       inkscape:persp3d-origin="0.5 : 0.33333333 : 1"
       inkscape:vp_z="1 : 0.5 : 1"
       inkscape:vp_y="0 : 1000 : 0"
       inkscape:vp_x="0 : 0.5 : 1"
       sodipodi:type="inkscape:persp3d" />
    <inkscape:perspective
       id="perspective3765"
       inkscape:persp3d-origin="0.5 : 0.33333333 : 1"
       inkscape:vp_z="1 : 0.5 : 1"
       inkscape:vp_y="0 : 1000 : 0"
       inkscape:vp_x="0 : 0.5 : 1"
       sodipodi:type="inkscape:persp3d" />
    <inkscape:perspective
       id="perspective3793"
       inkscape:persp3d-origin="0.5 : 0.33333333 : 1"
       inkscape:vp_z="1 : 0.5 : 1"
       inkscape:vp_y="0 : 1000 : 0"
       inkscape:vp_x="0 : 0.5 : 1"
       sodipodi:type="inkscape:persp3d" />
    <inkscape:perspective
       id="perspective3780"
       inkscape:persp3d-origin="0.5 : 0.33333333 : 1"
       inkscape:vp_z="1 : 0.5 : 1"
       inkscape:vp_y="0 : 1000 : 0"
       inkscape:vp_x="0 : 0.5 : 1"
       sodipodi:type="inkscape:persp3d" />
    <inkscape:perspective
       id="perspective2993"
       inkscape:persp3d-origin="0.5 : 0.33333333 : 1"
       inkscape:vp_z="1 : 0.5 : 1"
       inkscape:vp_y="0 : 1000 : 0"
       inkscape:vp_x="0 : 0.5 : 1"
       sodipodi:type="inkscape:persp3d" />
    <inkscape:perspective
       id="perspective3767"
       inkscape:persp3d-origin="0.5 : 0.33333333 : 1"
       inkscape:vp_z="1 : 0.5 : 1"
       inkscape:vp_y="0 : 1000 : 0"
       inkscape:vp_x="0 : 0.5 : 1"
       sodipodi:type="inkscape:persp3d" />
    <inkscape:perspective
       id="perspective3879"
       inkscape:persp3d-origin="0.5 : 0.33333333 : 1"
       inkscape:vp_z="1 : 0.5 : 1"
       inkscape:vp_y="0 : 1000 : 0"
       inkscape:vp_x="0 : 0.5 : 1"
       sodipodi:type="inkscape:persp3d" />
    <inkscape:perspective
       id="perspective3897"
       inkscape:persp3d-origin="0.5 : 0.33333333 : 1"
       inkscape:vp_z="1 : 0.5 : 1"
       inkscape:vp_y="0 : 1000 : 0"
       inkscape:vp_x="0 : 0.5 : 1"
       sodipodi:type="inkscape:persp3d" />
    <inkscape:perspective
       id="perspective3767-1"
       inkscape:persp3d-origin="0.5 : 0.33333333 : 1"
       inkscape:vp_z="1 : 0.5 : 1"
       inkscape:vp_y="0 : 1000 : 0"
       inkscape:vp_x="0 : 0.5 : 1"
       sodipodi:type="inkscape:persp3d" />
    <inkscape:perspective
       id="perspective3822"
       inkscape:persp3d-origin="0.5 : 0.33333333 : 1"
       inkscape:vp_z="1 : 0.5 : 1"
       inkscape:vp_y="0 : 1000 : 0"
       inkscape:vp_x="0 : 0.5 : 1"
       sodipodi:type="inkscape:persp3d" />
  </defs>
  <sodipodi:namedview
     id="base"
     pagecolor="#ffffff"
     bordercolor="#666666"
     borderopacity="1.0"
     inkscape:pageopacity="0.0"
     inkscape:pageshadow="2"
     inkscape:zoom="0.49497475"
     inkscape:cx="246.1949"
     inkscape:cy="515.12255"
     inkscape:document-units="px"
     inkscape:current-layer="g7363"
     showgrid="false"
     inkscape:window-width="1440"
     inkscape:window-height="840"
     inkscape:window-x="-4"
     inkscape:window-y="-4"
     inkscape:window-maximized="1" />
  <metadata
     id="metadata3178">
    <rdf:RDF>
      <cc:Work
         rdf:about="">
        <dc:format>image/svg+xml</dc:format>
        <dc:type
           rdf:resource="http://purl.org/dc/dcmitype/StillImage" />
        <dc:title>Kai</dc:title>
        <dc:date>2010-08-10</dc:date>
        <dc:creator>
          <cc:Agent>
            <dc:title>Alex Amies</dc:title>
          </cc:Agent>
        </dc:creator>
        <dc:rights>
          <cc:Agent>
            <dc:title>@ Alex Amies 2010</dc:title>
          </cc:Agent>
        </dc:rights>
        <dc:publisher>
          <cc:Agent>
            <dc:title>chinesenotes.com</dc:title>
          </cc:Agent>
        </dc:publisher>
        <dc:source>Yan Qin Ceremonial Inscription</dc:source>
        <dc:language>Chinese 中文</dc:language>
        <dc:description>Tracing from Tang Dynasty Ceremonial Inscription by Yan Zhenqing 颜真卿 (709－785)</dc:description>
        <cc:license
           rdf:resource="http://creativecommons.org/licenses/by/3.0/" />
      </cc:Work>
      <cc:License
         rdf:about="http://creativecommons.org/licenses/by/3.0/">
        <cc:permits
           rdf:resource="http://creativecommons.org/ns#Reproduction" />
        <cc:permits
           rdf:resource="http://creativecommons.org/ns#Distribution" />
        <cc:requires
           rdf:resource="http://creativecommons.org/ns#Notice" />
        <cc:requires
           rdf:resource="http://creativecommons.org/ns#Attribution" />
        <cc:permits
           rdf:resource="http://creativecommons.org/ns#DerivativeWorks" />
      </cc:License>
    </rdf:RDF>
  </metadata>
  <g
     inkscape:label="Layer 1"
     inkscape:groupmode="layer"
     id="layer1"
     transform="translate(0,-52.362183)">
    <g
       transform="matrix(4.7513766,0,0,4.7513766,-2223.1254,31.218808)"
       id="g5443"
       style="fill:#000000;fill-opacity:1">
      <g
         transform="matrix(0.99798587,0,0,0.99798587,182.62029,-626.46558)"
         id="g7363"
         style="fill:none;fill-opacity:1">
        <g
           id="g5317"
           style="fill:#000000;fill-opacity:1">
          <path
             style="fill:#000000;fill-opacity:1;stroke:#000000;stroke-width:1px;stroke-linecap:butt;stroke-linejoin:miter;stroke-opacity:1"
             d="m 321.42857,666.29075 c -10.7054,-0.44766 -4.05434,11.819 -4.57703,18.15515 2.9541,23.2719 1.14181,46.7522 1.38321,70.13263 -0.02,21.2251 -0.54982,42.46437 -0.12244,63.68102 1.36909,7.80994 9.87277,7.45113 12.8248,0.98774 6.38783,-5.63351 -3.42866,-14.34479 -0.37494,-21.93471 0.94543,-33.42047 1.24591,-66.87854 2.61576,-100.27496 0.47963,-7.26025 3.4269,-15.16872 -0.0225,-22.03453 -3.78529,-3.39841 -6.26353,-8.03482 -11.72682,-8.71234 z"
             id="path7311" />
          <path
             id="path7313"
             transform="matrix(0.21089008,0,0,0.21089008,285.84624,632.18884)"
             d="M 361.5625 37.90625 C 353.9026 38.050328 346.1758 39.086848 339.96875 39.53125 C 314.65518 45.855445 289.06294 51.12982 263.5625 56.71875 C 243.89989 75.093014 249.6956 116.83315 280.28125 116.28125 C 299.51155 115.31568 328.64817 109.74539 319.40625 138.28125 C 319.27655 154.2445 319.0394 170.20676 318.8125 186.1875 C 300.95264 176.26469 272.28018 186.17552 255.09375 192.1875 C 250.32752 193.97876 244.09912 197.88584 243.25 202.34375 C 241.84111 209.74035 244.03724 220.90956 248.3125 227.75 C 258.86501 242.31441 276.77221 247.84312 294.03125 244.6875 C 303.27354 240.9643 311.84507 235.85692 318.28125 229.28125 C 318.00873 257.4004 318.0059 285.52206 318.75 313.5625 C 320.20561 320.25833 321.63813 326.96041 323.09375 333.65625 C 293.73199 347.71231 261.30846 362.22676 238.15625 390.3125 C 235.21861 404.68193 240.13601 425.63634 255.1875 435.6875 C 264.7981 442.1053 277.7624 445.57926 287.28125 441.125 C 314.43478 428.41871 336.96342 403.35636 356.46875 379.5625 C 374.04151 358.12612 391.4122 335.14024 403.6875 310.625 C 405.98197 306.04261 412.18345 296.39268 406.90625 294.3125 C 392.91474 288.79735 380.07126 301.94874 367.8125 307.84375 C 366.30667 309.05993 364.72208 310.25111 363.125 311.40625 C 363.1154 309.57913 363.0622 307.79742 362.96875 306.09375 C 368.94874 241.55326 375.77672 177.10138 382.09375 112.59375 C 393.59842 95.348747 406.02156 70.853742 391.78125 51.71875 C 386.86823 39.937909 374.329 37.66612 361.5625 37.90625 z "
             style="fill:#000000;stroke:#000000;stroke-width:4.74180651000000000px;stroke-linecap:butt;stroke-linejoin:miter;stroke-opacity:1;fill-opacity:1" />
          <path
             id="path7319"
             transform="matrix(0.21089008,0,0,0.21089008,285.84624,632.18884)"
             d="M 561.625 93.96875 C 555.18871 93.96875 545.27175 94.230028 543 99.03125 C 538.67391 108.17397 540.70901 123.52463 542.21875 135.78125 C 547.12775 201.026 546.6978 266.72733 547.96875 332.15625 C 550.28349 340.93696 555.94212 348.04374 563 353.78125 C 553.77739 359.59436 545.71885 366.99814 539.59375 376.78125 C 538.03763 385.49551 540.72997 398.7885 546.375 405.5625 C 552.01998 412.3365 564.77261 419.58715 573.46875 417.4375 C 606.28713 401.15513 647.96936 386.41556 666.625 353.0625 C 669.1677 347.01437 671.37556 336.92692 668.3125 332.75 C 665.16607 328.45942 654.73408 326.56886 648 327.65625 C 634.06316 330.98796 618.73072 333.68884 603.8125 337.53125 C 606.23473 305.13963 604.10104 270.02633 602.15625 236.78125 C 602.15565 236.77091 602.15685 236.76034 602.15625 236.75 C 616.89449 239.17321 634.13503 235.19833 648 232.84375 C 665.30612 226.90435 680.17221 219.72278 676.78125 198.96875 C 670.56147 183.95074 658.48873 180.90642 642.90625 185.40625 C 635.8999 187.48795 630.48697 194.38466 623.84375 198.125 C 617.01099 201.9721 607.83589 204.19439 600.25 207.125 C 597.98545 175.11064 594.7763 142.91138 588.71875 112.59375 C 587.58987 106.9437 580.86153 103.2141 575.8125 100.28125 C 571.35672 97.69303 566.80457 93.96875 561.625 93.96875 z "
             style="fill:#000000;stroke:#000000;stroke-width:4.74180651000000000px;stroke-linecap:butt;stroke-linejoin:miter;stroke-opacity:1;fill-opacity:1" />
          <path
             style="fill:#000000;fill-opacity:1;stroke:#000000;stroke-width:1px;stroke-linecap:butt;stroke-linejoin:miter;stroke-opacity:1"
             d="m 408.57143,646.6479 c 0.90817,12.65884 20.4434,6.25749 26.88305,0.90246 9.89208,2.84855 5.63856,17.75306 7.912,25.96929 3.91244,42.81485 7.56263,85.65301 11.27638,128.48539 -3.2616,5.14125 -24.24149,-6.39771 -14.20456,4.06809 10.37225,6.80749 9.57945,18.20438 11.37408,28.7102 14.34187,9.09555 18.52908,-10.11918 19.95923,-20.62204 3.36436,-15.97902 0.14325,-32.21891 -0.0994,-48.33528 -2.87719,-36.23534 -8.41675,-72.21453 -11.77526,-108.41245 0.62348,-8.77754 -4.28876,-20.72333 -14.86592,-19.36578 -12.88654,-0.84835 -24.47956,5.02498 -36.45958,8.60012 l 0,0 z"
             id="path7321" />
          <path
             id="path7323"
             transform="matrix(0.21089008,0,0,0.21089008,285.84624,632.18884)"
             d="M 602.875 436.875 C 586.20075 437.1016 570.01337 445.18733 553.875 449.5625 C 490.46064 472.86184 426.93138 495.85686 363.46875 519.03125 C 351.13716 517.83522 335.88454 508.94598 326.21875 515.65625 C 320.14521 519.87266 312.52179 531.58375 316.0625 537.65625 C 327.09725 556.58137 359.4658 561.30588 384.0625 559.75 C 393.03265 556.63511 401.99818 553.50523 410.96875 550.34375 C 410.80023 552.90233 411.02368 555.80632 411.71875 559.15625 C 412.17555 581.71263 413.02108 605.72593 413.1875 630.21875 C 397.94173 633.4974 382.69093 636.8304 367.5 640.28125 C 336.14826 652.54342 305.22674 666.54129 272.03125 673.15625 C 271.99806 713.37976 314.55297 727.67829 340.3125 696.71875 C 360.8909 679.03012 387.27324 675.62106 412.71875 669.1875 C 411.12773 715.63969 405.14629 762.11275 387.71875 802.375 C 376.14305 824.12534 355.89287 848.7849 356.71875 869.59375 C 357.31811 884.6946 382.17251 874.14346 393.96875 867.46875 C 404.30527 861.62002 416.62891 859.10892 422.03125 846.21875 C 448.95324 785.08121 466.53893 717.94142 471.375 651.15625 C 471.37654 650.95994 471.37333 650.75896 471.375 650.5625 C 506.03701 639.82522 541.00916 630.16532 577.5 628.4375 C 577.79199 628.41171 578.08293 628.37027 578.375 628.34375 C 585.71735 730.21446 593.21362 832.06723 600.5625 933.9375 C 609.7581 943.66091 612.87365 964.99296 630.28125 959.53125 C 678.67243 951.79893 649.51273 886.63402 660.8125 852.15625 C 662.51936 801.82178 668.11641 751.22365 666.96875 701.03125 C 662.22815 674.1959 657.53338 647.34971 652.875 620.5 C 668.49288 620.00842 684.04381 621.11293 699.4375 625.46875 C 732.95145 640.39368 754.99167 602.15615 728.53125 578.3125 C 707.59466 540.87597 676.39128 574.17651 646.21875 582.0625 C 641.13748 552.58592 636.0977 523.10945 631.0625 493.625 C 627.53809 487.96435 623.84371 483.77469 619.8125 480.8125 C 626.86141 478.82532 633.91464 476.87599 641 475 L 681.84375 475 C 690.39275 462.64764 683.4764 457.13823 669.875 454.25 C 653.18839 445.95961 635.58461 440.43481 617 438.78125 C 612.24283 437.35896 607.54379 436.81155 602.875 436.875 z M 577.15625 493.46875 C 566.23036 518.76192 574.77189 551.13322 574.75 577.875 C 575.18604 583.97843 575.62494 590.08418 576.0625 596.1875 C 541.35727 603.5807 506.58605 610.68356 471.84375 617.875 C 472.01322 595.58044 471.3835 573.27871 466.78125 552.90625 C 465.3078 546.38376 460.57361 539.93897 455.09375 534.71875 C 495.51316 520.42476 536.08741 506.25442 577.15625 493.46875 z "
             style="fill:#000000;stroke:#000000;stroke-width:4.74180651000000000px;stroke-linecap:butt;stroke-linejoin:miter;stroke-opacity:1;fill-opacity:1" />
        </g>
      </g>
    </g>
  </g>
</svg>
