<?xml version="1.0" encoding="UTF-8" standalone="no"?>
<!-- Created with Inkscape (http://www.inkscape.org/) -->

<svg
   xmlns:dc="http://purl.org/dc/elements/1.1/"
   xmlns:cc="http://creativecommons.org/ns#"
   xmlns:rdf="http://www.w3.org/1999/02/22-rdf-syntax-ns#"
   xmlns:svg="http://www.w3.org/2000/svg"
   xmlns="http://www.w3.org/2000/svg"
   xmlns:sodipodi="http://sodipodi.sourceforge.net/DTD/sodipodi-0.dtd"
   xmlns:inkscape="http://www.inkscape.org/namespaces/inkscape"
   width="1000"
   height="1000"
   id="svg3173"
   version="1.1"
   inkscape:version="0.47 r22583"
   sodipodi:docname="95e8.svg"
   inkscape:export-filename="E:\chinese\yan\95e8.png"
   inkscape:export-xdpi="17.908815"
   inkscape:export-ydpi="17.908815">
  <title
     id="title2842">Gate Radical</title>
  <defs
     id="defs3175">
    <inkscape:perspective
       sodipodi:type="inkscape:persp3d"
       inkscape:vp_x="0 : 526.18109 : 1"
       inkscape:vp_y="0 : 1000 : 0"
       inkscape:vp_z="744.09448 : 526.18109 : 1"
       inkscape:persp3d-origin="372.04724 : 350.78739 : 1"
       id="perspective3181" />
    <inkscape:perspective
       id="perspective3191"
       inkscape:persp3d-origin="0.5 : 0.33333333 : 1"
       inkscape:vp_z="1 : 0.5 : 1"
       inkscape:vp_y="0 : 1000 : 0"
       inkscape:vp_x="0 : 0.5 : 1"
       sodipodi:type="inkscape:persp3d" />
    <inkscape:perspective
       id="perspective4006"
       inkscape:persp3d-origin="0.5 : 0.33333333 : 1"
       inkscape:vp_z="1 : 0.5 : 1"
       inkscape:vp_y="0 : 1000 : 0"
       inkscape:vp_x="0 : 0.5 : 1"
       sodipodi:type="inkscape:persp3d" />
    <inkscape:perspective
       id="perspective4034"
       inkscape:persp3d-origin="0.5 : 0.33333333 : 1"
       inkscape:vp_z="1 : 0.5 : 1"
       inkscape:vp_y="0 : 1000 : 0"
       inkscape:vp_x="0 : 0.5 : 1"
       sodipodi:type="inkscape:persp3d" />
    <inkscape:perspective
       id="perspective4081"
       inkscape:persp3d-origin="0.5 : 0.33333333 : 1"
       inkscape:vp_z="1 : 0.5 : 1"
       inkscape:vp_y="0 : 1000 : 0"
       inkscape:vp_x="0 : 0.5 : 1"
       sodipodi:type="inkscape:persp3d" />
    <inkscape:perspective
       id="perspective4147"
       inkscape:persp3d-origin="0.5 : 0.33333333 : 1"
       inkscape:vp_z="1 : 0.5 : 1"
       inkscape:vp_y="0 : 1000 : 0"
       inkscape:vp_x="0 : 0.5 : 1"
       sodipodi:type="inkscape:persp3d" />
    <inkscape:perspective
       id="perspective3858"
       inkscape:persp3d-origin="0.5 : 0.33333333 : 1"
       inkscape:vp_z="1 : 0.5 : 1"
       inkscape:vp_y="0 : 1000 : 0"
       inkscape:vp_x="0 : 0.5 : 1"
       sodipodi:type="inkscape:persp3d" />
    <inkscape:perspective
       id="perspective3876"
       inkscape:persp3d-origin="0.5 : 0.33333333 : 1"
       inkscape:vp_z="1 : 0.5 : 1"
       inkscape:vp_y="0 : 1000 : 0"
       inkscape:vp_x="0 : 0.5 : 1"
       sodipodi:type="inkscape:persp3d" />
    <inkscape:perspective
       id="perspective3901"
       inkscape:persp3d-origin="0.5 : 0.33333333 : 1"
       inkscape:vp_z="1 : 0.5 : 1"
       inkscape:vp_y="0 : 1000 : 0"
       inkscape:vp_x="0 : 0.5 : 1"
       sodipodi:type="inkscape:persp3d" />
    <inkscape:perspective
       id="perspective5282"
       inkscape:persp3d-origin="0.5 : 0.33333333 : 1"
       inkscape:vp_z="1 : 0.5 : 1"
       inkscape:vp_y="0 : 1000 : 0"
       inkscape:vp_x="0 : 0.5 : 1"
       sodipodi:type="inkscape:persp3d" />
    <inkscape:perspective
       id="perspective6657"
       inkscape:persp3d-origin="0.5 : 0.33333333 : 1"
       inkscape:vp_z="1 : 0.5 : 1"
       inkscape:vp_y="0 : 1000 : 0"
       inkscape:vp_x="0 : 0.5 : 1"
       sodipodi:type="inkscape:persp3d" />
    <inkscape:perspective
       id="perspective7221"
       inkscape:persp3d-origin="0.5 : 0.33333333 : 1"
       inkscape:vp_z="1 : 0.5 : 1"
       inkscape:vp_y="0 : 1000 : 0"
       inkscape:vp_x="0 : 0.5 : 1"
       sodipodi:type="inkscape:persp3d" />
    <inkscape:perspective
       id="perspective3026"
       inkscape:persp3d-origin="0.5 : 0.33333333 : 1"
       inkscape:vp_z="1 : 0.5 : 1"
       inkscape:vp_y="0 : 1000 : 0"
       inkscape:vp_x="0 : 0.5 : 1"
       sodipodi:type="inkscape:persp3d" />
    <inkscape:perspective
       id="perspective3843"
       inkscape:persp3d-origin="0.5 : 0.33333333 : 1"
       inkscape:vp_z="1 : 0.5 : 1"
       inkscape:vp_y="0 : 1000 : 0"
       inkscape:vp_x="0 : 0.5 : 1"
       sodipodi:type="inkscape:persp3d" />
    <inkscape:perspective
       id="perspective3794"
       inkscape:persp3d-origin="0.5 : 0.33333333 : 1"
       inkscape:vp_z="1 : 0.5 : 1"
       inkscape:vp_y="0 : 1000 : 0"
       inkscape:vp_x="0 : 0.5 : 1"
       sodipodi:type="inkscape:persp3d" />
    <inkscape:perspective
       id="perspective3814"
       inkscape:persp3d-origin="0.5 : 0.33333333 : 1"
       inkscape:vp_z="1 : 0.5 : 1"
       inkscape:vp_y="0 : 1000 : 0"
       inkscape:vp_x="0 : 0.5 : 1"
       sodipodi:type="inkscape:persp3d" />
    <inkscape:perspective
       id="perspective3821"
       inkscape:persp3d-origin="0.5 : 0.33333333 : 1"
       inkscape:vp_z="1 : 0.5 : 1"
       inkscape:vp_y="0 : 1000 : 0"
       inkscape:vp_x="0 : 0.5 : 1"
       sodipodi:type="inkscape:persp3d" />
  </defs>
  <sodipodi:namedview
     id="base"
     pagecolor="#ffffff"
     bordercolor="#666666"
     borderopacity="1.0"
     inkscape:pageopacity="0.0"
     inkscape:pageshadow="2"
     inkscape:zoom="0.49497475"
     inkscape:cx="417.30324"
     inkscape:cy="525.83214"
     inkscape:document-units="px"
     inkscape:current-layer="g3771"
     showgrid="false"
     inkscape:window-width="1440"
     inkscape:window-height="840"
     inkscape:window-x="-4"
     inkscape:window-y="-4"
     inkscape:window-maximized="1" />
  <metadata
     id="metadata3178">
    <rdf:RDF>
      <cc:Work
         rdf:about="">
        <dc:format>image/svg+xml</dc:format>
        <dc:type
           rdf:resource="http://purl.org/dc/dcmitype/StillImage" />
        <dc:title>Gate Radical</dc:title>
        <dc:date>2010-07-21</dc:date>
        <dc:creator>
          <cc:Agent>
            <dc:title>Alex Amies</dc:title>
          </cc:Agent>
        </dc:creator>
        <dc:rights>
          <cc:Agent>
            <dc:title>Copyright Alex Amies 2010</dc:title>
          </cc:Agent>
        </dc:rights>
        <dc:publisher>
          <cc:Agent>
            <dc:title>chinesenotes.com</dc:title>
          </cc:Agent>
        </dc:publisher>
        <dc:source>Yan Qin Ceremonial Inscription</dc:source>
        <dc:language>Chinese 中文</dc:language>
        <dc:description>Tracing from Tang Dynasty Ceremonial Inscription by Yan Zhenqing 颜真卿 (709－785)</dc:description>
        <cc:license
           rdf:resource="http://creativecommons.org/licenses/by/3.0/" />
      </cc:Work>
      <cc:License
         rdf:about="http://creativecommons.org/licenses/by/3.0/">
        <cc:permits
           rdf:resource="http://creativecommons.org/ns#Reproduction" />
        <cc:permits
           rdf:resource="http://creativecommons.org/ns#Distribution" />
        <cc:requires
           rdf:resource="http://creativecommons.org/ns#Notice" />
        <cc:requires
           rdf:resource="http://creativecommons.org/ns#Attribution" />
        <cc:permits
           rdf:resource="http://creativecommons.org/ns#DerivativeWorks" />
      </cc:License>
    </rdf:RDF>
  </metadata>
  <g
     inkscape:label="Layer 1"
     inkscape:groupmode="layer"
     id="layer1"
     transform="translate(0,-52.362183)">
    <g
       transform="matrix(4.7418067,0,0,4.7418067,-2414.6579,-998.95331)"
       id="g3771"
       style="fill:#000000;fill-opacity:1">
      <path
         sodipodi:nodetypes="ccccccccccc"
         id="path4886"
         d="m 533.74944,260.03457 c 0.666,22.30045 4.88044,45.00601 2.8337,67.34382 -2.02419,26.27902 -3.76432,52.58745 -5.58036,78.87564 -2.81387,8.53916 5.55134,9.69192 12.46821,9.80661 5.02677,-2.27516 5.86465,-12.9794 5.88044,-17.958 0.0625,-12.87586 0.51554,-25.73886 1.28337,-38.59149 1.17152,-18.65957 1.09201,-37.36318 1.50079,-56.048 -0.026,-6.64676 -0.57295,-13.37123 -0.21409,-19.97071 1.0726,-2.63849 2.61314,-5.1998 3.40322,-7.88489 -1.12515,-8.54404 -6.05624,-14.43438 -13.53882,-18.95965 -3.43357,-1.08659 -8.05843,-1.51689 -8.03646,3.38667 z"
         style="fill:#000000;fill-opacity:1;stroke:#000000;stroke-width:1px;stroke-linecap:butt;stroke-linejoin:miter;stroke-opacity:1" />
      <path
         sodipodi:nodetypes="cccccccccsccccc"
         id="path4888"
         d="m 552.5,236.6479 c 0.12159,2.14055 -0.63176,4.70301 1.31617,6.19834 3.49355,5.42199 8.78069,2.99056 13.60813,0.32907 2.954,-1.11136 6.00777,-1.95442 9.00427,-2.95598 2.60769,3.0847 0.60651,7.18185 0.68595,10.77877 -0.71698,14.55033 -1.96274,29.24294 -1.29259,43.8291 1.35678,6.10163 2.67411,6.07094 8.46404,5.74927 2.79669,-4.46003 4.8044,-10.05741 5.41748,-15.32346 0.22408,-11.33443 0.34947,-22.68021 0.75176,-34.00842 1.16511,-5.97779 1.84931,-10.18823 1.95447,-16.23552 0.0255,-1.46856 -3.88182,-4.14393 -5.99073,-6.21831 -8.88609,0.55891 -14.33625,2.98994 -23.20441,5.71428 -3.01301,0.46077 -6.27819,0.0976 -9.13659,1.09107 -0.5259,0.35059 -1.05179,0.70119 -1.57769,1.05179 l -2.6e-4,0 z"
         style="fill:#000000;fill-opacity:1;stroke:#000000;stroke-width:1px;stroke-linecap:butt;stroke-linejoin:miter;stroke-opacity:1" />
      <path
         sodipodi:nodetypes="cccccc"
         id="path4890"
         d="m 557.85714,262.36219 c 5.715,12.20404 8.99677,7.78489 21.05173,9.65349 1.5814,-1.85134 2.12494,-4.31829 3.53991,-6.27591 0.1263,-3.00527 -0.95731,-5.82959 -4.1688,-5.87137 -4.26164,0.0717 -8.63222,0.19365 -12.73204,-1.16437 -4.16372,-1.45279 -6.39668,-0.75789 -7.6908,3.65816 z"
         style="fill:#000000;fill-opacity:1;stroke:#000000;stroke-width:1px;stroke-linecap:butt;stroke-linejoin:miter;stroke-opacity:1" />
      <path
         id="path4892"
         d="m 631.07143,229.50504 c -1.4107,1.56901 -3.82545,2.55475 -4.00403,4.89583 -0.65061,2.99962 -2.032,5.93795 -1.62122,9.06103 0.58417,14.52217 0.16286,29.05589 -0.089,43.57983 0,2.84492 0,5.68983 0,8.53474 3.70891,1.6946 7.70807,2.59133 11.57208,3.84493 1.51218,-2.21334 2.36338,-5.25361 1.81605,-8.0442 -0.89659,-12.18092 -0.57615,-24.40525 -0.04,-36.59434 -2.9e-4,-4.94346 0.7697,-9.8296 1.22167,-14.73606 -1.02056,-2.33264 -2.33222,-4.7903 -3.84986,-6.87092 -1.66856,-1.22361 -3.33712,-2.44723 -5.00568,-3.67084 z"
         style="fill:#000000;fill-opacity:1;stroke:#000000;stroke-width:1px;stroke-linecap:butt;stroke-linejoin:miter;stroke-opacity:1" />
      <path
         id="path4894"
         d="m 633.92857,233.07647 c -5.2123,7.71681 5.69182,11.79243 11.80422,8.72375 7.62725,-0.78287 15.21379,-2.07024 22.03779,-5.74663 6.25192,0.57885 6.31379,10.732 5.949,16.00632 -1.71275,47.74226 -3.74267,95.49385 -4.88215,143.25703 -0.42576,12.07705 -15.66627,-3.24591 -17.54613,1.92618 2.27145,5.47029 8.37705,8.67687 10.09527,14.74359 2.30102,7.34632 5.46943,15.19642 13.30752,18.0965 7.26939,-0.59313 7.42889,-9.05383 10.74604,-13.99816 3.04129,-8.15863 3.43641,-17.05359 5.11834,-25.56286 3.3728,-28.99489 3.78859,-58.24588 3.97158,-87.4105 -0.79367,-21.43381 -0.32323,-42.90872 -1.67289,-64.32093 -2.28623,-5.16807 -6.15603,-12.83452 -13.10755,-13.02907 -8.05222,0.36182 -16.06979,1.91761 -23.94161,3.6244 -6.63337,2.93721 -14.31304,0.66747 -20.77849,2.90401 -0.36698,0.26211 -0.73395,0.52427 -1.10094,0.78637 z"
         style="fill:#000000;fill-opacity:1;stroke:#000000;stroke-width:1px;stroke-linecap:butt;stroke-linejoin:miter;stroke-opacity:1"
         sodipodi:nodetypes="cccccccccccccccc" />
      <path
         sodipodi:nodetypes="ccccccc"
         id="path4896"
         d="m 637.14285,254.86219 c -2.13938,3.73401 -2.41186,6.64433 -1.78571,10.71428 3.33115,2.16018 5.96354,2.01433 9.7024,1.39582 4.90257,-2.69294 10.52836,-2.87332 15.33256,-5.7398 1.61983,-2.58449 1.2042,-6.86247 -3.01079,-7.73025 -6.31069,-1.20415 -12.43235,0.59562 -19.25272,1.16237 -0.32857,0.0659 -0.65736,0.13104 -0.98574,0.19758 z"
         style="fill:#000000;fill-opacity:1;stroke:#000000;stroke-width:1px;stroke-linecap:butt;stroke-linejoin:miter;stroke-opacity:1" />
      <path
         sodipodi:nodetypes="cccc"
         id="path4898"
         d="m 635.35714,290.21933 c -2.71799,7.72314 3.1788,10.47814 10.35714,10.35714 5.14036,-5.81775 12.51474,-8.29886 17.14286,-14.64285 -7.50494,-3.38299 -19.48506,2.02522 -27.5,4.28571 z"
         style="fill:#000000;fill-opacity:1;stroke:#000000;stroke-width:1px;stroke-linecap:butt;stroke-linejoin:miter;stroke-opacity:1" />
      <path
         sodipodi:nodetypes="cccccc"
         id="path4900"
         d="m 558.21428,302.00504 c -3.13536,5.96638 3.96714,10.72993 7.51198,15.22475 3.05843,2.33861 6.88219,-0.066 9.44171,-2.03115 12.92075,-15.29314 28.41375,-20.53723 37.76043,-44.54439 -16.31505,9.40145 -21.18001,19.7201 -42.28768,28.21649 -4.16797,0.92796 -8.44543,1.52092 -12.42644,3.1343 z"
         style="fill:#000000;fill-opacity:1;stroke:#000000;stroke-width:1px;stroke-linecap:butt;stroke-linejoin:miter;stroke-opacity:1" />
    </g>
  </g>
</svg>
