<?xml version="1.0" encoding="UTF-8" standalone="no"?>
<!-- Created with Inkscape (http://www.inkscape.org/) -->

<svg
   xmlns:dc="http://purl.org/dc/elements/1.1/"
   xmlns:cc="http://creativecommons.org/ns#"
   xmlns:rdf="http://www.w3.org/1999/02/22-rdf-syntax-ns#"
   xmlns:svg="http://www.w3.org/2000/svg"
   xmlns="http://www.w3.org/2000/svg"
   xmlns:sodipodi="http://sodipodi.sourceforge.net/DTD/sodipodi-0.dtd"
   xmlns:inkscape="http://www.inkscape.org/namespaces/inkscape"
   width="1000"
   height="1000"
   id="svg3173"
   version="1.1"
   inkscape:version="0.47 r22583"
   sodipodi:docname="9675.svg"
   inkscape:export-filename="E:\chinese\yan\9675.png"
   inkscape:export-xdpi="18.005705"
   inkscape:export-ydpi="18.005705">
  <title
     id="title2821">Ling</title>
  <defs
     id="defs3175">
    <inkscape:perspective
       sodipodi:type="inkscape:persp3d"
       inkscape:vp_x="0 : 526.18109 : 1"
       inkscape:vp_y="0 : 1000 : 0"
       inkscape:vp_z="744.09448 : 526.18109 : 1"
       inkscape:persp3d-origin="372.04724 : 350.78739 : 1"
       id="perspective3181" />
    <inkscape:perspective
       id="perspective3191"
       inkscape:persp3d-origin="0.5 : 0.33333333 : 1"
       inkscape:vp_z="1 : 0.5 : 1"
       inkscape:vp_y="0 : 1000 : 0"
       inkscape:vp_x="0 : 0.5 : 1"
       sodipodi:type="inkscape:persp3d" />
    <inkscape:perspective
       id="perspective4006"
       inkscape:persp3d-origin="0.5 : 0.33333333 : 1"
       inkscape:vp_z="1 : 0.5 : 1"
       inkscape:vp_y="0 : 1000 : 0"
       inkscape:vp_x="0 : 0.5 : 1"
       sodipodi:type="inkscape:persp3d" />
    <inkscape:perspective
       id="perspective4034"
       inkscape:persp3d-origin="0.5 : 0.33333333 : 1"
       inkscape:vp_z="1 : 0.5 : 1"
       inkscape:vp_y="0 : 1000 : 0"
       inkscape:vp_x="0 : 0.5 : 1"
       sodipodi:type="inkscape:persp3d" />
    <inkscape:perspective
       id="perspective4081"
       inkscape:persp3d-origin="0.5 : 0.33333333 : 1"
       inkscape:vp_z="1 : 0.5 : 1"
       inkscape:vp_y="0 : 1000 : 0"
       inkscape:vp_x="0 : 0.5 : 1"
       sodipodi:type="inkscape:persp3d" />
    <inkscape:perspective
       id="perspective4147"
       inkscape:persp3d-origin="0.5 : 0.33333333 : 1"
       inkscape:vp_z="1 : 0.5 : 1"
       inkscape:vp_y="0 : 1000 : 0"
       inkscape:vp_x="0 : 0.5 : 1"
       sodipodi:type="inkscape:persp3d" />
    <inkscape:perspective
       id="perspective3737"
       inkscape:persp3d-origin="0.5 : 0.33333333 : 1"
       inkscape:vp_z="1 : 0.5 : 1"
       inkscape:vp_y="0 : 1000 : 0"
       inkscape:vp_x="0 : 0.5 : 1"
       sodipodi:type="inkscape:persp3d" />
  </defs>
  <sodipodi:namedview
     id="base"
     pagecolor="#ffffff"
     bordercolor="#666666"
     borderopacity="1.0"
     inkscape:pageopacity="0.0"
     inkscape:pageshadow="2"
     inkscape:zoom="0.49497475"
     inkscape:cx="571.68151"
     inkscape:cy="510.59173"
     inkscape:document-units="px"
     inkscape:current-layer="layer1"
     showgrid="false"
     inkscape:window-width="1440"
     inkscape:window-height="840"
     inkscape:window-x="-4"
     inkscape:window-y="-4"
     inkscape:window-maximized="1" />
  <metadata
     id="metadata3178">
    <rdf:RDF>
      <cc:Work
         rdf:about="">
        <dc:format>image/svg+xml</dc:format>
        <dc:type
           rdf:resource="http://purl.org/dc/dcmitype/StillImage" />
        <dc:title>Ling</dc:title>
        <dc:date>2010-07-21</dc:date>
        <dc:creator>
          <cc:Agent>
            <dc:title>Alex Amies</dc:title>
          </cc:Agent>
        </dc:creator>
        <dc:rights>
          <cc:Agent>
            <dc:title>@ Alex Amies 2010</dc:title>
          </cc:Agent>
        </dc:rights>
        <dc:publisher>
          <cc:Agent>
            <dc:title>chinesenotes.com</dc:title>
          </cc:Agent>
        </dc:publisher>
        <dc:source>Yan Qin Ceremonial Inscription</dc:source>
        <dc:language>Chinese 中文</dc:language>
        <dc:description>Tracing from Tang Dynasty Ceremonial Inscription by Yan Zhenqing 颜真卿 (709－785)</dc:description>
        <cc:license
           rdf:resource="http://creativecommons.org/licenses/by/3.0/" />
      </cc:Work>
      <cc:License
         rdf:about="http://creativecommons.org/licenses/by/3.0/">
        <cc:permits
           rdf:resource="http://creativecommons.org/ns#Reproduction" />
        <cc:permits
           rdf:resource="http://creativecommons.org/ns#Distribution" />
        <cc:requires
           rdf:resource="http://creativecommons.org/ns#Notice" />
        <cc:requires
           rdf:resource="http://creativecommons.org/ns#Attribution" />
        <cc:permits
           rdf:resource="http://creativecommons.org/ns#DerivativeWorks" />
      </cc:License>
    </rdf:RDF>
  </metadata>
  <g
     inkscape:label="Layer 1"
     inkscape:groupmode="layer"
     id="layer1"
     transform="translate(0,-52.362183)">
    <path
       style="fill:#000000;stroke:#000000;stroke-width:4.76094626999999980px;stroke-linecap:butt;stroke-linejoin:miter;stroke-opacity:1;fill-opacity:1"
       d="M 594.8125 47.75 C 586.2299 47.939588 576.91014 50.987511 566.25 56.90625 C 569.34091 83.251387 570.2792 109.67348 570.28125 136.125 C 539.2562 145.70113 507.41678 151.70967 475.09375 157.875 L 448.9375 174.25 C 448.10843 187.93801 454.48187 201.61094 466.28125 208.875 C 477.31503 216.82031 492.68414 214.26273 503.84375 207.90625 C 524.83852 195.72595 546.97151 186.48063 569.65625 178.65625 C 568.92944 208.48468 567.89396 238.31398 568.21875 268.09375 C 520.77314 279.5621 473.31901 291.04535 425.78125 301.9375 L 399.625 303.46875 C 394.0635 317.39519 391.70204 340.54781 408.40625 346.96875 C 422.30083 357.0133 440.02231 350.84071 454.6875 346.03125 C 466.38836 342.3759 478.07054 338.63835 489.75 334.90625 C 487.36229 342.17439 486.87329 350.03384 486.90625 358.125 C 485.38151 390.91501 480.91396 421.2304 453.34375 441.71875 C 412.62061 466.32137 366.96292 487.00377 321.0625 500.4375 C 320.59037 500.51838 320.14864 500.6013 319.71875 500.6875 C 303.18483 504.00278 317.41467 511.22944 326.5 519.40625 C 350.69732 518.2192 374.61315 514.5817 398.40625 509.96875 C 394.19151 519.10095 392.95198 531.13359 391.5 544.625 C 403.84058 582.9609 422.35923 618.60454 443.8125 652.59375 C 395.06117 709.42798 336.80455 759.40041 285.09375 812.28125 C 297.98225 824.38853 318.51486 826.10476 334.21875 818.59375 C 385.50387 783.03296 430.78848 741.01744 473.25 696.125 C 486.83239 715.09566 500.94471 733.65761 514.96875 752 C 525.32028 762.38182 535.6791 772.76541 546.125 783.0625 C 539.40248 792.86371 532.67983 802.66997 526.0625 812.5 C 489.03034 858.69923 440.52739 888.22951 391.125 918.96875 C 394.31912 939.93543 418.63636 926.91863 432.90625 929.6875 C 480.12003 919.82296 527.61623 882.35983 560.25 847.65625 C 568.3211 838.58186 576.51481 829.45107 584.71875 820.25 C 620.42784 853.80462 657.52762 885.80272 697.71875 914.0625 C 716.64209 922.28761 735.08081 935.09843 756.125 935.375 C 787.85185 928.39278 820.00375 922.55079 851.46875 914.875 C 864.62967 907.98215 875.58664 900.88973 897.5625 895.1875 C 920.88314 891.78685 934.00468 893.46875 955.625 893.46875 C 957.86007 883.61845 958.8702 874.67615 945.96875 875.8125 C 902.875 866.66577 859.52802 858.32894 816.59375 848.6875 C 744.71508 823.40769 693.20417 794.26204 640.8125 754.9375 C 682.7105 703.10536 719.44866 647.34568 737.5625 583.59375 C 742.91467 563.7128 734.79965 541.57363 716.34375 531.8125 C 696.99141 527.45129 677.96736 539.22574 658.40625 539.78125 C 645.30084 540.93454 632.1073 540.75058 618.96875 541.5 C 602.08553 559.16907 634.96736 562.1222 644.1875 572.4375 C 663.19153 582.33065 657.52831 607.3032 647.8125 621.84375 C 631.15856 654.18633 611.94885 685.23722 591.8125 715.75 C 586.69399 711.45022 581.51463 707.04652 576.25 702.53125 C 557.32339 682.86774 539.67592 662.32762 523.125 641 C 543.9857 617.11851 564.47288 592.88088 584.96875 568.71875 C 592.13126 550.99765 590.10026 530.79607 573.625 519.03125 C 562.31228 503.56736 541.4035 502.30413 523.75 502.40625 C 521.0255 519.25562 520.14433 536.68755 512.34375 552.21875 C 505.2317 566.42414 497.28155 580.07123 488.6875 593.28125 C 469.01334 564.07286 450.95239 533.70768 434.0625 502.5 C 452.63268 498.41051 471.17289 494.17169 489.75 490.5 C 529.0129 469.34026 548.74276 440.71534 541.0625 394.625 C 540.5659 368.84347 526.21632 348.85739 515.875 326.59375 C 554.26483 314.38961 592.75117 302.51719 631.9375 293.0625 C 633.23724 292.60068 634.54042 292.1768 635.84375 291.75 C 624.91222 316.46005 621.86098 345.8301 623.75 372.4375 C 623.17759 402.60914 623.92341 438.75957 644.46875 456.5 C 660.30799 470.17672 688.95647 468.3987 712.03125 468.9375 C 754.54422 474.40873 796.21212 459.35197 838.3125 453.09375 C 847.1053 438.46255 842.54349 435.23094 831.5 424.1875 C 793.13253 427.54711 757.23551 421.89769 720.5 411.9375 C 697.11395 400.76037 686.36277 380.5427 673.375 359.5625 C 673.68732 342.75321 673.67575 325.86547 670.1875 309.34375 C 670.12271 297.18465 662.02355 291.93555 652.5625 287.1875 C 691.12987 278.64818 730.98611 282.59656 770.625 283.5625 C 783.67513 286.3736 797.51745 295.1209 810.875 290.125 C 825.94125 281.41452 821.7894 262.83483 822.53125 248.25 C 814.00573 231.52232 798.1642 216.0278 780.96875 210.03125 C 768.65857 209.93555 755.60303 208.21655 744.625 215.15625 C 719.4067 225.48079 695.3242 239.3533 668.21875 244.125 C 649.02702 248.64767 629.83201 253.26045 610.65625 257.875 C 611.72 225.85944 616.85756 194.26419 622.15625 162.65625 C 632.82383 159.68943 643.52178 156.80463 654.1875 153.84375 C 674.75303 153.84375 699.59514 159.23105 715.875 153.84375 C 721.86099 151.86291 723.50817 138.31314 721 131.71875 C 714.79744 115.41113 691.39189 92.13642 670.5 94.96875 C 657.79302 102.32977 643.80931 107.30281 630.0625 112.65625 C 631.96625 98.667158 633.48774 84.623666 634.28125 70.5 C 621.37926 55.04305 609.11683 47.43402 594.8125 47.75 z M 319.71875 500.6875 C 321.03715 491.16785 319.58108 481.02165 322.78125 471.90625 C 333.08803 447.4954 343.41197 423.09835 353.71875 398.6875 C 347.83365 388.09982 341.28524 377.84807 332.4375 369.46875 C 314.02916 342.39516 298.64145 313.17447 282.3125 284.75 C 280.03823 283.10485 278.08123 281.78447 276.3125 280.6875 C 282.25038 277.19405 287.73665 270.3445 292.46875 262.53125 C 310.05425 232.53234 327.6332 202.53011 345.21875 172.53125 C 359.79887 165.46615 376.74851 158.09631 383.34375 142.125 C 390.49365 118.31579 376.52041 97.4458 358.8125 89.21875 C 345.18148 82.88578 325.28756 84.22811 309.78125 91.78125 C 258.31656 110.74182 206.96446 130.10766 154.78125 147.03125 C 161.19581 146.46848 160.77528 150.60552 158.84375 156.15625 C 152.95876 149.71331 147.05914 143.27029 141.15625 136.84375 C 112.2334 157.20608 126.94456 197.9127 119.28125 227.5625 C 109.66233 351.4198 102.25253 475.5896 101.125 599.8125 C 104.07917 679.29207 107.21808 758.80623 108.03125 838.34375 C 116.70246 857.69214 135.71521 891.15337 155.15625 889.71875 C 184.57276 880.02156 180.69654 849.80767 175.1875 825.5625 C 164.53793 749.25153 165.83019 672.12026 163.8125 595.28125 C 161.6477 471.77135 168.33126 348.39622 176.09375 225.1875 C 175.52004 214.91873 177.46534 203.5142 177.5 192.78125 C 184.53022 194.18476 191.80653 194.98721 197.28125 196.34375 C 238.65283 182.4235 264.56738 143.26973 301 119.8125 C 304.3697 127.03353 304.45047 135.30406 300.625 142.3125 C 284.88341 186.38901 269.14784 230.48599 253.40625 274.5625 C 255.73167 277.39654 258.02313 279.45231 260.3125 280.84375 C 258.32503 282.61209 256.13452 285.03823 253.40625 288.15625 C 255.87038 321.5311 266.09813 353.52883 278.375 384.46875 C 283.8946 392.98708 274.9071 388.57208 269.40625 387.1875 C 257.6828 384.26975 246.10474 380.23421 234.21875 378.3125 C 211.49904 375.4099 192.42343 385.9391 171.78125 393.59375 L 176.875 407.1875 C 202.46903 415.10352 228.43819 422.44214 253.09375 432.875 C 270.19588 455.65489 284.10423 484.50809 308.46875 500.6875 L 319.71875 500.6875 z "
       transform="translate(0,52.362183)"
       id="path3719" />
  </g>
</svg>
