<?xml version="1.0" encoding="UTF-8" standalone="no"?>
<!-- Created with Inkscape (http://www.inkscape.org/) -->

<svg
   xmlns:dc="http://purl.org/dc/elements/1.1/"
   xmlns:cc="http://creativecommons.org/ns#"
   xmlns:rdf="http://www.w3.org/1999/02/22-rdf-syntax-ns#"
   xmlns:svg="http://www.w3.org/2000/svg"
   xmlns="http://www.w3.org/2000/svg"
   xmlns:sodipodi="http://sodipodi.sourceforge.net/DTD/sodipodi-0.dtd"
   xmlns:inkscape="http://www.inkscape.org/namespaces/inkscape"
   width="1000"
   height="1000"
   id="svg3173"
   version="1.1"
   inkscape:version="0.47 r22583"
   sodipodi:docname="96b7.svg"
   inkscape:export-filename="E:\chinese\yan\96b7.png"
   inkscape:export-xdpi="18.005705"
   inkscape:export-ydpi="18.005705">
  <title
     id="title3654">Li</title>
  <defs
     id="defs3175">
    <inkscape:perspective
       sodipodi:type="inkscape:persp3d"
       inkscape:vp_x="0 : 526.18109 : 1"
       inkscape:vp_y="0 : 1000 : 0"
       inkscape:vp_z="744.09448 : 526.18109 : 1"
       inkscape:persp3d-origin="372.04724 : 350.78739 : 1"
       id="perspective3181" />
    <inkscape:perspective
       id="perspective3191"
       inkscape:persp3d-origin="0.5 : 0.33333333 : 1"
       inkscape:vp_z="1 : 0.5 : 1"
       inkscape:vp_y="0 : 1000 : 0"
       inkscape:vp_x="0 : 0.5 : 1"
       sodipodi:type="inkscape:persp3d" />
    <inkscape:perspective
       id="perspective4006"
       inkscape:persp3d-origin="0.5 : 0.33333333 : 1"
       inkscape:vp_z="1 : 0.5 : 1"
       inkscape:vp_y="0 : 1000 : 0"
       inkscape:vp_x="0 : 0.5 : 1"
       sodipodi:type="inkscape:persp3d" />
    <inkscape:perspective
       id="perspective4034"
       inkscape:persp3d-origin="0.5 : 0.33333333 : 1"
       inkscape:vp_z="1 : 0.5 : 1"
       inkscape:vp_y="0 : 1000 : 0"
       inkscape:vp_x="0 : 0.5 : 1"
       sodipodi:type="inkscape:persp3d" />
    <inkscape:perspective
       id="perspective4081"
       inkscape:persp3d-origin="0.5 : 0.33333333 : 1"
       inkscape:vp_z="1 : 0.5 : 1"
       inkscape:vp_y="0 : 1000 : 0"
       inkscape:vp_x="0 : 0.5 : 1"
       sodipodi:type="inkscape:persp3d" />
    <inkscape:perspective
       id="perspective4147"
       inkscape:persp3d-origin="0.5 : 0.33333333 : 1"
       inkscape:vp_z="1 : 0.5 : 1"
       inkscape:vp_y="0 : 1000 : 0"
       inkscape:vp_x="0 : 0.5 : 1"
       sodipodi:type="inkscape:persp3d" />
    <inkscape:perspective
       id="perspective3758"
       inkscape:persp3d-origin="0.5 : 0.33333333 : 1"
       inkscape:vp_z="1 : 0.5 : 1"
       inkscape:vp_y="0 : 1000 : 0"
       inkscape:vp_x="0 : 0.5 : 1"
       sodipodi:type="inkscape:persp3d" />
    <inkscape:perspective
       id="perspective3719"
       inkscape:persp3d-origin="0.5 : 0.33333333 : 1"
       inkscape:vp_z="1 : 0.5 : 1"
       inkscape:vp_y="0 : 1000 : 0"
       inkscape:vp_x="0 : 0.5 : 1"
       sodipodi:type="inkscape:persp3d" />
    <inkscape:perspective
       id="perspective3803"
       inkscape:persp3d-origin="0.5 : 0.33333333 : 1"
       inkscape:vp_z="1 : 0.5 : 1"
       inkscape:vp_y="0 : 1000 : 0"
       inkscape:vp_x="0 : 0.5 : 1"
       sodipodi:type="inkscape:persp3d" />
    <inkscape:perspective
       id="perspective3746"
       inkscape:persp3d-origin="0.5 : 0.33333333 : 1"
       inkscape:vp_z="1 : 0.5 : 1"
       inkscape:vp_y="0 : 1000 : 0"
       inkscape:vp_x="0 : 0.5 : 1"
       sodipodi:type="inkscape:persp3d" />
    <inkscape:perspective
       id="perspective3794"
       inkscape:persp3d-origin="0.5 : 0.33333333 : 1"
       inkscape:vp_z="1 : 0.5 : 1"
       inkscape:vp_y="0 : 1000 : 0"
       inkscape:vp_x="0 : 0.5 : 1"
       sodipodi:type="inkscape:persp3d" />
  </defs>
  <sodipodi:namedview
     id="base"
     pagecolor="#ffffff"
     bordercolor="#666666"
     borderopacity="1.0"
     inkscape:pageopacity="0.0"
     inkscape:pageshadow="2"
     inkscape:zoom="0.49497475"
     inkscape:cx="571.51329"
     inkscape:cy="512.69615"
     inkscape:document-units="px"
     inkscape:current-layer="g4143"
     showgrid="false"
     inkscape:window-width="1440"
     inkscape:window-height="840"
     inkscape:window-x="-4"
     inkscape:window-y="-4"
     inkscape:window-maximized="1" />
  <metadata
     id="metadata3178">
    <rdf:RDF>
      <cc:Work
         rdf:about="">
        <dc:format>image/svg+xml</dc:format>
        <dc:type
           rdf:resource="http://purl.org/dc/dcmitype/StillImage" />
        <dc:title>Li</dc:title>
        <dc:date>2010-08-21</dc:date>
        <dc:creator>
          <cc:Agent>
            <dc:title>Alex Amies</dc:title>
          </cc:Agent>
        </dc:creator>
        <dc:rights>
          <cc:Agent>
            <dc:title>@ Alex Amies 2010</dc:title>
          </cc:Agent>
        </dc:rights>
        <dc:publisher>
          <cc:Agent>
            <dc:title>chinesenotes.com</dc:title>
          </cc:Agent>
        </dc:publisher>
        <dc:source>Yan Qin Ceremonial Inscription</dc:source>
        <dc:language>Chinese 中文</dc:language>
        <dc:description>Tracing from Tang Dynasty Ceremonial Inscription by Yan Zhenqing 颜真卿 (709－785)</dc:description>
        <cc:license
           rdf:resource="http://creativecommons.org/licenses/by/3.0/" />
      </cc:Work>
      <cc:License
         rdf:about="http://creativecommons.org/licenses/by/3.0/">
        <cc:permits
           rdf:resource="http://creativecommons.org/ns#Reproduction" />
        <cc:permits
           rdf:resource="http://creativecommons.org/ns#Distribution" />
        <cc:requires
           rdf:resource="http://creativecommons.org/ns#Notice" />
        <cc:requires
           rdf:resource="http://creativecommons.org/ns#Attribution" />
        <cc:permits
           rdf:resource="http://creativecommons.org/ns#DerivativeWorks" />
      </cc:License>
    </rdf:RDF>
  </metadata>
  <g
     inkscape:label="Layer 1"
     inkscape:groupmode="layer"
     id="layer1"
     transform="translate(0,-52.362183)">
    <g
       transform="matrix(4.7609464,0,0,4.7609464,-1421.6669,-3910.0295)"
       id="g4143"
       style="fill:#000000;fill-opacity:1">
      <path
         style="fill:#000000;stroke:#000000;stroke-width:4.76094626999999980px;stroke-linecap:butt;stroke-linejoin:miter;stroke-opacity:1;fill-opacity:1"
         d="M 252.21875 17.28125 C 248.68821 17.396055 245.14802 17.956646 241.65625 19.09375 C 234.63961 22.972731 225.60917 28.752323 222.96875 36.09375 C 218.86977 47.490694 226.59185 62.028725 227.65625 75.03125 C 228.5316 85.724123 228.74814 96.573383 228.59375 107.5 C 196.69211 113.72275 164.84785 120.38883 133 126.65625 C 126.0803 127.90062 116.79158 126.76232 112.4375 131.3125 C 106.21599 137.814 105.97102 150.40678 107.25 160.46875 C 117.82668 179.96925 138.45449 205.95048 159.03125 216.21875 C 174.69653 221.30849 187.07129 206.68794 201.34375 202.125 C 209.1964 199.69791 217.10295 197.31543 225 194.9375 C 224.21184 219.04069 226.12507 246.48647 244.90625 261.46875 C 198.38835 269.82974 151.95572 281.75258 109.03125 297.9375 C 103.76745 300.54198 96.662998 306.49828 97.125 311.5625 C 98.00568 321.21594 106.8411 332.50571 115.78125 340.34375 C 125.1396 348.54843 131.04744 363.82897 141.34375 367.65625 C 151.84659 371.56027 167.63402 368.67467 179.4375 363.40625 C 247.49518 324.29527 333.45314 319.54376 399.8125 277.5625 C 408.08026 271.12846 422.86519 257.66077 420 249.46875 C 416.697 240.02489 401.72134 246.23153 392.75 246.09375 C 360.85539 247.06785 326.96847 249.656 292.46875 254.125 C 306.90579 237.87493 315.5934 214.95383 327.59375 197 C 333.51426 184.77373 337.5336 171.79981 340.28125 158.40625 C 375.26063 145.83454 409.40305 131.27606 441.65625 112.625 C 451.56207 106.28628 451.38646 88.806262 440.71875 84.3125 C 429.40593 79.547031 414.44066 83.430361 401.375 83.6875 C 382.78745 84.650353 364.3073 86.291947 345.875 88.4375 C 345.87318 81.43751 345.77938 74.484994 345.6875 67.65625 C 345.548 56.601618 334.62342 48.086568 325.28125 43.28125 C 302.3482 37.977526 276.93252 16.477614 252.21875 17.28125 z M 748.09375 58.46875 C 746.1473 58.509241 744.083 58.763773 741.90625 59.25 C 721.06954 63.711769 701.93467 74.030329 681.53125 80.21875 C 650.23279 91.40964 619.39754 104.63566 587.34375 113.28125 C 555.18113 116.3801 522.6847 118.26119 491.625 127.90625 C 478.19332 143.34914 482.97025 166.73708 497.15625 179.71875 C 537.48289 180.10867 588.93013 166.22663 628.125 151.21875 C 644.0169 147.23265 657.08511 131.05971 674.15625 134.78125 C 687.06418 147.6778 663.0123 166.63218 660.65625 182.15625 C 655.14 198.03011 648.2445 212.98788 640.40625 227.34375 C 639.63286 214.97158 632.87421 202.62017 625.09375 193.84375 C 617.38454 185.14769 605.80012 178.74027 595.34375 175.53125 C 588.66552 173.48171 578.1737 174.80862 573.21875 178.9375 C 567.97162 183.30986 563.6185 193.6147 564.71875 201.03125 C 567.50876 219.83756 575.09214 247.29478 595.5625 253.4375 C 603.70399 255.88061 614.90594 257.38122 624.0625 254.53125 C 615.79232 267.17066 606.90574 279.42635 597.71875 291.46875 C 576.80474 264.26886 556.17721 236.4532 532.4375 211.21875 C 526.7576 205.78365 513.77796 209.96165 506.90625 214.625 C 484.30632 229.96187 498.89129 260.10631 513.9375 279.875 C 529.22909 299.96607 543.04927 321.53361 556.75 343.28125 C 539.38391 365.22033 522.5042 387.47169 508.0625 411.34375 C 493.7091 434.88249 478.96301 459.10588 457.09375 476.5 C 438.602 483.3073 459.84841 498.35236 469 485.65625 C 492.10563 480.06185 512.60991 468.12587 527.03125 449.09375 C 547.37684 429.15731 565.81017 407.56088 583.5625 385.375 C 602.20904 413.75512 622.16672 441.02967 646.53125 464.28125 C 683.09394 499.17375 729.49264 523.1455 771.15625 551.71875 C 787.83808 563.15926 804.75149 573.43578 825.46875 571.21875 C 849.54866 568.64184 872.74862 560.66217 895 551.6875 C 912.57556 544.59878 933.66596 537.5029 943.71875 521.21875 C 956.78245 500.05734 922.84736 489.79666 907.375 482.71875 C 858.25527 460.24861 807.34529 442.11175 756.90625 422.96875 C 700.6413 404.89796 661.86691 369.44141 627.59375 328.875 C 632.58511 322.4765 637.60956 316.10204 642.6875 309.78125 C 691.85013 246.05317 735.34357 177.94437 772.25 106.40625 C 778.12678 86.903213 771.06189 57.990957 748.09375 58.46875 z M 346.5625 371.15625 C 344.59114 371.12366 342.28954 371.50981 339.65625 372.4375 C 293.33515 388.75602 242.31903 395.47346 195.625 413.53125 C 176.1036 421.08068 154.16401 424.74675 136.25 433.96875 C 130.32991 437.01637 124.31261 444.57261 124.34375 450.96875 C 124.41754 466.16412 130.36979 488.03759 145.96875 496.625 C 159.6599 504.16215 173.43744 493.94641 185.84375 488.46875 C 227.30731 470.16163 267.70958 449.44643 308.15625 429.03125 C 324.96777 420.54577 339.12267 407.67196 351.0625 392.9375 C 358.31034 383.99322 357.20784 371.33226 346.5625 371.15625 z M 596 451 C 584.38104 451.17012 574.52577 452.6875 581.71875 452.6875 C 577.57877 453.69111 566.62773 455.88081 561.34375 461.1875 C 552.14251 500.21298 563.53039 547.00855 564.5 589.90625 C 564.87448 606.47382 564.75955 623.04309 564.4375 639.59375 C 536.8166 645.00307 509.14947 650.19329 481.40625 655.03125 C 475.72092 656.07328 468.99971 654.92921 464.40625 658.4375 C 456.2587 666.8081 454.52838 677.84964 455.90625 689.03125 C 460.84902 714.74884 486.32835 719.62152 508.625 719.625 C 526.55157 717.86362 544.43149 715.68326 562.28125 713.25 C 561.94329 725.06154 561.68436 736.87155 561.5625 748.6875 C 560.96719 806.4076 568.70841 863.91717 571.40625 921.4375 C 572.29155 940.31227 572.80181 967.80654 594.53125 971.3125 C 608.18879 973.51587 622.84792 979.64773 625.84375 958.3125 C 629.88975 929.49878 633.94431 900.22533 637.21875 871.125 C 639.76665 816.56903 641.4279 759.1559 641.6875 701.4375 C 671.51428 696.87746 701.38749 692.44887 731.375 689.03125 C 739.29988 688.33848 747.28317 686.20431 755.15625 687.34375 C 766.26063 692.16202 777.03147 694.9763 789.1875 694.125 C 803.66397 688.17996 818.51766 677.11018 826.59375 663.53125 C 829.2704 654.79296 827.20274 644.52223 823.1875 636.3125 C 811.49057 618.15858 789.95699 604.37439 768.78125 600.625 C 753.56898 599.40648 739.50792 609.41253 724.5625 612.5 C 697.05327 618.18296 668.93147 620.28688 641.15625 624.5 C 641.06274 619.65797 640.92994 614.82835 640.8125 610 C 646.03545 610.77845 651.6838 606.70332 655.9375 603.65625 C 677.34981 592.835 698.88557 582.23322 719.65625 570.1875 C 731.3498 548.49034 711.94583 524.93528 697.625 509.84375 C 684.84162 500.44697 671.85742 496.90625 656.5625 496.90625 C 646.0329 519.78397 648.07353 547.38955 639.59375 570.5 C 638.46678 541.62879 636.87064 513.19546 634.71875 485.53125 C 632.09256 474.37012 627.59065 460.37374 619.15625 454.375 C 615.1693 451.53938 605.03697 450.86769 596 451 z M 368.53125 476.28125 C 363.31098 476.39896 358.08691 477.85059 353.65625 480.71875 C 264.10061 514.48957 176.30004 552.70914 86.9375 587 C 79.602786 598.51097 72.165639 619.60159 90.65625 624.71875 C 103.00843 633.74788 118.82323 630.68235 131.84375 625.03125 C 150.51271 615.74255 169.30807 606.59911 188.40625 598.15625 C 184.87013 619.68366 189.15127 644.79604 188.46875 667.40625 C 187.09512 712.91 189.26284 758.65501 182.84375 803.875 C 179.36721 828.36578 173.54676 856.56266 180.46875 877.78125 C 184.37473 889.75455 202.9542 907.68597 219.28125 896.21875 C 243.16616 882.1392 263.41405 859.48713 272.3125 832.8125 C 276.88815 758.29169 291.53035 684.65269 292.59375 609.84375 C 288.2542 594.75924 276.64762 580.31767 262.8125 570.28125 C 301.64616 557.11119 340.45723 543.84042 379.03125 530 C 391.7406 524.03149 401.65149 507.95618 394.625 494.3125 C 391.50549 482.26096 380.01584 476.02229 368.53125 476.28125 z M 471.6875 534.28125 C 469.26249 534.27929 466.83331 534.3125 464.40625 534.3125 C 463.52381 544.9067 470.54115 553.80571 477.3125 561.125 C 491.16643 573.6221 485.73069 593.62702 492.65625 609.6875 C 505.86869 624.70391 530.46916 623.33741 548.4375 619.65625 C 558.69386 615.32931 563.95275 603.60276 562.8125 592.90625 C 562.2568 583.97167 557.86884 575.71909 551.625 569.4375 C 542.51131 559.71041 531.64764 551.7947 520.46875 544.625 C 505.4811 534.96944 488.66258 534.29497 471.6875 534.28125 z M 340.65625 636.90625 C 338.49886 636.94657 336.62571 637.29477 335.1875 638.03125 C 330.48468 640.43943 336.42164 654.78723 340.03125 662.59375 C 349.01216 682.01694 354.1066 703.71181 364.71875 721.96875 C 368.9448 729.23919 375.62998 737.81551 382.78125 740.03125 C 404.55006 741.95977 419.11789 726.55818 432.09375 711.125 C 431.31614 704.06666 429.53227 695.22329 425.3125 689.03125 C 412.16024 671.80686 394.80845 655.77929 375.09375 646.28125 C 364.91483 642.25539 350.00493 636.73155 340.65625 636.90625 z M 90.34375 672.03125 C 78.933142 689.36109 77.926174 715.63227 76.71875 736.625 C 78.246062 750.47121 84.537 764.18201 83.53125 778.5625 C 83.122285 784.40628 81.574406 791.02762 83.53125 796.15625 C 85.541845 801.42595 90.032921 808.5988 95.4375 809.75 C 108.10352 812.44755 125.79584 809.60819 137.1875 803 C 146.03101 779.20165 146.30413 748.59887 143.0625 723.03125 C 120.44458 709.78639 107.22407 691.83503 90.34375 672.03125 z M 697.34375 723.03125 C 693.79646 722.87604 688.89079 727.7213 688.84375 731.53125 C 708.35563 781.95086 737.91305 831.16086 764.21875 879.46875 C 769.00779 888.18223 771.20298 902.21187 783.875 902.34375 C 791.74423 902.42469 801.94607 908.60086 807.90625 901.34375 C 820.7639 885.68833 816.79955 863.7 821.96875 845.09375 C 825.20791 833.43419 832.20433 821.51302 827.8125 809.03125 C 817.2411 781.69632 794.06071 761.67554 769.5625 746.625 C 756.94352 739.61922 742.29619 737.61531 728.6875 733 C 718.31692 729.48285 707.03927 723.45488 697.34375 723.03125 z M 447.71875 779.125 C 447.6127 779.12338 447.51727 779.13906 447.40625 779.15625 C 431.02088 787.89606 413.63362 798.76559 399.8125 811.46875 C 391.6768 822.39036 385.94224 835.88322 382.21875 849.5 C 380.08951 857.28653 375.49312 866.31551 377.90625 873.28125 C 389.00782 879.42192 405.20749 883.6046 418.5 884.5625 C 433.45575 878.63084 440.76351 863.53243 443.59375 848.375 C 444.97023 837.68144 445.62355 826.79281 447.3125 816.21875 C 451.61778 806.76113 460.31182 802.2438 454 792.34375 C 451.96354 788.03469 451.00633 779.17525 447.71875 779.125 z "
         transform="matrix(0.21004227,0,0,0.21004227,298.61015,832.26975)"
         id="path3924" />
    </g>
  </g>
</svg>
