<?xml version="1.0" encoding="UTF-8" standalone="no"?>
<!-- Created with Inkscape (http://www.inkscape.org/) -->

<svg
   xmlns:dc="http://purl.org/dc/elements/1.1/"
   xmlns:cc="http://creativecommons.org/ns#"
   xmlns:rdf="http://www.w3.org/1999/02/22-rdf-syntax-ns#"
   xmlns:svg="http://www.w3.org/2000/svg"
   xmlns="http://www.w3.org/2000/svg"
   xmlns:sodipodi="http://sodipodi.sourceforge.net/DTD/sodipodi-0.dtd"
   xmlns:inkscape="http://www.inkscape.org/namespaces/inkscape"
   width="1000"
   height="1000"
   id="svg3173"
   version="1.1"
   inkscape:version="0.47 r22583"
   sodipodi:docname="96b9.svg"
   inkscape:export-filename="E:\chinese\yan\96b9.png"
   inkscape:export-xdpi="18.005705"
   inkscape:export-ydpi="18.005705">
  <title
     id="title2824">Wei</title>
  <defs
     id="defs3175">
    <inkscape:perspective
       sodipodi:type="inkscape:persp3d"
       inkscape:vp_x="0 : 526.18109 : 1"
       inkscape:vp_y="0 : 1000 : 0"
       inkscape:vp_z="744.09448 : 526.18109 : 1"
       inkscape:persp3d-origin="372.04724 : 350.78739 : 1"
       id="perspective3181" />
    <inkscape:perspective
       id="perspective3191"
       inkscape:persp3d-origin="0.5 : 0.33333333 : 1"
       inkscape:vp_z="1 : 0.5 : 1"
       inkscape:vp_y="0 : 1000 : 0"
       inkscape:vp_x="0 : 0.5 : 1"
       sodipodi:type="inkscape:persp3d" />
    <inkscape:perspective
       id="perspective4006"
       inkscape:persp3d-origin="0.5 : 0.33333333 : 1"
       inkscape:vp_z="1 : 0.5 : 1"
       inkscape:vp_y="0 : 1000 : 0"
       inkscape:vp_x="0 : 0.5 : 1"
       sodipodi:type="inkscape:persp3d" />
    <inkscape:perspective
       id="perspective4034"
       inkscape:persp3d-origin="0.5 : 0.33333333 : 1"
       inkscape:vp_z="1 : 0.5 : 1"
       inkscape:vp_y="0 : 1000 : 0"
       inkscape:vp_x="0 : 0.5 : 1"
       sodipodi:type="inkscape:persp3d" />
    <inkscape:perspective
       id="perspective4081"
       inkscape:persp3d-origin="0.5 : 0.33333333 : 1"
       inkscape:vp_z="1 : 0.5 : 1"
       inkscape:vp_y="0 : 1000 : 0"
       inkscape:vp_x="0 : 0.5 : 1"
       sodipodi:type="inkscape:persp3d" />
    <inkscape:perspective
       id="perspective4147"
       inkscape:persp3d-origin="0.5 : 0.33333333 : 1"
       inkscape:vp_z="1 : 0.5 : 1"
       inkscape:vp_y="0 : 1000 : 0"
       inkscape:vp_x="0 : 0.5 : 1"
       sodipodi:type="inkscape:persp3d" />
    <inkscape:perspective
       id="perspective3807"
       inkscape:persp3d-origin="0.5 : 0.33333333 : 1"
       inkscape:vp_z="1 : 0.5 : 1"
       inkscape:vp_y="0 : 1000 : 0"
       inkscape:vp_x="0 : 0.5 : 1"
       sodipodi:type="inkscape:persp3d" />
    <inkscape:perspective
       id="perspective3794"
       inkscape:persp3d-origin="0.5 : 0.33333333 : 1"
       inkscape:vp_z="1 : 0.5 : 1"
       inkscape:vp_y="0 : 1000 : 0"
       inkscape:vp_x="0 : 0.5 : 1"
       sodipodi:type="inkscape:persp3d" />
    <inkscape:perspective
       id="perspective3815"
       inkscape:persp3d-origin="0.5 : 0.33333333 : 1"
       inkscape:vp_z="1 : 0.5 : 1"
       inkscape:vp_y="0 : 1000 : 0"
       inkscape:vp_x="0 : 0.5 : 1"
       sodipodi:type="inkscape:persp3d" />
    <inkscape:perspective
       id="perspective3740"
       inkscape:persp3d-origin="0.5 : 0.33333333 : 1"
       inkscape:vp_z="1 : 0.5 : 1"
       inkscape:vp_y="0 : 1000 : 0"
       inkscape:vp_x="0 : 0.5 : 1"
       sodipodi:type="inkscape:persp3d" />
  </defs>
  <sodipodi:namedview
     id="base"
     pagecolor="#ffffff"
     bordercolor="#666666"
     borderopacity="1.0"
     inkscape:pageopacity="0.0"
     inkscape:pageshadow="2"
     inkscape:zoom="0.49497475"
     inkscape:cx="583.99196"
     inkscape:cy="536.99928"
     inkscape:document-units="px"
     inkscape:current-layer="g5975"
     showgrid="false"
     inkscape:window-width="1440"
     inkscape:window-height="840"
     inkscape:window-x="-4"
     inkscape:window-y="-4"
     inkscape:window-maximized="1" />
  <metadata
     id="metadata3178">
    <rdf:RDF>
      <cc:Work
         rdf:about="">
        <dc:format>image/svg+xml</dc:format>
        <dc:type
           rdf:resource="http://purl.org/dc/dcmitype/StillImage" />
        <dc:title>Wei</dc:title>
        <dc:date>2010-08-08</dc:date>
        <dc:creator>
          <cc:Agent>
            <dc:title>Alex Amies</dc:title>
          </cc:Agent>
        </dc:creator>
        <dc:rights>
          <cc:Agent>
            <dc:title>@ Alex Amies 2010</dc:title>
          </cc:Agent>
        </dc:rights>
        <dc:publisher>
          <cc:Agent>
            <dc:title>chinesenotes.com</dc:title>
          </cc:Agent>
        </dc:publisher>
        <dc:source>Yan Qin Ceremonial Inscription</dc:source>
        <dc:language>Chinese 中文</dc:language>
        <dc:description>Tracing from Tang Dynasty Ceremonial Inscription by Yan Zhenqing 颜真卿 (709－785)</dc:description>
        <cc:license
           rdf:resource="http://creativecommons.org/licenses/by/3.0/" />
      </cc:Work>
      <cc:License
         rdf:about="http://creativecommons.org/licenses/by/3.0/">
        <cc:permits
           rdf:resource="http://creativecommons.org/ns#Reproduction" />
        <cc:permits
           rdf:resource="http://creativecommons.org/ns#Distribution" />
        <cc:requires
           rdf:resource="http://creativecommons.org/ns#Notice" />
        <cc:requires
           rdf:resource="http://creativecommons.org/ns#Attribution" />
        <cc:permits
           rdf:resource="http://creativecommons.org/ns#DerivativeWorks" />
      </cc:License>
    </rdf:RDF>
  </metadata>
  <g
     inkscape:label="Layer 1"
     inkscape:groupmode="layer"
     id="layer1"
     transform="translate(0,-52.362183)">
    <g
       transform="matrix(4.762395,0,0,4.762395,-2523.1017,68.412668)"
       id="g5975"
       style="fill:none;fill-opacity:1">
      <g
         transform="matrix(0.99768636,0,0,0.99768636,23.957424,-245.05082)"
         id="g6158"
         style="fill:none">
        <path
           style="fill:#000000;stroke:#000000;stroke-width:1.65999091000000010px;stroke-linecap:butt;stroke-linejoin:miter;stroke-opacity:1;fill-opacity:1"
           d="m 687.89532,411.55083 c -4.63442,-5.72178 -6.50145,-6.13718 -14.71285,-2.82504 -4.83051,1.99019 -9.1636,0.91714 -15.07282,0.0276 -2.70328,0.31545 -5.40656,0.60608 -8.11008,0.91977 1.54146,-1.23845 2.63522,-3.08646 2.79113,-5.67192 2.26899,-7.56505 1.6534,-15.47171 1.68521,-23.30084 3.83209,-0.82835 7.67603,-1.49166 11.58584,-1.83954 7.04658,0.12084 17.06128,1.82635 18.1687,-7.61365 0.36072,-9.07455 -12.03617,-4.2459 -17.53674,-3.73018 -4.00168,0.43047 -8.00203,1.07668 -11.95448,1.78845 0.0495,-7.03005 -0.0101,-14.07136 -0.10533,-21.10361 4.57268,-0.85764 9.14843,-1.66736 13.69236,-2.65712 0,0 3.9376,0.10776 5.16096,-1.12416 2.26712,-2.28299 2.4304,-6.24204 1.79054,-9.35099 -0.28318,-1.37595 -0.92412,-3.49444 -2.36983,-3.52579 -2.80581,-0.0608 -5.81326,-1.17874 -8.47873,-0.35769 l -9.9532,3.0659 c -1.56487,-6.02921 2.70128,-15.13998 -0.63196,-19.77505 l -2.47515,-1.12416 c 7.34793,-1.46972 14.69566,-2.93924 22.01309,-4.54775 3.88775,-1.76966 11.27839,0.32626 11.11187,-6.08071 -2.8729,-3.48814 -6.43664,-7.43936 -11.05921,-8.22683 -2.3825,0.11904 -4.98216,1.49023 -6.84617,2.55492 -22.08369,7.47627 -68.27219,13.82451 -68.93574,17.01574 l -1.21125,5.82521 c -0.93539,4.49857 8.85039,3.97035 13.4817,3.62798 5.16948,-1.42576 9.96895,-4.06008 15.32491,-4.95653 3.84491,-0.78518 7.68349,-1.53462 11.53317,-2.29943 -2.98419,5.26702 -5.98791,10.58144 -6.05623,16.76025 -0.28623,2.87613 -0.40597,5.75623 -0.4213,8.63562 0,0 -18.87209,5.26839 -26.01548,8.02244 -1.84027,0.70949 -2.59527,3.34907 -2.42249,5.26313 0.12572,1.39301 1.05043,3.90249 2.42249,3.47468 8.59555,-2.6801 17.4811,-4.16418 26.33145,-5.77411 0.32842,6.42892 0.81164,12.83386 0.68462,19.26407 -0.005,0.76517 -0.003,1.53266 0,2.29943 -7.44766,4.10668 -20.50376,0.27127 -26.48944,5.10983 -3.2123,4.54822 -2.41804,7.81127 0.78995,12.2125 7.75969,-0.0855 17.19186,-3.95761 25.80482,-5.56972 0.0195,4.47646 -0.042,8.91891 -0.52663,13.33666 -2.62678,4.25106 0.3224,7.62612 4.47635,9.60649 1.17272,0.87868 2.54337,1.57628 4.00238,2.04393 -11.69429,1.35665 -23.38919,2.70449 -35.0735,4.13897 -2.36047,2.38865 -1.44316,4.95688 0,7.40926 1.05714,2.98255 5.55433,-0.067 8.05743,0.35768 19.08746,-3.13998 38.49038,-1.83582 57.71854,-2.70821 4.73792,-0.0731 8.70464,1.52406 11.74468,-1.29505 1.65974,-1.63905 5.35453,-3.55232 6.08642,-7.30247 l 0,4e-5 z m -92.82307,-142.347 c -14.14029,30.73441 -22.07135,50.02784 -40.71874,78.3631 -7.23298,9.29393 -13.25964,19.5347 -21.69711,27.89969 3.96377,8.31336 10.04088,-2.41688 14.79827,-4.70105 15.68099,-14.03605 19.73298,-20.34761 32.55599,-36.87126 3.68365,40.00405 3.3924,33.27023 4.37102,73.44658 -0.32479,6.67068 -2.49841,13.85168 0.26331,20.23494 3.26038,4.31394 9.00059,12.63283 14.16632,6.13179 1.40736,-40.58863 1.70571,-32.88184 2.00119,-72.42461 0.0521,-7.08564 2.42406,-14.38703 -0.94793,-21.10361 -1.27446,-6.38639 -6.43116,-11.12187 -10.90122,-15.63608 -0.84063,-0.99334 -1.87723,-1.08828 -3.00179,-0.91977 5.04011,-9.17285 9.93846,-18.42938 15.74621,-27.13322 5.16515,-6.87047 10.13037,-13.85631 15.48289,-20.59262 3.36804,-2.2405 7.76169,-3.92576 8.26808,-8.32903 2.90288,-4.01734 -2.80743,-5.57158 -5.31895,-7.97134 -3.80159,-2.27948 -8.14898,-4.4907 -12.69176,-4.59885 -4.86622,-0.23639 -10.73777,10.40656 -12.37578,14.20534 z m 42.87163,2.98857 c -2.74791,4.57847 -6.29635,13.51608 -5.95494,18.575 0.0489,4.19783 0.0101,8.4403 -0.4213,12.62129 0.0556,1.05277 -0.85272,3.00586 0.89527,2.35052 l 4.31835,-0.45988 c 7.81509,-5.65691 19.60616,-7.96681 23.48766,-16.42193 l -0.63196,-9.28053 c -0.59489,-8.73638 -14.28838,-10.26048 -21.69308,-7.38447 z"
           id="path5989"
           sodipodi:nodetypes="ccccccccccccsssssccccccsscccccssscccccccccccccccccccccccccccccccccccccccscc" />
      </g>
    </g>
  </g>
</svg>
