<?xml version="1.0" encoding="UTF-8" standalone="no"?>
<!-- Created with Inkscape (http://www.inkscape.org/) -->

<svg
   xmlns:dc="http://purl.org/dc/elements/1.1/"
   xmlns:cc="http://creativecommons.org/ns#"
   xmlns:rdf="http://www.w3.org/1999/02/22-rdf-syntax-ns#"
   xmlns:svg="http://www.w3.org/2000/svg"
   xmlns="http://www.w3.org/2000/svg"
   xmlns:sodipodi="http://sodipodi.sourceforge.net/DTD/sodipodi-0.dtd"
   xmlns:inkscape="http://www.inkscape.org/namespaces/inkscape"
   width="1000"
   height="1000"
   id="svg3173"
   version="1.1"
   inkscape:version="0.47 r22583"
   sodipodi:docname="975a.svg"
   inkscape:export-filename="E:\chinese\yan\975a.png"
   inkscape:export-xdpi="18.005705"
   inkscape:export-ydpi="18.005705">
  <title
     id="title7124">Jing</title>
  <defs
     id="defs3175">
    <inkscape:perspective
       sodipodi:type="inkscape:persp3d"
       inkscape:vp_x="0 : 526.18109 : 1"
       inkscape:vp_y="0 : 1000 : 0"
       inkscape:vp_z="744.09448 : 526.18109 : 1"
       inkscape:persp3d-origin="372.04724 : 350.78739 : 1"
       id="perspective3181" />
    <inkscape:perspective
       id="perspective3191"
       inkscape:persp3d-origin="0.5 : 0.33333333 : 1"
       inkscape:vp_z="1 : 0.5 : 1"
       inkscape:vp_y="0 : 1000 : 0"
       inkscape:vp_x="0 : 0.5 : 1"
       sodipodi:type="inkscape:persp3d" />
    <inkscape:perspective
       id="perspective4006"
       inkscape:persp3d-origin="0.5 : 0.33333333 : 1"
       inkscape:vp_z="1 : 0.5 : 1"
       inkscape:vp_y="0 : 1000 : 0"
       inkscape:vp_x="0 : 0.5 : 1"
       sodipodi:type="inkscape:persp3d" />
    <inkscape:perspective
       id="perspective4034"
       inkscape:persp3d-origin="0.5 : 0.33333333 : 1"
       inkscape:vp_z="1 : 0.5 : 1"
       inkscape:vp_y="0 : 1000 : 0"
       inkscape:vp_x="0 : 0.5 : 1"
       sodipodi:type="inkscape:persp3d" />
    <inkscape:perspective
       id="perspective4081"
       inkscape:persp3d-origin="0.5 : 0.33333333 : 1"
       inkscape:vp_z="1 : 0.5 : 1"
       inkscape:vp_y="0 : 1000 : 0"
       inkscape:vp_x="0 : 0.5 : 1"
       sodipodi:type="inkscape:persp3d" />
    <inkscape:perspective
       id="perspective4147"
       inkscape:persp3d-origin="0.5 : 0.33333333 : 1"
       inkscape:vp_z="1 : 0.5 : 1"
       inkscape:vp_y="0 : 1000 : 0"
       inkscape:vp_x="0 : 0.5 : 1"
       sodipodi:type="inkscape:persp3d" />
    <inkscape:perspective
       id="perspective3801"
       inkscape:persp3d-origin="0.5 : 0.33333333 : 1"
       inkscape:vp_z="1 : 0.5 : 1"
       inkscape:vp_y="0 : 1000 : 0"
       inkscape:vp_x="0 : 0.5 : 1"
       sodipodi:type="inkscape:persp3d" />
    <inkscape:perspective
       id="perspective3122"
       inkscape:persp3d-origin="0.5 : 0.33333333 : 1"
       inkscape:vp_z="1 : 0.5 : 1"
       inkscape:vp_y="0 : 1000 : 0"
       inkscape:vp_x="0 : 0.5 : 1"
       sodipodi:type="inkscape:persp3d" />
    <inkscape:perspective
       id="perspective3854"
       inkscape:persp3d-origin="0.5 : 0.33333333 : 1"
       inkscape:vp_z="1 : 0.5 : 1"
       inkscape:vp_y="0 : 1000 : 0"
       inkscape:vp_x="0 : 0.5 : 1"
       sodipodi:type="inkscape:persp3d" />
    <inkscape:perspective
       id="perspective3922"
       inkscape:persp3d-origin="0.5 : 0.33333333 : 1"
       inkscape:vp_z="1 : 0.5 : 1"
       inkscape:vp_y="0 : 1000 : 0"
       inkscape:vp_x="0 : 0.5 : 1"
       sodipodi:type="inkscape:persp3d" />
    <inkscape:perspective
       id="perspective3945"
       inkscape:persp3d-origin="0.5 : 0.33333333 : 1"
       inkscape:vp_z="1 : 0.5 : 1"
       inkscape:vp_y="0 : 1000 : 0"
       inkscape:vp_x="0 : 0.5 : 1"
       sodipodi:type="inkscape:persp3d" />
    <inkscape:perspective
       id="perspective3972"
       inkscape:persp3d-origin="0.5 : 0.33333333 : 1"
       inkscape:vp_z="1 : 0.5 : 1"
       inkscape:vp_y="0 : 1000 : 0"
       inkscape:vp_x="0 : 0.5 : 1"
       sodipodi:type="inkscape:persp3d" />
    <inkscape:perspective
       id="perspective3995"
       inkscape:persp3d-origin="0.5 : 0.33333333 : 1"
       inkscape:vp_z="1 : 0.5 : 1"
       inkscape:vp_y="0 : 1000 : 0"
       inkscape:vp_x="0 : 0.5 : 1"
       sodipodi:type="inkscape:persp3d" />
    <inkscape:perspective
       id="perspective3802"
       inkscape:persp3d-origin="0.5 : 0.33333333 : 1"
       inkscape:vp_z="1 : 0.5 : 1"
       inkscape:vp_y="0 : 1000 : 0"
       inkscape:vp_x="0 : 0.5 : 1"
       sodipodi:type="inkscape:persp3d" />
    <inkscape:perspective
       id="perspective3833"
       inkscape:persp3d-origin="0.5 : 0.33333333 : 1"
       inkscape:vp_z="1 : 0.5 : 1"
       inkscape:vp_y="0 : 1000 : 0"
       inkscape:vp_x="0 : 0.5 : 1"
       sodipodi:type="inkscape:persp3d" />
    <inkscape:perspective
       id="perspective3913"
       inkscape:persp3d-origin="0.5 : 0.33333333 : 1"
       inkscape:vp_z="1 : 0.5 : 1"
       inkscape:vp_y="0 : 1000 : 0"
       inkscape:vp_x="0 : 0.5 : 1"
       sodipodi:type="inkscape:persp3d" />
    <inkscape:perspective
       id="perspective4500"
       inkscape:persp3d-origin="0.5 : 0.33333333 : 1"
       inkscape:vp_z="1 : 0.5 : 1"
       inkscape:vp_y="0 : 1000 : 0"
       inkscape:vp_x="0 : 0.5 : 1"
       sodipodi:type="inkscape:persp3d" />
    <inkscape:perspective
       id="perspective5117"
       inkscape:persp3d-origin="0.5 : 0.33333333 : 1"
       inkscape:vp_z="1 : 0.5 : 1"
       inkscape:vp_y="0 : 1000 : 0"
       inkscape:vp_x="0 : 0.5 : 1"
       sodipodi:type="inkscape:persp3d" />
    <inkscape:perspective
       id="perspective5212"
       inkscape:persp3d-origin="0.5 : 0.33333333 : 1"
       inkscape:vp_z="1 : 0.5 : 1"
       inkscape:vp_y="0 : 1000 : 0"
       inkscape:vp_x="0 : 0.5 : 1"
       sodipodi:type="inkscape:persp3d" />
    <inkscape:perspective
       id="perspective5834"
       inkscape:persp3d-origin="0.5 : 0.33333333 : 1"
       inkscape:vp_z="1 : 0.5 : 1"
       inkscape:vp_y="0 : 1000 : 0"
       inkscape:vp_x="0 : 0.5 : 1"
       sodipodi:type="inkscape:persp3d" />
    <inkscape:perspective
       id="perspective5906"
       inkscape:persp3d-origin="0.5 : 0.33333333 : 1"
       inkscape:vp_z="1 : 0.5 : 1"
       inkscape:vp_y="0 : 1000 : 0"
       inkscape:vp_x="0 : 0.5 : 1"
       sodipodi:type="inkscape:persp3d" />
    <inkscape:perspective
       id="perspective3787"
       inkscape:persp3d-origin="0.5 : 0.33333333 : 1"
       inkscape:vp_z="1 : 0.5 : 1"
       inkscape:vp_y="0 : 1000 : 0"
       inkscape:vp_x="0 : 0.5 : 1"
       sodipodi:type="inkscape:persp3d" />
    <inkscape:perspective
       id="perspective3839"
       inkscape:persp3d-origin="0.5 : 0.33333333 : 1"
       inkscape:vp_z="1 : 0.5 : 1"
       inkscape:vp_y="0 : 1000 : 0"
       inkscape:vp_x="0 : 0.5 : 1"
       sodipodi:type="inkscape:persp3d" />
  </defs>
  <sodipodi:namedview
     id="base"
     pagecolor="#ffffff"
     bordercolor="#666666"
     borderopacity="1.0"
     inkscape:pageopacity="0.0"
     inkscape:pageshadow="2"
     inkscape:zoom="0.49497475"
     inkscape:cx="483.07102"
     inkscape:cy="534.97897"
     inkscape:document-units="px"
     inkscape:current-layer="g4634"
     showgrid="false"
     inkscape:window-width="1440"
     inkscape:window-height="840"
     inkscape:window-x="-4"
     inkscape:window-y="-4"
     inkscape:window-maximized="1" />
  <metadata
     id="metadata3178">
    <rdf:RDF>
      <cc:Work
         rdf:about="">
        <dc:format>image/svg+xml</dc:format>
        <dc:type
           rdf:resource="http://purl.org/dc/dcmitype/StillImage" />
        <dc:title>Jing</dc:title>
        <dc:date>2010-08-21</dc:date>
        <dc:creator>
          <cc:Agent>
            <dc:title>Alex Amies</dc:title>
          </cc:Agent>
        </dc:creator>
        <dc:rights>
          <cc:Agent>
            <dc:title>@ Alex Amies 2010</dc:title>
          </cc:Agent>
        </dc:rights>
        <dc:publisher>
          <cc:Agent>
            <dc:title>chinesenotes.com</dc:title>
          </cc:Agent>
        </dc:publisher>
        <dc:source>Yan Qin Ceremonial Inscription</dc:source>
        <dc:language>Chinese 中文</dc:language>
        <dc:description>Tracing from Tang Dynasty Ceremonial Inscription by Yan Zhenqing 颜真卿 (709－785)</dc:description>
        <cc:license
           rdf:resource="http://creativecommons.org/licenses/by/3.0/" />
      </cc:Work>
      <cc:License
         rdf:about="http://creativecommons.org/licenses/by/3.0/">
        <cc:permits
           rdf:resource="http://creativecommons.org/ns#Reproduction" />
        <cc:permits
           rdf:resource="http://creativecommons.org/ns#Distribution" />
        <cc:requires
           rdf:resource="http://creativecommons.org/ns#Notice" />
        <cc:requires
           rdf:resource="http://creativecommons.org/ns#Attribution" />
        <cc:permits
           rdf:resource="http://creativecommons.org/ns#DerivativeWorks" />
      </cc:License>
    </rdf:RDF>
  </metadata>
  <g
     inkscape:label="Layer 1"
     inkscape:groupmode="layer"
     id="layer1"
     transform="translate(0,-52.362183)">
    <g
       transform="matrix(4.7609464,0,0,4.7609464,-444.07486,-2879.5352)"
       id="g4634"
       style="fill:#000000;fill-opacity:1">
      <g
         transform="matrix(0.99798993,0,0,0.99798993,-391.0945,-221.91735)"
         id="g3854"
         style="fill:none;fill-opacity:1">
        <path
           style="fill:#000000;stroke:#000000;stroke-width:4.75137663000000020px;stroke-linecap:butt;stroke-linejoin:miter;stroke-opacity:1;fill-opacity:1"
           d="M 343.28125 23.0625 C 325.19352 26.40267 317.65873 39.017234 313.84375 55.71875 C 306.50786 70.682403 316.92405 84.405443 318.84375 98.875 C 319.07829 113.484 318.94499 128.07115 318.59375 142.65625 C 300.80999 148.41785 283.05744 154.43605 265.1875 159.6875 C 251.67454 163.54643 234.83277 171.08778 230.53125 181.40625 C 226.49039 191.09944 248.72266 196.93782 259.875 195.0625 C 278.66095 191.51552 297.86225 185.57859 317.25 180.09375 C 315.98297 207.53184 314.21965 234.95184 312.71875 262.375 C 285.21113 270.78605 257.43242 278.35189 229.1875 284.59375 C 216.28984 287.6592 203.08779 291.16783 192.15625 299 C 184.16999 311.73906 200.27059 323.38336 211.9375 324.21875 C 244.72748 316.63202 277.7228 308.44562 310.90625 300.4375 C 310.15811 319.13099 309.66141 337.84131 309.71875 356.5625 L 315.6875 360.03125 C 298.55822 362.68014 281.74245 367.27062 266.3125 375.28125 C 239.30126 377.26509 213.75279 386.95537 188.96875 397.0625 C 165.41922 402.73745 140.80268 403.26776 117.75 411.09375 C 96.801086 415.00983 73.445283 414.89829 56.03125 428.90625 C 42.110477 446.60014 57.430652 470.44497 74.5625 478.96875 C 108.00411 474.44321 140.99081 466.08373 171.46875 451.40625 C 200.64111 439.29057 230.00915 427.10773 261 420.53125 C 295.05692 409.14116 329.19365 397.98787 363.6875 388.09375 C 389.39786 383.28759 415.74649 380.93063 440.34375 371.28125 C 460.34762 364.97009 478.37446 353.42179 499.21875 349.90625 C 514.88489 347.24173 536.8326 333.20627 527.09375 315.21875 C 517.26643 301.39186 495.69368 286.23294 479.84375 299.46875 C 472.05316 313.97751 457.43804 322.9335 441.65625 326.65625 C 422.49566 332.52818 403.082 337.57958 383.78125 343 C 386.96808 322.69681 389.42456 302.3098 391.4375 281.875 C 406.56009 278.62507 421.70177 275.52248 436.875 272.6875 C 447.25134 270.30164 460.12887 266.75159 464.1875 255.71875 C 464.17325 223.11637 428.47447 228.90074 406.46875 230.8125 C 402.79033 232.13282 399.11791 233.4424 395.4375 234.75 C 397.09839 212.31272 398.51172 189.8631 400.0625 167.4375 C 403.12833 167.65725 406.19218 167.95579 409.25 168.40625 C 417.98065 169.63201 426.03448 173.58042 434.15625 176.8125 C 460.17008 182.16165 480.45101 159.00375 471.75 134.5 C 468.12118 126.51417 465.75284 120.6724 455.53125 120.65625 C 437.87752 118.72626 420.60039 119.2881 403.59375 121.46875 C 404.30296 113.23991 405.03548 105.02079 405.875 96.8125 C 405.91776 81.546992 416.13193 67.474285 413.28125 52.3125 C 400.24832 24.86489 369.13325 26.654826 343.28125 23.0625 z M 731.5625 147 C 729.86487 147.0096 728.13152 147.13984 726.375 147.34375 C 687.04282 163.5793 649.03341 183.39848 609.15625 201 C 596.28357 204.08364 587.51192 208.09073 581.625 216.96875 C 581.37885 216.31147 581.15344 215.65918 580.90625 215 C 570.5071 217.39983 560.11785 219.78763 549.71875 222.1875 C 530.99434 240.46034 533.17573 269.18975 538.96875 292.5 C 548.22453 393.0063 549.55456 495.75088 536.0625 595.9375 C 537.20587 606.31356 535.45073 625.59065 543.53125 630.15625 L 559.3125 630.15625 C 570.40647 611.58132 570.63711 590.46474 571.5625 569.4375 C 574.61473 571.88853 578.38615 573.51792 583.9375 573.4375 C 597.50161 567.0145 611.16606 561.69488 624.84375 556.5625 C 624.59912 559.49848 624.36942 562.43901 624.125 565.375 C 592.70263 629.66317 557.23647 692.27186 515.71875 750.65625 C 517.05289 761.90594 502.55278 777.5524 508.75 784.8125 C 520.39619 778.19288 523.39075 763.44344 533.46875 755.09375 C 587.62275 697.93825 623.31333 613.97545 669.625 553.96875 C 677.39389 551.29671 679.97589 542.70325 678.125 535.46875 C 687.30899 531.28433 696.43781 526.65448 705.46875 521.28125 C 711.33984 512.80009 713.40028 501.98751 712.53125 491.84375 C 702.92748 482.20468 689.14003 474.85807 675.78125 479.125 C 643.7221 501.48436 618.93015 535.55302 577.28125 539 C 576.44137 538.82635 575.66362 538.6981 574.875 538.5625 C 575.07399 537.65949 575.27445 536.74098 575.5 535.84375 C 579.46431 510.00774 582.4788 483.89797 584.90625 457.65625 C 609.98064 453.92096 625.27401 431.65085 646.875 419.78125 C 650.11991 410.89009 656.80784 400.80066 650.28125 392.90625 C 644.65096 389.7739 637.83827 389.25024 631.53125 389.78125 C 613.82197 393.12361 597.64865 401.38051 588.78125 417.125 C 588.71718 418.55967 588.40702 420.04221 587.90625 421.5625 C 590.31259 388.98808 592.03209 356.32275 593.6875 323.78125 C 595.97967 323.76877 598.27831 323.58128 600.4375 323.5625 C 623.2978 316.99268 647.27559 315.71211 669.6875 307.65625 C 679.13903 302.52362 691.02883 296.69725 693.65625 286.09375 C 686.71629 265.47197 660.63454 269.33092 643.53125 272.1875 C 627.56737 276.74741 611.671 281.56828 595.78125 286.40625 C 597.6387 265.57168 592.45147 246.91924 585.6875 227.96875 C 609.94861 224.15386 634.3297 218.26204 655 204.5625 C 676.20805 197.28871 693.81538 178.34474 716.03125 188.71875 C 732.63793 202.01918 732.07914 226.06823 733.40625 245.53125 C 730.74762 356.63122 732.63837 473.62511 704.59375 581.84375 C 708.64492 599.65224 710.0411 628.32767 733.5625 629.96875 C 756.81883 631.0294 785.28685 618.84791 788.5625 593.125 C 793.4061 475.69658 782.22213 358.26714 790.75 240.9375 C 797.6175 223.69129 812.33879 199.48121 792 185.40625 C 775.98005 167.78685 757.02691 146.85597 731.5625 147 z M 418.46875 418.28125 C 404.0498 418.41 389.15052 423.54776 376.15625 428.6875 C 344.09757 444.92177 308.62425 452.01055 275.75 466.25 C 261.64725 471.12211 240.37982 472.85938 232.9375 478.96875 C 230.59647 480.89049 231.09142 485.20622 232.625 490.375 C 225.11135 497.12679 220.35808 506.84682 220.9375 517.875 C 232.82958 641.38808 224.03941 765.37909 229.96875 889.15625 C 230.94221 903.85843 240.99711 922.43406 258.09375 920.15625 C 278.02292 916.42689 278.33082 892.59712 277.9375 876.65625 C 276.29909 779.31378 269.69718 681.2504 275.0625 583.90625 C 301.69176 579.30843 328.1701 591.79574 353.46875 577.625 C 360.88161 569.56196 362.98641 556.79509 363.21875 545.96875 C 355.38292 540.00458 345.24009 536.72954 335.28125 538.1875 C 314.10369 542.47602 298.99508 561.68551 276.4375 562.9375 C 277.60456 547.1195 279.09343 531.29988 281.03125 515.53125 C 280.82653 508.82779 279.11251 500.95866 275.65625 494.3125 C 291.65556 486.81406 307.61705 479.26692 321.75 468.5 C 342.32446 456.3141 388.08346 441.3542 384.34375 481.59375 C 402.47581 586.76766 404.68498 694.15669 411.25 800.8125 C 411.31604 822.96294 414.51361 845.36092 412.4375 867.375 C 395.94718 887.45099 373.73094 854.82697 358.96875 846.3125 C 361.87673 871.31282 372.98849 898.50027 388.5625 919.65625 C 411.02302 933.78304 386.70445 976.27238 414.0625 981 C 440.29789 989.49689 466.07471 975.3921 468.59375 946.65625 C 506.21026 801.76492 486.84985 648.57743 473.5 501.40625 C 468.99351 474.40104 469.4316 440.96374 443.375 424.53125 C 435.60498 419.91207 427.12012 418.204 418.46875 418.28125 z M 675.375 623.875 C 671.53767 623.84419 667.58434 624.68404 663.90625 626.3125 C 661.0368 626.76863 658.18822 627.36779 655.3125 627.78125 C 656.48932 676.67187 657.68984 725.6224 658.09375 774.59375 C 661.4315 793.04144 659.18301 815.91283 676.25 828.3125 C 739.64505 846.00425 807.34986 840.30595 872.65625 846 C 916.56567 841.21774 946.01575 829.22222 948.6875 784.125 C 951.02033 764.93799 932.45273 755.14379 921.28125 743.03125 C 907.27424 735.70334 906.01199 723.03627 903.84375 708.90625 C 902.87761 701.52499 893.22372 693.13155 892.53125 705.5 C 887.90037 723.26963 885.07605 741.81671 877.21875 758.53125 C 827.95866 773.46963 753.65465 779.32482 713.375 740 C 706.00447 727.56109 703.68989 712.48153 707.03125 698.3125 C 709.86431 677.74175 710.93403 653.23095 695 637.40625 C 691.7085 628.20402 683.81712 623.94278 675.375 623.875 z M 363.6875 661.375 C 362.26896 661.40926 360.75063 661.69124 359.0625 662.3125 C 331.11828 673.92273 308.84349 695.44101 287.875 716.6875 C 287.0713 717.30304 285.84755 717.82661 285.75 718.96875 C 285.60081 724.42233 284.79774 731.22482 289.75 734.9375 C 298.66952 741.48723 315.40214 753.7247 324.65625 744.1875 C 335.49058 729.24917 340.9673 710.63925 354.65625 697.75 C 363.01872 689.11589 373.09608 681.71762 379 671.03125 C 373.84084 666.04091 369.8345 661.22655 363.6875 661.375 z "
           transform="matrix(0.21046532,0,0,0.21046532,485.34457,839.42705)"
           id="path3711" />
      </g>
    </g>
  </g>
</svg>
