<?xml version="1.0" encoding="UTF-8" standalone="no"?>
<!-- Created with Inkscape (http://www.inkscape.org/) -->

<svg
   xmlns:dc="http://purl.org/dc/elements/1.1/"
   xmlns:cc="http://creativecommons.org/ns#"
   xmlns:rdf="http://www.w3.org/1999/02/22-rdf-syntax-ns#"
   xmlns:svg="http://www.w3.org/2000/svg"
   xmlns="http://www.w3.org/2000/svg"
   xmlns:sodipodi="http://sodipodi.sourceforge.net/DTD/sodipodi-0.dtd"
   xmlns:inkscape="http://www.inkscape.org/namespaces/inkscape"
   width="1000"
   height="1000"
   id="svg3173"
   version="1.1"
   inkscape:version="0.47 r22583"
   sodipodi:docname="9801.svg"
   inkscape:export-filename="E:\chinese\yan\9801.png"
   inkscape:export-xdpi="18.005705"
   inkscape:export-ydpi="18.005705">
  <title
     id="title3617">Ye</title>
  <defs
     id="defs3175">
    <inkscape:perspective
       sodipodi:type="inkscape:persp3d"
       inkscape:vp_x="0 : 526.18109 : 1"
       inkscape:vp_y="0 : 1000 : 0"
       inkscape:vp_z="744.09448 : 526.18109 : 1"
       inkscape:persp3d-origin="372.04724 : 350.78739 : 1"
       id="perspective3181" />
    <inkscape:perspective
       id="perspective3191"
       inkscape:persp3d-origin="0.5 : 0.33333333 : 1"
       inkscape:vp_z="1 : 0.5 : 1"
       inkscape:vp_y="0 : 1000 : 0"
       inkscape:vp_x="0 : 0.5 : 1"
       sodipodi:type="inkscape:persp3d" />
    <inkscape:perspective
       id="perspective4006"
       inkscape:persp3d-origin="0.5 : 0.33333333 : 1"
       inkscape:vp_z="1 : 0.5 : 1"
       inkscape:vp_y="0 : 1000 : 0"
       inkscape:vp_x="0 : 0.5 : 1"
       sodipodi:type="inkscape:persp3d" />
    <inkscape:perspective
       id="perspective4034"
       inkscape:persp3d-origin="0.5 : 0.33333333 : 1"
       inkscape:vp_z="1 : 0.5 : 1"
       inkscape:vp_y="0 : 1000 : 0"
       inkscape:vp_x="0 : 0.5 : 1"
       sodipodi:type="inkscape:persp3d" />
    <inkscape:perspective
       id="perspective4081"
       inkscape:persp3d-origin="0.5 : 0.33333333 : 1"
       inkscape:vp_z="1 : 0.5 : 1"
       inkscape:vp_y="0 : 1000 : 0"
       inkscape:vp_x="0 : 0.5 : 1"
       sodipodi:type="inkscape:persp3d" />
    <inkscape:perspective
       id="perspective4147"
       inkscape:persp3d-origin="0.5 : 0.33333333 : 1"
       inkscape:vp_z="1 : 0.5 : 1"
       inkscape:vp_y="0 : 1000 : 0"
       inkscape:vp_x="0 : 0.5 : 1"
       sodipodi:type="inkscape:persp3d" />
    <inkscape:perspective
       id="perspective3807"
       inkscape:persp3d-origin="0.5 : 0.33333333 : 1"
       inkscape:vp_z="1 : 0.5 : 1"
       inkscape:vp_y="0 : 1000 : 0"
       inkscape:vp_x="0 : 0.5 : 1"
       sodipodi:type="inkscape:persp3d" />
    <inkscape:perspective
       id="perspective3794"
       inkscape:persp3d-origin="0.5 : 0.33333333 : 1"
       inkscape:vp_z="1 : 0.5 : 1"
       inkscape:vp_y="0 : 1000 : 0"
       inkscape:vp_x="0 : 0.5 : 1"
       sodipodi:type="inkscape:persp3d" />
    <inkscape:perspective
       id="perspective3815"
       inkscape:persp3d-origin="0.5 : 0.33333333 : 1"
       inkscape:vp_z="1 : 0.5 : 1"
       inkscape:vp_y="0 : 1000 : 0"
       inkscape:vp_x="0 : 0.5 : 1"
       sodipodi:type="inkscape:persp3d" />
    <inkscape:perspective
       id="perspective3740"
       inkscape:persp3d-origin="0.5 : 0.33333333 : 1"
       inkscape:vp_z="1 : 0.5 : 1"
       inkscape:vp_y="0 : 1000 : 0"
       inkscape:vp_x="0 : 0.5 : 1"
       sodipodi:type="inkscape:persp3d" />
    <inkscape:perspective
       id="perspective3801"
       inkscape:persp3d-origin="0.5 : 0.33333333 : 1"
       inkscape:vp_z="1 : 0.5 : 1"
       inkscape:vp_y="0 : 1000 : 0"
       inkscape:vp_x="0 : 0.5 : 1"
       sodipodi:type="inkscape:persp3d" />
  </defs>
  <sodipodi:namedview
     id="base"
     pagecolor="#ffffff"
     bordercolor="#666666"
     borderopacity="1.0"
     inkscape:pageopacity="0.0"
     inkscape:pageshadow="2"
     inkscape:zoom="0.49497475"
     inkscape:cx="583.99196"
     inkscape:cy="536.99928"
     inkscape:document-units="px"
     inkscape:current-layer="g5975"
     showgrid="false"
     inkscape:window-width="1440"
     inkscape:window-height="840"
     inkscape:window-x="-4"
     inkscape:window-y="-4"
     inkscape:window-maximized="1" />
  <metadata
     id="metadata3178">
    <rdf:RDF>
      <cc:Work
         rdf:about="">
        <dc:format>image/svg+xml</dc:format>
        <dc:type
           rdf:resource="http://purl.org/dc/dcmitype/StillImage" />
        <dc:title>Ye</dc:title>
        <dc:date>2010-08-08</dc:date>
        <dc:creator>
          <cc:Agent>
            <dc:title>Alex Amies</dc:title>
          </cc:Agent>
        </dc:creator>
        <dc:rights>
          <cc:Agent>
            <dc:title>@ Alex Amies 2010</dc:title>
          </cc:Agent>
        </dc:rights>
        <dc:publisher>
          <cc:Agent>
            <dc:title>chinesenotes.com</dc:title>
          </cc:Agent>
        </dc:publisher>
        <dc:source>Yan Qin Ceremonial Inscription</dc:source>
        <dc:language>Chinese 中文</dc:language>
        <dc:description>Tracing from Tang Dynasty Ceremonial Inscription by Yan Zhenqing 颜真卿 (709－785)</dc:description>
        <cc:license
           rdf:resource="http://creativecommons.org/licenses/by/3.0/" />
      </cc:Work>
      <cc:License
         rdf:about="http://creativecommons.org/licenses/by/3.0/">
        <cc:permits
           rdf:resource="http://creativecommons.org/ns#Reproduction" />
        <cc:permits
           rdf:resource="http://creativecommons.org/ns#Distribution" />
        <cc:requires
           rdf:resource="http://creativecommons.org/ns#Notice" />
        <cc:requires
           rdf:resource="http://creativecommons.org/ns#Attribution" />
        <cc:permits
           rdf:resource="http://creativecommons.org/ns#DerivativeWorks" />
      </cc:License>
    </rdf:RDF>
  </metadata>
  <g
     inkscape:label="Layer 1"
     inkscape:groupmode="layer"
     id="layer1"
     transform="translate(0,-52.362183)">
    <g
       transform="matrix(4.762395,0,0,4.762395,-2523.1017,68.412668)"
       id="g5975"
       style="fill:none;fill-opacity:1">
      <g
         transform="matrix(0.99969582,0,0,0.99969582,18.953509,-828.40796)"
         id="g12562"
         style="fill:#000000;fill-opacity:1">
        <path
           style="fill:#000000;stroke:#000000;stroke-width:5.12863398000000000px;stroke-linecap:butt;stroke-linejoin:miter;stroke-opacity:1;fill-opacity:1"
           d="M 668.375 58.78125 C 667.61524 58.789469 666.82297 58.823244 666.03125 58.875 C 641.98471 60.652118 618.42956 66.080891 595.0625 71.15625 C 561.67555 80.440952 527.6607 88.10677 492.78125 91.8125 C 433.09388 104.83869 368.45264 96.220852 309.21875 109.5625 C 292.85619 109.34112 281.72494 124.93095 298.8125 132.75 C 304.88756 144.79753 310.30891 155.95112 321.3125 164.6875 C 336.00649 172.51869 352.79305 162.97492 368.46875 163.1875 C 446.58364 153.32729 520.50674 130.29585 599.71875 126 C 620.98904 124.31282 640.81646 131.17042 660.53125 136.84375 C 679.45277 139.18152 701.40723 144.93832 718.71875 135.0625 C 735.909 125.35774 725.82514 105.91795 713.59375 93.625 C 700.42657 78.777882 691.92742 58.526476 668.375 58.78125 z M 486.53125 146.8125 C 485.2963 146.82691 484.08209 146.88506 482.875 146.96875 C 464.78707 149.98105 452.2792 165.69622 450.96875 180.90625 C 450.83592 188.66231 452.68464 196.52543 449.8125 204.125 C 442.28744 227.84903 428.47435 249.60828 416.25 271.6875 C 409.64671 281.07542 401.75149 290.58343 400.875 301.90625 C 396.51892 310.65101 410.39725 316.79633 417.84375 311.03125 C 418.65512 310.53773 419.45353 310.03892 420.25 309.53125 C 425.12827 316.26206 433.55359 321.32609 444.4375 320.84375 C 490.10869 315.73221 529.10259 302.42863 567.5 294.5625 C 593.25724 284.40135 633.15692 280.51184 648.125 306.40625 C 665.617 334.94627 659.67995 368.79577 657.59375 399.6875 C 645.22792 480.83867 649.02041 562.48635 643.125 643.71875 C 568.55478 650.9344 494.58448 662.94532 420.78125 675.40625 C 419.87261 665.44005 419.0365 655.47192 420.21875 645.4375 C 423.34451 618.77656 424.27896 592.08926 424.03125 565.375 C 427.02738 566.02258 430.08585 566.40792 433.15625 566.46875 C 450.2052 567.29363 467.34944 567.41307 484.3125 565.46875 C 498.14705 563.89749 512.03908 562.66592 525.96875 561.9375 C 540.77958 561.05625 556.45547 555.30144 564 543.75 C 569.68514 534.42302 563.13241 523.74633 555.8125 516.625 C 547.7057 508.22617 537.05296 510.41849 524.03125 512.625 C 502.62665 515.75313 484.16818 523.10511 461.875 523.3125 C 448.85524 523.55622 435.59631 519.44293 422.6875 521.125 C 421.63242 498.11541 420.16143 475.11495 418.875 452.125 C 424.08959 453.00985 429.50814 453.16525 434.71875 452.90625 C 447.60225 451.41622 459.4965 446.27164 472.46875 445.0625 C 488.74252 442.89603 504.97177 440.3302 521.28125 438.40625 C 534.15452 437.48658 548.08394 436.55814 558.3125 428.90625 C 565.48187 424.60083 569.80395 416.84174 567.5625 409.375 C 563.49975 393.6326 552.35624 391.42741 535.28125 386.9375 C 520.81521 383.4353 503.59343 388.77123 488.96875 390.46875 C 464.17923 394.08419 437.4936 397.98766 416.8125 407.0625 C 416.23415 388.75363 416.0488 370.48119 416.625 352.21875 C 419.71105 337.98995 419.24303 319.30657 401.96875 311.90625 C 383.26999 310.44702 364.57014 310.62321 348.40625 300.4375 L 344.75 300 C 320.4576 299.74672 338.11898 323.28049 347.65625 330.40625 C 359.20526 355.64736 350.17032 383.16974 352.90625 409.4375 C 354.06502 490.55579 350.83474 572.44408 351.3125 652.9375 C 353.84546 663.87171 357.42195 675.11472 363.46875 685.0625 C 348.02145 687.66274 332.57376 690.27723 317.125 692.78125 C 305.87512 699.42844 298.47005 713.42822 307.25 724 C 316.65368 738.24847 336.75311 744.82159 355.09375 741.625 C 369.32156 739.23181 383.35872 736.23249 397.28125 732.875 C 398.584 742.7687 398.84607 752.64069 391.625 761.53125 C 358.07433 809.77397 314.87253 853.35736 268.1875 892.59375 C 257.86144 899.63138 241.98915 901.58562 236.125 912.65625 C 235.54288 929.71853 262.54403 925.77215 275.40625 923.71875 C 297.2679 918.93162 312.26398 903.15807 330.125 892.375 C 377.45204 839.69846 475.81981 811.12537 498.84375 744.53125 C 500.98632 731.84742 494.2872 717.44432 482.46875 709.53125 C 524.95005 697.56018 567.69739 686.69937 612.75 683.875 C 621.64173 682.87504 630.54914 682.41895 639.46875 682.40625 C 637.68743 697.40144 635.45197 712.39227 632.5625 727.34375 C 630.70647 731.85785 629.71189 736.63779 629.5 741.40625 C 618.30607 742.13476 607.58271 744.86558 599.28125 750.59375 C 593.27198 754.7402 589.89592 762.77085 591.375 769.28125 C 594.95361 785.03317 617.5868 792.23262 628.875 805 C 666.02371 833.11515 672.33105 885.96525 707.78125 913.8125 C 726.6117 921.01391 754.04295 919.33471 770.9375 908.71875 C 779.77686 901.60875 783.16879 890.14328 784.75 879.8125 C 787.43827 862.24889 785.72377 843.07158 776.84375 827.09375 C 758.86036 806.50574 735.67704 784.71667 709.65625 767.75 C 719.40113 757.98365 725.46544 744.58799 730.5625 732.65625 C 755.47848 650.42776 750.79996 566.77969 751.4375 482.71875 C 748.38045 436.98976 745.07724 390.41239 758.53125 345.59375 C 763.39394 297.12117 713.14472 254.1628 658.84375 249.625 C 605.55238 242.27881 552.6839 256.01373 502.75 270.5 C 488.27955 274.0416 473.29087 275.05504 458.46875 276.75 C 467.42315 267.53377 476.10085 258.08109 485.375 249.25 C 500.39674 241.38258 517.51569 227.16698 525.3125 212.71875 C 534.60787 197.72991 537.79806 186.37947 532.96875 169.84375 C 526.14602 154.17432 505.05553 146.59629 486.53125 146.8125 z "
           transform="matrix(0.21004227,0,0,0.21004227,510.99874,825.28874)"
           id="path12544" />
      </g>
    </g>
  </g>
</svg>
