<?xml version="1.0" encoding="UTF-8" standalone="no"?>
<!-- Created with Inkscape (http://www.inkscape.org/) -->

<svg
   xmlns:dc="http://purl.org/dc/elements/1.1/"
   xmlns:cc="http://creativecommons.org/ns#"
   xmlns:rdf="http://www.w3.org/1999/02/22-rdf-syntax-ns#"
   xmlns:svg="http://www.w3.org/2000/svg"
   xmlns="http://www.w3.org/2000/svg"
   xmlns:sodipodi="http://sodipodi.sourceforge.net/DTD/sodipodi-0.dtd"
   xmlns:inkscape="http://www.inkscape.org/namespaces/inkscape"
   width="1000"
   height="1000"
   id="svg3173"
   version="1.1"
   inkscape:version="0.47 r22583"
   sodipodi:docname="9803.svg"
   inkscape:export-filename="E:\chinese\yan\9803.png"
   inkscape:export-xdpi="18.005705"
   inkscape:export-ydpi="18.005705">
  <title
     id="title7070">Qing</title>
  <defs
     id="defs3175">
    <inkscape:perspective
       sodipodi:type="inkscape:persp3d"
       inkscape:vp_x="0 : 526.18109 : 1"
       inkscape:vp_y="0 : 1000 : 0"
       inkscape:vp_z="744.09448 : 526.18109 : 1"
       inkscape:persp3d-origin="372.04724 : 350.78739 : 1"
       id="perspective3181" />
    <inkscape:perspective
       id="perspective3191"
       inkscape:persp3d-origin="0.5 : 0.33333333 : 1"
       inkscape:vp_z="1 : 0.5 : 1"
       inkscape:vp_y="0 : 1000 : 0"
       inkscape:vp_x="0 : 0.5 : 1"
       sodipodi:type="inkscape:persp3d" />
    <inkscape:perspective
       id="perspective4006"
       inkscape:persp3d-origin="0.5 : 0.33333333 : 1"
       inkscape:vp_z="1 : 0.5 : 1"
       inkscape:vp_y="0 : 1000 : 0"
       inkscape:vp_x="0 : 0.5 : 1"
       sodipodi:type="inkscape:persp3d" />
    <inkscape:perspective
       id="perspective4034"
       inkscape:persp3d-origin="0.5 : 0.33333333 : 1"
       inkscape:vp_z="1 : 0.5 : 1"
       inkscape:vp_y="0 : 1000 : 0"
       inkscape:vp_x="0 : 0.5 : 1"
       sodipodi:type="inkscape:persp3d" />
    <inkscape:perspective
       id="perspective4081"
       inkscape:persp3d-origin="0.5 : 0.33333333 : 1"
       inkscape:vp_z="1 : 0.5 : 1"
       inkscape:vp_y="0 : 1000 : 0"
       inkscape:vp_x="0 : 0.5 : 1"
       sodipodi:type="inkscape:persp3d" />
    <inkscape:perspective
       id="perspective4147"
       inkscape:persp3d-origin="0.5 : 0.33333333 : 1"
       inkscape:vp_z="1 : 0.5 : 1"
       inkscape:vp_y="0 : 1000 : 0"
       inkscape:vp_x="0 : 0.5 : 1"
       sodipodi:type="inkscape:persp3d" />
    <inkscape:perspective
       id="perspective3758"
       inkscape:persp3d-origin="0.5 : 0.33333333 : 1"
       inkscape:vp_z="1 : 0.5 : 1"
       inkscape:vp_y="0 : 1000 : 0"
       inkscape:vp_x="0 : 0.5 : 1"
       sodipodi:type="inkscape:persp3d" />
    <inkscape:perspective
       id="perspective3719"
       inkscape:persp3d-origin="0.5 : 0.33333333 : 1"
       inkscape:vp_z="1 : 0.5 : 1"
       inkscape:vp_y="0 : 1000 : 0"
       inkscape:vp_x="0 : 0.5 : 1"
       sodipodi:type="inkscape:persp3d" />
    <inkscape:perspective
       id="perspective3803"
       inkscape:persp3d-origin="0.5 : 0.33333333 : 1"
       inkscape:vp_z="1 : 0.5 : 1"
       inkscape:vp_y="0 : 1000 : 0"
       inkscape:vp_x="0 : 0.5 : 1"
       sodipodi:type="inkscape:persp3d" />
    <inkscape:perspective
       id="perspective3801"
       inkscape:persp3d-origin="0.5 : 0.33333333 : 1"
       inkscape:vp_z="1 : 0.5 : 1"
       inkscape:vp_y="0 : 1000 : 0"
       inkscape:vp_x="0 : 0.5 : 1"
       sodipodi:type="inkscape:persp3d" />
    <inkscape:perspective
       id="perspective3834"
       inkscape:persp3d-origin="0.5 : 0.33333333 : 1"
       inkscape:vp_z="1 : 0.5 : 1"
       inkscape:vp_y="0 : 1000 : 0"
       inkscape:vp_x="0 : 0.5 : 1"
       sodipodi:type="inkscape:persp3d" />
    <inkscape:perspective
       id="perspective3867"
       inkscape:persp3d-origin="0.5 : 0.33333333 : 1"
       inkscape:vp_z="1 : 0.5 : 1"
       inkscape:vp_y="0 : 1000 : 0"
       inkscape:vp_x="0 : 0.5 : 1"
       sodipodi:type="inkscape:persp3d" />
    <inkscape:perspective
       id="perspective3894"
       inkscape:persp3d-origin="0.5 : 0.33333333 : 1"
       inkscape:vp_z="1 : 0.5 : 1"
       inkscape:vp_y="0 : 1000 : 0"
       inkscape:vp_x="0 : 0.5 : 1"
       sodipodi:type="inkscape:persp3d" />
    <inkscape:perspective
       id="perspective3925"
       inkscape:persp3d-origin="0.5 : 0.33333333 : 1"
       inkscape:vp_z="1 : 0.5 : 1"
       inkscape:vp_y="0 : 1000 : 0"
       inkscape:vp_x="0 : 0.5 : 1"
       sodipodi:type="inkscape:persp3d" />
    <inkscape:perspective
       id="perspective3957"
       inkscape:persp3d-origin="0.5 : 0.33333333 : 1"
       inkscape:vp_z="1 : 0.5 : 1"
       inkscape:vp_y="0 : 1000 : 0"
       inkscape:vp_x="0 : 0.5 : 1"
       sodipodi:type="inkscape:persp3d" />
  </defs>
  <sodipodi:namedview
     id="base"
     pagecolor="#ffffff"
     bordercolor="#666666"
     borderopacity="1.0"
     inkscape:pageopacity="0.0"
     inkscape:pageshadow="2"
     inkscape:zoom="0.49497475"
     inkscape:cx="571.51329"
     inkscape:cy="512.69615"
     inkscape:document-units="px"
     inkscape:current-layer="g4143"
     showgrid="false"
     inkscape:window-width="1440"
     inkscape:window-height="840"
     inkscape:window-x="-4"
     inkscape:window-y="-4"
     inkscape:window-maximized="1" />
  <metadata
     id="metadata3178">
    <rdf:RDF>
      <cc:Work
         rdf:about="">
        <dc:format>image/svg+xml</dc:format>
        <dc:type
           rdf:resource="http://purl.org/dc/dcmitype/StillImage" />
        <dc:title>Qing</dc:title>
        <dc:date>2010-08-14</dc:date>
        <dc:creator>
          <cc:Agent>
            <dc:title>Alex Amies</dc:title>
          </cc:Agent>
        </dc:creator>
        <dc:rights>
          <cc:Agent>
            <dc:title>@ Alex Amies 2010</dc:title>
          </cc:Agent>
        </dc:rights>
        <dc:publisher>
          <cc:Agent>
            <dc:title>chinesenotes.com</dc:title>
          </cc:Agent>
        </dc:publisher>
        <dc:source>Yan Qin Ceremonial Inscription</dc:source>
        <dc:language>Chinese 中文</dc:language>
        <dc:description>Tracing from Tang Dynasty Ceremonial Inscription by Yan Zhenqing 颜真卿 (709－785)</dc:description>
        <cc:license
           rdf:resource="http://creativecommons.org/licenses/by/3.0/" />
      </cc:Work>
      <cc:License
         rdf:about="http://creativecommons.org/licenses/by/3.0/">
        <cc:permits
           rdf:resource="http://creativecommons.org/ns#Reproduction" />
        <cc:permits
           rdf:resource="http://creativecommons.org/ns#Distribution" />
        <cc:requires
           rdf:resource="http://creativecommons.org/ns#Notice" />
        <cc:requires
           rdf:resource="http://creativecommons.org/ns#Attribution" />
        <cc:permits
           rdf:resource="http://creativecommons.org/ns#DerivativeWorks" />
      </cc:License>
    </rdf:RDF>
  </metadata>
  <g
     inkscape:label="Layer 1"
     inkscape:groupmode="layer"
     id="layer1"
     transform="translate(0,-52.362183)">
    <g
       transform="matrix(4.7609464,0,0,4.7609464,-1421.6669,-3910.0295)"
       id="g4143"
       style="fill:#000000;fill-opacity:1">
      <g
         transform="matrix(0.99597986,0,0,0.99597986,155.95132,-12.53989)"
         id="g6881"
         style="fill:none;fill-opacity:1">
        <path
           style="fill:#000000;stroke:#000000;stroke-width:4.74180651000000000px;stroke-linecap:butt;stroke-linejoin:miter;stroke-opacity:1;fill-opacity:1"
           d="M 117.40625 270.1875 C 116.62512 270.20449 115.84701 270.23676 115.0625 270.28125 C 89.856336 269.93036 60.759253 285.97578 57.90625 313.0625 C 56.126555 328.72521 82.817707 355.32523 97.5 360.75 C 132.41027 421.47306 125.44476 554.05269 125.625 655.4375 C 128.90503 664.8771 133.52756 674.99152 140.15625 682.9375 C 111.04439 710.32616 83.259243 732.07575 59.1875 742.78125 C 35.46756 739.72231 46.668863 771.06692 49.625 784.1875 C 68.109606 832.71088 122.23053 837.48063 158.34375 805.1875 C 217.48314 690.41321 313.30741 569.39671 386.34375 430.34375 C 389.60351 396.25329 365.40603 429.26447 357.90625 441.34375 C 323.40329 476.61756 270.57269 542.72089 215.21875 604.71875 C 216.06109 508.40002 216.076 356.14756 178.8125 301.125 C 164.11979 282.23252 141.62129 269.66085 117.40625 270.1875 z "
           transform="matrix(0.21089008,0,0,0.21089008,143.23465,848.2196)"
           id="path6845" />
        <path
           sodipodi:nodetypes="ccccc"
           id="path6847"
           d="m 174.03313,901.39557 c 1.25788,2.56934 4.13388,4.14897 6.86121,4.69096 15.59112,-1.23586 38.38673,-10.21113 51.11905,-16.04898 4.94665,-8.6158 -8.79291,-15.89435 -16.1318,-12.12556 -5.99292,8.98995 -36.20889,18.99066 -41.84846,23.48358 z"
           style="fill:#000000;fill-opacity:1;stroke:#000000;stroke-width:1px;stroke-linecap:butt;stroke-linejoin:miter;stroke-opacity:1" />
        <path
           style="fill:#000000;stroke:#000000;stroke-width:4.74180651000000000px;stroke-linecap:butt;stroke-linejoin:miter;stroke-opacity:1;fill-opacity:1"
           d="M 713.59375 44.625 C 669.75034 57.384016 530.07695 48.860634 506.09375 116.375 C 512.36441 135.93026 526.06626 164.90343 544.1875 164.5 C 561.41755 164.11642 584.58156 162.83566 609.53125 160.9375 C 578.84364 189.05751 545.29965 216.52451 520.46875 248.75 C 514.55913 257.83473 516.42363 272.11091 526.90625 277 C 545.21944 283.41807 565.59392 284.71479 584.34375 280.28125 C 584.27885 280.32966 584.22108 280.389 584.15625 280.4375 C 568.65818 294.31639 547.57805 314.27917 574.3125 328.25 C 652.84341 323.66145 677.45667 256.37051 726.40625 268.59375 C 744.04074 287.29662 761.21139 309.53734 759.96875 336.75 C 756.27082 410.52358 758.74013 490.22004 758.8125 569.9375 C 739.53722 564.42716 717.78596 575.52142 706.90625 592.0625 C 698.27526 605.25111 688.86501 618.73466 678.90625 632.40625 C 670.42626 633.13439 659.30138 637.02542 652.03125 641.78125 C 614.67453 663.64277 575.981 681.68164 536.46875 697.65625 C 539.22904 663.53744 540.73417 621.54115 541.1875 577.6875 C 544.35419 578.31898 547.62735 578.49103 550.78125 578.15625 C 589.13052 572.77786 675.08551 522.43404 689.125 483.875 C 689.57263 473.88387 678.44551 467.38173 669.375 468.21875 C 651.1596 483.82543 577.92561 510.4266 541.3125 535.46875 C 541.17394 503.31959 540.52099 471.23016 539.4375 441.4375 C 542.01999 442.83206 544.98271 443.75311 547.46875 444.375 C 598.64954 452.61754 660.888 422.65719 678.875 371.78125 C 681.8282 361.85911 677.95228 349.36039 667.78125 345.375 C 632.53443 368.48984 564.37954 382.36566 538.625 421.34375 C 536.49029 373.54227 533.1922 333.6496 529.125 312.40625 C 524.68131 289.19658 501.60216 268.27624 479.15625 256.71875 C 455.50203 249.9658 460.21948 283.70667 460.6875 297.9375 C 463.75085 409.52667 450.35974 600.92506 478.34375 704.8125 C 480.73067 709.25959 484.00827 713.11371 487.875 716.25 C 445.88784 731.53376 403.26482 745.36061 360.625 759.71875 C 346.27283 763.4515 329.52589 773.26772 334.46875 790.875 C 335.69735 810.17984 345.47868 827.32865 352.90625 844.71875 C 456.42736 810.30781 548.12857 756.98234 639.34375 684.21875 C 569.53571 772.23817 485.09875 864.40778 426.78125 941.53125 C 444.88978 947.0161 463.08825 933.75603 475 920.9375 C 578.576 831.35819 665.33866 719.9923 758.5 617.71875 C 757.58792 677.17302 754.39032 735.97135 745.34375 791.65625 C 735.8331 790.80886 726.58197 791.41949 717.8125 794.46875 C 704.76907 803.11212 717.83164 817.7315 723.40625 827.4375 C 729.03939 831.16295 734.52611 834.87634 739.90625 838.5625 C 743.21871 845.94948 749.28912 849.44818 756.5625 850.21875 C 808.7245 887.53119 847.51641 923.59389 871.6875 963.5625 C 893.69982 958.40247 945.92831 947.62486 942.1875 919 C 926.23967 871.77872 886.8012 836.40514 842.9375 815.21875 C 833.44163 814.95219 823.4377 812.82111 813.1875 809.90625 C 858.52376 656.66186 865.45848 447.24221 832.375 291.625 C 822.58317 261.66105 811.73218 247.55883 781.21875 210.5 C 751.79992 198.64487 720.82464 211.35971 694.9375 225.84375 C 673.16926 236.40316 649.02126 245.27223 626.125 256.0625 C 639.68511 236.36624 633.42144 211.80591 639.65625 189.03125 C 642.28873 179.45508 646.32444 167.67727 646.53125 157.75 C 695.50274 153.05955 744.03022 146.45134 764.4375 139.4375 C 779.53077 134.25006 764.09728 99.981638 755.5625 82.90625 C 745.78243 62.468209 736.33157 47.217915 713.59375 44.625 z "
           transform="matrix(0.21089008,0,0,0.21089008,143.23465,848.2196)"
           id="path6854" />
      </g>
    </g>
  </g>
</svg>
