<?xml version="1.0" encoding="UTF-8" standalone="no"?>
<!-- Created with Inkscape (http://www.inkscape.org/) -->

<svg
   xmlns:dc="http://purl.org/dc/elements/1.1/"
   xmlns:cc="http://creativecommons.org/ns#"
   xmlns:rdf="http://www.w3.org/1999/02/22-rdf-syntax-ns#"
   xmlns:svg="http://www.w3.org/2000/svg"
   xmlns="http://www.w3.org/2000/svg"
   xmlns:sodipodi="http://sodipodi.sourceforge.net/DTD/sodipodi-0.dtd"
   xmlns:inkscape="http://www.inkscape.org/namespaces/inkscape"
   width="1000"
   height="1000"
   id="svg3173"
   version="1.1"
   inkscape:version="0.47 r22583"
   sodipodi:docname="9805.svg"
   inkscape:export-filename="E:\chinese\yan\547d.png"
   inkscape:export-xdpi="18.005705"
   inkscape:export-ydpi="18.005705">
  <title
     id="title7169">Xiang</title>
  <defs
     id="defs3175">
    <inkscape:perspective
       sodipodi:type="inkscape:persp3d"
       inkscape:vp_x="0 : 526.18109 : 1"
       inkscape:vp_y="0 : 1000 : 0"
       inkscape:vp_z="744.09448 : 526.18109 : 1"
       inkscape:persp3d-origin="372.04724 : 350.78739 : 1"
       id="perspective3181" />
    <inkscape:perspective
       id="perspective3191"
       inkscape:persp3d-origin="0.5 : 0.33333333 : 1"
       inkscape:vp_z="1 : 0.5 : 1"
       inkscape:vp_y="0 : 1000 : 0"
       inkscape:vp_x="0 : 0.5 : 1"
       sodipodi:type="inkscape:persp3d" />
    <inkscape:perspective
       id="perspective4006"
       inkscape:persp3d-origin="0.5 : 0.33333333 : 1"
       inkscape:vp_z="1 : 0.5 : 1"
       inkscape:vp_y="0 : 1000 : 0"
       inkscape:vp_x="0 : 0.5 : 1"
       sodipodi:type="inkscape:persp3d" />
    <inkscape:perspective
       id="perspective4034"
       inkscape:persp3d-origin="0.5 : 0.33333333 : 1"
       inkscape:vp_z="1 : 0.5 : 1"
       inkscape:vp_y="0 : 1000 : 0"
       inkscape:vp_x="0 : 0.5 : 1"
       sodipodi:type="inkscape:persp3d" />
    <inkscape:perspective
       id="perspective4081"
       inkscape:persp3d-origin="0.5 : 0.33333333 : 1"
       inkscape:vp_z="1 : 0.5 : 1"
       inkscape:vp_y="0 : 1000 : 0"
       inkscape:vp_x="0 : 0.5 : 1"
       sodipodi:type="inkscape:persp3d" />
    <inkscape:perspective
       id="perspective4147"
       inkscape:persp3d-origin="0.5 : 0.33333333 : 1"
       inkscape:vp_z="1 : 0.5 : 1"
       inkscape:vp_y="0 : 1000 : 0"
       inkscape:vp_x="0 : 0.5 : 1"
       sodipodi:type="inkscape:persp3d" />
    <inkscape:perspective
       id="perspective3801"
       inkscape:persp3d-origin="0.5 : 0.33333333 : 1"
       inkscape:vp_z="1 : 0.5 : 1"
       inkscape:vp_y="0 : 1000 : 0"
       inkscape:vp_x="0 : 0.5 : 1"
       sodipodi:type="inkscape:persp3d" />
    <inkscape:perspective
       id="perspective3122"
       inkscape:persp3d-origin="0.5 : 0.33333333 : 1"
       inkscape:vp_z="1 : 0.5 : 1"
       inkscape:vp_y="0 : 1000 : 0"
       inkscape:vp_x="0 : 0.5 : 1"
       sodipodi:type="inkscape:persp3d" />
    <inkscape:perspective
       id="perspective3854"
       inkscape:persp3d-origin="0.5 : 0.33333333 : 1"
       inkscape:vp_z="1 : 0.5 : 1"
       inkscape:vp_y="0 : 1000 : 0"
       inkscape:vp_x="0 : 0.5 : 1"
       sodipodi:type="inkscape:persp3d" />
    <inkscape:perspective
       id="perspective3922"
       inkscape:persp3d-origin="0.5 : 0.33333333 : 1"
       inkscape:vp_z="1 : 0.5 : 1"
       inkscape:vp_y="0 : 1000 : 0"
       inkscape:vp_x="0 : 0.5 : 1"
       sodipodi:type="inkscape:persp3d" />
    <inkscape:perspective
       id="perspective3945"
       inkscape:persp3d-origin="0.5 : 0.33333333 : 1"
       inkscape:vp_z="1 : 0.5 : 1"
       inkscape:vp_y="0 : 1000 : 0"
       inkscape:vp_x="0 : 0.5 : 1"
       sodipodi:type="inkscape:persp3d" />
    <inkscape:perspective
       id="perspective3972"
       inkscape:persp3d-origin="0.5 : 0.33333333 : 1"
       inkscape:vp_z="1 : 0.5 : 1"
       inkscape:vp_y="0 : 1000 : 0"
       inkscape:vp_x="0 : 0.5 : 1"
       sodipodi:type="inkscape:persp3d" />
    <inkscape:perspective
       id="perspective3995"
       inkscape:persp3d-origin="0.5 : 0.33333333 : 1"
       inkscape:vp_z="1 : 0.5 : 1"
       inkscape:vp_y="0 : 1000 : 0"
       inkscape:vp_x="0 : 0.5 : 1"
       sodipodi:type="inkscape:persp3d" />
    <inkscape:perspective
       id="perspective3802"
       inkscape:persp3d-origin="0.5 : 0.33333333 : 1"
       inkscape:vp_z="1 : 0.5 : 1"
       inkscape:vp_y="0 : 1000 : 0"
       inkscape:vp_x="0 : 0.5 : 1"
       sodipodi:type="inkscape:persp3d" />
    <inkscape:perspective
       id="perspective3833"
       inkscape:persp3d-origin="0.5 : 0.33333333 : 1"
       inkscape:vp_z="1 : 0.5 : 1"
       inkscape:vp_y="0 : 1000 : 0"
       inkscape:vp_x="0 : 0.5 : 1"
       sodipodi:type="inkscape:persp3d" />
    <inkscape:perspective
       id="perspective3913"
       inkscape:persp3d-origin="0.5 : 0.33333333 : 1"
       inkscape:vp_z="1 : 0.5 : 1"
       inkscape:vp_y="0 : 1000 : 0"
       inkscape:vp_x="0 : 0.5 : 1"
       sodipodi:type="inkscape:persp3d" />
  </defs>
  <sodipodi:namedview
     id="base"
     pagecolor="#ffffff"
     bordercolor="#666666"
     borderopacity="1.0"
     inkscape:pageopacity="0.0"
     inkscape:pageshadow="2"
     inkscape:zoom="0.49497475"
     inkscape:cx="118.40595"
     inkscape:cy="520.83683"
     inkscape:document-units="px"
     inkscape:current-layer="g4634"
     showgrid="false"
     inkscape:window-width="1440"
     inkscape:window-height="840"
     inkscape:window-x="-4"
     inkscape:window-y="-4"
     inkscape:window-maximized="1" />
  <metadata
     id="metadata3178">
    <rdf:RDF>
      <cc:Work
         rdf:about="">
        <dc:format>image/svg+xml</dc:format>
        <dc:type
           rdf:resource="http://purl.org/dc/dcmitype/StillImage" />
        <dc:title>Xiang</dc:title>
        <dc:date>2010-08-21</dc:date>
        <dc:creator>
          <cc:Agent>
            <dc:title>Alex Amies</dc:title>
          </cc:Agent>
        </dc:creator>
        <dc:rights>
          <cc:Agent>
            <dc:title>@ Alex Amies 2010</dc:title>
          </cc:Agent>
        </dc:rights>
        <dc:publisher>
          <cc:Agent>
            <dc:title>chinesenotes.com</dc:title>
          </cc:Agent>
        </dc:publisher>
        <dc:source>Yan Qin Ceremonial Inscription</dc:source>
        <dc:language>Chinese 中文</dc:language>
        <dc:description>Tracing from Tang Dynasty Ceremonial Inscription by Yan Zhenqing 颜真卿 (709－785)</dc:description>
        <cc:license
           rdf:resource="http://creativecommons.org/licenses/by/3.0/" />
      </cc:Work>
      <cc:License
         rdf:about="http://creativecommons.org/licenses/by/3.0/">
        <cc:permits
           rdf:resource="http://creativecommons.org/ns#Reproduction" />
        <cc:permits
           rdf:resource="http://creativecommons.org/ns#Distribution" />
        <cc:requires
           rdf:resource="http://creativecommons.org/ns#Notice" />
        <cc:requires
           rdf:resource="http://creativecommons.org/ns#Attribution" />
        <cc:permits
           rdf:resource="http://creativecommons.org/ns#DerivativeWorks" />
      </cc:License>
    </rdf:RDF>
  </metadata>
  <g
     inkscape:label="Layer 1"
     inkscape:groupmode="layer"
     id="layer1"
     transform="translate(0,-52.362183)">
    <g
       transform="matrix(4.7609464,0,0,4.7609464,-444.07486,-2879.5352)"
       id="g4634"
       style="fill:#000000;fill-opacity:1">
      <path
         style="fill:#000000;stroke:#000000;stroke-width:4.76094626999999980px;stroke-linecap:butt;stroke-linejoin:miter;stroke-opacity:1;fill-opacity:1"
         d="M 324.875 73.53125 C 306.76685 74.108139 298.22673 94.326837 285.3125 104.5625 C 224.52926 147.5418 151.7104 165.98778 81.1875 186.5625 C 61.360158 189.22763 62.017095 215.24246 60.125 231.40625 C 66.732956 246.08968 89.795598 265.51192 105.1875 251.875 C 113.20293 231.16336 138.76234 232.50772 156.4375 226.125 C 183.82267 218.77645 211.17552 211.36403 238.53125 203.90625 C 234.10497 209.58392 230.58007 216.1413 228.40625 223.28125 C 223.64535 238.91825 242.83216 250.07616 244.03125 264.6875 C 249.91911 336.43368 242.4776 410.61877 237.96875 483.1875 C 236.60874 505.066 228.14437 530.63622 232.53125 548.75 C 232.87133 550.15454 233.66113 551.48941 234.8125 552.6875 C 227.97154 556.15791 221.12581 559.56587 214.21875 562.90625 C 180.10371 578.06387 146.03799 593.34214 111.8125 608.25 C 111.66967 625.18626 109.76776 642.93919 119.8125 657.78125 C 144.9731 694.493 187.58029 710.26763 229.8125 696.375 C 296.25946 634.85738 357.83219 567.65846 421.25 502.84375 C 432.58558 501.71045 443.94567 500.57103 455.28125 499.4375 C 462.26004 486.40193 469.63623 471.10858 466.1875 456.09375 C 457.01911 439.86378 435.42829 435.61396 418.3125 437.4375 C 400.92176 446.52024 397.79669 471.22084 376.46875 475.875 C 353.58155 488.15209 330.89401 500.8259 308.15625 513.40625 C 311.52634 504.36983 314.13036 494.19491 316.65625 482.96875 C 330.37815 421.98222 355.22824 361.38872 356.46875 299.71875 C 357.01954 272.32569 347.63296 243.39296 333.40625 219.4375 C 325.08463 205.42507 311.94059 193.76918 297.65625 187.6875 C 303.14912 186.17681 308.63294 184.66984 314.125 183.15625 C 334.62264 197.58306 361.02359 190.83599 383.6875 186.84375 C 407.05813 177.98587 427.19724 162.59531 448.75 150.3125 C 465.54529 141.43695 466.49943 117.47759 449.8125 108.28125 C 411.04149 95.615609 370.04095 74.272049 328.625 73.6875 C 327.32847 73.542746 326.08221 73.492791 324.875 73.53125 z "
         transform="matrix(0.21004227,0,0,0.21004227,93.274493,615.82239)"
         id="path4292" />
      <path
         style="fill:#000000;stroke:#000000;stroke-width:4.76094626999999980px;stroke-linecap:butt;stroke-linejoin:miter;stroke-opacity:1;fill-opacity:1"
         d="M 835.09375 10.125 C 822.12977 10.317185 810.47774 18.086963 797.5 19.1875 C 750.91876 30.441901 704.40708 42.034315 657.65625 52.53125 C 621.9931 60.007126 575.78978 66.837157 540.375 52.65625 C 529.47329 47.37179 525.80504 59.57644 519.875 65.84375 C 516.24678 96.896975 541.59505 118.27418 569.09375 125.1875 C 585.89175 127.49066 598.6152 113.54971 613.84375 110.8125 C 614.15557 110.7467 614.46921 110.68991 614.78125 110.625 C 608.07196 130.82384 605.3327 153.62156 599.1875 174.65625 C 592.56521 197.32402 585.46422 219.90124 576.46875 241.71875 C 575.36488 244.39431 570.85477 248.89891 572.59375 249.46875 C 575.31951 250.36227 580.29983 250.62487 585.40625 249.9375 C 581.92249 251.46486 578.43566 253.05233 574.96875 254.65625 C 569.86055 250.2511 564.00337 247.16814 556.78125 246.65625 C 550.73628 245.72011 544.66229 245.1298 538.59375 244.375 C 512.531 257.53297 527.32886 291.1938 524.90625 314.4375 C 529.82374 428.73887 531.66927 543.16181 531.78125 657.5625 C 533.45607 664.40017 538.84428 669.13595 545.78125 671.875 C 528.62695 677.72516 511.44713 683.46626 494.1875 688.9375 C 465.85854 687.28512 440.95951 664.22286 412.75 684.78125 C 393.70326 710.35758 410.10637 741.82624 427.4375 762.96875 C 449.86227 792.03185 484.61996 770.81369 506.46875 753.46875 C 521.24827 745.55799 536.43338 738.603 551.84375 732.21875 C 542.61332 749.24265 537.62304 769.03312 525.21875 784.21875 C 504.85894 818.58674 484.16672 852.74138 463.78125 887.09375 C 440.04093 909.60398 412.28538 927.44086 388.78125 950.21875 C 383.86824 967.65276 409.22867 970.8256 419.46875 962.3125 C 450.56078 945.56844 479.61696 925.10089 505.0625 900.5625 C 531.70661 876.84799 562.36807 857.26714 596.34375 845.96875 C 623.72005 833.64899 644.84921 806.1293 647.4375 776.0625 C 644.39292 752.73605 623.42546 738.32332 606.6875 724.4375 C 603.64883 722.05007 600.15381 718.58144 596.40625 715.28125 C 643.8681 698.52598 692.3715 684.2234 738.125 663.09375 C 746.86258 657.60302 761.72157 654.66829 774.28125 649.9375 C 774.23479 650.13501 774.20291 650.33377 774.15625 650.53125 C 768.87674 677.64322 762.15641 705.69365 765.78125 733.34375 C 765.87249 733.56559 765.96942 733.77992 766.0625 734 C 761.14067 735.71902 756.16357 738.00002 751.125 740.875 C 741.85887 746.84604 718.86929 760.86245 731.71875 772.84375 C 777.18864 850.21646 828.68561 918.43086 890.78125 982.4375 C 904.58319 997.40268 924.55494 982.44829 936.03125 970.46875 C 952.00104 951.05371 963.15326 922.28 955.15625 897.3125 C 923.49962 849.42804 885.43566 803.08883 844.6875 761.78125 C 876.16782 726.63263 887.63318 663.8102 889.34375 619.4375 C 895.99889 510.26762 898.52711 401.19845 909.25 292 C 899.39955 243.96015 864.32214 202.89336 814.21875 196.71875 C 750.21959 199.87392 688.73246 224.70105 625.90625 237.25 C 618.61888 238.32239 611.63017 240.09692 604.8125 242.34375 C 647.94897 221.02923 706.03498 199.44706 727.3125 154.25 C 728.74507 137.69162 715.55516 121.43721 702.375 112.03125 C 697.2006 108.70142 691.07005 105.13042 684.4375 101.875 C 740.32556 97.993287 797.24123 98.303355 850.15625 81.28125 C 868.25123 76.278733 887.5812 74.662605 904.71875 66.84375 C 895.97941 44.809995 859.57026 21.902761 837.71875 10.1875 C 836.84213 10.128708 835.95802 10.112188 835.09375 10.125 z M 787.625 256.0625 C 804.73542 255.2344 802.89826 284.24884 801.28125 298.34375 C 795.30868 399.85982 799.70414 504.0234 783.21875 604.84375 C 763.12323 593.78212 733.53944 609.89452 712.5625 615.28125 C 672.36844 627.75095 632.62585 641.68111 592.875 655.5625 C 595.12737 618.25546 597.51667 580.9459 599.53125 543.625 C 600.80834 543.78379 602.08802 543.92353 603.28125 544.15625 C 628.56159 546.56415 652.41142 561.88652 677.8125 556.71875 C 701.82143 546.88235 721.78251 516.02576 738.25 495.71875 C 741.99658 490.81436 752.33266 486.82147 751.125 482.4375 C 748.97848 474.64793 731.77343 478.27117 722.1875 478.875 C 683.56306 481.33236 634.80723 488.03423 601.1875 510.4375 C 602.41437 484.28237 603.39396 458.13405 603.9375 431.96875 C 609.69717 435.21138 616.64246 437.24239 623.96875 437.875 C 658.84878 436.17272 692.81242 420.41394 722.9375 403.59375 C 735.47555 395.72729 748.15261 384.71561 756.21875 373.59375 C 758.68668 370.19082 757.96523 361.50574 754.53125 360 C 716.48577 355.36312 675.23214 367.2722 638.03125 375.78125 C 621.22497 373.16744 613.62349 378.66268 604.4375 386 C 604.41906 357.90794 603.76526 329.82639 602.3125 301.71875 C 609.90072 303.46002 617.63802 303.76687 624.5625 302.46875 C 676.05447 287.90044 726.86448 269.9241 779.0625 258.375 C 782.3355 256.90771 785.18065 256.1808 787.625 256.0625 z "
         transform="matrix(0.21004227,0,0,0.21004227,93.274493,615.82239)"
         id="path4298" />
    </g>
  </g>
</svg>
