<?xml version="1.0" encoding="UTF-8" standalone="no"?>
<!-- Created with Inkscape (http://www.inkscape.org/) -->

<svg
   xmlns:dc="http://purl.org/dc/elements/1.1/"
   xmlns:cc="http://creativecommons.org/ns#"
   xmlns:rdf="http://www.w3.org/1999/02/22-rdf-syntax-ns#"
   xmlns:svg="http://www.w3.org/2000/svg"
   xmlns="http://www.w3.org/2000/svg"
   xmlns:sodipodi="http://sodipodi.sourceforge.net/DTD/sodipodi-0.dtd"
   xmlns:inkscape="http://www.inkscape.org/namespaces/inkscape"
   width="1000"
   height="1000"
   id="svg3173"
   version="1.1"
   inkscape:version="0.47 r22583"
   sodipodi:docname="980d.svg"
   inkscape:export-filename="E:\chinese\yan\980d.png"
   inkscape:export-xdpi="18.005705"
   inkscape:export-ydpi="18.005705">
  <title
     id="title5695">Kui</title>
  <defs
     id="defs3175">
    <inkscape:perspective
       sodipodi:type="inkscape:persp3d"
       inkscape:vp_x="0 : 526.18109 : 1"
       inkscape:vp_y="0 : 1000 : 0"
       inkscape:vp_z="744.09448 : 526.18109 : 1"
       inkscape:persp3d-origin="372.04724 : 350.78739 : 1"
       id="perspective3181" />
    <inkscape:perspective
       id="perspective3191"
       inkscape:persp3d-origin="0.5 : 0.33333333 : 1"
       inkscape:vp_z="1 : 0.5 : 1"
       inkscape:vp_y="0 : 1000 : 0"
       inkscape:vp_x="0 : 0.5 : 1"
       sodipodi:type="inkscape:persp3d" />
    <inkscape:perspective
       id="perspective4006"
       inkscape:persp3d-origin="0.5 : 0.33333333 : 1"
       inkscape:vp_z="1 : 0.5 : 1"
       inkscape:vp_y="0 : 1000 : 0"
       inkscape:vp_x="0 : 0.5 : 1"
       sodipodi:type="inkscape:persp3d" />
    <inkscape:perspective
       id="perspective4034"
       inkscape:persp3d-origin="0.5 : 0.33333333 : 1"
       inkscape:vp_z="1 : 0.5 : 1"
       inkscape:vp_y="0 : 1000 : 0"
       inkscape:vp_x="0 : 0.5 : 1"
       sodipodi:type="inkscape:persp3d" />
    <inkscape:perspective
       id="perspective4081"
       inkscape:persp3d-origin="0.5 : 0.33333333 : 1"
       inkscape:vp_z="1 : 0.5 : 1"
       inkscape:vp_y="0 : 1000 : 0"
       inkscape:vp_x="0 : 0.5 : 1"
       sodipodi:type="inkscape:persp3d" />
    <inkscape:perspective
       id="perspective4147"
       inkscape:persp3d-origin="0.5 : 0.33333333 : 1"
       inkscape:vp_z="1 : 0.5 : 1"
       inkscape:vp_y="0 : 1000 : 0"
       inkscape:vp_x="0 : 0.5 : 1"
       sodipodi:type="inkscape:persp3d" />
    <inkscape:perspective
       id="perspective3737"
       inkscape:persp3d-origin="0.5 : 0.33333333 : 1"
       inkscape:vp_z="1 : 0.5 : 1"
       inkscape:vp_y="0 : 1000 : 0"
       inkscape:vp_x="0 : 0.5 : 1"
       sodipodi:type="inkscape:persp3d" />
    <inkscape:perspective
       id="perspective3750"
       inkscape:persp3d-origin="0.5 : 0.33333333 : 1"
       inkscape:vp_z="1 : 0.5 : 1"
       inkscape:vp_y="0 : 1000 : 0"
       inkscape:vp_x="0 : 0.5 : 1"
       sodipodi:type="inkscape:persp3d" />
    <inkscape:perspective
       id="perspective3778"
       inkscape:persp3d-origin="0.5 : 0.33333333 : 1"
       inkscape:vp_z="1 : 0.5 : 1"
       inkscape:vp_y="0 : 1000 : 0"
       inkscape:vp_x="0 : 0.5 : 1"
       sodipodi:type="inkscape:persp3d" />
    <inkscape:perspective
       id="perspective5705"
       inkscape:persp3d-origin="0.5 : 0.33333333 : 1"
       inkscape:vp_z="1 : 0.5 : 1"
       inkscape:vp_y="0 : 1000 : 0"
       inkscape:vp_x="0 : 0.5 : 1"
       sodipodi:type="inkscape:persp3d" />
  </defs>
  <sodipodi:namedview
     id="base"
     pagecolor="#ffffff"
     bordercolor="#666666"
     borderopacity="1.0"
     inkscape:pageopacity="0.0"
     inkscape:pageshadow="2"
     inkscape:zoom="0.49497475"
     inkscape:cx="658.06019"
     inkscape:cy="531.7752"
     inkscape:document-units="px"
     inkscape:current-layer="layer1"
     showgrid="false"
     inkscape:window-width="1440"
     inkscape:window-height="840"
     inkscape:window-x="-4"
     inkscape:window-y="-4"
     inkscape:window-maximized="1" />
  <metadata
     id="metadata3178">
    <rdf:RDF>
      <cc:Work
         rdf:about="">
        <dc:format>image/svg+xml</dc:format>
        <dc:type
           rdf:resource="http://purl.org/dc/dcmitype/StillImage" />
        <dc:title>Kui</dc:title>
        <dc:date>2010-08-14</dc:date>
        <dc:creator>
          <cc:Agent>
            <dc:title>Alex Amies</dc:title>
          </cc:Agent>
        </dc:creator>
        <dc:rights>
          <cc:Agent>
            <dc:title>@ Alex Amies 2010</dc:title>
          </cc:Agent>
        </dc:rights>
        <dc:publisher>
          <cc:Agent>
            <dc:title>chinesenotes.com</dc:title>
          </cc:Agent>
        </dc:publisher>
        <dc:source>Yan Qin Ceremonial Inscription</dc:source>
        <dc:language>Chinese 中文</dc:language>
        <dc:description>Tracing from Tang Dynasty Ceremonial Inscription by Yan Zhenqing 颜真卿 (709－785)</dc:description>
        <cc:license
           rdf:resource="http://creativecommons.org/licenses/by/3.0/" />
      </cc:Work>
      <cc:License
         rdf:about="http://creativecommons.org/licenses/by/3.0/">
        <cc:permits
           rdf:resource="http://creativecommons.org/ns#Reproduction" />
        <cc:permits
           rdf:resource="http://creativecommons.org/ns#Distribution" />
        <cc:requires
           rdf:resource="http://creativecommons.org/ns#Notice" />
        <cc:requires
           rdf:resource="http://creativecommons.org/ns#Attribution" />
        <cc:permits
           rdf:resource="http://creativecommons.org/ns#DerivativeWorks" />
      </cc:License>
    </rdf:RDF>
  </metadata>
  <g
     inkscape:label="Layer 1"
     inkscape:groupmode="layer"
     id="layer1"
     transform="translate(0,-52.362183)">
    <g
       transform="matrix(4.7609464,0,0,4.7609464,-464.32663,-930.63996)"
       id="g3037"
       style="fill:none;fill-opacity:1">
      <path
         style="fill:#000000;stroke:#000000;stroke-width:4.76094626999999980px;stroke-linecap:butt;stroke-linejoin:miter;stroke-opacity:1;fill-opacity:1"
         d="M 261.34375 64.0625 C 258.08051 64.309462 255.21929 66.488204 253.15625 71.90625 C 252.77115 92.807151 247.99402 129.12931 242.3125 171.0625 C 216.54383 178.91495 194.56189 187.58983 180.125 196.65625 C 161.66267 213.59946 161.69698 243.03287 174.78125 263.15625 C 183.24098 278.62947 201.30067 289.32123 219.09375 284.59375 C 222.12973 283.46484 225.17196 282.37092 228.21875 281.28125 C 223.25853 326.12271 220.13176 368.83535 222.15625 399.96875 C 217.54985 403.77794 213.64656 408.00941 211.375 413.0625 C 200.1384 440.99702 234.55071 450.34937 255.125 453.625 C 275.1373 465.61425 292.77697 443.66479 309.96875 446.71875 C 308.81965 465.66475 299.17625 483.71098 296.375 505.125 C 284.30869 533.30444 272.35449 561.77187 259.8125 590.03125 C 236.95942 571.20639 213.09971 553.91768 187.71875 539.09375 C 150.78176 519.49079 104.64767 538.31922 109.625 584.375 C 118.64776 605.05722 145.20551 606.26852 159.1875 622.28125 C 178.02785 633.24723 199.22715 650.46355 221.15625 670.84375 C 213.26814 685.8438 204.98031 700.61378 196.1875 715.09375 C 171.27551 748.70375 137.27284 788.46959 115.3125 824.5 C 99.22112 847.91224 116.09431 853.05585 139.46875 835.5 C 184.1618 820.48383 216.7787 784.13577 248.71875 751.1875 C 257.07983 741.81301 265.06103 732.27812 272.71875 722.5625 C 316.66056 769.34256 358.49382 819.45803 385.375 849.03125 C 408.49216 850.96796 436.05844 841.25277 446.5 819.09375 C 456.38134 797.20044 444.75076 773.38936 430.03125 756.90625 C 394.64223 721.62375 359.86617 683.79018 323.40625 647.90625 C 350.30846 601.7944 371.90286 552.58977 390.28125 500.5 C 404.03386 467.18356 410.39403 429.80201 418.53125 393.71875 C 409.56344 363.44299 381.80924 352.57661 350.78125 335.09375 C 328.51557 340.12678 310.45506 351.97328 289.90625 363.09375 C 299.0157 331.38802 308.52636 292.59783 316.46875 253.53125 C 365.329 239.29632 414.22379 225.29153 461.0625 204.21875 C 474.19557 198.02347 492.42894 194.67571 497.28125 178.9375 C 500.20466 158.56013 482.538 142.19513 466.15625 133.375 C 435.05186 133.48399 384.23403 139.50574 332.9375 149.28125 C 334.3759 134.39854 335.1284 120.70105 335.03125 108.84375 C 329.28826 84.373152 303.2101 83.740488 283.53125 76.40625 C 277.5403 72.312848 268.52288 63.519183 261.34375 64.0625 z "
         transform="matrix(0.21004227,0,0,0.21004227,97.52822,206.472)"
         id="path8786" />
      <path
         style="fill:#000000;stroke:#000000;stroke-width:4.76094626999999980px;stroke-linecap:butt;stroke-linejoin:miter;stroke-opacity:1;fill-opacity:1"
         d="M 774.875 58.1875 C 698.27987 58.355427 555.57041 74.84644 522.78125 148.3125 C 519.47015 162.27283 529.4909 175.27535 542.25 179.78125 C 574.92395 194.76461 596.75869 172.17068 625.75 161.9375 C 627.64863 161.23738 629.56398 160.54104 631.46875 159.84375 C 628.17397 161.9817 625.16609 164.56984 622.5625 167.78125 C 611.4136 192.96694 621.34554 219.31221 607 244.09375 C 599.35897 257.49239 587.86295 269.85214 586.3125 285.8125 C 585.63464 293.95458 590.09504 302.92054 598.53125 304.875 C 614.29675 292.36918 627.08649 281.89883 638.75 272.0625 C 644.5108 281.22987 657.12448 288.31841 669.46875 286.9375 C 692.06415 286.97083 713.74218 278.99698 733.6875 269.15625 C 758.11244 266.17804 775.00203 293.47275 777.34375 315.0625 C 786.58771 415.49208 781.78951 516.08704 776.6875 616.625 C 765.98454 613.30998 754.25678 612.38218 743.34375 612.5625 C 690.31638 612.71247 641.1149 635.6576 589.34375 643.9375 C 583.76366 645.0097 578.16885 646.03912 572.5625 647.0625 C 571.62781 639.60156 571.13334 632.12053 572.3125 624.53125 C 572.6834 601.31259 572.97606 578.06997 573.375 554.84375 C 611.53812 552.33764 654.99984 550.61393 692.3125 528.5 C 700.58698 523.59599 701.71932 501.63217 692.3125 499.625 C 644.78673 489.48426 614.15079 513.75081 573.875 529.90625 C 574.5975 495.97934 575.64823 462.08739 577.625 428.21875 C 577.88161 426.81561 578.10059 425.32365 578.3125 423.8125 C 610.2961 429.6783 643.48212 427.05215 682.6875 419.5 C 688.55837 414.91307 692.15275 406.5054 688.34375 399.5 C 658.57218 381.23844 615.81789 384.11023 579.8125 395.0625 C 579.19881 356.83138 569.88499 310.55229 552.84375 301.90625 L 550.4375 302.4375 C 535.05441 310.12062 539.4025 330.82566 534.6875 344.75 C 526.16512 436.28995 530.93175 525.36052 524 615.65625 C 524.01084 629.1013 520.91095 643.25847 520.5 657.03125 C 495.35265 662.46383 470.59246 669.29372 447.03125 679.96875 C 436.40472 684.33916 420.56185 689.41312 422.21875 703.90625 C 425.36193 723.33858 440.73458 739.18079 457.28125 748.6875 C 479.23783 761.45902 504.84968 741.92446 525.25 731.0625 C 549.85819 721.05504 568.27152 711.13775 589.59375 696.0625 C 625.66982 672.64645 670.50808 674.53958 711.375 667.25 C 732.40786 664.51773 753.58263 662.72837 774.5625 659.65625 C 773.34952 684.48232 772.21122 709.3158 771.40625 734.125 C 769.65838 748.33039 762.05004 766.74788 766 781 C 755.89074 779.08816 745.72492 777.53301 735.59375 776.15625 C 725.361 775.03476 714.68215 768.63067 704.59375 773.375 C 695.78876 780.00981 703.18225 791.24118 708.8125 797.28125 C 756.75199 830.82188 758.98505 900.19809 797.03125 938.65625 C 811.65764 952.64496 832.83531 963.39505 853.34375 957.09375 C 898.48642 941.79445 903.20937 886.4154 888.25 847.65625 C 874.80109 824.86888 850.07729 812.61854 827.625 800.46875 C 825.05396 799.18178 822.46563 797.96527 819.84375 796.8125 C 825.96198 793.50801 831.23095 788.60407 834.78125 782.125 C 871.00615 726.1545 858.89196 656.67329 867.15625 593.1875 C 875.42801 505.19145 871.15741 419.04454 882.96875 328.5 C 887.04236 307.11097 874.80128 276.9973 857.90625 259.03125 C 822.55808 239.74851 792.01146 226.03812 742.40625 229.25 C 723.60189 230.70689 703.07959 230.04101 683.90625 232.9375 C 712.23283 222.60278 732.78227 214.69836 721.625 180.25 C 711.89686 155.8303 695.92359 144.95704 670.65625 148.5625 C 666.20497 149.26982 661.58652 149.93832 656.96875 150.8125 C 690.29041 139.53999 724.55176 130.57238 759.84375 130.53125 C 794.43026 125.86667 851.51347 154.41234 877.34375 124.46875 C 886.43492 112.62523 883.41966 94.988815 871.28125 86.5 C 847.55426 69.271801 818.01808 61.819765 789.28125 58.34375 C 784.8149 58.221891 779.98134 58.176305 774.875 58.1875 z M 673.0625 679.96875 C 619.3148 722.52404 585.88702 776.22175 537.09375 817.1875 C 499.74817 842.91846 461.86023 870.14313 430.28125 904.125 C 423.49166 913.32548 396.40535 915.39921 411.375 924.25 C 432.92614 933.01176 454.5444 919.28527 472.21875 908.03125 C 542.58154 869.86584 597.2956 811.18406 660.125 762.90625 C 677.35815 751.93332 700.73846 743.51896 706.53125 721.6875 C 711.79433 701.13554 692.45564 682.06657 673.0625 679.96875 z "
         transform="matrix(0.21004227,0,0,0.21004227,97.52822,206.472)"
         id="path8798" />
    </g>
  </g>
</svg>
