<?xml version="1.0" encoding="UTF-8" standalone="no"?>
<!-- Created with Inkscape (http://www.inkscape.org/) -->

<svg
   xmlns:dc="http://purl.org/dc/elements/1.1/"
   xmlns:cc="http://creativecommons.org/ns#"
   xmlns:rdf="http://www.w3.org/1999/02/22-rdf-syntax-ns#"
   xmlns:svg="http://www.w3.org/2000/svg"
   xmlns="http://www.w3.org/2000/svg"
   xmlns:sodipodi="http://sodipodi.sourceforge.net/DTD/sodipodi-0.dtd"
   xmlns:inkscape="http://www.inkscape.org/namespaces/inkscape"
   width="1000"
   height="1000"
   id="svg3173"
   version="1.1"
   inkscape:version="0.47 r22583"
   sodipodi:docname="9817.svg"
   inkscape:export-filename="E:\chinese\yan\9817.png"
   inkscape:export-xdpi="18.005705"
   inkscape:export-ydpi="18.005705">
  <title
     id="title2825">Po</title>
  <defs
     id="defs3175">
    <inkscape:perspective
       sodipodi:type="inkscape:persp3d"
       inkscape:vp_x="0 : 526.18109 : 1"
       inkscape:vp_y="0 : 1000 : 0"
       inkscape:vp_z="744.09448 : 526.18109 : 1"
       inkscape:persp3d-origin="372.04724 : 350.78739 : 1"
       id="perspective3181" />
    <inkscape:perspective
       id="perspective3191"
       inkscape:persp3d-origin="0.5 : 0.33333333 : 1"
       inkscape:vp_z="1 : 0.5 : 1"
       inkscape:vp_y="0 : 1000 : 0"
       inkscape:vp_x="0 : 0.5 : 1"
       sodipodi:type="inkscape:persp3d" />
    <inkscape:perspective
       id="perspective4006"
       inkscape:persp3d-origin="0.5 : 0.33333333 : 1"
       inkscape:vp_z="1 : 0.5 : 1"
       inkscape:vp_y="0 : 1000 : 0"
       inkscape:vp_x="0 : 0.5 : 1"
       sodipodi:type="inkscape:persp3d" />
    <inkscape:perspective
       id="perspective4034"
       inkscape:persp3d-origin="0.5 : 0.33333333 : 1"
       inkscape:vp_z="1 : 0.5 : 1"
       inkscape:vp_y="0 : 1000 : 0"
       inkscape:vp_x="0 : 0.5 : 1"
       sodipodi:type="inkscape:persp3d" />
    <inkscape:perspective
       id="perspective4081"
       inkscape:persp3d-origin="0.5 : 0.33333333 : 1"
       inkscape:vp_z="1 : 0.5 : 1"
       inkscape:vp_y="0 : 1000 : 0"
       inkscape:vp_x="0 : 0.5 : 1"
       sodipodi:type="inkscape:persp3d" />
    <inkscape:perspective
       id="perspective4147"
       inkscape:persp3d-origin="0.5 : 0.33333333 : 1"
       inkscape:vp_z="1 : 0.5 : 1"
       inkscape:vp_y="0 : 1000 : 0"
       inkscape:vp_x="0 : 0.5 : 1"
       sodipodi:type="inkscape:persp3d" />
    <inkscape:perspective
       id="perspective3737"
       inkscape:persp3d-origin="0.5 : 0.33333333 : 1"
       inkscape:vp_z="1 : 0.5 : 1"
       inkscape:vp_y="0 : 1000 : 0"
       inkscape:vp_x="0 : 0.5 : 1"
       sodipodi:type="inkscape:persp3d" />
    <inkscape:perspective
       id="perspective3750"
       inkscape:persp3d-origin="0.5 : 0.33333333 : 1"
       inkscape:vp_z="1 : 0.5 : 1"
       inkscape:vp_y="0 : 1000 : 0"
       inkscape:vp_x="0 : 0.5 : 1"
       sodipodi:type="inkscape:persp3d" />
    <inkscape:perspective
       id="perspective3778"
       inkscape:persp3d-origin="0.5 : 0.33333333 : 1"
       inkscape:vp_z="1 : 0.5 : 1"
       inkscape:vp_y="0 : 1000 : 0"
       inkscape:vp_x="0 : 0.5 : 1"
       sodipodi:type="inkscape:persp3d" />
    <inkscape:perspective
       id="perspective5705"
       inkscape:persp3d-origin="0.5 : 0.33333333 : 1"
       inkscape:vp_z="1 : 0.5 : 1"
       inkscape:vp_y="0 : 1000 : 0"
       inkscape:vp_x="0 : 0.5 : 1"
       sodipodi:type="inkscape:persp3d" />
    <inkscape:perspective
       id="perspective6316"
       inkscape:persp3d-origin="0.5 : 0.33333333 : 1"
       inkscape:vp_z="1 : 0.5 : 1"
       inkscape:vp_y="0 : 1000 : 0"
       inkscape:vp_x="0 : 0.5 : 1"
       sodipodi:type="inkscape:persp3d" />
    <inkscape:perspective
       id="perspective6388"
       inkscape:persp3d-origin="0.5 : 0.33333333 : 1"
       inkscape:vp_z="1 : 0.5 : 1"
       inkscape:vp_y="0 : 1000 : 0"
       inkscape:vp_x="0 : 0.5 : 1"
       sodipodi:type="inkscape:persp3d" />
  </defs>
  <sodipodi:namedview
     id="base"
     pagecolor="#ffffff"
     bordercolor="#666666"
     borderopacity="1.0"
     inkscape:pageopacity="0.0"
     inkscape:pageshadow="2"
     inkscape:zoom="0.49497475"
     inkscape:cx="316.62863"
     inkscape:cy="531.7752"
     inkscape:document-units="px"
     inkscape:current-layer="layer1"
     showgrid="false"
     inkscape:window-width="1440"
     inkscape:window-height="840"
     inkscape:window-x="-4"
     inkscape:window-y="-4"
     inkscape:window-maximized="1" />
  <metadata
     id="metadata3178">
    <rdf:RDF>
      <cc:Work
         rdf:about="">
        <dc:format>image/svg+xml</dc:format>
        <dc:type
           rdf:resource="http://purl.org/dc/dcmitype/StillImage" />
        <dc:title>Po</dc:title>
        <dc:date>2010-08-14</dc:date>
        <dc:creator>
          <cc:Agent>
            <dc:title>Alex Amies</dc:title>
          </cc:Agent>
        </dc:creator>
        <dc:rights>
          <cc:Agent>
            <dc:title>@ Alex Amies 2010</dc:title>
          </cc:Agent>
        </dc:rights>
        <dc:publisher>
          <cc:Agent>
            <dc:title>chinesenotes.com</dc:title>
          </cc:Agent>
        </dc:publisher>
        <dc:source>Yan Qin Ceremonial Inscription</dc:source>
        <dc:language>Chinese 中文</dc:language>
        <dc:description>Tracing from Tang Dynasty Ceremonial Inscription by Yan Zhenqing 颜真卿 (709－785)</dc:description>
        <cc:license
           rdf:resource="http://creativecommons.org/licenses/by/3.0/" />
      </cc:Work>
      <cc:License
         rdf:about="http://creativecommons.org/licenses/by/3.0/">
        <cc:permits
           rdf:resource="http://creativecommons.org/ns#Reproduction" />
        <cc:permits
           rdf:resource="http://creativecommons.org/ns#Distribution" />
        <cc:requires
           rdf:resource="http://creativecommons.org/ns#Notice" />
        <cc:requires
           rdf:resource="http://creativecommons.org/ns#Attribution" />
        <cc:permits
           rdf:resource="http://creativecommons.org/ns#DerivativeWorks" />
      </cc:License>
    </rdf:RDF>
  </metadata>
  <g
     inkscape:label="Layer 1"
     inkscape:groupmode="layer"
     id="layer1"
     transform="translate(0,-52.362183)">
    <path
       style="fill:#000000;stroke:#000000;stroke-width:4.74180651000000000px;stroke-linecap:butt;stroke-linejoin:miter;stroke-opacity:1;fill-opacity:1"
       d="M 748.75 28.15625 C 668.48805 44.421691 606.21369 65.73815 523.15625 85.8125 C 512.16356 90.18141 480.49903 94.618 481.0625 108.8125 C 480.52221 127.82312 497.1725 143.31821 515.5625 144.6875 C 547.17979 133.98574 576.02745 127.96388 604.1875 119.09375 C 603.52986 121.92471 603.04594 125.10873 602.78125 128.65625 C 596.72834 163.74273 566.41548 188.71904 550.15625 219.5625 C 546.69075 226.13313 540.40442 232.55833 541.8125 240.53125 C 571.56676 240.37098 635.4468 208.40331 663.46875 193.53125 C 700.43013 183.26599 701.89641 155.20092 684.5 124.375 C 678.58075 114.93037 670.44275 106.20719 659.25 103.40625 C 656.54962 102.64981 653.89953 101.96145 651.28125 101.3125 C 674.45491 93.503076 699.18349 90.820877 723.625 92.4375 C 755.46472 94.14346 784.02006 90.72695 815.84375 86.84375 C 831.10739 87.88704 851.08295 87.81008 855.4375 71.90625 C 863.22933 55.53042 848.50626 46.312225 833.53125 41.5625 C 806.25249 32.409817 777.00264 29.214432 748.75 28.15625 z M 250.5 29.9375 C 237.61343 32.60358 230.66338 46.211988 234.03125 58.4375 C 236.8011 87.789419 237.71435 117.57092 237.9375 147.53125 C 202.17714 152.25948 167.89628 156.90749 140.4375 163.71875 C 134.14804 167.6368 126.33961 172.75468 121.09375 179.09375 C 118.2843 176.92195 115.15399 175.12219 111.625 173.875 C 81.091747 164.97211 81.272496 205.92431 92.5625 223.59375 C 102.20805 253.72048 101.18701 286.02923 105.6875 317.15625 C 116.67631 407.88451 104.13422 498.91813 91.65625 588.75 C 82.798792 636.86435 83.195508 681.97449 68.1875 730.5625 C 68.5346 747.27988 68.811955 775.07137 88.15625 759.34375 C 102.4683 727.78854 113.14535 705.2975 124.25 678.09375 C 139.14003 595.52868 151.75253 513.84068 161.625 431.3125 C 187.5557 478.9045 228.88974 543.25753 269.65625 600.21875 C 250.85104 632.06474 232.78537 665.61326 220.9375 692.65625 C 211.98933 705.30692 196.69533 726.80528 223.4375 724.5 C 242.5836 705.972 272.64685 674.68794 300.875 642.46875 C 315.21754 661.22711 328.93844 678.19023 341.25 692.15625 C 351.91556 706.69771 355.68032 726.29707 370.25 737.8125 C 380.44687 745.00151 393.90393 735.30579 393.90625 723.78125 C 376.45322 672.06044 357.00802 636.72649 333.96875 602.9375 C 348.77831 584.23692 361.01393 566.95919 367.84375 553.71875 C 381.90581 520.20717 390.58972 484.16642 392.71875 447.875 C 393.92834 408.97805 369.75046 393.36752 341.6875 359.75 C 329.05371 347.79809 312.81495 334.17462 296.5 337.5 C 293.9574 337.85618 291.42152 338.1473 288.90625 338.4375 C 293.41814 308.23989 301.9716 244.54519 308.625 184.3125 C 327.83353 177.20213 345.47322 170.44358 359.375 165.5 C 379.26432 157.18311 376.29194 176.87517 371.65625 204.3125 C 366.35396 217.37627 403.29098 228.71366 415.3125 231.375 C 439.23904 238.99883 437.64648 222.74485 450.40625 203.375 C 461.67947 186.15854 464.79815 169.05563 457.125 148.5 C 445.31487 123.41655 422.99143 115.25506 396.53125 115.875 C 372.90188 125.05421 344.04378 131.51019 313.5 136.6875 C 316.59815 103.31033 318.40362 75.019907 317.5625 60.0625 C 297.65976 45.935708 273.4715 36.113703 250.5 29.9375 z M 757.75 185.4375 C 752.36363 185.56667 746.9736 186.21361 741.625 187.4375 C 698.33187 195.64851 658.53716 217.52708 619.4375 233.375 C 595.99035 238.34792 570.67617 242.29934 551.9375 258.5625 C 547.5247 260.93911 544.3638 263.8204 542.25 266.9375 C 537.07158 263.48892 530.81941 262.39954 523.15625 265.34375 C 504.43204 274.09817 501.13928 296.69886 511.1875 316.03125 C 511.38287 338.0439 511.08952 364.64633 511.9375 388.3125 C 511.68144 468.3578 495.62971 548.23775 504.9375 628.28125 C 504.65821 643.27152 505.01217 667.55282 525.125 668.4375 C 545.83565 669.08527 557.3275 654.39384 561.625 633.875 C 567.42499 608.94348 566.99379 583.70508 568.875 558.53125 C 568.92407 552.38067 568.98047 546.21363 569 540.0625 C 605.11438 530.51785 655.21473 531.10723 693.03125 509.46875 C 695.3003 500.1676 689.9531 490.4431 682.90625 484.625 C 670.89682 475.90463 655.26322 476.78378 641.15625 477 C 618.29014 486.68833 594.82405 496.05937 569 501.59375 C 568.94521 471.05155 568.82763 440.4984 569.25 409.96875 C 573.39713 409.89074 577.49508 409.49427 581.15625 409.0625 C 610.17791 402.41605 665.7078 407.91149 687.5625 379.5625 C 687.33584 366.64554 679.78982 359.20314 666.4375 356.09375 C 650.89291 352.41221 636.77874 359.07851 621.09375 358.65625 C 602.67232 359.05748 587.537 355.99242 570.90625 363.59375 C 571.01117 341.47763 569.20699 319.33805 561.875 298.3125 C 565.64992 297.91695 569.66375 296.51084 573.71875 293.78125 C 597.88389 278.11911 626.94782 269.52709 650.40625 254.90625 C 682.89394 250.65266 713.9588 236.88006 747 237.65625 C 776.47407 240.22484 773.50975 272.65735 779.03125 296.71875 C 787.07819 393.60823 782.20102 490.56501 786.3125 587.8125 C 790.03434 637.92429 784.68701 687.30524 789.21875 737.90625 C 776.43821 760.50864 770.01649 781.42226 750.875 760.1875 C 745.69649 771.99223 753.94083 785.56738 766.03125 796.15625 C 749.63144 788.29519 732.65559 781.32488 715.4375 775.40625 C 697.06347 782.74846 704.38182 800.33361 713.09375 813.375 C 757.09895 863.81027 779.97994 931.49605 827.5 977.71875 C 857.60696 992.87355 898.71757 1002.7712 912.625 963.8125 C 918.58787 939.37136 907.54234 914.58894 894.625 894.3125 C 871.42763 863.97644 837.832 836.3531 799.15625 813.71875 C 821.93297 818.13504 846.59312 798.10108 851.3125 771.9375 C 869.26948 710.84729 858.56115 659.026 862 596.71875 C 862.35042 492.88992 849.45642 388.70332 859.3125 285.15625 C 874.82034 256.51489 867.35495 231.09013 839.78125 215.90625 C 815.95722 198.89595 786.83638 184.74 757.75 185.4375 z M 237.8125 208.46875 C 237.60485 241.09955 237.47901 273.73552 238.9375 306.09375 C 238.9056 317.93762 239.49953 331.18887 245.4375 341.5625 C 231.45373 342.26479 217.10354 343.00632 201.625 344.78125 C 199.87333 367.00761 195.37374 394.23538 222.46875 397.96875 C 243.06503 395.37731 263.34522 389.7989 284.15625 388.875 C 303.61231 388.48807 325.22866 399.35118 329.125 419.90625 C 329.01526 465.7531 324.47754 514.19031 299.15625 552.53125 C 273.37947 512.20029 241.91365 456.88497 217.78125 430 C 209.15443 419.22932 202.53382 404.25619 187.84375 400.8125 C 179.23994 399.13926 169.9743 402.67516 164.1875 409.0625 C 165.32784 399.01003 166.44189 388.92912 167.5 378.84375 C 166.30378 323.65182 172.15118 268.64507 148.8125 220.625 C 154.92073 221.87147 161.17863 222.30351 167.15625 222.09375 C 186.48004 221.85336 211.51572 216.26865 237.8125 208.46875 z M 708.59375 598.09375 C 705.77812 598.03652 702.86802 598.46555 699.90625 599.46875 C 680.95991 603.26242 673.19994 616.67142 665.6875 631.78125 C 661.71721 631.42322 655.64536 635.50208 650.4375 634.375 C 593.50434 649.26024 548.12066 685.72452 492.9375 705.1875 C 476.30339 710.81019 458.55427 715.5212 445.25 727.65625 C 437.90437 732.19122 431.55817 744.90923 443.15625 748.75 C 472.53037 734.60334 507.70382 752.10625 535.5625 736.78125 C 551.8269 724.84105 566.52156 710.5277 585 701.875 C 608.21716 690.00109 624.26919 681.79621 644.84375 665.40625 C 645.44734 665.03371 646.15039 664.57568 646.8125 664.15625 C 616.39399 709.03002 579.93411 757.11764 542.375 796.125 C 503.25263 848.55468 454.17915 891.08158 412.375 941 C 395.88001 958.45695 374.36178 978.25785 395.53125 965.78125 C 447.20319 953.12915 480.76007 912.48006 519.65625 878.3125 C 559.37306 839.74217 597.86944 797.43077 634.25 755.875 C 652.77283 714.05378 720.79286 665.31751 737.375 628.375 C 736.13548 612.94873 723.79814 598.40277 708.59375 598.09375 z "
       transform="translate(0,52.362183)"
       id="path4273" />
  </g>
</svg>
