<?xml version="1.0" encoding="UTF-8" standalone="no"?>
<!-- Created with Inkscape (http://www.inkscape.org/) -->

<svg
   xmlns:dc="http://purl.org/dc/elements/1.1/"
   xmlns:cc="http://creativecommons.org/ns#"
   xmlns:rdf="http://www.w3.org/1999/02/22-rdf-syntax-ns#"
   xmlns:svg="http://www.w3.org/2000/svg"
   xmlns="http://www.w3.org/2000/svg"
   xmlns:sodipodi="http://sodipodi.sourceforge.net/DTD/sodipodi-0.dtd"
   xmlns:inkscape="http://www.inkscape.org/namespaces/inkscape"
   width="1000"
   height="1000"
   id="svg3173"
   version="1.1"
   inkscape:version="0.47 r22583"
   sodipodi:docname="9832.svg"
   inkscape:export-filename="E:\chinese\yan\9832.png"
   inkscape:export-xdpi="18.005705"
   inkscape:export-ydpi="18.005705">
  <title
     id="title2825">Ting</title>
  <defs
     id="defs3175">
    <inkscape:perspective
       sodipodi:type="inkscape:persp3d"
       inkscape:vp_x="0 : 526.18109 : 1"
       inkscape:vp_y="0 : 1000 : 0"
       inkscape:vp_z="744.09448 : 526.18109 : 1"
       inkscape:persp3d-origin="372.04724 : 350.78739 : 1"
       id="perspective3181" />
    <inkscape:perspective
       id="perspective3191"
       inkscape:persp3d-origin="0.5 : 0.33333333 : 1"
       inkscape:vp_z="1 : 0.5 : 1"
       inkscape:vp_y="0 : 1000 : 0"
       inkscape:vp_x="0 : 0.5 : 1"
       sodipodi:type="inkscape:persp3d" />
    <inkscape:perspective
       id="perspective4006"
       inkscape:persp3d-origin="0.5 : 0.33333333 : 1"
       inkscape:vp_z="1 : 0.5 : 1"
       inkscape:vp_y="0 : 1000 : 0"
       inkscape:vp_x="0 : 0.5 : 1"
       sodipodi:type="inkscape:persp3d" />
    <inkscape:perspective
       id="perspective4034"
       inkscape:persp3d-origin="0.5 : 0.33333333 : 1"
       inkscape:vp_z="1 : 0.5 : 1"
       inkscape:vp_y="0 : 1000 : 0"
       inkscape:vp_x="0 : 0.5 : 1"
       sodipodi:type="inkscape:persp3d" />
    <inkscape:perspective
       id="perspective4081"
       inkscape:persp3d-origin="0.5 : 0.33333333 : 1"
       inkscape:vp_z="1 : 0.5 : 1"
       inkscape:vp_y="0 : 1000 : 0"
       inkscape:vp_x="0 : 0.5 : 1"
       sodipodi:type="inkscape:persp3d" />
    <inkscape:perspective
       id="perspective4147"
       inkscape:persp3d-origin="0.5 : 0.33333333 : 1"
       inkscape:vp_z="1 : 0.5 : 1"
       inkscape:vp_y="0 : 1000 : 0"
       inkscape:vp_x="0 : 0.5 : 1"
       sodipodi:type="inkscape:persp3d" />
    <inkscape:perspective
       id="perspective3758"
       inkscape:persp3d-origin="0.5 : 0.33333333 : 1"
       inkscape:vp_z="1 : 0.5 : 1"
       inkscape:vp_y="0 : 1000 : 0"
       inkscape:vp_x="0 : 0.5 : 1"
       sodipodi:type="inkscape:persp3d" />
    <inkscape:perspective
       id="perspective3719"
       inkscape:persp3d-origin="0.5 : 0.33333333 : 1"
       inkscape:vp_z="1 : 0.5 : 1"
       inkscape:vp_y="0 : 1000 : 0"
       inkscape:vp_x="0 : 0.5 : 1"
       sodipodi:type="inkscape:persp3d" />
    <inkscape:perspective
       id="perspective3803"
       inkscape:persp3d-origin="0.5 : 0.33333333 : 1"
       inkscape:vp_z="1 : 0.5 : 1"
       inkscape:vp_y="0 : 1000 : 0"
       inkscape:vp_x="0 : 0.5 : 1"
       sodipodi:type="inkscape:persp3d" />
    <inkscape:perspective
       id="perspective3801"
       inkscape:persp3d-origin="0.5 : 0.33333333 : 1"
       inkscape:vp_z="1 : 0.5 : 1"
       inkscape:vp_y="0 : 1000 : 0"
       inkscape:vp_x="0 : 0.5 : 1"
       sodipodi:type="inkscape:persp3d" />
  </defs>
  <sodipodi:namedview
     id="base"
     pagecolor="#ffffff"
     bordercolor="#666666"
     borderopacity="1.0"
     inkscape:pageopacity="0.0"
     inkscape:pageshadow="2"
     inkscape:zoom="0.49497475"
     inkscape:cx="571.51329"
     inkscape:cy="512.69615"
     inkscape:document-units="px"
     inkscape:current-layer="g4143"
     showgrid="false"
     inkscape:window-width="1440"
     inkscape:window-height="840"
     inkscape:window-x="-4"
     inkscape:window-y="-4"
     inkscape:window-maximized="1" />
  <metadata
     id="metadata3178">
    <rdf:RDF>
      <cc:Work
         rdf:about="">
        <dc:format>image/svg+xml</dc:format>
        <dc:type
           rdf:resource="http://purl.org/dc/dcmitype/StillImage" />
        <dc:title>Ting</dc:title>
        <dc:date>2010-08-14</dc:date>
        <dc:creator>
          <cc:Agent>
            <dc:title>Alex Amies</dc:title>
          </cc:Agent>
        </dc:creator>
        <dc:rights>
          <cc:Agent>
            <dc:title>@ Alex Amies 2010</dc:title>
          </cc:Agent>
        </dc:rights>
        <dc:publisher>
          <cc:Agent>
            <dc:title>chinesenotes.com</dc:title>
          </cc:Agent>
        </dc:publisher>
        <dc:source>Yan Qin Ceremonial Inscription</dc:source>
        <dc:language>Chinese 中文</dc:language>
        <dc:description>Tracing from Tang Dynasty Ceremonial Inscription by Yan Zhenqing 颜真卿 (709－785)</dc:description>
        <cc:license
           rdf:resource="http://creativecommons.org/licenses/by/3.0/" />
      </cc:Work>
      <cc:License
         rdf:about="http://creativecommons.org/licenses/by/3.0/">
        <cc:permits
           rdf:resource="http://creativecommons.org/ns#Reproduction" />
        <cc:permits
           rdf:resource="http://creativecommons.org/ns#Distribution" />
        <cc:requires
           rdf:resource="http://creativecommons.org/ns#Notice" />
        <cc:requires
           rdf:resource="http://creativecommons.org/ns#Attribution" />
        <cc:permits
           rdf:resource="http://creativecommons.org/ns#DerivativeWorks" />
      </cc:License>
    </rdf:RDF>
  </metadata>
  <g
     inkscape:label="Layer 1"
     inkscape:groupmode="layer"
     id="layer1"
     transform="translate(0,-52.362183)">
    <g
       transform="matrix(4.7609464,0,0,4.7609464,-1421.6669,-3910.0295)"
       id="g4143"
       style="fill:#000000;fill-opacity:1">
      <path
         style="fill:#000000;stroke:#000000;stroke-width:4.75137663000000020px;stroke-linecap:butt;stroke-linejoin:miter;stroke-opacity:1;fill-opacity:1"
         d="M 875.46875 26.09375 C 854.12385 25.908798 834.89448 49.933331 814.53125 56.75 C 738.88048 86.168459 650.13351 67.063301 576 100.90625 C 557.95811 105.6023 549.43758 130.00651 563.96875 143.0625 C 608.59223 150.75232 648.08852 140.80042 687.96875 127.96875 C 678.49657 138.8164 671.38787 154.42305 666.59375 164.78125 C 662.82119 197.84851 652.61963 217.49609 633.3125 240.78125 C 625.56307 236.92442 616.71697 235.54875 608 238.0625 L 605.59375 238.25 C 583.9672 237.22583 579.7686 251.33032 576.53125 269.8125 C 574.39896 382.76733 575.91441 495.70438 577 608.84375 C 584.86404 654.88386 646.79521 676.06782 647.78125 617.40625 C 642.24334 575.14733 644.49232 529.55029 648.375 483.53125 C 686.64069 489.04725 723.40086 476.93378 754.1875 453.84375 C 757.15528 433.81016 749.45416 427.46976 735.53125 414.8125 C 701.16936 410.34817 675.82636 420.62533 652.34375 439.9375 C 654.96076 411.93214 657.41206 384.10869 658.40625 357.125 C 693.69138 367.47989 739.15154 354.04651 766.21875 341.6875 C 773.50186 322.19266 760.97848 313.08701 745.625 305.03125 C 716.90478 298.8772 688.6559 304.21944 664.65625 318.40625 C 662.71191 320.15745 660.72135 322.05281 658.8125 324.0625 C 658.37635 300.90025 656.31673 278.59242 651.65625 257.625 C 651.33737 257.11025 650.99667 256.59692 650.65625 256.09375 C 658.61833 252.43947 666.79398 248.18054 674.84375 243.375 C 675.95805 244.10223 677.13343 244.805 678.4375 245.4375 C 730.8967 285.64688 788.14404 216.93309 824.34375 223.75 C 863.31816 381.58976 830.42664 542.54036 832.65625 712.375 C 807.65463 700.51386 782.50038 691.38235 762.4375 689.71875 L 760.96875 691.40625 C 768.47455 707.48713 782.82081 733.45316 799.40625 761.25 C 780.17704 750.84282 751.42932 746.44428 736.25 760.875 C 684.44552 780.17059 528.55433 862.27094 482.3125 894.125 C 441.33351 924.77835 455.49327 853.39395 482.625 844.0625 C 506.30833 808.29065 456.51241 760.27498 494.5 729.5625 C 533.92935 705.86598 528.86888 649.55451 485.3125 633.46875 C 460.69424 637.5661 433.3989 642.27721 404.6875 647.6875 C 399.26697 602.49901 400.30667 539.12211 402.09375 472.59375 C 411.53858 470.72003 421.18307 469.30989 431.0625 468.3125 C 454.08672 468.81987 473.25027 468.56334 495.46875 460.03125 C 514.71397 447.44626 515.91035 424.04389 501.03125 409.4375 C 477.27032 383.57075 438.2229 376.59485 405.6875 387.96875 C 405.2365 388.28351 404.74681 388.6213 404.28125 388.9375 C 404.64477 372.00418 404.87658 355.29242 404.9375 339 C 435.53222 334.91901 465.10416 332.10664 490.875 326.03125 C 515.48033 299.11819 489.09831 275.19186 461.03125 267.21875 C 442.20121 261.52041 422.20745 257.57454 402.96875 259.09375 C 401.61242 238.34428 399.46896 219.51655 396.21875 203.40625 C 389.33074 191.32164 377.75068 182.03152 364.4375 178.9375 C 385.8988 171.8064 408.22295 166.87105 432.0625 165.59375 C 465.2292 164.01164 490.01026 140.63727 481.625 106.75 C 463.7028 68.061074 426.18554 50.317024 384.375 37.71875 L 381.78125 37.84375 C 362.20838 38.608263 352.95687 53.384074 342.78125 68.0625 C 290.76139 125.87215 237.29716 182.21759 191.25 245 C 184.58339 260.70827 208.44568 250.42151 216.03125 248.96875 C 248.22066 234.2465 278.85869 216.71662 310.25 201.5 C 310.73689 206.98763 312.96809 212.45919 317.1875 216.625 C 320.187 242.15578 322.56666 267.6686 324.375 293.15625 C 286.33553 312.84731 247.74967 330.7179 201 348.65625 C 186.32914 351.60589 183.62261 375.09153 187.53125 388.375 C 192.9842 424.93007 230.38234 416.00501 251.65625 394.09375 C 274.75509 374.88215 300.75137 362.74252 327.6875 354.5 C 328.57402 378.66287 328.97271 402.81868 328.96875 426.96875 C 294.38565 442.12745 258.41217 456.88677 236.625 469.125 C 228.53087 483.00254 229.60687 502.17407 237.40625 515.84375 C 250.45419 534.62054 276.32675 533.12 294.40625 523.21875 C 305.31981 514.3335 316.39366 506.71658 327.71875 500.1875 C 326.24755 544.32644 323.53384 588.47881 319.875 632.6875 C 320.67792 642.6032 323.61517 653.91534 329.125 663.125 C 277.30491 674.64459 224.33334 688.59224 176.3125 705.625 C 190.01962 623.23894 192.16465 540.81036 192.75 457.34375 C 189.49385 414.85997 179.1492 366.75542 128.03125 374.09375 C 73.298601 388.15225 92.164145 407.2726 105.71875 443.78125 C 151.12676 530.14557 106.38442 644.75034 118.40625 728.96875 C 106.8784 734.30118 95.899761 739.88512 85.59375 745.71875 C 40.084339 774.66878 108.5686 823.24803 139.25 791.40625 C 201.87063 766.632 395.40648 688.05305 455.90625 721.46875 C 426.94898 747.12559 438.60921 779.07697 444.875 817 C 446.55238 852.27671 402.38454 880.63429 415 918.5 C 430.70589 971.41649 508.59038 960.22297 543.78125 925.59375 C 613.18752 865.74151 710.21044 832.21422 796.625 800.5625 C 807.40795 797.7608 813.75649 793.90316 816.71875 789.59375 C 842.05189 830.08268 868.97758 868.94682 884.1875 882.5 C 947.65972 901.14149 952.34698 818.10903 930 771.21875 C 922.19634 765.11133 910.02391 756.55073 895.40625 747.28125 C 921.51215 737.35664 940.7353 705.87429 939.21875 670.375 C 915.68168 540.75157 910.73758 408.11595 938.40625 278.15625 C 939.88976 217.87796 907.98354 198.14568 853.71875 174.59375 C 813.88504 182.00585 772.46695 185.59896 731.84375 191.71875 C 733.40767 189.25832 734.87269 186.76245 736.1875 184.21875 C 749.86679 157.52793 740.23825 140.35687 723.65625 119.78125 C 722.23902 118.91351 720.83815 118.18004 719.46875 117.59375 C 755.46449 105.72984 792.93776 94.61441 835.78125 94.625 C 864.74694 100.54719 889.42733 118.86069 913.84375 91.59375 C 935.4276 64.128469 901.70901 47.074634 884.75 27.75 C 881.60558 26.614193 878.51802 26.120172 875.46875 26.09375 z M 772.84375 538.6875 C 714.73992 636.51214 561.6227 751.86569 489.71875 830.34375 C 580.33651 791.67511 786.31508 676.98415 802.03125 558.25 C 799.31399 544.96187 786.37698 539.1465 772.84375 538.6875 z "
         transform="matrix(0.21004227,0,0,0.21004227,298.61015,832.26975)"
         id="path14764" />
    </g>
  </g>
</svg>
