<?xml version="1.0" encoding="UTF-8" standalone="no"?>
<!-- Created with Inkscape (http://www.inkscape.org/) -->

<svg
   xmlns:dc="http://purl.org/dc/elements/1.1/"
   xmlns:cc="http://creativecommons.org/ns#"
   xmlns:rdf="http://www.w3.org/1999/02/22-rdf-syntax-ns#"
   xmlns:svg="http://www.w3.org/2000/svg"
   xmlns="http://www.w3.org/2000/svg"
   xmlns:sodipodi="http://sodipodi.sourceforge.net/DTD/sodipodi-0.dtd"
   xmlns:inkscape="http://www.inkscape.org/namespaces/inkscape"
   width="1000"
   height="1000"
   id="svg3173"
   version="1.1"
   inkscape:version="0.47 r22583"
   sodipodi:docname="984f.svg"
   inkscape:export-filename="E:\chinese\yan\984f.png"
   inkscape:export-xdpi="18.005705"
   inkscape:export-ydpi="18.005705">
  <title
     id="title2829">Yan</title>
  <defs
     id="defs3175">
    <inkscape:perspective
       sodipodi:type="inkscape:persp3d"
       inkscape:vp_x="0 : 526.18109 : 1"
       inkscape:vp_y="0 : 1000 : 0"
       inkscape:vp_z="744.09448 : 526.18109 : 1"
       inkscape:persp3d-origin="372.04724 : 350.78739 : 1"
       id="perspective3181" />
    <inkscape:perspective
       id="perspective3191"
       inkscape:persp3d-origin="0.5 : 0.33333333 : 1"
       inkscape:vp_z="1 : 0.5 : 1"
       inkscape:vp_y="0 : 1000 : 0"
       inkscape:vp_x="0 : 0.5 : 1"
       sodipodi:type="inkscape:persp3d" />
    <inkscape:perspective
       id="perspective4006"
       inkscape:persp3d-origin="0.5 : 0.33333333 : 1"
       inkscape:vp_z="1 : 0.5 : 1"
       inkscape:vp_y="0 : 1000 : 0"
       inkscape:vp_x="0 : 0.5 : 1"
       sodipodi:type="inkscape:persp3d" />
    <inkscape:perspective
       id="perspective4034"
       inkscape:persp3d-origin="0.5 : 0.33333333 : 1"
       inkscape:vp_z="1 : 0.5 : 1"
       inkscape:vp_y="0 : 1000 : 0"
       inkscape:vp_x="0 : 0.5 : 1"
       sodipodi:type="inkscape:persp3d" />
    <inkscape:perspective
       id="perspective4081"
       inkscape:persp3d-origin="0.5 : 0.33333333 : 1"
       inkscape:vp_z="1 : 0.5 : 1"
       inkscape:vp_y="0 : 1000 : 0"
       inkscape:vp_x="0 : 0.5 : 1"
       sodipodi:type="inkscape:persp3d" />
    <inkscape:perspective
       id="perspective4147"
       inkscape:persp3d-origin="0.5 : 0.33333333 : 1"
       inkscape:vp_z="1 : 0.5 : 1"
       inkscape:vp_y="0 : 1000 : 0"
       inkscape:vp_x="0 : 0.5 : 1"
       sodipodi:type="inkscape:persp3d" />
    <inkscape:perspective
       id="perspective3797"
       inkscape:persp3d-origin="0.5 : 0.33333333 : 1"
       inkscape:vp_z="1 : 0.5 : 1"
       inkscape:vp_y="0 : 1000 : 0"
       inkscape:vp_x="0 : 0.5 : 1"
       sodipodi:type="inkscape:persp3d" />
    <inkscape:perspective
       id="perspective3104"
       inkscape:persp3d-origin="0.5 : 0.33333333 : 1"
       inkscape:vp_z="1 : 0.5 : 1"
       inkscape:vp_y="0 : 1000 : 0"
       inkscape:vp_x="0 : 0.5 : 1"
       sodipodi:type="inkscape:persp3d" />
    <inkscape:perspective
       id="perspective3140"
       inkscape:persp3d-origin="0.5 : 0.33333333 : 1"
       inkscape:vp_z="1 : 0.5 : 1"
       inkscape:vp_y="0 : 1000 : 0"
       inkscape:vp_x="0 : 0.5 : 1"
       sodipodi:type="inkscape:persp3d" />
    <inkscape:perspective
       id="perspective3799"
       inkscape:persp3d-origin="0.5 : 0.33333333 : 1"
       inkscape:vp_z="1 : 0.5 : 1"
       inkscape:vp_y="0 : 1000 : 0"
       inkscape:vp_x="0 : 0.5 : 1"
       sodipodi:type="inkscape:persp3d" />
  </defs>
  <sodipodi:namedview
     id="base"
     pagecolor="#ffffff"
     bordercolor="#666666"
     borderopacity="1.0"
     inkscape:pageopacity="0.0"
     inkscape:pageshadow="2"
     inkscape:zoom="0.49497475"
     inkscape:cx="637.59461"
     inkscape:cy="519.65337"
     inkscape:document-units="px"
     inkscape:current-layer="g5879"
     showgrid="false"
     inkscape:window-width="1440"
     inkscape:window-height="840"
     inkscape:window-x="-4"
     inkscape:window-y="-4"
     inkscape:window-maximized="1" />
  <metadata
     id="metadata3178">
    <rdf:RDF>
      <cc:Work
         rdf:about="">
        <dc:format>image/svg+xml</dc:format>
        <dc:type
           rdf:resource="http://purl.org/dc/dcmitype/StillImage" />
        <dc:title>Yan</dc:title>
        <dc:date>2010-08-12</dc:date>
        <dc:creator>
          <cc:Agent>
            <dc:title>Alex Amies</dc:title>
          </cc:Agent>
        </dc:creator>
        <dc:rights>
          <cc:Agent>
            <dc:title>@ Alex Amies 2010</dc:title>
          </cc:Agent>
        </dc:rights>
        <dc:publisher>
          <cc:Agent>
            <dc:title>chinesenotes.com</dc:title>
          </cc:Agent>
        </dc:publisher>
        <dc:source>Yan Qin Ceremonial Inscription</dc:source>
        <dc:language>Chinese 中文</dc:language>
        <dc:description>Tracing from Tang Dynasty Ceremonial Inscription by Yan Zhenqing 颜真卿 (709－785)</dc:description>
        <cc:license
           rdf:resource="http://creativecommons.org/licenses/by/3.0/" />
      </cc:Work>
      <cc:License
         rdf:about="http://creativecommons.org/licenses/by/3.0/">
        <cc:permits
           rdf:resource="http://creativecommons.org/ns#Reproduction" />
        <cc:permits
           rdf:resource="http://creativecommons.org/ns#Distribution" />
        <cc:requires
           rdf:resource="http://creativecommons.org/ns#Notice" />
        <cc:requires
           rdf:resource="http://creativecommons.org/ns#Attribution" />
        <cc:permits
           rdf:resource="http://creativecommons.org/ns#DerivativeWorks" />
      </cc:License>
    </rdf:RDF>
  </metadata>
  <g
     inkscape:label="Layer 1"
     inkscape:groupmode="layer"
     id="layer1"
     transform="translate(0,-52.362183)">
    <path
       style="fill:#000000;stroke:#000000;stroke-width:4.73223686000000040px;stroke-linecap:butt;stroke-linejoin:miter;stroke-opacity:1;fill-opacity:1"
       d="m 369.84328,287.58699 0,0 z"
       id="path5819" />
    <g
       transform="matrix(4.7322369,0,0,4.7322369,-536.04205,-3955.5633)"
       id="g5879"
       style="fill:#000000;fill-opacity:1">
      <g
         transform="matrix(1.0060668,0,0,1.0060668,-386.97002,847.02707)"
         id="g4146"
         style="fill:none;fill-opacity:1">
        <path
           style="fill:#000000;stroke:#000000;stroke-width:4.76094626999999980px;stroke-linecap:butt;stroke-linejoin:miter;stroke-opacity:1;fill-opacity:1"
           d="M 834.46875 122.1875 C 809.90998 126.85984 784.94372 139.99506 758.25 139.40625 C 710.58707 138.3549 661.11032 135.68562 615.125 140.875 C 606.59315 141.83781 595.2077 151.02932 594.71875 157.875 C 594.07417 166.89914 602.72547 182.60344 611.71875 188.5 C 624.66652 196.98935 643.48222 201.22944 661.21875 198.9375 C 727.42576 188.06166 795.49076 201.91428 861.65625 193.59375 C 880.12006 188.77405 895.03914 177.43644 888.875 157.875 C 876.84199 139.02453 856.01456 126.31058 834.46875 122.1875 z M 791.96875 197 C 778.62134 200.86576 760.69963 207.41129 747.75 215.6875 C 736.43418 224.29521 727.29245 236.89558 721.65625 250.625 C 716.50986 263.16131 715.71375 276.78231 714.15625 290.03125 C 714.16921 298.8341 712.13134 308.12549 715.9375 313.40625 C 687.51208 321.1326 659.67508 330.5733 633.8125 344.90625 C 627.52067 350.99798 626.52459 358.93934 628.78125 365.4375 C 625.27746 365.74971 621.81928 366.16898 618.53125 367.03125 C 610.74729 369.07255 600.73771 372.34999 596.40625 378.9375 C 587.55646 392.39672 585.53555 412.28934 590.21875 430.03125 C 605.85736 489.2772 602.27089 551.95732 604.6875 613.0625 C 605.59846 636.09682 598.11499 662.08956 605.0625 682.21875 C 605.67747 684.00051 606.54985 685.66706 607.59375 687.21875 C 602.7251 688.70211 597.84272 690.22161 593 691.78125 C 584.93453 695.00784 576.82445 708.73727 577.71875 715.59375 C 578.52478 721.77322 590.34576 728.93131 598.125 730.90625 C 668.52188 711.18303 740.19903 695.26121 811.4375 677.875 C 812.84518 677.50967 814.42342 677.10678 815.96875 676.71875 C 815.86283 679.9923 815.76742 683.25947 815.65625 686.53125 C 813.98654 706.98499 812.32596 727.45256 810.65625 747.90625 C 811.45983 748.8089 812.27084 749.71493 813.0625 750.65625 C 809.01332 751.48883 805.07025 753.00053 802.15625 754.6875 C 797.61935 757.31411 791.90941 764.68855 793.65625 770 C 806.82931 810.05418 820.96978 853.4953 836.15625 894.65625 C 843.32724 914.09224 853.77715 932.19091 862.1875 951.125 C 876.95862 968.81553 892.90664 980.21012 916.0625 972.34375 C 943.19851 959.06776 941.50592 923.7205 939 897.78125 C 936.67047 882.09517 934.9736 864.52483 926.28125 851.625 C 908.55906 832.45155 891.01796 810.12209 871.8125 790 L 875.28125 790.40625 C 894.05961 770.12281 895.17776 741.76473 896.78125 715.78125 C 917.61606 625.66687 901.60861 534.64684 905.6875 444.0625 C 907.68924 422.6768 921.79473 400.34904 917.78125 380.625 C 913.18879 358.05578 903.38256 320.13926 875.0625 316.21875 C 844.47732 311.98466 815.46471 298.94155 784.8125 296.53125 C 778.01951 298.18944 771.20777 299.82504 764.375 301.4375 C 776.1351 289.37223 784.70621 274.09243 790.25 258.1875 C 795.60173 238.92476 795.74766 212.12327 791.96875 197 z M 794.59375 334.28125 C 805.80151 334.11141 814.29496 338.50313 813.78125 354.6875 C 819.45871 451.30381 819.51476 548.95351 816.90625 646.03125 C 809.87882 643.60853 802.24835 642.13136 795.34375 642.46875 C 755.10542 650.87283 714.57111 659.20277 674.4375 669.03125 C 671.95522 662.95773 668.29761 657.06243 666.09375 650.96875 C 661.80147 639.10076 664.75247 625.39733 664.09375 612.625 C 663.56854 602.44105 662.9024 592.19324 662.1875 581.90625 C 667.63556 583.4094 673.27192 584.0366 678.03125 582.96875 C 696.80723 578.75593 716.61009 569.76525 736.15625 564.625 C 740.21777 561.29529 741.44478 555.40239 742.65625 550.65625 C 739.76916 544.38613 732.90663 534.25089 725.625 533.65625 C 706.6443 532.10618 684.41745 540.92261 664.3125 546.6875 C 662.6829 547.15477 661.13342 547.77781 659.65625 548.5 C 657.0772 516.54713 654.17826 484.55336 652.0625 453.3125 C 653.40601 453.52383 654.72854 453.69226 655.9375 453.75 C 691.32038 452.41523 730.06027 447.34282 763.03125 433.34375 C 769.16625 430.05711 775.55914 420.40874 774.9375 414.625 C 765.8369 402.60042 742.79274 393.90717 727.34375 394.21875 C 702.01034 399.59399 674.05441 408.33663 650.09375 418.8125 C 649.77772 411.75972 649.51655 404.73897 649.34375 397.8125 C 649.17206 390.9321 650.4678 382.7065 649.875 376.15625 C 651.83321 375.39697 653.82848 374.2804 655.84375 372.65625 C 689.59486 364.41901 719.69688 343.47357 755.1875 342 C 765.70441 340.53296 781.89163 334.47373 794.59375 334.28125 z "
           transform="matrix(0.21004227,0,0,0.21004227,497.228,-0.08554454)"
           id="path3216" />
        <path
           id="path3178"
           d="m 538.21429,4.1478992 c -1.7558,0.2704391 -3.59251,2.0615539 -4.64286,3.5714316 -0.85441,1.2282176 -1.6956,3.3781462 -1.07143,4.6428572 3.96146,5.649656 11.32327,8.048591 17.57871,10.286272 2.09072,0.451911 4.44796,-0.126797 6.34986,-1.000561 1.2139,-1.158252 2.48159,-3.229496 2.14286,-5 -0.76149,-3.980244 -4.65496,-6.7528328 -8.08801,-8.8993518 -3.5574,-2.2069389 -8.05517,-3.6979538 -12.26913,-3.600648 z"
           style="fill:#000000;fill-opacity:1;stroke:#000000;stroke-width:1px;stroke-linecap:butt;stroke-linejoin:miter;stroke-opacity:1"
           sodipodi:nodetypes="cscccscc" />
        <path
           style="fill:#000000;stroke:#000000;stroke-width:4.76094626999999980px;stroke-linecap:butt;stroke-linejoin:miter;stroke-opacity:1;fill-opacity:1"
           d="M 385.90625 102.34375 C 384.35061 102.32507 382.81204 102.42424 381.3125 102.625 C 336.6761 108.60094 287.64158 116.5172 245.28125 126.4375 C 236.61376 128.46733 229.1057 143.36229 230 150.21875 C 230.80603 156.39821 242.45847 163.33041 250.40625 165.53125 C 268.51689 170.54633 288.6252 161.75859 306.3125 154.46875 C 313.20154 151.62943 320.11855 148.50171 327.125 145.6875 C 327.23972 150.749 328.23372 155.80497 330.25 160.6875 C 331.12218 164.35493 331.94275 168.04315 332.65625 171.75 C 327.56397 172.58119 322.51075 173.55445 317.5625 174.875 C 309.97003 176.90122 296.70936 178.16454 295.46875 183.375 C 293.87545 190.06691 300.73722 205.93768 309.0625 210.59375 C 316.96659 215.01427 325.89469 217.19092 335.34375 218.09375 C 335.27692 218.72647 335.20208 219.36749 335.125 220 C 334.85237 227.94308 334.46536 235.90604 334.03125 243.875 C 316.07386 249.50964 298.1445 255.22888 280.28125 261.15625 C 250.16188 271.39012 220.12562 281.91267 190.03125 292.21875 C 187.31707 294.64861 185.56526 296.84331 184.5 299 L 179.84375 297.3125 C 158.16664 315.07929 171.13345 342.10653 170.84375 365.6875 C 169.15185 519.72642 138.78799 665.50699 82.71875 808.6875 C 73.715039 824.69409 57.276246 842.99418 55.71875 856.71875 C 55.07388 862.40142 70.693141 871.16565 76.125 866.9375 C 107.37933 842.6093 127.61306 796.50483 147.6875 757.9375 C 211.14154 647.62766 239.89147 524.79613 256.875 399.90625 C 262.15998 379.80368 257.18731 357.1075 239.1875 344.875 C 230.69259 337.61539 223.28086 328.63709 215.375 320.375 C 219.22055 320.0292 223.05636 319.40384 226.84375 318.3125 C 262.22777 308.94532 296.80453 297.0326 331.34375 284.96875 C 327.76457 332.57978 323.17639 380.19268 322.65625 426.53125 C 322.57151 434.07096 330.13694 441.63773 336.25 445.25 C 342.6061 449.00586 357.62047 455.29696 360.0625 448.625 C 360.30591 447.95997 360.54738 447.29764 360.78125 446.625 C 370.76825 454.67852 388.02887 459.65332 397.65625 469.34375 C 413.58162 485.37342 411.10394 505.50479 411.09375 525.34375 C 405.3664 546.69323 398.72789 568.17436 391.09375 589.5 C 372.98132 577.95928 353.96187 567.94136 334.4375 559.625 C 328.30102 558.40025 322.03193 559.51094 315.84375 559.15625 C 299.44062 558.96391 288.4162 582.14185 303.78125 592.09375 C 326.38924 610.61768 346.16152 631.68606 364.46875 654.0625 C 339.80964 706.30231 308.2844 755.36155 268.65625 796.09375 C 251.91191 812.20922 221.66797 822.34737 215.53125 841.40625 C 209.01409 861.64679 249.23021 843.38064 261.375 836.21875 C 278.46656 826.13968 296.83981 817.42908 309.875 801.65625 C 339.34171 767.48437 368.33048 731.0285 393.84375 692.34375 C 406.68091 709.88059 419.15993 727.73392 431.84375 745.375 C 448.34743 765.74019 467.49927 812.28048 499.78125 804 C 510.07813 796.69633 520.30289 787.17428 524.09375 774.78125 C 530.54621 745.73086 515.03957 717.86875 499.0625 694.78125 C 481.43376 667.62388 459.49401 643.1029 434.65625 621.78125 C 453.99776 582.50353 468.53659 541.19426 475.6875 497.9375 C 476.056 479.87266 470.78708 459.75294 458.875 444.03125 C 446.56553 427.78502 427.78543 424.67597 410.09375 419.40625 C 400.82338 416.64493 391.49495 422.86144 382.25 424.625 C 376.92261 426.50819 371.4688 426.50633 366.21875 426.84375 C 374.9504 385.65005 372.30262 335.22803 378.8125 291.03125 C 379.63087 283.23124 380.58305 275.41592 381.59375 267.625 C 396.68114 262.54659 411.83833 257.61338 427.125 253.09375 C 441.01739 254.35424 456.05353 250.1251 469.03125 256.15625 C 483.32923 263.49025 502.67199 267.75146 514.8125 261.59375 C 526.94453 255.44036 521.70751 231.47488 512.46875 219.875 C 504.35353 208.94112 494.58041 199.9044 479.9375 201.03125 C 467.21089 201.18775 455.12576 206.66035 442.84375 210.28125 C 443.92217 208.72187 444.44226 206.84872 443.96875 204.71875 C 441.89898 195.40826 432.08452 191.42353 424.5 187.3125 C 414.50759 181.89631 404.20122 176.93676 393.78125 172.40625 C 394.78085 161.11052 395.46514 149.78556 395.6875 138.4375 C 396.00008 138.398 396.31344 138.38905 396.625 138.34375 C 405.53216 137.04862 417.83996 133.48134 422.125 128.125 C 424.6413 124.97964 421.15056 115.38707 417.03125 112.8125 C 408.7333 107.62628 396.79573 102.47449 385.90625 102.34375 z M 397.125 215.84375 C 404.92979 215.83452 412.81427 216.93513 420.625 217 C 409.47548 220.48684 398.31765 223.95642 387.15625 227.40625 C 387.68163 223.65745 388.17844 219.90663 388.6875 216.15625 C 390.70582 216.03936 392.70936 215.9733 394.6875 215.90625 C 395.49965 215.87872 396.31114 215.84471 397.125 215.84375 z "
           transform="matrix(0.21004227,0,0,0.21004227,497.228,-0.08554454)"
           id="path3180-1" />
        <path
           id="path3363"
           d="m 636.07143,157.00504 c -2.00385,-0.0729 -4.63641,1.8274 -6.07143,3.57143 -2.27413,2.76385 -3.30749,6.67684 -5.72283,9.57918 -6.43625,7.73398 -12.79796,15.56775 -18.8858,23.58376 -0.79106,1.04161 -2.81411,2.87895 -2.17709,3.26563 1.29449,0.78576 5.45478,0.92376 7.96952,0.30799 2.64853,-0.64854 5.26793,-2.04662 7.37408,-4.0614 6.86823,-6.5703 13.5782,-13.4381 20.8402,-19.51003 1.99063,-1.66442 5.40452,-1.57928 6.80618,-3.99917 0.34718,-0.5994 1.51154,-1.31608 1.14256,-1.88071 -1.52019,-2.32627 -2.78081,-5.05575 -4.90434,-6.83285 -1.91084,-1.5991 -4.22741,-3.94589 -6.37105,-4.02383 z"
           style="fill:#000000;fill-opacity:1;stroke:#000000;stroke-width:1px;stroke-linecap:butt;stroke-linejoin:miter;stroke-opacity:1"
           sodipodi:nodetypes="csssssssssss" />
      </g>
    </g>
    <path
       style="fill:#000000;stroke:#000000;stroke-width:4.73223686000000040px;stroke-linecap:butt;stroke-linejoin:miter;stroke-opacity:1;fill-opacity:1"
       d="m 594.62455,556.31042 0,0 z"
       id="path5837" />
  </g>
</svg>
