<?xml version="1.0" encoding="UTF-8" standalone="no"?>
<!-- Created with Inkscape (http://www.inkscape.org/) -->

<svg
   xmlns:dc="http://purl.org/dc/elements/1.1/"
   xmlns:cc="http://creativecommons.org/ns#"
   xmlns:rdf="http://www.w3.org/1999/02/22-rdf-syntax-ns#"
   xmlns:svg="http://www.w3.org/2000/svg"
   xmlns="http://www.w3.org/2000/svg"
   xmlns:sodipodi="http://sodipodi.sourceforge.net/DTD/sodipodi-0.dtd"
   xmlns:inkscape="http://www.inkscape.org/namespaces/inkscape"
   width="1000"
   height="1000"
   id="svg3173"
   version="1.1"
   inkscape:version="0.47 r22583"
   sodipodi:docname="9857.svg"
   inkscape:export-filename="E:\chinese\yan\9857.png"
   inkscape:export-xdpi="18.005705"
   inkscape:export-ydpi="18.005705">
  <title
     id="title9313">Yi</title>
  <defs
     id="defs3175">
    <inkscape:perspective
       sodipodi:type="inkscape:persp3d"
       inkscape:vp_x="0 : 526.18109 : 1"
       inkscape:vp_y="0 : 1000 : 0"
       inkscape:vp_z="744.09448 : 526.18109 : 1"
       inkscape:persp3d-origin="372.04724 : 350.78739 : 1"
       id="perspective3181" />
    <inkscape:perspective
       id="perspective3191"
       inkscape:persp3d-origin="0.5 : 0.33333333 : 1"
       inkscape:vp_z="1 : 0.5 : 1"
       inkscape:vp_y="0 : 1000 : 0"
       inkscape:vp_x="0 : 0.5 : 1"
       sodipodi:type="inkscape:persp3d" />
    <inkscape:perspective
       id="perspective4006"
       inkscape:persp3d-origin="0.5 : 0.33333333 : 1"
       inkscape:vp_z="1 : 0.5 : 1"
       inkscape:vp_y="0 : 1000 : 0"
       inkscape:vp_x="0 : 0.5 : 1"
       sodipodi:type="inkscape:persp3d" />
    <inkscape:perspective
       id="perspective4034"
       inkscape:persp3d-origin="0.5 : 0.33333333 : 1"
       inkscape:vp_z="1 : 0.5 : 1"
       inkscape:vp_y="0 : 1000 : 0"
       inkscape:vp_x="0 : 0.5 : 1"
       sodipodi:type="inkscape:persp3d" />
    <inkscape:perspective
       id="perspective4081"
       inkscape:persp3d-origin="0.5 : 0.33333333 : 1"
       inkscape:vp_z="1 : 0.5 : 1"
       inkscape:vp_y="0 : 1000 : 0"
       inkscape:vp_x="0 : 0.5 : 1"
       sodipodi:type="inkscape:persp3d" />
    <inkscape:perspective
       id="perspective4147"
       inkscape:persp3d-origin="0.5 : 0.33333333 : 1"
       inkscape:vp_z="1 : 0.5 : 1"
       inkscape:vp_y="0 : 1000 : 0"
       inkscape:vp_x="0 : 0.5 : 1"
       sodipodi:type="inkscape:persp3d" />
    <inkscape:perspective
       id="perspective3895"
       inkscape:persp3d-origin="0.5 : 0.33333333 : 1"
       inkscape:vp_z="1 : 0.5 : 1"
       inkscape:vp_y="0 : 1000 : 0"
       inkscape:vp_x="0 : 0.5 : 1"
       sodipodi:type="inkscape:persp3d" />
    <inkscape:perspective
       id="perspective5047"
       inkscape:persp3d-origin="0.5 : 0.33333333 : 1"
       inkscape:vp_z="1 : 0.5 : 1"
       inkscape:vp_y="0 : 1000 : 0"
       inkscape:vp_x="0 : 0.5 : 1"
       sodipodi:type="inkscape:persp3d" />
  </defs>
  <sodipodi:namedview
     id="base"
     pagecolor="#ffffff"
     bordercolor="#666666"
     borderopacity="1.0"
     inkscape:pageopacity="0.0"
     inkscape:pageshadow="2"
     inkscape:zoom="0.49497475"
     inkscape:cx="514.30164"
     inkscape:cy="527.81869"
     inkscape:document-units="px"
     inkscape:current-layer="layer1"
     showgrid="false"
     inkscape:window-width="1440"
     inkscape:window-height="840"
     inkscape:window-x="-4"
     inkscape:window-y="-4"
     inkscape:window-maximized="1" />
  <metadata
     id="metadata3178">
    <rdf:RDF>
      <cc:Work
         rdf:about="">
        <dc:format>image/svg+xml</dc:format>
        <dc:type
           rdf:resource="http://purl.org/dc/dcmitype/StillImage" />
        <dc:title>Yi</dc:title>
        <dc:date>2010-08-14</dc:date>
        <dc:creator>
          <cc:Agent>
            <dc:title>Alex Amies</dc:title>
          </cc:Agent>
        </dc:creator>
        <dc:rights>
          <cc:Agent>
            <dc:title>@ Alex Amies 2010</dc:title>
          </cc:Agent>
        </dc:rights>
        <dc:publisher>
          <cc:Agent>
            <dc:title>chinesenotes.com</dc:title>
          </cc:Agent>
        </dc:publisher>
        <dc:source>Yan Qin Ceremonial Inscription</dc:source>
        <dc:language>Chinese 中文</dc:language>
        <dc:description>Tracing from Tang Dynasty Ceremonial Inscription by Yan Zhenqing 颜真卿 (709－785)</dc:description>
        <cc:license
           rdf:resource="http://creativecommons.org/licenses/by/3.0/" />
      </cc:Work>
      <cc:License
         rdf:about="http://creativecommons.org/licenses/by/3.0/">
        <cc:permits
           rdf:resource="http://creativecommons.org/ns#Reproduction" />
        <cc:permits
           rdf:resource="http://creativecommons.org/ns#Distribution" />
        <cc:requires
           rdf:resource="http://creativecommons.org/ns#Notice" />
        <cc:requires
           rdf:resource="http://creativecommons.org/ns#Attribution" />
        <cc:permits
           rdf:resource="http://creativecommons.org/ns#DerivativeWorks" />
      </cc:License>
    </rdf:RDF>
  </metadata>
  <g
     inkscape:label="Layer 1"
     inkscape:groupmode="layer"
     id="layer1"
     transform="translate(0,-52.362183)">
    <g
       transform="matrix(4.7705162,0,0,4.7705162,-1469.5478,-1009.6508)"
       id="g8129"
       style="fill:none;fill-opacity:1">
      <path
         style="fill:#000000;stroke:#000000;stroke-width:4.77051640000000000px;stroke-linecap:butt;stroke-linejoin:miter;stroke-opacity:1;fill-opacity:1"
         d="M 309.1875 20.90625 C 293.8292 23.896028 282.94083 37.171974 275.1875 49.875 C 264.00794 69.751117 286.41355 80.796258 290.28125 98.75 C 296.51612 130.58222 282.25391 163.62025 293.25 194.875 C 296.54402 203.02991 300.37509 211.8615 305.90625 219.03125 C 279.06629 223.81961 252.36941 229.79877 225.53125 236.8125 C 230.97856 207.6286 231.22039 173.41356 224.5 148.9375 C 208.7095 131.09233 159.61669 119.01243 155.1875 127.40625 C 149.35169 138.46579 146.02413 211.836 163.46875 254.78125 C 158.66533 256.30482 153.85755 257.85017 149.03125 259.4375 C 139.12365 269.29582 136.61803 284.27013 135.1875 297.59375 C 134.02211 314.30577 151.2264 331.3199 168.09375 325.125 C 217.50456 282.65352 300.65078 266.3806 371.0625 246.46875 C 390.27289 235.94346 428.97252 247.92902 437.125 223.21875 C 431.84151 210.75277 415.88637 207.79151 403.65625 206.875 C 387.01865 208.04586 370.57879 209.66896 354.21875 211.71875 C 356.71446 204.57837 358.29913 196.52538 360.375 189.25 C 361.55437 147.86324 408.75327 86.164443 388.5 45.40625 C 363.44678 32.622364 332.88337 29.690345 309.1875 20.90625 z M 787.5 53.4375 C 696.60406 52.629194 606.42018 79.143066 508.5 90.78125 C 495.25778 96.765405 482.18935 106.53766 476.875 120.1875 C 465.38156 117.30019 455.27396 118.99141 447.75 129.5625 C 447.9599 157.9152 442.59944 207.48954 453.75 235.0625 C 461.0383 247.01842 486.62165 260.3628 497 252.875 C 505.0305 247.08113 500.55663 202.86158 499.5625 162.96875 C 589.58568 134.16031 671.71499 100.03922 763.90625 103.9375 C 797.1609 106.93668 811.35259 131.60926 845.875 123.5625 C 858.57297 116.6847 848.02853 99.805139 846.5625 87.71875 C 844.63373 68.000585 833.17416 57.798347 815.71875 54.625 C 806.2906 53.910339 796.90303 53.521118 787.5 53.4375 z M 663 117.90625 C 664.88951 117.92802 669.53362 117.97043 668.65625 118.03125 C 623.76951 134.03204 634.87838 206.07465 593.6875 274.78125 C 593.55787 289.18339 610.66869 277.60419 625.65625 265.03125 C 635.06047 279.20407 658.24554 278.52569 673.25 272.875 C 703.69095 261.7461 730.23667 237.88782 764.4375 239.1875 C 787.21519 246.0331 792.47092 262.94433 794.65625 285.5 C 799.5363 371.70141 811.00669 457.59861 812.03125 544.0625 C 812.26064 558.70315 812.23955 573.39551 811.90625 588.0625 C 809.31725 585.48687 806.53763 583.42631 804.0625 582.28125 C 789.50484 578.60099 771.10276 579.36271 755.25 581.9375 C 704.95901 600.05896 652.80501 616.5531 602.71875 632.875 C 596.61479 604.18751 593.48 567.76087 592 529.125 C 631.77791 523.28946 671.92967 510.41772 720 501.78125 C 726.81001 494.41667 723.82227 482.81479 717.53125 476.15625 C 663.33819 467.53435 623.03512 489.72471 592 503.09375 C 591.74565 503.45125 591.49659 503.81691 591.25 504.1875 C 590.65899 476.14553 590.77304 447.62114 591.125 420.46875 C 630.47918 405.76964 686.08784 392.02015 717.65625 378.65625 C 727.23206 372.08987 735.17603 359.60007 730.1875 347.875 C 727.49569 339.19109 717.77806 337.17982 710.1875 334.8125 C 667.53249 341.28025 628.32582 353.52856 592 368 C 592.56925 337.82363 593.04033 311.87317 592.46875 294.03125 C 584.88353 277.29265 567.64148 267.52766 549.71875 266.5 L 547.6875 266.25 C 531.1069 257.90665 518.49971 274.40357 528.96875 288.65625 C 535.21937 307.24929 538.8342 326.724 545 345.40625 C 567.95997 446.28853 540.94621 548.42181 550.8125 650.125 C 531.51114 656.69432 512.75719 663.30299 494.875 670.0625 C 482.51984 678.90308 474.30302 696.85482 483.5625 710.71875 C 492.82489 726.19659 513.72085 724.83618 529.0625 721.6875 C 540.42058 716.40618 551.76085 711.15064 563.09375 705.90625 C 564.05439 707.99039 565.18447 709.81878 566.59375 711.25 C 554.2487 732.94351 543.23108 755.79068 524.46875 772.84375 C 470.3908 828.3072 417.53235 873.71903 358.75 929.5625 C 352.19951 941.86037 331.25104 953.52876 336.4375 968.21875 C 352.29665 979.24637 380.87171 955.53578 395.6875 947.90625 C 473.83361 860.68309 562.17639 815.92039 649.28125 727.6875 C 661.80934 711.3678 666.22159 685.81994 648.75 674.84375 C 645.86332 673.15106 642.74872 672.05533 639.53125 671.3125 C 684.62445 651.52596 730.24675 632.93603 777.5 616.9375 C 788.27925 612.22936 799.68514 614.01547 810.9375 614.75 C 809.05742 651.8162 804.89598 688.7449 797.28125 725.03125 C 794.63715 730.96889 791.07289 734.21939 787 735.625 C 783.468 733.4851 779.8533 731.32169 776.09375 728.96875 C 764.4733 726.84735 741.84279 704.65149 731.71875 710.9375 C 721.15048 717.73568 723.38413 732.23507 725.4375 742.75 C 743.00965 802.28237 779.09015 885.48837 843.40625 908.03125 C 865.14983 912.11133 879.57082 896.48629 893.1875 879.625 C 902.93681 865.76908 898.99551 842.08682 894.625 826.6875 C 877.12377 802.81646 862.03417 787.12618 846.9375 774.78125 C 864.48927 765.20218 877.21965 747.92043 882.46875 728.375 C 904.74811 606.60681 862.73991 481.10279 888.84375 359.46875 C 895.69478 313.84263 884.2935 268.03491 850.21875 235.375 C 818.7779 208.60692 774.55467 205.60256 735.75 205 C 718.37096 205.77426 701.22668 208.51593 684.21875 212.03125 C 703.05346 192.87814 720.31453 170.37354 725.8125 142.46875 C 714.43339 125.81535 693.40617 118.49942 673.9375 117.90625 C 661.98383 117.89432 661.11049 117.88448 663 117.90625 z "
         transform="matrix(0.20962092,0,0,0.20962092,308.04796,222.62014)"
         id="path8069" />
      <path
         style="fill:#000000;stroke:#000000;stroke-width:4.77051640000000000px;stroke-linecap:butt;stroke-linejoin:miter;stroke-opacity:1;fill-opacity:1"
         d="M 426.4375 276 C 423.50193 276.00486 420.53434 276.35072 417.53125 277.09375 C 402.25234 283.81445 394.12764 301.12917 377.03125 305.15625 C 313.80097 338.69508 235.13994 330.36727 171.15625 359.96875 C 157.87184 368.07276 146.37139 380.48528 140.84375 395.09375 C 138.58233 408.23919 143.14781 427.7972 159.40625 428.375 C 220.99734 424.19073 274.08327 386.43427 330.15625 363.625 C 354.48583 353.05883 380.81156 343.79004 407.75 348.15625 C 423.78504 347.82852 438.84995 354.07523 454.59375 354.96875 C 473.31621 351.58946 480.86988 327.24784 473.09375 311.34375 C 465.29935 292.91624 446.98648 275.96598 426.4375 276 z M 419.53125 400.25 C 368.92423 408.91288 322.29708 428.29457 276.8125 441.75 C 269.08374 446.35426 256.22172 452.67024 260.6875 463.78125 C 267.05323 476.17324 292.52542 476.68641 306.25 473.875 C 331.08593 482.43946 356.69563 436.56346 370.28125 449.96875 C 381.56543 483.37749 365.87278 519.21094 355.59375 550.90625 C 354.91888 551.85951 354.29426 552.8386 353.78125 553.875 C 326.35515 552.76912 298.53897 561.0416 274.0625 570.3125 C 253.49576 528.72407 235.67212 477.35666 200.4375 448.875 C 184.19814 438.72907 163.97019 444.31443 147.3125 450.25 C 136.01897 453.76854 126.11076 462.73762 124.4375 474.90625 C 134.29119 531.47145 191.07102 572.50326 198.5 629.0625 C 196.4825 639.91962 200.03448 645.41047 206.375 647.59375 C 182.64122 664.86216 159.61737 682.89704 138.28125 703.1875 C 130.71597 720.25808 135.02111 741.57108 148.59375 754.40625 C 165.13342 771.79378 192.38196 778.87175 214.75 769.25 C 249.40017 755.46693 232.17485 720.5569 237.875 692.65625 C 242.58115 676.06244 249.21451 659.82069 247.59375 640.9375 C 253.20417 638.81644 258.10015 636.71137 261.3125 635.28125 C 273.29421 629.3075 281.23405 617.48576 283.53125 604.59375 C 310.77676 599.23341 338.69648 588.13014 365.4375 579.875 C 376.99519 586.37909 391.32342 589.72958 403.09375 582.375 C 426.93207 568.81834 440.11665 542.10152 443.9375 515.71875 C 447.76417 495.36048 447.9972 474.00832 455.75 454.59375 C 461.79138 446.39982 465.9744 435.06865 458.0625 426.375 C 448.33647 414.03759 434.29881 405.29749 419.53125 400.25 z M 367.03125 623.8125 C 364.75866 623.82532 362.48404 623.9362 360.28125 624.0625 C 319.43356 640.7886 266.61761 740.80858 249.96875 786.125 C 245.93442 792.64525 256.33492 793.61369 266.3125 793.5625 C 299.09711 757.27118 318.09579 725.03699 363.875 684.0625 C 392.1072 675.93621 410.1245 655.33047 386.5 628.4375 C 380.76279 624.59338 373.84902 623.77403 367.03125 623.8125 z M 398.6875 743.375 C 373.57404 743.88195 354.35757 763.9981 330.5 769.71875 C 271.21327 807.4084 174.12656 798.36869 116.65625 818.28125 C 99.469607 826.60776 87.736395 847.78033 95.78125 866.3125 C 106.46764 893.0511 142.50138 894.42688 169.21875 887.5 C 236.69627 865.75236 288.97324 821.27076 362.59375 820.34375 C 391.86788 818.77101 425.37698 838.43268 452.8125 823.09375 C 463.60264 809.1179 455.01827 790.26278 448.3125 776.375 C 437.78073 760.10201 420.70964 746.27414 401.125 743.40625 C 400.30222 743.38065 399.49761 743.35865 398.6875 743.375 z "
         transform="matrix(0.20962092,0,0,0.20962092,308.04796,222.62014)"
         id="path8078" />
    </g>
  </g>
</svg>
