<?xml version="1.0" encoding="UTF-8" standalone="no"?>
<!-- Created with Inkscape (http://www.inkscape.org/) -->

<svg
   xmlns:dc="http://purl.org/dc/elements/1.1/"
   xmlns:cc="http://creativecommons.org/ns#"
   xmlns:rdf="http://www.w3.org/1999/02/22-rdf-syntax-ns#"
   xmlns:svg="http://www.w3.org/2000/svg"
   xmlns="http://www.w3.org/2000/svg"
   xmlns:sodipodi="http://sodipodi.sourceforge.net/DTD/sodipodi-0.dtd"
   xmlns:inkscape="http://www.inkscape.org/namespaces/inkscape"
   width="1000"
   height="1000"
   id="svg3173"
   version="1.1"
   inkscape:version="0.47 r22583"
   sodipodi:docname="9865.svg"
   inkscape:export-filename="E:\chinese\yan\9865.png"
   inkscape:export-xdpi="18.005705"
   inkscape:export-ydpi="18.005705">
  <title
     id="title7887">Hao</title>
  <defs
     id="defs3175">
    <inkscape:perspective
       sodipodi:type="inkscape:persp3d"
       inkscape:vp_x="0 : 526.18109 : 1"
       inkscape:vp_y="0 : 1000 : 0"
       inkscape:vp_z="744.09448 : 526.18109 : 1"
       inkscape:persp3d-origin="372.04724 : 350.78739 : 1"
       id="perspective3181" />
    <inkscape:perspective
       id="perspective3191"
       inkscape:persp3d-origin="0.5 : 0.33333333 : 1"
       inkscape:vp_z="1 : 0.5 : 1"
       inkscape:vp_y="0 : 1000 : 0"
       inkscape:vp_x="0 : 0.5 : 1"
       sodipodi:type="inkscape:persp3d" />
    <inkscape:perspective
       id="perspective4006"
       inkscape:persp3d-origin="0.5 : 0.33333333 : 1"
       inkscape:vp_z="1 : 0.5 : 1"
       inkscape:vp_y="0 : 1000 : 0"
       inkscape:vp_x="0 : 0.5 : 1"
       sodipodi:type="inkscape:persp3d" />
    <inkscape:perspective
       id="perspective4034"
       inkscape:persp3d-origin="0.5 : 0.33333333 : 1"
       inkscape:vp_z="1 : 0.5 : 1"
       inkscape:vp_y="0 : 1000 : 0"
       inkscape:vp_x="0 : 0.5 : 1"
       sodipodi:type="inkscape:persp3d" />
    <inkscape:perspective
       id="perspective4081"
       inkscape:persp3d-origin="0.5 : 0.33333333 : 1"
       inkscape:vp_z="1 : 0.5 : 1"
       inkscape:vp_y="0 : 1000 : 0"
       inkscape:vp_x="0 : 0.5 : 1"
       sodipodi:type="inkscape:persp3d" />
    <inkscape:perspective
       id="perspective4147"
       inkscape:persp3d-origin="0.5 : 0.33333333 : 1"
       inkscape:vp_z="1 : 0.5 : 1"
       inkscape:vp_y="0 : 1000 : 0"
       inkscape:vp_x="0 : 0.5 : 1"
       sodipodi:type="inkscape:persp3d" />
    <inkscape:perspective
       id="perspective3801"
       inkscape:persp3d-origin="0.5 : 0.33333333 : 1"
       inkscape:vp_z="1 : 0.5 : 1"
       inkscape:vp_y="0 : 1000 : 0"
       inkscape:vp_x="0 : 0.5 : 1"
       sodipodi:type="inkscape:persp3d" />
    <inkscape:perspective
       id="perspective3122"
       inkscape:persp3d-origin="0.5 : 0.33333333 : 1"
       inkscape:vp_z="1 : 0.5 : 1"
       inkscape:vp_y="0 : 1000 : 0"
       inkscape:vp_x="0 : 0.5 : 1"
       sodipodi:type="inkscape:persp3d" />
    <inkscape:perspective
       id="perspective3854"
       inkscape:persp3d-origin="0.5 : 0.33333333 : 1"
       inkscape:vp_z="1 : 0.5 : 1"
       inkscape:vp_y="0 : 1000 : 0"
       inkscape:vp_x="0 : 0.5 : 1"
       sodipodi:type="inkscape:persp3d" />
    <inkscape:perspective
       id="perspective3922"
       inkscape:persp3d-origin="0.5 : 0.33333333 : 1"
       inkscape:vp_z="1 : 0.5 : 1"
       inkscape:vp_y="0 : 1000 : 0"
       inkscape:vp_x="0 : 0.5 : 1"
       sodipodi:type="inkscape:persp3d" />
    <inkscape:perspective
       id="perspective3945"
       inkscape:persp3d-origin="0.5 : 0.33333333 : 1"
       inkscape:vp_z="1 : 0.5 : 1"
       inkscape:vp_y="0 : 1000 : 0"
       inkscape:vp_x="0 : 0.5 : 1"
       sodipodi:type="inkscape:persp3d" />
    <inkscape:perspective
       id="perspective3972"
       inkscape:persp3d-origin="0.5 : 0.33333333 : 1"
       inkscape:vp_z="1 : 0.5 : 1"
       inkscape:vp_y="0 : 1000 : 0"
       inkscape:vp_x="0 : 0.5 : 1"
       sodipodi:type="inkscape:persp3d" />
    <inkscape:perspective
       id="perspective3995"
       inkscape:persp3d-origin="0.5 : 0.33333333 : 1"
       inkscape:vp_z="1 : 0.5 : 1"
       inkscape:vp_y="0 : 1000 : 0"
       inkscape:vp_x="0 : 0.5 : 1"
       sodipodi:type="inkscape:persp3d" />
    <inkscape:perspective
       id="perspective3802"
       inkscape:persp3d-origin="0.5 : 0.33333333 : 1"
       inkscape:vp_z="1 : 0.5 : 1"
       inkscape:vp_y="0 : 1000 : 0"
       inkscape:vp_x="0 : 0.5 : 1"
       sodipodi:type="inkscape:persp3d" />
    <inkscape:perspective
       id="perspective3833"
       inkscape:persp3d-origin="0.5 : 0.33333333 : 1"
       inkscape:vp_z="1 : 0.5 : 1"
       inkscape:vp_y="0 : 1000 : 0"
       inkscape:vp_x="0 : 0.5 : 1"
       sodipodi:type="inkscape:persp3d" />
    <inkscape:perspective
       id="perspective3913"
       inkscape:persp3d-origin="0.5 : 0.33333333 : 1"
       inkscape:vp_z="1 : 0.5 : 1"
       inkscape:vp_y="0 : 1000 : 0"
       inkscape:vp_x="0 : 0.5 : 1"
       sodipodi:type="inkscape:persp3d" />
    <inkscape:perspective
       id="perspective4500"
       inkscape:persp3d-origin="0.5 : 0.33333333 : 1"
       inkscape:vp_z="1 : 0.5 : 1"
       inkscape:vp_y="0 : 1000 : 0"
       inkscape:vp_x="0 : 0.5 : 1"
       sodipodi:type="inkscape:persp3d" />
    <inkscape:perspective
       id="perspective5117"
       inkscape:persp3d-origin="0.5 : 0.33333333 : 1"
       inkscape:vp_z="1 : 0.5 : 1"
       inkscape:vp_y="0 : 1000 : 0"
       inkscape:vp_x="0 : 0.5 : 1"
       sodipodi:type="inkscape:persp3d" />
    <inkscape:perspective
       id="perspective5212"
       inkscape:persp3d-origin="0.5 : 0.33333333 : 1"
       inkscape:vp_z="1 : 0.5 : 1"
       inkscape:vp_y="0 : 1000 : 0"
       inkscape:vp_x="0 : 0.5 : 1"
       sodipodi:type="inkscape:persp3d" />
    <inkscape:perspective
       id="perspective5834"
       inkscape:persp3d-origin="0.5 : 0.33333333 : 1"
       inkscape:vp_z="1 : 0.5 : 1"
       inkscape:vp_y="0 : 1000 : 0"
       inkscape:vp_x="0 : 0.5 : 1"
       sodipodi:type="inkscape:persp3d" />
    <inkscape:perspective
       id="perspective5906"
       inkscape:persp3d-origin="0.5 : 0.33333333 : 1"
       inkscape:vp_z="1 : 0.5 : 1"
       inkscape:vp_y="0 : 1000 : 0"
       inkscape:vp_x="0 : 0.5 : 1"
       sodipodi:type="inkscape:persp3d" />
    <inkscape:perspective
       id="perspective3787"
       inkscape:persp3d-origin="0.5 : 0.33333333 : 1"
       inkscape:vp_z="1 : 0.5 : 1"
       inkscape:vp_y="0 : 1000 : 0"
       inkscape:vp_x="0 : 0.5 : 1"
       sodipodi:type="inkscape:persp3d" />
    <inkscape:perspective
       id="perspective3839"
       inkscape:persp3d-origin="0.5 : 0.33333333 : 1"
       inkscape:vp_z="1 : 0.5 : 1"
       inkscape:vp_y="0 : 1000 : 0"
       inkscape:vp_x="0 : 0.5 : 1"
       sodipodi:type="inkscape:persp3d" />
    <inkscape:perspective
       id="perspective3913-3"
       inkscape:persp3d-origin="0.5 : 0.33333333 : 1"
       inkscape:vp_z="1 : 0.5 : 1"
       inkscape:vp_y="0 : 1000 : 0"
       inkscape:vp_x="0 : 0.5 : 1"
       sodipodi:type="inkscape:persp3d" />
    <inkscape:perspective
       id="perspective3969"
       inkscape:persp3d-origin="0.5 : 0.33333333 : 1"
       inkscape:vp_z="1 : 0.5 : 1"
       inkscape:vp_y="0 : 1000 : 0"
       inkscape:vp_x="0 : 0.5 : 1"
       sodipodi:type="inkscape:persp3d" />
    <inkscape:perspective
       id="perspective4021"
       inkscape:persp3d-origin="0.5 : 0.33333333 : 1"
       inkscape:vp_z="1 : 0.5 : 1"
       inkscape:vp_y="0 : 1000 : 0"
       inkscape:vp_x="0 : 0.5 : 1"
       sodipodi:type="inkscape:persp3d" />
  </defs>
  <sodipodi:namedview
     id="base"
     pagecolor="#ffffff"
     bordercolor="#666666"
     borderopacity="1.0"
     inkscape:pageopacity="0.0"
     inkscape:pageshadow="2"
     inkscape:zoom="0.49497475"
     inkscape:cx="483.07102"
     inkscape:cy="534.97897"
     inkscape:document-units="px"
     inkscape:current-layer="g4634"
     showgrid="false"
     inkscape:window-width="1440"
     inkscape:window-height="840"
     inkscape:window-x="-4"
     inkscape:window-y="-4"
     inkscape:window-maximized="1" />
  <metadata
     id="metadata3178">
    <rdf:RDF>
      <cc:Work
         rdf:about="">
        <dc:format>image/svg+xml</dc:format>
        <dc:type
           rdf:resource="http://purl.org/dc/dcmitype/StillImage" />
        <dc:title>Hao</dc:title>
        <dc:date>2010-08-21</dc:date>
        <dc:creator>
          <cc:Agent>
            <dc:title>Alex Amies</dc:title>
          </cc:Agent>
        </dc:creator>
        <dc:rights>
          <cc:Agent>
            <dc:title>@ Alex Amies 2010</dc:title>
          </cc:Agent>
        </dc:rights>
        <dc:publisher>
          <cc:Agent>
            <dc:title>chinesenotes.com</dc:title>
          </cc:Agent>
        </dc:publisher>
        <dc:source>Yan Qin Ceremonial Inscription</dc:source>
        <dc:language>Chinese 中文</dc:language>
        <dc:description>Tracing from Tang Dynasty Ceremonial Inscription by Yan Zhenqing 颜真卿 (709－785)</dc:description>
        <cc:license
           rdf:resource="http://creativecommons.org/licenses/by/3.0/" />
      </cc:Work>
      <cc:License
         rdf:about="http://creativecommons.org/licenses/by/3.0/">
        <cc:permits
           rdf:resource="http://creativecommons.org/ns#Reproduction" />
        <cc:permits
           rdf:resource="http://creativecommons.org/ns#Distribution" />
        <cc:requires
           rdf:resource="http://creativecommons.org/ns#Notice" />
        <cc:requires
           rdf:resource="http://creativecommons.org/ns#Attribution" />
        <cc:permits
           rdf:resource="http://creativecommons.org/ns#DerivativeWorks" />
      </cc:License>
    </rdf:RDF>
  </metadata>
  <g
     inkscape:label="Layer 1"
     inkscape:groupmode="layer"
     id="layer1"
     transform="translate(0,-52.362183)">
    <g
       transform="matrix(4.7609464,0,0,4.7609464,-444.07486,-2879.5352)"
       id="g4634"
       style="fill:#000000;fill-opacity:1">
      <path
         style="fill:#000000;stroke:#000000;stroke-width:4.75137663000000020px;stroke-linecap:butt;stroke-linejoin:miter;stroke-opacity:1;fill-opacity:1"
         d="M 792.6875 50.78125 C 789.56016 50.731154 786.42596 50.967809 783.3125 51.46875 C 763.64179 54.310797 745.36059 62.656636 726.34375 68.0625 C 698.05578 77.194471 669.50741 86.854936 644.125 102.625 L 643.46875 103.25 L 642.59375 104.71875 C 638.762 112.245 641.37626 120.67042 650.25 122.34375 C 663.80037 128.79193 678.9417 131.12765 693.84375 129.875 C 740.88585 128.53265 788.19292 122.74982 835.125 128.8125 C 843.64657 131.2501 855.17621 128.08081 855.09375 117.5625 C 855.9092 105.72012 848.23947 95.692584 844.71875 84.875 C 835.95706 64.542968 814.57885 51.131922 792.6875 50.78125 z M 482.53125 58.1875 C 481.06792 58.161978 479.58941 58.225131 478.09375 58.375 C 406.94464 68.506484 337.35497 86.350136 267.71875 103.9375 C 259.36224 105.8953 256.14604 115.06512 252.28125 121.6875 L 252.28125 138.65625 C 269.19061 149.7633 289.25221 139.93142 306.625 135.46875 C 336.34468 128.1237 367.35091 127.96091 396.90625 119.8125 C 408.49473 107.3919 433.25246 115.01291 433.875 132.59375 C 436.11096 181.65255 400.98362 221.13529 394.3125 268.34375 C 389.68339 268.16687 385.036 268.63649 380.625 269.75 C 347.90551 285.81705 302.44871 281.9704 267.375 293.6875 C 267.46843 290.81221 267.41098 287.93674 267.1875 285.0625 C 266.76417 267.60082 267.07462 249.8446 263.65625 232.6875 C 291.6473 220.44258 325.86138 223.29806 353.78125 213.5 C 368.3088 211.22155 367.46874 196.42352 363.03125 185.59375 C 360.21863 181.53266 355.65131 178.97535 350.6875 178.9375 C 325.733 176.0996 300.24606 178.57221 276.0625 185.1875 C 267.86131 187.99263 260.59482 193.18916 254.75 199.59375 C 240.78887 159.09223 213.26994 135.41856 169 124.03125 C 159.07538 122.89319 147.92985 127.08574 142 135.25 C 136.67607 146.09686 143.14782 157.99079 147.15625 168.1875 C 160.16915 207.75563 179.79669 241.6279 184.71875 282.84375 C 186.13023 301.63073 181.84072 322.92237 194.0625 339.0625 C 203.41995 351.61288 220.9971 351.76729 234.75 348 C 240.24912 345.41514 245.01696 342.03636 249.09375 338.09375 C 251.4649 340.0349 253.86688 341.97708 255.6875 344 C 265.96787 341.93093 276.26579 340.07883 286.5625 338.40625 C 284.2431 343.17668 282.36961 348.36013 280.0625 352.625 C 271.75779 371.84942 288.72469 385.64324 304.8125 393.15625 C 309.39506 394.16107 314.17091 395.04394 318.9375 395.46875 C 248.05118 410.35538 177.16268 425.64445 108.0625 447.5 C 91.280069 459.70716 109.20851 489.5979 127.9375 482.5 C 170.16024 482.59617 210.28189 467.9327 249.8125 454.875 C 309.78781 442.96092 367.48942 422.22978 428.40625 415.5625 C 450.65282 411.15662 473.45115 408.05313 496.0625 409.46875 C 516.67083 403.16845 513.71672 370.55051 494.78125 363.875 C 449.32216 356.47944 403.07872 379.68162 357.96875 387.25 C 352.93804 388.31119 347.9084 389.35002 342.875 390.40625 C 348.14226 384.91674 351.20452 377.36793 352.0625 369.875 C 352.08154 364.10292 346.80658 360.63514 343.75 356.375 C 334.0488 349.37478 324.45393 341.14742 314.25 334.21875 C 348.99442 329.23565 383.75484 325.02386 418.3125 317.9375 C 421.77284 314.89141 424.61643 310.83744 426.4375 306.40625 C 427.12829 306.24802 427.8233 306.06617 428.5 305.875 C 445.18469 303.4214 458.58947 291.50363 466.53125 277.125 C 489.58142 219.19052 527.46738 161.73132 528.21875 98.34375 C 522.51209 78.062609 504.48127 58.570324 482.53125 58.1875 z M 686.0625 145.75 C 682.14492 145.93219 678.25782 147.01501 674.84375 148.84375 C 664.37995 155.36653 656.2034 165.59627 651.6875 177.03125 C 646.593 190.84047 647.9403 206.69373 639.90625 219.4375 C 632.6569 230.04922 621.28564 238.16982 617.9375 251.15625 C 615.80581 256.63768 618.91659 262.82819 624.21875 264.875 C 614.59816 268.45476 605.51583 273.1557 597.5 280.15625 C 593.41838 284.81256 590.84069 290.35995 588.78125 296.125 C 586.50947 294.13255 583.98869 292.35924 581.15625 290.875 C 574.37438 288.63926 566.71954 290.55834 561.125 294.78125 C 547.73822 374.80447 557.86308 456.08047 553.75 536.65625 C 553.04243 579.43235 551.93536 622.23147 550.875 665 C 551.56929 666.38871 552.40045 667.59757 553.3125 668.6875 C 538.84879 671.02123 524.02622 672.62459 509.21875 674.875 C 503.6175 677.56784 496.13373 683.1097 498.6875 690.21875 C 505.14801 700.62266 502.27847 717.64206 517.375 718.21875 C 550.64944 721.57193 585.59889 717.78409 615.53125 702.125 C 636.33044 688.65862 646.04205 665.65291 671.78125 660.65625 C 682.31565 657.20385 690.78606 647.18066 691.84375 636.09375 C 684.09288 619.37531 649.20803 623.313 636.03125 632.03125 C 623.16094 644.93767 608.78089 653.20127 593.4375 658.84375 C 598.04367 620.6942 601.62903 581.84669 604.34375 542.71875 C 606.93106 543.07825 609.64805 543.02321 612.0625 543 C 635.57843 535.7696 660.63028 540.32554 684.25 534.75 C 692.17393 531.44409 700.11004 526.23992 703.875 518.25 C 705.64088 511.73122 702.91932 504.79734 699.34375 499.375 C 687.71976 489.37773 663.69426 487.78711 649.21875 492.375 C 634.02955 498.73733 619.203 506.44101 606.03125 516.375 C 607.72746 487.98547 609.01217 459.50288 609.9375 431.09375 C 612.14038 431.06209 614.37469 430.93297 616.46875 431.3125 C 648.01911 432.58039 679.60624 430.67044 711.03125 427.96875 C 731.27403 424.6856 739.27018 404.37733 734.65625 385.96875 C 729.15926 379.51162 719.41309 379.71395 713.65625 373.59375 C 679.48072 377.91362 640.94898 386.79648 610.6875 404.9375 C 611.23679 383.24826 611.61247 361.62825 611.8125 340.15625 C 608.20797 330.5447 604.94278 319.92657 599.90625 310.625 C 631.60924 311.98985 661.30119 292.50099 692.65625 288.5 C 721.9783 281.73746 748.61254 266.79261 776.78125 257.1875 C 807.05182 256.35867 815.41738 293.5429 810.8125 317.46875 C 810.90391 366.91546 817.04956 416.29819 812.90625 465.75 C 809.75365 521.41822 806.96617 577.11441 806.78125 632.875 C 804.91937 677.15964 800.37606 721.2657 798.1875 765.53125 C 777.53236 754.20869 756.19817 744.91479 732.1875 744.6875 C 729.46548 745.24986 726.92895 746.98892 725.75 749.5625 C 747.97681 814.05418 787.00998 872.29454 831.625 923.65625 C 856.60792 944.20764 888.69993 949.48514 919.28125 940.25 C 931.79459 933.28831 926.44171 918.3496 924.1875 907.375 C 915.10566 859.90289 888.87667 822.75579 850.4375 794.34375 C 857.11967 792.35605 863.13997 788.32113 867.53125 781.78125 C 888.00084 737.54263 887.59324 687.47524 891.21875 639.8125 C 894.16597 543.81649 888.82638 447.68385 895.3125 351.78125 C 895.22823 326.14436 899.88072 298.97385 891.0625 274.53125 C 874.02741 245.65778 837.30286 242.60063 810.6875 226.6875 C 772.82631 209.58637 727.92316 219.15493 694.875 242.40625 C 684.69067 247.92719 673.56583 251.30839 662.25 254.25 C 678.50117 239.35864 695.72122 225.55479 713.15625 212.09375 C 726.21567 189.21198 713.32217 159.91534 693.03125 146.40625 C 690.76555 145.8532 688.41305 145.64068 686.0625 145.75 z M 443.15625 458.4375 C 431.11141 458.51958 418.72497 461.30654 407.15625 465.53125 C 350.70366 483.39051 293.61467 499.29651 237.9375 519.53125 C 233.31681 522.20681 232.03874 527.72568 230.25 532.34375 C 232.51259 538.00018 234.76871 543.65607 237.03125 549.3125 C 284.71803 537.31882 332.00907 522.14656 380.78125 511.3125 C 387.97804 495.80843 412.18524 514.28204 401.1875 526.1875 C 395.65018 555.94103 377.84702 582.72846 371.21875 611.875 C 354.19768 606.19314 336.28872 612.95147 319.1875 615.34375 C 299.7779 622.77168 275.10446 624.93816 250.53125 628 C 253.13242 616.31296 249.16134 603.7912 245.3125 592.65625 C 234.8178 562.87382 217.14966 535.5024 193.8125 514.1875 C 180.54098 508.17404 163.7746 513.11312 149.65625 515.375 C 149.93191 515.37738 150.19523 515.37024 150.46875 515.375 C 151.16861 521.12246 145.97058 523.91181 142 527.65625 C 135.62747 534.60161 140.67884 544.17557 144.375 551.09375 C 156.29784 573.75609 177.38122 591.09887 184.875 616.15625 C 186.32573 625.25318 191.64952 633.13055 198.84375 638.59375 C 188.24208 642.38234 178.60711 647.476 170.5625 654.625 C 169.61274 656.09837 169.14497 657.87716 169.15625 659.625 C 169.05865 667.65972 163.69718 676.51249 169.4375 683.8125 C 177.0652 697.12482 194.02343 702.18046 208.40625 699 C 217.74437 695.0058 226.16718 688.91526 235.6875 685.15625 C 251.59978 678.44209 267.53395 671.97736 283.65625 666.21875 C 272.77826 697.30525 278.21066 731.35798 283.0625 763.21875 C 287.60516 812.83205 283.80835 862.77431 277.5 912.03125 C 277.76138 928.20956 285.31206 947.37318 302.46875 951.78125 C 329.08596 956.6735 353.33974 932.11489 354.96875 906.5 C 364.22198 853.28885 361.64486 799.00701 360.40625 745.28125 C 360.12631 718.04607 354.25455 690.05377 338.84375 667.21875 C 334.77076 660.54871 328.20938 655.68137 320.53125 654.59375 C 337.94269 649.91038 355.67017 646.38851 373.90625 644.59375 C 374.07991 644.53764 374.23706 644.4682 374.40625 644.40625 C 378.97673 651.01418 386.12015 655.59596 394.71875 655.09375 C 409.06186 655.08899 422.67214 644.29603 425.09375 630 C 439.58997 590.41264 454.80038 550.78241 475.53125 514 C 482.39058 503.44865 498.28852 493.65356 490.15625 479.21875 C 477.63737 463.94851 460.76025 458.31754 443.15625 458.4375 z M 734.21875 605.3125 C 654.13892 687.30699 586.99244 781.00226 514.3125 869.53125 C 502.97431 881.6391 474.77791 892.60683 483.03125 912.78125 C 496.2654 923.60717 517.06699 915.83166 528.21875 904.96875 C 540.00385 891.5654 544.26708 873.42483 555.6875 859.6875 C 606.11435 781.0658 683.9319 726.56686 737.53125 650.0625 C 748.15216 638.97054 765.07866 608.6528 739.25 605.75 L 736.6875 605.46875 L 734.21875 605.3125 z M 435.25 703.5 C 433.67175 703.49441 432.08399 703.55253 430.46875 703.71875 C 423.39713 707.0179 419.24736 724.88876 422.40625 736.90625 C 427.47456 764.35953 445.21422 788.89598 444.0625 817.5625 C 443.36902 836.31196 461.61607 854.75098 480.21875 855.9375 C 493.9307 856.27648 508.84167 856.54653 520.8125 848.84375 C 531.63956 840.39202 533.93488 825.49323 533.6875 812.5625 C 533.29377 792.84109 522.03096 775.55711 510.65625 760.25 C 491.84617 738.10261 467.34117 703.61357 435.25 703.5 z M 178.5 757.125 C 177.61825 757.13638 176.71896 757.26415 175.78125 757.53125 C 160.37764 763.40745 150.70289 778.55398 147.84375 794.34375 C 146.07073 825.71415 138.825 860.39638 162 885.40625 C 174.67916 896.68227 192.89862 902.87484 209.65625 898.59375 C 219.28617 896.33716 228.16865 888.17528 228.03125 877.75 C 225.38002 838.0748 215.2707 800.58307 193.3125 767.125 C 189.48306 762.72834 184.67228 757.04537 178.5 757.125 z "
         transform="matrix(0.21004227,0,0,0.21004227,93.274493,615.82239)"
         id="path3922" />
    </g>
  </g>
</svg>
