<?xml version="1.0" encoding="UTF-8" standalone="no"?>
<!-- Created with Inkscape (http://www.inkscape.org/) -->

<svg
   xmlns:dc="http://purl.org/dc/elements/1.1/"
   xmlns:cc="http://creativecommons.org/ns#"
   xmlns:rdf="http://www.w3.org/1999/02/22-rdf-syntax-ns#"
   xmlns:svg="http://www.w3.org/2000/svg"
   xmlns="http://www.w3.org/2000/svg"
   xmlns:sodipodi="http://sodipodi.sourceforge.net/DTD/sodipodi-0.dtd"
   xmlns:inkscape="http://www.inkscape.org/namespaces/inkscape"
   width="1000"
   height="1000"
   id="svg3173"
   version="1.1"
   inkscape:version="0.47 r22583"
   sodipodi:docname="99ac.svg"
   inkscape:export-filename="E:\chinese\yan\99ac.png"
   inkscape:export-xdpi="18.005705"
   inkscape:export-ydpi="18.005705">
  <title
     id="title2820">Ma</title>
  <defs
     id="defs3175">
    <inkscape:perspective
       sodipodi:type="inkscape:persp3d"
       inkscape:vp_x="0 : 526.18109 : 1"
       inkscape:vp_y="0 : 1000 : 0"
       inkscape:vp_z="744.09448 : 526.18109 : 1"
       inkscape:persp3d-origin="372.04724 : 350.78739 : 1"
       id="perspective3181" />
    <inkscape:perspective
       id="perspective3191"
       inkscape:persp3d-origin="0.5 : 0.33333333 : 1"
       inkscape:vp_z="1 : 0.5 : 1"
       inkscape:vp_y="0 : 1000 : 0"
       inkscape:vp_x="0 : 0.5 : 1"
       sodipodi:type="inkscape:persp3d" />
    <inkscape:perspective
       id="perspective4006"
       inkscape:persp3d-origin="0.5 : 0.33333333 : 1"
       inkscape:vp_z="1 : 0.5 : 1"
       inkscape:vp_y="0 : 1000 : 0"
       inkscape:vp_x="0 : 0.5 : 1"
       sodipodi:type="inkscape:persp3d" />
    <inkscape:perspective
       id="perspective4034"
       inkscape:persp3d-origin="0.5 : 0.33333333 : 1"
       inkscape:vp_z="1 : 0.5 : 1"
       inkscape:vp_y="0 : 1000 : 0"
       inkscape:vp_x="0 : 0.5 : 1"
       sodipodi:type="inkscape:persp3d" />
    <inkscape:perspective
       id="perspective4081"
       inkscape:persp3d-origin="0.5 : 0.33333333 : 1"
       inkscape:vp_z="1 : 0.5 : 1"
       inkscape:vp_y="0 : 1000 : 0"
       inkscape:vp_x="0 : 0.5 : 1"
       sodipodi:type="inkscape:persp3d" />
    <inkscape:perspective
       id="perspective4147"
       inkscape:persp3d-origin="0.5 : 0.33333333 : 1"
       inkscape:vp_z="1 : 0.5 : 1"
       inkscape:vp_y="0 : 1000 : 0"
       inkscape:vp_x="0 : 0.5 : 1"
       sodipodi:type="inkscape:persp3d" />
    <inkscape:perspective
       id="perspective3777"
       inkscape:persp3d-origin="0.5 : 0.33333333 : 1"
       inkscape:vp_z="1 : 0.5 : 1"
       inkscape:vp_y="0 : 1000 : 0"
       inkscape:vp_x="0 : 0.5 : 1"
       sodipodi:type="inkscape:persp3d" />
  </defs>
  <sodipodi:namedview
     id="base"
     pagecolor="#ffffff"
     bordercolor="#666666"
     borderopacity="1.0"
     inkscape:pageopacity="0.0"
     inkscape:pageshadow="2"
     inkscape:zoom="0.49497475"
     inkscape:cx="546.74458"
     inkscape:cy="468.57143"
     inkscape:document-units="px"
     inkscape:current-layer="layer1"
     showgrid="false"
     inkscape:window-width="1440"
     inkscape:window-height="840"
     inkscape:window-x="-4"
     inkscape:window-y="-4"
     inkscape:window-maximized="1" />
  <metadata
     id="metadata3178">
    <rdf:RDF>
      <cc:Work
         rdf:about="">
        <dc:format>image/svg+xml</dc:format>
        <dc:type
           rdf:resource="http://purl.org/dc/dcmitype/StillImage" />
        <dc:title>Ma</dc:title>
        <dc:date>2010-07-15</dc:date>
        <dc:creator>
          <cc:Agent>
            <dc:title>Alex Amies</dc:title>
          </cc:Agent>
        </dc:creator>
        <dc:rights>
          <cc:Agent>
            <dc:title>@ Alex Amies 2010</dc:title>
          </cc:Agent>
        </dc:rights>
        <dc:publisher>
          <cc:Agent>
            <dc:title>chinesenotes.com</dc:title>
          </cc:Agent>
        </dc:publisher>
        <dc:source>Yan Qin Ceremonial Inscription</dc:source>
        <dc:language>Chinese 中文</dc:language>
        <dc:description>Tracing from Tang Dynasty Ceremonial Inscription by Yan Zhenqing 颜真卿 (709－785)</dc:description>
        <cc:license
           rdf:resource="http://creativecommons.org/licenses/by/3.0/" />
      </cc:Work>
      <cc:License
         rdf:about="http://creativecommons.org/licenses/by/3.0/">
        <cc:permits
           rdf:resource="http://creativecommons.org/ns#Reproduction" />
        <cc:permits
           rdf:resource="http://creativecommons.org/ns#Distribution" />
        <cc:requires
           rdf:resource="http://creativecommons.org/ns#Notice" />
        <cc:requires
           rdf:resource="http://creativecommons.org/ns#Attribution" />
        <cc:permits
           rdf:resource="http://creativecommons.org/ns#DerivativeWorks" />
      </cc:License>
    </rdf:RDF>
  </metadata>
  <g
     inkscape:label="Layer 1"
     inkscape:groupmode="layer"
     id="layer1"
     transform="translate(0,-52.362183)">
    <path
       style="fill:#000000;stroke:#000000;stroke-width:4.74886130999999970px;stroke-linecap:butt;stroke-linejoin:miter;stroke-opacity:1;fill-opacity:1"
       d="M 646.65625 25.375 C 623.44723 25.597445 597.37351 30.794929 574 33.375 C 522.67373 47.347337 471.53527 62.03784 420.09375 75.5625 C 384.1714 84.163653 348.26609 92.77386 312.34375 101.375 C 303.38043 80.778844 288.7879 68.78224 261.8125 66.875 C 241.32287 81.38372 254.91558 107.75199 251.6875 128.53125 C 252.00614 271.52943 238.88696 415.03211 247.6875 557.96875 C 252.19241 589.92346 259.65218 600.01281 287.25 613 C 315.32711 599.98696 326.5693 586.73854 330.15625 569.25 C 357.84689 589.01399 420.14581 555.8064 452.03125 553.15625 C 539.02085 539.83327 625.98405 526.29215 712.96875 512.9375 C 766.00223 534.46205 744.45806 609.41034 748.625 654.6875 C 737.53512 727.03403 722.59357 803.64099 679.25 864.125 C 646.33232 915.24991 584.86521 827.91421 562.84375 852.71875 C 580.3519 884.3758 628.63636 915.99555 581.65625 946.53125 C 588.07553 1009.6599 683.79372 995.15645 719.84375 964.78125 C 785.22555 931.43503 820.96816 862.33305 849.25 797.9375 C 876.20891 709.40581 873.50623 614.2882 858.625 523.96875 C 844.55042 472.12823 794.01714 412.8452 735.03125 432.8125 C 697.04933 460.48796 654.96124 479.77838 607.34375 483.09375 C 577.3091 489.21969 546.81999 493.85835 516.3125 498.5625 C 519.17558 487.25314 517.18974 473.96655 518.8125 462.4375 C 519.78611 437.44738 520.77561 412.46083 521.6875 387.46875 C 550.81829 380.61004 580.02076 374.11163 609.40625 368.4375 C 625.2825 365.4169 641.09588 370.74119 657.03125 372.15625 C 677.94585 374.01349 695.63961 357.95 677.5625 341.375 C 671.3801 335.70634 667.99127 324.92286 660.375 322.96875 C 641.87942 318.22326 619.12708 316.44127 599.375 323.8125 C 572.03904 327.94104 548.76416 343.99333 522.90625 352.3125 C 524.25134 311.6245 525.31431 270.92858 525.71875 230.21875 C 557.34414 223.69617 589.43015 218.91771 620.125 208.8125 C 638.54104 197.12218 629.81932 177.13759 609.84375 174.8125 C 592.711 174.59691 575.03428 180.42775 557.6875 182.53125 C 546.97965 184.04602 536.3838 186.09481 525.875 188.46875 C 525.87453 188.22883 525.87552 187.98992 525.875 187.75 C 524.21 164.55343 532.24766 139.1743 517.75 118.90625 C 513.96316 111.99588 509.40965 107.04149 504.3125 103.5 C 528.75857 97.854509 553.11114 92.249032 577.28125 87.21875 C 612.8969 84.38112 656.56455 90.8378 684.125 78.75 C 699.46367 72.02258 688.91504 31.878575 672.25 27.875 C 664.37236 25.982497 655.73804 25.287956 646.65625 25.375 z M 437.90625 118.5 C 435.87587 128.53096 436.76026 139.77564 436.71875 150.21875 C 437.46784 171.02466 437.97515 191.86217 438.4375 212.6875 C 434.03037 213.93112 429.60965 215.13445 425.1875 216.3125 C 390.34445 226.91789 355.0643 235.49598 319.59375 243.5625 C 320.15378 208.53623 320.51129 173.5034 319.59375 138.5 C 358.87956 134.40931 398.43512 127.01005 437.90625 118.5 z M 439.21875 248.84375 C 439.94533 280.55396 440.84397 312.23606 442.59375 343.875 C 442.97737 352.63129 443.71399 361.3017 444.75 369.875 C 414.50897 376.36942 384.30508 383.0031 354.5625 391.4375 L 319.25 401.90625 C 317.82216 360.27102 318.3628 318.58925 319.0625 276.90625 C 327.18188 278.09046 338.05629 273.94622 345.84375 273.15625 C 376.92834 264.9081 407.9768 256.4821 439.21875 248.84375 z M 450.5625 404.65625 C 457.64627 438.43113 468.41193 471.27868 479.4375 504.375 C 428.79422 512.73855 378.66375 523.08634 331.1875 542.71875 C 330.40285 530.69308 328.58893 516.90968 327.1875 500.65625 C 324.06194 477.59663 321.95355 454.50167 320.59375 431.40625 C 339.17301 434.21364 359.10107 425.45085 377.4375 422.15625 C 401.86057 416.54874 426.21267 410.60927 450.5625 404.65625 z M 622.3125 587.84375 C 601.63665 588.31624 580.94848 594.05861 563.71875 604.5 C 560.05895 606.71791 562.00715 615.32839 565.40625 618.09375 C 589.42276 637.63242 614.97537 659.06313 634.875 684.25 C 653.27328 707.53657 692.14645 702.85901 701.5 676.3125 C 712.17055 646.0282 704.80426 617.77968 680.75 602.8125 C 663.65761 592.17717 642.98835 587.37126 622.3125 587.84375 z M 416.1875 589.15625 C 402.52575 588.94829 386.12048 595.09338 378.84375 604.5 C 366.03446 621.05857 398.58818 631.14672 409.71875 645.0625 C 426.32518 665.82433 440.85326 688.42579 459.34375 707.6875 C 475.68796 724.7134 509.90485 731.68802 510.1875 697.75 C 510.65906 641.14732 471.69967 597.89063 421.84375 589.625 C 420.03848 589.3257 418.13918 589.18596 416.1875 589.15625 z M 271.375 614.21875 C 255.85417 614.92818 243.63294 644.43685 243.21875 660.375 C 242.04697 705.46316 275.52162 758.73315 322.6875 764.71875 C 353.67971 768.65181 356.75767 718.58871 350 697.78125 C 338.05181 660.99187 309.77912 624.30204 275.375 614.6875 C 274.01769 614.30818 272.69032 614.15863 271.375 614.21875 z M 27.78125 646.90625 C 10.537375 675.20994 52.962856 693.09099 65.40625 714.9375 C 82.850954 751.80068 109.73112 820.17413 162.4375 794.8125 C 182.39763 774.88448 180.10838 744.2899 176.46875 718.78125 C 152.44479 652.38775 89.031587 648.00708 27.78125 646.90625 z "
       transform="translate(0,52.362183)"
       id="path4081" />
  </g>
</svg>
