<?xml version="1.0" encoding="UTF-8" standalone="no"?>
<!-- Created with Inkscape (http://www.inkscape.org/) -->

<svg
   xmlns:dc="http://purl.org/dc/elements/1.1/"
   xmlns:cc="http://creativecommons.org/ns#"
   xmlns:rdf="http://www.w3.org/1999/02/22-rdf-syntax-ns#"
   xmlns:svg="http://www.w3.org/2000/svg"
   xmlns="http://www.w3.org/2000/svg"
   xmlns:sodipodi="http://sodipodi.sourceforge.net/DTD/sodipodi-0.dtd"
   xmlns:inkscape="http://www.inkscape.org/namespaces/inkscape"
   width="1000"
   height="1000"
   id="svg3173"
   version="1.1"
   inkscape:version="0.47 r22583"
   sodipodi:docname="9f6f.svg"
   inkscape:export-filename="E:\chinese\yan\9f6f.png"
   inkscape:export-xdpi="18.005705"
   inkscape:export-ydpi="18.005705">
  <title
     id="title6660">Lu</title>
  <defs
     id="defs3175">
    <inkscape:perspective
       sodipodi:type="inkscape:persp3d"
       inkscape:vp_x="0 : 526.18109 : 1"
       inkscape:vp_y="0 : 1000 : 0"
       inkscape:vp_z="744.09448 : 526.18109 : 1"
       inkscape:persp3d-origin="372.04724 : 350.78739 : 1"
       id="perspective3181" />
    <inkscape:perspective
       id="perspective3191"
       inkscape:persp3d-origin="0.5 : 0.33333333 : 1"
       inkscape:vp_z="1 : 0.5 : 1"
       inkscape:vp_y="0 : 1000 : 0"
       inkscape:vp_x="0 : 0.5 : 1"
       sodipodi:type="inkscape:persp3d" />
    <inkscape:perspective
       id="perspective4006"
       inkscape:persp3d-origin="0.5 : 0.33333333 : 1"
       inkscape:vp_z="1 : 0.5 : 1"
       inkscape:vp_y="0 : 1000 : 0"
       inkscape:vp_x="0 : 0.5 : 1"
       sodipodi:type="inkscape:persp3d" />
    <inkscape:perspective
       id="perspective4034"
       inkscape:persp3d-origin="0.5 : 0.33333333 : 1"
       inkscape:vp_z="1 : 0.5 : 1"
       inkscape:vp_y="0 : 1000 : 0"
       inkscape:vp_x="0 : 0.5 : 1"
       sodipodi:type="inkscape:persp3d" />
    <inkscape:perspective
       id="perspective4081"
       inkscape:persp3d-origin="0.5 : 0.33333333 : 1"
       inkscape:vp_z="1 : 0.5 : 1"
       inkscape:vp_y="0 : 1000 : 0"
       inkscape:vp_x="0 : 0.5 : 1"
       sodipodi:type="inkscape:persp3d" />
    <inkscape:perspective
       id="perspective4147"
       inkscape:persp3d-origin="0.5 : 0.33333333 : 1"
       inkscape:vp_z="1 : 0.5 : 1"
       inkscape:vp_y="0 : 1000 : 0"
       inkscape:vp_x="0 : 0.5 : 1"
       sodipodi:type="inkscape:persp3d" />
    <inkscape:perspective
       id="perspective3807"
       inkscape:persp3d-origin="0.5 : 0.33333333 : 1"
       inkscape:vp_z="1 : 0.5 : 1"
       inkscape:vp_y="0 : 1000 : 0"
       inkscape:vp_x="0 : 0.5 : 1"
       sodipodi:type="inkscape:persp3d" />
    <inkscape:perspective
       id="perspective3794"
       inkscape:persp3d-origin="0.5 : 0.33333333 : 1"
       inkscape:vp_z="1 : 0.5 : 1"
       inkscape:vp_y="0 : 1000 : 0"
       inkscape:vp_x="0 : 0.5 : 1"
       sodipodi:type="inkscape:persp3d" />
    <inkscape:perspective
       id="perspective3815"
       inkscape:persp3d-origin="0.5 : 0.33333333 : 1"
       inkscape:vp_z="1 : 0.5 : 1"
       inkscape:vp_y="0 : 1000 : 0"
       inkscape:vp_x="0 : 0.5 : 1"
       sodipodi:type="inkscape:persp3d" />
    <inkscape:perspective
       id="perspective3850"
       inkscape:persp3d-origin="0.5 : 0.33333333 : 1"
       inkscape:vp_z="1 : 0.5 : 1"
       inkscape:vp_y="0 : 1000 : 0"
       inkscape:vp_x="0 : 0.5 : 1"
       sodipodi:type="inkscape:persp3d" />
    <inkscape:perspective
       id="perspective3878"
       inkscape:persp3d-origin="0.5 : 0.33333333 : 1"
       inkscape:vp_z="1 : 0.5 : 1"
       inkscape:vp_y="0 : 1000 : 0"
       inkscape:vp_x="0 : 0.5 : 1"
       sodipodi:type="inkscape:persp3d" />
    <inkscape:perspective
       id="perspective3924"
       inkscape:persp3d-origin="0.5 : 0.33333333 : 1"
       inkscape:vp_z="1 : 0.5 : 1"
       inkscape:vp_y="0 : 1000 : 0"
       inkscape:vp_x="0 : 0.5 : 1"
       sodipodi:type="inkscape:persp3d" />
  </defs>
  <sodipodi:namedview
     id="base"
     pagecolor="#ffffff"
     bordercolor="#666666"
     borderopacity="1.0"
     inkscape:pageopacity="0.0"
     inkscape:pageshadow="2"
     inkscape:zoom="0.49497475"
     inkscape:cx="825.73108"
     inkscape:cy="418.19003"
     inkscape:document-units="px"
     inkscape:current-layer="g5975"
     showgrid="false"
     inkscape:window-width="1440"
     inkscape:window-height="840"
     inkscape:window-x="-4"
     inkscape:window-y="-4"
     inkscape:window-maximized="1" />
  <metadata
     id="metadata3178">
    <rdf:RDF>
      <cc:Work
         rdf:about="">
        <dc:format>image/svg+xml</dc:format>
        <dc:type
           rdf:resource="http://purl.org/dc/dcmitype/StillImage" />
        <dc:title>Lu</dc:title>
        <dc:date>2010-08-02</dc:date>
        <dc:creator>
          <cc:Agent>
            <dc:title>Alex Amies</dc:title>
          </cc:Agent>
        </dc:creator>
        <dc:rights>
          <cc:Agent>
            <dc:title>@ Alex Amies 2010</dc:title>
          </cc:Agent>
        </dc:rights>
        <dc:publisher>
          <cc:Agent>
            <dc:title>chinesenotes.com</dc:title>
          </cc:Agent>
        </dc:publisher>
        <dc:source>Yan Qin Ceremonial Inscription</dc:source>
        <dc:language>Chinese 中文</dc:language>
        <dc:description>Tracing from Tang Dynasty Ceremonial Inscription by Yan Zhenqing 颜真卿 (709－785)</dc:description>
        <cc:license
           rdf:resource="http://creativecommons.org/licenses/by/3.0/" />
      </cc:Work>
      <cc:License
         rdf:about="http://creativecommons.org/licenses/by/3.0/">
        <cc:permits
           rdf:resource="http://creativecommons.org/ns#Reproduction" />
        <cc:permits
           rdf:resource="http://creativecommons.org/ns#Distribution" />
        <cc:requires
           rdf:resource="http://creativecommons.org/ns#Notice" />
        <cc:requires
           rdf:resource="http://creativecommons.org/ns#Attribution" />
        <cc:permits
           rdf:resource="http://creativecommons.org/ns#DerivativeWorks" />
      </cc:License>
    </rdf:RDF>
  </metadata>
  <g
     inkscape:label="Layer 1"
     inkscape:groupmode="layer"
     id="layer1"
     transform="translate(0,-52.362183)">
    <g
       transform="matrix(4.762395,0,0,4.762395,-2523.1017,68.412668)"
       id="g5975"
       style="fill:none;fill-opacity:1">
      <path
         style="fill:#000000;fill-opacity:1;stroke:#000000;stroke-width:0.99768639px;stroke-linecap:butt;stroke-linejoin:miter;stroke-opacity:1"
         d="m 608.61725,0.5796261 c -0.56898,-0.0142541 -1.0835,0.26702737 -1.52771,0.966525 -5.41633,8.5264399 -5.57911,10.2456309 -9.63394,14.7158689 -11.74939,13.575253 -22.85721,27.855183 -35.97904,40.156877 0,1.306486 -0.90936,3.658702 0,3.928391 2.14259,0.635354 6.40015,0.292684 9.25977,-0.90414 9.31541,-4.568258 17.72249,-10.947552 25.97102,-17.210104 5.56681,-7.019969 13.84138,-11.72003 19.23666,-18.61309 1.15331,2.119019 2.81482,3.895369 5.36255,4.271345 3.45463,0.862945 7.13072,0.756134 10.63159,0.405293 6.47978,-3.697094 13.35569,-6.517654 20.23435,-9.415661 3.37191,-0.06034 0.85116,3.969062 -1.06008,4.427238 -6.26022,5.29061 -12.76576,10.323031 -18.20775,16.493026 -1.94764,1.24296 -3.77934,6.538227 0.21809,5.113146 4.09849,-0.543557 8.20943,-1.390395 12.12813,-2.681297 7.82903,-3.475917 15.50174,-7.348051 23.57034,-10.257462 3.07253,-0.236143 6.94,-0.689709 8.41797,-3.834836 2.80469,-2.434082 1.14318,-6.305219 0.8418,-9.384491 -0.47466,-3.454964 -2.15527,-6.582177 -3.55427,-9.7274459 -3.03969,-3.5442419 -6.95112,-3.2113129 -11.13043,-3.2113129 -2.25776,2.6345908 -4.44696,5.3454888 -6.42258,8.1997358 -12.1295,0.386762 -24.29474,0.433325 -36.38438,1.278263 -0.32689,0.107856 -0.64267,0.238044 -0.93536,0.374408 -0.38201,-2.242745 -0.25657,-4.784779 -1.87066,-6.266733 -3.20927,-2.9463761 -6.70068,-8.75403126 -9.16621,-8.82330633 z m 63.63367,42.0275419 c -1.85931,0.12021 -3.79445,0.678686 -5.54961,1.060032 -3.47502,1.201005 -7.09333,1.641078 -10.75631,1.52771 -12.6341,1.135389 -26.40107,-0.723255 -38.598,3.554267 l -14.62236,4.988423 -0.24945,-0.87297 c -2.66286,-0.825552 -5.28348,-2.071268 -8.1374,-1.964172 -2.03577,-0.131138 -4.07059,-0.245171 -6.11084,-0.187204 -0.93621,1.822105 -0.62989,4.054207 0.62358,5.643162 1.16831,1.977096 2.83875,3.757722 3.49188,5.986117 1.36051,6.122244 2.33715,12.319417 4.02194,18.363643 1.58929,5.260534 3.15653,10.551525 4.95726,15.744732 -3.52458,0.644334 -7.04995,1.211363 -10.60042,1.652434 -2.70073,2.967708 -1.24833,8.524678 2.7748,9.353318 5.99714,-1.07043 11.99604,-2.37535 17.98952,-3.71016 -0.15917,0.14112 -0.30551,0.27416 -0.46753,0.43666 -1.22215,3.49625 -0.83681,6.27072 0.71708,9.60272 0.77618,5.07138 -1.3588,9.61474 3.21131,12.47108 4.52207,-1.33889 8.5588,-4.54046 10.50686,-8.88565 0.6898,-2.35986 0.33545,-4.89225 -0.37393,-7.20204 -2.83857,-2.65801 -5.33604,-6.39416 -8.1374,-7.63855 4.86204,-1.08574 9.71751,-2.1328 14.59119,-3.086587 9.5553,-0.856008 19.21248,-2.133416 28.777,-0.717078 2.81681,0.58019 6.00797,-1.166321 4.39607,-4.3649 -0.45851,-1.787943 -1.45725,-3.462851 -2.77481,-4.83253 0.41052,-0.08647 0.78811,-0.177226 1.12237,-0.280806 5.27912,-5.899975 8.29139,-13.698029 12.7517,-20.327862 2.59896,-3.341644 6.94048,-6.21062 7.85678,-10.413355 -0.56769,-2.742542 0.019,-5.816683 -1.12242,-8.355628 -1.93229,-2.786873 -4.20473,-5.303724 -7.07731,-7.139656 -1.02754,-0.373459 -2.09574,-0.477514 -3.21132,-0.405293 z m -7.42028,8.480352 c -1.62734,12.311007 -6.69393,23.696065 -9.16626,35.823146 -7.45614,0.372033 -14.79559,1.446224 -22.10497,2.83719 0.44853,-0.608462 0.79928,-1.282919 0.96648,-1.995388 1.24253,-5.011895 2.36367,-10.075294 3.58543,-15.089992 1.25784,-0.282232 2.51215,-0.570878 3.7725,-0.841802 1.90616,-0.376309 4.22336,0.829971 5.86144,-0.0936 1.21835,-1.258925 2.69446,-3.149402 2.0889,-4.770192 -0.59753,-1.599171 -2.95118,-2.227778 -4.64547,-2.213619 -1.74808,0.340199 -3.49592,0.653837 -5.26904,0.935356 0.62229,-2.309311 1.24762,-4.603609 1.96417,-6.890304 -0.38296,-1.990399 -1.58097,-3.194113 -3.14892,-3.92839 8.67872,-1.434156 17.37801,-2.792527 26.09574,-3.772498 z m -38.16153,5.767886 c -0.89687,3.627011 -1.39401,7.32572 -1.80828,11.036878 -4.73589,0.770388 -9.40412,1.734632 -13.8429,3.148974 -2.09493,0.667474 -1.05894,4.446576 -0.21809,6.578471 1.58492,1.32744 3.75578,0.841327 5.64316,0.841802 2.56812,-0.614686 4.89212,-2.034872 7.48266,-2.556573 -0.17865,1.34901 -0.35017,2.683577 -0.59235,4.021945 -0.21524,2.832628 0.39246,5.638791 0.8418,8.417966 0.98833,0.98211 2.05782,2.007599 3.30482,2.650081 -6.24934,1.30525 -12.49303,2.724867 -18.73781,4.021945 0.40576,-1.629247 0.019,-3.561585 -0.12449,-5.175485 -1.38213,-9.755764 -2.72126,-19.517229 -4.08428,-29.275892 0.44377,-0.05797 0.91687,-0.19148 1.43415,-0.467535 6.90646,-0.953126 13.80817,-2.088468 20.70199,-3.242482 z m 55.99516,36.415548 c -0.91882,-0.01901 -1.85304,0.164873 -2.74363,0.405292 -2.73361,0.294111 -1.84663,5.386921 -1.12242,7.295554 2.1145,6.40043 4.8293,12.67481 8.51152,18.33252 4.277,4.74624 8.81352,8.93952 14.99648,10.78747 1.53109,0.3136 3.80481,0.39912 4.36486,-1.4342 1.47278,-5.71628 0.80692,-11.58357 0.65474,-17.39712 -4.82959,-7.64629 -13.91935,-13.530919 -22.01147,-17.272438 -0.83111,-0.486114 -1.73126,-0.697075 -2.65008,-0.717125 z m -39.28391,5.424884 c -0.77637,0.0048 -1.50248,0.250398 -2.08889,0.841802 -4.10148,4.13584 3.05851,11.53938 6.07962,16.39947 l 0.71713,9.25977 2.02656,0.68591 c -7.62473,1.64816 -15.15661,3.83236 -22.94683,4.6143 -5.1149,0.7395 -10.22648,1.40004 -15.3706,1.90188 -1.48771,-2.57064 -3.42484,-4.91041 -5.79906,-7.10854 -1.89076,-0.0238 -3.87085,0.41052 -5.79905,0.56119 l -0.59236,0.0622 c -3.23868,3.10289 -2.48478,8.85524 0.9977,11.47339 2.6306,2.72097 2.46971,6.73284 2.21361,10.22629 -1.86353,16.35733 2.83805,32.364 3.24249,48.54368 2.09326,4.00161 8.07035,4.60265 11.47338,2.0266 3.24424,-3.03029 2.6717,-7.88111 2.33835,-11.87873 -0.005,-0.0827 -0.0238,-0.16629 -0.0333,-0.24944 0.0613,0.009 0.12638,0.0237 0.1872,0.0333 8.05596,0.56147 15.82474,-1.0893 23.57034,-2.83724 1.07505,3.33836 2.89649,6.50872 4.30257,9.66511 2.09673,4.03843 4.70642,9.27079 9.9145,9.41566 4.01268,-1.24425 6.20777,-6.25262 7.66972,-8.91682 2.79063,-3.06863 5.77483,-6.19475 6.45375,-10.47574 2.11075,-15.20682 4.52611,-30.5341 4.45841,-45.92476 -1.13083,-8.02256 -9.45339,-14.52933 -17.55301,-12.68931 -1.68346,0.20953 -3.35505,0.50136 -5.01964,0.81063 2.71508,-3.10911 4.15151,-7.21411 4.95725,-11.22399 -1.21958,-4.12272 -4.48829,-8.53128 -8.07501,-10.97454 -2.06509,-2.03344 -4.99764,-4.255898 -7.32677,-4.240171 z m -79.06666,6.672022 c -1.18969,-0.005 -2.37141,0.17343 -3.52305,0.59241 l -1.80832,2.49418 c 3.84728,8.97203 7.66725,17.95241 10.75631,27.21817 0.85111,3.94431 3.50737,7.45068 8.01267,7.04615 2.86988,-0.10406 3.90967,-2.60437 5.48727,-4.70786 -0.23947,-6.81371 0.94505,-13.71028 -0.49885,-20.45253 -1.79445,-4.23415 -4.10709,-7.07314 -8.10618,-9.01037 -3.13173,-1.53817 -6.75075,-3.16247 -10.31985,-3.18015 z m 87.17289,29.46296 c 5.49597,1.21587 3.18694,7.77957 4.14662,11.72278 0.37774,6.60637 0.21619,13.23929 -0.37393,19.82907 -0.49314,2.98956 -1.16851,6.04508 -2.276,8.88559 -0.8907,-1.23303 -1.9112,-2.38804 -3.46072,-2.68125 -10.31652,0.058 -20.47596,1.71102 -30.55415,3.74133 -0.45566,-4.02109 -1.01176,-8.03267 -1.62122,-12.03462 0.92742,0.18056 1.89162,0.26371 2.80597,0.21809 7.23516,-0.3668 13.89854,-3.94483 21.16967,-4.05321 1.51336,0 3.14375,-0.94448 3.24248,-2.58769 0.20431,-1.51417 -0.71475,-2.94913 -1.90183,-3.80367 -3.20257,-2.37711 -8.45384,-4.81904 -12.56464,-3.7725 -4.75432,1.38275 -9.53497,2.74378 -14.43525,3.49188 -0.50621,-3.64492 -0.39294,-7.34795 -0.37393,-11.0057 -0.13589,-0.92191 -0.29792,-1.81417 -0.49885,-2.6813 12.30659,-1.15554 24.44312,-3.65129 36.69616,-5.26904 z"
         id="path3938" />
    </g>
  </g>
</svg>
