<?xml version="1.0" encoding="UTF-8" standalone="no"?>
<!-- Created with Inkscape (http://www.inkscape.org/) -->

<svg
   xmlns:dc="http://purl.org/dc/elements/1.1/"
   xmlns:cc="http://creativecommons.org/ns#"
   xmlns:rdf="http://www.w3.org/1999/02/22-rdf-syntax-ns#"
   xmlns:svg="http://www.w3.org/2000/svg"
   xmlns="http://www.w3.org/2000/svg"
   xmlns:sodipodi="http://sodipodi.sourceforge.net/DTD/sodipodi-0.dtd"
   xmlns:inkscape="http://www.inkscape.org/namespaces/inkscape"
   width="1000"
   height="1000"
   id="svg3173"
   version="1.1"
   inkscape:version="0.47 r22583"
   sodipodi:docname="9c7c.svg"
   inkscape:export-filename="E:\chinese\yan\9c7c.png"
   inkscape:export-xdpi="18.005705"
   inkscape:export-ydpi="18.005705">
  <title
     id="title2826">Yu</title>
  <defs
     id="defs3175">
    <inkscape:perspective
       sodipodi:type="inkscape:persp3d"
       inkscape:vp_x="0 : 526.18109 : 1"
       inkscape:vp_y="0 : 1000 : 0"
       inkscape:vp_z="744.09448 : 526.18109 : 1"
       inkscape:persp3d-origin="372.04724 : 350.78739 : 1"
       id="perspective3181" />
    <inkscape:perspective
       id="perspective3191"
       inkscape:persp3d-origin="0.5 : 0.33333333 : 1"
       inkscape:vp_z="1 : 0.5 : 1"
       inkscape:vp_y="0 : 1000 : 0"
       inkscape:vp_x="0 : 0.5 : 1"
       sodipodi:type="inkscape:persp3d" />
    <inkscape:perspective
       id="perspective4006"
       inkscape:persp3d-origin="0.5 : 0.33333333 : 1"
       inkscape:vp_z="1 : 0.5 : 1"
       inkscape:vp_y="0 : 1000 : 0"
       inkscape:vp_x="0 : 0.5 : 1"
       sodipodi:type="inkscape:persp3d" />
    <inkscape:perspective
       id="perspective4034"
       inkscape:persp3d-origin="0.5 : 0.33333333 : 1"
       inkscape:vp_z="1 : 0.5 : 1"
       inkscape:vp_y="0 : 1000 : 0"
       inkscape:vp_x="0 : 0.5 : 1"
       sodipodi:type="inkscape:persp3d" />
    <inkscape:perspective
       id="perspective4081"
       inkscape:persp3d-origin="0.5 : 0.33333333 : 1"
       inkscape:vp_z="1 : 0.5 : 1"
       inkscape:vp_y="0 : 1000 : 0"
       inkscape:vp_x="0 : 0.5 : 1"
       sodipodi:type="inkscape:persp3d" />
    <inkscape:perspective
       id="perspective4147"
       inkscape:persp3d-origin="0.5 : 0.33333333 : 1"
       inkscape:vp_z="1 : 0.5 : 1"
       inkscape:vp_y="0 : 1000 : 0"
       inkscape:vp_x="0 : 0.5 : 1"
       sodipodi:type="inkscape:persp3d" />
    <inkscape:perspective
       id="perspective3807"
       inkscape:persp3d-origin="0.5 : 0.33333333 : 1"
       inkscape:vp_z="1 : 0.5 : 1"
       inkscape:vp_y="0 : 1000 : 0"
       inkscape:vp_x="0 : 0.5 : 1"
       sodipodi:type="inkscape:persp3d" />
    <inkscape:perspective
       id="perspective3794"
       inkscape:persp3d-origin="0.5 : 0.33333333 : 1"
       inkscape:vp_z="1 : 0.5 : 1"
       inkscape:vp_y="0 : 1000 : 0"
       inkscape:vp_x="0 : 0.5 : 1"
       sodipodi:type="inkscape:persp3d" />
    <inkscape:perspective
       id="perspective3815"
       inkscape:persp3d-origin="0.5 : 0.33333333 : 1"
       inkscape:vp_z="1 : 0.5 : 1"
       inkscape:vp_y="0 : 1000 : 0"
       inkscape:vp_x="0 : 0.5 : 1"
       sodipodi:type="inkscape:persp3d" />
    <inkscape:perspective
       id="perspective3850"
       inkscape:persp3d-origin="0.5 : 0.33333333 : 1"
       inkscape:vp_z="1 : 0.5 : 1"
       inkscape:vp_y="0 : 1000 : 0"
       inkscape:vp_x="0 : 0.5 : 1"
       sodipodi:type="inkscape:persp3d" />
    <inkscape:perspective
       id="perspective3878"
       inkscape:persp3d-origin="0.5 : 0.33333333 : 1"
       inkscape:vp_z="1 : 0.5 : 1"
       inkscape:vp_y="0 : 1000 : 0"
       inkscape:vp_x="0 : 0.5 : 1"
       sodipodi:type="inkscape:persp3d" />
    <inkscape:perspective
       id="perspective3924"
       inkscape:persp3d-origin="0.5 : 0.33333333 : 1"
       inkscape:vp_z="1 : 0.5 : 1"
       inkscape:vp_y="0 : 1000 : 0"
       inkscape:vp_x="0 : 0.5 : 1"
       sodipodi:type="inkscape:persp3d" />
    <inkscape:perspective
       id="perspective4383"
       inkscape:persp3d-origin="0.5 : 0.33333333 : 1"
       inkscape:vp_z="1 : 0.5 : 1"
       inkscape:vp_y="0 : 1000 : 0"
       inkscape:vp_x="0 : 0.5 : 1"
       sodipodi:type="inkscape:persp3d" />
    <inkscape:perspective
       id="perspective2828"
       inkscape:persp3d-origin="0.5 : 0.33333333 : 1"
       inkscape:vp_z="1 : 0.5 : 1"
       inkscape:vp_y="0 : 1000 : 0"
       inkscape:vp_x="0 : 0.5 : 1"
       sodipodi:type="inkscape:persp3d" />
  </defs>
  <sodipodi:namedview
     id="base"
     pagecolor="#ffffff"
     bordercolor="#666666"
     borderopacity="1.0"
     inkscape:pageopacity="0.0"
     inkscape:pageshadow="2"
     inkscape:zoom="0.49497475"
     inkscape:cx="514.31694"
     inkscape:cy="388.19003"
     inkscape:document-units="px"
     inkscape:current-layer="g5975"
     showgrid="false"
     inkscape:window-width="1440"
     inkscape:window-height="840"
     inkscape:window-x="-4"
     inkscape:window-y="-4"
     inkscape:window-maximized="1" />
  <metadata
     id="metadata3178">
    <rdf:RDF>
      <cc:Work
         rdf:about="">
        <dc:format>image/svg+xml</dc:format>
        <dc:type
           rdf:resource="http://purl.org/dc/dcmitype/StillImage" />
        <dc:title>Yu</dc:title>
        <dc:date>2010-08-08</dc:date>
        <dc:creator>
          <cc:Agent>
            <dc:title>Alex Amies</dc:title>
          </cc:Agent>
        </dc:creator>
        <dc:rights>
          <cc:Agent>
            <dc:title>@ Alex Amies 2010</dc:title>
          </cc:Agent>
        </dc:rights>
        <dc:publisher>
          <cc:Agent>
            <dc:title>chinesenotes.com</dc:title>
          </cc:Agent>
        </dc:publisher>
        <dc:source>Yan Qin Ceremonial Inscription</dc:source>
        <dc:language>Chinese 中文</dc:language>
        <dc:description>Tracing from Tang Dynasty Ceremonial Inscription by Yan Zhenqing 颜真卿 (709－785)</dc:description>
        <cc:license
           rdf:resource="http://creativecommons.org/licenses/by/3.0/" />
      </cc:Work>
      <cc:License
         rdf:about="http://creativecommons.org/licenses/by/3.0/">
        <cc:permits
           rdf:resource="http://creativecommons.org/ns#Reproduction" />
        <cc:permits
           rdf:resource="http://creativecommons.org/ns#Distribution" />
        <cc:requires
           rdf:resource="http://creativecommons.org/ns#Notice" />
        <cc:requires
           rdf:resource="http://creativecommons.org/ns#Attribution" />
        <cc:permits
           rdf:resource="http://creativecommons.org/ns#DerivativeWorks" />
      </cc:License>
    </rdf:RDF>
  </metadata>
  <g
     inkscape:label="Layer 1"
     inkscape:groupmode="layer"
     id="layer1"
     transform="translate(0,-52.362183)">
    <g
       transform="matrix(4.762395,0,0,4.762395,-2523.1017,68.412668)"
       id="g5975"
       style="fill:none;fill-opacity:1">
      <g
         id="g2856">
        <path
           sodipodi:nodetypes="ccccsccccccccccccccccccscccccccccccccccccccccccccccccccccccsccccccccscccccccccccc"
           id="path3938"
           d="m 612.88088,9.1287128 c -0.56848,-0.018197 -1.08256,0.3408848 -1.52638,1.2338572 -5.41163,10.88478 -5.57427,13.079485 -9.62558,18.786152 -11.73918,17.330051 -22.83736,35.559687 -35.94779,51.263923 0,1.667849 -0.90857,4.670668 0,5.01495 2.14073,0.811088 6.39459,0.373638 9.25173,-1.154217 9.30732,-5.831799 17.7071,-13.975551 25.94846,-21.97027 5.56198,-8.961632 13.82936,-14.96169 19.21996,-23.761311 1.15231,2.705122 2.81237,4.972795 5.35789,5.452762 3.45163,1.101629 7.12453,0.965275 10.62236,0.517394 6.47415,-4.719678 13.34409,-8.320381 20.21678,-12.019952 3.36898,-0.07703 0.85042,5.066871 -1.05916,5.651774 -6.25479,6.753947 -12.75468,13.178293 -18.19194,21.054855 -1.94595,1.586752 -3.77606,8.346644 0.2179,6.527398 4.09493,-0.6939 8.2023,-1.774966 12.1176,-3.42292 7.82223,-4.437326 15.48827,-9.380459 23.54987,-13.094588 3.06986,-0.301458 6.93397,-0.880477 8.41066,-4.895519 2.80225,-3.107328 1.14218,-8.049188 0.84107,-11.98016 -0.47425,-4.410577 -2.1534,-8.402751 -3.55119,-12.417974 -3.03705,-4.524549 -6.94508,-4.099534 -11.12076,-4.099534 -2.2558,3.363296 -4.4431,6.824005 -6.417,10.467712 -12.11897,0.493737 -24.27364,0.553179 -36.35279,1.631819 -0.3266,0.137688 -0.64211,0.303885 -0.93454,0.477966 -0.38168,-2.863068 -0.25635,-6.108207 -1.86904,-8.000057 -3.20648,-3.761318 -6.69486,-11.175321 -9.15825,-11.2637569 l 1.4e-4,-3.033e-4 z m 63.57841,53.6519982 c -1.8577,0.153459 -3.79116,0.866405 -5.54479,1.353228 -3.472,1.533192 -7.08717,2.094986 -10.74697,1.950261 -12.62313,1.449428 -26.37814,-0.923301 -38.56448,4.537347 l -14.60966,6.368178 -0.24923,-1.114426 c -2.66055,-1.053893 -5.2789,-2.644163 -8.13034,-2.507445 -2.034,-0.16741 -4.06705,-0.312984 -6.10553,-0.238983 -0.9354,2.326083 -0.62934,5.175565 0.62304,7.204012 1.16729,2.523943 2.83628,4.797075 3.48885,7.641825 1.35932,7.815604 2.33512,15.726862 4.01844,23.442872 1.58791,6.71555 3.15379,13.46998 4.95296,20.09959 -3.52152,0.82255 -7.04383,1.54641 -10.59122,2.10948 -2.69838,3.78855 -1.24724,10.88253 2.77239,11.94037 5.99194,-1.36651 11.98563,-3.03236 17.9739,-4.73636 6.67398,-2.32055 4.16649,-1.44837 20.03017,-5.49237 9.547,-1.09277 19.1958,-2.7235 28.75201,-0.91541 2.81436,0.74066 6.00275,-1.48892 4.39225,-5.5722 -0.45811,-2.28247 -1.45598,-4.42064 -2.7724,-6.16916 0.41016,-0.11039 0.78743,-0.22625 1.1214,-0.35848 5.27453,-7.53185 8.28419,-17.48679 12.74062,-25.950373 2.5967,-4.265914 6.93445,-7.928424 7.84996,-13.293599 -0.5672,-3.501105 0.019,-7.425527 -1.12145,-10.666723 -1.93061,-3.557698 -4.20107,-6.770688 -7.07116,-9.114423 -1.02665,-0.476755 -2.09392,-0.60959 -3.20853,-0.517394 l -2.3e-4,1.83e-4 z m -7.41384,10.825944 c -1.62592,15.716126 -6.68811,30.250195 -9.1583,45.731525 -7.44966,0.47493 -14.78274,1.84623 -22.08577,3.62193 0.44814,-0.77676 0.79859,-1.63776 0.96564,-2.5473 1.24145,-6.39814 2.36162,-12.86203 3.58232,-19.26375 1.25674,-0.3603 2.50997,-0.72878 3.76922,-1.07464 1.90451,-0.480392 4.21969,1.05953 5.85635,-0.119488 1.21729,-1.607133 2.69212,-4.020499 2.08709,-6.089586 -0.59701,-2.041488 -2.94862,-2.843962 -4.64144,-2.825887 -1.74656,0.434295 -3.49288,0.834683 -5.26446,1.194068 0.62175,-2.948047 1.24653,-5.876928 1.96246,-8.796103 -0.38263,-2.540926 -1.5796,-4.077577 -3.14618,-5.014949 8.67118,-1.830831 17.36291,-3.564916 26.07307,-4.815938 l 0,1.18e-4 z m -38.12839,7.363234 c -0.89609,4.630211 -1.3928,9.351951 -1.80671,14.089583 -4.73177,0.983471 -9.39595,2.214417 -13.83087,4.019953 -2.09311,0.852092 -1.05802,5.676465 -0.2179,8.398015 1.58354,1.69461 3.75251,1.07404 5.63826,1.07464 2.56588,-0.7847 4.88787,-2.5977 7.47616,-3.2637 -0.1785,1.72214 -0.34987,3.42584 -0.59184,5.13439 -0.21505,3.6161 0.39212,7.19843 0.84107,10.7463 0.98747,1.25375 2.05603,2.56288 3.30195,3.38307 -6.24391,1.66627 -12.48218,3.47854 -18.72154,5.13438 0.40541,-2.07988 0.019,-4.54669 -0.12438,-6.60698 -1.38093,-12.45412 -2.7189,-24.915529 -4.08073,-37.373354 0.44338,-0.074 0.91607,-0.244442 1.4329,-0.596851 6.90046,-1.216753 13.79618,-2.66612 20.68401,-4.139325 l -3.8e-4,-1.21e-4 z"
           style="fill:#000000;fill-opacity:1;stroke:#000000;stroke-width:1.12675977px;stroke-linecap:butt;stroke-linejoin:miter;stroke-opacity:1" />
        <path
           id="path5016"
           d="m 558.81545,170.12619 c -2.13268,9.97276 11.78786,16.27751 22.15614,15.60654 6.02292,-3.51904 11.37353,-8.14985 18.59462,-10.00512 26.54168,-3.73681 59.05011,-8.94834 85.43143,-9.93552 6.78908,0.37191 13.57818,0.74384 20.36726,1.11575 5.68242,-1.48146 6.83607,-6.77155 2.81033,-10.24271 -3.45941,-3.63552 -9.84866,-4.95838 -14.10319,-1.28596 -36.35181,0.81314 -72.51785,4.89202 -108.25057,11.20464 -3.7567,1.31605 -7.74766,1.56537 -11.76379,1.39681 -5.72108,-0.22905 -10.49475,-0.48986 -15.24223,2.14557 z"
           style="fill:#000000;fill-opacity:1;stroke:#000000;stroke-width:0.82294416px;stroke-linecap:butt;stroke-linejoin:miter;stroke-opacity:1"
           sodipodi:nodetypes="cccccccccc" />
      </g>
    </g>
  </g>
</svg>
