<?xml version="1.0" encoding="UTF-8" standalone="no"?>
<!-- Created with Inkscape (http://www.inkscape.org/) -->

<svg
   xmlns:dc="http://purl.org/dc/elements/1.1/"
   xmlns:cc="http://creativecommons.org/ns#"
   xmlns:rdf="http://www.w3.org/1999/02/22-rdf-syntax-ns#"
   xmlns:svg="http://www.w3.org/2000/svg"
   xmlns="http://www.w3.org/2000/svg"
   xmlns:sodipodi="http://sodipodi.sourceforge.net/DTD/sodipodi-0.dtd"
   xmlns:inkscape="http://www.inkscape.org/namespaces/inkscape"
   width="1000"
   height="1000"
   id="svg3173"
   version="1.1"
   inkscape:version="0.47 r22583"
   sodipodi:docname="9cf3.svg"
   inkscape:export-filename="E:\chinese\yan\9cf3.png"
   inkscape:export-xdpi="18.005705"
   inkscape:export-ydpi="18.005705">
  <title
     id="title2823">Feng</title>
  <defs
     id="defs3175">
    <inkscape:perspective
       sodipodi:type="inkscape:persp3d"
       inkscape:vp_x="0 : 526.18109 : 1"
       inkscape:vp_y="0 : 1000 : 0"
       inkscape:vp_z="744.09448 : 526.18109 : 1"
       inkscape:persp3d-origin="372.04724 : 350.78739 : 1"
       id="perspective3181" />
    <inkscape:perspective
       id="perspective3191"
       inkscape:persp3d-origin="0.5 : 0.33333333 : 1"
       inkscape:vp_z="1 : 0.5 : 1"
       inkscape:vp_y="0 : 1000 : 0"
       inkscape:vp_x="0 : 0.5 : 1"
       sodipodi:type="inkscape:persp3d" />
    <inkscape:perspective
       id="perspective4006"
       inkscape:persp3d-origin="0.5 : 0.33333333 : 1"
       inkscape:vp_z="1 : 0.5 : 1"
       inkscape:vp_y="0 : 1000 : 0"
       inkscape:vp_x="0 : 0.5 : 1"
       sodipodi:type="inkscape:persp3d" />
    <inkscape:perspective
       id="perspective4034"
       inkscape:persp3d-origin="0.5 : 0.33333333 : 1"
       inkscape:vp_z="1 : 0.5 : 1"
       inkscape:vp_y="0 : 1000 : 0"
       inkscape:vp_x="0 : 0.5 : 1"
       sodipodi:type="inkscape:persp3d" />
    <inkscape:perspective
       id="perspective4081"
       inkscape:persp3d-origin="0.5 : 0.33333333 : 1"
       inkscape:vp_z="1 : 0.5 : 1"
       inkscape:vp_y="0 : 1000 : 0"
       inkscape:vp_x="0 : 0.5 : 1"
       sodipodi:type="inkscape:persp3d" />
    <inkscape:perspective
       id="perspective4147"
       inkscape:persp3d-origin="0.5 : 0.33333333 : 1"
       inkscape:vp_z="1 : 0.5 : 1"
       inkscape:vp_y="0 : 1000 : 0"
       inkscape:vp_x="0 : 0.5 : 1"
       sodipodi:type="inkscape:persp3d" />
    <inkscape:perspective
       id="perspective3895"
       inkscape:persp3d-origin="0.5 : 0.33333333 : 1"
       inkscape:vp_z="1 : 0.5 : 1"
       inkscape:vp_y="0 : 1000 : 0"
       inkscape:vp_x="0 : 0.5 : 1"
       sodipodi:type="inkscape:persp3d" />
    <inkscape:perspective
       id="perspective5047"
       inkscape:persp3d-origin="0.5 : 0.33333333 : 1"
       inkscape:vp_z="1 : 0.5 : 1"
       inkscape:vp_y="0 : 1000 : 0"
       inkscape:vp_x="0 : 0.5 : 1"
       sodipodi:type="inkscape:persp3d" />
    <inkscape:perspective
       id="perspective5086"
       inkscape:persp3d-origin="0.5 : 0.33333333 : 1"
       inkscape:vp_z="1 : 0.5 : 1"
       inkscape:vp_y="0 : 1000 : 0"
       inkscape:vp_x="0 : 0.5 : 1"
       sodipodi:type="inkscape:persp3d" />
  </defs>
  <sodipodi:namedview
     id="base"
     pagecolor="#ffffff"
     bordercolor="#666666"
     borderopacity="1.0"
     inkscape:pageopacity="0.0"
     inkscape:pageshadow="2"
     inkscape:zoom="0.49497475"
     inkscape:cx="679.96666"
     inkscape:cy="519.73747"
     inkscape:document-units="px"
     inkscape:current-layer="layer1"
     showgrid="false"
     inkscape:window-width="1440"
     inkscape:window-height="840"
     inkscape:window-x="-4"
     inkscape:window-y="-4"
     inkscape:window-maximized="1" />
  <metadata
     id="metadata3178">
    <rdf:RDF>
      <cc:Work
         rdf:about="">
        <dc:format>image/svg+xml</dc:format>
        <dc:type
           rdf:resource="http://purl.org/dc/dcmitype/StillImage" />
        <dc:title>Feng</dc:title>
        <dc:date>2010-08-14</dc:date>
        <dc:creator>
          <cc:Agent>
            <dc:title>Alex Amies</dc:title>
          </cc:Agent>
        </dc:creator>
        <dc:rights>
          <cc:Agent>
            <dc:title>@ Alex Amies 2010</dc:title>
          </cc:Agent>
        </dc:rights>
        <dc:publisher>
          <cc:Agent>
            <dc:title>chinesenotes.com</dc:title>
          </cc:Agent>
        </dc:publisher>
        <dc:source>Yan Qin Ceremonial Inscription</dc:source>
        <dc:language>Chinese 中文</dc:language>
        <dc:description>Tracing from Tang Dynasty Ceremonial Inscription by Yan Zhenqing 颜真卿 (709－785)</dc:description>
        <cc:license
           rdf:resource="http://creativecommons.org/licenses/by/3.0/" />
      </cc:Work>
      <cc:License
         rdf:about="http://creativecommons.org/licenses/by/3.0/">
        <cc:permits
           rdf:resource="http://creativecommons.org/ns#Reproduction" />
        <cc:permits
           rdf:resource="http://creativecommons.org/ns#Distribution" />
        <cc:requires
           rdf:resource="http://creativecommons.org/ns#Notice" />
        <cc:requires
           rdf:resource="http://creativecommons.org/ns#Attribution" />
        <cc:permits
           rdf:resource="http://creativecommons.org/ns#DerivativeWorks" />
      </cc:License>
    </rdf:RDF>
  </metadata>
  <g
     inkscape:label="Layer 1"
     inkscape:groupmode="layer"
     id="layer1"
     transform="translate(0,-52.362183)">
    <path
       style="fill:#000000;stroke:#000000;stroke-width:4.76094626999999980px;stroke-linecap:butt;stroke-linejoin:miter;stroke-opacity:1;fill-opacity:1"
       d="m 156.33708,239.0812 c -13.78804,21.15312 -2.27416,47.14546 16.62713,60.79824 22.44034,48.2928 14.84215,103.15119 17.84998,154.75894 1.54745,74.9761 -6.99793,150.21933 -25.16042,222.94731 -8.60207,26.57561 -19.48764,55.16818 -41.60248,73.36828 -22.67301,15.51688 -26.643397,-25.781 -45.929753,-23.87576 2.590574,22.5147 9.557981,46.8329 11.555817,70.02519 -1.462278,24.65999 -20.147326,57.31441 7.671836,75.49461 31.942,17.40326 61.71596,-14.09921 74.41988,-40.87553 43.12208,-69.823 59.62633,-152.34743 64.4594,-233.30142 5.26861,-69.27172 23.4578,-138.08187 15.08092,-207.9232 -2.59929,-32.00241 -7.26811,-64.10014 -2.85024,-96.16978 3.51396,-32.37144 -28.59905,-52.85855 -56.41497,-58.64753 -11.65452,-2.61828 -25.51839,-4.3138 -35.7071,3.40065 z"
       id="path8151"
       sodipodi:nodetypes="cccccccccccccc" />
    <path
       style="fill:#000000;stroke:#000000;stroke-width:4.76094626999999980px;stroke-linecap:butt;stroke-linejoin:miter;stroke-opacity:1;fill-opacity:1"
       d="m 217.54923,182.97007 c -45.98269,25.66321 7.37066,62.64234 39.87217,43.81575 65.0898,-26.81965 117.18788,-45.99674 179.26686,-58.39582 45.10411,-11.56224 90.44894,-3.28334 133.75308,-20.55 40.39082,-15.63 65.286,13.64415 55.28587,47.54995 -11.27844,40.05294 -19.12529,80.87353 -17.92287,122.72349 -0.56098,104.52715 4.81189,210.53809 31.42872,312.04552 26.15917,86.64827 71.66558,170.27986 139.42775,231.24597 39.05923,28.79987 87.17292,49.66938 136.027,51.01016 31.00256,-7.7453 89.81689,-22.59502 80.3153,-64.80224 -16.42512,-39.21444 -64.62741,-46.83938 -72.4387,-97.81412 -25.53843,-38.82995 -19.00651,-43.52957 -23.45633,-2.40152 7.44432,20.53987 9.80908,97.9041 -28.32177,69.07058 C 831.65966,791.30471 787.617,772.30387 755.61944,737.12761 696.27506,676.77014 678.4008,588.13261 672.91186,506.5018 665.66922,403.59647 658.64054,298.03748 688.81389,197.81803 712.58877,157.01453 713.48978,97.020322 657.3477,84.305072 611.71265,75.428525 564.65012,85.606191 518.8661,89.411425 417.91414,110.79969 320.14977,141.53103 217.54923,182.97007 z"
       id="path8154"
       sodipodi:nodetypes="ccccccccccccccccccc" />
    <path
       style="fill:#000000;stroke:#000000;stroke-width:4.76094626999999980px;stroke-linecap:butt;stroke-linejoin:miter;stroke-opacity:1;fill-opacity:1"
       d="M 528.28125 139.4375 C 523.90071 139.31663 519.3642 140.0419 514.90625 141.6875 C 459.97493 165.00528 403.13642 187.37393 343.25 191.75 C 314.28102 194.6935 289.07679 201.51802 254.96875 210.53125 C 246.33073 219.77406 244.9068 237.24194 257.3125 244.09375 C 295.73475 245.74364 333.36438 234.66864 370.59375 221.6875 C 367.5885 223.12909 364.76784 224.95729 362.21875 227.25 C 354.14771 257.1018 331.85164 283.06264 322.65625 311.84375 C 322.62511 312.16939 322.61771 312.47092 322.625 312.78125 C 320.16404 316.81113 318.09749 321.48324 316.96875 326 C 295.68738 325.58756 279.452 334.13591 277.625 359.25 C 278.63265 428.52663 288.18257 497.33157 284.375 566.78125 C 282.91404 575.71529 281.59078 584.67071 280.28125 593.625 C 271.23651 595.27468 262.42982 598.02754 254.0625 602.71875 C 237.54821 611.88805 247.55067 621.82941 264.125 632.625 C 268.51666 635.29642 271.89396 638.83762 274.96875 642.34375 C 278.62845 661.62628 301.03137 676.39611 320.03125 668.25 C 333.5983 664.20457 341.95677 652.42034 345.53125 639.3125 C 365.52267 629.12461 384.93113 617.27671 407.0625 612.625 C 435.154 605.29555 462.6298 596.2979 490.28125 588.03125 C 490.9714 589.58202 491.668 591.10808 492.4375 592.625 C 502.09508 605.78683 520.13413 594.82905 527.625 584.8125 C 528.02928 582.28681 528.41589 579.77631 528.78125 577.28125 C 538.50415 574.81127 548.30072 572.56194 558.1875 570.625 C 576.3288 567.90426 600.45676 577.92427 614.3125 564.78125 C 621.86898 546.7115 615.35746 533.91842 597.5 529.21875 C 583.57957 523.37602 563.59861 525.6114 557.0625 536.78125 C 548.96791 539.79686 540.81585 542.70921 532.625 545.46875 C 538.19216 488.76841 537.17834 438.70361 551.46875 385.21875 C 560.04931 360.80233 571.34028 333.73293 563.09375 308.84375 C 555.81397 286.87227 546.15387 262.16911 526.53125 254.5625 C 505.03682 246.23032 471.14193 260.40825 445.40625 269.5625 C 431.97383 274.03356 419.36931 277.08496 406.625 280.09375 C 410.2895 277.02812 413.75643 273.71164 417 270.0625 C 432.85304 246.8436 431.88232 221.87286 401.1875 217.3125 C 393.97387 216.71894 386.3207 216.93957 379.15625 218.6875 C 410.06627 207.70498 440.73207 195.96668 471.40625 189.75 C 486.57243 191.06564 501.56821 193.82796 516.78125 194.84375 C 533.05102 197.76497 543.99769 191.56232 554.75 179.0625 C 563.10709 156.08703 547.26357 139.96126 528.28125 139.4375 z M 450.375 295.25 C 451.27979 295.25385 452.21297 295.27365 453.125 295.3125 C 473.25486 295.56626 483.56661 316.13823 485.71875 333.625 C 493.77898 399.5234 479.16513 464.99629 479.53125 530.84375 C 479.52448 540.84537 480.29781 550.96559 482.09375 560.875 C 439.26217 572.69572 395.80794 581.79299 353.09375 589.46875 C 350.92462 589.76102 348.75519 589.99373 346.5625 590.1875 C 346.1081 576.34241 345.64041 562.50023 345.1875 548.65625 C 347.23459 550.43909 349.49465 551.97999 351.875 553.15625 C 382.66299 547.04624 408.70318 545.09237 431.875 531.59375 C 452.52803 521.53806 441.66068 501.36455 428 489.625 C 401.50784 494.08972 371.41424 500.41068 344.28125 518.90625 C 343.65859 494.57516 343.34082 470.24728 343.75 445.90625 C 344.40238 438.88148 345.02003 431.01248 345.4375 422.71875 C 382.35548 420.30935 412.82084 407.08807 443.78125 388.34375 C 447.47493 383.64431 449.28441 376.29212 444.90625 371.40625 C 439.23686 365.30133 430.28729 363.43764 422.25 363.59375 C 390.9992 379.47579 374.31588 375.03321 348.875 379.625 C 348.15543 379.89114 347.45759 380.20043 346.78125 380.5625 C 346.19125 380.90065 345.58823 381.25867 345 381.625 C 343.77152 367.53559 341.18807 353.9837 336.34375 342.65625 C 349.33957 337.64383 361.4404 330.52937 372.875 322.5625 C 397.71516 311.4844 422.32641 295.1307 450.375 295.25 z M 624.21875 629.09375 C 621.64317 629.14073 619.04201 629.45519 616.46875 630.03125 C 576.17515 634.90484 535.13378 632.15133 495.15625 640.375 C 438.35445 649.80273 381.52666 662.23499 328.65625 685.625 C 315.72957 691.02396 294.84817 693.52147 292.375 710.4375 C 295.51237 726.89366 316.67229 733.37898 331.6875 731.875 C 399.92501 704.22966 453.93378 670.54996 529.34375 660.71875 C 549.80758 659.43506 570.49637 658.20664 590.9375 659.75 C 614.95566 664.54674 624.48413 691.8803 623.5625 713.8125 C 632.87834 765.5717 600.86397 806.54633 583.46875 852.96875 C 576.03177 870.07288 567.47422 887.53081 554.53125 901.09375 C 536.50807 912.43756 522.13562 890.43333 508.0625 882.375 C 491.78454 865.1548 485.53684 873.82121 493.25 888.53125 C 495.4856 908.73742 526.79373 920.1849 521.46875 941.5625 C 523.56947 958.17557 535.30478 958.32055 547.40625 956.96875 C 573.9521 954.53835 595.54186 936.26195 609.75 914.75 C 638.50993 879.48005 671.59522 845.06648 685.15625 800.53125 C 698.19158 749.08918 689.97427 691.95794 658.5625 648.53125 C 651.53785 636.10777 638.1269 628.84005 624.21875 629.09375 z M 529.0625 692.34375 C 509.95811 692.24213 491.75863 701.39773 503.9375 722.65625 C 515.53945 742.13895 532.33759 755.87836 550.5625 768.6875 C 569.0981 780.403 577.38213 764.40042 582.34375 748.09375 C 592.04246 718.48928 569.44994 703.83135 544.6875 694.5625 C 539.84492 693.14547 534.41173 692.3722 529.0625 692.34375 z M 420.25 726.375 C 401.14562 726.27337 382.94612 735.39773 395.125 756.65625 C 406.72695 776.13895 423.49385 789.87837 441.71875 802.6875 C 460.25435 814.403 468.53838 798.40042 473.5 782.09375 C 483.19871 752.48928 460.6062 737.83134 435.84375 728.5625 C 431.00117 727.14547 425.59923 726.40346 420.25 726.375 z M 318.21875 741.65625 C 299.11437 741.55463 280.91487 750.71023 293.09375 771.96875 C 304.6957 791.45145 321.49384 805.19086 339.71875 818 C 358.25435 829.71549 366.53838 813.71292 371.5 797.40625 C 381.19871 767.80178 358.6062 753.14385 333.84375 743.875 C 329.00117 742.45797 323.56798 741.6847 318.21875 741.65625 z M 210.4375 771.125 C 191.33311 771.02338 173.13363 780.17898 185.3125 801.4375 C 196.91445 820.9202 213.71259 834.65961 231.9375 847.46875 C 250.4731 859.18425 258.75713 843.18167 263.71875 826.875 C 273.41746 797.27053 250.82494 782.6126 226.0625 773.34375 C 221.21992 771.92672 215.78673 771.15345 210.4375 771.125 z "
       transform="translate(0,52.362183)"
       id="path8157" />
  </g>
</svg>
