<?xml version="1.0" encoding="UTF-8" standalone="no"?>
<!-- Created with Inkscape (http://www.inkscape.org/) -->

<svg
   xmlns:dc="http://purl.org/dc/elements/1.1/"
   xmlns:cc="http://creativecommons.org/ns#"
   xmlns:rdf="http://www.w3.org/1999/02/22-rdf-syntax-ns#"
   xmlns:svg="http://www.w3.org/2000/svg"
   xmlns="http://www.w3.org/2000/svg"
   xmlns:sodipodi="http://sodipodi.sourceforge.net/DTD/sodipodi-0.dtd"
   xmlns:inkscape="http://www.inkscape.org/namespaces/inkscape"
   width="1000"
   height="1000"
   id="svg3173"
   version="1.1"
   inkscape:version="0.47 r22583"
   sodipodi:docname="9e7d.svg"
   inkscape:export-filename="E:\chinese\yan\9e7d.png"
   inkscape:export-xdpi="18.005705"
   inkscape:export-ydpi="18.005705">
  <title
     id="title7178">Yan</title>
  <defs
     id="defs3175">
    <inkscape:perspective
       sodipodi:type="inkscape:persp3d"
       inkscape:vp_x="0 : 526.18109 : 1"
       inkscape:vp_y="0 : 1000 : 0"
       inkscape:vp_z="744.09448 : 526.18109 : 1"
       inkscape:persp3d-origin="372.04724 : 350.78739 : 1"
       id="perspective3181" />
    <inkscape:perspective
       id="perspective3191"
       inkscape:persp3d-origin="0.5 : 0.33333333 : 1"
       inkscape:vp_z="1 : 0.5 : 1"
       inkscape:vp_y="0 : 1000 : 0"
       inkscape:vp_x="0 : 0.5 : 1"
       sodipodi:type="inkscape:persp3d" />
    <inkscape:perspective
       id="perspective4006"
       inkscape:persp3d-origin="0.5 : 0.33333333 : 1"
       inkscape:vp_z="1 : 0.5 : 1"
       inkscape:vp_y="0 : 1000 : 0"
       inkscape:vp_x="0 : 0.5 : 1"
       sodipodi:type="inkscape:persp3d" />
    <inkscape:perspective
       id="perspective4034"
       inkscape:persp3d-origin="0.5 : 0.33333333 : 1"
       inkscape:vp_z="1 : 0.5 : 1"
       inkscape:vp_y="0 : 1000 : 0"
       inkscape:vp_x="0 : 0.5 : 1"
       sodipodi:type="inkscape:persp3d" />
    <inkscape:perspective
       id="perspective4081"
       inkscape:persp3d-origin="0.5 : 0.33333333 : 1"
       inkscape:vp_z="1 : 0.5 : 1"
       inkscape:vp_y="0 : 1000 : 0"
       inkscape:vp_x="0 : 0.5 : 1"
       sodipodi:type="inkscape:persp3d" />
    <inkscape:perspective
       id="perspective4147"
       inkscape:persp3d-origin="0.5 : 0.33333333 : 1"
       inkscape:vp_z="1 : 0.5 : 1"
       inkscape:vp_y="0 : 1000 : 0"
       inkscape:vp_x="0 : 0.5 : 1"
       sodipodi:type="inkscape:persp3d" />
    <inkscape:perspective
       id="perspective3801"
       inkscape:persp3d-origin="0.5 : 0.33333333 : 1"
       inkscape:vp_z="1 : 0.5 : 1"
       inkscape:vp_y="0 : 1000 : 0"
       inkscape:vp_x="0 : 0.5 : 1"
       sodipodi:type="inkscape:persp3d" />
    <inkscape:perspective
       id="perspective3122"
       inkscape:persp3d-origin="0.5 : 0.33333333 : 1"
       inkscape:vp_z="1 : 0.5 : 1"
       inkscape:vp_y="0 : 1000 : 0"
       inkscape:vp_x="0 : 0.5 : 1"
       sodipodi:type="inkscape:persp3d" />
    <inkscape:perspective
       id="perspective3854"
       inkscape:persp3d-origin="0.5 : 0.33333333 : 1"
       inkscape:vp_z="1 : 0.5 : 1"
       inkscape:vp_y="0 : 1000 : 0"
       inkscape:vp_x="0 : 0.5 : 1"
       sodipodi:type="inkscape:persp3d" />
    <inkscape:perspective
       id="perspective3922"
       inkscape:persp3d-origin="0.5 : 0.33333333 : 1"
       inkscape:vp_z="1 : 0.5 : 1"
       inkscape:vp_y="0 : 1000 : 0"
       inkscape:vp_x="0 : 0.5 : 1"
       sodipodi:type="inkscape:persp3d" />
    <inkscape:perspective
       id="perspective3945"
       inkscape:persp3d-origin="0.5 : 0.33333333 : 1"
       inkscape:vp_z="1 : 0.5 : 1"
       inkscape:vp_y="0 : 1000 : 0"
       inkscape:vp_x="0 : 0.5 : 1"
       sodipodi:type="inkscape:persp3d" />
    <inkscape:perspective
       id="perspective3972"
       inkscape:persp3d-origin="0.5 : 0.33333333 : 1"
       inkscape:vp_z="1 : 0.5 : 1"
       inkscape:vp_y="0 : 1000 : 0"
       inkscape:vp_x="0 : 0.5 : 1"
       sodipodi:type="inkscape:persp3d" />
    <inkscape:perspective
       id="perspective3995"
       inkscape:persp3d-origin="0.5 : 0.33333333 : 1"
       inkscape:vp_z="1 : 0.5 : 1"
       inkscape:vp_y="0 : 1000 : 0"
       inkscape:vp_x="0 : 0.5 : 1"
       sodipodi:type="inkscape:persp3d" />
    <inkscape:perspective
       id="perspective3802"
       inkscape:persp3d-origin="0.5 : 0.33333333 : 1"
       inkscape:vp_z="1 : 0.5 : 1"
       inkscape:vp_y="0 : 1000 : 0"
       inkscape:vp_x="0 : 0.5 : 1"
       sodipodi:type="inkscape:persp3d" />
    <inkscape:perspective
       id="perspective3833"
       inkscape:persp3d-origin="0.5 : 0.33333333 : 1"
       inkscape:vp_z="1 : 0.5 : 1"
       inkscape:vp_y="0 : 1000 : 0"
       inkscape:vp_x="0 : 0.5 : 1"
       sodipodi:type="inkscape:persp3d" />
    <inkscape:perspective
       id="perspective3913"
       inkscape:persp3d-origin="0.5 : 0.33333333 : 1"
       inkscape:vp_z="1 : 0.5 : 1"
       inkscape:vp_y="0 : 1000 : 0"
       inkscape:vp_x="0 : 0.5 : 1"
       sodipodi:type="inkscape:persp3d" />
    <inkscape:perspective
       id="perspective4500"
       inkscape:persp3d-origin="0.5 : 0.33333333 : 1"
       inkscape:vp_z="1 : 0.5 : 1"
       inkscape:vp_y="0 : 1000 : 0"
       inkscape:vp_x="0 : 0.5 : 1"
       sodipodi:type="inkscape:persp3d" />
    <inkscape:perspective
       id="perspective5117"
       inkscape:persp3d-origin="0.5 : 0.33333333 : 1"
       inkscape:vp_z="1 : 0.5 : 1"
       inkscape:vp_y="0 : 1000 : 0"
       inkscape:vp_x="0 : 0.5 : 1"
       sodipodi:type="inkscape:persp3d" />
    <inkscape:perspective
       id="perspective5212"
       inkscape:persp3d-origin="0.5 : 0.33333333 : 1"
       inkscape:vp_z="1 : 0.5 : 1"
       inkscape:vp_y="0 : 1000 : 0"
       inkscape:vp_x="0 : 0.5 : 1"
       sodipodi:type="inkscape:persp3d" />
    <inkscape:perspective
       id="perspective5834"
       inkscape:persp3d-origin="0.5 : 0.33333333 : 1"
       inkscape:vp_z="1 : 0.5 : 1"
       inkscape:vp_y="0 : 1000 : 0"
       inkscape:vp_x="0 : 0.5 : 1"
       sodipodi:type="inkscape:persp3d" />
    <inkscape:perspective
       id="perspective5906"
       inkscape:persp3d-origin="0.5 : 0.33333333 : 1"
       inkscape:vp_z="1 : 0.5 : 1"
       inkscape:vp_y="0 : 1000 : 0"
       inkscape:vp_x="0 : 0.5 : 1"
       sodipodi:type="inkscape:persp3d" />
    <inkscape:perspective
       id="perspective3787"
       inkscape:persp3d-origin="0.5 : 0.33333333 : 1"
       inkscape:vp_z="1 : 0.5 : 1"
       inkscape:vp_y="0 : 1000 : 0"
       inkscape:vp_x="0 : 0.5 : 1"
       sodipodi:type="inkscape:persp3d" />
    <inkscape:perspective
       id="perspective3839"
       inkscape:persp3d-origin="0.5 : 0.33333333 : 1"
       inkscape:vp_z="1 : 0.5 : 1"
       inkscape:vp_y="0 : 1000 : 0"
       inkscape:vp_x="0 : 0.5 : 1"
       sodipodi:type="inkscape:persp3d" />
    <inkscape:perspective
       id="perspective3913-3"
       inkscape:persp3d-origin="0.5 : 0.33333333 : 1"
       inkscape:vp_z="1 : 0.5 : 1"
       inkscape:vp_y="0 : 1000 : 0"
       inkscape:vp_x="0 : 0.5 : 1"
       sodipodi:type="inkscape:persp3d" />
  </defs>
  <sodipodi:namedview
     id="base"
     pagecolor="#ffffff"
     bordercolor="#666666"
     borderopacity="1.0"
     inkscape:pageopacity="0.0"
     inkscape:pageshadow="2"
     inkscape:zoom="0.49497475"
     inkscape:cx="483.07102"
     inkscape:cy="534.97897"
     inkscape:document-units="px"
     inkscape:current-layer="g4634"
     showgrid="false"
     inkscape:window-width="1440"
     inkscape:window-height="840"
     inkscape:window-x="-4"
     inkscape:window-y="-4"
     inkscape:window-maximized="1" />
  <metadata
     id="metadata3178">
    <rdf:RDF>
      <cc:Work
         rdf:about="">
        <dc:format>image/svg+xml</dc:format>
        <dc:type
           rdf:resource="http://purl.org/dc/dcmitype/StillImage" />
        <dc:title>Yan</dc:title>
        <dc:date>2010-08-21</dc:date>
        <dc:creator>
          <cc:Agent>
            <dc:title>Alex Amies</dc:title>
          </cc:Agent>
        </dc:creator>
        <dc:rights>
          <cc:Agent>
            <dc:title>@ Alex Amies 2010</dc:title>
          </cc:Agent>
        </dc:rights>
        <dc:publisher>
          <cc:Agent>
            <dc:title>chinesenotes.com</dc:title>
          </cc:Agent>
        </dc:publisher>
        <dc:source>Yan Qin Ceremonial Inscription</dc:source>
        <dc:language>Chinese 中文</dc:language>
        <dc:description>Tracing from Tang Dynasty Ceremonial Inscription by Yan Zhenqing 颜真卿 (709－785)</dc:description>
        <cc:license
           rdf:resource="http://creativecommons.org/licenses/by/3.0/" />
      </cc:Work>
      <cc:License
         rdf:about="http://creativecommons.org/licenses/by/3.0/">
        <cc:permits
           rdf:resource="http://creativecommons.org/ns#Reproduction" />
        <cc:permits
           rdf:resource="http://creativecommons.org/ns#Distribution" />
        <cc:requires
           rdf:resource="http://creativecommons.org/ns#Notice" />
        <cc:requires
           rdf:resource="http://creativecommons.org/ns#Attribution" />
        <cc:permits
           rdf:resource="http://creativecommons.org/ns#DerivativeWorks" />
      </cc:License>
    </rdf:RDF>
  </metadata>
  <g
     inkscape:label="Layer 1"
     inkscape:groupmode="layer"
     id="layer1"
     transform="translate(0,-52.362183)">
    <g
       transform="matrix(4.7609464,0,0,4.7609464,-444.07486,-2879.5352)"
       id="g4634"
       style="fill:#000000;fill-opacity:1">
      <path
         style="fill:#000000;stroke:#000000;stroke-width:4.66710185999999980px;stroke-linecap:butt;stroke-linejoin:miter;stroke-opacity:1;fill-opacity:1"
         d="M 549.75 5.375 C 546.80513 5.3796473 543.94954 5.4901168 541.25 5.65625 C 532.33656 9.6471609 514.76043 4.2031571 513.125 17.34375 C 513.56634 74.12432 516.55208 130.99344 513.875 187.78125 C 512.56507 201.39165 509.47821 214.75164 506.75 228.125 C 507.69265 232.66629 510.81248 235.08682 514.65625 236.28125 C 512.41803 237.75567 510.16338 239.21084 507.90625 240.65625 C 514.01788 247.32353 520.13833 253.98893 526.25 260.65625 C 542.35052 260.12175 558.02059 256.49589 573.46875 251.34375 C 569.24052 260.54695 570.19593 271.23732 575.5 281.46875 C 584.40706 288.76004 596.79263 290.95667 608.0625 289.84375 C 615.36374 284.01107 615.85125 273.42244 617.28125 264.65625 C 615.94275 253.51518 609.73537 244.68802 601.125 240.71875 C 640.44012 224.0607 679.02156 203.25395 720.1875 204.4375 C 742.37313 208.578 744.30397 235.07769 746.5 253.21875 C 744.31233 281.50145 745.21374 315.7273 745.15625 350.59375 C 742.91013 345.90837 740.08209 341.54207 736.25 338 C 724.26284 330.24456 710.4993 332.0411 697.9375 337.34375 C 692.31073 346.0619 695.75716 357.02058 698.15625 366.59375 C 703.59906 381.8772 721.70032 378.34748 734.875 377.5625 C 739.59519 378.13022 742.77485 377.26852 744.90625 375.34375 C 744.08373 413.86591 740.91752 451.62622 729.875 481.40625 C 729.11156 489.88423 727.47634 498.26648 725.6875 506.625 C 722.28411 501.80009 717.63814 497.70238 712.9375 495.21875 C 696.0014 493.93936 678.81532 493.63444 661.53125 494.15625 C 662.78102 492.61451 663.59831 490.45867 663.8125 487.4375 C 662.37322 465.76267 650.34819 448.16272 630 441.4375 C 616.22163 439.208 600.93107 436.17804 587.9375 442.34375 C 585.32622 446.09604 587.17171 450.90072 588.4375 454.8125 C 599.79983 466.2064 606.00529 480.27242 613.9375 493.40625 C 615.69582 494.90181 617.63083 496.06702 619.65625 496.96875 C 585.18206 500.50718 550.80807 506.9256 517.65625 515.1875 C 520.2862 508.94841 519.97196 501.11183 518.3125 494.375 C 519.8703 456.86975 517.59135 419.5578 515.25 382.25 C 519.95964 385.55518 525.66452 387.1029 533.125 386.375 C 543.81823 384.40292 544.23871 376.93142 544.40625 367.5625 C 539.56641 357.61598 535.65316 350.42779 524.625 351.59375 C 520.82599 353.99261 517.18069 356.71644 513.875 359.78125 C 512.27136 332.7493 510.99761 305.69797 511.5625 278.5625 C 510.36503 265.16296 509.12954 247.66343 494.84375 241.59375 C 488.6012 238.61278 481.0265 237.71798 474.59375 240.65625 C 465.11613 247.48221 464.81311 260.64894 463 271.15625 C 461.7194 288.3237 465.59533 305.37879 471 321.53125 C 473.87642 384.97415 475.24283 449.00237 472.09375 512.53125 C 473.82497 520.03535 479.69924 524.22301 486.625 526 C 484.30036 528.69388 481.98522 531.38927 479.59375 534.03125 C 486.90733 547.97654 504.73798 546.35431 517.875 544.28125 C 571.27158 547.61329 623.99443 527.62803 676.59375 527.1875 C 691.42685 526.93764 706.4638 527.69046 721.25 527.46875 C 719.63304 535.65631 718.32377 543.86547 718 552.15625 C 724.19518 571.8361 749.26861 571.21173 765.4375 566.1875 C 781.68004 562.83065 783.84971 543.40378 786.46875 529.84375 C 807.19943 427.34814 836.56878 325.73183 806.625 222.15625 C 797.93623 203.99657 783.00568 189.85865 768.0625 177 C 746.08592 164.13973 720.07253 172.92776 696.71875 176.40625 C 656.27977 186.29784 615.73249 192.46764 577.40625 205.5 C 578.74586 202.72084 579.8335 199.80582 580.625 196.75 C 591.04447 143.42526 587.53059 88.344667 595.71875 34.46875 C 595.01564 10.273954 570.36409 5.3424688 549.75 5.375 z M 762.59375 10.59375 C 715.93452 23.139177 675.34428 55.657043 629.46875 73.375 C 622.00763 76.251849 614.39301 79.169115 607.9375 84 C 602.70546 93.137922 613.87207 99.695397 621.28125 102.375 C 651.0923 109.42929 686.89548 106.07265 714.375 92.25 C 741.38433 78.529381 771.48019 72.600419 801.5 70.71875 C 813.82947 58.02102 823.48779 47.81993 813.3125 31.625 C 800.29712 15.232109 782.00675 11.840547 762.59375 10.59375 z M 387.5 28.90625 C 382.19726 28.861703 376.22361 30.045886 370.125 31.34375 C 341.64649 46.147818 311.30718 48.344762 280.25 52.78125 C 276.62478 53.476681 273.03785 54.406073 269.5625 55.65625 C 263.76086 61.107724 268.39738 69.461303 272.0625 74.75 C 281.43499 84.271702 292.75874 95.637648 304.90625 100.75 C 315.132 100.39388 326.376 99.179908 334.0625 91.625 C 355.60483 83.414177 374.29219 66.944094 397.15625 62.5625 C 405.41816 61.270046 408.76389 51.918623 405.625 44.78125 C 403.27571 32.499288 396.33791 28.980495 387.5 28.90625 z M 332.90625 117.3125 C 325.30292 123.4176 321.03739 133.03982 320.625 142.6875 C 318.41959 164.19384 319.68597 185.93693 316.65625 207.375 C 316.85705 207.57749 317.07218 207.75109 317.28125 207.9375 C 294.38137 217.05254 271.63844 226.85632 247.84375 229.625 L 246.90625 229.96875 L 246.21875 230.65625 C 242.0803 238.76238 241.01998 248.87306 245.71875 257 C 250.04759 266.50918 256.15864 277.43375 267.375 279.5 C 281.77343 282.0113 296.7493 274.10671 304.46875 262 C 331.47531 249.91677 354.12502 219.00413 382.53125 210.46875 C 384.44943 209.44405 387.67104 207.48894 389.84375 205.25 C 389.51479 207.42971 389.29632 209.70023 389.25 212.03125 C 375.86641 242.89137 382.50975 277.8543 368.25 308.15625 C 362.87932 325.09117 345.56642 335.05975 328.5 335.90625 C 300.82048 341.64243 273.90311 351.56956 245.53125 353.46875 C 238.7769 354.90903 232.40279 357.67696 226.21875 360.6875 C 225.68505 382.64503 238.84271 403.51485 256.84375 415.34375 C 300.74472 401.63651 351.87994 396.00359 394.625 374.03125 C 406.03961 361.66588 413.74506 345.98308 415.25 329.125 C 427.33171 296.13212 436.06812 259.02735 454.71875 228.78125 C 459.53059 215.06363 484.46639 205.55343 470.6875 189.40625 C 463.51523 181.90486 454.97359 175.3975 445.9375 170.4375 C 420.13362 164.5958 397.88747 176.54634 391.25 198.78125 C 391.15258 198.66834 391.05303 198.54837 390.9375 198.4375 C 386.34852 193.39575 379.22513 188.61145 372.1875 191.4375 C 367.24999 192.12262 362.35467 193.09032 357.5 194.28125 C 363.13454 187.181 367.92123 179.58691 372.375 171.5625 C 378.38417 158.51541 365.12205 144.87053 358.25 134 C 352.35166 124.93559 342.17886 120.91906 332.90625 117.3125 z M 184.78125 121.1875 C 181.01471 121.17121 177.18563 121.41725 173.40625 121.84375 L 171.3125 122.625 L 169.5625 124 C 152.08535 145.37941 159.57317 174.74834 156.625 200.03125 C 154.24219 311.4155 137.76046 427.1746 152.125 538.25 C 154.85702 566.10477 157.41643 599.07672 182.65625 616.53125 C 196.40596 628.01675 226.85556 630.05346 228.65625 606.6875 C 226.14447 519.75962 211.81222 433.89834 216.8125 346.46875 C 216.16377 292.65753 214.98317 235.86014 240.0625 186.71875 C 250.59962 165.46017 237.39681 139.55772 215.71875 132.25 C 206.99926 123.81441 196.08087 121.23637 184.78125 121.1875 z M 682.75 256.71875 C 678.42153 256.91015 674.30544 258.17761 671.28125 260.65625 C 651.71826 284.38216 635.43442 312.22504 617.5 338.5625 C 604.5205 327.2436 591.46982 316.0052 578.625 304.59375 C 571.14479 299.27663 562.77491 292.38599 553.03125 293.34375 L 551.25 294 C 544.14481 300.74531 549.14031 312.17172 552.4375 319.75 C 567.42227 335.10327 582.25858 350.71749 597.3125 366.09375 C 582.90771 383.97423 566.66415 399.9948 546.6875 411.96875 C 536.64962 416.2198 531.77842 430.80555 542.78125 437.03125 C 551.27211 443.41477 560.82363 436.76454 567.25 430.8125 C 579.08871 415.36404 595.21616 398.44537 612.15625 381.0625 C 635.03362 403.84437 658.70701 425.77103 684.46875 445.25 C 691.13898 451.23527 700.92958 457.50089 710.0625 453.625 C 715.72012 448.71537 716.73491 438.95763 713.8125 432.375 C 690.41394 404.63244 664.01713 379.74922 636.875 355.625 C 657.06391 334.54828 676.00668 313.41755 687.6875 293.84375 C 690.87448 283.4088 708.5035 275.86114 701.75 264.5 C 697.709 259.12986 689.96412 256.39975 682.75 256.71875 z M 349.15625 402 C 347.72579 402.02378 346.3008 402.08071 344.90625 402.15625 C 326.66804 411.61386 323.97961 470.94315 328.40625 496.96875 C 308.91909 501.41033 289.59797 506.55222 270.625 513 C 262.29744 514.91604 251.34275 514.32922 246.6875 523 C 244.28513 528.1064 240.83515 538.32683 247.90625 540.6875 C 256.98933 557.62309 273.95062 559.91699 290.75 566.09375 C 319.0504 556.6397 343.17354 542.95487 374.90625 542.03125 C 389.74769 542.85951 405.97219 548.58973 419.8125 540.46875 C 429.81368 533.95544 430.45599 520.71759 430.0625 509.96875 C 430.32721 501.61167 428.92119 490.79868 420.0625 487.28125 C 411.14558 483.96735 401.29579 484.09056 391.90625 484.25 C 382.71928 485.95262 373.55242 487.68576 364.375 489.46875 C 364.78372 469.2251 384.26233 456.01045 385.71875 436.59375 C 385.36644 427.38879 384.48297 417.06369 377.25 410.4375 C 369.80404 403.25994 359.16949 401.83351 349.15625 402 z M 710.25 616.3125 C 681.78234 616.54752 653.36128 619.82848 624.875 619.375 C 563.32496 623.89876 506.79047 653.60353 445.09375 657.46875 C 417.73588 659.98429 390.14696 667.7981 371.25 689.03125 C 391.44089 706.22417 419.86385 697.12743 441.6875 688.375 C 445.40774 687.87214 449.13362 687.33636 452.84375 686.78125 C 450.90198 700.73578 451.43087 714.98666 450.46875 729 C 443.25939 771.2324 459.6164 812.098 468.8125 852.6875 C 469.38252 861.10174 470.57762 871.95969 478.90625 876.03125 C 457.21657 880.22689 435.5523 884.56778 413.90625 889.03125 C 419.22955 886.2097 423.19039 881.43099 421.9375 874.90625 C 401.68986 821.75509 382.57374 769.00576 366.78125 714.125 C 359.22239 690.06208 344.92792 664.89604 319.96875 655.875 C 312.65356 653.88907 302.25194 650.14683 296.59375 656.875 L 296.21875 659.03125 C 294.04262 671.00327 280.24709 681.22742 287.84375 694.15625 C 307.67833 751.22124 339.71475 801.28768 351.25 861.15625 C 351.80722 889.85265 377.63242 890.37005 400.28125 891.875 C 334.47031 905.60819 268.8502 920.43527 203.3125 935.9375 C 192.08547 939.92636 174.37441 943.1885 176.21875 959.0625 C 196.06637 991.5422 241.48525 1005.7973 271.03125 977.09375 C 407.99639 928.86493 551.36857 904.45545 694.40625 881.625 C 738.69948 877.45908 783.18337 881.79404 827.375 881.1875 C 864.90949 881.67416 881.21001 820.39875 834.5625 823.0625 C 799.54362 826.46888 764.6393 830.47224 729.8125 835 C 730.79418 833.11425 731.6022 831.06817 732.1875 828.84375 C 739.32654 784.62798 753.15157 743.48078 776.1875 705.09375 C 784.55315 685.77354 805.68143 662.74362 789.375 642.0625 C 775.71756 623.21149 751.99893 617.43142 729.96875 616.71875 C 723.39424 616.36396 716.81946 616.25827 710.25 616.3125 z M 650.34375 648.34375 C 671.43463 647.91826 693.90625 665.84705 686.59375 688.53125 C 670.28865 737.62156 670.39707 792.25011 647.84375 839.0625 C 647.89402 842.20239 648.74399 844.52736 650.15625 846.28125 C 631.5737 849.11516 613.00735 852.06124 594.46875 855.15625 C 609.39302 795.1964 615.91782 736.97971 616.8125 674.8125 C 618.81217 668.33439 629.27213 655.4848 619.75 653.59375 C 629.24865 651.76897 638.75944 650.05465 648.3125 648.46875 C 648.98893 648.41642 649.6634 648.35748 650.34375 648.34375 z M 577.59375 662.21875 C 575.62574 664.70236 573.54211 667.50789 571.25 670.71875 C 567.70514 732.65133 566.76195 795.41484 564.125 857.84375 C 564.15875 858.76814 564.28217 859.57559 564.5 860.28125 C 545.24977 863.63613 526.02179 867.11734 506.8125 870.71875 C 513.51038 865.28032 517.35401 856.77884 516.15625 846.40625 C 519.12018 796.31762 508.80739 747.89767 503.0625 698.65625 C 501.11353 691.5354 496.36552 685.94885 492.125 680.0625 C 520.69961 674.64535 549.11114 668.29084 577.59375 662.21875 z "
         transform="matrix(0.21004227,0,0,0.21004227,93.274493,615.82239)"
         id="path3905" />
    </g>
  </g>
</svg>
