<?xml version="1.0" encoding="UTF-8" standalone="no"?>
<!-- Created with Inkscape (http://www.inkscape.org/) -->

<svg
   xmlns:dc="http://purl.org/dc/elements/1.1/"
   xmlns:cc="http://creativecommons.org/ns#"
   xmlns:rdf="http://www.w3.org/1999/02/22-rdf-syntax-ns#"
   xmlns:svg="http://www.w3.org/2000/svg"
   xmlns="http://www.w3.org/2000/svg"
   xmlns:sodipodi="http://sodipodi.sourceforge.net/DTD/sodipodi-0.dtd"
   xmlns:inkscape="http://www.inkscape.org/namespaces/inkscape"
   width="1000"
   height="1000"
   id="svg3173"
   version="1.1"
   inkscape:version="0.47 r22583"
   sodipodi:docname="884c.svg"
   inkscape:export-filename="E:\chinese\images\yan_xing_duan_pie.png"
   inkscape:export-xdpi="18.005705"
   inkscape:export-ydpi="18.005705">
  <title
     id="title2821">Xing</title>
  <defs
     id="defs3175">
    <inkscape:perspective
       sodipodi:type="inkscape:persp3d"
       inkscape:vp_x="0 : 526.18109 : 1"
       inkscape:vp_y="0 : 1000 : 0"
       inkscape:vp_z="744.09448 : 526.18109 : 1"
       inkscape:persp3d-origin="372.04724 : 350.78739 : 1"
       id="perspective3181" />
    <inkscape:perspective
       id="perspective3191"
       inkscape:persp3d-origin="0.5 : 0.33333333 : 1"
       inkscape:vp_z="1 : 0.5 : 1"
       inkscape:vp_y="0 : 1000 : 0"
       inkscape:vp_x="0 : 0.5 : 1"
       sodipodi:type="inkscape:persp3d" />
    <inkscape:perspective
       id="perspective4006"
       inkscape:persp3d-origin="0.5 : 0.33333333 : 1"
       inkscape:vp_z="1 : 0.5 : 1"
       inkscape:vp_y="0 : 1000 : 0"
       inkscape:vp_x="0 : 0.5 : 1"
       sodipodi:type="inkscape:persp3d" />
    <inkscape:perspective
       id="perspective4034"
       inkscape:persp3d-origin="0.5 : 0.33333333 : 1"
       inkscape:vp_z="1 : 0.5 : 1"
       inkscape:vp_y="0 : 1000 : 0"
       inkscape:vp_x="0 : 0.5 : 1"
       sodipodi:type="inkscape:persp3d" />
    <inkscape:perspective
       id="perspective4081"
       inkscape:persp3d-origin="0.5 : 0.33333333 : 1"
       inkscape:vp_z="1 : 0.5 : 1"
       inkscape:vp_y="0 : 1000 : 0"
       inkscape:vp_x="0 : 0.5 : 1"
       sodipodi:type="inkscape:persp3d" />
    <inkscape:perspective
       id="perspective4147"
       inkscape:persp3d-origin="0.5 : 0.33333333 : 1"
       inkscape:vp_z="1 : 0.5 : 1"
       inkscape:vp_y="0 : 1000 : 0"
       inkscape:vp_x="0 : 0.5 : 1"
       sodipodi:type="inkscape:persp3d" />
    <inkscape:perspective
       id="perspective3737"
       inkscape:persp3d-origin="0.5 : 0.33333333 : 1"
       inkscape:vp_z="1 : 0.5 : 1"
       inkscape:vp_y="0 : 1000 : 0"
       inkscape:vp_x="0 : 0.5 : 1"
       sodipodi:type="inkscape:persp3d" />
  </defs>
  <sodipodi:namedview
     id="base"
     pagecolor="#ffffff"
     bordercolor="#666666"
     borderopacity="1.0"
     inkscape:pageopacity="0.0"
     inkscape:pageshadow="2"
     inkscape:zoom="0.35"
     inkscape:cx="217.85714"
     inkscape:cy="525.71429"
     inkscape:document-units="px"
     inkscape:current-layer="g3979"
     showgrid="false"
     inkscape:window-width="1440"
     inkscape:window-height="840"
     inkscape:window-x="-4"
     inkscape:window-y="-4"
     inkscape:window-maximized="1" />
  <metadata
     id="metadata3178">
    <rdf:RDF>
      <cc:Work
         rdf:about="">
        <dc:format>image/svg+xml</dc:format>
        <dc:type
           rdf:resource="http://purl.org/dc/dcmitype/StillImage" />
        <dc:title>Xing</dc:title>
        <dc:date>2010-07-15</dc:date>
        <dc:creator>
          <cc:Agent>
            <dc:title>Alex Amies</dc:title>
          </cc:Agent>
        </dc:creator>
        <dc:rights>
          <cc:Agent>
            <dc:title>@ Alex Amies 2010</dc:title>
          </cc:Agent>
        </dc:rights>
        <dc:publisher>
          <cc:Agent>
            <dc:title>chinesenotes.com</dc:title>
          </cc:Agent>
        </dc:publisher>
        <dc:source>Yan Qin Ceremonial Inscription</dc:source>
        <dc:language>Chinese 中文</dc:language>
        <dc:description>Tracing from Tang Dynasty Ceremonial Inscription by Yan Zhenqing 颜真卿 (709－785)</dc:description>
        <cc:license
           rdf:resource="http://creativecommons.org/licenses/by/3.0/" />
      </cc:Work>
      <cc:License
         rdf:about="http://creativecommons.org/licenses/by/3.0/">
        <cc:permits
           rdf:resource="http://creativecommons.org/ns#Reproduction" />
        <cc:permits
           rdf:resource="http://creativecommons.org/ns#Distribution" />
        <cc:requires
           rdf:resource="http://creativecommons.org/ns#Notice" />
        <cc:requires
           rdf:resource="http://creativecommons.org/ns#Attribution" />
        <cc:permits
           rdf:resource="http://creativecommons.org/ns#DerivativeWorks" />
      </cc:License>
    </rdf:RDF>
  </metadata>
  <g
     inkscape:label="Layer 1"
     inkscape:groupmode="layer"
     id="layer1"
     transform="translate(0,-52.362183)">
    <g
       transform="matrix(4.7082598,0,0,4.7082598,-1619.6209,-2944.1518)"
       id="g3979"
       style="fill:none;fill-opacity:1">
      <path
         sodipodi:nodetypes="ccccc"
         id="path3951"
         d="m 404.28571,650.21932 c -9.20258,12.27249 -22.5749,21.121 -30.35714,34.64286 0,1.19048 0,2.38095 0,3.57143 14.17829,-0.82911 38.83641,-11.02901 47.73322,-18.02397 -1.60431,-12.80678 -6.10162,-19.41762 -17.37608,-20.19032 z"
         style="fill:#000000;fill-opacity:1;stroke:#000000;stroke-width:1px;stroke-linecap:butt;stroke-linejoin:miter;stroke-opacity:1" />
      <path
         sodipodi:nodetypes="ccccccccc"
         id="path3953"
         d="m 442.14286,678.43361 c -1.87311,1.88193 -1.72267,3.69361 -1.27361,5.68038 0.42197,4.11617 8.07091,2.04816 11.03825,1.62887 12.46527,-1.55046 23.47298,-6.70829 34.8962,-11.46073 2.49401,-0.75905 4.98801,-1.51809 7.48202,-2.27714 3.19901,-4.26593 1.63384,-6.59169 -0.35715,-11.07143 -3.21285,-2.21803 -6.26645,-2.5 -10,-2.5 -2.78542,2.50824 -5.50178,5.09309 -8.33,7.55373 -10.88823,4.59579 -21.40108,11.56178 -33.45571,12.44632 z"
         style="fill:none;fill-opacity:1;stroke:#000000;stroke-width:1px;stroke-linecap:butt;stroke-linejoin:miter;stroke-opacity:1" />
      <path
         id="path3955"
         d="m 413.21429,695.93361 c -1.76552,5.56573 -4.86207,10.70024 -9.02697,14.79362 -14.01918,15.42198 -28.0285,30.85291 -42.04446,46.27781 -0.35714,1.19048 -0.71429,2.38095 -1.07143,3.57143 16.70909,-2.60355 44.66342,-29.46828 59.64286,-40.35715 3.1059,0.13668 6.44556,0.30066 8.9067,-1.92753 1.0631,-9.54321 -7.03794,-20.75057 -16.4067,-22.35818 z"
         style="fill:none;fill-opacity:1;stroke:#000000;stroke-width:1px;stroke-linecap:butt;stroke-linejoin:miter;stroke-opacity:1"
         sodipodi:nodetypes="ccccccc" />
      <path
         id="path3957"
         d="m 397.85714,733.79075 c -4.30976,1.38446 -2.24538,6.81645 -3.20576,10.13605 -1.76452,17.25962 -2.49041,34.65951 -5.387,51.78541 -4.76618,5.36329 -4.28802,13.04425 -0.17606,18.69177 5.01223,8.30832 12.10056,1.10405 15.55454,-4.89892 -2.08253,-10.61254 -1.69733,-21.60443 0.21766,-32.21591 2.37583,-12.42121 4.71208,-24.78207 1.99881,-37.31069 -1.5084,-4.17606 -5.19997,-5.17371 -9.00219,-6.18771 z"
         style="fill:none;fill-opacity:1;stroke:#000000;stroke-width:1px;stroke-linecap:butt;stroke-linejoin:miter;stroke-opacity:1"
         sodipodi:nodetypes="cccccccc" />
      <path
         id="path3959"
         d="m 418.57143,732.71932 c -1.0323,5.41671 5.59303,7.59548 8.75034,10.63676 5.83788,1.17884 11.16951,-2.97446 16.7234,-4.22233 22.89847,-9.84588 47.70595,-12.87363 71.5165,-19.61476 5.47209,-0.45665 10.72967,2.03161 16.24883,1.46703 3.2995,-0.36565 7.98812,0.62568 9.80339,-2.86475 2.12008,-1.78923 2.3972,-4.27034 0.55462,-6.55226 -2.75232,-4.28363 -8.23481,-7.49118 -13.3981,-6.50762 -4.81958,2.1779 -9.6076,4.38203 -14.76963,5.7109 -12.82055,4.27343 -26.12309,6.76187 -39.23145,9.95854 -18.07933,5.96113 -38.85703,3.89609 -56.1979,11.98849 z"
         style="fill:none;fill-opacity:1;stroke:#000000;stroke-width:1px;stroke-linecap:butt;stroke-linejoin:miter;stroke-opacity:1"
         sodipodi:nodetypes="ccccccccccc" />
      <path
         id="path3961"
         d="m 481.42857,713.43361 c -7.05211,-0.49446 -4.66035,7.38106 -4.4993,11.93818 3.89771,28.51424 4.21901,51.55054 -0.25438,79.87949 -0.73112,1.56984 0.008,4.49224 -1.97326,4.91195 -7.46713,2.64225 -14.44004,0.77572 -21.48734,-1.72962 1.8024,4.98944 7.86361,6.41587 11.28681,10.14171 5.6094,2.53235 5.07757,8.85743 3.89263,13.86038 0.17841,5.45182 7.55103,6.43451 11.57116,4.14382 14.00842,-3.93298 13.94089,-12.39167 17.51855,-26.14076 1.24585,-8.94863 2.98197,-17.86909 3.87389,-26.84241 -1.36192,-16.63355 -2.00997,-33.3909 -4.97773,-49.83879 -1.90856,-4.81901 -2.13332,-19.31754 -8.86795,-20.0939 -2.00764,-0.79609 -4.02857,-0.46771 -6.08308,-0.23005 z"
         style="fill:none;fill-opacity:1;stroke:#000000;stroke-width:1px;stroke-linecap:butt;stroke-linejoin:miter;stroke-opacity:1"
         sodipodi:nodetypes="ccccccccccccc" />
    </g>
    <g
       id="g3843"
       transform="matrix(4.7082598,0,0,4.7082598,-4101.0095,-1089.8361)">
      <rect
         y="243.72568"
         x="872.76239"
         height="210.13051"
         width="210.13051"
         id="rect3211"
         style="fill:none;stroke:#969696;stroke-width:0.98121977;stroke-linecap:round;stroke-linejoin:round;stroke-miterlimit:4;stroke-opacity:1;stroke-dasharray:none;stroke-dashoffset:0" />
      <path
         id="path3214"
         d="M 875.03718,247.18395 1081.1083,453.25507"
         style="fill:none;stroke:#969696;stroke-width:1;stroke-linecap:butt;stroke-linejoin:miter;stroke-miterlimit:4;stroke-opacity:1;stroke-dasharray:3, 3;stroke-dashoffset:0" />
      <path
         id="path3988"
         d="M 873.60861,451.23475 C 1079.6797,247.18393 1081.7001,247.18393 1081.7001,247.18393"
         style="fill:none;stroke:#969696;stroke-width:1;stroke-linecap:butt;stroke-linejoin:miter;stroke-miterlimit:4;stroke-opacity:1;stroke-dasharray:3, 3;stroke-dashoffset:0" />
      <path
         id="path3214-7"
         d="m 977.44562,245.95805 -1.2563,207.68607"
         style="fill:none;stroke:#969696;stroke-width:0.88551849;stroke-linecap:butt;stroke-linejoin:miter;stroke-miterlimit:4;stroke-opacity:1;stroke-dasharray:2.65655558, 2.65655558;stroke-dashoffset:0" />
      <path
         id="path3214-0"
         d="m 873.47551,349.35353 208.19929,-1.12518"
         style="fill:none;stroke:#969696;stroke-width:0.88989258;stroke-linecap:butt;stroke-linejoin:miter;stroke-miterlimit:4;stroke-opacity:1;stroke-dasharray:2.66967779, 2.66967779;stroke-dashoffset:0" />
    </g>
  </g>
</svg>
