<?xml version="1.0" encoding="UTF-8" standalone="no"?>
<!-- Created with Inkscape (http://www.inkscape.org/) -->

<svg
   xmlns:dc="http://purl.org/dc/elements/1.1/"
   xmlns:cc="http://creativecommons.org/ns#"
   xmlns:rdf="http://www.w3.org/1999/02/22-rdf-syntax-ns#"
   xmlns:svg="http://www.w3.org/2000/svg"
   xmlns="http://www.w3.org/2000/svg"
   xmlns:sodipodi="http://sodipodi.sourceforge.net/DTD/sodipodi-0.dtd"
   xmlns:inkscape="http://www.inkscape.org/namespaces/inkscape"
   width="1000"
   height="1000"
   id="svg3173"
   version="1.1"
   inkscape:version="0.47 r22583"
   sodipodi:docname="ming_variant.svg"
   inkscape:export-filename="E:\chinese\images\yan_quan_with_zhipie.png"
   inkscape:export-xdpi="18.005705"
   inkscape:export-ydpi="18.005705">
  <title
     id="title3666">Ming Variant</title>
  <defs
     id="defs3175">
    <inkscape:perspective
       sodipodi:type="inkscape:persp3d"
       inkscape:vp_x="0 : 526.18109 : 1"
       inkscape:vp_y="0 : 1000 : 0"
       inkscape:vp_z="744.09448 : 526.18109 : 1"
       inkscape:persp3d-origin="372.04724 : 350.78739 : 1"
       id="perspective3181" />
    <inkscape:perspective
       id="perspective3191"
       inkscape:persp3d-origin="0.5 : 0.33333333 : 1"
       inkscape:vp_z="1 : 0.5 : 1"
       inkscape:vp_y="0 : 1000 : 0"
       inkscape:vp_x="0 : 0.5 : 1"
       sodipodi:type="inkscape:persp3d" />
    <inkscape:perspective
       id="perspective4006"
       inkscape:persp3d-origin="0.5 : 0.33333333 : 1"
       inkscape:vp_z="1 : 0.5 : 1"
       inkscape:vp_y="0 : 1000 : 0"
       inkscape:vp_x="0 : 0.5 : 1"
       sodipodi:type="inkscape:persp3d" />
    <inkscape:perspective
       id="perspective4034"
       inkscape:persp3d-origin="0.5 : 0.33333333 : 1"
       inkscape:vp_z="1 : 0.5 : 1"
       inkscape:vp_y="0 : 1000 : 0"
       inkscape:vp_x="0 : 0.5 : 1"
       sodipodi:type="inkscape:persp3d" />
    <inkscape:perspective
       id="perspective4081"
       inkscape:persp3d-origin="0.5 : 0.33333333 : 1"
       inkscape:vp_z="1 : 0.5 : 1"
       inkscape:vp_y="0 : 1000 : 0"
       inkscape:vp_x="0 : 0.5 : 1"
       sodipodi:type="inkscape:persp3d" />
    <inkscape:perspective
       id="perspective4147"
       inkscape:persp3d-origin="0.5 : 0.33333333 : 1"
       inkscape:vp_z="1 : 0.5 : 1"
       inkscape:vp_y="0 : 1000 : 0"
       inkscape:vp_x="0 : 0.5 : 1"
       sodipodi:type="inkscape:persp3d" />
    <inkscape:perspective
       id="perspective3765"
       inkscape:persp3d-origin="0.5 : 0.33333333 : 1"
       inkscape:vp_z="1 : 0.5 : 1"
       inkscape:vp_y="0 : 1000 : 0"
       inkscape:vp_x="0 : 0.5 : 1"
       sodipodi:type="inkscape:persp3d" />
    <inkscape:perspective
       id="perspective3793"
       inkscape:persp3d-origin="0.5 : 0.33333333 : 1"
       inkscape:vp_z="1 : 0.5 : 1"
       inkscape:vp_y="0 : 1000 : 0"
       inkscape:vp_x="0 : 0.5 : 1"
       sodipodi:type="inkscape:persp3d" />
    <inkscape:perspective
       id="perspective3780"
       inkscape:persp3d-origin="0.5 : 0.33333333 : 1"
       inkscape:vp_z="1 : 0.5 : 1"
       inkscape:vp_y="0 : 1000 : 0"
       inkscape:vp_x="0 : 0.5 : 1"
       sodipodi:type="inkscape:persp3d" />
    <inkscape:perspective
       id="perspective2993"
       inkscape:persp3d-origin="0.5 : 0.33333333 : 1"
       inkscape:vp_z="1 : 0.5 : 1"
       inkscape:vp_y="0 : 1000 : 0"
       inkscape:vp_x="0 : 0.5 : 1"
       sodipodi:type="inkscape:persp3d" />
    <inkscape:perspective
       id="perspective3767"
       inkscape:persp3d-origin="0.5 : 0.33333333 : 1"
       inkscape:vp_z="1 : 0.5 : 1"
       inkscape:vp_y="0 : 1000 : 0"
       inkscape:vp_x="0 : 0.5 : 1"
       sodipodi:type="inkscape:persp3d" />
    <inkscape:perspective
       id="perspective3826"
       inkscape:persp3d-origin="0.5 : 0.33333333 : 1"
       inkscape:vp_z="1 : 0.5 : 1"
       inkscape:vp_y="0 : 1000 : 0"
       inkscape:vp_x="0 : 0.5 : 1"
       sodipodi:type="inkscape:persp3d" />
  </defs>
  <sodipodi:namedview
     id="base"
     pagecolor="#ffffff"
     bordercolor="#666666"
     borderopacity="1.0"
     inkscape:pageopacity="0.0"
     inkscape:pageshadow="2"
     inkscape:zoom="0.49497475"
     inkscape:cx="272.45887"
     inkscape:cy="517.14286"
     inkscape:document-units="px"
     inkscape:current-layer="layer1"
     showgrid="false"
     inkscape:window-width="1440"
     inkscape:window-height="840"
     inkscape:window-x="-4"
     inkscape:window-y="-4"
     inkscape:window-maximized="1" />
  <metadata
     id="metadata3178">
    <rdf:RDF>
      <cc:Work
         rdf:about="">
        <dc:format>image/svg+xml</dc:format>
        <dc:type
           rdf:resource="http://purl.org/dc/dcmitype/StillImage" />
        <dc:title>Ming Variant</dc:title>
        <dc:date>2010-07-16</dc:date>
        <dc:creator>
          <cc:Agent>
            <dc:title>Alex Amies</dc:title>
          </cc:Agent>
        </dc:creator>
        <dc:rights>
          <cc:Agent>
            <dc:title>@ Alex Amies 2010</dc:title>
          </cc:Agent>
        </dc:rights>
        <dc:publisher>
          <cc:Agent>
            <dc:title>chinesenotes.com</dc:title>
          </cc:Agent>
        </dc:publisher>
        <dc:source>Yan Qin Ceremonial Inscription</dc:source>
        <dc:language>Chinese 中文</dc:language>
        <dc:description>Tracing from Tang Dynasty Ceremonial Inscription by Yan Zhenqing 颜真卿 (709－785)</dc:description>
        <cc:license
           rdf:resource="http://creativecommons.org/licenses/by/3.0/" />
      </cc:Work>
      <cc:License
         rdf:about="http://creativecommons.org/licenses/by/3.0/">
        <cc:permits
           rdf:resource="http://creativecommons.org/ns#Reproduction" />
        <cc:permits
           rdf:resource="http://creativecommons.org/ns#Distribution" />
        <cc:requires
           rdf:resource="http://creativecommons.org/ns#Notice" />
        <cc:requires
           rdf:resource="http://creativecommons.org/ns#Attribution" />
        <cc:permits
           rdf:resource="http://creativecommons.org/ns#DerivativeWorks" />
      </cc:License>
    </rdf:RDF>
  </metadata>
  <g
     inkscape:label="Layer 1"
     inkscape:groupmode="layer"
     id="layer1"
     transform="translate(0,-52.362183)">
    <g
       transform="matrix(4.7418067,0,0,4.7418067,-2389.4362,-2977.2531)"
       id="g4252"
       style="fill:#000000;fill-opacity:1">
      <path
         id="path4117"
         d="m 525,691.6479 c -4.27348,1.65859 -3.56201,7.14822 -2.75492,10.7349 9.87353,31.94412 3.4774,65.90756 10.96921,98.19367 3.36863,3.08077 10.57141,2.35266 8.56805,-3.49398 -0.43694,-31.11937 -0.5054,-62.34242 -2.1629,-93.41693 C 538.39409,695.47616 532.86099,691.02791 525,691.6479 z"
         style="fill:#000000;fill-opacity:1;stroke:#000000;stroke-width:1px;stroke-linecap:butt;stroke-linejoin:miter;stroke-opacity:1"
         sodipodi:nodetypes="cccccc" />
      <path
         id="path4119"
         d="m 529.28572,692.71932 c -1.50693,6.18902 6.29289,12.59726 11.58998,7.95694 16.99813,-4.87354 34.85021,-10.00794 52.69573,-9.38551 7.56517,39.69944 1.21112,76.18064 -5,114.64286 4.08173,6.49475 13.08123,3.40708 13.16451,-4.03584 8.67192,-34.1549 6.13403,-69.90755 7.99326,-104.82803 0.25549,-6.31636 1.40529,-13.55538 -2.43354,-19.03352 -5.60173,-6.33355 -13.746,-1.70034 -20.24217,-0.0699 -19.74757,3.14437 -39.60589,5.96055 -57.76777,14.75304 l 0,-4e-5 z"
         style="fill:#000000;fill-opacity:1;stroke:#000000;stroke-width:1px;stroke-linecap:butt;stroke-linejoin:miter;stroke-opacity:1"
         sodipodi:nodetypes="cccccccccc" />
      <path
         id="path4121"
         d="m 551.78572,697.36218 c 1.958,10.98933 2.5,22.0844 2.5,33.21429 -3.65185,2.54776 -8.09413,3.71929 -12.51422,3.5537 -4.95194,0.93315 -4.91645,2.63416 -2.94808,6.64671 8.84605,-0.50066 18.81469,-2.863 23.67658,-7.3433 0.62593,-12.82456 -0.63638,-25.50629 -2.1429,-38.21429 -4.65984,-1.46896 -5.87437,-1.70998 -8.57138,2.14289 z"
         style="fill:#000000;fill-opacity:1;stroke:#000000;stroke-width:1px;stroke-linecap:butt;stroke-linejoin:miter;stroke-opacity:1"
         sodipodi:nodetypes="ccccccc" />
      <path
         id="path4123"
         d="m 574.71825,697.59878 c -0.48059,9.28534 1.16278,18.53062 1.30248,27.86598 0.9753,4.5483 3.82243,7.86015 6.8364,11.18314 4.17695,0.78442 7.22012,0.14328 10.35454,-1.35556 5.34648,1.23856 3.69767,-5.21961 -0.10633,-6.33583 -5.12888,0.7884 -7.42671,-1.49419 -8.46253,-7.30861 0.26201,-9.0963 0.66141,-18.21261 0.0219,-27.30269 -1.30449,-2.59007 -3.78807,-4.45965 -6.59649,-5.12694 l -0.21109,-0.0704 10e-6,0 c -1.50053,2.71883 -2.82993,5.33734 -3.13889,8.45091 z"
         style="fill:#000000;fill-opacity:1;stroke:#000000;stroke-width:1px;stroke-linecap:butt;stroke-linejoin:miter;stroke-opacity:1"
         sodipodi:nodetypes="ccccccccccc" />
      <path
         id="path4125"
         d="m 551.78572,760.93361 c 0.25493,8.70231 1.04564,17.36605 1.0714,26.07143 3.23202,3.06045 4.71592,2.55432 8.57143,1.07143 -0.54288,-8.97826 -0.1597,-18.10587 -1.20086,-27.04457 -2.32292,-6.40406 -5.79323,-4.639 -8.44197,-0.0983 z"
         style="fill:#000000;fill-opacity:1;stroke:#000000;stroke-width:1px;stroke-linecap:butt;stroke-linejoin:miter;stroke-opacity:1"
         sodipodi:nodetypes="ccccc" />
      <path
         id="path4127"
         d="m 558.57143,763.79075 c 3.54877,0.31509 7.06082,-0.54816 10.56261,-0.84452 5.22037,3.15829 6.50084,5.53835 3.92021,19.06822 1.15637,4.05246 7.00844,2.51361 8.59555,-0.45577 2.52757,-8.6617 3.0702,-18.52806 3.22438,-27.62904 0.23642,-5.1202 -4.09311,-6.17996 -8.13681,-6.42811 -3.46568,-0.3666 -6.23485,2.91113 -8.88024,4.86036 -4.17514,0.78966 -8.35369,1.56795 -12.5,2.5 -0.2965,3.81427 1.07946,5.99345 3.2143,8.92886 z"
         style="fill:#000000;fill-opacity:1;stroke:#000000;stroke-width:1px;stroke-linecap:butt;stroke-linejoin:miter;stroke-opacity:1"
         sodipodi:nodetypes="ccccccccc" />
      <path
         id="path4129"
         d="m 539.28572,793.07647 c 0.35714,2.38095 0.71428,4.76191 1.07142,7.14286 2.63192,1.36796 5.47044,2.6998 8.51556,2.13659 4.5485,-0.13647 9.18693,-0.43646 13.44351,-2.18735 3.72517,-1.17024 7.38626,-2.66235 11.17293,-3.56576 5.42754,-0.33517 10.89454,-0.70031 16.16629,-2.11321 1.97134,-0.24777 4.57005,0.82374 6.01639,-1.01352 0.84749,-0.84749 1.69498,-1.69498 2.54247,-2.54247 0.15536,-2.11738 0.74072,-4.44293 -0.6006,-6.3209 -0.63313,-1.34542 -1.26627,-2.69083 -1.8994,-4.03624 -1.66667,-0.71429 -3.33333,-1.42857 -5,-2.14286 -9.70966,2.51345 -19.18944,5.81646 -28.81009,8.62814 -5.78812,1.47333 -11.77691,2.04283 -17.74023,2.03397 -1.58062,-1.22083 -6.82414,-1.51163 -5.51407,1.43756 0.21192,0.84773 0.42394,1.69548 0.63582,2.54319 z"
         style="fill:#000000;fill-opacity:1;stroke:#000000;stroke-width:1px;stroke-linecap:butt;stroke-linejoin:miter;stroke-opacity:1" />
      <path
         id="path4131"
         d="m 630.71429,685.21932 c -2.98756,15.74344 -0.24302,31.9315 -3.1916,47.68972 -5.02145,32.65905 -6.07192,68.39291 -29.83605,93.73357 3.08875,1.07992 8.15871,-0.92458 11.45027,-2.6344 13.83213,-11.84776 21.66674,-32.31067 25.91244,-49.70014 4.47263,-18.20158 8.72687,-36.72354 8.13051,-55.59421 -0.0749,-8.50513 0.59311,-17.13981 -0.65488,-25.55769 -1.07522,-7.33358 -5.39058,-9.36353 -11.81069,-7.93685 z"
         style="fill:#000000;fill-opacity:1;stroke:#000000;stroke-width:1px;stroke-linecap:butt;stroke-linejoin:miter;stroke-opacity:1"
         sodipodi:nodetypes="cccccccc" />
      <path
         sodipodi:nodetypes="ccccccccccccc"
         id="path4133"
         d="m 631.78572,670.57647 c -5.60353,3.99583 -9.90335,11.99204 -7.02133,18.77491 5.27414,7.73973 14.55233,-1.7867 21.15645,-2.84344 9.42591,-1.29157 18.57763,-4.15828 27.70189,-6.83288 11.43252,18.45914 5.33416,56.63377 4.78997,78.18199 -0.54716,15.85378 -1.09986,31.7781 -2.58031,47.542 -1.25099,3.95779 -10.80666,3.40858 -12.71851,0.49314 0.59491,9.48857 10.32759,16.39814 14.12396,25.22654 4.48836,7.34912 8.37625,-2.87545 9.49536,-7.10418 11.79101,-45.70372 10.8919,-98.69652 12.53532,-145.97867 -2.22398,-6.78714 -7.67419,-16.94297 -16.05587,-15.44544 -6.73615,2.38583 -13.56378,4.65418 -20.80265,4.79394 -10.17319,0.77985 -21.01538,-1.01637 -30.62428,3.19209 z"
         style="fill:#000000;fill-opacity:1;stroke:#000000;stroke-width:1px;stroke-linecap:butt;stroke-linejoin:miter;stroke-opacity:1" />
      <path
         id="path4135"
         d="m 641.07143,715.93361 c 8.59237,6.77161 10.64461,7.82154 24.22739,6.38978 4.0798,-2.76148 -0.8864,-8.92359 -3.30269,-11.15843 -9.57827,-1.47332 -14.19137,3.45406 -20.9247,4.76865 z"
         style="fill:#000000;fill-opacity:1;stroke:#000000;stroke-width:1px;stroke-linecap:butt;stroke-linejoin:miter;stroke-opacity:1"
         sodipodi:nodetypes="cccc" />
      <path
         id="path4137"
         d="m 637.85714,747.71932 c -0.35714,1.54762 -0.71428,3.09524 -1.07142,4.64286 11.16242,3.83045 17.54072,5.36129 24.45447,5.36306 4.98164,-1.01035 7.82156,-6.23689 2.67545,-10.3889 -7.69493,-2.3276 -15.96506,-2.17318 -26.0585,0.38298 z"
         style="fill:#000000;fill-opacity:1;stroke:#000000;stroke-width:1px;stroke-linecap:butt;stroke-linejoin:miter;stroke-opacity:1"
         sodipodi:nodetypes="ccccc" />
    </g>
    <g
       id="g3843"
       transform="matrix(4.7418067,0,0,4.7418067,-4136.6442,-1101.5625)">
      <rect
         y="243.72568"
         x="872.76239"
         height="210.13051"
         width="210.13051"
         id="rect3211"
         style="fill:none;stroke:#969696;stroke-width:0.98121977;stroke-linecap:round;stroke-linejoin:round;stroke-miterlimit:4;stroke-opacity:1;stroke-dasharray:none;stroke-dashoffset:0" />
      <path
         id="path3214"
         d="M 875.03718,247.18395 1081.1083,453.25507"
         style="fill:none;stroke:#969696;stroke-width:1;stroke-linecap:butt;stroke-linejoin:miter;stroke-miterlimit:4;stroke-opacity:1;stroke-dasharray:3, 3;stroke-dashoffset:0" />
      <path
         id="path3988"
         d="M 873.60861,451.23475 C 1079.6797,247.18393 1081.7001,247.18393 1081.7001,247.18393"
         style="fill:none;stroke:#969696;stroke-width:1;stroke-linecap:butt;stroke-linejoin:miter;stroke-miterlimit:4;stroke-opacity:1;stroke-dasharray:3, 3;stroke-dashoffset:0" />
      <path
         id="path3214-7"
         d="m 977.44562,245.95805 -1.2563,207.68607"
         style="fill:none;stroke:#969696;stroke-width:0.88551849;stroke-linecap:butt;stroke-linejoin:miter;stroke-miterlimit:4;stroke-opacity:1;stroke-dasharray:2.65655558, 2.65655558;stroke-dashoffset:0" />
      <path
         id="path3214-0"
         d="m 873.47551,349.35353 208.19929,-1.12518"
         style="fill:none;stroke:#969696;stroke-width:0.88989258;stroke-linecap:butt;stroke-linejoin:miter;stroke-miterlimit:4;stroke-opacity:1;stroke-dasharray:2.66967779, 2.66967779;stroke-dashoffset:0" />
    </g>
  </g>
</svg>
